<svg width="28" height="20" viewBox="0 0 28 20" fill="none" xmlns="http://www.w3.org/2000/svg">
<g id="flags / AN">
<rect id="Mask" x="0.25" y="0.25" width="27.5" height="19.5" rx="1.75" fill="white" stroke="#F5F5F5" stroke-width="0.5"/>
<mask id="mask0_368_9279" style="mask-type:luminance" maskUnits="userSpaceOnUse" x="0" y="0" width="28" height="20">
<rect id="Mask_2" x="0.25" y="0.25" width="27.5" height="19.5" rx="1.75" fill="white" stroke="white" stroke-width="0.5"/>
</mask>
<g mask="url(#mask0_368_9279)">
<rect id="Mask_3" x="10.6667" width="6.66667" height="20" fill="#D6182D"/>
<rect id="Mask_4" y="6.66669" width="28" height="6.66667" fill="#1425A2"/>
<path id="Star 2" fill-rule="evenodd" clip-rule="evenodd" d="M11.3333 11.6667L10.8619 11.8048L11 11.3334L10.8619 10.8619L11.3333 11L11.8047 10.8619L11.6667 11.3334L11.8047 11.8048L11.3333 11.6667Z" fill="white"/>
<path id="Star 2_2" fill-rule="evenodd" clip-rule="evenodd" d="M16.6667 11.6667L16.1953 11.8048L16.3333 11.3334L16.1953 10.8619L16.6667 11L17.1381 10.8619L17 11.3334L17.1381 11.8048L16.6667 11.6667Z" fill="white"/>
<path id="Star 2_3" fill-rule="evenodd" clip-rule="evenodd" d="M8.66667 10.3333L8.19526 10.4714L8.33333 9.99998L8.19526 9.52858L8.66667 9.66665L9.13807 9.52858L9 9.99998L9.13807 10.4714L8.66667 10.3333Z" fill="white"/>
<path id="Star 2_4" fill-rule="evenodd" clip-rule="evenodd" d="M19.3333 10.3333L18.8619 10.4714L19 9.99998L18.8619 9.52858L19.3333 9.66665L19.8047 9.52858L19.6667 9.99998L19.8047 10.4714L19.3333 10.3333Z" fill="white"/>
<path id="Star 2_5" fill-rule="evenodd" clip-rule="evenodd" d="M14 9L13.5286 9.13807L13.6667 8.66667L13.5286 8.19526L14 8.33333L14.4714 8.19526L14.3333 8.66667L14.4714 9.13807L14 9Z" fill="white"/>
</g>
</g>
</svg>
