<svg width="28" height="20" viewBox="0 0 28 20" fill="none" xmlns="http://www.w3.org/2000/svg">
<g id="flags / BA">
<rect id="Mask" width="28" height="20" rx="2" fill="white"/>
<mask id="mask0_368_7452" style="mask-type:luminance" maskUnits="userSpaceOnUse" x="0" y="0" width="28" height="20">
<rect id="Mask_2" width="28" height="20" rx="2" fill="white"/>
</mask>
<g mask="url(#mask0_368_7452)">
<rect id="Mask Copy" width="28" height="20" fill="#0B36B2"/>
<g id="Rectangle 2" filter="url(#filter0_d_368_7452)">
<path fill-rule="evenodd" clip-rule="evenodd" d="M22.6667 20V0H8.66666L22.6667 20Z" fill="#FFD045"/>
</g>
<path id="Star 2" fill-rule="evenodd" clip-rule="evenodd" d="M17.3333 18.6667L16.3905 18.9428L16.6667 18L16.3905 17.0572L17.3333 17.3334L18.2761 17.0572L18 18L18.2761 18.9428L17.3333 18.6667Z" fill="white"/>
<path id="Star 2_2" fill-rule="evenodd" clip-rule="evenodd" d="M14.6667 14.6667L13.7239 14.9428L14 14L13.7239 13.0572L14.6667 13.3334L15.6095 13.0572L15.3333 14L15.6095 14.9428L14.6667 14.6667Z" fill="white"/>
<path id="Star 2_3" fill-rule="evenodd" clip-rule="evenodd" d="M12 10.6667L11.0572 10.9428L11.3333 10L11.0572 9.05721L12 9.33335L12.9428 9.05721L12.6667 10L12.9428 10.9428L12 10.6667Z" fill="white"/>
<path id="Star 2_4" fill-rule="evenodd" clip-rule="evenodd" d="M9.33333 6.66669L8.39052 6.94283L8.66667 6.00002L8.39052 5.05721L9.33333 5.33335L10.2761 5.05721L10 6.00002L10.2761 6.94283L9.33333 6.66669Z" fill="white"/>
<path id="Star 2_5" fill-rule="evenodd" clip-rule="evenodd" d="M6.66667 2.66669L5.72386 2.94283L6 2.00002L5.72386 1.05721L6.66667 1.33335L7.60948 1.05721L7.33334 2.00002L7.60948 2.94283L6.66667 2.66669Z" fill="white"/>
</g>
</g>
<defs>
<filter id="filter0_d_368_7452" x="8.66666" y="0" width="14" height="20" filterUnits="userSpaceOnUse" color-interpolation-filters="sRGB">
<feFlood flood-opacity="0" result="BackgroundImageFix"/>
<feColorMatrix in="SourceAlpha" type="matrix" values="0 0 0 0 0 0 0 0 0 0 0 0 0 0 0 0 0 0 127 0" result="hardAlpha"/>
<feOffset/>
<feColorMatrix type="matrix" values="0 0 0 0 0 0 0 0 0 0 0 0 0 0 0 0 0 0 0.06 0"/>
<feBlend mode="normal" in2="BackgroundImageFix" result="effect1_dropShadow_368_7452"/>
<feBlend mode="normal" in="SourceGraphic" in2="effect1_dropShadow_368_7452" result="shape"/>
</filter>
</defs>
</svg>
