<svg width="28" height="20" viewBox="0 0 28 20" fill="none" xmlns="http://www.w3.org/2000/svg">
<g id="flags / GI">
<rect id="Mask" x="0.25" y="0.25" width="27.5" height="19.5" rx="1.75" fill="white" stroke="#F5F5F5" stroke-width="0.5"/>
<mask id="mask0_368_7944" style="mask-type:luminance" maskUnits="userSpaceOnUse" x="0" y="0" width="28" height="20">
<rect id="Mask_2" x="0.25" y="0.25" width="27.5" height="19.5" rx="1.75" fill="white" stroke="white" stroke-width="0.5"/>
</mask>
<g mask="url(#mask0_368_7944)">
<path id="Rectangle 2" fill-rule="evenodd" clip-rule="evenodd" d="M0 20H28V13.3333H0V20Z" fill="#E34F4F"/>
<path id="Rectangle 2_2" fill-rule="evenodd" clip-rule="evenodd" d="M9.33333 13.3333H17.3333V8H9.33333V13.3333Z" fill="#E34F4F"/>
<path id="Rectangle 2_3" fill-rule="evenodd" clip-rule="evenodd" d="M10.6667 13.3333H12V12H10.6667V13.3333Z" fill="#181A1A"/>
<path id="Rectangle 2_4" fill-rule="evenodd" clip-rule="evenodd" d="M14.6667 13.3333H16V12H14.6667V13.3333Z" fill="#181A1A"/>
<path id="Rectangle 2_5" fill-rule="evenodd" clip-rule="evenodd" d="M9.33333 7.99999H10.6667V6.66666H9.33333V7.99999Z" fill="#181A1A"/>
<path id="Rectangle 2_6" fill-rule="evenodd" clip-rule="evenodd" d="M13.3333 7.99999H14.6667V6.66666H13.3333V7.99999Z" fill="#181A1A"/>
<path id="Rectangle 2_7" fill-rule="evenodd" clip-rule="evenodd" d="M12 7.99999H13.3333V6.66666H12V7.99999Z" fill="#181A1A"/>
<path id="Rectangle 2_8" fill-rule="evenodd" clip-rule="evenodd" d="M16 7.99999H17.3333V6.66666H16V7.99999Z" fill="#181A1A"/>
<path id="Rectangle 2_9" fill-rule="evenodd" clip-rule="evenodd" d="M9.33333 6.66668H10.6667V5.33334H9.33333V6.66668Z" fill="#E34F4F"/>
<path id="Rectangle 2_10" fill-rule="evenodd" clip-rule="evenodd" d="M13.3333 6.66668H14.6667V5.33334H13.3333V6.66668Z" fill="#E34F4F"/>
<path id="Rectangle 2_11" fill-rule="evenodd" clip-rule="evenodd" d="M12 6.66668H13.3333V5.33334H12V6.66668Z" fill="#E34F4F"/>
<path id="Rectangle 2_12" fill-rule="evenodd" clip-rule="evenodd" d="M16 6.66668H17.3333V5.33334H16V6.66668Z" fill="#E34F4F"/>
</g>
</g>
</svg>
