<svg width="28" height="20" viewBox="0 0 28 20" fill="none" xmlns="http://www.w3.org/2000/svg">
<g id="flags / LR">
<rect id="Mask" x="0.25" y="0.25" width="27.5" height="19.5" rx="1.75" fill="white" stroke="#F5F5F5" stroke-width="0.5"/>
<mask id="mask0_368_8281" style="mask-type:luminance" maskUnits="userSpaceOnUse" x="0" y="0" width="28" height="20">
<rect id="Mask_2" x="0.25" y="0.25" width="27.5" height="19.5" rx="1.75" fill="white" stroke="white" stroke-width="0.5"/>
</mask>
<g mask="url(#mask0_368_8281)">
<path id="Rectangle 537" fill-rule="evenodd" clip-rule="evenodd" d="M28 0H13.3333V2.66667H28V0ZM28 5.33333H13.3333V8H28V5.33333ZM13.3333 10.6667H28V13.3333H13.3333V10.6667ZM28 16H0V18.6667H28V16Z" fill="#E1244A"/>
<rect id="Rectangle 1568" width="13.3333" height="13.3333" fill="#0C3F8E"/>
<path id="Star 8" fill-rule="evenodd" clip-rule="evenodd" d="M6.66666 8.22667L4.31552 9.90274L5.18301 7.14873L2.86243 5.4306L5.74971 5.4046L6.66666 2.66667L7.5836 5.4046L10.4709 5.4306L8.1503 7.14873L9.0178 9.90274L6.66666 8.22667Z" fill="white"/>
</g>
</g>
</svg>
