<svg width="28" height="20" viewBox="0 0 28 20" fill="none" xmlns="http://www.w3.org/2000/svg">
<g id="flags / LS">
<rect id="Mask" x="0.25" y="0.25" width="27.5" height="19.5" rx="1.75" fill="white" stroke="#F5F5F5" stroke-width="0.5"/>
<mask id="mask0_368_8298" style="mask-type:luminance" maskUnits="userSpaceOnUse" x="0" y="0" width="28" height="20">
<rect id="Mask_2" x="0.25" y="0.25" width="27.5" height="19.5" rx="1.75" fill="white" stroke="white" stroke-width="0.5"/>
</mask>
<g mask="url(#mask0_368_8298)">
<path id="Rectangle 2" fill-rule="evenodd" clip-rule="evenodd" d="M0 6.66667H28V0H0V6.66667Z" fill="#0C33B8"/>
<path id="Rectangle 2_2" fill-rule="evenodd" clip-rule="evenodd" d="M0 20H28V13.3333H0V20Z" fill="#1DB158"/>
<path id="Rectangle 328" fill-rule="evenodd" clip-rule="evenodd" d="M13.3333 10L13.3675 9.89737C13.5701 9.28957 14.4299 9.28957 14.6325 9.89737L14.6667 10L15.8484 11.7726C15.9366 11.9048 15.9172 12.0791 15.7853 12.1678C15.4916 12.3653 14.8965 12.6667 14 12.6667C13.1035 12.6667 12.5084 12.3653 12.2147 12.1678C12.0828 12.0791 12.0634 11.9048 12.1516 11.7726L13.3333 10Z" fill="#262626"/>
<path id="Oval 17" d="M15 8.66667C15 9.21895 14.5523 9.66667 14 9.66667C13.4477 9.66667 13 9.21895 13 8.66667C13 8.11438 13.4477 7.66667 14 7.66667C14.5523 7.66667 15 8.11438 15 8.66667Z" stroke="#262626" stroke-width="0.666667"/>
</g>
</g>
</svg>
