<svg width="28" height="20" viewBox="0 0 28 20" fill="none" xmlns="http://www.w3.org/2000/svg">
<g id="flags / MZ">
<rect id="Mask" width="28" height="20" rx="2" fill="white"/>
<mask id="mask0_368_8477" style="mask-type:luminance" maskUnits="userSpaceOnUse" x="0" y="0" width="28" height="20">
<rect id="Mask_2" width="28" height="20" rx="2" fill="white"/>
</mask>
<g mask="url(#mask0_368_8477)">
<path id="Rectangle 2" fill-rule="evenodd" clip-rule="evenodd" d="M0 20H28V14.6667H0V20Z" fill="#FFE547"/>
<path id="Rectangle 2_2" fill-rule="evenodd" clip-rule="evenodd" d="M0 5.33333H28V0H0V5.33333Z" fill="#118C81"/>
<path id="Rectangle 2_3" fill-rule="evenodd" clip-rule="evenodd" d="M0 14.6667H28V5.33333H0V14.6667Z" fill="white"/>
<path id="Rectangle 2_4" fill-rule="evenodd" clip-rule="evenodd" d="M0 13.3333H28V6.66667H0V13.3333Z" fill="#262626"/>
<path id="Rectangle 83" fill-rule="evenodd" clip-rule="evenodd" d="M0 0L13.3333 10L0 20V0Z" fill="#EF2147"/>
<path id="Star 27" fill-rule="evenodd" clip-rule="evenodd" d="M4.66666 11.2741L2.70738 12.6967L3.45494 10.3937L1.49647 8.96994L3.91778 8.96925L4.66666 6.66667L5.41555 8.96925L7.83685 8.96994L5.87838 10.3937L6.62595 12.6967L4.66666 11.2741Z" fill="#FDE444"/>
</g>
</g>
</svg>
