<svg width="28" height="20" viewBox="0 0 28 20" fill="none" xmlns="http://www.w3.org/2000/svg">
<g id="flags / OM">
<rect id="Mask" x="0.25" y="0.25" width="27.5" height="19.5" rx="1.75" fill="white" stroke="#F5F5F5" stroke-width="0.5"/>
<mask id="mask0_368_8579" style="mask-type:luminance" maskUnits="userSpaceOnUse" x="0" y="0" width="28" height="20">
<rect id="Mask_2" x="0.25" y="0.25" width="27.5" height="19.5" rx="1.75" fill="white" stroke="white" stroke-width="0.5"/>
</mask>
<g mask="url(#mask0_368_8579)">
<path id="Rectangle 2" fill-rule="evenodd" clip-rule="evenodd" d="M0 20H28V13.3333H0V20Z" fill="#138E16"/>
<path id="Rectangle 2_2" fill-rule="evenodd" clip-rule="evenodd" d="M0 20H9.33333V13.3333H28V6.66667H9.33333V0H0V20Z" fill="#ED2B35"/>
<path id="Star 32" fill-rule="evenodd" clip-rule="evenodd" d="M4.66667 4.71176L3.50964 6.40259L4.11019 4.44378L2.06686 4.59339L3.97275 3.84162L2.58178 2.33736L4.35785 3.35873L4.66667 1.33334L4.97549 3.35873L6.75155 2.33736L5.36058 3.84162L7.26647 4.59339L5.22314 4.44378L5.82369 6.40259L4.66667 4.71176Z" fill="white"/>
</g>
</g>
</svg>
