<svg width="28" height="20" viewBox="0 0 28 20" fill="none" xmlns="http://www.w3.org/2000/svg">
<g id="flags / RS">
<rect id="Mask" x="0.25" y="0.25" width="27.5" height="19.5" rx="1.75" fill="white" stroke="#F5F5F5" stroke-width="0.5"/>
<mask id="mask0_368_8693" style="mask-type:luminance" maskUnits="userSpaceOnUse" x="0" y="0" width="28" height="20">
<rect id="Mask_2" x="0.25" y="0.25" width="27.5" height="19.5" rx="1.75" fill="white" stroke="white" stroke-width="0.5"/>
</mask>
<g mask="url(#mask0_368_8693)">
<path id="Rectangle 2" fill-rule="evenodd" clip-rule="evenodd" d="M0 13.3333H28V6.66667H0V13.3333Z" fill="#17508F"/>
<path id="Rectangle 2_2" fill-rule="evenodd" clip-rule="evenodd" d="M0 6.66667H28V0H0V6.66667Z" fill="#E1444D"/>
<g id="Rectangle 1668">
<path id="Mask_3" fill-rule="evenodd" clip-rule="evenodd" d="M6 10C6 9.35495 6.34366 7.91785 6.5375 7.15857C6.61181 6.86752 6.87495 6.66667 7.17534 6.66667H10.1592C10.459 6.66667 10.7218 6.86671 10.7964 7.15711C10.9903 7.91196 11.3333 9.34021 11.3333 10C11.3333 10.745 10.833 12.7008 10.6992 13.2105C10.6777 13.2924 10.6412 13.3677 10.5872 13.433C10.3317 13.7426 9.49918 14.6667 8.66667 14.6667C7.83364 14.6667 7.00061 13.7414 6.74565 13.4324C6.69202 13.3675 6.65559 13.2927 6.63405 13.2113C6.50018 12.7052 6 10.7635 6 10Z" fill="white"/>
<mask id="mask1_368_8693" style="mask-type:luminance" maskUnits="userSpaceOnUse" x="6" y="6" width="6" height="9">
<path id="Mask_4" fill-rule="evenodd" clip-rule="evenodd" d="M6 10C6 9.35495 6.34366 7.91785 6.5375 7.15857C6.61181 6.86752 6.87495 6.66667 7.17534 6.66667H10.1592C10.459 6.66667 10.7218 6.86671 10.7964 7.15711C10.9903 7.91196 11.3333 9.34021 11.3333 10C11.3333 10.745 10.833 12.7008 10.6992 13.2105C10.6777 13.2924 10.6412 13.3677 10.5872 13.433C10.3317 13.7426 9.49918 14.6667 8.66667 14.6667C7.83364 14.6667 7.00061 13.7414 6.74565 13.4324C6.69202 13.3675 6.65559 13.2927 6.63405 13.2113C6.50018 12.7052 6 10.7635 6 10Z" fill="white"/>
</mask>
<g mask="url(#mask1_368_8693)">
<path id="Line" d="M11.3333 7.33334L6.00001 14" stroke="#E1444D" stroke-width="1.33333" stroke-linecap="square"/>
<path id="Line_2" d="M6 7.33334L11.3333 14" stroke="#E1444D" stroke-width="1.33333" stroke-linecap="square"/>
</g>
</g>
</g>
</g>
</svg>
