<svg width="24" height="24" viewBox="0 0 24 24" fill="none" xmlns="http://www.w3.org/2000/svg">
<g id="3d-arc">
<g clip-path="url(#clip0_232_781)">
<g id="Weight=Dynamic">
<g id="Vector">
<path d="M2 17C2.55228 17 3 16.5523 3 16C3 15.4477 2.55228 15 2 15C1.44772 15 1 15.4477 1 16C1 16.5523 1.44772 17 2 17Z" fill="black"/>
<path d="M22 17C22.5523 17 23 16.5523 23 16C23 15.4477 22.5523 15 22 15C21.4477 15 21 15.4477 21 16C21 16.5523 21.4477 17 22 17Z" fill="black"/>
</g>
<path id="Vector (Stroke)" fill-rule="evenodd" clip-rule="evenodd" d="M1.37347 14.3655C0.716431 14.6175 0.25 15.2543 0.25 16C0.25 16.9665 1.0335 17.75 2 17.75C2.9665 17.75 3.75 16.9665 3.75 16C3.75 15.3517 3.3975 14.7858 2.87373 14.4834C3.59733 10.0963 7.40788 6.75 12 6.75C16.5921 6.75 20.4027 10.0963 21.1263 14.4834C20.6025 14.7858 20.25 15.3517 20.25 16C20.25 16.9665 21.0335 17.75 22 17.75C22.9665 17.75 23.75 16.9665 23.75 16C23.75 15.2543 23.2836 14.6175 22.6265 14.3655C21.8392 9.20415 17.3814 5.25 12 5.25C6.61863 5.25 2.1608 9.20415 1.37347 14.3655Z" fill="black"/>
</g>
</g>
</g>
<defs>
<clipPath id="clip0_232_781">
<rect width="24" height="24" rx="5" fill="white"/>
</clipPath>
</defs>
</svg>
