<svg width="24" height="24" viewBox="0 0 24 24" fill="none" xmlns="http://www.w3.org/2000/svg">
<g id="3d-arc-center-pt">
<g clip-path="url(#clip0_232_567)">
<g id="Weight=Dynamic">
<g id="Vector">
<path d="M2 17C2.55228 17 3 16.5523 3 16C3 15.4477 2.55228 15 2 15C1.44772 15 1 15.4477 1 16C1 16.5523 1.44772 17 2 17Z" fill="black"/>
<path d="M12 17C12.5523 17 13 16.5523 13 16C13 15.4477 12.5523 15 12 15C11.4477 15 11 15.4477 11 16C11 16.5523 11.4477 17 12 17Z" fill="black"/>
</g>
<path id="Vector (Stroke)" fill-rule="evenodd" clip-rule="evenodd" d="M12 6.75C8.20808 6.75 4.94742 9.03179 3.51936 12.3003C3.35352 12.6798 2.91138 12.8531 2.53181 12.6873C2.15225 12.5214 1.97899 12.0793 2.14483 11.6997C3.80299 7.90459 7.59065 5.25 12 5.25C17.9371 5.25 22.75 10.0629 22.75 16C22.75 16.4142 22.4142 16.75 22 16.75C21.5858 16.75 21.25 16.4142 21.25 16C21.25 10.8914 17.1086 6.75 12 6.75ZM0.25 16C0.25 15.0335 1.0335 14.25 2 14.25C2.6981 14.25 3.30073 14.6588 3.58159 15.25H10.4184C10.6993 14.6588 11.3019 14.25 12 14.25C12.9665 14.25 13.75 15.0335 13.75 16C13.75 16.9665 12.9665 17.75 12 17.75C11.3019 17.75 10.6993 17.3412 10.4184 16.75H3.58159C3.30073 17.3412 2.6981 17.75 2 17.75C1.0335 17.75 0.25 16.9665 0.25 16Z" fill="black"/>
</g>
</g>
</g>
<defs>
<clipPath id="clip0_232_567">
<rect width="24" height="24" rx="5" fill="white"/>
</clipPath>
</defs>
</svg>
