<svg width="24" height="24" viewBox="0 0 24 24" fill="none" xmlns="http://www.w3.org/2000/svg">
<g id="3d-bridge">
<g clip-path="url(#clip0_232_636)">
<g id="Weight=Dynamic">
<g id="Vector">
<path d="M10 21C10.5523 21 11 20.5523 11 20C11 19.4477 10.5523 19 10 19C9.44772 19 9 19.4477 9 20C9 20.5523 9.44772 21 10 21Z" fill="black"/>
<path d="M14 5C14.5523 5 15 4.55228 15 4C15 3.44772 14.5523 3 14 3C13.4477 3 13 3.44772 13 4C13 4.55228 13.4477 5 14 5Z" fill="black"/>
</g>
<path id="Vector (Stroke)" fill-rule="evenodd" clip-rule="evenodd" d="M12.9768 5.41983C13.2645 5.62758 13.618 5.75 14 5.75C14.9665 5.75 15.75 4.9665 15.75 4C15.75 3.0335 14.9665 2.25 14 2.25C13.0335 2.25 12.25 3.0335 12.25 4C12.25 4.0326 12.2509 4.06499 12.2527 4.09715C11.7554 4.43266 11.199 4.88572 10.7296 5.4656C10.116 6.22356 9.63572 7.21971 9.66427 8.44712C9.69268 9.66889 10.2228 11.0122 11.4195 12.4749C12.4728 13.7622 12.8177 14.7939 12.8361 15.5877C12.8545 16.376 12.5535 17.0361 12.1046 17.5906C11.7845 17.986 11.3974 18.3164 11.0232 18.5802C10.7355 18.3724 10.382 18.25 10 18.25C9.0335 18.25 8.25 19.0335 8.25 20C8.25 20.9665 9.0335 21.75 10 21.75C10.9665 21.75 11.75 20.9665 11.75 20C11.75 19.9674 11.7491 19.935 11.7473 19.9029C12.2446 19.5673 12.801 19.1143 13.2704 18.5344C13.884 17.7764 14.3643 16.7803 14.3357 15.5529C14.3073 14.3311 13.7772 12.9878 12.5805 11.5251C11.5272 10.2378 11.1823 9.20611 11.1639 8.41225C11.1455 7.62404 11.4465 6.96394 11.8954 6.4094C12.2155 6.01401 12.6026 5.68364 12.9768 5.41983ZM10.0898 20.2334C10.0898 20.2334 10.0898 20.2334 10.0898 20.2334C10.0638 20.1658 10.034 20.0885 10 20L10.0898 20.2334ZM17.25 4C17.25 3.58579 17.5858 3.25 18 3.25H21C21.4142 3.25 21.75 3.58579 21.75 4C21.75 4.41421 21.4142 4.75 21 4.75H18C17.5858 4.75 17.25 4.41421 17.25 4ZM2.25 20C2.25 19.5858 2.58579 19.25 3 19.25H6C6.41421 19.25 6.75 19.5858 6.75 20C6.75 20.4142 6.41421 20.75 6 20.75H3C2.58579 20.75 2.25 20.4142 2.25 20Z" fill="black"/>
</g>
</g>
</g>
<defs>
<clipPath id="clip0_232_636">
<rect width="24" height="24" rx="5" fill="white"/>
</clipPath>
</defs>
</svg>
