<svg width="24" height="24" viewBox="0 0 24 24" fill="none" xmlns="http://www.w3.org/2000/svg">
<g id="3d-center-box">
<g clip-path="url(#clip0_232_660)">
<g id="Weight=Dynamic">
<g id="Vector">
</g>
<path id="Vector (Stroke)" fill-rule="evenodd" clip-rule="evenodd" d="M11.3444 1.50625C11.7521 1.27974 12.2479 1.27974 12.6556 1.50625L12.2914 2.16187L12.2236 2.28389M11.3444 1.50625L11.7086 2.16187L11.3444 1.50625ZM2.94438 6.17292L11.3444 1.50625L11.7086 2.16187M11.25 3.27462L4.54436 6.99998L11.25 10.7253V3.27462ZM10.4557 12L3.75 8.27461L3.75002 15.7254L10.4557 12ZM4.54437 17L11.25 20.7254V19.5C11.25 19.0858 11.5858 18.75 12 18.75C12.4142 18.75 12.75 19.0858 12.75 19.5V20.7254L19.4557 17L12 12.858L4.54437 17ZM20.25 15.7254L20.25 8.27463L13.5444 12L20.25 15.7254ZM19.4557 6.99999L12.75 10.7254V3.27463L19.4557 6.99999ZM12.4819 22.5747C12.5412 22.552 12.5993 22.525 12.6556 22.4937L21.0556 17.8271C21.4842 17.589 21.75 17.1372 21.75 16.6469L21.75 7.35303C21.75 6.86276 21.4842 6.41102 21.0556 6.17292L12.6556 1.50625L12.2914 2.16187M11.5181 22.5747C11.6484 22.6841 11.8165 22.75 12 22.75C12.1835 22.75 12.3516 22.6841 12.4819 22.5747M11.5181 22.5747C11.4588 22.552 11.4008 22.525 11.3444 22.4937L2.9444 17.8271C2.51582 17.589 2.25002 17.1372 2.25002 16.6469L2.25 7.35303C2.25 6.86276 2.5158 6.41102 2.94438 6.17292M12 15.75C11.8619 15.75 11.75 15.8619 11.75 16C11.75 16.1381 11.8619 16.25 12 16.25C12.1381 16.25 12.25 16.1381 12.25 16C12.25 15.8619 12.1381 15.75 12 15.75ZM10.25 16C10.25 15.0335 11.0335 14.25 12 14.25C12.9665 14.25 13.75 15.0335 13.75 16C13.75 16.9665 12.9665 17.75 12 17.75C11.0335 17.75 10.25 16.9665 10.25 16Z" fill="black"/>
</g>
</g>
</g>
<defs>
<clipPath id="clip0_232_660">
<rect width="24" height="24" rx="5" fill="white"/>
</clipPath>
</defs>
</svg>
