<svg width="24" height="24" viewBox="0 0 24 24" fill="none" xmlns="http://www.w3.org/2000/svg">
<g id="3d-draft-face">
<g clip-path="url(#clip0_232_809)">
<g id="Weight=Dynamic">
<path id="Vector (Stroke)" fill-rule="evenodd" clip-rule="evenodd" d="M12.7096 1.56417C13.2018 1.27762 13.821 1.33081 14.2571 1.69712L13.7766 2.26918L14.2571 1.69712L20.2682 6.74591C20.5736 7.00242 20.75 7.38084 20.75 7.77966V15.5764C20.75 16.0309 20.5213 16.455 20.1414 16.7046L13.5256 21.0521C13.5039 21.0664 13.4818 21.08 13.4594 21.0929C13.3432 21.1831 13.1996 21.2399 13.0433 21.2488C13.0179 21.2538 12.9923 21.258 12.9666 21.2615L2.78242 22.6503C1.97185 22.7608 1.25003 22.1308 1.25002 21.3127L1.25 9.01169C1.25 8.53112 1.50547 8.08678 1.9208 7.84499L12.7096 1.56417ZM13.75 19.1097L19.25 15.4955V8.58532L13.75 12.393V19.1097ZM12.25 12.5658V19.8454L2.75002 21.1408L2.75 9.85149L12.25 12.5658ZM3.67924 8.55697L13.3731 2.91357L18.5395 7.25282L12.8648 11.1814L3.67924 8.55697ZM17.0118 13.4415C17.3196 13.7186 17.3446 14.1928 17.0674 14.5007L17.0574 14.5118C16.7803 14.8197 16.3061 14.8446 15.9983 14.5675C15.6904 14.2904 15.6654 13.8162 15.9426 13.5083L15.9526 13.4972C16.2297 13.1893 16.7039 13.1644 17.0118 13.4415ZM22.5117 16.4415C22.8196 16.7186 22.8446 17.1928 22.5674 17.5007L22.5574 17.5118C22.2803 17.8197 21.8061 17.8446 21.4983 17.5675C21.1904 17.2904 21.1654 16.8162 21.4426 16.5083L21.4526 16.4972C21.7297 16.1893 22.2039 16.1644 22.5117 16.4415Z" fill="black"/>
</g>
</g>
</g>
<defs>
<clipPath id="clip0_232_809">
<rect width="24" height="24" rx="5" fill="white"/>
</clipPath>
</defs>
</svg>
