<svg width="24" height="24" viewBox="0 0 24 24" fill="none" xmlns="http://www.w3.org/2000/svg">
<g id="3d-ellipse-three-pts">
<g clip-path="url(#clip0_232_593)">
<g id="Weight=Dynamic">
<g id="Vector">
<path d="M5 3C5.55228 3 6 2.55228 6 2C6 1.44772 5.55228 1 5 1C4.44772 1 4 1.44772 4 2C4 2.55228 4.44772 3 5 3Z" fill="black"/>
<path d="M5 23C5.55228 23 6 22.5523 6 22C6 21.4477 5.55228 21 5 21C4.44772 21 4 21.4477 4 22C4 22.5523 4.44772 23 5 23Z" fill="black"/>
<path d="M13 23C13.5523 23 14 22.5523 14 22C14 21.4477 13.5523 21 13 21C12.4477 21 12 21.4477 12 22C12 22.5523 12.4477 23 13 23Z" fill="black"/>
</g>
<path id="Vector (Stroke)" fill-rule="evenodd" clip-rule="evenodd" d="M3.25 2C3.25 1.0335 4.0335 0.25 5 0.25C5.9665 0.25 6.75 1.0335 6.75 2C6.75 2.6981 6.34124 3.30073 5.75 3.58159V20.4184C6.11392 20.5913 6.40871 20.8861 6.58159 21.25H11.4184C11.6993 20.6588 12.3019 20.25 13 20.25C13.9665 20.25 14.75 21.0335 14.75 22C14.75 22.9665 13.9665 23.75 13 23.75C12.3019 23.75 11.6993 23.3412 11.4184 22.75H6.58159C6.30073 23.3412 5.6981 23.75 5 23.75C4.0335 23.75 3.25 22.9665 3.25 22C3.25 21.3019 3.65876 20.6993 4.25 20.4184V3.58159C3.65876 3.30073 3.25 2.6981 3.25 2ZM13 2.75C11.336 2.75 9.78142 3.46998 8.53087 4.72308C8.23827 5.01627 7.7634 5.01675 7.47021 4.72416C7.17702 4.43156 7.17654 3.95669 7.46913 3.6635C8.95778 2.17182 10.8802 1.25 13 1.25C17.98 1.25 21.75 6.22776 21.75 12C21.75 15.4555 20.4237 18.5656 18.3142 20.5467C18.0123 20.8303 17.5376 20.8154 17.2541 20.5134C16.9705 20.2115 16.9854 19.7369 17.2873 19.4533C19.0632 17.7855 20.25 15.0869 20.25 12C20.25 6.72654 16.8565 2.75 13 2.75ZM6.5674 18.002C6.90576 17.763 7.37374 17.8437 7.61266 18.182C7.94567 18.6536 8.31463 19.0795 8.71261 19.4533C9.01454 19.7369 9.02944 20.2115 8.74587 20.5134C8.46231 20.8154 7.98767 20.8303 7.68574 20.5467C7.21066 20.1005 6.77586 19.5975 6.38734 19.0472C6.14842 18.7089 6.22903 18.2409 6.5674 18.002Z" fill="black"/>
</g>
</g>
</g>
<defs>
<clipPath id="clip0_232_593">
<rect width="24" height="24" rx="5" fill="white"/>
</clipPath>
</defs>
</svg>
