<svg width="24" height="24" viewBox="0 0 24 24" fill="none" xmlns="http://www.w3.org/2000/svg">
<g id="3d-ellipse">
<g clip-path="url(#clip0_232_581)">
<g id="Weight=Dynamic">
<g id="Vector">
<path d="M12 3C12.5523 3 13 2.55228 13 2C13 1.44772 12.5523 1 12 1C11.4477 1 11 1.44772 11 2C11 2.55228 11.4477 3 12 3Z" fill="black"/>
<path d="M12 23C12.5523 23 13 22.5523 13 22C13 21.4477 12.5523 21 12 21C11.4477 21 11 21.4477 11 22C11 22.5523 11.4477 23 12 23Z" fill="black"/>
</g>
<path id="Vector (Stroke)" fill-rule="evenodd" clip-rule="evenodd" d="M10.3418 1.43928C10.5755 0.747796 11.2296 0.25 12 0.25C12.7704 0.25 13.4245 0.747797 13.6582 1.43928C17.7935 2.39963 20.75 6.88829 20.75 12C20.75 17.1117 17.7935 21.6004 13.6582 22.5607C13.4245 23.2522 12.7704 23.75 12 23.75C11.2296 23.75 10.5755 23.2522 10.3418 22.5607C6.20654 21.6004 3.25 17.1117 3.25 12C3.25 6.88829 6.20654 2.39963 10.3418 1.43928ZM10.5271 2.9454C7.31916 3.8049 4.75 7.41151 4.75 12C4.75 16.5885 7.31917 20.1951 10.5271 21.0546C10.8384 20.5706 11.3818 20.25 12 20.25C12.6182 20.25 13.1616 20.5706 13.4729 21.0546C16.6808 20.1951 19.25 16.5885 19.25 12C19.25 7.41151 16.6808 3.8049 13.4729 2.94539C13.1616 3.4294 12.6182 3.75 12 3.75C11.3818 3.75 10.8384 3.42941 10.5271 2.9454Z" fill="black"/>
</g>
</g>
</g>
<defs>
<clipPath id="clip0_232_581">
<rect width="24" height="24" rx="5" fill="white"/>
</clipPath>
</defs>
</svg>
