<svg width="24" height="24" viewBox="0 0 24 24" fill="none" xmlns="http://www.w3.org/2000/svg">
<g id="3d-pt-box">
<g clip-path="url(#clip0_232_554)">
<g id="Weight=Dynamic">
<g id="Vector">
</g>
<path id="Vector (Stroke)" fill-rule="evenodd" clip-rule="evenodd" d="M11.3444 1.50627C11.7521 1.27975 12.2479 1.27975 12.6556 1.50627L12.2914 2.16189L12.6556 1.50627L21.0556 6.17293C21.4842 6.41103 21.75 6.86277 21.75 7.35304L21.75 16.647C21.75 17.1372 21.4842 17.589 21.0556 17.8271L12.6556 22.4937C12.2479 22.7203 11.7521 22.7203 11.3444 22.4937L4.01806 18.4236C3.73124 18.629 3.37975 18.75 3 18.75C2.0335 18.75 1.25 17.9665 1.25 17C1.25 16.3019 1.65876 15.6993 2.25 15.4184L2.24998 7.35305C2.24998 6.86277 2.51578 6.41103 2.94436 6.17293L11.3444 1.50627L11.7086 2.16189L11.3444 1.50627ZM4.74646 17.1123C4.74881 17.0752 4.75 17.0377 4.75 17C4.75 16.3019 4.34124 15.6993 3.75 15.4184L3.74998 8.27462L11.25 12.4413V20.7254L4.74646 17.1123ZM12.75 20.7254L20.25 16.5587L20.25 8.27464L12.75 12.4413V20.7254ZM19.4556 7.00001L12 2.85797L4.54434 7L12 11.142L19.4556 7.00001Z" fill="black"/>
</g>
</g>
</g>
<defs>
<clipPath id="clip0_232_554">
<rect width="24" height="24" rx="5" fill="white"/>
</clipPath>
</defs>
</svg>
