<svg width="24" height="24" viewBox="0 0 24 24" fill="none" xmlns="http://www.w3.org/2000/svg">
<g id="3d-rect-three-pts">
<g clip-path="url(#clip0_232_368)">
<g id="Weight=Dynamic">
<g id="Vector">
<path d="M3 4C3.55228 4 4 3.55228 4 3C4 2.44772 3.55228 2 3 2C2.44772 2 2 2.44772 2 3C2 3.55228 2.44772 4 3 4Z" fill="black"/>
<path d="M3 22C3.55228 22 4 21.5523 4 21C4 20.4477 3.55228 20 3 20C2.44772 20 2 20.4477 2 21C2 21.5523 2.44772 22 3 22Z" fill="black"/>
<path d="M21 4C21.5523 4 22 3.55228 22 3C22 2.44772 21.5523 2 21 2C20.4477 2 20 2.44772 20 3C20 3.55228 20.4477 4 21 4Z" fill="black"/>
</g>
<path id="Vector (Stroke)" fill-rule="evenodd" clip-rule="evenodd" d="M1.25 3C1.25 2.0335 2.0335 1.25 3 1.25C3.6981 1.25 4.30073 1.65876 4.58159 2.25H19.4184C19.6993 1.65876 20.3019 1.25 21 1.25C21.9665 1.25 22.75 2.0335 22.75 3C22.75 3.9665 21.9665 4.75 21 4.75C20.3019 4.75 19.6993 4.34124 19.4184 3.75H4.58159C4.40871 4.11392 4.11392 4.40871 3.75 4.58159V19.4184C4.34124 19.6993 4.75 20.3019 4.75 21C4.75 21.9665 3.9665 22.75 3 22.75C2.0335 22.75 1.25 21.9665 1.25 21C1.25 20.3019 1.65876 19.6993 2.25 19.4184V4.58159C1.65876 4.30073 1.25 3.6981 1.25 3ZM2.75 21C2.75 21.1381 2.86193 21.25 3 21.25C3.13807 21.25 3.25 21.1381 3.25 21H2.75ZM21 3.25C21.1381 3.25 21.25 3.13807 21.25 3C21.25 2.86193 21.1381 2.75 21 2.75V3.25ZM21 6.25C21.4142 6.25 21.75 6.58579 21.75 7V9C21.75 9.41421 21.4142 9.75 21 9.75C20.5858 9.75 20.25 9.41421 20.25 9V7C20.25 6.58579 20.5858 6.25 21 6.25ZM21 11.25C21.4142 11.25 21.75 11.5858 21.75 12V14C21.75 14.4142 21.4142 14.75 21 14.75C20.5858 14.75 20.25 14.4142 20.25 14V12C20.25 11.5858 20.5858 11.25 21 11.25ZM21 16.25C21.4142 16.25 21.75 16.5858 21.75 17V20.4C21.75 21.1456 21.1456 21.75 20.4 21.75H17C16.5858 21.75 16.25 21.4142 16.25 21C16.25 20.5858 16.5858 20.25 17 20.25H20.25V17C20.25 16.5858 20.5858 16.25 21 16.25ZM6.25 21C6.25 20.5858 6.58579 20.25 7 20.25H9C9.41421 20.25 9.75 20.5858 9.75 21C9.75 21.4142 9.41421 21.75 9 21.75H7C6.58579 21.75 6.25 21.4142 6.25 21ZM11.25 21C11.25 20.5858 11.5858 20.25 12 20.25H14C14.4142 20.25 14.75 20.5858 14.75 21C14.75 21.4142 14.4142 21.75 14 21.75H12C11.5858 21.75 11.25 21.4142 11.25 21Z" fill="black"/>
</g>
</g>
</g>
<defs>
<clipPath id="clip0_232_368">
<rect width="24" height="24" rx="5" fill="white"/>
</clipPath>
</defs>
</svg>
