<svg width="24" height="24" viewBox="0 0 24 24" fill="none" xmlns="http://www.w3.org/2000/svg">
<g id="3d-rect-corner-to-corner">
<g clip-path="url(#clip0_232_677)">
<g id="Weight=Dynamic">
<g id="Vector">
<path d="M3 4C3.55228 4 4 3.55228 4 3C4 2.44772 3.55228 2 3 2C2.44772 2 2 2.44772 2 3C2 3.55228 2.44772 4 3 4Z" fill="black"/>
<path d="M21 22C21.5523 22 22 21.5523 22 21C22 20.4477 21.5523 20 21 20C20.4477 20 20 20.4477 20 21C20 21.5523 20.4477 22 21 22Z" fill="black"/>
</g>
<path id="Vector (Stroke)" fill-rule="evenodd" clip-rule="evenodd" d="M1.25 3C1.25 2.0335 2.0335 1.25 3 1.25C3.6981 1.25 4.30073 1.65876 4.58159 2.25H20.4C21.1456 2.25 21.75 2.85442 21.75 3.6V19.4184C22.3412 19.6993 22.75 20.3019 22.75 21C22.75 21.9665 21.9665 22.75 21 22.75C20.3019 22.75 19.6993 22.3412 19.4184 21.75H3.6C2.85442 21.75 2.25 21.1456 2.25 20.4V4.58159C1.65876 4.30073 1.25 3.6981 1.25 3ZM3.75 4.58159V20.25H19.4184C19.5913 19.8861 19.8861 19.5913 20.25 19.4184V3.75H4.58159C4.40871 4.11392 4.11392 4.40871 3.75 4.58159Z" fill="black"/>
</g>
</g>
</g>
<defs>
<clipPath id="clip0_232_677">
<rect width="24" height="24" rx="5" fill="white"/>
</clipPath>
</defs>
</svg>
