<svg width="24" height="24" viewBox="0 0 24 24" fill="none" xmlns="http://www.w3.org/2000/svg">
<g id="3d-select-face">
<g clip-path="url(#clip0_232_413)">
<g id="Weight=Dynamic">
<g id="Vector">
<path d="M11.6914 11.8285L3.89139 7.49519C3.49147 7.27301 3 7.5622 3 8.01969V16.6469C3 16.8648 3.11814 17.0656 3.30861 17.1714L11.1086 21.5048C11.5085 21.7269 12 21.4378 12 20.9803V12.353C12 12.1351 11.8819 11.9343 11.6914 11.8285Z" fill="black"/>
</g>
<path id="Vector (Stroke)" fill-rule="evenodd" clip-rule="evenodd" d="M11.3444 1.50625C11.7521 1.27974 12.2479 1.27974 12.6556 1.50625L12.2914 2.16187L12.6556 1.50625L21.0556 6.17292C21.4842 6.41102 21.75 6.86276 21.75 7.35303L21.75 16.6469C21.75 17.1372 21.4842 17.589 21.0556 17.8271L12.6556 22.4937C12.2479 22.7202 11.7521 22.7202 11.3444 22.4937L10.7448 22.1606C10.7446 22.1605 10.7445 22.1605 10.7444 22.1604L2.9444 17.8271C2.51582 17.589 2.25002 17.1372 2.25002 16.6469L2.25 7.35303C2.25 6.86276 2.5158 6.41102 2.94438 6.17292L11.3444 1.50625L11.7086 2.16187L11.3444 1.50625ZM3.75002 16.5587L11.25 20.7254V12.4413L3.75002 8.27463L3.75002 16.5587ZM4.54436 6.99998L4.54436 6.99998L12 2.85796L12.0729 2.81749C12.0276 2.84266 11.9725 2.84266 11.9272 2.81749L12 2.85796M12 11.142L12 11.142L11.9272 11.1825C11.9667 11.1605 12.0136 11.1577 12.055 11.174C12.0595 11.1758 12.0639 11.1778 12.0683 11.18C12.0698 11.1809 12.0713 11.1818 12.0728 11.1826C12.1261 11.2133 12.1769 11.2473 12.2248 11.2843C12.1645 11.2653 12.1008 11.2538 12.0349 11.2508C12.0276 11.2505 12.0202 11.2502 12.0128 11.2501C12.0085 11.25 12.0043 11.25 12 11.25C11.9883 11.25 11.9767 11.2503 11.9651 11.2508C11.5671 11.269 11.25 11.5975 11.25 12V12.353M12.75 12.4413V20.7254L20.25 16.5587L20.25 8.27463L12.75 12.4413ZM19.4557 6.99999L20.25 7.44129L19.4557 6.99999ZM20.25 7.44129L20.3272 7.48415C20.2795 7.4577 20.25 7.4075 20.25 7.35303V7.44129ZM12.75 12.353C12.75 12.2321 12.7339 12.1136 12.7031 12C12.6264 11.7171 12.459 11.465 12.2248 11.2843C12.5292 11.3798 12.75 11.6641 12.75 12V12.353ZM12.0556 11.1729L12.0729 11.1825C12.0714 11.1816 12.0698 11.1808 12.0683 11.18C12.0641 11.1776 12.0599 11.1753 12.0556 11.1729Z" fill="black"/>
</g>
</g>
</g>
<defs>
<clipPath id="clip0_232_413">
<rect width="24" height="24" rx="5" fill="white"/>
</clipPath>
</defs>
</svg>
