<svg width="24" height="24" viewBox="0 0 24 24" fill="none" xmlns="http://www.w3.org/2000/svg">
<g id="3d-select-point">
<g clip-path="url(#clip0_232_393)">
<g id="Weight=Dynamic">
<g id="Vector">
</g>
<path id="Vector (Stroke)" fill-rule="evenodd" clip-rule="evenodd" d="M11.3444 1.50625C11.7521 1.27974 12.2479 1.27974 12.6556 1.50625L12.2914 2.16187L12.6556 1.50625L21.0556 6.17292C21.4842 6.41102 21.75 6.86276 21.75 7.35303L21.75 16.6469C21.75 17.1372 21.4842 17.589 21.0556 17.8271L12.6556 22.4937C12.2479 22.7202 11.7521 22.7202 11.3444 22.4937L2.9444 17.8271C2.51582 17.589 2.25002 17.1372 2.25002 16.6469L2.25 7.35303C2.25 6.86276 2.5158 6.41102 2.94438 6.17292L11.3444 1.50625L11.7086 2.16187L11.3444 1.50625ZM12 2.85796L3.75 7.44129L3.75002 16.5587L12 21.142L20.25 16.5587L20.25 7.44129L12 2.85796ZM12 11.75C11.8619 11.75 11.75 11.8619 11.75 12C11.75 12.1381 11.8619 12.25 12 12.25C12.1381 12.25 12.25 12.1381 12.25 12C12.25 11.8619 12.1381 11.75 12 11.75ZM10.25 12C10.25 11.0335 11.0335 10.25 12 10.25C12.9665 10.25 13.75 11.0335 13.75 12C13.75 12.9665 12.9665 13.75 12 13.75C11.0335 13.75 10.25 12.9665 10.25 12Z" fill="black"/>
</g>
</g>
</g>
<defs>
<clipPath id="clip0_232_393">
<rect width="24" height="24" rx="5" fill="white"/>
</clipPath>
</defs>
</svg>
