<svg width="24" height="24" viewBox="0 0 24 24" fill="none" xmlns="http://www.w3.org/2000/svg">
<g id="3d-three-pts-box">
<g clip-path="url(#clip0_232_698)">
<g id="Weight=Dynamic">
<g id="Vector">
</g>
<path id="Vector (Stroke)" fill-rule="evenodd" clip-rule="evenodd" d="M11.3444 1.50631C11.7521 1.2798 12.2479 1.2798 12.6556 1.50631L12.2914 2.16193L12.6556 1.50631L21.0556 6.17298C21.4842 6.41108 21.75 6.86282 21.75 7.35309L21.75 16.647C21.75 17.1373 21.4842 17.589 21.0556 17.8271L13.7465 21.8878C13.7488 21.9249 13.75 21.9623 13.75 22C13.75 22.9665 12.9665 23.75 12 23.75C11.0335 23.75 10.25 22.9665 10.25 22C10.25 21.9623 10.2512 21.9249 10.2535 21.8878L4.01806 18.4236C3.73124 18.6291 3.37975 18.75 3 18.75C2.0335 18.75 1.25 17.9665 1.25 17.0001C1.25 16.302 1.65876 15.6993 2.25 15.4185L2.24998 8.58163C1.65876 8.30077 1.25 7.69814 1.25 7.00005C1.25 6.03355 2.0335 5.25005 3 5.25005C3.37974 5.25005 3.73124 5.371 4.01805 5.57649L11.3444 1.50631L11.7086 2.16193L11.3444 1.50631ZM3.74998 8.58165L3.75 15.4185C4.34124 15.6993 4.75 16.302 4.75 17.0001C4.75 17.0378 4.74881 17.0752 4.74646 17.1123L10.9819 20.5765C11.066 20.5162 11.1557 20.4633 11.25 20.4185V12.4413L4.01807 8.4236C3.93396 8.48386 3.84429 8.53685 3.74998 8.58165ZM4.74646 7.11233C4.74881 7.0752 4.75 7.03777 4.75 7.00005C4.75 6.96233 4.74881 6.92489 4.74646 6.88776L12 2.85802L19.4556 7.00005L12 11.1421L4.74646 7.11233ZM20.25 8.27469L20.25 16.5587L13.0181 20.5765C12.934 20.5162 12.8443 20.4633 12.75 20.4185V12.4414L20.25 8.27469Z" fill="black"/>
</g>
</g>
</g>
<defs>
<clipPath id="clip0_232_698">
<rect width="24" height="24" rx="5" fill="white"/>
</clipPath>
</defs>
</svg>
