<svg width="24" height="24" viewBox="0 0 24 24" fill="none" xmlns="http://www.w3.org/2000/svg">
<g id="4k-display">
<g clip-path="url(#clip0_232_5809)">
<g id="Weight=Dynamic">
<path id="Vector (Stroke)" fill-rule="evenodd" clip-rule="evenodd" d="M2.75 5.75V18.25H21.25V5.75H2.75ZM1.25 5.6C1.25 4.85441 1.85442 4.25 2.6 4.25H21.4C22.1456 4.25 22.75 4.85442 22.75 5.6V18.4C22.75 19.1456 22.1456 19.75 21.4 19.75H2.6C1.85442 19.75 1.25 19.1456 1.25 18.4V5.6ZM9.91603 8.37596C10.2607 8.60573 10.3538 9.07138 10.124 9.41603L7.90139 12.75H10C10.4142 12.75 10.75 13.0858 10.75 13.5V15C10.75 15.4142 10.4142 15.75 10 15.75C9.58579 15.75 9.25 15.4142 9.25 15V14.25H6.5C6.2234 14.25 5.96926 14.0978 5.83874 13.8539C5.70823 13.61 5.72253 13.3141 5.87596 13.084L8.87596 8.58398C9.10573 8.23933 9.57138 8.1462 9.91603 8.37596ZM17.4939 8.43557C17.8056 8.70833 17.8372 9.18215 17.5644 9.49388L15.794 11.5172L17.6439 14.6155C17.8563 14.9712 17.7401 15.4316 17.3845 15.6439C17.0288 15.8563 16.5684 15.7401 16.3561 15.3845L14.7556 12.704L14.25 13.2818V15C14.25 15.4142 13.9142 15.75 13.5 15.75C13.0858 15.75 12.75 15.4142 12.75 15L12.75 9C12.75 8.58579 13.0858 8.25 13.5 8.25C13.9142 8.25 14.25 8.58579 14.25 9L14.25 11.0039L16.4356 8.50612C16.7083 8.19439 17.1821 8.16281 17.4939 8.43557Z" fill="black"/>
</g>
</g>
</g>
<defs>
<clipPath id="clip0_232_5809">
<rect width="24" height="24" rx="5" fill="white"/>
</clipPath>
</defs>
</svg>
