<svg width="24" height="24" viewBox="0 0 24 24" fill="none" xmlns="http://www.w3.org/2000/svg">
<g id="accessibility-sign">
<g clip-path="url(#clip0_232_15013)">
<g id="Weight=Dynamic">
<path id="Vector (Stroke)" fill-rule="evenodd" clip-rule="evenodd" d="M15.75 4.5C15.75 2.98122 16.9812 1.75 18.5 1.75C20.0188 1.75 21.25 2.98122 21.25 4.5C21.25 6.01878 20.0188 7.25 18.5 7.25C16.9812 7.25 15.75 6.01878 15.75 4.5ZM18.5 3.25C17.8096 3.25 17.25 3.80964 17.25 4.5C17.25 5.19036 17.8096 5.75 18.5 5.75C19.1904 5.75 19.75 5.19036 19.75 4.5C19.75 3.80964 19.1904 3.25 18.5 3.25ZM11.9697 4.46967C12.2289 4.21042 12.6376 4.1766 12.9359 4.3897L16.4359 6.8897C16.6097 7.01384 16.7224 7.20619 16.7456 7.41851C16.7688 7.63083 16.7003 7.84297 16.5575 8.00172L13.3016 11.6194L18.4466 11.2519C18.6839 11.235 18.9152 11.3316 19.0699 11.5125C19.2246 11.6933 19.2843 11.9368 19.2308 12.1686L17.7308 18.6686C17.6377 19.0723 17.235 19.3239 16.8314 19.2308C16.4277 19.1377 16.1761 18.735 16.2692 18.3314L17.541 12.8204L13.1618 13.1332C13.8464 14.0796 14.25 15.2427 14.25 16.5C14.25 17.3164 14.0794 18.0949 13.7712 18.8003C13.6054 19.1798 13.1632 19.3531 12.7837 19.1873C12.4041 19.0214 12.2309 18.5793 12.3967 18.1997C12.6237 17.6802 12.75 17.1058 12.75 16.5C12.75 15.1159 12.0884 13.8864 11.0642 13.1104C11.0543 13.1033 11.0446 13.0961 11.0351 13.0885C10.3273 12.5618 9.45008 12.25 8.5 12.25C7.54219 12.25 6.66033 12.5659 5.95002 13.0996C5.61886 13.3484 5.1487 13.2817 4.89989 12.9505C4.65108 12.6193 4.71785 12.1492 5.04901 11.9004C6.01018 11.1782 7.20616 10.75 8.5 10.75C9.54696 10.75 10.5286 11.0298 11.3741 11.5187L14.8809 7.62232L12.5811 5.97959L10.5303 8.03033C10.2374 8.32322 9.76256 8.32322 9.46967 8.03033C9.17678 7.73744 9.17678 7.26256 9.46967 6.96967L11.9697 4.46967ZM3.95364 14.2845C4.34882 14.4086 4.56856 14.8296 4.44444 15.2247C4.31829 15.6264 4.25 16.0545 4.25 16.5C4.25 18.8472 6.15279 20.75 8.5 20.75C9.27536 20.75 10.0001 20.5431 10.6245 20.1819C10.983 19.9745 11.4418 20.097 11.6492 20.4555C11.8566 20.8141 11.7341 21.2729 11.3755 21.4803C10.529 21.97 9.54608 22.25 8.5 22.25C5.32436 22.25 2.75 19.6756 2.75 16.5C2.75 15.9003 2.84206 15.3207 3.01336 14.7753C3.13748 14.3801 3.55846 14.1603 3.95364 14.2845Z" fill="black"/>
</g>
</g>
</g>
<defs>
<clipPath id="clip0_232_15013">
<rect width="24" height="24" rx="5" fill="white"/>
</clipPath>
</defs>
</svg>
