<svg width="24" height="24" viewBox="0 0 24 24" fill="none" xmlns="http://www.w3.org/2000/svg">
<g id="accessibility">
<g clip-path="url(#clip0_232_15049)">
<g id="Weight=Dynamic">
<g id="Vector">
<path d="M12 7C11.7239 7 11.5 6.77614 11.5 6.5C11.5 6.22386 11.7239 6 12 6C12.2761 6 12.5 6.22386 12.5 6.5C12.5 6.77614 12.2761 7 12 7Z" fill="black"/>
</g>
<path id="Vector (Stroke)" fill-rule="evenodd" clip-rule="evenodd" d="M12 2.75C6.89137 2.75 2.75 6.89137 2.75 12C2.75 17.1086 6.89137 21.25 12 21.25C17.1086 21.25 21.25 17.1086 21.25 12C21.25 6.89137 17.1086 2.75 12 2.75ZM1.25 12C1.25 6.06294 6.06294 1.25 12 1.25C17.9371 1.25 22.75 6.06294 22.75 12C22.75 17.9371 17.9371 22.75 12 22.75C6.06294 22.75 1.25 17.9371 1.25 12ZM10.75 6.5C10.75 5.80964 11.3096 5.25 12 5.25C12.6904 5.25 13.25 5.80964 13.25 6.5C13.25 7.19036 12.6904 7.75 12 7.75C11.3096 7.75 10.75 7.19036 10.75 6.5ZM12 6.75C12.1381 6.75 12.25 6.63807 12.25 6.5C12.25 6.36193 12.1381 6.25 12 6.25C11.8619 6.25 11.75 6.36193 11.75 6.5C11.75 6.63807 11.8619 6.75 12 6.75ZM6.26456 8.85291C6.3458 8.44674 6.74092 8.18333 7.14709 8.26456L12 9.23515L16.8529 8.26456C17.2591 8.18333 17.6542 8.44674 17.7354 8.85291C17.8167 9.25908 17.5533 9.6542 17.1471 9.73544L12.75 10.6149V12.8556L14.6964 17.7215C14.8502 18.106 14.6631 18.5425 14.2785 18.6964C13.894 18.8502 13.4575 18.6631 13.3036 18.2785L12 15.0194L10.6964 18.2785C10.5425 18.6631 10.106 18.8502 9.72146 18.6964C9.33687 18.5425 9.14981 18.106 9.30364 17.7215L11.25 12.8556V10.6149L6.85291 9.73544C6.44674 9.6542 6.18333 9.25908 6.26456 8.85291Z" fill="black"/>
</g>
</g>
</g>
<defs>
<clipPath id="clip0_232_15049">
<rect width="24" height="24" rx="5" fill="white"/>
</clipPath>
</defs>
</svg>
