<svg width="24" height="24" viewBox="0 0 24 24" fill="none" xmlns="http://www.w3.org/2000/svg">
<g id="accessibility-tech">
<g clip-path="url(#clip0_232_14998)">
<g id="Weight=Dynamic">
<g id="Vector">
</g>
<path id="Vector (Stroke)" fill-rule="evenodd" clip-rule="evenodd" d="M5 3.75C4.30964 3.75 3.75 4.30964 3.75 5V19C3.75 19.6904 4.30964 20.25 5 20.25H19C19.6904 20.25 20.25 19.6904 20.25 19V5C20.25 4.30964 19.6904 3.75 19 3.75H5ZM2.25 5C2.25 3.48122 3.48122 2.25 5 2.25H19C20.5188 2.25 21.75 3.48122 21.75 5V19C21.75 20.5188 20.5188 21.75 19 21.75H5C3.48122 21.75 2.25 20.5188 2.25 19V5ZM14.25 7C14.25 6.30964 14.8096 5.75 15.5 5.75C16.1904 5.75 16.75 6.30964 16.75 7C16.75 7.69036 16.1904 8.25 15.5 8.25C14.8096 8.25 14.25 7.69036 14.25 7ZM15.5 7.25C15.6381 7.25 15.75 7.13807 15.75 7C15.75 6.86193 15.6381 6.75 15.5 6.75C15.3619 6.75 15.25 6.86193 15.25 7C15.25 7.13807 15.3619 7.25 15.5 7.25ZM10.2253 7.56088C10.4505 7.24911 10.875 7.15817 11.2081 7.35036L13.8748 8.88882C14.0552 8.9929 14.1842 9.16731 14.2309 9.37028C14.2776 9.57325 14.2378 9.78649 14.121 9.95895L13.1565 11.3835L16.4699 11.2506C16.6883 11.2418 16.8997 11.3288 17.0487 11.4887C17.1977 11.6486 17.2696 11.8656 17.2454 12.0828L16.7454 16.5828C16.6997 16.9945 16.3289 17.2912 15.9172 17.2454C15.5055 17.1997 15.2088 16.8289 15.2546 16.4172L15.6582 12.7844L13.5851 12.8675C14.0044 13.473 14.25 14.2078 14.25 15C14.25 17.0711 12.5711 18.75 10.5 18.75C8.42893 18.75 6.75 17.0711 6.75 15C6.75 12.9289 8.42893 11.25 10.5 11.25C10.7985 11.25 11.0888 11.2849 11.3672 11.3508L12.4271 9.78534L11.045 8.98796L10.108 10.2853C9.86549 10.6211 9.39668 10.6967 9.06088 10.4542C8.72509 10.2116 8.64947 9.74283 8.89199 9.40704L10.2253 7.56088ZM10.5 12.75C9.25736 12.75 8.25 13.7574 8.25 15C8.25 16.2426 9.25736 17.25 10.5 17.25C11.7426 17.25 12.75 16.2426 12.75 15C12.75 13.7574 11.7426 12.75 10.5 12.75Z" fill="black"/>
</g>
</g>
</g>
<defs>
<clipPath id="clip0_232_14998">
<rect width="24" height="24" rx="5" fill="white"/>
</clipPath>
</defs>
</svg>
