<svg width="24" height="24" viewBox="0 0 24 24" fill="none" xmlns="http://www.w3.org/2000/svg">
<g id="adobe-illustrator">
<g clip-path="url(#clip0_232_4391)">
<g id="Weight=Dynamic">
<path id="Vector (Stroke)" fill-rule="evenodd" clip-rule="evenodd" d="M2.25 7C2.25 4.37665 4.37665 2.25 7 2.25H17C19.6234 2.25 21.75 4.37665 21.75 7V17C21.75 19.6234 19.6234 21.75 17 21.75H7C4.37665 21.75 2.25 19.6234 2.25 17V7ZM7 3.75C5.20507 3.75 3.75 5.20507 3.75 7V17C3.75 18.7949 5.20507 20.25 7 20.25H17C18.7949 20.25 20.25 18.7949 20.25 17V7C20.25 5.20507 18.7949 3.75 17 3.75H7ZM10 7.25C10.3126 7.25 10.5925 7.44393 10.7022 7.73666L13.7022 15.7367C13.8477 16.1245 13.6512 16.5568 13.2633 16.7022C12.8755 16.8477 12.4432 16.6512 12.2978 16.2633L11.3552 13.75H8.64475L7.70225 16.2633C7.55681 16.6512 7.1245 16.8477 6.73666 16.7022C6.34882 16.5568 6.15231 16.1245 6.29775 15.7367L9.29775 7.73666C9.40753 7.44393 9.68737 7.25 10 7.25ZM9.20725 12.25H10.7927L10 10.136L9.20725 12.25ZM16 8.24977C16.4142 8.24977 16.75 8.58555 16.75 8.99977V9.00977C16.75 9.42398 16.4142 9.75977 16 9.75977C15.5858 9.75977 15.25 9.42398 15.25 9.00977V8.99977C15.25 8.58555 15.5858 8.24977 16 8.24977ZM16 11.25C16.4142 11.25 16.75 11.5858 16.75 12V16C16.75 16.4142 16.4142 16.75 16 16.75C15.5858 16.75 15.25 16.4142 15.25 16V12C15.25 11.5858 15.5858 11.25 16 11.25Z" fill="black"/>
</g>
</g>
</g>
<defs>
<clipPath id="clip0_232_4391">
<rect width="24" height="24" rx="5" fill="white"/>
</clipPath>
</defs>
</svg>
