<svg width="24" height="24" viewBox="0 0 24 24" fill="none" xmlns="http://www.w3.org/2000/svg">
<g id="adobe-after-effects">
<g clip-path="url(#clip0_232_4408)">
<g id="Weight=Dynamic">
<path id="Vector (Stroke)" fill-rule="evenodd" clip-rule="evenodd" d="M2.25 7C2.25 4.37665 4.37665 2.25 7 2.25H17C19.6234 2.25 21.75 4.37665 21.75 7V17C21.75 19.6234 19.6234 21.75 17 21.75H7C4.37665 21.75 2.25 19.6234 2.25 17V7ZM7 3.75C5.20507 3.75 3.75 5.20507 3.75 7V17C3.75 18.7949 5.20507 20.25 7 20.25H17C18.7949 20.25 20.25 18.7949 20.25 17V7C20.25 5.20507 18.7949 3.75 17 3.75H7ZM9 7.25C9.31263 7.25 9.59247 7.44393 9.70225 7.73666L12.7022 15.7367C12.8477 16.1245 12.6512 16.5568 12.2633 16.7022C11.8755 16.8477 11.4432 16.6512 11.2978 16.2633L10.3552 13.75H7.64475L6.70225 16.2633C6.55681 16.6512 6.1245 16.8477 5.73666 16.7022C5.34882 16.5568 5.15231 16.1245 5.29775 15.7367L8.29775 7.73666C8.40753 7.44393 8.68737 7.25 9 7.25ZM8.20725 12.25H9.79275L9 10.136L8.20725 12.25ZM13.25 12C13.25 10.4812 14.4812 9.25 16 9.25C17.5188 9.25 18.75 10.4812 18.75 12V13C18.75 13.4142 18.4142 13.75 18 13.75H14.75V14C14.75 14.6904 15.3096 15.25 16 15.25H17.5C17.9142 15.25 18.25 15.5858 18.25 16C18.25 16.4142 17.9142 16.75 17.5 16.75H16C14.4812 16.75 13.25 15.5188 13.25 14V12ZM14.75 12.25H17.25V12C17.25 11.3096 16.6904 10.75 16 10.75C15.3096 10.75 14.75 11.3096 14.75 12V12.25Z" fill="black"/>
</g>
</g>
</g>
<defs>
<clipPath id="clip0_232_4408">
<rect width="24" height="24" rx="5" fill="white"/>
</clipPath>
</defs>
</svg>
