<svg width="24" height="24" viewBox="0 0 24 24" fill="none" xmlns="http://www.w3.org/2000/svg">
<g id="adobe-xd">
<g clip-path="url(#clip0_232_4436)">
<g id="Weight=Dynamic">
<path id="Vector (Stroke)" fill-rule="evenodd" clip-rule="evenodd" d="M2.25 7C2.25 4.37665 4.37665 2.25 7 2.25H17C19.6234 2.25 21.75 4.37665 21.75 7V17C21.75 19.6234 19.6234 21.75 17 21.75H7C4.37665 21.75 2.25 19.6234 2.25 17V7ZM7 3.75C5.20507 3.75 3.75 5.20507 3.75 7V17C3.75 18.7949 5.20507 20.25 7 20.25H17C18.7949 20.25 20.25 18.7949 20.25 17V7C20.25 5.20507 18.7949 3.75 17 3.75H7ZM6.66459 7.32918C7.03507 7.14394 7.48558 7.29411 7.67082 7.66459L9 10.3229L10.3292 7.66459C10.5144 7.29411 10.9649 7.14394 11.3354 7.32918C11.7059 7.51442 11.8561 7.96493 11.6708 8.33541L9.83853 12L11.6708 15.6646C11.8561 16.0351 11.7059 16.4856 11.3354 16.6708C10.9649 16.8561 10.5144 16.7059 10.3292 16.3354L9 13.6771L7.67082 16.3354C7.48558 16.7059 7.03507 16.8561 6.66459 16.6708C6.29411 16.4856 6.14394 16.0351 6.32918 15.6646L8.16147 12L6.32918 8.33541C6.14394 7.96493 6.29411 7.51442 6.66459 7.32918ZM17 8.25C17.4142 8.25 17.75 8.58579 17.75 9V15.4C17.75 16.1456 17.1456 16.75 16.4 16.75H15C13.4812 16.75 12.25 15.5188 12.25 14C12.25 12.4812 13.4812 11.25 15 11.25H16.25V9C16.25 8.58579 16.5858 8.25 17 8.25ZM16.25 12.75H15C14.3096 12.75 13.75 13.3096 13.75 14C13.75 14.6904 14.3096 15.25 15 15.25H16.25V12.75Z" fill="black"/>
</g>
</g>
</g>
<defs>
<clipPath id="clip0_232_4436">
<rect width="24" height="24" rx="5" fill="white"/>
</clipPath>
</defs>
</svg>
