<svg width="24" height="24" viewBox="0 0 24 24" fill="none" xmlns="http://www.w3.org/2000/svg">
<g id="adobe-photoshop">
<g clip-path="url(#clip0_232_4377)">
<g id="Weight=Dynamic">
<path id="Vector (Stroke)" fill-rule="evenodd" clip-rule="evenodd" d="M2.25 7C2.25 4.37665 4.37665 2.25 7 2.25H17C19.6234 2.25 21.75 4.37665 21.75 7V17C21.75 19.6234 19.6234 21.75 17 21.75H7C4.37665 21.75 2.25 19.6234 2.25 17V7ZM7 3.75C5.20507 3.75 3.75 5.20507 3.75 7V17C3.75 18.7949 5.20507 20.25 7 20.25H17C18.7949 20.25 20.25 18.7949 20.25 17V7C20.25 5.20507 18.7949 3.75 17 3.75H7ZM6.46967 7.46967C6.61032 7.32902 6.80109 7.25 7 7.25L9 7.25C10.5188 7.25 11.75 8.48122 11.75 10C11.75 11.5188 10.5188 12.75 9 12.75H7.75L7.75 16C7.75 16.4142 7.41421 16.75 7 16.75C6.58579 16.75 6.25 16.4142 6.25 16L6.25 8C6.25 7.80109 6.32902 7.61032 6.46967 7.46967ZM7.75 11.25H9C9.69036 11.25 10.25 10.6904 10.25 10C10.25 9.30965 9.69036 8.75 9 8.75L7.75 8.75L7.75 11.25ZM15 10.75C14.5858 10.75 14.25 11.0858 14.25 11.5C14.25 11.9142 14.5858 12.25 15 12.25H15.5C16.7426 12.25 17.75 13.2574 17.75 14.5C17.75 15.7426 16.7426 16.75 15.5 16.75H15.118C14.1488 16.75 13.2627 16.2024 12.8292 15.3354C12.6439 14.9649 12.7941 14.5144 13.1646 14.3292C13.5351 14.1439 13.9856 14.2941 14.1708 14.6646C14.3502 15.0234 14.7169 15.25 15.118 15.25H15.5C15.9142 15.25 16.25 14.9142 16.25 14.5C16.25 14.0858 15.9142 13.75 15.5 13.75H15C13.7574 13.75 12.75 12.7426 12.75 11.5C12.75 10.2574 13.7574 9.25 15 9.25H15.382C16.3512 9.25 17.2373 9.79764 17.6708 10.6646C17.8561 11.0351 17.7059 11.4856 17.3354 11.6708C16.9649 11.8561 16.5144 11.7059 16.3292 11.3354C16.1498 10.9766 15.7831 10.75 15.382 10.75H15Z" fill="black"/>
</g>
</g>
</g>
<defs>
<clipPath id="clip0_232_4377">
<rect width="24" height="24" rx="5" fill="white"/>
</clipPath>
</defs>
</svg>
