<svg width="24" height="24" viewBox="0 0 24 24" fill="none" xmlns="http://www.w3.org/2000/svg">
<g id="african-tree">
<g clip-path="url(#clip0_232_10506)">
<g id="Weight=Dynamic">
<path id="Vector (Stroke)" fill-rule="evenodd" clip-rule="evenodd" d="M17.6192 4.76554C14.3137 2.19461 9.68509 2.19461 6.3796 4.76554C4.12336 6.5204 3.91571 9.85565 5.93687 11.8768L11.2498 17.1897L11.2498 8C11.2498 7.58579 11.5856 7.25 11.9998 7.25C12.414 7.25 12.7498 7.58579 12.7498 8V10.1893L14.4695 8.46967C14.7624 8.17678 15.2372 8.17678 15.5301 8.46967C15.823 8.76257 15.823 9.23744 15.5301 9.53033L12.7498 12.3107L12.7498 17.1889L18.062 11.8768C20.0831 9.85561 19.8755 6.52039 17.6192 4.76554ZM12.7498 19.274C12.8219 19.2257 12.8903 19.1697 12.954 19.1061L19.1226 12.9374C21.7818 10.2783 21.5086 5.89028 18.5401 3.58151C14.693 0.58928 9.30584 0.589289 5.45869 3.58152C2.49026 5.8903 2.21706 10.2783 4.87621 12.9375L11.0448 19.1061C11.1087 19.17 11.1774 19.2261 11.2498 19.2745V22C11.2498 22.4142 11.5856 22.75 11.9998 22.75C12.414 22.75 12.7498 22.4142 12.7498 22V19.274Z" fill="black"/>
</g>
</g>
</g>
<defs>
<clipPath id="clip0_232_10506">
<rect width="24" height="24" rx="5" fill="white"/>
</clipPath>
</defs>
</svg>
