<svg width="24" height="24" viewBox="0 0 24 24" fill="none" xmlns="http://www.w3.org/2000/svg">
<g id="agile">
<g clip-path="url(#clip0_232_2481)">
<g id="Weight=Dynamic">
<path id="Vector (Stroke)" fill-rule="evenodd" clip-rule="evenodd" d="M12.5303 1.46967C12.8232 1.76256 12.8232 2.23744 12.5303 2.53033L11.2748 3.7859C15.4678 4.17643 18.75 7.70492 18.75 12C18.75 16.5563 15.0563 20.25 10.5 20.25H2C1.58579 20.25 1.25 19.9142 1.25 19.5C1.25 19.0858 1.58579 18.75 2 18.75H10.5C14.2279 18.75 17.25 15.7279 17.25 12C17.25 8.56537 14.6847 5.72989 11.3657 5.30499L12.5303 6.46967C12.8232 6.76256 12.8232 7.23744 12.5303 7.53033C12.2374 7.82322 11.7626 7.82322 11.4697 7.53033L8.96967 5.03033C8.67678 4.73744 8.67678 4.26256 8.96967 3.96967L11.4697 1.46967C11.7626 1.17678 12.2374 1.17678 12.5303 1.46967ZM7.40537 5.12504C7.61245 5.48377 7.48952 5.94246 7.13079 6.14954C5.10836 7.31703 3.75 9.50033 3.75 12C3.75 13.5204 4.2518 14.9215 5.09913 16.0496C5.34789 16.3808 5.28108 16.8509 4.94988 17.0997C4.61869 17.3484 4.14854 17.2816 3.89978 16.9504C2.86404 15.5715 2.25 13.8564 2.25 12C2.25 8.94274 3.91336 6.27488 6.38086 4.85046C6.7396 4.64337 7.19828 4.76631 7.40537 5.12504ZM18.9697 15.9697C19.2626 15.6768 19.7374 15.6768 20.0303 15.9697L22.5303 18.4697C22.8232 18.7626 22.8232 19.2374 22.5303 19.5303L20.0303 22.0303C19.7374 22.3232 19.2626 22.3232 18.9697 22.0303C18.6768 21.7374 18.6768 21.2626 18.9697 20.9697L20.1893 19.75H17.5C17.0858 19.75 16.75 19.4142 16.75 19C16.75 18.5858 17.0858 18.25 17.5 18.25H20.1893L18.9697 17.0303C18.6768 16.7374 18.6768 16.2626 18.9697 15.9697Z" fill="black"/>
</g>
</g>
</g>
<defs>
<clipPath id="clip0_232_2481">
<rect width="24" height="24" rx="5" fill="white"/>
</clipPath>
</defs>
</svg>
