<svg width="24" height="24" viewBox="0 0 24 24" fill="none" xmlns="http://www.w3.org/2000/svg">
<g id="air-conditioner">
<g clip-path="url(#clip0_232_9106)">
<g id="Weight=Dynamic">
<path id="Vector (Stroke)" fill-rule="evenodd" clip-rule="evenodd" d="M1.25 3.6C1.25 2.85442 1.85442 2.25 2.6 2.25H21.4C22.1456 2.25 22.75 2.85441 22.75 3.6V11C22.75 11.0743 22.739 11.1481 22.7173 11.2192L21.9276 13.8036C21.5742 14.9601 20.5069 15.75 19.2976 15.75H18C17.5858 15.75 17.25 15.4142 17.25 15C17.25 14.5858 17.5858 14.25 18 14.25H19.2976C19.8473 14.25 20.3324 13.8909 20.493 13.3653L20.9866 11.75H3.0134L3.50695 13.3653C3.66757 13.8909 4.15273 14.25 4.70239 14.25H6C6.41421 14.25 6.75 14.5858 6.75 15C6.75 15.4142 6.41421 15.75 6 15.75H4.70239C3.49314 15.75 2.42579 14.9601 2.07242 13.8036L1.28274 11.2192C1.26103 11.1481 1.25 11.0743 1.25 11V3.6ZM2.75 10.25V3.75H21.25V10.25H2.75ZM17.25 7C17.25 6.58579 17.5858 6.25 18 6.25H19C19.4142 6.25 19.75 6.58579 19.75 7C19.75 7.41421 19.4142 7.75 19 7.75H18C17.5858 7.75 17.25 7.41421 17.25 7ZM9.5 13.75C9.91421 13.75 10.25 14.0858 10.25 14.5H9.5C10.25 14.5 10.25 14.4998 10.25 14.5L10.25 14.5028L10.25 14.508L10.2499 14.5261C10.2497 14.5415 10.2495 14.5633 10.249 14.5911C10.2481 14.6468 10.2463 14.7268 10.2427 14.8275C10.2355 15.029 10.2212 15.3144 10.1927 15.656C10.1361 16.336 10.022 17.2542 9.79011 18.1819C9.56084 19.099 9.20215 20.0846 8.62344 20.8563C8.02889 21.649 7.16964 22.25 6 22.25C5.58579 22.25 5.25 21.9142 5.25 21.5C5.25 21.0858 5.58579 20.75 6 20.75C6.58036 20.75 7.03361 20.476 7.42344 19.9562C7.8291 19.4154 8.12666 18.651 8.33489 17.8181C8.54048 16.9958 8.6452 16.164 8.6979 15.5315C8.72412 15.2169 8.73716 14.9554 8.74364 14.774C8.74688 14.6834 8.74847 14.613 8.74925 14.5661L8.74992 14.514L8.74999 14.5021L8.75 14.5M9.5 13.75C9.08588 13.75 8.75015 14.0859 8.75 14.5L9.5 13.75ZM12 13.75C12.4142 13.75 12.75 14.0858 12.75 14.5V21.5C12.75 21.9142 12.4142 22.25 12 22.25C11.5858 22.25 11.25 21.9142 11.25 21.5V14.5C11.25 14.0858 11.5858 13.75 12 13.75ZM15.25 14.4997C15.2498 14.0856 14.9141 13.75 14.5 13.75L15.25 14.4997ZM14.5 13.75C14.0858 13.75 13.75 14.0858 13.75 14.5L14.5 13.75ZM13.75 14.5H14.5H13.75ZM14.5 14.5C13.75 14.5 13.75 14.4998 13.75 14.5L13.75 14.5028L13.75 14.508L13.7501 14.5261C13.7503 14.5415 13.7505 14.5633 13.751 14.5911C13.7519 14.6468 13.7537 14.7268 13.7573 14.8275C13.7645 15.029 13.7788 15.3144 13.8073 15.656C13.8639 16.336 13.978 17.2542 14.2099 18.1819C14.4392 19.099 14.7978 20.0846 15.3766 20.8563C15.9711 21.649 16.8304 22.25 18 22.25C18.4142 22.25 18.75 21.9142 18.75 21.5C18.75 21.0858 18.4142 20.75 18 20.75C17.4196 20.75 16.9664 20.476 16.5766 19.9562C16.1709 19.4154 15.8733 18.651 15.6651 17.8181C15.4595 16.9958 15.3548 16.164 15.3021 15.5315C15.2759 15.2169 15.2628 14.9554 15.2564 14.774C15.2531 14.6834 15.2515 14.613 15.2508 14.5661L15.2501 14.514L15.25 14.5021L15.25 14.4997" fill="black"/>
</g>
</g>
</g>
<defs>
<clipPath id="clip0_232_9106">
<rect width="24" height="24" rx="5" fill="white"/>
</clipPath>
</defs>
</svg>
