<svg width="24" height="24" viewBox="0 0 24 24" fill="none" xmlns="http://www.w3.org/2000/svg">
<g id="airplane-helix">
<g clip-path="url(#clip0_232_15780)">
<g id="Weight=Dynamic" clip-path="url(#clip1_232_15780)">
<path id="Vector (Stroke)" fill-rule="evenodd" clip-rule="evenodd" d="M10.75 4.99783C10.7554 5.78808 11.1567 6.63623 11.6283 7.34272C11.7546 7.53191 11.8811 7.70379 11.998 7.8534C12.1176 7.69975 12.2474 7.52294 12.3768 7.32856C12.8532 6.61277 13.2512 5.76692 13.25 5.00113V5.00111C13.2485 3.95475 13.2277 3.09054 13.0199 2.48466C12.9228 2.20136 12.8025 2.0333 12.6731 1.93255C12.551 1.83746 12.3543 1.75018 11.9996 1.75M10.6165 8.51297C10.5392 8.40704 10.46 8.2943 10.3807 8.17554C9.85579 7.38921 9.25733 6.23855 9.25001 5.00445L9.25 4.99962C9.25003 4.93835 9.24997 4.87624 9.24991 4.8134C9.24902 3.90819 9.24799 2.85384 9.51822 2.02082C9.67047 1.55151 9.92562 1.09002 10.364 0.751021C10.8076 0.40795 11.3619 0.249689 12.0004 0.25H12.0004C12.6197 0.250318 13.1596 0.410292 13.5947 0.749041C14.0224 1.08213 14.2798 1.53452 14.4388 1.99809C14.7433 2.88596 14.7486 4.02123 14.75 4.99887M10.6165 8.51297C9.65701 8.89403 8.89207 9.65971 8.51199 10.6197C8.40161 10.5392 8.28392 10.4568 8.15983 10.3742C7.372 9.85004 6.21802 9.24817 4.99889 9.25M7.85374 12.0017C7.70009 11.8821 7.52329 11.7524 7.32892 11.623C6.61301 11.1467 5.767 10.7488 5.00113 10.75H5.00111C3.95475 10.7515 3.09054 10.7723 2.48466 10.9801C2.20136 11.0772 2.0333 11.1975 1.93255 11.3269C1.83746 11.449 1.75018 11.6457 1.75 12.0004M8.51347 13.383C8.40747 13.4605 8.29466 13.5397 8.17581 13.619C7.38938 14.144 6.23859 14.7427 5.00445 14.75L4.99962 14.75C4.93835 14.75 4.87624 14.75 4.8134 14.7501C3.90819 14.751 2.85384 14.752 2.02082 14.4818C1.55151 14.3295 1.09002 14.0744 0.751021 13.636C0.40795 13.1924 0.249689 12.6381 0.25 11.9996V11.9996C0.250318 11.3803 0.410292 10.8404 0.749041 10.4053C1.08213 9.97755 1.53452 9.72015 1.99809 9.56118C2.88596 9.2567 4.02123 9.25145 4.99887 9.25M8.51347 13.383C8.89454 14.3425 9.6602 15.1074 10.6202 15.4875C10.5396 15.5979 10.4571 15.7157 10.3745 15.8399C9.85019 16.6278 9.24816 17.782 9.25 19.0011C9.25145 19.9788 9.2567 21.114 9.56118 22.0019C9.72015 22.4655 9.97755 22.9179 10.4053 23.251C10.8404 23.5897 11.3803 23.7497 11.9996 23.75C12.6381 23.7503 13.1924 23.5921 13.636 23.249C14.0744 22.91 14.3295 22.4485 14.4818 21.9792C14.752 21.1462 14.751 20.0918 14.7501 19.1866C14.75 19.1238 14.75 19.0616 14.75 19.0004L14.75 18.9956C14.7427 17.7615 14.1442 16.6106 13.6193 15.8241C13.54 15.7051 13.4607 15.5922 13.3833 15.4861C14.3428 15.1051 15.1077 14.3395 15.4879 13.3796C15.5983 13.4601 15.7159 13.5426 15.84 13.6252C16.6278 14.1496 17.7819 14.7518 19.0011 14.75C19.9788 14.7486 21.114 14.7433 22.0019 14.4388C22.4655 14.2798 22.9179 14.0224 23.251 13.5947C23.5897 13.1596 23.7497 12.6197 23.75 12.0004C23.7503 11.3619 23.5921 10.8076 23.249 10.364C22.91 9.92562 22.4485 9.67047 21.9792 9.51822C21.1462 9.24799 20.0918 9.24902 19.1866 9.24991C19.1238 9.24997 19.0616 9.25003 19.0004 9.25L18.9956 9.25001C17.7615 9.25733 16.6108 9.85561 15.8243 10.3804C15.7055 10.4597 15.5926 10.5389 15.4866 10.6163C15.1056 9.65675 14.34 8.89175 13.38 8.51161C13.4605 8.40131 13.5429 8.2837 13.6255 8.1597C14.1498 7.37199 14.7518 6.21809 14.75 4.99889M16.1463 11.9976C16.2999 12.1173 16.4768 12.2471 16.6712 12.3766C17.3872 12.8531 18.2331 13.2512 18.9989 13.25C20.0452 13.2485 20.9095 13.2277 21.5153 13.0199C21.7986 12.9228 21.9667 12.8025 22.0674 12.6731C22.1625 12.551 22.2498 12.3543 22.25 11.9996C22.2502 11.6131 22.1578 11.405 22.0624 11.2816C21.9629 11.1529 21.798 11.0364 21.5163 10.945C20.9176 10.7508 20.0835 10.7505 19.0636 10.75L19.0022 10.75C18.2119 10.7554 17.3635 11.1566 16.6569 11.6281C16.4677 11.7543 16.2959 11.8808 16.1463 11.9976ZM12.002 16.1459C12.1189 16.2956 12.2454 16.4675 12.3717 16.6567C12.8433 17.3635 13.2446 18.2119 13.25 19.0022L13.25 19.0636C13.2495 20.0835 13.2492 20.9176 13.055 21.5163C12.9636 21.798 12.8471 21.9629 12.7184 22.0624C12.595 22.1578 12.3869 22.2502 12.0004 22.25C11.6457 22.2498 11.449 22.1625 11.3269 22.0674C11.1975 21.9667 11.0772 21.7986 10.9801 21.5153C10.7723 20.9095 10.7515 20.0452 10.75 18.9989C10.7488 18.233 11.1468 17.3869 11.6233 16.6708C11.7526 16.4764 11.8824 16.2996 12.002 16.1459ZM7.85374 12.0017C7.7041 12.1186 7.53217 12.2452 7.34294 12.3715C6.63629 12.8433 5.78803 13.2446 4.99781 13.25L4.93644 13.25C3.91654 13.2495 3.08238 13.2492 2.48368 13.055C2.20199 12.9636 2.03711 12.8471 1.9376 12.7184C1.84218 12.595 1.74981 12.3869 1.75 12.0004M10.75 4.99783C10.75 4.97729 10.75 4.95683 10.75 4.93644C10.7505 3.91654 10.7508 3.08238 10.945 2.48368C11.0364 2.20199 11.1529 2.03711 11.2816 1.9376C11.405 1.84218 11.6131 1.74981 11.9996 1.75M12 9.74951C10.7574 9.74951 9.75 10.7569 9.75 11.9995C9.75 13.2421 10.7574 14.2495 12 14.2495C13.2426 14.2495 14.25 13.2421 14.25 11.9995C14.25 10.7569 13.2426 9.74951 12 9.74951Z" fill="black"/>
</g>
</g>
</g>
<defs>
<clipPath id="clip0_232_15780">
<rect width="24" height="24" rx="5" fill="white"/>
</clipPath>
<clipPath id="clip1_232_15780">
<rect width="24" height="24" fill="white"/>
</clipPath>
</defs>
</svg>
