<svg width="24" height="24" viewBox="0 0 24 24" fill="none" xmlns="http://www.w3.org/2000/svg">
<g id="airplane-helix-45deg">
<g clip-path="url(#clip0_232_15789)">
<g id="Weight=Dynamic">
<path id="Vector (Stroke)" fill-rule="evenodd" clip-rule="evenodd" d="M16.0677 6.16478C15.5126 6.72749 15.1963 7.61113 15.0299 8.44433C14.9854 8.66734 14.9532 8.87827 14.9301 9.06669C15.1234 9.04263 15.3402 9.00935 15.5693 8.96337C16.4126 8.79404 17.2924 8.47724 17.8331 7.93494L17.8331 7.93493C18.5719 7.19394 19.1683 6.56818 19.4498 5.99285C19.5814 5.72382 19.6152 5.51994 19.5949 5.3572C19.5758 5.20361 19.4985 5.00284 19.2478 4.7519M13.4869 8.5565C13.5072 8.42672 13.531 8.29085 13.559 8.15062C13.7441 7.22339 14.1349 5.98661 15.0023 5.10887L15.0057 5.10545C15.049 5.06215 15.0929 5.01818 15.1373 4.97371C15.7768 4.333 16.5216 3.58673 17.3017 3.18878C17.7412 2.96458 18.2479 2.81868 18.7976 2.88894C19.3539 2.96005 19.8578 3.2401 20.309 3.69176L20.309 3.69177C20.7467 4.1299 21.0154 4.62484 21.0835 5.17198C21.1504 5.70999 21.0125 6.21189 20.7971 6.65209C20.3846 7.49521 19.5856 8.30168 18.8953 8.994M13.4869 8.5565C12.539 8.14735 11.4566 8.14776 10.509 8.55775C10.4879 8.42284 10.463 8.28137 10.4337 8.13532C10.2475 7.20751 9.85736 5.96575 8.99394 5.10493C8.30162 4.41466 7.49514 3.61561 6.65201 3.20308C6.21181 2.9877 5.70992 2.84983 5.17191 2.91677C4.62476 2.98485 4.12983 3.25355 3.6917 3.69123L3.69168 3.69125C3.24003 4.14246 2.95997 4.64633 2.88887 5.20261C2.8186 5.75229 2.96451 6.25904 3.1887 6.69855C3.58665 7.47866 4.33292 8.22347 4.97363 8.86293C5.0181 8.90731 5.06207 8.95119 5.10537 8.99454L5.10536 8.99455L5.10879 8.99794C5.98658 9.86539 7.22331 10.2559 8.15047 10.4408C8.29051 10.4688 8.42621 10.4925 8.55582 10.5127C8.14677 11.4607 8.14726 12.543 8.5573 13.4906C8.42235 13.5117 8.28084 13.5366 8.13473 13.5659C7.20697 13.7523 5.96533 14.1426 5.10455 15.006C4.41428 15.6983 3.61523 16.5048 3.2027 17.3479C2.98732 17.7881 2.84944 18.29 2.91639 18.828C2.98447 19.3752 3.25317 19.8701 3.69085 20.3082L3.69086 20.3082C4.14208 20.7599 4.64595 21.04 5.20223 21.1111C5.75191 21.1813 6.25866 21.0354 6.69816 20.8112C7.47828 20.4133 8.22309 19.667 8.86255 19.0263C8.90693 18.9818 8.95081 18.9379 8.99416 18.8946L8.99417 18.8946L8.99756 18.8911C9.86504 18.0133 10.2555 16.7764 10.4404 15.8491C10.4683 15.709 10.4921 15.5732 10.5123 15.4436C11.4602 15.8526 12.5426 15.8521 13.4902 15.442C13.5113 15.577 13.5363 15.7186 13.5656 15.8648C13.7521 16.7926 14.1426 18.0343 15.0059 18.8951C15.6982 19.5853 16.5047 20.3844 17.3478 20.7969C17.788 21.0123 18.2899 21.1502 18.8279 21.0832C19.3751 21.0151 19.87 20.7465 20.3082 20.3088L20.3082 20.3088C20.7598 19.8575 21.0399 19.3537 21.111 18.7974C21.1812 18.2477 21.0353 17.741 20.8111 17.3015C20.4132 16.5213 19.6669 15.7765 19.0262 15.1371C18.9817 15.0927 18.9378 15.0488 18.8945 15.0055L18.8911 15.0021C18.0132 14.1346 16.7762 13.744 15.8488 13.5591C15.7086 13.5311 15.5727 13.5074 15.443 13.4871C15.852 12.5393 15.8515 11.457 15.4415 10.5094C15.5766 10.4883 15.7183 10.4634 15.8645 10.434C16.7925 10.2477 18.0345 9.85744 18.8953 8.99402M14.9328 14.9304C14.9569 15.1236 14.9902 15.3404 15.0362 15.5693C15.2057 16.4124 15.5226 17.2921 16.065 17.8328L16.065 17.8328C16.806 18.5716 17.4317 19.1681 18.0071 19.4496C18.2761 19.5812 18.48 19.615 18.6427 19.5947C18.7963 19.5756 18.9971 19.4983 19.248 19.2476M14.9328 14.9304C15.1213 14.9535 15.3324 14.9856 15.5555 15.0301C16.3888 15.1963 17.2725 15.5125 17.8351 16.0675L17.8785 16.1108C18.5993 16.8323 19.1889 17.4224 19.475 17.9831C19.6095 18.2469 19.6437 18.4459 19.6231 18.6072C19.6033 18.7619 19.5215 18.9744 19.248 19.2476M9.06904 14.9332C9.04591 15.1217 9.01382 15.3327 8.96934 15.5558C8.80323 16.389 8.48715 17.2726 7.9322 17.8352L7.88881 17.8785C7.16732 18.5994 6.57723 19.189 6.01655 19.475C5.75275 19.6096 5.55376 19.6438 5.39242 19.6232C5.23769 19.6034 5.02526 19.5216 4.75206 19.2481M9.06904 14.9332C8.8758 14.9573 8.65904 14.9906 8.43013 15.0366C7.58706 15.2059 6.7075 15.5227 6.1668 16.0651L6.16678 16.0651C5.42799 16.8061 4.83157 17.4318 4.55007 18.0072C4.41844 18.2762 4.38466 18.4801 4.40491 18.6428C4.42402 18.7964 4.50137 18.9972 4.75204 19.2481M9.06628 9.06954C8.87786 9.0464 8.6669 9.0143 8.44386 8.96981C7.61085 8.80367 6.72742 8.48757 6.16475 7.9326C6.15024 7.91807 6.13578 7.9036 6.12138 7.88918C5.4005 7.1677 4.81091 6.57761 4.52489 6.01693C4.39033 5.75313 4.35614 5.55414 4.37676 5.3928C4.39654 5.23807 4.47834 5.02564 4.75181 4.75244M9.06628 9.06954C9.04225 8.87626 9.009 8.65944 8.96305 8.43047C8.79384 7.58736 8.47716 6.70783 7.93487 6.16718L7.93485 6.16716C7.19387 5.42837 6.5681 4.83195 5.99277 4.55045C5.72375 4.41882 5.51986 4.38504 5.35713 4.40529C5.20353 4.42441 5.00276 4.50175 4.75183 4.75242M16.0677 6.16478L16.111 6.12145C16.8325 5.40057 17.4226 4.81098 17.9833 4.52497C18.2471 4.3904 18.4461 4.35621 18.6074 4.37684C18.7622 4.39661 18.9746 4.47842 19.2478 4.75189M13.5904 10.409C12.7117 9.53027 11.2871 9.53027 10.4084 10.409C9.52973 11.2876 9.52973 12.7122 10.4084 13.5909C11.2871 14.4696 12.7117 14.4696 13.5904 13.5909C14.4691 12.7122 14.4691 11.2876 13.5904 10.409Z" fill="black"/>
</g>
</g>
</g>
<defs>
<clipPath id="clip0_232_15789">
<rect width="24" height="24" rx="5" fill="white"/>
</clipPath>
</defs>
</svg>
