<svg width="24" height="24" viewBox="0 0 24 24" fill="none" xmlns="http://www.w3.org/2000/svg">
<g id="airplane-off">
<g clip-path="url(#clip0_232_15721)">
<g id="Weight=Dynamic">
<path id="Vector (Stroke)" fill-rule="evenodd" clip-rule="evenodd" d="M2.46967 2.46967C2.76256 2.17678 3.23744 2.17678 3.53033 2.46967L21.5303 20.4697C21.8232 20.7626 21.8232 21.2374 21.5303 21.5303C21.2374 21.8232 20.7626 21.8232 20.4697 21.5303L14.4499 15.5106L14.25 15.4606V18.1597L16.3591 20.0051C17.3903 20.9074 16.5767 22.5944 15.2286 22.3493L12 21.7623L8.77141 22.3493C7.42329 22.5944 6.60973 20.9074 7.64093 20.0051L9.75 18.1597V15.4606L3.42742 17.0412C2.57537 17.2542 1.75 16.6098 1.75 15.7315V14.8325C1.75 14.3671 1.98979 13.9344 2.3845 13.6878L8.68763 9.74829L2.46967 3.53033C2.17678 3.23744 2.17678 2.76256 2.46967 2.46967ZM9.77617 10.8368L3.25 14.9157V15.5394L9.57258 13.9588C10.4246 13.7458 11.25 14.3902 11.25 15.2685V18.2277C11.25 18.617 11.082 18.9874 10.789 19.2437L9.03739 20.7764L11.7585 20.2816L11.8927 21.0195L11.7585 20.2816C11.9182 20.2526 12.0818 20.2526 12.2415 20.2816L12.1073 21.0195L12.2415 20.2816L14.9626 20.7764L13.211 19.2437C12.918 18.9874 12.75 18.617 12.75 18.2277V15.2685C12.75 14.8622 12.9266 14.5059 13.2008 14.2615L9.77617 10.8368ZM15.4969 20.8735L15.4968 20.8735L15.4969 20.8735ZM8.50308 20.8735C8.50312 20.8735 8.50315 20.8735 8.50319 20.8735L8.50308 20.8735ZM9.75 4.5C9.75 3.25736 10.7574 2.25 12 2.25C13.2426 2.25 14.25 3.25736 14.25 4.5V9.08431L21.6155 13.6878C22.0102 13.9344 22.25 14.3671 22.25 14.8325V15.7315C22.25 16.6098 21.4246 17.2542 20.5726 17.0412L18.5674 16.5399C18.1656 16.4395 17.9213 16.0323 18.0217 15.6304C18.1222 15.2286 18.5294 14.9843 18.9312 15.0847L20.75 15.5394V14.9157L13.3845 10.3122C12.9898 10.0656 12.75 9.63292 12.75 9.16745V4.5C12.75 4.08579 12.4142 3.75 12 3.75C11.5858 3.75 11.25 4.08579 11.25 4.5V7.5C11.25 7.91421 10.9142 8.25 10.5 8.25C10.0858 8.25 9.75 7.91421 9.75 7.5V4.5Z" fill="black"/>
</g>
</g>
</g>
<defs>
<clipPath id="clip0_232_15721">
<rect width="24" height="24" rx="5" fill="white"/>
</clipPath>
</defs>
</svg>
