<svg width="24" height="24" viewBox="0 0 24 24" fill="none" xmlns="http://www.w3.org/2000/svg">
<g id="airplay">
<g clip-path="url(#clip0_232_3608)">
<g id="Weight=Dynamic">
<path id="Vector (Stroke)" fill-rule="evenodd" clip-rule="evenodd" d="M3.75 4.75L3.75 16.25H6C6.41421 16.25 6.75 16.5858 6.75 17C6.75 17.4142 6.41421 17.75 6 17.75H3C2.58579 17.75 2.25 17.4142 2.25 17L2.25 4C2.25 3.80109 2.32902 3.61032 2.46967 3.46967C2.61032 3.32902 2.80109 3.25 3 3.25L21 3.25C21.1989 3.25 21.3897 3.32902 21.5303 3.46967C21.671 3.61032 21.75 3.80109 21.75 4V17C21.75 17.4142 21.4142 17.75 21 17.75H18C17.5858 17.75 17.25 17.4142 17.25 17C17.25 16.5858 17.5858 16.25 18 16.25H20.25V4.75L3.75 4.75ZM12 15.3521L9.40139 19.25H14.5986L12 15.3521ZM10.8767 14.3328C11.4111 13.5313 12.5889 13.5313 13.1233 14.3328L16.0022 18.6512C16.6003 19.5483 15.9571 20.75 14.8789 20.75H9.12111C8.04287 20.75 7.39974 19.5483 7.99784 18.6512L10.8767 14.3328Z" fill="black"/>
</g>
</g>
</g>
<defs>
<clipPath id="clip0_232_3608">
<rect width="24" height="24" rx="5" fill="white"/>
</clipPath>
</defs>
</svg>
