<svg width="24" height="24" viewBox="0 0 24 24" fill="none" xmlns="http://www.w3.org/2000/svg">
<g id="alarm">
<g clip-path="url(#clip0_232_11901)">
<g id="Weight=Dynamic">
<path id="Vector (Stroke)" fill-rule="evenodd" clip-rule="evenodd" d="M7.6 1.54998C7.84853 1.88135 7.78137 2.35145 7.45 2.59998L5.45 4.09998C5.11863 4.34851 4.64853 4.28135 4.4 3.94998C4.15147 3.61861 4.21863 3.14851 4.55 2.89998L6.55 1.39998C6.88137 1.15145 7.35147 1.21861 7.6 1.54998ZM16.4 1.54998C16.6485 1.21861 17.1186 1.15145 17.45 1.39998L19.45 2.89998C19.7814 3.14851 19.8485 3.61861 19.6 3.94998C19.3515 4.28135 18.8814 4.34851 18.55 4.09998L16.55 2.59998C16.2186 2.35145 16.1515 1.88135 16.4 1.54998ZM12 4.74998C7.44365 4.74998 3.75 8.44363 3.75 13C3.75 17.5563 7.44365 21.25 12 21.25C16.5563 21.25 20.25 17.5563 20.25 13C20.25 8.44363 16.5563 4.74998 12 4.74998ZM2.25 13C2.25 7.61521 6.61522 3.24998 12 3.24998C17.3848 3.24998 21.75 7.61521 21.75 13C21.75 18.3848 17.3848 22.75 12 22.75C6.61522 22.75 2.25 18.3848 2.25 13ZM12 7.24998C12.4142 7.24998 12.75 7.58577 12.75 7.99998V12.25H17C17.4142 12.25 17.75 12.5858 17.75 13C17.75 13.4142 17.4142 13.75 17 13.75H12C11.5858 13.75 11.25 13.4142 11.25 13V7.99998C11.25 7.58577 11.5858 7.24998 12 7.24998Z" fill="black"/>
</g>
</g>
</g>
<defs>
<clipPath id="clip0_232_11901">
<rect width="24" height="24" rx="5" fill="white"/>
</clipPath>
</defs>
</svg>
