<svg width="24" height="24" viewBox="0 0 24 24" fill="none" xmlns="http://www.w3.org/2000/svg">
<g id="album">
<g clip-path="url(#clip0_232_10332)">
<g id="Weight=Dynamic">
<path id="Vector (Stroke)" fill-rule="evenodd" clip-rule="evenodd" d="M3.75 3.75V20.25H20.25V3.75H3.75ZM2.25 3.6C2.25 2.85442 2.85442 2.25 3.6 2.25H20.4C21.1456 2.25 21.75 2.85444 21.75 3.6V20.4C21.75 21.1456 21.1456 21.75 20.4 21.75H3.6C2.85444 21.75 2.25 21.1456 2.25 20.4V3.6ZM12.75 7.75H15C15.4142 7.75 15.75 7.41421 15.75 7C15.75 6.58579 15.4142 6.25 15 6.25H12.6C11.8544 6.25 11.25 6.85444 11.25 7.6V13.378C11.0154 13.2951 10.763 13.25 10.5 13.25C9.25735 13.25 8.25 14.2574 8.25 15.5C8.25 16.7426 9.25735 17.75 10.5 17.75C11.7426 17.75 12.75 16.7426 12.75 15.5V7.75ZM11.25 15.5C11.25 15.0858 10.9142 14.75 10.5 14.75C10.0858 14.75 9.75 15.0858 9.75 15.5C9.75 15.9142 10.0858 16.25 10.5 16.25C10.9142 16.25 11.25 15.9142 11.25 15.5Z" fill="black"/>
</g>
</g>
</g>
<defs>
<clipPath id="clip0_232_10332">
<rect width="24" height="24" rx="5" fill="white"/>
</clipPath>
</defs>
</svg>
