<svg width="24" height="24" viewBox="0 0 24 24" fill="none" xmlns="http://www.w3.org/2000/svg">
<g id="album-open">
<g clip-path="url(#clip0_232_10340)">
<g id="Weight=Dynamic">
<path id="Vector (Stroke)" fill-rule="evenodd" clip-rule="evenodd" d="M0.25 2C0.25 1.58579 0.585786 1.25 1 1.25H11C11.4142 1.25 11.75 1.58579 11.75 2V22C11.75 22.4142 11.4142 22.75 11 22.75H1C0.585786 22.75 0.25 22.4142 0.25 22C0.25 21.5858 0.585786 21.25 1 21.25H10.25V2.75H1C0.585786 2.75 0.25 2.41421 0.25 2ZM14.265 2.05075C14.3474 1.64482 14.7433 1.38254 15.1492 1.46494C20.0564 2.46104 23.75 6.79829 23.75 11.9999C23.75 17.2016 20.0564 21.5388 15.1492 22.5349C14.7433 22.6172 14.3474 22.355 14.265 21.949C14.1826 21.5431 14.4449 21.1472 14.8508 21.0648C19.0726 20.2079 22.25 16.4741 22.25 11.9999C22.25 7.52571 19.0726 3.79195 14.8508 2.93496C14.4449 2.85256 14.1826 2.45669 14.265 2.05075ZM4.75 7.75H7C7.41421 7.75 7.75 7.41421 7.75 7C7.75 6.58579 7.41421 6.25 7 6.25H4.6C3.85442 6.25 3.25 6.85442 3.25 7.6V13.378C3.01542 13.2951 2.76298 13.25 2.5 13.25C1.25735 13.25 0.25 14.2574 0.25 15.5C0.25 16.7426 1.25735 17.75 2.5 17.75C3.74265 17.75 4.75 16.7426 4.75 15.5V7.75ZM3.25 15.5C3.25 15.0858 2.91421 14.75 2.5 14.75C2.08579 14.75 1.75 15.0858 1.75 15.5C1.75 15.9142 2.08579 16.25 2.5 16.25C2.91421 16.25 3.25 15.9142 3.25 15.5ZM14.2721 8.81908C14.3721 8.4171 14.7789 8.17223 15.1809 8.27215C16.7385 8.65931 17.75 10.267 17.75 12C17.75 13.733 16.7385 15.3407 15.1809 15.7279C14.7789 15.8278 14.372 15.5829 14.2721 15.1809C14.1722 14.7789 14.4171 14.372 14.8191 14.2721C15.5437 14.0921 16.25 13.229 16.25 12C16.25 10.771 15.5437 9.90797 14.8191 9.72785C14.4171 9.62793 14.1722 9.22106 14.2721 8.81908Z" fill="black"/>
</g>
</g>
</g>
<defs>
<clipPath id="clip0_232_10340">
<rect width="24" height="24" rx="5" fill="white"/>
</clipPath>
</defs>
</svg>
