<svg width="24" height="24" viewBox="0 0 24 24" fill="none" xmlns="http://www.w3.org/2000/svg">
<g id="album-list">
<g clip-path="url(#clip0_232_10352)">
<g id="Weight=Dynamic">
<path id="Vector (Stroke)" fill-rule="evenodd" clip-rule="evenodd" d="M2.75 2.75V17.25H17.25V2.75H2.75ZM1.25 2.6C1.25 1.85442 1.85442 1.25 2.6 1.25H17.4C18.1456 1.25 18.75 1.85444 18.75 2.6V17.4C18.75 18.1456 18.1456 18.75 17.4 18.75H2.6C1.85444 18.75 1.25 18.1456 1.25 17.4V2.6ZM11.75 6.75H13C13.4142 6.75 13.75 6.41421 13.75 6C13.75 5.58579 13.4142 5.25 13 5.25H11.6C10.8544 5.25 10.25 5.85444 10.25 6.6V10.378C10.0154 10.2951 9.76297 10.25 9.5 10.25C8.25735 10.25 7.25 11.2574 7.25 12.5C7.25 13.7426 8.25735 14.75 9.5 14.75C10.7426 14.75 11.75 13.7426 11.75 12.5V6.75ZM10.25 12.5C10.25 12.0858 9.91419 11.75 9.5 11.75C9.08579 11.75 8.75 12.0858 8.75 12.5C8.75 12.9142 9.08579 13.25 9.5 13.25C9.91419 13.25 10.25 12.9142 10.25 12.5ZM22 7.25C22.4142 7.25 22.75 7.58579 22.75 8V21.4C22.75 22.1456 22.1456 22.75 21.4 22.75H8C7.58579 22.75 7.25 22.4142 7.25 22C7.25 21.5858 7.58579 21.25 8 21.25H21.25V8C21.25 7.58579 21.5858 7.25 22 7.25Z" fill="black"/>
</g>
</g>
</g>
<defs>
<clipPath id="clip0_232_10352">
<rect width="24" height="24" rx="5" fill="white"/>
</clipPath>
</defs>
</svg>
