<svg width="24" height="24" viewBox="0 0 24 24" fill="none" xmlns="http://www.w3.org/2000/svg">
<g id="album-carousel">
<g clip-path="url(#clip0_232_10362)">
<g id="Weight=Dynamic">
<path id="Vector (Stroke)" fill-rule="evenodd" clip-rule="evenodd" d="M2.75 4.75V19.25H17.25V4.75H2.75ZM1.25 4.6C1.25 3.85442 1.85442 3.25 2.6 3.25H17.4C18.1456 3.25 18.75 3.85444 18.75 4.6V19.4C18.75 20.1456 18.1456 20.75 17.4 20.75H2.6C1.85444 20.75 1.25 20.1456 1.25 19.4V4.6ZM22 5.25C22.4142 5.25 22.75 5.58579 22.75 6V18C22.75 18.4142 22.4142 18.75 22 18.75C21.5858 18.75 21.25 18.4142 21.25 18V6C21.25 5.58579 21.5858 5.25 22 5.25ZM11.75 8.75H13C13.4142 8.75 13.75 8.41421 13.75 8C13.75 7.58579 13.4142 7.25 13 7.25H11.6C10.8544 7.25 10.25 7.85444 10.25 8.6V12.378C10.0154 12.2951 9.76297 12.25 9.5 12.25C8.25735 12.25 7.25 13.2574 7.25 14.5C7.25 15.7426 8.25735 16.75 9.5 16.75C10.7426 16.75 11.75 15.7426 11.75 14.5V8.75ZM10.25 14.5C10.25 14.0858 9.91419 13.75 9.5 13.75C9.08579 13.75 8.75 14.0858 8.75 14.5C8.75 14.9142 9.08579 15.25 9.5 15.25C9.91419 15.25 10.25 14.9142 10.25 14.5Z" fill="black"/>
</g>
</g>
</g>
<defs>
<clipPath id="clip0_232_10362">
<rect width="24" height="24" rx="5" fill="white"/>
</clipPath>
</defs>
</svg>
