<svg width="24" height="24" viewBox="0 0 24 24" fill="none" xmlns="http://www.w3.org/2000/svg">
<g id="align-top-box">
<g clip-path="url(#clip0_232_4252)">
<g id="Weight=Dynamic">
<path id="Vector (Stroke)" fill-rule="evenodd" clip-rule="evenodd" d="M3.25001 4C3.25001 3.58579 3.58579 3.25 4.00001 3.25H20C20.4142 3.25 20.75 3.58579 20.75 4V12C20.75 12.4142 20.4142 12.75 20 12.75H4.00001C3.58579 12.75 3.25001 12.4142 3.25001 12V4ZM4.75001 4.75V11.25H19.25V4.75H4.75001ZM4.51173 15.4314C4.81961 15.7085 4.84457 16.1827 4.56748 16.4906L4.55748 16.5017C4.28039 16.8096 3.80617 16.8346 3.49829 16.5575C3.1904 16.2804 3.16544 15.8062 3.44253 15.4983L3.45253 15.4872C3.72962 15.1793 4.20384 15.1543 4.51173 15.4314ZM20.5117 15.4314C20.8196 15.7085 20.8446 16.1827 20.5675 16.4906L20.5575 16.5017C20.2804 16.8096 19.8062 16.8346 19.4983 16.5575C19.1904 16.2804 19.1654 15.8061 19.4425 15.4983L19.4525 15.4872C19.7296 15.1793 20.2039 15.1543 20.5117 15.4314ZM4.51173 19.4314C4.81961 19.7085 4.84457 20.1827 4.56748 20.4906L4.55748 20.5017C4.28039 20.8096 3.80617 20.8346 3.49829 20.5575C3.1904 20.2804 3.16544 19.8062 3.44253 19.4983L3.45253 19.4872C3.72962 19.1793 4.20384 19.1543 4.51173 19.4314ZM8.51173 19.4314C8.81961 19.7085 8.84457 20.1827 8.56748 20.4906L8.55748 20.5017C8.28038 20.8096 7.80616 20.8346 7.49828 20.5575C7.1904 20.2804 7.16544 19.8061 7.44254 19.4983L7.45254 19.4872C7.72963 19.1793 8.20385 19.1543 8.51173 19.4314ZM12.5117 19.4314C12.8196 19.7085 12.8446 20.1827 12.5675 20.4906L12.5575 20.5017C12.2804 20.8096 11.8062 20.8346 11.4983 20.5575C11.1904 20.2804 11.1654 19.8061 11.4425 19.4983L11.4525 19.4872C11.7296 19.1793 12.2039 19.1543 12.5117 19.4314ZM16.5117 19.4314C16.8196 19.7085 16.8446 20.1827 16.5675 20.4906L16.5575 20.5017C16.2804 20.8096 15.8062 20.8346 15.4983 20.5575C15.1904 20.2804 15.1654 19.8061 15.4425 19.4983L15.4525 19.4872C15.7296 19.1793 16.2039 19.1543 16.5117 19.4314ZM20.5117 19.4314C20.8196 19.7085 20.8446 20.1827 20.5675 20.4906L20.5575 20.5017C20.2804 20.8096 19.8062 20.8346 19.4983 20.5575C19.1904 20.2804 19.1654 19.8061 19.4425 19.4983L19.4525 19.4872C19.7296 19.1793 20.2039 19.1543 20.5117 19.4314Z" fill="black"/>
</g>
</g>
</g>
<defs>
<clipPath id="clip0_232_4252">
<rect width="24" height="24" rx="5" fill="white"/>
</clipPath>
</defs>
</svg>
