<svg width="24" height="24" viewBox="0 0 24 24" fill="none" xmlns="http://www.w3.org/2000/svg">
<g id="align-vertical-centers">
<g clip-path="url(#clip0_232_5191)">
<g id="Weight=Dynamic">
<path id="Vector (Stroke)" fill-rule="evenodd" clip-rule="evenodd" d="M10 3.75C9.30964 3.75 8.75 4.30964 8.75 5V11.25H15.25V5C15.25 4.30964 14.6904 3.75 14 3.75H10ZM16.75 11.25V5C16.75 3.48122 15.5188 2.25 14 2.25H10C8.48122 2.25 7.25 3.48122 7.25 5V11.25H2V12.75H7.25V19C7.25 20.5188 8.48122 21.75 10 21.75H14C15.5188 21.75 16.75 20.5188 16.75 19V12.75H22C22.4142 12.75 22.75 12.4142 22.75 12C22.75 11.5858 22.4142 11.25 22 11.25H16.75ZM15.25 12.75H8.75V19C8.75 19.6904 9.30964 20.25 10 20.25H14C14.6904 20.25 15.25 19.6904 15.25 19V12.75Z" fill="black"/>
</g>
</g>
</g>
<defs>
<clipPath id="clip0_232_5191">
<rect width="24" height="24" rx="5" fill="white"/>
</clipPath>
</defs>
</svg>
