<svg width="24" height="24" viewBox="0 0 24 24" fill="none" xmlns="http://www.w3.org/2000/svg">
<g id="align-bottom-box">
<g clip-path="url(#clip0_232_4224)">
<g id="Weight=Dynamic">
<path id="Vector (Stroke)" fill-rule="evenodd" clip-rule="evenodd" d="M3.49828 3.44254C3.80616 3.16544 4.28038 3.1904 4.55748 3.49828L4.56748 3.50939C4.84457 3.81728 4.81961 4.29149 4.51173 4.56859C4.20385 4.84568 3.72963 4.82072 3.45254 4.51284L3.44254 4.50173C3.16544 4.19385 3.1904 3.71963 3.49828 3.44254ZM7.49828 3.44254C7.80616 3.16544 8.28037 3.1904 8.55747 3.49828L8.56747 3.50939C8.84457 3.81727 8.81962 4.29148 8.51174 4.56858C8.20386 4.84568 7.72964 4.82073 7.45254 4.51285L7.44254 4.50174C7.16544 4.19386 7.1904 3.71964 7.49828 3.44254ZM11.4983 3.44254C11.8062 3.16544 12.2804 3.1904 12.5575 3.49828L12.5675 3.50939C12.8446 3.81727 12.8196 4.29148 12.5117 4.56858C12.2039 4.84568 11.7296 4.82073 11.4525 4.51285L11.4425 4.50174C11.1654 4.19386 11.1904 3.71964 11.4983 3.44254ZM15.4983 3.44254C15.8062 3.16544 16.2804 3.1904 16.5575 3.49828L16.5675 3.50939C16.8446 3.81727 16.8196 4.29148 16.5117 4.56858C16.2039 4.84568 15.7296 4.82073 15.4525 4.51285L15.4425 4.50174C15.1654 4.19386 15.1904 3.71964 15.4983 3.44254ZM19.4983 3.44254C19.8062 3.16544 20.2804 3.1904 20.5575 3.49828L20.5675 3.50939C20.8446 3.81727 20.8196 4.29148 20.5117 4.56858C20.2039 4.84568 19.7296 4.82073 19.4525 4.51285L19.4425 4.50174C19.1654 4.19386 19.1904 3.71964 19.4983 3.44254ZM3.49829 7.44253C3.80617 7.16544 4.28039 7.1904 4.55748 7.49829L4.56748 7.5094C4.84457 7.81728 4.81961 8.2915 4.51173 8.56859C4.20384 8.84568 3.72962 8.82072 3.45253 8.51284L3.44253 8.50173C3.16544 8.19384 3.1904 7.71962 3.49829 7.44253ZM19.4983 7.44254C19.8062 7.16544 20.2804 7.1904 20.5575 7.49828L20.5675 7.50939C20.8446 7.81727 20.8196 8.29149 20.5117 8.56859C20.2039 8.84568 19.7296 8.82073 19.4525 8.51284L19.4425 8.50173C19.1654 8.19385 19.1904 7.71963 19.4983 7.44254ZM3.25001 12C3.25001 11.5858 3.58579 11.25 4.00001 11.25H20C20.4142 11.25 20.75 11.5858 20.75 12V20C20.75 20.4142 20.4142 20.75 20 20.75H4.00001C3.58579 20.75 3.25001 20.4142 3.25001 20V12ZM4.75001 12.75V19.25H19.25V12.75H4.75001Z" fill="black"/>
</g>
</g>
</g>
<defs>
<clipPath id="clip0_232_4224">
<rect width="24" height="24" rx="5" fill="white"/>
</clipPath>
</defs>
</svg>
