<svg width="24" height="24" viewBox="0 0 24 24" fill="none" xmlns="http://www.w3.org/2000/svg">
<g id="align-horizontal-spacing">
<g clip-path="url(#clip0_232_4949)">
<g id="Weight=Dynamic">
<path id="Vector (Stroke)" fill-rule="evenodd" clip-rule="evenodd" d="M3.75 2V22C3.75 22.4142 3.41421 22.75 3 22.75C2.58579 22.75 2.25 22.4142 2.25 22V2H3.75ZM21.75 2V22C21.75 22.4142 21.4142 22.75 21 22.75C20.5858 22.75 20.25 22.4142 20.25 22V2H21.75ZM6.25 10C6.25 8.48122 7.48122 7.25 9 7.25H15C16.5188 7.25 17.75 8.48122 17.75 10V14C17.75 15.5188 16.5188 16.75 15 16.75H9C7.48122 16.75 6.25 15.5188 6.25 14V10ZM9 8.75C8.30964 8.75 7.75 9.30964 7.75 10V14C7.75 14.6904 8.30964 15.25 9 15.25H15C15.6904 15.25 16.25 14.6904 16.25 14V10C16.25 9.30964 15.6904 8.75 15 8.75H9Z" fill="black"/>
</g>
</g>
</g>
<defs>
<clipPath id="clip0_232_4949">
<rect width="24" height="24" rx="5" fill="white"/>
</clipPath>
</defs>
</svg>
