<svg width="24" height="24" viewBox="0 0 24 24" fill="none" xmlns="http://www.w3.org/2000/svg">
<g id="align-horizontal-centers">
<g clip-path="url(#clip0_232_5201)">
<g id="Weight=Dynamic">
<path id="Vector (Stroke)" fill-rule="evenodd" clip-rule="evenodd" d="M12.75 16.75V22C12.75 22.4142 12.4142 22.75 12 22.75C11.5858 22.75 11.25 22.4142 11.25 22V16.75H5C3.48122 16.75 2.25 15.5188 2.25 14V10C2.25 8.48122 3.48122 7.25 5 7.25H11.25V2H12.75V7.25H19C20.5188 7.25 21.75 8.48122 21.75 10V14C21.75 15.5188 20.5188 16.75 19 16.75H12.75ZM12.75 15.25H19C19.6904 15.25 20.25 14.6904 20.25 14V10C20.25 9.30964 19.6904 8.75 19 8.75H12.75V15.25ZM11.25 8.75H5C4.30964 8.75 3.75 9.30964 3.75 10V14C3.75 14.6904 4.30964 15.25 5 15.25H11.25V8.75Z" fill="black"/>
</g>
</g>
</g>
<defs>
<clipPath id="clip0_232_5201">
<rect width="24" height="24" rx="5" fill="white"/>
</clipPath>
</defs>
</svg>
