<svg width="24" height="24" viewBox="0 0 24 24" fill="none" xmlns="http://www.w3.org/2000/svg">
<g id="align-left-box">
<g clip-path="url(#clip0_232_4168)">
<g id="Weight=Dynamic">
<path id="Vector (Stroke)" fill-rule="evenodd" clip-rule="evenodd" d="M16.5626 3.49328C16.8397 3.80117 16.8147 4.27538 16.5068 4.55248L16.4957 4.56248C16.1878 4.83957 15.7136 4.81461 15.4365 4.50672C15.1594 4.19884 15.1844 3.72462 15.4923 3.44753L15.5034 3.43753C15.8113 3.16044 16.2855 3.1854 16.5626 3.49328ZM20.5626 3.49328C20.8397 3.80117 20.8147 4.27538 20.5068 4.55248L20.4957 4.56248C20.1878 4.83957 19.7136 4.81461 19.4365 4.50672C19.1594 4.19884 19.1844 3.72462 19.4923 3.44753L19.5034 3.43753C19.8113 3.16044 20.2855 3.1854 20.5626 3.49328ZM3.25488 3.995C3.25488 3.58079 3.59067 3.245 4.00488 3.245H12.0049C12.4191 3.245 12.7549 3.58079 12.7549 3.995V19.995C12.7549 20.4092 12.4191 20.745 12.0049 20.745H4.00488C3.59067 20.745 3.25488 20.4092 3.25488 19.995V3.995ZM4.75488 4.745V19.245H11.2549V4.745H4.75488ZM20.5626 7.49328C20.8397 7.80116 20.8147 8.27537 20.5068 8.55247L20.4957 8.56247C20.1879 8.83957 19.7136 8.81461 19.4365 8.50673C19.1594 8.19885 19.1844 7.72463 19.4923 7.44753L19.5034 7.43753C19.8113 7.16044 20.2855 7.18539 20.5626 7.49328ZM20.5626 11.4933C20.8397 11.8012 20.8147 12.2754 20.5068 12.5525L20.4957 12.5625C20.1879 12.8396 19.7136 12.8146 19.4365 12.5067C19.1594 12.1988 19.1844 11.7246 19.4923 11.4475L19.5034 11.4375C19.8113 11.1604 20.2855 11.1854 20.5626 11.4933ZM20.5626 15.4933C20.8397 15.8012 20.8147 16.2754 20.5068 16.5525L20.4957 16.5625C20.1879 16.8396 19.7136 16.8146 19.4365 16.5067C19.1594 16.1988 19.1844 15.7246 19.4923 15.4475L19.5034 15.4375C19.8113 15.1604 20.2855 15.1854 20.5626 15.4933ZM16.5626 19.4933C16.8397 19.8012 16.8147 20.2754 16.5068 20.5525L16.4957 20.5625C16.1879 20.8396 15.7136 20.8146 15.4365 20.5067C15.1594 20.1988 15.1844 19.7246 15.4923 19.4475L15.5034 19.4375C15.8113 19.1604 16.2855 19.1854 16.5626 19.4933ZM20.5626 19.4933C20.8397 19.8012 20.8147 20.2754 20.5068 20.5525L20.4957 20.5625C20.1879 20.8396 19.7136 20.8146 19.4365 20.5067C19.1594 20.1988 19.1844 19.7246 19.4923 19.4475L19.5034 19.4375C19.8113 19.1604 20.2855 19.1854 20.5626 19.4933Z" fill="black"/>
</g>
</g>
</g>
<defs>
<clipPath id="clip0_232_4168">
<rect width="24" height="24" rx="5" fill="white"/>
</clipPath>
</defs>
</svg>
