<svg width="24" height="24" viewBox="0 0 24 24" fill="none" xmlns="http://www.w3.org/2000/svg">
<g id="align-right-box">
<g clip-path="url(#clip0_232_4196)">
<g id="Weight=Dynamic">
<path id="Vector (Stroke)" fill-rule="evenodd" clip-rule="evenodd" d="M4.57371 3.49328C4.85081 3.80116 4.82585 4.27538 4.51797 4.55247L4.50686 4.56247C4.19897 4.83957 3.72476 4.81461 3.44766 4.50673C3.17057 4.19884 3.19553 3.72463 3.50341 3.44753L3.51452 3.43753C3.8224 3.16044 4.29662 3.1854 4.57371 3.49328ZM8.57372 3.49328C8.85081 3.80117 8.82585 4.27538 8.51796 4.55248L8.50685 4.56248C8.19897 4.83957 7.72475 4.81461 7.44766 4.50672C7.17057 4.19884 7.19553 3.72462 7.50341 3.44753L7.51452 3.43753C7.82241 3.16044 8.29663 3.1854 8.57372 3.49328ZM11.2549 4.005C11.2549 3.59079 11.5907 3.255 12.0049 3.255H20.0049C20.4191 3.255 20.7549 3.59079 20.7549 4.005V20.005C20.7549 20.4192 20.4191 20.755 20.0049 20.755H12.0049C11.5907 20.755 11.2549 20.4192 11.2549 20.005V4.005ZM12.7549 4.755V19.255H19.2549V4.755H12.7549ZM4.57371 7.49327C4.85081 7.80115 4.82585 8.27537 4.51797 8.55247L4.50686 8.56247C4.19898 8.83956 3.72477 8.81461 3.44767 8.50673C3.17057 8.19885 3.19552 7.72464 3.5034 7.44754L3.51451 7.43754C3.82239 7.16044 4.29661 7.18539 4.57371 7.49327ZM4.57371 11.4933C4.85081 11.8012 4.82585 12.2754 4.51797 12.5525L4.50686 12.5625C4.19898 12.8396 3.72477 12.8146 3.44767 12.5067C3.17057 12.1989 3.19552 11.7246 3.5034 11.4475L3.51451 11.4375C3.82239 11.1604 4.29661 11.1854 4.57371 11.4933ZM4.57371 15.4933C4.85081 15.8012 4.82585 16.2754 4.51797 16.5525L4.50686 16.5625C4.19898 16.8396 3.72477 16.8146 3.44767 16.5067C3.17057 16.1989 3.19552 15.7246 3.5034 15.4475L3.51451 15.4375C3.82239 15.1604 4.29661 15.1854 4.57371 15.4933ZM4.57371 19.4933C4.85081 19.8011 4.82585 20.2754 4.51797 20.5525L4.50686 20.5625C4.19898 20.8396 3.72477 20.8146 3.44767 20.5067C3.17057 20.1989 3.19552 19.7246 3.5034 19.4475L3.51451 19.4375C3.82239 19.1604 4.29661 19.1854 4.57371 19.4933ZM8.57371 19.4933C8.85081 19.8012 8.82585 20.2754 8.51797 20.5525L8.50686 20.5625C8.19898 20.8396 7.72476 20.8146 7.44767 20.5067C7.17057 20.1988 7.19553 19.7246 7.50341 19.4475L7.51452 19.4375C7.8224 19.1604 8.29662 19.1854 8.57371 19.4933Z" fill="black"/>
</g>
</g>
</g>
<defs>
<clipPath id="clip0_232_4196">
<rect width="24" height="24" rx="5" fill="white"/>
</clipPath>
</defs>
</svg>
