<svg width="24" height="24" viewBox="0 0 24 24" fill="none" xmlns="http://www.w3.org/2000/svg">
<g id="angle-tool">
<g clip-path="url(#clip0_232_15677)">
<g id="Weight=Dynamic">
<path id="Vector (Stroke)" fill-rule="evenodd" clip-rule="evenodd" d="M2.25 3C2.25 2.58579 2.58579 2.25 3 2.25H9C9.41421 2.25 9.75 2.58579 9.75 3V14.25H21C21.4142 14.25 21.75 14.5858 21.75 15V21C21.75 21.4142 21.4142 21.75 21 21.75H3C2.58579 21.75 2.25 21.4142 2.25 21V3ZM3.75 7.75H5C5.41421 7.75 5.75 7.41421 5.75 7C5.75 6.58579 5.41421 6.25 5 6.25H3.75V3.75H8.25V15C8.25 15.4142 8.58579 15.75 9 15.75H20.25V20.25H17.75V19C17.75 18.5858 17.4142 18.25 17 18.25C16.5858 18.25 16.25 18.5858 16.25 19V20.25H13.75V19C13.75 18.5858 13.4142 18.25 13 18.25C12.5858 18.25 12.25 18.5858 12.25 19V20.25H9.75V19C9.75 18.5858 9.41421 18.25 9 18.25C8.58579 18.25 8.25 18.5858 8.25 19V20.25H3.75V15.75H5C5.41421 15.75 5.75 15.4142 5.75 15C5.75 14.5858 5.41421 14.25 5 14.25H3.75V11.75H5C5.41421 11.75 5.75 11.4142 5.75 11C5.75 10.5858 5.41421 10.25 5 10.25H3.75V7.75Z" fill="black"/>
</g>
</g>
</g>
<defs>
<clipPath id="clip0_232_15677">
<rect width="24" height="24" rx="5" fill="white"/>
</clipPath>
</defs>
</svg>
