<svg width="24" height="24" viewBox="0 0 24 24" fill="none" xmlns="http://www.w3.org/2000/svg">
<g id="antenna">
<g clip-path="url(#clip0_232_3710)">
<g id="Weight=Dynamic">
<g id="Vector">
</g>
<path id="Vector (Stroke)" fill-rule="evenodd" clip-rule="evenodd" d="M8.42036 1.62108C8.76145 1.39031 8.85284 0.927129 8.62404 0.583932C8.39427 0.239286 7.92862 0.146156 7.58397 0.37592L8 0.999958C7.58397 0.37592 7.58427 0.375724 7.58397 0.37592L7.58278 0.376719L7.58144 0.377615L7.57835 0.379702L7.57052 0.38505L7.54851 0.40046C7.53112 0.412828 7.50836 0.429423 7.48101 0.450259C7.42638 0.491883 7.35305 0.550721 7.26735 0.626901C7.09653 0.778741 6.87299 1.00264 6.65 1.29996C6.20234 1.89684 5.75 2.80083 5.75 3.99996C5.75 5.19908 6.20234 6.10308 6.65 6.69996C6.87299 6.99727 7.09653 7.22117 7.26735 7.37301C7.35305 7.44919 7.42638 7.50803 7.48101 7.54966C7.50836 7.57049 7.53112 7.58709 7.54851 7.59946L7.57052 7.61487L7.57835 7.62021L7.58144 7.6223L7.58278 7.6232C7.58307 7.62339 7.58397 7.624 8 6.99996L7.58397 7.624C7.92862 7.85376 8.39427 7.76063 8.62404 7.41598C8.85284 7.07279 8.76145 6.6096 8.42036 6.37883C8.42049 6.37892 8.42083 6.37916 8.42036 6.37883L8.41948 6.37824L8.41801 6.37725C8.4192 6.37809 8.41985 6.37847 8.42036 6.37883C8.4191 6.37798 8.41783 6.37713 8.41657 6.37628L8.41801 6.37725C8.41343 6.37399 8.40375 6.36692 8.39008 6.35651C8.36268 6.33563 8.31882 6.30072 8.2639 6.2519C8.15347 6.15374 8.00201 6.00264 7.85 5.79996C7.54766 5.39684 7.25 4.80083 7.25 3.99996C7.25 3.19908 7.54766 2.60308 7.85 2.19996C8.00201 1.99727 8.15347 1.84617 8.2639 1.74801C8.31882 1.69919 8.36268 1.66428 8.39008 1.64341C8.40375 1.63299 8.41322 1.62615 8.4178 1.62289C8.41898 1.62205 8.41985 1.62144 8.42036 1.62108ZM15.376 0.583932C15.6057 0.239286 16.0714 0.146156 16.416 0.37592L16 0.999958C16.416 0.37592 16.4157 0.375724 16.416 0.37592L16.4172 0.376719L16.4186 0.377615L16.4217 0.379702L16.4295 0.38505L16.4515 0.40046C16.4689 0.412828 16.4916 0.429423 16.519 0.450259C16.5736 0.491883 16.6469 0.550721 16.7326 0.626901C16.9035 0.778741 17.127 1.00264 17.35 1.29996C17.7977 1.89684 18.25 2.80083 18.25 3.99996C18.25 5.19908 17.7977 6.10308 17.35 6.69996C17.127 6.99727 16.9035 7.22117 16.7326 7.37301C16.6469 7.44919 16.5736 7.50803 16.519 7.54966C16.4916 7.57049 16.4689 7.58709 16.4515 7.59946L16.4295 7.61487L16.4217 7.62021L16.4186 7.6223L16.4172 7.6232C16.4169 7.62339 16.416 7.624 16 6.99996L16.416 7.624C16.0714 7.85376 15.6057 7.76063 15.376 7.41598C15.1472 7.07278 15.2386 6.6096 15.5796 6.37883C15.5792 6.37916 15.5795 6.37892 15.5796 6.37883M15.5834 1.62363C15.5822 1.62279 15.5809 1.62194 15.5796 1.62109C15.2386 1.39032 15.1472 0.927132 15.376 0.583932M12 3.74996C11.8619 3.74996 11.75 3.86189 11.75 3.99996C11.75 4.13803 11.8619 4.24996 12 4.24996C12.1381 4.24996 12.25 4.13803 12.25 3.99996C12.25 3.86189 12.1381 3.74996 12 3.74996ZM10.25 3.99996C10.25 3.03346 11.0335 2.24996 12 2.24996C12.9665 2.24996 13.75 3.03346 13.75 3.99996C13.75 4.63103 13.416 5.18408 12.9151 5.49195L17.7226 22.7992C17.8335 23.1983 17.5998 23.6117 17.2007 23.7226C16.8016 23.8335 16.3882 23.5998 16.2774 23.2007L15.3188 19.75H8.68118L7.72264 23.2007C7.61178 23.5998 7.19837 23.8335 6.79927 23.7226C6.40016 23.6117 6.1665 23.1983 6.27736 22.7992L11.0849 5.49195C10.584 5.18408 10.25 4.63103 10.25 3.99996ZM12 7.80219L10.4867 13.25H13.5133L12 7.80219ZM13.9299 14.75H10.0701L9.09784 18.25H14.9022L13.9299 14.75Z" fill="black"/>
</g>
</g>
</g>
<defs>
<clipPath id="clip0_232_3710">
<rect width="24" height="24" rx="5" fill="white"/>
</clipPath>
</defs>
</svg>
