<svg width="24" height="24" viewBox="0 0 24 24" fill="none" xmlns="http://www.w3.org/2000/svg">
<g id="antenna-off">
<g clip-path="url(#clip0_232_3567)">
<g id="Weight=Dynamic">
<path id="Vector" d="M12 5C12.5523 5 13 4.55228 13 4C13 3.44772 12.5523 3 12 3C11.4477 3 11 3.44772 11 4C11 4.55228 11.4477 5 12 5Z" fill="black"/>
<path id="Vector (Stroke)" fill-rule="evenodd" clip-rule="evenodd" d="M2.46967 2.46967C2.76256 2.17678 3.23744 2.17678 3.53033 2.46967L21.5303 20.4697C21.8232 20.7626 21.8232 21.2374 21.5303 21.5303C21.2374 21.8232 20.7626 21.8232 20.4697 21.5303L16.178 17.2387L17.7226 22.7993C17.8335 23.1984 17.5998 23.6118 17.2007 23.7226C16.8016 23.8335 16.3882 23.5998 16.2774 23.2007L15.3188 19.75H8.68118L7.72264 23.2007C7.61178 23.5998 7.19837 23.8335 6.79927 23.7226C6.40016 23.6118 6.1665 23.1984 6.27736 22.7993L9.57713 10.9201C9.59685 10.8491 9.62613 10.7834 9.6632 10.7239L2.46967 3.53033C2.17678 3.23744 2.17678 2.76256 2.46967 2.46967ZM10.8569 11.9175L10.4867 13.25H12.1893L10.8569 11.9175ZM13.67 14.7307C13.6154 14.7433 13.5585 14.75 13.5 14.75H10.0701L9.09784 18.25H14.9022L14.0225 15.0831L13.67 14.7307ZM12 3.75C11.8619 3.75 11.75 3.86193 11.75 4C11.75 4.13807 11.8619 4.25 12 4.25C12.1381 4.25 12.25 4.13807 12.25 4C12.25 3.86193 12.1381 3.75 12 3.75ZM10.25 4C10.25 3.0335 11.0335 2.25 12 2.25C12.9665 2.25 13.75 3.0335 13.75 4C13.75 4.63107 13.416 5.18412 12.9151 5.49199L13.7692 8.56686C13.8801 8.96596 13.6464 9.37937 13.2473 9.49023C12.8482 9.60109 12.4348 9.36742 12.3239 8.96832L11.9348 7.56758C11.7513 7.72582 11.4947 7.79235 11.2437 7.72264C10.8446 7.61178 10.6109 7.19837 10.7218 6.79927L11.0849 5.49199C10.584 5.18412 10.25 4.63107 10.25 4Z" fill="black"/>
</g>
</g>
</g>
<defs>
<clipPath id="clip0_232_3567">
<rect width="24" height="24" rx="5" fill="white"/>
</clipPath>
</defs>
</svg>
