<svg width="24" height="24" viewBox="0 0 24 24" fill="none" xmlns="http://www.w3.org/2000/svg">
<g id="antenna-signal-tag">
<g clip-path="url(#clip0_232_3748)">
<g id="Weight=Dynamic" clip-path="url(#clip1_232_3748)">
<g id="antenna-signal-tag_2">
<path id="Vector (Stroke)" fill-rule="evenodd" clip-rule="evenodd" d="M8 3.75C5.10051 3.75 2.75 6.10051 2.75 9V15C2.75 17.8995 5.10051 20.25 8 20.25H16C18.8995 20.25 21.25 17.8995 21.25 15V9C21.25 6.10051 18.8995 3.75 16 3.75H8ZM1.25 9C1.25 5.27208 4.27208 2.25 8 2.25H16C19.7279 2.25 22.75 5.27208 22.75 9V15C22.75 18.7279 19.7279 21.75 16 21.75H8C4.27208 21.75 1.25 18.7279 1.25 15V9Z" fill="black"/>
<path id="Vector (Stroke)_2" fill-rule="evenodd" clip-rule="evenodd" d="M12.5117 11.4414C12.8196 11.7185 12.8446 12.1927 12.5675 12.5006L12.5575 12.5117C12.2804 12.8196 11.8062 12.8446 11.4983 12.5675C11.1904 12.2904 11.1654 11.8162 11.4425 11.5083L11.4525 11.4972C11.7296 11.1893 12.2038 11.1643 12.5117 11.4414Z" fill="black"/>
<path id="Vector 2.2 (Stroke)" d="M7.24999 12C7.24999 13.0732 7.53648 13.935 7.82513 14.5303C7.96944 14.828 8.11514 15.0609 8.22806 15.2232C8.28461 15.3045 8.33323 15.3685 8.36975 15.4145C8.5054 15.5853 8.41142 15.4668 8.43943 15.4983C8.71462 15.8079 9.18868 15.8357 9.49826 15.5606C9.80661 15.2865 9.83551 14.8151 9.56384 14.5055L9.56306 14.5046C9.56019 14.5012 9.55337 14.4929 9.5443 14.4815C9.52613 14.4586 9.49662 14.4201 9.45942 14.3666C9.38485 14.2594 9.28054 14.0939 9.17485 13.8759C8.9635 13.44 8.74999 12.8018 8.74999 12H7.24999Z" fill="black"/>
<path id="Vector 2.2 (Stroke)_2" d="M16.75 12C16.75 13.0732 16.4635 13.935 16.1749 14.5303C16.0306 14.828 15.8849 15.0609 15.7719 15.2232C15.7154 15.3045 15.6668 15.3685 15.6303 15.4145C15.4946 15.5853 15.5886 15.4668 15.5606 15.4983C15.2854 15.8079 14.8113 15.8357 14.5017 15.5606C14.1934 15.2865 14.1645 14.8151 14.4362 14.5055L14.4369 14.5046C14.4398 14.5012 14.4466 14.4929 14.4557 14.4815C14.4739 14.4586 14.5034 14.4201 14.5406 14.3666C14.6152 14.2594 14.7195 14.0939 14.8251 13.8759C15.0365 13.44 15.25 12.8018 15.25 12H16.75Z" fill="black"/>
<path id="Vector 2.2 (Stroke)_3" d="M7.24999 12C7.24999 10.9268 7.53648 10.065 7.82513 9.46967C7.96944 9.17202 8.11514 8.93911 8.22806 8.77678C8.28461 8.69549 8.33323 8.6315 8.36975 8.58552C8.5054 8.41474 8.41142 8.53324 8.43943 8.50173C8.71462 8.19214 9.18868 8.16425 9.49826 8.43944C9.80661 8.71353 9.83551 9.18489 9.56384 9.49454L9.56306 9.49543C9.56019 9.49884 9.55337 9.50707 9.5443 9.51849C9.52613 9.54136 9.49662 9.5799 9.45942 9.63338C9.38485 9.74057 9.28054 9.9061 9.17485 10.1241C8.9635 10.56 8.74999 11.1982 8.74999 12H7.24999Z" fill="black"/>
<path id="Vector 2.2 (Stroke)_4" d="M16.75 12C16.75 10.9268 16.4635 10.065 16.1749 9.46967C16.0306 9.17202 15.8849 8.93911 15.7719 8.77678C15.7154 8.69549 15.6668 8.6315 15.6303 8.58552C15.4946 8.41474 15.5886 8.53324 15.5606 8.50173C15.2854 8.19214 14.8113 8.16425 14.5017 8.43944C14.1934 8.71353 14.1645 9.18489 14.4362 9.49454L14.4369 9.49543C14.4398 9.49884 14.4466 9.50707 14.4557 9.51849C14.4739 9.54136 14.5034 9.5799 14.5406 9.63338C14.6152 9.74057 14.7195 9.9061 14.8251 10.1241C15.0365 10.56 15.25 11.1982 15.25 12H16.75Z" fill="black"/>
<path id="Vector 2.3 (Stroke)" d="M4.24999 12C4.24999 13.7683 4.80114 15.1485 5.35389 16.0862C5.62995 16.5545 5.90733 16.9143 6.11929 17.1603C6.22541 17.2835 6.3156 17.3787 6.38171 17.4453C6.60873 17.6741 6.43335 17.4995 6.50048 17.5595C6.80946 17.8353 7.28357 17.8085 7.55944 17.4995C7.8346 17.1913 7.80862 16.7189 7.5019 16.4427L7.49307 16.4344C7.48389 16.4258 7.46802 16.4105 7.4464 16.3887C7.40313 16.3451 7.33708 16.2757 7.2557 16.1812C7.09265 15.992 6.87003 15.7044 6.64609 15.3245C6.19885 14.5658 5.74999 13.446 5.74999 12H4.24999Z" fill="black"/>
<path id="Vector 2.3 (Stroke)_2" d="M19.75 12C19.75 13.7683 19.1989 15.1485 18.6461 16.0862C18.3701 16.5545 18.0927 16.9143 17.8807 17.1603C17.7746 17.2835 17.6844 17.3787 17.6183 17.4453C17.3913 17.6741 17.5667 17.4995 17.4995 17.5595C17.1905 17.8353 16.7164 17.8085 16.4406 17.4995C16.1654 17.1913 16.1914 16.7189 16.4981 16.4427L16.5069 16.4344C16.5161 16.4258 16.532 16.4105 16.5536 16.3887C16.5969 16.3451 16.6629 16.2757 16.7443 16.1812C16.9073 15.992 17.13 15.7044 17.3539 15.3245C17.8012 14.5658 18.25 13.446 18.25 12H19.75Z" fill="black"/>
<path id="Vector 2.3 (Stroke)_3" d="M4.24999 12C4.24999 10.2317 4.80114 8.85149 5.35389 7.91378C5.62995 7.44547 5.90733 7.08573 6.11929 6.83971C6.22541 6.71653 6.3156 6.62132 6.38171 6.5547C6.60873 6.32594 6.43335 6.50049 6.50048 6.44055C6.80946 6.16467 7.28357 6.19151 7.55944 6.50049C7.8346 6.80866 7.80862 7.28112 7.5019 7.5573L7.49307 7.56556C7.48389 7.57425 7.46802 7.58953 7.4464 7.61131C7.40313 7.65491 7.33708 7.72432 7.2557 7.81877C7.09265 8.00802 6.87003 8.2956 6.64609 8.6755C6.19885 9.43422 5.74999 10.554 5.74999 12H4.24999Z" fill="black"/>
<path id="Vector 2.3 (Stroke)_4" d="M19.75 12C19.75 10.2317 19.1989 8.85149 18.6461 7.91378C18.3701 7.44547 18.0927 7.08573 17.8807 6.83971C17.7746 6.71653 17.6844 6.62132 17.6183 6.5547C17.3913 6.32594 17.5667 6.50049 17.4995 6.44055C17.1905 6.16467 16.7164 6.19151 16.4406 6.50049C16.1654 6.80866 16.1914 7.28112 16.4981 7.5573L16.5069 7.56556C16.5161 7.57425 16.532 7.58953 16.5536 7.61131C16.5969 7.65491 16.6629 7.72432 16.7443 7.81877C16.9073 8.00802 17.13 8.2956 17.3539 8.6755C17.8012 9.43422 18.25 10.554 18.25 12H19.75Z" fill="black"/>
</g>
</g>
</g>
</g>
<defs>
<clipPath id="clip0_232_3748">
<rect width="24" height="24" rx="5" fill="white"/>
</clipPath>
<clipPath id="clip1_232_3748">
<rect width="24" height="24" fill="white"/>
</clipPath>
</defs>
</svg>
