<svg width="24" height="24" viewBox="0 0 24 24" fill="none" xmlns="http://www.w3.org/2000/svg">
<g id="antenna-signal">
<g clip-path="url(#clip0_232_3618)">
<g id="Weight=Dynamic">
<g id="Vector">
<path d="M12 13C12.5523 13 13 12.5523 13 12C13 11.4477 12.5523 11 12 11C11.4477 11 11 11.4477 11 12C11 12.5523 11.4477 13 12 13Z" fill="black"/>
</g>
<path id="Vector (Stroke)" fill-rule="evenodd" clip-rule="evenodd" d="M2.96967 4.46967C3.26256 4.17678 3.73744 4.17678 4.03033 4.46967C4.32322 4.76256 4.32322 5.23744 4.03033 5.53033L3.5 5C4.03033 5.53033 4.03012 5.53054 4.03033 5.53033L4.03115 5.52951L4.03227 5.52838C4.03232 5.52833 4.03225 5.52838 4.03115 5.52951L4.01747 5.54384C4.00432 5.55777 3.98274 5.58107 3.95392 5.6136C3.89624 5.67869 3.80973 5.78057 3.70384 5.91822C3.49189 6.19376 3.20361 6.61097 2.91369 7.16181C2.3345 8.26227 1.75 9.89311 1.75 12C1.75 14.1069 2.3345 15.7377 2.91369 16.8382C3.20361 17.389 3.49189 17.8062 3.70384 18.0818C3.80973 18.2194 3.89624 18.3213 3.95392 18.3864C3.98274 18.4189 4.00432 18.4422 4.01747 18.4562L4.03069 18.47C4.03159 18.4709 4.03211 18.4715 4.03224 18.4716L4.03069 18.47C4.32315 18.7629 4.32308 19.2376 4.03033 19.5303C3.73744 19.8232 3.26256 19.8232 2.96967 19.5303L3.49987 19.0001C2.96967 19.5303 2.96992 19.5306 2.96967 19.5303L2.96862 19.5293L2.96735 19.528L2.96411 19.5247L2.95497 19.5154C2.9477 19.5079 2.93812 19.4979 2.92638 19.4855C2.9029 19.4606 2.87077 19.4258 2.83124 19.3812C2.7522 19.292 2.6434 19.1634 2.51491 18.9963C2.25811 18.6625 1.92139 18.1735 1.58631 17.5368C0.915503 16.2623 0.25 14.3931 0.25 12C0.25 9.60689 0.915503 7.73773 1.58631 6.46319C1.92139 5.82653 2.25811 5.33749 2.51491 5.00365C2.6434 4.83662 2.7522 4.70802 2.83124 4.61882C2.87077 4.5742 2.9029 4.53939 2.92638 4.51451C2.93812 4.50207 2.9477 4.4921 2.95497 4.48462L2.96411 4.47527L2.96735 4.472L2.96862 4.47072L2.96967 4.46967C2.96992 4.46942 2.96967 4.46967 3.5 5L2.96967 4.46967ZM4.03224 18.4716C4.03225 18.4716 4.03227 18.4716 4.03224 18.4716V18.4716ZM19.9697 4.46967C20.2626 4.17678 20.7374 4.17678 21.0303 4.46967L20.5 5C21.0303 4.46967 21.0301 4.46942 21.0303 4.46967L21.0314 4.47072L21.0327 4.472L21.0359 4.47527L21.045 4.48462C21.0523 4.4921 21.0619 4.50207 21.0736 4.51451C21.0971 4.53939 21.1292 4.5742 21.1688 4.61882C21.2478 4.70802 21.3566 4.83662 21.4851 5.00365C21.7419 5.33749 22.0786 5.82653 22.4137 6.46319C23.0845 7.73773 23.75 9.60689 23.75 12C23.75 14.3931 23.0845 16.2623 22.4137 17.5368C22.0786 18.1735 21.7419 18.6625 21.4851 18.9963C21.3566 19.1634 21.2478 19.292 21.1688 19.3812C21.1292 19.4258 21.0971 19.4606 21.0736 19.4855C21.0619 19.4979 21.0523 19.5079 21.045 19.5154L21.0359 19.5247L21.0327 19.528L21.0314 19.5293C21.0311 19.5295 21.0303 19.5303 20.5 19L21.0303 19.5303C20.7374 19.8232 20.2626 19.8232 19.9697 19.5303C19.6769 19.2376 19.6768 18.763 19.9692 18.4701L19.9683 18.4711C19.9684 18.4709 19.9684 18.4709 19.9692 18.4701L19.9825 18.4562C19.9957 18.4422 20.0173 18.4189 20.0461 18.3864C20.1038 18.3213 20.1903 18.2194 20.2962 18.0818C20.5081 17.8062 20.7964 17.389 21.0863 16.8382C21.6655 15.7377 22.25 14.1069 22.25 12C22.25 9.89311 21.6655 8.26227 21.0863 7.16181C20.7964 6.61097 20.5081 6.19376 20.2962 5.91822C20.1903 5.78057 20.1038 5.67869 20.0461 5.6136C20.0173 5.58107 19.9957 5.55777 19.9825 5.54384L19.9693 5.53C19.9684 5.52911 19.9679 5.52859 19.9678 5.52843L19.9693 5.53C19.6769 5.23707 19.6769 4.76242 19.9697 4.46967ZM6.5 8C5.96967 7.46967 5.96945 7.46989 5.96922 7.47012L5.96767 7.47168L5.96511 7.47426L5.95838 7.48113L5.93869 7.50165C5.92289 7.51833 5.90184 7.54101 5.8763 7.56959C5.82526 7.6267 5.75611 7.70756 5.675 7.81121C5.51303 8.01816 5.30172 8.3181 5.09158 8.70336C4.67143 9.47364 4.25 10.5966 4.25 12C4.25 13.4034 4.67143 14.5264 5.09158 15.2966C5.30172 15.6819 5.51303 15.9818 5.675 16.1888C5.75611 16.2924 5.82526 16.3733 5.8763 16.4304C5.90184 16.459 5.92289 16.4817 5.93869 16.4984L5.95838 16.5189L5.96511 16.5257L5.96767 16.5283L5.96874 16.5294C5.96896 16.5296 5.96967 16.5303 6.5 16L5.96967 16.5303C6.26256 16.8232 6.73744 16.8232 7.03033 16.5303C7.32236 16.2383 7.32322 15.7654 7.03292 15.4723M7.0329 8.52774C7.32322 8.23465 7.32236 7.7617 7.03033 7.46967C6.73744 7.17678 6.26211 7.17723 5.96922 7.47012L6.5 8M16.9697 7.46967C17.2626 7.17678 17.7374 7.17678 18.0303 7.46967L17.5288 7.97115C18.0303 7.46968 18.0301 7.46945 18.0303 7.46967L18.0313 7.4706L18.0323 7.47168L18.0349 7.47426L18.0416 7.48113L18.0613 7.50165C18.0771 7.51833 18.0982 7.54101 18.1237 7.56959C18.1747 7.6267 18.2439 7.70756 18.325 7.81121C18.487 8.01816 18.6983 8.3181 18.9084 8.70336C19.3286 9.47364 19.75 10.5966 19.75 12C19.75 13.4034 19.3286 14.5264 18.9084 15.2966C18.6983 15.6819 18.487 15.9818 18.325 16.1888C18.2439 16.2924 18.1747 16.3733 18.1237 16.4304C18.0982 16.459 18.0771 16.4817 18.0613 16.4984L18.0416 16.5189L18.0349 16.5257L18.0323 16.5283L18.0313 16.5294C18.031 16.5296 18.0303 16.5303 17.5289 16.0289L18.0303 16.5303C17.7374 16.8232 17.2626 16.8232 16.9697 16.5303C16.6776 16.2383 16.6768 15.7654 16.9671 15.4723L16.9724 15.4667C16.9786 15.4602 16.9897 15.4482 17.0052 15.4309C17.0362 15.3962 17.0842 15.3404 17.1437 15.2643C17.263 15.1119 17.4267 14.8806 17.5916 14.5784C17.9214 13.9736 18.25 13.0966 18.25 12C18.25 10.9034 17.9214 10.0264 17.5916 9.42164C17.4267 9.1194 17.263 8.88809 17.1437 8.73567C17.0842 8.65963 17.0362 8.60377 17.0052 8.56908C16.9897 8.55176 16.9786 8.53978 16.9724 8.53326L16.9673 8.52793L16.9682 8.52887M16.9697 7.46967C16.6776 7.7617 16.677 8.23483 16.9673 8.52793L16.9697 7.46967ZM16.9673 8.52793C16.9668 8.52748 16.967 8.52768 16.9673 8.52793V8.52793ZM16.9673 8.52793C16.968 8.52866 16.9685 8.52919 16.9693 8.52991L16.9673 8.52793ZM16.9682 15.4712C16.9681 15.4712 16.9682 15.4711 16.9682 15.4712V15.4712ZM12 11.75C11.8619 11.75 11.75 11.8619 11.75 12C11.75 12.1381 11.8619 12.25 12 12.25C12.1381 12.25 12.25 12.1381 12.25 12C12.25 11.8619 12.1381 11.75 12 11.75ZM10.25 12C10.25 11.0335 11.0335 10.25 12 10.25C12.9665 10.25 13.75 11.0335 13.75 12C13.75 12.9665 12.9665 13.75 12 13.75C11.0335 13.75 10.25 12.9665 10.25 12Z" fill="black"/>
</g>
</g>
</g>
<defs>
<clipPath id="clip0_232_3618">
<rect width="24" height="24" rx="5" fill="white"/>
</clipPath>
</defs>
</svg>
