<svg width="24" height="24" viewBox="0 0 24 24" fill="none" xmlns="http://www.w3.org/2000/svg">
<g id="app-notification">
<g clip-path="url(#clip0_232_2982)">
<g id="Weight=Dynamic">
<path id="Vector (Stroke)" fill-rule="evenodd" clip-rule="evenodd" d="M19 2.75C17.7574 2.75 16.75 3.75736 16.75 5C16.75 6.24264 17.7574 7.25 19 7.25C20.2426 7.25 21.25 6.24264 21.25 5C21.25 3.75736 20.2426 2.75 19 2.75ZM15.25 5C15.25 2.92893 16.9289 1.25 19 1.25C21.0711 1.25 22.75 2.92893 22.75 5C22.75 7.07107 21.0711 8.75 19 8.75C16.9289 8.75 15.25 7.07107 15.25 5ZM9 3.75C6.10051 3.75 3.75 6.10051 3.75 9V15C3.75 17.8995 6.10051 20.25 9 20.25H15C17.8995 20.25 20.25 17.8995 20.25 15V12C20.25 11.5858 20.5858 11.25 21 11.25C21.4142 11.25 21.75 11.5858 21.75 12V15C21.75 18.7279 18.7279 21.75 15 21.75H9C5.27208 21.75 2.25 18.7279 2.25 15V9C2.25 5.27208 5.27208 2.25 9 2.25H12C12.4142 2.25 12.75 2.58579 12.75 3C12.75 3.41421 12.4142 3.75 12 3.75H9Z" fill="black"/>
</g>
</g>
</g>
<defs>
<clipPath id="clip0_232_2982">
<rect width="24" height="24" rx="5" fill="white"/>
</clipPath>
</defs>
</svg>
