<svg width="24" height="24" viewBox="0 0 24 24" fill="none" xmlns="http://www.w3.org/2000/svg">
<g id="app-store">
<g clip-path="url(#clip0_232_14203)">
<g id="Weight=Dynamic">
<path id="Vector (Stroke)" fill-rule="evenodd" clip-rule="evenodd" d="M1.25 12C1.25 6.06294 6.06294 1.25 12 1.25C17.9371 1.25 22.75 6.06294 22.75 12C22.75 17.9371 17.9371 22.75 12 22.75C6.06294 22.75 1.25 17.9371 1.25 12ZM12 2.75C6.89137 2.75 2.75 6.89137 2.75 12C2.75 17.1086 6.89137 21.25 12 21.25C17.1086 21.25 21.25 17.1086 21.25 12C21.25 6.89137 17.1086 2.75 12 2.75ZM10.0973 4.86725C10.4468 4.64487 10.9104 4.74789 11.1327 5.09734L12 6.46017L12.8673 5.09734C13.0896 4.74789 13.5532 4.64487 13.9027 4.86725C14.2521 5.08963 14.3551 5.5532 14.1327 5.90266L12.889 7.85714L16.3208 13.25H17.5C17.9142 13.25 18.25 13.5858 18.25 14C18.25 14.4142 17.9142 14.75 17.5 14.75H17.2753L18.1327 16.0973C18.3551 16.4468 18.2521 16.9104 17.9027 17.1327C17.5532 17.3551 17.0896 17.2521 16.8673 16.9027L12 9.25411L9.45716 13.25H13.5C13.9142 13.25 14.25 13.5858 14.25 14C14.25 14.4142 13.9142 14.75 13.5 14.75H8.50262L7.13275 16.9027C6.91037 17.2521 6.4468 17.3551 6.09734 17.1327C5.74789 16.9104 5.64487 16.4468 5.86725 16.0973L6.72465 14.75H6.5C6.08579 14.75 5.75 14.4142 5.75 14C5.75 13.5858 6.08579 13.25 6.5 13.25H7.6792L11.111 7.85714L9.86725 5.90266C9.64487 5.5532 9.74789 5.08963 10.0973 4.86725Z" fill="black"/>
</g>
</g>
</g>
<defs>
<clipPath id="clip0_232_14203">
<rect width="24" height="24" rx="5" fill="white"/>
</clipPath>
</defs>
</svg>
