<svg width="24" height="24" viewBox="0 0 24 24" fill="none" xmlns="http://www.w3.org/2000/svg">
<g id="apple-shortcuts">
<g clip-path="url(#clip0_232_14904)">
<g id="Weight=Dynamic">
<path id="Vector (Stroke)" fill-rule="evenodd" clip-rule="evenodd" d="M9.45017 2.73382C11.0061 1.74367 12.9946 1.74368 14.5505 2.73382L20.7515 6.6799C22.4496 7.76053 22.4496 10.2394 20.7515 11.32L19.683 12L20.7515 12.6799C22.4496 13.7605 22.4496 16.2394 20.7515 17.32L14.5505 21.2661C12.9945 22.2563 11.0061 22.2563 9.45017 21.2661L3.24918 17.32C1.55106 16.2394 1.55105 13.7605 3.24918 12.6799L4.31764 12L3.24918 11.32C1.55105 10.2394 1.55106 7.76052 3.24918 6.6799L9.45017 2.73382ZM5.71461 12.889L4.05449 13.9454C3.28262 14.4366 3.28262 15.5634 4.05449 16.0545L10.2555 20.0006C11.3201 20.6781 12.6806 20.6781 13.7452 20.0006L19.9462 16.0546C20.718 15.5634 20.718 14.4366 19.9462 13.9454L18.286 12.889L14.5505 15.2661C12.9945 16.2563 11.0061 16.2563 9.45017 15.2661L5.71461 12.889ZM13.7452 3.99931C12.6806 3.32184 11.3201 3.32184 10.2555 3.99931L4.0545 7.94539C3.28262 8.43659 3.28262 9.56336 4.05449 10.0545L10.2555 14.0006C11.3201 14.6781 12.6806 14.6781 13.7452 14.0006L19.9462 10.0546C20.718 9.56336 20.718 8.43659 19.9462 7.9454L13.7452 3.99931Z" fill="black"/>
</g>
</g>
</g>
<defs>
<clipPath id="clip0_232_14904">
<rect width="24" height="24" rx="5" fill="white"/>
</clipPath>
</defs>
</svg>
