<svg width="24" height="24" viewBox="0 0 24 24" fill="none" xmlns="http://www.w3.org/2000/svg">
<g id="apple">
<g clip-path="url(#clip0_232_7861)">
<g id="Weight=Dynamic">
<path id="Vector (Stroke)" fill-rule="evenodd" clip-rule="evenodd" d="M8.25 2C8.25 1.58579 8.58579 1.25 9 1.25C10.1166 1.25 11.1142 1.53084 11.8106 2.31423C12.2067 2.75989 12.4606 3.3193 12.6033 3.97191C14.872 3.17497 17.2614 2.79431 19.1922 3.69536C21.4729 4.75968 22.75 7.40673 22.75 12C22.75 16.626 21.4631 19.64 19.3435 21.3356C17.272 22.9929 14.579 23.2508 12 22.764C9.42103 23.2508 6.72802 22.9929 4.65648 21.3356C2.53688 19.64 1.25 16.626 1.25 12C1.25 7.47315 2.24208 4.79043 4.41459 3.70418C5.47023 3.17636 6.69729 3.0899 7.99222 3.23932C8.93831 3.34849 9.95731 3.58809 11.028 3.90598C10.9355 3.65019 10.8192 3.45677 10.6894 3.31077C10.3858 2.96916 9.88337 2.75 9 2.75C8.58579 2.75 8.25 2.41421 8.25 2ZM11.2513 5.54455C9.97417 5.13696 8.82866 4.84579 7.82028 4.72944C6.67771 4.5976 5.77977 4.69864 5.08541 5.04582C3.75792 5.70956 2.75 7.52685 2.75 12C2.75 16.374 3.96312 18.86 5.59352 20.1643C7.23257 21.4756 9.47627 21.7399 11.8529 21.2646L12 21.2351L12.1471 21.2646C14.5237 21.7399 16.7674 21.4756 18.4065 20.1643C20.0369 18.86 21.25 16.374 21.25 12C21.25 7.59327 20.0271 5.74031 18.5578 5.05463C17.0908 4.37001 15.0419 4.65973 12.7499 5.51418C12.7423 5.92185 12.4095 6.25 12 6.25C11.6007 6.25 11.2744 5.93802 11.2513 5.54455Z" fill="black"/>
</g>
</g>
</g>
<defs>
<clipPath id="clip0_232_7861">
<rect width="24" height="24" rx="5" fill="white"/>
</clipPath>
</defs>
</svg>
