<svg width="24" height="24" viewBox="0 0 24 24" fill="none" xmlns="http://www.w3.org/2000/svg">
<g id="apple-swift">
<g clip-path="url(#clip0_232_5495)">
<g id="Weight=Dynamic">
<path id="Vector (Stroke)" fill-rule="evenodd" clip-rule="evenodd" d="M13.1696 2.68949C13.625 2.19955 14.3679 2.10928 14.9303 2.46912L14.9313 2.46973C18.7505 4.92174 20.4728 7.57382 21.1468 9.87256C21.7258 11.8471 21.5115 13.4933 21.2803 14.4267C21.616 14.8787 22.0521 15.5521 22.3612 16.3481C22.752 17.3547 22.9697 18.6401 22.417 19.9238C22.2128 20.3993 21.761 20.7063 21.2602 20.7453L21.2538 20.7458L21.2508 20.746C21.2357 20.7471 21.1943 20.75 21.1507 20.75C20.6899 20.75 20.2516 20.5206 19.9946 20.1283C19.9905 20.1222 19.9844 20.1135 19.9743 20.0998C19.9568 20.0758 19.9287 20.0388 19.891 19.9932C19.8147 19.9009 19.7033 19.7788 19.5636 19.6586C19.273 19.4085 18.9298 19.2249 18.5646 19.2249C18.2744 19.2249 17.9841 19.3508 17.3643 19.6513L17.3597 19.6535C16.3922 20.1235 15.1023 20.75 12.9387 20.75C5.25377 20.75 1.62032 14.8614 1.44391 14.5695M13.1696 2.68949C12.7039 3.18908 12.685 3.94954 13.1221 4.47209L13.1264 4.47727C13.1255 4.47621 13.1262 4.47705 13.1283 4.47974C13.1702 4.53219 13.7742 5.2892 14.2738 6.44855C14.6781 7.38676 14.9972 8.54823 14.9282 9.79626C13.9223 9.04377 12.4921 7.93688 11.1526 6.89087C10.2179 6.16095 9.33523 5.46683 8.68616 4.95512C8.36166 4.6993 8.09561 4.48912 7.91073 4.34293L7.62264 4.11494C7.62259 4.1149 7.62235 4.11471 7.1565 4.70249L7.62264 4.11494C7.33779 3.88918 6.93177 3.89993 6.65955 4.14077C6.38732 4.3816 6.32697 4.78297 6.51632 5.09321L8.65423 8.59614L4.26796 5.76962C3.95793 5.56984 3.54867 5.62511 3.30275 5.89999C3.05683 6.17486 3.04726 6.58773 3.28018 6.8737L3.8617 6.40006C3.28018 6.8737 3.28012 6.87362 3.28018 6.8737L3.29563 6.89262L3.3394 6.94604C3.37775 6.99276 3.43413 7.06125 3.50683 7.14908C3.65223 7.32471 3.863 7.57773 4.12542 7.88842C4.65007 8.50958 5.38219 9.36249 6.21199 10.2893C7.47996 11.7054 9.00473 13.3268 10.3742 14.5519C8.78526 14.774 6.36253 14.5938 3.35976 12.7275C2.83181 12.3978 2.14011 12.4595 1.67997 12.8898C1.21735 13.3211 1.11151 14.0196 1.44391 14.5695M7.84381 9.85837C9.37978 11.5454 11.1199 13.3248 12.4479 14.3268C12.6678 14.4927 12.7791 14.7659 12.7377 15.0382C12.6963 15.3106 12.5089 15.5383 12.2496 15.6314C10.6305 16.2127 7.33957 16.7592 3.08119 14.3086C4.09525 15.6734 7.29161 19.25 12.9387 19.25C14.7573 19.25 15.7985 18.7442 16.704 18.3044L16.7095 18.3017C16.7349 18.2894 16.7611 18.2767 16.7869 18.2641C17.302 18.0136 17.8958 17.7249 18.5646 17.7249C19.4355 17.7249 20.116 18.155 20.5419 18.5215C20.7604 18.7096 20.9305 18.8964 21.0471 19.0374C21.073 19.0688 21.0965 19.0981 21.1175 19.125C21.3594 18.3953 21.2473 17.6237 20.9629 16.8911C20.6517 16.0896 20.1641 15.4177 19.8751 15.0624C19.7167 14.8676 19.6662 14.6065 19.7407 14.3667C19.9353 13.7404 20.2692 12.2107 19.7074 10.2946C19.1824 8.50398 17.8515 6.29448 14.7228 4.13278C14.992 4.54134 15.3397 5.13174 15.6514 5.85493C16.2513 7.24718 16.746 9.19957 16.2064 11.3106C16.1457 11.5481 15.9727 11.7409 15.7432 11.827C15.5136 11.9132 15.2565 11.8816 15.0545 11.7426C14.1951 11.151 12.0926 9.52816 10.2294 8.0731C10.1415 8.00449 10.0541 7.9362 9.96734 7.86835L11.6402 10.6093C11.8224 10.9078 11.7741 11.2925 11.5238 11.5368C11.2735 11.781 10.8877 11.8199 10.5937 11.6304L7.84381 9.85837ZM2.7272 13.7928C2.72708 13.7927 2.72732 13.793 2.7272 13.7928V13.7928Z" fill="black"/>
</g>
</g>
</g>
<defs>
<clipPath id="clip0_232_5495">
<rect width="24" height="24" rx="5" fill="white"/>
</clipPath>
</defs>
</svg>
