<svg width="24" height="24" viewBox="0 0 24 24" fill="none" xmlns="http://www.w3.org/2000/svg">
<g id="apple-half">
<g clip-path="url(#clip0_232_7869)">
<g id="Weight=Dynamic">
<path id="Vector (Stroke)" fill-rule="evenodd" clip-rule="evenodd" d="M8.25 2C8.25 1.58579 8.58579 1.25 9 1.25C10.1166 1.25 11.1142 1.53084 11.8106 2.31423C12.2067 2.75989 12.4606 3.31929 12.6033 3.9719C14.872 3.17497 17.2614 2.79431 19.1922 3.69535C21.4729 4.75967 22.75 7.40673 22.75 12C22.75 16.626 21.4631 19.64 19.3435 21.3356C17.272 22.9928 14.579 23.2508 12 22.764C9.42103 23.2508 6.72802 22.9928 4.65648 21.3356C2.53688 19.64 1.25 16.626 1.25 12C1.25 7.47314 2.24208 4.79042 4.41459 3.70417C5.47023 3.17635 6.69729 3.08989 7.99222 3.23932C8.93831 3.34848 9.95731 3.58808 11.028 3.90597C10.9355 3.65018 10.8192 3.45676 10.6894 3.31077C10.3858 2.96916 9.88337 2.75 9 2.75C8.58579 2.75 8.25 2.41421 8.25 2ZM11.2513 5.54454C9.97417 5.13695 8.82866 4.84578 7.82028 4.72943C6.67771 4.59759 5.77977 4.69863 5.08541 5.04581C3.75792 5.70955 2.75 7.52684 2.75 12C2.75 16.374 3.96312 18.86 5.59352 20.1643C7.23257 21.4756 9.47627 21.7399 11.8529 21.2646L12 21.2351L12.1471 21.2646C14.5237 21.7399 16.7674 21.4756 18.4065 20.1643C20.0369 18.86 21.25 16.374 21.25 12C21.25 7.59326 20.0271 5.7403 18.5578 5.05463C17.0908 4.37 15.0419 4.65972 12.7499 5.51417C12.7464 5.7007 12.6749 5.87058 12.559 6H12.75V21H11.25V6H11.441C11.3315 5.87764 11.2615 5.71911 11.2513 5.54454ZM15 11.25C15.4142 11.25 15.75 11.5858 15.75 12V14C15.75 14.4142 15.4142 14.75 15 14.75C14.5858 14.75 14.25 14.4142 14.25 14V12C14.25 11.5858 14.5858 11.25 15 11.25Z" fill="black"/>
</g>
</g>
</g>
<defs>
<clipPath id="clip0_232_7869">
<rect width="24" height="24" rx="5" fill="white"/>
</clipPath>
</defs>
</svg>
