<svg width="24" height="24" viewBox="0 0 24 24" fill="none" xmlns="http://www.w3.org/2000/svg">
<g id="apple-imac-2021-side">
<g clip-path="url(#clip0_232_5847)">
<g id="Weight=Dynamic">
<path id="Vector (Stroke)" fill-rule="evenodd" clip-rule="evenodd" d="M6.81068 1.27429C7.21148 1.16973 7.62116 1.40988 7.72571 1.81068L10.7247 13.3067L12.2236 18.8027C12.3326 19.2023 12.097 19.6146 11.6973 19.7236C11.2977 19.8326 10.8854 19.597 10.7764 19.1973L10.0536 16.5469L8.94695 21.25L14 21.25C14.4142 21.25 14.75 21.5858 14.75 22C14.75 22.4142 14.4142 22.75 14 22.75L6 22.75C5.58579 22.75 5.25 22.4142 5.25 22C5.25 21.5858 5.58579 21.25 6 21.25L7.40599 21.25L9.22733 13.5093L6.27429 2.18932C6.16973 1.78852 6.40988 1.37884 6.81068 1.27429ZM16.25 22C16.25 21.5858 16.5858 21.25 17 21.25H18C18.4142 21.25 18.75 21.5858 18.75 22C18.75 22.4142 18.4142 22.75 18 22.75H17C16.5858 22.75 16.25 22.4142 16.25 22Z" fill="black"/>
</g>
</g>
</g>
<defs>
<clipPath id="clip0_232_5847">
<rect width="24" height="24" rx="5" fill="white"/>
</clipPath>
</defs>
</svg>
