<svg width="24" height="24" viewBox="0 0 24 24" fill="none" xmlns="http://www.w3.org/2000/svg">
<g id="apple-mac">
<g clip-path="url(#clip0_232_14398)">
<g id="Weight=Dynamic">
<path id="Vector (Stroke)" fill-rule="evenodd" clip-rule="evenodd" d="M16.6353 1.24997L16.7398 1.87668C16.9732 3.27713 16.3438 4.45477 15.5849 5.31979C15.4349 5.49078 15.2769 5.65319 15.1147 5.80674C15.3964 5.77085 15.6924 5.74999 15.9999 5.74999C17.3274 5.74999 18.9044 6.45278 20.0633 7.77156L20.588 8.36856L19.9616 8.85775C16.8919 11.255 17.8501 15.0116 20.5259 15.9869L21.2302 16.2436L20.9738 16.9481C20.4202 18.469 19.6091 19.7694 18.6763 20.7016C17.7556 21.6218 16.6448 22.25 15.4999 22.25C14.5913 22.25 14.1001 22.0244 13.6828 21.8296L13.6701 21.8237C13.3435 21.6712 13.0838 21.55 12.5 21.55C11.9162 21.55 11.6565 21.6712 11.3298 21.8237L11.3172 21.8296C10.8999 22.0244 10.4087 22.25 9.5 22.25C7.87103 22.25 6.29884 20.9893 5.18477 19.2854C4.04207 17.5378 3.25 15.145 3.25 12.5C3.25 8.08578 6.58579 5.74999 9 5.74999C9.89576 5.74999 10.6934 5.92694 11.3257 6.13681C11.327 6.08197 11.3318 6.0265 11.3402 5.97062C11.4563 5.20029 11.733 4.04714 12.4187 3.06925C13.1304 2.05439 14.273 1.25004 16 1.24999L16.6353 1.24997ZM12.9348 5.61574C13.4432 5.28087 14.0064 4.84458 14.4573 4.33057C14.8775 3.85163 15.1634 3.35006 15.2559 2.82789C14.5072 2.99588 14.0057 3.4187 13.6468 3.93045C13.286 4.44507 13.0664 5.05932 12.9348 5.61574ZM9 7.24999C7.41421 7.24999 4.75 8.9142 4.75 12.5C4.75 14.855 5.45793 16.9622 6.44023 18.4646C7.45116 20.0107 8.62897 20.75 9.5 20.75C10.0838 20.75 10.3435 20.6288 10.6702 20.4763L10.6828 20.4704C11.1001 20.2756 11.5913 20.05 12.5 20.05C13.4087 20.05 13.8998 20.2756 14.3171 20.4704L14.3298 20.4763C14.6565 20.6288 14.9162 20.75 15.4999 20.75C16.0965 20.75 16.8483 20.4078 17.6159 19.6407C18.247 19.0099 18.8413 18.1359 19.3055 17.0802C16.2415 15.4356 15.4546 11.1347 18.3983 8.23623C17.5931 7.56324 16.6846 7.24999 15.9999 7.24999C15.2127 7.24999 14.5075 7.42551 13.9629 7.62454C13.0349 7.96371 11.9651 7.96373 11.0371 7.62455C10.4925 7.42552 9.78729 7.24999 9 7.24999Z" fill="black"/>
</g>
</g>
</g>
<defs>
<clipPath id="clip0_232_14398">
<rect width="24" height="24" rx="5" fill="white"/>
</clipPath>
</defs>
</svg>
