<svg width="24" height="24" viewBox="0 0 24 24" fill="none" xmlns="http://www.w3.org/2000/svg">
<g id="apple-wallet">
<g clip-path="url(#clip0_232_7103)">
<g id="Weight=Dynamic">
<path id="Vector (Stroke)" fill-rule="evenodd" clip-rule="evenodd" d="M2.25 5C2.25 3.48122 3.48122 2.25 5 2.25H19C20.5188 2.25 21.75 3.48122 21.75 5V19C21.75 20.5188 20.5188 21.75 19 21.75H5C3.48122 21.75 2.25 20.5188 2.25 19V5ZM5 3.75C4.30964 3.75 3.75 4.30964 3.75 5V6.25H20.25V5C20.25 4.30964 19.6904 3.75 19 3.75H5ZM20.25 7.75H3.75V10.25H20.25V7.75ZM20.25 11.75H3.75V14.25H9.4C10.1611 14.25 10.6319 14.8518 10.8247 15.2478C10.875 15.351 10.9581 15.4641 11.1094 15.5563C11.2623 15.6495 11.532 15.75 12 15.75C12.468 15.75 12.7377 15.6495 12.8906 15.5563C13.0419 15.4641 13.125 15.351 13.1753 15.2478C13.3681 14.8518 13.8389 14.25 14.6 14.25H20.25V11.75ZM20.25 15.75H14.6381C14.6372 15.7507 14.6363 15.7515 14.6353 15.7523C14.6207 15.7645 14.6013 15.7841 14.5803 15.812C14.5593 15.8398 14.5399 15.8715 14.5239 15.9045C14.3682 16.2242 14.1044 16.5731 13.6713 16.8371C13.2399 17.1001 12.6878 17.25 12 17.25C11.3122 17.25 10.7601 17.1001 10.3287 16.8371C9.89557 16.5731 9.6318 16.2242 9.47613 15.9045C9.46005 15.8715 9.44068 15.8398 9.41974 15.812C9.39867 15.7841 9.37932 15.7645 9.36468 15.7523C9.36369 15.7515 9.36275 15.7507 9.36185 15.75H3.75V19C3.75 19.6904 4.30964 20.25 5 20.25H19C19.6904 20.25 20.25 19.6904 20.25 19V15.75Z" fill="black"/>
</g>
</g>
</g>
<defs>
<clipPath id="clip0_232_7103">
<rect width="24" height="24" rx="5" fill="white"/>
</clipPath>
</defs>
</svg>
