<svg width="24" height="24" viewBox="0 0 24 24" fill="none" xmlns="http://www.w3.org/2000/svg">
<g id="arcade">
<g clip-path="url(#clip0_232_8141)">
<g id="Weight=Dynamic">
<path id="Vector (Stroke)" fill-rule="evenodd" clip-rule="evenodd" d="M8.25 5C8.25 2.92893 9.92893 1.25 12 1.25C14.0711 1.25 15.75 2.92893 15.75 5C15.75 6.30828 15.08 7.46008 14.0645 8.13104L14.4995 8.31228L21.9586 11.7028C22.4406 11.9219 22.75 12.4024 22.75 12.9318V17.112C22.75 17.6433 22.4384 18.1251 21.954 18.3431L13.1285 22.3146C12.4108 22.6376 11.5892 22.6376 10.8715 22.3146L2.04601 18.3431C1.56156 18.1251 1.25 17.6433 1.25 17.112V12.9318C1.25 12.4024 1.55942 11.9219 2.04137 11.7028L9.50052 8.31228L9.9355 8.13104C8.91995 7.46008 8.25 6.30828 8.25 5ZM10.25 9.625L10.0995 9.68771L2.81246 13L11.4827 16.941C11.8114 17.0904 12.1886 17.0904 12.5173 16.941L21.1875 13L13.9005 9.68771L13.75 9.625V13C13.75 13.9665 12.9665 14.75 12 14.75C11.0335 14.75 10.25 13.9665 10.25 13V9.625ZM12.25 8.7418V13C12.25 13.1381 12.1381 13.25 12 13.25C11.8619 13.25 11.75 13.1381 11.75 13V8.7418C11.8326 8.74724 11.916 8.75 12 8.75C12.084 8.75 12.1674 8.74724 12.25 8.7418ZM21.25 14.6193L13.138 18.3066C12.4149 18.6352 11.5851 18.6352 10.862 18.3066L2.75 14.6193V17.0151L11.487 20.9467C11.8133 21.0935 12.1867 21.0935 12.513 20.9467L21.25 17.0151V14.6193ZM21.3379 13.0684C21.3378 13.0683 21.338 13.0684 21.3379 13.0684V13.0684ZM2.66207 12.9316C2.66195 12.9316 2.66219 12.9317 2.66207 12.9316V12.9316ZM12 2.75C10.7574 2.75 9.75 3.75736 9.75 5C9.75 6.24264 10.7574 7.25 12 7.25C13.2426 7.25 14.25 6.24264 14.25 5C14.25 3.75736 13.2426 2.75 12 2.75ZM15.25 13C15.25 12.5858 15.5858 12.25 16 12.25H17C17.4142 12.25 17.75 12.5858 17.75 13C17.75 13.4142 17.4142 13.75 17 13.75H16C15.5858 13.75 15.25 13.4142 15.25 13Z" fill="black"/>
</g>
</g>
</g>
<defs>
<clipPath id="clip0_232_8141">
<rect width="24" height="24" rx="5" fill="white"/>
</clipPath>
</defs>
</svg>
