<svg width="24" height="24" viewBox="0 0 24 24" fill="none" xmlns="http://www.w3.org/2000/svg">
<g id="archery">
<g clip-path="url(#clip0_232_2111)">
<g id="Weight=Dynamic">
<path id="Vector (Stroke)" fill-rule="evenodd" clip-rule="evenodd" d="M11.763 11.25C11.8502 8.74199 12.3706 6.51696 13.1416 4.89783C14.0153 3.06308 15.0758 2.25 16 2.25C16.9243 2.25 17.9847 3.06308 18.8584 4.89783C19.7055 6.67665 20.25 9.18678 20.25 12C20.25 14.8132 19.7055 17.3234 18.8584 19.1022C17.9847 20.9369 16.9243 21.75 16 21.75C15.0758 21.75 14.0153 20.9369 13.1416 19.1022C12.3706 17.483 11.8502 15.258 11.763 12.75H15.1894L14.4697 13.4697C14.1768 13.7626 14.1768 14.2374 14.4697 14.5303C14.7626 14.8232 15.2375 14.8232 15.5304 14.5303L17.5304 12.5303C17.8232 12.2374 17.8232 11.7626 17.5304 11.4697L15.5304 9.46967C15.2375 9.17678 14.7626 9.17678 14.4697 9.46967C14.1768 9.76256 14.1768 10.2374 14.4697 10.5303L15.1894 11.25H11.763ZM10.2622 11.25H8.31068L6.53035 9.46967C6.3897 9.32902 6.19893 9.25 6.00002 9.25H2.00002C1.69668 9.25 1.4232 9.43273 1.30711 9.71299C1.19103 9.99324 1.25519 10.3158 1.46969 10.5303L2.93936 12L1.46969 13.4697C1.25519 13.6842 1.19103 14.0068 1.30711 14.287C1.4232 14.5673 1.69668 14.75 2.00002 14.75H6.00002C6.19893 14.75 6.3897 14.671 6.53035 14.5303L8.31068 12.75H10.2622C10.3497 15.4429 10.9059 17.8961 11.7873 19.7471C12.7233 21.7126 14.1629 23.25 16 23.25C17.8372 23.25 19.2767 21.7126 20.2127 19.7471C21.1753 17.7256 21.75 14.9858 21.75 12C21.75 9.01423 21.1753 6.27436 20.2127 4.25293C19.2767 2.28742 17.8372 0.75 16 0.75C14.1629 0.75 12.7233 2.28742 11.7873 4.25293C10.9059 6.10386 10.3497 8.55714 10.2622 11.25ZM6.93936 12L5.68936 10.75H3.81068L4.53035 11.4697C4.82325 11.7626 4.82325 12.2374 4.53035 12.5303L3.81068 13.25H5.68936L6.93936 12Z" fill="black"/>
</g>
</g>
</g>
<defs>
<clipPath id="clip0_232_2111">
<rect width="24" height="24" rx="5" fill="white"/>
</clipPath>
</defs>
</svg>
