<svg width="24" height="24" viewBox="0 0 24 24" fill="none" xmlns="http://www.w3.org/2000/svg">
<g id="archery-match">
<g clip-path="url(#clip0_232_8391)">
<g id="Weight=Dynamic">
<path id="Vector (Stroke)" fill-rule="evenodd" clip-rule="evenodd" d="M2.61825 3.86829C2.61825 3.45407 2.95404 3.11829 3.36825 3.11829H6.19668C6.61089 3.11829 6.94668 3.45407 6.94668 3.86829C6.94668 4.2825 6.61089 4.61829 6.19668 4.61829H5.17891L12 11.4394L18.8211 4.61829H17.8034C17.3892 4.61829 17.0534 4.2825 17.0534 3.86829C17.0534 3.45407 17.3892 3.11829 17.8034 3.11829H20.6318C21.046 3.11829 21.3818 3.45407 21.3818 3.86829V6.69671C21.3818 7.11093 21.046 7.44671 20.6318 7.44671C20.2176 7.44671 19.8818 7.11093 19.8818 6.69671V5.67895L13.0607 12.5001L15.6997 15.1391H18.2175C18.4164 15.1391 18.6072 15.2181 18.7478 15.3588L21.5763 18.1872C21.7908 18.4017 21.8549 18.7243 21.7388 19.0045C21.6227 19.2848 21.3493 19.4675 21.0459 19.4675H18.9675V21.546C18.9675 21.8493 18.7848 22.1228 18.5045 22.2389C18.2243 22.355 17.9017 22.2908 17.6872 22.0763L14.8587 19.2479C14.7181 19.1072 14.6391 18.9164 14.6391 18.7175V16.1998L12 13.5607L9.36098 16.1998V18.7175C9.36098 18.9164 9.28196 19.1072 9.14131 19.2479L6.31288 22.0763C6.09838 22.2908 5.77579 22.355 5.49554 22.2389C5.21528 22.1228 5.03255 21.8493 5.03255 21.546V19.4675H2.95412C2.65078 19.4675 2.3773 19.2848 2.26121 19.0045C2.14513 18.7243 2.20929 18.4017 2.42379 18.1872L5.25222 15.3588C5.39287 15.2181 5.58364 15.1391 5.78255 15.1391H8.30032L10.9394 12.5001L4.11825 5.67895V6.69671C4.11825 7.11093 3.78246 7.44671 3.36825 7.44671C2.95404 7.44671 2.61825 7.11093 2.61825 6.69671V3.86829ZM7.86098 16.6391H6.09321L4.76478 17.9675H5.78255C6.19676 17.9675 6.53255 18.3033 6.53255 18.7175V19.7353L7.86098 18.4069V16.6391ZM16.1391 16.6391V18.4069L17.4675 19.7353V18.7175C17.4675 18.3033 17.8033 17.9675 18.2175 17.9675H19.2353L17.9068 16.6391H16.1391Z" fill="black"/>
</g>
</g>
</g>
<defs>
<clipPath id="clip0_232_8391">
<rect width="24" height="24" rx="5" fill="white"/>
</clipPath>
</defs>
</svg>
