<svg width="24" height="24" viewBox="0 0 24 24" fill="none" xmlns="http://www.w3.org/2000/svg">
<g id="archive">
<g clip-path="url(#clip0_232_6155)">
<g id="Weight=Dynamic">
<path id="Vector (Stroke)" fill-rule="evenodd" clip-rule="evenodd" d="M3.75 2.75V11.25H20.25V2.75H3.75ZM21.75 11.2958V2.6C21.75 1.85442 21.1456 1.25 20.4 1.25H3.6C2.85441 1.25 2.25 1.85442 2.25 2.6V11.2958C1.67409 11.45 1.25 11.9755 1.25 12.6V21.4C1.25 22.1456 1.85442 22.75 2.6 22.75H21.4C22.1456 22.75 22.75 22.1456 22.75 21.4V12.6C22.75 11.9755 22.3259 11.45 21.75 11.2958ZM6.25 6C6.25 5.58579 6.58579 5.25 7 5.25H17C17.4142 5.25 17.75 5.58579 17.75 6C17.75 6.41421 17.4142 6.75 17 6.75H7C6.58579 6.75 6.25 6.41421 6.25 6ZM6.25 9C6.25 8.58579 6.58579 8.25 7 8.25H17C17.4142 8.25 17.75 8.58579 17.75 9C17.75 9.41421 17.4142 9.75 17 9.75H7C6.58579 9.75 6.25 9.41421 6.25 9ZM2.75 12.75V21.25H21.25V12.75H2.75ZM8.25 17C8.25 16.5858 8.58579 16.25 9 16.25H15C15.4142 16.25 15.75 16.5858 15.75 17C15.75 17.4142 15.4142 17.75 15 17.75H9C8.58579 17.75 8.25 17.4142 8.25 17Z" fill="black"/>
</g>
</g>
</g>
<defs>
<clipPath id="clip0_232_6155">
<rect width="24" height="24" rx="5" fill="white"/>
</clipPath>
</defs>
</svg>
