<svg width="24" height="24" viewBox="0 0 24 24" fill="none" xmlns="http://www.w3.org/2000/svg">
<g id="arrow-left-tag">
<g clip-path="url(#clip0_232_11303)">
<g id="Weight=Dynamic">
<path id="Vector (Stroke)" fill-rule="evenodd" clip-rule="evenodd" d="M6 5.75C4.20507 5.75 2.75 7.20507 2.75 9V15C2.75 16.7949 4.20507 18.25 6 18.25H18C19.7949 18.25 21.25 16.7949 21.25 15V9C21.25 7.20507 19.7949 5.75 18 5.75H6ZM1.25 9C1.25 6.37665 3.37665 4.25 6 4.25H18C20.6234 4.25 22.75 6.37665 22.75 9V15C22.75 17.6234 20.6234 19.75 18 19.75H6C3.37665 19.75 1.25 17.6234 1.25 15V9ZM10.0303 8.71967C10.3232 9.01256 10.3232 9.48744 10.0303 9.78033L8.56066 11.25H16.75V12.75H8.56066L10.0303 14.2197C10.3232 14.5126 10.3232 14.9874 10.0303 15.2803C9.73744 15.5732 9.26256 15.5732 8.96967 15.2803L6.21967 12.5303C5.92678 12.2374 5.92678 11.7626 6.21967 11.4697L8.96967 8.71967C9.26256 8.42678 9.73744 8.42678 10.0303 8.71967Z" fill="black"/>
</g>
</g>
</g>
<defs>
<clipPath id="clip0_232_11303">
<rect width="24" height="24" rx="5" fill="white"/>
</clipPath>
</defs>
</svg>
