<svg width="24" height="24" viewBox="0 0 24 24" fill="none" xmlns="http://www.w3.org/2000/svg">
<g id="arrow-down-right-circle">
<g clip-path="url(#clip0_232_10757)">
<g id="Weight=Dynamic">
<path id="Vector (Stroke)" fill-rule="evenodd" clip-rule="evenodd" d="M1.25 12C1.25 6.06294 6.06294 1.25 12 1.25C17.937 1.25 22.75 6.06293 22.75 12C22.75 17.937 17.937 22.75 12 22.75C6.06293 22.75 1.25 17.937 1.25 12ZM12 2.75C6.89136 2.75 2.75 6.89136 2.75 12C2.75 17.1086 6.89137 21.25 12 21.25C17.1086 21.25 21.25 17.1086 21.25 12C21.25 6.89137 17.1086 2.75 12 2.75ZM8.64057 8.64124C8.93346 8.34835 9.40834 8.34835 9.70123 8.64124L14.0777 13.0177V9.87867C14.0777 9.46446 14.4135 9.12867 14.8277 9.12867C15.2419 9.12867 15.5777 9.46446 15.5777 9.87867V14.8284C15.5777 15.2426 15.2419 15.5784 14.8277 15.5784H9.87801C9.46379 15.5784 9.12801 15.2426 9.12801 14.8284C9.12801 14.4142 9.46379 14.0784 9.87801 14.0784H13.0171L8.64057 9.7019C8.34768 9.40901 8.34768 8.93413 8.64057 8.64124Z" fill="black"/>
</g>
</g>
</g>
<defs>
<clipPath id="clip0_232_10757">
<rect width="24" height="24" rx="5" fill="white"/>
</clipPath>
</defs>
</svg>
