<svg width="24" height="24" viewBox="0 0 24 24" fill="none" xmlns="http://www.w3.org/2000/svg">
<g id="arrow-up-left-circle">
<g clip-path="url(#clip0_232_10735)">
<g id="Weight=Dynamic">
<path id="Vector (Stroke)" fill-rule="evenodd" clip-rule="evenodd" d="M1.25 12C1.25 6.06294 6.06294 1.25 12 1.25C17.937 1.25 22.75 6.06293 22.75 12C22.75 17.937 17.937 22.75 12 22.75C6.06293 22.75 1.25 17.937 1.25 12ZM12 2.75C6.89136 2.75 2.75 6.89136 2.75 12C2.75 17.1086 6.89137 21.25 12 21.25C17.1086 21.25 21.25 17.1086 21.25 12C21.25 6.89137 17.1086 2.75 12 2.75ZM8.42188 9.17151C8.42188 8.7573 8.75766 8.42151 9.17188 8.42151H14.1216C14.5359 8.42151 14.8716 8.7573 14.8716 9.17151C14.8716 9.58572 14.5359 9.92151 14.1216 9.92151H10.9825L15.3591 14.2981C15.652 14.591 15.652 15.0658 15.3591 15.3587C15.0662 15.6516 14.5913 15.6516 14.2984 15.3587L9.92188 10.9822V14.1213C9.92188 14.5355 9.58609 14.8713 9.17188 14.8713C8.75766 14.8713 8.42188 14.5355 8.42188 14.1213V9.17151Z" fill="black"/>
</g>
</g>
</g>
<defs>
<clipPath id="clip0_232_10735">
<rect width="24" height="24" rx="5" fill="white"/>
</clipPath>
</defs>
</svg>
