<svg width="24" height="24" viewBox="0 0 24 24" fill="none" xmlns="http://www.w3.org/2000/svg">
<g id="arrow-archery">
<g clip-path="url(#clip0_232_1830)">
<g id="Weight=Dynamic">
<path id="Vector (Stroke)" fill-rule="evenodd" clip-rule="evenodd" d="M17.0534 3.86829C17.0534 3.45407 17.3892 3.11829 17.8034 3.11829H20.6318C21.046 3.11829 21.3818 3.45407 21.3818 3.86829V6.69671C21.3818 7.11093 21.046 7.44671 20.6318 7.44671C20.2176 7.44671 19.8818 7.11093 19.8818 6.69671V5.67895L9.36098 16.1998V18.7175C9.36098 18.9164 9.28196 19.1072 9.14131 19.2479L6.31288 22.0763C6.09838 22.2908 5.77579 22.355 5.49554 22.2389C5.21528 22.1228 5.03255 21.8493 5.03255 21.546V19.4675H2.95412C2.65078 19.4675 2.3773 19.2848 2.26121 19.0045C2.14513 18.7243 2.20929 18.4017 2.42379 18.1872L5.25222 15.3588C5.39287 15.2181 5.58364 15.1391 5.78255 15.1391H8.30032L18.8211 4.61829H17.8034C17.3892 4.61829 17.0534 4.2825 17.0534 3.86829ZM7.86098 16.6391H6.09321L4.76478 17.9675H5.78255C6.19676 17.9675 6.53255 18.3033 6.53255 18.7175V19.7353L7.86098 18.4069V16.6391Z" fill="black"/>
</g>
</g>
</g>
<defs>
<clipPath id="clip0_232_1830">
<rect width="24" height="24" rx="5" fill="white"/>
</clipPath>
</defs>
</svg>
