<svg width="24" height="24" viewBox="0 0 24 24" fill="none" xmlns="http://www.w3.org/2000/svg">
<g id="arrow-reduce-tag">
<g clip-path="url(#clip0_232_11130)">
<g id="Weight=Dynamic">
<path id="Vector (Stroke)" fill-rule="evenodd" clip-rule="evenodd" d="M1.25 9C1.25 6.37665 3.37665 4.25 6 4.25H18C20.6234 4.25 22.75 6.37665 22.75 9V15C22.75 17.6234 20.6234 19.75 18 19.75H6C3.37665 19.75 1.25 17.6234 1.25 15V9ZM6 5.75C4.20507 5.75 2.75 7.20507 2.75 9V15C2.75 16.7949 4.20507 18.25 6 18.25H18C19.7949 18.25 21.25 16.7949 21.25 15V9C21.25 7.20507 19.7949 5.75 18 5.75H6ZM6.46967 8.96967C6.76256 8.67678 7.23744 8.67678 7.53033 8.96967L10.0303 11.4697C10.3232 11.7626 10.3232 12.2374 10.0303 12.5303L7.53033 15.0303C7.23744 15.3232 6.76256 15.3232 6.46967 15.0303C6.17678 14.7374 6.17678 14.2626 6.46967 13.9697L8.43934 12L6.46967 10.0303C6.17678 9.73744 6.17678 9.26256 6.46967 8.96967ZM17.0303 8.96967C17.3232 9.26256 17.3232 9.73744 17.0303 10.0303L15.0607 12L17.0303 13.9697C17.3232 14.2626 17.3232 14.7374 17.0303 15.0303C16.7374 15.3232 16.2626 15.3232 15.9697 15.0303L13.4697 12.5303C13.1768 12.2374 13.1768 11.7626 13.4697 11.4697L15.9697 8.96967C16.2626 8.67678 16.7374 8.67678 17.0303 8.96967Z" fill="black"/>
</g>
</g>
</g>
<defs>
<clipPath id="clip0_232_11130">
<rect width="24" height="24" rx="5" fill="white"/>
</clipPath>
</defs>
</svg>
