<svg width="24" height="24" viewBox="0 0 24 24" fill="none" xmlns="http://www.w3.org/2000/svg">
<g id="arrow-union-vertical">
<g clip-path="url(#clip0_232_11367)">
<g id="Weight=Dynamic">
<path id="Vector (Stroke)" fill-rule="evenodd" clip-rule="evenodd" d="M6.46967 3.46967C6.76256 3.17678 7.23744 3.17678 7.53033 3.46967L12 7.93934L16.4697 3.46967C16.7626 3.17678 17.2374 3.17678 17.5303 3.46967C17.8232 3.76256 17.8232 4.23744 17.5303 4.53033L12.5303 9.53033C12.2374 9.82322 11.7626 9.82322 11.4697 9.53033L6.46967 4.53033C6.17678 4.23744 6.17678 3.76256 6.46967 3.46967ZM6.46967 19.4697L11.4697 14.4697C11.7626 14.1768 12.2374 14.1768 12.5303 14.4697L17.5303 19.4697C17.8232 19.7626 17.8232 20.2374 17.5303 20.5303C17.2374 20.8232 16.7626 20.8232 16.4697 20.5303L12 16.0607L7.53033 20.5303C7.23744 20.8232 6.76256 20.8232 6.46967 20.5303C6.17678 20.2374 6.17678 19.7626 6.46967 19.4697Z" fill="black"/>
</g>
</g>
</g>
<defs>
<clipPath id="clip0_232_11367">
<rect width="24" height="24" rx="5" fill="white"/>
</clipPath>
</defs>
</svg>
