<svg width="24" height="24" viewBox="0 0 24 24" fill="none" xmlns="http://www.w3.org/2000/svg">
<g id="arrows-up-from-line">
<g clip-path="url(#clip0_232_13356)">
<g id="Weight=Dynamic">
<path id="Vector (Stroke)" fill-rule="evenodd" clip-rule="evenodd" d="M5.46967 3.46967C5.76256 3.17678 6.23744 3.17678 6.53033 3.46967L10.5303 7.46967C10.8232 7.76256 10.8232 8.23744 10.5303 8.53033C10.2374 8.82322 9.76256 8.82322 9.46967 8.53033L6.75 5.81066V17C6.75 17.4142 6.41421 17.75 6 17.75C5.58579 17.75 5.25 17.4142 5.25 17V5.81066L2.53033 8.53033C2.23744 8.82322 1.76256 8.82322 1.46967 8.53033C1.17678 8.23744 1.17678 7.76256 1.46967 7.46967L5.46967 3.46967ZM17.4697 3.46967C17.7626 3.17678 18.2374 3.17678 18.5303 3.46967L22.5303 7.46967C22.8232 7.76256 22.8232 8.23744 22.5303 8.53033C22.2374 8.82322 21.7626 8.82322 21.4697 8.53033L18.75 5.81066V17C18.75 17.4142 18.4142 17.75 18 17.75C17.5858 17.75 17.25 17.4142 17.25 17V5.81066L14.5303 8.53033C14.2374 8.82322 13.7626 8.82322 13.4697 8.53033C13.1768 8.23744 13.1768 7.76256 13.4697 7.46967L17.4697 3.46967ZM21 20.75L3 20.75C2.58579 20.75 2.25 20.4142 2.25 20C2.25 19.5858 2.58579 19.25 3 19.25L21 19.25C21.4142 19.25 21.75 19.5858 21.75 20C21.75 20.4142 21.4142 20.75 21 20.75Z" fill="black"/>
</g>
</g>
</g>
<defs>
<clipPath id="clip0_232_13356">
<rect width="24" height="24" rx="5" fill="white"/>
</clipPath>
</defs>
</svg>
