<svg width="24" height="24" viewBox="0 0 24 24" fill="none" xmlns="http://www.w3.org/2000/svg">
<g id="arrow-down-left-circle">
<g clip-path="url(#clip0_232_10724)">
<g id="Weight=Dynamic">
<path id="Vector (Stroke)" fill-rule="evenodd" clip-rule="evenodd" d="M1.25 12C1.25 6.06294 6.06294 1.25 12 1.25C17.937 1.25 22.75 6.06293 22.75 12C22.75 17.937 17.937 22.75 12 22.75C6.06293 22.75 1.25 17.937 1.25 12ZM12 2.75C6.89136 2.75 2.75 6.89136 2.75 12C2.75 17.1086 6.89137 21.25 12 21.25C17.1086 21.25 21.25 17.1086 21.25 12C21.25 6.89137 17.1086 2.75 12 2.75ZM15.3591 8.64124C15.652 8.93414 15.652 9.40901 15.3591 9.7019L10.9825 14.0784H14.1216C14.5359 14.0784 14.8716 14.4142 14.8716 14.8284C14.8716 15.2426 14.5359 15.5784 14.1216 15.5784H9.17188C8.75766 15.5784 8.42188 15.2426 8.42188 14.8284V9.87867C8.42188 9.46446 8.75766 9.12867 9.17188 9.12867C9.58609 9.12867 9.92188 9.46446 9.92188 9.87867V13.0177L14.2984 8.64124C14.5913 8.34835 15.0662 8.34835 15.3591 8.64124Z" fill="black"/>
</g>
</g>
</g>
<defs>
<clipPath id="clip0_232_10724">
<rect width="24" height="24" rx="5" fill="white"/>
</clipPath>
</defs>
</svg>
