<svg width="24" height="24" viewBox="0 0 24 24" fill="none" xmlns="http://www.w3.org/2000/svg">
<g id="arrow-email-forward">
<g clip-path="url(#clip0_232_3341)">
<g id="Weight=Dynamic">
<path id="Vector (Stroke)" fill-rule="evenodd" clip-rule="evenodd" d="M14.4697 2.46967C14.7626 2.17678 15.2374 2.17678 15.5303 2.46967L22.5303 9.46967C22.8232 9.76256 22.8232 10.2374 22.5303 10.5303L15.5303 17.5303C15.2374 17.8232 14.7626 17.8232 14.4697 17.5303C14.1768 17.2374 14.1768 16.7626 14.4697 16.4697L20.1893 10.75H8C6.18183 10.75 4.88314 11.3697 4.03843 12.2409C3.18517 13.1208 2.75 14.3034 2.75 15.5C2.75 16.6966 3.18517 17.8792 4.03843 18.7591C4.88314 19.6302 6.18183 20.25 8 20.25C8.41421 20.25 8.75 20.5858 8.75 21C8.75 21.4142 8.41421 21.75 8 21.75C5.81816 21.75 4.11686 20.9947 2.96157 19.8034C1.81483 18.6208 1.25 17.0534 1.25 15.5C1.25 13.9466 1.81483 12.3792 2.96157 11.1966C4.11686 10.0053 5.81816 9.25 8 9.25H20.1893L14.4697 3.53033C14.1768 3.23744 14.1768 2.76256 14.4697 2.46967Z" fill="black"/>
</g>
</g>
</g>
<defs>
<clipPath id="clip0_232_3341">
<rect width="24" height="24" rx="5" fill="white"/>
</clipPath>
</defs>
</svg>
