<svg width="24" height="24" viewBox="0 0 24 24" fill="none" xmlns="http://www.w3.org/2000/svg">
<g id="arrow-up-right-circle">
<g clip-path="url(#clip0_232_10746)">
<g id="Weight=Dynamic">
<path id="Vector (Stroke)" fill-rule="evenodd" clip-rule="evenodd" d="M1.25 12C1.25 6.06294 6.06294 1.25 12 1.25C17.937 1.25 22.75 6.06293 22.75 12C22.75 17.937 17.937 22.75 12 22.75C6.06293 22.75 1.25 17.937 1.25 12ZM12 2.75C6.89136 2.75 2.75 6.89136 2.75 12C2.75 17.1086 6.89137 21.25 12 21.25C17.1086 21.25 21.25 17.1086 21.25 12C21.25 6.89137 17.1086 2.75 12 2.75ZM9.12801 9.17151C9.12801 8.7573 9.46379 8.42151 9.87801 8.42151H14.8277C15.2419 8.42151 15.5777 8.7573 15.5777 9.17151V14.1213C15.5777 14.5355 15.2419 14.8713 14.8277 14.8713C14.4135 14.8713 14.0777 14.5355 14.0777 14.1213V10.9822L9.70123 15.3587C9.40834 15.6516 8.93347 15.6516 8.64057 15.3587C8.34768 15.0658 8.34767 14.591 8.64057 14.2981L13.0171 9.92151H9.87801C9.46379 9.92151 9.12801 9.58572 9.12801 9.17151Z" fill="black"/>
</g>
</g>
</g>
<defs>
<clipPath id="clip0_232_10746">
<rect width="24" height="24" rx="5" fill="white"/>
</clipPath>
</defs>
</svg>
