<svg width="24" height="24" viewBox="0 0 24 24" fill="none" xmlns="http://www.w3.org/2000/svg">
<g id="arrow-down-tag">
<g clip-path="url(#clip0_232_11158)">
<g id="Weight=Dynamic">
<path id="Vector (Stroke)" fill-rule="evenodd" clip-rule="evenodd" d="M1.25 9C1.25 6.37665 3.37665 4.25 6 4.25H18C20.6234 4.25 22.75 6.37665 22.75 9V15C22.75 17.6234 20.6234 19.75 18 19.75H6C3.37665 19.75 1.25 17.6234 1.25 15V9ZM6 5.75C4.20507 5.75 2.75 7.20507 2.75 9V15C2.75 16.7949 4.20507 18.25 6 18.25H18C19.7949 18.25 21.25 16.7949 21.25 15V9C21.25 7.20507 19.7949 5.75 18 5.75H6ZM8.96967 10.2197C9.26256 9.92678 9.73744 9.92678 10.0303 10.2197L12 12.1893L13.9697 10.2197C14.2626 9.92678 14.7374 9.92678 15.0303 10.2197C15.3232 10.5126 15.3232 10.9874 15.0303 11.2803L12.5303 13.7803C12.2374 14.0732 11.7626 14.0732 11.4697 13.7803L8.96967 11.2803C8.67678 10.9874 8.67678 10.5126 8.96967 10.2197Z" fill="black"/>
</g>
</g>
</g>
<defs>
<clipPath id="clip0_232_11158">
<rect width="24" height="24" rx="5" fill="white"/>
</clipPath>
</defs>
</svg>
