<svg width="24" height="24" viewBox="0 0 24 24" fill="none" xmlns="http://www.w3.org/2000/svg">
<g id="arrow-right-tag">
<g clip-path="url(#clip0_232_11295)">
<g id="Weight=Dynamic">
<path id="Vector (Stroke)" fill-rule="evenodd" clip-rule="evenodd" d="M6 5.75C4.20507 5.75 2.75 7.20507 2.75 9V15C2.75 16.7949 4.20507 18.25 6 18.25H18C19.7949 18.25 21.25 16.7949 21.25 15V9C21.25 7.20507 19.7949 5.75 18 5.75H6ZM1.25 9C1.25 6.37665 3.37665 4.25 6 4.25H18C20.6234 4.25 22.75 6.37665 22.75 9V15C22.75 17.6234 20.6234 19.75 18 19.75H6C3.37665 19.75 1.25 17.6234 1.25 15V9ZM13.4697 8.71967C13.7626 8.42678 14.2374 8.42678 14.5303 8.71967L17.2803 11.4697C17.5732 11.7626 17.5732 12.2374 17.2803 12.5303L14.5303 15.2803C14.2374 15.5732 13.7626 15.5732 13.4697 15.2803C13.1768 14.9874 13.1768 14.5126 13.4697 14.2197L14.9393 12.75H6.75V11.25H14.9393L13.4697 9.78033C13.1768 9.48744 13.1768 9.01256 13.4697 8.71967Z" fill="black"/>
</g>
</g>
</g>
<defs>
<clipPath id="clip0_232_11295">
<rect width="24" height="24" rx="5" fill="white"/>
</clipPath>
</defs>
</svg>
