<svg width="24" height="24" viewBox="0 0 24 24" fill="none" xmlns="http://www.w3.org/2000/svg">
<g id="arrow-down-left-square">
<g clip-path="url(#clip0_232_10801)">
<g id="Weight=Dynamic">
<path id="Vector (Stroke)" fill-rule="evenodd" clip-rule="evenodd" d="M3.75 3.75V20.25H20.25V3.75H3.75ZM2.25 3.6C2.25 2.85442 2.85442 2.25 3.6 2.25H20.4C21.1456 2.25 21.75 2.85444 21.75 3.6V20.4C21.75 21.1456 21.1456 21.75 20.4 21.75H3.6C2.85444 21.75 2.25 21.1456 2.25 20.4V3.6ZM15.3591 8.64124C15.652 8.93414 15.652 9.40901 15.3591 9.7019L10.9825 14.0784H14.1216C14.5359 14.0784 14.8716 14.4142 14.8716 14.8284C14.8716 15.2426 14.5359 15.5784 14.1216 15.5784H9.17188C8.75766 15.5784 8.42188 15.2426 8.42188 14.8284V9.87867C8.42188 9.46446 8.75766 9.12867 9.17188 9.12867C9.58609 9.12867 9.92188 9.46446 9.92188 9.87867V13.0177L14.2984 8.64124C14.5913 8.34835 15.0662 8.34835 15.3591 8.64124Z" fill="black"/>
</g>
</g>
</g>
<defs>
<clipPath id="clip0_232_10801">
<rect width="24" height="24" rx="5" fill="white"/>
</clipPath>
</defs>
</svg>
