<svg width="24" height="24" viewBox="0 0 24 24" fill="none" xmlns="http://www.w3.org/2000/svg">
<g id="arrow-up-right-square">
<g clip-path="url(#clip0_232_10779)">
<g id="Weight=Dynamic">
<path id="Vector (Stroke)" fill-rule="evenodd" clip-rule="evenodd" d="M3.75 3.75V20.25H20.25V3.75H3.75ZM2.25 3.6C2.25 2.85442 2.85442 2.25 3.6 2.25H20.4C21.1456 2.25 21.75 2.85444 21.75 3.6V20.4C21.75 21.1456 21.1456 21.75 20.4 21.75H3.6C2.85444 21.75 2.25 21.1456 2.25 20.4V3.6ZM9.12801 9.17151C9.12801 8.7573 9.4638 8.42151 9.87801 8.42151H14.8277C15.2419 8.42151 15.5777 8.7573 15.5777 9.17151V14.1213C15.5777 14.5355 15.2419 14.8713 14.8277 14.8713C14.4135 14.8713 14.0777 14.5355 14.0777 14.1213V10.9822L9.70123 15.3587C9.40834 15.6516 8.93347 15.6516 8.64057 15.3587C8.34768 15.0658 8.34767 14.591 8.64057 14.2981L13.0171 9.92151H9.87801C9.4638 9.92151 9.12801 9.58572 9.12801 9.17151Z" fill="black"/>
</g>
</g>
</g>
<defs>
<clipPath id="clip0_232_10779">
<rect width="24" height="24" rx="5" fill="white"/>
</clipPath>
</defs>
</svg>
