<svg width="24" height="24" viewBox="0 0 24 24" fill="none" xmlns="http://www.w3.org/2000/svg">
<g id="arrow-up-tag">
<g clip-path="url(#clip0_232_11150)">
<g id="Weight=Dynamic">
<path id="Vector (Stroke)" fill-rule="evenodd" clip-rule="evenodd" d="M1.25 9C1.25 6.37665 3.37665 4.25 6 4.25H18C20.6234 4.25 22.75 6.37665 22.75 9V15C22.75 17.6234 20.6234 19.75 18 19.75H6C3.37665 19.75 1.25 17.6234 1.25 15V9ZM6 5.75C4.20507 5.75 2.75 7.20507 2.75 9V15C2.75 16.7949 4.20507 18.25 6 18.25H18C19.7949 18.25 21.25 16.7949 21.25 15V9C21.25 7.20507 19.7949 5.75 18 5.75H6ZM11.4697 10.2197C11.7626 9.92678 12.2374 9.92678 12.5303 10.2197L15.0303 12.7197C15.3232 13.0126 15.3232 13.4874 15.0303 13.7803C14.7374 14.0732 14.2626 14.0732 13.9697 13.7803L12 11.8107L10.0303 13.7803C9.73744 14.0732 9.26256 14.0732 8.96967 13.7803C8.67678 13.4874 8.67678 13.0126 8.96967 12.7197L11.4697 10.2197Z" fill="black"/>
</g>
</g>
</g>
<defs>
<clipPath id="clip0_232_11150">
<rect width="24" height="24" rx="5" fill="white"/>
</clipPath>
</defs>
</svg>
