<svg width="24" height="24" viewBox="0 0 24 24" fill="none" xmlns="http://www.w3.org/2000/svg">
<g id="arrow-enlarge-tag">
<g clip-path="url(#clip0_232_11140)">
<g id="Weight=Dynamic">
<path id="Vector (Stroke)" fill-rule="evenodd" clip-rule="evenodd" d="M6 5.75C4.20507 5.75 2.75 7.20507 2.75 9V15C2.75 16.7949 4.20507 18.25 6 18.25H18C19.7949 18.25 21.25 16.7949 21.25 15V9C21.25 7.20507 19.7949 5.75 18 5.75H6ZM1.25 9C1.25 6.37665 3.37665 4.25 6 4.25H18C20.6234 4.25 22.75 6.37665 22.75 9V15C22.75 17.6234 20.6234 19.75 18 19.75H6C3.37665 19.75 1.25 17.6234 1.25 15V9ZM9.03033 8.96967C9.32322 9.26256 9.32322 9.73744 9.03033 10.0303L7.06066 12L9.03033 13.9697C9.32322 14.2626 9.32322 14.7374 9.03033 15.0303C8.73744 15.3232 8.26256 15.3232 7.96967 15.0303L5.46967 12.5303C5.17678 12.2374 5.17678 11.7626 5.46967 11.4697L7.96967 8.96967C8.26256 8.67678 8.73744 8.67678 9.03033 8.96967ZM14.9697 8.96967C15.2626 8.67678 15.7374 8.67678 16.0303 8.96967L18.5303 11.4697C18.8232 11.7626 18.8232 12.2374 18.5303 12.5303L16.0303 15.0303C15.7374 15.3232 15.2626 15.3232 14.9697 15.0303C14.6768 14.7374 14.6768 14.2626 14.9697 13.9697L16.9393 12L14.9697 10.0303C14.6768 9.73744 14.6768 9.26256 14.9697 8.96967Z" fill="black"/>
</g>
</g>
</g>
<defs>
<clipPath id="clip0_232_11140">
<rect width="24" height="24" rx="5" fill="white"/>
</clipPath>
</defs>
</svg>
