<svg width="24" height="24" viewBox="0 0 24 24" fill="none" xmlns="http://www.w3.org/2000/svg">
<g id="arrow-up-circle">
<g clip-path="url(#clip0_232_10831)">
<g id="Weight=Dynamic">
<path id="Vector (Stroke)" fill-rule="evenodd" clip-rule="evenodd" d="M12 2.75C6.89137 2.75 2.75 6.89137 2.75 12C2.75 17.1086 6.89137 21.25 12 21.25C17.1086 21.25 21.25 17.1086 21.25 12C21.25 6.89137 17.1086 2.75 12 2.75ZM1.25 12C1.25 6.06294 6.06294 1.25 12 1.25C17.9371 1.25 22.75 6.06294 22.75 12C22.75 17.9371 17.9371 22.75 12 22.75C6.06294 22.75 1.25 17.9371 1.25 12ZM7.96967 10.9697L11.4697 7.46967C11.7626 7.17678 12.2374 7.17678 12.5303 7.46967L16.0303 10.9697C16.3232 11.2626 16.3232 11.7374 16.0303 12.0303C15.7374 12.3232 15.2626 12.3232 14.9697 12.0303L12.75 9.81066V16C12.75 16.4142 12.4142 16.75 12 16.75C11.5858 16.75 11.25 16.4142 11.25 16V9.81066L9.03033 12.0303C8.73744 12.3232 8.26256 12.3232 7.96967 12.0303C7.67678 11.7374 7.67678 11.2626 7.96967 10.9697Z" fill="black"/>
</g>
</g>
</g>
<defs>
<clipPath id="clip0_232_10831">
<rect width="24" height="24" rx="5" fill="white"/>
</clipPath>
</defs>
</svg>
