<svg width="24" height="24" viewBox="0 0 24 24" fill="none" xmlns="http://www.w3.org/2000/svg">
<g id="arrow-union">
<g clip-path="url(#clip0_232_11351)">
<g id="Weight=Dynamic">
<path id="Vector (Stroke)" fill-rule="evenodd" clip-rule="evenodd" d="M3.46967 6.46967C3.76256 6.17678 4.23744 6.17678 4.53033 6.46967L9.53033 11.4697C9.82322 11.7626 9.82322 12.2374 9.53033 12.5303L4.53033 17.5303C4.23744 17.8232 3.76256 17.8232 3.46967 17.5303C3.17678 17.2374 3.17678 16.7626 3.46967 16.4697L7.93934 12L3.46967 7.53033C3.17678 7.23744 3.17678 6.76256 3.46967 6.46967ZM20.5303 6.46967C20.8232 6.76256 20.8232 7.23744 20.5303 7.53033L16.0607 12L20.5303 16.4697C20.8232 16.7626 20.8232 17.2374 20.5303 17.5303C20.2374 17.8232 19.7626 17.8232 19.4697 17.5303L14.4697 12.5303C14.1768 12.2374 14.1768 11.7626 14.4697 11.4697L19.4697 6.46967C19.7626 6.17678 20.2374 6.17678 20.5303 6.46967Z" fill="black"/>
</g>
</g>
</g>
<defs>
<clipPath id="clip0_232_11351">
<rect width="24" height="24" rx="5" fill="white"/>
</clipPath>
</defs>
</svg>
