<svg width="24" height="24" viewBox="0 0 24 24" fill="none" xmlns="http://www.w3.org/2000/svg">
<g id="arrow-down-right-square">
<g clip-path="url(#clip0_232_10768)">
<g id="Weight=Dynamic">
<path id="Vector (Stroke)" fill-rule="evenodd" clip-rule="evenodd" d="M3.75 3.75V20.25H20.25V3.75H3.75ZM2.25 3.6C2.25 2.85442 2.85442 2.25 3.6 2.25H20.4C21.1456 2.25 21.75 2.85444 21.75 3.6V20.4C21.75 21.1456 21.1456 21.75 20.4 21.75H3.6C2.85444 21.75 2.25 21.1456 2.25 20.4V3.6ZM8.64057 8.64124C8.93346 8.34835 9.40834 8.34835 9.70123 8.64124L14.0777 13.0177V9.87867C14.0777 9.46446 14.4135 9.12867 14.8277 9.12867C15.2419 9.12867 15.5777 9.46446 15.5777 9.87867V14.8284C15.5777 15.2426 15.2419 15.5784 14.8277 15.5784H9.87801C9.4638 15.5784 9.12801 15.2426 9.12801 14.8284C9.12801 14.4142 9.4638 14.0784 9.87801 14.0784H13.0171L8.64057 9.7019C8.34768 9.40901 8.34768 8.93413 8.64057 8.64124Z" fill="black"/>
</g>
</g>
</g>
<defs>
<clipPath id="clip0_232_10768">
<rect width="24" height="24" rx="5" fill="white"/>
</clipPath>
</defs>
</svg>
