<svg width="24" height="24" viewBox="0 0 24 24" fill="none" xmlns="http://www.w3.org/2000/svg">
<g id="asana">
<g clip-path="url(#clip0_232_5589)">
<g id="Weight=Dynamic">
<path id="Vector (Stroke)" fill-rule="evenodd" clip-rule="evenodd" d="M12 4.25C10.2051 4.25 8.75 5.70507 8.75 7.5C8.75 9.29493 10.2051 10.75 12 10.75C13.7949 10.75 15.25 9.29493 15.25 7.5C15.25 5.70507 13.7949 4.25 12 4.25ZM7.25 7.5C7.25 4.87665 9.37665 2.75 12 2.75C14.6234 2.75 16.75 4.87665 16.75 7.5C16.75 10.1234 14.6234 12.25 12 12.25C9.37665 12.25 7.25 10.1234 7.25 7.5ZM7 13.25C5.20507 13.25 3.75 14.7051 3.75 16.5C3.75 18.2949 5.20507 19.75 7 19.75C8.79493 19.75 10.25 18.2949 10.25 16.5C10.25 14.7051 8.79493 13.25 7 13.25ZM2.25 16.5C2.25 13.8766 4.37665 11.75 7 11.75C9.62335 11.75 11.75 13.8766 11.75 16.5C11.75 19.1234 9.62335 21.25 7 21.25C4.37665 21.25 2.25 19.1234 2.25 16.5ZM17 13.25C15.2051 13.25 13.75 14.7051 13.75 16.5C13.75 18.2949 15.2051 19.75 17 19.75C18.7949 19.75 20.25 18.2949 20.25 16.5C20.25 14.7051 18.7949 13.25 17 13.25ZM12.25 16.5C12.25 13.8766 14.3766 11.75 17 11.75C19.6234 11.75 21.75 13.8766 21.75 16.5C21.75 19.1234 19.6234 21.25 17 21.25C14.3766 21.25 12.25 19.1234 12.25 16.5Z" fill="black"/>
</g>
</g>
</g>
<defs>
<clipPath id="clip0_232_5589">
<rect width="24" height="24" rx="5" fill="white"/>
</clipPath>
</defs>
</svg>
