<svg width="24" height="24" viewBox="0 0 24 24" fill="none" xmlns="http://www.w3.org/2000/svg">
<g id="asterisk">
<g clip-path="url(#clip0_232_15589)">
<g id="Weight=Dynamic">
<path id="Vector (Stroke)" fill-rule="evenodd" clip-rule="evenodd" d="M12.0001 1.25C12.4143 1.25 12.7501 1.58579 12.7501 2V11.0741L20.1849 6.60619C20.5399 6.39283 21.0007 6.50769 21.214 6.86272C21.4274 7.21776 21.3126 7.67853 20.9575 7.89189L13.4562 12.3998L20.9577 16.9071C21.3127 17.1204 21.4276 17.5812 21.2143 17.9363C21.0009 18.2913 20.5402 18.4062 20.1851 18.1929L12.7501 13.7255V22C12.7501 22.4142 12.4143 22.75 12.0001 22.75C11.5859 22.75 11.2501 22.4142 11.2501 22V13.7254L3.81408 18.1927C3.45902 18.406 2.99826 18.2911 2.78495 17.936C2.57163 17.581 2.68655 17.1202 3.04161 16.9069L10.5438 12.3998L3.04178 7.8921C2.68673 7.67877 2.57184 7.218 2.78518 6.86295C2.99852 6.5079 3.45928 6.39302 3.81433 6.60635L11.2501 11.0742V2C11.2501 1.58579 11.5859 1.25 12.0001 1.25Z" fill="black"/>
</g>
</g>
</g>
<defs>
<clipPath id="clip0_232_15589">
<rect width="24" height="24" rx="5" fill="white"/>
</clipPath>
</defs>
</svg>
