<svg width="24" height="24" viewBox="0 0 24 24" fill="none" xmlns="http://www.w3.org/2000/svg">
<g id="at-sign-circle">
<g clip-path="url(#clip0_232_3377)">
<g id="Weight=Dynamic">
<path id="Vector (Stroke)" fill-rule="evenodd" clip-rule="evenodd" d="M1.25 12C1.25 6.06294 6.06294 1.25 12 1.25C17.9371 1.25 22.75 6.06294 22.75 12C22.75 17.9371 17.9371 22.75 12 22.75C6.06294 22.75 1.25 17.9371 1.25 12ZM12 2.75C6.89137 2.75 2.75 6.89137 2.75 12C2.75 17.1086 6.89137 21.25 12 21.25C17.1086 21.25 21.25 17.1086 21.25 12C21.25 6.89137 17.1086 2.75 12 2.75ZM4.25 12C4.25 7.71979 7.71979 4.25 12 4.25C16.2802 4.25 19.75 7.71979 19.75 12C19.75 13.2189 19.3907 14.181 18.7694 14.8529C18.1514 15.5213 17.3321 15.8388 16.5333 15.8743C15.5631 15.9174 14.5026 15.5229 13.8568 14.7379C13.2646 15.3613 12.4277 15.75 11.5 15.75C9.70507 15.75 8.25 14.2949 8.25 12.5V11.5C8.25 9.70507 9.70507 8.25 11.5 8.25C12.1443 8.25 12.7449 8.4375 13.25 8.76091V8.5C13.25 8.08579 13.5858 7.75 14 7.75C14.4142 7.75 14.75 8.08579 14.75 8.5V13C14.75 13.7995 15.4962 14.4189 16.4667 14.3757C16.9178 14.3557 17.3486 14.1801 17.6681 13.8346C17.9843 13.4926 18.25 12.92 18.25 12C18.25 8.54822 15.4518 5.75 12 5.75C8.54822 5.75 5.75 8.54822 5.75 12C5.75 15.4518 8.54822 18.25 12 18.25C13.4392 18.25 14.7628 17.7645 15.819 16.9479C16.1467 16.6945 16.6178 16.7548 16.8711 17.0825C17.1245 17.4102 17.0642 17.8812 16.7365 18.1346C15.4268 19.1471 13.7828 19.75 12 19.75C7.71979 19.75 4.25 16.2802 4.25 12ZM13.25 11.5C13.25 10.5335 12.4665 9.75 11.5 9.75C10.5335 9.75 9.75 10.5335 9.75 11.5V12.5C9.75 13.4665 10.5335 14.25 11.5 14.25C12.4665 14.25 13.25 13.4665 13.25 12.5V11.5Z" fill="black"/>
</g>
</g>
</g>
<defs>
<clipPath id="clip0_232_3377">
<rect width="24" height="24" rx="5" fill="white"/>
</clipPath>
</defs>
</svg>
