<svg width="24" height="24" viewBox="0 0 24 24" fill="none" xmlns="http://www.w3.org/2000/svg">
<g id="at-sign">
<g clip-path="url(#clip0_232_3367)">
<g id="Weight=Dynamic">
<path id="Vector (Stroke)" fill-rule="evenodd" clip-rule="evenodd" d="M2.25 12C2.25 6.61522 6.61522 2.25 12 2.25C17.3848 2.25 21.75 6.61522 21.75 12C21.75 15.0647 20.0339 16.7964 18.1233 17.1148C17.2 17.2687 16.2421 17.0827 15.4984 16.5455C15.194 16.3256 14.9334 16.0523 14.7303 15.7325C14.0245 16.3733 13.0298 16.75 12 16.75C10.0628 16.75 8.25 15.4172 8.25 13.5V10.5C8.25 8.58285 10.0628 7.25 12 7.25C12.8162 7.25 13.6104 7.48661 14.2561 7.90385C14.3033 7.53504 14.6184 7.25 15 7.25C15.4142 7.25 15.75 7.58579 15.75 8V14C15.75 14.6389 16.0132 15.067 16.3766 15.3295C16.7579 15.6048 17.3 15.7313 17.8767 15.6352C18.9661 15.4536 20.25 14.4353 20.25 12C20.25 7.44365 16.5563 3.75 12 3.75C7.44365 3.75 3.75 7.44365 3.75 12C3.75 16.5563 7.44365 20.25 12 20.25C13.8994 20.25 15.647 19.609 17.0413 18.5311C17.369 18.2778 17.84 18.338 18.0933 18.6657C18.3467 18.9934 18.2864 19.4645 17.9587 19.7178C16.3111 20.9917 14.243 21.75 12 21.75C6.61522 21.75 2.25 17.3848 2.25 12ZM14.25 13.5V10.5C14.25 9.65573 13.3765 8.75 12 8.75C10.6235 8.75 9.75 9.65573 9.75 10.5V13.5C9.75 14.3443 10.6235 15.25 12 15.25C13.3765 15.25 14.25 14.3443 14.25 13.5Z" fill="black"/>
</g>
</g>
</g>
<defs>
<clipPath id="clip0_232_3367">
<rect width="24" height="24" rx="5" fill="white"/>
</clipPath>
</defs>
</svg>
