<svg width="24" height="24" viewBox="0 0 24 24" fill="none" xmlns="http://www.w3.org/2000/svg">
<g id="atom">
<g clip-path="url(#clip0_232_13566)">
<g id="Weight=Dynamic">
<path id="Vector (Stroke)" fill-rule="evenodd" clip-rule="evenodd" d="M7.57356 3.31259C8.3664 2.90862 9.25099 3.17831 9.97966 3.60406C10.3373 3.81303 10.4578 4.27236 10.2488 4.63C10.0399 4.98763 9.58055 5.10815 9.22291 4.89919C8.63085 4.55324 8.3487 4.60112 8.25454 4.6491C8.14206 4.70641 7.89715 4.97454 7.86928 5.86762C7.84762 6.56154 7.96818 7.46578 8.23978 8.5151C8.72635 8.44304 9.23347 8.38468 9.75693 8.34125C10.7844 6.68022 11.9019 5.3002 12.9562 4.38266C13.5162 3.89534 14.0901 3.51042 14.6514 3.29813C15.2123 3.08601 15.8465 3.01751 16.4256 3.31257C16.9025 3.55557 17.2044 3.9774 17.3822 4.4396C17.5578 4.89609 17.6296 5.4311 17.6322 5.99648C17.6342 6.41069 17.3 6.74804 16.8858 6.74998C16.4715 6.75191 16.1342 6.4177 16.1323 6.00349C16.1301 5.54589 16.0705 5.20745 15.9823 4.97816C15.8963 4.75459 15.802 4.67833 15.7446 4.64908L16.0801 3.99068L15.7446 4.64908C15.6771 4.61471 15.5162 4.57475 15.182 4.70114C14.8483 4.82737 14.4272 5.09095 13.941 5.51415C13.2084 6.1517 12.3997 7.08822 11.6032 8.25277C11.7348 8.25092 11.8671 8.24998 12 8.24998C14.5435 8.24998 16.8773 8.59253 18.6011 9.16715C19.4591 9.45316 20.2076 9.81024 20.757 10.2432C21.2979 10.6695 21.75 11.2575 21.75 12C21.75 12.6398 21.4116 13.1676 20.9782 13.5683C20.5451 13.9687 19.9566 14.3029 19.2857 14.5792C18.9027 14.737 18.4643 14.5544 18.3065 14.1714C18.1488 13.7884 18.3313 13.3501 18.7143 13.1923C19.2942 12.9534 19.7057 12.7019 19.9599 12.4669C20.2138 12.2321 20.25 12.0746 20.25 12C20.25 11.9141 20.1985 11.7129 19.8285 11.4213C19.467 11.1364 18.8975 10.8471 18.1268 10.5902C16.5933 10.079 14.4271 9.74998 12 9.74998C11.5376 9.74998 11.0839 9.76193 10.6417 9.78491C10.4206 10.1682 10.2042 10.5667 9.9944 10.9784C9.81997 11.3208 9.65561 11.6615 9.50156 11.999C9.65584 12.3371 9.82046 12.6784 9.9952 13.0214C11.0971 15.1839 12.3737 16.9647 13.5253 18.099C14.1041 18.669 14.6205 19.0451 15.0384 19.2379C15.4662 19.4351 15.6688 19.3897 15.7454 19.3507C15.8137 19.3159 15.9436 19.2062 16.0379 18.85C16.1319 18.4951 16.1631 17.9852 16.1005 17.3266C15.9758 16.0153 15.4963 14.2822 14.6769 12.401C14.5115 12.0213 14.6852 11.5794 15.065 11.4139C15.4447 11.2485 15.8867 11.4223 16.0521 11.802C16.9123 13.777 17.4496 15.6683 17.5938 17.1846C17.6656 17.9397 17.6442 18.6443 17.488 19.2341C17.3321 19.8226 17.0141 20.3877 16.4264 20.6872C15.7648 21.0243 15.0356 20.8884 14.4102 20.6C13.7751 20.3071 13.1171 19.8023 12.4727 19.1676C11.209 17.9229 9.87834 16.0598 8.74151 13.8636C8.27891 15.157 7.99702 16.3347 7.902 17.292C7.83562 17.9606 7.86486 18.4794 7.95878 18.8408C8.05317 19.2041 8.18484 19.3156 8.25375 19.3507C8.37293 19.4114 8.76165 19.4472 9.54919 18.8883C9.88699 18.6486 10.3552 18.7281 10.5949 19.0659C10.8346 19.4037 10.7551 19.8719 10.4173 20.1116C9.5702 20.7127 8.50843 21.1639 7.57276 20.6872C6.97975 20.385 6.66148 19.8126 6.50699 19.2181C6.35202 18.6217 6.33342 17.9085 6.40934 17.1438C6.55406 15.6859 7.05858 13.8858 7.86223 11.999C7.60584 11.3969 7.38055 10.8051 7.18784 10.2317C6.12961 10.4661 5.26921 10.7692 4.66078 11.1035C3.87771 11.5338 3.75 11.8737 3.75 12C3.75 12.1339 3.89496 12.497 4.75199 12.9453C5.11902 13.1373 5.2609 13.5905 5.06889 13.9575C4.87689 14.3246 4.42371 14.4665 4.05668 14.2745C3.13539 13.7925 2.25 13.0509 2.25 12C2.25 10.9887 3.07198 10.265 3.93842 9.78891C4.68486 9.37876 5.65383 9.04241 6.76182 8.79004C6.48366 7.68821 6.34344 6.67213 6.37001 5.82083C6.40085 4.83266 6.67248 3.77171 7.57356 3.31259ZM8.68265 9.96711C8.70199 10.0226 8.72166 10.0784 8.74166 10.1343C8.77428 10.0713 8.80706 10.0086 8.83998 9.94616C8.78727 9.95298 8.73483 9.95997 8.68265 9.96711ZM12.5117 10.4414C12.8196 10.7185 12.8446 11.1927 12.5675 11.5006L12.5575 11.5117C12.2804 11.8196 11.8061 11.8445 11.4983 11.5674C11.1904 11.2903 11.1654 10.8161 11.4425 10.5082L11.4525 10.4971C11.7296 10.1893 12.2039 10.1643 12.5117 10.4414Z" fill="black"/>
</g>
</g>
</g>
<defs>
<clipPath id="clip0_232_13566">
<rect width="24" height="24" rx="5" fill="white"/>
</clipPath>
</defs>
</svg>
