<svg width="24" height="24" viewBox="0 0 24 24" fill="none" xmlns="http://www.w3.org/2000/svg">
<g id="attachment">
<g clip-path="url(#clip0_232_6115)">
<g id="Weight=Dynamic">
<path id="Vector (Stroke)" fill-rule="evenodd" clip-rule="evenodd" d="M15.7783 2.75C14.9158 2.75 14.0886 3.09264 13.4787 3.70255L4.28867 12.8926C3.30347 13.8777 2.75 15.214 2.75 16.6072C2.75 18.0005 3.30347 19.3367 4.28867 20.3219C5.27386 21.3071 6.61007 21.8606 8.00334 21.8606C9.39661 21.8606 10.7328 21.3071 11.718 20.3219L20.908 11.1319C21.2009 10.839 21.6758 10.839 21.9687 11.1319C22.2616 11.4248 22.2616 11.8997 21.9687 12.1926L12.7787 21.3826C11.5122 22.649 9.79443 23.3606 8.00334 23.3606C6.21224 23.3606 4.4945 22.649 3.22801 21.3826C1.96151 20.1161 1.25 18.3983 1.25 16.6072C1.25 14.8161 1.96151 13.0984 3.22801 11.8319L12.418 2.64189C13.3092 1.75068 14.518 1.25 15.7783 1.25C17.0387 1.25 18.2475 1.75068 19.1387 2.64189C20.0299 3.53311 20.5306 4.74186 20.5306 6.00222C20.5306 7.26259 20.0299 8.47134 19.1387 9.36255L9.93867 18.5526C9.42273 19.0685 8.72298 19.3583 7.99334 19.3583C7.2637 19.3583 6.56394 19.0685 6.04801 18.5526C5.53207 18.0366 5.24222 17.3369 5.24222 16.6072C5.24222 15.8776 5.53207 15.1778 6.04801 14.6619L14.5383 6.18158C14.8314 5.88886 15.3063 5.88914 15.599 6.18221C15.8917 6.47527 15.8914 6.95015 15.5984 7.24287L7.10867 15.7226C7.10856 15.7227 7.10877 15.7225 7.10867 15.7226C6.87423 15.9572 6.74222 16.2756 6.74222 16.6072C6.74222 16.939 6.87404 17.2573 7.10867 17.4919C7.3433 17.7265 7.66152 17.8583 7.99334 17.8583C8.32515 17.8583 8.64338 17.7265 8.87801 17.4919L18.078 8.30189C18.6879 7.69198 19.0306 6.86477 19.0306 6.00222C19.0306 5.13968 18.6879 4.31246 18.078 3.70255C17.4681 3.09264 16.6409 2.75 15.7783 2.75Z" fill="black"/>
</g>
</g>
</g>
<defs>
<clipPath id="clip0_232_6115">
<rect width="24" height="24" rx="5" fill="white"/>
</clipPath>
</defs>
</svg>
