<svg width="24" height="24" viewBox="0 0 24 24" fill="none" xmlns="http://www.w3.org/2000/svg">
<g id="augmented-reality">
<g clip-path="url(#clip0_232_8177)">
<g id="Weight=Dynamic">
<path id="Vector (Stroke)" fill-rule="evenodd" clip-rule="evenodd" d="M2.75 5.75V18.25H21.25V5.75H2.75ZM1.25 5.6C1.25 4.85441 1.85442 4.25 2.6 4.25H21.4C22.1456 4.25 22.75 4.85442 22.75 5.6V18.4C22.75 19.1456 22.1456 19.75 21.4 19.75H2.6C1.85442 19.75 1.25 19.1456 1.25 18.4V5.6ZM16.8163 9.40902C16.5717 9.26518 16.2421 9.25 15.8571 9.25H13.75V11.95H15.8571C16.2421 11.95 16.5717 11.9348 16.8163 11.791C16.9745 11.6979 17.25 11.4606 17.25 10.6C17.25 9.73935 16.9745 9.50207 16.8163 9.40902ZM13.75 13.45V15.5C13.75 15.9142 13.4142 16.25 13 16.25C12.5858 16.25 12.25 15.9142 12.25 15.5V8.5C12.25 8.08579 12.5858 7.75 13 7.75H15.8571C15.8688 7.75 15.881 7.74998 15.8936 7.74996C16.2389 7.74942 16.9513 7.74831 17.5766 8.11598C18.3112 8.54793 18.75 9.36065 18.75 10.6C18.75 11.8394 18.3112 12.6521 17.5766 13.084C17.4611 13.1519 17.3427 13.2072 17.2242 13.2523L18.5956 15.0442C18.8473 15.3731 18.7848 15.8439 18.4558 16.0956C18.1269 16.3473 17.6561 16.2848 17.4044 15.9558L15.4867 13.45H13.75ZM8 7.75C8.31696 7.75 8.5997 7.94925 8.70631 8.24775L11.2063 15.2477C11.3456 15.6378 11.1423 16.067 10.7523 16.2063C10.3622 16.3456 9.93301 16.1423 9.79369 15.7523L9.35777 14.5317H6.64223L6.20631 15.7523C6.06699 16.1423 5.63783 16.3456 5.24775 16.2063C4.85767 16.067 4.65438 15.6378 4.79369 15.2477L7.29369 8.24775C7.4003 7.94925 7.68304 7.75 8 7.75ZM7.17794 13.0317H8.82206L8 10.7299L7.17794 13.0317Z" fill="black"/>
</g>
</g>
</g>
<defs>
<clipPath id="clip0_232_8177">
<rect width="24" height="24" rx="5" fill="white"/>
</clipPath>
</defs>
</svg>
