<svg width="24" height="24" viewBox="0 0 24 24" fill="none" xmlns="http://www.w3.org/2000/svg">
<g id="auto-flash">
<g clip-path="url(#clip0_232_12759)">
<g id="Weight=Dynamic">
<path id="Vector (Stroke)" fill-rule="evenodd" clip-rule="evenodd" d="M10.2319 2.28681C10.5409 2.38727 10.75 2.6752 10.75 3.00005V9.25005H13C13.4142 9.25005 13.75 9.58584 13.75 10.0001C13.75 10.4143 13.4142 10.7501 13 10.7501H10C9.58579 10.7501 9.25 10.4143 9.25 10.0001V5.30644L3.47283 13.2501H8C8.41422 13.2501 8.75 13.5858 8.75 14.0001V18.6937L13.3935 12.3089C13.6371 11.9739 14.1061 11.8999 14.4411 12.1435C14.7761 12.3871 14.8502 12.8562 14.6066 13.1912L8.60656 21.4412C8.41549 21.7039 8.077 21.8137 7.76807 21.7133C7.45914 21.6128 7.25 21.3249 7.25 21.0001V14.7501H2C1.71791 14.7501 1.45967 14.5918 1.33167 14.3404C1.20366 14.089 1.22753 13.7871 1.39345 13.5589L9.39345 2.55892C9.58452 2.2962 9.92301 2.18635 10.2319 2.28681ZM19 2.25005C19.2925 2.25005 19.5584 2.42014 19.681 2.68576L22.681 9.18576C22.8546 9.56185 22.6904 10.0074 22.3143 10.181C21.9382 10.3546 21.4926 10.1904 21.319 9.81434L20.8278 8.75005H17.1722L16.681 9.81434C16.5074 10.1904 16.0618 10.3546 15.6857 10.181C15.3096 10.0074 15.1455 9.56185 15.319 9.18576L18.319 2.68576C18.4416 2.42014 18.7075 2.25005 19 2.25005ZM17.8645 7.25005H20.1355L19 4.78978L17.8645 7.25005Z" fill="black"/>
</g>
</g>
</g>
<defs>
<clipPath id="clip0_232_12759">
<rect width="24" height="24" rx="5" fill="white"/>
</clipPath>
</defs>
</svg>
