<svg width="24" height="24" viewBox="0 0 24 24" fill="none" xmlns="http://www.w3.org/2000/svg">
<g id="avi-format">
<g clip-path="url(#clip0_232_12578)">
<g id="Weight=Dynamic">
<path id="Vector (Stroke)" fill-rule="evenodd" clip-rule="evenodd" d="M3.25 3.6C3.25 2.85441 3.85442 2.25 4.6 2.25H19.4C20.1456 2.25 20.75 2.85442 20.75 3.6V6C20.75 6.41421 20.4142 6.75 20 6.75C19.5858 6.75 19.25 6.41421 19.25 6V3.75H4.75V6C4.75 6.41421 4.41421 6.75 4 6.75C3.58579 6.75 3.25 6.41421 3.25 6V3.6ZM11.8181 8.27239C12.2199 8.17193 12.6271 8.41625 12.7276 8.8181L13.5 11.9077L14.2724 8.8181C14.3729 8.41625 14.7801 8.17193 15.1819 8.27239C15.5837 8.37285 15.8281 8.78006 15.7276 9.1819L14.2276 15.1819C14.1441 15.5158 13.8442 15.75 13.5 15.75C13.1558 15.75 12.8559 15.5158 12.7724 15.1819L11.2724 9.1819C11.1719 8.78006 11.4163 8.37285 11.8181 8.27239ZM7.5 9.75C7.08579 9.75 6.75 10.0858 6.75 10.5V11.25H8.25V10.5C8.25 10.0858 7.91421 9.75 7.5 9.75ZM8.25 12.75V15C8.25 15.4142 8.58579 15.75 9 15.75C9.41421 15.75 9.75 15.4142 9.75 15V10.5C9.75 9.25736 8.74264 8.25 7.5 8.25C6.25736 8.25 5.25 9.25736 5.25 10.5V15C5.25 15.4142 5.58579 15.75 6 15.75C6.41421 15.75 6.75 15.4142 6.75 15V12.75H8.25ZM18 8.25C18.4142 8.25 18.75 8.58579 18.75 9V15C18.75 15.4142 18.4142 15.75 18 15.75C17.5858 15.75 17.25 15.4142 17.25 15V9C17.25 8.58579 17.5858 8.25 18 8.25ZM4 17.25C4.41421 17.25 4.75 17.5858 4.75 18V20.25H19.25V18C19.25 17.5858 19.5858 17.25 20 17.25C20.4142 17.25 20.75 17.5858 20.75 18V20.4C20.75 21.1456 20.1456 21.75 19.4 21.75H4.6C3.85442 21.75 3.25 21.1456 3.25 20.4V18C3.25 17.5858 3.58579 17.25 4 17.25Z" fill="black"/>
</g>
</g>
</g>
<defs>
<clipPath id="clip0_232_12578">
<rect width="24" height="24" rx="5" fill="white"/>
</clipPath>
</defs>
</svg>
