<svg width="24" height="24" viewBox="0 0 24 24" fill="none" xmlns="http://www.w3.org/2000/svg">
<g id="axes">
<g clip-path="url(#clip0_232_4937)">
<g id="Weight=Dynamic">
<path id="Vector (Stroke)" fill-rule="evenodd" clip-rule="evenodd" d="M11.4765 2.46298C11.7677 2.17901 12.2323 2.17901 12.5236 2.46298L14.7736 4.65653C15.0701 4.94568 15.0762 5.42052 14.787 5.71711C14.4979 6.0137 14.023 6.01973 13.7265 5.73058L12.75 4.77863V12.4631L19.8739 17.6942L19.7028 16.8603C19.6196 16.4546 19.881 16.0582 20.2868 15.9749C20.6925 15.8917 21.089 16.1531 21.1722 16.5589L21.7347 19.3009C21.7749 19.497 21.7351 19.701 21.6241 19.8676C21.513 20.0342 21.34 20.1494 21.1435 20.1878L18.331 20.7361C17.9245 20.8154 17.5306 20.55 17.4514 20.1435C17.3721 19.7369 17.6374 19.3431 18.044 19.2638L19.1764 19.043L12 13.7733L4.82359 19.043L5.95602 19.2638C6.36258 19.3431 6.62791 19.7369 6.54864 20.1435C6.46938 20.55 6.07554 20.8154 5.66898 20.7361L2.85648 20.1878C2.66 20.1494 2.48698 20.0342 2.37595 19.8676C2.26491 19.701 2.22507 19.497 2.2653 19.3009L2.8278 16.5589C2.91104 16.1531 3.30746 15.8917 3.71322 15.9749C4.11899 16.0582 4.38044 16.4546 4.2972 16.8603L4.12615 17.6942L11.25 12.4631V4.77863L10.2736 5.73058C9.97696 6.01973 9.50213 6.0137 9.21298 5.71711C8.92383 5.42052 8.92986 4.94568 9.22645 4.65653L11.4765 2.46298Z" fill="black"/>
</g>
</g>
</g>
<defs>
<clipPath id="clip0_232_4937">
<rect width="24" height="24" rx="5" fill="white"/>
</clipPath>
</defs>
</svg>
