<svg width="24" height="24" viewBox="0 0 24 24" fill="none" xmlns="http://www.w3.org/2000/svg">
<g id="bag">
<g clip-path="url(#clip0_232_2525)">
<g id="Weight=Dynamic">
<path id="Vector (Stroke)" fill-rule="evenodd" clip-rule="evenodd" d="M6.24997 6C6.24997 4.48122 7.48118 3.25 8.99997 3.25H15C16.5188 3.25 17.75 4.48122 17.75 6V7.25H21.2917C22.1259 7.25 22.7605 7.99907 22.6233 8.82194L20.8233 19.6219C20.7148 20.2729 20.1516 20.75 19.4917 20.75H4.50824C3.84831 20.75 3.2851 20.2729 3.17661 19.6219L1.37661 8.82194C1.23947 7.99907 1.87403 7.25 2.70824 7.25H6.24997V6ZM7.74997 7.25H16.25V6C16.25 5.30964 15.6903 4.75 15 4.75H8.99997C8.30961 4.75 7.74997 5.30964 7.74997 6V7.25ZM2.88531 8.75L4.63531 19.25H19.3646L21.1146 8.75H2.88531Z" fill="black"/>
</g>
</g>
</g>
<defs>
<clipPath id="clip0_232_2525">
<rect width="24" height="24" rx="5" fill="white"/>
</clipPath>
</defs>
</svg>
