<svg width="24" height="24" viewBox="0 0 24 24" fill="none" xmlns="http://www.w3.org/2000/svg">
<g id="balcony">
<g clip-path="url(#clip0_232_17470)">
<g id="Weight=Dynamic">
<path id="Vector (Stroke)" fill-rule="evenodd" clip-rule="evenodd" d="M5.25 3.6C5.25 2.85442 5.85442 2.25 6.6 2.25H17.4C18.1456 2.25 18.75 2.85442 18.75 3.6V10C18.75 10.4142 18.4142 10.75 18 10.75C17.5858 10.75 17.25 10.4142 17.25 10V3.75H6.75V10C6.75 10.4142 6.41421 10.75 6 10.75C5.58579 10.75 5.25 10.4142 5.25 10V3.6ZM20.75 13.75L22 13.75C22.4142 13.75 22.75 13.4142 22.75 13C22.75 12.5858 22.4142 12.25 22 12.25L2 12.25C1.58579 12.25 1.25 12.5858 1.25 13C1.25 13.4142 1.58579 13.75 2 13.75H3.25V20.25H2C1.58579 20.25 1.25 20.5858 1.25 21C1.25 21.4142 1.58579 21.75 2 21.75L22 21.75C22.4142 21.75 22.75 21.4142 22.75 21C22.75 20.5858 22.4142 20.25 22 20.25L20.75 20.25V13.75ZM19.25 20.25V13.75H16.75V20.25H19.25ZM15.25 20.25V13.75H12.75V20.25H15.25ZM11.25 20.25V13.75H8.75V20.25H11.25ZM7.25 20.25V13.75H4.75V20.25H7.25Z" fill="black"/>
</g>
</g>
</g>
<defs>
<clipPath id="clip0_232_17470">
<rect width="24" height="24" rx="5" fill="white"/>
</clipPath>
</defs>
</svg>
