<svg width="24" height="24" viewBox="0 0 24 24" fill="none" xmlns="http://www.w3.org/2000/svg">
<g id="bank">
<g clip-path="url(#clip0_232_7684)">
<g id="Weight=Dynamic">
<path id="Vector (Stroke)" fill-rule="evenodd" clip-rule="evenodd" d="M11.6089 3.36004C11.849 3.21332 12.151 3.21332 12.3911 3.36004L21.3911 8.86004C21.7445 9.07603 21.8559 9.53765 21.6399 9.89109C21.424 10.2445 20.9623 10.356 20.6089 10.14L12 4.87896L3.39107 10.14C3.03763 10.356 2.57602 10.2445 2.36002 9.89109C2.14403 9.53764 2.25546 9.07603 2.6089 8.86004L11.6089 3.36004ZM9.24999 9C9.24999 8.58578 9.58577 8.25 9.99999 8.25H14C14.4142 8.25 14.75 8.58578 14.75 9C14.75 9.41421 14.4142 9.75 14 9.75H9.99999C9.58577 9.75 9.24999 9.41421 9.24999 9ZM5.99999 11.25C6.4142 11.25 6.74999 11.5858 6.74999 12V17C6.74999 17.4142 6.4142 17.75 5.99999 17.75C5.58577 17.75 5.24999 17.4142 5.24999 17L5.24999 12C5.24999 11.5858 5.58577 11.25 5.99999 11.25ZM9.99999 11.25C10.4142 11.25 10.75 11.5858 10.75 12V17C10.75 17.4142 10.4142 17.75 9.99999 17.75C9.58577 17.75 9.24999 17.4142 9.24999 17L9.24999 12C9.24999 11.5858 9.58577 11.25 9.99999 11.25ZM14 11.25C14.4142 11.25 14.75 11.5858 14.75 12V17C14.75 17.4142 14.4142 17.75 14 17.75C13.5858 17.75 13.25 17.4142 13.25 17V12C13.25 11.5858 13.5858 11.25 14 11.25ZM18 11.25C18.4142 11.25 18.75 11.5858 18.75 12V17C18.75 17.4142 18.4142 17.75 18 17.75C17.5858 17.75 17.25 17.4142 17.25 17V12C17.25 11.5858 17.5858 11.25 18 11.25ZM4.24999 20C4.24999 19.5858 4.58577 19.25 4.99999 19.25H19C19.4142 19.25 19.75 19.5858 19.75 20C19.75 20.4142 19.4142 20.75 19 20.75H4.99999C4.58577 20.75 4.24999 20.4142 4.24999 20Z" fill="black"/>
</g>
</g>
</g>
<defs>
<clipPath id="clip0_232_7684">
<rect width="24" height="24" rx="5" fill="white"/>
</clipPath>
</defs>
</svg>
