<svg width="24" height="24" viewBox="0 0 24 24" fill="none" xmlns="http://www.w3.org/2000/svg">
<g id="barcode">
<g clip-path="url(#clip0_232_13272)">
<g id="Weight=Dynamic">
<path id="Vector (Stroke)" fill-rule="evenodd" clip-rule="evenodd" d="M4.46967 4.46967C4.61032 4.32902 4.80109 4.25 5 4.25H6C6.41421 4.25 6.75 4.58579 6.75 5V19C6.75 19.4142 6.41421 19.75 6 19.75H5C4.58579 19.75 4.25 19.4142 4.25 19L4.25 5C4.25 4.80109 4.32902 4.61032 4.46967 4.46967ZM11.4697 4.46967C11.6103 4.32902 11.8011 4.25 12 4.25H13C13.4142 4.25 13.75 4.58579 13.75 5V19C13.75 19.4142 13.4142 19.75 13 19.75H12C11.5858 19.75 11.25 19.4142 11.25 19L11.25 5C11.25 4.80109 11.329 4.61032 11.4697 4.46967ZM9 4.25C9.41421 4.25 9.75 4.58579 9.75 5L9.75 19C9.75 19.4142 9.41421 19.75 9 19.75C8.58579 19.75 8.25 19.4142 8.25 19L8.25 5C8.25 4.58579 8.58579 4.25 9 4.25ZM16 4.25C16.4142 4.25 16.75 4.58579 16.75 5V19C16.75 19.4142 16.4142 19.75 16 19.75C15.5858 19.75 15.25 19.4142 15.25 19V5C15.25 4.58579 15.5858 4.25 16 4.25ZM19 4.25C19.4142 4.25 19.75 4.58579 19.75 5V19C19.75 19.4142 19.4142 19.75 19 19.75C18.5858 19.75 18.25 19.4142 18.25 19V5C18.25 4.58579 18.5858 4.25 19 4.25Z" fill="black"/>
</g>
</g>
</g>
<defs>
<clipPath id="clip0_232_13272">
<rect width="24" height="24" rx="5" fill="white"/>
</clipPath>
</defs>
</svg>
