<svg width="24" height="24" viewBox="0 0 24 24" fill="none" xmlns="http://www.w3.org/2000/svg">
<g id="basketball">
<g clip-path="url(#clip0_232_1575)">
<g id="Weight=Dynamic">
<path id="Vector (Stroke)" fill-rule="evenodd" clip-rule="evenodd" d="M7.32592 4.01728L12.7565 11.773C13.5975 11.1665 14.384 10.5101 15.1262 9.79691C13.6193 7.73236 12.6863 5.36984 12.3755 2.75721C10.6535 2.68598 8.89961 3.09353 7.32592 4.01728ZM13.127 1.30915C10.6376 1.04567 8.04558 1.64562 5.834 3.19418C3.62229 4.74284 2.17195 6.97353 1.5682 9.40305C1.56595 9.41148 1.56386 9.41993 1.56193 9.4284C0.928458 12.004 1.24573 14.801 2.6151 17.2446C2.6194 17.2525 2.62383 17.2604 2.6284 17.2682C2.80044 17.5734 2.98893 17.8731 3.19406 18.166C5.04473 20.809 7.86938 22.3648 10.8434 22.6878C10.8543 22.6892 10.8653 22.6904 10.8763 22.6913C13.3647 22.9539 15.9553 22.3538 18.1659 20.806C20.3763 19.2582 21.8263 17.0292 22.4307 14.6013C22.4336 14.5903 22.4364 14.5793 22.4388 14.5683C23.1523 11.6632 22.6564 8.47702 20.8058 5.83412C20.6009 5.54148 20.3841 5.26218 20.1564 4.9964C20.15 4.98865 20.1435 4.98102 20.1367 4.97351C18.3091 2.85196 15.7901 1.59772 13.1538 1.31203C13.1449 1.31091 13.136 1.30995 13.127 1.30915ZM13.914 2.95022C14.2203 5.05513 14.9824 6.98397 16.1887 8.7043C17.0575 7.74926 17.8656 6.70206 18.6321 5.55005C17.3246 4.20233 15.6714 3.32154 13.914 2.95022ZM19.6237 6.76161C18.8399 7.90347 18.0129 8.9456 17.1275 9.89927C18.2158 11.1422 19.5643 12.2577 21.1677 13.2311C21.4632 11.0351 20.9751 8.72762 19.6237 6.76161ZM20.8255 14.7714C18.9438 13.6856 17.3524 12.4115 16.0712 10.9686C15.3 11.7017 14.4848 12.3773 13.617 13.0018L17.9027 19.1225C19.3195 17.9509 20.3066 16.4282 20.8255 14.7714ZM16.674 19.9829L12.3725 13.8398C11.4962 14.3916 10.5684 14.8995 9.58159 15.3692C10.5291 17.0916 11.2012 19.0579 11.5856 21.2412C13.32 21.3202 15.0885 20.9135 16.674 19.9829ZM10.0212 21.036C9.64502 19.1466 9.03601 17.4587 8.20714 15.983C7.03384 16.4743 5.78136 16.9203 4.43899 17.3287C5.82528 19.296 7.84039 20.559 10.0212 21.036ZM3.65668 15.9974C4.9938 15.6018 6.23467 15.1713 7.39159 14.6976C6.19894 13.0276 4.67387 11.6894 2.84125 10.7034C2.5905 12.4718 2.84837 14.3155 3.65668 15.9974ZM3.18607 9.19167C5.49759 10.3585 7.37537 12.0088 8.7923 14.0836C9.75766 13.6307 10.6611 13.1413 11.5111 12.6096L6.09719 4.87764C4.69092 6.04049 3.70808 7.54921 3.18607 9.19167Z" fill="black"/>
</g>
</g>
</g>
<defs>
<clipPath id="clip0_232_1575">
<rect width="24" height="24" rx="5" fill="white"/>
</clipPath>
</defs>
</svg>
