<svg width="24" height="24" viewBox="0 0 24 24" fill="none" xmlns="http://www.w3.org/2000/svg">
<g id="basketball-field">
<g clip-path="url(#clip0_232_1690)">
<g id="Weight=Dynamic">
<path id="Vector (Stroke)" fill-rule="evenodd" clip-rule="evenodd" d="M2.75 5.75V6.29847C5.57127 6.66598 7.75 9.07855 7.75 12C7.75 14.9214 5.57127 17.334 2.75 17.7015V18.25H11.25V15.675C9.53832 15.3275 8.25 13.8142 8.25 12C8.25 10.1858 9.53832 8.67247 11.25 8.32501V5.75H2.75ZM12.75 5.75V8.32501C14.4617 8.67247 15.75 10.1858 15.75 12C15.75 13.8142 14.4617 15.3275 12.75 15.675V18.25H21.25V17.7015C18.4287 17.334 16.25 14.9214 16.25 12C16.25 9.07855 18.4287 6.66598 21.25 6.29847V5.75H12.75ZM22.75 5.6C22.75 4.85442 22.1456 4.25 21.4 4.25H2.6C1.85442 4.25 1.25 4.85441 1.25 5.6V18.4C1.25 19.1456 1.85442 19.75 2.6 19.75H21.4C22.1456 19.75 22.75 19.1456 22.75 18.4V5.6ZM21.25 7.81597C19.2605 8.1702 17.75 9.9087 17.75 12C17.75 14.0913 19.2605 15.8298 21.25 16.184V7.81597ZM2.75 16.184C4.73951 15.8298 6.25 14.0913 6.25 12C6.25 9.9087 4.73951 8.1702 2.75 7.81597V16.184ZM12.75 14.122C13.6239 13.8131 14.25 12.9797 14.25 12C14.25 11.0203 13.6239 10.1869 12.75 9.87803V14.122ZM11.25 9.87803C10.3761 10.1869 9.75 11.0203 9.75 12C9.75 12.9797 10.3761 13.8131 11.25 14.122V9.87803Z" fill="black"/>
</g>
</g>
</g>
<defs>
<clipPath id="clip0_232_1690">
<rect width="24" height="24" rx="5" fill="white"/>
</clipPath>
</defs>
</svg>
