<svg width="24" height="24" viewBox="0 0 24 24" fill="none" xmlns="http://www.w3.org/2000/svg">
<g id="bathroom">
<g clip-path="url(#clip0_232_17534)">
<g id="Weight=Dynamic">
<path id="Vector (Stroke)" fill-rule="evenodd" clip-rule="evenodd" d="M8.26113 4.30832C8.95272 3.19298 10.1282 2.25 12 2.25H17C19.6234 2.25 21.75 4.37665 21.75 7V16C21.75 18.5526 19.7366 20.6349 17.2112 20.7454L17.6708 21.6646C17.8561 22.0351 17.7059 22.4856 17.3354 22.6708C16.9649 22.8561 16.5144 22.7059 16.3292 22.3354L15.5365 20.75H8.46353L7.67082 22.3354C7.48558 22.7059 7.03507 22.8561 6.66459 22.6708C6.29411 22.4856 6.14394 22.0351 6.32918 21.6646L6.78878 20.7454C4.26344 20.6349 2.25 18.5526 2.25 16V13.6C2.25 12.8544 2.85442 12.25 3.6 12.25H20.25V7C20.25 5.20507 18.7949 3.75 17 3.75H15.3363C15.4856 3.92832 15.6195 4.11575 15.7389 4.30832C16.4052 5.38292 16.6276 6.6139 16.7053 7.32024C16.7953 8.13818 16.132 8.75 15.4 8.75H8.60003C7.86797 8.75 7.20466 8.13818 7.29469 7.32024C7.37244 6.61391 7.5948 5.38292 8.26113 4.30832ZM20.25 13.75H3.75V16C3.75 17.7949 5.20507 19.25 7 19.25H7.98492C7.99534 19.2498 8.00579 19.2498 8.01624 19.25H15.9838C15.9942 19.2498 16.0047 19.2498 16.0151 19.25H17C18.7949 19.25 20.25 17.7949 20.25 16V13.75ZM8.81535 7.25H15.1847C15.0969 6.63642 14.8985 5.79947 14.4641 5.09879C13.9965 4.34471 13.2651 3.75 12 3.75C10.7349 3.75 10.0035 4.34471 9.53594 5.09879C9.10147 5.79947 8.90305 6.63642 8.81535 7.25Z" fill="black"/>
</g>
</g>
</g>
<defs>
<clipPath id="clip0_232_17534">
<rect width="24" height="24" rx="5" fill="white"/>
</clipPath>
</defs>
</svg>
