<svg width="24" height="24" viewBox="0 0 24 24" fill="none" xmlns="http://www.w3.org/2000/svg">
<g id="battery-warning">
<g clip-path="url(#clip0_232_14570)">
<g id="Weight=Dynamic">
<path id="Vector (Stroke)" fill-rule="evenodd" clip-rule="evenodd" d="M3 6.75C2.30964 6.75 1.75 7.30964 1.75 8V16C1.75 16.6904 2.30964 17.25 3 17.25H18C18.6904 17.25 19.25 16.6904 19.25 16V8C19.25 7.30964 18.6904 6.75 18 6.75H3ZM0.25 8C0.25 6.48122 1.48122 5.25 3 5.25H18C19.5188 5.25 20.75 6.48122 20.75 8V16C20.75 17.5188 19.5188 18.75 18 18.75H3C1.48122 18.75 0.25 17.5188 0.25 16V8ZM10.5 8.25C10.9142 8.25 11.25 8.58579 11.25 9V11C11.25 11.4142 10.9142 11.75 10.5 11.75C10.0858 11.75 9.75 11.4142 9.75 11V9C9.75 8.58579 10.0858 8.25 10.5 8.25ZM23 9.25C23.4142 9.25 23.75 9.58579 23.75 10V14C23.75 14.4142 23.4142 14.75 23 14.75C22.5858 14.75 22.25 14.4142 22.25 14V10C22.25 9.58579 22.5858 9.25 23 9.25ZM11.0117 14.4414C11.3196 14.7185 11.3446 15.1927 11.0675 15.5006L11.0575 15.5117C10.7804 15.8196 10.3062 15.8446 9.99827 15.5675C9.69039 15.2904 9.66544 14.8162 9.94253 14.5083L9.95253 14.4972C10.2296 14.1893 10.7038 14.1643 11.0117 14.4414Z" fill="black"/>
</g>
</g>
</g>
<defs>
<clipPath id="clip0_232_14570">
<rect width="24" height="24" rx="5" fill="white"/>
</clipPath>
</defs>
</svg>
