<svg width="24" height="24" viewBox="0 0 24 24" fill="none" xmlns="http://www.w3.org/2000/svg">
<g id="battery-75">
<g clip-path="url(#clip0_232_14602)">
<g id="Weight=Dynamic">
<path id="Vector (Stroke)" fill-rule="evenodd" clip-rule="evenodd" d="M3 6.75C2.30964 6.75 1.75 7.30964 1.75 8V16C1.75 16.6904 2.30964 17.25 3 17.25H18C18.6904 17.25 19.25 16.6904 19.25 16V8C19.25 7.30964 18.6904 6.75 18 6.75H3ZM0.25 8C0.25 6.48122 1.48122 5.25 3 5.25H18C19.5188 5.25 20.75 6.48122 20.75 8V16C20.75 17.5188 19.5188 18.75 18 18.75H3C1.48122 18.75 0.25 17.5188 0.25 16V8ZM4.75 9.75V14.25H13.25V9.75H4.75ZM3.25 9.6C3.25 8.85441 3.85442 8.25 4.6 8.25H13.4C14.1456 8.25 14.75 8.85442 14.75 9.6V14.4C14.75 15.1456 14.1456 15.75 13.4 15.75H4.6C3.85441 15.75 3.25 15.1456 3.25 14.4V9.6ZM23 9.25C23.4142 9.25 23.75 9.58579 23.75 10V14C23.75 14.4142 23.4142 14.75 23 14.75C22.5858 14.75 22.25 14.4142 22.25 14V10C22.25 9.58579 22.5858 9.25 23 9.25Z" fill="black"/>
</g>
</g>
</g>
<defs>
<clipPath id="clip0_232_14602">
<rect width="24" height="24" rx="5" fill="white"/>
</clipPath>
</defs>
</svg>
