<svg width="24" height="24" viewBox="0 0 24 24" fill="none" xmlns="http://www.w3.org/2000/svg">
<g id="battery-charging">
<g clip-path="url(#clip0_232_15025)">
<g id="Weight=Dynamic">
<path id="Vector (Stroke)" fill-rule="evenodd" clip-rule="evenodd" d="M3 6.75C2.30964 6.75 1.75 7.30964 1.75 8V16C1.75 16.6904 2.30964 17.25 3 17.25H18C18.6904 17.25 19.25 16.6904 19.25 16V8C19.25 7.30964 18.6904 6.75 18 6.75H3ZM0.25 8C0.25 6.48122 1.48122 5.25 3 5.25H18C19.5188 5.25 20.75 6.48122 20.75 8V16C20.75 17.5188 19.5188 18.75 18 18.75H3C1.48122 18.75 0.25 17.5188 0.25 16V8ZM10.5309 8.34438C10.893 8.54554 11.0234 9.00214 10.8223 9.36423L9.77464 11.25H12.5C12.7657 11.25 13.0116 11.3906 13.1464 11.6197C13.2812 11.8487 13.2847 12.1319 13.1556 12.3642L11.489 15.3642C11.2878 15.7263 10.8312 15.8568 10.4691 15.6556C10.107 15.4545 9.97656 14.9979 10.1777 14.6358L11.2254 12.75H8.5C8.23426 12.75 7.98836 12.6094 7.8536 12.3803C7.71883 12.1513 7.71533 11.8681 7.84438 11.6358L9.51105 8.63577C9.71221 8.27368 10.1688 8.14322 10.5309 8.34438ZM23 9.25C23.4142 9.25 23.75 9.58579 23.75 10V14C23.75 14.4142 23.4142 14.75 23 14.75C22.5858 14.75 22.25 14.4142 22.25 14V10C22.25 9.58579 22.5858 9.25 23 9.25Z" fill="black"/>
</g>
</g>
</g>
<defs>
<clipPath id="clip0_232_15025">
<rect width="24" height="24" rx="5" fill="white"/>
</clipPath>
</defs>
</svg>
