<svg width="24" height="24" viewBox="0 0 24 24" fill="none" xmlns="http://www.w3.org/2000/svg">
<g id="battery-slash">
<g clip-path="url(#clip0_232_14622)">
<g id="Weight=Dynamic">
<path id="Vector (Stroke)" fill-rule="evenodd" clip-rule="evenodd" d="M2.46967 2.46967C2.76256 2.17678 3.23744 2.17678 3.53033 2.46967L21.5303 20.4697C21.8232 20.7626 21.8232 21.2374 21.5303 21.5303C21.2374 21.8232 20.7626 21.8232 20.4697 21.5303L17.67 18.7307C17.6154 18.7433 17.5585 18.75 17.5 18.75H3C1.48122 18.75 0.25 17.5188 0.25 16V8C0.25 6.48122 1.48122 5.25 3 5.25H4.18934L2.46967 3.53033C2.17678 3.23744 2.17678 2.76256 2.46967 2.46967ZM5.66999 6.73065C5.61537 6.74331 5.55847 6.75 5.5 6.75H3C2.30964 6.75 1.75 7.30964 1.75 8V16C1.75 16.6904 2.30964 17.25 3 17.25H16.1893L5.66999 6.73065ZM10.75 6C10.75 5.58579 11.0858 5.25 11.5 5.25H18C19.5188 5.25 20.75 6.48122 20.75 8V14.5C20.75 14.9142 20.4142 15.25 20 15.25C19.5858 15.25 19.25 14.9142 19.25 14.5V8C19.25 7.30964 18.6904 6.75 18 6.75H11.5C11.0858 6.75 10.75 6.41421 10.75 6ZM23 9.25C23.4142 9.25 23.75 9.58579 23.75 10V14C23.75 14.4142 23.4142 14.75 23 14.75C22.5858 14.75 22.25 14.4142 22.25 14V10C22.25 9.58579 22.5858 9.25 23 9.25Z" fill="black"/>
</g>
</g>
</g>
<defs>
<clipPath id="clip0_232_14622">
<rect width="24" height="24" rx="5" fill="white"/>
</clipPath>
</defs>
</svg>
