<svg width="24" height="24" viewBox="0 0 24 24" fill="none" xmlns="http://www.w3.org/2000/svg">
<g id="battery-indicator">
<g clip-path="url(#clip0_232_12174)">
<g id="Weight=Dynamic">
<path id="Vector (Stroke)" fill-rule="evenodd" clip-rule="evenodd" d="M5.25 5C5.25 4.58579 5.58579 4.25 6 4.25H8C8.41421 4.25 8.75 4.58579 8.75 5V6.25H15.25V5C15.25 4.58579 15.5858 4.25 16 4.25H18C18.4142 4.25 18.75 4.58579 18.75 5V6.25H21.4C22.1456 6.25 22.75 6.85442 22.75 7.6V18.4C22.75 19.1456 22.1456 19.75 21.4 19.75H2.6C1.85442 19.75 1.25 19.1456 1.25 18.4V7.6C1.25 6.85442 1.85442 6.25 2.6 6.25H5.25V5ZM6.75 6.25H7.25V5.75H6.75V6.25ZM17.25 6.25V5.75H16.75V6.25H17.25ZM2.75 7.75V18.25H21.25V7.75H2.75ZM8 10.25C8.41421 10.25 8.75 10.5858 8.75 11V12.25H10C10.4142 12.25 10.75 12.5858 10.75 13C10.75 13.4142 10.4142 13.75 10 13.75H8.75V15C8.75 15.4142 8.41421 15.75 8 15.75C7.58579 15.75 7.25 15.4142 7.25 15V13.75H6C5.58579 13.75 5.25 13.4142 5.25 13C5.25 12.5858 5.58579 12.25 6 12.25H7.25V11C7.25 10.5858 7.58579 10.25 8 10.25ZM13.25 13C13.25 12.5858 13.5858 12.25 14 12.25H18C18.4142 12.25 18.75 12.5858 18.75 13C18.75 13.4142 18.4142 13.75 18 13.75H14C13.5858 13.75 13.25 13.4142 13.25 13Z" fill="black"/>
</g>
</g>
</g>
<defs>
<clipPath id="clip0_232_12174">
<rect width="24" height="24" rx="5" fill="white"/>
</clipPath>
</defs>
</svg>
