<svg width="24" height="24" viewBox="0 0 24 24" fill="none" xmlns="http://www.w3.org/2000/svg">
<g id="bbq">
<g clip-path="url(#clip0_232_7953)">
<g id="Weight=Dynamic">
<path id="Vector (Stroke)" fill-rule="evenodd" clip-rule="evenodd" d="M7.37602 1.58398C7.60578 1.23933 8.07144 1.1462 8.41608 1.37597L8.00006 2C8.41608 1.37597 8.41579 1.37577 8.41608 1.37597L8.41726 1.37675L8.41852 1.3776L8.42135 1.3795L8.4281 1.38412L8.44593 1.3966C8.45966 1.40636 8.47705 1.41905 8.49756 1.43468C8.53852 1.46589 8.59232 1.5091 8.65458 1.56445C8.77853 1.67462 8.93957 1.83602 9.10006 2.05C9.42272 2.48021 9.75006 3.13421 9.75006 4C9.75006 4.69852 9.39453 5.35417 9.12794 5.76222C8.98449 5.98179 8.84224 6.16601 8.73592 6.29548C8.68243 6.36061 8.6372 6.41291 8.60432 6.45001C8.58786 6.46859 8.57443 6.48342 8.56454 6.49423L8.55241 6.50739L8.54843 6.51165L8.54699 6.51319L8.54615 6.51409C8.54603 6.51421 8.54592 6.51434 8.00006 6L8.54615 6.51409C8.26209 6.81556 7.78719 6.82992 7.48572 6.54586C7.18446 6.262 7.17016 5.78778 7.45362 5.48628L7.45803 5.48149C7.4628 5.47628 7.47085 5.4674 7.48173 5.45512C7.50354 5.43052 7.53643 5.39257 7.57669 5.34354C7.65788 5.24468 7.76563 5.1049 7.87218 4.94181C8.10559 4.58455 8.25006 4.24019 8.25006 4C8.25006 3.53246 8.0774 3.18646 7.90006 2.95C7.81054 2.83065 7.72159 2.74205 7.65803 2.68556C7.62655 2.65757 7.60222 2.63829 7.58849 2.62783C7.58273 2.62344 7.57892 2.62066 7.57731 2.61951C7.23818 2.3882 7.14776 1.92637 7.37602 1.58398ZM11.376 1.58398C11.6058 1.23933 12.0714 1.1462 12.4161 1.37597L12.0001 2C12.4161 1.37597 12.4158 1.37577 12.4161 1.37597L12.4173 1.37675L12.4185 1.3776L12.4213 1.3795L12.4281 1.38412L12.4459 1.3966C12.4597 1.40636 12.477 1.41905 12.4976 1.43468C12.5385 1.46589 12.5923 1.5091 12.6546 1.56445C12.7785 1.67462 12.9396 1.83602 13.1001 2.05C13.4227 2.48021 13.7501 3.13421 13.7501 4C13.7501 4.69852 13.3945 5.35417 13.1279 5.76222C12.9845 5.98179 12.8422 6.16601 12.7359 6.29548C12.6824 6.36061 12.6372 6.41291 12.6043 6.45001C12.5879 6.46859 12.5744 6.48342 12.5645 6.49423L12.5524 6.50739L12.5484 6.51165L12.547 6.51319L12.5461 6.51409C12.546 6.51421 12.5459 6.51434 12.0001 6M11.376 1.58398C11.1478 1.92637 11.2382 2.3882 11.5773 2.61951L11.376 1.58398ZM15.376 1.58398C15.6058 1.23933 16.0714 1.1462 16.4161 1.37597L16.0001 2C16.4161 1.37597 16.4158 1.37577 16.4161 1.37597L16.4173 1.37675L16.4185 1.3776L16.4213 1.3795L16.4281 1.38412L16.4459 1.3966C16.4597 1.40636 16.477 1.41905 16.4976 1.43468C16.5385 1.46589 16.5923 1.5091 16.6546 1.56445C16.7785 1.67462 16.9396 1.83602 17.1001 2.05C17.4227 2.48021 17.7501 3.13421 17.7501 4C17.7501 4.69852 17.3945 5.35417 17.1279 5.76222C16.9845 5.98179 16.8422 6.16601 16.7359 6.29548C16.6824 6.36061 16.6372 6.41291 16.6043 6.45001C16.5879 6.46859 16.5744 6.48342 16.5645 6.49423L16.5524 6.50739L16.5484 6.51165L16.547 6.51319L16.5462 6.51409C16.546 6.51421 16.5459 6.51434 16.0001 6L16.5462 6.51409C16.2621 6.81556 15.7872 6.82992 15.4857 6.54586C15.1846 6.26213 15.1702 5.78824 15.4532 5.48672C15.4533 5.48659 15.4538 5.48608 15.4539 5.48595C15.4539 5.48597 15.454 5.48593 15.4539 5.48595L15.458 5.48149C15.4628 5.47628 15.4709 5.4674 15.4817 5.45512C15.5035 5.43052 15.5364 5.39257 15.5767 5.34354C15.6579 5.24468 15.7656 5.1049 15.8722 4.94181C16.1056 4.58455 16.2501 4.24019 16.2501 4C16.2501 3.53246 16.0774 3.18646 15.9001 2.95C15.8105 2.83065 15.7216 2.74205 15.658 2.68556C15.6265 2.65757 15.6022 2.63829 15.5885 2.62783C15.5827 2.62344 15.5789 2.62067 15.5773 2.61951C15.2382 2.3882 15.1478 1.92637 15.376 1.58398ZM5.79452 8.75C6.16464 11.8478 8.8022 14.25 12.0001 14.25C15.1979 14.25 17.8355 11.8478 18.2056 8.75H5.79452ZM4.27808 8.66316C4.20938 7.85357 4.87248 7.25 5.60006 7.25H18.4001C19.1276 7.25 19.7907 7.85357 19.722 8.66316C19.5174 11.0753 18.2085 13.1724 16.3029 14.4468L18.0947 18.2864C18.2262 18.2625 18.3617 18.25 18.5001 18.25C19.7427 18.25 20.7501 19.2574 20.7501 20.5C20.7501 21.7426 19.7427 22.75 18.5001 22.75C17.2574 22.75 16.2501 21.7426 16.2501 20.5C16.2501 19.9417 16.4534 19.431 16.79 19.0377L16.4224 18.25H7.5777L5.67969 22.3172C5.50453 22.6925 5.05825 22.8548 4.68289 22.6796C4.30754 22.5045 4.14525 22.0582 4.32042 21.6828L7.69723 14.4468C5.79161 13.1724 4.48275 11.0753 4.27808 8.66316ZM9.02117 15.1569L8.2777 16.75L15.7224 16.75L14.9789 15.1569C14.0619 15.539 13.0556 15.75 12.0001 15.75C10.9445 15.75 9.93822 15.539 9.02117 15.1569ZM18.5001 19.75C18.0858 19.75 17.7501 20.0858 17.7501 20.5C17.7501 20.9142 18.0858 21.25 18.5001 21.25C18.9143 21.25 19.2501 20.9142 19.2501 20.5C19.2501 20.0858 18.9143 19.75 18.5001 19.75Z" fill="black"/>
</g>
</g>
</g>
<defs>
<clipPath id="clip0_232_7953">
<rect width="24" height="24" rx="5" fill="white"/>
</clipPath>
</defs>
</svg>
