<svg width="24" height="24" viewBox="0 0 24 24" fill="none" xmlns="http://www.w3.org/2000/svg">
<g id="beach-bag">
<g clip-path="url(#clip0_232_2543)">
<g id="Weight=Dynamic">
<path id="Vector (Stroke)" fill-rule="evenodd" clip-rule="evenodd" d="M7.25003 5C7.25003 3.48122 8.48124 2.25 10 2.25H14C15.5188 2.25 16.75 3.48122 16.75 5V8.25H21.2736C22.1215 8.25 22.7595 9.02236 22.5994 9.85494L21.9699 13.1279L20.8196 20.6053C20.7183 21.2638 20.1516 21.75 19.4853 21.75H4.51478C3.84846 21.75 3.2818 21.2639 3.18048 20.6053L2.03011 13.1279L1.4007 9.85494C1.24058 9.02236 1.87857 8.25 2.72641 8.25H7.25003V5ZM8.75003 8.25H15.25V5C15.25 4.30964 14.6904 3.75 14 3.75H10C9.30967 3.75 8.75003 4.30964 8.75003 5V8.25ZM3.64347 13.75L4.02808 16.25H19.972L20.3566 13.75H3.64347ZM20.6113 12.25L21.0921 9.75H2.908L3.38877 12.25H20.6113ZM19.7412 17.75H4.25885L4.64347 20.25H19.3566L19.7412 17.75Z" fill="black"/>
</g>
</g>
</g>
<defs>
<clipPath id="clip0_232_2543">
<rect width="24" height="24" rx="5" fill="white"/>
</clipPath>
</defs>
</svg>
