<svg width="24" height="24" viewBox="0 0 24 24" fill="none" xmlns="http://www.w3.org/2000/svg">
<g id="bed-ready">
<g clip-path="url(#clip0_232_9336)">
<g id="Weight=Dynamic">
<path id="Vector (Stroke)" fill-rule="evenodd" clip-rule="evenodd" d="M2.25 4C2.25 2.48122 3.48122 1.25 5 1.25H19C20.5188 1.25 21.75 2.48122 21.75 4V16C21.75 16.4142 21.4142 16.75 21 16.75C20.5858 16.75 20.25 16.4142 20.25 16V8.75L13 8.75C12.8011 8.75 12.6103 8.67098 12.4697 8.53033C12.329 8.38968 12.25 8.19891 12.25 8V6C12.25 5.58579 12.5858 5.25 13 5.25C13.4142 5.25 13.75 5.58579 13.75 6V7.25L20.25 7.25V4C20.25 3.30964 19.6904 2.75 19 2.75H5C4.30964 2.75 3.75 3.30964 3.75 4V7.25L10.25 7.25V6C10.25 5.58579 10.5858 5.25 11 5.25C11.4142 5.25 11.75 5.58579 11.75 6V8C11.75 8.19891 11.671 8.38968 11.5303 8.53033C11.3897 8.67098 11.1989 8.75 11 8.75L3.75 8.75V20C3.75 20.6904 4.30965 21.25 5 21.25H14C14.4142 21.25 14.75 21.5858 14.75 22C14.75 22.4142 14.4142 22.75 14 22.75H5C3.48122 22.75 2.25 21.5188 2.25 20V4ZM22.5303 17.4697C22.8232 17.7626 22.8232 18.2374 22.5303 18.5303L18.5303 22.5303C18.2374 22.8232 17.7626 22.8232 17.4697 22.5303L15.4697 20.5303C15.1768 20.2374 15.1768 19.7626 15.4697 19.4697C15.7626 19.1768 16.2374 19.1768 16.5303 19.4697L18 20.9393L21.4697 17.4697C21.7626 17.1768 22.2374 17.1768 22.5303 17.4697Z" fill="black"/>
</g>
</g>
</g>
<defs>
<clipPath id="clip0_232_9336">
<rect width="24" height="24" rx="5" fill="white"/>
</clipPath>
</defs>
</svg>
