<svg width="24" height="24" viewBox="0 0 24 24" fill="none" xmlns="http://www.w3.org/2000/svg">
<g id="behance">
<g clip-path="url(#clip0_232_14129)">
<g id="Weight=Dynamic">
<path id="Vector (Stroke)" fill-rule="evenodd" clip-rule="evenodd" d="M1.25 5C1.25 4.58579 1.58579 4.25 2 4.25H8.19718C9.62136 4.25 10.7632 4.68942 11.557 5.41943C12.3479 6.14679 12.75 7.12539 12.75 8.1087C12.75 9.092 12.3479 10.0706 11.557 10.798C11.3784 10.9622 11.1823 11.1117 10.9692 11.2448C11.192 11.3942 11.396 11.5626 11.5805 11.7477C12.3638 12.5336 12.75 13.5761 12.75 14.6087C12.75 15.6413 12.3638 16.6838 11.5805 17.4697C10.7899 18.2628 9.64022 18.75 8.19718 18.75H2C1.58579 18.75 1.25 18.4142 1.25 18V5ZM8.19718 10.4674C9.30822 10.4674 10.0678 10.1296 10.5416 9.69388C11.0183 9.25549 11.25 8.67973 11.25 8.1087C11.25 7.53766 11.0183 6.9619 10.5416 6.52351C10.0678 6.08776 9.30822 5.75 8.19718 5.75H2.75V10.4674H8.19718ZM2.75 11.9674H8.19718C9.28936 11.9674 10.041 12.328 10.5181 12.8066C11.0024 13.2925 11.25 13.9456 11.25 14.6087C11.25 15.2718 11.0024 15.9249 10.5181 16.4108C10.041 16.8894 9.28936 17.25 8.19718 17.25H2.75V11.9674ZM14.75 6C14.75 5.58579 15.0858 5.25 15.5 5.25H20.5C20.9142 5.25 21.25 5.58579 21.25 6C21.25 6.41421 20.9142 6.75 20.5 6.75H15.5C15.0858 6.75 14.75 6.41421 14.75 6ZM14.814 14.25H22C22.4142 14.25 22.75 13.9142 22.75 13.5C22.75 10.686 20.704 8.25 18 8.25C15.296 8.25 13.25 10.686 13.25 13.5C13.25 16.314 15.296 18.75 18 18.75C19.5808 18.75 20.6368 18.1685 21.2976 17.5458C21.6214 17.2406 21.8418 16.9341 21.9831 16.6993C22.054 16.5816 22.1057 16.4808 22.1412 16.4054C22.1589 16.3677 22.1727 16.3361 22.1829 16.3119C22.1879 16.2998 22.1921 16.2894 22.1954 16.281L22.1998 16.2699L22.2015 16.2654L22.2022 16.2635C22.2024 16.2631 22.2028 16.2617 21.5 16L22.2028 16.2617C22.3474 15.8736 22.1499 15.4417 21.7617 15.2972C21.376 15.1535 20.9471 15.3476 20.7999 15.731C20.7997 15.7315 20.7994 15.7322 20.7991 15.733C20.7969 15.7381 20.792 15.7495 20.7841 15.7665C20.768 15.8005 20.74 15.8559 20.698 15.9257C20.6136 16.0659 20.4756 16.2594 20.2689 16.4542C19.8685 16.8315 19.1745 17.25 18 17.25C16.4913 17.25 15.121 16.0159 14.814 14.25ZM18 9.75C16.4913 9.75 15.121 10.9841 14.814 12.75H21.186C20.879 10.9841 19.5087 9.75 18 9.75Z" fill="black"/>
</g>
</g>
</g>
<defs>
<clipPath id="clip0_232_14129">
<rect width="24" height="24" rx="5" fill="white"/>
</clipPath>
</defs>
</svg>
