<svg width="24" height="24" viewBox="0 0 24 24" fill="none" xmlns="http://www.w3.org/2000/svg">
<g id="behance-tag">
<g clip-path="url(#clip0_232_14115)">
<g id="Weight=Dynamic">
<path id="Vector (Stroke)" fill-rule="evenodd" clip-rule="evenodd" d="M2.25 8C2.25 4.82436 4.82436 2.25 8 2.25H16C19.1756 2.25 21.75 4.82436 21.75 8V16C21.75 19.1756 19.1756 21.75 16 21.75H8C4.82436 21.75 2.25 19.1756 2.25 16V8ZM8 3.75C5.65279 3.75 3.75 5.65279 3.75 8V16C3.75 18.3472 5.65279 20.25 8 20.25H16C18.3472 20.25 20.25 18.3472 20.25 16V8C20.25 5.65279 18.3472 3.75 16 3.75H8ZM5.25 8C5.25 7.58579 5.58579 7.25 6 7.25H9.09859C9.93752 7.25 10.621 7.57415 11.0867 8.10125C11.5399 8.61422 11.75 9.27621 11.75 9.91304C11.75 10.5499 11.5399 11.2119 11.0867 11.7248C11.049 11.7676 11.0098 11.809 10.9692 11.849C11.0174 11.8995 11.0635 11.9519 11.1075 12.0062C11.5499 12.5526 11.75 13.2493 11.75 13.913C11.75 14.5768 11.5499 15.2735 11.1075 15.8198C10.65 16.3847 9.96158 16.75 9.09859 16.75H6C5.58579 16.75 5.25 16.4142 5.25 16V8ZM9.09859 11.0761C9.52727 11.0761 9.79447 10.922 9.96258 10.7317C10.1432 10.5273 10.25 10.2327 10.25 9.91304C10.25 9.59335 10.1432 9.29883 9.96258 9.0944C9.79447 8.90412 9.52727 8.75 9.09859 8.75H6.75V11.0761H9.09859ZM6.75 12.5761H9.09859C9.50321 12.5761 9.76546 12.7325 9.94181 12.9503C10.1332 13.1866 10.25 13.5333 10.25 13.913C10.25 14.2928 10.1332 14.6395 9.94181 14.8758C9.76546 15.0936 9.50321 15.25 9.09859 15.25H6.75V12.5761ZM13.25 8.5C13.25 8.08579 13.5858 7.75 14 7.75H17C17.4142 7.75 17.75 8.08579 17.75 8.5C17.75 8.91421 17.4142 9.25 17 9.25H14C13.5858 9.25 13.25 8.91421 13.25 8.5ZM13.9184 14.25H18C18.4142 14.25 18.75 13.9142 18.75 13.5C18.75 11.7051 17.2949 10.25 15.5 10.25C13.7051 10.25 12.25 11.7051 12.25 13.5C12.25 15.2949 13.7051 16.75 15.5 16.75C16.6212 16.75 17.3646 16.3531 17.8215 15.9311C18.1258 15.6501 18.1446 15.1756 17.8635 14.8713C17.5825 14.567 17.108 14.5482 16.8037 14.8292C16.6165 15.0022 16.2339 15.25 15.5 15.25C14.8019 15.25 14.1993 14.8412 13.9184 14.25ZM15.5 11.75C14.8019 11.75 14.1993 12.1588 13.9184 12.75H17.0816C16.8007 12.1588 16.1981 11.75 15.5 11.75Z" fill="black"/>
</g>
</g>
</g>
<defs>
<clipPath id="clip0_232_14115">
<rect width="24" height="24" rx="5" fill="white"/>
</clipPath>
</defs>
</svg>
