<svg width="24" height="24" viewBox="0 0 24 24" fill="none" xmlns="http://www.w3.org/2000/svg">
<g id="bell">
<g clip-path="url(#clip0_232_3281)">
<g id="Weight=Dynamic">
<path id="Vector (Stroke)" fill-rule="evenodd" clip-rule="evenodd" d="M7.21026 3.36156C8.47184 2.01587 10.1937 1.25 12.0001 1.25C13.8065 1.25 15.5283 2.01587 16.7898 3.36156C18.0499 4.70561 18.7501 6.51876 18.7501 8.4C18.7501 12.0306 19.4787 14.3109 20.1678 15.6585C20.5131 16.3338 20.8518 16.7814 21.0921 17.052C21.2124 17.1875 21.3086 17.2792 21.3694 17.3332C21.3998 17.3602 21.4214 17.3779 21.4328 17.3869L21.4415 17.3937C21.7026 17.5837 21.8129 17.9199 21.7145 18.2281C21.6153 18.539 21.3264 18.75 21.0001 18.75H3.00005C2.67373 18.75 2.38485 18.539 2.28559 18.2281C2.18718 17.9199 2.29755 17.5837 2.55863 17.3937L2.56735 17.3869C2.57869 17.3779 2.60028 17.3602 2.63069 17.3332C2.69148 17.2792 2.7877 17.1875 2.90804 17.052C3.14835 16.7814 3.48701 16.3338 3.8323 15.6585C4.52142 14.3109 5.25005 12.0306 5.25005 8.4C5.25005 6.51876 5.95021 4.70561 7.21026 3.36156ZM19.3612 17.25C19.189 16.9905 19.01 16.689 18.8323 16.3415C18.0214 14.7558 17.2501 12.2361 17.2501 8.4C17.2501 6.88647 16.6859 5.44389 15.6955 4.38747C14.7067 3.33269 13.3762 2.75 12.0001 2.75C10.6239 2.75 9.29342 3.33269 8.30457 4.38747C7.31417 5.44389 6.75005 6.88647 6.75005 8.4C6.75005 12.2361 5.97869 14.7558 5.16781 16.3415C4.99009 16.689 4.81108 16.9905 4.63891 17.25H19.3612ZM9.89374 20.3512C10.252 20.1434 10.711 20.2654 10.9188 20.6237C11.0287 20.8131 11.1864 20.9703 11.3762 21.0796C11.5659 21.1889 11.7811 21.2465 12.0001 21.2465C12.2191 21.2465 12.4342 21.1889 12.624 21.0796C12.8137 20.9703 12.9714 20.8131 13.0813 20.6237C13.2892 20.2654 13.7481 20.1434 14.1064 20.3512C14.4647 20.5591 14.5867 21.018 14.3788 21.3763C14.1371 21.7931 13.7901 22.139 13.3726 22.3794C12.9552 22.6199 12.4818 22.7465 12.0001 22.7465C11.5183 22.7465 11.045 22.6199 10.6275 22.3794C10.21 22.139 9.86306 21.7931 9.62132 21.3763C9.41348 21.018 9.53545 20.5591 9.89374 20.3512Z" fill="black"/>
</g>
</g>
</g>
<defs>
<clipPath id="clip0_232_3281">
<rect width="24" height="24" rx="5" fill="white"/>
</clipPath>
</defs>
</svg>
