<svg width="24" height="24" viewBox="0 0 24 24" fill="none" xmlns="http://www.w3.org/2000/svg">
<g id="bell-notification">
<g clip-path="url(#clip0_232_2966)">
<g id="Weight=Dynamic">
<g id="Vector">
<path fill-rule="evenodd" clip-rule="evenodd" d="M19.0001 2.75C17.7574 2.75 16.7501 3.75736 16.7501 5C16.7501 6.24264 17.7574 7.25 19.0001 7.25C20.2427 7.25 21.2501 6.24264 21.2501 5C21.2501 3.75736 20.2427 2.75 19.0001 2.75ZM15.2501 5C15.2501 2.92893 16.929 1.25 19.0001 1.25C21.0711 1.25 22.7501 2.92893 22.7501 5C22.7501 7.07107 21.0711 8.75 19.0001 8.75C16.929 8.75 15.2501 7.07107 15.2501 5Z" fill="black"/>
<path fill-rule="evenodd" clip-rule="evenodd" d="M9.89374 20.3512C10.252 20.1434 10.711 20.2654 10.9188 20.6237C11.0287 20.8131 11.1864 20.9703 11.3762 21.0796C11.5659 21.1889 11.7811 21.2465 12.0001 21.2465C12.2191 21.2465 12.4342 21.1889 12.624 21.0796C12.8137 20.9703 12.9714 20.8131 13.0813 20.6237C13.2892 20.2654 13.7481 20.1434 14.1064 20.3512C14.4647 20.5591 14.5867 21.018 14.3788 21.3763C14.1371 21.7931 13.7901 22.139 13.3726 22.3794C12.9552 22.6199 12.4818 22.7465 12.0001 22.7465C11.5183 22.7465 11.045 22.6199 10.6275 22.3794C10.21 22.139 9.86306 21.7931 9.62132 21.3763C9.41348 21.018 9.53545 20.5591 9.89374 20.3512Z" fill="black"/>
<path fill-rule="evenodd" clip-rule="evenodd" d="M7.21026 3.36156C8.47184 2.01587 10.1937 1.25 12.0001 1.25C12.3823 1.25 12.7613 1.28434 13.1331 1.35139C13.5408 1.42489 13.8116 1.81493 13.7382 2.22257C13.6647 2.63021 13.2746 2.90108 12.867 2.82759C12.5823 2.77626 12.2924 2.75 12.0001 2.75C10.6239 2.75 9.29342 3.33269 8.30457 4.38747C7.31417 5.44389 6.75005 6.88647 6.75005 8.4C6.75005 12.2361 5.97869 14.7558 5.16781 16.3415C4.99009 16.689 4.81108 16.9905 4.63891 17.25H12.0001C12.4143 17.25 12.7501 17.5858 12.7501 18C12.7501 18.4142 12.4143 18.75 12.0001 18.75H3.00005C2.67373 18.75 2.38485 18.539 2.28559 18.2281C2.18718 17.9199 2.29755 17.5837 2.55863 17.3937L2.56735 17.3869C2.57869 17.3779 2.60028 17.3602 2.63069 17.3332C2.69148 17.2792 2.7877 17.1875 2.90804 17.052C3.14835 16.7814 3.48701 16.3338 3.8323 15.6585C4.52142 14.3109 5.25005 12.0306 5.25005 8.4C5.25005 6.51876 5.95021 4.70561 7.21026 3.36156Z" fill="black"/>
<path d="M18.8325 16.3415C19.0102 16.689 19.1892 16.9905 19.3614 17.25L12.0001 17.25C11.5858 17.25 11.2502 17.5858 11.2502 18C11.2502 18.4142 11.5858 18.75 12.0001 18.75L21.0002 18.75C21.3266 18.75 21.6154 18.539 21.7147 18.2281C21.8131 17.9199 21.7027 17.5837 21.4417 17.3937L21.4329 17.3869C21.4216 17.3779 21.4 17.3602 21.3696 17.3332C21.3088 17.2792 21.2126 17.1875 21.0923 17.052C20.8519 16.7814 20.5133 16.3338 20.168 15.6585C19.6495 14.6447 19.1087 13.1029 18.8727 10.8553C18.7828 9.99998 17.2803 10.0492 17.3796 11C17.6325 13.4203 18.2213 15.1462 18.8325 16.3415Z" fill="black"/>
</g>
</g>
</g>
</g>
<defs>
<clipPath id="clip0_232_2966">
<rect width="24" height="24" rx="5" fill="white"/>
</clipPath>
</defs>
</svg>
