<svg width="24" height="24" viewBox="0 0 24 24" fill="none" xmlns="http://www.w3.org/2000/svg">
<g id="bicycle">
<g clip-path="url(#clip0_232_15729)">
<g id="Weight=Dynamic">
<path id="Vector (Stroke)" fill-rule="evenodd" clip-rule="evenodd" d="M16.9014 5.25L18.5 5.25C18.9142 5.25 19.25 4.91421 19.25 4.5C19.25 4.08579 18.9142 3.75 18.5 3.75L14 3.75C13.5858 3.75 13.25 4.08579 13.25 4.5C13.25 4.91421 13.5858 5.25 14 5.25L15.0986 5.25L14.0986 6.75L9.00797 6.75C8.77441 6.23777 8.41463 5.6397 7.92329 5.11326C7.24936 4.39119 6.27265 3.75 5 3.75C4.58579 3.75 4.25 4.08579 4.25 4.5C4.25 4.91421 4.58579 5.25 5 5.25C5.72735 5.25 6.33398 5.60881 6.82671 6.13674C7.22786 6.56654 7.51675 7.07247 7.68635 7.47001L6.30439 10.4313C5.88994 10.3132 5.45235 10.25 5 10.25C2.37665 10.25 0.25 12.3766 0.25 15C0.25 17.6234 2.37665 19.75 5 19.75C7.62335 19.75 9.75 17.6234 9.75 15C9.75 13.3637 8.9226 11.9206 7.66335 11.0664L8.5479 9.1709L11.3396 14.3556C11.4705 14.5985 11.7241 14.75 12 14.75L14.2565 14.75C14.2522 14.8328 14.25 14.9161 14.25 15C14.25 17.6234 16.3766 19.75 19 19.75C21.6234 19.75 23.75 17.6234 23.75 15C23.75 12.3766 21.6234 10.25 19 10.25C18.4587 10.25 17.9386 10.3405 17.4539 10.5073L15.6618 7.14706C15.6581 7.14013 15.6543 7.13328 15.6504 7.1265L16.9014 5.25ZM14.55 8.25L9.75566 8.25L12.448 13.25L14.5828 13.25C14.905 12.4373 15.445 11.7347 16.1309 11.2141L14.55 8.25ZM16.8501 12.5627C16.1755 13.1582 15.75 14.0294 15.75 15C15.75 16.7949 17.2051 18.25 19 18.25C20.7949 18.25 22.25 16.7949 22.25 15C22.25 13.2051 20.7949 11.75 19 11.75C18.7143 11.75 18.4372 11.7869 18.1733 11.8561L19.6618 14.6471C19.8567 15.0125 19.7184 15.4668 19.3529 15.6618C18.9875 15.8567 18.5332 15.7184 18.3382 15.3529L16.8501 12.5627ZM5.65792 11.8166L4.32036 14.6828C4.1452 15.0582 4.30748 15.5045 4.68284 15.6796C5.05819 15.8548 5.50447 15.6925 5.67964 15.3172L7.01698 12.4514C7.76815 13.0467 8.25 13.9671 8.25 15C8.25 16.7949 6.79493 18.25 5 18.25C3.20507 18.25 1.75 16.7949 1.75 15C1.75 13.2051 3.20507 11.75 5 11.75C5.2254 11.75 5.44545 11.7729 5.65792 11.8166Z" fill="black"/>
</g>
</g>
</g>
<defs>
<clipPath id="clip0_232_15729">
<rect width="24" height="24" rx="5" fill="white"/>
</clipPath>
</defs>
</svg>
