<svg width="24" height="24" viewBox="0 0 24 24" fill="none" xmlns="http://www.w3.org/2000/svg">
<g id="bin-full">
<g clip-path="url(#clip0_232_14692)">
<g id="Weight=Dynamic">
<path id="Vector (Stroke)" fill-rule="evenodd" clip-rule="evenodd" d="M4.79044 1.14917L9.40952 2.58719L10.0173 1.25H16.1447L20.8452 3.13019C21.419 3.3597 21.7636 3.9495 21.682 4.56205L20.0053 17.1369C19.8095 18.6053 18.9399 19.8983 17.6536 20.6333L17.3338 20.8161C14.0289 22.7046 9.97167 22.7046 6.66677 20.8161L6.34689 20.6333C5.06068 19.8983 4.19101 18.6053 3.99522 17.1369L2.29603 4.39303C2.24046 3.97623 2.38227 3.55734 2.6796 3.26001L4.79044 1.14917ZM8.90443 4.00095L5.2101 2.85083L3.79267 4.26825L3.8558 4.74174C4.06933 4.88937 4.34698 5.03835 4.69388 5.18225C5.24042 5.40896 5.91543 5.60534 6.68829 5.76564C7.20862 5.87356 7.76635 5.96371 8.34947 6.03582L8.90443 4.00095ZM9.86515 6.17919C10.5631 6.22627 11.2806 6.25 12.0003 6.25C12.5054 6.25 13.0095 6.23831 13.5065 6.21505L14.8925 2.75H10.9832L10.5262 3.75549L9.86515 6.17919ZM16.4181 2.9749L20.1797 4.47954L20.1447 4.74173C19.9312 4.88936 19.6536 5.03834 19.3067 5.18224C18.7601 5.40895 18.0851 5.60533 17.3122 5.76563C16.651 5.90278 15.9293 6.01123 15.1719 6.09044L16.4181 2.9749ZM19.9024 6.559C19.8954 6.56193 19.8884 6.56485 19.8814 6.56777C19.2226 6.84105 18.4511 7.06133 17.6169 7.23437C15.9482 7.58046 13.9669 7.75 12.0003 7.75C10.0337 7.75 8.05232 7.58047 6.38367 7.23438C5.54939 7.06135 4.77797 6.84107 4.11915 6.56778C4.11213 6.56487 4.10511 6.56194 4.09811 6.55901L5.48206 16.9387C5.61602 17.9434 6.21106 18.8281 7.0911 19.3309L7.41098 19.5137C10.2547 21.1387 13.7458 21.1387 16.5896 19.5137L16.9094 19.3309C17.7895 18.8281 18.3845 17.9434 18.5185 16.9387L19.9024 6.559Z" fill="black"/>
</g>
</g>
</g>
<defs>
<clipPath id="clip0_232_14692">
<rect width="24" height="24" rx="5" fill="white"/>
</clipPath>
</defs>
</svg>
