<svg width="24" height="24" viewBox="0 0 24 24" fill="none" xmlns="http://www.w3.org/2000/svg">
<g id="bin-minus-in">
<g clip-path="url(#clip0_232_14714)">
<g id="Weight=Dynamic">
<path id="Vector (Stroke)" fill-rule="evenodd" clip-rule="evenodd" d="M3.80115 4.33503L3.85537 4.74172C4.0689 4.88935 4.34655 5.03834 4.69346 5.18223C5.23999 5.40894 5.915 5.60533 6.68787 5.76562C8.23351 6.08619 10.1093 6.24998 11.9998 6.24998C13.8904 6.24998 15.7662 6.08618 17.3118 5.76561C18.0847 5.60531 18.7597 5.40893 19.3062 5.18222C19.6531 5.03832 19.9308 4.88934 20.1443 4.74171L20.1985 4.33503C19.4735 3.87075 17.1882 2.75 11.9998 2.75C6.8115 2.75 4.52622 3.87075 3.80115 4.33503ZM19.902 6.55898C19.895 6.56191 19.888 6.56484 19.881 6.56775C19.2221 6.84104 18.4507 7.06132 17.6164 7.23435C15.9478 7.58044 13.9665 7.74998 11.9998 7.74998C10.0332 7.74998 8.05189 7.58045 6.38324 7.23436C5.54896 7.06133 4.77755 6.84105 4.11872 6.56776C4.1117 6.56485 4.10469 6.56193 4.09768 6.559L5.48164 16.9387C5.6156 17.9434 6.21063 18.8281 7.09068 19.3309L7.41056 19.5137C10.2543 21.1387 13.7454 21.1387 16.5891 19.5137L16.909 19.3309C17.7891 18.8281 18.3841 17.9434 18.518 16.9387L19.902 6.55898ZM2.79617 3.20403C3.64769 2.59774 6.19738 1.25 11.9998 1.25C17.8023 1.25 20.352 2.59774 21.2035 3.20403C21.6198 3.5004 21.759 3.98112 21.7041 4.39303L20.0049 17.1369C19.8091 18.6053 18.9394 19.8983 17.6532 20.6333L17.3333 20.8161C14.0284 22.7046 9.97125 22.7046 6.66634 20.8161L6.34647 20.6333C5.06025 19.8983 4.19058 18.6053 3.99479 17.1369L2.29561 4.39303C2.24069 3.98112 2.37992 3.5004 2.79617 3.20403ZM8.24203 13C8.24203 12.5858 8.57781 12.25 8.99203 12.25H14.992C15.4062 12.25 15.742 12.5858 15.742 13C15.742 13.4142 15.4062 13.75 14.992 13.75H8.99203C8.57781 13.75 8.24203 13.4142 8.24203 13Z" fill="black"/>
</g>
</g>
</g>
<defs>
<clipPath id="clip0_232_14714">
<rect width="24" height="24" rx="5" fill="white"/>
</clipPath>
</defs>
</svg>
