<svg width="24" height="24" viewBox="0 0 24 24" fill="none" xmlns="http://www.w3.org/2000/svg">
<g id="binocular">
<g clip-path="url(#clip0_232_11486)">
<g id="Weight=Dynamic">
<path id="Vector (Stroke)" fill-rule="evenodd" clip-rule="evenodd" d="M6.92772 4.68846C7.34547 4.40996 7.86876 4.25 8.5 4.25C9.13124 4.25 9.65453 4.40996 10.0723 4.68846C10.4853 4.96383 10.7513 5.32562 10.9208 5.66459C11.0231 5.86921 11.0929 6.07046 11.1407 6.25H12.8593C12.9071 6.07046 12.9769 5.86921 13.0792 5.66459C13.2487 5.32562 13.5147 4.96383 13.9277 4.68846C14.3455 4.40996 14.8688 4.25 15.5 4.25C16.1312 4.25 16.6545 4.40996 17.0723 4.68846C17.4853 4.96383 17.7513 5.32562 17.9208 5.66459C18.0349 5.89265 18.1085 6.11654 18.1563 6.31083C19.0822 6.48873 19.7088 7.02844 20.1 7.55C20.3341 7.86209 20.4876 8.17022 20.5829 8.39904C20.631 8.51444 20.6655 8.61246 20.6886 8.68456C20.7002 8.72069 20.7091 8.75054 20.7155 8.77309L20.7215 8.79495L22.2184 13.7845C22.2243 13.8043 22.2294 13.8241 22.2336 13.844C22.5638 14.491 22.75 15.2238 22.75 16C22.75 18.6234 20.6234 20.75 18 20.75C15.5249 20.75 13.492 18.857 13.2701 16.4398C12.8902 16.638 12.4582 16.75 12 16.75C11.5418 16.75 11.1098 16.638 10.7299 16.4398C10.508 18.857 8.47508 20.75 6 20.75C3.37665 20.75 1.25 18.6234 1.25 16C1.25 15.2238 1.4362 14.491 1.76637 13.844C1.77061 13.8241 1.77569 13.8043 1.78163 13.7845L3.27849 8.79497L3.28451 8.77309C3.2909 8.75054 3.29976 8.72069 3.31137 8.68456C3.33454 8.61246 3.36898 8.51444 3.41707 8.39904C3.51241 8.17022 3.66593 7.86209 3.9 7.55C4.29117 7.02844 4.91778 6.48873 5.84367 6.31083C5.89153 6.11653 5.96515 5.89265 6.07918 5.66459C6.24867 5.32562 6.51467 4.96383 6.92772 4.68846ZM7.25 7.00071C7.25 7.00238 7.24999 7.00404 7.24998 7.0057C7.24691 7.41729 6.91231 7.75 6.5 7.75C5.79464 7.75 5.37264 8.08649 5.1 8.45C4.95907 8.63791 4.86259 8.82978 4.80168 8.97596C4.77164 9.04806 4.75139 9.10629 4.73941 9.14357C4.73345 9.16213 4.72961 9.17524 4.7277 9.18199L4.72637 9.18678C4.72389 9.19641 4.72123 9.20599 4.71837 9.21551L3.97199 11.7035C4.58702 11.4126 5.27452 11.25 6 11.25C7.39572 11.25 8.65083 11.852 9.51989 12.8104C9.96347 11.8873 10.9073 11.25 12 11.25C13.0927 11.25 14.0365 11.8873 14.4801 12.8105C15.3492 11.852 16.6043 11.25 18 11.25C18.7255 11.25 19.413 11.4126 20.028 11.7035L19.2816 9.21551C19.2788 9.20598 19.2761 9.1964 19.2736 9.18677M7.25 7.00071L7.25007 7.00253L7.25 7.00071ZM7.25007 7.00253L7.24998 7.0057C7.24997 7.00617 7.24998 7.00587 7.24998 7.0057M7.25007 7.00253C7.25027 6.99672 7.25077 6.98474 7.252 6.9675C7.25448 6.93275 7.25981 6.87821 7.27105 6.8108C7.29411 6.67242 7.33884 6.49937 7.42082 6.33541C7.50133 6.17438 7.61033 6.03617 7.75978 5.93654C7.90453 5.84004 8.13124 5.75 8.5 5.75C8.86876 5.75 9.09547 5.84004 9.24022 5.93654C9.38967 6.03617 9.49867 6.17438 9.57918 6.33541C9.66116 6.49937 9.70589 6.67242 9.72895 6.8108C9.74019 6.87821 9.74552 6.93275 9.748 6.9675C9.74923 6.98474 9.74973 6.99672 9.74993 7.00253C9.74996 7.00359 9.74999 7.00444 9.75001 7.00507C9.75 7.0049 9.75001 7.00531 9.75001 7.00507C9.75307 7.41667 10.0877 7.75 10.5 7.75H13.5C13.914 7.75 14.2496 7.4146 14.25 7.00071L14.2501 7.00253L14.25 7.0045L14.25 7.00633C14.25 7.00642 14.25 7.00644 14.25 7.00633C14.25 7.006 14.25 7.00472 14.2501 7.00253C14.2503 6.99672 14.2508 6.98474 14.252 6.9675C14.2545 6.93275 14.2598 6.87821 14.271 6.8108C14.2941 6.67242 14.3388 6.49937 14.4208 6.33541C14.5013 6.17438 14.6103 6.03617 14.7598 5.93654C14.9045 5.84004 15.1312 5.75 15.5 5.75C15.8688 5.75 16.0955 5.84004 16.2402 5.93654C16.3897 6.03617 16.4987 6.17438 16.5792 6.33541C16.6612 6.49937 16.7059 6.67242 16.729 6.8108C16.7402 6.87821 16.7455 6.93275 16.748 6.9675C16.7492 6.98474 16.7497 6.99672 16.7499 7.00253C16.75 7.00472 16.75 7.006 16.75 7.00633C16.75 7.00642 16.75 7.00644 16.75 7.00633L16.75 7.0045L16.7499 7.00253C16.7508 7.41599 17.0863 7.75 17.5 7.75C18.2054 7.75 18.6274 8.08649 18.9 8.45C19.0409 8.63791 19.1374 8.82978 19.1983 8.97596C19.2284 9.04806 19.2486 9.10629 19.2606 9.14357C19.2666 9.16213 19.2704 9.17524 19.2723 9.18199L19.2736 9.18677L19.273 9.18423L19.2727 9.18315M7.24998 7.0057C7.24997 7.00617 7.24998 7.00587 7.24998 7.0057V7.0057ZM7.24998 7.0057C7.24999 7.00506 7.25002 7.004 7.25007 7.00253L7.24998 7.0057ZM6 12.75C4.20507 12.75 2.75 14.2051 2.75 16C2.75 17.7949 4.20507 19.25 6 19.25C7.79493 19.25 9.25 17.7949 9.25 16C9.25 14.2051 7.79493 12.75 6 12.75ZM12 12.75C11.3096 12.75 10.75 13.3096 10.75 14C10.75 14.6904 11.3096 15.25 12 15.25C12.6904 15.25 13.25 14.6904 13.25 14C13.25 13.3096 12.6904 12.75 12 12.75ZM18 12.75C16.2051 12.75 14.75 14.2051 14.75 16C14.75 17.7949 16.2051 19.25 18 19.25C19.7949 19.25 21.25 17.7949 21.25 16C21.25 14.2051 19.7949 12.75 18 12.75Z" fill="black"/>
</g>
</g>
</g>
<defs>
<clipPath id="clip0_232_11486">
<rect width="24" height="24" rx="5" fill="white"/>
</clipPath>
</defs>
</svg>
