<svg width="24" height="24" viewBox="0 0 24 24" fill="none" xmlns="http://www.w3.org/2000/svg">
<g id="birthday-cake">
<g clip-path="url(#clip0_232_1756)">
<g id="Weight=Dynamic">
<path id="Vector (Stroke)" fill-rule="evenodd" clip-rule="evenodd" d="M12.4887 1.4311L12 2L11.5113 1.4311C11.7924 1.18963 12.2076 1.18963 12.4887 1.4311ZM12.75 8.65352C13.2751 8.51117 13.7279 8.21227 14.07 7.76335C14.5454 7.13936 14.75 6.30168 14.75 5.375C14.75 4.28005 14.1094 3.26447 13.5898 2.60294C13.3165 2.25485 13.0449 1.96549 12.8421 1.76326C12.7402 1.6617 12.6546 1.58099 12.5932 1.52463C12.5625 1.49643 12.5378 1.47425 12.52 1.45853L12.4988 1.43983L12.4923 1.4342L12.4902 1.43233L12.4887 1.4311C12.4886 1.43097 12.4887 1.4311 12 2C11.5113 1.4311 11.5114 1.43097 11.5113 1.4311L11.5098 1.43233L11.5077 1.4342L11.5012 1.43983L11.48 1.45853C11.4622 1.47425 11.4375 1.49643 11.4068 1.52463C11.3454 1.58099 11.2598 1.6617 11.1579 1.76326C10.9551 1.96549 10.6835 2.25485 10.4102 2.60294C9.89062 3.26447 9.25 4.28005 9.25 5.375C9.25 6.30168 9.45462 7.13936 9.93004 7.76335C10.2721 8.21227 10.7249 8.51117 11.25 8.65352L11.25 10.25H5C3.48122 10.25 2.25 11.4812 2.25 13V14C2.25 14.9845 2.62941 15.8805 3.25 16.5495V20C3.25 21.5188 4.48122 22.75 6 22.75H18C19.5188 22.75 20.75 21.5188 20.75 20V16.5495C21.3706 15.8805 21.75 14.9845 21.75 14V13C21.75 11.4812 20.5188 10.25 19 10.25H12.75L12.75 8.65352ZM5 11.75C4.30964 11.75 3.75 12.3096 3.75 13V14C3.75 15.2426 4.75736 16.25 6 16.25C7.24264 16.25 8.25 15.2426 8.25 14C8.25 13.5858 8.58579 13.25 9 13.25C9.41421 13.25 9.75 13.5858 9.75 14C9.75 15.2426 10.7574 16.25 12 16.25C13.2426 16.25 14.25 15.2426 14.25 14C14.25 13.5858 14.5858 13.25 15 13.25C15.4142 13.25 15.75 13.5858 15.75 14C15.75 15.2426 16.7574 16.25 18 16.25C19.2426 16.25 20.25 15.2426 20.25 14V13C20.25 12.3096 19.6904 11.75 19 11.75H5ZM15 16.2504C14.3158 17.161 13.2267 17.75 12 17.75C10.7733 17.75 9.68417 17.161 9 16.2504C8.31583 17.161 7.2267 17.75 6 17.75C5.56171 17.75 5.14097 17.6748 4.75 17.5366V20C4.75 20.6904 5.30964 21.25 6 21.25H18C18.6904 21.25 19.25 20.6904 19.25 20V17.5366C18.859 17.6748 18.4383 17.75 18 17.75C16.7733 17.75 15.6842 17.161 15 16.2504ZM12 3.05045C11.8718 3.18851 11.7305 3.35033 11.5898 3.52942C11.1094 4.14118 10.75 4.8131 10.75 5.375C10.75 6.10518 10.9142 6.57999 11.1232 6.85429C11.3115 7.10145 11.5823 7.25 12 7.25C12.4177 7.25 12.6885 7.10145 12.8768 6.85429C13.0858 6.57999 13.25 6.10518 13.25 5.375C13.25 4.8131 12.8906 4.14118 12.4102 3.52942C12.2695 3.35033 12.1282 3.18851 12 3.05045ZM11.5106 2.5683C11.5105 2.56819 11.5105 2.5682 11.5106 2.5683V2.5683Z" fill="black"/>
</g>
</g>
</g>
<defs>
<clipPath id="clip0_232_1756">
<rect width="24" height="24" rx="5" fill="white"/>
</clipPath>
</defs>
</svg>
