<svg width="24" height="24" viewBox="0 0 24 24" fill="none" xmlns="http://www.w3.org/2000/svg">
<g id="bishop">
<g clip-path="url(#clip0_232_8257)">
<g id="Weight=Dynamic">
<path id="Vector (Stroke)" fill-rule="evenodd" clip-rule="evenodd" d="M12 1.25C12.4142 1.25 12.75 1.58579 12.75 2V2.84107C12.8611 2.92007 12.9626 3.01868 13.0496 3.1369C13.522 3.77869 14.2807 4.88051 14.8705 6.08315C15.4386 7.24168 15.9443 8.67688 15.6756 9.90974C15.5593 10.4431 15.3565 10.8886 15.0968 11.2562C15.4653 11.3037 15.75 11.6186 15.75 12C15.75 12.4142 15.4142 12.75 15 12.75H14.6053C14.8362 13.708 15.4176 14.9568 16.14 16.25H17C17.4142 16.25 17.75 16.5858 17.75 17C17.75 17.406 17.4275 17.7366 17.0247 17.7496C17.7207 18.8753 18.4175 19.8958 18.9124 20.5977C19.5432 21.4923 18.9101 22.75 17.8 22.75H6.2C5.08988 22.75 4.45678 21.4923 5.08755 20.5977C5.58249 19.8958 6.2793 18.8753 6.97533 17.7496C6.57254 17.7366 6.25 17.406 6.25 17C6.25 16.5858 6.58578 16.25 7 16.25H7.85997C8.58235 14.9568 9.16376 13.708 9.39473 12.75H9C8.58578 12.75 8.25 12.4142 8.25 12C8.25 11.6186 8.53472 11.3037 8.90322 11.2562C8.6435 10.8886 8.44067 10.4431 8.32441 9.90974C8.05567 8.67688 8.56138 7.24168 9.12954 6.08315C9.71934 4.88051 10.478 3.77869 10.9504 3.1369C11.0374 3.01868 11.1389 2.92007 11.25 2.84107V2C11.25 1.58579 11.5858 1.25 12 1.25ZM12 11.25C12.3927 11.25 12.888 11.1592 13.3071 10.9091C13.7032 10.6727 14.0596 10.2802 14.21 9.59026C14.3608 8.89838 14.0786 7.87522 13.5237 6.74363C13.0496 5.77698 12.4441 4.86361 12 4.24417C11.5559 4.86361 10.9504 5.77698 10.4763 6.74363C9.92135 7.87522 9.63918 8.89838 9.78999 9.59026C9.94039 10.2802 10.2968 10.6727 10.6929 10.9091C11.112 11.1592 11.6073 11.25 12 11.25ZM10.9273 12.75C10.741 13.7831 10.206 15.028 9.56596 16.25H14.434C13.7939 15.028 13.259 13.783 13.0727 12.75L10.9273 12.75ZM15.2722 17.75H8.72778C7.92816 19.1049 7.07373 20.3751 6.46234 21.25H17.5377C16.9263 20.3751 16.0718 19.1049 15.2722 17.75Z" fill="black"/>
</g>
</g>
</g>
<defs>
<clipPath id="clip0_232_8257">
<rect width="24" height="24" rx="5" fill="white"/>
</clipPath>
</defs>
</svg>
