<svg width="24" height="24" viewBox="0 0 24 24" fill="none" xmlns="http://www.w3.org/2000/svg">
<g id="bitbucket">
<g clip-path="url(#clip0_232_8687)">
<g id="Weight=Dynamic">
<path id="Vector (Stroke)" fill-rule="evenodd" clip-rule="evenodd" d="M2.34021 4.76745C2.2395 3.9617 2.86776 3.25 3.67979 3.25H20.3204C21.1325 3.25 21.7607 3.96169 21.66 4.76745L19.81 19.5674C19.7256 20.243 19.1513 20.75 18.4704 20.75H5.52979C4.84896 20.75 4.27466 20.243 4.19021 19.5674L2.34021 4.76745ZM3.84971 4.75L5.66221 19.25H18.338L19.6818 8.5H17.4172L16.5574 15.8077C16.4775 16.4876 15.9013 17 15.2167 17H8.7838C8.09923 17 7.52303 16.4876 7.44304 15.8077L6.58422 8.50773C6.4898 7.70517 7.11687 7 7.92497 7H19.8693L20.1505 4.75H3.84971ZM15.9068 8.5H8.09365L8.91718 15.5H15.0833L15.9068 8.5Z" fill="black"/>
</g>
</g>
</g>
<defs>
<clipPath id="clip0_232_8687">
<rect width="24" height="24" rx="5" fill="white"/>
</clipPath>
</defs>
</svg>
