<svg width="24" height="24" viewBox="0 0 24 24" fill="none" xmlns="http://www.w3.org/2000/svg">
<g id="bitcoin-circle">
<g clip-path="url(#clip0_232_7401)">
<g id="Weight=Dynamic">
<path id="Vector (Stroke)" fill-rule="evenodd" clip-rule="evenodd" d="M1.25 12C1.25 6.06294 6.06294 1.25 12 1.25C17.9371 1.25 22.75 6.06294 22.75 12C22.75 17.9371 17.9371 22.75 12 22.75C6.06294 22.75 1.25 17.9371 1.25 12ZM12 2.75C6.89137 2.75 2.75 6.89137 2.75 12C2.75 17.1086 6.89137 21.25 12 21.25C17.1086 21.25 21.25 17.1086 21.25 12C21.25 6.89137 17.1086 2.75 12 2.75ZM12 4.75C12.4142 4.75 12.75 5.08579 12.75 5.5V6.37066C13.0634 6.41656 13.3606 6.4793 13.6352 6.56475C14.2196 6.74662 14.7698 7.04908 15.1673 7.56443C15.5678 8.0837 15.75 8.73697 15.75 9.5C15.75 10.3306 15.5186 11.0224 15.0407 11.551C14.8822 11.7264 14.7049 11.8745 14.5145 12C14.7049 12.1255 14.8822 12.2736 15.0407 12.449C15.5186 12.9776 15.75 13.6694 15.75 14.5C15.75 15.263 15.5677 15.9163 15.1673 16.4356C14.7698 16.9509 14.2196 17.2534 13.6352 17.4353C13.3606 17.5207 13.0634 17.5834 12.75 17.6293V18.5C12.75 18.9142 12.4142 19.25 12 19.25C11.5858 19.25 11.25 18.9142 11.25 18.5V17.7422C10.7764 17.7539 10.2909 17.7507 9.81003 17.7476C9.73843 17.7471 9.66693 17.7466 9.59559 17.7462C8.85404 17.7419 8.25 17.1403 8.25 16.3941L8.25003 7.60593C8.25003 7.60593 8.25003 7.60594 8.25003 7.60593C8.25003 6.85977 8.85407 6.25813 9.59566 6.25379C9.66699 6.25337 9.73847 6.2529 9.81004 6.25243C10.291 6.24929 10.7764 6.24612 11.25 6.25782V5.5C11.25 5.08579 11.5858 4.75 12 4.75ZM11.0012 11.2496C11.7378 11.2357 12.393 11.1891 12.9426 11.0513C13.4256 10.9303 13.7364 10.7571 13.928 10.5451C14.1064 10.3478 14.25 10.0412 14.25 9.5C14.25 8.97702 14.128 8.67309 13.9795 8.48048C13.8279 8.28395 13.5843 8.11985 13.1895 7.997C12.3752 7.7436 11.2172 7.74444 9.75003 7.75291L9.75001 11.2463C10.1634 11.2435 10.5848 11.2414 11.0012 11.2496ZM9.75 12.7537C10.1634 12.7565 10.5848 12.7586 11.0012 12.7504C11.7378 12.7643 12.393 12.8109 12.9426 12.9487C13.4256 13.0697 13.7364 13.2429 13.928 13.4549C14.1064 13.6522 14.25 13.9588 14.25 14.5C14.25 15.023 14.128 15.3269 13.9795 15.5195C13.8279 15.7161 13.5842 15.8802 13.1895 16.003C12.3752 16.2564 11.2172 16.2556 9.75 16.2471V12.7537Z" fill="black"/>
</g>
</g>
</g>
<defs>
<clipPath id="clip0_232_7401">
<rect width="24" height="24" rx="5" fill="white"/>
</clipPath>
</defs>
</svg>
