<svg width="24" height="24" viewBox="0 0 24 24" fill="none" xmlns="http://www.w3.org/2000/svg">
<g id="bitcoin-rotate-out">
<g clip-path="url(#clip0_232_7295)">
<g id="Weight=Dynamic">
<path id="Vector (Stroke)" fill-rule="evenodd" clip-rule="evenodd" d="M11.9999 2.75C7.20394 2.75 3.25966 6.40058 2.79564 11.0741C2.75472 11.4863 2.3874 11.7873 1.97521 11.7463C1.56302 11.7054 1.26206 11.3381 1.30298 10.9259C1.84241 5.49278 6.42523 1.25 11.9999 1.25C15.9364 1.25 19.3774 3.36573 21.25 6.5199V4C21.25 3.58579 21.5858 3.25 22 3.25C22.4142 3.25 22.75 3.58579 22.75 4V7.4C22.75 8.14559 22.1456 8.75 21.4 8.75H21.1851C21.1738 8.75025 21.1626 8.75025 21.1514 8.75H18C17.5858 8.75 17.25 8.41421 17.25 8C17.25 7.58579 17.5858 7.25 18 7.25H19.939C18.322 4.55329 15.3709 2.75 11.9999 2.75ZM12 4.75C12.4142 4.75 12.75 5.08579 12.75 5.5V6.37066C13.0634 6.41656 13.3606 6.4793 13.6352 6.56475C14.2196 6.74662 14.7698 7.04908 15.1673 7.56443C15.5677 8.0837 15.75 8.73697 15.75 9.5C15.75 10.3306 15.5186 11.0224 15.0407 11.551C14.8822 11.7264 14.7049 11.8745 14.5145 12C14.7049 12.1255 14.8822 12.2736 15.0407 12.449C15.5186 12.9776 15.75 13.6694 15.75 14.5C15.75 15.263 15.5677 15.9163 15.1673 16.4356C14.7698 16.9509 14.2196 17.2534 13.6352 17.4353C13.3606 17.5207 13.0634 17.5834 12.75 17.6293V18.5C12.75 18.9142 12.4142 19.25 12 19.25C11.5858 19.25 11.25 18.9142 11.25 18.5V17.7422C10.7764 17.7539 10.2909 17.7507 9.81002 17.7476C9.73842 17.7471 9.66693 17.7466 9.59559 17.7462C8.85403 17.7419 8.24999 17.1403 8.24999 16.3941L8.25003 7.60593C8.25003 7.60593 8.25003 7.60594 8.25003 7.60593C8.25002 6.85977 8.85406 6.25813 9.59566 6.25379C9.66698 6.25337 9.73846 6.2529 9.81004 6.25243C10.291 6.24929 10.7764 6.24612 11.25 6.25782V5.5C11.25 5.08579 11.5858 4.75 12 4.75ZM11.0012 11.2496C11.7378 11.2357 12.393 11.1891 12.9426 11.0513C13.4256 10.9303 13.7364 10.7571 13.928 10.5451C14.1064 10.3478 14.25 10.0412 14.25 9.5C14.25 8.97702 14.128 8.67309 13.9795 8.48048C13.8279 8.28395 13.5843 8.11985 13.1895 7.997C12.3752 7.7436 11.2172 7.74444 9.75003 7.75291L9.75 11.2463C10.1634 11.2435 10.5848 11.2414 11.0012 11.2496ZM9.74999 12.7537C10.1634 12.7565 10.5848 12.7586 11.0012 12.7504C11.7378 12.7643 12.393 12.8109 12.9426 12.9487C13.4256 13.0697 13.7364 13.2429 13.928 13.4549C14.1064 13.6522 14.25 13.9588 14.25 14.5C14.25 15.023 14.128 15.3269 13.9795 15.5195C13.8279 15.7161 13.5842 15.8802 13.1895 16.003C12.3752 16.2564 11.2172 16.2556 9.74999 16.2471V12.7537ZM22.0741 12.2537C22.4863 12.2946 22.7872 12.6619 22.7463 13.0741C22.2069 18.5072 17.6241 22.75 12.0494 22.75C8.11291 22.75 4.67194 20.6343 2.79931 17.4801V20C2.79931 20.4142 2.46352 20.75 2.04931 20.75C1.6351 20.75 1.29931 20.4142 1.29931 20V16.6C1.29931 15.8544 1.90373 15.25 2.64931 15.25H2.86426C2.87549 15.2497 2.8867 15.2497 2.89788 15.25H6.04931C6.46352 15.25 6.79931 15.5858 6.79931 16C6.79931 16.4142 6.46352 16.75 6.04931 16.75H4.11029C5.72728 19.4467 8.6784 21.25 12.0494 21.25C16.8454 21.25 20.7896 17.5994 21.2537 12.9259C21.2946 12.5137 21.6619 12.2127 22.0741 12.2537Z" fill="black"/>
</g>
</g>
</g>
<defs>
<clipPath id="clip0_232_7295">
<rect width="24" height="24" rx="5" fill="white"/>
</clipPath>
</defs>
</svg>
