<svg width="24" height="24" viewBox="0 0 24 24" fill="none" xmlns="http://www.w3.org/2000/svg">
<g id="bluetooth">
<g clip-path="url(#clip0_232_3580)">
<g id="Weight=Dynamic">
<path id="Vector (Stroke)" fill-rule="evenodd" clip-rule="evenodd" d="M11.463 1.3071C11.7433 1.19101 12.0659 1.25518 12.2804 1.46968L17.7804 6.96968C17.9307 7.11999 18.0101 7.32703 17.999 7.53932C17.9879 7.7516 17.8871 7.94919 17.7219 8.08294L12.8832 12L17.7219 15.9171C17.8871 16.0508 17.9879 16.2484 17.999 16.4607C18.0101 16.673 17.9307 16.88 17.7804 17.0303L12.2804 22.5303C12.0659 22.7448 11.7433 22.809 11.463 22.6929C11.1828 22.5768 11 22.3034 11 22V13.5245L7.22192 16.5829C6.89998 16.8436 6.42771 16.7939 6.16709 16.4719C5.90647 16.15 5.95618 15.6777 6.27813 15.4171L10.4992 12L6.27813 8.58294C5.95618 8.32232 5.90647 7.85005 6.16709 7.52811C6.42771 7.20616 6.89998 7.15645 7.22192 7.41707L11 10.4755V2.00001C11 1.69666 11.1828 1.42318 11.463 1.3071ZM12.5 13.6197L16.1306 16.5588L12.5 20.1893V13.6197ZM12.5 10.3803V3.81067L16.1306 7.44125L12.5 10.3803Z" fill="black"/>
</g>
</g>
</g>
<defs>
<clipPath id="clip0_232_3580">
<rect width="24" height="24" rx="5" fill="white"/>
</clipPath>
</defs>
</svg>
