<svg width="24" height="24" viewBox="0 0 24 24" fill="none" xmlns="http://www.w3.org/2000/svg">
<g id="bluetooth-tag">
<g clip-path="url(#clip0_232_3737)">
<g id="Weight=Dynamic">
<path id="Vector (Stroke)" fill-rule="evenodd" clip-rule="evenodd" d="M8 3.75C5.10051 3.75 2.75 6.10051 2.75 9V15C2.75 17.8995 5.10051 20.25 8 20.25H16C18.8995 20.25 21.25 17.8995 21.25 15V9C21.25 6.10051 18.8995 3.75 16 3.75H8ZM1.25 9C1.25 5.27208 4.27208 2.25 8 2.25H16C19.7279 2.25 22.75 5.27208 22.75 9V15C22.75 18.7279 19.7279 21.75 16 21.75H8C4.27208 21.75 1.25 18.7279 1.25 15V9ZM11.5786 5.30364C11.8633 5.18974 12.1887 5.26068 12.4002 5.48276L15.5431 8.78276C15.6854 8.93212 15.7598 9.13348 15.749 9.33947C15.7381 9.54545 15.6429 9.73787 15.4857 9.87145L12.9816 12L15.4857 14.1285C15.6429 14.2621 15.7381 14.4546 15.749 14.6605C15.7598 14.8665 15.6854 15.0679 15.5431 15.2172L12.4002 18.5172C12.1887 18.7393 11.8633 18.8103 11.5786 18.6964C11.2939 18.5825 11.1071 18.3067 11.1071 18V13.5933L9.48574 14.9715C9.17013 15.2397 8.69681 15.2013 8.42855 14.8857C8.16028 14.5701 8.19866 14.0968 8.51426 13.8285L10.6655 12L8.51426 10.1715C8.19866 9.90319 8.16028 9.42987 8.42855 9.11426C8.69681 8.79866 9.17013 8.76028 9.48574 9.02855L11.1071 10.4067V6C11.1071 5.69332 11.2939 5.41754 11.5786 5.30364ZM12.6071 13.6504L13.9096 14.7575L12.6071 16.125V13.6504ZM12.6071 10.3496V7.875L13.9096 9.24254L12.6071 10.3496Z" fill="black"/>
</g>
</g>
</g>
<defs>
<clipPath id="clip0_232_3737">
<rect width="24" height="24" rx="5" fill="white"/>
</clipPath>
</defs>
</svg>
