<svg width="24" height="24" viewBox="0 0 24 24" fill="none" xmlns="http://www.w3.org/2000/svg">
<g id="bold-square">
<g clip-path="url(#clip0_232_6626)">
<g id="Weight=Dynamic">
<path id="Vector (Stroke)" fill-rule="evenodd" clip-rule="evenodd" d="M3.75 3.75V20.25H20.25V3.75H3.75ZM2.25 3.6C2.25 2.85441 2.85442 2.25 3.6 2.25H20.4C21.1456 2.25 21.75 2.85442 21.75 3.6V20.4C21.75 21.1456 21.1456 21.75 20.4 21.75H3.6C2.85442 21.75 2.25 21.1456 2.25 20.4V3.6ZM8.25 7.6C8.25 6.85442 8.85442 6.25 9.6 6.25H12C12.0383 6.25 12.8037 6.25082 13.5854 6.64169C13.9869 6.84242 14.4112 7.15531 14.7334 7.63867C15.0588 8.12673 15.25 8.74377 15.25 9.5C15.25 10.2562 15.0588 10.8733 14.7334 11.3613C14.5919 11.5736 14.4307 11.753 14.2605 11.9044C14.5751 12.1039 14.8828 12.3684 15.1378 12.719C15.5197 13.2442 15.75 13.9171 15.75 14.75C15.75 15.5829 15.5197 16.2558 15.1378 16.781C14.7617 17.2981 14.271 17.6279 13.8125 17.838C13.3553 18.0476 12.9081 18.1486 12.582 18.1984C12.4171 18.2236 12.2782 18.2365 12.1779 18.243C12.1276 18.2463 12.0867 18.2481 12.0566 18.249C12.0415 18.2494 12.0292 18.2497 12.0197 18.2498L12.0076 18.25L12.0033 18.25L12.0015 18.25C12.0011 18.25 12 18.25 12 17.5V18.25H9.6C8.85442 18.25 8.25 17.6456 8.25 16.9V7.6ZM9.75 7.75V11.25L11.9959 11.25L11.9986 11.25L11.9975 11.25L11.9959 11.25L12.0031 11.2498C12.0126 11.2495 12.0299 11.2487 12.054 11.247C12.1024 11.2436 12.1765 11.2363 12.2673 11.2211C12.4526 11.1903 12.6881 11.1299 12.9146 11.0167C13.1381 10.9049 13.3388 10.749 13.4853 10.5293C13.6287 10.3142 13.75 9.99376 13.75 9.5C13.75 9.00624 13.6287 8.68578 13.4853 8.47072C13.3388 8.25096 13.1381 8.09509 12.9146 7.98332C12.4638 7.75793 11.9979 7.75027 11.9979 7.75001C11.9979 7.75 11.9983 7.75 11.9991 7.75H9.75ZM9.75 12.75V16.75L11.9988 16.75L11.9967 16.75L12.0108 16.7497C12.0246 16.7493 12.0482 16.7483 12.0799 16.7462C12.1436 16.7421 12.2391 16.7334 12.3555 16.7156C12.5919 16.6795 12.8947 16.6087 13.1875 16.4745C13.479 16.3409 13.7383 16.1551 13.9247 15.8987C14.1053 15.6504 14.25 15.2921 14.25 14.75C14.25 14.2079 14.1053 13.8496 13.9247 13.6013C13.7383 13.3449 13.479 13.1591 13.1875 13.0255C12.8947 12.8913 12.5919 12.8205 12.3555 12.7844C12.2391 12.7666 12.1436 12.7579 12.0799 12.7538C12.0482 12.7517 12.0246 12.7507 12.0108 12.7503L11.9975 12.75L11.9988 12.75L9.75 12.75Z" fill="black"/>
</g>
</g>
</g>
<defs>
<clipPath id="clip0_232_6626">
<rect width="24" height="24" rx="5" fill="white"/>
</clipPath>
</defs>
</svg>
