<svg width="24" height="24" viewBox="0 0 24 24" fill="none" xmlns="http://www.w3.org/2000/svg">
<g id="bonfire">
<g clip-path="url(#clip0_232_2182)">
<g id="Weight=Dynamic">
<path id="Vector (Stroke)" fill-rule="evenodd" clip-rule="evenodd" d="M12.448 2.39842L12.0001 3L11.5522 2.39842C11.818 2.20053 12.1822 2.20053 12.448 2.39842ZM13.7405 16.5313C14.7338 16.2637 15.5843 15.7512 16.2468 14.9976C17.2579 13.8475 17.7501 12.2281 17.7501 10.3125C17.7501 8.21316 16.318 6.19925 15.0558 4.80643C14.4049 4.08817 13.7565 3.48923 13.2717 3.07029C13.0288 2.86036 12.8256 2.69445 12.6819 2.58012C12.6101 2.52293 12.553 2.47858 12.5132 2.44799L12.4667 2.41255L12.4538 2.40278L12.45 2.39992L12.448 2.39842C12.4478 2.39829 12.448 2.39842 12.0001 3C11.5522 2.39842 11.5523 2.39829 11.5522 2.39842L11.5502 2.39992L11.5464 2.40278L11.5334 2.41255L11.4869 2.44799C11.4471 2.47858 11.3901 2.52293 11.3182 2.58012C11.1745 2.69445 10.9713 2.86036 10.7284 3.07029C10.2436 3.48923 9.5952 4.08817 8.94431 4.80643C7.68215 6.19925 6.25006 8.21316 6.25006 10.3125C6.25006 12.2281 6.74221 13.8475 7.75332 14.9976C8.313 15.6343 9.00693 16.0989 9.80776 16.3891C10.3541 16.6192 10.9859 16.7125 11.6153 16.7403C11.7419 16.7468 11.8702 16.75 12.0001 16.75C12.0114 16.75 12.0226 16.75 12.0339 16.7499C12.0479 16.75 12.0619 16.75 12.0759 16.75C12.666 16.75 13.234 16.6845 13.7405 16.5313ZM15.6765 13.1673C16.0408 12.4298 16.2501 11.4807 16.2501 10.3125C16.2501 8.82199 15.1821 7.17965 13.9443 5.81368C13.3452 5.15255 12.7436 4.59646 12.2909 4.20522C12.1848 4.11353 12.0872 4.03116 12.0001 3.95888C11.9129 4.03116 11.8153 4.11353 11.7092 4.20522C11.2565 4.59646 10.6549 5.15255 10.0558 5.81368C8.81798 7.17965 7.75006 8.82199 7.75006 10.3125C7.75006 11.4626 7.95292 12.4004 8.3068 13.1329C8.54918 11.2625 9.52759 9.57466 10.4517 7.98054C10.5206 7.86162 10.5892 7.74322 10.6572 7.62531L12.0276 8.2078C11.9627 8.43279 11.9138 8.88471 11.9361 9.42198C11.9582 9.95375 12.0465 10.475 12.1952 10.8457C12.2692 11.03 12.3433 11.1395 12.3986 11.1961C12.4241 11.2221 12.4405 11.2318 12.4462 11.2347C12.4503 11.2368 12.4516 11.237 12.455 11.2373C12.4823 11.2398 12.7914 11.2221 13.44 10.4992C13.6005 10.3202 13.8371 10.2291 14.0762 10.2541C14.3153 10.279 14.5279 10.4171 14.648 10.6253C15.1682 11.5273 15.5292 12.3843 15.6765 13.1673ZM11.6531 15.2403C11.1747 15.2129 10.7437 15.1285 10.3584 14.9931C10.3225 14.9771 10.2883 14.9604 10.2557 14.9429C10.077 14.847 9.96204 14.7361 9.88719 14.6096C9.81186 14.4824 9.75006 14.2934 9.75006 14C9.75006 12.9087 10.0939 11.882 10.6152 10.8088C10.6655 11.0152 10.7275 11.2159 10.8031 11.4043C11.0234 11.9532 11.4727 12.6556 12.3216 12.7314C12.8289 12.7767 13.319 12.5766 13.7895 12.2218C14.3079 13.3525 14.3221 14.0616 14.1532 14.4528C14.0499 14.6924 13.8172 14.9282 13.3609 15.0805C12.9631 15.1889 12.5212 15.2473 12.0337 15.2499C11.9013 15.2494 11.7744 15.2461 11.6531 15.2403ZM3.54821 16.7351C3.65542 16.335 4.06667 16.0976 4.46677 16.2048L12.0001 18.2233L19.5333 16.2048C19.9334 16.0976 20.3447 16.335 20.4519 16.7351C20.5591 17.1352 20.3217 17.5464 19.9216 17.6537L12.2067 19.7208C12.1979 19.7234 12.1892 19.7257 12.1803 19.7279L4.46676 21.7948C4.06666 21.902 3.65541 21.6645 3.5482 21.2644C3.441 20.8643 3.67843 20.4531 4.07853 20.3459L9.10229 18.9998L4.07854 17.6536C3.67844 17.5464 3.44101 17.1352 3.54821 16.7351ZM15.1393 19.8409C15.2465 19.4408 15.6578 19.2034 16.0579 19.3106L19.9216 20.3459C20.3217 20.4531 20.5591 20.8643 20.4519 21.2644C20.3447 21.6645 19.9335 21.902 19.5334 21.7948L15.6697 20.7595C15.2696 20.6523 15.0321 20.241 15.1393 19.8409Z" fill="black"/>
</g>
</g>
</g>
<defs>
<clipPath id="clip0_232_2182">
<rect width="24" height="24" rx="5" fill="white"/>
</clipPath>
</defs>
</svg>
