<svg width="24" height="24" viewBox="0 0 24 24" fill="none" xmlns="http://www.w3.org/2000/svg">
<g id="book-stack">
<g clip-path="url(#clip0_232_2138)">
<g id="Weight=Dynamic">
<path id="Vector (Stroke)" fill-rule="evenodd" clip-rule="evenodd" d="M7 3.75C6.30964 3.75 5.75 4.30964 5.75 5V14.3565C5.98271 14.2859 6.23439 14.25 6.5 14.25H18.25L18.25 3.75H7ZM18.25 15.75H6.5C6.17738 15.75 6.01421 15.8524 5.92668 15.9474C5.82984 16.0526 5.75 16.2324 5.75 16.5C5.75 16.7676 5.82984 16.9474 5.92668 17.0526C6.01421 17.1476 6.17738 17.25 6.5 17.25H18.25V15.75ZM18.25 18.75H6.5C6.17738 18.75 6.01421 18.8524 5.92668 18.9474C5.82984 19.0526 5.75 19.2324 5.75 19.5C5.75 19.7676 5.82984 19.9474 5.92668 20.0526C6.01421 20.1476 6.17738 20.25 6.5 20.25H18.25L18.25 18.75ZM4.25 19.5C4.25 20.0609 4.42016 20.631 4.82332 21.0687C5.23579 21.5166 5.82262 21.75 6.5 21.75H19C19.1989 21.75 19.3897 21.671 19.5303 21.5303C19.671 21.3897 19.75 21.1989 19.75 21V3.6C19.75 2.85442 19.1456 2.25 18.4 2.25H7C5.48122 2.25 4.25 3.48122 4.25 5V19.5ZM8.25 7C8.25 6.58579 8.58579 6.25 9 6.25H15C15.4142 6.25 15.75 6.58579 15.75 7C15.75 7.41421 15.4142 7.75 15 7.75H9C8.58579 7.75 8.25 7.41421 8.25 7Z" fill="black"/>
</g>
</g>
</g>
<defs>
<clipPath id="clip0_232_2138">
<rect width="24" height="24" rx="5" fill="white"/>
</clipPath>
</defs>
</svg>
