<svg width="24" height="24" viewBox="0 0 24 24" fill="none" xmlns="http://www.w3.org/2000/svg">
<g id="book">
<g clip-path="url(#clip0_232_1882)">
<g id="Weight=Dynamic">
<path id="Vector (Stroke)" fill-rule="evenodd" clip-rule="evenodd" d="M6 3.75C5.30964 3.75 4.75 4.30964 4.75 5V16.5499C5.12503 16.3581 5.54989 16.25 6 16.25H19.25V3.75H6ZM20.7364 16.8571C20.7453 16.8109 20.75 16.7631 20.75 16.7143V3.6C20.75 2.85442 20.1456 2.25 19.4 2.25H6C4.48122 2.25 3.25 3.48122 3.25 5V19C3.25 20.5188 4.48122 21.75 6 21.75H20C20.4142 21.75 20.75 21.4142 20.75 21C20.75 20.5858 20.4142 20.25 20 20.25H6C5.30964 20.25 4.75 19.6904 4.75 19C4.75 18.3096 5.30964 17.75 6 17.75H20C20.4142 17.75 20.75 17.4142 20.75 17C20.75 16.9511 20.7453 16.9034 20.7364 16.8571ZM8.25 7C8.25 6.58579 8.58579 6.25 9 6.25H15C15.4142 6.25 15.75 6.58579 15.75 7C15.75 7.41421 15.4142 7.75 15 7.75H9C8.58579 7.75 8.25 7.41421 8.25 7Z" fill="black"/>
</g>
</g>
</g>
<defs>
<clipPath id="clip0_232_1882">
<rect width="24" height="24" rx="5" fill="white"/>
</clipPath>
</defs>
</svg>
