<svg width="24" height="24" viewBox="0 0 24 24" fill="none" xmlns="http://www.w3.org/2000/svg">
<g id="book-lock">
<g clip-path="url(#clip0_232_2124)">
<g id="Weight=Dynamic">
<path id="Vector (Stroke)" fill-rule="evenodd" clip-rule="evenodd" d="M6 3.75C5.30964 3.75 4.75 4.30964 4.75 5V16.5499C5.12503 16.3581 5.54989 16.25 6 16.25H19.25V3.75H6ZM20.7364 16.8571C20.7453 16.8109 20.75 16.7631 20.75 16.7143V3.6C20.75 2.85442 20.1456 2.25 19.4 2.25H6C4.48122 2.25 3.25 3.48122 3.25 5V19C3.25 20.5188 4.48122 21.75 6 21.75H20C20.4142 21.75 20.75 21.4142 20.75 21C20.75 20.5858 20.4142 20.25 20 20.25H6C5.30964 20.25 4.75 19.6904 4.75 19C4.75 18.3096 5.30964 17.75 6 17.75H20C20.4142 17.75 20.75 17.4142 20.75 17C20.75 16.9511 20.7453 16.9034 20.7364 16.8571ZM9.79135 6.31177C10.2304 5.70198 10.9556 5.25 12 5.25C13.0444 5.25 13.7696 5.70198 14.2087 6.31177C14.6202 6.88332 14.75 7.54665 14.75 8V9.29581C15.3259 9.44998 15.75 9.97546 15.75 10.6V13.4C15.75 14.1456 15.1456 14.75 14.4 14.75H9.6C8.85441 14.75 8.25 14.1456 8.25 13.4V10.6C8.25 9.97546 8.67409 9.44998 9.25 9.29581V8C9.25 7.54665 9.37984 6.88332 9.79135 6.31177ZM10.75 9.25H13.25V8C13.25 7.78668 13.1798 7.45002 12.9913 7.18823C12.8304 6.96468 12.5556 6.75 12 6.75C11.4444 6.75 11.1696 6.96468 11.0087 7.18823C10.8202 7.45002 10.75 7.78668 10.75 8V9.25ZM9.75 10.75V13.25H14.25V10.75H9.75Z" fill="black"/>
</g>
</g>
</g>
<defs>
<clipPath id="clip0_232_2124">
<rect width="24" height="24" rx="5" fill="white"/>
</clipPath>
</defs>
</svg>
