<svg width="24" height="24" viewBox="0 0 24 24" fill="none" xmlns="http://www.w3.org/2000/svg">
<g id="bookmark-book">
<g clip-path="url(#clip0_232_2063)">
<g id="Weight=Dynamic">
<path id="Vector (Stroke)" fill-rule="evenodd" clip-rule="evenodd" d="M6 3.75C5.30964 3.75 4.75 4.30964 4.75 5V16.5499C5.12503 16.3581 5.54989 16.25 6 16.25H19.25V3.75H13.75V11C13.75 11.2741 13.6005 11.5263 13.3601 11.6579C13.1196 11.7895 12.8266 11.7794 12.5957 11.6317L10.5 10.2904L8.40429 11.6317C8.17344 11.7794 7.88038 11.7895 7.63994 11.6579C7.39951 11.5263 7.25 11.2741 7.25 11V3.75H6ZM8.75 3.75V9.62955L10.0957 8.7683C10.3422 8.61057 10.6578 8.61057 10.9043 8.7683L12.25 9.62955V3.75H8.75ZM20.7364 16.8571C20.7453 16.8109 20.75 16.7631 20.75 16.7143V3.6C20.75 2.85442 20.1456 2.25 19.4 2.25H6C4.48122 2.25 3.25 3.48122 3.25 5V19C3.25 20.5188 4.48122 21.75 6 21.75H20C20.4142 21.75 20.75 21.4142 20.75 21C20.75 20.5858 20.4142 20.25 20 20.25H6C5.30964 20.25 4.75 19.6904 4.75 19C4.75 18.3096 5.30964 17.75 6 17.75H20C20.4142 17.75 20.75 17.4142 20.75 17C20.75 16.9511 20.7453 16.9034 20.7364 16.8571Z" fill="black"/>
</g>
</g>
</g>
<defs>
<clipPath id="clip0_232_2063">
<rect width="24" height="24" rx="5" fill="white"/>
</clipPath>
</defs>
</svg>
