<svg width="24" height="24" viewBox="0 0 24 24" fill="none" xmlns="http://www.w3.org/2000/svg">
<g id="bookmark">
<g clip-path="url(#clip0_232_11399)">
<g id="Weight=Dynamic">
<path id="Vector (Stroke)" fill-rule="evenodd" clip-rule="evenodd" d="M7 3.75C6.30964 3.75 5.75 4.30964 5.75 5V19.6263L10.5129 16.5644C11.4188 15.982 12.5812 15.982 13.4871 16.5644L18.25 19.6263V5C18.25 4.30964 17.6904 3.75 17 3.75H7ZM4.25 5C4.25 3.48122 5.48122 2.25 7 2.25H17C18.5188 2.25 19.75 3.48122 19.75 5V21C19.75 21.2744 19.6002 21.5268 19.3594 21.6583C19.1186 21.7898 18.8252 21.7792 18.5944 21.6309L12.6759 17.8261C12.2642 17.5614 11.7358 17.5614 11.3241 17.8261L5.40557 21.6309C5.17479 21.7792 4.88141 21.7898 4.64061 21.6583C4.3998 21.5268 4.25 21.2744 4.25 21V5Z" fill="black"/>
</g>
</g>
</g>
<defs>
<clipPath id="clip0_232_11399">
<rect width="24" height="24" rx="5" fill="white"/>
</clipPath>
</defs>
</svg>
