<svg width="24" height="24" viewBox="0 0 24 24" fill="none" xmlns="http://www.w3.org/2000/svg">
<g id="bookmark-circle">
<g clip-path="url(#clip0_232_11407)">
<g id="Weight=Dynamic">
<path id="Vector (Stroke)" fill-rule="evenodd" clip-rule="evenodd" d="M12 2.75C6.89137 2.75 2.75 6.89137 2.75 12C2.75 17.1086 6.89137 21.25 12 21.25C17.1086 21.25 21.25 17.1086 21.25 12C21.25 6.89137 17.1086 2.75 12 2.75ZM1.25 12C1.25 6.06294 6.06294 1.25 12 1.25C17.9371 1.25 22.75 6.06294 22.75 12C22.75 17.9371 17.9371 22.75 12 22.75C6.06294 22.75 1.25 17.9371 1.25 12ZM11 8.75C10.3096 8.75 9.75 9.30964 9.75 10V14.5986L10.4746 14.1156C11.3983 13.4997 12.6017 13.4997 13.5254 14.1156L14.25 14.5986V10C14.25 9.30964 13.6904 8.75 13 8.75H11ZM8.25 10C8.25 8.48122 9.48122 7.25 11 7.25H13C14.5188 7.25 15.75 8.48122 15.75 10V16C15.75 16.2766 15.5978 16.5307 15.3539 16.6613C15.11 16.7918 14.8141 16.7775 14.584 16.624L12.6934 15.3636C12.2735 15.0837 11.7265 15.0837 11.3066 15.3636L9.41603 16.624C9.18588 16.7775 8.88997 16.7918 8.64611 16.6613C8.40224 16.5307 8.25 16.2766 8.25 16V10Z" fill="black"/>
</g>
</g>
</g>
<defs>
<clipPath id="clip0_232_11407">
<rect width="24" height="24" rx="5" fill="white"/>
</clipPath>
</defs>
</svg>
