<svg width="24" height="24" viewBox="0 0 24 24" fill="none" xmlns="http://www.w3.org/2000/svg">
<g id="border-top">
<g clip-path="url(#clip0_232_5351)">
<g id="Weight=Dynamic">
<path id="Vector (Stroke)" fill-rule="evenodd" clip-rule="evenodd" d="M3.25001 4C3.25001 3.58579 3.58579 3.25 4.00001 3.25H20C20.4142 3.25 20.75 3.58579 20.75 4C20.75 4.41421 20.4142 4.75 20 4.75H4.00001C3.58579 4.75 3.25001 4.41421 3.25001 4ZM4.51173 7.44141C4.81961 7.71851 4.84457 8.19272 4.56748 8.50061L4.55748 8.51172C4.28039 8.8196 3.80617 8.84457 3.49829 8.56747C3.1904 8.29038 3.16544 7.81616 3.44253 7.50828L3.45253 7.49717C3.72962 7.18928 4.20384 7.16432 4.51173 7.44141ZM20.5117 7.44142C20.8196 7.71852 20.8446 8.19273 20.5675 8.50062L20.5575 8.51173C20.2804 8.81961 19.8062 8.84456 19.4983 8.56747C19.1904 8.29037 19.1654 7.81616 19.4425 7.50827L19.4525 7.49716C19.7296 7.18928 20.2039 7.16432 20.5117 7.44142ZM4.51173 11.4414C4.81961 11.7185 4.84457 12.1927 4.56748 12.5006L4.55748 12.5117C4.28039 12.8196 3.80617 12.8446 3.49829 12.5675C3.1904 12.2904 3.16544 11.8162 3.44253 11.5083L3.45253 11.4972C3.72962 11.1893 4.20384 11.1643 4.51173 11.4414ZM12.5117 11.4414C12.8196 11.7185 12.8446 12.1927 12.5675 12.5006L12.5575 12.5117C12.2804 12.8196 11.8062 12.8446 11.4983 12.5675C11.1904 12.2904 11.1654 11.8162 11.4425 11.5083L11.4525 11.4972C11.7296 11.1893 12.2039 11.1643 12.5117 11.4414ZM20.5117 11.4414C20.8196 11.7185 20.8446 12.1927 20.5675 12.5006L20.5575 12.5117C20.2804 12.8196 19.8062 12.8446 19.4983 12.5675C19.1904 12.2904 19.1654 11.8162 19.4425 11.5083L19.4525 11.4972C19.7296 11.1893 20.2039 11.1643 20.5117 11.4414ZM4.51173 15.4414C4.81961 15.7185 4.84457 16.1927 4.56748 16.5006L4.55748 16.5117C4.28039 16.8196 3.80617 16.8446 3.49829 16.5675C3.1904 16.2904 3.16544 15.8162 3.44253 15.5083L3.45253 15.4972C3.72962 15.1893 4.20384 15.1643 4.51173 15.4414ZM20.5117 15.4414C20.8196 15.7185 20.8446 16.1927 20.5675 16.5006L20.5575 16.5117C20.2804 16.8196 19.8062 16.8446 19.4983 16.5675C19.1904 16.2904 19.1654 15.8162 19.4425 15.5083L19.4525 15.4972C19.7296 15.1893 20.2039 15.1643 20.5117 15.4414ZM4.51173 19.4414C4.81961 19.7185 4.84457 20.1927 4.56748 20.5006L4.55748 20.5117C4.28039 20.8196 3.80617 20.8446 3.49829 20.5675C3.1904 20.2904 3.16544 19.8162 3.44253 19.5083L3.45253 19.4972C3.72962 19.1893 4.20384 19.1643 4.51173 19.4414ZM8.51173 19.4414C8.81961 19.7185 8.84457 20.1927 8.56748 20.5006L8.55748 20.5117C8.28038 20.8196 7.80616 20.8446 7.49828 20.5675C7.1904 20.2904 7.16544 19.8162 7.44254 19.5083L7.45254 19.4972C7.72963 19.1893 8.20385 19.1643 8.51173 19.4414ZM12.5117 19.4414C12.8196 19.7185 12.8446 20.1927 12.5675 20.5006L12.5575 20.5117C12.2804 20.8196 11.8062 20.8446 11.4983 20.5675C11.1904 20.2904 11.1654 19.8162 11.4425 19.5083L11.4525 19.4972C11.7296 19.1893 12.2039 19.1643 12.5117 19.4414ZM16.5117 19.4414C16.8196 19.7185 16.8446 20.1927 16.5675 20.5006L16.5575 20.5117C16.2804 20.8196 15.8062 20.8446 15.4983 20.5675C15.1904 20.2904 15.1654 19.8162 15.4425 19.5083L15.4525 19.4972C15.7296 19.1893 16.2039 19.1643 16.5117 19.4414ZM20.5117 19.4414C20.8196 19.7185 20.8446 20.1927 20.5675 20.5006L20.5575 20.5117C20.2804 20.8196 19.8062 20.8446 19.4983 20.5675C19.1904 20.2904 19.1654 19.8162 19.4425 19.5083L19.4525 19.4972C19.7296 19.1893 20.2039 19.1643 20.5117 19.4414Z" fill="black"/>
</g>
</g>
</g>
<defs>
<clipPath id="clip0_232_5351">
<rect width="24" height="24" rx="5" fill="white"/>
</clipPath>
</defs>
</svg>
