<svg width="24" height="24" viewBox="0 0 24 24" fill="none" xmlns="http://www.w3.org/2000/svg">
<g id="border-tl">
<g clip-path="url(#clip0_232_5211)">
<g id="Weight=Dynamic">
<path id="Vector (Stroke)" fill-rule="evenodd" clip-rule="evenodd" d="M3.25 4C3.25 3.58579 3.58579 3.25 4 3.25H20C20.4142 3.25 20.75 3.58579 20.75 4C20.75 4.41421 20.4142 4.75 20 4.75H4.75V20C4.75 20.4142 4.41421 20.75 4 20.75C3.58579 20.75 3.25 20.4142 3.25 20V4ZM20.5117 7.44142C20.8196 7.71852 20.8446 8.19273 20.5675 8.50062L20.5575 8.51173C20.2804 8.81961 19.8062 8.84456 19.4983 8.56747C19.1904 8.29037 19.1654 7.81616 19.4425 7.50827L19.4525 7.49716C19.7296 7.18928 20.2038 7.16432 20.5117 7.44142ZM20.5117 11.4414C20.8196 11.7185 20.8446 12.1927 20.5675 12.5006L20.5575 12.5117C20.2804 12.8196 19.8062 12.8446 19.4983 12.5675C19.1904 12.2904 19.1654 11.8162 19.4425 11.5083L19.4525 11.4972C19.7296 11.1893 20.2038 11.1643 20.5117 11.4414ZM20.5117 15.4414C20.8196 15.7185 20.8446 16.1927 20.5675 16.5006L20.5575 16.5117C20.2804 16.8196 19.8062 16.8446 19.4983 16.5675C19.1904 16.2904 19.1654 15.8162 19.4425 15.5083L19.4525 15.4972C19.7296 15.1893 20.2038 15.1643 20.5117 15.4414ZM8.51173 19.4414C8.81961 19.7185 8.84456 20.1927 8.56747 20.5006L8.55747 20.5117C8.28037 20.8196 7.80616 20.8446 7.49827 20.5675C7.19039 20.2904 7.16544 19.8162 7.44253 19.5083L7.45253 19.4972C7.72963 19.1893 8.20385 19.1643 8.51173 19.4414ZM12.5117 19.4414C12.8196 19.7185 12.8446 20.1927 12.5675 20.5006L12.5575 20.5117C12.2804 20.8196 11.8062 20.8446 11.4983 20.5675C11.1904 20.2904 11.1654 19.8162 11.4425 19.5083L11.4525 19.4972C11.7296 19.1893 12.2038 19.1643 12.5117 19.4414ZM16.5117 19.4414C16.8196 19.7185 16.8446 20.1927 16.5675 20.5006L16.5575 20.5117C16.2804 20.8196 15.8062 20.8446 15.4983 20.5675C15.1904 20.2904 15.1654 19.8162 15.4425 19.5083L15.4525 19.4972C15.7296 19.1893 16.2038 19.1643 16.5117 19.4414ZM20.5117 19.4414C20.8196 19.7185 20.8446 20.1927 20.5675 20.5006L20.5575 20.5117C20.2804 20.8196 19.8062 20.8446 19.4983 20.5675C19.1904 20.2904 19.1654 19.8162 19.4425 19.5083L19.4525 19.4972C19.7296 19.1893 20.2038 19.1643 20.5117 19.4414Z" fill="black"/>
</g>
</g>
</g>
<defs>
<clipPath id="clip0_232_5211">
<rect width="24" height="24" rx="5" fill="white"/>
</clipPath>
</defs>
</svg>
