<svg width="24" height="24" viewBox="0 0 24 24" fill="none" xmlns="http://www.w3.org/2000/svg">
<g id="border-right">
<g clip-path="url(#clip0_232_5381)">
<g id="Weight=Dynamic">
<path id="Vector (Stroke)" fill-rule="evenodd" clip-rule="evenodd" d="M3.44229 3.49828C3.71939 3.1904 4.1936 3.16544 4.50149 3.44254L4.5126 3.45254C4.82048 3.72963 4.84544 4.20385 4.56834 4.51173C4.29125 4.81961 3.81703 4.84457 3.50915 4.56748L3.49804 4.55748C3.19016 4.28038 3.1652 3.80616 3.44229 3.49828ZM7.44229 3.49829C7.71938 3.1904 8.1936 3.16544 8.50148 3.44253L8.51259 3.45253C8.82048 3.72962 8.84544 4.20384 8.56835 4.51173C8.29126 4.81961 7.81704 4.84457 7.50915 4.56748L7.49804 4.55748C7.19016 4.28039 7.1652 3.80617 7.44229 3.49829ZM11.4423 3.49829C11.7194 3.1904 12.1936 3.16544 12.5015 3.44253L12.5126 3.45253C12.8205 3.72962 12.8454 4.20384 12.5683 4.51173C12.2913 4.81961 11.817 4.84457 11.5092 4.56748L11.498 4.55748C11.1902 4.28039 11.1652 3.80617 11.4423 3.49829ZM15.4423 3.49829C15.7194 3.1904 16.1936 3.16544 16.5015 3.44253L16.5126 3.45253C16.8205 3.72962 16.8454 4.20384 16.5683 4.51173C16.2913 4.81961 15.817 4.84457 15.5092 4.56748L15.498 4.55748C15.1902 4.28039 15.1652 3.80617 15.4423 3.49829ZM20.0098 3.25001C20.424 3.25001 20.7598 3.58579 20.7598 4.00001V20C20.7598 20.4142 20.424 20.75 20.0098 20.75C19.5955 20.75 19.2598 20.4142 19.2598 20V4.00001C19.2598 3.58579 19.5955 3.25001 20.0098 3.25001ZM3.4423 7.49828C3.7194 7.1904 4.19361 7.16544 4.50149 7.44254L4.5126 7.45254C4.82048 7.72964 4.84544 8.20386 4.56834 8.51174C4.29124 8.81962 3.81702 8.84457 3.50914 8.56747L3.49803 8.55747C3.19015 8.28037 3.1652 7.80616 3.4423 7.49828ZM3.4423 11.4983C3.7194 11.1904 4.19361 11.1654 4.50149 11.4425L4.5126 11.4525C4.82048 11.7296 4.84544 12.2039 4.56834 12.5117C4.29124 12.8196 3.81702 12.8446 3.50914 12.5675L3.49803 12.5575C3.19015 12.2804 3.1652 11.8062 3.4423 11.4983ZM11.4423 11.4983C11.7194 11.1904 12.1936 11.1654 12.5015 11.4425L12.5126 11.4525C12.8205 11.7296 12.8454 12.2039 12.5683 12.5117C12.2912 12.8196 11.817 12.8446 11.5091 12.5675L11.498 12.5575C11.1902 12.2804 11.1652 11.8062 11.4423 11.4983ZM3.4423 15.4983C3.7194 15.1904 4.19361 15.1654 4.50149 15.4425L4.5126 15.4525C4.82048 15.7296 4.84544 16.2039 4.56834 16.5117C4.29124 16.8196 3.81702 16.8446 3.50914 16.5675L3.49803 16.5575C3.19015 16.2804 3.1652 15.8062 3.4423 15.4983ZM3.4423 19.4983C3.7194 19.1904 4.19361 19.1654 4.50149 19.4425L4.5126 19.4525C4.82048 19.7296 4.84544 20.2039 4.56834 20.5117C4.29124 20.8196 3.81702 20.8446 3.50914 20.5675L3.49803 20.5575C3.19015 20.2804 3.1652 19.8062 3.4423 19.4983ZM7.44229 19.4983C7.71939 19.1904 8.19361 19.1654 8.50149 19.4425L8.5126 19.4525C8.82048 19.7296 8.84544 20.2039 8.56834 20.5117C8.29125 20.8196 7.81703 20.8446 7.50915 20.5675L7.49804 20.5575C7.19016 20.2804 7.1652 19.8062 7.44229 19.4983ZM11.4423 19.4983C11.7194 19.1904 12.1936 19.1654 12.5015 19.4425L12.5126 19.4525C12.8205 19.7296 12.8454 20.2039 12.5683 20.5117C12.2912 20.8196 11.817 20.8446 11.5091 20.5675L11.498 20.5575C11.1902 20.2804 11.1652 19.8062 11.4423 19.4983ZM15.4423 19.4983C15.7194 19.1904 16.1936 19.1654 16.5015 19.4425L16.5126 19.4525C16.8205 19.7296 16.8454 20.2039 16.5683 20.5117C16.2912 20.8196 15.817 20.8446 15.5091 20.5675L15.498 20.5575C15.1902 20.2804 15.1652 19.8062 15.4423 19.4983Z" fill="black"/>
</g>
</g>
</g>
<defs>
<clipPath id="clip0_232_5381">
<rect width="24" height="24" rx="5" fill="white"/>
</clipPath>
</defs>
</svg>
