<svg width="24" height="24" viewBox="0 0 24 24" fill="none" xmlns="http://www.w3.org/2000/svg">
<g id="border-left">
<g clip-path="url(#clip0_232_5411)">
<g id="Weight=Dynamic">
<path id="Vector (Stroke)" fill-rule="evenodd" clip-rule="evenodd" d="M8.56747 3.49829C8.84457 3.80617 8.8196 4.28039 8.51172 4.55748L8.50061 4.56748C8.19272 4.84457 7.71851 4.81961 7.44141 4.51173C7.16432 4.20384 7.18928 3.72962 7.49717 3.45253L7.50828 3.44253C7.81616 3.16544 8.29038 3.1904 8.56747 3.49829ZM12.5675 3.49829C12.8446 3.80617 12.8196 4.28039 12.5117 4.55748L12.5006 4.56748C12.1927 4.84457 11.7185 4.81961 11.4414 4.51173C11.1643 4.20384 11.1893 3.72962 11.4972 3.45253L11.5083 3.44253C11.8162 3.16544 12.2904 3.1904 12.5675 3.49829ZM16.5675 3.49829C16.8446 3.80617 16.8196 4.28039 16.5117 4.55748L16.5006 4.56748C16.1927 4.84457 15.7185 4.81961 15.4414 4.51173C15.1643 4.20384 15.1893 3.72962 15.4972 3.45253L15.5083 3.44253C15.8162 3.16544 16.2904 3.1904 16.5675 3.49829ZM20.5675 3.49829C20.8446 3.80617 20.8196 4.28039 20.5117 4.55748L20.5006 4.56748C20.1927 4.84457 19.7185 4.81961 19.4414 4.51173C19.1643 4.20384 19.1893 3.72962 19.4972 3.45253L19.5083 3.44253C19.8162 3.16544 20.2904 3.1904 20.5675 3.49829ZM4 3.25001C4.41421 3.25001 4.75 3.58579 4.75 4.00001V20C4.75 20.4142 4.41421 20.75 4 20.75C3.58579 20.75 3.25 20.4142 3.25 20V4.00001C3.25 3.58579 3.58579 3.25001 4 3.25001ZM20.5675 7.49828C20.8446 7.80616 20.8196 8.28038 20.5117 8.55748L20.5006 8.56748C20.1927 8.84457 19.7185 8.81961 19.4414 8.51173C19.1643 8.20385 19.1893 7.72963 19.4972 7.45254L19.5083 7.44254C19.8162 7.16544 20.2904 7.1904 20.5675 7.49828ZM12.5675 11.4983C12.8446 11.8062 12.8196 12.2804 12.5117 12.5575L12.5006 12.5675C12.1927 12.8446 11.7185 12.8196 11.4414 12.5117C11.1643 12.2039 11.1893 11.7296 11.4972 11.4525L11.5083 11.4425C11.8162 11.1654 12.2904 11.1904 12.5675 11.4983ZM20.5675 11.4983C20.8446 11.8062 20.8196 12.2804 20.5117 12.5575L20.5006 12.5675C20.1927 12.8446 19.7185 12.8196 19.4414 12.5117C19.1643 12.2039 19.1893 11.7296 19.4972 11.4525L19.5083 11.4425C19.8162 11.1654 20.2904 11.1904 20.5675 11.4983ZM20.5675 15.4983C20.8446 15.8062 20.8196 16.2804 20.5117 16.5575L20.5006 16.5675C20.1927 16.8446 19.7185 16.8196 19.4414 16.5117C19.1643 16.2039 19.1893 15.7296 19.4972 15.4525L19.5083 15.4425C19.8162 15.1654 20.2904 15.1904 20.5675 15.4983ZM8.56747 19.4983C8.84456 19.8062 8.81961 20.2804 8.51173 20.5575L8.50062 20.5675C8.19273 20.8446 7.71852 20.8196 7.44142 20.5117C7.16432 20.2039 7.18928 19.7296 7.49716 19.4525L7.50827 19.4425C7.81616 19.1654 8.29037 19.1904 8.56747 19.4983ZM12.5675 19.4983C12.8446 19.8062 12.8196 20.2804 12.5117 20.5575L12.5006 20.5675C12.1927 20.8446 11.7185 20.8196 11.4414 20.5117C11.1643 20.2039 11.1893 19.7296 11.4972 19.4525L11.5083 19.4425C11.8162 19.1654 12.2904 19.1904 12.5675 19.4983ZM16.5675 19.4983C16.8446 19.8062 16.8196 20.2804 16.5117 20.5575L16.5006 20.5675C16.1927 20.8446 15.7185 20.8196 15.4414 20.5117C15.1643 20.2039 15.1893 19.7296 15.4972 19.4525L15.5083 19.4425C15.8162 19.1654 16.2904 19.1904 16.5675 19.4983ZM20.5675 19.4983C20.8446 19.8062 20.8196 20.2804 20.5117 20.5575L20.5006 20.5675C20.1927 20.8446 19.7185 20.8196 19.4414 20.5117C19.1643 20.2039 19.1893 19.7296 19.4972 19.4525L19.5083 19.4425C19.8162 19.1654 20.2904 19.1904 20.5675 19.4983Z" fill="black"/>
</g>
</g>
</g>
<defs>
<clipPath id="clip0_232_5411">
<rect width="24" height="24" rx="5" fill="white"/>
</clipPath>
</defs>
</svg>
