<svg width="24" height="24" viewBox="0 0 24 24" fill="none" xmlns="http://www.w3.org/2000/svg">
<g id="border-tr">
<g clip-path="url(#clip0_232_5271)">
<g id="Weight=Dynamic">
<path id="Vector (Stroke)" fill-rule="evenodd" clip-rule="evenodd" d="M3.25976 4C3.25976 3.58579 3.59555 3.25 4.00976 3.25H20.0098C20.424 3.25 20.7598 3.58579 20.7598 4V20C20.7598 20.4142 20.424 20.75 20.0098 20.75C19.5955 20.75 19.2598 20.4142 19.2598 20V4.75H4.00976C3.59555 4.75 3.25976 4.41421 3.25976 4ZM4.56834 7.48828C4.84544 7.79616 4.82048 8.27038 4.5126 8.54747L4.50149 8.55747C4.1936 8.83456 3.71939 8.80961 3.44229 8.50172C3.1652 8.19384 3.19016 7.71962 3.49804 7.44253L3.50915 7.43253C3.81703 7.15544 4.29125 7.18039 4.56834 7.48828ZM4.56834 11.4883C4.84544 11.7961 4.82048 12.2704 4.5126 12.5475L4.50149 12.5575C4.19361 12.8346 3.7194 12.8096 3.4423 12.5017C3.1652 12.1939 3.19015 11.7196 3.49803 11.4425L3.50914 11.4325C3.81702 11.1554 4.29124 11.1804 4.56834 11.4883ZM4.56834 15.4883C4.84544 15.7961 4.82048 16.2704 4.5126 16.5475L4.50149 16.5575C4.19361 16.8346 3.7194 16.8096 3.4423 16.5017C3.1652 16.1939 3.19015 15.7196 3.49803 15.4425L3.50914 15.4325C3.81702 15.1554 4.29124 15.1804 4.56834 15.4883ZM4.56834 19.4883C4.84544 19.7961 4.82048 20.2704 4.5126 20.5475L4.50149 20.5575C4.19361 20.8346 3.7194 20.8096 3.4423 20.5017C3.1652 20.1939 3.19015 19.7196 3.49803 19.4425L3.50914 19.4325C3.81702 19.1554 4.29124 19.1804 4.56834 19.4883ZM8.56834 19.4883C8.84544 19.7962 8.82048 20.2704 8.5126 20.5475L8.50149 20.5575C8.19361 20.8346 7.71939 20.8096 7.44229 20.5017C7.1652 20.1938 7.19016 19.7196 7.49804 19.4425L7.50915 19.4325C7.81703 19.1554 8.29125 19.1804 8.56834 19.4883ZM12.5683 19.4883C12.8454 19.7962 12.8205 20.2704 12.5126 20.5475L12.5015 20.5575C12.1936 20.8346 11.7194 20.8096 11.4423 20.5017C11.1652 20.1938 11.1902 19.7196 11.498 19.4425L11.5091 19.4325C11.817 19.1554 12.2912 19.1804 12.5683 19.4883ZM16.5683 19.4883C16.8454 19.7962 16.8205 20.2704 16.5126 20.5475L16.5015 20.5575C16.1936 20.8346 15.7194 20.8096 15.4423 20.5017C15.1652 20.1938 15.1902 19.7196 15.498 19.4425L15.5091 19.4325C15.817 19.1554 16.2912 19.1804 16.5683 19.4883Z" fill="black"/>
</g>
</g>
</g>
<defs>
<clipPath id="clip0_232_5271">
<rect width="24" height="24" rx="5" fill="white"/>
</clipPath>
</defs>
</svg>
