<svg width="24" height="24" viewBox="0 0 24 24" fill="none" xmlns="http://www.w3.org/2000/svg">
<g id="border-br">
<g clip-path="url(#clip0_232_5251)">
<g id="Weight=Dynamic">
<path id="Vector (Stroke)" fill-rule="evenodd" clip-rule="evenodd" d="M3.44229 3.49828C3.71939 3.1904 4.1936 3.16544 4.50149 3.44254L4.5126 3.45254C4.82048 3.72963 4.84544 4.20385 4.56834 4.51173C4.29125 4.81961 3.81703 4.84457 3.50915 4.56748L3.49804 4.55748C3.19016 4.28038 3.1652 3.80616 3.44229 3.49828ZM7.44229 3.49829C7.71938 3.1904 8.1936 3.16544 8.50148 3.44253L8.51259 3.45253C8.82048 3.72962 8.84544 4.20384 8.56835 4.51173C8.29126 4.81961 7.81704 4.84457 7.50915 4.56748L7.49804 4.55748C7.19016 4.28039 7.1652 3.80617 7.44229 3.49829ZM11.4423 3.49829C11.7194 3.1904 12.1936 3.16544 12.5015 3.44253L12.5126 3.45253C12.8205 3.72962 12.8454 4.20384 12.5683 4.51173C12.2913 4.81961 11.817 4.84457 11.5092 4.56748L11.498 4.55748C11.1902 4.28039 11.1652 3.80617 11.4423 3.49829ZM15.4423 3.49829C15.7194 3.1904 16.1936 3.16544 16.5015 3.44253L16.5126 3.45253C16.8205 3.72962 16.8454 4.20384 16.5683 4.51173C16.2913 4.81961 15.817 4.84457 15.5092 4.56748L15.498 4.55748C15.1902 4.28039 15.1652 3.80617 15.4423 3.49829ZM20.0098 3.25001C20.424 3.25001 20.7598 3.58579 20.7598 4.00001V20C20.7598 20.4142 20.424 20.75 20.0098 20.75H4.00976C3.59555 20.75 3.25976 20.4142 3.25976 20C3.25976 19.5858 3.59555 19.25 4.00976 19.25H19.2598V4.00001C19.2598 3.58579 19.5955 3.25001 20.0098 3.25001ZM3.4423 7.49828C3.7194 7.1904 4.19361 7.16544 4.50149 7.44254L4.5126 7.45254C4.82048 7.72964 4.84544 8.20386 4.56834 8.51174C4.29124 8.81962 3.81702 8.84457 3.50914 8.56747L3.49803 8.55747C3.19015 8.28037 3.1652 7.80616 3.4423 7.49828ZM3.4423 11.4983C3.7194 11.1904 4.19361 11.1654 4.50149 11.4425L4.5126 11.4525C4.82048 11.7296 4.84544 12.2039 4.56834 12.5117C4.29124 12.8196 3.81702 12.8446 3.50914 12.5675L3.49803 12.5575C3.19015 12.2804 3.1652 11.8062 3.4423 11.4983ZM3.4423 15.4983C3.7194 15.1904 4.19361 15.1654 4.50149 15.4425L4.5126 15.4525C4.82048 15.7296 4.84544 16.2039 4.56834 16.5117C4.29124 16.8196 3.81702 16.8446 3.50914 16.5675L3.49803 16.5575C3.19015 16.2804 3.1652 15.8062 3.4423 15.4983Z" fill="black"/>
</g>
</g>
</g>
<defs>
<clipPath id="clip0_232_5251">
<rect width="24" height="24" rx="5" fill="white"/>
</clipPath>
</defs>
</svg>
