<svg width="24" height="24" viewBox="0 0 24 24" fill="none" xmlns="http://www.w3.org/2000/svg">
<g id="border-inner">
<g clip-path="url(#clip0_232_5291)">
<g id="Weight=Dynamic">
<path id="Vector (Stroke)" fill-rule="evenodd" clip-rule="evenodd" d="M4.51173 3.44156C4.81961 3.71865 4.84457 4.19287 4.56748 4.50075L4.55748 4.51186C4.28038 4.81975 3.80616 4.84471 3.49828 4.56761C3.1904 4.29052 3.16544 3.8163 3.44254 3.50842L3.45254 3.49731C3.72963 3.18942 4.20385 3.16447 4.51173 3.44156ZM8.51174 3.44157C8.81962 3.71866 8.84457 4.19288 8.56747 4.50076L8.55747 4.51187C8.28037 4.81975 7.80616 4.8447 7.49828 4.56761C7.1904 4.29051 7.16544 3.81629 7.44254 3.50841L7.45254 3.4973C7.72964 3.18942 8.20386 3.16447 8.51174 3.44157ZM16.5117 3.44157C16.8196 3.71866 16.8446 4.19288 16.5675 4.50076L16.5575 4.51187C16.2804 4.81975 15.8062 4.8447 15.4983 4.56761C15.1904 4.29051 15.1654 3.81629 15.4425 3.50841L15.4525 3.4973C15.7296 3.18942 16.2039 3.16447 16.5117 3.44157ZM20.5117 3.44157C20.8196 3.71866 20.8446 4.19288 20.5675 4.50076L20.5575 4.51187C20.2804 4.81975 19.8062 4.8447 19.4983 4.56761C19.1904 4.29051 19.1654 3.81629 19.4425 3.50841L19.4525 3.4973C19.7296 3.18942 20.2039 3.16447 20.5117 3.44157ZM12 3.25014C12.4142 3.25014 12.75 3.58593 12.75 4.00014V11.2501H20C20.4142 11.2501 20.75 11.5859 20.75 12.0001C20.75 12.4144 20.4142 12.7501 20 12.7501H12.75V20.0001C12.75 20.4144 12.4142 20.7501 12 20.7501C11.5858 20.7501 11.25 20.4144 11.25 20.0001V12.7501H4.00001C3.58579 12.7501 3.25001 12.4144 3.25001 12.0001C3.25001 11.5859 3.58579 11.2501 4.00001 11.2501H11.25V4.00014C11.25 3.58593 11.5858 3.25014 12 3.25014ZM4.51173 7.44156C4.81961 7.71865 4.84457 8.19287 4.56748 8.50075L4.55748 8.51186C4.28039 8.81975 3.80617 8.84471 3.49829 8.56762C3.1904 8.29052 3.16544 7.81631 3.44253 7.50842L3.45253 7.49731C3.72962 7.18943 4.20384 7.16446 4.51173 7.44156ZM20.5117 7.44156C20.8196 7.71866 20.8446 8.19287 20.5675 8.50076L20.5575 8.51187C20.2804 8.81975 19.8062 8.84471 19.4983 8.56761C19.1904 8.29051 19.1654 7.8163 19.4425 7.50842L19.4525 7.4973C19.7296 7.18942 20.2039 7.16447 20.5117 7.44156ZM4.51173 15.4416C4.81961 15.7186 4.84457 16.1929 4.56748 16.5007L4.55748 16.5119C4.28039 16.8197 3.80617 16.8447 3.49829 16.5676C3.1904 16.2905 3.16544 15.8163 3.44253 15.5084L3.45253 15.4973C3.72962 15.1894 4.20384 15.1645 4.51173 15.4416ZM20.5117 15.4416C20.8196 15.7187 20.8446 16.1929 20.5675 16.5008L20.5575 16.5119C20.2804 16.8197 19.8062 16.8447 19.4983 16.5676C19.1904 16.2905 19.1654 15.8163 19.4425 15.5084L19.4525 15.4973C19.7296 15.1894 20.2039 15.1645 20.5117 15.4416ZM8.51176 19.4416C8.81963 19.7187 8.84456 20.1929 8.56745 20.5008L8.55745 20.5119C8.28034 20.8198 7.80613 20.8447 7.49826 20.5676C7.19039 20.2905 7.16545 19.8163 7.44256 19.5084L7.45256 19.4973C7.72967 19.1894 8.20389 19.1645 8.51176 19.4416ZM16.5118 19.4416C16.8196 19.7187 16.8446 20.1929 16.5675 20.5008L16.5575 20.5119C16.2803 20.8198 15.8061 20.8447 15.4983 20.5676C15.1904 20.2905 15.1655 19.8163 15.4426 19.5084L15.4526 19.4973C15.7297 19.1894 16.2039 19.1645 16.5118 19.4416ZM20.5118 19.4416C20.8196 19.7187 20.8446 20.1929 20.5675 20.5008L20.5575 20.5119C20.2803 20.8198 19.8061 20.8447 19.4983 20.5676C19.1904 20.2905 19.1655 19.8163 19.4426 19.5084L19.4526 19.4973C19.7297 19.1894 20.2039 19.1645 20.5118 19.4416ZM4.51175 19.4416C4.81962 19.7187 4.84456 20.1929 4.56746 20.5008L4.55746 20.5119C4.28035 20.8198 3.80614 20.8447 3.49826 20.5676C3.19039 20.2905 3.16545 19.8163 3.44255 19.5084L3.45255 19.4973C3.72966 19.1894 4.20388 19.1645 4.51175 19.4416Z" fill="black"/>
</g>
</g>
</g>
<defs>
<clipPath id="clip0_232_5291">
<rect width="24" height="24" rx="5" fill="white"/>
</clipPath>
</defs>
</svg>
