<svg width="24" height="24" viewBox="0 0 24 24" fill="none" xmlns="http://www.w3.org/2000/svg">
<g id="border-out">
<g clip-path="url(#clip0_232_4618)">
<g id="Weight=Dynamic">
<path id="Vector (Stroke)" fill-rule="evenodd" clip-rule="evenodd" d="M2.25 3.6C2.25 2.85442 2.85442 2.25 3.6 2.25H20.4C21.1456 2.25 21.75 2.85442 21.75 3.6V20.4C21.75 21.1456 21.1456 21.75 20.4 21.75H3.6C2.85442 21.75 2.25 21.1456 2.25 20.4V3.6ZM3.75 3.75V20.25H20.25V3.75H3.75ZM12.5115 7.44254C12.8194 7.71964 12.8443 8.19385 12.5672 8.50174L12.5572 8.51285C12.2801 8.82073 11.8059 8.84568 11.498 8.56859C11.1902 8.29149 11.1652 7.81728 11.4423 7.50939L11.4523 7.49828C11.7294 7.1904 12.2036 7.16545 12.5115 7.44254ZM8.51149 11.4425C8.81937 11.7196 8.84433 12.1939 8.56723 12.5017L8.55723 12.5128C8.28014 12.8207 7.80592 12.8457 7.49804 12.5686C7.19016 12.2915 7.1652 11.8173 7.4423 11.5094L7.4523 11.4983C7.72939 11.1904 8.20361 11.1654 8.51149 11.4425ZM12.5115 11.4425C12.8194 11.7196 12.8443 12.1939 12.5672 12.5017L12.5572 12.5128C12.2801 12.8207 11.8059 12.8457 11.498 12.5686C11.1902 12.2915 11.1652 11.8173 11.4423 11.5094L11.4523 11.4983C11.7294 11.1904 12.2036 11.1654 12.5115 11.4425ZM16.5115 11.4425C16.8194 11.7196 16.8443 12.1939 16.5672 12.5017L16.5572 12.5128C16.2801 12.8207 15.8059 12.8457 15.498 12.5686C15.1902 12.2915 15.1652 11.8173 15.4423 11.5094L15.4523 11.4983C15.7294 11.1904 16.2036 11.1654 16.5115 11.4425ZM12.5115 15.4425C12.8194 15.7196 12.8443 16.1939 12.5672 16.5017L12.5572 16.5128C12.2801 16.8207 11.8059 16.8457 11.498 16.5686C11.1902 16.2915 11.1652 15.8173 11.4423 15.5094L11.4523 15.4983C11.7294 15.1904 12.2036 15.1654 12.5115 15.4425Z" fill="black"/>
</g>
</g>
</g>
<defs>
<clipPath id="clip0_232_4618">
<rect width="24" height="24" rx="5" fill="white"/>
</clipPath>
</defs>
</svg>
