<svg width="24" height="24" viewBox="0 0 24 24" fill="none" xmlns="http://www.w3.org/2000/svg">
<g id="bounce-right">
<g clip-path="url(#clip0_232_16881)">
<g id="Weight=Dynamic">
<path id="Vector (Stroke)" fill-rule="evenodd" clip-rule="evenodd" d="M16.2502 5C16.2502 3.48122 17.4814 2.25 19.0002 2.25C20.519 2.25 21.7502 3.48122 21.7502 5C21.7502 6.51878 20.519 7.75 19.0002 7.75C17.4814 7.75 16.2502 6.51878 16.2502 5ZM19.0002 3.75C18.3098 3.75 17.7502 4.30964 17.7502 5C17.7502 5.69036 18.3098 6.25 19.0002 6.25C19.6906 6.25 20.2502 5.69036 20.2502 5C20.2502 4.30964 19.6906 3.75 19.0002 3.75ZM15.8861 9.35688C16.2413 9.56999 16.3564 10.0307 16.1433 10.3859C14.702 12.7881 13.2282 17.1942 12.74 20.1233C12.6866 20.4437 12.433 20.6934 12.1117 20.7417C11.7905 20.79 11.4747 20.626 11.3294 20.3354C10.1098 17.8962 8.95663 16.6969 7.86525 16.1772C6.80084 15.6703 5.64793 15.7413 4.23737 16.2115C3.84442 16.3425 3.41968 16.1301 3.28869 15.7372C3.15771 15.3442 3.37008 14.9195 3.76303 14.7885C5.35248 14.2587 6.94957 14.0797 8.51015 14.8229C9.65267 15.3669 10.6915 16.3663 11.6765 17.8994C12.3783 15.0638 13.6072 11.6972 14.8571 9.61413C15.0702 9.25894 15.5309 9.14377 15.8861 9.35688Z" fill="black"/>
</g>
</g>
</g>
<defs>
<clipPath id="clip0_232_16881">
<rect width="24" height="24" rx="5" fill="white"/>
</clipPath>
</defs>
</svg>
