<svg width="24" height="24" viewBox="0 0 24 24" fill="none" xmlns="http://www.w3.org/2000/svg">
<g id="bounce-left">
<g clip-path="url(#clip0_232_16963)">
<g id="Weight=Dynamic">
<path id="Vector (Stroke)" fill-rule="evenodd" clip-rule="evenodd" d="M3.25 5C3.25 3.48122 4.48122 2.25 6 2.25C7.51878 2.25 8.75 3.48122 8.75 5C8.75 6.51878 7.51878 7.75 6 7.75C4.48122 7.75 3.25 6.51878 3.25 5ZM6 3.75C5.30964 3.75 4.75 4.30964 4.75 5C4.75 5.69036 5.30964 6.25 6 6.25C6.69036 6.25 7.25 5.69036 7.25 5C7.25 4.30964 6.69036 3.75 6 3.75ZM9.11413 9.35688C9.46931 9.14377 9.93001 9.25894 10.1431 9.61413C11.393 11.6972 12.6219 15.0638 13.3237 17.8994C14.3087 16.3663 15.3475 15.3669 16.4901 14.8229C18.0506 14.0797 19.6477 14.2587 21.2372 14.7885C21.6301 14.9195 21.8425 15.3442 21.7115 15.7372C21.5805 16.1301 21.1558 16.3425 20.7628 16.2115C19.3523 15.7413 18.1994 15.6703 17.1349 16.1772C16.0436 16.6969 14.8904 17.8962 13.6708 20.3354C13.5255 20.626 13.2097 20.79 12.8885 20.7417C12.5672 20.6934 12.3136 20.4437 12.2602 20.1233C11.772 17.1942 10.2982 12.7881 8.85688 10.3859C8.64377 10.0307 8.75894 9.56999 9.11413 9.35688Z" fill="black"/>
</g>
</g>
</g>
<defs>
<clipPath id="clip0_232_16963">
<rect width="24" height="24" rx="5" fill="white"/>
</clipPath>
</defs>
</svg>
