<svg width="24" height="24" viewBox="0 0 24 24" fill="none" xmlns="http://www.w3.org/2000/svg">
<g id="bowling-ball">
<g clip-path="url(#clip0_232_1675)">
<g id="Weight=Dynamic">
<g id="Vector">
<path d="M11.5 8C11.7761 8 12 7.77614 12 7.5C12 7.22386 11.7761 7 11.5 7C11.2239 7 11 7.22386 11 7.5C11 7.77614 11.2239 8 11.5 8Z" fill="black"/>
<path d="M7.5 11C7.77614 11 8 10.7761 8 10.5C8 10.2239 7.77614 10 7.5 10C7.22386 10 7 10.2239 7 10.5C7 10.7761 7.22386 11 7.5 11Z" fill="black"/>
<path d="M11.5 13C11.7761 13 12 12.7761 12 12.5C12 12.2239 11.7761 12 11.5 12C11.2239 12 11 12.2239 11 12.5C11 12.7761 11.2239 13 11.5 13Z" fill="black"/>
</g>
<path id="Vector (Stroke)" fill-rule="evenodd" clip-rule="evenodd" d="M12 2.75C6.89137 2.75 2.75 6.89137 2.75 12C2.75 17.1086 6.89137 21.25 12 21.25C17.1086 21.25 21.25 17.1086 21.25 12C21.25 6.89137 17.1086 2.75 12 2.75ZM1.25 12C1.25 6.06294 6.06294 1.25 12 1.25C17.9371 1.25 22.75 6.06294 22.75 12C22.75 17.9371 17.9371 22.75 12 22.75C6.06294 22.75 1.25 17.9371 1.25 12ZM11.5 7.75C11.6381 7.75 11.75 7.63807 11.75 7.5C11.75 7.36193 11.6381 7.25 11.5 7.25C11.3619 7.25 11.25 7.36193 11.25 7.5C11.25 7.63807 11.3619 7.75 11.5 7.75ZM10.25 7.5C10.25 6.80964 10.8096 6.25 11.5 6.25C12.1904 6.25 12.75 6.80964 12.75 7.5C12.75 8.19036 12.1904 8.75 11.5 8.75C10.8096 8.75 10.25 8.19036 10.25 7.5ZM7.5 10.75C7.63807 10.75 7.75 10.6381 7.75 10.5C7.75 10.3619 7.63807 10.25 7.5 10.25C7.36193 10.25 7.25 10.3619 7.25 10.5C7.25 10.6381 7.36193 10.75 7.5 10.75ZM6.25 10.5C6.25 9.80964 6.80964 9.25 7.5 9.25C8.19036 9.25 8.75 9.80964 8.75 10.5C8.75 11.1904 8.19036 11.75 7.5 11.75C6.80964 11.75 6.25 11.1904 6.25 10.5ZM11.5 12.75C11.6381 12.75 11.75 12.6381 11.75 12.5C11.75 12.3619 11.6381 12.25 11.5 12.25C11.3619 12.25 11.25 12.3619 11.25 12.5C11.25 12.6381 11.3619 12.75 11.5 12.75ZM10.25 12.5C10.25 11.8096 10.8096 11.25 11.5 11.25C12.1904 11.25 12.75 11.8096 12.75 12.5C12.75 13.1904 12.1904 13.75 11.5 13.75C10.8096 13.75 10.25 13.1904 10.25 12.5Z" fill="black"/>
</g>
</g>
</g>
<defs>
<clipPath id="clip0_232_1675">
<rect width="24" height="24" rx="5" fill="white"/>
</clipPath>
</defs>
</svg>
