<svg width="24" height="24" viewBox="0 0 24 24" fill="none" xmlns="http://www.w3.org/2000/svg">
<g id="box-iso">
<g clip-path="url(#clip0_232_9090)">
<g id="Weight=Dynamic">
<path id="Vector (Stroke)" fill-rule="evenodd" clip-rule="evenodd" d="M11.4517 1.92293C11.8008 1.76779 12.1992 1.76779 12.5483 1.92293L12.2437 2.60829L12.5483 1.92293L20.9483 5.65627C21.4358 5.87294 21.75 6.35641 21.75 6.88991V17.1101C21.75 17.6436 21.4358 18.127 20.9483 18.3437L12.5483 22.077C12.1992 22.2322 11.8008 22.2322 11.4517 22.077L3.05171 18.3437L3.35584 17.6594L3.05171 18.3437C2.56419 18.127 2.25 17.6436 2.25 17.1101V6.88991C2.25 6.35641 2.56419 5.87294 3.05171 5.65627L3.21335 6.01995L3.05171 5.65627L7.1924 3.81596C7.19425 3.81513 7.1961 3.81431 7.19796 3.81349L11.4517 1.92293ZM7.5 5.32073L4.84666 6.49999L12 9.67925L14.6533 8.49999L7.5 5.32073ZM16.4986 7.67987C16.482 7.67169 16.4653 7.66382 16.4483 7.65627L9.34666 4.49999L12 3.32073L19.1533 6.49999L16.4986 7.67987ZM15.75 9.65406V12.5C15.75 12.9142 16.0858 13.25 16.5 13.25C16.9142 13.25 17.25 12.9142 17.25 12.5V8.98739L20.25 7.65406V17.0126L12.75 20.3459V10.9874L15.75 9.65406ZM11.25 10.9874L3.75 7.65406V17.0126L11.25 20.3459V10.9874ZM12.0607 3.29376C12.0608 3.29372 12.0608 3.29369 12.0609 3.29365L12 3.15658L11.9391 3.29365C11.9392 3.29369 11.9392 3.29372 11.9393 3.29376L11.9391 3.29365L12 3.15658L12.0609 3.29365L12.0607 3.29376Z" fill="black"/>
</g>
</g>
</g>
<defs>
<clipPath id="clip0_232_9090">
<rect width="24" height="24" rx="5" fill="white"/>
</clipPath>
</defs>
</svg>
