<svg width="24" height="24" viewBox="0 0 24 24" fill="none" xmlns="http://www.w3.org/2000/svg">
<g id="box">
<g clip-path="url(#clip0_232_8932)">
<g id="Weight=Dynamic">
<path id="Vector (Stroke)" fill-rule="evenodd" clip-rule="evenodd" d="M2.25 3C2.25 2.58579 2.58579 2.25 3 2.25H21C21.4142 2.25 21.75 2.58579 21.75 3C21.75 3.41421 21.4142 3.75 21 3.75H3C2.58579 3.75 2.25 3.41421 2.25 3ZM3 6.25C3.41421 6.25 3.75 6.58579 3.75 7V20.25H20.25V7C20.25 6.58579 20.5858 6.25 21 6.25C21.4142 6.25 21.75 6.58579 21.75 7V20.4C21.75 21.1456 21.1456 21.75 20.4 21.75H3.6C2.85442 21.75 2.25 21.1456 2.25 20.4V7C2.25 6.58579 2.58579 6.25 3 6.25ZM9.25 12C9.25 11.5858 9.58579 11.25 10 11.25H14C14.4142 11.25 14.75 11.5858 14.75 12C14.75 12.4142 14.4142 12.75 14 12.75H10C9.58579 12.75 9.25 12.4142 9.25 12Z" fill="black"/>
</g>
</g>
</g>
<defs>
<clipPath id="clip0_232_8932">
<rect width="24" height="24" rx="5" fill="white"/>
</clipPath>
</defs>
</svg>
