<svg width="24" height="24" viewBox="0 0 24 24" fill="none" xmlns="http://www.w3.org/2000/svg">
<g id="boxing-glove">
<g clip-path="url(#clip0_232_1842)">
<g id="Weight=Dynamic">
<path id="Vector (Stroke)" fill-rule="evenodd" clip-rule="evenodd" d="M8.30113 3.43188C9.47715 2.5124 11.2177 2.25 13.4223 2.25C15.6277 2.25 17.527 2.51133 18.8481 3.66164C20.1951 4.83454 20.75 6.75264 20.75 9.54545C20.75 13.7701 19.75 16.7271 19.1056 17.9249V21C19.1056 21.4142 18.7698 21.75 18.3556 21.75H8.48902C8.0748 21.75 7.73902 21.4142 7.73902 21V18.116C6.09421 16.8884 4.89789 14.9643 4.16349 13.1705C3.76802 12.2046 3.49413 11.247 3.3554 10.4095C3.22167 9.60222 3.19572 8.80442 3.39272 8.21632C3.75968 7.12085 4.76437 6.82668 5.54929 6.80484C5.93317 6.79415 6.32384 6.84187 6.68302 6.91726C6.81448 5.40662 7.28239 4.2284 8.30113 3.43188ZM6.65389 8.45282C6.31807 8.36076 5.93468 8.29469 5.59103 8.30426C5.06954 8.31877 4.8866 8.47915 4.81504 8.69277C4.73797 8.92285 4.71201 9.42051 4.83523 10.1644C4.95344 10.878 5.19343 11.7272 5.55166 12.6022C6.24568 14.2974 7.33816 15.9815 8.72275 16.9773H17.9038C18.4189 15.8852 19.25 13.2923 19.25 9.54545C19.25 6.88372 18.7086 5.5291 17.8631 4.79291C16.9916 4.03412 15.602 3.75 13.4223 3.75C11.2417 3.75 9.96752 4.03306 9.22505 4.61357C8.58278 5.11573 8.19497 5.96476 8.14764 7.56701C8.54364 7.85953 9.27983 8.24997 10.1335 8.24997H15.0668C15.481 8.24997 15.8168 8.58575 15.8168 8.99997C15.8168 9.41418 15.481 9.74997 15.0668 9.74997H10.1335C9.42182 9.74997 8.7779 9.57503 8.24367 9.34102C8.38488 10.2271 8.65316 10.734 8.91136 11.0231C9.26659 11.4207 9.70887 11.5227 10.1335 11.5227C10.5478 11.5227 10.8835 11.8585 10.8835 12.2727C10.8835 12.6869 10.5478 13.0227 10.1335 13.0227C9.46192 13.0227 8.53381 12.852 7.79271 12.0224C7.13786 11.2893 6.72546 10.1472 6.65389 8.45282ZM17.6056 18.4773H9.23902V20.25H17.6056V18.4773Z" fill="black"/>
</g>
</g>
</g>
<defs>
<clipPath id="clip0_232_1842">
<rect width="24" height="24" rx="5" fill="white"/>
</clipPath>
</defs>
</svg>
