<svg width="24" height="24" viewBox="0 0 24 24" fill="none" xmlns="http://www.w3.org/2000/svg">
<g id="brain-research">
<g clip-path="url(#clip0_232_13632)">
<g id="Weight=Dynamic">
<path id="Vector (Stroke)" fill-rule="evenodd" clip-rule="evenodd" d="M6.25417 4.33812C6.33852 2.6184 7.75956 1.25 9.50021 1.25C10.5054 1.25 11.4041 1.70637 12.0002 2.42322C12.5964 1.70637 13.495 1.25 14.5002 1.25C16.2409 1.25 17.6619 2.6184 17.7462 4.33813C17.9884 4.28051 18.241 4.25 18.5005 4.25C20.2954 4.25 21.7505 5.70507 21.7505 7.5C21.7505 7.95268 21.6575 8.3847 21.4897 8.77716C22.2714 9.62335 22.7503 10.7561 22.7503 12C22.7503 12.8336 22.5349 13.6192 22.1561 14.3018C21.9552 14.664 21.4986 14.7947 21.1364 14.5937C20.7743 14.3928 20.6436 13.9362 20.8445 13.574C21.1029 13.1084 21.2503 12.5726 21.2503 12C21.2503 11.0157 20.8137 10.1342 20.1209 9.53707C20.0111 9.44243 19.9354 9.32291 19.895 9.19407C19.7937 8.96654 19.8078 8.69354 19.9565 8.47121C20.1422 8.19365 20.2505 7.86061 20.2505 7.5C20.2505 6.5335 19.4669 5.75 18.5005 5.75C18.1056 5.75 17.7432 5.8799 17.4507 6.09962C17.3376 6.18459 17.2083 6.23276 17.0772 6.24616C16.8827 6.3359 16.6514 6.34216 16.4425 6.24364C16.0679 6.06692 15.9075 5.61997 16.0842 5.24535C16.1904 5.02014 16.2502 4.76809 16.2502 4.5C16.2502 3.5335 15.4667 2.75 14.5002 2.75C13.5337 2.75 12.7502 3.5335 12.7502 4.5V7C12.7502 8.24264 13.7576 9.25 15.0002 9.25C15.4144 9.25 15.7502 9.58579 15.7502 10C15.7502 10.4142 15.4144 10.75 15.0002 10.75C14.156 10.75 13.377 10.471 12.7502 10.0003V20C12.7502 20.6904 13.3099 21.25 14.0002 21.25C14.4144 21.25 14.7502 21.5858 14.7502 22C14.7502 22.4142 14.4144 22.75 14.0002 22.75C13.2122 22.75 12.5016 22.4186 12.0002 21.8875C11.4988 22.4186 10.7882 22.75 10.0002 22.75C8.73559 22.75 7.67035 21.8964 7.34923 20.7339C7.23421 20.7446 7.11779 20.75 7.00021 20.75C4.92914 20.75 3.25021 19.0711 3.25021 17C3.25021 16.6432 3.30003 16.2981 3.39309 15.9712C2.1032 15.1228 1.25 13.6616 1.25 12C1.25 10.756 1.72889 9.62327 2.5107 8.77708C2.34287 8.38464 2.24996 7.95265 2.24996 7.5C2.24996 5.70507 3.70504 4.25 5.49996 4.25C5.75939 4.25 6.01197 4.28051 6.25417 4.33812ZM6.92326 6.24616C6.7921 6.23276 6.6628 6.18459 6.5497 6.09962C6.25726 5.8799 5.89486 5.75 5.49996 5.75C4.53347 5.75 3.74996 6.5335 3.74996 7.5C3.74996 7.86061 3.85822 8.19365 4.04388 8.47121C4.19279 8.69382 4.20678 8.96723 4.105 9.19494C4.06454 9.32345 3.98896 9.44264 3.87941 9.53707C3.18665 10.1342 2.75 11.0157 2.75 12C2.75 13.0814 3.27811 14.0405 4.09248 14.6318C4.78012 13.7885 5.82728 13.25 7.00021 13.25C7.41442 13.25 7.75021 13.5858 7.75021 14C7.75021 14.4142 7.41442 14.75 7.00021 14.75C5.75757 14.75 4.75021 15.7574 4.75021 17C4.75021 18.2426 5.75757 19.25 7.00021 19.25C7.26452 19.25 7.51665 19.2047 7.75027 19.1222C8.14081 18.9841 8.5693 19.1888 8.70734 19.5794C8.7467 19.6907 8.75819 19.8052 8.74545 19.9151C8.74859 19.943 8.75021 19.9713 8.75021 20C8.75021 20.6904 9.30985 21.25 10.0002 21.25C10.6906 21.25 11.2502 20.6904 11.2502 20V4.5C11.2502 3.5335 10.4667 2.75 9.50021 2.75C8.53371 2.75 7.75021 3.5335 7.75021 4.5C7.75021 4.76809 7.80998 5.02014 7.91622 5.24535C8.09294 5.61997 7.9325 6.06692 7.55788 6.24364C7.34904 6.34216 7.11771 6.3359 6.92326 6.24616ZM18.5002 16.75C17.5337 16.75 16.7502 17.5335 16.7502 18.5C16.7502 19.4665 17.5337 20.25 18.5002 20.25C18.9845 20.25 19.4216 20.0543 19.7393 19.7358C20.0558 19.4184 20.2502 18.9826 20.2502 18.5C20.2502 17.5335 19.4667 16.75 18.5002 16.75ZM15.2502 18.5C15.2502 16.7051 16.7053 15.25 18.5002 15.25C20.2951 15.25 21.7502 16.7051 21.7502 18.5C21.7502 19.1254 21.5731 19.7102 21.2668 20.206L22.5305 21.4697C22.8234 21.7626 22.8234 22.2374 22.5305 22.5303C22.2376 22.8232 21.7628 22.8232 21.4699 22.5303L20.2062 21.2666C19.7104 21.5729 19.1256 21.75 18.5002 21.75C16.7053 21.75 15.2502 20.2949 15.2502 18.5Z" fill="black"/>
</g>
</g>
</g>
<defs>
<clipPath id="clip0_232_13632">
<rect width="24" height="24" rx="5" fill="white"/>
</clipPath>
</defs>
</svg>
