<svg width="24" height="24" viewBox="0 0 24 24" fill="none" xmlns="http://www.w3.org/2000/svg">
<g id="brain-warning">
<g clip-path="url(#clip0_232_13604)">
<g id="Weight=Dynamic">
<path id="Vector (Stroke)" fill-rule="evenodd" clip-rule="evenodd" d="M6.25417 4.33812C6.33852 2.6184 7.75956 1.25 9.50021 1.25C10.5054 1.25 11.4041 1.70637 12.0002 2.42322C12.5964 1.70637 13.495 1.25 14.5002 1.25C16.2409 1.25 17.6619 2.6184 17.7462 4.33813C17.9884 4.28051 18.241 4.25 18.5005 4.25C20.2954 4.25 21.7505 5.70507 21.7505 7.5C21.7505 7.95265 21.6575 8.38464 21.4897 8.77708C22.2715 9.62327 22.7504 10.756 22.7504 12C22.7504 13.6616 21.8972 15.1228 20.6073 15.9712C20.7004 16.2981 20.7502 16.6432 20.7502 17C20.7502 19.0711 19.0713 20.75 17.0002 20.75C16.8826 20.75 16.7662 20.7446 16.6512 20.7339C16.3301 21.8964 15.2648 22.75 14.0002 22.75C13.2122 22.75 12.5016 22.4186 12.0002 21.8875C11.4988 22.4186 10.7882 22.75 10.0002 22.75C8.73559 22.75 7.67035 21.8964 7.34923 20.7339C7.23421 20.7446 7.11779 20.75 7.00021 20.75C4.92914 20.75 3.25021 19.0711 3.25021 17C3.25021 16.6432 3.30003 16.2981 3.39309 15.9712C2.1032 15.1228 1.25 13.6616 1.25 12C1.25 10.756 1.72889 9.62327 2.5107 8.77708C2.34287 8.38464 2.24996 7.95265 2.24996 7.5C2.24996 5.70507 3.70504 4.25 5.49996 4.25C5.75939 4.25 6.01197 4.28051 6.25417 4.33812ZM6.92326 6.24616C6.7921 6.23276 6.6628 6.18459 6.5497 6.09962C6.25726 5.8799 5.89486 5.75 5.49996 5.75C4.53347 5.75 3.74996 6.5335 3.74996 7.5C3.74996 7.86061 3.85822 8.19365 4.04388 8.47121C4.19279 8.69382 4.20678 8.96723 4.105 9.19494C4.06454 9.32345 3.98896 9.44264 3.87941 9.53707C3.18665 10.1342 2.75 11.0157 2.75 12C2.75 13.0814 3.27811 14.0405 4.09248 14.6318C4.78012 13.7885 5.82728 13.25 7.00021 13.25C7.41442 13.25 7.75021 13.5858 7.75021 14C7.75021 14.4142 7.41442 14.75 7.00021 14.75C5.75757 14.75 4.75021 15.7574 4.75021 17C4.75021 18.2426 5.75757 19.25 7.00021 19.25C7.26453 19.25 7.51665 19.2047 7.75027 19.1222C8.14081 18.9841 8.5693 19.1888 8.70734 19.5794C8.7467 19.6907 8.75819 19.8052 8.74545 19.9151C8.74859 19.943 8.75021 19.9713 8.75021 20C8.75021 20.6904 9.30985 21.25 10.0002 21.25C10.6906 21.25 11.2502 20.6904 11.2502 20C11.2502 19.5858 11.586 19.25 12.0002 19.25C12.4144 19.25 12.7502 19.5858 12.7502 20C12.7502 20.6904 13.3099 21.25 14.0002 21.25C14.6906 21.25 15.2502 20.6904 15.2502 20C15.2502 19.9713 15.2518 19.9429 15.255 19.9151C15.2422 19.8051 15.2537 19.6907 15.2931 19.5794C15.4311 19.1888 15.8596 18.9841 16.2501 19.1222C16.4838 19.2047 16.7359 19.25 17.0002 19.25C18.2428 19.25 19.2502 18.2426 19.2502 17C19.2502 15.7574 18.2428 14.75 17.0002 14.75C16.586 14.75 16.2502 14.4142 16.2502 14C16.2502 13.5858 16.586 13.25 17.0002 13.25C18.1731 13.25 19.2203 13.7885 19.9079 14.6318C20.7223 14.0405 21.2504 13.0814 21.2504 12C21.2504 11.0157 20.8138 10.1342 20.121 9.53707C20.0115 9.44264 19.9359 9.32344 19.8954 9.19493C19.7936 8.96723 19.8076 8.69382 19.9565 8.47121C20.1422 8.19365 20.2505 7.86061 20.2505 7.5C20.2505 6.5335 19.467 5.75 18.5005 5.75C18.1056 5.75 17.7432 5.8799 17.4507 6.09962C17.3376 6.18459 17.2083 6.23276 17.0772 6.24616C16.8827 6.3359 16.6514 6.34216 16.4425 6.24364C16.0679 6.06692 15.9075 5.61997 16.0842 5.24535C16.1904 5.02014 16.2502 4.76809 16.2502 4.5C16.2502 3.5335 15.4667 2.75 14.5002 2.75C13.5337 2.75 12.7502 3.5335 12.7502 4.5C12.7502 4.91421 12.4144 5.25 12.0002 5.25C11.586 5.25 11.2502 4.91421 11.2502 4.5C11.2502 3.5335 10.4667 2.75 9.50021 2.75C8.53371 2.75 7.75021 3.5335 7.75021 4.5C7.75021 4.76809 7.80998 5.02014 7.91622 5.24535C8.09294 5.61997 7.9325 6.06692 7.55788 6.24364C7.34904 6.34216 7.11771 6.3359 6.92326 6.24616ZM12.0002 7.25C12.4144 7.25 12.7502 7.58579 12.7502 8V12C12.7502 12.4142 12.4144 12.75 12.0002 12.75C11.586 12.75 11.2502 12.4142 11.2502 12V8C11.2502 7.58579 11.586 7.25 12.0002 7.25ZM12.5119 15.4414C12.8198 15.7185 12.8448 16.1927 12.5677 16.5006L12.5577 16.5117C12.2806 16.8196 11.8064 16.8446 11.4985 16.5675C11.1906 16.2904 11.1656 15.8162 11.4427 15.5083L11.4527 15.4972C11.7298 15.1893 12.2041 15.1643 12.5119 15.4414Z" fill="black"/>
</g>
</g>
</g>
<defs>
<clipPath id="clip0_232_13604">
<rect width="24" height="24" rx="5" fill="white"/>
</clipPath>
</defs>
</svg>
