<svg width="24" height="24" viewBox="0 0 24 24" fill="none" xmlns="http://www.w3.org/2000/svg">
<g id="bread-slice">
<g clip-path="url(#clip0_232_7991)">
<g id="Weight=Dynamic">
<path id="Vector (Stroke)" fill-rule="evenodd" clip-rule="evenodd" d="M4.58545 8.53147L4.58018 8.52473C4.57487 8.51793 4.56618 8.50668 4.55454 8.4913C4.53124 8.4605 4.49624 8.41331 4.45298 8.35212C4.36613 8.22931 4.2477 8.05258 4.12419 7.84084C3.86927 7.40385 3.627 6.87548 3.55398 6.38874C3.48434 5.92445 3.57507 5.59419 3.8591 5.34721C4.09987 5.13785 4.55319 4.92049 5.37049 4.8151C5.02966 5.39084 4.98442 6.03686 5.07058 6.61126C5.18507 7.37451 5.53656 8.09615 5.82852 8.59666C5.97845 8.85367 6.12175 9.06756 6.22826 9.21819C6.23561 9.22858 6.24279 9.23869 6.2498 9.24849V19.25H5.9998C5.30945 19.25 4.7498 18.6904 4.7498 18V9C4.7498 8.8299 4.69159 8.66438 4.58545 8.53147C4.58559 8.53165 4.58608 8.53227 4.58614 8.53233L4.58545 8.53147ZM7.7498 19.25H17.9998C18.6902 19.25 19.2498 18.6904 19.2498 18V9C19.2498 8.83013 19.3075 8.6653 19.4133 8.53249L19.4142 8.53147L19.419 8.52532C19.4241 8.51873 19.4326 8.50771 19.444 8.49256C19.4668 8.46224 19.5012 8.4156 19.5436 8.35505C19.6287 8.23344 19.7442 8.05846 19.8629 7.84898C20.1088 7.41516 20.3313 6.89752 20.3786 6.42537C20.422 5.9911 20.3199 5.64914 19.9644 5.37572C19.5506 5.05739 18.6901 4.75 16.9998 4.75H9.4998C7.93848 4.75 7.19362 5.05632 6.8591 5.34721C6.57507 5.59419 6.48434 5.92445 6.55398 6.38874C6.627 6.87548 6.86927 7.40385 7.12419 7.84084C7.2477 8.05258 7.36613 8.22931 7.45298 8.35212C7.49624 8.41331 7.53124 8.4605 7.55454 8.4913C7.56618 8.50668 7.57487 8.51793 7.58018 8.52473L7.58545 8.53147C7.58538 8.53138 7.58554 8.53159 7.58545 8.53147M16.9998 3.25C18.8095 3.25 20.0741 3.56762 20.879 4.18678C21.7423 4.85086 21.9527 5.75891 21.8711 6.57464C21.7933 7.35248 21.4534 8.08484 21.168 8.58852C21.021 8.84779 20.8787 9.06344 20.7724 9.21526C20.7647 9.2263 20.7572 9.23701 20.7498 9.2474V18C20.7498 19.5188 19.5186 20.75 17.9998 20.75H5.9998C4.48102 20.75 3.2498 19.5188 3.2498 18V9.24849C3.24279 9.23869 3.23561 9.22858 3.22826 9.21819C3.12175 9.06756 2.97845 8.85367 2.82852 8.59666C2.53656 8.09615 2.18507 7.37451 2.07058 6.61126C1.95272 5.82555 2.08074 4.90581 2.87483 4.21529C3.61844 3.56868 4.8111 3.25 6.4998 3.25H16.9998ZM7.7498 19.25V9C7.7498 8.8299 7.6916 8.66438 7.58545 8.53147" fill="black"/>
</g>
</g>
</g>
<defs>
<clipPath id="clip0_232_7991">
<rect width="24" height="24" rx="5" fill="white"/>
</clipPath>
</defs>
</svg>
