<svg width="24" height="24" viewBox="0 0 24 24" fill="none" xmlns="http://www.w3.org/2000/svg">
<g id="bridge-surface">
<g clip-path="url(#clip0_232_859)">
<g id="Weight=Dynamic">
<path id="Vector (Stroke)" fill-rule="evenodd" clip-rule="evenodd" d="M10 0.25C10.4142 0.25 10.75 0.585786 10.75 1V3C10.75 3.41421 10.4142 3.75 10 3.75C9.58579 3.75 9.25 3.41421 9.25 3V1C9.25 0.585786 9.58579 0.25 10 0.25ZM10.3134 5.31862C10.5795 5.441 10.75 5.7071 10.75 6C10.75 7.89289 11.2261 9.97618 12.3603 11.5641C13.4698 13.1174 15.2427 14.25 18 14.25C18.3139 14.25 18.5945 14.4454 18.7034 14.7398C18.8123 15.0342 18.7264 15.3652 18.4881 15.5694L11.4881 21.5694C11.3522 21.686 11.179 21.75 11 21.75C7.75731 21.75 5.53021 20.3826 4.1397 18.4359C2.77391 16.5238 2.25 14.1071 2.25 12C2.25 11.7811 2.34567 11.573 2.51191 11.4306L9.51191 5.43056C9.73429 5.23994 10.0473 5.19623 10.3134 5.31862ZM3.75512 12.3406C3.80913 14.1396 4.29374 16.0709 5.3603 17.5641C6.43273 19.0655 8.12498 20.1739 10.7269 20.2462L16.1598 15.5895C13.8927 15.1747 12.2497 13.9899 11.1397 12.4359C10.0998 10.9801 9.54797 9.23175 9.34382 7.55025L3.75512 12.3406ZM3 5.75C3.41421 5.75 3.75 6.08579 3.75 6.5V8.5C3.75 8.91421 3.41421 9.25 3 9.25C2.58579 9.25 2.25 8.91421 2.25 8.5V6.5C2.25 6.08579 2.58579 5.75 3 5.75ZM20.25 15C20.25 14.5858 20.5858 14.25 21 14.25H23C23.4142 14.25 23.75 14.5858 23.75 15C23.75 15.4142 23.4142 15.75 23 15.75H21C20.5858 15.75 20.25 15.4142 20.25 15ZM13.75 21C13.75 20.5858 14.0858 20.25 14.5 20.25H16.5C16.9142 20.25 17.25 20.5858 17.25 21C17.25 21.4142 16.9142 21.75 16.5 21.75H14.5C14.0858 21.75 13.75 21.4142 13.75 21Z" fill="black"/>
</g>
</g>
</g>
<defs>
<clipPath id="clip0_232_859">
<rect width="24" height="24" rx="5" fill="white"/>
</clipPath>
</defs>
</svg>
