<svg width="24" height="24" viewBox="0 0 24 24" fill="none" xmlns="http://www.w3.org/2000/svg">
<g id="bright-crown">
<g clip-path="url(#clip0_232_8223)">
<g id="Weight=Dynamic" clip-path="url(#clip1_232_8223)">
<path id="Vector (Stroke)" fill-rule="evenodd" clip-rule="evenodd" d="M12 0.25C12.4142 0.25 12.75 0.585786 12.75 1V2C12.75 2.41421 12.4142 2.75 12 2.75C11.5858 2.75 11.25 2.41421 11.25 2V1C11.25 0.585786 11.5858 0.25 12 0.25ZM3.46967 3.46967C3.76256 3.17678 4.23744 3.17678 4.53033 3.46967L5.53033 4.46967C5.82322 4.76256 5.82322 5.23744 5.53033 5.53033C5.23744 5.82322 4.76256 5.82322 4.46967 5.53033L3.46967 4.53033C3.17678 4.23744 3.17678 3.76256 3.46967 3.46967ZM20.5303 3.46967C20.8232 3.76256 20.8232 4.23744 20.5303 4.53033L19.5303 5.53033C19.2374 5.82322 18.7626 5.82322 18.4697 5.53033C18.1768 5.23744 18.1768 4.76256 18.4697 4.46967L19.4697 3.46967C19.7626 3.17678 20.2374 3.17678 20.5303 3.46967ZM5.55303 7.89774C5.78005 7.72925 6.08254 7.70274 6.33541 7.82918L10.0117 9.6673L11.4306 8.01191C11.573 7.84567 11.7811 7.75 12 7.75C12.2189 7.75 12.427 7.84567 12.5694 8.01191L13.9884 9.6673L17.6646 7.82918C17.9175 7.70274 18.2199 7.72925 18.447 7.89774C18.674 8.06623 18.787 8.34807 18.7392 8.62672L17.5392 15.6267C17.4775 15.9868 17.1653 16.25 16.8 16.25H7.2C6.83468 16.25 6.52251 15.9868 6.46078 15.6267L5.26078 8.62672C5.21301 8.34807 5.326 8.06623 5.55303 7.89774ZM6.9895 9.83328L7.83237 14.75H16.1676L17.0105 9.83328L14.1354 11.2708C13.8276 11.4247 13.4545 11.3494 13.2306 11.0881L12 9.65244L10.7694 11.0881C10.5455 11.3494 10.1724 11.4247 9.86459 11.2708L6.9895 9.83328ZM0.25 12C0.25 11.5858 0.585786 11.25 1 11.25H2C2.41421 11.25 2.75 11.5858 2.75 12C2.75 12.4142 2.41421 12.75 2 12.75H1C0.585786 12.75 0.25 12.4142 0.25 12ZM21.25 12C21.25 11.5858 21.5858 11.25 22 11.25H23C23.4142 11.25 23.75 11.5858 23.75 12C23.75 12.4142 23.4142 12.75 23 12.75H22C21.5858 12.75 21.25 12.4142 21.25 12ZM5.53033 18.4697C5.82322 18.7626 5.82322 19.2374 5.53033 19.5303L4.53033 20.5303C4.23744 20.8232 3.76256 20.8232 3.46967 20.5303C3.17678 20.2374 3.17678 19.7626 3.46967 19.4697L4.46967 18.4697C4.76256 18.1768 5.23744 18.1768 5.53033 18.4697ZM18.4697 18.4697C18.7626 18.1768 19.2374 18.1768 19.5303 18.4697L20.5303 19.4697C20.8232 19.7626 20.8232 20.2374 20.5303 20.5303C20.2374 20.8232 19.7626 20.8232 19.4697 20.5303L18.4697 19.5303C18.1768 19.2374 18.1768 18.7626 18.4697 18.4697ZM12 21.25C12.4142 21.25 12.75 21.5858 12.75 22V23C12.75 23.4142 12.4142 23.75 12 23.75C11.5858 23.75 11.25 23.4142 11.25 23V22C11.25 21.5858 11.5858 21.25 12 21.25Z" fill="black"/>
</g>
</g>
</g>
<defs>
<clipPath id="clip0_232_8223">
<rect width="24" height="24" rx="5" fill="white"/>
</clipPath>
<clipPath id="clip1_232_8223">
<rect width="24" height="24" fill="white"/>
</clipPath>
</defs>
</svg>
