<svg width="24" height="24" viewBox="0 0 24 24" fill="none" xmlns="http://www.w3.org/2000/svg">
<g id="brightness">
<g clip-path="url(#clip0_232_15423)">
<g id="Weight=Dynamic">
<g id="Vector">
</g>
<path id="Vector (Stroke)" fill-rule="evenodd" clip-rule="evenodd" d="M2.25 3.6C2.25 2.85442 2.85442 2.25 3.6 2.25H20.4C21.1456 2.25 21.75 2.85442 21.75 3.6V20.4C21.75 21.1456 21.1456 21.75 20.4 21.75H3.6C2.85442 21.75 2.25 21.1456 2.25 20.4V3.6ZM3.75 3.75V20.25H20.25V3.75H3.75ZM11.5135 6.42916C11.7939 6.19028 12.2061 6.19028 12.4865 6.42916L13.8324 7.57617L15.5952 7.71684C15.9623 7.74614 16.2539 8.03767 16.2832 8.40481L16.4238 10.1676L17.5708 11.5135C17.8097 11.7939 17.8097 12.2061 17.5708 12.4865L16.4238 13.8324L16.2832 15.5952C16.2539 15.9623 15.9623 16.2539 15.5952 16.2832L13.8324 16.4238L12.4865 17.5708C12.2061 17.8097 11.7939 17.8097 11.5135 17.5708L10.1676 16.4238L8.40481 16.2832C8.03767 16.2539 7.74614 15.9623 7.71684 15.5952L7.57617 13.8324L6.42916 12.4865C6.19028 12.2061 6.19028 11.7939 6.42916 11.5135L7.57617 10.1676L7.71684 8.40481C7.74614 8.03767 8.03767 7.74614 8.40481 7.71684L10.1676 7.57617L11.5135 6.42916ZM11.25 8.62454L10.9557 8.87532C10.8356 8.97769 10.6863 9.03955 10.5289 9.0521L9.16125 9.16125L9.0521 10.5289C9.03955 10.6863 8.97769 10.8356 8.87532 10.9557L7.9854 12L8.87532 13.0443C8.97769 13.1644 9.03955 13.3137 9.0521 13.4711L9.16125 14.8388L10.5289 14.9479C10.6863 14.9605 10.8356 15.0223 10.9557 15.1247L11.25 15.3755V8.62454ZM12.75 8.62454V15.3755L13.0443 15.1247C13.1644 15.0223 13.3137 14.9605 13.4711 14.9479L14.8388 14.8388L14.9479 13.4711C14.9605 13.3137 15.0223 13.1644 15.1247 13.0443L16.0146 12L15.1247 10.9557C15.0223 10.8356 14.9605 10.6863 14.9479 10.5289L14.8388 9.16125L13.4711 9.0521C13.3137 9.03955 13.1644 8.97769 13.0443 8.87532L12.75 8.62454Z" fill="black"/>
</g>
</g>
</g>
<defs>
<clipPath id="clip0_232_15423">
<rect width="24" height="24" rx="5" fill="white"/>
</clipPath>
</defs>
</svg>
