<svg width="24" height="24" viewBox="0 0 24 24" fill="none" xmlns="http://www.w3.org/2000/svg">
<g id="brightness-window">
<g clip-path="url(#clip0_232_15405)">
<g id="Weight=Dynamic">
<g id="Vector">
<path fill-rule="evenodd" clip-rule="evenodd" d="M3.75 3.5C3.05964 3.5 2.5 4.05964 2.5 4.75V18.75C2.5 19.4404 3.05964 20 3.75 20H11.75C12.1642 20 12.5 20.3358 12.5 20.75C12.5 21.1642 12.1642 21.5 11.75 21.5H3.75C2.23122 21.5 1 20.2688 1 18.75V4.75C1 3.23122 2.23122 2 3.75 2H19.75C21.2688 2 22.5 3.23122 22.5 4.75V11.75C22.5 12.1642 22.1642 12.5 21.75 12.5C21.3358 12.5 21 12.1642 21 11.75V4.75C21 4.05964 20.4404 3.5 19.75 3.5H3.75Z" fill="black"/>
<path fill-rule="evenodd" clip-rule="evenodd" d="M1 6.75C1 6.33579 1.33579 6 1.75 6H21.75C22.1642 6 22.5 6.33579 22.5 6.75C22.5 7.16421 22.1642 7.5 21.75 7.5H1.75C1.33579 7.5 1 7.16421 1 6.75Z" fill="black"/>
<path fill-rule="evenodd" clip-rule="evenodd" d="M5.26172 4.19142C5.56961 4.46851 5.59456 4.94273 5.31747 5.25061L5.30747 5.26172C5.03038 5.56961 4.55616 5.59456 4.24828 5.31747C3.94039 5.04038 3.91544 4.56616 4.19253 4.25828L4.20253 4.24716C4.47962 3.93928 4.95384 3.91432 5.26172 4.19142Z" fill="black"/>
<path fill-rule="evenodd" clip-rule="evenodd" d="M8.26172 4.19142C8.56961 4.46851 8.59456 4.94273 8.31747 5.25061L8.30747 5.26172C8.03038 5.56961 7.55616 5.59456 7.24828 5.31747C6.94039 5.04038 6.91544 4.56616 7.19253 4.25828L7.20253 4.24716C7.47962 3.93928 7.95384 3.91432 8.26172 4.19142Z" fill="black"/>
<path fill-rule="evenodd" clip-rule="evenodd" d="M11.2617 4.19142C11.5696 4.46851 11.5946 4.94273 11.3175 5.25061L11.3075 5.26172C11.0304 5.56961 10.5562 5.59456 10.2483 5.31747C9.94039 5.04038 9.91543 4.56616 10.1925 4.25828L10.2025 4.24716C10.4796 3.93928 10.9538 3.91432 11.2617 4.19142Z" fill="black"/>
<path fill-rule="evenodd" clip-rule="evenodd" d="M17.75 12.7646L19.2763 14.0653L21.2752 14.2248L21.4347 16.2237L22.7354 17.75L21.4347 19.2763L21.2752 21.2752L19.2763 21.4347L17.75 22.7354L16.2237 21.4347L14.2248 21.2752L14.0653 19.2763L12.7646 17.75L14.0653 16.2237L14.2248 14.2248L16.2237 14.0653L17.75 12.7646ZM17.75 14.7354L16.8271 15.5219L15.6184 15.6184L15.5219 16.8271L14.7354 17.75L15.5219 18.6729L15.6184 19.8816L16.8271 19.9781L17.75 20.7646L18.6729 19.9781L19.8816 19.8816L19.9781 18.6729L20.7646 17.75L19.9781 16.8271L19.8816 15.6184L18.6729 15.5219L17.75 14.7354Z" fill="black"/>
<path d="M16.5254 20.7064L17.75 21.75V13.75L16.5254 14.7936L14.9216 14.9216L14.7936 16.5254L13.75 17.75L14.7936 18.9746L14.9216 20.5784L16.5254 20.7064Z" fill="black"/>
</g>
</g>
</g>
</g>
<defs>
<clipPath id="clip0_232_15405">
<rect width="24" height="24" rx="5" fill="white"/>
</clipPath>
</defs>
</svg>
