<svg width="24" height="24" viewBox="0 0 24 24" fill="none" xmlns="http://www.w3.org/2000/svg">
<g id="bright-star">
<g clip-path="url(#clip0_232_8187)">
<g id="Weight=Dynamic" clip-path="url(#clip1_232_8187)">
<path id="Vector (Stroke)" fill-rule="evenodd" clip-rule="evenodd" d="M12 0.25C12.4142 0.25 12.75 0.585786 12.75 1V2C12.75 2.41421 12.4142 2.75 12 2.75C11.5858 2.75 11.25 2.41421 11.25 2V1C11.25 0.585786 11.5858 0.25 12 0.25ZM3.46967 3.46967C3.76256 3.17678 4.23744 3.17678 4.53033 3.46967L5.53033 4.46967C5.82322 4.76256 5.82322 5.23744 5.53033 5.53033C5.23744 5.82322 4.76256 5.82322 4.46967 5.53033L3.46967 4.53033C3.17678 4.23744 3.17678 3.76256 3.46967 3.46967ZM20.5303 3.46967C20.8232 3.76256 20.8232 4.23744 20.5303 4.53033L19.5303 5.53033C19.2374 5.82322 18.7626 5.82322 18.4697 5.53033C18.1768 5.23744 18.1768 4.76256 18.4697 4.46967L19.4697 3.46967C19.7626 3.17678 20.2374 3.17678 20.5303 3.46967ZM12 7.03942L10.6308 9.94264C10.5243 10.1684 10.3125 10.3264 10.0658 10.3641L6.93494 10.8431L9.22235 13.1749C9.38969 13.3454 9.46572 13.5855 9.42708 13.8213L8.89458 17.0708L11.6384 15.5606C11.8635 15.4367 12.1365 15.4367 12.3616 15.5606L15.1054 17.0708L14.5729 13.8213C14.5343 13.5855 14.6103 13.3454 14.7776 13.1749L17.0651 10.8431L13.9342 10.3641C13.6875 10.3264 13.4757 10.1684 13.3692 9.94264L12 7.03942ZM10.8326 5.99824C11.3031 5.00059 12.6969 5.00059 13.1674 5.99824L14.5556 8.94171L17.6463 9.41452C18.7434 9.58236 19.0891 10.9218 18.37 11.6548L16.1146 13.9539L16.6483 17.2101C16.8128 18.2142 15.7729 19.1504 14.7551 18.5902L12 17.0738L9.24492 18.5902C8.22709 19.1504 7.1872 18.2142 7.35174 17.2101L7.88535 13.9539L5.63005 11.6548C4.91092 10.9218 5.25657 9.58236 6.3537 9.41452L9.44438 8.94171L10.8326 5.99824ZM0.25 12C0.25 11.5858 0.585786 11.25 1 11.25H2C2.41421 11.25 2.75 11.5858 2.75 12C2.75 12.4142 2.41421 12.75 2 12.75H1C0.585786 12.75 0.25 12.4142 0.25 12ZM21.25 12C21.25 11.5858 21.5858 11.25 22 11.25H23C23.4142 11.25 23.75 11.5858 23.75 12C23.75 12.4142 23.4142 12.75 23 12.75H22C21.5858 12.75 21.25 12.4142 21.25 12ZM5.53033 18.4697C5.82322 18.7626 5.82322 19.2374 5.53033 19.5303L4.53033 20.5303C4.23744 20.8232 3.76256 20.8232 3.46967 20.5303C3.17678 20.2374 3.17678 19.7626 3.46967 19.4697L4.46967 18.4697C4.76256 18.1768 5.23744 18.1768 5.53033 18.4697ZM18.4697 18.4697C18.7626 18.1768 19.2374 18.1768 19.5303 18.4697L20.5303 19.4697C20.8232 19.7626 20.8232 20.2374 20.5303 20.5303C20.2374 20.8232 19.7626 20.8232 19.4697 20.5303L18.4697 19.5303C18.1768 19.2374 18.1768 18.7626 18.4697 18.4697ZM12 21.25C12.4142 21.25 12.75 21.5858 12.75 22V23C12.75 23.4142 12.4142 23.75 12 23.75C11.5858 23.75 11.25 23.4142 11.25 23V22C11.25 21.5858 11.5858 21.25 12 21.25Z" fill="black"/>
</g>
</g>
</g>
<defs>
<clipPath id="clip0_232_8187">
<rect width="24" height="24" rx="5" fill="white"/>
</clipPath>
<clipPath id="clip1_232_8187">
<rect width="24" height="24" fill="white"/>
</clipPath>
</defs>
</svg>
