<svg width="24" height="24" viewBox="0 0 24 24" fill="none" xmlns="http://www.w3.org/2000/svg">
<g id="bubble-warning">
<g clip-path="url(#clip0_232_2862)">
<g id="Weight=Dynamic">
<path id="Vector (Stroke)" fill-rule="evenodd" clip-rule="evenodd" d="M12 2.75C6.89137 2.75 2.75 6.89137 2.75 12C2.75 13.6861 3.20043 15.2647 3.98703 16.6245C4.07666 16.7794 4.10792 16.9613 4.07515 17.1373L3.43742 20.5626L6.86272 19.9248C7.0387 19.8921 7.2206 19.9233 7.37554 20.013C8.73533 20.7996 10.3139 21.25 12 21.25C17.1086 21.25 21.25 17.1086 21.25 12C21.25 11.6873 21.2345 11.3784 21.2043 11.0741C21.1634 10.6619 21.4643 10.2946 21.8765 10.2537C22.2887 10.2127 22.656 10.5137 22.697 10.9259C22.7321 11.2794 22.75 11.6377 22.75 12C22.75 17.9371 17.9371 22.75 12 22.75C10.1437 22.75 8.39536 22.2789 6.87016 21.4492L2.63728 22.2373C2.39423 22.2826 2.14449 22.2051 1.96967 22.0303C1.79485 21.8555 1.71742 21.6058 1.76267 21.3627L2.55076 17.1298C1.72113 15.6046 1.25 13.8563 1.25 12C1.25 6.06294 6.06294 1.25 12 1.25C12.3623 1.25 12.7206 1.26795 13.0741 1.30304C13.4863 1.34397 13.7873 1.71129 13.7463 2.12348C13.7054 2.53566 13.3381 2.83663 12.9259 2.79571C12.6216 2.76549 12.3127 2.75 12 2.75ZM18 1.25C18.4142 1.25 18.75 1.58579 18.75 2V5C18.75 5.41421 18.4142 5.75 18 5.75C17.5858 5.75 17.25 5.41421 17.25 5V2C17.25 1.58579 17.5858 1.25 18 1.25ZM18.5117 8.44142C18.8196 8.71852 18.8446 9.19273 18.5675 9.50062L18.5575 9.51173C18.2804 9.81961 17.8062 9.84456 17.4983 9.56747C17.1904 9.29037 17.1654 8.81616 17.4425 8.50827L17.4525 8.49716C17.7296 8.18928 18.2038 8.16433 18.5117 8.44142Z" fill="black"/>
</g>
</g>
</g>
<defs>
<clipPath id="clip0_232_2862">
<rect width="24" height="24" rx="5" fill="white"/>
</clipPath>
</defs>
</svg>
