<svg width="24" height="24" viewBox="0 0 24 24" fill="none" xmlns="http://www.w3.org/2000/svg">
<g id="bubble-star">
<g clip-path="url(#clip0_232_2753)">
<g id="Weight=Dynamic">
<path id="Vector (Stroke)" fill-rule="evenodd" clip-rule="evenodd" d="M12 2.75C6.89137 2.75 2.75 6.89137 2.75 12C2.75 13.6861 3.20043 15.2647 3.98703 16.6245C4.07666 16.7794 4.10792 16.9613 4.07515 17.1373L3.43742 20.5626L6.86272 19.9248C7.0387 19.8921 7.2206 19.9233 7.37554 20.013C8.73533 20.7996 10.3139 21.25 12 21.25C17.1086 21.25 21.25 17.1086 21.25 12C21.25 11.6873 21.2345 11.3784 21.2043 11.0741C21.1634 10.6619 21.4643 10.2946 21.8765 10.2537C22.2887 10.2127 22.656 10.5137 22.697 10.9259C22.7321 11.2794 22.75 11.6377 22.75 12C22.75 17.9371 17.9371 22.75 12 22.75C10.1437 22.75 8.39536 22.2789 6.87016 21.4492L2.63728 22.2373C2.39423 22.2826 2.14449 22.2051 1.96967 22.0303C1.79485 21.8555 1.71742 21.6058 1.76267 21.3627L2.55076 17.1298C1.72113 15.6046 1.25 13.8563 1.25 12C1.25 6.06294 6.06294 1.25 12 1.25C12.3623 1.25 12.7206 1.26795 13.0741 1.30304C13.4863 1.34397 13.7873 1.71129 13.7463 2.12348C13.7054 2.53566 13.3381 2.83663 12.9259 2.79571C12.6216 2.76549 12.3127 2.75 12 2.75ZM17.5364 1.86567C17.9235 1.04478 19.0765 1.04478 19.4636 1.86567L20.2025 3.43225L21.8409 3.6829C22.7517 3.82223 23.0231 4.92192 22.4389 5.5175L21.2342 6.74555L21.5199 8.4887C21.6526 9.29848 20.8076 10.0865 19.9564 9.61804L18.5 8.81641L17.0436 9.61804C16.1924 10.0865 15.3474 9.29848 15.4801 8.4887L15.7658 6.74555L14.5611 5.5175C13.9769 4.92192 14.2483 3.82223 15.1591 3.6829L16.7975 3.43225L17.5364 1.86567ZM18.5 3.33892L17.9839 4.43318C17.8775 4.6589 17.6657 4.81689 17.419 4.85463L16.1957 5.04177L17.1028 5.96649C17.2701 6.13707 17.3462 6.37718 17.3075 6.61299L17.1008 7.87433L18.1384 7.30326C18.3635 7.17933 18.6365 7.17933 18.8616 7.30326L19.8992 7.87433L19.6925 6.61299C19.6538 6.37718 19.7299 6.13707 19.8972 5.96649L20.8043 5.04177L19.581 4.85463C19.3343 4.81689 19.1225 4.6589 19.0161 4.43318L18.5 3.33892Z" fill="black"/>
</g>
</g>
</g>
<defs>
<clipPath id="clip0_232_2753">
<rect width="24" height="24" rx="5" fill="white"/>
</clipPath>
</defs>
</svg>
