<svg width="24" height="24" viewBox="0 0 24 24" fill="none" xmlns="http://www.w3.org/2000/svg">
<g id="bubble-xmark">
<g clip-path="url(#clip0_232_2850)">
<g id="Weight=Dynamic">
<path id="Vector (Stroke)" fill-rule="evenodd" clip-rule="evenodd" d="M12 2.75C6.89137 2.75 2.75 6.89137 2.75 12C2.75 13.6861 3.20043 15.2647 3.98703 16.6245C4.07666 16.7794 4.10792 16.9613 4.07515 17.1373L3.43742 20.5626L6.86272 19.9248C7.0387 19.8921 7.2206 19.9233 7.37554 20.013C8.73533 20.7996 10.3139 21.25 12 21.25C17.1086 21.25 21.25 17.1086 21.25 12C21.25 11.6873 21.2345 11.3784 21.2043 11.0741C21.1634 10.6619 21.4643 10.2946 21.8765 10.2537C22.2887 10.2127 22.656 10.5137 22.697 10.9259C22.7321 11.2794 22.75 11.6377 22.75 12C22.75 17.9371 17.9371 22.75 12 22.75C10.1437 22.75 8.39536 22.2789 6.87016 21.4492L2.63728 22.2373C2.39423 22.2826 2.14449 22.2051 1.96967 22.0303C1.79485 21.8555 1.71742 21.6058 1.76267 21.3627L2.55076 17.1298C1.72113 15.6046 1.25 13.8563 1.25 12C1.25 6.06294 6.06294 1.25 12 1.25C12.3623 1.25 12.7206 1.26795 13.0741 1.30304C13.4863 1.34397 13.7873 1.71129 13.7463 2.12348C13.7054 2.53566 13.3381 2.83663 12.9259 2.79571C12.6216 2.76549 12.3127 2.75 12 2.75ZM16.5908 2.59104C16.8837 2.29815 17.3585 2.29815 17.6514 2.59104L19.2424 4.18203L20.8334 2.59104C21.1263 2.29815 21.6012 2.29815 21.8941 2.59104C22.187 2.88393 22.187 3.35881 21.8941 3.6517L20.3031 5.24269L21.8941 6.83368C22.187 7.12657 22.187 7.60145 21.8941 7.89434C21.6012 8.18723 21.1263 8.18723 20.8334 7.89434L19.2424 6.30335L17.6514 7.89434C17.3585 8.18723 16.8837 8.18723 16.5908 7.89434C16.2979 7.60145 16.2979 7.12657 16.5908 6.83368L18.1818 5.24269L16.5908 3.6517C16.2979 3.35881 16.2979 2.88393 16.5908 2.59104Z" fill="black"/>
</g>
</g>
</g>
<defs>
<clipPath id="clip0_232_2850">
<rect width="24" height="24" rx="5" fill="white"/>
</clipPath>
</defs>
</svg>
