<svg width="24" height="24" viewBox="0 0 24 24" fill="none" xmlns="http://www.w3.org/2000/svg">
<g id="building">
<g clip-path="url(#clip0_232_17516)">
<g id="Weight=Dynamic">
<path id="Vector (Stroke)" fill-rule="evenodd" clip-rule="evenodd" d="M12.75 3.75V5C12.75 5.41421 12.4142 5.75 12 5.75H6.75V20.25H17.25V3.75H12.75ZM11.25 3.6C11.25 2.85442 11.8544 2.25 12.6 2.25H17.4C18.1456 2.25 18.75 2.85442 18.75 3.6V20.4C18.75 21.1456 18.1456 21.75 17.4 21.75H6.6C5.85442 21.75 5.25 21.1456 5.25 20.4V5.6C5.25 4.85442 5.85441 4.25 6.6 4.25H11.25V3.6ZM10.5117 8.44142C10.8196 8.71852 10.8446 9.19273 10.5675 9.50062L10.5575 9.51173C10.2804 9.81961 9.80616 9.84456 9.49827 9.56747C9.19039 9.29037 9.16544 8.81616 9.44253 8.50827L9.45253 8.49716C9.72963 8.18928 10.2038 8.16433 10.5117 8.44142ZM14.5117 8.44142C14.8196 8.71852 14.8446 9.19273 14.5675 9.50062L14.5575 9.51173C14.2804 9.81961 13.8062 9.84456 13.4983 9.56747C13.1904 9.29037 13.1654 8.81616 13.4425 8.50827L13.4525 8.49716C13.7296 8.18928 14.2038 8.16433 14.5117 8.44142ZM10.5117 12.4414C10.8196 12.7185 10.8446 13.1927 10.5675 13.5006L10.5575 13.5117C10.2804 13.8196 9.80616 13.8446 9.49827 13.5675C9.19039 13.2904 9.16544 12.8162 9.44253 12.5083L9.45253 12.4972C9.72963 12.1893 10.2038 12.1643 10.5117 12.4414ZM14.5117 12.4414C14.8196 12.7185 14.8446 13.1927 14.5675 13.5006L14.5575 13.5117C14.2804 13.8196 13.8062 13.8446 13.4983 13.5675C13.1904 13.2904 13.1654 12.8162 13.4425 12.5083L13.4525 12.4972C13.7296 12.1893 14.2038 12.1643 14.5117 12.4414ZM10.5117 16.4414C10.8196 16.7185 10.8446 17.1927 10.5675 17.5006L10.5575 17.5117C10.2804 17.8196 9.80616 17.8446 9.49827 17.5675C9.19039 17.2904 9.16544 16.8162 9.44253 16.5083L9.45253 16.4972C9.72963 16.1893 10.2038 16.1643 10.5117 16.4414ZM14.5117 16.4414C14.8196 16.7185 14.8446 17.1927 14.5675 17.5006L14.5575 17.5117C14.2804 17.8196 13.8062 17.8446 13.4983 17.5675C13.1904 17.2904 13.1654 16.8162 13.4425 16.5083L13.4525 16.4972C13.7296 16.1893 14.2038 16.1643 14.5117 16.4414Z" fill="black"/>
</g>
</g>
</g>
<defs>
<clipPath id="clip0_232_17516">
<rect width="24" height="24" rx="5" fill="white"/>
</clipPath>
</defs>
</svg>
