<svg width="24" height="24" viewBox="0 0 24 24" fill="none" xmlns="http://www.w3.org/2000/svg">
<g id="bus-green">
<g clip-path="url(#clip0_232_16110)">
<g id="Weight=Dynamic">
<path id="Vector (Stroke)" fill-rule="evenodd" clip-rule="evenodd" d="M2.25 6C2.25 3.37665 4.37665 1.25 7 1.25H17C19.6233 1.25 21.75 3.37664 21.75 6V8C21.75 8.41421 21.4142 8.75 21 8.75C20.5858 8.75 20.25 8.41421 20.25 8V6C20.25 4.20508 18.7949 2.75 17 2.75H7C5.20507 2.75 3.75 4.20507 3.75 6V8C3.75 8.41421 3.41421 8.75 3 8.75C2.58579 8.75 2.25 8.41421 2.25 8V6ZM6.25 8C6.25 7.58579 6.58579 7.25 7 7.25H17C17.4142 7.25 17.75 7.58579 17.75 8C17.75 8.41421 17.4142 8.75 17 8.75H7C6.58579 8.75 6.25 8.41421 6.25 8ZM2.25 12C2.25 11.5858 2.58579 11.25 3 11.25H21C21.4142 11.25 21.75 11.5858 21.75 12C21.75 12.4142 21.4142 12.75 21 12.75H3.75V19C3.75 19.1381 3.86192 19.25 4 19.25H13C13.4142 19.25 13.75 19.5858 13.75 20C13.75 20.4142 13.4142 20.75 13 20.75H9.25V21.9C9.25 22.6456 8.64556 23.25 7.9 23.25H5.1C4.35444 23.25 3.75 22.6456 3.75 21.9V20.7323C2.90194 20.611 2.25 19.8816 2.25 19V12ZM5.25 20.75V21.75H7.75V20.75H5.25ZM21.7228 15.8165L19.1337 16.0598C19.1337 16.0598 19.1337 16.0598 19.1337 16.0598C17.8556 16.1799 16.9226 17.3118 17.0486 18.5893C17.0964 19.0735 17.2894 19.5092 17.5803 19.8573C18.062 19.0362 18.6951 18.1625 19.4994 17.4415C19.8078 17.165 20.282 17.191 20.5585 17.4994C20.835 17.8078 20.809 18.282 20.5006 18.5585C19.8315 19.1583 19.2862 19.9097 18.8589 20.6424C19.0951 20.6964 19.3437 20.7143 19.5977 20.6904L19.7318 20.6778C21.0841 20.5507 22.0718 19.3529 21.9384 18.0012L21.7228 15.8165ZM16.8612 21.2592C16.1452 20.6379 15.6561 19.7526 15.5558 18.7366C15.3482 16.632 16.8876 14.7642 18.9933 14.5663L21.9789 14.2858C22.5816 14.2292 23.117 14.6707 23.1765 15.2729L23.4312 17.8539C23.6462 20.0328 22.0523 21.9664 19.8724 22.1712L19.7383 22.1838C19.1921 22.2351 18.6611 22.1691 18.1713 22.0063C18.0478 22.2908 17.9505 22.5416 17.8781 22.7402C17.823 22.8916 17.7826 23.0119 17.7565 23.0928C17.7434 23.1332 17.734 23.1638 17.728 23.1833L17.7217 23.2043L17.7206 23.208C17.6056 23.6058 17.1898 23.8354 16.792 23.7206C16.394 23.6057 16.1645 23.1899 16.2794 22.792L17 23C16.2794 22.792 16.2794 22.7922 16.2794 22.792L16.28 22.7901L16.2808 22.7871L16.2836 22.7777L16.2932 22.7457C16.3015 22.7187 16.3134 22.6804 16.3291 22.6319C16.3604 22.535 16.4067 22.397 16.4687 22.2267C16.5624 21.9695 16.6925 21.6369 16.8612 21.2592ZM7.51201 15.4416C7.81975 15.7188 7.84446 16.1931 7.56721 16.5008L7.55721 16.5119C7.27996 16.8196 6.80573 16.8443 6.49799 16.5671C6.19025 16.2898 6.16554 15.8156 6.44279 15.5079L6.45279 15.4968C6.73004 15.189 7.20427 15.1643 7.51201 15.4416Z" fill="black"/>
</g>
</g>
</g>
<defs>
<clipPath id="clip0_232_16110">
<rect width="24" height="24" rx="5" fill="white"/>
</clipPath>
</defs>
</svg>
