<svg width="24" height="24" viewBox="0 0 24 24" fill="none" xmlns="http://www.w3.org/2000/svg">
<g id="bus-stop">
<g clip-path="url(#clip0_232_15952)">
<g id="Weight=Dynamic">
<path id="Vector (Stroke)" fill-rule="evenodd" clip-rule="evenodd" d="M1.25 6C1.25 3.37665 3.37665 1.25 6 1.25H14C14.4142 1.25 14.75 1.58579 14.75 2C14.75 2.41421 14.4142 2.75 14 2.75H6C4.20507 2.75 2.75 4.20507 2.75 6V8C2.75 8.41421 2.41421 8.75 2 8.75C1.58579 8.75 1.25 8.41421 1.25 8V6ZM17.25 2C17.25 1.58579 17.5858 1.25 18 1.25H22C22.4142 1.25 22.75 1.58579 22.75 2V8C22.75 8.41421 22.4142 8.75 22 8.75H20.75V22C20.75 22.4142 20.4142 22.75 20 22.75C19.5858 22.75 19.25 22.4142 19.25 22V8.75H18C17.5858 8.75 17.25 8.41421 17.25 8V2ZM18.75 2.75V7.25H21.25V2.75H18.75ZM5.25 8C5.25 7.58579 5.58579 7.25 6 7.25H14C14.4142 7.25 14.75 7.58579 14.75 8C14.75 8.41421 14.4142 8.75 14 8.75H6C5.58579 8.75 5.25 8.41421 5.25 8ZM2.75 12.75H16C16.4142 12.75 16.75 12.4142 16.75 12C16.75 11.5858 16.4142 11.25 16 11.25H2.6C1.85444 11.25 1.25 11.8544 1.25 12.6V19.4C1.25 20.1456 1.85444 20.75 2.6 20.75H2.75V21.9C2.75 22.6456 3.35444 23.25 4.1 23.25H6.9C7.64556 23.25 8.25 22.6456 8.25 21.9V20.75H13.75V21.9C13.75 22.6456 14.3544 23.25 15.1 23.25H16C16.4142 23.25 16.75 22.9142 16.75 22.5C16.75 22.0858 16.4142 21.75 16 21.75H15.25V20.75H16C16.4142 20.75 16.75 20.4142 16.75 20C16.75 19.5858 16.4142 19.25 16 19.25H2.75V12.75ZM4.25 20.75V21.75H6.75V20.75H4.25ZM6.51201 15.4417C6.81975 15.7189 6.84446 16.1932 6.56721 16.5009L6.55721 16.512C6.27996 16.8198 5.80573 16.8445 5.49799 16.5672C5.19025 16.29 5.16554 15.8157 5.44279 15.508L5.45279 15.4969C5.73004 15.1892 6.20427 15.1644 6.51201 15.4417ZM16.512 15.4417C16.8198 15.7189 16.8445 16.1932 16.5672 16.5009L16.5572 16.512C16.28 16.8198 15.8057 16.8445 15.498 16.5672C15.1902 16.29 15.1655 15.8157 15.4428 15.508L15.4528 15.4969C15.73 15.1892 16.2043 15.1644 16.512 15.4417Z" fill="black"/>
</g>
</g>
</g>
<defs>
<clipPath id="clip0_232_15952">
<rect width="24" height="24" rx="5" fill="white"/>
</clipPath>
</defs>
</svg>
