<svg width="24" height="24" viewBox="0 0 24 24" fill="none" xmlns="http://www.w3.org/2000/svg">
<g id="bus">
<g clip-path="url(#clip0_232_15934)">
<g id="Weight=Dynamic">
<path id="Vector (Stroke)" fill-rule="evenodd" clip-rule="evenodd" d="M2.25 6C2.25 3.37665 4.37665 1.25 7 1.25H17C19.6233 1.25 21.75 3.37664 21.75 6V8C21.75 8.41421 21.4142 8.75 21 8.75C20.5858 8.75 20.25 8.41421 20.25 8V6C20.25 4.20508 18.7949 2.75 17 2.75H7C5.20507 2.75 3.75 4.20507 3.75 6V8C3.75 8.41421 3.41421 8.75 3 8.75C2.58579 8.75 2.25 8.41421 2.25 8V6ZM6.25 8C6.25 7.58579 6.58579 7.25 7 7.25H17C17.4142 7.25 17.75 7.58579 17.75 8C17.75 8.41421 17.4142 8.75 17 8.75H7C6.58579 8.75 6.25 8.41421 6.25 8ZM2.25 12C2.25 11.5858 2.58579 11.25 3 11.25H21C21.4142 11.25 21.75 11.5858 21.75 12V19C21.75 19.8816 21.0981 20.611 20.25 20.7323V21.9C20.25 22.6456 19.6456 23.25 18.9 23.25H16.1C15.3544 23.25 14.75 22.6456 14.75 21.9V20.75H9.25V21.9C9.25 22.6456 8.64556 23.25 7.9 23.25H5.1C4.35444 23.25 3.75 22.6456 3.75 21.9V20.7323C2.90194 20.611 2.25 19.8816 2.25 19V12ZM5.25 20.75V21.75H7.75V20.75H5.25ZM4 19.25C3.86192 19.25 3.75 19.1381 3.75 19V12.75H20.25V19C20.25 19.1381 20.1381 19.25 20 19.25H4ZM16.25 20.75V21.75H18.75V20.75H16.25ZM7.51201 15.4417C7.81975 15.7189 7.84446 16.1932 7.56721 16.5009L7.55721 16.512C7.27996 16.8198 6.80573 16.8445 6.49799 16.5672C6.19025 16.29 6.16554 15.8157 6.44279 15.508L6.45279 15.4969C6.73004 15.1892 7.20427 15.1644 7.51201 15.4417ZM17.512 15.4417C17.8198 15.7189 17.8445 16.1932 17.5672 16.5009L17.5572 16.512C17.28 16.8198 16.8057 16.8445 16.498 16.5672C16.1902 16.29 16.1655 15.8157 16.4428 15.508L16.4528 15.4969C16.73 15.1892 17.2043 15.1644 17.512 15.4417Z" fill="black"/>
</g>
</g>
</g>
<defs>
<clipPath id="clip0_232_15934">
<rect width="24" height="24" rx="5" fill="white"/>
</clipPath>
</defs>
</svg>
