<svg width="24" height="24" viewBox="0 0 24 24" fill="none" xmlns="http://www.w3.org/2000/svg">
<g id="cable-tag">
<g clip-path="url(#clip0_232_3785)">
<g id="Weight=Dynamic">
<path id="Vector (Stroke)" fill-rule="evenodd" clip-rule="evenodd" d="M8 3.75C5.10051 3.75 2.75 6.10051 2.75 9V15C2.75 17.8995 5.10051 20.25 8 20.25H16C18.8995 20.25 21.25 17.8995 21.25 15V9C21.25 6.10051 18.8995 3.75 16 3.75H8ZM1.25 9C1.25 5.27208 4.27208 2.25 8 2.25H16C19.7279 2.25 22.75 5.27208 22.75 9V15C22.75 18.7279 19.7279 21.75 16 21.75H8C4.27208 21.75 1.25 18.7279 1.25 15V9ZM11.9551 7.30769C12.3375 7.46701 12.5183 7.90611 12.359 8.28846L11.125 11.25H14C14.2508 11.25 14.4849 11.3753 14.624 11.584C14.7631 11.7926 14.7888 12.057 14.6923 12.2885L13.0256 16.2885C12.8663 16.6708 12.4272 16.8516 12.0449 16.6923C11.6625 16.533 11.4817 16.0939 11.641 15.7115L12.875 12.75H10C9.74924 12.75 9.51506 12.6247 9.37596 12.416C9.23686 12.2074 9.21124 11.943 9.30769 11.7115L10.9744 7.71154C11.1337 7.32919 11.5728 7.14838 11.9551 7.30769Z" fill="black"/>
</g>
</g>
</g>
<defs>
<clipPath id="clip0_232_3785">
<rect width="24" height="24" rx="5" fill="white"/>
</clipPath>
</defs>
</svg>
