<svg width="24" height="24" viewBox="0 0 24 24" fill="none" xmlns="http://www.w3.org/2000/svg">
<g id="calculator">
<g clip-path="url(#clip0_232_14724)">
<g id="Weight=Dynamic" clip-path="url(#clip1_232_14724)">
<path id="Vector (Stroke)" fill-rule="evenodd" clip-rule="evenodd" d="M3 1.75C2.30964 1.75 1.75 2.30964 1.75 3V21C1.75 21.6904 2.30964 22.25 3 22.25H21C21.6904 22.25 22.25 21.6904 22.25 21V3C22.25 2.30964 21.6904 1.75 21 1.75H3ZM0.25 3C0.25 1.48122 1.48122 0.25 3 0.25H21C22.5188 0.25 23.75 1.48122 23.75 3V21C23.75 22.5188 22.5188 23.75 21 23.75H3C1.48122 23.75 0.25 22.5188 0.25 21V3ZM7 4.25C7.41421 4.25 7.75 4.58579 7.75 5V6.25H9C9.41421 6.25 9.75 6.58579 9.75 7C9.75 7.41421 9.41421 7.75 9 7.75H7.75V9C7.75 9.41421 7.41421 9.75 7 9.75C6.58579 9.75 6.25 9.41421 6.25 9V7.75H5C4.58579 7.75 4.25 7.41421 4.25 7C4.25 6.58579 4.58579 6.25 5 6.25H6.25V5C6.25 4.58579 6.58579 4.25 7 4.25ZM14.25 7C14.25 6.58579 14.5858 6.25 15 6.25H19C19.4142 6.25 19.75 6.58579 19.75 7C19.75 7.41421 19.4142 7.75 19 7.75H15C14.5858 7.75 14.25 7.41421 14.25 7ZM14.25 15.5C14.25 15.0858 14.5858 14.75 15 14.75H19C19.4142 14.75 19.75 15.0858 19.75 15.5C19.75 15.9142 19.4142 16.25 19 16.25H15C14.5858 16.25 14.25 15.9142 14.25 15.5ZM5.05576 15.0555C5.34865 14.7626 5.82353 14.7626 6.11642 15.0555L7.0003 15.9393L7.88419 15.0555C8.17708 14.7626 8.65195 14.7626 8.94485 15.0555C9.23774 15.3483 9.23774 15.8232 8.94485 16.1161L8.06096 17L8.94485 17.8839C9.23774 18.1768 9.23774 18.6516 8.94485 18.9445C8.65195 19.2374 8.17708 19.2374 7.88419 18.9445L7.0003 18.0607L6.11642 18.9445C5.82353 19.2374 5.34865 19.2374 5.05576 18.9445C4.76287 18.6516 4.76287 18.1768 5.05576 17.8839L5.93964 17L5.05576 16.1161C4.76287 15.8232 4.76287 15.3484 5.05576 15.0555ZM14.25 18.5C14.25 18.0858 14.5858 17.75 15 17.75H19C19.4142 17.75 19.75 18.0858 19.75 18.5C19.75 18.9142 19.4142 19.25 19 19.25H15C14.5858 19.25 14.25 18.9142 14.25 18.5Z" fill="black"/>
</g>
</g>
</g>
<defs>
<clipPath id="clip0_232_14724">
<rect width="24" height="24" rx="5" fill="white"/>
</clipPath>
<clipPath id="clip1_232_14724">
<rect width="24" height="24" fill="white"/>
</clipPath>
</defs>
</svg>
