<svg width="24" height="24" viewBox="0 0 24 24" fill="none" xmlns="http://www.w3.org/2000/svg">
<g id="candlestick-chart">
<g clip-path="url(#clip0_232_7369)">
<g id="Weight=Dynamic">
<path id="Vector (Stroke)" fill-rule="evenodd" clip-rule="evenodd" d="M19 2.25C19.4142 2.25 19.75 2.58579 19.75 3V4.25H20.4C21.1456 4.25 21.75 4.85441 21.75 5.6V10.4C21.75 11.1456 21.1456 11.75 20.4 11.75H19.75V13C19.75 13.4142 19.4142 13.75 19 13.75C18.5858 13.75 18.25 13.4142 18.25 13V11.75H17.6C16.8544 11.75 16.25 11.1456 16.25 10.4V5.6C16.25 4.85441 16.8544 4.25 17.6 4.25H18.25V3C18.25 2.58579 18.5858 2.25 19 2.25ZM17.75 5.75V10.25H20.25V5.75H17.75ZM5 5.25C5.41421 5.25 5.75 5.58579 5.75 6V7.25H6.4C7.14558 7.25 7.75 7.85442 7.75 8.6V13.4C7.75 14.1456 7.14559 14.75 6.4 14.75H5.75V16C5.75 16.4142 5.41421 16.75 5 16.75C4.58579 16.75 4.25 16.4142 4.25 16V14.75H3.6C2.85442 14.75 2.25 14.1456 2.25 13.4V8.6C2.25 7.85442 2.85442 7.25 3.6 7.25H4.25V6C4.25 5.58579 4.58579 5.25 5 5.25ZM3.75 8.75V13.25H6.25V8.75H3.75ZM12 10.25C12.4142 10.25 12.75 10.5858 12.75 11V12.25H13.4C14.1456 12.25 14.75 12.8544 14.75 13.6V18.4C14.75 19.1456 14.1456 19.75 13.4 19.75H12.75V21C12.75 21.4142 12.4142 21.75 12 21.75C11.5858 21.75 11.25 21.4142 11.25 21V19.75H10.6C9.85442 19.75 9.25 19.1456 9.25 18.4V13.6C9.25 12.8544 9.85442 12.25 10.6 12.25H11.25V11C11.25 10.5858 11.5858 10.25 12 10.25ZM10.75 13.75V18.25H13.25V13.75H10.75Z" fill="black"/>
</g>
</g>
</g>
<defs>
<clipPath id="clip0_232_7369">
<rect width="24" height="24" rx="5" fill="white"/>
</clipPath>
</defs>
</svg>
