<svg width="24" height="24" viewBox="0 0 24 24" fill="none" xmlns="http://www.w3.org/2000/svg">
<g id="car">
<g clip-path="url(#clip0_232_15743)">
<g id="Weight=Dynamic">
<path id="Vector (Stroke)" fill-rule="evenodd" clip-rule="evenodd" d="M7.31879 4.75C6.81876 4.75 6.36683 5.048 6.16986 5.5076L3.85107 10.9181C3.78438 11.0737 3.75 11.2412 3.75 11.4105V17.25H20.25V11.4105C20.25 11.2412 20.2156 11.0737 20.1489 10.9181L17.8301 5.5076C17.6332 5.048 17.1812 4.75 16.6812 4.75H7.31879ZM20.25 18.75H17.75V20.25H20.25V18.75ZM16.25 18.75V20.4C16.25 21.1456 16.8544 21.75 17.6 21.75H20.4C21.1456 21.75 21.75 21.1456 21.75 20.4V11.4105C21.75 11.0381 21.6744 10.6695 21.5276 10.3272L19.2089 4.91672C18.7755 3.90559 17.7813 3.25 16.6812 3.25H7.31879C6.21871 3.25 5.22449 3.90559 4.79114 4.91672L2.47235 10.3272C2.32565 10.6695 2.25 11.0381 2.25 11.4105V20.4C2.25 21.1456 2.85442 21.75 3.6 21.75H6.4C7.14559 21.75 7.75 21.1456 7.75 20.4V18.75H16.25ZM6.25 18.75H3.75V20.25H6.25V18.75ZM16 10.75L8 10.75C7.58579 10.75 7.25 10.4142 7.25 10C7.25 9.58579 7.58579 9.25 8 9.25L16 9.25C16.4142 9.25 16.75 9.58579 16.75 10C16.75 10.4142 16.4142 10.75 16 10.75ZM6.25 14C6.25 13.5858 6.58579 13.25 7 13.25H8C8.41421 13.25 8.75 13.5858 8.75 14C8.75 14.4142 8.41421 14.75 8 14.75H7C6.58579 14.75 6.25 14.4142 6.25 14ZM15.25 14C15.25 13.5858 15.5858 13.25 16 13.25H17C17.4142 13.25 17.75 13.5858 17.75 14C17.75 14.4142 17.4142 14.75 17 14.75H16C15.5858 14.75 15.25 14.4142 15.25 14Z" fill="black"/>
</g>
</g>
</g>
<defs>
<clipPath id="clip0_232_15743">
<rect width="24" height="24" rx="5" fill="white"/>
</clipPath>
</defs>
</svg>
