<svg width="24" height="24" viewBox="0 0 24 24" fill="none" xmlns="http://www.w3.org/2000/svg">
<g id="card-lock">
<g clip-path="url(#clip0_232_7813)">
<g id="Weight=Dynamic">
<path id="Vector (Stroke)" fill-rule="evenodd" clip-rule="evenodd" d="M1.25 7C1.25 5.48122 2.48122 4.25 4 4.25H20C21.5188 4.25 22.75 5.48122 22.75 7V13C22.75 13.4142 22.4142 13.75 22 13.75C21.5858 13.75 21.25 13.4142 21.25 13V9.75H6C5.58579 9.75 5.25 9.41421 5.25 9C5.25 8.58579 5.58579 8.25 6 8.25H21.25V7C21.25 6.30964 20.6904 5.75 20 5.75H4C3.30964 5.75 2.75 6.30964 2.75 7V17C2.75 17.6904 3.30964 18.25 4 18.25H14C14.4142 18.25 14.75 18.5858 14.75 19C14.75 19.4142 14.4142 19.75 14 19.75H4C2.48122 19.75 1.25 18.5188 1.25 17V7ZM17.5481 15.2321C17.9305 14.6745 18.5731 14.25 19.5 14.25C20.4269 14.25 21.0695 14.6745 21.4519 15.2321C21.807 15.75 21.9167 16.3455 21.9167 16.75V17.8524C22.4059 18.0552 22.75 18.5374 22.75 19.1V21.4C22.75 22.1456 22.1456 22.75 21.4 22.75H17.6C16.8544 22.75 16.25 22.1456 16.25 21.4V19.1C16.25 18.5374 16.5941 18.0552 17.0833 17.8524V16.75C17.0833 16.3455 17.193 15.75 17.5481 15.2321ZM18.5833 17.75H20.4167V16.75C20.4167 16.5712 20.3597 16.2917 20.2148 16.0804C20.0972 15.9089 19.9064 15.75 19.5 15.75C19.0936 15.75 18.9028 15.9089 18.7852 16.0804C18.6403 16.2917 18.5833 16.5712 18.5833 16.75V17.75ZM17.75 19.25V21.25H21.25V19.25H17.75Z" fill="black"/>
</g>
</g>
</g>
<defs>
<clipPath id="clip0_232_7813">
<rect width="24" height="24" rx="5" fill="white"/>
</clipPath>
</defs>
</svg>
