<svg width="24" height="24" viewBox="0 0 24 24" fill="none" xmlns="http://www.w3.org/2000/svg">
<g id="card-no-access">
<g clip-path="url(#clip0_232_7821)">
<g id="Weight=Dynamic">
<path id="Vector (Stroke)" fill-rule="evenodd" clip-rule="evenodd" d="M1.25 7C1.25 5.48122 2.48122 4.25 4 4.25H20C21.5188 4.25 22.75 5.48122 22.75 7V13C22.75 13.4142 22.4142 13.75 22 13.75C21.5858 13.75 21.25 13.4142 21.25 13V9.75H6C5.58579 9.75 5.25 9.41421 5.25 9C5.25 8.58579 5.58579 8.25 6 8.25H21.25V7C21.25 6.30964 20.6904 5.75 20 5.75H4C3.30964 5.75 2.75 6.30964 2.75 7V17C2.75 17.6904 3.30964 18.25 4 18.25H12C12.4142 18.25 12.75 18.5858 12.75 19C12.75 19.4142 12.4142 19.75 12 19.75H4C2.48122 19.75 1.25 18.5188 1.25 17V7ZM18.5 15.75C16.9812 15.75 15.75 16.9812 15.75 18.5C15.75 18.9774 15.8712 19.4258 16.085 19.8169L19.8649 16.1119C19.4627 15.8814 18.997 15.75 18.5 15.75ZM20.915 17.1831L17.1351 20.8881C17.5373 21.1186 18.003 21.25 18.5 21.25C20.0188 21.25 21.25 20.0188 21.25 18.5C21.25 18.0226 21.1288 17.5742 20.915 17.1831ZM14.25 18.5C14.25 16.1528 16.1528 14.25 18.5 14.25C19.6887 14.25 20.7646 14.739 21.5351 15.525C22.2858 16.2908 22.75 17.3419 22.75 18.5C22.75 20.8472 20.8472 22.75 18.5 22.75C17.3113 22.75 16.2354 22.261 15.4649 21.475C14.7142 20.7092 14.25 19.6581 14.25 18.5Z" fill="black"/>
</g>
</g>
</g>
<defs>
<clipPath id="clip0_232_7821">
<rect width="24" height="24" rx="5" fill="white"/>
</clipPath>
</defs>
</svg>
