<svg width="24" height="24" viewBox="0 0 24 24" fill="none" xmlns="http://www.w3.org/2000/svg">
<g id="card-wallet">
<g clip-path="url(#clip0_232_7130)">
<g id="Weight=Dynamic">
<g id="Vector">
<path d="M16.5 14C16.2239 14 16 13.7761 16 13.5C16 13.2239 16.2239 13 16.5 13C16.7761 13 17 13.2239 17 13.5C17 13.7761 16.7761 14 16.5 14Z" fill="black"/>
</g>
<path id="Vector (Stroke)" fill-rule="evenodd" clip-rule="evenodd" d="M6.25 3.6C6.25 2.85441 6.85442 2.25 7.6 2.25H16.4C17.1456 2.25 17.75 2.85442 17.75 3.6V6.25H19C20.5188 6.25 21.75 7.48122 21.75 9V18C21.75 19.5188 20.5188 20.75 19 20.75H5C3.48122 20.75 2.25 19.5188 2.25 18V9C2.25 7.48122 3.48122 6.25 5 6.25H6.25V3.6ZM7.75 6.25H9.25V3.75H7.75V6.25ZM10.75 3.75V6.25H11.25V3.75H10.75ZM12.75 3.75V6.25H16.25V3.75H12.75ZM5 7.75C4.30964 7.75 3.75 8.30964 3.75 9V18C3.75 18.6904 4.30964 19.25 5 19.25H19C19.6904 19.25 20.25 18.6904 20.25 18V9C20.25 8.30964 19.6904 7.75 19 7.75H5ZM15.25 13.5C15.25 12.8096 15.8096 12.25 16.5 12.25C17.1904 12.25 17.75 12.8096 17.75 13.5C17.75 14.1904 17.1904 14.75 16.5 14.75C15.8096 14.75 15.25 14.1904 15.25 13.5ZM16.5 13.75C16.6381 13.75 16.75 13.6381 16.75 13.5C16.75 13.3619 16.6381 13.25 16.5 13.25C16.3619 13.25 16.25 13.3619 16.25 13.5C16.25 13.6381 16.3619 13.75 16.5 13.75Z" fill="black"/>
</g>
</g>
</g>
<defs>
<clipPath id="clip0_232_7130">
<rect width="24" height="24" rx="5" fill="white"/>
</clipPath>
</defs>
</svg>
