<svg width="24" height="24" viewBox="0 0 24 24" fill="none" xmlns="http://www.w3.org/2000/svg">
<g id="card-reader">
<g clip-path="url(#clip0_232_7391)">
<g id="Weight=Dynamic">
<path id="Vector (Stroke)" fill-rule="evenodd" clip-rule="evenodd" d="M3.5 3.75C3.08579 3.75 2.75 4.08579 2.75 4.5C2.75 4.91421 3.08579 5.25 3.5 5.25H4.25V3.75H3.5ZM3.5 2.25C2.25736 2.25 1.25 3.25736 1.25 4.5C1.25 5.74264 2.25736 6.75 3.5 6.75H4.25V19C4.25 20.5188 5.48122 21.75 7 21.75H17C18.5188 21.75 19.75 20.5188 19.75 19V6.75H20.5C21.7426 6.75 22.75 5.74264 22.75 4.5C22.75 3.25736 21.7426 2.25 20.5 2.25H3.5ZM14.25 3.75H5.75V19C5.75 19.6904 6.30964 20.25 7 20.25H14.25L14.25 3.75ZM15.75 20.25L15.75 3.75H18.25V19C18.25 19.6904 17.6904 20.25 17 20.25H15.75ZM19.75 3.75V5.25H20.5C20.9142 5.25 21.25 4.91421 21.25 4.5C21.25 4.08579 20.9142 3.75 20.5 3.75H19.75Z" fill="black"/>
</g>
</g>
</g>
<defs>
<clipPath id="clip0_232_7391">
<rect width="24" height="24" rx="5" fill="white"/>
</clipPath>
</defs>
</svg>
