<svg width="24" height="24" viewBox="0 0 24 24" fill="none" xmlns="http://www.w3.org/2000/svg">
<g id="cart-minus">
<g clip-path="url(#clip0_232_13526)">
<g id="Weight=Dynamic">
<path id="Vector (Stroke)" fill-rule="evenodd" clip-rule="evenodd" d="M2.03469 2.78158C2.43143 2.66256 2.84954 2.8877 2.96857 3.28444L3.55822 5.24995H22.0002C22.2373 5.24995 22.4604 5.36205 22.6019 5.55226C22.7434 5.74246 22.7867 5.98838 22.7186 6.21546L19.7186 16.2155C19.6234 16.5327 19.3314 16.75 19.0002 16.75H6.0002C5.66899 16.75 5.377 16.5327 5.28183 16.2155L1.53183 3.71546C1.4128 3.31872 1.63794 2.90061 2.03469 2.78158ZM4.00822 6.74995L6.55822 15.25H18.4422L20.9922 6.74995H4.00822ZM9.24238 11C9.24238 10.5857 9.57817 10.25 9.99238 10.25H13.9924C14.4066 10.25 14.7424 10.5857 14.7424 11C14.7424 11.4142 14.4066 11.75 13.9924 11.75H9.99238C9.57817 11.75 9.24238 11.4142 9.24238 11ZM8.0002 18.75C8.41441 18.75 8.7502 19.0857 8.7502 19.5C8.7502 19.9142 9.08598 20.25 9.5002 20.25C9.91441 20.25 10.2502 19.9142 10.2502 19.5C10.2502 19.0857 10.586 18.75 11.0002 18.75C11.4144 18.75 11.7502 19.0857 11.7502 19.5C11.7502 20.7426 10.7428 21.75 9.5002 21.75C8.25756 21.75 7.2502 20.7426 7.2502 19.5C7.2502 19.0857 7.58598 18.75 8.0002 18.75ZM14.0002 18.75C14.4144 18.75 14.7502 19.0857 14.7502 19.5C14.7502 19.9142 15.086 20.25 15.5002 20.25C15.9144 20.25 16.2502 19.9142 16.2502 19.5C16.2502 19.0857 16.586 18.75 17.0002 18.75C17.4144 18.75 17.7502 19.0857 17.7502 19.5C17.7502 20.7426 16.7428 21.75 15.5002 21.75C14.2576 21.75 13.2502 20.7426 13.2502 19.5C13.2502 19.0857 13.586 18.75 14.0002 18.75Z" fill="black"/>
</g>
</g>
</g>
<defs>
<clipPath id="clip0_232_13526">
<rect width="24" height="24" rx="5" fill="white"/>
</clipPath>
</defs>
</svg>
