<svg width="24" height="24" viewBox="0 0 24 24" fill="none" xmlns="http://www.w3.org/2000/svg">
<g id="cash">
<g clip-path="url(#clip0_232_7504)">
<g id="Weight=Dynamic">
<path id="Vector (Stroke)" fill-rule="evenodd" clip-rule="evenodd" d="M4 5.75C3.30964 5.75 2.75 6.30964 2.75 7V17C2.75 17.6904 3.30964 18.25 4 18.25H20C20.6904 18.25 21.25 17.6904 21.25 17V7C21.25 6.30964 20.6904 5.75 20 5.75H4ZM1.25 7C1.25 5.48122 2.48122 4.25 4 4.25H20C21.5188 4.25 22.75 5.48122 22.75 7V17C22.75 18.5188 21.5188 19.75 20 19.75H4C2.48122 19.75 1.25 18.5188 1.25 17V7ZM8.25 12C8.25 9.92893 9.92893 8.25 12 8.25C14.0711 8.25 15.75 9.92893 15.75 12C15.75 14.0711 14.0711 15.75 12 15.75C9.92893 15.75 8.25 14.0711 8.25 12ZM12 9.75C10.7574 9.75 9.75 10.7574 9.75 12C9.75 13.2426 10.7574 14.25 12 14.25C13.2426 14.25 14.25 13.2426 14.25 12C14.25 10.7574 13.2426 9.75 12 9.75ZM6.01172 11.4414C6.3196 11.7185 6.34457 12.1927 6.06747 12.5006L6.05747 12.5117C5.78038 12.8196 5.30616 12.8446 4.99828 12.5675C4.6904 12.2904 4.66543 11.8162 4.94253 11.5083L4.95253 11.4972C5.22962 11.1893 5.70384 11.1643 6.01172 11.4414ZM19.0117 11.4414C19.3196 11.7185 19.3446 12.1927 19.0675 12.5006L19.0575 12.5117C18.7804 12.8196 18.3062 12.8446 17.9983 12.5675C17.6904 12.2904 17.6654 11.8162 17.9425 11.5083L17.9525 11.4972C18.2296 11.1893 18.7038 11.1643 19.0117 11.4414Z" fill="black"/>
</g>
</g>
</g>
<defs>
<clipPath id="clip0_232_7504">
<rect width="24" height="24" rx="5" fill="white"/>
</clipPath>
</defs>
</svg>
