<svg width="24" height="24" viewBox="0 0 24 24" fill="none" xmlns="http://www.w3.org/2000/svg">
<g id="cellar">
<g clip-path="url(#clip0_232_17418)">
<g id="Weight=Dynamic">
<path id="Vector (Stroke)" fill-rule="evenodd" clip-rule="evenodd" d="M5.10571 5.10571C6.93419 3.27723 9.41414 2.25 12 2.25C14.5859 2.25 17.0658 3.27723 18.8943 5.10571C20.7228 6.93419 21.75 9.41414 21.75 12V21C21.75 21.4142 21.4142 21.75 21 21.75H3C2.58579 21.75 2.25 21.4142 2.25 21V12C2.25 9.41414 3.27723 6.93419 5.10571 5.10571ZM3.75 17.75V20.25H20.25V17.75H3.75ZM8.25 16.25H3.75V12C3.75 9.81196 4.61919 7.71354 6.16637 6.16637C7.71354 4.61919 9.81196 3.75 12 3.75C14.188 3.75 16.2865 4.61919 17.8336 6.16637C18.4503 6.78307 18.9593 7.48736 19.3485 8.25H13C12.5858 8.25 12.25 8.58579 12.25 9V12.25H9C8.58579 12.25 8.25 12.5858 8.25 13V16.25ZM9.75 16.25H20.25V13.75H9.75V16.25ZM13.75 12.25H20.25V12C20.25 11.2323 20.143 10.4757 19.9373 9.75H13.75V12.25Z" fill="black"/>
</g>
</g>
</g>
<defs>
<clipPath id="clip0_232_17418">
<rect width="24" height="24" rx="5" fill="white"/>
</clipPath>
</defs>
</svg>
