<svg width="24" height="24" viewBox="0 0 24 24" fill="none" xmlns="http://www.w3.org/2000/svg">
<g id="center-align">
<g clip-path="url(#clip0_232_4075)">
<g id="Weight=Dynamic">
<path id="Vector (Stroke)" fill-rule="evenodd" clip-rule="evenodd" d="M4.51173 3.44144C4.81961 3.71853 4.84457 4.19275 4.56748 4.50063L4.55748 4.51174C4.28038 4.81963 3.80616 4.84458 3.49828 4.56749C3.1904 4.29039 3.16544 3.81618 3.44254 3.5083L3.45254 3.49718C3.72963 3.1893 4.20385 3.16434 4.51173 3.44144ZM8.51174 3.44144C8.81962 3.71854 8.84457 4.19276 8.56747 4.50064L8.55747 4.51175C8.28037 4.81963 7.80616 4.84458 7.49828 4.56748C7.1904 4.29039 7.16544 3.81617 7.44254 3.50829L7.45254 3.49718C7.72964 3.1893 8.20386 3.16435 8.51174 3.44144ZM12.5117 3.44144C12.8196 3.71854 12.8446 4.19276 12.5675 4.50064L12.5575 4.51175C12.2804 4.81963 11.8062 4.84458 11.4983 4.56748C11.1904 4.29039 11.1654 3.81617 11.4425 3.50829L11.4525 3.49718C11.7296 3.1893 12.2039 3.16435 12.5117 3.44144ZM16.5117 3.44144C16.8196 3.71854 16.8446 4.19276 16.5675 4.50064L16.5575 4.51175C16.2804 4.81963 15.8062 4.84458 15.4983 4.56748C15.1904 4.29039 15.1654 3.81617 15.4425 3.50829L15.4525 3.49718C15.7296 3.1893 16.2039 3.16435 16.5117 3.44144ZM20.5117 3.44144C20.8196 3.71854 20.8446 4.19276 20.5675 4.50064L20.5575 4.51175C20.2804 4.81963 19.8062 4.84458 19.4983 4.56748C19.1904 4.29039 19.1654 3.81617 19.4425 3.50829L19.4525 3.49718C19.7296 3.1893 20.2039 3.16435 20.5117 3.44144ZM4.51173 7.44143C4.81961 7.71853 4.84457 8.19274 4.56748 8.50063L4.55748 8.51174C4.28039 8.81962 3.80617 8.84459 3.49829 8.56749C3.1904 8.2904 3.16544 7.81618 3.44253 7.5083L3.45253 7.49719C3.72962 7.1893 4.20384 7.16434 4.51173 7.44143ZM20.5117 7.44144C20.8196 7.71854 20.8446 8.19275 20.5675 8.50063L20.5575 8.51175C20.2804 8.81963 19.8062 8.84458 19.4983 8.56749C19.1904 8.29039 19.1654 7.81617 19.4425 7.50829L19.4525 7.49718C19.7296 7.1893 20.2039 7.16434 20.5117 7.44144ZM7.25001 8.00002C7.25001 7.58581 7.58579 7.25002 8.00001 7.25002H16C16.4142 7.25002 16.75 7.58581 16.75 8.00002V16C16.75 16.4142 16.4142 16.75 16 16.75H8.00001C7.58579 16.75 7.25001 16.4142 7.25001 16V8.00002ZM8.75001 8.75002V15.25H15.25V8.75002H8.75001ZM4.51173 11.4414C4.81961 11.7185 4.84457 12.1927 4.56748 12.5006L4.55748 12.5117C4.28039 12.8196 3.80617 12.8446 3.49829 12.5675C3.1904 12.2904 3.16544 11.8162 3.44253 11.5083L3.45253 11.4972C3.72962 11.1893 4.20384 11.1643 4.51173 11.4414ZM20.5117 11.4414C20.8196 11.7185 20.8446 12.1928 20.5675 12.5006L20.5575 12.5117C20.2804 12.8196 19.8062 12.8446 19.4983 12.5675C19.1904 12.2904 19.1654 11.8162 19.4425 11.5083L19.4525 11.4972C19.7296 11.1893 20.2039 11.1643 20.5117 11.4414ZM4.51173 15.4414C4.81961 15.7185 4.84457 16.1927 4.56748 16.5006L4.55748 16.5117C4.28039 16.8196 3.80617 16.8446 3.49829 16.5675C3.1904 16.2904 3.16544 15.8162 3.44253 15.5083L3.45253 15.4972C3.72962 15.1893 4.20384 15.1643 4.51173 15.4414ZM20.5117 15.4414C20.8196 15.7185 20.8446 16.1928 20.5675 16.5006L20.5575 16.5117C20.2804 16.8196 19.8062 16.8446 19.4983 16.5675C19.1904 16.2904 19.1654 15.8162 19.4425 15.5083L19.4525 15.4972C19.7296 15.1893 20.2039 15.1643 20.5117 15.4414ZM8.51176 19.4415C8.81963 19.7186 8.84456 20.1928 8.56745 20.5007L8.55745 20.5118C8.28034 20.8196 7.80613 20.8446 7.49826 20.5675C7.19039 20.2904 7.16545 19.8161 7.44256 19.5083L7.45256 19.4972C7.72967 19.1893 8.20389 19.1644 8.51176 19.4415ZM12.5118 19.4415C12.8196 19.7186 12.8446 20.1928 12.5675 20.5007L12.5575 20.5118C12.2803 20.8196 11.8061 20.8446 11.4983 20.5675C11.1904 20.2904 11.1655 19.8161 11.4426 19.5083L11.4526 19.4972C11.7297 19.1893 12.2039 19.1644 12.5118 19.4415ZM16.5118 19.4415C16.8196 19.7186 16.8446 20.1928 16.5675 20.5007L16.5575 20.5118C16.2803 20.8196 15.8061 20.8446 15.4983 20.5675C15.1904 20.2904 15.1655 19.8161 15.4426 19.5083L15.4526 19.4972C15.7297 19.1893 16.2039 19.1644 16.5118 19.4415ZM20.5118 19.4415C20.8196 19.7186 20.8446 20.1928 20.5675 20.5007L20.5575 20.5118C20.2803 20.8196 19.8061 20.8446 19.4983 20.5675C19.1904 20.2904 19.1655 19.8161 19.4426 19.5083L19.4526 19.4972C19.7297 19.1893 20.2039 19.1644 20.5118 19.4415ZM4.51175 19.4415C4.81962 19.7186 4.84456 20.1928 4.56746 20.5007L4.55746 20.5118C4.28035 20.8196 3.80614 20.8446 3.49826 20.5675C3.19039 20.2904 3.16545 19.8161 3.44255 19.5083L3.45255 19.4972C3.72966 19.1893 4.20388 19.1644 4.51175 19.4415Z" fill="black"/>
</g>
</g>
</g>
<defs>
<clipPath id="clip0_232_4075">
<rect width="24" height="24" rx="5" fill="white"/>
</clipPath>
</defs>
</svg>
