<svg width="24" height="24" viewBox="0 0 24 24" fill="none" xmlns="http://www.w3.org/2000/svg">
<g id="chat-bubble-translate">
<g clip-path="url(#clip0_232_2936)">
<g id="Weight=Dynamic">
<path id="Vector (Stroke)" fill-rule="evenodd" clip-rule="evenodd" d="M12 2.75C6.89137 2.75 2.75 6.89137 2.75 12C2.75 13.6861 3.20043 15.2647 3.98703 16.6245C4.07666 16.7794 4.10792 16.9613 4.07515 17.1373L3.43742 20.5626L6.86272 19.9248C7.0387 19.8921 7.2206 19.9233 7.37554 20.013C8.73533 20.7996 10.3139 21.25 12 21.25C17.1086 21.25 21.25 17.1086 21.25 12C21.25 6.89137 17.1086 2.75 12 2.75ZM1.25 12C1.25 6.06294 6.06294 1.25 12 1.25C17.9371 1.25 22.75 6.06294 22.75 12C22.75 17.9371 17.9371 22.75 12 22.75C10.1437 22.75 8.39536 22.2789 6.87016 21.4492L2.63728 22.2373C2.39423 22.2826 2.14449 22.2051 1.96967 22.0303C1.79485 21.8555 1.71742 21.6058 1.76267 21.3627L2.55076 17.1298C1.72113 15.6046 1.25 13.8563 1.25 12ZM12 6.25C12.4142 6.25 12.75 6.58579 12.75 7V7.76724H17C17.4142 7.76724 17.75 8.10303 17.75 8.51724C17.75 8.93146 17.4142 9.26724 17 9.26724H15.7673C15.1673 11.0578 14.1462 12.7346 12.9966 14.2267L14.6808 15.9601C14.9694 16.2572 14.9626 16.732 14.6655 17.0207C14.3684 17.3093 13.8936 17.3025 13.605 17.0054L12.041 15.3958C11.0029 16.5974 9.9105 17.6652 8.93346 18.5546C8.62715 18.8334 8.1528 18.8112 7.87396 18.5049C7.59512 18.1986 7.61738 17.7242 7.92369 17.4454C8.91148 16.5462 10.0039 15.4742 11.0242 14.2773C10.7599 13.9503 10.4846 13.5923 10.2331 13.2469C9.85868 12.7329 9.49797 12.1944 9.32144 11.8195C9.14501 11.4447 9.30579 10.9979 9.68055 10.8214C10.0553 10.645 10.5021 10.8058 10.6786 11.1805C10.7877 11.4125 11.0699 11.8481 11.4455 12.3638C11.6186 12.6014 11.8032 12.8448 11.9861 13.0775C12.8872 11.8763 13.6612 10.593 14.1731 9.26724H7C6.58579 9.26724 6.25 8.93146 6.25 8.51724C6.25 8.10303 6.58579 7.76724 7 7.76724H11.25V7C11.25 6.58579 11.5858 6.25 12 6.25Z" fill="black"/>
</g>
</g>
</g>
<defs>
<clipPath id="clip0_232_2936">
<rect width="24" height="24" rx="5" fill="white"/>
</clipPath>
</defs>
</svg>
