<svg width="24" height="24" viewBox="0 0 24 24" fill="none" xmlns="http://www.w3.org/2000/svg">
<g id="chat-bubble-xmark">
<g clip-path="url(#clip0_232_2886)">
<g id="Weight=Dynamic">
<path id="Vector (Stroke)" fill-rule="evenodd" clip-rule="evenodd" d="M12 2.75C6.89137 2.75 2.75 6.89137 2.75 12C2.75 13.6861 3.20043 15.2647 3.98703 16.6245C4.07666 16.7794 4.10792 16.9613 4.07515 17.1373L3.43742 20.5626L6.86272 19.9248C7.0387 19.8921 7.2206 19.9233 7.37554 20.013C8.73533 20.7996 10.3139 21.25 12 21.25C17.1086 21.25 21.25 17.1086 21.25 12C21.25 6.89137 17.1086 2.75 12 2.75ZM1.25 12C1.25 6.06294 6.06294 1.25 12 1.25C17.9371 1.25 22.75 6.06294 22.75 12C22.75 17.9371 17.9371 22.75 12 22.75C10.1437 22.75 8.39536 22.2789 6.87016 21.4492L2.63728 22.2373C2.39423 22.2826 2.14449 22.2051 1.96967 22.0303C1.79485 21.8555 1.71742 21.6058 1.76267 21.3627L2.55076 17.1298C1.72113 15.6046 1.25 13.8563 1.25 12ZM8.97045 8.96889C9.26378 8.67643 9.73865 8.67713 10.0311 8.97045L11.9942 10.9393L13.9705 8.96889C14.2638 8.67643 14.7386 8.67713 15.0311 8.97045C15.3236 9.26377 15.3229 9.73865 15.0295 10.0311L13.0549 12L15.0295 13.9689C15.3229 14.2614 15.3236 14.7362 15.0311 15.0295C14.7386 15.3229 14.2638 15.3236 13.9705 15.0311L11.9942 13.0607L10.0311 15.0295C9.73865 15.3229 9.26378 15.3236 8.97045 15.0311C8.67713 14.7387 8.67643 14.2638 8.96889 13.9705L10.9335 12L8.96889 10.0295C8.67643 9.73622 8.67713 9.26135 8.97045 8.96889Z" fill="black"/>
</g>
</g>
</g>
<defs>
<clipPath id="clip0_232_2886">
<rect width="24" height="24" rx="5" fill="white"/>
</clipPath>
</defs>
</svg>
