<svg width="24" height="24" viewBox="0 0 24 24" fill="none" xmlns="http://www.w3.org/2000/svg">
<g id="chat-bubble-check">
<g clip-path="url(#clip0_232_2911)">
<g id="Weight=Dynamic">
<path id="Vector (Stroke)" fill-rule="evenodd" clip-rule="evenodd" d="M12 2.75C6.89137 2.75 2.75 6.89137 2.75 12C2.75 13.6861 3.20043 15.2647 3.98703 16.6245C4.07666 16.7794 4.10792 16.9613 4.07515 17.1373L3.43742 20.5626L6.86272 19.9248C7.0387 19.8921 7.2206 19.9233 7.37554 20.013C8.73533 20.7996 10.3139 21.25 12 21.25C17.1086 21.25 21.25 17.1086 21.25 12C21.25 6.89137 17.1086 2.75 12 2.75ZM1.25 12C1.25 6.06294 6.06294 1.25 12 1.25C17.9371 1.25 22.75 6.06294 22.75 12C22.75 17.9371 17.9371 22.75 12 22.75C10.1437 22.75 8.39536 22.2789 6.87016 21.4492L2.63728 22.2373C2.39423 22.2826 2.14449 22.2051 1.96967 22.0303C1.79485 21.8555 1.71742 21.6058 1.76267 21.3627L2.55076 17.1298C1.72113 15.6046 1.25 13.8563 1.25 12ZM16.5303 9.46967C16.8232 9.76256 16.8232 10.2374 16.5303 10.5303L11.5303 15.5303C11.2374 15.8232 10.7626 15.8232 10.4697 15.5303L7.46967 12.5303C7.17678 12.2374 7.17678 11.7626 7.46967 11.4697C7.76256 11.1768 8.23744 11.1768 8.53033 11.4697L11 13.9393L15.4697 9.46967C15.7626 9.17678 16.2374 9.17678 16.5303 9.46967Z" fill="black"/>
</g>
</g>
</g>
<defs>
<clipPath id="clip0_232_2911">
<rect width="24" height="24" rx="5" fill="white"/>
</clipPath>
</defs>
</svg>
