<svg width="24" height="24" viewBox="0 0 24 24" fill="none" xmlns="http://www.w3.org/2000/svg">
<g id="check-square">
<g clip-path="url(#clip0_232_2289)">
<g id="Weight=Dynamic">
<path id="Vector (Stroke)" fill-rule="evenodd" clip-rule="evenodd" d="M3.75 3.75V20.25H20.25V3.75H3.75ZM2.25 3.6C2.25 2.85441 2.85442 2.25 3.6 2.25H20.4C21.1456 2.25 21.75 2.85442 21.75 3.6V20.4C21.75 21.1456 21.1456 21.75 20.4 21.75H3.6C2.85442 21.75 2.25 21.1456 2.25 20.4V3.6ZM17.5303 7.96967C17.8232 8.26256 17.8232 8.73744 17.5303 9.03033L10.5303 16.0303C10.2374 16.3232 9.76256 16.3232 9.46967 16.0303L6.46967 13.0303C6.17678 12.7374 6.17678 12.2626 6.46967 11.9697C6.76256 11.6768 7.23744 11.6768 7.53033 11.9697L10 14.4393L16.4697 7.96967C16.7626 7.67678 17.2374 7.67678 17.5303 7.96967Z" fill="black"/>
</g>
</g>
</g>
<defs>
<clipPath id="clip0_232_2289">
<rect width="24" height="24" rx="5" fill="white"/>
</clipPath>
</defs>
</svg>
