<svg width="24" height="24" viewBox="0 0 24 24" fill="none" xmlns="http://www.w3.org/2000/svg">
<g id="check-circle">
<g clip-path="url(#clip0_232_1284)">
<g id="Weight=Dynamic">
<path id="Vector (Stroke)" fill-rule="evenodd" clip-rule="evenodd" d="M12 2.75C6.89137 2.75 2.75 6.89137 2.75 12C2.75 17.1086 6.89137 21.25 12 21.25C17.1086 21.25 21.25 17.1086 21.25 12C21.25 6.89137 17.1086 2.75 12 2.75ZM1.25 12C1.25 6.06294 6.06294 1.25 12 1.25C17.9371 1.25 22.75 6.06294 22.75 12C22.75 17.9371 17.9371 22.75 12 22.75C6.06294 22.75 1.25 17.9371 1.25 12ZM17.5303 7.96967C17.8232 8.26256 17.8232 8.73744 17.5303 9.03033L10.5303 16.0303C10.2374 16.3232 9.76256 16.3232 9.46967 16.0303L6.46967 13.0303C6.17678 12.7374 6.17678 12.2626 6.46967 11.9697C6.76256 11.6768 7.23744 11.6768 7.53033 11.9697L10 14.4393L16.4697 7.96967C16.7626 7.67678 17.2374 7.67678 17.5303 7.96967Z" fill="black"/>
</g>
</g>
</g>
<defs>
<clipPath id="clip0_232_1284">
<rect width="24" height="24" rx="5" fill="white"/>
</clipPath>
</defs>
</svg>
