<svg width="24" height="24" viewBox="0 0 24 24" fill="none" xmlns="http://www.w3.org/2000/svg">
<g id="chocolate">
<g clip-path="url(#clip0_232_7935)">
<g id="Weight=Dynamic">
<path id="Vector (Stroke)" fill-rule="evenodd" clip-rule="evenodd" d="M4.25 3C4.25 2.58579 4.58579 2.25 5 2.25H14.5C14.9142 2.25 15.25 2.58579 15.25 3C15.25 4.38777 15.5933 4.95246 16.041 5.25096C16.5799 5.61022 17.4852 5.75 19 5.75C19.1989 5.75 19.3897 5.82902 19.5303 5.96967C19.671 6.11032 19.75 6.30109 19.75 6.5V21C19.75 21.4142 19.4142 21.75 19 21.75H5C4.58579 21.75 4.25 21.4142 4.25 21V3ZM5.75 9.75V14.25H11.25V9.75H5.75ZM11.25 8.25H5.75V3.75H11.25V8.25ZM12.75 9.75V14.25H18.25V9.75H12.75ZM18.25 8.25H12.75V3.75H13.7831C13.8988 4.98373 14.3273 5.91123 15.209 6.49904C16.0054 7.02997 17.0651 7.19664 18.25 7.23817V8.25ZM18.25 15.75H12.75V20.25H18.25V15.75ZM11.25 20.25V15.75H5.75V20.25H11.25Z" fill="black"/>
</g>
</g>
</g>
<defs>
<clipPath id="clip0_232_7935">
<rect width="24" height="24" rx="5" fill="white"/>
</clipPath>
</defs>
</svg>
