<svg width="24" height="24" viewBox="0 0 24 24" fill="none" xmlns="http://www.w3.org/2000/svg">
<g id="chromecast-active">
<g clip-path="url(#clip0_232_5735)">
<g id="Weight=Dynamic">
<g id="Vector">
<path fill-rule="evenodd" clip-rule="evenodd" d="M2.51172 19.4414C2.8196 19.7185 2.84456 20.1927 2.56746 20.5006L2.55746 20.5117C2.28037 20.8196 1.80615 20.8446 1.49827 20.5675C1.19039 20.2904 1.16543 19.8162 1.44252 19.5083L1.45252 19.4972C1.72962 19.1893 2.20384 19.1643 2.51172 19.4414Z" fill="black"/>
<path fill-rule="evenodd" clip-rule="evenodd" d="M20 19.25C20.6903 19.25 21.25 18.6904 21.25 18V6C21.25 5.30964 20.6903 4.75 20 4.75H3.99999C3.30964 4.75 2.74999 5.30964 2.74999 6V7C2.74999 7.41421 2.41421 7.75 1.99999 7.75C1.58578 7.75 1.24999 7.41421 1.24999 7V6C1.24999 4.48122 2.48121 3.25 3.99999 3.25H20C21.5188 3.25 22.75 4.48122 22.75 6V18C22.75 19.5188 21.5188 20.75 20 20.75H15C14.5858 20.75 14.25 20.4142 14.25 20C14.25 19.5858 14.5858 19.25 15 19.25H20Z" fill="black"/>
<path fill-rule="evenodd" clip-rule="evenodd" d="M1.27239 15.8181C1.37285 15.4163 1.78005 15.1719 2.1819 15.2724C4.45061 15.8396 6.16042 17.5494 6.7276 19.8181C6.82806 20.2199 6.58374 20.6271 6.1819 20.7276C5.78005 20.8281 5.37285 20.5837 5.27239 20.1819C4.83957 18.4506 3.54938 17.1604 1.81809 16.7276C1.41625 16.6271 1.17193 16.2199 1.27239 15.8181Z" fill="black"/>
<path fill-rule="evenodd" clip-rule="evenodd" d="M1.25579 11.907C1.30716 11.496 1.68201 11.2044 2.09302 11.2558C6.43348 11.7983 10.2016 15.5665 10.7442 19.907C10.7956 20.318 10.504 20.6928 10.093 20.7442C9.682 20.7956 9.30716 20.504 9.25579 20.093C8.79834 16.4335 5.56651 13.2017 1.90697 12.7442C1.49595 12.6928 1.20441 12.318 1.25579 11.907Z" fill="black"/>
<path fill-rule="evenodd" clip-rule="evenodd" d="M5.00195 7.63027C5.00195 7.2989 5.27058 7.03027 5.60195 7.03027H18.4059C18.7372 7.03027 19.0059 7.2989 19.0059 7.63027V16.462C19.0059 16.7934 18.7372 17.062 18.4059 17.062H13.4413C13.2029 17.062 12.9876 16.9226 12.8854 16.7072C12.4625 15.815 11.2633 13.4465 9.81567 12C8.39581 10.5813 6.24337 9.55638 5.37987 9.17985C5.15311 9.08097 5.00195 8.85869 5.00195 8.61131V7.63027Z" fill="black"/>
</g>
</g>
</g>
</g>
<defs>
<clipPath id="clip0_232_5735">
<rect width="24" height="24" rx="5" fill="white"/>
</clipPath>
</defs>
</svg>
