<svg width="24" height="24" viewBox="0 0 24 24" fill="none" xmlns="http://www.w3.org/2000/svg">
<g id="church">
<g clip-path="url(#clip0_232_17553)">
<g id="Weight=Dynamic">
<path id="Vector (Stroke)" fill-rule="evenodd" clip-rule="evenodd" d="M12 1.25C12.4142 1.25 12.75 1.58579 12.75 2V3.25H14C14.4142 3.25 14.75 3.58579 14.75 4C14.75 4.41421 14.4142 4.75 14 4.75H12.75V5.58431L20.1155 10.1878C20.5102 10.4344 20.75 10.8671 20.75 11.3325V21.4C20.75 22.1456 20.1456 22.75 19.4 22.75H4.6C3.85441 22.75 3.25 22.1456 3.25 21.4V11.3325C3.25 10.8671 3.48979 10.4344 3.8845 10.1878L11.25 5.58431V4.75H10C9.58579 4.75 9.25 4.41421 9.25 4C9.25 3.58579 9.58579 3.25 10 3.25H11.25V2C11.25 1.58579 11.5858 1.25 12 1.25ZM12 6.88444L4.75 11.4157V21.25H11.25V17C11.25 16.5858 11.5858 16.25 12 16.25C12.4142 16.25 12.75 16.5858 12.75 17V21.25H19.25V11.4157L12 6.88444ZM8.51173 12.4414C8.81961 12.7185 8.84456 13.1927 8.56747 13.5006L8.55747 13.5117C8.28037 13.8196 7.80616 13.8446 7.49827 13.5675C7.19039 13.2904 7.16544 12.8162 7.44253 12.5083L7.45253 12.4972C7.72963 12.1893 8.20385 12.1643 8.51173 12.4414ZM12.5117 12.4414C12.8196 12.7185 12.8446 13.1927 12.5675 13.5006L12.5575 13.5117C12.2804 13.8196 11.8062 13.8446 11.4983 13.5675C11.1904 13.2904 11.1654 12.8162 11.4425 12.5083L11.4525 12.4972C11.7296 12.1893 12.2038 12.1643 12.5117 12.4414ZM16.5117 12.4414C16.8196 12.7185 16.8446 13.1927 16.5675 13.5006L16.5575 13.5117C16.2804 13.8196 15.8062 13.8446 15.4983 13.5675C15.1904 13.2904 15.1654 12.8162 15.4425 12.5083L15.4525 12.4972C15.7296 12.1893 16.2038 12.1643 16.5117 12.4414ZM8.51173 16.4414C8.81961 16.7185 8.84456 17.1927 8.56747 17.5006L8.55747 17.5117C8.28037 17.8196 7.80616 17.8446 7.49827 17.5675C7.19039 17.2904 7.16544 16.8162 7.44253 16.5083L7.45253 16.4972C7.72963 16.1893 8.20385 16.1643 8.51173 16.4414ZM16.5117 16.4414C16.8196 16.7185 16.8446 17.1927 16.5675 17.5006L16.5575 17.5117C16.2804 17.8196 15.8062 17.8446 15.4983 17.5675C15.1904 17.2904 15.1654 16.8162 15.4425 16.5083L15.4525 16.4972C15.7296 16.1893 16.2038 16.1643 16.5117 16.4414Z" fill="black"/>
</g>
</g>
</g>
<defs>
<clipPath id="clip0_232_17553">
<rect width="24" height="24" rx="5" fill="white"/>
</clipPath>
</defs>
</svg>
