<svg width="24" height="24" viewBox="0 0 24 24" fill="none" xmlns="http://www.w3.org/2000/svg">
<g id="church-side">
<g clip-path="url(#clip0_232_17430)">
<g id="Weight=Dynamic">
<path id="Vector (Stroke)" fill-rule="evenodd" clip-rule="evenodd" d="M8 1.25C8.41421 1.25 8.75 1.58579 8.75 2V3.25H10C10.4142 3.25 10.75 3.58579 10.75 4C10.75 4.41421 10.4142 4.75 10 4.75H8.75V6.25H16.2515C16.6095 6.25 16.9529 6.39223 17.2061 6.64541L20.3546 9.79393C20.6078 10.0471 20.75 10.3905 20.75 10.7485V21.4C20.75 22.1456 20.1456 22.75 19.4 22.75H12C11.9105 22.75 11.8246 22.7343 11.745 22.7055C11.6349 22.7345 11.5192 22.75 11.4 22.75H4.6C3.85441 22.75 3.25 22.1456 3.25 21.4V11.2485C3.25 10.8905 3.39223 10.5471 3.64541 10.2939L7.04541 6.89393C7.1192 6.82014 7.19942 6.75667 7.28426 6.70353C7.26184 6.60597 7.25 6.50437 7.25 6.4V4.75H6C5.58579 4.75 5.25 4.41421 5.25 4C5.25 3.58579 5.58579 3.25 6 3.25H7.25V2C7.25 1.58579 7.58579 1.25 8 1.25ZM9.81066 7.75L12.3546 10.2939C12.6078 10.5471 12.75 10.8905 12.75 11.2485V21.25H19.25V10.8107L16.1893 7.75H9.81066ZM16.1454 7.70607C16.1453 7.70599 16.1455 7.70614 16.1454 7.70607V7.70607ZM19.2939 10.8546C19.2938 10.8545 19.294 10.8547 19.2939 10.8546V10.8546ZM8.75 21.25V17C8.75 16.5858 8.41421 16.25 8 16.25C7.58579 16.25 7.25 16.5858 7.25 17V21.25H4.75V11.3107L8 8.06066L11.25 11.3107V21.25H8.75ZM8.51173 12.4414C8.81961 12.7185 8.84456 13.1927 8.56747 13.5006L8.55747 13.5117C8.28037 13.8196 7.80616 13.8446 7.49827 13.5675C7.19039 13.2904 7.16544 12.8162 7.44253 12.5083L7.45253 12.4972C7.72963 12.1893 8.20385 12.1643 8.51173 12.4414Z" fill="black"/>
</g>
</g>
</g>
<defs>
<clipPath id="clip0_232_17430">
<rect width="24" height="24" rx="5" fill="white"/>
</clipPath>
</defs>
</svg>
