<svg width="24" height="24" viewBox="0 0 24 24" fill="none" xmlns="http://www.w3.org/2000/svg">
<g id="cigarette-slash">
<g clip-path="url(#clip0_232_1589)">
<g id="Weight=Dynamic">
<path id="Vector (Stroke)" fill-rule="evenodd" clip-rule="evenodd" d="M11 1.25C11.4142 1.25 11.75 1.58579 11.75 2V6C11.75 7.24257 12.7575 8.25 14.0002 8.25H15C17.2 8.25 18.75 9.4 18.75 11C18.75 11.4142 18.4142 11.75 18 11.75C17.5858 11.75 17.25 11.4142 17.25 11C17.25 10.6 16.8 9.75 15 9.75H14.0002C11.9292 9.75 10.25 8.07114 10.25 6V2C10.25 1.58579 10.5858 1.25 11 1.25ZM22 1.25C22.4142 1.25 22.75 1.58579 22.75 2C22.75 3.71844 22.0847 4.78762 21.1123 5.35487C21.0273 5.40446 20.9411 5.44948 20.8542 5.49031C21.0132 5.64017 21.1695 5.80811 21.32 5.99632C22.1538 7.03859 22.75 8.62316 22.75 11C22.75 11.4142 22.4142 11.75 22 11.75C21.5858 11.75 21.25 11.4142 21.25 11C21.25 8.87684 20.7212 7.64891 20.1487 6.93336C19.5968 6.24344 18.9455 5.95632 18.4967 5.83528C18.3112 5.81771 18.155 5.79401 18.04 5.77348C17.9756 5.76198 17.9237 5.75138 17.8861 5.74325C17.8673 5.73917 17.8521 5.73571 17.8407 5.73304L17.8264 5.72966L17.8215 5.72846L17.8196 5.72799L17.8184 5.72769C17.8184 5.72767 17.8181 5.72761 18 5C18 4.25 18.0001 4.25 18.0003 4.25L18.0024 4.25L18.0052 4.25002L18.0118 4.25008L18.0296 4.2504C18.0434 4.25074 18.0611 4.25134 18.0824 4.2524C18.1249 4.25453 18.1821 4.25852 18.2518 4.26599C18.3775 4.27946 18.5453 4.30438 18.7427 4.3506C19.2432 4.38586 19.8707 4.34259 20.3565 4.0592C20.7903 3.80613 21.25 3.28156 21.25 2C21.25 1.58579 21.5858 1.25 22 1.25ZM18 5L18.0003 4.25C17.6215 4.25 17.3019 4.53242 17.2556 4.90836C17.2093 5.2843 17.451 5.63583 17.8184 5.72769L18 5ZM2.46967 2.46967C2.76256 2.17678 3.23744 2.17678 3.53033 2.46967L17.25 16.1893V15C17.25 14.5858 17.5858 14.25 18 14.25C18.4142 14.25 18.75 14.5858 18.75 15V17.6893L21.5303 20.4697C21.8232 20.7626 21.8232 21.2374 21.5303 21.5303C21.2374 21.8232 20.7626 21.8232 20.4697 21.5303L17.6893 18.75H2.6C1.85442 18.75 1.25 18.1456 1.25 17.4V15.6C1.25 14.8544 1.85441 14.25 2.6 14.25H13.1893L2.46967 3.53033C2.17678 3.23744 2.17678 2.76256 2.46967 2.46967ZM14.6893 15.75H2.75V17.25H16.1893L14.6893 15.75ZM22 14.25C22.4142 14.25 22.75 14.5858 22.75 15V18C22.75 18.4142 22.4142 18.75 22 18.75C21.5858 18.75 21.25 18.4142 21.25 18V15C21.25 14.5858 21.5858 14.25 22 14.25Z" fill="black"/>
</g>
</g>
</g>
<defs>
<clipPath id="clip0_232_1589">
<rect width="24" height="24" rx="5" fill="white"/>
</clipPath>
</defs>
</svg>
