<svg width="24" height="24" viewBox="0 0 24 24" fill="none" xmlns="http://www.w3.org/2000/svg">
<g id="cinema-old">
<g clip-path="url(#clip0_232_1816)">
<g id="Weight=Dynamic">
<path id="Vector (Stroke)" fill-rule="evenodd" clip-rule="evenodd" d="M12 2.75C6.89137 2.75 2.75 6.89137 2.75 12C2.75 17.1086 6.89137 21.25 12 21.25C17.1086 21.25 21.25 17.1086 21.25 12C21.25 6.89137 17.1086 2.75 12 2.75ZM2.75 17.4805C4.62328 20.6354 8.06469 22.75 12 22.75C17.9371 22.75 22.75 17.9371 22.75 12C22.75 6.06294 17.9371 1.25 12 1.25C6.06294 1.25 1.25 6.06294 1.25 12V22C1.25 22.4142 1.58579 22.75 2 22.75C2.41421 22.75 2.75 22.4142 2.75 22V17.4805ZM12 5.75C11.3096 5.75 10.75 6.30964 10.75 7C10.75 7.69036 11.3096 8.25 12 8.25C12.6904 8.25 13.25 7.69036 13.25 7C13.25 6.30964 12.6904 5.75 12 5.75ZM9.25 7C9.25 5.48122 10.4812 4.25 12 4.25C13.5188 4.25 14.75 5.48122 14.75 7C14.75 8.51878 13.5188 9.75 12 9.75C10.4812 9.75 9.25 8.51878 9.25 7ZM7 10.75C6.30964 10.75 5.75 11.3096 5.75 12C5.75 12.6904 6.30964 13.25 7 13.25C7.69036 13.25 8.25 12.6904 8.25 12C8.25 11.3096 7.69036 10.75 7 10.75ZM4.25 12C4.25 10.4812 5.48122 9.25 7 9.25C8.51878 9.25 9.75 10.4812 9.75 12C9.75 13.5188 8.51878 14.75 7 14.75C5.48122 14.75 4.25 13.5188 4.25 12ZM17 10.75C16.3096 10.75 15.75 11.3096 15.75 12C15.75 12.6904 16.3096 13.25 17 13.25C17.6904 13.25 18.25 12.6904 18.25 12C18.25 11.3096 17.6904 10.75 17 10.75ZM14.25 12C14.25 10.4812 15.4812 9.25 17 9.25C18.5188 9.25 19.75 10.4812 19.75 12C19.75 13.5188 18.5188 14.75 17 14.75C15.4812 14.75 14.25 13.5188 14.25 12ZM12 15.75C11.3096 15.75 10.75 16.3096 10.75 17C10.75 17.6904 11.3096 18.25 12 18.25C12.6904 18.25 13.25 17.6904 13.25 17C13.25 16.3096 12.6904 15.75 12 15.75ZM9.25 17C9.25 15.4812 10.4812 14.25 12 14.25C13.5188 14.25 14.75 15.4812 14.75 17C14.75 18.5188 13.5188 19.75 12 19.75C10.4812 19.75 9.25 18.5188 9.25 17Z" fill="black"/>
</g>
</g>
</g>
<defs>
<clipPath id="clip0_232_1816">
<rect width="24" height="24" rx="5" fill="white"/>
</clipPath>
</defs>
</svg>
