<svg width="24" height="24" viewBox="0 0 24 24" fill="none" xmlns="http://www.w3.org/2000/svg">
<g id="circle-spark">
<g clip-path="url(#clip0_232_11692)">
<g id="Weight=Dynamic">
<path id="Vector (Stroke)" fill-rule="evenodd" clip-rule="evenodd" d="M1.25 12C1.25 6.06294 6.06294 1.25 12 1.25C12.4142 1.25 12.75 1.58579 12.75 2C12.75 2.41421 12.4142 2.75 12 2.75C6.89137 2.75 2.75 6.89137 2.75 12C2.75 17.1086 6.89137 21.25 12 21.25C17.1086 21.25 21.25 17.1086 21.25 12C21.25 11.5858 21.5858 11.25 22 11.25C22.4142 11.25 22.75 11.5858 22.75 12C22.75 17.9371 17.9371 22.75 12 22.75C6.06294 22.75 1.25 17.9371 1.25 12ZM17.5 1.25C17.9142 1.25 18.25 1.58579 18.25 2C18.25 3.5053 18.574 4.38855 19.0998 4.91101C19.6267 5.43446 20.5113 5.75 22 5.75C22.4142 5.75 22.75 6.08579 22.75 6.5C22.75 6.91421 22.4142 7.25 22 7.25C20.5163 7.25 19.6303 7.57286 19.1016 8.10159C18.5729 8.63032 18.25 9.51632 18.25 11C18.25 11.4142 17.9142 11.75 17.5 11.75C17.0858 11.75 16.75 11.4142 16.75 11C16.75 9.51756 16.4253 8.63122 15.8953 8.10202C15.365 7.57258 14.4783 7.25 13 7.25C12.5858 7.25 12.25 6.91421 12.25 6.5C12.25 6.08579 12.5858 5.75 13 5.75C14.4833 5.75 15.3685 5.43473 15.897 4.91058C16.4242 4.38766 16.75 3.50405 16.75 2C16.75 1.58579 17.0858 1.25 17.5 1.25ZM17.4987 5.28671C17.3443 5.53714 17.1634 5.76722 16.9533 5.97557C16.7477 6.17946 16.5217 6.35519 16.2766 6.50531C16.5225 6.65728 16.7491 6.83488 16.9551 7.0405C17.1643 7.24941 17.3447 7.47972 17.4987 7.72997C17.6522 7.47992 17.8321 7.24974 18.0409 7.04093C18.2467 6.83511 18.4733 6.65737 18.7192 6.50531C18.4741 6.3551 18.2481 6.17923 18.0427 5.97514C17.833 5.76689 17.6526 5.53694 17.4987 5.28671Z" fill="black"/>
</g>
</g>
</g>
<defs>
<clipPath id="clip0_232_11692">
<rect width="24" height="24" rx="5" fill="white"/>
</clipPath>
</defs>
</svg>
