<svg width="24" height="24" viewBox="0 0 24 24" fill="none" xmlns="http://www.w3.org/2000/svg">
<g id="city">
<g clip-path="url(#clip0_232_17400)">
<g id="Weight=Dynamic">
<path id="Vector (Stroke)" fill-rule="evenodd" clip-rule="evenodd" d="M9.75 3.75V5C9.75 5.41421 9.41421 5.75 9 5.75H3.75V20.25H14.25V3.75H9.75ZM15.75 20.25H20.25V9.75H15.75V12.25H17C17.4142 12.25 17.75 12.5858 17.75 13C17.75 13.4142 17.4142 13.75 17 13.75H15.75V16.25H17C17.4142 16.25 17.75 16.5858 17.75 17C17.75 17.4142 17.4142 17.75 17 17.75H15.75V20.25ZM15.75 8.25V3.6C15.75 2.85442 15.1456 2.25 14.4 2.25H9.6C8.85442 2.25 8.25 2.85442 8.25 3.6V4.25H3.6C2.85442 4.25 2.25 4.85442 2.25 5.6V20.4C2.25 21.1456 2.85442 21.75 3.6 21.75H20.4C21.1456 21.75 21.75 21.1456 21.75 20.4V9.6C21.75 8.85441 21.1456 8.25 20.4 8.25H15.75ZM7.51173 8.44142C7.81961 8.71852 7.84456 9.19273 7.56747 9.50062L7.55747 9.51173C7.28037 9.81961 6.80616 9.84456 6.49827 9.56747C6.19039 9.29037 6.16544 8.81616 6.44253 8.50827L6.45253 8.49716C6.72963 8.18928 7.20385 8.16433 7.51173 8.44142ZM11.5117 8.44142C11.8196 8.71852 11.8446 9.19273 11.5675 9.50062L11.5575 9.51173C11.2804 9.81961 10.8062 9.84456 10.4983 9.56747C10.1904 9.29037 10.1654 8.81616 10.4425 8.50827L10.4525 8.49716C10.7296 8.18928 11.2038 8.16433 11.5117 8.44142ZM7.51173 12.4414C7.81961 12.7185 7.84456 13.1927 7.56747 13.5006L7.55747 13.5117C7.28037 13.8196 6.80616 13.8446 6.49827 13.5675C6.19039 13.2904 6.16544 12.8162 6.44253 12.5083L6.45253 12.4972C6.72963 12.1893 7.20385 12.1643 7.51173 12.4414ZM11.5117 12.4414C11.8196 12.7185 11.8446 13.1927 11.5675 13.5006L11.5575 13.5117C11.2804 13.8196 10.8062 13.8446 10.4983 13.5675C10.1904 13.2904 10.1654 12.8162 10.4425 12.5083L10.4525 12.4972C10.7296 12.1893 11.2038 12.1643 11.5117 12.4414ZM7.51173 16.4414C7.81961 16.7185 7.84456 17.1927 7.56747 17.5006L7.55747 17.5117C7.28037 17.8196 6.80616 17.8446 6.49827 17.5675C6.19039 17.2904 6.16544 16.8162 6.44253 16.5083L6.45253 16.4972C6.72963 16.1893 7.20385 16.1643 7.51173 16.4414ZM11.5117 16.4414C11.8196 16.7185 11.8446 17.1927 11.5675 17.5006L11.5575 17.5117C11.2804 17.8196 10.8062 17.8446 10.4983 17.5675C10.1904 17.2904 10.1654 16.8162 10.4425 16.5083L10.4525 16.4972C10.7296 16.1893 11.2038 16.1643 11.5117 16.4414Z" fill="black"/>
</g>
</g>
</g>
<defs>
<clipPath id="clip0_232_17400">
<rect width="24" height="24" rx="5" fill="white"/>
</clipPath>
</defs>
</svg>
