<svg width="24" height="24" viewBox="0 0 24 24" fill="none" xmlns="http://www.w3.org/2000/svg">
<g id="clock-rotate-right">
<g clip-path="url(#clip0_232_13336)">
<g id="Weight=Dynamic">
<path id="Vector (Stroke)" fill-rule="evenodd" clip-rule="evenodd" d="M1.25 12C1.25 6.06294 6.06294 1.25 12 1.25C17.3897 1.25 21.8518 5.21566 22.6299 10.3884C22.6915 10.798 22.4094 11.18 21.9998 11.2417C21.5902 11.3033 21.2082 11.0212 21.1466 10.6116C20.4772 6.16181 16.6364 2.75 12 2.75C6.89137 2.75 2.75 6.89137 2.75 12C2.75 17.1086 6.89137 21.25 12 21.25C15.371 21.25 18.3221 19.4467 19.9391 16.75H17C16.5858 16.75 16.25 16.4142 16.25 16C16.25 15.5858 16.5858 15.25 17 15.25H21.4C22.1456 15.25 22.75 15.8544 22.75 16.6V21C22.75 21.4142 22.4142 21.75 22 21.75C21.5858 21.75 21.25 21.4142 21.25 21V17.4802C19.3774 20.6343 15.9364 22.75 12 22.75C6.06294 22.75 1.25 17.9371 1.25 12ZM12 5.25C12.4142 5.25 12.75 5.58579 12.75 6L12.75 11.25L18 11.25C18.4142 11.25 18.75 11.5858 18.75 12C18.75 12.4142 18.4142 12.75 18 12.75L12 12.75C11.8011 12.75 11.6103 12.671 11.4697 12.5303C11.329 12.3897 11.25 12.1989 11.25 12L11.25 6C11.25 5.58579 11.5858 5.25 12 5.25Z" fill="black"/>
</g>
</g>
</g>
<defs>
<clipPath id="clip0_232_13336">
<rect width="24" height="24" rx="5" fill="white"/>
</clipPath>
</defs>
</svg>
