<svg width="24" height="24" viewBox="0 0 24 24" fill="none" xmlns="http://www.w3.org/2000/svg">
<g id="closed-captions-tag">
<g clip-path="url(#clip0_232_12387)">
<g id="Weight=Dynamic">
<path id="Vector (Stroke)" fill-rule="evenodd" clip-rule="evenodd" d="M7 3.75C4.1005 3.75 1.75 6.10051 1.75 9V15C1.75 17.8995 4.10051 20.25 7 20.25H17C19.8995 20.25 22.25 17.8995 22.25 15V9C22.25 6.1005 19.8995 3.75 17 3.75H7ZM0.25 9C0.25 5.27208 3.27208 2.25 7 2.25H17C20.7279 2.25 23.75 5.27208 23.75 9V15C23.75 18.7279 20.7279 21.75 17 21.75H7C3.27208 21.75 0.25 18.7279 0.25 15V9ZM8.32843 9.75C7.18054 9.75 6.25 10.6805 6.25 11.8284V12.1716C6.25 13.3195 7.18054 14.25 8.32843 14.25C8.87966 14.25 9.40832 14.031 9.7981 13.6412L9.96967 13.4697C10.2626 13.1768 10.7374 13.1768 11.0303 13.4697C11.3232 13.7626 11.3232 14.2374 11.0303 14.5303L10.8588 14.7019C10.1877 15.373 9.27749 15.75 8.32843 15.75C6.35212 15.75 4.75 14.1479 4.75 12.1716V11.8284C4.75 9.85212 6.35212 8.25 8.32843 8.25C9.27748 8.25 10.1877 8.62701 10.8588 9.2981L11.0303 9.46967C11.3232 9.76256 11.3232 10.2374 11.0303 10.5303C10.7374 10.8232 10.2626 10.8232 9.96967 10.5303L9.7981 10.3588C9.40832 9.96898 8.87966 9.75 8.32843 9.75ZM16.3284 9.75C15.1805 9.75 14.25 10.6805 14.25 11.8284V12.1716C14.25 13.3195 15.1805 14.25 16.3284 14.25C16.8797 14.25 17.4083 14.031 17.7981 13.6412L17.9697 13.4697C18.2626 13.1768 18.7374 13.1768 19.0303 13.4697C19.3232 13.7626 19.3232 14.2374 19.0303 14.5303L18.8588 14.7019C18.1877 15.373 17.2775 15.75 16.3284 15.75C14.3521 15.75 12.75 14.1479 12.75 12.1716V11.8284C12.75 9.85212 14.3521 8.25 16.3284 8.25C17.2775 8.25 18.1877 8.62701 18.8588 9.2981L19.0303 9.46967C19.3232 9.76256 19.3232 10.2374 19.0303 10.5303C18.7374 10.8232 18.2626 10.8232 17.9697 10.5303L17.7981 10.3588L18.3284 9.82843L17.7981 10.3588C17.4083 9.96898 16.8797 9.75 16.3284 9.75Z" fill="black"/>
</g>
</g>
</g>
<defs>
<clipPath id="clip0_232_12387">
<rect width="24" height="24" rx="5" fill="white"/>
</clipPath>
</defs>
</svg>
