<svg width="24" height="24" viewBox="0 0 24 24" fill="none" xmlns="http://www.w3.org/2000/svg">
<g id="cloud-sync">
<g clip-path="url(#clip0_232_2652)">
<g id="Weight=Dynamic">
<path id="Vector (Stroke)" fill-rule="evenodd" clip-rule="evenodd" d="M7.39312 4.63587C6.76553 5.68186 6.75 6.97236 6.75 8C6.75 8.41421 6.41421 8.75 6 8.75C5.28668 8.75 4.20002 8.97016 3.31323 9.60865C2.46468 10.2196 1.75 11.2444 1.75 13C1.75 14.1955 2.08156 15.0384 2.53739 15.6393C2.99923 16.2481 3.62419 16.6545 4.27355 16.9089C4.65923 17.06 4.84941 17.4951 4.69833 17.8808C4.54726 18.2665 4.11213 18.4567 3.72645 18.3056C2.88209 17.9748 2.00705 17.4221 1.34232 16.5458C0.67158 15.6616 0.25 14.4934 0.25 13C0.25 10.7556 1.20198 9.2804 2.43677 8.39135C3.35065 7.73336 4.39099 7.41468 5.25627 7.30083C5.28248 6.32248 5.41727 5.01348 6.10688 3.86413C7.02939 2.32662 8.81736 1.25 12 1.25C15.1826 1.25 16.9706 2.32662 17.8931 3.86413C18.5827 5.01348 18.7175 6.32248 18.7437 7.30083C19.609 7.41468 20.6493 7.73336 21.5632 8.39135C22.798 9.2804 23.75 10.7556 23.75 13C23.75 14.4934 23.3284 15.6616 22.6577 16.5458C21.993 17.4221 21.1179 17.9748 20.2736 18.3056C19.8879 18.4567 19.4527 18.2665 19.3017 17.8808C19.1506 17.4951 19.3408 17.06 19.7264 16.9089C20.3758 16.6545 21.0008 16.2481 21.4626 15.6393C21.9184 15.0384 22.25 14.1955 22.25 13C22.25 11.2444 21.5353 10.2196 20.6868 9.60865C19.8 8.97016 18.7133 8.75 18 8.75C17.5858 8.75 17.25 8.41421 17.25 8C17.25 6.97236 17.2345 5.68186 16.6069 4.63587C16.0294 3.67338 14.8174 2.75 12 2.75C9.18264 2.75 7.97061 3.67338 7.39312 4.63587ZM13.8165 15.494L13.2928 16.0178C13.0919 16.2186 13.0217 16.5158 13.1116 16.7853C13.2014 17.0548 13.4358 17.2504 13.717 17.2906L16.1921 17.6441C16.4258 17.6775 16.6616 17.5989 16.8286 17.4319C16.9955 17.265 17.0741 17.0292 17.0406 16.7955L16.6869 14.3206C16.6467 14.0394 16.451 13.8051 16.1816 13.7153C15.9121 13.6254 15.6149 13.6956 15.4141 13.8964L14.8793 14.4312C13.0145 12.7504 10.1389 12.8079 8.34324 14.6035L7.98969 14.9571C7.69679 15.25 7.69679 15.7249 7.98969 16.0178C8.28258 16.3106 8.75745 16.3106 9.05035 16.0178L9.4039 15.6642C10.6136 14.4545 12.5396 14.3978 13.8165 15.494ZM7.05014 18.9571C7.21707 18.7902 7.45284 18.7116 7.68653 18.745L10.1614 19.0985C10.4426 19.1387 10.677 19.3343 10.7668 19.6038C10.8567 19.8733 10.7865 20.1704 10.5857 20.3713L10.062 20.8949C11.3389 21.9913 13.265 21.9346 14.4748 20.7249L14.8283 20.3713C15.1212 20.0784 15.5961 20.0784 15.889 20.3713C16.1819 20.6642 16.1819 21.1391 15.889 21.432L15.5354 21.7855C13.7397 23.5812 10.864 23.6386 8.99924 21.9577L8.46434 22.4926C8.26346 22.6935 7.96634 22.7636 7.69683 22.6738C7.42733 22.584 7.23172 22.3496 7.19154 22.0684L6.83801 19.5935C6.80462 19.3598 6.88322 19.124 7.05014 18.9571Z" fill="black"/>
</g>
</g>
</g>
<defs>
<clipPath id="clip0_232_2652">
<rect width="24" height="24" rx="5" fill="white"/>
</clipPath>
</defs>
</svg>
