<svg width="24" height="24" viewBox="0 0 24 24" fill="none" xmlns="http://www.w3.org/2000/svg">
<g id="cloud-square">
<g clip-path="url(#clip0_232_2696)">
<g id="Weight=Dynamic">
<path id="Vector (Stroke)" fill-rule="evenodd" clip-rule="evenodd" d="M3.75 3.75V20.25H20.25V3.75H3.75ZM2.25 3.6C2.25 2.85441 2.85442 2.25 3.6 2.25H20.4C21.1456 2.25 21.75 2.85442 21.75 3.6V20.4C21.75 21.1456 21.1456 21.75 20.4 21.75H3.6C2.85442 21.75 2.25 21.1456 2.25 20.4V3.6ZM9.76389 9.53574C9.49424 9.9477 9.47727 10.4734 9.47727 11C9.47727 11.4142 9.14149 11.75 8.72727 11.75C8.38032 11.75 7.85232 11.8511 7.43586 12.126C7.05978 12.3742 6.75 12.7731 6.75 13.5C6.75 14.2269 7.05978 14.6258 7.43586 14.874C7.85232 15.1489 8.38032 15.25 8.72727 15.25H15.2727C15.6197 15.25 16.1477 15.1489 16.5641 14.874C16.9402 14.6258 17.25 14.2269 17.25 13.5C17.25 12.7731 16.9402 12.3742 16.5641 12.126C16.1477 11.8511 15.6197 11.75 15.2727 11.75C14.8585 11.75 14.5227 11.4142 14.5227 11C14.5227 10.4734 14.5058 9.9477 14.2361 9.53574C14.0116 9.1928 13.4809 8.75 12 8.75C10.5191 8.75 9.98836 9.1928 9.76389 9.53574ZM8.50884 8.71426C9.10255 7.8072 10.2082 7.25 12 7.25C13.7918 7.25 14.8975 7.8072 15.4912 8.71426C15.8419 9.25017 15.9615 9.84183 16.0021 10.3226C16.4468 10.4081 16.9412 10.5775 17.3904 10.874C18.1507 11.3758 18.75 12.2269 18.75 13.5C18.75 14.7731 18.1507 15.6242 17.3904 16.126C16.6705 16.6011 15.8349 16.75 15.2727 16.75H8.72727C8.16513 16.75 7.3295 16.6011 6.6096 16.126C5.84931 15.6242 5.25 14.7731 5.25 13.5C5.25 12.2269 5.84931 11.3758 6.6096 10.874C7.05884 10.5775 7.55315 10.4081 7.99795 10.3226C8.03854 9.84183 8.15806 9.25017 8.50884 8.71426Z" fill="black"/>
</g>
</g>
</g>
<defs>
<clipPath id="clip0_232_2696">
<rect width="24" height="24" rx="5" fill="white"/>
</clipPath>
</defs>
</svg>
