<svg width="24" height="24" viewBox="0 0 24 24" fill="none" xmlns="http://www.w3.org/2000/svg">
<g id="cloud-desync">
<g clip-path="url(#clip0_232_2666)">
<g id="Weight=Dynamic">
<path id="Vector (Stroke)" fill-rule="evenodd" clip-rule="evenodd" d="M7.39312 4.63587C6.76553 5.68186 6.75 6.97236 6.75 8C6.75 8.41421 6.41421 8.75 6 8.75C5.28668 8.75 4.20002 8.97016 3.31323 9.60865C2.46468 10.2196 1.75 11.2444 1.75 13C1.75 14.1955 2.08156 15.0384 2.53739 15.6393C2.99923 16.2481 3.62419 16.6545 4.27355 16.9089C4.65923 17.06 4.84941 17.4951 4.69833 17.8808C4.54726 18.2665 4.11213 18.4567 3.72645 18.3056C2.88209 17.9748 2.00705 17.4221 1.34232 16.5458C0.67158 15.6616 0.25 14.4934 0.25 13C0.25 10.7556 1.20198 9.2804 2.43677 8.39135C3.35065 7.73336 4.39099 7.41468 5.25627 7.30083C5.28248 6.32248 5.41727 5.01348 6.10688 3.86413C7.02939 2.32662 8.81736 1.25 12 1.25C15.1826 1.25 16.9706 2.32662 17.8931 3.86413C18.5827 5.01348 18.7175 6.32248 18.7437 7.30083C19.609 7.41468 20.6493 7.73336 21.5632 8.39135C22.798 9.2804 23.75 10.7556 23.75 13C23.75 14.4934 23.3284 15.6616 22.6577 16.5458C21.993 17.4221 21.1179 17.9748 20.2736 18.3056C19.8879 18.4567 19.4527 18.2665 19.3017 17.8808C19.1506 17.4951 19.3408 17.06 19.7264 16.9089C20.3758 16.6545 21.0008 16.2481 21.4626 15.6393C21.9184 15.0384 22.25 14.1955 22.25 13C22.25 11.2444 21.5353 10.2196 20.6868 9.60865C19.8 8.97016 18.7133 8.75 18 8.75C17.5858 8.75 17.25 8.41421 17.25 8C17.25 6.97236 17.2345 5.68186 16.6069 4.63587C16.0294 3.67338 14.8174 2.75 12 2.75C9.18264 2.75 7.97061 3.67338 7.39312 4.63587ZM10.0621 15.4942C11.339 14.3978 13.2652 14.4544 14.475 15.6642L14.8286 16.0178C15.1215 16.3106 15.5963 16.3106 15.8892 16.0178C16.1821 15.7249 16.1821 15.25 15.8892 14.9571L15.5357 14.6035C13.7399 12.8078 10.8641 12.7504 8.99936 14.4315L8.46434 13.8964C8.26345 13.6956 7.96631 13.6254 7.6968 13.7153C7.42729 13.8051 7.23168 14.0395 7.19153 14.3208L6.83824 16.7956C6.80488 17.0293 6.88349 17.2651 7.05041 17.432C7.21734 17.5989 7.4531 17.6775 7.68679 17.6441L10.1614 17.2906C10.4426 17.2504 10.677 17.0548 10.7668 16.7853C10.8567 16.5158 10.7865 16.2186 10.5857 16.0178L10.0621 15.4942ZM16.9506 18.9571C17.1175 19.124 17.1961 19.3598 17.1627 19.5935L16.8092 22.0684C16.769 22.3496 16.5734 22.584 16.3039 22.6738C16.0344 22.7636 15.7373 22.6935 15.5364 22.4926L15.0015 21.9577C13.1367 23.6386 10.261 23.5812 8.46531 21.7855L8.11176 21.432C7.81886 21.1391 7.81886 20.6642 8.11176 20.3713C8.40465 20.0784 8.87952 20.0784 9.17242 20.3713L9.52597 20.7249C10.7357 21.9346 12.6618 21.9913 13.9387 20.8949L13.4151 20.3713C13.2142 20.1704 13.1441 19.8733 13.2339 19.6038C13.3237 19.3343 13.5581 19.1387 13.8393 19.0985L16.3142 18.745C16.5479 18.7116 16.7837 18.7902 16.9506 18.9571Z" fill="black"/>
</g>
</g>
</g>
<defs>
<clipPath id="clip0_232_2666">
<rect width="24" height="24" rx="5" fill="white"/>
</clipPath>
</defs>
</svg>
