<svg width="24" height="24" viewBox="0 0 24 24" fill="none" xmlns="http://www.w3.org/2000/svg">
<g id="cloud-sunny">
<g clip-path="url(#clip0_232_16683)">
<g id="Weight=Dynamic" clip-path="url(#clip1_232_16683)">
<path id="Vector (Stroke)" fill-rule="evenodd" clip-rule="evenodd" d="M12 0.25C12.4142 0.25 12.75 0.585786 12.75 1V2C12.75 2.41421 12.4142 2.75 12 2.75C11.5858 2.75 11.25 2.41421 11.25 2V1C11.25 0.585786 11.5858 0.25 12 0.25ZM4.96967 2.96967C5.26256 2.67678 5.73744 2.67678 6.03033 2.96967L7.03033 3.96967C7.32322 4.26256 7.32322 4.73744 7.03033 5.03033C6.73744 5.32322 6.26256 5.32322 5.96967 5.03033L4.96967 4.03033C4.67678 3.73744 4.67678 3.26256 4.96967 2.96967ZM19.0303 2.96967C19.3232 3.26256 19.3232 3.73744 19.0303 4.03033L18.0303 5.03033C17.7374 5.32322 17.2626 5.32322 16.9697 5.03033C16.6768 4.73744 16.6768 4.26256 16.9697 3.96967L17.9697 2.96967C18.2626 2.67678 18.7374 2.67678 19.0303 2.96967ZM12 6.75C10.7574 6.75 9.75 7.75736 9.75 9C9.75 10.2426 10.7574 11.25 12 11.25C13.2426 11.25 14.25 10.2426 14.25 9C14.25 7.75736 13.2426 6.75 12 6.75ZM8.25 9C8.25 6.92893 9.92893 5.25 12 5.25C14.0711 5.25 15.75 6.92893 15.75 9C15.75 11.0711 14.0711 12.75 12 12.75C9.92893 12.75 8.25 11.0711 8.25 9ZM3.25 9C3.25 8.58579 3.58579 8.25 4 8.25H5C5.41421 8.25 5.75 8.58579 5.75 9C5.75 9.41421 5.41421 9.75 5 9.75H4C3.58579 9.75 3.25 9.41421 3.25 9ZM18.25 9C18.25 8.58579 18.5858 8.25 19 8.25H20C20.4142 8.25 20.75 8.58579 20.75 9C20.75 9.41421 20.4142 9.75 20 9.75H19C18.5858 9.75 18.25 9.41421 18.25 9ZM3.31323 14.6087C2.46468 15.2196 1.75 16.2444 1.75 18C1.75 19.7556 2.46468 20.7804 3.31323 21.3913C4.20002 22.0298 5.28668 22.25 6 22.25H18C18.7133 22.25 19.8 22.0298 20.6868 21.3913C21.5353 20.7804 22.25 19.7556 22.25 18C22.25 16.2444 21.5353 15.2196 20.6868 14.6087C19.8 13.9702 18.7133 13.75 18 13.75C17.5858 13.75 17.25 13.4142 17.25 13C17.25 12.5858 17.5858 12.25 18 12.25C18.9534 12.25 20.3667 12.5298 21.5632 13.3913C22.798 14.2804 23.75 15.7556 23.75 18C23.75 20.2444 22.798 21.7196 21.5632 22.6087C20.3667 23.4702 18.9534 23.75 18 23.75H6C5.04665 23.75 3.63332 23.4702 2.43677 22.6087C1.20198 21.7196 0.25 20.2444 0.25 18C0.25 15.7556 1.20198 14.2804 2.43677 13.3913C3.63332 12.5298 5.04665 12.25 6 12.25C6.41421 12.25 6.75 12.5858 6.75 13C6.75 13.4142 6.41421 13.75 6 13.75C5.28668 13.75 4.20002 13.9702 3.31323 14.6087Z" fill="black"/>
</g>
</g>
</g>
<defs>
<clipPath id="clip0_232_16683">
<rect width="24" height="24" rx="5" fill="white"/>
</clipPath>
<clipPath id="clip1_232_16683">
<rect width="24" height="24" fill="white"/>
</clipPath>
</defs>
</svg>
