<svg width="24" height="24" viewBox="0 0 24 24" fill="none" xmlns="http://www.w3.org/2000/svg">
<g id="cloud">
<g clip-path="url(#clip0_232_16590)">
<g id="Weight=Dynamic">
<path id="Vector (Stroke)" fill-rule="evenodd" clip-rule="evenodd" d="M7.39312 6.63587C6.76553 7.68186 6.75 8.97236 6.75 10C6.75 10.4142 6.41421 10.75 6 10.75C5.28668 10.75 4.20002 10.9702 3.31323 11.6087C2.46468 12.2196 1.75 13.2444 1.75 15C1.75 16.7556 2.46468 17.7804 3.31323 18.3913C4.20002 19.0298 5.28668 19.25 6 19.25H18C18.7133 19.25 19.8 19.0298 20.6868 18.3913C21.5353 17.7804 22.25 16.7556 22.25 15C22.25 13.2444 21.5353 12.2196 20.6868 11.6087C19.8 10.9702 18.7133 10.75 18 10.75C17.5858 10.75 17.25 10.4142 17.25 10C17.25 8.97236 17.2345 7.68186 16.6069 6.63587C16.0294 5.67338 14.8174 4.75 12 4.75C9.18264 4.75 7.97061 5.67338 7.39312 6.63587ZM6.10688 5.86413C7.02939 4.32662 8.81736 3.25 12 3.25C15.1826 3.25 16.9706 4.32662 17.8931 5.86413C18.5827 7.01348 18.7175 8.32248 18.7437 9.30083C19.609 9.41468 20.6493 9.73336 21.5632 10.3913C22.798 11.2804 23.75 12.7556 23.75 15C23.75 17.2444 22.798 18.7196 21.5632 19.6087C20.3667 20.4702 18.9534 20.75 18 20.75H6C5.04665 20.75 3.63332 20.4702 2.43677 19.6087C1.20198 18.7196 0.25 17.2444 0.25 15C0.25 12.7556 1.20198 11.2804 2.43677 10.3913C3.35065 9.73336 4.39099 9.41468 5.25627 9.30083C5.28248 8.32248 5.41727 7.01348 6.10688 5.86413Z" fill="black"/>
</g>
</g>
</g>
<defs>
<clipPath id="clip0_232_16590">
<rect width="24" height="24" rx="5" fill="white"/>
</clipPath>
</defs>
</svg>
