<svg width="24" height="24" viewBox="0 0 24 24" fill="none" xmlns="http://www.w3.org/2000/svg">
<g id="code-brackets">
<g clip-path="url(#clip0_232_5501)">
<g id="Weight=Dynamic">
<path id="Vector (Stroke)" fill-rule="evenodd" clip-rule="evenodd" d="M5.25001 4.99914C5.25001 3.47994 6.48164 2.25 8.00001 2.25H9.00001C9.41423 2.25 9.75001 2.58579 9.75001 3C9.75001 3.41421 9.41423 3.75 9.00001 3.75H8.00001C7.30923 3.75 6.75001 4.30921 6.75001 4.99914V10C6.75001 10.4344 6.58925 10.8194 6.40875 11.1202C6.22584 11.4251 5.99343 11.6922 5.78033 11.9053C5.74788 11.9378 5.7155 11.9694 5.68335 12C5.71549 12.0307 5.74788 12.0622 5.78033 12.0947C5.99343 12.3078 6.22584 12.5749 6.40874 12.8798C6.58924 13.1806 6.75 13.5656 6.75 14L6.75001 19.0011C6.75001 19.6909 7.3091 20.25 8.00001 20.25H9.00001C9.41423 20.25 9.75001 20.5858 9.75001 21C9.75001 21.4142 9.41423 21.75 9.00001 21.75H8.00001C6.48179 21.75 5.25001 20.5205 5.25001 19.0012L5.25 14C5.25 13.9344 5.22326 13.8194 5.12251 13.6515C5.02416 13.4876 4.88157 13.3172 4.71967 13.1553C4.56015 12.9958 4.39775 12.8602 4.27392 12.7639C4.21262 12.7162 4.1623 12.6793 4.12852 12.6552C4.11167 12.6432 4.09905 12.6344 4.09137 12.6291L4.08397 12.624L4.08371 12.6239C3.87522 12.4847 3.75 12.2507 3.75 12C3.75 11.7496 3.87491 11.5158 4.08294 11.3767C4.0832 11.3765 4.08346 11.3763 4.08371 11.3761L4.08398 11.376L4.09137 11.3709C4.09905 11.3656 4.11168 11.3568 4.12853 11.3448C4.1623 11.3207 4.21262 11.2838 4.27392 11.2361C4.39775 11.1398 4.56016 11.0042 4.71967 10.8447C4.88158 10.6828 5.02417 10.5124 5.12251 10.3485C5.22326 10.1806 5.25001 10.0656 5.25001 10V4.99914ZM14.25 3C14.25 2.58579 14.5858 2.25 15 2.25H16C17.5184 2.25 18.75 3.47994 18.75 4.99914V10C18.75 10.0656 18.7767 10.1806 18.8775 10.3485C18.9758 10.5124 19.1184 10.6828 19.2803 10.8447C19.4398 11.0042 19.6022 11.1398 19.7261 11.2361C19.7874 11.2838 19.8377 11.3207 19.8715 11.3448C19.8883 11.3568 19.9009 11.3656 19.9086 11.3709L19.916 11.376L19.9163 11.3761C20.1248 11.5153 20.25 11.7493 20.25 12C20.25 12.2504 20.1251 12.4842 19.917 12.6234C19.9168 12.6235 19.9165 12.6237 19.9163 12.6239L19.916 12.624L19.9086 12.6291C19.9009 12.6344 19.8883 12.6432 19.8715 12.6552C19.8377 12.6793 19.7874 12.7162 19.7261 12.7639C19.6023 12.8602 19.4398 12.9958 19.2803 13.1553C19.1184 13.3172 18.9758 13.4876 18.8775 13.6515C18.7767 13.8194 18.75 13.9344 18.75 14L18.75 19.0012C18.75 20.5205 17.5182 21.75 16 21.75H15C14.5858 21.75 14.25 21.4142 14.25 21C14.25 20.5858 14.5858 20.25 15 20.25H16C16.6909 20.25 17.25 19.6909 17.25 19.0011L17.25 14C17.25 13.5656 17.4108 13.1806 17.5913 12.8798C17.7742 12.5749 18.0066 12.3078 18.2197 12.0947C18.2521 12.0622 18.2845 12.0306 18.3166 12C18.2845 11.9694 18.2521 11.9378 18.2197 11.9053C18.0066 11.6922 17.7742 11.4251 17.5912 11.1202C17.4107 10.8194 17.25 10.4344 17.25 10V4.99914C17.25 4.30921 16.6908 3.75 16 3.75H15C14.5858 3.75 14.25 3.41421 14.25 3Z" fill="black"/>
</g>
</g>
</g>
<defs>
<clipPath id="clip0_232_5501">
<rect width="24" height="24" rx="5" fill="white"/>
</clipPath>
</defs>
</svg>
