<svg width="24" height="24" viewBox="0 0 24 24" fill="none" xmlns="http://www.w3.org/2000/svg">
<g id="code-brackets-square">
<g clip-path="url(#clip0_232_5509)">
<g id="Weight=Dynamic">
<path id="Vector (Stroke)" fill-rule="evenodd" clip-rule="evenodd" d="M2.25 3.6C2.25 2.85442 2.85442 2.25 3.6 2.25H20.4C21.1456 2.25 21.75 2.85442 21.75 3.6V20.4C21.75 21.1456 21.1456 21.75 20.4 21.75H3.6C2.85442 21.75 2.25 21.1456 2.25 20.4V3.6ZM3.75 3.75V20.25H20.25V3.75H3.75ZM6.58334 8.99998C6.58334 7.48118 7.81457 6.25 9.33334 6.25H10C10.4142 6.25 10.75 6.58579 10.75 7C10.75 7.41421 10.4142 7.75 10 7.75H9.33334C8.64297 7.75 8.08334 8.30963 8.08334 8.99998L8.08334 10.8889C8.08334 11.3215 7.83436 11.6409 7.66604 11.8163C7.60343 11.8815 7.53642 11.9428 7.4678 12C7.53642 12.0572 7.60343 12.1185 7.66604 12.1837C7.83436 12.3591 8.08333 12.6785 8.08333 13.1111L8.08334 15.0002C8.08334 15.6904 8.6429 16.25 9.33334 16.25H10C10.4142 16.25 10.75 16.5858 10.75 17C10.75 17.4142 10.4142 17.75 10 17.75H9.33334C7.81464 17.75 6.58334 16.519 6.58334 15.0002L6.58333 13.2219C6.51944 13.1555 6.41148 13.0722 6.26916 12.9832C6.13208 12.8975 5.99048 12.8235 5.88044 12.77C5.82625 12.7437 5.78164 12.7232 5.75155 12.7098L5.71838 12.6952L5.71154 12.6923L5.71141 12.6923L5.71131 12.6922C5.43196 12.5757 5.25 12.3027 5.25 12C5.25 11.6975 5.4317 11.4247 5.71073 11.308C5.71085 11.308 5.71098 11.3079 5.71111 11.3079C5.71118 11.3078 5.71124 11.3078 5.71131 11.3078L5.71141 11.3077L5.71154 11.3077L5.71838 11.3048L5.75155 11.2902C5.78164 11.2768 5.82625 11.2563 5.88044 11.23C5.99049 11.1765 6.13208 11.1025 6.26917 11.0168C6.41149 10.9278 6.51945 10.8445 6.58334 10.7781L6.58334 8.99998ZM6.62008 10.7341C6.62033 10.7341 6.6189 10.7367 6.61502 10.7418C6.61789 10.7367 6.61982 10.7341 6.62008 10.7341ZM6.62007 13.2659C6.61982 13.2659 6.61788 13.2633 6.61502 13.2582C6.61889 13.2633 6.62032 13.2659 6.62007 13.2659ZM13.25 7C13.25 6.58579 13.5858 6.25 14 6.25H14.6667C16.1854 6.25 17.4167 7.48118 17.4167 8.99998L17.4167 10.7781C17.4806 10.8445 17.5885 10.9278 17.7308 11.0168C17.8679 11.1025 18.0095 11.1765 18.1196 11.23C18.1737 11.2563 18.2184 11.2768 18.2484 11.2902L18.2816 11.3048L18.2885 11.3077L18.2886 11.3077L18.2887 11.3078C18.568 11.4243 18.75 11.6973 18.75 12C18.75 12.3025 18.5683 12.5753 18.2893 12.692C18.2891 12.6921 18.2889 12.6921 18.2887 12.6922L18.2886 12.6923L18.2885 12.6923L18.2816 12.6952L18.2484 12.7098C18.2184 12.7232 18.1738 12.7437 18.1196 12.77C18.0095 12.8235 17.8679 12.8975 17.7308 12.9832C17.5885 13.0722 17.4806 13.1555 17.4167 13.2219L17.4167 15.0002C17.4167 16.519 16.1854 17.75 14.6667 17.75H14C13.5858 17.75 13.25 17.4142 13.25 17C13.25 16.5858 13.5858 16.25 14 16.25H14.6667C15.3571 16.25 15.9167 15.6904 15.9167 15.0002L15.9167 13.1111C15.9167 12.6785 16.1656 12.3591 16.334 12.1837C16.3966 12.1185 16.4636 12.0572 16.5322 12C16.4636 11.9428 16.3966 11.8815 16.334 11.8163C16.1656 11.6409 15.9167 11.3215 15.9167 10.8889L15.9167 8.99998C15.9167 8.30963 15.357 7.75 14.6667 7.75H14C13.5858 7.75 13.25 7.41421 13.25 7ZM17.3799 13.2659C17.3797 13.2659 17.3811 13.2633 17.385 13.2582C17.3821 13.2633 17.3802 13.2659 17.3799 13.2659ZM17.3799 10.7341C17.3802 10.7341 17.3821 10.7367 17.385 10.7418C17.3811 10.7367 17.3797 10.7341 17.3799 10.7341Z" fill="black"/>
</g>
</g>
</g>
<defs>
<clipPath id="clip0_232_5509">
<rect width="24" height="24" rx="5" fill="white"/>
</clipPath>
</defs>
</svg>
