<svg width="24" height="24" viewBox="0 0 24 24" fill="none" xmlns="http://www.w3.org/2000/svg">
<g id="code">
<g clip-path="url(#clip0_232_5441)">
<g id="Weight=Dynamic">
<path id="Vector (Stroke)" fill-rule="evenodd" clip-rule="evenodd" d="M13.7022 5.27778C14.1011 5.38947 14.3339 5.80336 14.2222 6.20223L10.7222 18.7022C10.6105 19.1011 10.1967 19.3339 9.79778 19.2222C9.3989 19.1105 9.16609 18.6967 9.27778 18.2978L12.7778 5.79779C12.8895 5.39891 13.3033 5.1661 13.7022 5.27778ZM7.03033 7.96968C7.32322 8.26257 7.32322 8.73744 7.03033 9.03034L4.06066 12L7.03033 14.9697C7.32322 15.2626 7.32322 15.7374 7.03033 16.0303C6.73744 16.3232 6.26256 16.3232 5.96967 16.0303L2.46967 12.5303C2.17678 12.2374 2.17678 11.7626 2.46967 11.4697L5.96967 7.96968C6.26256 7.67678 6.73744 7.67678 7.03033 7.96968ZM16.9697 7.96968C17.2626 7.67678 17.7374 7.67678 18.0303 7.96968L21.5303 11.4697C21.8232 11.7626 21.8232 12.2374 21.5303 12.5303L18.0303 16.0303C17.7374 16.3232 17.2626 16.3232 16.9697 16.0303C16.6768 15.7374 16.6768 15.2626 16.9697 14.9697L19.9393 12L16.9697 9.03034C16.6768 8.73744 16.6768 8.26257 16.9697 7.96968Z" fill="black"/>
</g>
</g>
</g>
<defs>
<clipPath id="clip0_232_5441">
<rect width="24" height="24" rx="5" fill="white"/>
</clipPath>
</defs>
</svg>
