<svg width="24" height="24" viewBox="0 0 24 24" fill="none" xmlns="http://www.w3.org/2000/svg">
<g id="codepen">
<g clip-path="url(#clip0_232_5687)">
<g id="Weight=Dynamic">
<path id="Vector (Stroke)" fill-rule="evenodd" clip-rule="evenodd" d="M11.584 2.37596C11.8359 2.20801 12.1641 2.20801 12.416 2.37596L21.416 8.37596C21.6247 8.51506 21.75 8.74924 21.75 9V15C21.75 15.2508 21.6247 15.4849 21.416 15.624L12.416 21.624C12.1641 21.792 11.8359 21.792 11.584 21.624L2.58398 15.6241C2.37533 15.485 2.25 15.2508 2.25 15V9C2.25 8.74924 2.37533 8.51506 2.58397 8.37596L11.584 2.37596ZM3.75 10.4014V13.5986L6.14793 12L3.75 10.4014ZM7.50001 12.9014L4.35208 15L11.25 19.5986V15.4014L7.50001 12.9014ZM12.75 15.4014V19.5986L19.6479 15L16.5 12.9014L12.75 15.4014ZM17.8521 12L20.25 13.5986V10.4014L17.8521 12ZM19.6479 9L16.5 11.0986L12.75 8.59861V4.40139L19.6479 9ZM11.25 4.40139V8.59861L7.50001 11.0986L4.35208 9L11.25 4.40139ZM12 9.90139L8.85209 12L12 14.0986L15.1479 12L12 9.90139Z" fill="black"/>
</g>
</g>
</g>
<defs>
<clipPath id="clip0_232_5687">
<rect width="24" height="24" rx="5" fill="white"/>
</clipPath>
</defs>
</svg>
