<svg width="24" height="24" viewBox="0 0 24 24" fill="none" xmlns="http://www.w3.org/2000/svg">
<g id="coffee-cup">
<g clip-path="url(#clip0_232_8012)">
<g id="Weight=Dynamic">
<path id="Vector (Stroke)" fill-rule="evenodd" clip-rule="evenodd" d="M13 2.25C13.4142 2.25 13.75 2.58579 13.75 3V3.5C13.75 5.01878 12.5188 6.25 11 6.25C9.75736 6.25 8.75 7.25736 8.75 8.5V9C8.75 9.41421 8.41421 9.75 8 9.75C7.58579 9.75 7.25 9.41421 7.25 9V8.5C7.25 6.42893 8.92893 4.75 11 4.75C11.6904 4.75 12.25 4.19036 12.25 3.5V3C12.25 2.58579 12.5858 2.25 13 2.25ZM17 2.75C17.4142 2.75 17.75 3.08579 17.75 3.5V4.14286C17.75 6.13503 16.135 7.75 14.1429 7.75C13.6147 7.75 13.2817 7.92917 13.0788 8.14224C12.8665 8.36516 12.75 8.67441 12.75 9C12.75 9.41421 12.4142 9.75 12 9.75C11.5858 9.75 11.25 9.41421 11.25 9C11.25 8.32559 11.4906 7.63484 11.9926 7.10776C12.504 6.57083 13.2424 6.25 14.1429 6.25C15.3066 6.25 16.25 5.3066 16.25 4.14286V3.5C16.25 3.08579 16.5858 2.75 17 2.75ZM2.25 11.6C2.25 10.8544 2.85442 10.25 3.6 10.25H18.5C20.2949 10.25 21.75 11.7051 21.75 13.5C21.75 15.2949 20.2949 16.75 18.5 16.75H17.5209C16.7501 19.6296 14.1227 21.75 11 21.75H9C5.27208 21.75 2.25 18.7279 2.25 15V11.6ZM17.7455 15.25H18.5C19.4665 15.25 20.25 14.4665 20.25 13.5C20.25 12.5335 19.4665 11.75 18.5 11.75H17.75V15C17.75 15.0837 17.7485 15.167 17.7455 15.25ZM3.75 11.75V15C3.75 17.8995 6.10051 20.25 9 20.25H11C13.8995 20.25 16.25 17.8995 16.25 15V11.75H3.75Z" fill="black"/>
</g>
</g>
</g>
<defs>
<clipPath id="clip0_232_8012">
<rect width="24" height="24" rx="5" fill="white"/>
</clipPath>
</defs>
</svg>
