<svg width="24" height="24" viewBox="0 0 24 24" fill="none" xmlns="http://www.w3.org/2000/svg">
<g id="coin-slash">
<g clip-path="url(#clip0_232_7085)">
<g id="Weight=Dynamic">
<path id="Vector (Stroke)" fill-rule="evenodd" clip-rule="evenodd" d="M12 2.75C10.8597 2.75 9.76917 2.956 8.76253 3.33216C8.37452 3.47715 7.94244 3.28015 7.79745 2.89214C7.65246 2.50413 7.84946 2.07205 8.23747 1.92706C9.40951 1.48909 10.6777 1.25 12 1.25C17.9371 1.25 22.75 6.06294 22.75 12C22.75 13.3945 22.4841 14.7288 21.9995 15.9535C21.8471 16.3386 21.4113 16.5273 21.0262 16.3749C20.641 16.2225 20.4523 15.7868 20.6047 15.4016C21.0209 14.3497 21.25 13.2025 21.25 12C21.25 6.89137 17.1086 2.75 12 2.75ZM2.46967 2.46967C2.76256 2.17678 3.23744 2.17678 3.53033 2.46967L21.5303 20.4697C21.8232 20.7626 21.8232 21.2374 21.5303 21.5303C21.2374 21.8232 20.7626 21.8232 20.4697 21.5303L19.0527 20.1133C17.1654 21.7551 14.698 22.75 12 22.75C6.06294 22.75 1.25 17.9371 1.25 12C1.25 9.30191 2.24491 6.83459 3.88669 4.94735L2.46967 3.53033C2.17678 3.23744 2.17678 2.76256 2.46967 2.46967ZM4.95032 6.01098C3.57752 7.62515 2.75 9.71516 2.75 12C2.75 17.1086 6.89137 21.25 12 21.25C14.2849 21.25 16.3749 20.4224 17.989 19.0497L14.9905 16.0512C14.4099 16.6843 13.5838 17.0073 12.75 17.1083V18.5C12.75 18.9142 12.4142 19.25 12 19.25C11.5858 19.25 11.25 18.9142 11.25 18.5V17.0647C10.1574 16.875 9.06955 16.3427 8.4 15.45C8.15147 15.1186 8.21863 14.6485 8.55 14.4C8.88137 14.1515 9.35147 14.2186 9.6 14.55C10.0709 15.1779 11.0251 15.6055 12.0269 15.6415C12.8883 15.6724 13.5668 15.4131 13.9268 14.9874L11.1518 12.2124C10.6107 12.0367 10.0148 11.7928 9.55162 11.3727C9.12306 10.9841 8.83925 10.4734 8.76775 9.82841L4.95032 6.01098ZM12 4.75C12.4142 4.75 12.75 5.08579 12.75 5.5V6.63088C13.7987 6.80659 14.8479 7.28725 15.5303 7.96967C15.8232 8.26256 15.8232 8.73744 15.5303 9.03033C15.2374 9.32322 14.7626 9.32322 14.4697 9.03033C13.9414 8.50209 12.9286 8.08398 11.9798 8.05845C11.5736 8.04752 11.25 7.71508 11.25 7.30872V5.5C11.25 5.08579 11.5858 4.75 12 4.75Z" fill="black"/>
</g>
</g>
</g>
<defs>
<clipPath id="clip0_232_7085">
<rect width="24" height="24" rx="5" fill="white"/>
</clipPath>
</defs>
</svg>
