<svg width="24" height="24" viewBox="0 0 24 24" fill="none" xmlns="http://www.w3.org/2000/svg">
<g id="coins">
<g clip-path="url(#clip0_232_7652)">
<g id="Weight=Dynamic">
<path id="Vector (Stroke)" fill-rule="evenodd" clip-rule="evenodd" d="M4.12906 3.06141C5.15847 2.54671 6.5281 2.25 8 2.25C9.4719 2.25 10.8415 2.54671 11.8709 3.06141C12.8555 3.55369 13.75 4.37252 13.75 5.5V7.49543C14.4457 7.3359 15.208 7.25 16 7.25C17.4719 7.25 18.8415 7.54671 19.8709 8.06141C20.8555 8.55369 21.75 9.37252 21.75 10.5V18.5C21.75 19.6275 20.8555 20.4463 19.8709 20.9386C18.8415 21.4533 17.4719 21.75 16 21.75C14.5281 21.75 13.1585 21.4533 12.1291 20.9386C11.4461 20.5971 10.8065 20.0985 10.4787 19.4487C9.72516 19.6433 8.88256 19.75 8 19.75C6.5281 19.75 5.15847 19.4533 4.12906 18.9386C3.14451 18.4463 2.25 17.6275 2.25 16.5V5.5C2.25 4.37252 3.14451 3.55369 4.12906 3.06141ZM3.75 7.72922V9.49879C3.75 9.49919 3.75 9.4996 3.75 9.5C3.75 9.75323 3.97478 10.1844 4.79988 10.5969C5.58011 10.9871 6.71048 11.25 8 11.25C8.83045 11.25 9.59831 11.1408 10.25 10.957V10.5C10.25 9.37252 11.1445 8.55369 12.1291 8.06141C12.1689 8.04151 12.2092 8.02193 12.25 8.00268V7.72922C12.1264 7.80454 11.9994 7.87435 11.8709 7.93859C10.8415 8.45329 9.4719 8.75 8 8.75C6.5281 8.75 5.15847 8.45329 4.12906 7.93859C4.00057 7.87435 3.87363 7.80454 3.75 7.72922ZM12.25 5.5C12.25 5.75323 12.0252 6.1844 11.2001 6.59695C10.4199 6.98706 9.28953 7.25 8 7.25C6.71048 7.25 5.58011 6.98706 4.79988 6.59695C3.97478 6.1844 3.75 5.75323 3.75 5.5C3.75 5.24677 3.97478 4.8156 4.79988 4.40305C5.58011 4.01294 6.71048 3.75 8 3.75C9.28953 3.75 10.4199 4.01294 11.2001 4.40305C12.0252 4.8156 12.25 5.24677 12.25 5.5ZM13.243 9.20976C13.0851 9.26977 12.9371 9.33444 12.7999 9.40305C11.9748 9.8156 11.75 10.2468 11.75 10.5C11.75 10.7532 11.9748 11.1844 12.7999 11.5969C13.5801 11.9871 14.7105 12.25 16 12.25C17.2895 12.25 18.4199 11.9871 19.2001 11.5969C20.0252 11.1844 20.25 10.7532 20.25 10.5C20.25 10.2468 20.0252 9.8156 19.2001 9.40305C18.4199 9.01294 17.2895 8.75 16 8.75C14.9569 8.75 14.0179 8.92206 13.2841 9.19432C13.2706 9.19985 13.2569 9.20501 13.243 9.20976ZM20.25 12.7292C20.1264 12.8045 19.9994 12.8743 19.8709 12.9386C18.8415 13.4533 17.4719 13.75 16 13.75C14.5281 13.75 13.1585 13.4533 12.1291 12.9386C12.0006 12.8743 11.8736 12.8045 11.75 12.7292V14.5C11.75 14.7532 11.9748 15.1844 12.7999 15.5969C13.5801 15.9871 14.7105 16.25 16 16.25C17.2895 16.25 18.4199 15.9871 19.2001 15.5969C20.0252 15.1844 20.25 14.7532 20.25 14.5V12.7292ZM20.25 16.7292C20.1264 16.8045 19.9994 16.8743 19.8709 16.9386C18.8415 17.4533 17.4719 17.75 16 17.75C14.5281 17.75 13.1585 17.4533 12.1291 16.9386C12.0006 16.8743 11.8736 16.8045 11.75 16.7292V18.5C11.75 18.7532 11.9748 19.1844 12.7999 19.5969C13.5801 19.9871 14.7105 20.25 16 20.25C17.2895 20.25 18.4199 19.9871 19.2001 19.5969C20.0252 19.1844 20.25 18.7532 20.25 18.5V16.7292ZM10.25 14.457V12.5046C9.5562 12.6637 8.79425 12.75 8 12.75C6.5281 12.75 5.15847 12.4533 4.12906 11.9386C4.00058 11.8743 3.87363 11.8045 3.75 11.7292V13C3.75 13.2532 3.97478 13.6844 4.79988 14.0969C5.58011 14.4871 6.71047 14.75 8 14.75C8.83044 14.75 9.59831 14.6408 10.25 14.457ZM3.75 15.2292V16.5C3.75 16.7532 3.97478 17.1844 4.79988 17.5969C5.58011 17.9871 6.71047 18.25 8 18.25C8.83041 18.25 9.59827 18.1407 10.25 17.9568V16.0046C9.5562 16.1637 8.79425 16.25 8 16.25C6.5281 16.25 5.15847 15.9533 4.12906 15.4386C4.00057 15.3743 3.87363 15.3045 3.75 15.2292Z" fill="black"/>
</g>
</g>
</g>
<defs>
<clipPath id="clip0_232_7652">
<rect width="24" height="24" rx="5" fill="white"/>
</clipPath>
</defs>
</svg>
