<svg width="24" height="24" viewBox="0 0 24 24" fill="none" xmlns="http://www.w3.org/2000/svg">
<g id="coins-swap">
<g clip-path="url(#clip0_232_7263)">
<g id="Weight=Dynamic">
<path id="Vector (Stroke)" fill-rule="evenodd" clip-rule="evenodd" d="M4.46967 1.46967C4.76256 1.17678 5.23744 1.17678 5.53033 1.46967L7.53033 3.46967C7.82322 3.76256 7.82322 4.23744 7.53033 4.53033L5.53033 6.53033C5.23744 6.82322 4.76256 6.82322 4.46967 6.53033C4.17678 6.23744 4.17678 5.76256 4.46967 5.46967L5.18934 4.75H5C3.75736 4.75 2.75 5.75736 2.75 7C2.75 7.41421 2.41421 7.75 2 7.75C1.58579 7.75 1.25 7.41421 1.25 7C1.25 4.92893 2.92893 3.25 5 3.25H5.18934L4.46967 2.53033C4.17678 2.23744 4.17678 1.76256 4.46967 1.46967ZM8.25409 8.25409C8.38375 4.36388 11.5782 1.25 15.5 1.25C19.5041 1.25 22.75 4.49594 22.75 8.5C22.75 12.4218 19.6361 15.6163 15.7459 15.7459C15.6163 19.6361 12.4218 22.75 8.5 22.75C4.49594 22.75 1.25 19.5041 1.25 15.5C1.25 11.5782 4.36388 8.38375 8.25409 8.25409ZM9.75173 8.35766C12.7526 8.87993 15.1201 11.2474 15.6423 14.2483C18.7522 14.1727 21.25 11.6281 21.25 8.5C21.25 5.32436 18.6756 2.75 15.5 2.75C12.3719 2.75 9.82728 5.24779 9.75173 8.35766ZM8.5 9.75C5.32436 9.75 2.75 12.3244 2.75 15.5C2.75 18.6756 5.32436 21.25 8.5 21.25C11.6756 21.25 14.25 18.6756 14.25 15.5C14.25 12.3244 11.6756 9.75 8.5 9.75ZM22 16.25C22.4142 16.25 22.75 16.5858 22.75 17C22.75 19.0711 21.0711 20.75 19 20.75H18.8107L19.5303 21.4697C19.8232 21.7626 19.8232 22.2374 19.5303 22.5303C19.2374 22.8232 18.7626 22.8232 18.4697 22.5303L16.4697 20.5303C16.1768 20.2374 16.1768 19.7626 16.4697 19.4697L18.4697 17.4697C18.7626 17.1768 19.2374 17.1768 19.5303 17.4697C19.8232 17.7626 19.8232 18.2374 19.5303 18.5303L18.8107 19.25H19C20.2426 19.25 21.25 18.2426 21.25 17C21.25 16.5858 21.5858 16.25 22 16.25Z" fill="black"/>
</g>
</g>
</g>
<defs>
<clipPath id="clip0_232_7263">
<rect width="24" height="24" rx="5" fill="white"/>
</clipPath>
</defs>
</svg>
