<svg width="24" height="24" viewBox="0 0 24 24" fill="none" xmlns="http://www.w3.org/2000/svg">
<g id="collapse">
<g clip-path="url(#clip0_232_12724)">
<g id="Weight=Dynamic">
<path id="Vector (Stroke)" fill-rule="evenodd" clip-rule="evenodd" d="M3.46967 3.46967C3.76256 3.17678 4.23744 3.17678 4.53033 3.46967L8.25 7.18934V5C8.25 4.58579 8.58579 4.25 9 4.25C9.41421 4.25 9.75 4.58579 9.75 5V9C9.75 9.41421 9.41421 9.75 9 9.75H5C4.58579 9.75 4.25 9.41421 4.25 9C4.25 8.58579 4.58579 8.25 5 8.25H7.18934L3.46967 4.53033C3.17678 4.23744 3.17678 3.76256 3.46967 3.46967ZM20.5303 3.46967C20.8232 3.76256 20.8232 4.23744 20.5303 4.53033L16.8107 8.25H19C19.4142 8.25 19.75 8.58579 19.75 9C19.75 9.41421 19.4142 9.75 19 9.75H15C14.5858 9.75 14.25 9.41421 14.25 9V5C14.25 4.58579 14.5858 4.25 15 4.25C15.4142 4.25 15.75 4.58579 15.75 5V7.18934L19.4697 3.46967C19.7626 3.17678 20.2374 3.17678 20.5303 3.46967ZM5 15.75C4.58579 15.75 4.25 15.4142 4.25 15C4.25 14.5858 4.58579 14.25 5 14.25H9C9.41421 14.25 9.75 14.5858 9.75 15V19C9.75 19.4142 9.41421 19.75 9 19.75C8.58579 19.75 8.25 19.4142 8.25 19V16.8107L4.53033 20.5303C4.23744 20.8232 3.76256 20.8232 3.46967 20.5303C3.17678 20.2374 3.17678 19.7626 3.46967 19.4697L7.18934 15.75H5ZM14.25 15C14.25 14.5858 14.5858 14.25 15 14.25H19C19.4142 14.25 19.75 14.5858 19.75 15C19.75 15.4142 19.4142 15.75 19 15.75H16.8107L20.5303 19.4697C20.8232 19.7626 20.8232 20.2374 20.5303 20.5303C20.2374 20.8232 19.7626 20.8232 19.4697 20.5303L15.75 16.8107V19C15.75 19.4142 15.4142 19.75 15 19.75C14.5858 19.75 14.25 19.4142 14.25 19V15Z" fill="black"/>
</g>
</g>
</g>
<defs>
<clipPath id="clip0_232_12724">
<rect width="24" height="24" rx="5" fill="white"/>
</clipPath>
</defs>
</svg>
