<svg width="24" height="24" viewBox="0 0 24 24" fill="none" xmlns="http://www.w3.org/2000/svg">
<g id="color-picker">
<g clip-path="url(#clip0_232_4558)">
<g id="Weight=Dynamic">
<path id="Vector (Stroke)" fill-rule="evenodd" clip-rule="evenodd" d="M13.3476 2.92365C13.6405 2.63076 14.1154 2.63076 14.4083 2.92365L15.9993 4.51464L16.8832 3.63076C17.5666 2.94734 18.6746 2.94734 19.358 3.63076L20.0651 4.33786C20.7486 5.02128 20.7486 6.12932 20.0651 6.81274L19.1813 7.69662L20.7722 9.28761C21.0651 9.5805 21.0651 10.0554 20.7722 10.3483C20.4793 10.6412 20.0045 10.6412 19.7116 10.3483L13.3476 3.98431C13.0547 3.69142 13.0547 3.21654 13.3476 2.92365ZM18.1206 6.63596L19.0045 5.75208C19.1021 5.65445 19.1021 5.49615 19.0045 5.39852L18.2974 4.69142C18.1997 4.59379 18.0414 4.59379 17.9438 4.69142L17.0599 5.5753L18.1206 6.63596ZM11.934 7.16623C12.6174 6.48281 13.7255 6.48281 14.4089 7.16623L16.5302 9.28755C17.2136 9.97097 17.2136 11.079 16.5302 11.7624L8.89345 19.3992C8.73008 19.5626 8.53597 19.692 8.32233 19.7799L5.8257 20.808C3.97634 21.5695 2.12699 19.7201 2.88849 17.8707L3.91651 15.3741C4.00448 15.1605 4.13389 14.9664 4.29726 14.803L11.934 7.16623ZM13.3482 8.22689C13.2506 8.12926 13.0923 8.12926 12.9947 8.22689L8.81061 12.411H13.7604L15.4695 10.7018C15.5672 10.6041 15.5672 10.4458 15.4695 10.3482L13.3482 8.22689ZM12.2604 13.911H7.31061L5.35792 15.8636C5.33458 15.887 5.31609 15.9147 5.30353 15.9452L4.2755 18.4419C4.02167 19.0583 4.63812 19.6748 5.25457 19.4209L7.7512 18.3929C7.78172 18.3803 7.80945 18.3619 7.83279 18.3385L12.2604 13.911Z" fill="black"/>
</g>
</g>
</g>
<defs>
<clipPath id="clip0_232_4558">
<rect width="24" height="24" rx="5" fill="white"/>
</clipPath>
</defs>
</svg>
