<svg width="24" height="24" viewBox="0 0 24 24" fill="none" xmlns="http://www.w3.org/2000/svg">
<g id="color-wheel">
<g clip-path="url(#clip0_232_4339)">
<g id="Weight=Dynamic">
<path id="Vector (Stroke)" fill-rule="evenodd" clip-rule="evenodd" d="M4.40922 4.388C6.35374 2.44886 9.03687 1.25 12 1.25C14.9632 1.25 17.6464 2.44894 19.591 4.38819C19.5945 4.39162 19.5981 4.39509 19.6016 4.3986C19.6051 4.40212 19.6086 4.40566 19.612 4.40923C21.5511 6.35375 22.75 9.03687 22.75 12C22.75 14.9631 21.5512 17.6462 19.6121 19.5907C19.6086 19.5943 19.6051 19.5979 19.6016 19.6014C19.5981 19.6049 19.5945 19.6084 19.5909 19.6119C17.6464 21.5511 14.9632 22.75 12 22.75C9.03687 22.75 6.35375 21.5511 4.40923 19.612C4.40559 19.6085 4.40197 19.605 4.39838 19.6014C4.39478 19.5978 4.39123 19.5942 4.38772 19.5905C2.44875 17.646 1.25 14.963 1.25 12C1.25 9.037 2.44876 6.35398 4.38774 4.40948C4.39124 4.40584 4.39479 4.40222 4.39838 4.39862C4.40197 4.39504 4.40558 4.3915 4.40922 4.388ZM4.95022 6.01113C3.72967 7.44649 2.93969 9.25934 2.77997 11.25H7.30888C7.42819 10.4978 7.72406 9.80442 8.1527 9.2136L4.95022 6.01113ZM9.21332 8.1529L6.01086 4.95045C7.44626 3.72977 9.25921 2.9397 11.25 2.77997V7.30888C10.4977 7.42821 9.8042 7.72415 9.21332 8.1529ZM12.75 7.30888C13.5023 7.4282 14.1958 7.72414 14.7866 8.15288L17.9891 4.95042C16.5537 3.72976 14.7408 2.9397 12.75 2.77997V7.30888ZM19.0497 6.0111L15.8473 9.21357C16.2759 9.80439 16.5718 10.4978 16.6911 11.25H21.22C21.0603 9.25932 20.2703 7.44646 19.0497 6.0111ZM21.22 12.75H16.6911C16.5718 13.5022 16.2759 14.1956 15.8473 14.7864L19.0497 17.9889C20.2703 16.5535 21.0603 14.7407 21.22 12.75ZM17.9891 19.0496L14.7866 15.8471C14.1958 16.2759 13.5023 16.5718 12.75 16.6911V21.22C14.7408 21.0603 16.5537 20.2702 17.9891 19.0496ZM11.25 21.22V16.6911C10.4977 16.5718 9.8042 16.2758 9.21332 15.8471L6.01086 19.0496C7.44626 20.2702 9.25921 21.0603 11.25 21.22ZM4.95022 17.9889L8.1527 14.7864C7.72406 14.1956 7.42819 13.5022 7.30888 12.75H2.77997C2.93969 14.7407 3.72967 16.5535 4.95022 17.9889ZM12 8.75C10.2051 8.75 8.75 10.2051 8.75 12C8.75 13.7949 10.2051 15.25 12 15.25C13.7949 15.25 15.25 13.7949 15.25 12C15.25 10.2051 13.7949 8.75 12 8.75Z" fill="black"/>
</g>
</g>
</g>
<defs>
<clipPath id="clip0_232_4339">
<rect width="24" height="24" rx="5" fill="white"/>
</clipPath>
</defs>
</svg>
