<svg width="24" height="24" viewBox="0 0 24 24" fill="none" xmlns="http://www.w3.org/2000/svg">
<g id="color-filter">
<g clip-path="url(#clip0_232_4598)">
<g id="Weight=Dynamic">
<path id="Vector (Stroke)" fill-rule="evenodd" clip-rule="evenodd" d="M12 3.25C9.1005 3.25 6.75 5.60051 6.75 8.5C6.75 8.62209 6.75417 8.7432 6.76237 8.86321C7.16358 8.78886 7.57725 8.75 8 8.75C9.4972 8.75 10.8805 9.23745 12 10.0623C13.1195 9.23745 14.5028 8.75 16 8.75C16.4227 8.75 16.8364 8.78886 17.2376 8.86321C17.2458 8.7432 17.25 8.62209 17.25 8.5C17.25 5.6005 14.8995 3.25 12 3.25ZM18.7016 9.31237C18.7336 9.04604 18.75 8.77494 18.75 8.5C18.75 4.77208 15.7279 1.75 12 1.75C8.27208 1.75 5.25 4.77208 5.25 8.5C5.25 8.77494 5.26644 9.04604 5.29838 9.31237C2.91527 10.3543 1.25 12.7327 1.25 15.5C1.25 19.2279 4.27208 22.25 8 22.25C9.4972 22.25 10.8805 21.7625 12 20.9377C13.1195 21.7625 14.5028 22.25 16 22.25C19.7279 22.25 22.75 19.2279 22.75 15.5C22.75 12.7327 21.0847 10.3543 18.7016 9.31237ZM16.922 10.3307C16.6227 10.2777 16.3146 10.25 16 10.25C14.9385 10.25 13.9506 10.565 13.1247 11.1067C13.6496 11.7183 14.0668 12.425 14.3471 13.1974C15.5292 12.6056 16.4569 11.5807 16.922 10.3307ZM14.7016 14.6876C16.3884 13.9501 17.7155 12.5431 18.3471 10.8026C20.0683 11.6643 21.25 13.4441 21.25 15.5C21.25 18.3995 18.8995 20.75 16 20.75C14.9385 20.75 13.9506 20.435 13.1247 19.8933C14.1379 18.7126 14.75 17.1778 14.75 15.5C14.75 15.2251 14.7336 14.954 14.7016 14.6876ZM12.922 13.6693C12.7068 13.091 12.3926 12.5608 12 12.0995C11.6074 12.5608 11.2932 13.091 11.078 13.6693C11.3773 13.7223 11.6854 13.75 12 13.75C12.3146 13.75 12.6227 13.7223 12.922 13.6693ZM10.7624 15.1368C11.1636 15.2111 11.5773 15.25 12 15.25C12.4227 15.25 12.8364 15.2111 13.2376 15.1368C13.2458 15.2568 13.25 15.3779 13.25 15.5C13.25 16.7972 12.7796 17.9844 12 18.9005C11.2204 17.9844 10.75 16.7972 10.75 15.5C10.75 15.3779 10.7542 15.2568 10.7624 15.1368ZM9.65292 13.1974C9.93319 12.425 10.3504 11.7183 10.8753 11.1067C10.0494 10.565 9.06147 10.25 8 10.25C7.68544 10.25 7.37734 10.2777 7.07801 10.3307C7.54312 11.5807 8.47077 12.6056 9.65292 13.1974ZM5.65292 10.8026C6.28449 12.5431 7.61163 13.9501 9.29839 14.6876C9.26644 14.954 9.25 15.2251 9.25 15.5C9.25 17.1778 9.86215 18.7126 10.8753 19.8933C10.0494 20.435 9.06147 20.75 8 20.75C5.1005 20.75 2.75 18.3995 2.75 15.5C2.75 13.4441 3.9317 11.6643 5.65292 10.8026Z" fill="black"/>
</g>
</g>
</g>
<defs>
<clipPath id="clip0_232_4598">
<rect width="24" height="24" rx="5" fill="white"/>
</clipPath>
</defs>
</svg>
