<svg width="24" height="24" viewBox="0 0 24 24" fill="none" xmlns="http://www.w3.org/2000/svg">
<g id="community">
<g clip-path="url(#clip0_232_16515)">
<g id="Weight=Dynamic">
<path id="Vector (Stroke)" fill-rule="evenodd" clip-rule="evenodd" d="M12 6.75C10.7574 6.75 9.75 7.75736 9.75 9C9.75 10.2426 10.7574 11.25 12 11.25C13.2426 11.25 14.25 10.2426 14.25 9C14.25 7.75736 13.2426 6.75 12 6.75ZM14.4815 11.8116C15.2594 11.1245 15.75 10.1195 15.75 9C15.75 6.92893 14.0711 5.25 12 5.25C9.92893 5.25 8.25 6.92893 8.25 9C8.25 10.1195 8.74057 11.1245 9.51848 11.8116C7.58514 12.7379 6.25 14.713 6.25 17V18C6.25 18.4142 6.58579 18.75 7 18.75C7.41421 18.75 7.75 18.4142 7.75 18V17C7.75 14.6528 9.65279 12.75 12 12.75C14.3472 12.75 16.25 14.6528 16.25 17V18C16.25 18.4142 16.5858 18.75 17 18.75C17.4142 18.75 17.75 18.4142 17.75 18V17C17.75 14.713 16.4149 12.7379 14.4815 11.8116ZM4 10.75C3.30964 10.75 2.75 11.3096 2.75 12C2.75 12.6904 3.30964 13.25 4 13.25C4.69036 13.25 5.25 12.6904 5.25 12C5.25 11.3096 4.69036 10.75 4 10.75ZM1.96498 13.8497C0.932938 14.5177 0.25 15.6791 0.25 17V18C0.25 18.4142 0.585786 18.75 1 18.75C1.41421 18.75 1.75 18.4142 1.75 18V17C1.75 15.7574 2.75736 14.75 4 14.75C5.51878 14.75 6.75 13.5188 6.75 12C6.75 10.4812 5.51878 9.25 4 9.25C2.48122 9.25 1.25 10.4812 1.25 12C1.25 12.7122 1.52077 13.3612 1.96498 13.8497ZM20 10.75C19.3096 10.75 18.75 11.3096 18.75 12C18.75 12.6904 19.3096 13.25 20 13.25C20.6904 13.25 21.25 12.6904 21.25 12C21.25 11.3096 20.6904 10.75 20 10.75ZM22.035 13.8497C22.4792 13.3612 22.75 12.7122 22.75 12C22.75 10.4812 21.5188 9.25 20 9.25C18.4812 9.25 17.25 10.4812 17.25 12C17.25 13.5188 18.4812 14.75 20 14.75C21.2426 14.75 22.25 15.7574 22.25 17V18C22.25 18.4142 22.5858 18.75 23 18.75C23.4142 18.75 23.75 18.4142 23.75 18V17C23.75 15.6791 23.0671 14.5177 22.035 13.8497Z" fill="black"/>
</g>
</g>
</g>
<defs>
<clipPath id="clip0_232_16515">
<rect width="24" height="24" rx="5" fill="white"/>
</clipPath>
</defs>
</svg>
