<svg width="24" height="24" viewBox="0 0 24 24" fill="none" xmlns="http://www.w3.org/2000/svg">
<g id="commodity">
<g clip-path="url(#clip0_232_7359)">
<g id="Weight=Dynamic">
<path id="Vector (Stroke)" fill-rule="evenodd" clip-rule="evenodd" d="M9.04097 5.75L7.91852 11.25H16.0815L14.959 5.75H9.04097ZM17.607 11.25C17.6024 11.2102 17.5961 11.1702 17.5879 11.1301L16.4042 5.33005C16.276 4.70148 15.723 4.25 15.0815 4.25H8.91849C8.27696 4.25 7.72403 4.70148 7.59575 5.33005L6.41208 11.1301C6.40389 11.1702 6.39756 11.2102 6.39303 11.25H3.91849C3.27696 11.25 2.72403 11.7015 2.59575 12.3301L1.41208 18.1301C1.2413 18.9669 1.88074 19.75 2.73481 19.75H11.2652C11.5386 19.75 11.7901 19.6697 12 19.5331C12.2099 19.6697 12.4614 19.75 12.7348 19.75H21.2652C22.1193 19.75 22.7587 18.9669 22.5879 18.1301L21.4042 12.3301C21.276 11.7015 20.723 11.25 20.0815 11.25H17.607ZM14.041 12.75L12.9185 18.25H21.0815L19.959 12.75H14.041ZM12.51 12.75H11.4899L12 15.2493L12.51 12.75ZM4.04097 12.75L2.91852 18.25H11.0815L9.95903 12.75H4.04097Z" fill="black"/>
</g>
</g>
</g>
<defs>
<clipPath id="clip0_232_7359">
<rect width="24" height="24" rx="5" fill="white"/>
</clipPath>
</defs>
</svg>
