<svg width="24" height="24" viewBox="0 0 24 24" fill="none" xmlns="http://www.w3.org/2000/svg">
<g id="comp-align-left">
<g clip-path="url(#clip0_232_5168)">
<g id="Weight=Dynamic">
<path id="Vector (Stroke)" fill-rule="evenodd" clip-rule="evenodd" d="M3.75 2V22C3.75 22.4142 3.41421 22.75 3 22.75C2.58579 22.75 2.25 22.4142 2.25 22V2H3.75ZM6.25 10C6.25 8.48122 7.48122 7.25 9 7.25H19C20.5188 7.25 21.75 8.48122 21.75 10V14C21.75 15.5188 20.5188 16.75 19 16.75H9C7.48122 16.75 6.25 15.5188 6.25 14V10ZM9 8.75C8.30964 8.75 7.75 9.30964 7.75 10V14C7.75 14.6904 8.30964 15.25 9 15.25H19C19.6904 15.25 20.25 14.6904 20.25 14V10C20.25 9.30964 19.6904 8.75 19 8.75H9Z" fill="black"/>
</g>
</g>
</g>
<defs>
<clipPath id="clip0_232_5168">
<rect width="24" height="24" rx="5" fill="white"/>
</clipPath>
</defs>
</svg>
