<svg width="24" height="24" viewBox="0 0 24 24" fill="none" xmlns="http://www.w3.org/2000/svg">
<g id="compress-lines">
<g clip-path="url(#clip0_232_6751)">
<g id="Weight=Dynamic">
<path id="Vector (Stroke)" fill-rule="evenodd" clip-rule="evenodd" d="M5.25 2C5.25 1.58579 5.58579 1.25 6 1.25H18C18.4142 1.25 18.75 1.58579 18.75 2C18.75 2.41421 18.4142 2.75 18 2.75H6C5.58579 2.75 5.25 2.41421 5.25 2ZM12 4.25C12.4142 4.25 12.75 4.58579 12.75 5V8.18934L14.4697 6.46967C14.7626 6.17678 15.2374 6.17678 15.5303 6.46967C15.8232 6.76256 15.8232 7.23744 15.5303 7.53033L12.5303 10.5303C12.2374 10.8232 11.7626 10.8232 11.4697 10.5303L8.46967 7.53033C8.17678 7.23744 8.17678 6.76256 8.46967 6.46967C8.76256 6.17678 9.23744 6.17678 9.53033 6.46967L11.25 8.18934V5C11.25 4.58579 11.5858 4.25 12 4.25ZM8.46967 16.4697L11.4697 13.4697C11.7626 13.1768 12.2374 13.1768 12.5303 13.4697L15.5303 16.4697C15.8232 16.7626 15.8232 17.2374 15.5303 17.5303C15.2374 17.8232 14.7626 17.8232 14.4697 17.5303L12.75 15.8107V19C12.75 19.4142 12.4142 19.75 12 19.75C11.5858 19.75 11.25 19.4142 11.25 19V15.8107L9.53033 17.5303C9.23744 17.8232 8.76256 17.8232 8.46967 17.5303C8.17678 17.2374 8.17678 16.7626 8.46967 16.4697ZM5.25 22C5.25 21.5858 5.58579 21.25 6 21.25H18C18.4142 21.25 18.75 21.5858 18.75 22C18.75 22.4142 18.4142 22.75 18 22.75H6C5.58579 22.75 5.25 22.4142 5.25 22Z" fill="black"/>
</g>
</g>
</g>
<defs>
<clipPath id="clip0_232_6751">
<rect width="24" height="24" rx="5" fill="white"/>
</clipPath>
</defs>
</svg>
