<svg width="24" height="24" viewBox="0 0 24 24" fill="none" xmlns="http://www.w3.org/2000/svg">
<g id="compass">
<g clip-path="url(#clip0_232_10983)">
<g id="Weight=Dynamic">
<path id="Vector (Stroke)" fill-rule="evenodd" clip-rule="evenodd" d="M12 2.75C6.89137 2.75 2.75 6.89137 2.75 12C2.75 17.1086 6.89137 21.25 12 21.25C17.1086 21.25 21.25 17.1086 21.25 12C21.25 6.89137 17.1086 2.75 12 2.75ZM1.25 12C1.25 6.06294 6.06294 1.25 12 1.25C17.9371 1.25 22.75 6.06294 22.75 12C22.75 17.9371 17.9371 22.75 12 22.75C6.06294 22.75 1.25 17.9371 1.25 12ZM17.4797 6.51987C17.7165 6.75665 17.7676 7.12171 17.605 7.41443L14.0695 13.7784C14.0014 13.9008 13.9005 14.0018 13.7781 14.0698L7.41411 17.6053C7.12139 17.7679 6.75633 17.7168 6.51955 17.48C6.28276 17.2432 6.23163 16.8782 6.39426 16.5855L9.92979 10.2215C9.99781 10.0991 10.0987 9.99813 10.2212 9.93011L16.5851 6.39458C16.8779 6.23196 17.2429 6.28309 17.4797 6.51987ZM11.137 11.1373L8.98031 15.0193L12.8623 12.8626L15.0189 8.98063L11.137 11.1373Z" fill="black"/>
</g>
</g>
</g>
<defs>
<clipPath id="clip0_232_10983">
<rect width="24" height="24" rx="5" fill="white"/>
</clipPath>
</defs>
</svg>
