<svg width="24" height="24" viewBox="0 0 24 24" fill="none" xmlns="http://www.w3.org/2000/svg">
<g id="computer">
<g clip-path="url(#clip0_232_6003)">
<g id="Weight=Dynamic">
<path id="Vector (Stroke)" fill-rule="evenodd" clip-rule="evenodd" d="M2.75 3.75V16.25H21.25V3.75H2.75ZM1.25 3.6C1.25 2.85441 1.85442 2.25 2.6 2.25H21.4C22.1456 2.25 22.75 2.85442 22.75 3.6V16.4C22.75 17.1456 22.1456 17.75 21.4 17.75H2.6C1.85442 17.75 1.25 17.1456 1.25 16.4V3.6ZM17 21.75L2 21.75C1.58579 21.75 1.25 21.4142 1.25 21C1.25 20.5858 1.58579 20.25 2 20.25L17 20.25C17.4142 20.25 17.75 20.5858 17.75 21C17.75 21.4142 17.4142 21.75 17 21.75ZM20.25 21C20.25 20.5858 20.5858 20.25 21 20.25H22C22.4142 20.25 22.75 20.5858 22.75 21C22.75 21.4142 22.4142 21.75 22 21.75H21C20.5858 21.75 20.25 21.4142 20.25 21Z" fill="black"/>
</g>
</g>
</g>
<defs>
<clipPath id="clip0_232_6003">
<rect width="24" height="24" rx="5" fill="white"/>
</clipPath>
</defs>
</svg>
