<svg width="24" height="24" viewBox="0 0 24 24" fill="none" xmlns="http://www.w3.org/2000/svg">
<g id="comp-align-bottom">
<g clip-path="url(#clip0_232_5138)">
<g id="Weight=Dynamic">
<path id="Vector (Stroke)" fill-rule="evenodd" clip-rule="evenodd" d="M10 3.75C9.30964 3.75 8.75 4.30964 8.75 5V15C8.75 15.6904 9.30964 16.25 10 16.25H14C14.6904 16.25 15.25 15.6904 15.25 15V5C15.25 4.30964 14.6904 3.75 14 3.75H10ZM7.25 5C7.25 3.48122 8.48122 2.25 10 2.25H14C15.5188 2.25 16.75 3.48122 16.75 5V15C16.75 16.5188 15.5188 17.75 14 17.75H10C8.48122 17.75 7.25 16.5188 7.25 15V5ZM2 20.25H22C22.4142 20.25 22.75 20.5858 22.75 21C22.75 21.4142 22.4142 21.75 22 21.75H2V20.25Z" fill="black"/>
</g>
</g>
</g>
<defs>
<clipPath id="clip0_232_5138">
<rect width="24" height="24" rx="5" fill="white"/>
</clipPath>
</defs>
</svg>
