<svg width="24" height="24" viewBox="0 0 24 24" fill="none" xmlns="http://www.w3.org/2000/svg">
<g id="compress">
<g clip-path="url(#clip0_232_11655)">
<g id="Weight=Dynamic">
<path id="Vector (Stroke)" fill-rule="evenodd" clip-rule="evenodd" d="M12 1.25C12.4142 1.25 12.75 1.58579 12.75 2V6.18934L14.4697 4.46967C14.7626 4.17678 15.2374 4.17678 15.5303 4.46967C15.8232 4.76256 15.8232 5.23744 15.5303 5.53033L12.5303 8.53033C12.2374 8.82322 11.7626 8.82322 11.4697 8.53033L8.46967 5.53033C8.17678 5.23744 8.17678 4.76256 8.46967 4.46967C8.76256 4.17678 9.23744 4.17678 9.53033 4.46967L11.25 6.18934V2C11.25 1.58579 11.5858 1.25 12 1.25ZM5.25 12C5.25 11.5858 5.58579 11.25 6 11.25H18C18.4142 11.25 18.75 11.5858 18.75 12C18.75 12.4142 18.4142 12.75 18 12.75H6C5.58579 12.75 5.25 12.4142 5.25 12ZM8.46967 18.4697L11.4697 15.4697C11.7626 15.1768 12.2374 15.1768 12.5303 15.4697L15.5303 18.4697C15.8232 18.7626 15.8232 19.2374 15.5303 19.5303C15.2374 19.8232 14.7626 19.8232 14.4697 19.5303L12.75 17.8107V22C12.75 22.4142 12.4142 22.75 12 22.75C11.5858 22.75 11.25 22.4142 11.25 22V17.8107L9.53033 19.5303C9.23744 19.8232 8.76256 19.8232 8.46967 19.5303C8.17678 19.2374 8.17678 18.7626 8.46967 18.4697Z" fill="black"/>
</g>
</g>
</g>
<defs>
<clipPath id="clip0_232_11655">
<rect width="24" height="24" rx="5" fill="white"/>
</clipPath>
</defs>
</svg>
