<svg width="24" height="24" viewBox="0 0 24 24" fill="none" xmlns="http://www.w3.org/2000/svg">
<g id="component">
<g clip-path="url(#clip0_232_5058)">
<g id="Weight=Dynamic">
<path id="Vector (Stroke)" fill-rule="evenodd" clip-rule="evenodd" d="M11.0453 1.99453C11.5725 1.46732 12.4273 1.46732 12.9545 1.99453L15.6415 4.68153C16.1687 5.20874 16.1687 6.06351 15.6415 6.59072L12.9545 9.27773C12.4273 9.80493 11.5725 9.80493 11.0453 9.27773L8.3583 6.59072C7.83109 6.06351 7.83109 5.20874 8.3583 4.68153L11.0453 1.99453ZM9.52502 5.63613L11.9999 8.111L14.4748 5.63613L11.9999 3.16125L9.52502 5.63613ZM9.41896 5.74219L9.41912 5.74203L9.41896 5.74219ZM4.68153 8.3583C5.20874 7.83109 6.06351 7.83109 6.59072 8.3583L9.27773 11.0453C9.80493 11.5725 9.80493 12.4273 9.27773 12.9545L6.59072 15.6415C6.06351 16.1687 5.20874 16.1687 4.68153 15.6415L1.99453 12.9545C1.46732 12.4273 1.46732 11.5725 1.99453 11.0453L4.68153 8.3583ZM5.63613 9.52502L3.16125 11.9999L5.63613 14.4748L8.111 11.9999L5.63613 9.52502ZM5.74203 9.41912L5.74219 9.41896L5.74203 9.41912ZM17.4096 8.3583C17.9368 7.83109 18.7915 7.83109 19.3187 8.3583L22.0058 11.0453C22.533 11.5725 22.533 12.4273 22.0058 12.9545L19.3187 15.6415C18.7915 16.1687 17.9368 16.1687 17.4096 15.6415L14.7226 12.9545C14.1953 12.4273 14.1953 11.5725 14.7226 11.0453L17.4096 8.3583ZM18.3642 9.52502L15.8893 11.9999L18.3642 14.4748L20.839 11.9999L18.3642 9.52502ZM8.3583 17.4091L11.0453 14.7221C11.5725 14.1949 12.4273 14.1949 12.9545 14.7221L15.6415 17.4091C16.1687 17.9363 16.1687 18.7911 15.6415 19.3183L12.9545 22.0053C12.4273 22.5325 11.5725 22.5325 11.0453 22.0053L8.3583 19.3183C7.83109 18.7911 7.83109 17.9363 8.3583 17.4091ZM11.9999 15.8888L9.52502 18.3637L11.9999 20.8385L14.4748 18.3637L11.9999 15.8888Z" fill="black"/>
</g>
</g>
</g>
<defs>
<clipPath id="clip0_232_5058">
<rect width="24" height="24" rx="5" fill="white"/>
</clipPath>
</defs>
</svg>
