<svg width="24" height="24" viewBox="0 0 24 24" fill="none" xmlns="http://www.w3.org/2000/svg">
<g id="consumable">
<g clip-path="url(#clip0_232_13324)">
<g id="Weight=Dynamic">
<path id="Vector (Stroke)" fill-rule="evenodd" clip-rule="evenodd" d="M12.0023 2.75C7.20633 2.75 3.26204 6.40058 2.79803 11.0741C2.7571 11.4863 2.38979 11.7873 1.9776 11.7463C1.56541 11.7054 1.26444 11.3381 1.30537 10.9259C1.8448 5.49278 6.42762 1.25 12.0023 1.25C15.9388 1.25 19.3798 3.36586 21.2523 6.51976V3C21.2523 2.58579 21.5881 2.25 22.0023 2.25C22.4165 2.25 22.7523 2.58579 22.7523 3V7.49704C22.7523 8.18903 22.1914 8.75 21.4994 8.75C20.9963 8.75 20.5609 8.45196 20.3565 8.02344C18.8685 4.90341 15.6862 2.75 12.0023 2.75ZM6.24994 10C6.24994 8.48122 7.48116 7.25 8.99994 7.25H14.9999C16.5187 7.25 17.7499 8.48121 17.7499 9.99999L17.7499 15C17.7499 16.5188 16.5187 17.75 14.9999 17.75H8.99994C7.48116 17.75 6.24994 16.5188 6.24994 15V10ZM11.2499 8.75L11.2499 11C11.2499 11.4142 11.5857 11.75 11.9999 11.75C12.4142 11.75 12.7499 11.4142 12.7499 11L12.7499 8.75H14.9999C15.6903 8.75 16.2499 9.30964 16.2499 10L16.2499 15C16.2499 15.6904 15.6903 16.25 14.9999 16.25H8.99994C8.30959 16.25 7.74994 15.6904 7.74994 15V10C7.74994 9.30964 8.30958 8.75 8.99994 8.75H11.2499ZM22.075 12.2537C22.4872 12.2946 22.7882 12.6619 22.7472 13.0741C22.2078 18.5072 17.625 22.75 12.0503 22.75C8.11382 22.75 4.67279 20.6341 2.80029 17.4802V21C2.80029 21.4142 2.46451 21.75 2.05029 21.75C1.63608 21.75 1.30029 21.4142 1.30029 21V16.503C1.30029 15.811 1.86127 15.25 2.55326 15.25C3.05631 15.25 3.49173 15.548 3.69609 15.9766C5.18409 19.0966 8.36645 21.25 12.0503 21.25C16.8463 21.25 20.7906 17.5994 21.2546 12.9259C21.2955 12.5137 21.6628 12.2127 22.075 12.2537Z" fill="black"/>
</g>
</g>
</g>
<defs>
<clipPath id="clip0_232_13324">
<rect width="24" height="24" rx="5" fill="white"/>
</clipPath>
</defs>
</svg>
