<svg width="24" height="24" viewBox="0 0 24 24" fill="none" xmlns="http://www.w3.org/2000/svg">
<g id="constrained-surface">
<g clip-path="url(#clip0_232_835)">
<g id="Weight=Dynamic" clip-path="url(#clip1_232_835)">
<path id="Vector (Stroke)" fill-rule="evenodd" clip-rule="evenodd" d="M0.25 3C0.25 1.48122 1.48122 0.25 3 0.25C4.25878 0.25 5.32002 1.09575 5.64648 2.25H18.3535C18.68 1.09575 19.7412 0.25 21 0.25C22.5188 0.25 23.75 1.48122 23.75 3C23.75 4.25878 22.9043 5.32002 21.75 5.64648V18.3535C22.9043 18.68 23.75 19.7412 23.75 21C23.75 22.5188 22.5188 23.75 21 23.75C19.7412 23.75 18.68 22.9043 18.3535 21.75H5.64648C5.32002 22.9043 4.25878 23.75 3 23.75C1.48122 23.75 0.25 22.5188 0.25 21C0.25 19.7412 1.09575 18.68 2.25 18.3535V5.64648C1.09575 5.32002 0.25 4.25878 0.25 3ZM3.75 5.64648V18.3535C4.66584 18.6125 5.38745 19.3342 5.64648 20.25H18.3535C18.6125 19.3342 19.3342 18.6125 20.25 18.3535V5.64648C19.3342 5.38745 18.6125 4.66584 18.3535 3.75H5.64648C5.38745 4.66584 4.66584 5.38745 3.75 5.64648ZM3 1.75C2.30964 1.75 1.75 2.30964 1.75 3C1.75 3.69036 2.30964 4.25 3 4.25C3.69036 4.25 4.25 3.69036 4.25 3C4.25 2.30964 3.69036 1.75 3 1.75ZM21 1.75C20.3096 1.75 19.75 2.30964 19.75 3C19.75 3.69036 20.3096 4.25 21 4.25C21.6904 4.25 22.25 3.69036 22.25 3C22.25 2.30964 21.6904 1.75 21 1.75ZM14.4281 8.75C14.6747 8.74987 14.9205 8.77655 15.1613 8.82958C16.6292 9.15281 17.75 10.4371 17.75 12.0002C17.75 13.8151 16.2425 15.25 14.4285 15.25H13.5715C11.7399 15.25 10.25 13.6562 10.25 12.0002C10.25 11.586 10.5858 11.2502 11 11.2502C11.4142 11.2502 11.75 11.586 11.75 12.0002C11.75 12.8366 12.5771 13.75 13.5715 13.75H14.4285C15.4545 13.75 16.25 12.9468 16.25 12.0002C16.25 11.1832 15.6608 10.4755 14.8387 10.2945L14.8387 10.2945C14.7041 10.2648 14.5667 10.2499 14.4289 10.25C14.0147 10.2502 13.6787 9.91461 13.6785 9.5004C13.6783 9.08618 14.0139 8.75022 14.4281 8.75ZM6.25 12.0002C6.25 10.1856 7.7573 8.75 9.5715 8.75H10.4285C12.2602 8.75 13.75 10.3439 13.75 12.0002C13.75 12.4145 13.4142 12.7502 13 12.7502C12.5858 12.7502 12.25 12.4145 12.25 12.0002C12.25 11.1633 11.4228 10.25 10.4285 10.25H9.5715C8.5457 10.25 7.75 11.0535 7.75 12.0002C7.75 12.8164 8.33879 13.5239 9.16136 13.7055M6.25 12.0002C6.25 13.5632 7.3711 14.8466 8.83841 15.1704L6.25 12.0002ZM9.57196 15.25C9.32535 15.2502 9.07947 15.2235 8.83864 15.1704L8.83841 15.1704M9.16159 13.7056C9.29606 13.7352 9.43335 13.7501 9.57104 13.75C9.98525 13.7497 10.3212 14.0853 10.3215 14.4995C10.3218 14.9138 9.98617 15.2497 9.57196 15.25M3 19.75C2.30964 19.75 1.75 20.3096 1.75 21C1.75 21.6904 2.30964 22.25 3 22.25C3.69036 22.25 4.25 21.6904 4.25 21C4.25 20.3096 3.69036 19.75 3 19.75ZM21 19.75C20.3096 19.75 19.75 20.3096 19.75 21C19.75 21.6904 20.3096 22.25 21 22.25C21.6904 22.25 22.25 21.6904 22.25 21C22.25 20.3096 21.6904 19.75 21 19.75Z" fill="black"/>
</g>
</g>
</g>
<defs>
<clipPath id="clip0_232_835">
<rect width="24" height="24" rx="5" fill="white"/>
</clipPath>
<clipPath id="clip1_232_835">
<rect width="24" height="24" fill="white"/>
</clipPath>
</defs>
</svg>
