<svg width="24" height="24" viewBox="0 0 24 24" fill="none" xmlns="http://www.w3.org/2000/svg">
<g id="control-slider">
<g clip-path="url(#clip0_232_14760)">
<g id="Weight=Dynamic">
<path id="Vector (Stroke)" fill-rule="evenodd" clip-rule="evenodd" d="M7.30602 5.75C6.54533 5.75 5.96101 6.42374 6.06858 7.17678L6.74064 11.8812C6.74189 11.889 6.74302 11.8969 6.74402 11.9048L7.49715 17.1768C7.58513 17.7926 8.11253 18.25 8.73459 18.25H9.26541C9.88747 18.25 10.4149 17.7926 10.5028 17.1768L11.256 11.9048C11.257 11.8969 11.2581 11.889 11.2594 11.8812L11.9314 7.17677C12.039 6.42373 11.4547 5.75 10.694 5.75H7.30602ZM12.8648 11.25L13.4163 7.38891C13.653 5.73222 12.3675 4.25 10.694 4.25H7.30602C5.63251 4.25 4.34699 5.73222 4.58366 7.38891L5.13524 11.25H2C1.58579 11.25 1.25 11.5858 1.25 12C1.25 12.4142 1.58579 12.75 2 12.75H5.34953L6.01223 17.3889C6.20577 18.7437 7.36605 19.75 8.73459 19.75H9.26541C10.6339 19.75 11.7942 18.7437 11.9878 17.3889L12.6505 12.75H22C22.4142 12.75 22.75 12.4142 22.75 12C22.75 11.5858 22.4142 11.25 22 11.25H12.8648Z" fill="black"/>
</g>
</g>
</g>
<defs>
<clipPath id="clip0_232_14760">
<rect width="24" height="24" rx="5" fill="white"/>
</clipPath>
</defs>
</svg>
