<svg width="24" height="24" viewBox="0 0 24 24" fill="none" xmlns="http://www.w3.org/2000/svg">
<g id="contactless">
<g clip-path="url(#clip0_232_7598)">
<g id="Weight=Dynamic">
<path id="Vector (Stroke)" fill-rule="evenodd" clip-rule="evenodd" d="M14.5589 1.8935C14.8939 1.64987 15.3629 1.72393 15.6065 2.05892C19.7978 7.82191 19.7978 16.1782 15.6065 21.9412C15.3629 22.2762 14.8939 22.3502 14.5589 22.1066C14.2239 21.863 14.1498 21.3939 14.3934 21.0589C18.2022 15.8219 18.2022 8.17819 14.3934 2.94118C14.1498 2.60619 14.2239 2.13713 14.5589 1.8935ZM11.0699 3.38563C11.4092 3.14809 11.8769 3.23062 12.1144 3.56996C15.7952 8.8282 15.7952 15.1719 12.1144 20.4302C11.8769 20.7695 11.4092 20.852 11.0699 20.6145C10.7306 20.3769 10.648 19.9093 10.8856 19.57C14.2048 14.8282 14.2048 9.17191 10.8856 4.43015C10.648 4.09081 10.7306 3.62316 11.0699 3.38563ZM8.06535 5.38884C8.40291 5.14879 8.87116 5.22784 9.11121 5.56541C11.9629 9.57563 11.9629 14.4245 9.11121 18.4347C8.87116 18.7723 8.40291 18.8513 8.06535 18.6113C7.72778 18.3712 7.64873 17.903 7.88878 17.5654C10.3704 14.0756 10.3704 9.92448 7.88877 6.4347C7.64873 6.09713 7.72778 5.62888 8.06535 5.38884ZM5.11412 7.35693C5.4693 7.14382 5.93 7.259 6.14311 7.61418C7.78562 10.3517 7.78562 13.6484 6.14311 16.3859C5.93 16.7411 5.4693 16.8563 5.11412 16.6432C4.75893 16.4301 4.64376 15.9694 4.85687 15.6142C6.21436 13.3517 6.21436 10.6484 4.85687 8.38592C4.64376 8.03074 4.75893 7.57004 5.11412 7.35693Z" fill="black"/>
</g>
</g>
</g>
<defs>
<clipPath id="clip0_232_7598">
<rect width="24" height="24" rx="5" fill="white"/>
</clipPath>
</defs>
</svg>
