<svg width="24" height="24" viewBox="0 0 24 24" fill="none" xmlns="http://www.w3.org/2000/svg">
<g id="cookie">
<g clip-path="url(#clip0_232_14954)">
<g id="Weight=Dynamic">
<path id="Vector (Stroke)" fill-rule="evenodd" clip-rule="evenodd" d="M12 2.75C6.89137 2.75 2.75 6.89137 2.75 12C2.75 17.1086 6.89137 21.25 12 21.25C17.1086 21.25 21.25 17.1086 21.25 12C21.25 6.89137 17.1086 2.75 12 2.75ZM1.25 12C1.25 6.06294 6.06294 1.25 12 1.25C17.9371 1.25 22.75 6.06294 22.75 12C22.75 17.9371 17.9371 22.75 12 22.75C6.06294 22.75 1.25 17.9371 1.25 12ZM11.5117 6.44142C11.8196 6.71852 11.8446 7.19273 11.5675 7.50062L11.5575 7.51173C11.2804 7.81961 10.8062 7.84456 10.4983 7.56747C10.1904 7.29037 10.1654 6.81616 10.4425 6.50827L10.4525 6.49716C10.7296 6.18928 11.2038 6.16433 11.5117 6.44142ZM16.5117 8.44142C16.8196 8.71852 16.8446 9.19273 16.5675 9.50062L16.5575 9.51173C16.2804 9.81961 15.8062 9.84456 15.4983 9.56747C15.1904 9.29037 15.1654 8.81616 15.4425 8.50827L15.4525 8.49716C15.7296 8.18928 16.2038 8.16433 16.5117 8.44142ZM6.25 10.5C6.25 9.80964 6.80964 9.25 7.5 9.25C8.19036 9.25 8.75 9.80964 8.75 10.5C8.75 11.1904 8.19036 11.75 7.5 11.75C6.80964 11.75 6.25 11.1904 6.25 10.5ZM7.5 10.75C7.63807 10.75 7.75 10.6381 7.75 10.5C7.75 10.3619 7.63807 10.25 7.5 10.25C7.36193 10.25 7.25 10.3619 7.25 10.5C7.25 10.6381 7.36193 10.75 7.5 10.75ZM13.5117 11.4414C13.8196 11.7185 13.8446 12.1927 13.5675 12.5006L13.5575 12.5117C13.2804 12.8196 12.8062 12.8446 12.4983 12.5675C12.1904 12.2904 12.1654 11.8162 12.4425 11.5083L12.4525 11.4972C12.7296 11.1893 13.2038 11.1643 13.5117 11.4414ZM17.5117 13.4414C17.8196 13.7185 17.8446 14.1927 17.5675 14.5006L17.5575 14.5117C17.2804 14.8196 16.8062 14.8446 16.4983 14.5675C16.1904 14.2904 16.1654 13.8162 16.4425 13.5083L16.4525 13.4972C16.7296 13.1893 17.2038 13.1643 17.5117 13.4414ZM8.51173 15.4414C8.81961 15.7185 8.84456 16.1927 8.56747 16.5006L8.55747 16.5117C8.28037 16.8196 7.80616 16.8446 7.49827 16.5675C7.19039 16.2904 7.16544 15.8162 7.44253 15.5083L7.45253 15.4972C7.72963 15.1893 8.20385 15.1643 8.51173 15.4414ZM11.25 17C11.25 16.0335 12.0335 15.25 13 15.25C13.9665 15.25 14.75 16.0335 14.75 17C14.75 17.9665 13.9665 18.75 13 18.75C12.0335 18.75 11.25 17.9665 11.25 17ZM13 16.75C12.8619 16.75 12.75 16.8619 12.75 17C12.75 17.1381 12.8619 17.25 13 17.25C13.1381 17.25 13.25 17.1381 13.25 17C13.25 16.8619 13.1381 16.75 13 16.75Z" fill="black"/>
</g>
</g>
</g>
<defs>
<clipPath id="clip0_232_14954">
<rect width="24" height="24" rx="5" fill="white"/>
</clipPath>
</defs>
</svg>
