<svg width="24" height="24" viewBox="0 0 24 24" fill="none" xmlns="http://www.w3.org/2000/svg">
<g id="cooling-square">
<g clip-path="url(#clip0_232_13907)">
<g id="Weight=Dynamic">
<path id="Vector (Stroke)" fill-rule="evenodd" clip-rule="evenodd" d="M2.25 3.6C2.25 2.85442 2.85442 2.25 3.6 2.25H20.4C21.1456 2.25 21.75 2.85442 21.75 3.6V20.4C21.75 21.1456 21.1456 21.75 20.4 21.75H3.6C2.85442 21.75 2.25 21.1456 2.25 20.4V3.6ZM3.75 3.75V20.25H20.25V3.75H3.75ZM12 6.25C12.4142 6.25 12.75 6.58579 12.75 7V10.7254L16.1358 8.84438C16.4979 8.64322 16.9545 8.77368 17.1556 9.13577C17.3568 9.49786 17.2263 9.95446 16.8642 10.1556L13.5443 12L16.8642 13.8444C17.2263 14.0455 17.3568 14.5021 17.1556 14.8642C16.9545 15.2263 16.4979 15.3568 16.1358 15.1556L12.75 13.2746V17C12.75 17.4142 12.4142 17.75 12 17.75C11.5858 17.75 11.25 17.4142 11.25 17V13.2746L7.86423 15.1556C7.50214 15.3568 7.04554 15.2263 6.84438 14.8642C6.64322 14.5021 6.77368 14.0455 7.13577 13.8444L10.4557 12L7.13577 10.1556C6.77368 9.95446 6.64322 9.49786 6.84438 9.13577C7.04554 8.77368 7.50214 8.64322 7.86423 8.84438L11.25 10.7254V7C11.25 6.58579 11.5858 6.25 12 6.25Z" fill="black"/>
</g>
</g>
</g>
<defs>
<clipPath id="clip0_232_13907">
<rect width="24" height="24" rx="5" fill="white"/>
</clipPath>
</defs>
</svg>
