<svg width="24" height="24" viewBox="0 0 24 24" fill="none" xmlns="http://www.w3.org/2000/svg">
<g id="copy">
<g clip-path="url(#clip0_232_4688)">
<g id="Weight=Dynamic">
<path id="Vector (Stroke)" fill-rule="evenodd" clip-rule="evenodd" d="M3.25 4.6C3.25 3.85442 3.85442 3.25 4.6 3.25H14.4C15.1456 3.25 15.75 3.85442 15.75 4.6V8.25H19.4C20.1456 8.25 20.75 8.85441 20.75 9.6V19.4C20.75 20.1456 20.1456 20.75 19.4 20.75H9.6C8.85441 20.75 8.25 20.1456 8.25 19.4V15.75H4.6C3.85442 15.75 3.25 15.1456 3.25 14.4V4.6ZM9.75 19.25H19.25V9.75H9.75V19.25ZM14.25 8.25H9.6C8.85442 8.25 8.25 8.85442 8.25 9.6V14.25H4.75V4.75H14.25V8.25Z" fill="black"/>
</g>
</g>
</g>
<defs>
<clipPath id="clip0_232_4688">
<rect width="24" height="24" rx="5" fill="white"/>
</clipPath>
</defs>
</svg>
