<svg width="24" height="24" viewBox="0 0 24 24" fill="none" xmlns="http://www.w3.org/2000/svg">
<g id="copyright">
<g clip-path="url(#clip0_232_11962)">
<g id="Weight=Dynamic">
<path id="Vector (Stroke)" fill-rule="evenodd" clip-rule="evenodd" d="M12 2.75C6.89137 2.75 2.75 6.89137 2.75 12C2.75 17.1086 6.89137 21.25 12 21.25C17.1086 21.25 21.25 17.1086 21.25 12C21.25 6.89137 17.1086 2.75 12 2.75ZM1.25 12C1.25 6.06294 6.06294 1.25 12 1.25C17.9371 1.25 22.75 6.06294 22.75 12C22.75 17.9371 17.9371 22.75 12 22.75C6.06294 22.75 1.25 17.9371 1.25 12ZM12.5 9.75C11.2574 9.75 10.25 10.7574 10.25 12C10.25 13.2426 11.2574 14.25 12.5 14.25C12.7643 14.25 13.0164 14.2047 13.2501 14.1222C13.6406 13.9841 14.0691 14.1888 14.2071 14.5794C14.3452 14.9699 14.1405 15.3984 13.7499 15.5364C13.358 15.675 12.937 15.75 12.5 15.75C10.4289 15.75 8.75 14.0711 8.75 12C8.75 9.92893 10.4289 8.25 12.5 8.25C12.937 8.25 13.358 8.32505 13.7499 8.46358C14.1405 8.60161 14.3452 9.0301 14.2071 9.42064C14.0691 9.81118 13.6406 10.0159 13.2501 9.87784C13.0164 9.79526 12.7643 9.75 12.5 9.75Z" fill="black"/>
</g>
</g>
</g>
<defs>
<clipPath id="clip0_232_11962">
<rect width="24" height="24" rx="5" fill="white"/>
</clipPath>
</defs>
</svg>
