<svg width="24" height="24" viewBox="0 0 24 24" fill="none" xmlns="http://www.w3.org/2000/svg">
<g id="corner-top-right">
<g clip-path="url(#clip0_232_9756)">
<g id="Weight=Dynamic">
<path id="Vector (Stroke)" fill-rule="evenodd" clip-rule="evenodd" d="M3.49804 3.44138C3.80592 3.16428 4.28014 3.18924 4.55723 3.49712L4.56723 3.50823C4.84433 3.81612 4.81937 4.29033 4.51149 4.56743C4.2036 4.84452 3.72939 4.81956 3.45229 4.51168L3.44229 4.50057C3.1652 4.19269 3.19016 3.71847 3.49804 3.44138ZM7.49803 3.44138C7.80591 3.16428 8.28013 3.18924 8.55723 3.49712L8.56723 3.50823C8.84433 3.81611 8.81937 4.29032 8.51149 4.56742C8.20361 4.84452 7.7294 4.81957 7.4523 4.51169L7.4423 4.50058C7.1652 4.1927 7.19015 3.71848 7.49803 3.44138ZM11.2598 3.99996C11.2598 3.58574 11.5955 3.24996 12.0098 3.24996H20.0098C20.424 3.24996 20.7598 3.58574 20.7598 3.99996V12C20.7598 12.4142 20.424 12.75 20.0098 12.75H12.0098C11.5955 12.75 11.2598 12.4142 11.2598 12V3.99996ZM12.7598 4.74996V11.25H19.2598V4.74996H12.7598ZM3.49804 7.44137C3.80593 7.16428 4.28014 7.18924 4.55724 7.49713L4.56724 7.50824C4.84433 7.81612 4.81937 8.29034 4.51148 8.56743C4.2036 8.84452 3.72938 8.81956 3.45229 8.51168L3.44229 8.50057C3.1652 8.19268 3.19016 7.71846 3.49804 7.44137ZM3.49804 11.4414C3.80593 11.1643 4.28014 11.1892 4.55724 11.4971L4.56724 11.5082C4.84433 11.8161 4.81937 12.2903 4.51148 12.5674C4.2036 12.8445 3.72938 12.8196 3.45229 12.5117L3.44229 12.5006C3.1652 12.1927 3.19016 11.7185 3.49804 11.4414ZM3.49804 15.4414C3.80593 15.1643 4.28014 15.1892 4.55724 15.4971L4.56724 15.5082C4.84433 15.8161 4.81937 16.2903 4.51148 16.5674C4.2036 16.8445 3.72938 16.8196 3.45229 16.5117L3.44229 16.5006C3.1652 16.1927 3.19016 15.7185 3.49804 15.4414ZM19.498 15.4414C19.8059 15.1643 20.2801 15.1892 20.5572 15.4971L20.5672 15.5082C20.8443 15.8161 20.8194 16.2903 20.5115 16.5674C20.2036 16.8445 19.7294 16.8196 19.4523 16.5117L19.4423 16.5006C19.1652 16.1927 19.1902 15.7185 19.498 15.4414ZM7.49801 19.4414C7.80588 19.1643 8.2801 19.1892 8.55721 19.4971L8.56721 19.5082C8.84432 19.8161 8.81938 20.2903 8.51151 20.5674C8.20364 20.8445 7.72942 20.8196 7.45232 20.5117L7.44232 20.5006C7.16521 20.1927 7.19014 19.7185 7.49801 19.4414ZM11.498 19.4414C11.8059 19.1643 12.2801 19.1892 12.5572 19.4971L12.5672 19.5082C12.8443 19.8161 12.8194 20.2903 12.5115 20.5674C12.2036 20.8445 11.7294 20.8196 11.4523 20.5117L11.4423 20.5006C11.1652 20.1927 11.1901 19.7185 11.498 19.4414ZM15.498 19.4414C15.8059 19.1643 16.2801 19.1892 16.5572 19.4971L16.5672 19.5082C16.8443 19.8161 16.8194 20.2903 16.5115 20.5674C16.2036 20.8445 15.7294 20.8196 15.4523 20.5117L15.4423 20.5006C15.1652 20.1927 15.1901 19.7185 15.498 19.4414ZM19.498 19.4414C19.8059 19.1643 20.2801 19.1892 20.5572 19.4971L20.5672 19.5082C20.8443 19.8161 20.8194 20.2903 20.5115 20.5674C20.2036 20.8445 19.7294 20.8196 19.4523 20.5117L19.4423 20.5006C19.1652 20.1927 19.1901 19.7185 19.498 19.4414ZM3.49802 19.4414C3.80589 19.1643 4.28011 19.1892 4.55721 19.4971L4.56721 19.5082C4.84432 19.8161 4.81938 20.2903 4.51151 20.5674C4.20363 20.8445 3.72942 20.8196 3.45231 20.5117L3.44231 20.5006C3.1652 20.1927 3.19015 19.7185 3.49802 19.4414Z" fill="black"/>
</g>
</g>
</g>
<defs>
<clipPath id="clip0_232_9756">
<rect width="24" height="24" rx="5" fill="white"/>
</clipPath>
</defs>
</svg>
