<svg width="24" height="24" viewBox="0 0 24 24" fill="none" xmlns="http://www.w3.org/2000/svg">
<g id="corner-bottom-left">
<g clip-path="url(#clip0_232_9728)">
<g id="Weight=Dynamic">
<path id="Vector (Stroke)" fill-rule="evenodd" clip-rule="evenodd" d="M3.49828 3.44254C3.80616 3.16544 4.28038 3.1904 4.55748 3.49828L4.56748 3.50939C4.84457 3.81728 4.81961 4.29149 4.51173 4.56859C4.20385 4.84568 3.72963 4.82072 3.45254 4.51284L3.44254 4.50173C3.16544 4.19385 3.1904 3.71963 3.49828 3.44254ZM7.49828 3.44254C7.80616 3.16544 8.28037 3.1904 8.55747 3.49828L8.56747 3.50939C8.84457 3.81727 8.81962 4.29148 8.51174 4.56858C8.20386 4.84568 7.72964 4.82073 7.45254 4.51285L7.44254 4.50174C7.16544 4.19386 7.1904 3.71964 7.49828 3.44254ZM11.4983 3.44254C11.8062 3.16544 12.2804 3.1904 12.5575 3.49828L12.5675 3.50939C12.8446 3.81727 12.8196 4.29148 12.5117 4.56858C12.2039 4.84568 11.7296 4.82073 11.4525 4.51285L11.4425 4.50174C11.1654 4.19386 11.1904 3.71964 11.4983 3.44254ZM15.4983 3.44254C15.8062 3.16544 16.2804 3.1904 16.5575 3.49828L16.5675 3.50939C16.8446 3.81727 16.8196 4.29148 16.5117 4.56858C16.2039 4.84568 15.7296 4.82073 15.4525 4.51285L15.4425 4.50174C15.1654 4.19386 15.1904 3.71964 15.4983 3.44254ZM19.4983 3.44254C19.8062 3.16544 20.2804 3.1904 20.5575 3.49828L20.5675 3.50939C20.8446 3.81727 20.8196 4.29148 20.5117 4.56858C20.2039 4.84568 19.7296 4.82073 19.4525 4.51285L19.4425 4.50174C19.1654 4.19386 19.1904 3.71964 19.4983 3.44254ZM3.49829 7.44253C3.80617 7.16544 4.28039 7.1904 4.55748 7.49829L4.56748 7.5094C4.84457 7.81728 4.81961 8.2915 4.51173 8.56859C4.20384 8.84568 3.72962 8.82072 3.45253 8.51284L3.44253 8.50173C3.16544 8.19384 3.1904 7.71962 3.49829 7.44253ZM19.4983 7.44254C19.8062 7.16544 20.2804 7.1904 20.5575 7.49828L20.5675 7.50939C20.8446 7.81727 20.8196 8.29149 20.5117 8.56859C20.2039 8.84568 19.7296 8.82073 19.4525 8.51284L19.4425 8.50173C19.1654 8.19385 19.1904 7.71963 19.4983 7.44254ZM19.4983 11.4425C19.8062 11.1654 20.2804 11.1904 20.5575 11.4983L20.5675 11.5094C20.8446 11.8173 20.8196 12.2915 20.5117 12.5686C20.2039 12.8457 19.7296 12.8207 19.4525 12.5128L19.4425 12.5017C19.1654 12.1939 19.1904 11.7196 19.4983 11.4425ZM3.25001 12.01C3.25001 11.5958 3.58579 11.26 4.00001 11.26H12C12.4142 11.26 12.75 11.5958 12.75 12.01V20.01C12.75 20.4242 12.4142 20.76 12 20.76H4.00001C3.58579 20.76 3.25001 20.4242 3.25001 20.01V12.01ZM4.75001 12.76V19.26H11.25V12.76H4.75001ZM19.4983 15.4425C19.8062 15.1654 20.2804 15.1904 20.5575 15.4983L20.5675 15.5094C20.8446 15.8173 20.8196 16.2915 20.5117 16.5686C20.2039 16.8457 19.7296 16.8207 19.4525 16.5128L19.4425 16.5017C19.1654 16.1939 19.1904 15.7196 19.4983 15.4425ZM15.4983 19.4426C15.8061 19.1655 16.2803 19.1904 16.5575 19.4983L16.5675 19.5094C16.8446 19.8172 16.8196 20.2915 16.5118 20.5686C16.2039 20.8457 15.7297 20.8207 15.4526 20.5129L15.4426 20.5018C15.1655 20.1939 15.1904 19.7197 15.4983 19.4426ZM19.4983 19.4426C19.8061 19.1655 20.2803 19.1904 20.5575 19.4983L20.5675 19.5094C20.8446 19.8172 20.8196 20.2915 20.5118 20.5686C20.2039 20.8457 19.7297 20.8207 19.4526 20.5129L19.4426 20.5018C19.1655 20.1939 19.1904 19.7197 19.4983 19.4426Z" fill="black"/>
</g>
</g>
</g>
<defs>
<clipPath id="clip0_232_9728">
<rect width="24" height="24" rx="5" fill="white"/>
</clipPath>
</defs>
</svg>
