<svg width="24" height="24" viewBox="0 0 24 24" fill="none" xmlns="http://www.w3.org/2000/svg">
<g id="corner-bottom-right">
<g clip-path="url(#clip0_232_9784)">
<g id="Weight=Dynamic">
<path id="Vector (Stroke)" fill-rule="evenodd" clip-rule="evenodd" d="M4.51149 3.44254C4.81937 3.71963 4.84433 4.19385 4.56723 4.50173L4.55723 4.51284C4.28014 4.82072 3.80592 4.84568 3.49804 4.56859C3.19016 4.29149 3.1652 3.81728 3.44229 3.50939L3.45229 3.49828C3.72939 3.1904 4.2036 3.16544 4.51149 3.44254ZM8.51149 3.44254C8.81937 3.71964 8.84433 4.19386 8.56723 4.50174L8.55723 4.51285C8.28013 4.82073 7.80591 4.84568 7.49803 4.56858C7.19015 4.29148 7.1652 3.81727 7.4423 3.50939L7.4523 3.49828C7.7294 3.1904 8.20361 3.16544 8.51149 3.44254ZM12.5115 3.44254C12.8194 3.71964 12.8443 4.19386 12.5672 4.50174L12.5572 4.51285C12.2801 4.82073 11.8059 4.84568 11.498 4.56858C11.1902 4.29148 11.1652 3.81727 11.4423 3.50939L11.4523 3.49828C11.7294 3.1904 12.2036 3.16544 12.5115 3.44254ZM16.5115 3.44254C16.8194 3.71964 16.8443 4.19386 16.5672 4.50174L16.5572 4.51285C16.2801 4.82073 15.8059 4.84568 15.498 4.56858C15.1902 4.29148 15.1652 3.81727 15.4423 3.50939L15.4523 3.49828C15.7294 3.1904 16.2036 3.16544 16.5115 3.44254ZM20.5115 3.44254C20.8194 3.71964 20.8443 4.19386 20.5672 4.50174L20.5572 4.51285C20.2801 4.82073 19.8059 4.84568 19.498 4.56858C19.1902 4.29148 19.1652 3.81727 19.4423 3.50939L19.4523 3.49828C19.7294 3.1904 20.2036 3.16544 20.5115 3.44254ZM4.51148 7.44253C4.81937 7.71962 4.84433 8.19384 4.56724 8.50173L4.55724 8.51284C4.28014 8.82072 3.80593 8.84568 3.49804 8.56859C3.19016 8.2915 3.1652 7.81728 3.44229 7.5094L3.45229 7.49829C3.72938 7.1904 4.2036 7.16544 4.51148 7.44253ZM20.5115 7.44254C20.8194 7.71963 20.8443 8.19385 20.5672 8.50173L20.5572 8.51284C20.2801 8.82073 19.8059 8.84568 19.498 8.56859C19.1902 8.29149 19.1652 7.81727 19.4423 7.50939L19.4523 7.49828C19.7294 7.1904 20.2036 7.16544 20.5115 7.44254ZM4.51148 11.4425C4.81937 11.7196 4.84433 12.1938 4.56724 12.5017L4.55724 12.5128C4.28014 12.8207 3.80593 12.8457 3.49804 12.5686C3.19016 12.2915 3.1652 11.8173 3.44229 11.5094L3.45229 11.4983C3.72938 11.1904 4.2036 11.1654 4.51148 11.4425ZM11.2598 12.01C11.2598 11.5958 11.5955 11.26 12.0098 11.26H20.0098C20.424 11.26 20.7598 11.5958 20.7598 12.01V20.01C20.7598 20.4242 20.424 20.76 20.0098 20.76H12.0098C11.5955 20.76 11.2598 20.4242 11.2598 20.01V12.01ZM12.7598 12.76V19.26H19.2598V12.76H12.7598ZM4.51148 15.4425C4.81937 15.7196 4.84433 16.1938 4.56724 16.5017L4.55724 16.5128C4.28014 16.8207 3.80593 16.8457 3.49804 16.5686C3.19016 16.2915 3.1652 15.8173 3.44229 15.5094L3.45229 15.4983C3.72938 15.1904 4.2036 15.1654 4.51148 15.4425ZM8.51151 19.4426C8.81938 19.7197 8.84432 20.1939 8.56721 20.5018L8.55721 20.5129C8.2801 20.8207 7.80588 20.8457 7.49801 20.5686C7.19014 20.2915 7.16521 19.8172 7.44232 19.5094L7.45232 19.4983C7.72942 19.1904 8.20364 19.1655 8.51151 19.4426ZM4.51151 19.4426C4.81938 19.7197 4.84432 20.1939 4.56721 20.5017L4.55721 20.5129C4.28011 20.8207 3.80589 20.8457 3.49802 20.5686C3.19015 20.2915 3.1652 19.8172 3.44231 19.5094L3.45231 19.4983C3.72942 19.1904 4.20363 19.1654 4.51151 19.4426Z" fill="black"/>
</g>
</g>
</g>
<defs>
<clipPath id="clip0_232_9784">
<rect width="24" height="24" rx="5" fill="white"/>
</clipPath>
</defs>
</svg>
