<svg width="24" height="24" viewBox="0 0 24 24" fill="none" xmlns="http://www.w3.org/2000/svg">
<g id="cpu-warning">
<g clip-path="url(#clip0_232_14334)">
<g id="Weight=Dynamic">
<path id="Vector (Stroke)" fill-rule="evenodd" clip-rule="evenodd" d="M7 1.25C7.41421 1.25 7.75 1.58579 7.75 2V3.25H11.25V2C11.25 1.58579 11.5858 1.25 12 1.25C12.4142 1.25 12.75 1.58579 12.75 2V3.25H14C14.4142 3.25 14.75 3.58579 14.75 4C14.75 4.41421 14.4142 4.75 14 4.75H4.75V19.25H19.25V14C19.25 13.5858 19.5858 13.25 20 13.25C20.4142 13.25 20.75 13.5858 20.75 14V16.25H22C22.4142 16.25 22.75 16.5858 22.75 17C22.75 17.4142 22.4142 17.75 22 17.75H20.75V19.4C20.75 20.1456 20.1456 20.75 19.4 20.75H17.75V22C17.75 22.4142 17.4142 22.75 17 22.75C16.5858 22.75 16.25 22.4142 16.25 22V20.75H12.75V22C12.75 22.4142 12.4142 22.75 12 22.75C11.5858 22.75 11.25 22.4142 11.25 22V20.75H7.75V22C7.75 22.4142 7.41421 22.75 7 22.75C6.58579 22.75 6.25 22.4142 6.25 22V20.75H4.6C3.85442 20.75 3.25 20.1456 3.25 19.4V17.75H2C1.58579 17.75 1.25 17.4142 1.25 17C1.25 16.5858 1.58579 16.25 2 16.25H3.25V12.75H2C1.58579 12.75 1.25 12.4142 1.25 12C1.25 11.5858 1.58579 11.25 2 11.25H3.25V7.75H2C1.58579 7.75 1.25 7.41421 1.25 7C1.25 6.58579 1.58579 6.25 2 6.25H3.25V4.6C3.25 3.85441 3.85442 3.25 4.6 3.25H6.25V2C6.25 1.58579 6.58579 1.25 7 1.25ZM19 1.25C19.4142 1.25 19.75 1.58579 19.75 2V6C19.75 6.41421 19.4142 6.75 19 6.75C18.5858 6.75 18.25 6.41421 18.25 6V2C18.25 1.58579 18.5858 1.25 19 1.25ZM8.75 8.75H14C14.4142 8.75 14.75 8.41421 14.75 8C14.75 7.58579 14.4142 7.25 14 7.25H8.6C7.85442 7.25 7.25 7.85442 7.25 8.6V15.4C7.25 16.1456 7.85441 16.75 8.6 16.75H15.4C16.1456 16.75 16.75 16.1456 16.75 15.4V14C16.75 13.5858 16.4142 13.25 16 13.25C15.5858 13.25 15.25 13.5858 15.25 14V15.25H8.75V8.75ZM19.5117 9.44142C19.8196 9.71852 19.8446 10.1927 19.5675 10.5006L19.5575 10.5117C19.2804 10.8196 18.8062 10.8446 18.4983 10.5675C18.1904 10.2904 18.1654 9.81616 18.4425 9.50827L18.4525 9.49716C18.7296 9.18928 19.2038 9.16433 19.5117 9.44142Z" fill="black"/>
</g>
</g>
</g>
<defs>
<clipPath id="clip0_232_14334">
<rect width="24" height="24" rx="5" fill="white"/>
</clipPath>
</defs>
</svg>
