<svg width="24" height="24" viewBox="0 0 24 24" fill="none" xmlns="http://www.w3.org/2000/svg">
<g id="cpu">
<g clip-path="url(#clip0_232_14302)">
<g id="Weight=Dynamic">
<path id="Vector (Stroke)" fill-rule="evenodd" clip-rule="evenodd" d="M7 1.25C7.41421 1.25 7.75 1.58579 7.75 2V3.25H11.25V2C11.25 1.58579 11.5858 1.25 12 1.25C12.4142 1.25 12.75 1.58579 12.75 2V3.25H16.25V2C16.25 1.58579 16.5858 1.25 17 1.25C17.4142 1.25 17.75 1.58579 17.75 2V3.25H19.4C20.1456 3.25 20.75 3.85442 20.75 4.6V6.25H22C22.4142 6.25 22.75 6.58579 22.75 7C22.75 7.41421 22.4142 7.75 22 7.75H20.75V11.25H22C22.4142 11.25 22.75 11.5858 22.75 12C22.75 12.4142 22.4142 12.75 22 12.75H20.75V16.25H22C22.4142 16.25 22.75 16.5858 22.75 17C22.75 17.4142 22.4142 17.75 22 17.75H20.75V19.4C20.75 20.1456 20.1456 20.75 19.4 20.75H17.75V22C17.75 22.4142 17.4142 22.75 17 22.75C16.5858 22.75 16.25 22.4142 16.25 22V20.75H12.75V22C12.75 22.4142 12.4142 22.75 12 22.75C11.5858 22.75 11.25 22.4142 11.25 22V20.75H7.75V22C7.75 22.4142 7.41421 22.75 7 22.75C6.58579 22.75 6.25 22.4142 6.25 22V20.75H4.6C3.85441 20.75 3.25 20.1456 3.25 19.4V17.75H2C1.58579 17.75 1.25 17.4142 1.25 17C1.25 16.5858 1.58579 16.25 2 16.25H3.25V12.75H2C1.58579 12.75 1.25 12.4142 1.25 12C1.25 11.5858 1.58579 11.25 2 11.25H3.25V7.75H2C1.58579 7.75 1.25 7.41421 1.25 7C1.25 6.58579 1.58579 6.25 2 6.25H3.25V4.6C3.25 3.85441 3.85442 3.25 4.6 3.25H6.25V2C6.25 1.58579 6.58579 1.25 7 1.25ZM4.75 4.75V19.25H19.25V4.75H4.75ZM8.75 8.75V15.25H15.25V8.75H8.75ZM7.25 8.6C7.25 7.85442 7.85442 7.25 8.6 7.25H15.4C16.1456 7.25 16.75 7.85441 16.75 8.6V15.4C16.75 16.1456 16.1456 16.75 15.4 16.75H8.6C7.85441 16.75 7.25 16.1456 7.25 15.4V8.6Z" fill="black"/>
</g>
</g>
</g>
<defs>
<clipPath id="clip0_232_14302">
<rect width="24" height="24" rx="5" fill="white"/>
</clipPath>
</defs>
</svg>
