<svg width="24" height="24" viewBox="0 0 24 24" fill="none" xmlns="http://www.w3.org/2000/svg">
<g id="creative-commons">
<g clip-path="url(#clip0_232_5465)">
<g id="Weight=Dynamic">
<path id="Vector (Stroke)" fill-rule="evenodd" clip-rule="evenodd" d="M12 2.75C6.89137 2.75 2.75 6.89137 2.75 12C2.75 17.1086 6.89137 21.25 12 21.25C17.1086 21.25 21.25 17.1086 21.25 12C21.25 6.89137 17.1086 2.75 12 2.75ZM1.25 12C1.25 6.06294 6.06294 1.25 12 1.25C17.9371 1.25 22.75 6.06294 22.75 12C22.75 17.9371 17.9371 22.75 12 22.75C6.06294 22.75 1.25 17.9371 1.25 12ZM9.5 9.75C8.25736 9.75 7.25 10.7574 7.25 12C7.25 13.2426 8.25736 14.25 9.5 14.25C9.76432 14.25 10.0164 14.2047 10.2501 14.1222C10.6406 13.9841 11.0691 14.1888 11.2071 14.5794C11.3452 14.9699 11.1405 15.3984 10.7499 15.5364C10.358 15.675 9.93695 15.75 9.5 15.75C7.42893 15.75 5.75 14.0711 5.75 12C5.75 9.92893 7.42893 8.25 9.5 8.25C9.93695 8.25 10.358 8.32505 10.7499 8.46358C11.1405 8.60161 11.3452 9.0301 11.2071 9.42064C11.0691 9.81118 10.6406 10.0159 10.2501 9.87784C10.0164 9.79526 9.76432 9.75 9.5 9.75ZM15.75 9.75C14.5074 9.75 13.5 10.7574 13.5 12C13.5 13.2426 14.5074 14.25 15.75 14.25C16.0143 14.25 16.2664 14.2047 16.5001 14.1222C16.8906 13.9841 17.3191 14.1888 17.4571 14.5794C17.5952 14.9699 17.3905 15.3984 16.9999 15.5364C16.608 15.675 16.187 15.75 15.75 15.75C13.6789 15.75 12 14.0711 12 12C12 9.92893 13.6789 8.25 15.75 8.25C16.187 8.25 16.608 8.32505 16.9999 8.46358C17.3905 8.60161 17.5952 9.0301 17.4571 9.42064C17.3191 9.81118 16.8906 10.0159 16.5001 9.87784C16.2664 9.79526 16.0143 9.75 15.75 9.75Z" fill="black"/>
</g>
</g>
</g>
<defs>
<clipPath id="clip0_232_5465">
<rect width="24" height="24" rx="5" fill="white"/>
</clipPath>
</defs>
</svg>
