<svg width="24" height="24" viewBox="0 0 24 24" fill="none" xmlns="http://www.w3.org/2000/svg">
<g id="credit-cards">
<g clip-path="url(#clip0_232_7556)">
<g id="Weight=Dynamic">
<path id="Vector (Stroke)" fill-rule="evenodd" clip-rule="evenodd" d="M1.25 6.5C1.25 4.98122 2.48122 3.75 4 3.75H17C18.5188 3.75 19.75 4.98122 19.75 6.5V7.25H20C21.5188 7.25 22.75 8.48122 22.75 10V18C22.75 19.5188 21.5188 20.75 20 20.75H7C5.48122 20.75 4.25 19.5188 4.25 18V17.25H4C2.48122 17.25 1.25 16.0188 1.25 14.5V6.5ZM5.75 17.25V18C5.75 18.6904 6.30964 19.25 7 19.25H20C20.6904 19.25 21.25 18.6904 21.25 18V12.1786H19.75V14.5C19.75 16.0188 18.5188 17.25 17 17.25H5.75ZM18.25 14.5C18.25 15.1904 17.6904 15.75 17 15.75H4C3.30964 15.75 2.75 15.1904 2.75 14.5V6.5C2.75 5.80964 3.30964 5.25 4 5.25H17C17.6904 5.25 18.25 5.80964 18.25 6.5V7.25H5.5C5.08579 7.25 4.75 7.58579 4.75 8C4.75 8.41421 5.08579 8.75 5.5 8.75H18.25V14.5ZM19.75 10.6786H21.25V10C21.25 9.30964 20.6904 8.75 20 8.75H19.75V10.6786Z" fill="black"/>
</g>
</g>
</g>
<defs>
<clipPath id="clip0_232_7556">
<rect width="24" height="24" rx="5" fill="white"/>
</clipPath>
</defs>
</svg>
