<svg width="24" height="24" viewBox="0 0 24 24" fill="none" xmlns="http://www.w3.org/2000/svg">
<g id="credit-card-slash">
<g clip-path="url(#clip0_232_7544)">
<g id="Weight=Dynamic">
<path id="Vector (Stroke)" fill-rule="evenodd" clip-rule="evenodd" d="M2.46967 2.46967C2.76256 2.17678 3.23744 2.17678 3.53033 2.46967L19.3107 18.25H20C20.6904 18.25 21.25 17.6904 21.25 17V9.75H14C13.5858 9.75 13.25 9.41421 13.25 9C13.25 8.58579 13.5858 8.25 14 8.25H21.25V7C21.25 6.30964 20.6904 5.75 20 5.75H10C9.58579 5.75 9.25 5.41421 9.25 5C9.25 4.58579 9.58579 4.25 10 4.25H20C21.5188 4.25 22.75 5.48122 22.75 7V17C22.75 18.271 21.8878 19.3405 20.7164 19.6558L21.5303 20.4697C21.8232 20.7626 21.8232 21.2374 21.5303 21.5303C21.2374 21.8232 20.7626 21.8232 20.4697 21.5303L18.6893 19.75H4C2.48122 19.75 1.25 18.5188 1.25 17V7C1.25 5.72904 2.11219 4.65946 3.28359 4.34425L2.46967 3.53033C2.17678 3.23744 2.17678 2.76256 2.46967 2.46967ZM4.68934 5.75H4C3.30964 5.75 2.75 6.30964 2.75 7V17C2.75 17.6904 3.30964 18.25 4 18.25H17.1893L8.68934 9.75H6C5.58579 9.75 5.25 9.41421 5.25 9C5.25 8.58579 5.58579 8.25 6 8.25H7.18934L4.68934 5.75Z" fill="black"/>
</g>
</g>
</g>
<defs>
<clipPath id="clip0_232_7544">
<rect width="24" height="24" rx="5" fill="white"/>
</clipPath>
</defs>
</svg>
