<svg width="24" height="24" viewBox="0 0 24 24" fill="none" xmlns="http://www.w3.org/2000/svg">
<g id="crib">
<g clip-path="url(#clip0_232_9358)">
<g id="Weight=Dynamic">
<path id="Vector (Stroke)" fill-rule="evenodd" clip-rule="evenodd" d="M3 3.75C2.86193 3.75 2.75 3.86193 2.75 4C2.75 4.13807 2.86193 4.25 3 4.25C3.13807 4.25 3.25 4.13807 3.25 4C3.25 3.86193 3.13807 3.75 3 3.75ZM1.25 4C1.25 3.0335 2.0335 2.25 3 2.25C3.9665 2.25 4.75 3.0335 4.75 4C4.75 4.6981 4.34124 5.30073 3.75 5.58159V6.25H20.25V5.58159C19.6588 5.30073 19.25 4.6981 19.25 4C19.25 3.0335 20.0335 2.25 21 2.25C21.9665 2.25 22.75 3.0335 22.75 4C22.75 4.6981 22.3412 5.30073 21.75 5.58159V21C21.75 21.4142 21.4142 21.75 21 21.75C20.5858 21.75 20.25 21.4142 20.25 21V19.75H3.75V21C3.75 21.4142 3.41421 21.75 3 21.75C2.58579 21.75 2.25 21.4142 2.25 21V5.58159C1.65876 5.30073 1.25 4.6981 1.25 4ZM3.75 7.75V15.25H5.25V7.75H3.75ZM6.75 7.75V15.25H9.25V7.75H6.75ZM10.75 7.75V15.25H13.25V7.75H10.75ZM14.75 7.75V15.25H17.25V7.75H14.75ZM18.75 7.75V15.25H20.25V7.75H18.75ZM20.25 16.75H3.75V18.25H20.25V16.75ZM21 3.75C20.8619 3.75 20.75 3.86193 20.75 4C20.75 4.13807 20.8619 4.25 21 4.25C21.1381 4.25 21.25 4.13807 21.25 4C21.25 3.86193 21.1381 3.75 21 3.75Z" fill="black"/>
</g>
</g>
</g>
<defs>
<clipPath id="clip0_232_9358">
<rect width="24" height="24" rx="5" fill="white"/>
</clipPath>
</defs>
</svg>
