<svg width="24" height="24" viewBox="0 0 24 24" fill="none" xmlns="http://www.w3.org/2000/svg">
<g id="crop-rotate-br">
<g clip-path="url(#clip0_232_5122)">
<g id="Weight=Dynamic">
<path id="Vector (Stroke)" fill-rule="evenodd" clip-rule="evenodd" d="M4 1.25C4.41421 1.25 4.75 1.58579 4.75 2L4.75 13C4.75 13.1381 4.86193 13.25 5 13.25L16 13.25C16.4142 13.25 16.75 13.5858 16.75 14C16.75 14.4142 16.4142 14.75 16 14.75L14.75 14.75V16C14.75 16.4142 14.4142 16.75 14 16.75C13.5858 16.75 13.25 16.4142 13.25 16V14.75H5C4.0335 14.75 3.25 13.9665 3.25 13L3.25 4.75H2C1.58579 4.75 1.25 4.41421 1.25 4C1.25 3.58579 1.58579 3.25 2 3.25H3.25L3.25 2C3.25 1.58579 3.58578 1.25 4 1.25ZM7 3.25L13 3.25C13.9665 3.25 14.75 4.0335 14.75 5L14.75 11C14.75 11.4142 14.4142 11.75 14 11.75C13.5858 11.75 13.25 11.4142 13.25 11L13.25 5C13.25 4.86193 13.1381 4.75 13 4.75L7 4.75C6.58579 4.75 6.25 4.41421 6.25 4C6.25 3.58579 6.58579 3.25 7 3.25ZM21 11.25C21.4142 11.25 21.75 11.5858 21.75 12V16C21.75 18.6234 19.6234 20.75 17 20.75H15.8107L17.0303 21.9697C17.3232 22.2626 17.3232 22.7374 17.0303 23.0303C16.7374 23.3232 16.2626 23.3232 15.9697 23.0303L13.4697 20.5303C13.329 20.3897 13.25 20.1989 13.25 20C13.25 19.8011 13.329 19.6103 13.4697 19.4697L15.9697 16.9697C16.2626 16.6768 16.7374 16.6768 17.0303 16.9697C17.3232 17.2626 17.3232 17.7374 17.0303 18.0303L15.8107 19.25H17C18.7949 19.25 20.25 17.7949 20.25 16V12C20.25 11.5858 20.5858 11.25 21 11.25Z" fill="black"/>
</g>
</g>
</g>
<defs>
<clipPath id="clip0_232_5122">
<rect width="24" height="24" rx="5" fill="white"/>
</clipPath>
</defs>
</svg>
