<svg width="24" height="24" viewBox="0 0 24 24" fill="none" xmlns="http://www.w3.org/2000/svg">
<g id="crop-rotate-tl">
<g clip-path="url(#clip0_232_5106)">
<g id="Weight=Dynamic">
<path id="Vector (Stroke)" fill-rule="evenodd" clip-rule="evenodd" d="M6.96967 0.96967C7.26256 0.676777 7.73744 0.676777 8.03033 0.96967L10.5303 3.46967C10.8232 3.76256 10.8232 4.23744 10.5303 4.53033L8.03033 7.03033C7.73744 7.32322 7.26256 7.32322 6.96967 7.03033C6.67678 6.73744 6.67678 6.26256 6.96967 5.96967L8.18934 4.75H7C5.20507 4.75 3.75 6.20507 3.75 8V12C3.75 12.4142 3.41421 12.75 3 12.75C2.58579 12.75 2.25 12.4142 2.25 12V8C2.25 5.37665 4.37665 3.25 7 3.25H8.18934L6.96967 2.03033C6.67678 1.73744 6.67678 1.26256 6.96967 0.96967ZM10 7.25C10.4142 7.25 10.75 7.58579 10.75 8L10.75 19C10.75 19.1381 10.8619 19.25 11 19.25L22 19.25C22.4142 19.25 22.75 19.5858 22.75 20C22.75 20.4142 22.4142 20.75 22 20.75L20.75 20.75V22C20.75 22.4142 20.4142 22.75 20 22.75C19.5858 22.75 19.25 22.4142 19.25 22V20.75H11C10.0335 20.75 9.25 19.9665 9.25 19V10.75H8C7.58579 10.75 7.25 10.4142 7.25 10C7.25 9.58579 7.58579 9.25 8 9.25H9.25L9.25 8C9.25 7.58579 9.58578 7.25 10 7.25ZM13 9.25L19 9.25C19.9665 9.25 20.75 10.0335 20.75 11V17C20.75 17.4142 20.4142 17.75 20 17.75C19.5858 17.75 19.25 17.4142 19.25 17V11C19.25 10.8619 19.1381 10.75 19 10.75L13 10.75C12.5858 10.75 12.25 10.4142 12.25 10C12.25 9.58579 12.5858 9.25 13 9.25Z" fill="black"/>
</g>
</g>
</g>
<defs>
<clipPath id="clip0_232_5106">
<rect width="24" height="24" rx="5" fill="white"/>
</clipPath>
</defs>
</svg>
