<svg width="24" height="24" viewBox="0 0 24 24" fill="none" xmlns="http://www.w3.org/2000/svg">
<g id="crop-rotate-bl">
<g clip-path="url(#clip0_232_5090)">
<g id="Weight=Dynamic">
<path id="Vector (Stroke)" fill-rule="evenodd" clip-rule="evenodd" d="M10 1.25C10.4142 1.25 10.75 1.58579 10.75 2L10.75 13C10.75 13.1381 10.8619 13.25 11 13.25L22 13.25C22.4142 13.25 22.75 13.5858 22.75 14C22.75 14.4142 22.4142 14.75 22 14.75L20.75 14.75V16C20.75 16.4142 20.4142 16.75 20 16.75C19.5858 16.75 19.25 16.4142 19.25 16V14.75H11C10.0335 14.75 9.25 13.9665 9.25 13V4.75H8C7.58579 4.75 7.25 4.41421 7.25 4C7.25 3.58579 7.58579 3.25 8 3.25H9.25V2C9.25 1.58579 9.58578 1.25 10 1.25ZM13 3.25L19 3.25C19.9665 3.25 20.75 4.0335 20.75 5V11C20.75 11.4142 20.4142 11.75 20 11.75C19.5858 11.75 19.25 11.4142 19.25 11V5C19.25 4.86193 19.1381 4.75 19 4.75L13 4.75C12.5858 4.75 12.25 4.41421 12.25 4C12.25 3.58579 12.5858 3.25 13 3.25ZM3.46967 13.4697C3.76256 13.1768 4.23744 13.1768 4.53033 13.4697L7.03033 15.9697C7.32322 16.2626 7.32322 16.7374 7.03033 17.0303C6.73744 17.3232 6.26256 17.3232 5.96967 17.0303L4.75 15.8107V17C4.75 18.7949 6.20507 20.25 8 20.25H12C12.4142 20.25 12.75 20.5858 12.75 21C12.75 21.4142 12.4142 21.75 12 21.75H8C5.37665 21.75 3.25 19.6234 3.25 17V15.8107L2.03033 17.0303C1.73744 17.3232 1.26256 17.3232 0.96967 17.0303C0.676777 16.7374 0.676777 16.2626 0.96967 15.9697L3.46967 13.4697Z" fill="black"/>
</g>
</g>
</g>
<defs>
<clipPath id="clip0_232_5090">
<rect width="24" height="24" rx="5" fill="white"/>
</clipPath>
</defs>
</svg>
