<svg width="24" height="24" viewBox="0 0 24 24" fill="none" xmlns="http://www.w3.org/2000/svg">
<g id="crop-rotate-tr">
<g clip-path="url(#clip0_232_5074)">
<g id="Weight=Dynamic">
<path id="Vector (Stroke)" fill-rule="evenodd" clip-rule="evenodd" d="M11.25 3C11.25 2.58579 11.5858 2.25 12 2.25H16C18.6234 2.25 20.75 4.37665 20.75 7V8.18934L21.9697 6.96967C22.2626 6.67678 22.7374 6.67678 23.0303 6.96967C23.3232 7.26256 23.3232 7.73744 23.0303 8.03033L20.5303 10.5303C20.2374 10.8232 19.7626 10.8232 19.4697 10.5303L16.9697 8.03033C16.6768 7.73744 16.6768 7.26256 16.9697 6.96967C17.2626 6.67678 17.7374 6.67678 18.0303 6.96967L19.25 8.18934V7C19.25 5.20507 17.7949 3.75 16 3.75H12C11.5858 3.75 11.25 3.41421 11.25 3ZM4 7.25C4.41421 7.25 4.75 7.58579 4.75 8L4.75 19C4.75 19.1381 4.86193 19.25 5 19.25L16 19.25C16.4142 19.25 16.75 19.5858 16.75 20C16.75 20.4142 16.4142 20.75 16 20.75L14.75 20.75V22C14.75 22.4142 14.4142 22.75 14 22.75C13.5858 22.75 13.25 22.4142 13.25 22V20.75H5C4.0335 20.75 3.25 19.9665 3.25 19L3.25 10.75H2C1.58579 10.75 1.25 10.4142 1.25 10C1.25 9.58579 1.58579 9.25 2 9.25H3.25L3.25 8C3.25 7.58579 3.58578 7.25 4 7.25ZM7 9.25L13 9.25C13.9665 9.25 14.75 10.0335 14.75 11L14.75 17C14.75 17.4142 14.4142 17.75 14 17.75C13.5858 17.75 13.25 17.4142 13.25 17L13.25 11C13.25 10.8619 13.1381 10.75 13 10.75H7C6.58579 10.75 6.25 10.4142 6.25 10C6.25 9.58579 6.58579 9.25 7 9.25Z" fill="black"/>
</g>
</g>
</g>
<defs>
<clipPath id="clip0_232_5074">
<rect width="24" height="24" rx="5" fill="white"/>
</clipPath>
</defs>
</svg>
