<svg width="24" height="24" viewBox="0 0 24 24" fill="none" xmlns="http://www.w3.org/2000/svg">
<g id="crown">
<g clip-path="url(#clip0_232_8217)">
<g id="Weight=Dynamic">
<path id="Vector (Stroke)" fill-rule="evenodd" clip-rule="evenodd" d="M2.5448 6.40396C2.76831 6.23325 3.06855 6.20194 3.32247 6.32286L9.11704 9.08218L11.4426 6.49828C11.5848 6.34025 11.7874 6.25001 12 6.25001C12.2126 6.25001 12.4153 6.34025 12.5575 6.49828L14.883 9.08218L20.6776 6.32286C20.9315 6.20194 21.2317 6.23325 21.4552 6.40396C21.6788 6.57466 21.788 6.85607 21.7382 7.13287L19.9382 17.1329C19.8739 17.4901 19.563 17.75 19.2 17.75H4.80002C4.43706 17.75 4.12618 17.4901 4.06188 17.1329L2.26188 7.13287C2.21206 6.85607 2.32128 6.57466 2.5448 6.40396ZM20.003 8.30548L15.0225 10.6772C14.7227 10.8199 14.3647 10.7485 14.1426 10.5017L12 8.12114L9.85749 10.5017C9.63536 10.7485 9.27737 10.8199 8.97757 10.6772L3.99706 8.30548L5.42707 16.25H18.573L20.003 8.30548Z" fill="black"/>
</g>
</g>
</g>
<defs>
<clipPath id="clip0_232_8217">
<rect width="24" height="24" rx="5" fill="white"/>
</clipPath>
</defs>
</svg>
