<svg width="24" height="24" viewBox="0 0 24 24" fill="none" xmlns="http://www.w3.org/2000/svg">
<g id="crown-circle">
<g clip-path="url(#clip0_232_8209)">
<g id="Weight=Dynamic">
<path id="Vector (Stroke)" fill-rule="evenodd" clip-rule="evenodd" d="M1.25 12C1.25 6.06294 6.06294 1.25 12 1.25C17.9371 1.25 22.75 6.06294 22.75 12C22.75 17.9371 17.9371 22.75 12 22.75C6.06294 22.75 1.25 17.9371 1.25 12ZM12 2.75C6.89137 2.75 2.75 6.89137 2.75 12C2.75 17.1086 6.89137 21.25 12 21.25C17.1086 21.25 21.25 17.1086 21.25 12C21.25 6.89137 17.1086 2.75 12 2.75ZM5.55303 7.89774C5.78005 7.72925 6.08254 7.70274 6.33541 7.82918L10.0117 9.6673L11.4306 8.01191C11.573 7.84567 11.7811 7.75 12 7.75C12.2189 7.75 12.427 7.84567 12.5694 8.01191L13.9884 9.6673L17.6646 7.82918C17.9175 7.70274 18.2199 7.72925 18.447 7.89774C18.674 8.06623 18.787 8.34807 18.7392 8.62672L17.5392 15.6267C17.4775 15.9868 17.1653 16.25 16.8 16.25H7.2C6.83468 16.25 6.52251 15.9868 6.46078 15.6267L5.26078 8.62672C5.21301 8.34807 5.326 8.06623 5.55303 7.89774ZM6.9895 9.83328L7.83237 14.75H16.1676L17.0105 9.83328L14.1354 11.2708C13.8276 11.4247 13.4545 11.3494 13.2306 11.0881L12 9.65244L10.7694 11.0881C10.5455 11.3494 10.1724 11.4247 9.86459 11.2708L6.9895 9.83328Z" fill="black"/>
</g>
</g>
</g>
<defs>
<clipPath id="clip0_232_8209">
<rect width="24" height="24" rx="5" fill="white"/>
</clipPath>
</defs>
</svg>
