<svg width="24" height="24" viewBox="0 0 24 24" fill="none" xmlns="http://www.w3.org/2000/svg">
<g id="css3">
<g clip-path="url(#clip0_232_5475)">
<g id="Weight=Dynamic">
<path id="Vector (Stroke)" fill-rule="evenodd" clip-rule="evenodd" d="M3.44291 2.49785C3.58513 2.34007 3.78759 2.25 4 2.25H20C20.2124 2.25 20.4149 2.34007 20.5571 2.49785C20.6993 2.65564 20.768 2.86632 20.746 3.0776L18.9682 20.1675C18.9371 20.4669 18.73 20.7186 18.4423 20.8069L12.2201 22.717C12.0767 22.761 11.9233 22.761 11.7799 22.717L5.55769 20.8069C5.26999 20.7186 5.06294 20.4669 5.03181 20.1675L3.25403 3.0776C3.23205 2.86632 3.30069 2.65564 3.44291 2.49785ZM4.83207 3.75L6.4724 19.5186L12 21.2155L17.5276 19.5186L19.1679 3.75H4.83207ZM6.25 7C6.25 6.58579 6.58579 6.25 7 6.25H16.5C16.7119 6.25 16.9139 6.33963 17.0561 6.49675C17.1983 6.65386 17.2674 6.86378 17.2463 7.07463L16.2463 17.0746C16.2157 17.3805 16.0016 17.6367 15.706 17.7211L12.206 18.7211C12.0714 18.7596 11.9286 18.7596 11.794 18.7211L8.29396 17.7211C7.99842 17.6367 7.78431 17.3805 7.75373 17.0746L7.50373 14.5746C7.46251 14.1625 7.76322 13.7949 8.17538 13.7537C8.58753 13.7125 8.95507 14.0132 8.99628 14.4254L9.19562 16.4187L12 17.22L14.8044 16.4187L15.2213 12.25H7.5C7.08579 12.25 6.75 11.9142 6.75 11.5C6.75 11.0858 7.08579 10.75 7.5 10.75H15.3713L15.6713 7.75H7C6.58579 7.75 6.25 7.41421 6.25 7Z" fill="black"/>
</g>
</g>
</g>
<defs>
<clipPath id="clip0_232_5475">
<rect width="24" height="24" rx="5" fill="white"/>
</clipPath>
</defs>
</svg>
