<svg width="24" height="24" viewBox="0 0 24 24" fill="none" xmlns="http://www.w3.org/2000/svg">
<g id="cube-bandage">
<g clip-path="url(#clip0_232_961)">
<g id="Weight=Dynamic">
<path id="Vector (Stroke)" fill-rule="evenodd" clip-rule="evenodd" d="M11.25 3.27464V9C11.25 9.41421 11.5858 9.75 12 9.75C12.4142 9.75 12.75 9.41421 12.75 9V3.27463L19.4557 7.00003L12 11.1421L4.5443 7.00002L11.25 3.27464ZM3.75 8.27468L3.75002 16.5587L12.3643 21.3444C12.7263 21.5455 12.8568 22.0021 12.6556 22.3642C12.4545 22.7263 11.9979 22.8568 11.6358 22.6556L2.9444 17.8271C2.51582 17.589 2.25002 17.1372 2.25002 16.647L2.25 7.35304C2.25 6.86277 2.5158 6.41103 2.94438 6.17293L11.3444 1.50626L11.3823 1.5745L11.3444 1.50626C11.4008 1.47495 11.4588 1.44796 11.5181 1.42531C11.6484 1.31589 11.8165 1.25 12 1.25C12.1835 1.25 12.3516 1.31589 12.4819 1.42529C12.5412 1.44795 12.5993 1.47494 12.6556 1.50626L12.6177 1.57451L12.6556 1.50626L21.0556 6.17293C21.4842 6.41103 21.75 6.86277 21.75 7.35304L21.75 11C21.75 11.4142 21.4142 11.75 21 11.75C20.5858 11.75 20.25 11.4142 20.25 11L20.25 8.27469L12.75 12.4414V17.5C12.75 17.9142 12.4142 18.25 12 18.25C11.5858 18.25 11.25 17.9142 11.25 17.5V12.4413L3.75 8.27468ZM20.9549 14.9448C20.4668 14.4566 19.6753 14.4566 19.1872 14.9448L14.9445 19.1874C14.4564 19.6756 14.4564 20.467 14.9445 20.9552L15.6516 21.6623C16.1398 22.1504 16.9312 22.1504 17.4194 21.6623L21.662 17.4196C22.1502 16.9315 22.1502 16.14 21.662 15.6519L20.9549 14.9448ZM18.1265 13.8841C19.2004 12.8102 20.9416 12.8102 22.0156 13.8841L22.7227 14.5912C23.7966 15.6652 23.7966 17.4064 22.7227 18.4803L18.4801 22.7229C17.4061 23.7969 15.6649 23.7969 14.591 22.7229L13.8839 22.0158C12.8099 20.9419 12.8099 19.2007 13.8839 18.1267L18.1265 13.8841ZM18.1265 16.7123C18.4194 16.4195 18.8943 16.4195 19.1872 16.7123L19.8943 17.4195C20.1872 17.7123 20.1872 18.1872 19.8943 18.4801C19.6014 18.773 19.1265 18.773 18.8336 18.4801L18.1265 17.773C17.8336 17.4801 17.8336 17.0052 18.1265 16.7123ZM16.7123 18.1267C17.0052 17.8338 17.4801 17.8338 17.773 18.1267L18.4801 18.8338C18.773 19.1267 18.773 19.6015 18.4801 19.8944C18.1872 20.1873 17.7123 20.1873 17.4194 19.8944L16.7123 19.1873C16.4194 18.8944 16.4194 18.4195 16.7123 18.1267Z" fill="black"/>
</g>
</g>
</g>
<defs>
<clipPath id="clip0_232_961">
<rect width="24" height="24" rx="5" fill="white"/>
</clipPath>
</defs>
</svg>
