<svg width="24" height="24" viewBox="0 0 24 24" fill="none" xmlns="http://www.w3.org/2000/svg">
<g id="cube-hole">
<g clip-path="url(#clip0_232_614)">
<g id="Weight=Dynamic">
<path id="Vector (Stroke)" fill-rule="evenodd" clip-rule="evenodd" d="M11.3444 1.50625C11.7521 1.27974 12.2479 1.27974 12.6556 1.50625L12.2914 2.16187L12.6556 1.50625L21.0556 6.17292C21.4842 6.41102 21.75 6.86276 21.75 7.35303L21.75 16.6469C21.75 17.1372 21.4842 17.589 21.0556 17.8271L12.6556 22.4937C12.2479 22.7202 11.7521 22.7202 11.3444 22.4937L2.9444 17.8271C2.51582 17.589 2.25002 17.1372 2.25002 16.6469L2.25 7.35303C2.25 6.86276 2.5158 6.41102 2.94438 6.17292L11.3444 1.50625L11.7086 2.16187L11.3444 1.50625ZM12 2.85796L4.54436 6.99998L8.26392 9.0664C9.1336 7.96035 10.4839 7.24999 12 7.24999C13.5162 7.24999 14.8664 7.96035 15.7361 9.0664L19.4557 6.99999L12 2.85796ZM20.25 8.27463L20.25 16.5587L12.75 20.7254V16.6911C15.017 16.3315 16.75 14.3681 16.75 12C16.75 11.43 16.6496 10.8835 16.4656 10.3771L20.25 8.27463ZM11.25 16.6911C8.98303 16.3315 7.25002 14.3681 7.25002 12C7.25002 11.43 7.35041 10.8835 7.53449 10.3771L3.75 8.27461L3.75002 16.5587L11.25 20.7254V16.6911ZM12 8.74999C10.2051 8.74999 8.75002 10.2051 8.75002 12C8.75002 13.7949 10.2051 15.25 12 15.25C13.7949 15.25 15.25 13.7949 15.25 12C15.25 10.2051 13.7949 8.74999 12 8.74999Z" fill="black"/>
</g>
</g>
</g>
<defs>
<clipPath id="clip0_232_614">
<rect width="24" height="24" rx="5" fill="white"/>
</clipPath>
</defs>
</svg>
