<svg width="24" height="24" viewBox="0 0 24 24" fill="none" xmlns="http://www.w3.org/2000/svg">
<g id="cube-dots">
<g clip-path="url(#clip0_232_735)">
<g id="Weight=Dynamic">
<path id="Vector (Stroke)" fill-rule="evenodd" clip-rule="evenodd" d="M3.51176 2.44158C3.81963 2.71869 3.84456 3.19291 3.56745 3.50078L3.55745 3.51189C3.28034 3.81976 2.80613 3.8447 2.49826 3.56759C2.19039 3.29048 2.16545 2.81626 2.44256 2.50839L2.45256 2.49728C2.72967 2.18941 3.20389 2.16447 3.51176 2.44158ZM21.5118 2.44158C21.8196 2.71869 21.8446 3.19291 21.5675 3.50078L21.5575 3.51189C21.2803 3.81976 20.8061 3.8447 20.4983 3.56759C20.1904 3.29048 20.1654 2.81626 20.4426 2.50839L20.4526 2.49728C20.7297 2.18941 21.2039 2.16447 21.5118 2.44158ZM12.124 5.9347C12.0472 5.89078 11.9528 5.89078 11.876 5.9347L6.33785 9.09934L12 12.1482L17.6622 9.09934L12.124 5.9347ZM18.25 10.4864L12.75 13.448V18.7076L18.124 15.6367C18.2019 15.5922 18.25 15.5094 18.25 15.4197V10.4864ZM11.25 18.7076V13.448L5.75001 10.4864V15.4197C5.75001 15.5094 5.79808 15.5922 5.87597 15.6367L5.50387 16.2879L5.87597 15.6367L11.25 18.7076ZM11.1318 4.63233C11.6698 4.3249 12.3302 4.3249 12.8683 4.63233L18.8682 8.0609C19.4135 8.37248 19.75 8.95233 19.75 9.58033V15.4197C19.75 16.0477 19.4135 16.6275 18.8682 16.9391L12.8682 20.3677C12.3302 20.6751 11.6698 20.6751 11.1318 20.3677L5.13176 16.9391C4.58651 16.6275 4.25001 16.0477 4.25001 15.4197V9.58033C4.25001 8.95233 4.58651 8.37248 5.13176 8.0609L11.1318 4.63233ZM3.51176 20.4416C3.81963 20.7187 3.84456 21.1929 3.56745 21.5008L3.55745 21.5119C3.28034 21.8198 2.80613 21.8447 2.49826 21.5676C2.19039 21.2905 2.16545 20.8163 2.44256 20.5084L2.45256 20.4973C2.72967 20.1894 3.20389 20.1645 3.51176 20.4416ZM21.5118 20.4416C21.8196 20.7187 21.8446 21.1929 21.5675 21.5008L21.5575 21.5119C21.2803 21.8198 20.8061 21.8447 20.4983 21.5676C20.1904 21.2905 20.1654 20.8163 20.4426 20.5084L20.4526 20.4973C20.7297 20.1894 21.2039 20.1645 21.5118 20.4416Z" fill="black"/>
</g>
</g>
</g>
<defs>
<clipPath id="clip0_232_735">
<rect width="24" height="24" rx="5" fill="white"/>
</clipPath>
</defs>
</svg>
