<svg width="24" height="24" viewBox="0 0 24 24" fill="none" xmlns="http://www.w3.org/2000/svg">
<g id="cube-scan">
<g clip-path="url(#clip0_232_758)">
<g id="Weight=Dynamic">
<path id="Vector (Stroke)" fill-rule="evenodd" clip-rule="evenodd" d="M2.25 3C2.25 2.58579 2.58579 2.25 3 2.25H6C6.41421 2.25 6.75 2.58579 6.75 3C6.75 3.41421 6.41421 3.75 6 3.75H3.75V6C3.75 6.41421 3.41421 6.75 3 6.75C2.58579 6.75 2.25 6.41421 2.25 6V3ZM17.25 3C17.25 2.58579 17.5858 2.25 18 2.25H21C21.4142 2.25 21.75 2.58579 21.75 3V6C21.75 6.41421 21.4142 6.75 21 6.75C20.5858 6.75 20.25 6.41421 20.25 6V3.75H18C17.5858 3.75 17.25 3.41421 17.25 3ZM12.1286 7.95182C12.0495 7.90431 11.9505 7.90431 11.8714 7.95182L8.30668 10.0906L12.0032 12.1439L12.2398 12.0146C12.6037 11.8156 13.0965 11.5456 13.6122 11.2617C14.3859 10.8357 15.1952 10.387 15.7037 10.0968L12.1286 7.95182ZM16.25 11.5115C15.7234 11.8094 15.0041 12.2077 14.3356 12.5757C13.8183 12.8605 13.3242 13.1312 12.9594 13.3307L12.75 13.4451V16.6754L16.1286 14.6482C16.2039 14.603 16.25 14.5216 16.25 14.4338V11.5115ZM11.25 16.6754V13.4414L7.75 11.4973V14.4338C7.75 14.5216 7.79607 14.603 7.87138 14.6482L11.25 16.6754ZM11.0996 6.66558C11.6538 6.33306 12.3462 6.33306 12.9004 6.66558L16.9004 9.06558C17.4275 9.38184 17.75 9.95148 17.75 10.5662V14.4338C17.75 15.0485 17.4275 15.6182 16.9004 15.9344L12.9004 18.3344C12.3462 18.6669 11.6538 18.6669 11.0996 18.3344L7.09963 15.9344C6.57252 15.6182 6.25 15.0485 6.25 14.4338V10.5662C6.25 9.95148 6.57252 9.38184 7.09963 9.06558L11.0996 6.66558ZM3 17.25C3.41421 17.25 3.75 17.5858 3.75 18V20.25H6C6.41421 20.25 6.75 20.5858 6.75 21C6.75 21.4142 6.41421 21.75 6 21.75H3C2.58579 21.75 2.25 21.4142 2.25 21V18C2.25 17.5858 2.58579 17.25 3 17.25ZM21 17.25C21.4142 17.25 21.75 17.5858 21.75 18V21C21.75 21.4142 21.4142 21.75 21 21.75H18C17.5858 21.75 17.25 21.4142 17.25 21C17.25 20.5858 17.5858 20.25 18 20.25H20.25V18C20.25 17.5858 20.5858 17.25 21 17.25Z" fill="black"/>
</g>
</g>
</g>
<defs>
<clipPath id="clip0_232_758">
<rect width="24" height="24" rx="5" fill="white"/>
</clipPath>
</defs>
</svg>
