<svg width="24" height="24" viewBox="0 0 24 24" fill="none" xmlns="http://www.w3.org/2000/svg">
<g id="cube">
<g clip-path="url(#clip0_232_426)">
<g id="Weight=Dynamic">
<path id="Vector (Stroke)" fill-rule="evenodd" clip-rule="evenodd" d="M11.3444 1.50625C11.7521 1.27974 12.2479 1.27974 12.6556 1.50625L12.2914 2.16187L12.6556 1.50625L21.0556 6.17292C21.4842 6.41102 21.75 6.86276 21.75 7.35303L21.75 16.6469C21.75 17.1372 21.4842 17.589 21.0556 17.8271L12.6556 22.4937C12.2479 22.7202 11.7521 22.7202 11.3444 22.4937L2.9444 17.8271C2.51582 17.589 2.25002 17.1372 2.25002 16.6469L2.25 7.35303C2.25 6.86276 2.5158 6.41102 2.94438 6.17292L11.3444 1.50625L11.7086 2.16187L11.3444 1.50625ZM12 2.85796L4.54436 6.99998L12 11.142L19.4557 6.99999L12 2.85796ZM20.25 8.27464L20.25 16.5587L12.75 20.7254V12.4413L20.25 8.27464ZM11.25 12.4413L3.75 8.27461L3.75002 16.5587L11.25 20.7254V12.4413Z" fill="black"/>
</g>
</g>
</g>
<defs>
<clipPath id="clip0_232_426">
<rect width="24" height="24" rx="5" fill="white"/>
</clipPath>
</defs>
</svg>
