<svg width="24" height="24" viewBox="0 0 24 24" fill="none" xmlns="http://www.w3.org/2000/svg">
<g id="cube-cut-with-curve">
<g clip-path="url(#clip0_232_879)">
<g id="Weight=Dynamic">
<path id="Vector (Stroke)" fill-rule="evenodd" clip-rule="evenodd" d="M19.25 2C19.25 1.58579 19.5858 1.25 20 1.25H22C22.4142 1.25 22.75 1.58579 22.75 2C22.75 2.41421 22.4142 2.75 22 2.75H20C19.5858 2.75 19.25 2.41421 19.25 2ZM12.6556 1.50626L15.0079 2.81309C15.6952 2.3348 16.4544 1.95259 17.2658 1.68588C17.6593 1.55654 18.0832 1.77069 18.2125 2.16419C18.3419 2.5577 18.1277 2.98154 17.7342 3.11088C17.0168 3.34668 16.3489 3.69141 15.75 4.12547V12.3499C16.2294 12.083 16.7365 11.8599 17.2658 11.6859C17.6593 11.5565 18.0832 11.7707 18.2125 12.1642C18.3419 12.5577 18.1277 12.9815 17.7342 13.1109C14.8389 14.0625 12.75 16.7883 12.75 20L12.75 20.0015V21C12.75 21.4142 12.4142 21.75 12 21.75C11.9049 21.75 11.814 21.7323 11.7302 21.7C11.1858 21.9911 10.5029 22.0262 9.88747 21.6843L2.9444 17.8271C2.51582 17.589 2.25002 17.1372 2.25002 16.647L2.25 7.35304C2.25 6.86277 2.5158 6.41103 2.94438 6.17293M11.25 20V12.4413L3.75 8.27452L3.75002 16.5587L10.6159 20.3731C10.9001 20.531 11.2494 20.3249 11.25 20ZM3.67286 16.5158C3.67274 16.5158 3.67298 16.5159 3.67286 16.5158V16.5158ZM9.37345 9.68279L11.25 10.7253V10C11.25 7.60032 12.2158 5.42696 13.7794 3.84654L12 2.85797L4.54446 6.99994L9.36425 9.67759C9.36733 9.6793 9.3704 9.68104 9.37345 9.68279ZM14.25 5.58343C13.3092 6.80658 12.75 8.33824 12.75 10V15.0995C13.1754 14.4715 13.6802 13.9017 14.25 13.4046V5.58343ZM12.6556 1.50626C12.2479 1.27975 11.7521 1.27975 11.3444 1.50626H12.6556ZM11.3444 1.50626L11.706 2.15714L11.3444 1.50626ZM2.94438 6.17293L11.3444 1.50626L11.706 2.15714M19.25 12C19.25 11.5858 19.5858 11.25 20 11.25H22C22.4142 11.25 22.75 11.5858 22.75 12C22.75 12.4142 22.4142 12.75 22 12.75H20C19.5858 12.75 19.25 12.4142 19.25 12Z" fill="black"/>
</g>
</g>
</g>
<defs>
<clipPath id="clip0_232_879">
<rect width="24" height="24" rx="5" fill="white"/>
</clipPath>
</defs>
</svg>
