<svg width="24" height="24" viewBox="0 0 24 24" fill="none" xmlns="http://www.w3.org/2000/svg">
<g id="cube-replace-face">
<g clip-path="url(#clip0_232_793)">
<g id="Weight=Dynamic" clip-path="url(#clip1_232_793)">
<path id="Vector (Stroke)" fill-rule="evenodd" clip-rule="evenodd" d="M10.0613 1.07481C10.4511 0.508742 11.239 0.271096 11.89 0.650829L22.8534 7.04614C23.4936 7.41961 23.7425 8.28058 23.2873 8.93909C21.7108 11.22 19.8676 11.7466 18.2261 12.2155L18.2013 12.2226C16.6009 12.6799 15.2046 13.0876 13.9391 14.9253C13.5493 15.4914 12.7614 15.729 12.1104 15.3493L1.14699 8.95396C0.506748 8.58049 0.257916 7.71952 0.713061 7.06101C2.28956 4.78012 4.13276 4.25354 5.77427 3.78459L5.79906 3.7775C7.39951 3.32023 8.79578 2.91247 10.0613 1.07481L10.679 1.50018L10.6851 1.50439M10.0613 1.07481L10.679 1.50018L10.0613 1.07481ZM11.1344 1.94663L11.1342 1.9465L11.1895 1.85174L11.1342 1.9465C11.1343 1.94654 11.1343 1.94658 11.1344 1.94663ZM11.2394 2.00784L21.938 8.24872C20.7028 9.94225 19.3427 10.3365 17.7892 10.7803L17.7746 10.7845C16.1489 11.249 14.3268 11.7695 12.761 13.9923L2.06237 7.75138C3.29762 6.05785 4.65766 5.66364 6.21114 5.21979L6.22576 5.21561C7.85148 4.75114 9.67355 4.23056 11.2394 2.00784ZM12.8662 14.0536L12.8659 14.0534L12.8662 14.0536ZM5.00019 12.25C5.41441 12.25 5.7502 12.5858 5.7502 13L5.75021 18.5648L11.2502 21.7077V17C11.2502 16.5858 11.586 16.25 12.0002 16.25C12.4144 16.25 12.7502 16.5858 12.7502 17V21.7077L18.2502 18.5648V13.5C18.2502 13.0858 18.586 12.75 19.0002 12.75C19.4144 12.75 19.7502 13.0858 19.7502 13.5V18.6519C19.7502 19.1363 19.4906 19.5836 19.07 19.824L12.67 23.4811C12.255 23.7183 11.7455 23.7183 11.3304 23.4811L4.93043 19.824C4.50979 19.5836 4.25021 19.1363 4.25021 18.6519L4.2502 13.0001C4.2502 12.5858 4.58598 12.2501 5.00019 12.25ZM5.67496 18.5218C5.67485 18.5217 5.67474 18.5217 5.67463 18.5216L5.60021 18.6519L5.67463 18.5216L5.67496 18.5218Z" fill="black"/>
</g>
</g>
</g>
<defs>
<clipPath id="clip0_232_793">
<rect width="24" height="24" rx="5" fill="white"/>
</clipPath>
<clipPath id="clip1_232_793">
<rect width="24" height="24" fill="white"/>
</clipPath>
</defs>
</svg>
