<svg width="24" height="24" viewBox="0 0 24 24" fill="none" xmlns="http://www.w3.org/2000/svg">
<g id="curve-array">
<g clip-path="url(#clip0_232_823)">
<g id="Weight=Dynamic">
<path id="Vector (Stroke)" fill-rule="evenodd" clip-rule="evenodd" d="M16.25 4.5C16.25 2.70507 17.7051 1.25 19.5 1.25C21.2949 1.25 22.75 2.70507 22.75 4.5C22.75 6.29493 21.2949 7.75 19.5 7.75C17.7051 7.75 16.25 6.29493 16.25 4.5ZM19.5 2.75C18.5335 2.75 17.75 3.5335 17.75 4.5C17.75 5.4665 18.5335 6.25 19.5 6.25C20.4665 6.25 21.25 5.4665 21.25 4.5C21.25 3.5335 20.4665 2.75 19.5 2.75ZM14.6741 5.96718C14.8557 6.33949 14.701 6.78848 14.3287 6.97002C13.6628 7.29473 13.0251 7.66187 12.4185 8.06835C12.6308 8.50029 12.75 8.98622 12.75 9.5C12.75 11.2949 11.2949 12.75 9.5 12.75C7.70507 12.75 6.25 11.2949 6.25 9.5C6.25 7.70507 7.70507 6.25 9.5 6.25C10.2357 6.25 10.9142 6.49443 11.4589 6.9065C12.1596 6.42819 12.8984 5.99863 13.6713 5.62176C14.0436 5.44022 14.4926 5.59487 14.6741 5.96718ZM9.5 7.75C8.5335 7.75 7.75 8.5335 7.75 9.5C7.75 10.4665 8.5335 11.25 9.5 11.25C10.4665 11.25 11.25 10.4665 11.25 9.5C11.25 8.5335 10.4665 7.75 9.5 7.75ZM6.6246 13.3259C6.99691 13.5074 7.15156 13.9564 6.97002 14.3287C6.61019 15.0667 6.30235 15.8395 6.05079 16.6432C7.06299 17.1938 7.75 18.2667 7.75 19.5C7.75 21.2949 6.29493 22.75 4.5 22.75C2.70507 22.75 1.25 21.2949 1.25 19.5C1.25 17.7051 2.70507 16.25 4.5 16.25C4.53402 16.25 4.56792 16.2505 4.60169 16.2516C4.87876 15.3563 5.22032 14.4946 5.62176 13.6713C5.8033 13.299 6.25229 13.1443 6.6246 13.3259ZM4.5 17.75C3.5335 17.75 2.75 18.5335 2.75 19.5C2.75 20.4665 3.5335 21.25 4.5 21.25C5.4665 21.25 6.25 20.4665 6.25 19.5C6.25 18.5335 5.4665 17.75 4.5 17.75Z" fill="black"/>
</g>
</g>
</g>
<defs>
<clipPath id="clip0_232_823">
<rect width="24" height="24" rx="5" fill="white"/>
</clipPath>
</defs>
</svg>
