<svg width="24" height="24" viewBox="0 0 24 24" fill="none" xmlns="http://www.w3.org/2000/svg">
<g id="cut">
<g clip-path="url(#clip0_232_4484)">
<g id="Weight=Dynamic">
<path id="Vector (Stroke)" fill-rule="evenodd" clip-rule="evenodd" d="M4 2.75C2.75736 2.75 1.75 3.75736 1.75 5C1.75 6.24264 2.75736 7.25 4 7.25C4.6663 7.25 5.26419 6.96133 5.67726 6.49981C6.03398 6.10125 6.25 5.57675 6.25 5C6.25 3.75736 5.24264 2.75 4 2.75ZM0.25 5C0.25 2.92893 1.92893 1.25 4 1.25C6.07107 1.25 7.75 2.92893 7.75 5C7.75 5.68453 7.56609 6.32702 7.2454 6.87973L12.0379 11.0099L18.5104 5.43187C18.8242 5.16146 19.2977 5.19661 19.5681 5.51038C19.8385 5.82415 19.8034 6.29772 19.4896 6.56813L13.1867 12L19.4896 17.4319C19.8034 17.7023 19.8385 18.1758 19.5681 18.4896C19.2977 18.8034 18.8242 18.8385 18.5104 18.5681L12.0379 12.9901L7.2454 17.1203C7.56609 17.673 7.75 18.3155 7.75 19C7.75 21.0711 6.07107 22.75 4 22.75C1.92893 22.75 0.25 21.0711 0.25 19C0.25 16.9289 1.92893 15.25 4 15.25C4.84359 15.25 5.62257 15.5291 6.24882 15.999L10.889 12L6.24882 8.00105C5.62257 8.4709 4.84359 8.75 4 8.75C1.92893 8.75 0.25 7.07107 0.25 5ZM16.25 12C16.25 11.5858 16.5858 11.25 17 11.25H18C18.4142 11.25 18.75 11.5858 18.75 12C18.75 12.4142 18.4142 12.75 18 12.75H17C16.5858 12.75 16.25 12.4142 16.25 12ZM21.25 12C21.25 11.5858 21.5858 11.25 22 11.25H23C23.4142 11.25 23.75 11.5858 23.75 12C23.75 12.4142 23.4142 12.75 23 12.75H22C21.5858 12.75 21.25 12.4142 21.25 12ZM4 16.75C2.75736 16.75 1.75 17.7574 1.75 19C1.75 20.2426 2.75736 21.25 4 21.25C5.24264 21.25 6.25 20.2426 6.25 19C6.25 18.4233 6.03398 17.8988 5.67726 17.5002C5.26419 17.0387 4.6663 16.75 4 16.75Z" fill="black"/>
</g>
</g>
</g>
<defs>
<clipPath id="clip0_232_4484">
<rect width="24" height="24" rx="5" fill="white"/>
</clipPath>
</defs>
</svg>
