<svg width="24" height="24" viewBox="0 0 24 24" fill="none" xmlns="http://www.w3.org/2000/svg">
<g id="cutlery">
<g clip-path="url(#clip0_232_8000)">
<g id="Weight=Dynamic">
<path id="Vector (Stroke)" fill-rule="evenodd" clip-rule="evenodd" d="M3.77333 4.31341C3.8585 3.98182 4.1574 3.75 4.49975 3.75H13.4997C13.8421 3.75 14.141 3.98182 14.2262 4.31341L13.4997 4.5C14.2262 4.31341 14.2261 4.31324 14.2262 4.31341L14.2266 4.31524L14.2275 4.3186L14.2303 4.32987L14.2403 4.37007C14.2487 4.40453 14.2605 4.45409 14.275 4.51726C14.304 4.64355 14.3437 4.82454 14.3875 5.04816C14.4751 5.49449 14.5804 6.11539 14.6508 6.8132C14.7872 8.16592 14.8118 9.97121 14.1785 11.319C13.5927 12.5658 12.3309 13.6596 11.3187 14.4026C10.7968 14.7857 10.309 15.0983 9.95172 15.3153C9.87894 15.3595 9.81141 15.3998 9.74994 15.4361V19.25H11.9999C12.4142 19.25 12.7499 19.5858 12.7499 20C12.7499 20.4142 12.4142 20.75 11.9999 20.75H5.99995C5.58573 20.75 5.24995 20.4142 5.24995 20C5.24995 19.5858 5.58573 19.25 5.99995 19.25H8.24994V15.4361C8.18847 15.3999 8.12093 15.3595 8.04813 15.3153C7.69082 15.0984 7.20298 14.7857 6.68105 14.4026C5.6687 13.6596 4.40681 12.5658 3.82095 11.319C3.18767 9.97121 3.21228 8.16592 3.34872 6.8132C3.4191 6.11539 3.52441 5.49449 3.61197 5.04816C3.65584 4.82454 3.69549 4.64355 3.72448 4.51726C3.73899 4.45409 3.75084 4.40453 3.75924 4.37007L3.76917 4.32987L3.77201 4.3186L3.77286 4.31524L3.77333 4.31341C3.77337 4.31324 3.77333 4.31341 4.49975 4.5L3.77333 4.31341ZM5.1012 5.25C5.09554 5.2781 5.08977 5.30709 5.08391 5.33693C5.0028 5.75038 4.9057 6.32372 4.84114 6.96373C4.70771 8.28666 4.73231 9.73136 5.17855 10.681C5.59262 11.5623 6.58083 12.4684 7.56859 13.1934C8.04672 13.5443 8.49644 13.8327 8.82667 14.0332C8.88903 14.071 8.94698 14.1057 8.99992 14.137C9.05285 14.1057 9.11079 14.0711 9.17312 14.0332C9.50332 13.8327 9.95299 13.5443 10.4311 13.1934C11.4187 12.4685 12.4069 11.5623 12.8209 10.681C13.2672 9.73136 13.2918 8.28666 13.1584 6.96373C13.0938 6.32372 12.9967 5.75038 12.9156 5.33693C12.9097 5.30709 12.904 5.2781 12.8983 5.25H5.1012ZM16.9999 3.75C17.4142 3.75 17.7499 4.08579 17.7499 4.5V8.5C17.7499 8.91421 17.4142 9.25 16.9999 9.25C16.5857 9.25 16.2499 8.91421 16.2499 8.5V4.5C16.2499 4.08579 16.5857 3.75 16.9999 3.75ZM19.4999 3.75C19.9142 3.75 20.2499 4.08579 20.2499 4.5V9C20.2499 10.3362 19.4148 11.2786 18.7185 11.8357C18.3633 12.1198 18.0121 12.3307 17.7499 12.4708V20C17.7499 20.4142 17.4142 20.75 16.9999 20.75C16.5857 20.75 16.2499 20.4142 16.2499 20V12C16.2499 11.694 16.4359 11.4187 16.7196 11.3043C16.7202 11.3041 16.7208 11.3039 16.7214 11.3036L16.9999 12C16.7214 11.3036 16.7216 11.3036 16.7214 11.3036L16.7337 11.2984C16.7465 11.293 16.7675 11.2838 16.7955 11.271C16.8518 11.2453 16.9356 11.2052 17.0376 11.1507C17.2436 11.0409 17.5145 10.8779 17.7814 10.6643C18.3351 10.2214 18.7499 9.66383 18.7499 9V4.5C18.7499 4.08579 19.0857 3.75 19.4999 3.75Z" fill="black"/>
</g>
</g>
</g>
<defs>
<clipPath id="clip0_232_8000">
<rect width="24" height="24" rx="5" fill="white"/>
</clipPath>
</defs>
</svg>
