<svg width="24" height="24" viewBox="0 0 24 24" fill="none" xmlns="http://www.w3.org/2000/svg">
<g id="cycling">
<g clip-path="url(#clip0_232_2208)">
<g id="Weight=Dynamic">
<path id="Vector (Stroke)" fill-rule="evenodd" clip-rule="evenodd" d="M14 3.75C13.3096 3.75 12.75 4.30964 12.75 5C12.75 5.69036 13.3096 6.25 14 6.25C14.6904 6.25 15.25 5.69036 15.25 5C15.25 4.30964 14.6904 3.75 14 3.75ZM11.25 5C11.25 3.48122 12.4812 2.25 14 2.25C15.5188 2.25 16.75 3.48122 16.75 5C16.75 6.51878 15.5188 7.75 14 7.75C12.4812 7.75 11.25 6.51878 11.25 5ZM10.5485 8.01188C10.8155 7.70049 11.283 7.66127 11.5981 7.92384L14.3895 10.25H17.6179C18.0321 10.25 18.3679 10.5858 18.3679 11C18.3679 11.4142 18.0321 11.75 17.6179 11.75H14.1179C13.9425 11.75 13.7726 11.6885 13.6378 11.5762L11.206 9.54966L9.363 11.6996L13.2843 13.3059C13.6595 13.4596 13.8446 13.8836 13.7022 14.2633L12.2022 18.2633C12.0568 18.6511 11.6245 18.8476 11.2367 18.7022C10.8488 18.5567 10.6523 18.1244 10.7978 17.7366L12.0422 14.4181L7.83337 12.694C7.61051 12.6027 7.44505 12.4099 7.38858 12.1758C7.33211 11.9417 7.39152 11.6947 7.54826 11.5118L10.5485 8.01188ZM6 15.75C4.75736 15.75 3.75 16.7574 3.75 18C3.75 19.2426 4.75736 20.25 6 20.25C7.24264 20.25 8.25 19.2426 8.25 18C8.25 16.7574 7.24264 15.75 6 15.75ZM2.25 18C2.25 15.9289 3.92893 14.25 6 14.25C8.07107 14.25 9.75 15.9289 9.75 18C9.75 20.0711 8.07107 21.75 6 21.75C3.92893 21.75 2.25 20.0711 2.25 18ZM18 15.75C16.7574 15.75 15.75 16.7574 15.75 18C15.75 19.2426 16.7574 20.25 18 20.25C19.2426 20.25 20.25 19.2426 20.25 18C20.25 16.7574 19.2426 15.75 18 15.75ZM14.25 18C14.25 15.9289 15.9289 14.25 18 14.25C20.0711 14.25 21.75 15.9289 21.75 18C21.75 20.0711 20.0711 21.75 18 21.75C15.9289 21.75 14.25 20.0711 14.25 18Z" fill="black"/>
</g>
</g>
</g>
<defs>
<clipPath id="clip0_232_2208">
<rect width="24" height="24" rx="5" fill="white"/>
</clipPath>
</defs>
</svg>
