<svg width="24" height="24" viewBox="0 0 24 24" fill="none" xmlns="http://www.w3.org/2000/svg">
<g id="cylinder">
<g clip-path="url(#clip0_232_542)">
<g id="Weight=Dynamic">
<path id="Vector (Stroke)" fill-rule="evenodd" clip-rule="evenodd" d="M4.55 2.9C5.73705 2.00972 7.92788 1.25 12 1.25C16.0721 1.25 18.263 2.00972 19.45 2.9C20.0507 3.35054 20.3826 3.8266 20.5604 4.22665C20.6481 4.42413 20.6956 4.59695 20.7211 4.73076C20.7339 4.79756 20.7411 4.85452 20.7451 4.8999C20.7471 4.9226 20.7483 4.94242 20.7491 4.95917L20.7498 4.98196L20.75 4.99158L20.75 4.99594L20.75 4.99801C20.75 4.99901 20.75 5 20 5H20.75V19H20C20.75 19 20.75 19.001 20.75 19.002L20.75 19.0041L20.75 19.0084L20.7498 19.018L20.7491 19.0408C20.7483 19.0576 20.7471 19.0774 20.7451 19.1001C20.7411 19.1455 20.7339 19.2024 20.7211 19.2692C20.6956 19.4031 20.6481 19.5759 20.5604 19.7734C20.3826 20.1734 20.0507 20.6495 19.45 21.1C18.263 21.9903 16.0721 22.75 12 22.75C7.92788 22.75 5.73705 21.9903 4.55 21.1C3.94928 20.6495 3.61744 20.1734 3.43964 19.7734C3.35187 19.5759 3.30436 19.4031 3.27887 19.2692C3.26615 19.2024 3.25893 19.1455 3.2549 19.1001C3.25288 19.0774 3.25166 19.0576 3.25094 19.0408L3.2502 19.018L3.25005 19.0084L3.25001 19.0041L3.25 19.002C3.25 19.001 3.25 19 4 19H3.25V5H4C3.25 5 3.25 4.99901 3.25 4.99801L3.25001 4.99594L3.25005 4.99158L3.2502 4.98196L3.25094 4.95917C3.25166 4.94242 3.25288 4.9226 3.2549 4.8999C3.25893 4.85452 3.26615 4.79756 3.27887 4.73076C3.30436 4.59695 3.35187 4.42413 3.43964 4.22665C3.61744 3.8266 3.94928 3.35054 4.55 2.9ZM4.7547 5C4.76181 4.967 4.77733 4.91016 4.81036 4.83585C4.88256 4.6734 5.05072 4.39946 5.45 4.1C6.26295 3.49028 8.07212 2.75 12 2.75C15.9279 2.75 17.737 3.49028 18.55 4.1C18.9493 4.39946 19.1174 4.6734 19.1896 4.83585C19.2227 4.91016 19.2382 4.967 19.2453 5C19.2382 5.033 19.2227 5.08984 19.1896 5.16415C19.1174 5.3266 18.9493 5.60054 18.55 5.9C17.737 6.50972 15.9279 7.25 12 7.25C8.07212 7.25 6.26295 6.50972 5.45 5.9C5.05072 5.60054 4.88256 5.3266 4.81036 5.16415C4.77733 5.08984 4.76181 5.033 4.7547 5ZM4.75 7.24216V16.7578C5.97771 15.9303 8.1465 15.25 12 15.25C15.8535 15.25 18.0223 15.9303 19.25 16.7578V7.24216C18.0223 8.06967 15.8535 8.75 12 8.75C8.1465 8.75 5.97771 8.06967 4.75 7.24216ZM4.7547 19C4.76181 19.033 4.77733 19.0898 4.81036 19.1641C4.88256 19.3266 5.05072 19.6005 5.45 19.9C6.26295 20.5097 8.07212 21.25 12 21.25C15.9279 21.25 17.737 20.5097 18.55 19.9C18.9493 19.6005 19.1174 19.3266 19.1896 19.1641C19.2227 19.0898 19.2382 19.033 19.2453 19C19.2382 18.967 19.2227 18.9102 19.1896 18.8359C19.1174 18.6734 18.9493 18.3995 18.55 18.1C17.737 17.4903 15.9279 16.75 12 16.75C8.07212 16.75 6.26295 17.4903 5.45 18.1C5.05072 18.3995 4.88256 18.6734 4.81036 18.8359C4.77733 18.9102 4.76181 18.967 4.7547 19Z" fill="black"/>
</g>
</g>
</g>
<defs>
<clipPath id="clip0_232_542">
<rect width="24" height="24" rx="5" fill="white"/>
</clipPath>
</defs>
</svg>
