<svg width="24" height="24" viewBox="0 0 24 24" fill="none" xmlns="http://www.w3.org/2000/svg">
<g id="dash-flag">
<g clip-path="url(#clip0_232_12223)">
<g id="Weight=Dynamic">
<path id="Vector (Stroke)" fill-rule="evenodd" clip-rule="evenodd" d="M5.20343 4.47778C5.26665 3.78242 5.84966 3.25 6.54789 3.25H20.3429C21.1368 3.25 21.7593 3.93164 21.6874 4.72222L20.7965 14.5222C20.7333 15.2176 20.1503 15.75 19.452 15.75H5.6787L5.14624 21.0746C5.10502 21.4868 4.73749 21.7875 4.32533 21.7463C3.91317 21.7051 3.61246 21.3375 3.65368 20.9254L4.25335 14.9287L5.20343 4.47778ZM5.82123 14.25H19.315L20.1787 4.75H6.68487L5.82123 14.25ZM8.34878 7.1279C8.55428 6.76826 9.01242 6.64331 9.37206 6.84882L16.3721 10.8488C16.7317 11.0543 16.8566 11.5125 16.6511 11.8721C16.4456 12.2317 15.9875 12.3567 15.6279 12.1512L8.62785 8.15118C8.26822 7.94567 8.14327 7.48753 8.34878 7.1279Z" fill="black"/>
</g>
</g>
</g>
<defs>
<clipPath id="clip0_232_12223">
<rect width="24" height="24" rx="5" fill="white"/>
</clipPath>
</defs>
</svg>
