<svg width="24" height="24" viewBox="0 0 24 24" fill="none" xmlns="http://www.w3.org/2000/svg">
<g id="dashboard">
<g clip-path="url(#clip0_232_14432)">
<g id="Weight=Dynamic">
<path id="Vector (Stroke)" fill-rule="evenodd" clip-rule="evenodd" d="M12 3.25C12.4142 3.25 12.75 3.58579 12.75 4V8C12.75 8.41421 12.4142 8.75 12 8.75C11.5858 8.75 11.25 8.41421 11.25 8V4C11.25 3.58579 11.5858 3.25 12 3.25ZM21.0303 6.96967C21.3232 7.26256 21.3232 7.73744 21.0303 8.03033L18.0303 11.0303C17.7374 11.3232 17.2626 11.3232 16.9697 11.0303C16.6768 10.7374 16.6768 10.2626 16.9697 9.96967L19.9697 6.96967C20.2626 6.67678 20.7374 6.67678 21.0303 6.96967ZM2.96967 6.96967C3.26256 6.67678 3.73744 6.67678 4.03033 6.96967L7.03033 9.96967C7.32322 10.2626 7.32322 10.7374 7.03033 11.0303C6.73744 11.3232 6.26256 11.3232 5.96967 11.0303L2.96967 8.03033C2.67678 7.73744 2.67678 7.26256 2.96967 6.96967ZM12.5332 10.4726L12 11L11.4668 10.4726L12 9.93355L12.5332 10.4726ZM12 12.1022C11.7404 12.3938 11.4172 12.7733 11.0954 13.1933C10.734 13.6652 10.3862 14.1729 10.132 14.6545C9.86823 15.1543 9.75 15.5434 9.75 15.8C9.75 17.1994 10.8022 18.25 12 18.25C13.1978 18.25 14.25 17.1994 14.25 15.8C14.25 15.5434 14.1318 15.1543 13.868 14.6545C13.6138 14.1729 13.266 13.6652 12.9046 13.1933C12.5828 12.7733 12.2596 12.3938 12 12.1022ZM12 11C11.4668 10.4726 11.4669 10.4725 11.4668 10.4726L11.4634 10.476L11.4557 10.4838L11.4281 10.5122C11.4043 10.5367 11.3702 10.572 11.3273 10.6173C11.2414 10.7077 11.1197 10.8379 10.9742 10.9992C10.684 11.3211 10.2952 11.7712 9.90461 12.2812C9.51604 12.7884 9.11379 13.3702 8.80548 13.9543C8.50677 14.5202 8.25 15.173 8.25 15.8C8.25 17.9352 9.88407 19.75 12 19.75C14.1159 19.75 15.75 17.9352 15.75 15.8C15.75 15.173 15.4932 14.5202 15.1945 13.9543C14.8862 13.3702 14.484 12.7884 14.0954 12.2812C13.7048 11.7712 13.316 11.3211 13.0258 10.9992C12.8803 10.8379 12.7586 10.7077 12.6727 10.6173C12.6298 10.572 12.5957 10.5367 12.5719 10.5122L12.5443 10.4838L12.5366 10.476L12.5332 10.4726C12.5331 10.4725 12.5332 10.4726 12 11ZM1.25 17C1.25 16.5858 1.58579 16.25 2 16.25H6C6.41421 16.25 6.75 16.5858 6.75 17C6.75 17.4142 6.41421 17.75 6 17.75H2C1.58579 17.75 1.25 17.4142 1.25 17ZM17.25 17C17.25 16.5858 17.5858 16.25 18 16.25H22C22.4142 16.25 22.75 16.5858 22.75 17C22.75 17.4142 22.4142 17.75 22 17.75H18C17.5858 17.75 17.25 17.4142 17.25 17Z" fill="black"/>
</g>
</g>
</g>
<defs>
<clipPath id="clip0_232_14432">
<rect width="24" height="24" rx="5" fill="white"/>
</clipPath>
</defs>
</svg>
