<svg width="24" height="24" viewBox="0 0 24 24" fill="none" xmlns="http://www.w3.org/2000/svg">
<g id="dashboard-dots">
<g clip-path="url(#clip0_232_14468)">
<g id="Weight=Dynamic">
<path id="Vector (Stroke)" fill-rule="evenodd" clip-rule="evenodd" d="M12 4.75C6.89137 4.75 2.75 8.89137 2.75 14C2.75 15.9511 3.3533 17.7594 4.38378 19.251H8.32482C8.62985 17.7462 9.83591 16.5684 11.3555 16.3052L12.2602 10.8767C12.3283 10.4681 12.7147 10.1921 13.1233 10.2602C13.5319 10.3283 13.8079 10.7147 13.7398 11.1233L12.8685 16.3511C14.2813 16.6861 15.3848 17.8204 15.675 19.25L19.6163 19.2509C20.6467 17.7594 21.25 15.9511 21.25 14C21.25 8.89137 17.1086 4.75 12 4.75ZM15.675 20.75L19.9998 20.751C20.2357 20.751 20.4579 20.6401 20.5996 20.4515C21.9497 18.6546 22.75 16.4197 22.75 14C22.75 8.06294 17.9371 3.25 12 3.25C6.06294 3.25 1.25 8.06294 1.25 14C1.25 16.4197 2.05032 18.6546 3.40038 20.4515C3.54205 20.64 3.76415 20.751 4 20.751H8.32521C8.67304 22.4622 10.1861 23.75 12 23.75C13.8142 23.75 15.3275 22.4617 15.675 20.75ZM12.5117 6.44143C12.8196 6.71853 12.8446 7.19274 12.5675 7.50062L12.5575 7.51173C12.2804 7.81961 11.8061 7.84456 11.4983 7.56746C11.1904 7.29036 11.1654 6.81615 11.4425 6.50827L11.4525 6.49716C11.7296 6.18928 12.2039 6.16433 12.5117 6.44143ZM8.51173 8.44142C8.81961 8.71852 8.84456 9.19273 8.56747 9.50062L8.55747 9.51173C8.28037 9.81961 7.80616 9.84456 7.49827 9.56747C7.19039 9.29037 7.16544 8.81616 7.44253 8.50827L7.45253 8.49716C7.72963 8.18928 8.20385 8.16433 8.51173 8.44142ZM16.5117 8.44142C16.8196 8.71852 16.8446 9.19273 16.5675 9.50062L16.5575 9.51173C16.2804 9.81961 15.8062 9.84456 15.4983 9.56747C15.1904 9.29037 15.1654 8.81616 15.4425 8.50827L15.4525 8.49716C15.7296 8.18928 16.2038 8.16433 16.5117 8.44142ZM6.51173 12.4414C6.81961 12.7185 6.84456 13.1927 6.56747 13.5006L6.55747 13.5117C6.28037 13.8196 5.80616 13.8446 5.49827 13.5675C5.19039 13.2904 5.16544 12.8162 5.44253 12.5083L5.45253 12.4972C5.72963 12.1893 6.20385 12.1643 6.51173 12.4414ZM18.5117 12.4414C18.8196 12.7185 18.8446 13.1927 18.5675 13.5006L18.5575 13.5117C18.2804 13.8196 17.8062 13.8446 17.4983 13.5675C17.1904 13.2904 17.1654 12.8162 17.4425 12.5083L17.4525 12.4972C17.7296 12.1893 18.2038 12.1643 18.5117 12.4414ZM7.51173 16.4414C7.81961 16.7185 7.84456 17.1927 7.56747 17.5006L7.55747 17.5117C7.28037 17.8196 6.80616 17.8446 6.49827 17.5675C6.19039 17.2904 6.16544 16.8162 6.44253 16.5083L6.45253 16.4972C6.72963 16.1893 7.20385 16.1643 7.51173 16.4414ZM17.5117 16.4414C17.8196 16.7185 17.8446 17.1927 17.5675 17.5006L17.5575 17.5117C17.2804 17.8196 16.8062 17.8446 16.4983 17.5675C16.1904 17.2904 16.1654 16.8162 16.4425 16.5083L16.4525 16.4972C16.7296 16.1893 17.2038 16.1643 17.5117 16.4414ZM12 17.75C10.7574 17.75 9.75 18.7574 9.75 20C9.75 21.2426 10.7574 22.25 12 22.25C13.2426 22.25 14.25 21.2426 14.25 20C14.25 18.7574 13.2426 17.75 12 17.75Z" fill="black"/>
</g>
</g>
</g>
<defs>
<clipPath id="clip0_232_14468">
<rect width="24" height="24" rx="5" fill="white"/>
</clipPath>
</defs>
</svg>
