<svg width="24" height="24" viewBox="0 0 24 24" fill="none" xmlns="http://www.w3.org/2000/svg">
<g id="dashboard-speed">
<g clip-path="url(#clip0_232_14448)">
<g id="Weight=Dynamic">
<path id="Vector (Stroke)" fill-rule="evenodd" clip-rule="evenodd" d="M4.10952 9.17018C3.24718 10.576 2.75 12.2299 2.75 14C2.75 14.7763 2.84549 15.5299 3.02539 16.25H6C6.41421 16.25 6.75 16.5858 6.75 17C6.75 17.4142 6.41421 17.75 6 17.75H3.54149C3.77604 18.2782 4.05865 18.7804 4.38378 19.251H8.32482C8.62985 17.7462 9.83591 16.5684 11.3555 16.3052L12.2602 10.8767C12.3283 10.4681 12.7147 10.1921 13.1233 10.2602C13.5319 10.3283 13.8079 10.7147 13.7398 11.1233L12.8685 16.3511C14.2813 16.6861 15.3848 17.8204 15.675 19.25L19.6163 19.2509C19.9414 18.7803 20.224 18.2782 20.4585 17.75H18C17.5858 17.75 17.25 17.4142 17.25 17C17.25 16.5858 17.5858 16.25 18 16.25H20.9746C21.1545 15.5299 21.25 14.7763 21.25 14C21.25 12.2299 20.7528 10.576 19.8905 9.17018L18.0303 11.0303C17.7374 11.3232 17.2626 11.3232 16.9697 11.0303C16.6768 10.7374 16.6768 10.2626 16.9697 9.96967L18.9936 7.94571C17.4509 6.16515 15.2395 4.97972 12.75 4.77997V8C12.75 8.41421 12.4142 8.75 12 8.75C11.5858 8.75 11.25 8.41421 11.25 8V4.77997C8.76052 4.97972 6.54913 6.16515 5.00637 7.94571L7.03033 9.96967C7.32322 10.2626 7.32322 10.7374 7.03033 11.0303C6.73744 11.3232 6.26256 11.3232 5.96967 11.0303L4.10952 9.17018ZM15.675 20.75L19.9998 20.751C20.2357 20.751 20.4579 20.6401 20.5996 20.4515C21.9497 18.6546 22.75 16.4197 22.75 14C22.75 8.06294 17.9371 3.25 12 3.25C6.06294 3.25 1.25 8.06294 1.25 14C1.25 16.4197 2.05032 18.6546 3.40038 20.4515C3.54205 20.64 3.76415 20.751 4 20.751H8.32521C8.67304 22.4622 10.1861 23.75 12 23.75C13.8142 23.75 15.3275 22.4617 15.675 20.75ZM12 17.75C10.7574 17.75 9.75 18.7574 9.75 20C9.75 21.2426 10.7574 22.25 12 22.25C13.2426 22.25 14.25 21.2426 14.25 20C14.25 18.7574 13.2426 17.75 12 17.75Z" fill="black"/>
</g>
</g>
</g>
<defs>
<clipPath id="clip0_232_14448">
<rect width="24" height="24" rx="5" fill="white"/>
</clipPath>
</defs>
</svg>
