<svg width="24" height="24" viewBox="0 0 24 24" fill="none" xmlns="http://www.w3.org/2000/svg">
<g id="database-backup">
<g clip-path="url(#clip0_232_3987)">
<g id="Weight=Dynamic">
<path id="Vector (Stroke)" fill-rule="evenodd" clip-rule="evenodd" d="M4.38691 3.93056C5.453 3.01677 7.41026 2.25 11 2.25C14.5897 2.25 16.547 3.01677 17.6131 3.93056C18.1488 4.38974 18.4377 4.86876 18.5896 5.25942C18.6648 5.45261 18.7048 5.62009 18.7261 5.74779C18.7368 5.81164 18.7427 5.86565 18.746 5.90815C18.7477 5.92941 18.7487 5.94782 18.7493 5.96319L18.7498 5.98394L18.75 5.99256L18.75 5.99643L18.75 5.99825C18.75 5.99913 18.75 6 18 6H18.75V12C18.75 12.4142 18.4142 12.75 18 12.75C17.5858 12.75 17.25 12.4142 17.25 12V8.34958C16.1214 9.13469 14.2157 9.75 11 9.75C7.78428 9.75 5.87858 9.13469 4.75 8.34958V11.9811C4.75056 11.9862 4.7516 11.9944 4.75347 12.0056C4.75953 12.042 4.77414 12.1089 4.80838 12.1969C4.87521 12.3688 5.02381 12.6397 5.36309 12.9306C6.047 13.5168 7.58974 14.25 11 14.25C11.5745 14.25 12.097 14.2292 12.5721 14.1915C12.985 14.1588 13.3463 14.467 13.379 14.8799C13.4117 15.2928 13.1035 15.6541 12.6906 15.6868C12.1728 15.7279 11.6106 15.75 11 15.75C7.78428 15.75 5.87858 15.1347 4.75 14.3496V17.9811C4.75056 17.9862 4.7516 17.9944 4.75347 18.0056C4.75953 18.042 4.77414 18.1089 4.80838 18.1969C4.87521 18.3688 5.02381 18.6397 5.36309 18.9306C6.047 19.5168 7.58974 20.25 11 20.25C11.4142 20.25 11.75 20.5858 11.75 21C11.75 21.4142 11.4142 21.75 11 21.75C7.41026 21.75 5.453 20.9832 4.38691 20.0694C3.85119 19.6103 3.56229 19.1312 3.41037 18.7406C3.33524 18.5474 3.29516 18.3799 3.27388 18.2522C3.26324 18.1884 3.25727 18.1343 3.25397 18.0918C3.25231 18.0706 3.25132 18.0522 3.25074 18.0368L3.25016 18.0161L3.25003 18.0074L3.25001 18.0036L3.25 18.0017C3.25 18.0009 3.25 18 4 18H3.25V6H4C3.25 6 3.25 5.99913 3.25 5.99825L3.25001 5.99643L3.25003 5.99256L3.25016 5.98394L3.25074 5.96319C3.25132 5.94782 3.25231 5.92941 3.25397 5.90815C3.25727 5.86565 3.26324 5.81164 3.27388 5.74779C3.29516 5.62009 3.33524 5.45261 3.41037 5.25942C3.56229 4.86876 3.85119 4.38974 4.38691 3.93056ZM4.75256 6C4.75284 5.99822 4.75314 5.99635 4.75347 5.99439C4.75953 5.95804 4.77414 5.89114 4.80838 5.80308C4.87521 5.63124 5.02381 5.36026 5.36309 5.06944C6.047 4.48323 7.58974 3.75 11 3.75C14.4103 3.75 15.953 4.48323 16.6369 5.06944C16.9762 5.36026 17.1248 5.63124 17.1916 5.80308C17.2259 5.89114 17.2405 5.95804 17.2465 5.99439C17.2469 5.99635 17.2472 5.99822 17.2474 6C17.2472 6.00178 17.2469 6.00365 17.2465 6.00561C17.2405 6.04196 17.2259 6.10886 17.1916 6.19692C17.1248 6.36876 16.9762 6.63974 16.6369 6.93056C15.953 7.51677 14.4103 8.25 11 8.25C7.58974 8.25 6.047 7.51677 5.36309 6.93056C5.02381 6.63974 4.87521 6.36876 4.80838 6.19692C4.77414 6.10886 4.75953 6.04196 4.75347 6.00561C4.75314 6.00365 4.75284 6.00178 4.75256 6ZM18.9901 15.75C17.6116 15.75 16.3728 16.7387 15.9132 18.222C15.7906 18.6177 15.3704 18.839 14.9748 18.7164C14.5791 18.5938 14.3578 18.1736 14.4804 17.778C15.1026 15.7703 16.8519 14.25 18.9901 14.25C20.2675 14.25 21.4074 14.7937 22.2501 15.659V15.4445C22.2501 15.0302 22.5859 14.6945 23.0001 14.6945C23.4143 14.6945 23.7501 15.0302 23.7501 15.4445V17.333C23.7501 17.9316 23.2648 18.4167 22.6664 18.4167L20.9951 18.4167C20.5809 18.4167 20.2451 18.0809 20.2451 17.6667C20.2451 17.2525 20.5809 16.9167 20.9951 16.9167L21.3669 16.9167C20.7618 16.1867 19.9078 15.75 18.9901 15.75ZM23.0252 19.2836C23.4209 19.4062 23.6422 19.8264 23.5196 20.222C22.8974 22.2297 21.1481 23.75 19.0099 23.75C17.7325 23.75 16.5926 23.2063 15.7499 22.341V22.5555C15.7499 22.9698 15.4141 23.3055 14.9999 23.3055C14.5857 23.3055 14.2499 22.9698 14.2499 22.5555V20.667C14.2499 20.0684 14.7352 19.5833 15.3336 19.5833L17.0049 19.5833C17.4191 19.5833 17.7549 19.9191 17.7549 20.3333C17.7549 20.7475 17.4191 21.0833 17.0049 21.0833L16.6331 21.0833C17.2382 21.8133 18.0922 22.25 19.0099 22.25C20.3884 22.25 21.6272 21.2613 22.0868 19.778C22.2094 19.3823 22.6296 19.161 23.0252 19.2836Z" fill="black"/>
</g>
</g>
</g>
<defs>
<clipPath id="clip0_232_3987">
<rect width="24" height="24" rx="5" fill="white"/>
</clipPath>
</defs>
</svg>
