<svg width="24" height="24" viewBox="0 0 24 24" fill="none" xmlns="http://www.w3.org/2000/svg">
<g id="database-xmark">
<g clip-path="url(#clip0_232_3875)">
<g id="Weight=Dynamic">
<path id="Vector (Stroke)" fill-rule="evenodd" clip-rule="evenodd" d="M4.38691 3.93056C5.453 3.01677 7.41026 2.25 11 2.25C14.5897 2.25 16.547 3.01677 17.6131 3.93056C18.1488 4.38974 18.4377 4.86876 18.5896 5.25942C18.6648 5.45261 18.7048 5.62009 18.7261 5.74779C18.7368 5.81164 18.7427 5.86565 18.746 5.90815C18.7477 5.92941 18.7487 5.94782 18.7493 5.96319L18.7498 5.98394L18.75 5.99256L18.75 5.99643L18.75 5.99825C18.75 5.99913 18.75 6 18 6H18.75V12H18C18.75 12 18.75 12.0009 18.75 12.0017L18.75 12.0036L18.75 12.0074L18.7498 12.0161L18.7493 12.0368C18.7487 12.0522 18.7477 12.0706 18.746 12.0918C18.7427 12.1343 18.7368 12.1884 18.7261 12.2522C18.7048 12.3799 18.6648 12.5474 18.5896 12.7406C18.4377 13.1312 18.1488 13.6103 17.6131 14.0694C16.547 14.9832 14.5897 15.75 11 15.75C7.78428 15.75 5.87858 15.1347 4.75 14.3496V17.9811C4.75056 17.9862 4.7516 17.9944 4.75347 18.0056C4.75953 18.042 4.77414 18.1089 4.80838 18.1969C4.87521 18.3688 5.02381 18.6397 5.36309 18.9306C6.047 19.5168 7.58974 20.25 11 20.25C11.4142 20.25 11.75 20.5858 11.75 21C11.75 21.4142 11.4142 21.75 11 21.75C7.41026 21.75 5.453 20.9832 4.38691 20.0694C3.85119 19.6103 3.56229 19.1312 3.41037 18.7406C3.33524 18.5474 3.29516 18.3799 3.27388 18.2522C3.26324 18.1884 3.25727 18.1343 3.25397 18.0918C3.25231 18.0706 3.25132 18.0522 3.25074 18.0368L3.25016 18.0161L3.25003 18.0074L3.25001 18.0036L3.25 18.0017C3.25 18.0009 3.25 18 4 18H3.25V6H4C3.25 6 3.25 5.99913 3.25 5.99825L3.25001 5.99643L3.25003 5.99256L3.25016 5.98394L3.25074 5.96319C3.25132 5.94782 3.25231 5.92941 3.25397 5.90815C3.25727 5.86565 3.26324 5.81164 3.27388 5.74779C3.29516 5.62009 3.33524 5.45261 3.41037 5.25942C3.56229 4.86876 3.85119 4.38974 4.38691 3.93056ZM4.75256 6C4.75284 5.99822 4.75314 5.99635 4.75347 5.99439C4.75953 5.95804 4.77414 5.89114 4.80838 5.80308C4.87521 5.63124 5.02381 5.36026 5.36309 5.06944C6.047 4.48323 7.58974 3.75 11 3.75C14.4103 3.75 15.953 4.48323 16.6369 5.06944C16.9762 5.36026 17.1248 5.63124 17.1916 5.80308C17.2259 5.89114 17.2405 5.95804 17.2465 5.99439C17.2469 5.99635 17.2472 5.99822 17.2474 6C17.2472 6.00178 17.2469 6.00365 17.2465 6.00561C17.2405 6.04196 17.2259 6.10886 17.1916 6.19692C17.1248 6.36876 16.9762 6.63974 16.6369 6.93056C15.953 7.51677 14.4103 8.25 11 8.25C7.58974 8.25 6.047 7.51677 5.36309 6.93056C5.02381 6.63974 4.87521 6.36876 4.80838 6.19692C4.77414 6.10886 4.75953 6.04196 4.75347 6.00561C4.75314 6.00365 4.75284 6.00178 4.75256 6ZM4.75 8.34958V11.9811C4.75056 11.9862 4.7516 11.9944 4.75347 12.0056C4.75953 12.042 4.77414 12.1089 4.80838 12.1969C4.87521 12.3688 5.02381 12.6397 5.36309 12.9306C6.047 13.5168 7.58974 14.25 11 14.25C14.4103 14.25 15.953 13.5168 16.6369 12.9306C16.9762 12.6397 17.1248 12.3688 17.1916 12.1969C17.2259 12.1089 17.2405 12.042 17.2465 12.0056C17.2484 11.9944 17.2494 11.9862 17.25 11.9811V8.34958C16.1214 9.13469 14.2157 9.75 11 9.75C7.78428 9.75 5.87858 9.13469 4.75 8.34958ZM16.591 16.591C16.8839 16.2981 17.3588 16.2981 17.6517 16.591L19.2426 18.182L20.8336 16.591C21.1265 16.2981 21.6014 16.2981 21.8943 16.591C22.1872 16.8839 22.1872 17.3588 21.8943 17.6517L20.3033 19.2427L21.8943 20.8337C22.1872 21.1266 22.1872 21.6014 21.8943 21.8943C21.6014 22.1872 21.1265 22.1872 20.8336 21.8943L19.2426 20.3033L17.6517 21.8943C17.3588 22.1872 16.8839 22.1872 16.591 21.8943C16.2981 21.6014 16.2981 21.1266 16.591 20.8337L18.182 19.2427L16.591 17.6517C16.2981 17.3588 16.2981 16.8839 16.591 16.591Z" fill="black"/>
</g>
</g>
</g>
<defs>
<clipPath id="clip0_232_3875">
<rect width="24" height="24" rx="5" fill="white"/>
</clipPath>
</defs>
</svg>
