<svg width="24" height="24" viewBox="0 0 24 24" fill="none" xmlns="http://www.w3.org/2000/svg">
<g id="database-script-plus">
<g clip-path="url(#clip0_232_3941)">
<g id="Weight=Dynamic">
<path id="Vector (Stroke)" fill-rule="evenodd" clip-rule="evenodd" d="M19.9922 0.25C20.4064 0.25 20.7422 0.585786 20.7422 1V3.25H22.9922C23.4064 3.25 23.7422 3.58579 23.7422 4C23.7422 4.41421 23.4064 4.75 22.9922 4.75H20.7422V7C20.7422 7.41421 20.4064 7.75 19.9922 7.75C19.578 7.75 19.2422 7.41421 19.2422 7V4.75H16.9922C16.578 4.75 16.2422 4.41421 16.2422 4C16.2422 3.58579 16.578 3.25 16.9922 3.25H19.2422V1C19.2422 0.585786 19.578 0.25 19.9922 0.25ZM9 3.75C7.75736 3.75 6.75 4.75736 6.75 6V12.25H18C18.4142 12.25 18.75 12.5858 18.75 13C18.75 13.4142 18.4142 13.75 18 13.75C16.2051 13.75 14.75 15.2051 14.75 17C14.75 18.7949 16.2051 20.25 18 20.25C19.7949 20.25 21.25 18.7949 21.25 17V8.5C21.25 8.08579 21.5858 7.75 22 7.75C22.4142 7.75 22.75 8.08579 22.75 8.5V17C22.75 19.6234 20.6234 21.75 18 21.75C15.3766 21.75 13.25 19.6234 13.25 17C13.25 15.7428 13.7384 14.5997 14.5359 13.75H6C4.20507 13.75 2.75 15.2051 2.75 17C2.75 18.7949 4.20507 20.25 6 20.25H12C12.4142 20.25 12.75 20.5858 12.75 21C12.75 21.4142 12.4142 21.75 12 21.75H6C3.37665 21.75 1.25 19.6234 1.25 17C1.25 14.6318 2.98301 12.6685 5.25 12.3089V6C5.25 3.92893 6.92893 2.25 9 2.25H14C14.4142 2.25 14.75 2.58579 14.75 3C14.75 3.41421 14.4142 3.75 14 3.75H9Z" fill="black"/>
</g>
</g>
</g>
<defs>
<clipPath id="clip0_232_3941">
<rect width="24" height="24" rx="5" fill="white"/>
</clipPath>
</defs>
</svg>
