<svg width="24" height="24" viewBox="0 0 24 24" fill="none" xmlns="http://www.w3.org/2000/svg">
<g id="data-transfer-check">
<g clip-path="url(#clip0_232_3557)">
<g id="Weight=Dynamic">
<path id="Vector (Stroke)" fill-rule="evenodd" clip-rule="evenodd" d="M7 3.25C7.41421 3.25 7.75 3.58579 7.75 4V18.1893L9.46967 16.4697C9.76256 16.1768 10.2374 16.1768 10.5303 16.4697C10.8232 16.7626 10.8232 17.2374 10.5303 17.5303L7.53033 20.5303C7.23744 20.8232 6.76256 20.8232 6.46967 20.5303L3.46967 17.5303C3.17678 17.2374 3.17678 16.7626 3.46967 16.4697C3.76256 16.1768 4.23744 16.1768 4.53033 16.4697L6.25 18.1893V4C6.25 3.58579 6.58579 3.25 7 3.25ZM16.4697 3.46967C16.7626 3.17678 17.2374 3.17678 17.5303 3.46967L20.5303 6.46967C20.8232 6.76256 20.8232 7.23744 20.5303 7.53033C20.2374 7.82322 19.7626 7.82322 19.4697 7.53033L17.75 5.81066V14C17.75 14.4142 17.4142 14.75 17 14.75C16.5858 14.75 16.25 14.4142 16.25 14V5.81066L14.5303 7.53033C14.2374 7.82322 13.7626 7.82322 13.4697 7.53033C13.1768 7.23744 13.1768 6.76256 13.4697 6.46967L16.4697 3.46967ZM22.5303 16.4697C22.8232 16.7626 22.8232 17.2374 22.5303 17.5303L17.5303 22.5303C17.2374 22.8232 16.7626 22.8232 16.4697 22.5303L13.4697 19.5303C13.1768 19.2374 13.1768 18.7626 13.4697 18.4697C13.7626 18.1768 14.2374 18.1768 14.5303 18.4697L17 20.9393L21.4697 16.4697C21.7626 16.1768 22.2374 16.1768 22.5303 16.4697Z" fill="black"/>
</g>
</g>
</g>
<defs>
<clipPath id="clip0_232_3557">
<rect width="24" height="24" rx="5" fill="white"/>
</clipPath>
</defs>
</svg>
