<svg width="24" height="24" viewBox="0 0 24 24" fill="none" xmlns="http://www.w3.org/2000/svg">
<g id="data-transfer-warning">
<g clip-path="url(#clip0_232_3541)">
<g id="Weight=Dynamic">
<path id="Vector (Stroke)" fill-rule="evenodd" clip-rule="evenodd" d="M7 3.25C7.41421 3.25 7.75 3.58579 7.75 4V5C7.75 5.41421 7.41421 5.75 7 5.75C6.58579 5.75 6.25 5.41421 6.25 5V4C6.25 3.58579 6.58579 3.25 7 3.25ZM16.4697 3.46967C16.7626 3.17678 17.2374 3.17678 17.5303 3.46967L20.5303 6.46967C20.8232 6.76256 20.8232 7.23744 20.5303 7.53033C20.2374 7.82322 19.7626 7.82322 19.4697 7.53033L17.75 5.81066V12C17.75 12.4142 17.4142 12.75 17 12.75C16.5858 12.75 16.25 12.4142 16.25 12V5.81066L14.5303 7.53033C14.2374 7.82322 13.7626 7.82322 13.4697 7.53033C13.1768 7.23744 13.1768 6.76256 13.4697 6.46967L16.4697 3.46967ZM7 8.25C7.41421 8.25 7.75 8.58579 7.75 9V10C7.75 10.4142 7.41421 10.75 7 10.75C6.58579 10.75 6.25 10.4142 6.25 10V9C6.25 8.58579 6.58579 8.25 7 8.25ZM7 13.25C7.41421 13.25 7.75 13.5858 7.75 14V18.1893L9.46967 16.4697C9.76256 16.1768 10.2374 16.1768 10.5303 16.4697C10.8232 16.7626 10.8232 17.2374 10.5303 17.5303L7.53033 20.5303C7.23744 20.8232 6.76256 20.8232 6.46967 20.5303L3.46967 17.5303C3.17678 17.2374 3.17678 16.7626 3.46967 16.4697C3.76256 16.1768 4.23744 16.1768 4.53033 16.4697L6.25 18.1893V14C6.25 13.5858 6.58579 13.25 7 13.25ZM19.25 18V16C19.25 15.5858 19.5858 15.25 20 15.25C20.4142 15.25 20.75 15.5858 20.75 16V18C20.75 18.4142 20.4142 18.75 20 18.75C19.5858 18.75 19.25 18.4142 19.25 18ZM20.5117 21.4414C20.8196 21.7185 20.8446 22.1927 20.5675 22.5006L20.5575 22.5117C20.2804 22.8196 19.8062 22.8446 19.4983 22.5675C19.1904 22.2904 19.1654 21.8162 19.4425 21.5083L19.4525 21.4972C19.7296 21.1893 20.2038 21.1643 20.5117 21.4414Z" fill="black"/>
</g>
</g>
</g>
<defs>
<clipPath id="clip0_232_3541">
<rect width="24" height="24" rx="5" fill="white"/>
</clipPath>
</defs>
</svg>
