<svg width="24" height="24" viewBox="0 0 24 24" fill="none" xmlns="http://www.w3.org/2000/svg">
<g id="database-settings">
<g clip-path="url(#clip0_232_4035)">
<g id="Weight=Dynamic">
<path id="Vector (Stroke)" fill-rule="evenodd" clip-rule="evenodd" d="M11 3.75C10.9554 3.75 10.9111 3.75013 10.8671 3.75038C10.4529 3.75272 10.1152 3.41885 10.1129 3.00464C10.1105 2.59043 10.4444 2.25275 10.8586 2.2504C10.9055 2.25013 10.9526 2.25 11 2.25C11.0474 2.25 11.0945 2.25013 11.1414 2.2504C11.5556 2.25275 11.8895 2.59043 11.8871 3.00464C11.8848 3.41885 11.5471 3.75272 11.1329 3.75038C11.0889 3.75013 11.0446 3.75 11 3.75ZM9.82866 3.01393C9.86846 3.42623 9.5665 3.79273 9.1542 3.83253C9.06807 3.84085 8.98361 3.84973 8.90079 3.85915C8.48924 3.90599 8.11764 3.61032 8.07081 3.19876C8.02397 2.7872 8.31964 2.4156 8.7312 2.36877C8.82263 2.35837 8.91558 2.34859 9.01006 2.33947C9.42236 2.29967 9.78886 2.60163 9.82866 3.01393ZM12.1713 3.01393C12.2111 2.60163 12.5776 2.29967 12.9899 2.33947C13.0844 2.34859 13.1774 2.35837 13.2688 2.36877C13.6804 2.4156 13.976 2.7872 13.9292 3.19876C13.8824 3.61032 13.5108 3.90599 13.0992 3.85915C13.0164 3.84973 12.9319 3.84085 12.8458 3.83253C12.4335 3.79273 12.1315 3.42623 12.1713 3.01393ZM7.78786 3.24115C7.89648 3.64086 7.6605 4.05295 7.26078 4.16158C7.17979 4.18358 7.10147 4.20619 7.02573 4.2293C6.62957 4.35023 6.21038 4.1271 6.08945 3.73094C5.96852 3.33477 6.19165 2.91558 6.58782 2.79465C6.67864 2.76693 6.77182 2.74005 6.86743 2.71407C7.26714 2.60545 7.67924 2.84143 7.78786 3.24115ZM14.2121 3.24115C14.3208 2.84143 14.7329 2.60545 15.1326 2.71407C15.2282 2.74005 15.3214 2.76693 15.4122 2.79465C15.8084 2.91558 16.0315 3.33477 15.9106 3.73094C15.7896 4.1271 15.3704 4.35023 14.9743 4.2293C14.8985 4.20619 14.8202 4.18358 14.7392 4.16158C14.3395 4.05295 14.1035 3.64086 14.2121 3.24115ZM5.81229 3.82983C6.04712 4.17104 5.96087 4.63802 5.61966 4.87285C5.55691 4.91603 5.49898 4.95901 5.44548 5.00149C5.12111 5.25908 4.64933 5.20494 4.39174 4.88057C4.13415 4.55619 4.18829 4.08441 4.51266 3.82682C4.59335 3.76275 4.6788 3.69946 4.76926 3.6372C5.11048 3.40237 5.57746 3.48861 5.81229 3.82983ZM16.1877 3.82983C16.4225 3.48861 16.8895 3.40237 17.2307 3.6372C17.3212 3.69946 17.4066 3.76275 17.4873 3.82682C17.8117 4.08441 17.8659 4.55619 17.6083 4.88057C17.3507 5.20494 16.8789 5.25908 16.5545 5.00149C16.501 4.95901 16.4431 4.91603 16.3803 4.87285C16.0391 4.63802 15.9529 4.17104 16.1877 3.82983ZM4.13958 5.12802C4.54797 5.19722 4.82294 5.58439 4.75374 5.99278C4.75331 5.99533 4.75291 5.99774 4.75256 6C4.75291 6.00226 4.75331 6.00467 4.75374 6.00722C4.82294 6.41561 4.54797 6.80278 4.13958 6.87198C4.05567 6.8862 3.97266 6.88589 3.89312 6.87288C3.52953 6.821 3.25 6.50836 3.25 6.13043L3.25 6.00022L4 6C3.25 6 3.25 6.00033 3.25 6.00022L3.25 5.99912L3.25001 5.99638L3.25004 5.99245L3.25016 5.98367L3.25077 5.96251C3.25137 5.94684 3.2524 5.92802 3.25411 5.90628C3.25755 5.86282 3.26375 5.80754 3.27482 5.74218C3.34402 5.33378 3.73119 5.05882 4.13958 5.12802ZM17.8604 5.12802C18.2688 5.05882 18.656 5.33378 18.7252 5.74218C18.7363 5.80754 18.7425 5.86282 18.7459 5.90628C18.7476 5.92802 18.7486 5.94684 18.7492 5.96251L18.7498 5.98367L18.75 5.99245L18.75 5.99638L18.75 5.99823L18.75 5.99956C18.75 5.99967 18.75 6 18 6L18.75 5.99956L18.75 6.00088L18.75 6.13043C18.75 6.50836 18.4705 6.821 18.1069 6.87288C18.0273 6.88589 17.9443 6.8862 17.8604 6.87198C17.452 6.80278 17.1771 6.41561 17.2463 6.00722C17.2467 6.00467 17.2471 6.00226 17.2474 6C17.2471 5.99774 17.2467 5.99533 17.2463 5.99278C17.1771 5.58439 17.452 5.19722 17.8604 5.12802ZM17.6636 7.19906C17.6471 7.17171 17.6287 7.14511 17.6083 7.11943C17.3507 6.79506 16.8789 6.74092 16.5545 6.99851C16.501 7.04099 16.4431 7.08397 16.3803 7.12715C16.0391 7.36198 15.9529 7.82896 16.1877 8.17017C16.4225 8.51139 16.8895 8.59763 17.2307 8.3628C17.2463 8.35209 17.2617 8.34134 17.277 8.33057C17.3646 8.64762 17.6551 8.88043 18 8.88043C18.4142 8.88043 18.75 8.54465 18.75 8.13043V7.86957C18.75 7.45535 18.4142 7.11957 18 7.11957C17.879 7.11957 17.7648 7.1482 17.6636 7.19906ZM4.39174 7.11943C4.64933 6.79506 5.12111 6.74092 5.44548 6.99851C5.49898 7.04099 5.55691 7.08397 5.61966 7.12715C5.96087 7.36198 6.04712 7.82896 5.81229 8.17017C5.57746 8.51139 5.11048 8.59763 4.76926 8.3628C4.7537 8.35209 4.73827 8.34134 4.723 8.33057C4.63543 8.64762 4.34491 8.88043 4 8.88043C3.58579 8.88043 3.25 8.54465 3.25 8.13043V7.86957C3.25 7.45535 3.58579 7.11957 4 7.11957C4.12096 7.11957 4.23523 7.1482 4.3364 7.19906C4.35291 7.17171 4.37135 7.14511 4.39174 7.11943ZM6.08945 8.26906C6.21038 7.8729 6.62957 7.64977 7.02573 7.7707C7.10147 7.79382 7.17979 7.81642 7.26078 7.83842C7.6605 7.94705 7.89648 8.35914 7.78786 8.75885C7.67924 9.15857 7.26714 9.39455 6.86743 9.28593C6.77182 9.25995 6.67864 9.23307 6.58782 9.20535C6.19165 9.08442 5.96852 8.66523 6.08945 8.26906ZM15.9106 8.26906C16.0315 8.66523 15.8084 9.08442 15.4122 9.20535C15.3214 9.23307 15.2282 9.25995 15.1326 9.28593C14.7329 9.39455 14.3208 9.15857 14.2121 8.75885C14.1035 8.35914 14.3395 7.94705 14.7392 7.83842C14.8202 7.81642 14.8985 7.79381 14.9743 7.7707C15.3704 7.64977 15.7896 7.8729 15.9106 8.26906ZM8.07081 8.80124C8.11764 8.38968 8.48924 8.09401 8.90079 8.14085C8.98361 8.15027 9.06807 8.15915 9.1542 8.16747C9.5665 8.20727 9.86846 8.57377 9.82866 8.98607C9.78886 9.39837 9.42236 9.70033 9.01006 9.66053C8.91558 9.65141 8.82263 9.64163 8.7312 9.63123C8.31964 9.5844 8.02397 9.2128 8.07081 8.80124ZM13.9292 8.80124C13.976 9.2128 13.6804 9.5844 13.2688 9.63123C13.1774 9.64163 13.0844 9.65141 12.9899 9.66053C12.5776 9.70033 12.2111 9.39837 12.1713 8.98607C12.1315 8.57377 12.4335 8.20727 12.8458 8.16747C12.9319 8.15915 13.0164 8.15027 13.0992 8.14085C13.5108 8.09401 13.8824 8.38968 13.9292 8.80124ZM10.1129 8.99536C10.1152 8.58115 10.4529 8.24728 10.8671 8.24963C10.9111 8.24987 10.9554 8.25 11 8.25C11.0446 8.25 11.0889 8.24987 11.1329 8.24963C11.5471 8.24728 11.8848 8.58115 11.8871 8.99536C11.8895 9.40957 11.5556 9.74725 11.1414 9.7496C11.0945 9.74987 11.0474 9.75 11 9.75C10.9526 9.75 10.9055 9.74987 10.8586 9.7496C10.4444 9.74725 10.1105 9.40957 10.1129 8.99536ZM18 9.11957C18.4142 9.11957 18.75 9.45535 18.75 9.86957V10.1304C18.75 10.5446 18.4142 10.8804 18 10.8804C17.5858 10.8804 17.25 10.5446 17.25 10.1304V9.86957C17.25 9.45535 17.5858 9.11957 18 9.11957ZM4 9.11957C4.41421 9.11957 4.75 9.45535 4.75 9.86957V10.1304C4.75 10.5446 4.41421 10.8804 4 10.8804C3.58579 10.8804 3.25 10.5446 3.25 10.1304V9.86957C3.25 9.45535 3.58579 9.11957 4 9.11957ZM18 11.1196C18.4142 11.1196 18.75 11.4554 18.75 11.8696V12H18C18.75 12 18.75 11.9999 18.75 12L18.75 12.0018L18.75 12.0036L18.75 12.0076L18.7498 12.0163L18.7492 12.0375C18.7486 12.0532 18.7476 12.072 18.7459 12.0937C18.7425 12.1372 18.7363 12.1925 18.7252 12.2578C18.656 12.6662 18.2688 12.9412 17.8604 12.872C17.452 12.8028 17.1771 12.4156 17.2463 12.0072C17.2483 11.9952 17.2494 11.9864 17.25 11.9811V11.8696C17.25 11.4554 17.5858 11.1196 18 11.1196ZM4 11.1196C4.41421 11.1196 4.75 11.4554 4.75 11.8696V11.9811C4.75058 11.9864 4.75171 11.9952 4.75374 12.0072C4.82294 12.4156 4.54797 12.8028 4.13958 12.872C4.05568 12.8862 3.97267 12.8859 3.89314 12.8729C3.52954 12.821 3.25 12.5084 3.25 12.1304V11.8696C3.25 11.4554 3.58579 11.1196 4 11.1196ZM4.39174 13.1194C4.64933 12.7951 5.12111 12.7409 5.44548 12.9985C5.49898 13.041 5.55691 13.084 5.61966 13.1272C5.96087 13.362 6.04712 13.829 5.81229 14.1702C5.57746 14.5114 5.11048 14.5976 4.76926 14.3628C4.7537 14.3521 4.73827 14.3413 4.723 14.3306C4.63543 14.6476 4.34491 14.8804 4 14.8804C3.58579 14.8804 3.25 14.5446 3.25 14.1304V13.8696C3.25 13.4554 3.58579 13.1196 4 13.1196C4.12096 13.1196 4.23523 13.1482 4.3364 13.1991C4.35291 13.1717 4.37135 13.1451 4.39174 13.1194ZM17.6083 13.1194C17.8659 13.4438 17.8117 13.9156 17.4873 14.1732C17.4066 14.2373 17.3212 14.3005 17.2307 14.3628C16.8895 14.5976 16.4225 14.5114 16.1877 14.1702C15.9529 13.829 16.0391 13.362 16.3803 13.1272C16.4431 13.084 16.501 13.041 16.5545 12.9985C16.8789 12.7409 17.3507 12.7951 17.6083 13.1194ZM6.08945 14.2691C6.21038 13.8729 6.62957 13.6498 7.02573 13.7707C7.10147 13.7938 7.17979 13.8164 7.26078 13.8384C7.6605 13.947 7.89648 14.3591 7.78786 14.7589C7.67924 15.1586 7.26714 15.3946 6.86743 15.2859C6.77182 15.2599 6.67864 15.2331 6.58782 15.2053C6.19165 15.0844 5.96852 14.6652 6.08945 14.2691ZM15.9106 14.2691C16.0315 14.6652 15.8084 15.0844 15.4122 15.2053C15.3214 15.2331 15.2282 15.2599 15.1326 15.2859C14.7329 15.3946 14.3208 15.1586 14.2121 14.7589C14.1035 14.3591 14.3395 13.947 14.7392 13.8384C14.8202 13.8164 14.8985 13.7938 14.9743 13.7707C15.3704 13.6498 15.7896 13.8729 15.9106 14.2691ZM8.07081 14.8012C8.11764 14.3897 8.48924 14.094 8.90079 14.1408C8.98361 14.1503 9.06807 14.1592 9.1542 14.1675C9.5665 14.2073 9.86846 14.5738 9.82866 14.9861C9.78886 15.3984 9.42236 15.7003 9.01006 15.6605C8.91558 15.6514 8.82263 15.6416 8.7312 15.6312C8.31964 15.5844 8.02397 15.2128 8.07081 14.8012ZM13.9292 14.8012C13.976 15.2128 13.6804 15.5844 13.2688 15.6312C13.1774 15.6416 13.0844 15.6514 12.9899 15.6605C12.5776 15.7003 12.2111 15.3984 12.1713 14.9861C12.1315 14.5738 12.4335 14.2073 12.8458 14.1675C12.9319 14.1592 13.0164 14.1503 13.0992 14.1408C13.5108 14.094 13.8824 14.3897 13.9292 14.8012ZM10.1129 14.9954C10.1152 14.5812 10.4529 14.2473 10.8671 14.2496C10.9111 14.2499 10.9554 14.25 11 14.25C11.0446 14.25 11.0889 14.2499 11.1329 14.2496C11.5471 14.2473 11.8848 14.5812 11.8871 14.9954C11.8895 15.4096 11.5556 15.7473 11.1414 15.7496C11.0945 15.7499 11.0474 15.75 11 15.75C10.9526 15.75 10.9055 15.7499 10.8586 15.7496C10.4444 15.7473 10.1105 15.4096 10.1129 14.9954ZM4 15.1196C4.41421 15.1196 4.75 15.4554 4.75 15.8696V16.1304C4.75 16.5446 4.41421 16.8804 4 16.8804C3.58579 16.8804 3.25 16.5446 3.25 16.1304V15.8696C3.25 15.4554 3.58579 15.1196 4 15.1196ZM18.8086 15.2548C18.8721 15.2516 18.9359 15.25 19 15.25C19.0641 15.25 19.1279 15.2516 19.1914 15.2548C19.6051 15.2757 19.9235 15.628 19.9027 16.0416C19.8943 16.2082 19.8322 16.3593 19.734 16.479C19.8882 16.6329 19.9745 16.8524 19.9507 17.0861C19.9089 17.4982 19.5409 17.7984 19.1288 17.7565C19.0866 17.7522 19.0437 17.75 19 17.75C18.9855 17.75 18.9712 17.7502 18.9569 17.7507C18.8486 17.7544 18.7449 17.7348 18.6505 17.6966C18.588 17.7766 18.5081 17.8452 18.4128 17.8961C18.4003 17.9028 18.3878 17.9097 18.3755 17.9168C18.3509 17.931 18.3267 17.9461 18.3031 17.962C17.9596 18.1934 17.4935 18.1025 17.2621 17.7589C17.2312 17.7131 17.2061 17.6651 17.1866 17.6158C16.908 17.8003 16.5296 17.781 16.2702 17.5467C15.9627 17.2691 15.9386 16.7948 16.2162 16.4874C16.3019 16.3925 16.3925 16.3019 16.4874 16.2162C16.7948 15.9386 17.2691 15.9627 17.5467 16.2702C17.6269 16.359 17.682 16.4618 17.7122 16.5697C17.9039 16.4695 18.1194 16.4603 18.3089 16.527C18.1861 16.4009 18.1069 16.2313 18.0973 16.0416C18.0765 15.628 18.3949 15.2757 18.8086 15.2548ZM20.4533 16.2702C20.7309 15.9627 21.2052 15.9386 21.5126 16.2162C21.6075 16.3019 21.6981 16.3925 21.7838 16.4874C22.0614 16.7948 22.0373 17.2691 21.7298 17.5467C21.4224 17.8243 20.9482 17.8001 20.6705 17.4927C20.6189 17.4356 20.5644 17.3811 20.5073 17.3295C20.1999 17.0518 20.1757 16.5776 20.4533 16.2702ZM4 17.1196C4.41421 17.1196 4.75 17.4554 4.75 17.8696V17.9811C4.75058 17.9864 4.75171 17.9952 4.75374 18.0072C4.82294 18.4156 4.54797 18.8028 4.13958 18.872C3.73119 18.9412 3.34402 18.6662 3.27482 18.2578C3.26375 18.1925 3.25755 18.1372 3.25411 18.0937C3.2524 18.072 3.25137 18.0532 3.25077 18.0375L3.25016 18.0163L3.25004 18.0076L3.25001 18.0036L3.25 18.0018L3.25 18.0004C3.25 18.0003 3.25 18 4 18L3.25 18.0004L3.25 17.8696C3.25 17.4554 3.58579 17.1196 4 17.1196ZM21.521 18.266C21.3671 18.1118 21.1476 18.0255 20.9139 18.0493C20.5018 18.0911 20.2016 18.4591 20.2435 18.8712C20.2478 18.9134 20.25 18.9563 20.25 19C20.25 19.0437 20.2478 19.0866 20.2435 19.1288C20.2016 19.5409 20.5018 19.9089 20.9139 19.9507C21.1476 19.9745 21.3671 19.8882 21.521 19.734C21.6407 19.8322 21.7918 19.8943 21.9584 19.9027C22.372 19.9235 22.7243 19.6051 22.7452 19.1914C22.7484 19.1279 22.75 19.0641 22.75 19C22.75 18.9359 22.7484 18.8721 22.7452 18.8086C22.7243 18.3949 22.372 18.0765 21.9584 18.0973C21.7918 18.1057 21.6407 18.1678 21.521 18.266ZM16.5138 19.7036C16.658 19.8285 16.8497 19.8987 17.055 19.8848C17.4683 19.857 17.7807 19.4994 17.7529 19.0861C17.751 19.0577 17.75 19.029 17.75 19C17.75 18.971 17.751 18.9423 17.7529 18.9139C17.7807 18.5006 17.4683 18.143 17.055 18.1152C16.8497 18.1013 16.658 18.1715 16.5138 18.2964C16.3892 18.1807 16.2247 18.1066 16.0416 18.0973C15.628 18.0765 15.2757 18.3949 15.2548 18.8086C15.2516 18.8721 15.25 18.9359 15.25 19C15.25 19.0641 15.2516 19.1279 15.2548 19.1914C15.2757 19.6051 15.628 19.9235 16.0416 19.9027C16.2247 19.8934 16.3892 19.8193 16.5138 19.7036ZM4.39174 19.1194C4.64933 18.7951 5.12111 18.7409 5.44548 18.9985C5.49898 19.041 5.55691 19.084 5.61966 19.1272C5.96087 19.362 6.04712 19.829 5.81229 20.1702C5.57746 20.5114 5.11048 20.5976 4.76926 20.3628C4.6788 20.3005 4.59335 20.2373 4.51266 20.1732C4.18829 19.9156 4.13415 19.4438 4.39174 19.1194ZM6.08945 20.2691C6.21038 19.8729 6.62957 19.6498 7.02573 19.7707C7.10147 19.7938 7.17979 19.8164 7.26078 19.8384C7.6605 19.947 7.89648 20.3591 7.78786 20.7589C7.67924 21.1586 7.26714 21.3946 6.86743 21.2859C6.77182 21.26 6.67864 21.2331 6.58782 21.2053C6.19165 21.0844 5.96852 20.6652 6.08945 20.2691ZM17.1866 20.3842C17.2061 20.3349 17.2312 20.2869 17.2621 20.2411C17.4935 19.8975 17.9596 19.8066 18.3031 20.038C18.3267 20.0539 18.3509 20.069 18.3755 20.0832C18.3878 20.0903 18.4003 20.0972 18.4128 20.1039C18.5081 20.1548 18.588 20.2234 18.6505 20.3034C18.7449 20.2652 18.8486 20.2456 18.9569 20.2493C18.9712 20.2498 18.9855 20.25 19 20.25C19.0437 20.25 19.0866 20.2478 19.1288 20.2435C19.5409 20.2016 19.9089 20.5018 19.9507 20.9139C19.9745 21.1476 19.8882 21.3671 19.734 21.521C19.8322 21.6407 19.8943 21.7918 19.9027 21.9584C19.9235 22.372 19.6051 22.7243 19.1914 22.7452C19.1279 22.7484 19.0641 22.75 19 22.75C18.9359 22.75 18.8721 22.7484 18.8086 22.7452C18.3949 22.7243 18.0765 22.372 18.0973 21.9584C18.1069 21.7687 18.1861 21.5991 18.3089 21.473C18.1194 21.5397 17.9039 21.5305 17.7122 21.4303C17.682 21.5382 17.6269 21.641 17.5467 21.7298C17.2691 22.0373 16.7948 22.0614 16.4874 21.7838C16.3925 21.6981 16.3019 21.6075 16.2162 21.5126C15.9386 21.2052 15.9627 20.7309 16.2702 20.4533C16.5296 20.219 16.908 20.1997 17.1866 20.3842ZM8.07081 20.8012C8.11764 20.3897 8.48924 20.094 8.90079 20.1408C8.98361 20.1503 9.06807 20.1592 9.1542 20.1675C9.5665 20.2073 9.86846 20.5738 9.82866 20.9861C9.78886 21.3984 9.42236 21.7003 9.01006 21.6605C8.91558 21.6514 8.82263 21.6416 8.7312 21.6312C8.31964 21.5844 8.02397 21.2128 8.07081 20.8012ZM10.1129 20.9954C10.1152 20.5812 10.4529 20.2473 10.8671 20.2496C10.9111 20.2499 10.9554 20.25 11 20.25C11.4142 20.25 11.75 20.5858 11.75 21C11.75 21.4142 11.4142 21.75 11 21.75C10.9526 21.75 10.9055 21.7499 10.8586 21.7496C10.4444 21.7473 10.1105 21.4096 10.1129 20.9954ZM21.7298 20.4533C22.0373 20.7309 22.0614 21.2052 21.7838 21.5126C21.6981 21.6075 21.6075 21.6981 21.5126 21.7838C21.2052 22.0614 20.7309 22.0373 20.4533 21.7298C20.1757 21.4224 20.1999 20.9482 20.5073 20.6705C20.5644 20.6189 20.6189 20.5644 20.6705 20.5073C20.9482 20.1999 21.4224 20.1757 21.7298 20.4533Z" fill="black"/>
</g>
</g>
</g>
<defs>
<clipPath id="clip0_232_4035">
<rect width="24" height="24" rx="5" fill="white"/>
</clipPath>
</defs>
</svg>
