<svg width="24" height="24" viewBox="0 0 24 24" fill="none" xmlns="http://www.w3.org/2000/svg">
<g id="data-transfer-down">
<g clip-path="url(#clip0_232_3529)">
<g id="Weight=Dynamic">
<path id="Vector (Stroke)" fill-rule="evenodd" clip-rule="evenodd" d="M7 3.25C7.41421 3.25 7.75 3.58579 7.75 4V18.1893L9.46967 16.4697C9.76256 16.1768 10.2374 16.1768 10.5303 16.4697C10.8232 16.7626 10.8232 17.2374 10.5303 17.5303L7.53033 20.5303C7.23744 20.8232 6.76256 20.8232 6.46967 20.5303L3.46967 17.5303C3.17678 17.2374 3.17678 16.7626 3.46967 16.4697C3.76256 16.1768 4.23744 16.1768 4.53033 16.4697L6.25 18.1893V4C6.25 3.58579 6.58579 3.25 7 3.25ZM16.4697 3.46967C16.7626 3.17678 17.2374 3.17678 17.5303 3.46967L20.5303 6.46967C20.8232 6.76256 20.8232 7.23744 20.5303 7.53033C20.2374 7.82322 19.7626 7.82322 19.4697 7.53033L17.75 5.81066V10C17.75 10.4142 17.4142 10.75 17 10.75C16.5858 10.75 16.25 10.4142 16.25 10V5.81066L14.5303 7.53033C14.2374 7.82322 13.7626 7.82322 13.4697 7.53033C13.1768 7.23744 13.1768 6.76256 13.4697 6.46967L16.4697 3.46967ZM17.75 14V15C17.75 15.4142 17.4142 15.75 17 15.75C16.5858 15.75 16.25 15.4142 16.25 15V14C16.25 13.5858 16.5858 13.25 17 13.25C17.4142 13.25 17.75 13.5858 17.75 14ZM17.75 19V20C17.75 20.4142 17.4142 20.75 17 20.75C16.5858 20.75 16.25 20.4142 16.25 20V19C16.25 18.5858 16.5858 18.25 17 18.25C17.4142 18.25 17.75 18.5858 17.75 19Z" fill="black"/>
</g>
</g>
</g>
<defs>
<clipPath id="clip0_232_3529">
<rect width="24" height="24" rx="5" fill="white"/>
</clipPath>
</defs>
</svg>
