<svg width="24" height="24" viewBox="0 0 24 24" fill="none" xmlns="http://www.w3.org/2000/svg">
<g id="database">
<g clip-path="url(#clip0_232_3844)">
<g id="Weight=Dynamic">
<path id="Vector (Stroke)" fill-rule="evenodd" clip-rule="evenodd" d="M5.38691 3.93056C6.453 3.01677 8.41026 2.25 12 2.25C15.5897 2.25 17.547 3.01677 18.6131 3.93056C19.1488 4.38974 19.4377 4.86876 19.5896 5.25942C19.6648 5.45261 19.7048 5.62009 19.7261 5.74779C19.7368 5.81164 19.7427 5.86565 19.746 5.90815C19.7477 5.92941 19.7487 5.94782 19.7493 5.96319L19.7498 5.98394L19.75 5.99256L19.75 5.99643L19.75 5.99825C19.75 5.99913 19.75 6 19 6H19.75V18H19C19.75 18 19.75 18.0009 19.75 18.0017L19.75 18.0036L19.75 18.0074L19.7498 18.0161L19.7493 18.0368C19.7487 18.0522 19.7477 18.0706 19.746 18.0918C19.7427 18.1343 19.7368 18.1884 19.7261 18.2522C19.7048 18.3799 19.6648 18.5474 19.5896 18.7406C19.4377 19.1312 19.1488 19.6103 18.6131 20.0694C17.547 20.9832 15.5897 21.75 12 21.75C8.41026 21.75 6.453 20.9832 5.38691 20.0694C4.85119 19.6103 4.56229 19.1312 4.41037 18.7406C4.33524 18.5474 4.29516 18.3799 4.27388 18.2522C4.26324 18.1884 4.25727 18.1343 4.25397 18.0918C4.25231 18.0706 4.25132 18.0522 4.25074 18.0368L4.25016 18.0161L4.25003 18.0074L4.25001 18.0036L4.25 18.0017C4.25 18.0009 4.25 18 5 18H4.25V6H5C4.25 6 4.25 5.99913 4.25 5.99825L4.25001 5.99643L4.25003 5.99256L4.25016 5.98394L4.25074 5.96319C4.25132 5.94782 4.25231 5.92941 4.25397 5.90815C4.25727 5.86565 4.26324 5.81164 4.27388 5.74779C4.29516 5.62009 4.33524 5.45261 4.41037 5.25942C4.56229 4.86876 4.85119 4.38974 5.38691 3.93056ZM5.75256 6C5.75284 5.99822 5.75314 5.99635 5.75347 5.99439C5.75953 5.95804 5.77414 5.89114 5.80838 5.80308C5.87521 5.63124 6.02381 5.36026 6.36309 5.06944C7.047 4.48323 8.58974 3.75 12 3.75C15.4103 3.75 16.953 4.48323 17.6369 5.06944C17.9762 5.36026 18.1248 5.63124 18.1916 5.80308C18.2259 5.89114 18.2405 5.95804 18.2465 5.99439C18.2469 5.99635 18.2472 5.99822 18.2474 6C18.2472 6.00178 18.2469 6.00365 18.2465 6.00561C18.2405 6.04196 18.2259 6.10886 18.1916 6.19692C18.1248 6.36876 17.9762 6.63974 17.6369 6.93056C16.953 7.51677 15.4103 8.25 12 8.25C8.58974 8.25 7.047 7.51677 6.36309 6.93056C6.02381 6.63974 5.87521 6.36876 5.80838 6.19692C5.77414 6.10886 5.75953 6.04196 5.75347 6.00561C5.75314 6.00365 5.75284 6.00178 5.75256 6ZM5.75 8.34958V11.9811C5.75056 11.9862 5.7516 11.9944 5.75347 12.0056C5.75953 12.042 5.77414 12.1089 5.80838 12.1969C5.87521 12.3688 6.02381 12.6397 6.36309 12.9306C7.047 13.5168 8.58974 14.25 12 14.25C15.4103 14.25 16.953 13.5168 17.6369 12.9306C17.9762 12.6397 18.1248 12.3688 18.1916 12.1969C18.2259 12.1089 18.2405 12.042 18.2465 12.0056C18.2484 11.9944 18.2494 11.9862 18.25 11.9811V8.34958C17.1214 9.13469 15.2157 9.75 12 9.75C8.78428 9.75 6.87858 9.13469 5.75 8.34958ZM18.25 14.3496C17.1214 15.1347 15.2157 15.75 12 15.75C8.78428 15.75 6.87858 15.1347 5.75 14.3496V17.9811C5.75056 17.9862 5.7516 17.9944 5.75347 18.0056C5.75953 18.042 5.77414 18.1089 5.80838 18.1969C5.87521 18.3688 6.02381 18.6397 6.36309 18.9306C7.047 19.5168 8.58974 20.25 12 20.25C15.4103 20.25 16.953 19.5168 17.6369 18.9306C17.9762 18.6397 18.1248 18.3688 18.1916 18.1969C18.2259 18.1089 18.2405 18.042 18.2465 18.0056C18.2484 17.9944 18.2494 17.9862 18.25 17.9811V14.3496Z" fill="black"/>
</g>
</g>
</g>
<defs>
<clipPath id="clip0_232_3844">
<rect width="24" height="24" rx="5" fill="white"/>
</clipPath>
</defs>
</svg>
