<svg width="24" height="24" viewBox="0 0 24 24" fill="none" xmlns="http://www.w3.org/2000/svg">
<g id="database-tag">
<g clip-path="url(#clip0_232_3961)">
<g id="Weight=Dynamic">
<path id="Vector (Stroke)" fill-rule="evenodd" clip-rule="evenodd" d="M8 3.75C5.10051 3.75 2.75 6.10051 2.75 9V15C2.75 17.8995 5.10051 20.25 8 20.25H16C18.8995 20.25 21.25 17.8995 21.25 15V9C21.25 6.10051 18.8995 3.75 16 3.75H8ZM1.25 9C1.25 5.27208 4.27208 2.25 8 2.25H16C19.7279 2.25 22.75 5.27208 22.75 9V15C22.75 18.7279 19.7279 21.75 16 21.75H8C4.27208 21.75 1.25 18.7279 1.25 15V9ZM9.32998 8.90438C9.07989 8.76433 8.74222 8.75 8.35714 8.75H6.25V15.25H8.35714C8.74222 15.25 9.07989 15.2357 9.32998 15.0956C9.48758 15.0074 9.75 14.7938 9.75 14V10C9.75 9.20616 9.48758 8.99264 9.32998 8.90438ZM10.0629 7.59562C10.7981 8.00736 11.25 8.79384 11.25 10V14C11.25 15.2062 10.7981 15.9926 10.0629 16.4044C9.44287 16.7516 8.73819 16.7505 8.39361 16.75C8.38096 16.75 8.3688 16.75 8.35714 16.75H5.5C5.08579 16.75 4.75 16.4142 4.75 16V8C4.75 7.58579 5.08579 7.25 5.5 7.25H8.35714C8.3688 7.25 8.38096 7.24998 8.39361 7.24996C8.73819 7.24945 9.44287 7.24841 10.0629 7.59562ZM17.33 8.90438C17.0799 8.76433 16.7422 8.75 16.3571 8.75H14.25V11.25H16.3571C16.3645 11.25 16.3719 11.25 16.3793 11.25C16.7552 11.2494 17.0847 11.233 17.33 11.0956C17.4876 11.0074 17.75 10.7938 17.75 10C17.75 9.20616 17.4876 8.99264 17.33 8.90438ZM18.582 12C19.0049 11.549 19.25 10.8883 19.25 10C19.25 8.79384 18.7981 8.00736 18.0629 7.59562C17.4429 7.24841 16.7382 7.24945 16.3936 7.24996C16.381 7.24998 16.3688 7.25 16.3571 7.25H13.5C13.0858 7.25 12.75 7.58579 12.75 8V16C12.75 16.4142 13.0858 16.75 13.5 16.75H16.3571C16.3688 16.75 16.381 16.75 16.3936 16.75C16.7382 16.7505 17.4429 16.7516 18.0629 16.4044C18.7981 15.9926 19.25 15.2062 19.25 14C19.25 13.1117 19.0049 12.451 18.582 12ZM16.3793 12.75C16.3717 12.75 16.3643 12.75 16.3571 12.75H14.25V15.25H16.3571C16.7422 15.25 17.0799 15.2357 17.33 15.0956C17.4876 15.0074 17.75 14.7938 17.75 14C17.75 13.2062 17.4876 12.9926 17.33 12.9044C17.0847 12.767 16.7552 12.7506 16.3793 12.75Z" fill="black"/>
</g>
</g>
</g>
<defs>
<clipPath id="clip0_232_3961">
<rect width="24" height="24" rx="5" fill="white"/>
</clipPath>
</defs>
</svg>
