<svg width="24" height="24" viewBox="0 0 24 24" fill="none" xmlns="http://www.w3.org/2000/svg">
<g id="database-script">
<g clip-path="url(#clip0_232_3933)">
<g id="Weight=Dynamic">
<path id="Vector (Stroke)" fill-rule="evenodd" clip-rule="evenodd" d="M5.25 6C5.25 3.92893 6.92893 2.25 9 2.25H19C21.0711 2.25 22.75 3.92893 22.75 6V17C22.75 19.6234 20.6234 21.75 18 21.75C15.3766 21.75 13.25 19.6234 13.25 17C13.25 15.7428 13.7384 14.5997 14.5359 13.75H6C4.20507 13.75 2.75 15.2051 2.75 17C2.75 18.7949 4.20507 20.25 6 20.25H12C12.4142 20.25 12.75 20.5858 12.75 21C12.75 21.4142 12.4142 21.75 12 21.75H6C3.37665 21.75 1.25 19.6234 1.25 17C1.25 14.6318 2.98301 12.6685 5.25 12.3089V6ZM6.75 12.25H18C18.4142 12.25 18.75 12.5858 18.75 13C18.75 13.4142 18.4142 13.75 18 13.75C16.2051 13.75 14.75 15.2051 14.75 17C14.75 18.7949 16.2051 20.25 18 20.25C19.7949 20.25 21.25 18.7949 21.25 17V6C21.25 4.75736 20.2426 3.75 19 3.75H9C7.75736 3.75 6.75 4.75736 6.75 6V12.25Z" fill="black"/>
</g>
</g>
</g>
<defs>
<clipPath id="clip0_232_3933">
<rect width="24" height="24" rx="5" fill="white"/>
</clipPath>
</defs>
</svg>
