<svg width="24" height="24" viewBox="0 0 24 24" fill="none" xmlns="http://www.w3.org/2000/svg">
<g id="de-compress">
<g clip-path="url(#clip0_232_11665)">
<g id="Weight=Dynamic">
<path id="Vector (Stroke)" fill-rule="evenodd" clip-rule="evenodd" d="M11.4697 1.46967C11.7626 1.17678 12.2374 1.17678 12.5303 1.46967L15.5303 4.46967C15.8232 4.76256 15.8232 5.23744 15.5303 5.53033C15.2374 5.82322 14.7626 5.82322 14.4697 5.53033L12.75 3.81066V8C12.75 8.41421 12.4142 8.75 12 8.75C11.5858 8.75 11.25 8.41421 11.25 8V3.81066L9.53033 5.53033C9.23744 5.82322 8.76256 5.82322 8.46967 5.53033C8.17678 5.23744 8.17678 4.76256 8.46967 4.46967L11.4697 1.46967ZM5.25 12C5.25 11.5858 5.58579 11.25 6 11.25H18C18.4142 11.25 18.75 11.5858 18.75 12C18.75 12.4142 18.4142 12.75 18 12.75H6C5.58579 12.75 5.25 12.4142 5.25 12ZM12 15.25C12.4142 15.25 12.75 15.5858 12.75 16V20.1893L14.4697 18.4697C14.7626 18.1768 15.2374 18.1768 15.5303 18.4697C15.8232 18.7626 15.8232 19.2374 15.5303 19.5303L12.5303 22.5303C12.2374 22.8232 11.7626 22.8232 11.4697 22.5303L8.46967 19.5303C8.17678 19.2374 8.17678 18.7626 8.46967 18.4697C8.76256 18.1768 9.23744 18.1768 9.53033 18.4697L11.25 20.1893V16C11.25 15.5858 11.5858 15.25 12 15.25Z" fill="black"/>
</g>
</g>
</g>
<defs>
<clipPath id="clip0_232_11665">
<rect width="24" height="24" rx="5" fill="white"/>
</clipPath>
</defs>
</svg>
