<svg width="24" height="24" viewBox="0 0 24 24" fill="none" xmlns="http://www.w3.org/2000/svg">
<g id="delivery-truck">
<g clip-path="url(#clip0_232_15798)">
<g id="Weight=Dynamic">
<path id="Vector (Stroke)" fill-rule="evenodd" clip-rule="evenodd" d="M0.25 6C0.25 5.58579 0.585786 5.25 1 5.25H14.4C15.1456 5.25 15.75 5.85442 15.75 6.6V8.25H20.6101C21.1436 8.25 21.627 8.56419 21.8437 9.05171L23.6336 13.079C23.7104 13.2517 23.75 13.4384 23.75 13.6273V16.4C23.75 17.1456 23.1456 17.75 22.4 17.75H20.6465C20.32 18.9043 19.2588 19.75 18 19.75C16.7412 19.75 15.68 18.9043 15.3535 17.75H10.6465C10.32 18.9043 9.25878 19.75 8 19.75C6.74122 19.75 5.67998 18.9043 5.35352 17.75H3.6C2.85442 17.75 2.25 17.1456 2.25 16.4V11.5C2.25 11.0858 2.58579 10.75 3 10.75C3.41421 10.75 3.75 11.0858 3.75 11.5V16.25H5.35352C5.67998 15.0957 6.74122 14.25 8 14.25C9.25878 14.25 10.32 15.0957 10.6465 16.25H14.25V6.75H1C0.585786 6.75 0.25 6.41421 0.25 6ZM15.75 9.75V15.4185C16.2477 14.7117 17.0699 14.25 18 14.25C19.2588 14.25 20.32 15.0957 20.6465 16.25H22.25V13.6592L20.5126 9.75H15.75ZM1.25 9C1.25 8.58579 1.58579 8.25 2 8.25H6C6.41421 8.25 6.75 8.58579 6.75 9C6.75 9.41421 6.41421 9.75 6 9.75H2C1.58579 9.75 1.25 9.41421 1.25 9ZM8 15.75C7.30964 15.75 6.75 16.3096 6.75 17C6.75 17.6904 7.30964 18.25 8 18.25C8.69036 18.25 9.25 17.6904 9.25 17C9.25 16.3096 8.69036 15.75 8 15.75ZM18 15.75C17.3096 15.75 16.75 16.3096 16.75 17C16.75 17.6904 17.3096 18.25 18 18.25C18.6904 18.25 19.25 17.6904 19.25 17C19.25 16.3096 18.6904 15.75 18 15.75Z" fill="black"/>
</g>
</g>
</g>
<defs>
<clipPath id="clip0_232_15798">
<rect width="24" height="24" rx="5" fill="white"/>
</clipPath>
</defs>
</svg>
