<svg width="24" height="24" viewBox="0 0 24 24" fill="none" xmlns="http://www.w3.org/2000/svg">
<g id="delivery">
<g clip-path="url(#clip0_232_15834)">
<g id="Weight=Dynamic">
<path id="Vector (Stroke)" fill-rule="evenodd" clip-rule="evenodd" d="M1.25 4C1.25 3.58579 1.58579 3.25 2 3.25H18C19.5187 3.25 20.7499 4.48121 20.75 5.99999L20.75 18C20.75 19.5188 19.5188 20.75 18 20.75H6C4.48122 20.75 3.25 19.5188 3.25 18V12C3.25 11.5858 3.58579 11.25 4 11.25C4.41421 11.25 4.75 11.5858 4.75 12V18C4.75 18.6904 5.30964 19.25 6 19.25H18C18.6903 19.25 19.25 18.6904 19.25 18L19.25 6C19.25 5.30964 18.6903 4.75 18 4.75H12.75V9C12.75 9.41421 12.4142 9.75 12 9.75C11.5858 9.75 11.25 9.41421 11.25 9V4.75H2C1.58579 4.75 1.25 4.41421 1.25 4ZM2.25 8C2.25 7.58579 2.58579 7.25 3 7.25H8C8.41421 7.25 8.75 7.58579 8.75 8C8.75 8.41421 8.41421 8.75 8 8.75H3C2.58579 8.75 2.25 8.41421 2.25 8Z" fill="black"/>
</g>
</g>
</g>
<defs>
<clipPath id="clip0_232_15834">
<rect width="24" height="24" rx="5" fill="white"/>
</clipPath>
</defs>
</svg>
