<svg width="24" height="24" viewBox="0 0 24 24" fill="none" xmlns="http://www.w3.org/2000/svg">
<g id="depth">
<g clip-path="url(#clip0_232_13859)">
<g id="Weight=Dynamic">
<path id="Vector (Stroke)" fill-rule="evenodd" clip-rule="evenodd" d="M4.25 4C4.25 3.58579 4.58579 3.25 5 3.25H19C19.4142 3.25 19.75 3.58579 19.75 4C19.75 4.41421 19.4142 4.75 19 4.75H5C4.58579 4.75 4.25 4.41421 4.25 4ZM11.4697 6.46967C11.7626 6.17678 12.2374 6.17678 12.5303 6.46967L14.0303 7.96967C14.3232 8.26256 14.3232 8.73744 14.0303 9.03033C13.7374 9.32322 13.2626 9.32322 12.9697 9.03033L12.75 8.81066V15.1893L14.4697 13.4697C14.7626 13.1768 15.2374 13.1768 15.5303 13.4697C15.8232 13.7626 15.8232 14.2374 15.5303 14.5303L12.5303 17.5303C12.2374 17.8232 11.7626 17.8232 11.4697 17.5303L8.46967 14.5303C8.17678 14.2374 8.17678 13.7626 8.46967 13.4697C8.76256 13.1768 9.23744 13.1768 9.53033 13.4697L11.25 15.1893V8.81066L11.0303 9.03033C10.7374 9.32322 10.2626 9.32322 9.96967 9.03033C9.67678 8.73744 9.67678 8.26256 9.96967 7.96967L11.4697 6.46967ZM5.51172 7.44141C5.8196 7.71851 5.84457 8.19272 5.56747 8.50061L5.55747 8.51172C5.28038 8.8196 4.80616 8.84457 4.49828 8.56747C4.1904 8.29038 4.16543 7.81616 4.44253 7.50828L4.45253 7.49717C4.72962 7.18928 5.20384 7.16432 5.51172 7.44141ZM18.498 7.44142C18.8059 7.16432 19.2801 7.18928 19.5572 7.49716L19.5672 7.50827C19.8443 7.81616 19.8194 8.29037 19.5115 8.56747C19.2036 8.84456 18.7294 8.81961 18.4523 8.51173L18.4423 8.50062C18.1652 8.19273 18.1902 7.71852 18.498 7.44142ZM4.51172 11.4414C4.8196 11.7185 4.84457 12.1927 4.56747 12.5006L4.55747 12.5117C4.28038 12.8196 3.80616 12.8446 3.49828 12.5675C3.1904 12.2904 3.16543 11.8162 3.44253 11.5083L3.45253 11.4972C3.72962 11.1893 4.20384 11.1643 4.51172 11.4414ZM19.498 11.4414C19.8059 11.1643 20.2801 11.1893 20.5572 11.4972L20.5672 11.5083C20.8443 11.8162 20.8194 12.2904 20.5115 12.5675C20.2036 12.8446 19.7294 12.8196 19.4523 12.5117L19.4423 12.5006C19.1652 12.1927 19.1902 11.7185 19.498 11.4414ZM3.51172 15.4414C3.8196 15.7185 3.84457 16.1927 3.56747 16.5006L3.55747 16.5117C3.28038 16.8196 2.80616 16.8446 2.49828 16.5675C2.1904 16.2904 2.16543 15.8162 2.44253 15.5083L2.45253 15.4972C2.72962 15.1893 3.20384 15.1643 3.51172 15.4414ZM20.498 15.4414C20.8059 15.1643 21.2801 15.1893 21.5572 15.4972L21.5672 15.5083C21.8443 15.8162 21.8194 16.2904 21.5115 16.5675C21.2036 16.8446 20.7294 16.8196 20.4523 16.5117L20.4423 16.5006C20.1652 16.1927 20.1902 15.7185 20.498 15.4414ZM1.25 20C1.25 19.5858 1.58579 19.25 2 19.25L22 19.25C22.4142 19.25 22.75 19.5858 22.75 20C22.75 20.4142 22.4142 20.75 22 20.75L2 20.75C1.58579 20.75 1.25 20.4142 1.25 20Z" fill="black"/>
</g>
</g>
</g>
<defs>
<clipPath id="clip0_232_13859">
<rect width="24" height="24" rx="5" fill="white"/>
</clipPath>
</defs>
</svg>
