<svg width="24" height="24" viewBox="0 0 24 24" fill="none" xmlns="http://www.w3.org/2000/svg">
<g id="design-nib">
<g clip-path="url(#clip0_232_4921)">
<g id="Weight=Dynamic">
<path id="Vector (Stroke)" fill-rule="evenodd" clip-rule="evenodd" d="M15.1398 2.74711C16.2138 1.67317 17.955 1.67316 19.0289 2.74711L21.1502 4.86843C22.2242 5.94237 22.2242 7.68357 21.1502 8.75751L18.4298 11.4779C18.4188 11.5338 18.4042 11.5895 18.3859 11.6445L16.4806 17.3603C16.3413 17.7782 16.0068 18.1018 15.5846 18.2274L3.90716 21.699C2.86027 22.0103 1.89635 21.0142 2.24173 19.9781L6.03311 8.60396L6.74463 8.84113L6.03311 8.60396C6.15718 8.23175 6.43704 7.93194 6.79982 7.78255L7.08539 8.47606L7.09946 8.51023M7.08539 8.47606L6.79982 7.78255L12.1864 5.56454C12.2523 5.53741 12.3195 5.51582 12.3873 5.49962L15.1398 2.74711M13.9025 6.10573L17.7916 9.99481L20.0896 7.69685C20.5777 7.2087 20.5777 6.41724 20.0896 5.92909L17.9682 3.80777C17.4801 3.31961 16.6886 3.31961 16.2005 3.80777L13.9025 6.10573ZM12.6651 6.98963L7.43443 9.14343L4.30501 18.5317L8.68969 14.147C8.29019 13.3106 8.43703 12.2786 9.12967 11.586C10.0084 10.7073 11.433 10.7073 12.3117 11.586C13.1903 12.4647 13.1903 13.8893 12.3117 14.768C11.6189 15.4607 10.5867 15.6072 9.75035 15.2077L5.21171 19.7463L15.0823 16.8118L16.9335 11.2581L12.6651 6.98963ZM11.251 12.6466C10.9581 12.3537 10.4832 12.3537 10.1903 12.6466C9.89732 12.9396 9.89737 13.4144 10.1901 13.7072C10.4831 14.0002 10.9581 14.0001 11.251 13.7073C11.5439 13.4144 11.5439 12.9395 11.251 12.6466Z" fill="black"/>
</g>
</g>
</g>
<defs>
<clipPath id="clip0_232_4921">
<rect width="24" height="24" rx="5" fill="white"/>
</clipPath>
</defs>
</svg>
