<svg width="24" height="24" viewBox="0 0 24 24" fill="none" xmlns="http://www.w3.org/2000/svg">
<g id="design-pencil">
<g clip-path="url(#clip0_232_4727)">
<g id="Weight=Dynamic">
<path id="Vector (Stroke)" fill-rule="evenodd" clip-rule="evenodd" d="M12 2.75C6.89137 2.75 2.75 6.89137 2.75 12C2.75 15.372 4.55425 18.3225 7.25 19.9389V14C7.25 13.8695 7.28406 13.7412 7.34882 13.6279L11.3488 6.6279C11.4823 6.39421 11.7309 6.25 12 6.25C12.2691 6.25 12.5177 6.39421 12.6512 6.6279L16.6512 13.6279C16.7159 13.7412 16.75 13.8695 16.75 14V19.9389C19.4458 18.3225 21.25 15.372 21.25 12C21.25 6.89137 17.1086 2.75 12 2.75ZM16.2991 21.8559C20.0963 20.1972 22.75 16.4085 22.75 12C22.75 6.06294 17.9371 1.25 12 1.25C6.06294 1.25 1.25 6.06294 1.25 12C1.25 16.4085 3.90373 20.1973 7.70092 21.8559C9.01747 22.431 10.4715 22.75 12 22.75C13.5285 22.75 14.9826 22.431 16.2991 21.8559ZM15.25 20.6629V15.4078C14.8861 15.5905 14.4453 15.75 14 15.75C13.3306 15.75 12.6715 15.3896 12.2684 15.1318C12.1721 15.0702 12.082 15.0088 12 14.9506C11.918 15.0088 11.8279 15.0702 11.7316 15.1318C11.3285 15.3896 10.6694 15.75 10 15.75C9.55467 15.75 9.11388 15.5905 8.75 15.4078V20.6629C9.76111 21.0424 10.8563 21.25 12 21.25C13.1437 21.25 14.2389 21.0424 15.25 20.6629ZM8.97667 13.8025C9.009 13.8243 9.04239 13.8463 9.07666 13.8682C9.45527 14.1104 9.79613 14.25 10 14.25C10.2039 14.25 10.5447 14.1104 10.9233 13.8682C11.0932 13.7595 11.2412 13.6496 11.3468 13.5666C11.3993 13.5254 11.4402 13.4916 11.4672 13.469C11.475 13.4624 11.4816 13.4568 11.4869 13.4522C11.4907 13.4489 11.4939 13.4462 11.4964 13.444L11.5022 13.4391L11.5024 13.4389C11.7863 13.187 12.2137 13.187 12.4976 13.4389L12.4978 13.4391L12.5036 13.444C12.5095 13.4492 12.5194 13.4577 12.5328 13.469C12.5598 13.4916 12.6007 13.5254 12.6532 13.5666C12.7588 13.6496 12.9068 13.7595 13.0767 13.8682C13.4553 14.1104 13.7961 14.25 14 14.25C14.2039 14.25 14.5447 14.1104 14.9233 13.8682C14.9576 13.8463 14.991 13.8243 15.0233 13.8025L12 8.51167L8.97667 13.8025Z" fill="black"/>
</g>
</g>
</g>
<defs>
<clipPath id="clip0_232_4727">
<rect width="24" height="24" rx="5" fill="white"/>
</clipPath>
</defs>
</svg>
