<svg width="24" height="24" viewBox="0 0 24 24" fill="none" xmlns="http://www.w3.org/2000/svg">
<g id="desk">
<g clip-path="url(#clip0_232_8994)">
<g id="Weight=Dynamic">
<path id="Vector (Stroke)" fill-rule="evenodd" clip-rule="evenodd" d="M0.25 7C0.25 6.58579 0.585786 6.25 1 6.25H23C23.4142 6.25 23.75 6.58579 23.75 7C23.75 7.41421 23.4142 7.75 23 7.75H20.75V17C20.75 17.4142 20.4142 17.75 20 17.75C19.5858 17.75 19.25 17.4142 19.25 17V14.75H17.75V15C17.75 15.4142 17.4142 15.75 17 15.75C16.5858 15.75 16.25 15.4142 16.25 15V14.75H14.75V17C14.75 17.4142 14.4142 17.75 14 17.75C13.5858 17.75 13.25 17.4142 13.25 17V10.75H4.75V17C4.75 17.4142 4.41421 17.75 4 17.75C3.58579 17.75 3.25 17.4142 3.25 17V7.75H1C0.585786 7.75 0.25 7.41421 0.25 7ZM4.75 7.75V9.25H13.25V7.75H4.75ZM14.75 7.75V9.25H19.25V7.75H14.75ZM19.25 10.75H17.75V11C17.75 11.4142 17.4142 11.75 17 11.75C16.5858 11.75 16.25 11.4142 16.25 11V10.75H14.75V13.25H19.25V10.75Z" fill="black"/>
</g>
</g>
</g>
<defs>
<clipPath id="clip0_232_8994">
<rect width="24" height="24" rx="5" fill="white"/>
</clipPath>
</defs>
</svg>
