<svg width="24" height="24" viewBox="0 0 24 24" fill="none" xmlns="http://www.w3.org/2000/svg">
<g id="developer">
<g clip-path="url(#clip0_232_5553)">
<g id="Weight=Dynamic">
<path id="Vector (Stroke)" fill-rule="evenodd" clip-rule="evenodd" d="M11.174 2.75065C9.1053 2.72905 7.5159 3.24851 6.35734 4.10348C6.02405 4.34943 5.55449 4.27863 5.30854 3.94534C5.06258 3.61205 5.13339 3.14248 5.46667 2.89653C6.93364 1.81398 8.85748 1.22638 11.1897 1.25073C13.2837 1.27259 15.3664 1.88111 16.9422 3.14528C18.4908 4.38764 19.5064 6.2315 19.5655 8.63492L21.6327 11.8834C21.7093 12.0037 21.75 12.1434 21.75 12.286C21.75 12.9818 21.5822 13.5537 21.2918 14.0101C21.0033 14.4634 20.6214 14.7595 20.2571 14.9504C20.0213 15.0739 19.7892 15.1554 19.5851 15.2096C19.5837 15.2999 19.5808 15.3971 19.5758 15.5003C19.5483 16.0782 19.4561 16.8658 19.1886 17.6664C18.9211 18.4671 18.4658 19.3168 17.6891 19.9678C17.0495 20.5038 16.2299 20.8729 15.2045 20.9932L15.2045 22C15.2045 22.4142 14.8687 22.75 14.4545 22.75C14.0403 22.75 13.7045 22.4142 13.7045 22L13.7045 20.2858C13.7045 19.8716 14.0403 19.5358 14.4545 19.5358C15.5251 19.5358 16.2357 19.2287 16.7256 18.8181C17.2273 18.3977 17.5561 17.8189 17.7659 17.1911C17.9757 16.5632 18.054 15.9223 18.0776 15.4288C18.0892 15.1843 18.0872 14.9818 18.0825 14.8428C18.0801 14.7734 18.0771 14.7202 18.0748 14.6859C18.0736 14.6687 18.0727 14.6563 18.0721 14.6491L18.0716 14.643C18.0517 14.4328 18.1212 14.2234 18.2632 14.0672C18.4041 13.9122 18.6032 13.8233 18.8125 13.8217C18.814 13.8217 18.8156 13.8217 18.8172 13.8217L18.8155 13.8217L18.8135 13.8217L18.8125 13.8217C18.8119 13.8217 18.8124 13.8217 18.8125 13.8217C18.814 13.8217 18.8156 13.8217 18.8172 13.8217C18.8218 13.8215 18.8287 13.8211 18.8392 13.8205C18.8442 13.8202 18.8498 13.8198 18.856 13.8193C18.8947 13.8164 18.9553 13.8102 19.0301 13.7972C19.183 13.7705 19.3763 13.7184 19.5611 13.6216C19.7422 13.5267 19.9057 13.3943 20.0263 13.2048C20.1257 13.0487 20.2154 12.8234 20.242 12.4919L20.3672 12.6887L21 12.286H20.25C20.25 12.3589 20.2472 12.4274 20.242 12.4919L18.1854 9.26026C18.1089 9.13992 18.0682 9.00024 18.0682 8.8576C18.0682 6.79878 17.2437 5.31024 16.0035 4.3153C14.743 3.30409 13.0075 2.76979 11.174 2.75065ZM10.206 5.27886C10.6043 5.39266 10.8349 5.80777 10.7211 6.20605L8.72114 13.206C8.60735 13.6043 8.19224 13.8349 7.79396 13.7211C7.39568 13.6074 7.16506 13.1922 7.27886 12.794L9.27886 5.79396C9.39265 5.39569 9.80776 5.16507 10.206 5.27886ZM5.46852 6.41435C5.79197 6.67311 5.84441 7.14508 5.58565 7.46853L3.96047 9.5L5.58565 11.5315C5.84441 11.8549 5.79197 12.3269 5.46852 12.5857C5.14507 12.8444 4.67311 12.792 4.41435 12.4685L2.41435 9.96853C2.19522 9.69461 2.19522 9.3054 2.41435 9.03148L4.41435 6.53148C4.67311 6.20804 5.14507 6.1556 5.46852 6.41435ZM12.5315 6.41435C12.8549 6.1556 13.3269 6.20804 13.5857 6.53148L15.5857 9.03148C15.8048 9.3054 15.8048 9.69461 15.5857 9.96853L13.5857 12.4685C13.3269 12.792 12.8549 12.8444 12.5315 12.5857C12.208 12.3269 12.1556 11.8549 12.4143 11.5315L14.0395 9.5L12.4143 7.46853C12.1556 7.14508 12.208 6.67311 12.5315 6.41435ZM4.26417 14.3773C4.6081 14.1464 5.07404 14.2381 5.30487 14.582C5.45507 14.8058 5.61789 15.0378 5.78343 15.2737C6.09968 15.7243 6.42583 16.1891 6.69272 16.6375C7.11856 17.3529 7.47142 18.1423 7.56444 19.068C7.56694 19.0929 7.56819 19.1179 7.56819 19.143L7.56815 22C7.56815 22.4142 7.23236 22.75 6.81814 22.75C6.40393 22.75 6.06815 22.4142 6.06815 22L6.06819 19.1825C6 18.571 5.76238 18.0072 5.40375 17.4047C5.16231 16.999 4.89678 16.6215 4.60559 16.2075C4.43268 15.9617 4.25073 15.703 4.05939 15.418C3.82856 15.074 3.92024 14.6081 4.26417 14.3773Z" fill="black"/>
</g>
</g>
</g>
<defs>
<clipPath id="clip0_232_5553">
<rect width="24" height="24" rx="5" fill="white"/>
</clipPath>
</defs>
</svg>
