<svg width="24" height="24" viewBox="0 0 24 24" fill="none" xmlns="http://www.w3.org/2000/svg">
<g id="dew-point">
<g clip-path="url(#clip0_232_16633)">
<g id="Weight=Dynamic">
<path id="Vector (Stroke)" fill-rule="evenodd" clip-rule="evenodd" d="M4.25 2.99999C4.25 2.5858 4.58577 2.25003 4.99996 2.25003H13C13.4142 2.25003 13.7499 2.5858 13.7499 2.99999C13.7499 3.41419 13.4142 3.74996 13 3.74996H11.7499V5.25003H13C13.4142 5.25003 13.7499 5.5858 13.7499 5.99999C13.7499 6.41419 13.4142 6.74996 13 6.74996H11.7499V8.25003H13C13.4142 8.25003 13.7499 8.5858 13.7499 8.99999C13.7499 9.41419 13.4142 9.74996 13 9.74996H11.7499V11.6409C12.9734 12.6944 13.7499 14.2566 13.7499 15.9999C13.7499 19.1755 11.1756 21.7498 7.99996 21.7498C4.82435 21.7498 2.25 19.1755 2.25 15.9999C2.25 14.2566 3.02651 12.6944 4.25 11.6409V2.99999ZM10.25 3.74996H5.74993V11.9995C5.74993 12.2354 5.63896 12.4575 5.45037 12.5992C4.41639 13.3758 3.74993 14.6099 3.74993 15.9999C3.74993 18.3471 5.65273 20.2499 7.99996 20.2499C10.3472 20.2499 12.25 18.3471 12.25 15.9999C12.25 14.6099 11.5835 13.3758 10.5496 12.5992C10.361 12.4575 10.25 12.2354 10.25 11.9995V3.74996ZM19.5288 2.4691L18.999 2.99999L18.4685 2.46997C18.7611 2.17706 19.2357 2.17667 19.5288 2.4691ZM18.9999 4.09839C18.7418 4.38773 18.4204 4.7655 18.1003 5.18677C17.7405 5.66006 17.3938 6.17334 17.1395 6.66726C16.879 7.17307 16.7527 7.588 16.7499 7.88602C16.7616 9.13448 17.765 10.1365 18.9997 10.1365C20.2411 10.1365 21.2497 9.12797 21.2494 7.88664C21.2494 7.59033 21.1248 7.17531 20.8635 6.66737C20.6097 6.17395 20.2628 5.66093 19.9024 5.18767C19.5813 4.76601 19.2588 4.38788 18.9999 4.09839ZM22.1974 5.98127C22.4987 6.56704 22.7492 7.23612 22.7493 7.88639C22.7497 9.95642 21.0693 11.6365 18.9997 11.6365C16.925 11.6365 15.265 9.95255 15.25 7.89195L15.25 7.88264C15.2533 7.23392 15.5044 6.56608 15.8059 5.98058C16.1148 5.3807 16.5173 4.79073 16.9061 4.27916C17.2968 3.76507 17.6854 3.31503 17.9755 2.99419C18.1209 2.83335 18.2425 2.70395 18.3285 2.61404C18.3715 2.56906 18.4056 2.53391 18.4294 2.50957L18.4572 2.4813L18.465 2.47347L18.4673 2.47117L18.4685 2.46997C18.4686 2.46986 18.4685 2.46997 18.999 2.99999C19.5288 2.4691 19.5286 2.469 19.5288 2.4691L19.5323 2.4726L19.54 2.48044L19.568 2.50873C19.5918 2.53308 19.6261 2.56825 19.6693 2.61324C19.7555 2.70319 19.8775 2.83264 20.0234 2.99354C20.3144 3.3145 20.7042 3.7647 21.0958 4.27897C21.4854 4.79069 21.8886 5.38098 22.1974 5.98127ZM7.99996 8.25003C8.41416 8.25003 8.74993 8.5858 8.74993 8.99999V13.3535C9.90418 13.68 10.7499 14.7412 10.7499 16C10.7499 17.5188 9.51873 18.75 7.99996 18.75C6.4812 18.75 5.25 17.5188 5.25 16C5.25 14.7412 6.09575 13.68 7.25 13.3535V8.99999C7.25 8.5858 7.58577 8.25003 7.99996 8.25003ZM7.99996 14.75C7.30959 14.75 6.74993 15.3096 6.74993 16C6.74993 16.6904 7.30959 17.25 7.99996 17.25C8.69034 17.25 9.25 16.6904 9.25 16C9.25 15.3096 8.69034 14.75 7.99996 14.75Z" fill="black"/>
</g>
</g>
</g>
<defs>
<clipPath id="clip0_232_16633">
<rect width="24" height="24" rx="5" fill="white"/>
</clipPath>
</defs>
</svg>
