<svg width="24" height="24" viewBox="0 0 24 24" fill="none" xmlns="http://www.w3.org/2000/svg">
<g id="dialpad">
<g clip-path="url(#clip0_232_12231)">
<g id="Weight=Dynamic">
<g id="Vector">
<path d="M5.5 5C5.22386 5 5 4.77614 5 4.5C5 4.22386 5.22386 4 5.5 4C5.77614 4 6 4.22386 6 4.5C6 4.77614 5.77614 5 5.5 5Z" fill="black"/>
<path d="M5.5 10C5.22386 10 5 9.77614 5 9.5C5 9.22386 5.22386 9 5.5 9C5.77614 9 6 9.22386 6 9.5C6 9.77614 5.77614 10 5.5 10Z" fill="black"/>
<path d="M5.5 15C5.22386 15 5 14.7761 5 14.5C5 14.2239 5.22386 14 5.5 14C5.77614 14 6 14.2239 6 14.5C6 14.7761 5.77614 15 5.5 15Z" fill="black"/>
<path d="M12 5C11.7239 5 11.5 4.77614 11.5 4.5C11.5 4.22386 11.7239 4 12 4C12.2761 4 12.5 4.22386 12.5 4.5C12.5 4.77614 12.2761 5 12 5Z" fill="black"/>
<path d="M12 10C11.7239 10 11.5 9.77614 11.5 9.5C11.5 9.22386 11.7239 9 12 9C12.2761 9 12.5 9.22386 12.5 9.5C12.5 9.77614 12.2761 10 12 10Z" fill="black"/>
<path d="M12 15C11.7239 15 11.5 14.7761 11.5 14.5C11.5 14.2239 11.7239 14 12 14C12.2761 14 12.5 14.2239 12.5 14.5C12.5 14.7761 12.2761 15 12 15Z" fill="black"/>
<path d="M12 20C11.7239 20 11.5 19.7761 11.5 19.5C11.5 19.2239 11.7239 19 12 19C12.2761 19 12.5 19.2239 12.5 19.5C12.5 19.7761 12.2761 20 12 20Z" fill="black"/>
<path d="M18.5 5C18.2239 5 18 4.77614 18 4.5C18 4.22386 18.2239 4 18.5 4C18.7761 4 19 4.22386 19 4.5C19 4.77614 18.7761 5 18.5 5Z" fill="black"/>
<path d="M18.5 10C18.2239 10 18 9.77614 18 9.5C18 9.22386 18.2239 9 18.5 9C18.7761 9 19 9.22386 19 9.5C19 9.77614 18.7761 10 18.5 10Z" fill="black"/>
<path d="M18.5 15C18.2239 15 18 14.7761 18 14.5C18 14.2239 18.2239 14 18.5 14C18.7761 14 19 14.2239 19 14.5C19 14.7761 18.7761 15 18.5 15Z" fill="black"/>
</g>
<path id="Vector (Stroke)" fill-rule="evenodd" clip-rule="evenodd" d="M4.25 4.5C4.25 3.80964 4.80964 3.25 5.5 3.25C6.19036 3.25 6.75 3.80964 6.75 4.5C6.75 5.19036 6.19036 5.75 5.5 5.75C4.80964 5.75 4.25 5.19036 4.25 4.5ZM5.5 4.75C5.63807 4.75 5.75 4.63807 5.75 4.5C5.75 4.36193 5.63807 4.25 5.5 4.25C5.36193 4.25 5.25 4.36193 5.25 4.5C5.25 4.63807 5.36193 4.75 5.5 4.75ZM10.75 4.5C10.75 3.80964 11.3096 3.25 12 3.25C12.6904 3.25 13.25 3.80964 13.25 4.5C13.25 5.19036 12.6904 5.75 12 5.75C11.3096 5.75 10.75 5.19036 10.75 4.5ZM12 4.75C12.1381 4.75 12.25 4.63807 12.25 4.5C12.25 4.36193 12.1381 4.25 12 4.25C11.8619 4.25 11.75 4.36193 11.75 4.5C11.75 4.63807 11.8619 4.75 12 4.75ZM17.25 4.5C17.25 3.80964 17.8096 3.25 18.5 3.25C19.1904 3.25 19.75 3.80964 19.75 4.5C19.75 5.19036 19.1904 5.75 18.5 5.75C17.8096 5.75 17.25 5.19036 17.25 4.5ZM18.5 4.75C18.6381 4.75 18.75 4.63807 18.75 4.5C18.75 4.36193 18.6381 4.25 18.5 4.25C18.3619 4.25 18.25 4.36193 18.25 4.5C18.25 4.63807 18.3619 4.75 18.5 4.75ZM4.25 9.5C4.25 8.80964 4.80964 8.25 5.5 8.25C6.19036 8.25 6.75 8.80964 6.75 9.5C6.75 10.1904 6.19036 10.75 5.5 10.75C4.80964 10.75 4.25 10.1904 4.25 9.5ZM5.5 9.75C5.63807 9.75 5.75 9.63807 5.75 9.5C5.75 9.36193 5.63807 9.25 5.5 9.25C5.36193 9.25 5.25 9.36193 5.25 9.5C5.25 9.63807 5.36193 9.75 5.5 9.75ZM10.75 9.5C10.75 8.80964 11.3096 8.25 12 8.25C12.6904 8.25 13.25 8.80964 13.25 9.5C13.25 10.1904 12.6904 10.75 12 10.75C11.3096 10.75 10.75 10.1904 10.75 9.5ZM12 9.75C12.1381 9.75 12.25 9.63807 12.25 9.5C12.25 9.36193 12.1381 9.25 12 9.25C11.8619 9.25 11.75 9.36193 11.75 9.5C11.75 9.63807 11.8619 9.75 12 9.75ZM17.25 9.5C17.25 8.80964 17.8096 8.25 18.5 8.25C19.1904 8.25 19.75 8.80964 19.75 9.5C19.75 10.1904 19.1904 10.75 18.5 10.75C17.8096 10.75 17.25 10.1904 17.25 9.5ZM18.5 9.75C18.6381 9.75 18.75 9.63807 18.75 9.5C18.75 9.36193 18.6381 9.25 18.5 9.25C18.3619 9.25 18.25 9.36193 18.25 9.5C18.25 9.63807 18.3619 9.75 18.5 9.75ZM4.25 14.5C4.25 13.8096 4.80964 13.25 5.5 13.25C6.19036 13.25 6.75 13.8096 6.75 14.5C6.75 15.1904 6.19036 15.75 5.5 15.75C4.80964 15.75 4.25 15.1904 4.25 14.5ZM5.5 14.75C5.63807 14.75 5.75 14.6381 5.75 14.5C5.75 14.3619 5.63807 14.25 5.5 14.25C5.36193 14.25 5.25 14.3619 5.25 14.5C5.25 14.6381 5.36193 14.75 5.5 14.75ZM10.75 14.5C10.75 13.8096 11.3096 13.25 12 13.25C12.6904 13.25 13.25 13.8096 13.25 14.5C13.25 15.1904 12.6904 15.75 12 15.75C11.3096 15.75 10.75 15.1904 10.75 14.5ZM12 14.75C12.1381 14.75 12.25 14.6381 12.25 14.5C12.25 14.3619 12.1381 14.25 12 14.25C11.8619 14.25 11.75 14.3619 11.75 14.5C11.75 14.6381 11.8619 14.75 12 14.75ZM17.25 14.5C17.25 13.8096 17.8096 13.25 18.5 13.25C19.1904 13.25 19.75 13.8096 19.75 14.5C19.75 15.1904 19.1904 15.75 18.5 15.75C17.8096 15.75 17.25 15.1904 17.25 14.5ZM18.5 14.75C18.6381 14.75 18.75 14.6381 18.75 14.5C18.75 14.3619 18.6381 14.25 18.5 14.25C18.3619 14.25 18.25 14.3619 18.25 14.5C18.25 14.6381 18.3619 14.75 18.5 14.75ZM10.75 19.5C10.75 18.8096 11.3096 18.25 12 18.25C12.6904 18.25 13.25 18.8096 13.25 19.5C13.25 20.1904 12.6904 20.75 12 20.75C11.3096 20.75 10.75 20.1904 10.75 19.5ZM12 19.75C12.1381 19.75 12.25 19.6381 12.25 19.5C12.25 19.3619 12.1381 19.25 12 19.25C11.8619 19.25 11.75 19.3619 11.75 19.5C11.75 19.6381 11.8619 19.75 12 19.75Z" fill="black"/>
</g>
</g>
</g>
<defs>
<clipPath id="clip0_232_12231">
<rect width="24" height="24" rx="5" fill="white"/>
</clipPath>
</defs>
</svg>
