<svg width="24" height="24" viewBox="0 0 24 24" fill="none" xmlns="http://www.w3.org/2000/svg">
<g id="dice-five">
<g clip-path="url(#clip0_232_8311)">
<g id="Weight=Dynamic">
<g id="Vector">
<path d="M7.5 8C7.22386 8 7 7.77614 7 7.5C7 7.22386 7.22386 7 7.5 7C7.77614 7 8 7.22386 8 7.5C8 7.77614 7.77614 8 7.5 8Z" fill="black"/>
<path d="M16.5 8C16.2239 8 16 7.77614 16 7.5C16 7.22386 16.2239 7 16.5 7C16.7761 7 17 7.22386 17 7.5C17 7.77614 16.7761 8 16.5 8Z" fill="black"/>
<path d="M12 12.5C11.7239 12.5 11.5 12.2761 11.5 12C11.5 11.7239 11.7239 11.5 12 11.5C12.2761 11.5 12.5 11.7239 12.5 12C12.5 12.2761 12.2761 12.5 12 12.5Z" fill="black"/>
<path d="M7.5 17C7.22386 17 7 16.7761 7 16.5C7 16.2239 7.22386 16 7.5 16C7.77614 16 8 16.2239 8 16.5C8 16.7761 7.77614 17 7.5 17Z" fill="black"/>
<path d="M16.5 17C16.2239 17 16 16.7761 16 16.5C16 16.2239 16.2239 16 16.5 16C16.7761 16 17 16.2239 17 16.5C17 16.7761 16.7761 17 16.5 17Z" fill="black"/>
</g>
<path id="Vector (Stroke)" fill-rule="evenodd" clip-rule="evenodd" d="M3.75 3.75V20.25H20.25V3.75H3.75ZM2.25 3.6C2.25 2.85441 2.85442 2.25 3.6 2.25H20.4C21.1456 2.25 21.75 2.85442 21.75 3.6V20.4C21.75 21.1456 21.1456 21.75 20.4 21.75H3.6C2.85442 21.75 2.25 21.1456 2.25 20.4V3.6ZM6.25 7.5C6.25 6.80964 6.80964 6.25 7.5 6.25C8.19036 6.25 8.75 6.80964 8.75 7.5C8.75 8.19036 8.19036 8.75 7.5 8.75C6.80964 8.75 6.25 8.19036 6.25 7.5ZM7.5 7.75C7.63807 7.75 7.75 7.63807 7.75 7.5C7.75 7.36193 7.63807 7.25 7.5 7.25C7.36193 7.25 7.25 7.36193 7.25 7.5C7.25 7.63807 7.36193 7.75 7.5 7.75ZM15.25 7.5C15.25 6.80964 15.8096 6.25 16.5 6.25C17.1904 6.25 17.75 6.80964 17.75 7.5C17.75 8.19036 17.1904 8.75 16.5 8.75C15.8096 8.75 15.25 8.19036 15.25 7.5ZM16.5 7.75C16.6381 7.75 16.75 7.63807 16.75 7.5C16.75 7.36193 16.6381 7.25 16.5 7.25C16.3619 7.25 16.25 7.36193 16.25 7.5C16.25 7.63807 16.3619 7.75 16.5 7.75ZM10.75 12C10.75 11.3096 11.3096 10.75 12 10.75C12.6904 10.75 13.25 11.3096 13.25 12C13.25 12.6904 12.6904 13.25 12 13.25C11.3096 13.25 10.75 12.6904 10.75 12ZM12 12.25C12.1381 12.25 12.25 12.1381 12.25 12C12.25 11.8619 12.1381 11.75 12 11.75C11.8619 11.75 11.75 11.8619 11.75 12C11.75 12.1381 11.8619 12.25 12 12.25ZM6.25 16.5C6.25 15.8096 6.80964 15.25 7.5 15.25C8.19036 15.25 8.75 15.8096 8.75 16.5C8.75 17.1904 8.19036 17.75 7.5 17.75C6.80964 17.75 6.25 17.1904 6.25 16.5ZM7.5 16.75C7.63807 16.75 7.75 16.6381 7.75 16.5C7.75 16.3619 7.63807 16.25 7.5 16.25C7.36193 16.25 7.25 16.3619 7.25 16.5C7.25 16.6381 7.36193 16.75 7.5 16.75ZM15.25 16.5C15.25 15.8096 15.8096 15.25 16.5 15.25C17.1904 15.25 17.75 15.8096 17.75 16.5C17.75 17.1904 17.1904 17.75 16.5 17.75C15.8096 17.75 15.25 17.1904 15.25 16.5ZM16.5 16.75C16.6381 16.75 16.75 16.6381 16.75 16.5C16.75 16.3619 16.6381 16.25 16.5 16.25C16.3619 16.25 16.25 16.3619 16.25 16.5C16.25 16.6381 16.3619 16.75 16.5 16.75Z" fill="black"/>
</g>
</g>
</g>
<defs>
<clipPath id="clip0_232_8311">
<rect width="24" height="24" rx="5" fill="white"/>
</clipPath>
</defs>
</svg>
