<svg width="24" height="24" viewBox="0 0 24 24" fill="none" xmlns="http://www.w3.org/2000/svg">
<g id="director-chair">
<g clip-path="url(#clip0_232_9138)">
<g id="Weight=Dynamic">
<path id="Vector (Stroke)" fill-rule="evenodd" clip-rule="evenodd" d="M5 2.25C5.41421 2.25 5.75 2.58579 5.75 3V3.25L18.25 3.25V3C18.25 2.58579 18.5858 2.25 19 2.25C19.4142 2.25 19.75 2.58579 19.75 3V9.8162C19.75 10.3094 19.6735 10.7923 19.5285 11.25H20V12.75H18.7357C18.413 13.161 18.0205 13.5213 17.5686 13.8118L13.3869 16.5L19.4056 20.3691L18.5944 21.6309L12 17.3916L5.40557 21.6309L4.59443 20.3691L10.6131 16.5L5.51292 13.2213C5.30528 13.0879 5.11926 12.9289 4.95792 12.75H4V11.25H4.27131C4.25721 11.1374 4.25 11.0232 4.25 10.9081V3C4.25 2.58579 4.58579 2.25 5 2.25ZM7.55361 12.75L12 15.6084L16.4464 12.75L7.55361 12.75ZM17.9166 11.25L5.79764 11.25C5.76639 11.1401 5.75 11.0252 5.75 10.9081V7.75L18.25 7.75V9.8162C18.25 10.3213 18.1327 10.8104 17.9166 11.25ZM18.25 6.25V4.75L5.75 4.75V6.25L18.25 6.25Z" fill="black"/>
</g>
</g>
</g>
<defs>
<clipPath id="clip0_232_9138">
<rect width="24" height="24" rx="5" fill="white"/>
</clipPath>
</defs>
</svg>
