<svg width="24" height="24" viewBox="0 0 24 24" fill="none" xmlns="http://www.w3.org/2000/svg">
<g id="discord">
<g clip-path="url(#clip0_232_13990)">
<g id="Weight=Dynamic">
<path id="Vector (Stroke)" fill-rule="evenodd" clip-rule="evenodd" d="M8.8813 3.26456C9.21294 3.19823 9.54795 3.36208 9.6992 3.66459L10.4919 5.25H13.5365L14.3292 3.66459C14.4805 3.36208 14.8155 3.19823 15.1472 3.26456L15.0001 4C15.1472 3.26456 15.147 3.26454 15.1472 3.26456L15.1484 3.26481L15.1505 3.26524L15.1575 3.26666L15.182 3.27174C15.203 3.27611 15.2329 3.28248 15.271 3.29082C15.3471 3.30751 15.4561 3.33219 15.5908 3.36486C15.8599 3.4301 16.2344 3.52777 16.6581 3.65816C17.4901 3.91416 18.5739 4.31452 19.4161 4.87596C21.4709 6.24583 22.2541 8.9206 22.5666 11.1536C22.8353 13.0731 22.7811 14.889 22.7577 15.6753C22.7533 15.8207 22.7501 15.9309 22.7501 16C22.7501 16.1381 22.7119 16.2736 22.6398 16.3914C21.8564 17.6719 20.3089 18.6253 19.0868 19.2354C18.4556 19.5505 17.8698 19.7939 17.4419 19.9585C17.2276 20.041 17.0517 20.1041 16.9282 20.1471C16.8664 20.1686 16.8177 20.185 16.7837 20.1963L16.744 20.2094L16.7328 20.213L16.7295 20.2141L16.7284 20.2144C16.7282 20.2145 16.7276 20.2146 16.5001 19.5L16.7284 20.2144C16.3764 20.3265 15.9944 20.1658 15.8292 19.8354L15.0117 18.2003C13.9865 18.4806 12.998 18.625 12.0001 18.625C11.0102 18.625 10.0297 18.483 9.01337 18.2071L8.1992 19.8354C8.034 20.1658 7.65281 20.3267 7.30082 20.2146L7.52838 19.5C7.30082 20.2146 7.30098 20.2147 7.30082 20.2146L7.29899 20.2141L7.29564 20.213L7.28446 20.2094L7.24473 20.1963C7.21074 20.185 7.162 20.1686 7.10023 20.1471C6.97676 20.1041 6.80089 20.041 6.58652 19.9585C6.1587 19.7939 5.57283 19.5505 4.94163 19.2354C3.71955 18.6253 2.17205 17.6719 1.38862 16.3914C1.31653 16.2736 1.27838 16.1381 1.27838 16C1.27838 15.9309 1.2751 15.8207 1.27076 15.6753C1.24732 14.889 1.19318 13.0731 1.46184 11.1536C1.77438 8.9206 2.55756 6.24583 4.61236 4.87596C5.45451 4.31452 6.53834 3.91416 7.37032 3.65816C7.79409 3.52777 8.16851 3.4301 8.43762 3.36486C8.57239 3.33219 8.68131 3.30751 8.75746 3.29082C8.79555 3.28248 8.82548 3.27611 8.8464 3.27174L8.87092 3.26666L8.87792 3.26524L8.8813 3.26456C8.88141 3.26454 8.8813 3.26456 9.02838 4L8.8813 3.26456ZM8.62213 4.86455C8.39699 4.92169 8.11803 4.9975 7.81145 5.09183C7.01843 5.33584 6.10226 5.68547 5.44441 6.12403C3.96912 7.10756 3.2523 9.18278 2.94736 11.3615C2.69999 13.1288 2.7462 14.7643 2.76959 15.5924C2.7714 15.6564 2.77307 15.7156 2.77446 15.7697C3.35924 16.5957 4.48841 17.3326 5.61164 17.8934C6.18936 18.1818 6.72937 18.4062 7.12519 18.5585C7.13518 18.5624 7.14508 18.5662 7.15489 18.5699L7.57116 17.7374C6.80439 17.449 6.00793 17.0925 5.16465 16.6708C4.79417 16.4856 4.644 16.0351 4.82924 15.6646C5.01449 15.2941 5.46499 15.1439 5.83547 15.3292C8.28687 16.5549 10.1658 17.125 12.0001 17.125C13.8343 17.125 15.7133 16.5549 18.1647 15.3292C18.5351 15.1439 18.9856 15.2941 19.1709 15.6646C19.3561 16.0351 19.206 16.4856 18.8355 16.6708C18.0009 17.0881 17.2122 17.4416 16.4528 17.7284L16.8736 18.5699C16.8834 18.5662 16.8933 18.5624 16.9033 18.5585C17.2991 18.4062 17.8391 18.1818 18.4168 17.8934C19.54 17.3326 20.6692 16.5957 21.254 15.7697C21.2554 15.7156 21.257 15.6564 21.2589 15.5924C21.2823 14.7643 21.3285 13.1288 21.0811 11.3615C20.7761 9.18278 20.0593 7.10756 18.584 6.12403C17.9262 5.68547 17.01 5.33584 16.217 5.09183C15.9104 4.9975 15.6315 4.92169 15.4063 4.86455L14.6709 6.33541C14.5438 6.58949 14.2841 6.75 14.0001 6.75H10.0284C9.74431 6.75 9.48461 6.58949 9.35756 6.33541L8.62213 4.86455ZM6.8394 10.1358C7.2174 9.63178 7.79685 9.25 8.50006 9.25C9.20327 9.25 9.78273 9.63178 10.1607 10.1358C10.5386 10.6395 10.7501 11.3011 10.7501 12C10.7501 12.6989 10.5386 13.3604 10.1607 13.8642C9.78273 14.3682 9.20327 14.75 8.50006 14.75C7.79685 14.75 7.2174 14.3682 6.8394 13.8642C6.46158 13.3604 6.25006 12.6989 6.25006 12C6.25006 11.3011 6.46158 10.6395 6.8394 10.1358ZM8.0394 11.0358C7.87434 11.2559 7.75006 11.5943 7.75006 12C7.75006 12.4057 7.87434 12.7441 8.0394 12.9642C8.2043 13.1841 8.37485 13.25 8.50006 13.25C8.62528 13.25 8.79583 13.1841 8.96072 12.9642C9.12579 12.7441 9.25006 12.4057 9.25006 12C9.25006 11.5943 9.12579 11.2559 8.96072 11.0358C8.79583 10.8159 8.62528 10.75 8.50006 10.75C8.37485 10.75 8.2043 10.8159 8.0394 11.0358ZM13.8394 10.1358C14.2174 9.63178 14.7969 9.25 15.5001 9.25C16.2033 9.25 16.7827 9.63178 17.1607 10.1358C17.5386 10.6395 17.7501 11.3011 17.7501 12C17.7501 12.6989 17.5386 13.3604 17.1607 13.8642C16.7827 14.3682 16.2033 14.75 15.5001 14.75C14.7969 14.75 14.2174 14.3682 13.8394 13.8642C13.4616 13.3604 13.2501 12.6989 13.2501 12C13.2501 11.3011 13.4616 10.6395 13.8394 10.1358ZM15.0394 11.0358C14.8743 11.2559 14.7501 11.5943 14.7501 12C14.7501 12.4057 14.8743 12.7441 15.0394 12.9642C15.2043 13.1841 15.3748 13.25 15.5001 13.25C15.6253 13.25 15.7958 13.1841 15.9607 12.9642C16.1258 12.7441 16.2501 12.4057 16.2501 12C16.2501 11.5943 16.1258 11.2559 15.9607 11.0358C15.7958 10.8159 15.6253 10.75 15.5001 10.75C15.3748 10.75 15.2043 10.8159 15.0394 11.0358Z" fill="black"/>
</g>
</g>
</g>
<defs>
<clipPath id="clip0_232_13990">
<rect width="24" height="24" rx="5" fill="white"/>
</clipPath>
</defs>
</svg>
