<svg width="24" height="24" viewBox="0 0 24 24" fill="none" xmlns="http://www.w3.org/2000/svg">
<g id="dishwasher">
<g clip-path="url(#clip0_232_9278)">
<g id="Weight=Dynamic">
<path id="Vector (Stroke)" fill-rule="evenodd" clip-rule="evenodd" d="M2.25 5C2.25 3.48122 3.48122 2.25 5 2.25H18.9999C20.5187 2.25 21.7499 3.48121 21.7499 4.99999L21.75 6.99155C21.75 6.99436 21.75 6.99718 21.75 7C21.75 7.00282 21.75 7.00563 21.75 7.00844L21.75 19C21.75 20.5188 20.5188 21.75 19 21.75H16.5C16.0858 21.75 15.75 21.4142 15.75 21C15.75 20.5858 16.0858 20.25 16.5 20.25H19C19.6903 20.25 20.25 19.6904 20.25 19L20.25 7.75H3.75V19C3.75 19.6904 4.30964 20.25 5 20.25H7.5C7.91421 20.25 8.25 20.5858 8.25 21C8.25 21.4142 7.91421 21.75 7.5 21.75H5C3.48122 21.75 2.25 20.5188 2.25 19V5ZM3.75 6.25H20.25L20.2499 4.99999C20.2499 4.30964 19.6903 3.75 18.9999 3.75H5C4.30964 3.75 3.75 4.30964 3.75 5V6.25ZM15.5117 4.44142C15.8196 4.71852 15.8446 5.19274 15.5675 5.50062L15.5575 5.51173C15.2804 5.81961 14.8062 5.84456 14.4983 5.56747C14.1904 5.29037 14.1654 4.81615 14.4425 4.50827L14.4525 4.49716C14.7296 4.18928 15.2038 4.16433 15.5117 4.44142ZM18.5117 4.44142C18.8196 4.71852 18.8446 5.19274 18.5675 5.50062L18.5575 5.51173C18.2804 5.81961 17.8062 5.84456 17.4983 5.56747C17.1904 5.29037 17.1654 4.81615 17.4425 4.50827L17.4525 4.49716C17.7296 4.18928 18.2039 4.16433 18.5117 4.44142ZM8.25 10C8.25 9.58579 8.58579 9.25 9 9.25H15C15.4142 9.25 15.75 9.58579 15.75 10V12.6667C15.75 14.5828 14.5075 16.2868 12.75 16.6698V20.25H14C14.4142 20.25 14.75 20.5858 14.75 21C14.75 21.4142 14.4142 21.75 14 21.75H10C9.58579 21.75 9.25 21.4142 9.25 21C9.25 20.5858 9.58579 20.25 10 20.25H11.25V16.6698C9.49251 16.2868 8.25 14.5828 8.25 12.6667V10ZM9.75 10.75V12.6667C9.75 14.1697 10.8297 15.25 12 15.25C13.1703 15.25 14.25 14.1697 14.25 12.6667V10.75H9.75Z" fill="black"/>
</g>
</g>
</g>
<defs>
<clipPath id="clip0_232_9278">
<rect width="24" height="24" rx="5" fill="white"/>
</clipPath>
</defs>
</svg>
