<svg width="24" height="24" viewBox="0 0 24 24" fill="none" xmlns="http://www.w3.org/2000/svg">
<g id="divide-three">
<g clip-path="url(#clip0_232_10885)">
<g id="Weight=Dynamic">
<path id="Vector (Stroke)" fill-rule="evenodd" clip-rule="evenodd" d="M11.4697 1.46967C11.7626 1.17678 12.2374 1.17678 12.5303 1.46967L16.5303 5.46967C16.8232 5.76256 16.8232 6.23744 16.5303 6.53033C16.2374 6.82322 15.7626 6.82322 15.4697 6.53033L12.75 3.81066V13.127C13.8016 11.9737 15.3163 11.25 17 11.25H20.1893L17.4697 8.53033C17.1768 8.23744 17.1768 7.76256 17.4697 7.46967C17.7626 7.17678 18.2374 7.17678 18.5303 7.46967L22.5303 11.4697C22.8232 11.7626 22.8232 12.2374 22.5303 12.5303L18.5303 16.5303C18.2374 16.8232 17.7626 16.8232 17.4697 16.5303C17.1768 16.2374 17.1768 15.7626 17.4697 15.4697L20.1893 12.75H17C14.6528 12.75 12.75 14.6528 12.75 17V22C12.75 22.4142 12.4142 22.75 12 22.75C11.5858 22.75 11.25 22.4142 11.25 22V17C11.25 14.6528 9.3472 12.75 7 12.75H3.81066L6.53033 15.4697C6.82322 15.7626 6.82322 16.2374 6.53033 16.5303C6.23744 16.8232 5.76256 16.8232 5.46967 16.5303L1.46967 12.5303C1.17678 12.2374 1.17678 11.7626 1.46967 11.4697L5.46967 7.46967C5.76256 7.17678 6.23744 7.17678 6.53033 7.46967C6.82322 7.76256 6.82322 8.23744 6.53033 8.53033L3.81066 11.25H7C8.68372 11.25 10.1984 11.9737 11.25 13.127V3.81066L8.53033 6.53033C8.23744 6.82322 7.76256 6.82322 7.46967 6.53033C7.17678 6.23744 7.17678 5.76256 7.46967 5.46967L11.4697 1.46967Z" fill="black"/>
</g>
</g>
</g>
<defs>
<clipPath id="clip0_232_10885">
<rect width="24" height="24" rx="5" fill="white"/>
</clipPath>
</defs>
</svg>
