<svg width="24" height="24" viewBox="0 0 24 24" fill="none" xmlns="http://www.w3.org/2000/svg">
<g id="divide">
<g clip-path="url(#clip0_232_10901)">
<g id="Weight=Dynamic">
<path id="Vector (Stroke)" fill-rule="evenodd" clip-rule="evenodd" d="M7.53033 2.46967C7.82322 2.76256 7.82322 3.23744 7.53033 3.53033L4.81066 6.25H7C9.14213 6.25 11.0107 7.4214 12 9.15856C12.9893 7.4214 14.8579 6.25 17 6.25H19.1893L16.4697 3.53033C16.1768 3.23744 16.1768 2.76256 16.4697 2.46967C16.7626 2.17678 17.2374 2.17678 17.5303 2.46967L21.5303 6.46967C21.8232 6.76256 21.8232 7.23744 21.5303 7.53033L17.5303 11.5303C17.2374 11.8232 16.7626 11.8232 16.4697 11.5303C16.1768 11.2374 16.1768 10.7626 16.4697 10.4697L19.1893 7.75H17C14.6528 7.75 12.75 9.65283 12.75 12V21C12.75 21.4142 12.4142 21.75 12 21.75C11.5858 21.75 11.25 21.4142 11.25 21V12C11.25 9.65283 9.3472 7.75 7 7.75H4.81066L7.53033 10.4697C7.82322 10.7626 7.82322 11.2374 7.53033 11.5303C7.23744 11.8232 6.76256 11.8232 6.46967 11.5303L2.46967 7.53033C2.17678 7.23744 2.17678 6.76256 2.46967 6.46967L6.46967 2.46967C6.76256 2.17678 7.23744 2.17678 7.53033 2.46967Z" fill="black"/>
</g>
</g>
</g>
<defs>
<clipPath id="clip0_232_10901">
<rect width="24" height="24" rx="5" fill="white"/>
</clipPath>
</defs>
</svg>
