<svg width="24" height="24" viewBox="0 0 24 24" fill="none" xmlns="http://www.w3.org/2000/svg">
<g id="dna">
<g clip-path="url(#clip0_232_13578)">
<g id="Weight=Dynamic">
<path id="Vector (Stroke)" fill-rule="evenodd" clip-rule="evenodd" d="M4 2.25C4.41421 2.25 4.75 2.58579 4.75 3C4.75 5.44785 6.50302 7.5034 8.45885 9.01612C9.41747 9.75755 10.3804 10.3335 11.1059 10.7246C11.4677 10.9196 11.7682 11.0674 11.9764 11.1658C11.9844 11.1695 11.9923 11.1732 12 11.1769C12.0077 11.1732 12.0156 11.1695 12.0236 11.1658C12.2318 11.0674 12.5323 10.9196 12.8941 10.7246C13.359 10.474 13.9215 10.1474 14.5179 9.75H11C10.5858 9.75 10.25 9.41421 10.25 9C10.25 8.58579 10.5858 8.25 11 8.25H16.4569C16.9652 7.78807 17.4396 7.28703 17.8479 6.75H8C7.58579 6.75 7.25 6.41421 7.25 6C7.25 5.58579 7.58579 5.25 8 5.25H18.7509C19.0661 4.54457 19.25 3.79286 19.25 3C19.25 2.58579 19.5858 2.25 20 2.25C20.4142 2.25 20.75 2.58579 20.75 3C20.75 6.17715 18.503 8.6216 16.4588 10.2026C15.4542 10.9797 14.4536 11.5835 13.6888 12C14.4536 12.4165 15.4542 13.0203 16.4588 13.7974C18.503 15.3784 20.75 17.8228 20.75 21C20.75 21.4142 20.4142 21.75 20 21.75C19.5858 21.75 19.25 21.4142 19.25 21C19.25 20.2071 19.0661 19.4554 18.7509 18.75H8C7.58579 18.75 7.25 18.4142 7.25 18C7.25 17.5858 7.58579 17.25 8 17.25H17.8479C17.4396 16.713 16.9652 16.2119 16.4569 15.75H11C10.5858 15.75 10.25 15.4142 10.25 15C10.25 14.5858 10.5858 14.25 11 14.25H14.5179C13.9215 13.8526 13.359 13.526 12.8941 13.2754C12.5323 13.0804 12.2318 12.9326 12.0236 12.8342C12.0156 12.8305 12.0077 12.8268 12 12.8231C11.9923 12.8268 11.9844 12.8305 11.9764 12.8342C11.7682 12.9326 11.4677 13.0804 11.1059 13.2754C10.3804 13.6665 9.41747 14.2425 8.45885 14.9839C6.50302 16.4966 4.75 18.5522 4.75 21C4.75 21.4142 4.41421 21.75 4 21.75C3.58579 21.75 3.25 21.4142 3.25 21C3.25 17.8228 5.49698 15.3784 7.54115 13.7974C8.54578 13.0203 9.54638 12.4165 10.3112 12C9.54638 11.5835 8.54578 10.9797 7.54115 10.2026C5.49698 8.6216 3.25 6.17715 3.25 3C3.25 2.58579 3.58579 2.25 4 2.25Z" fill="black"/>
</g>
</g>
</g>
<defs>
<clipPath id="clip0_232_13578">
<rect width="24" height="24" rx="5" fill="white"/>
</clipPath>
</defs>
</svg>
