<svg width="24" height="24" viewBox="0 0 24 24" fill="none" xmlns="http://www.w3.org/2000/svg">
<g id="dns">
<g clip-path="url(#clip0_232_3824)">
<g id="Weight=Dynamic">
<path id="Vector (Stroke)" fill-rule="evenodd" clip-rule="evenodd" d="M10.9293 1.30265C11.2815 1.26783 11.6387 1.25 12 1.25C12.3618 1.25 12.7194 1.26787 13.072 1.30278C13.0738 1.30296 13.0755 1.30313 13.0772 1.3033C17.2119 1.71469 20.6571 4.46882 22.0663 8.2193C22.0712 8.23134 22.0758 8.24354 22.08 8.25588C22.5133 9.4218 22.75 10.6833 22.75 12V13C22.75 13.4142 22.4142 13.75 22 13.75C21.5858 13.75 21.25 13.4142 21.25 13V12C21.25 11.0424 21.1045 10.1187 20.8343 9.25H16.5473C16.6746 10.11 16.75 11.0291 16.75 11.9999V13C16.75 13.4142 16.4142 13.75 16 13.75C15.5858 13.75 15.25 13.4142 15.25 13V11.9999C15.25 11.0239 15.1671 10.1043 15.0295 9.25H8.97048C8.83286 10.1043 8.75 11.0239 8.75 11.9999V13C8.75 13.4142 8.41421 13.75 8 13.75C7.58579 13.75 7.25 13.4142 7.25 13V11.9999C7.25 11.0291 7.32537 10.11 7.45268 9.25H3.16565C2.89552 10.1187 2.75 11.0424 2.75 12C2.75 12.958 2.89554 13.8815 3.1657 14.75H4C4.41421 14.75 4.75 15.0858 4.75 15.5C4.75 15.9142 4.41421 16.25 4 16.25H3.78235C4.01913 16.7067 4.29289 17.1412 4.59965 17.5495C4.84844 17.8807 4.78164 18.3509 4.45046 18.5997C4.11928 18.8484 3.64913 18.7816 3.40035 18.4505C2.79297 17.6419 2.29678 16.7448 1.93471 15.782C1.9295 15.7692 1.92463 15.7562 1.92013 15.743C1.48687 14.5772 1.25 13.316 1.25 12C1.25 6.42644 5.49162 1.84358 10.923 1.30328C10.9251 1.30307 10.9272 1.30286 10.9293 1.30265ZM9.47584 3.09859C6.99899 3.79957 4.94461 5.50647 3.782 7.75H7.73685C8.02981 6.48375 8.42071 5.38259 8.8114 4.47741C9.03885 3.95045 9.26666 3.48887 9.47584 3.09859ZM9.27999 7.75H14.72C14.4614 6.72481 14.1365 5.82504 13.8114 5.07183C13.4518 4.23873 13.0933 3.58796 12.8273 3.14904C12.7344 2.99563 12.6528 2.86829 12.5866 2.7683C12.3927 2.75616 12.197 2.75 12 2.75C11.803 2.75 11.6073 2.75616 11.4134 2.7683C11.3472 2.86829 11.2656 2.99563 11.1727 3.14904C10.9067 3.58796 10.5482 4.23873 10.1886 5.07183C9.8635 5.82504 9.53857 6.72481 9.27999 7.75ZM14.5242 3.0986C14.7333 3.48887 14.9612 3.95045 15.1886 4.47741C15.5793 5.38259 15.9702 6.48375 16.2631 7.75H20.218C19.0554 5.50647 17.001 3.79958 14.5242 3.0986ZM12.8277 15.2701C13.1662 15.1901 13.5153 15.3535 13.6708 15.6646L15.25 18.8229V16C15.25 15.5858 15.5858 15.25 16 15.25C16.4142 15.25 16.75 15.5858 16.75 16V22C16.75 22.3478 16.5108 22.65 16.1723 22.7299C15.8338 22.8099 15.4847 22.6465 15.3292 22.3354L13.75 19.1771V22C13.75 22.4142 13.4142 22.75 13 22.75C12.5858 22.75 12.25 22.4142 12.25 22V16C12.25 15.6522 12.4892 15.35 12.8277 15.2701ZM6.25 16C6.25 15.5858 6.58579 15.25 7 15.25H8C9.51878 15.25 10.75 16.4812 10.75 18V20C10.75 21.5188 9.51878 22.75 8 22.75H7C6.58579 22.75 6.25 22.4142 6.25 22V16ZM7.75 16.75V21.25H8C8.69036 21.25 9.25 20.6904 9.25 20V18C9.25 17.3096 8.69036 16.75 8 16.75H7.75ZM20.5 16.75C20.0858 16.75 19.75 17.0858 19.75 17.5C19.75 17.9142 20.0858 18.25 20.5 18.25H21C22.2426 18.25 23.25 19.2574 23.25 20.5C23.25 21.7426 22.2426 22.75 21 22.75H19C18.5858 22.75 18.25 22.4142 18.25 22C18.25 21.5858 18.5858 21.25 19 21.25H21C21.4142 21.25 21.75 20.9142 21.75 20.5C21.75 20.0858 21.4142 19.75 21 19.75H20.5C19.2574 19.75 18.25 18.7426 18.25 17.5C18.25 16.2574 19.2574 15.25 20.5 15.25H22C22.4142 15.25 22.75 15.5858 22.75 16C22.75 16.4142 22.4142 16.75 22 16.75H20.5Z" fill="black"/>
</g>
</g>
</g>
<defs>
<clipPath id="clip0_232_3824">
<rect width="24" height="24" rx="5" fill="white"/>
</clipPath>
</defs>
</svg>
