<svg width="24" height="24" viewBox="0 0 24 24" fill="none" xmlns="http://www.w3.org/2000/svg">
<g id="doc-magnifying-glass-in">
<g clip-path="url(#clip0_232_6375)">
<g id="Weight=Dynamic">
<path id="Vector (Stroke)" fill-rule="evenodd" clip-rule="evenodd" d="M4.75 2.75V21.25H19.25V6.75H16.6C15.8544 6.75 15.25 6.14559 15.25 5.4V2.75H4.75ZM4.6 1.25C3.85442 1.25 3.25 1.85441 3.25 2.6V21.4C3.25 22.1456 3.85442 22.75 4.6 22.75H19.4C20.1456 22.75 20.75 22.1456 20.75 21.4V5.74853C20.75 5.39049 20.6078 5.04711 20.3546 4.79393L17.2061 1.64541C16.9529 1.39223 16.6095 1.25 16.2515 1.25H4.6ZM16.75 3.31066L18.6893 5.25H16.75V3.31066ZM11.5 10.25C10.2574 10.25 9.25 11.2574 9.25 12.5C9.25 13.7426 10.2574 14.75 11.5 14.75C12.1226 14.75 12.6849 14.4981 13.0931 14.0889C13.4998 13.6811 13.75 13.1205 13.75 12.5C13.75 11.2574 12.7426 10.25 11.5 10.25ZM7.75 12.5C7.75 10.4289 9.42893 8.75 11.5 8.75C13.5711 8.75 15.25 10.4289 15.25 12.5C15.25 13.264 15.021 13.9753 14.6286 14.568L16.0303 15.9697C16.3232 16.2626 16.3232 16.7374 16.0303 17.0303C15.7374 17.3232 15.2626 17.3232 14.9697 17.0303L13.568 15.6286C12.9753 16.021 12.264 16.25 11.5 16.25C9.42893 16.25 7.75 14.5711 7.75 12.5Z" fill="black"/>
</g>
</g>
</g>
<defs>
<clipPath id="clip0_232_6375">
<rect width="24" height="24" rx="5" fill="white"/>
</clipPath>
</defs>
</svg>
