<svg width="24" height="24" viewBox="0 0 24 24" fill="none" xmlns="http://www.w3.org/2000/svg">
<g id="doc-star-in">
<g clip-path="url(#clip0_232_6387)">
<g id="Weight=Dynamic">
<path id="Vector (Stroke)" fill-rule="evenodd" clip-rule="evenodd" d="M4.75 2.75V21.25H19.25V6.75H16.6C15.8544 6.75 15.25 6.14559 15.25 5.4V2.75H4.75ZM4.6 1.25C3.85442 1.25 3.25 1.85441 3.25 2.6V21.4C3.25 22.1456 3.85442 22.75 4.6 22.75H19.4C20.1456 22.75 20.75 22.1456 20.75 21.4V5.74853C20.75 5.39049 20.6078 5.04711 20.3546 4.79393L17.2061 1.64541C16.9529 1.39223 16.6095 1.25 16.2515 1.25H4.6ZM16.75 3.31066L18.6893 5.25H16.75V3.31066ZM10.9956 7.89219C11.3994 7.03594 12.6006 7.03594 13.0044 7.89219L13.8731 9.73414L15.802 10.0292C16.7501 10.1743 17.0363 11.3219 16.4251 11.945L15.0103 13.3872L15.3455 15.433C15.4846 16.2816 14.6006 17.0993 13.7162 16.6125L12 15.6679L10.2838 16.6125C9.39937 17.0993 8.51538 16.2816 8.65445 15.433L8.9897 13.3872L7.5749 11.945C6.96368 11.3219 7.24992 10.1743 8.198 10.0292L10.1269 9.73414L10.9956 7.89219ZM12 9.27902L11.3133 10.7351C11.2068 10.9608 10.9951 11.1188 10.7484 11.1565L9.14352 11.402L10.3267 12.6082C10.494 12.7787 10.5701 13.0189 10.5314 13.2547L10.2596 14.9136L11.6384 14.1547C11.8635 14.0308 12.1365 14.0308 12.3616 14.1547L13.7404 14.9136L13.4686 13.2547C13.4299 13.0189 13.506 12.7787 13.6733 12.6082L14.8565 11.402L13.2516 11.1565C13.0049 11.1188 12.7932 10.9608 12.6867 10.7351L12 9.27902Z" fill="black"/>
</g>
</g>
</g>
<defs>
<clipPath id="clip0_232_6387">
<rect width="24" height="24" rx="5" fill="white"/>
</clipPath>
</defs>
</svg>
