<svg width="24" height="24" viewBox="0 0 24 24" fill="none" xmlns="http://www.w3.org/2000/svg">
<g id="dogecoin-rotate-out">
<g clip-path="url(#clip0_232_7329)">
<g id="Weight=Dynamic">
<g id="Vector">
<path fill-rule="evenodd" clip-rule="evenodd" d="M11.9999 2.75C7.20394 2.75 3.25966 6.40058 2.79564 11.0741C2.75472 11.4863 2.3874 11.7873 1.97521 11.7463C1.56302 11.7054 1.26206 11.3381 1.30298 10.9259C1.84241 5.49278 6.42523 1.25 11.9999 1.25C16.4093 1.25 20.197 3.90459 21.8551 7.69972C22.021 8.07929 21.8477 8.52143 21.4681 8.68726C21.0886 8.8531 20.6464 8.67984 20.4806 8.30028C19.0525 5.03179 15.7919 2.75 11.9999 2.75Z" fill="black"/>
<path fill-rule="evenodd" clip-rule="evenodd" d="M22 3.25C22.4142 3.25 22.75 3.58579 22.75 4V7.4C22.75 8.14558 22.1456 8.75 21.4 8.75H18C17.5858 8.75 17.25 8.41421 17.25 8C17.25 7.58579 17.5858 7.25 18 7.25H21.25V4C21.25 3.58579 21.5858 3.25 22 3.25Z" fill="black"/>
<path fill-rule="evenodd" clip-rule="evenodd" d="M12.0494 21.25C16.8454 21.25 20.7896 17.5994 21.2537 12.9259C21.2946 12.5137 21.6619 12.2127 22.0741 12.2537C22.4863 12.2946 22.7872 12.6619 22.7463 13.0741C22.2069 18.5072 17.6241 22.75 12.0494 22.75C7.64002 22.75 3.85235 20.0954 2.19419 16.3003C2.02835 15.9207 2.20161 15.4786 2.58118 15.3127C2.96074 15.1469 3.40288 15.3202 3.56872 15.6997C4.99679 18.9682 8.25744 21.25 12.0494 21.25Z" fill="black"/>
<path fill-rule="evenodd" clip-rule="evenodd" d="M2.04931 20.75C1.6351 20.75 1.29931 20.4142 1.29931 20V16.6C1.29931 15.8544 1.90373 15.25 2.64931 15.25H6.04931C6.46352 15.25 6.79931 15.5858 6.79931 16C6.79931 16.4142 6.46352 16.75 6.04931 16.75H2.79931V20C2.79931 20.4142 2.46352 20.75 2.04931 20.75Z" fill="black"/>
<path fill-rule="evenodd" clip-rule="evenodd" d="M16.5977 8.73244C17.024 9.57651 17.25 10.6507 17.25 12.0001C17.25 13.3494 17.024 14.4236 16.5977 15.2677C16.1658 16.1232 15.5474 16.7031 14.8368 17.0824C13.4959 17.798 11.8487 17.7742 10.6529 17.7569C10.6313 17.7566 10.6098 17.7563 10.5885 17.756C9.8532 17.7455 9.25 17.1495 9.24999 16.4021L9.25001 7.59837C9.25 6.85092 9.8532 6.25487 10.5885 6.24438C10.6099 6.24407 10.6314 6.24376 10.6531 6.24345C11.8489 6.22614 13.496 6.2023 14.8368 6.91783C15.5474 7.29707 16.1658 7.87703 16.5977 8.73244ZM10.75 7.74233C11.9916 7.72661 13.2028 7.7461 14.1306 8.24118C14.5838 8.48304 14.9736 8.8438 15.2588 9.40861C15.5498 9.98476 15.75 10.8103 15.75 12.0001C15.75 13.1899 15.5497 14.0154 15.2588 14.5916C14.9736 15.1564 14.5837 15.5172 14.1305 15.7591C13.2028 16.2542 11.9916 16.2738 10.75 16.2581L10.75 7.74233Z" fill="black"/>
<path fill-rule="evenodd" clip-rule="evenodd" d="M7.24999 12C7.24999 11.5858 7.58578 11.25 7.99999 11.25H12C12.4142 11.25 12.75 11.5858 12.75 12C12.75 12.4142 12.4142 12.75 12 12.75H7.99999C7.58578 12.75 7.24999 12.4142 7.24999 12Z" fill="black"/>
</g>
</g>
</g>
</g>
<defs>
<clipPath id="clip0_232_7329">
<rect width="24" height="24" rx="5" fill="white"/>
</clipPath>
</defs>
</svg>
