<svg width="24" height="24" viewBox="0 0 24 24" fill="none" xmlns="http://www.w3.org/2000/svg">
<g id="dogecoin-circle">
<g clip-path="url(#clip0_232_7429)">
<g id="Weight=Dynamic">
<g id="Vector">
<path fill-rule="evenodd" clip-rule="evenodd" d="M16.5978 8.73232C17.024 9.57639 17.25 10.6506 17.25 11.9999C17.25 13.3493 17.024 14.4235 16.5978 15.2676C16.1658 16.123 15.5474 16.703 14.8368 17.0823C13.4959 17.7979 11.8488 17.7741 10.6529 17.7568C10.6313 17.7565 10.6098 17.7562 10.5885 17.7559C9.85321 17.7454 9.25 17.1494 9.25 16.402L9.25002 7.59825C9.25001 6.8508 9.85321 6.25475 10.5885 6.24426C10.6099 6.24395 10.6314 6.24364 10.6531 6.24333C11.8489 6.22602 13.496 6.20218 14.8368 6.91771C15.5474 7.29695 16.1658 7.87691 16.5978 8.73232ZM10.75 7.74221C11.9916 7.72649 13.2028 7.74597 14.1306 8.24106C14.5838 8.48292 14.9736 8.84368 15.2588 9.40849C15.5498 9.98464 15.75 10.8101 15.75 11.9999C15.75 13.1897 15.5498 14.0153 15.2588 14.5915C14.9736 15.1563 14.5837 15.5171 14.1305 15.759C13.2028 16.2541 11.9916 16.2736 10.75 16.2579L10.75 7.74221Z" fill="black"/>
<path fill-rule="evenodd" clip-rule="evenodd" d="M7.25 12C7.25 11.5858 7.58579 11.25 8 11.25H12C12.4142 11.25 12.75 11.5858 12.75 12C12.75 12.4142 12.4142 12.75 12 12.75H8C7.58579 12.75 7.25 12.4142 7.25 12Z" fill="black"/>
<path fill-rule="evenodd" clip-rule="evenodd" d="M12 2.75C17.1086 2.75 21.25 6.89137 21.25 12C21.25 17.1086 17.1086 21.25 12 21.25C6.89137 21.25 2.75 17.1086 2.75 12C2.75 6.89137 6.89137 2.75 12 2.75ZM22.75 12C22.75 6.06294 17.9371 1.25 12 1.25C6.06294 1.25 1.25 6.06294 1.25 12C1.25 17.9371 6.06294 22.75 12 22.75C17.9371 22.75 22.75 17.9371 22.75 12Z" fill="black"/>
</g>
</g>
</g>
</g>
<defs>
<clipPath id="clip0_232_7429">
<rect width="24" height="24" rx="5" fill="white"/>
</clipPath>
</defs>
</svg>
