<svg width="24" height="24" viewBox="0 0 24 24" fill="none" xmlns="http://www.w3.org/2000/svg">
<g id="dollar">
<g clip-path="url(#clip0_232_7468)">
<g id="Weight=Dynamic">
<path id="Vector 10 (Stroke)" fill-rule="evenodd" clip-rule="evenodd" d="M12 2.25C12.4142 2.25 12.75 2.58579 12.75 3V4.81396C14.2293 5.01204 15.7359 5.67527 16.6842 6.6235C16.9771 6.91639 16.9771 7.39126 16.6842 7.68415C16.3913 7.97705 15.9164 7.97705 15.6235 7.68415C14.8318 6.89247 13.355 6.29111 11.9798 6.2541C11.1702 6.23231 10.4933 6.40895 10.0372 6.75448C9.61232 7.07627 9.28848 7.61148 9.28848 8.53845C9.28848 8.9373 9.37813 9.22358 9.5097 9.444C9.64386 9.66876 9.84661 9.86652 10.131 10.0475C10.7298 10.4286 11.5598 10.662 12.5435 10.9302C12.564 10.9358 12.5845 10.9414 12.6051 10.947C13.5113 11.194 14.5559 11.4787 15.3666 11.9946C15.7961 12.2679 16.1883 12.6219 16.4706 13.0948C16.7555 13.5721 16.9038 14.1296 16.9038 14.7692C16.9038 16.2 16.2764 17.2754 15.3048 17.9559C14.5699 18.4706 13.6697 18.7397 12.75 18.8129V20.9999C12.75 21.4141 12.4142 21.7499 12 21.7499C11.5858 21.7499 11.25 21.4141 11.25 20.9999V18.7659C9.71293 18.5519 8.16705 17.8316 7.24617 16.6038C6.99765 16.2724 7.0648 15.8023 7.39617 15.5538C7.72755 15.3053 8.19765 15.3724 8.44617 15.7038C9.16498 16.6622 10.58 17.2783 12.0269 17.3303C12.9764 17.3644 13.8406 17.15 14.4443 16.7272C15.0178 16.3256 15.4038 15.7074 15.4038 14.7692C15.4038 14.3703 15.3142 14.084 15.1826 13.8636C15.0484 13.6389 14.8457 13.4411 14.5613 13.2601C13.9625 12.8791 13.1325 12.6457 12.1488 12.3774C12.1283 12.3718 12.1078 12.3662 12.0872 12.3606C11.181 12.1136 10.1364 11.8289 9.32572 11.313C8.89621 11.0397 8.50401 10.6858 8.2217 10.2128C7.9368 9.73551 7.78848 9.17805 7.78848 8.53845C7.78848 7.20847 8.28217 6.20206 9.13147 5.55876C9.74364 5.09508 10.488 4.85971 11.25 4.78211V3C11.25 2.58579 11.5858 2.25 12 2.25Z" fill="black"/>
</g>
</g>
</g>
<defs>
<clipPath id="clip0_232_7468">
<rect width="24" height="24" rx="5" fill="white"/>
</clipPath>
</defs>
</svg>
