<svg width="24" height="24" viewBox="0 0 24 24" fill="none" xmlns="http://www.w3.org/2000/svg">
<g id="dollar-circle">
<g clip-path="url(#clip0_232_7074)">
<g id="Weight=Dynamic">
<path id="Vector (Stroke)" fill-rule="evenodd" clip-rule="evenodd" d="M12 2.75C6.89137 2.75 2.75 6.89137 2.75 12C2.75 17.1086 6.89137 21.25 12 21.25C17.1086 21.25 21.25 17.1086 21.25 12C21.25 6.89137 17.1086 2.75 12 2.75ZM1.25 12C1.25 6.06294 6.06294 1.25 12 1.25C17.9371 1.25 22.75 6.06294 22.75 12C22.75 17.9371 17.9371 22.75 12 22.75C6.06294 22.75 1.25 17.9371 1.25 12ZM12 4.74999C12.4142 4.74999 12.75 5.08578 12.75 5.49999V6.63087C13.7987 6.80658 14.8479 7.28725 15.5303 7.96966C15.8232 8.26256 15.8232 8.73743 15.5303 9.03032C15.2374 9.32321 14.7626 9.32321 14.4697 9.03032C13.9414 8.50209 12.9286 8.08397 11.9798 8.05844C11.4239 8.04348 10.9874 8.16615 10.7082 8.37764C10.4603 8.5654 10.25 8.88649 10.25 9.5C10.25 9.75462 10.3066 9.92372 10.3803 10.0472C10.4566 10.1751 10.5768 10.2962 10.762 10.4141C11.1625 10.669 11.728 10.8303 12.4473 11.0264C12.4662 11.0316 12.4852 11.0367 12.5043 11.0419C13.1495 11.2177 13.9306 11.4305 14.5433 11.8204C14.8736 12.0306 15.1832 12.3079 15.4077 12.684C15.6347 13.0643 15.75 13.5046 15.75 14C15.75 15.1018 15.2634 15.942 14.5063 16.4722C13.9915 16.8327 13.3777 17.0337 12.75 17.109V18.5C12.75 18.9142 12.4142 19.25 12 19.25C11.5858 19.25 11.25 18.9142 11.25 18.5V17.0647C10.1574 16.875 9.06955 16.3427 8.4 15.45C8.15147 15.1186 8.21863 14.6485 8.55 14.4C8.88137 14.1515 9.35147 14.2186 9.6 14.55C10.0709 15.1779 11.0251 15.6055 12.0269 15.6415C12.681 15.665 13.2567 15.516 13.6458 15.2435C14.0047 14.9922 14.25 14.6092 14.25 14C14.25 13.7454 14.1934 13.5763 14.1197 13.4528C14.0434 13.3249 13.9232 13.2038 13.738 13.0859C13.3375 12.831 12.772 12.6697 12.0527 12.4736C12.0338 12.4684 12.0148 12.4633 11.9957 12.458C11.3505 12.2823 10.5694 12.0695 9.95672 11.6796C9.62636 11.4694 9.31679 11.1921 9.09233 10.816C8.86527 10.4356 8.75 9.99537 8.75 9.5C8.75 8.48348 9.13015 7.69118 9.80249 7.18193C10.2302 6.85793 10.7348 6.67979 11.25 6.60324V5.49999C11.25 5.08578 11.5858 4.74999 12 4.74999Z" fill="black"/>
</g>
</g>
</g>
<defs>
<clipPath id="clip0_232_7074">
<rect width="24" height="24" rx="5" fill="white"/>
</clipPath>
</defs>
</svg>
