<svg width="24" height="24" viewBox="0 0 24 24" fill="none" xmlns="http://www.w3.org/2000/svg">
<g id="dot-arrow-left">
<g clip-path="url(#clip0_232_17151)">
<g id="Weight=Dynamic">
<path id="Vector (Stroke)" fill-rule="evenodd" clip-rule="evenodd" d="M5.53033 8.46967C5.82322 8.76256 5.82322 9.23744 5.53033 9.53033L3.81066 11.25H15C15.4142 11.25 15.75 11.5858 15.75 12C15.75 12.4142 15.4142 12.75 15 12.75H3.81066L5.53033 14.4697C5.82322 14.7626 5.82322 15.2374 5.53033 15.5303C5.23744 15.8232 4.76256 15.8232 4.46967 15.5303L1.46967 12.5303C1.17678 12.2374 1.17678 11.7626 1.46967 11.4697L4.46967 8.46967C4.76256 8.17678 5.23744 8.17678 5.53033 8.46967ZM17.25 12C17.25 10.4812 18.4812 9.25 20 9.25C21.5188 9.25 22.75 10.4812 22.75 12C22.75 13.5188 21.5188 14.75 20 14.75C18.4812 14.75 17.25 13.5188 17.25 12ZM20 10.75C19.3096 10.75 18.75 11.3096 18.75 12C18.75 12.6904 19.3096 13.25 20 13.25C20.6904 13.25 21.25 12.6904 21.25 12C21.25 11.3096 20.6904 10.75 20 10.75Z" fill="black"/>
</g>
</g>
</g>
<defs>
<clipPath id="clip0_232_17151">
<rect width="24" height="24" rx="5" fill="white"/>
</clipPath>
</defs>
</svg>
