<svg width="24" height="24" viewBox="0 0 24 24" fill="none" xmlns="http://www.w3.org/2000/svg">
<g id="dot-arrow-down">
<g clip-path="url(#clip0_232_16771)">
<g id="Weight=Dynamic">
<path id="Vector (Stroke)" fill-rule="evenodd" clip-rule="evenodd" d="M9.25 4C9.25 2.48122 10.4812 1.25 12 1.25C13.5188 1.25 14.75 2.48122 14.75 4C14.75 5.51878 13.5188 6.75 12 6.75C10.4812 6.75 9.25 5.51878 9.25 4ZM12 2.75C11.3096 2.75 10.75 3.30964 10.75 4C10.75 4.69036 11.3096 5.25 12 5.25C12.6904 5.25 13.25 4.69036 13.25 4C13.25 3.30964 12.6904 2.75 12 2.75ZM12 8.25C12.4142 8.25 12.75 8.58579 12.75 9V20.1893L14.4697 18.4697C14.7626 18.1768 15.2374 18.1768 15.5303 18.4697C15.8232 18.7626 15.8232 19.2374 15.5303 19.5303L12.5303 22.5303C12.2374 22.8232 11.7626 22.8232 11.4697 22.5303L8.46967 19.5303C8.17678 19.2374 8.17678 18.7626 8.46967 18.4697C8.76256 18.1768 9.23744 18.1768 9.53033 18.4697L11.25 20.1893V9C11.25 8.58579 11.5858 8.25 12 8.25Z" fill="black"/>
</g>
</g>
</g>
<defs>
<clipPath id="clip0_232_16771">
<rect width="24" height="24" rx="5" fill="white"/>
</clipPath>
</defs>
</svg>
