<svg width="24" height="24" viewBox="0 0 24 24" fill="none" xmlns="http://www.w3.org/2000/svg">
<g id="dot-arrow-up">
<g clip-path="url(#clip0_232_2445)">
<g id="Weight=Dynamic">
<path id="Vector (Stroke)" fill-rule="evenodd" clip-rule="evenodd" d="M11.4697 1.46967C11.7626 1.17678 12.2374 1.17678 12.5303 1.46967L15.5303 4.46967C15.8232 4.76256 15.8232 5.23744 15.5303 5.53033C15.2374 5.82322 14.7626 5.82322 14.4697 5.53033L12.75 3.81066V15C12.75 15.4142 12.4142 15.75 12 15.75C11.5858 15.75 11.25 15.4142 11.25 15V3.81066L9.53033 5.53033C9.23744 5.82322 8.76256 5.82322 8.46967 5.53033C8.17678 5.23744 8.17678 4.76256 8.46967 4.46967L11.4697 1.46967ZM9.25 20C9.25 18.4812 10.4812 17.25 12 17.25C13.5188 17.25 14.75 18.4812 14.75 20C14.75 21.5188 13.5188 22.75 12 22.75C10.4812 22.75 9.25 21.5188 9.25 20ZM12 18.75C11.3096 18.75 10.75 19.3096 10.75 20C10.75 20.6904 11.3096 21.25 12 21.25C12.6904 21.25 13.25 20.6904 13.25 20C13.25 19.3096 12.6904 18.75 12 18.75Z" fill="black"/>
</g>
</g>
</g>
<defs>
<clipPath id="clip0_232_2445">
<rect width="24" height="24" rx="5" fill="white"/>
</clipPath>
</defs>
</svg>
