<svg width="24" height="24" viewBox="0 0 24 24" fill="none" xmlns="http://www.w3.org/2000/svg">
<g id="dot-arrow-right">
<g clip-path="url(#clip0_232_17052)">
<g id="Weight=Dynamic">
<path id="Vector (Stroke)" fill-rule="evenodd" clip-rule="evenodd" d="M18.4697 8.46967C18.7626 8.17678 19.2374 8.17678 19.5303 8.46967L22.5303 11.4697C22.8232 11.7626 22.8232 12.2374 22.5303 12.5303L19.5303 15.5303C19.2374 15.8232 18.7626 15.8232 18.4697 15.5303C18.1768 15.2374 18.1768 14.7626 18.4697 14.4697L20.1893 12.75H9C8.58579 12.75 8.25 12.4142 8.25 12C8.25 11.5858 8.58579 11.25 9 11.25H20.1893L18.4697 9.53033C18.1768 9.23744 18.1768 8.76256 18.4697 8.46967ZM1.25 12C1.25 10.4812 2.48122 9.25 4 9.25C5.51878 9.25 6.75 10.4812 6.75 12C6.75 13.5188 5.51878 14.75 4 14.75C2.48122 14.75 1.25 13.5188 1.25 12ZM4 10.75C3.30964 10.75 2.75 11.3096 2.75 12C2.75 12.6904 3.30964 13.25 4 13.25C4.69036 13.25 5.25 12.6904 5.25 12C5.25 11.3096 4.69036 10.75 4 10.75Z" fill="black"/>
</g>
</g>
</g>
<defs>
<clipPath id="clip0_232_17052">
<rect width="24" height="24" rx="5" fill="white"/>
</clipPath>
</defs>
</svg>
