<svg width="24" height="24" viewBox="0 0 24 24" fill="none" xmlns="http://www.w3.org/2000/svg">
<g id="drag-hand-gesture">
<g clip-path="url(#clip0_232_8435)">
<g id="Weight=Dynamic">
<path id="Vector (Stroke)" fill-rule="evenodd" clip-rule="evenodd" d="M11.0033 5.74047C10.8772 5.86855 10.75 6.09974 10.75 6.50004V8.50004C10.75 8.91425 10.4143 9.25004 10 9.25004C9.58583 9.25004 9.25005 8.91425 9.25005 8.50004V6.38368C9.25005 6.04715 8.99647 5.75005 8.50005 5.75005C8.08583 5.75005 7.75005 6.08584 7.75005 6.50005V13.5001C7.75005 13.9143 7.41426 14.2501 7.00005 14.2501C6.58583 14.2501 6.25005 13.9143 6.25005 13.5001V12.75L5.59596 13.6221C5.23505 14.1033 5.26806 14.7734 5.67452 15.2168L9.45841 19.3446C9.69542 19.6032 10.0289 19.75 10.3789 19.75H15C16.043 19.75 16.8406 19.4268 17.3745 18.9024C17.9063 18.3801 18.25 17.5862 18.25 16.5V7.92856C18.25 7.52827 18.1229 7.29706 17.9968 7.16897C17.8645 7.0346 17.6858 6.96425 17.5 6.96425C17.3143 6.96424 17.1355 7.03459 17.0033 7.16894C16.8772 7.29702 16.75 7.52821 16.75 7.92851V8.49993C16.75 8.91415 16.4143 9.24993 16 9.24993C15.5858 9.24993 15.25 8.91415 15.25 8.49993V7.02714C15.25 6.62684 15.1229 6.39565 14.9968 6.26756C14.8645 6.1332 14.6858 6.06285 14.5 6.06285C14.3143 6.06285 14.1356 6.1332 14.0033 6.26756C13.8772 6.39565 13.75 6.62684 13.75 7.02714V8.50007C13.75 8.91428 13.4143 9.25007 13 9.25007C12.5858 9.25007 12.25 8.91428 12.25 8.50007V6.50007C12.25 6.09977 12.1229 5.86857 11.9968 5.74048C11.8645 5.60612 11.6858 5.53577 11.5 5.53577C11.3143 5.53576 11.1355 5.60611 11.0033 5.74047ZM13.2744 4.93345C13.6445 4.68548 14.0743 4.56285 14.5 4.56285C15.0643 4.56285 15.6356 4.77822 16.0658 5.21529C16.215 5.3669 16.3422 5.53988 16.445 5.73157C16.7735 5.55279 17.1382 5.46424 17.5001 5.46425C18.0643 5.46426 18.6356 5.67964 19.0658 6.1167C19.5022 6.56005 19.75 7.186 19.75 7.92856V16.5C19.75 17.9138 19.2938 19.1198 18.4256 19.9726C17.5595 20.8232 16.3571 21.25 15 21.25H10.3789C9.6077 21.25 8.8733 20.9262 8.35268 20.3582L4.56879 16.2304C3.67457 15.2548 3.60195 13.7808 4.39596 12.7221L6.25005 10.25V6.50005C6.25005 5.25741 7.25741 4.25005 8.50005 4.25005C9.01629 4.25005 9.5185 4.41101 9.91701 4.70597C9.92274 4.70001 9.92851 4.69408 9.93431 4.68819C10.3645 4.25112 10.9358 4.03576 11.5001 4.03577C12.0643 4.03577 12.6356 4.25114 13.0658 4.68821C13.141 4.76464 13.2107 4.8465 13.2744 4.93345Z" fill="black"/>
</g>
</g>
</g>
<defs>
<clipPath id="clip0_232_8435">
<rect width="24" height="24" rx="5" fill="white"/>
</clipPath>
</defs>
</svg>
