<svg width="24" height="24" viewBox="0 0 24 24" fill="none" xmlns="http://www.w3.org/2000/svg">
<g id="drawer">
<g clip-path="url(#clip0_232_8874)">
<g id="Weight=Dynamic">
<path id="Vector (Stroke)" fill-rule="evenodd" clip-rule="evenodd" d="M3.75 2.75V7.25H20.25V2.75H3.75ZM21.75 2.6C21.75 1.85442 21.1456 1.25 20.4 1.25H3.6C2.85442 1.25 2.25 1.85442 2.25 2.6V19.4C2.25 20.1456 2.85442 20.75 3.6 20.75H5.75V22C5.75 22.4142 6.08579 22.75 6.5 22.75C6.91421 22.75 7.25 22.4142 7.25 22V20.75H16.75V22C16.75 22.4142 17.0858 22.75 17.5 22.75C17.9142 22.75 18.25 22.4142 18.25 22V20.75H20.4C21.1456 20.75 21.75 20.1456 21.75 19.4V2.6ZM20.25 8.75H3.75V13.25H20.25V8.75ZM20.25 14.75H3.75V19.25H20.25V14.75ZM10.25 5C10.25 4.58579 10.5858 4.25 11 4.25H13C13.4142 4.25 13.75 4.58579 13.75 5C13.75 5.41421 13.4142 5.75 13 5.75H11C10.5858 5.75 10.25 5.41421 10.25 5ZM10.25 11C10.25 10.5858 10.5858 10.25 11 10.25H13C13.4142 10.25 13.75 10.5858 13.75 11C13.75 11.4142 13.4142 11.75 13 11.75H11C10.5858 11.75 10.25 11.4142 10.25 11ZM10.25 17C10.25 16.5858 10.5858 16.25 11 16.25H13C13.4142 16.25 13.75 16.5858 13.75 17C13.75 17.4142 13.4142 17.75 13 17.75H11C10.5858 17.75 10.25 17.4142 10.25 17Z" fill="black"/>
</g>
</g>
</g>
<defs>
<clipPath id="clip0_232_8874">
<rect width="24" height="24" rx="5" fill="white"/>
</clipPath>
</defs>
</svg>
