<svg width="24" height="24" viewBox="0 0 24 24" fill="none" xmlns="http://www.w3.org/2000/svg">
<g id="dribbble">
<g clip-path="url(#clip0_232_14191)">
<g id="Weight=Dynamic">
<path id="Vector (Stroke)" fill-rule="evenodd" clip-rule="evenodd" d="M2.75806 11.6102C2.75271 11.7395 2.75 11.8694 2.75 12C2.75 14.3277 3.60977 16.4546 5.02907 18.0804C6.41096 15.6452 8.85865 13.758 11.6907 12.6391C12.1951 12.4399 12.7137 12.2641 13.2432 12.1134C12.9776 11.5118 12.6977 10.9174 12.4042 10.3299C11.8727 10.4976 11.3384 10.644 10.8074 10.7718C7.80167 11.4948 4.80008 11.6432 2.75806 11.6102ZM1.32047 10.7624C1.27392 11.1685 1.25 11.5814 1.25 12C1.25 15.1236 2.58223 17.9361 4.7095 19.9001C4.71872 19.9091 4.72819 19.9178 4.73791 19.9263C6.65082 21.6798 9.20043 22.75 12 22.75C13.8107 22.75 15.5169 22.3023 17.0139 21.5116C17.0203 21.5083 17.0267 21.5049 17.0331 21.5014C20.1882 19.8266 22.4097 16.6263 22.7142 12.8837C22.7152 12.8739 22.716 12.8641 22.7165 12.8544C22.7387 12.5725 22.75 12.2876 22.75 12C22.75 9.07437 21.5813 6.42171 19.6853 4.48341C19.6802 4.47812 19.6751 4.4729 19.6699 4.46774C17.7194 2.48178 15.0035 1.25 12 1.25C6.48739 1.25 1.94391 5.39937 1.32245 10.7452C1.32173 10.7509 1.32107 10.7566 1.32047 10.7624ZM2.94271 10.1126C4.89066 10.1339 7.68259 9.98068 10.4566 9.31338C10.8739 9.21298 11.2887 9.10147 11.6985 8.97791C10.6751 7.09782 9.51405 5.28933 8.24279 3.54491C5.56155 4.73817 3.55288 7.16937 2.94271 10.1126ZM9.72301 3.03235C10.9743 4.77919 12.1215 6.59411 13.1366 8.48383C15.1067 7.7166 16.8777 6.62096 18.1391 5.08079C16.506 3.63069 14.3558 2.75 12 2.75C11.2143 2.75 10.4514 2.84797 9.72301 3.03235ZM19.1829 6.17134C17.7611 7.84709 15.8568 9.01395 13.8276 9.8236C14.1429 10.4615 14.4431 11.1077 14.727 11.7626C16.8507 11.3607 19.0912 11.3585 21.2488 11.8472C21.2139 9.69715 20.4455 7.7254 19.1829 6.17134ZM21.15 13.3651C19.2374 12.8954 17.2311 12.8584 15.3113 13.1817C16.1172 15.2486 16.7608 17.3999 17.2119 19.643C19.2938 18.2205 20.7647 15.9697 21.15 13.3651ZM15.8348 20.4201C15.3845 18.0145 14.7031 15.7137 13.8276 13.5076C13.2863 13.6549 12.7562 13.831 12.2419 14.0342C9.49959 15.1176 7.27625 16.9393 6.14913 19.1648C7.74323 20.4682 9.78031 21.25 12 21.25C13.3679 21.25 14.6665 20.9531 15.8348 20.4201Z" fill="black"/>
</g>
</g>
</g>
<defs>
<clipPath id="clip0_232_14191">
<rect width="24" height="24" rx="5" fill="white"/>
</clipPath>
</defs>
</svg>
