<svg width="24" height="24" viewBox="0 0 24 24" fill="none" xmlns="http://www.w3.org/2000/svg">
<g id="drone-charge-low">
<g clip-path="url(#clip0_232_16248)">
<g id="Weight=Dynamic">
<path id="Vector (Stroke)" fill-rule="evenodd" clip-rule="evenodd" d="M4.5 2.75C3.5335 2.75 2.75 3.5335 2.75 4.5C2.75 5.4665 3.5335 6.25 4.5 6.25C4.78344 6.25 5.05114 6.18262 5.28795 6.063L4.03954 5.09201L4.96046 3.90799L6.20886 4.87896C6.2358 4.75694 6.25 4.63013 6.25 4.5C6.25 3.5335 5.4665 2.75 4.5 2.75ZM7.45725 5.84994C7.64523 5.43879 7.75 4.98163 7.75 4.5C7.75 2.70507 6.29493 1.25 4.5 1.25C2.70507 1.25 1.25 2.70507 1.25 4.5C1.25 6.29493 2.70507 7.75 4.5 7.75C5.27067 7.75 5.97869 7.48175 6.53579 7.03354L8.33072 8.42959C8.31767 8.53322 8.31652 8.64022 8.32862 8.74908L9.0151 14.9275L6.50088 16.9388C5.94925 16.5072 5.25466 16.25 4.5 16.25C2.70507 16.25 1.25 17.7051 1.25 19.5C1.25 21.2949 2.70507 22.75 4.5 22.75C6.29493 22.75 7.75 21.2949 7.75 19.5C7.75 19.0025 7.63823 18.5312 7.43844 18.1097L9.21766 16.6863C9.35046 17.3008 9.89598 17.75 10.537 17.75H11C11.4142 17.75 11.75 17.4142 11.75 17C11.75 16.5858 11.4142 16.25 11 16.25H10.6713L9.83795 8.75H14.1621L13.5046 14.6672C13.4588 15.0789 13.7555 15.4497 14.1672 15.4954C14.5789 15.5412 14.9497 15.2445 14.9954 14.8328L15.6714 8.74908C15.6835 8.64022 15.6823 8.53322 15.6693 8.42959L17.4642 7.03354C18.0213 7.48175 18.7293 7.75 19.5 7.75C21.2949 7.75 22.75 6.29493 22.75 4.5C22.75 2.70507 21.2949 1.25 19.5 1.25C17.7051 1.25 16.25 2.70507 16.25 4.5C16.25 4.98163 16.3548 5.43879 16.5428 5.84994L14.6828 7.29653C14.5705 7.26621 14.4521 7.25 14.3296 7.25H9.67036C9.54785 7.25 9.42948 7.26621 9.31715 7.29653L7.45725 5.84994ZM18.712 6.063L19.9605 5.09201L19.0395 3.90799L17.7911 4.87896C17.7642 4.75694 17.75 4.63013 17.75 4.5C17.75 3.5335 18.5335 2.75 19.5 2.75C20.4665 2.75 21.25 3.5335 21.25 4.5C21.25 5.4665 20.4665 6.25 19.5 6.25C19.2166 6.25 18.9489 6.18262 18.712 6.063ZM5.26641 17.9263L4.03137 18.9143L4.96839 20.0856L6.20351 19.0976C6.23391 19.2268 6.25 19.3615 6.25 19.5C6.25 20.4665 5.4665 21.25 4.5 21.25C3.5335 21.25 2.75 20.4665 2.75 19.5C2.75 18.5335 3.5335 17.75 4.5 17.75C4.77488 17.75 5.03495 17.8134 5.26641 17.9263ZM13.75 17.75V22.25H20.25V17.75H13.75ZM12.25 17.6C12.25 16.8544 12.8544 16.25 13.6 16.25H20.4C21.1456 16.25 21.75 16.8544 21.75 17.6V22.4C21.75 23.1456 21.1456 23.75 20.4 23.75H13.6C12.8544 23.75 12.25 23.1456 12.25 22.4V17.6ZM15 18.25C15.4142 18.25 15.75 18.5858 15.75 19V21C15.75 21.4142 15.4142 21.75 15 21.75C14.5858 21.75 14.25 21.4142 14.25 21V19C14.25 18.5858 14.5858 18.25 15 18.25ZM23 18.25C23.4142 18.25 23.75 18.5858 23.75 19V21C23.75 21.4142 23.4142 21.75 23 21.75C22.5858 21.75 22.25 21.4142 22.25 21V19C22.25 18.5858 22.5858 18.25 23 18.25Z" fill="black"/>
</g>
</g>
</g>
<defs>
<clipPath id="clip0_232_16248">
<rect width="24" height="24" rx="5" fill="white"/>
</clipPath>
</defs>
</svg>
