<svg width="24" height="24" viewBox="0 0 24 24" fill="none" xmlns="http://www.w3.org/2000/svg">
<g id="drone-refresh">
<g clip-path="url(#clip0_232_16222)">
<g id="Weight=Dynamic">
<path id="Vector (Stroke)" fill-rule="evenodd" clip-rule="evenodd" d="M4.5 2.75C3.5335 2.75 2.75 3.5335 2.75 4.5C2.75 5.4665 3.5335 6.25 4.5 6.25C4.78344 6.25 5.05114 6.18262 5.28795 6.063L4.03954 5.09201C3.71258 4.83771 3.65368 4.3665 3.90799 4.03954C4.16229 3.71258 4.63349 3.65368 4.96046 3.90799L6.20886 4.87896C6.2358 4.75694 6.25 4.63013 6.25 4.5C6.25 3.5335 5.4665 2.75 4.5 2.75ZM7.45725 5.84994C7.64523 5.43879 7.75 4.98163 7.75 4.5C7.75 2.70507 6.29493 1.25 4.5 1.25C2.70507 1.25 1.25 2.70507 1.25 4.5C1.25 6.29493 2.70507 7.75 4.5 7.75C5.27067 7.75 5.97869 7.48175 6.53579 7.03354L8.33072 8.42959C8.31767 8.53322 8.31652 8.64022 8.32862 8.74908L9.0151 14.9275L6.50088 16.9388C5.94925 16.5072 5.25466 16.25 4.5 16.25C2.70507 16.25 1.25 17.7051 1.25 19.5C1.25 21.2949 2.70507 22.75 4.5 22.75C6.29493 22.75 7.75 21.2949 7.75 19.5C7.75 19.0025 7.63823 18.5312 7.43844 18.1097L9.21766 16.6863C9.35046 17.3008 9.89598 17.75 10.537 17.75H11C11.4142 17.75 11.75 17.4142 11.75 17C11.75 16.5858 11.4142 16.25 11 16.25H10.6713L9.83795 8.75H14.1621L13.7546 12.4172C13.7088 12.8289 14.0055 13.1997 14.4172 13.2454C14.8289 13.2912 15.1997 12.9945 15.2454 12.5828L15.6714 8.74908C15.6835 8.64022 15.6823 8.53322 15.6693 8.42959L17.4642 7.03354C18.0213 7.48175 18.7293 7.75 19.5 7.75C21.2949 7.75 22.75 6.29493 22.75 4.5C22.75 2.70507 21.2949 1.25 19.5 1.25C17.7051 1.25 16.25 2.70507 16.25 4.5C16.25 4.98163 16.3548 5.43879 16.5428 5.84994L14.6828 7.29653C14.5705 7.26621 14.4521 7.25 14.3296 7.25H9.67036C9.54785 7.25 9.42948 7.26621 9.31715 7.29653L7.45725 5.84994ZM18.712 6.063L19.9605 5.09201C20.2874 4.83771 20.3463 4.3665 20.092 4.03954C19.8377 3.71258 19.3665 3.65368 19.0395 3.90799L17.7911 4.87896C17.7642 4.75694 17.75 4.63013 17.75 4.5C17.75 3.5335 18.5335 2.75 19.5 2.75C20.4665 2.75 21.25 3.5335 21.25 4.5C21.25 5.4665 20.4665 6.25 19.5 6.25C19.2166 6.25 18.9489 6.18262 18.712 6.063ZM5.26641 17.9263L4.03137 18.9143C3.70792 19.1731 3.65547 19.645 3.91422 19.9685C4.17298 20.2919 4.64494 20.3444 4.96839 20.0856L6.20351 19.0976C6.23391 19.2268 6.25 19.3615 6.25 19.5C6.25 20.4665 5.4665 21.25 4.5 21.25C3.5335 21.25 2.75 20.4665 2.75 19.5C2.75 18.5335 3.5335 17.75 4.5 17.75C4.77488 17.75 5.03495 17.8134 5.26641 17.9263ZM17.9906 14.75C16.6121 14.75 15.3733 15.7387 14.9137 17.222C14.791 17.6177 14.3709 17.839 13.9753 17.7164C13.5796 17.5938 13.3583 17.1736 13.4809 16.778C14.1031 14.7703 15.8524 13.25 17.9906 13.25C19.2678 13.25 20.4074 13.7935 21.2501 14.6585V14.55C21.2501 14.1358 21.5859 13.8 22.0001 13.8C22.4143 13.8 22.7501 14.1358 22.7501 14.55V16.1723C22.7501 16.9179 22.1457 17.5223 21.4001 17.5223H19.9951C19.5809 17.5223 19.2451 17.1865 19.2451 16.7723C19.2451 16.3581 19.5809 16.0223 19.9951 16.0223H20.4516C19.843 15.229 18.9517 14.75 17.9906 14.75ZM22.0257 18.2836C22.4214 18.4062 22.6427 18.8264 22.5201 19.222C21.8979 21.2297 20.1486 22.75 18.0103 22.75C16.7327 22.75 15.5927 22.2061 14.7499 21.3405V21.45C14.7499 21.8642 14.4141 22.2 13.9999 22.2C13.5857 22.2 13.2499 21.8642 13.2499 21.45V19.8277C13.2499 19.0821 13.8544 18.4777 14.5999 18.4777H16.0049C16.4191 18.4777 16.7549 18.8135 16.7549 19.2277C16.7549 19.6419 16.4191 19.9777 16.0049 19.9777H15.5493C16.158 20.771 17.0493 21.25 18.0103 21.25C19.3889 21.25 20.6276 20.2613 21.0873 18.778C21.2099 18.3823 21.6301 18.161 22.0257 18.2836Z" fill="black"/>
</g>
</g>
</g>
<defs>
<clipPath id="clip0_232_16222">
<rect width="24" height="24" rx="5" fill="white"/>
</clipPath>
</defs>
</svg>
