<svg width="24" height="24" viewBox="0 0 24 24" fill="none" xmlns="http://www.w3.org/2000/svg">
<g id="drone-take-off">
<g clip-path="url(#clip0_232_16348)">
<g id="Weight=Dynamic">
<path id="Vector (Stroke)" fill-rule="evenodd" clip-rule="evenodd" d="M4.5 2.75C3.5335 2.75 2.75 3.5335 2.75 4.5C2.75 5.4665 3.5335 6.25 4.5 6.25C4.78344 6.25 5.05114 6.18262 5.28795 6.063L4.03954 5.09201C3.71258 4.83771 3.65368 4.3665 3.90799 4.03954C4.16229 3.71258 4.63349 3.65368 4.96046 3.90799L6.20886 4.87896C6.2358 4.75694 6.25 4.63013 6.25 4.5C6.25 3.5335 5.4665 2.75 4.5 2.75ZM7.45725 5.84994C7.64523 5.43879 7.75 4.98163 7.75 4.5C7.75 2.70507 6.29493 1.25 4.5 1.25C2.70507 1.25 1.25 2.70507 1.25 4.5C1.25 6.29493 2.70507 7.75 4.5 7.75C5.27067 7.75 5.97869 7.48175 6.53579 7.03354L8.33072 8.42959C8.31767 8.53322 8.31652 8.64022 8.32862 8.74908L9.0151 14.9275L6.50088 16.9388C5.94925 16.5072 5.25466 16.25 4.5 16.25C2.70507 16.25 1.25 17.7051 1.25 19.5C1.25 21.2949 2.70507 22.75 4.5 22.75C6.29493 22.75 7.75 21.2949 7.75 19.5C7.75 19.0025 7.63823 18.5312 7.43844 18.1097L9.21766 16.6863C9.35046 17.3008 9.89598 17.75 10.537 17.75H13.463C14.104 17.75 14.6495 17.3008 14.7823 16.6863L15.2815 17.0857C15.6049 17.3444 16.0769 17.292 16.3357 16.9685C16.5944 16.6451 16.542 16.1731 16.2185 15.9143L14.9849 14.9275L15.6714 8.74908C15.6835 8.64022 15.6823 8.53322 15.6693 8.42959L17.4642 7.03354C18.0213 7.48175 18.7293 7.75 19.5 7.75C21.2949 7.75 22.75 6.29493 22.75 4.5C22.75 2.70507 21.2949 1.25 19.5 1.25C17.7051 1.25 16.25 2.70507 16.25 4.5C16.25 4.98163 16.3548 5.43879 16.5428 5.84994L14.6828 7.29653C14.5705 7.26621 14.4521 7.25 14.3296 7.25H9.67036C9.54785 7.25 9.42948 7.26621 9.31715 7.29653L7.45725 5.84994ZM18.712 6.063L19.9605 5.09201C20.2874 4.83771 20.3463 4.3665 20.092 4.03954C19.8377 3.71258 19.3665 3.65368 19.0395 3.90799L17.7911 4.87896C17.7642 4.75694 17.75 4.63013 17.75 4.5C17.75 3.5335 18.5335 2.75 19.5 2.75C20.4665 2.75 21.25 3.5335 21.25 4.5C21.25 5.4665 20.4665 6.25 19.5 6.25C19.2166 6.25 18.9489 6.18262 18.712 6.063ZM5.26641 17.9263L4.03137 18.9143C3.70792 19.1731 3.65547 19.645 3.91422 19.9685C4.17298 20.2919 4.64494 20.3444 4.96839 20.0856L6.20351 19.0976C6.23391 19.2268 6.25 19.3615 6.25 19.5C6.25 20.4665 5.4665 21.25 4.5 21.25C3.5335 21.25 2.75 20.4665 2.75 19.5C2.75 18.5335 3.5335 17.75 4.5 17.75C4.77488 17.75 5.03495 17.8134 5.26641 17.9263ZM9.83795 8.75L10.6713 16.25H13.3287L14.1621 8.75H9.83795ZM16.4697 17.9697L18.9697 15.4697C19.2626 15.1768 19.7374 15.1768 20.0303 15.4697L22.5303 17.9697C22.8232 18.2626 22.8232 18.7374 22.5303 19.0303C22.2374 19.3232 21.7626 19.3232 21.4697 19.0303L20.25 17.8107V22C20.25 22.4142 19.9142 22.75 19.5 22.75C19.0858 22.75 18.75 22.4142 18.75 22V17.8107L17.5303 19.0303C17.2374 19.3232 16.7626 19.3232 16.4697 19.0303C16.1768 18.7374 16.1768 18.2626 16.4697 17.9697Z" fill="black"/>
</g>
</g>
</g>
<defs>
<clipPath id="clip0_232_16348">
<rect width="24" height="24" rx="5" fill="white"/>
</clipPath>
</defs>
</svg>
