<svg width="24" height="24" viewBox="0 0 24 24" fill="none" xmlns="http://www.w3.org/2000/svg">
<g id="droplet-check">
<g clip-path="url(#clip0_232_10560)">
<g id="Weight=Dynamic">
<path id="Vector (Stroke)" fill-rule="evenodd" clip-rule="evenodd" d="M11.0453 1.89393C11.5725 1.36673 12.4273 1.36673 12.9545 1.89393L18.2802 7.21968C20.7189 9.65831 21.4419 13.1614 20.4535 16.2299C20.3265 16.6242 19.9039 16.8409 19.5097 16.7139C19.1154 16.5869 18.8987 16.1643 19.0257 15.7701C19.8484 13.2161 19.245 10.3057 17.2196 8.28034L11.9999 3.06066L6.78023 8.28032C3.89748 11.1631 3.89748 15.8369 6.78023 18.7197C8.45265 20.3921 10.7272 21.0947 12.9082 20.826C13.3193 20.7754 13.6936 21.0676 13.7443 21.4787C13.7949 21.8898 13.5027 22.2641 13.0916 22.3148C10.4719 22.6375 7.73246 21.7932 5.71957 19.7803C2.25103 16.3118 2.25103 10.6882 5.71956 7.21966L11.0453 1.89393ZM22.5302 17.4697C22.8231 17.7626 22.8231 18.2374 22.5302 18.5303L18.5302 22.5303C18.3896 22.671 18.1988 22.75 17.9999 22.75C17.801 22.75 17.6102 22.671 17.4696 22.5303L15.4696 20.5303C15.1767 20.2374 15.1767 19.7626 15.4696 19.4697C15.7624 19.1768 16.2373 19.1768 16.5302 19.4697L17.9999 20.9393L21.4696 17.4697C21.7625 17.1768 22.2373 17.1768 22.5302 17.4697Z" fill="black"/>
</g>
</g>
</g>
<defs>
<clipPath id="clip0_232_10560">
<rect width="24" height="24" rx="5" fill="white"/>
</clipPath>
</defs>
</svg>
