<svg width="24" height="24" viewBox="0 0 24 24" fill="none" xmlns="http://www.w3.org/2000/svg">
<g id="droplet-half">
<g clip-path="url(#clip0_232_5036)">
<g id="Weight=Dynamic">
<path id="Vector (Stroke)" fill-rule="evenodd" clip-rule="evenodd" d="M12.5159 1.45573L12 2.0001L11.4841 1.45573L12 0.966797L12.5159 1.45573ZM12 3.05017C11.8063 3.24367 11.5656 3.4877 11.2906 3.77367C10.5499 4.54383 9.56431 5.61409 8.58078 6.81779C7.59493 8.02433 6.6242 9.34909 5.90354 10.6291C5.17155 11.9292 4.75 13.0928 4.75 14.0001C4.75 14.5095 4.80253 15.0066 4.90248 15.4863L17.497 9.63886C16.8772 8.67781 16.1524 7.71511 15.4192 6.81779C14.4357 5.61409 13.4501 4.54383 12.7094 3.77367C12.4344 3.4877 12.1937 3.24367 12 3.05017ZM18.2649 10.9361L5.36448 16.9256C6.48903 19.4725 9.03693 21.2501 12 21.2501C16.0041 21.2501 19.25 18.0042 19.25 14.0001C19.25 13.1648 18.8927 12.1124 18.2649 10.9361ZM11.4841 1.45573C11.4842 1.4556 11.4841 1.45573 12 2.0001C12.5159 1.45573 12.5158 1.4556 12.5159 1.45573L12.518 1.4577L12.523 1.46243L12.5414 1.48003L12.611 1.54694C12.6714 1.60531 12.7592 1.69079 12.8706 1.80076C13.0934 2.02066 13.4105 2.33872 13.7906 2.73389C14.5499 3.52338 15.5643 4.62469 16.5808 5.8687C17.5949 7.10988 18.6242 8.50898 19.4035 9.89319C20.1716 11.2573 20.75 12.6983 20.75 14.0001C20.75 18.8326 16.8325 22.7501 12 22.7501C7.16751 22.7501 3.25 18.8326 3.25 14.0001C3.25 12.6983 3.82845 11.2573 4.59646 9.89319C5.3758 8.50898 6.40507 7.10988 7.41922 5.8687C8.43569 4.62469 9.45014 3.52338 10.2094 2.73389C10.5895 2.33872 10.9066 2.02066 11.1294 1.80076C11.2408 1.69079 11.3286 1.60531 11.389 1.54694L11.4586 1.48003L11.477 1.46243L11.4841 1.45573Z" fill="black"/>
</g>
</g>
</g>
<defs>
<clipPath id="clip0_232_5036">
<rect width="24" height="24" rx="5" fill="white"/>
</clipPath>
</defs>
</svg>
