<svg width="24" height="24" viewBox="0 0 24 24" fill="none" xmlns="http://www.w3.org/2000/svg">
<g id="ease-curve-control-points">
<g clip-path="url(#clip0_232_17258)">
<g id="Weight=Dynamic">
<path id="Vector (Stroke)" fill-rule="evenodd" clip-rule="evenodd" d="M5 2.75C4.30964 2.75 3.75 3.30964 3.75 4C3.75 4.69036 4.30964 5.25 5 5.25C5.69036 5.25 6.25 4.69036 6.25 4C6.25 3.30964 5.69036 2.75 5 2.75ZM2.25 4C2.25 2.48122 3.48122 1.25 5 1.25C6.25878 1.25 7.32002 2.09575 7.64648 3.25H9C9.41421 3.25 9.75 3.58579 9.75 4C9.75 4.41421 9.41421 4.75 9 4.75H7.64648C7.32002 5.90425 6.25878 6.75 5 6.75C3.48122 6.75 2.25 5.51878 2.25 4ZM8.60399 18.0189C7.08975 19.599 5.28215 20.75 3 20.75C2.58579 20.75 2.25 20.4142 2.25 20C2.25 19.5858 2.58579 19.25 3 19.25C4.71785 19.25 6.16025 18.401 7.52101 16.9811C8.89449 15.5479 10.1031 13.6199 11.364 11.6025L11.3897 11.5615C12.621 9.59133 13.9048 7.53707 15.396 5.98107C16.9103 4.40099 18.7178 3.25 21 3.25C21.4142 3.25 21.75 3.58579 21.75 4C21.75 4.41421 21.4142 4.75 21 4.75C19.2822 4.75 17.8397 5.59901 16.479 7.01893C15.1055 8.45213 13.8969 10.3801 12.636 12.3975L12.6104 12.4385C11.379 14.4087 10.0952 16.4629 8.60399 18.0189ZM11.25 4C11.25 3.58579 11.5858 3.25 12 3.25H14C14.4142 3.25 14.75 3.58579 14.75 4C14.75 4.41421 14.4142 4.75 14 4.75H12C11.5858 4.75 11.25 4.41421 11.25 4ZM16.3535 19.25C16.68 18.0957 17.7412 17.25 19 17.25C20.5188 17.25 21.75 18.4812 21.75 20C21.75 21.5188 20.5188 22.75 19 22.75C17.7412 22.75 16.68 21.9043 16.3535 20.75H15C14.5858 20.75 14.25 20.4142 14.25 20C14.25 19.5858 14.5858 19.25 15 19.25H16.3535ZM19 18.75C18.3096 18.75 17.75 19.3096 17.75 20C17.75 20.6904 18.3096 21.25 19 21.25C19.6904 21.25 20.25 20.6904 20.25 20C20.25 19.3096 19.6904 18.75 19 18.75ZM9.25 20C9.25 19.5858 9.58579 19.25 10 19.25H12C12.4142 19.25 12.75 19.5858 12.75 20C12.75 20.4142 12.4142 20.75 12 20.75H10C9.58579 20.75 9.25 20.4142 9.25 20Z" fill="black"/>
</g>
</g>
</g>
<defs>
<clipPath id="clip0_232_17258">
<rect width="24" height="24" rx="5" fill="white"/>
</clipPath>
</defs>
</svg>
