<svg width="24" height="24" viewBox="0 0 24 24" fill="none" xmlns="http://www.w3.org/2000/svg">
<g id="ease-out-control-point">
<g clip-path="url(#clip0_232_17060)">
<g id="Weight=Dynamic">
<path id="Vector (Stroke)" fill-rule="evenodd" clip-rule="evenodd" d="M5.0001 2.75C4.30974 2.75 3.7501 3.30964 3.7501 4C3.7501 4.69036 4.30974 5.25 5.0001 5.25C5.69046 5.25 6.2501 4.69036 6.2501 4C6.2501 3.30964 5.69046 2.75 5.0001 2.75ZM2.2501 4C2.2501 2.48122 3.48132 1.25 5.0001 1.25C6.25888 1.25 7.32012 2.09575 7.64658 3.25H9.0001C9.41431 3.25 9.7501 3.58579 9.7501 4C9.7501 4.41421 9.41431 4.75 9.0001 4.75H7.64658C7.32012 5.90425 6.25888 6.75 5.0001 6.75C3.48132 6.75 2.2501 5.51878 2.2501 4ZM3.6361 20.3975L3.63736 20.3955L3.64224 20.3877L3.66272 20.3553C3.68109 20.3263 3.70884 20.2826 3.74558 20.2253C3.81908 20.1108 3.92859 19.9417 4.07116 19.7259C4.35637 19.2943 4.77365 18.6761 5.29962 17.9335C6.35246 16.4472 7.83642 14.4689 9.56453 12.4939C11.2959 10.5152 13.2542 8.56074 15.2537 7.10655C17.2687 5.64109 19.2355 4.75 21.0001 4.75C21.4143 4.75 21.7501 4.41421 21.7501 4C21.7501 3.58579 21.4143 3.25 21.0001 3.25C18.7647 3.25 16.4815 4.35891 14.3715 5.89345C12.246 7.43926 10.2043 9.48477 8.43567 11.5061C6.66378 13.5311 5.14774 15.5529 4.07558 17.0665C3.53905 17.8239 3.11258 18.4557 2.81966 18.8991C2.67318 19.1208 2.56002 19.2954 2.48313 19.4153C2.44469 19.4752 2.4153 19.5214 2.39534 19.5529L2.37251 19.5891L2.36484 19.6013C2.36469 19.6016 2.3641 19.6025 3.0001 20L2.3641 19.6025C2.14457 19.9538 2.25135 20.4165 2.6026 20.636C2.95385 20.8555 3.41657 20.7488 3.6361 20.3975ZM11.2501 4C11.2501 3.58579 11.5859 3.25 12.0001 3.25H14.0001C14.4143 3.25 14.7501 3.58579 14.7501 4C14.7501 4.41421 14.4143 4.75 14.0001 4.75H12.0001C11.5859 4.75 11.2501 4.41421 11.2501 4Z" fill="black"/>
</g>
</g>
</g>
<defs>
<clipPath id="clip0_232_17060">
<rect width="24" height="24" rx="5" fill="white"/>
</clipPath>
</defs>
</svg>
