<svg width="24" height="24" viewBox="0 0 24 24" fill="none" xmlns="http://www.w3.org/2000/svg">
<g id="ease-in">
<g clip-path="url(#clip0_232_17083)">
<g id="Weight=Dynamic">
<path id="Vector (Stroke)" fill-rule="evenodd" clip-rule="evenodd" d="M20.364 3.60248C20.5835 3.25123 21.0462 3.14445 21.3975 3.36398C21.7488 3.58351 21.8555 4.04623 21.636 4.39748L21 3.99998C21.636 4.39748 21.6361 4.39724 21.636 4.39748L21.6353 4.39866L21.6276 4.41088L21.6048 4.44704C21.5848 4.47857 21.5554 4.52478 21.517 4.5847C21.4401 4.70453 21.3269 4.87922 21.1804 5.10092C20.8875 5.54426 20.4611 6.17603 19.9245 6.93349C18.8524 8.44713 17.3363 10.4688 15.5644 12.4939C13.7958 14.5152 11.7541 16.5607 9.62863 18.1065C7.51864 19.6411 5.23543 20.75 3 20.75C2.58579 20.75 2.25 20.4142 2.25 20C2.25 19.5858 2.58579 19.25 3 19.25C4.76457 19.25 6.73136 18.3589 8.74637 16.8934C10.7459 15.4392 12.7042 13.4848 14.4356 11.5061C16.1637 9.53111 17.6476 7.55283 18.7005 6.06647C19.2264 5.32392 19.6437 4.70569 19.9289 4.27404C20.0715 4.05824 20.181 3.88917 20.2545 3.77463C20.2913 3.71736 20.319 3.67373 20.3374 3.64471L20.3579 3.61227L20.3627 3.60449L20.364 3.60248Z" fill="black"/>
</g>
</g>
</g>
<defs>
<clipPath id="clip0_232_17083">
<rect width="24" height="24" rx="5" fill="white"/>
</clipPath>
</defs>
</svg>
