<svg width="24" height="24" viewBox="0 0 24 24" fill="none" xmlns="http://www.w3.org/2000/svg">
<g id="ease-in-out">
<g clip-path="url(#clip0_232_16912)">
<g id="Weight=Dynamic">
<path id="Vector (Stroke)" fill-rule="evenodd" clip-rule="evenodd" d="M8.60399 18.0189C7.08975 19.599 5.28215 20.75 3 20.75C2.58579 20.75 2.25 20.4142 2.25 20C2.25 19.5858 2.58579 19.25 3 19.25C4.71785 19.25 6.16025 18.401 7.52101 16.9811C8.89449 15.5479 10.1031 13.6199 11.364 11.6025L11.3897 11.5615C12.621 9.59133 13.9048 7.53707 15.396 5.98107C16.9103 4.40099 18.7178 3.25 21 3.25C21.4142 3.25 21.75 3.58579 21.75 4C21.75 4.41421 21.4142 4.75 21 4.75C19.2822 4.75 17.8397 5.59901 16.479 7.01893C15.1055 8.45213 13.8969 10.3801 12.636 12.3975L12.6104 12.4385C11.379 14.4087 10.0952 16.4629 8.60399 18.0189Z" fill="black"/>
</g>
</g>
</g>
<defs>
<clipPath id="clip0_232_16912">
<rect width="24" height="24" rx="5" fill="white"/>
</clipPath>
</defs>
</svg>
