<svg width="24" height="24" viewBox="0 0 24 24" fill="none" xmlns="http://www.w3.org/2000/svg">
<g id="ecology-book">
<g clip-path="url(#clip0_232_10650)">
<g id="Weight=Dynamic">
<path id="Vector (Stroke)" fill-rule="evenodd" clip-rule="evenodd" d="M6 3.75C5.30964 3.75 4.75 4.30964 4.75 5V16.5499C5.12503 16.3581 5.54989 16.25 6 16.25H19.25V3.75H6ZM20.7364 16.8571C20.7453 16.8109 20.75 16.7631 20.75 16.7143V3.6C20.75 2.85442 20.1456 2.25 19.4 2.25H6C4.48122 2.25 3.25 3.48122 3.25 5V19C3.25 20.5188 4.48122 21.75 6 21.75H20C20.4142 21.75 20.75 21.4142 20.75 21C20.75 20.5858 20.4142 20.25 20 20.25H6C5.30964 20.25 4.75 19.6904 4.75 19C4.75 18.3096 5.30964 17.75 6 17.75H20C20.4142 17.75 20.75 17.4142 20.75 17C20.75 16.9511 20.7453 16.9034 20.7364 16.8571ZM14.9789 5.28592C15.5814 5.2293 16.117 5.67074 16.1764 6.27304L16.4311 8.85397C16.6461 11.0329 15.0523 12.9665 12.8723 13.1713L12.7378 13.1839C12.1917 13.2353 11.6611 13.1692 11.1712 13.0064C11.0478 13.2908 10.9505 13.5416 10.8781 13.7402C10.823 13.8916 10.7826 14.0119 10.7565 14.0928C10.7434 14.1332 10.734 14.1638 10.728 14.1833L10.7217 14.2043L10.7206 14.208C10.6056 14.6058 10.1899 14.8354 9.79198 14.7206C9.39402 14.6057 9.16454 14.1899 9.27942 13.792L10 14C9.27942 13.792 9.27937 13.7922 9.27942 13.792L9.27997 13.7901L9.28085 13.7871L9.28362 13.7777L9.29324 13.7457C9.30149 13.7187 9.3134 13.6804 9.32905 13.6319C9.36035 13.535 9.4067 13.397 9.46874 13.2267C9.56243 12.9696 9.69246 12.637 9.86117 12.2594C9.1451 11.638 8.65601 10.7527 8.55576 9.73669C8.34809 7.632 9.88761 5.76431 11.9932 5.56646L14.9789 5.28592ZM11.8588 11.6425C12.2861 10.9098 12.8314 10.1583 13.5006 9.55848C13.809 9.28201 13.835 8.80784 13.5585 8.4994C13.282 8.19096 12.8078 8.16505 12.4994 8.44152C11.695 9.16253 11.0619 10.0363 10.5802 10.8574C10.2893 10.5093 10.0963 10.0736 10.0485 9.58939C9.92246 8.31186 10.8555 7.17997 12.1336 7.05988L14.7228 6.81659L14.9383 9.00127C15.0717 10.3531 14.0844 11.5508 12.732 11.6779L12.5975 11.6905C12.3435 11.7144 12.095 11.6965 11.8588 11.6425Z" fill="black"/>
</g>
</g>
</g>
<defs>
<clipPath id="clip0_232_10650">
<rect width="24" height="24" rx="5" fill="white"/>
</clipPath>
</defs>
</svg>
