<svg width="24" height="24" viewBox="0 0 24 24" fill="none" xmlns="http://www.w3.org/2000/svg">
<g id="edit">
<g clip-path="url(#clip0_232_6685)">
<g id="Weight=Dynamic">
<path id="Vector (Stroke)" fill-rule="evenodd" clip-rule="evenodd" d="M15.0503 2.24994C15.2492 2.24994 15.4399 2.32896 15.5806 2.46961L20.5303 7.41936C20.671 7.56001 20.75 7.75077 20.75 7.94969C20.75 8.1486 20.671 8.33936 20.5303 8.48002L12.0953 16.915C11.7671 17.2432 11.322 17.4276 10.8579 17.4276L6.32233 17.4276C5.90812 17.4276 5.57233 17.0918 5.57233 16.6776L5.57233 12.1421C5.57233 11.6779 5.75671 11.2328 6.08489 10.9046L14.5199 2.46961C14.6606 2.32896 14.8513 2.24994 15.0503 2.24994ZM13.2825 5.82837L17.1716 9.71745L18.9393 7.94969L15.0503 4.0606L13.2825 5.82837ZM16.1109 10.7781L12.2218 6.88903L7.14555 11.9653C7.09867 12.0122 7.07233 12.0758 7.07233 12.1421L7.07233 15.9276L10.8579 15.9276C10.9242 15.9276 10.9878 15.9013 11.0346 15.8544L16.1109 10.7781ZM2.25 21C2.25 20.5858 2.58579 20.25 3 20.25H21C21.4142 20.25 21.75 20.5858 21.75 21C21.75 21.4142 21.4142 21.75 21 21.75H3C2.58579 21.75 2.25 21.4142 2.25 21Z" fill="black"/>
</g>
</g>
</g>
<defs>
<clipPath id="clip0_232_6685">
<rect width="24" height="24" rx="5" fill="white"/>
</clipPath>
</defs>
</svg>
