<svg width="24" height="24" viewBox="0 0 24 24" fill="none" xmlns="http://www.w3.org/2000/svg">
<g id="edit-pencil">
<g clip-path="url(#clip0_232_6709)">
<g id="Weight=Dynamic">
<path id="Vector (Stroke)" fill-rule="evenodd" clip-rule="evenodd" d="M15.3128 3.64127C16.3868 2.56733 18.128 2.56733 19.2019 3.64127L20.6161 5.05549C21.6901 6.12943 21.6901 7.87063 20.6161 8.94457L9.52047 20.0402C9.06387 20.4968 8.46115 20.7782 7.81792 20.835L5.0775 21.0771C3.99248 21.1729 3.08445 20.2649 3.1803 19.1799L3.42238 16.4395C3.4792 15.7962 3.76057 15.1935 4.21717 14.7369L15.3128 3.64127ZM18.1412 4.70193C17.6531 4.21378 16.8616 4.21378 16.3735 4.70193L15.4238 5.65159L18.6058 8.83357L19.5555 7.88391C20.0436 7.39576 20.0436 6.6043 19.5555 6.11615L18.1412 4.70193ZM17.5451 9.89423L14.3632 6.71225L5.27783 15.7976C5.07028 16.0051 4.94239 16.2791 4.91656 16.5715L4.67448 19.3119C4.66078 19.4669 4.7905 19.5966 4.94551 19.5829L7.68592 19.3408C7.9783 19.315 8.25226 19.1871 8.45981 18.9796L17.5451 9.89423Z" fill="black"/>
</g>
</g>
</g>
<defs>
<clipPath id="clip0_232_6709">
<rect width="24" height="24" rx="5" fill="white"/>
</clipPath>
</defs>
</svg>
