<svg width="24" height="24" viewBox="0 0 24 24" fill="none" xmlns="http://www.w3.org/2000/svg">
<g id="egg">
<g clip-path="url(#clip0_232_7947)">
<g id="Weight=Dynamic">
<path id="Vector (Stroke)" fill-rule="evenodd" clip-rule="evenodd" d="M6.98869 6.72495C5.59384 9.08328 4.75 11.9527 4.75 14C4.75 18.0041 7.99594 21.25 12 21.25C16.0041 21.25 19.25 18.0041 19.25 14C19.25 11.9527 18.4062 9.08328 17.0113 6.72495C16.3178 5.55236 15.5094 4.54331 14.6402 3.83512C13.7718 3.12752 12.8815 2.75 12 2.75C11.1185 2.75 10.2282 3.12752 9.35978 3.83512C8.49059 4.54331 7.68222 5.55236 6.98869 6.72495ZM8.4123 2.67224C9.45805 1.8202 10.6724 1.25 12 1.25C13.3276 1.25 14.542 1.8202 15.5877 2.67224C16.6327 3.52369 17.5482 4.68622 18.3024 5.96134C19.803 8.49844 20.75 11.629 20.75 14C20.75 18.8325 16.8325 22.75 12 22.75C7.16751 22.75 3.25 18.8325 3.25 14C3.25 11.629 4.19702 8.49844 5.69761 5.96134C6.45178 4.68622 7.36728 3.52369 8.4123 2.67224Z" fill="black"/>
</g>
</g>
</g>
<defs>
<clipPath id="clip0_232_7947">
<rect width="24" height="24" rx="5" fill="white"/>
</clipPath>
</defs>
</svg>
