<svg width="24" height="24" viewBox="0 0 24 24" fill="none" xmlns="http://www.w3.org/2000/svg">
<g id="eject">
<g clip-path="url(#clip0_232_14424)">
<g id="Weight=Dynamic">
<path id="Vector (Stroke)" fill-rule="evenodd" clip-rule="evenodd" d="M12.1973 6.47534C12.0973 6.34665 11.9028 6.34665 11.8027 6.47534L6.53349 13.25H17.4665L12.1973 6.47534ZM10.6186 5.55443C11.3193 4.65362 12.6807 4.65362 13.3814 5.55443L19.592 13.5395C19.7679 13.7657 19.7996 14.0722 19.6737 14.3295C19.5479 14.5868 19.2865 14.75 19 14.75H5.00001C4.71356 14.75 4.45212 14.5868 4.32627 14.3295C4.20042 14.0722 4.23213 13.7657 4.40799 13.5395L10.6186 5.55443L11.2107 6.01488L10.6186 5.55443ZM4.25001 18C4.25001 17.5858 4.58579 17.25 5.00001 17.25H19C19.4142 17.25 19.75 17.5858 19.75 18C19.75 18.4142 19.4142 18.75 19 18.75H5.00001C4.58579 18.75 4.25001 18.4142 4.25001 18Z" fill="black"/>
</g>
</g>
</g>
<defs>
<clipPath id="clip0_232_14424">
<rect width="24" height="24" rx="5" fill="white"/>
</clipPath>
</defs>
</svg>
