<svg width="24" height="24" viewBox="0 0 24 24" fill="none" xmlns="http://www.w3.org/2000/svg">
<g id="electronics-chip">
<g clip-path="url(#clip0_232_5655)">
<g id="Weight=Dynamic">
<path id="Vector (Stroke)" fill-rule="evenodd" clip-rule="evenodd" d="M10 0.75C10.4142 0.75 10.75 1.08579 10.75 1.5V3.25H13.25V1.5C13.25 1.08579 13.5858 0.75 14 0.75C14.4142 0.75 14.75 1.08579 14.75 1.5V3.25H16.4C17.1456 3.25 17.75 3.85442 17.75 4.6V5.75H19.5C19.9142 5.75 20.25 6.08579 20.25 6.5C20.25 6.91421 19.9142 7.25 19.5 7.25H17.75V11.25H19.5C19.9142 11.25 20.25 11.5858 20.25 12C20.25 12.4142 19.9142 12.75 19.5 12.75H17.75V16.75H19.5C19.9142 16.75 20.25 17.0858 20.25 17.5C20.25 17.9142 19.9142 18.25 19.5 18.25H17.75V19.4C17.75 20.1456 17.1456 20.75 16.4 20.75H14.75V22.5C14.75 22.9142 14.4142 23.25 14 23.25C13.5858 23.25 13.25 22.9142 13.25 22.5V20.75H10.75V22.5C10.75 22.9142 10.4142 23.25 10 23.25C9.58579 23.25 9.25 22.9142 9.25 22.5V20.75H7.6C6.85442 20.75 6.25 20.1456 6.25 19.4V18.25H4.5C4.08579 18.25 3.75 17.9142 3.75 17.5C3.75 17.0858 4.08579 16.75 4.5 16.75H6.25V12.75H4.5C4.08579 12.75 3.75 12.4142 3.75 12C3.75 11.5858 4.08579 11.25 4.5 11.25H6.25V7.25H4.5C4.08579 7.25 3.75 6.91421 3.75 6.5C3.75 6.08579 4.08579 5.75 4.5 5.75H6.25V4.6C6.25 3.85441 6.85442 3.25 7.6 3.25H9.25V1.5C9.25 1.08579 9.58579 0.75 10 0.75ZM7.75 4.75V19.25H16.25V4.75H7.75Z" fill="black"/>
</g>
</g>
</g>
<defs>
<clipPath id="clip0_232_5655">
<rect width="24" height="24" rx="5" fill="white"/>
</clipPath>
</defs>
</svg>
