<svg width="24" height="24" viewBox="0 0 24 24" fill="none" xmlns="http://www.w3.org/2000/svg">
<g id="electronics-transistor">
<g clip-path="url(#clip0_232_5681)">
<g id="Weight=Dynamic">
<path id="Vector (Stroke)" fill-rule="evenodd" clip-rule="evenodd" d="M7.75 3.75V15.25H16.25V3.75H7.75ZM17.75 15.25V3.6C17.75 2.85442 17.1456 2.25 16.4 2.25H7.6C6.85442 2.25 6.25 2.85441 6.25 3.6V15.25H5C4.58579 15.25 4.25 15.5858 4.25 16C4.25 16.4142 4.58579 16.75 5 16.75H8.25V22C8.25 22.4142 8.58579 22.75 9 22.75C9.41421 22.75 9.75 22.4142 9.75 22V16.75H11.25V22C11.25 22.4142 11.5858 22.75 12 22.75C12.4142 22.75 12.75 22.4142 12.75 22V16.75H14.25V22C14.25 22.4142 14.5858 22.75 15 22.75C15.4142 22.75 15.75 22.4142 15.75 22V16.75H19C19.4142 16.75 19.75 16.4142 19.75 16C19.75 15.5858 19.4142 15.25 19 15.25H17.75Z" fill="black"/>
</g>
</g>
</g>
<defs>
<clipPath id="clip0_232_5681">
<rect width="24" height="24" rx="5" fill="white"/>
</clipPath>
</defs>
</svg>
