<svg width="24" height="24" viewBox="0 0 24 24" fill="none" xmlns="http://www.w3.org/2000/svg">
<g id="elevator">
<g clip-path="url(#clip0_232_17444)">
<g id="Weight=Dynamic">
<path id="Vector (Stroke)" fill-rule="evenodd" clip-rule="evenodd" d="M2.25 3.6C2.25 2.85442 2.85442 2.25 3.6 2.25H20.4C21.1456 2.25 21.75 2.85442 21.75 3.6V20.4C21.75 21.1456 21.1456 21.75 20.4 21.75H3.6C2.85442 21.75 2.25 21.1456 2.25 20.4V3.6ZM12.75 20.25H20.25V3.75H12.75L12.75 20.25ZM11.25 3.75L11.25 20.25H3.75V3.75H11.25ZM7.5 9.25C7.73607 9.25 7.95836 9.36115 8.1 9.55L9.6 11.55C9.84853 11.8814 9.78137 12.3515 9.45 12.6C9.11863 12.8485 8.64853 12.7814 8.4 12.45L7.5 11.25L6.6 12.45C6.35147 12.7814 5.88137 12.8485 5.55 12.6C5.21863 12.3515 5.15147 11.8814 5.4 11.55L6.9 9.55C7.04164 9.36115 7.26393 9.25 7.5 9.25ZM14.55 11.4C14.8814 11.1515 15.3515 11.2186 15.6 11.55L16.5 12.75L17.4 11.55C17.6485 11.2186 18.1186 11.1515 18.45 11.4C18.7814 11.6485 18.8485 12.1186 18.6 12.45L17.1 14.45C16.9584 14.6389 16.7361 14.75 16.5 14.75C16.2639 14.75 16.0416 14.6389 15.9 14.45L14.4 12.45C14.1515 12.1186 14.2186 11.6485 14.55 11.4Z" fill="black"/>
</g>
</g>
</g>
<defs>
<clipPath id="clip0_232_17444">
<rect width="24" height="24" rx="5" fill="white"/>
</clipPath>
</defs>
</svg>
