<svg width="24" height="24" viewBox="0 0 24 24" fill="none" xmlns="http://www.w3.org/2000/svg">
<g id="emoji-look-right">
<g clip-path="url(#clip0_232_6799)">
<g id="Weight=Dynamic">
<g id="Vector">
</g>
<path id="Vector (Stroke)" fill-rule="evenodd" clip-rule="evenodd" d="M12 2.75C6.89137 2.75 2.75 6.89137 2.75 12C2.75 17.1086 6.89137 21.25 12 21.25C15.7728 21.25 19.0196 18.9908 20.4585 15.75H17C16.5858 15.75 16.25 15.4142 16.25 15C16.25 14.5858 16.5858 14.25 17 14.25H20.9746C21.1544 13.5304 21.25 12.7768 21.25 12C21.25 6.89137 17.1086 2.75 12 2.75ZM1.25 12C1.25 6.06294 6.06294 1.25 12 1.25C17.9371 1.25 22.75 6.06294 22.75 12C22.75 13.1223 22.5778 14.2058 22.2577 15.2247C20.8881 19.5854 16.8146 22.75 12 22.75C6.06294 22.75 1.25 17.9371 1.25 12ZM15.5 8.75C15.6381 8.75 15.75 8.63807 15.75 8.5C15.75 8.36193 15.6381 8.25 15.5 8.25C15.3619 8.25 15.25 8.36193 15.25 8.5C15.25 8.63807 15.3619 8.75 15.5 8.75ZM14.25 8.5C14.25 7.80964 14.8096 7.25 15.5 7.25C16.1904 7.25 16.75 7.80964 16.75 8.5C16.75 9.19036 16.1904 9.75 15.5 9.75C14.8096 9.75 14.25 9.19036 14.25 8.5Z" fill="black"/>
</g>
</g>
</g>
<defs>
<clipPath id="clip0_232_6799">
<rect width="24" height="24" rx="5" fill="white"/>
</clipPath>
</defs>
</svg>
