<svg width="24" height="24" viewBox="0 0 24 24" fill="none" xmlns="http://www.w3.org/2000/svg">
<g id="emoji-look-left">
<g clip-path="url(#clip0_232_6828)">
<g id="Weight=Dynamic">
<g id="Vector">
</g>
<path id="Vector (Stroke)" fill-rule="evenodd" clip-rule="evenodd" d="M1.25 12C1.25 6.06294 6.06294 1.25 12 1.25C17.9371 1.25 22.75 6.06294 22.75 12C22.75 17.9371 17.9371 22.75 12 22.75C7.1854 22.75 3.11188 19.5854 1.74226 15.2247C1.42224 14.2058 1.25 13.1223 1.25 12ZM12 2.75C6.89137 2.75 2.75 6.89137 2.75 12C2.75 12.7768 2.84559 13.5304 3.02538 14.25H7C7.41421 14.25 7.75 14.5858 7.75 15C7.75 15.4142 7.41421 15.75 7 15.75H3.54147C4.98037 18.9908 8.22717 21.25 12 21.25C17.1086 21.25 21.25 17.1086 21.25 12C21.25 6.89137 17.1086 2.75 12 2.75ZM7.25 8.5C7.25 7.80964 7.80964 7.25 8.5 7.25C9.19036 7.25 9.75 7.80964 9.75 8.5C9.75 9.19036 9.19036 9.75 8.5 9.75C7.80964 9.75 7.25 9.19036 7.25 8.5ZM8.5 8.75C8.63807 8.75 8.75 8.63807 8.75 8.5C8.75 8.36193 8.63807 8.25 8.5 8.25C8.36193 8.25 8.25 8.36193 8.25 8.5C8.25 8.63807 8.36193 8.75 8.5 8.75Z" fill="black"/>
</g>
</g>
</g>
<defs>
<clipPath id="clip0_232_6828">
<rect width="24" height="24" rx="5" fill="white"/>
</clipPath>
</defs>
</svg>
