<svg width="24" height="24" viewBox="0 0 24 24" fill="none" xmlns="http://www.w3.org/2000/svg">
<g id="emoji-sad">
<g clip-path="url(#clip0_232_7031)">
<g id="Weight=Dynamic">
<g id="Vector">
</g>
<path id="Vector (Stroke)" fill-rule="evenodd" clip-rule="evenodd" d="M12 2.75C6.89137 2.75 2.75 6.89137 2.75 12C2.75 17.1086 6.89137 21.25 12 21.25C17.1086 21.25 21.25 17.1086 21.25 12C21.25 6.89137 17.1086 2.75 12 2.75ZM1.25 12C1.25 6.06294 6.06294 1.25 12 1.25C17.9371 1.25 22.75 6.06294 22.75 12C22.75 17.9371 17.9371 22.75 12 22.75C6.06294 22.75 1.25 17.9371 1.25 12ZM7.25 8.5C7.25 7.80964 7.80964 7.25 8.5 7.25C9.19036 7.25 9.75 7.80964 9.75 8.5C9.75 9.19036 9.19036 9.75 8.5 9.75C7.80964 9.75 7.25 9.19036 7.25 8.5ZM8.5 8.75C8.63807 8.75 8.75 8.63807 8.75 8.5C8.75 8.36193 8.63807 8.25 8.5 8.25C8.36193 8.25 8.25 8.36193 8.25 8.5C8.25 8.63807 8.36193 8.75 8.5 8.75ZM14.25 8.5C14.25 7.80964 14.8096 7.25 15.5 7.25C16.1904 7.25 16.75 7.80964 16.75 8.5C16.75 9.19036 16.1904 9.75 15.5 9.75C14.8096 9.75 14.25 9.19036 14.25 8.5ZM15.5 8.75C15.6381 8.75 15.75 8.63807 15.75 8.5C15.75 8.36193 15.6381 8.25 15.5 8.25C15.3619 8.25 15.25 8.36193 15.25 8.5C15.25 8.63807 15.3619 8.75 15.5 8.75ZM8.09959 15.9505C8.0989 15.9515 8.09821 15.9524 8.09751 15.9533C7.84834 16.2818 7.38027 16.3477 7.05 16.1C6.71863 15.8515 6.65147 15.3814 6.9 15.05L7.5 15.5C6.9 15.05 6.89978 15.0503 6.9 15.05L6.90092 15.0488L6.90197 15.0474L6.90452 15.044L6.91135 15.0351C6.91667 15.0283 6.92353 15.0195 6.93193 15.009C6.94872 14.988 6.9717 14.96 7.00087 14.926C7.05918 14.8579 7.14249 14.7656 7.25092 14.6572C7.4674 14.4407 7.78643 14.1577 8.20897 13.876C9.05695 13.3106 10.3243 12.75 12 12.75C13.6757 12.75 14.9431 13.3106 15.791 13.876C16.2136 14.1577 16.5326 14.4407 16.7491 14.6572C16.8575 14.7656 16.9408 14.8579 16.9991 14.926C17.0283 14.96 17.0513 14.988 17.0681 15.009C17.0765 15.0195 17.0833 15.0283 17.0886 15.0351L17.0955 15.044L17.098 15.0474L17.0991 15.0488C17.0993 15.0491 17.1 15.05 16.5 15.5L17.1 15.05C17.3485 15.3814 17.2814 15.8515 16.95 16.1C16.6197 16.3477 16.1516 16.2818 15.9025 15.9533L15.8968 15.9461C15.8901 15.9378 15.8779 15.9228 15.8602 15.9022C15.8248 15.8608 15.7675 15.7969 15.6884 15.7178C15.5299 15.5593 15.2864 15.3423 14.959 15.124C14.3069 14.6894 13.3243 14.25 12 14.25C10.6757 14.25 9.69305 14.6894 9.04103 15.124C8.71357 15.3423 8.4701 15.5593 8.31158 15.7178C8.23251 15.7969 8.1752 15.8608 8.13975 15.9022C8.12205 15.9228 8.10988 15.9378 8.10323 15.9461L8.09751 15.9533L8.09857 15.9519L8.09959 15.9505Z" fill="black"/>
</g>
</g>
</g>
<defs>
<clipPath id="clip0_232_7031">
<rect width="24" height="24" rx="5" fill="white"/>
</clipPath>
</defs>
</svg>
