<svg width="24" height="24" viewBox="0 0 24 24" fill="none" xmlns="http://www.w3.org/2000/svg">
<g id="emoji-sing-left-note">
<g clip-path="url(#clip0_232_6933)">
<g id="Weight=Dynamic">
<g id="Vector">
<path d="M2.8 8.1C2.8 8.59705 2.39706 9 1.9 9C1.40294 9 1 8.59705 1 8.1C1 7.60294 1.40294 7.2 1.9 7.2C2.39706 7.2 2.8 7.60294 2.8 8.1Z" fill="black"/>
<path d="M15.5 9C15.7761 9 16 8.77614 16 8.5C16 8.22385 15.7761 8 15.5 8C15.2239 8 15 8.22385 15 8.5C15 8.77614 15.2239 9 15.5 9Z" fill="black"/>
<path d="M8.5 9C8.77614 9 9 8.77614 9 8.5C9 8.22385 8.77614 8 8.5 8C8.22386 8 8 8.22385 8 8.5C8 8.77614 8.22386 9 8.5 9Z" fill="black"/>
</g>
<path id="Vector (Stroke)" fill-rule="evenodd" clip-rule="evenodd" d="M7.69972 2.14482C9.01756 1.56904 10.4725 1.25 12 1.25C17.9371 1.25 22.75 6.06294 22.75 12C22.75 17.9371 17.9371 22.75 12 22.75C6.4253 22.75 1.84248 18.5072 1.30305 13.0741C1.26212 12.6619 1.56309 12.2946 1.97528 12.2537C2.38746 12.2127 2.75478 12.5137 2.79571 12.9259C3.25972 17.5994 7.204 21.25 12 21.25C17.1086 21.25 21.25 17.1086 21.25 12C21.25 6.89137 17.1086 2.75 12 2.75C10.6831 2.75 9.43229 3.02475 8.30028 3.51935C7.92071 3.68519 7.47857 3.51193 7.31274 3.13237C7.1469 2.7528 7.32016 2.31066 7.69972 2.14482ZM3.55 3.75H5C5.41421 3.75 5.75 3.41421 5.75 3C5.75 2.58579 5.41421 2.25 5 2.25H3.4C2.65442 2.25 2.05 2.85441 2.05 3.6V6.45673C2.0006 6.45227 1.95056 6.45 1.9 6.45C0.98873 6.45 0.25 7.18873 0.25 8.1C0.25 9.01127 0.988731 9.75 1.9 9.75C2.81127 9.75 3.55 9.01127 3.55 8.1V3.75ZM2.05 8.1C2.05 8.01716 1.98284 7.95 1.9 7.95C1.81716 7.95 1.75 8.01716 1.75 8.1C1.75 8.18284 1.81716 8.25 1.9 8.25C1.98284 8.25 2.05 8.18284 2.05 8.1ZM8.5 8.75C8.63807 8.75 8.75 8.63807 8.75 8.5C8.75 8.36193 8.63807 8.25 8.5 8.25C8.36193 8.25 8.25 8.36193 8.25 8.5C8.25 8.63807 8.36193 8.75 8.5 8.75ZM7.25 8.5C7.25 7.80964 7.80964 7.25 8.5 7.25C9.19036 7.25 9.75 7.80964 9.75 8.5C9.75 9.19036 9.19036 9.75 8.5 9.75C7.80964 9.75 7.25 9.19036 7.25 8.5ZM15.5 8.75C15.6381 8.75 15.75 8.63807 15.75 8.5C15.75 8.36193 15.6381 8.25 15.5 8.25C15.3619 8.25 15.25 8.36193 15.25 8.5C15.25 8.63807 15.3619 8.75 15.5 8.75ZM14.25 8.5C14.25 7.80964 14.8096 7.25 15.5 7.25C16.1904 7.25 16.75 7.80964 16.75 8.5C16.75 9.19036 16.1904 9.75 15.5 9.75C14.8096 9.75 14.25 9.19036 14.25 8.5ZM8 13.75C7.30964 13.75 6.75 14.3096 6.75 15C6.75 15.6904 7.30964 16.25 8 16.25C8.69036 16.25 9.25 15.6904 9.25 15C9.25 14.3096 8.69036 13.75 8 13.75ZM5.25 15C5.25 13.4812 6.48122 12.25 8 12.25C9.51878 12.25 10.75 13.4812 10.75 15C10.75 16.5188 9.51878 17.75 8 17.75C6.48122 17.75 5.25 16.5188 5.25 15Z" fill="black"/>
</g>
</g>
</g>
<defs>
<clipPath id="clip0_232_6933">
<rect width="24" height="24" rx="5" fill="white"/>
</clipPath>
</defs>
</svg>
