<svg width="24" height="24" viewBox="0 0 24 24" fill="none" xmlns="http://www.w3.org/2000/svg">
<g id="emoji-sing-right-note">
<g clip-path="url(#clip0_232_6916)">
<g id="Weight=Dynamic">
<g id="Vector">
<path d="M20.8 8.1C20.8 8.59705 20.3971 9 19.9 9C19.4029 9 19 8.59705 19 8.1C19 7.60294 19.4029 7.2 19.9 7.2C20.3971 7.2 20.8 7.60294 20.8 8.1Z" fill="black"/>
<path d="M8.5 9C8.22386 9 8 8.77614 8 8.5C8 8.22385 8.22386 8 8.5 8C8.77614 8 9 8.22385 9 8.5C9 8.77614 8.77614 9 8.5 9Z" fill="black"/>
<path d="M15.5 9C15.2239 9 15 8.77614 15 8.5C15 8.22385 15.2239 8 15.5 8C15.7761 8 16 8.22385 16 8.5C16 8.77614 15.7761 9 15.5 9Z" fill="black"/>
</g>
<path id="Vector (Stroke)" fill-rule="evenodd" clip-rule="evenodd" d="M12 2.75C6.89137 2.75 2.75 6.89137 2.75 12C2.75 17.1086 6.89137 21.25 12 21.25C16.796 21.25 20.7403 17.5994 21.2043 12.9259C21.2452 12.5137 21.6125 12.2127 22.0247 12.2537C22.4369 12.2946 22.7379 12.6619 22.697 13.0741C22.1575 18.5072 17.5747 22.75 12 22.75C6.06294 22.75 1.25 17.9371 1.25 12C1.25 6.06294 6.06294 1.25 12 1.25C13.5275 1.25 14.9824 1.56904 16.3003 2.14482C16.6798 2.31066 16.8531 2.7528 16.6873 3.13237C16.5214 3.51193 16.0793 3.68519 15.6997 3.51935C14.5677 3.02475 13.3169 2.75 12 2.75ZM21.55 3.75H23C23.4142 3.75 23.75 3.41421 23.75 3C23.75 2.58579 23.4142 2.25 23 2.25H21.4C20.6544 2.25 20.05 2.85441 20.05 3.6V6.45673C20.0006 6.45227 19.9506 6.45 19.9 6.45C18.9887 6.45 18.25 7.18873 18.25 8.1C18.25 9.01127 18.9887 9.75 19.9 9.75C20.8113 9.75 21.55 9.01127 21.55 8.1V3.75ZM20.05 8.1C20.05 8.01716 19.9828 7.95 19.9 7.95C19.8172 7.95 19.75 8.01716 19.75 8.1C19.75 8.18284 19.8172 8.25 19.9 8.25C19.9828 8.25 20.05 8.18284 20.05 8.1ZM7.25 8.5C7.25 7.80964 7.80964 7.25 8.5 7.25C9.19036 7.25 9.75 7.80964 9.75 8.5C9.75 9.19036 9.19036 9.75 8.5 9.75C7.80964 9.75 7.25 9.19036 7.25 8.5ZM8.5 8.75C8.63807 8.75 8.75 8.63807 8.75 8.5C8.75 8.36193 8.63807 8.25 8.5 8.25C8.36193 8.25 8.25 8.36193 8.25 8.5C8.25 8.63807 8.36193 8.75 8.5 8.75ZM14.25 8.5C14.25 7.80964 14.8096 7.25 15.5 7.25C16.1904 7.25 16.75 7.80964 16.75 8.5C16.75 9.19036 16.1904 9.75 15.5 9.75C14.8096 9.75 14.25 9.19036 14.25 8.5ZM15.5 8.75C15.6381 8.75 15.75 8.63807 15.75 8.5C15.75 8.36193 15.6381 8.25 15.5 8.25C15.3619 8.25 15.25 8.36193 15.25 8.5C15.25 8.63807 15.3619 8.75 15.5 8.75ZM13.25 15C13.25 13.4812 14.4812 12.25 16 12.25C17.5188 12.25 18.75 13.4812 18.75 15C18.75 16.5188 17.5188 17.75 16 17.75C14.4812 17.75 13.25 16.5188 13.25 15ZM16 13.75C15.3096 13.75 14.75 14.3096 14.75 15C14.75 15.6904 15.3096 16.25 16 16.25C16.6904 16.25 17.25 15.6904 17.25 15C17.25 14.3096 16.6904 13.75 16 13.75Z" fill="black"/>
</g>
</g>
</g>
<defs>
<clipPath id="clip0_232_6916">
<rect width="24" height="24" rx="5" fill="white"/>
</clipPath>
</defs>
</svg>
