<svg width="24" height="24" viewBox="0 0 24 24" fill="none" xmlns="http://www.w3.org/2000/svg">
<g id="emoji-talking-happy">
<g clip-path="url(#clip0_232_6904)">
<g id="Weight=Dynamic">
<path id="Vector (Stroke)" fill-rule="evenodd" clip-rule="evenodd" d="M1.25 12C1.25 6.06294 6.06294 1.25 12 1.25C17.9371 1.25 22.75 6.06294 22.75 12C22.75 17.9371 17.9371 22.75 12 22.75C6.06294 22.75 1.25 17.9371 1.25 12ZM12 2.75C6.89137 2.75 2.75 6.89137 2.75 12C2.75 17.1086 6.89137 21.25 12 21.25C17.1086 21.25 21.25 17.1086 21.25 12C21.25 6.89137 17.1086 2.75 12 2.75ZM7.25 9C7.25 8.58579 7.58579 8.25 8 8.25H10C10.4142 8.25 10.75 8.58579 10.75 9C10.75 9.41421 10.4142 9.75 10 9.75H8C7.58579 9.75 7.25 9.41421 7.25 9ZM13.25 9C13.25 8.58579 13.5858 8.25 14 8.25H16C16.4142 8.25 16.75 8.58579 16.75 9C16.75 9.41421 16.4142 9.75 16 9.75H14C13.5858 9.75 13.25 9.41421 13.25 9ZM9.25 13C9.25 12.5858 9.58579 12.25 10 12.25H14C14.4142 12.25 14.75 12.5858 14.75 13V16C14.75 16.4534 14.6202 17.1167 14.2087 17.6882C13.7696 18.298 13.0444 18.75 12 18.75C10.9556 18.75 10.2304 18.298 9.79135 17.6882C9.37984 17.1167 9.25 16.4534 9.25 16V13ZM10.75 13.75V16C10.75 16.2133 10.8202 16.55 11.0087 16.8118C11.1696 17.0353 11.4444 17.25 12 17.25C12.5556 17.25 12.8304 17.0353 12.9913 16.8118C13.1798 16.55 13.25 16.2133 13.25 16V13.75H10.75Z" fill="black"/>
</g>
</g>
</g>
<defs>
<clipPath id="clip0_232_6904">
<rect width="24" height="24" rx="5" fill="white"/>
</clipPath>
</defs>
</svg>
