<svg width="24" height="24" viewBox="0 0 24 24" fill="none" xmlns="http://www.w3.org/2000/svg">
<g id="emoji-puzzled">
<g clip-path="url(#clip0_232_6993)">
<g id="Weight=Dynamic">
<g id="Vector">
<path d="M17.5 9C17.2239 9 17 8.77614 17 8.5C17 8.22386 17.2239 8 17.5 8C17.7761 8 18 8.22386 18 8.5C18 8.77614 17.7761 9 17.5 9Z" fill="black"/>
<path d="M10.5 9C10.2239 9 10 8.77614 10 8.5C10 8.22386 10.2239 8 10.5 8C10.7761 8 11 8.22386 11 8.5C11 8.77614 10.7761 9 10.5 9Z" fill="black"/>
</g>
<path id="Vector (Stroke)" fill-rule="evenodd" clip-rule="evenodd" d="M4.13221 3.00329C3.92252 3.1958 3.75 3.50671 3.75 4.00002C3.75 4.41424 3.41421 4.75002 3 4.75002C2.58579 4.75002 2.25 4.41424 2.25 4.00002C2.25 3.11627 2.57748 2.39436 3.11779 1.89833C3.64612 1.41329 4.33351 1.1844 4.99999 1.18439C5.66647 1.18438 6.35386 1.41324 6.8822 1.89827C7.42251 2.3943 7.75 3.1162 7.75 3.99995C7.75 4.63528 7.58368 5.12849 7.31258 5.53736C7.08771 5.87651 6.7959 6.14203 6.57681 6.34139C6.55266 6.36336 6.5294 6.38453 6.5072 6.40491C6.26188 6.63012 6.09014 6.80393 5.96554 7.02454C5.84866 7.23146 5.75 7.52388 5.75 7.99997C5.75 8.41418 5.41421 8.74997 5 8.74997C4.58579 8.74997 4.25 8.41418 4.25 7.99997C4.25 7.29572 4.40134 6.74387 4.65946 6.28685C4.90986 5.84353 5.23812 5.53373 5.4928 5.29993C5.51094 5.28327 5.52862 5.26706 5.54585 5.25127C5.79109 5.02646 5.9453 4.88509 6.06242 4.70845C6.16632 4.55175 6.25 4.34824 6.25 3.99995C6.25 3.50664 6.07749 3.19575 5.8678 3.00326C5.64614 2.79977 5.33353 2.68438 5.00001 2.68439C4.66649 2.68439 4.35388 2.79979 4.13221 3.00329ZM11.25 2.00002C11.25 1.58581 11.5858 1.25002 12 1.25002C17.9371 1.25002 22.75 6.06296 22.75 12C22.75 17.9371 17.9371 22.75 12 22.75C6.06294 22.75 1.25 17.9371 1.25 12C1.25 11.5858 1.58579 11.25 2 11.25C2.41421 11.25 2.75 11.5858 2.75 12C2.75 17.1087 6.89137 21.25 12 21.25C15.5948 21.25 18.7106 19.1994 20.2416 16.2042C20.1112 16.1565 19.9925 16.072 19.9025 15.9533M19.9023 15.9531L19.8968 15.9461C19.8901 15.9378 19.8779 15.9228 19.8602 15.9022C19.8248 15.8608 19.7675 15.7969 19.6884 15.7179C19.5299 15.5593 19.2864 15.3424 18.959 15.1241C18.3069 14.6894 17.3243 14.25 16 14.25C14.6757 14.25 13.6931 14.6894 13.041 15.1241C12.7136 15.3424 12.4701 15.5593 12.3116 15.7179C12.2325 15.7969 12.1752 15.8608 12.1398 15.9022C12.1221 15.9228 12.1099 15.9378 12.1032 15.9461L12.0977 15.9531L12.0986 15.9519L12.0992 15.9511L12.0996 15.9506C12.0989 15.9515 12.0982 15.9524 12.0975 15.9533C11.8484 16.2818 11.3803 16.3477 11.05 16.1C10.7186 15.8515 10.6515 15.3814 10.9 15.05L11.5 15.5C10.9 15.05 10.9002 15.0497 10.9004 15.0494L10.9009 15.0488L10.902 15.0474L10.9045 15.044L10.9114 15.0352C10.9167 15.0283 10.9235 15.0195 10.9319 15.009C10.9487 14.9881 10.9717 14.96 11.0009 14.926C11.0592 14.858 11.1425 14.7656 11.2509 14.6572C11.4674 14.4407 11.7864 14.1577 12.209 13.876C13.0569 13.3107 14.3243 12.75 16 12.75C17.6757 12.75 18.9431 13.3107 19.791 13.876C20.2136 14.1577 20.5326 14.4407 20.7491 14.6572C20.78 14.6881 20.8088 14.7177 20.8357 14.7458C21.105 13.8783 21.25 12.9561 21.25 12C21.25 6.89139 17.1086 2.75002 12 2.75002C11.5858 2.75002 11.25 2.41424 11.25 2.00002M9.25 8.50002C9.25 7.80967 9.80964 7.25002 10.5 7.25002C11.1904 7.25002 11.75 7.80967 11.75 8.50002C11.75 9.19038 11.1904 9.75002 10.5 9.75002C9.80964 9.75002 9.25 9.19038 9.25 8.50002ZM10.5 8.75002C10.6381 8.75002 10.75 8.6381 10.75 8.50002C10.75 8.36195 10.6381 8.25002 10.5 8.25002C10.3619 8.25002 10.25 8.36195 10.25 8.50002C10.25 8.6381 10.3619 8.75002 10.5 8.75002ZM16.25 8.50002C16.25 7.80967 16.8096 7.25002 17.5 7.25002C18.1904 7.25002 18.75 7.80967 18.75 8.50002C18.75 9.19038 18.1904 9.75002 17.5 9.75002C16.8096 9.75002 16.25 9.19038 16.25 8.50002ZM17.5 8.75002C17.6381 8.75002 17.75 8.6381 17.75 8.50002C17.75 8.36195 17.6381 8.25002 17.5 8.25002C17.3619 8.25002 17.25 8.36195 17.25 8.50002C17.25 8.6381 17.3619 8.75002 17.5 8.75002ZM5.51172 10.4414C5.8196 10.7185 5.84457 11.1927 5.56747 11.5006L5.55747 11.5117C5.28038 11.8196 4.80616 11.8446 4.49828 11.5675C4.1904 11.2904 4.16543 10.8162 4.44253 10.5083L4.45253 10.4972C4.72962 10.1893 5.20384 10.1643 5.51172 10.4414Z" fill="black"/>
</g>
</g>
</g>
<defs>
<clipPath id="clip0_232_6993">
<rect width="24" height="24" rx="5" fill="white"/>
</clipPath>
</defs>
</svg>
