<svg width="24" height="24" viewBox="0 0 24 24" fill="none" xmlns="http://www.w3.org/2000/svg">
<g id="emoji-satisfied">
<g clip-path="url(#clip0_232_6974)">
<g id="Weight=Dynamic">
<path id="Vector (Stroke)" fill-rule="evenodd" clip-rule="evenodd" d="M1.25 12C1.25 6.06294 6.06294 1.25 12 1.25C17.9371 1.25 22.75 6.06294 22.75 12C22.75 17.9371 17.9371 22.75 12 22.75C6.06294 22.75 1.25 17.9371 1.25 12ZM12 2.75C6.89137 2.75 2.75 6.89137 2.75 12C2.75 17.1086 6.89137 21.25 12 21.25C17.1086 21.25 21.25 17.1086 21.25 12C21.25 6.89137 17.1086 2.75 12 2.75ZM7.25 9C7.25 8.58579 7.58579 8.25 8 8.25H10C10.4142 8.25 10.75 8.58579 10.75 9C10.75 9.41421 10.4142 9.75 10 9.75H8C7.58579 9.75 7.25 9.41421 7.25 9ZM13.25 9C13.25 8.58579 13.5858 8.25 14 8.25H16C16.4142 8.25 16.75 8.58579 16.75 9C16.75 9.41421 16.4142 9.75 16 9.75H14C13.5858 9.75 13.25 9.41421 13.25 9ZM8.0996 14.0495C8.0996 14.0495 8.0996 14.0495 8.09959 14.0495L8.09928 14.049L8.09922 14.049L8.09857 14.0481L8.09767 14.0469L8.10323 14.0539C8.10988 14.0622 8.12205 14.0772 8.13975 14.0978C8.1752 14.1392 8.23251 14.2031 8.31158 14.2822C8.4701 14.4407 8.71357 14.6577 9.04103 14.876C9.69305 15.3106 10.6757 15.75 12 15.75C13.3243 15.75 14.3069 15.3106 14.959 14.876C15.2864 14.6577 15.5299 14.4407 15.6884 14.2822C15.7675 14.2031 15.8248 14.1392 15.8602 14.0978C15.8779 14.0772 15.8901 14.0622 15.8968 14.0539L15.9023 14.0469L15.9014 14.0481L15.9008 14.049M8.0996 14.0495C8.09949 14.0493 8.09939 14.0492 8.09928 14.049C8.09869 14.0483 8.0981 14.0475 8.09751 14.0467C7.84834 13.7182 7.38027 13.6523 7.05 13.9C6.71863 14.1485 6.65147 14.6186 6.9 14.95L7.5 14.5C6.9 14.95 6.90022 14.9503 6.90044 14.9506L6.90092 14.9512L6.90197 14.9526L6.90452 14.956L6.91135 14.9649C6.91667 14.9717 6.92353 14.9805 6.93193 14.991C6.94872 15.012 6.9717 15.04 7.00087 15.074C7.05918 15.1421 7.14249 15.2344 7.25092 15.3428C7.4674 15.5593 7.78643 15.8423 8.20897 16.124C9.05695 16.6894 10.3243 17.25 12 17.25C13.6757 17.25 14.9431 16.6894 15.791 16.124C16.2136 15.8423 16.5326 15.5593 16.7491 15.3428C16.8575 15.2344 16.9408 15.1421 16.9991 15.074C17.0283 15.04 17.0513 15.012 17.0681 14.991C17.0765 14.9805 17.0833 14.9717 17.0886 14.9649L17.0955 14.956L17.098 14.9526L17.0991 14.9512L17.0996 14.9506C17.0998 14.9503 17.1 14.95 16.5 14.5L17.1 14.95C17.3485 14.6186 17.2814 14.1485 16.95 13.9C16.6197 13.6523 16.1516 13.7182 15.9025 14.0467" fill="black"/>
</g>
</g>
</g>
<defs>
<clipPath id="clip0_232_6974">
<rect width="24" height="24" rx="5" fill="white"/>
</clipPath>
</defs>
</svg>
