<svg width="24" height="24" viewBox="0 0 24 24" fill="none" xmlns="http://www.w3.org/2000/svg">
<g id="emoji-look-up">
<g clip-path="url(#clip0_232_6950)">
<g id="Weight=Dynamic">
<g id="Vector">
</g>
<path id="Vector (Stroke)" fill-rule="evenodd" clip-rule="evenodd" d="M12 2.75C6.89137 2.75 2.75 6.89137 2.75 12C2.75 17.1086 6.89137 21.25 12 21.25C17.1086 21.25 21.25 17.1086 21.25 12C21.25 6.89137 17.1086 2.75 12 2.75ZM1.25 12C1.25 6.06294 6.06294 1.25 12 1.25C17.9371 1.25 22.75 6.06294 22.75 12C22.75 17.9371 17.9371 22.75 12 22.75C6.06294 22.75 1.25 17.9371 1.25 12ZM7.25 6.5C7.25 5.80964 7.80964 5.25 8.5 5.25C9.19036 5.25 9.75 5.80964 9.75 6.5C9.75 7.19036 9.19036 7.75 8.5 7.75C7.80964 7.75 7.25 7.19036 7.25 6.5ZM8.5 6.75C8.63807 6.75 8.75 6.63807 8.75 6.5C8.75 6.36193 8.63807 6.25 8.5 6.25C8.36193 6.25 8.25 6.36193 8.25 6.5C8.25 6.63807 8.36193 6.75 8.5 6.75ZM14.25 6.5C14.25 5.80964 14.8096 5.25 15.5 5.25C16.1904 5.25 16.75 5.80964 16.75 6.5C16.75 7.19036 16.1904 7.75 15.5 7.75C14.8096 7.75 14.25 7.19036 14.25 6.5ZM15.5 6.75C15.6381 6.75 15.75 6.63807 15.75 6.5C15.75 6.36193 15.6381 6.25 15.5 6.25C15.3619 6.25 15.25 6.36193 15.25 6.5C15.25 6.63807 15.3619 6.75 15.5 6.75ZM9.25 11C9.25 10.5858 9.58579 10.25 10 10.25H14C14.4142 10.25 14.75 10.5858 14.75 11C14.75 11.4142 14.4142 11.75 14 11.75H10C9.58579 11.75 9.25 11.4142 9.25 11Z" fill="black"/>
</g>
</g>
</g>
<defs>
<clipPath id="clip0_232_6950">
<rect width="24" height="24" rx="5" fill="white"/>
</clipPath>
</defs>
</svg>
