<svg width="24" height="24" viewBox="0 0 24 24" fill="none" xmlns="http://www.w3.org/2000/svg">
<g id="emoji-look-down">
<g clip-path="url(#clip0_232_6861)">
<g id="Weight=Dynamic">
<g id="Vector">
</g>
<path id="Vector (Stroke)" fill-rule="evenodd" clip-rule="evenodd" d="M12 2.75C6.89137 2.75 2.75 6.89137 2.75 12C2.75 17.1086 6.89137 21.25 12 21.25C17.1086 21.25 21.25 17.1086 21.25 12C21.25 6.89137 17.1086 2.75 12 2.75ZM1.25 12C1.25 6.06294 6.06294 1.25 12 1.25C17.9371 1.25 22.75 6.06294 22.75 12C22.75 17.9371 17.9371 22.75 12 22.75C6.06294 22.75 1.25 17.9371 1.25 12ZM7.25 13.5C7.25 12.8096 7.80964 12.25 8.5 12.25C9.19036 12.25 9.75 12.8096 9.75 13.5C9.75 14.1904 9.19036 14.75 8.5 14.75C7.80964 14.75 7.25 14.1904 7.25 13.5ZM8.5 13.75C8.63807 13.75 8.75 13.6381 8.75 13.5C8.75 13.3619 8.63807 13.25 8.5 13.25C8.36193 13.25 8.25 13.3619 8.25 13.5C8.25 13.6381 8.36193 13.75 8.5 13.75ZM14.25 13.5C14.25 12.8096 14.8096 12.25 15.5 12.25C16.1904 12.25 16.75 12.8096 16.75 13.5C16.75 14.1904 16.1904 14.75 15.5 14.75C14.8096 14.75 14.25 14.1904 14.25 13.5ZM15.5 13.75C15.6381 13.75 15.75 13.6381 15.75 13.5C15.75 13.3619 15.6381 13.25 15.5 13.25C15.3619 13.25 15.25 13.3619 15.25 13.5C15.25 13.6381 15.3619 13.75 15.5 13.75ZM9.25 18C9.25 17.5858 9.58579 17.25 10 17.25H14C14.4142 17.25 14.75 17.5858 14.75 18C14.75 18.4142 14.4142 18.75 14 18.75H10C9.58579 18.75 9.25 18.4142 9.25 18Z" fill="black"/>
</g>
</g>
</g>
<defs>
<clipPath id="clip0_232_6861">
<rect width="24" height="24" rx="5" fill="white"/>
</clipPath>
</defs>
</svg>
