<svg width="24" height="24" viewBox="0 0 24 24" fill="none" xmlns="http://www.w3.org/2000/svg">
<g id="empty-page">
<g clip-path="url(#clip0_232_6075)">
<g id="Weight=Dynamic">
<path id="Vector (Stroke)" fill-rule="evenodd" clip-rule="evenodd" d="M4.75 2.75V21.25H19.25V6.75H16.6C15.8544 6.75 15.25 6.14559 15.25 5.4V2.75H4.75ZM4.6 1.25C3.85442 1.25 3.25 1.85441 3.25 2.6V21.4C3.25 22.1456 3.85442 22.75 4.6 22.75H19.4C20.1456 22.75 20.75 22.1456 20.75 21.4V5.74853C20.75 5.39049 20.6078 5.04711 20.3546 4.79393L17.2061 1.64541C16.9529 1.39223 16.6095 1.25 16.2515 1.25H4.6ZM16.75 3.31066L18.6893 5.25H16.75V3.31066Z" fill="black"/>
</g>
</g>
</g>
<defs>
<clipPath id="clip0_232_6075">
<rect width="24" height="24" rx="5" fill="white"/>
</clipPath>
</defs>
</svg>
