<svg width="24" height="24" viewBox="0 0 24 24" fill="none" xmlns="http://www.w3.org/2000/svg">
<g id="energy-usage-window">
<g clip-path="url(#clip0_232_15151)">
<g id="Weight=Dynamic">
<path id="Vector (Stroke)" fill-rule="evenodd" clip-rule="evenodd" d="M4 3.75C3.30964 3.75 2.75 4.30964 2.75 5V6.25H21.25V5C21.25 4.30964 20.6904 3.75 20 3.75H4ZM22.75 5C22.75 3.48122 21.5188 2.25 20 2.25H4C2.48122 2.25 1.25 3.48122 1.25 5V19C1.25 20.5188 2.48122 21.75 4 21.75H20C21.5188 21.75 22.75 20.5188 22.75 19V5ZM21.25 7.75H2.75V19C2.75 19.6904 3.30964 20.25 4 20.25H20C20.6904 20.25 21.25 19.6904 21.25 19V7.75ZM5.51172 4.44142C5.81961 4.71851 5.84457 5.19273 5.56747 5.50061L5.55747 5.51172C5.28038 5.81961 4.80616 5.84457 4.49828 5.56747C4.19039 5.29038 4.16543 4.81616 4.44253 4.50828L4.45253 4.49717C4.72962 4.18928 5.20384 4.16432 5.51172 4.44142ZM8.51173 4.44142C8.81961 4.71852 8.84456 5.19274 8.56747 5.50062L8.55747 5.51173C8.28037 5.81961 7.80615 5.84456 7.49827 5.56747C7.19039 5.29037 7.16544 4.81615 7.44253 4.50827L7.45253 4.49716C7.72963 4.18928 8.20385 4.16433 8.51173 4.44142ZM11.5117 4.44142C11.8196 4.71852 11.8446 5.19274 11.5675 5.50062L11.5575 5.51173C11.2804 5.81961 10.8062 5.84456 10.4983 5.56747C10.1904 5.29037 10.1654 4.81615 10.4425 4.50827L10.4525 4.49716C10.7296 4.18928 11.2038 4.16433 11.5117 4.44142ZM12.0309 10.3444C12.393 10.5455 12.5234 11.0021 12.3223 11.3642L11.2746 13.25H14C14.2657 13.25 14.5116 13.3906 14.6464 13.6197C14.7812 13.8487 14.7847 14.1319 14.6556 14.3642L12.989 17.3642C12.7878 17.7263 12.3312 17.8568 11.9691 17.6556C11.607 17.4545 11.4766 16.9979 11.6777 16.6358L12.7254 14.75H10C9.73426 14.75 9.48836 14.6094 9.3536 14.3803C9.21883 14.1513 9.21533 13.8681 9.34438 13.6358L11.011 10.6358C11.2122 10.2737 11.6688 10.1432 12.0309 10.3444Z" fill="black"/>
</g>
</g>
</g>
<defs>
<clipPath id="clip0_232_15151">
<rect width="24" height="24" rx="5" fill="white"/>
</clipPath>
</defs>
</svg>
