<svg width="24" height="24" viewBox="0 0 24 24" fill="none" xmlns="http://www.w3.org/2000/svg">
<g id="enlarge">
<g clip-path="url(#clip0_232_12736)">
<g id="Weight=Dynamic">
<path id="Vector (Stroke)" fill-rule="evenodd" clip-rule="evenodd" d="M15.25 4C15.25 3.58579 15.5858 3.25 16 3.25H20C20.4142 3.25 20.75 3.58579 20.75 4V8C20.75 8.41421 20.4142 8.75 20 8.75C19.5858 8.75 19.25 8.41421 19.25 8V5.81066L15.5303 9.53033C15.2374 9.82322 14.7626 9.82322 14.4697 9.53033C14.1768 9.23744 14.1768 8.76256 14.4697 8.46967L18.1893 4.75H16C15.5858 4.75 15.25 4.41421 15.25 4ZM9.53033 14.4697C9.82322 14.7626 9.82322 15.2374 9.53033 15.5303L5.81066 19.25H8C8.41421 19.25 8.75 19.5858 8.75 20C8.75 20.4142 8.41421 20.75 8 20.75H4C3.58579 20.75 3.25 20.4142 3.25 20V16C3.25 15.5858 3.58579 15.25 4 15.25C4.41421 15.25 4.75 15.5858 4.75 16V18.1893L8.46967 14.4697C8.76256 14.1768 9.23744 14.1768 9.53033 14.4697Z" fill="black"/>
</g>
</g>
</g>
<defs>
<clipPath id="clip0_232_12736">
<rect width="24" height="24" rx="5" fill="white"/>
</clipPath>
</defs>
</svg>
