<svg width="24" height="24" viewBox="0 0 24 24" fill="none" xmlns="http://www.w3.org/2000/svg">
<g id="erase">
<g clip-path="url(#clip0_232_1389)">
<g id="Weight=Dynamic">
<path id="Vector (Stroke)" fill-rule="evenodd" clip-rule="evenodd" d="M14.3839 3.94449C13.8957 3.45633 13.1043 3.45633 12.6161 3.94449L9.31073 7.24988L16.0282 13.9674L19.3336 10.662C19.8218 10.1738 19.8218 9.38239 19.3336 8.89423L14.3839 3.94449ZM14.9676 15.0281L8.25007 8.31054L3.42373 13.1369C2.93558 13.625 2.93558 14.4165 3.42373 14.9046L8.42373 19.9046C8.64483 20.1257 8.94469 20.2499 9.25736 20.2499C9.57004 20.2499 9.8699 20.1257 10.091 19.9046L14.9676 15.0281ZM11.867 20.2499L20.3943 11.7227C21.4682 10.6487 21.4682 8.90751 20.3943 7.83357L15.4445 2.88383C14.3706 1.80988 12.6294 1.80988 11.5555 2.88383L2.36307 12.0762C1.28913 13.1502 1.28913 14.8914 2.36307 15.9653L7.36307 20.9653C7.73635 21.3386 8.20844 21.5903 8.71787 21.6951C8.80496 21.7305 8.90021 21.7499 9.00001 21.7499H21C21.4142 21.7499 21.75 21.4142 21.75 20.9999C21.75 20.5857 21.4142 20.2499 21 20.2499H11.867Z" fill="black"/>
</g>
</g>
</g>
<defs>
<clipPath id="clip0_232_1389">
<rect width="24" height="24" rx="5" fill="white"/>
</clipPath>
</defs>
</svg>
