<svg width="24" height="24" viewBox="0 0 24 24" fill="none" xmlns="http://www.w3.org/2000/svg">
<g id="ethereum-circle">
<g clip-path="url(#clip0_232_7418)">
<g id="Weight=Dynamic">
<path id="Vector (Stroke)" fill-rule="evenodd" clip-rule="evenodd" d="M1.25 12C1.25 6.06294 6.06294 1.25 12 1.25C17.9371 1.25 22.75 6.06294 22.75 12C22.75 17.9371 17.9371 22.75 12 22.75C6.06294 22.75 1.25 17.9371 1.25 12ZM12 2.75C6.89137 2.75 2.75 6.89137 2.75 12C2.75 17.1086 6.89137 21.25 12 21.25C17.1086 21.25 21.25 17.1086 21.25 12C21.25 6.89137 17.1086 2.75 12 2.75ZM12 4.25C12.2422 4.25 12.4695 4.36697 12.6103 4.56407L17.6103 11.5641C17.7966 11.8248 17.7966 12.1752 17.6103 12.4359L12.6103 19.4359C12.4695 19.633 12.2422 19.75 12 19.75C11.7578 19.75 11.5305 19.633 11.3897 19.4359L6.3897 12.4359C6.20343 12.1752 6.20343 11.8248 6.3897 11.5641L11.3897 4.56407C11.5305 4.36697 11.7578 4.25 12 4.25ZM8.71267 13.1074L12 17.7097L15.2873 13.1074L12.1471 13.7354C12.05 13.7549 11.95 13.7549 11.8529 13.7354L8.71267 13.1074ZM15.7155 11.492L12.75 12.0851V7.34035L15.7155 11.492ZM11.25 7.34035V12.0851L8.2845 11.492L11.25 7.34035Z" fill="black"/>
</g>
</g>
</g>
<defs>
<clipPath id="clip0_232_7418">
<rect width="24" height="24" rx="5" fill="white"/>
</clipPath>
</defs>
</svg>
