<svg width="24" height="24" viewBox="0 0 24 24" fill="none" xmlns="http://www.w3.org/2000/svg">
<g id="ethereum-rotate-out">
<g clip-path="url(#clip0_232_7345)">
<g id="Weight=Dynamic">
<path id="Vector (Stroke)" fill-rule="evenodd" clip-rule="evenodd" d="M11.9999 2.75C7.20394 2.75 3.25966 6.40058 2.79564 11.0741C2.75472 11.4863 2.3874 11.7873 1.97521 11.7463C1.56302 11.7054 1.26206 11.3381 1.30298 10.9259C1.84241 5.49278 6.42523 1.25 11.9999 1.25C15.9364 1.25 19.3774 3.36573 21.25 6.5199V4C21.25 3.58579 21.5858 3.25 22 3.25C22.4142 3.25 22.75 3.58579 22.75 4V7.4C22.75 8.14559 22.1456 8.75 21.4 8.75H21.1851C21.1738 8.75025 21.1626 8.75025 21.1514 8.75H18C17.5858 8.75 17.25 8.41421 17.25 8C17.25 7.58579 17.5858 7.25 18 7.25H19.939C18.322 4.55329 15.3709 2.75 11.9999 2.75ZM12 4.25C12.2422 4.25 12.4695 4.36697 12.6103 4.56407L17.6103 11.5641C17.7966 11.8248 17.7966 12.1752 17.6103 12.4359L12.6103 19.4359C12.4695 19.633 12.2422 19.75 12 19.75C11.7578 19.75 11.5305 19.633 11.3897 19.4359L6.38969 12.4359C6.20343 12.1752 6.20343 11.8248 6.38969 11.5641L11.3897 4.56407C11.5305 4.36697 11.7578 4.25 12 4.25ZM8.71266 13.1074L12 17.7097L15.2873 13.1074L12.1471 13.7354C12.05 13.7549 11.95 13.7549 11.8529 13.7354L8.71266 13.1074ZM15.7155 11.492L12.75 12.0851V7.34035L15.7155 11.492ZM11.25 7.34035V12.0851L8.2845 11.492L11.25 7.34035ZM22.0741 12.2537C22.4863 12.2946 22.7872 12.6619 22.7463 13.0741C22.2069 18.5072 17.6241 22.75 12.0494 22.75C8.11291 22.75 4.67194 20.6343 2.79931 17.4801V20C2.79931 20.4142 2.46352 20.75 2.04931 20.75C1.6351 20.75 1.29931 20.4142 1.29931 20V16.6C1.29931 15.8544 1.90373 15.25 2.64931 15.25H2.86426C2.87549 15.2497 2.8867 15.2497 2.89788 15.25H6.04931C6.46352 15.25 6.79931 15.5858 6.79931 16C6.79931 16.4142 6.46352 16.75 6.04931 16.75H4.11029C5.72728 19.4467 8.6784 21.25 12.0494 21.25C16.8454 21.25 20.7896 17.5994 21.2537 12.9259C21.2946 12.5137 21.6619 12.2127 22.0741 12.2537Z" fill="black"/>
</g>
</g>
</g>
<defs>
<clipPath id="clip0_232_7345">
<rect width="24" height="24" rx="5" fill="white"/>
</clipPath>
</defs>
</svg>
