<svg width="24" height="24" viewBox="0 0 24 24" fill="none" xmlns="http://www.w3.org/2000/svg">
<g id="euro">
<g clip-path="url(#clip0_232_7474)">
<g id="Weight=Dynamic">
<path id="Vector (Stroke)" fill-rule="evenodd" clip-rule="evenodd" d="M6.6911 9.25H5C4.58579 9.25 4.25 9.58579 4.25 10C4.25 10.4142 4.58579 10.75 5 10.75H6.33871C6.28023 11.1585 6.25 11.5759 6.25 12C6.25 12.4241 6.28023 12.8415 6.33871 13.25H5C4.58579 13.25 4.25 13.5858 4.25 14C4.25 14.4142 4.58579 14.75 5 14.75H6.6911C7.84401 18.2349 11.1274 20.75 15 20.75C16.3715 20.75 17.6712 20.4339 18.8285 19.87C19.2009 19.6885 19.3557 19.2396 19.1742 18.8672C18.9928 18.4949 18.5438 18.3401 18.1715 18.5216C17.2144 18.988 16.1388 19.25 15 19.25C11.97 19.25 9.37278 17.3907 8.28949 14.75H16C16.4142 14.75 16.75 14.4142 16.75 14C16.75 13.5858 16.4142 13.25 16 13.25H7.85723C7.78678 12.8443 7.75 12.4267 7.75 12C7.75 11.5733 7.78678 11.1557 7.85723 10.75H16C16.4142 10.75 16.75 10.4142 16.75 10C16.75 9.58579 16.4142 9.25 16 9.25H8.28949C9.37278 6.60929 11.97 4.75 15 4.75C16.1388 4.75 17.2144 5.01205 18.1715 5.47844C18.5438 5.65989 18.9928 5.50513 19.1742 5.13278C19.3557 4.76042 19.2009 4.31147 18.8285 4.13002C17.6712 3.56607 16.3715 3.25 15 3.25C11.1274 3.25 7.84401 5.76511 6.6911 9.25Z" fill="black"/>
</g>
</g>
</g>
<defs>
<clipPath id="clip0_232_7474">
<rect width="24" height="24" rx="5" fill="white"/>
</clipPath>
</defs>
</svg>
