<svg width="24" height="24" viewBox="0 0 24 24" fill="none" xmlns="http://www.w3.org/2000/svg">
<g id="euro-square">
<g clip-path="url(#clip0_232_7564)">
<g id="Weight=Dynamic">
<path id="Vector (Stroke)" fill-rule="evenodd" clip-rule="evenodd" d="M3.75 3.75V20.25H20.25V3.75H3.75ZM2.25 3.6C2.25 2.85441 2.85442 2.25 3.6 2.25H20.4C21.1456 2.25 21.75 2.85442 21.75 3.6V20.4C21.75 21.1456 21.1456 21.75 20.4 21.75H3.6C2.85442 21.75 2.25 21.1456 2.25 20.4V3.6ZM9.75697 11.75C9.75235 11.8327 9.75 11.916 9.75 12C9.75 12.084 9.75235 12.1673 9.75697 12.25H14C14.4142 12.25 14.75 12.5858 14.75 13C14.75 13.4142 14.4142 13.75 14 13.75H10.1137C10.7628 15.2307 12.2097 16.25 13.8696 16.25C14.5139 16.25 15.1222 16.0979 15.6644 15.8266C16.0348 15.6413 16.4854 15.7913 16.6707 16.1618C16.8561 16.5322 16.706 16.9827 16.3356 17.1681C15.5908 17.5408 14.7532 17.75 13.8696 17.75C11.3499 17.75 9.23713 16.0611 8.51554 13.75H8C7.58579 13.75 7.25 13.4142 7.25 13C7.25 12.5858 7.58579 12.25 8 12.25H8.25524C8.25176 12.1671 8.25 12.0837 8.25 12C8.25 11.9163 8.25176 11.8329 8.25524 11.75H8C7.58579 11.75 7.25 11.4142 7.25 11C7.25 10.5858 7.58579 10.25 8 10.25H8.51554C9.23713 7.93891 11.3499 6.25 13.8696 6.25C14.7532 6.25 15.5908 6.45923 16.3356 6.83192C16.706 7.01727 16.8561 7.46782 16.6707 7.83825C16.4854 8.20868 16.0348 8.35872 15.6644 8.17337C15.1222 7.90209 14.5139 7.75 13.8696 7.75C12.2097 7.75 10.7628 8.76931 10.1137 10.25H14C14.4142 10.25 14.75 10.5858 14.75 11C14.75 11.4142 14.4142 11.75 14 11.75H9.75697Z" fill="black"/>
</g>
</g>
</g>
<defs>
<clipPath id="clip0_232_7564">
<rect width="24" height="24" rx="5" fill="white"/>
</clipPath>
</defs>
</svg>
