<svg width="24" height="24" viewBox="0 0 24 24" fill="none" xmlns="http://www.w3.org/2000/svg">
<g id="ev-charge">
<g clip-path="url(#clip0_232_15856)">
<g id="Weight=Dynamic">
<path id="Vector (Stroke)" fill-rule="evenodd" clip-rule="evenodd" d="M4 2.25C4.41421 2.25 4.75 2.58579 4.75 3V4.25H7.25V3C7.25 2.58579 7.58579 2.25 8 2.25C8.41421 2.25 8.75 2.58579 8.75 3V4.29581C9.32591 4.44998 9.75 4.97546 9.75 5.6V7C9.75 8.51878 8.51878 9.75 7 9.75H6.75V19C6.75 19.6904 7.30964 20.25 8 20.25H17C17.6904 20.25 18.25 19.6904 18.25 19V14C18.25 13.5858 18.5858 13.25 19 13.25C19.4142 13.25 19.75 13.5858 19.75 14V19C19.75 20.5188 18.5188 21.75 17 21.75H8C6.48122 21.75 5.25 20.5188 5.25 19V9.75H5C3.48122 9.75 2.25 8.51878 2.25 7V5.6C2.25 4.97546 2.67409 4.44998 3.25 4.29581V3C3.25 2.58579 3.58579 2.25 4 2.25ZM3.75 5.75V7C3.75 7.69036 4.30964 8.25 5 8.25H7C7.69036 8.25 8.25 7.69036 8.25 7V5.75H3.75ZM18.5309 3.34438C18.893 3.54554 19.0234 4.00214 18.8223 4.36423L17.7746 6.25H20.5C20.7657 6.25 21.0116 6.39062 21.1464 6.61965C21.2812 6.84869 21.2847 7.13193 21.1556 7.36423L19.489 10.3642C19.2878 10.7263 18.8312 10.8568 18.4691 10.6556C18.107 10.4545 17.9766 9.99786 18.1777 9.63577L19.2254 7.75H16.5C16.2343 7.75 15.9884 7.60938 15.8536 7.38035C15.7188 7.15131 15.7153 6.86807 15.8444 6.63577L17.511 3.63577C17.7122 3.27368 18.1688 3.14322 18.5309 3.34438Z" fill="black"/>
</g>
</g>
</g>
<defs>
<clipPath id="clip0_232_15856">
<rect width="24" height="24" rx="5" fill="white"/>
</clipPath>
</defs>
</svg>
