<svg width="24" height="24" viewBox="0 0 24 24" fill="none" xmlns="http://www.w3.org/2000/svg">
<g id="ev-charge-alt">
<g clip-path="url(#clip0_232_15870)">
<g id="Weight=Dynamic">
<path id="Vector (Stroke)" fill-rule="evenodd" clip-rule="evenodd" d="M4 2.25C4.41421 2.25 4.75 2.58579 4.75 3V4.25H7.25V3C7.25 2.58579 7.58579 2.25 8 2.25C8.41421 2.25 8.75 2.58579 8.75 3V4.29581C9.32591 4.44998 9.75 4.97546 9.75 5.6V7C9.75 8.51878 8.51878 9.75 7 9.75H6.75V19C6.75 19.6904 7.30964 20.25 8 20.25H17C17.6904 20.25 18.25 19.6904 18.25 19V14C18.25 13.5858 18.5858 13.25 19 13.25C19.4142 13.25 19.75 13.5858 19.75 14V19C19.75 20.5188 18.5188 21.75 17 21.75H8C6.48122 21.75 5.25 20.5188 5.25 19V9.75H5C3.48122 9.75 2.25 8.51878 2.25 7V5.6C2.25 4.97546 2.67409 4.44998 3.25 4.29581V3C3.25 2.58579 3.58579 2.25 4 2.25ZM3.75 5.75V7C3.75 7.69036 4.30964 8.25 5 8.25H7C7.69036 8.25 8.25 7.69036 8.25 7V5.75H3.75ZM17.6646 4.32918C18.0351 4.14394 18.4856 4.29411 18.6708 4.66459L20 7.32295L21.3292 4.66459C21.5144 4.29411 21.9649 4.14394 22.3354 4.32918C22.7059 4.51442 22.8561 4.96493 22.6708 5.33541L20.6708 9.33541C20.5438 9.5895 20.2841 9.75 20 9.75C19.7159 9.75 19.4562 9.5895 19.3292 9.33541L17.3292 5.33541C17.1439 4.96493 17.2941 4.51442 17.6646 4.32918ZM13.25 5C13.25 4.58579 13.5858 4.25 14 4.25H16C16.4142 4.25 16.75 4.58579 16.75 5C16.75 5.41421 16.4142 5.75 16 5.75H14.75V6.25H15.5C15.9142 6.25 16.25 6.58579 16.25 7C16.25 7.41421 15.9142 7.75 15.5 7.75H14.75V8.25H16C16.4142 8.25 16.75 8.58579 16.75 9C16.75 9.41421 16.4142 9.75 16 9.75H14C13.5858 9.75 13.25 9.41421 13.25 9V5Z" fill="black"/>
</g>
</g>
</g>
<defs>
<clipPath id="clip0_232_15870">
<rect width="24" height="24" rx="5" fill="white"/>
</clipPath>
</defs>
</svg>
