<svg width="24" height="24" viewBox="0 0 24 24" fill="none" xmlns="http://www.w3.org/2000/svg">
<g id="ev-plug">
<g clip-path="url(#clip0_232_16138)">
<g id="Weight=Dynamic">
<path id="Vector (Stroke)" fill-rule="evenodd" clip-rule="evenodd" d="M8.66699 2.25C9.08121 2.25 9.41699 2.58579 9.41699 3V5.63452H14.583V3C14.583 2.58579 14.9188 2.25 15.333 2.25C15.7472 2.25 16.083 2.58579 16.083 3V5.85599C17.0633 6.27642 17.75 7.25028 17.75 8.38452V11.1538C17.75 12.6725 16.5188 13.9038 15 13.9038H12.75V21C12.75 21.4142 12.4142 21.75 12 21.75C11.5858 21.75 11.25 21.4142 11.25 21V13.9038H9C7.48122 13.9038 6.25 12.6725 6.25 11.1538V8.38452C6.25 7.25028 6.93668 6.27642 7.91699 5.85599V3C7.91699 2.58579 8.25278 2.25 8.66699 2.25ZM9 7.13452C8.30964 7.13452 7.75 7.69417 7.75 8.38452V11.1538C7.75 11.8441 8.30965 12.4038 9 12.4038H15C15.6904 12.4038 16.25 11.8441 16.25 11.1538V8.38452C16.25 7.69417 15.6904 7.13452 15 7.13452H9Z" fill="black"/>
</g>
</g>
</g>
<defs>
<clipPath id="clip0_232_16138">
<rect width="24" height="24" rx="5" fill="white"/>
</clipPath>
</defs>
</svg>
