<svg width="24" height="24" viewBox="0 0 24 24" fill="none" xmlns="http://www.w3.org/2000/svg">
<g id="ev-plug-charging">
<g clip-path="url(#clip0_232_16150)">
<g id="Weight=Dynamic">
<path id="Vector (Stroke)" fill-rule="evenodd" clip-rule="evenodd" d="M6.66699 2.25C7.08121 2.25 7.41699 2.58579 7.41699 3V5.63452H12.583V3C12.583 2.58579 12.9188 2.25 13.333 2.25C13.7472 2.25 14.083 2.58579 14.083 3V5.85599C15.0633 6.27642 15.75 7.25028 15.75 8.38452V11.1538C15.75 12.6725 14.5188 13.9038 13 13.9038H10.75V21C10.75 21.4142 10.4142 21.75 10 21.75C9.58579 21.75 9.25 21.4142 9.25 21V13.9038H7C5.48122 13.9038 4.25 12.6725 4.25 11.1538V8.38452C4.25 7.25028 4.93668 6.27642 5.91699 5.85599V3C5.91699 2.58579 6.25278 2.25 6.66699 2.25ZM7 7.13452C6.30964 7.13452 5.75 7.69417 5.75 8.38452V11.1538C5.75 11.8441 6.30965 12.4038 7 12.4038H13C13.6904 12.4038 14.25 11.8441 14.25 11.1538V8.38452C14.25 7.69417 13.6904 7.13452 13 7.13452H7ZM17.0309 15.3444C17.393 15.5455 17.5234 16.0021 17.3223 16.3642L16.2746 18.25H19C19.2657 18.25 19.5116 18.3906 19.6464 18.6197C19.7812 18.8487 19.7847 19.1319 19.6556 19.3642L17.989 22.3642C17.7878 22.7263 17.3312 22.8568 16.9691 22.6556C16.607 22.4545 16.4766 21.9979 16.6777 21.6358L17.7254 19.75H15C14.7343 19.75 14.4884 19.6094 14.3536 19.3803C14.2188 19.1513 14.2153 18.8681 14.3444 18.6358L16.011 15.6358C16.2122 15.2737 16.6688 15.1432 17.0309 15.3444Z" fill="black"/>
</g>
</g>
</g>
<defs>
<clipPath id="clip0_232_16150">
<rect width="24" height="24" rx="5" fill="white"/>
</clipPath>
</defs>
</svg>
