<svg width="24" height="24" viewBox="0 0 24 24" fill="none" xmlns="http://www.w3.org/2000/svg">
<g id="ev-station">
<g clip-path="url(#clip0_232_15844)">
<g id="Weight=Dynamic">
<path id="Vector (Stroke)" fill-rule="evenodd" clip-rule="evenodd" d="M7 3.75C6.30964 3.75 5.75 4.30964 5.75 5V6.54985C6.12503 6.35814 6.54989 6.25 7 6.25H16C16.4501 6.25 16.875 6.35814 17.25 6.54986V5C17.25 4.30964 16.6904 3.75 16 3.75H7ZM18.75 5C18.75 3.48122 17.5188 2.25 16 2.25H7C5.48122 2.25 4.25 3.48122 4.25 5V19C4.25 20.5188 5.48122 21.75 7 21.75H16C17.5188 21.75 18.75 20.5188 18.75 19V5ZM17.25 9C17.25 8.30964 16.6904 7.75 16 7.75H7C6.30964 7.75 5.75 8.30964 5.75 9V19C5.75 19.6904 6.30964 20.25 7 20.25H16C16.6904 20.25 17.25 19.6904 17.25 19V9ZM21 4.25C21.4142 4.25 21.75 4.58579 21.75 5V9C21.75 9.41421 21.4142 9.75 21 9.75C20.5858 9.75 20.25 9.41421 20.25 9V5C20.25 4.58579 20.5858 4.25 21 4.25ZM11.5309 10.3444C11.893 10.5455 12.0234 11.0021 11.8223 11.3642L10.7746 13.25H13.5C13.7657 13.25 14.0116 13.3906 14.1464 13.6197C14.2812 13.8487 14.2847 14.1319 14.1556 14.3642L12.489 17.3642C12.2878 17.7263 11.8312 17.8568 11.4691 17.6556C11.107 17.4545 10.9766 16.9979 11.1777 16.6358L12.2254 14.75H9.5C9.23426 14.75 8.98836 14.6094 8.8536 14.3803C8.71883 14.1513 8.71533 13.8681 8.84438 13.6358L10.511 10.6358C10.7122 10.2737 11.1688 10.1432 11.5309 10.3444Z" fill="black"/>
</g>
</g>
</g>
<defs>
<clipPath id="clip0_232_15844">
<rect width="24" height="24" rx="5" fill="white"/>
</clipPath>
</defs>
</svg>
