<svg width="24" height="24" viewBox="0 0 24 24" fill="none" xmlns="http://www.w3.org/2000/svg">
<g id="ev-tag">
<g clip-path="url(#clip0_232_15888)">
<g id="Weight=Dynamic">
<path id="Vector (Stroke)" fill-rule="evenodd" clip-rule="evenodd" d="M8 3.75C5.10051 3.75 2.75 6.10051 2.75 9V15C2.75 17.8995 5.10051 20.25 8 20.25H16C18.8995 20.25 21.25 17.8995 21.25 15V9C21.25 6.10051 18.8995 3.75 16 3.75H8ZM1.25 9C1.25 5.27208 4.27208 2.25 8 2.25H16C19.7279 2.25 22.75 5.27208 22.75 9V15C22.75 18.7279 19.7279 21.75 16 21.75H8C4.27208 21.75 1.25 18.7279 1.25 15V9ZM12.1646 8.32918C12.5351 8.14394 12.9856 8.29411 13.1708 8.66459L15.5 13.3229L17.8292 8.66459C18.0144 8.29411 18.4649 8.14394 18.8354 8.32918C19.2059 8.51442 19.3561 8.96493 19.1708 9.33541L16.1708 15.3354C16.0438 15.5895 15.7841 15.75 15.5 15.75C15.2159 15.75 14.9562 15.5895 14.8292 15.3354L11.8292 9.33541C11.6439 8.96493 11.7941 8.51442 12.1646 8.32918ZM5.25 9C5.25 8.58579 5.58579 8.25 6 8.25H10C10.4142 8.25 10.75 8.58579 10.75 9C10.75 9.41421 10.4142 9.75 10 9.75H6.75V11.25H9C9.41421 11.25 9.75 11.5858 9.75 12C9.75 12.4142 9.41421 12.75 9 12.75H6.75V14.25H10C10.4142 14.25 10.75 14.5858 10.75 15C10.75 15.4142 10.4142 15.75 10 15.75H6C5.58579 15.75 5.25 15.4142 5.25 15V9Z" fill="black"/>
</g>
</g>
</g>
<defs>
<clipPath id="clip0_232_15888">
<rect width="24" height="24" rx="5" fill="white"/>
</clipPath>
</defs>
</svg>
