<svg width="24" height="24" viewBox="0 0 24 24" fill="none" xmlns="http://www.w3.org/2000/svg">
<g id="exclude">
<g clip-path="url(#clip0_232_4658)">
<g id="Weight=Dynamic">
<path id="Vector (Stroke)" fill-rule="evenodd" clip-rule="evenodd" d="M3.75 3.75V14.25H8.25V13.5C8.25 13.0858 8.58579 12.75 9 12.75C9.41421 12.75 9.75 13.0858 9.75 13.5V14.25H10.5C10.9142 14.25 11.25 14.5858 11.25 15C11.25 15.4142 10.9142 15.75 10.5 15.75H9.75V20.25H20.25V9.75H15.75V10.5C15.75 10.9142 15.4142 11.25 15 11.25C14.5858 11.25 14.25 10.9142 14.25 10.5V9.75H13.5C13.0858 9.75 12.75 9.41421 12.75 9C12.75 8.58579 13.0858 8.25 13.5 8.25H14.25V3.75H3.75ZM15.75 8.25V3.6C15.75 2.85441 15.1456 2.25 14.4 2.25H3.6C2.85442 2.25 2.25 2.85442 2.25 3.6V14.4C2.25 15.1456 2.85442 15.75 3.6 15.75H8.25V20.4C8.25 21.1456 8.85442 21.75 9.6 21.75H20.4C21.1456 21.75 21.75 21.1456 21.75 20.4V9.6C21.75 8.85442 21.1456 8.25 20.4 8.25H15.75ZM9.75 9.75H10.5C10.9142 9.75 11.25 9.41421 11.25 9C11.25 8.58579 10.9142 8.25 10.5 8.25H9.6C8.85442 8.25 8.25 8.85442 8.25 9.6V10.5C8.25 10.9142 8.58579 11.25 9 11.25C9.41421 11.25 9.75 10.9142 9.75 10.5V9.75ZM15 12.75C15.4142 12.75 15.75 13.0858 15.75 13.5V14.4C15.75 15.1456 15.1456 15.75 14.4 15.75H13.5C13.0858 15.75 12.75 15.4142 12.75 15C12.75 14.5858 13.0858 14.25 13.5 14.25H14.25V13.5C14.25 13.0858 14.5858 12.75 15 12.75Z" fill="black"/>
</g>
</g>
</g>
<defs>
<clipPath id="clip0_232_4658">
<rect width="24" height="24" rx="5" fill="white"/>
</clipPath>
</defs>
</svg>
