<svg width="24" height="24" viewBox="0 0 24 24" fill="none" xmlns="http://www.w3.org/2000/svg">
<g id="expand-lines">
<g clip-path="url(#clip0_232_6763)">
<g id="Weight=Dynamic">
<path id="Vector (Stroke)" fill-rule="evenodd" clip-rule="evenodd" d="M5.25 2C5.25 1.58579 5.58579 1.25 6 1.25H18C18.4142 1.25 18.75 1.58579 18.75 2C18.75 2.41421 18.4142 2.75 18 2.75H6C5.58579 2.75 5.25 2.41421 5.25 2ZM11.4697 4.46967C11.7626 4.17678 12.2374 4.17678 12.5303 4.46967L15.5303 7.46967C15.8232 7.76256 15.8232 8.23744 15.5303 8.53033C15.2374 8.82322 14.7626 8.82322 14.4697 8.53033L12.75 6.81066V10C12.75 10.4142 12.4142 10.75 12 10.75C11.5858 10.75 11.25 10.4142 11.25 10V6.81066L9.53033 8.53033C9.23744 8.82322 8.76256 8.82322 8.46967 8.53033C8.17678 8.23744 8.17678 7.76256 8.46967 7.46967L11.4697 4.46967ZM12 13.25C12.4142 13.25 12.75 13.5858 12.75 14V17.1893L14.4697 15.4697C14.7626 15.1768 15.2374 15.1768 15.5303 15.4697C15.8232 15.7626 15.8232 16.2374 15.5303 16.5303L12.5303 19.5303C12.2374 19.8232 11.7626 19.8232 11.4697 19.5303L8.46967 16.5303C8.17678 16.2374 8.17678 15.7626 8.46967 15.4697C8.76256 15.1768 9.23744 15.1768 9.53033 15.4697L11.25 17.1893V14C11.25 13.5858 11.5858 13.25 12 13.25ZM5.25 22C5.25 21.5858 5.58579 21.25 6 21.25H18C18.4142 21.25 18.75 21.5858 18.75 22C18.75 22.4142 18.4142 22.75 18 22.75H6C5.58579 22.75 5.25 22.4142 5.25 22Z" fill="black"/>
</g>
</g>
</g>
<defs>
<clipPath id="clip0_232_6763">
<rect width="24" height="24" rx="5" fill="white"/>
</clipPath>
</defs>
</svg>
