<svg width="24" height="24" viewBox="0 0 24 24" fill="none" xmlns="http://www.w3.org/2000/svg">
<g id="extrude">
<g clip-path="url(#clip0_232_929)">
<g id="Weight=Dynamic">
<path id="Vector (Stroke)" fill-rule="evenodd" clip-rule="evenodd" d="M11.4697 1.46967C11.7626 1.17678 12.2374 1.17678 12.5303 1.46967L15.0303 3.96967C15.3232 4.26256 15.3232 4.73744 15.0303 5.03033C14.7374 5.32322 14.2626 5.32322 13.9697 5.03033L12.75 3.81066V6.55869L21.0556 11.1729C21.4842 11.411 21.75 11.8628 21.75 12.353L21.75 16.647C21.75 17.1372 21.4842 17.589 21.0556 17.8271L12.6556 22.4937C12.2479 22.7203 11.7521 22.7203 11.3444 22.4937L2.9444 17.8271C2.51582 17.589 2.25002 17.1372 2.25002 16.647L2.25 12.3531C2.25 11.8628 2.5158 11.411 2.94438 11.1729L11.25 6.55871V3.81066L10.0303 5.03033C9.73744 5.32322 9.26257 5.32322 8.96967 5.03033C8.67678 4.73744 8.67678 4.26256 8.96967 3.96967L11.4697 1.46967ZM11.25 8.27464L4.5443 12L12 16.1421L19.4557 12L12.75 8.27463V12C12.75 12.4142 12.4142 12.75 12 12.75C11.5858 12.75 11.25 12.4142 11.25 12V8.27464ZM20.25 13.2747L20.25 16.5587L12.75 20.7254V17.4414L20.25 13.2747ZM11.25 17.4413L3.75 13.2747L3.75002 16.5587L11.25 20.7254V17.4413Z" fill="black"/>
</g>
</g>
</g>
<defs>
<clipPath id="clip0_232_929">
<rect width="24" height="24" rx="5" fill="white"/>
</clipPath>
</defs>
</svg>
