<svg width="24" height="24" viewBox="0 0 24 24" fill="none" xmlns="http://www.w3.org/2000/svg">
<g id="eye-closed">
<g clip-path="url(#clip0_232_1411)">
<g id="Weight=Dynamic">
<path id="Vector (Stroke)" fill-rule="evenodd" clip-rule="evenodd" d="M2.69241 7.316C3.07014 7.14602 3.51415 7.31444 3.68413 7.69217C7.01879 15.1025 16.9816 15.1025 20.3162 7.69217C20.4862 7.31444 20.9302 7.14602 21.308 7.316C21.6857 7.48598 21.8541 7.92998 21.6841 8.30771C20.8177 10.2332 19.5607 11.727 18.0883 12.7893L20.1063 15.5582C20.3503 15.8929 20.2767 16.3621 19.9419 16.606C19.6072 16.85 19.138 16.7764 18.8941 16.4417L16.8074 13.5786C15.5328 14.2413 14.1497 14.6228 12.7502 14.7231V17.4999C12.7502 17.9142 12.4144 18.2499 12.0002 18.2499C11.586 18.2499 11.2502 17.9142 11.2502 17.4999V14.7231C9.85067 14.6228 8.46758 14.2413 7.19297 13.5786L5.10629 16.4417C4.86233 16.7764 4.39319 16.85 4.05845 16.606C3.7237 16.3621 3.65011 15.8929 3.89408 15.5582L5.91212 12.7893C4.43969 11.727 3.1827 10.2332 2.31624 8.30771C2.14627 7.92998 2.31468 7.48598 2.69241 7.316Z" fill="black"/>
</g>
</g>
</g>
<defs>
<clipPath id="clip0_232_1411">
<rect width="24" height="24" rx="5" fill="white"/>
</clipPath>
</defs>
</svg>
