<svg width="24" height="24" viewBox="0 0 24 24" fill="none" xmlns="http://www.w3.org/2000/svg">
<g id="eye">
<g clip-path="url(#clip0_232_1401)">
<g id="Weight=Dynamic">
<path id="Vector (Stroke)" fill-rule="evenodd" clip-rule="evenodd" d="M20.3162 13.3078C16.9816 5.89741 7.01879 5.89741 3.68413 13.3078C3.51415 13.6855 3.07014 13.8539 2.69241 13.6839C2.31468 13.514 2.14627 13.07 2.31624 12.6922C6.18158 4.10259 17.8188 4.10259 21.6841 12.6922C21.8541 13.07 21.6857 13.514 21.308 13.6839C20.9302 13.8539 20.4862 13.6855 20.3162 13.3078ZM8.25019 14C8.25019 11.9289 9.92912 10.25 12.0002 10.25C14.0713 10.25 15.7502 11.9289 15.7502 14C15.7502 16.0711 14.0713 17.75 12.0002 17.75C9.92912 17.75 8.25019 16.0711 8.25019 14ZM12.0002 11.75C10.7575 11.75 9.75019 12.7574 9.75019 14C9.75019 15.2426 10.7575 16.25 12.0002 16.25C13.2428 16.25 14.2502 15.2426 14.2502 14C14.2502 12.7574 13.2428 11.75 12.0002 11.75Z" fill="black"/>
</g>
</g>
</g>
<defs>
<clipPath id="clip0_232_1401">
<rect width="24" height="24" rx="5" fill="white"/>
</clipPath>
</defs>
</svg>
