<svg width="24" height="24" viewBox="0 0 24 24" fill="none" xmlns="http://www.w3.org/2000/svg">
<g id="facetime">
<g clip-path="url(#clip0_232_3108)">
<g id="Weight=Dynamic">
<path id="Vector (Stroke)" fill-rule="evenodd" clip-rule="evenodd" d="M8 2.75C5.10051 2.75 2.75 5.10051 2.75 8V16C2.75 18.8995 5.10051 21.25 8 21.25H16C18.8995 21.25 21.25 18.8995 21.25 16V8C21.25 5.10051 18.8995 2.75 16 2.75H8ZM1.25 8C1.25 4.27208 4.27208 1.25 8 1.25H16C19.7279 1.25 22.75 4.27208 22.75 8V16C22.75 19.7279 19.7279 22.75 16 22.75H8C4.27208 22.75 1.25 19.7279 1.25 16V8ZM8 9.75C7.30964 9.75 6.75 10.3096 6.75 11V13C6.75 13.6904 7.30964 14.25 8 14.25H11C11.6904 14.25 12.25 13.6904 12.25 13V11C12.25 10.3096 11.6904 9.75 11 9.75H8ZM5.25 11C5.25 9.48122 6.48122 8.25 8 8.25H11C12.4372 8.25 13.6169 9.35247 13.7395 10.7578L16.5899 8.62C17.4799 7.95253 18.7499 8.58754 18.7499 9.7V14.3C18.7499 15.4125 17.4799 16.0475 16.5899 15.38L13.7395 13.2422C13.6169 14.6475 12.4372 15.75 11 15.75H8C6.48122 15.75 5.25 14.5188 5.25 13V11ZM17.2499 10L14.5833 12L17.2499 14V10Z" fill="black"/>
</g>
</g>
</g>
<defs>
<clipPath id="clip0_232_3108">
<rect width="24" height="24" rx="5" fill="white"/>
</clipPath>
</defs>
</svg>
