<svg width="24" height="24" viewBox="0 0 24 24" fill="none" xmlns="http://www.w3.org/2000/svg">
<g id="face-id">
<g clip-path="url(#clip0_232_9584)">
<g id="Weight=Dynamic">
<path id="Vector (Stroke)" fill-rule="evenodd" clip-rule="evenodd" d="M2.25 5C2.25 3.48122 3.48122 2.25 5 2.25H7C7.41421 2.25 7.75 2.58579 7.75 3C7.75 3.41421 7.41421 3.75 7 3.75H5C4.30964 3.75 3.75 4.30964 3.75 5V7C3.75 7.41421 3.41421 7.75 3 7.75C2.58579 7.75 2.25 7.41421 2.25 7V5ZM16.25 3C16.25 2.58579 16.5858 2.25 17 2.25H19C20.5188 2.25 21.75 3.48122 21.75 5V7C21.75 7.41421 21.4142 7.75 21 7.75C20.5858 7.75 20.25 7.41421 20.25 7V5C20.25 4.30964 19.6904 3.75 19 3.75H17C16.5858 3.75 16.25 3.41421 16.25 3ZM8 7.25C8.41421 7.25 8.75 7.58579 8.75 8L8.75 10C8.75 10.4142 8.41421 10.75 8 10.75C7.58579 10.75 7.25 10.4142 7.25 10L7.25 8C7.25 7.58579 7.58579 7.25 8 7.25ZM12 7.25C12.4142 7.25 12.75 7.58579 12.75 8V13C12.75 13.4142 12.4142 13.75 12 13.75H11C10.5858 13.75 10.25 13.4142 10.25 13C10.25 12.5858 10.5858 12.25 11 12.25H11.25V8C11.25 7.58579 11.5858 7.25 12 7.25ZM16 7.25C16.4142 7.25 16.75 7.58579 16.75 8V10C16.75 10.4142 16.4142 10.75 16 10.75C15.5858 10.75 15.25 10.4142 15.25 10V8C15.25 7.58579 15.5858 7.25 16 7.25ZM9.52982 15.4692C9.52982 15.4692 9.52982 15.4692 9.52982 15.4692L9.52911 15.4685L9.52687 15.4662L9.52478 15.4642C9.52384 15.4633 9.5239 15.4634 9.52478 15.4642C9.52474 15.4642 9.52481 15.4642 9.52478 15.4642C9.52664 15.4659 9.53197 15.4709 9.54075 15.4785C9.55871 15.4942 9.59097 15.5214 9.6375 15.5562C9.73065 15.6261 9.88004 15.7265 10.0854 15.8292C10.4937 16.0333 11.1296 16.25 12 16.25C12.8704 16.25 13.5063 16.0333 13.9146 15.8292C14.12 15.7265 14.2693 15.6261 14.3625 15.5562C14.409 15.5214 14.4413 15.4942 14.4592 15.4785C14.4682 15.4707 14.4736 15.4657 14.4753 15.4641C14.4762 15.4633 14.4763 15.4632 14.4753 15.4641L14.4731 15.4662L14.4716 15.4678L14.4707 15.4687C14.7636 15.1763 15.2376 15.1769 15.5303 15.4697C15.8232 15.7626 15.8232 16.2374 15.5303 16.5303L15 16C15.5303 16.5303 15.5306 16.5301 15.5303 16.5303L15.5281 16.5326L15.5254 16.5352L15.5189 16.5415L15.5012 16.5584C15.4874 16.5714 15.4693 16.5879 15.447 16.6074C15.4025 16.6464 15.341 16.6974 15.2625 16.7563C15.1057 16.8739 14.88 17.0235 14.5854 17.1708C13.9937 17.4667 13.1296 17.75 12 17.75C10.8704 17.75 10.0063 17.4667 9.41459 17.1708C9.11996 17.0235 8.89435 16.8739 8.7375 16.7563C8.65903 16.6974 8.59754 16.6464 8.553 16.6074C8.53071 16.5879 8.51264 16.5714 8.49876 16.5584L8.48108 16.5415L8.47459 16.5352L8.47194 16.5326L8.47075 16.5314C8.47049 16.5311 8.46967 16.5303 9 16L8.46967 16.5303C8.17678 16.2374 8.17678 15.7626 8.46967 15.4697C8.76072 15.1786 9.23146 15.1768 9.52478 15.4642M9.52911 15.4685L9.52982 15.4692C9.52982 15.4692 9.52982 15.4692 9.52982 15.4692M3 16.25C3.41421 16.25 3.75 16.5858 3.75 17V19C3.75 19.6904 4.30964 20.25 5 20.25H7C7.41421 20.25 7.75 20.5858 7.75 21C7.75 21.4142 7.41421 21.75 7 21.75H5C3.48122 21.75 2.25 20.5188 2.25 19V17C2.25 16.5858 2.58579 16.25 3 16.25ZM21 16.25C21.4142 16.25 21.75 16.5858 21.75 17V19C21.75 20.5188 20.5188 21.75 19 21.75H17C16.5858 21.75 16.25 21.4142 16.25 21C16.25 20.5858 16.5858 20.25 17 20.25H19C19.6904 20.25 20.25 19.6904 20.25 19V17C20.25 16.5858 20.5858 16.25 21 16.25Z" fill="black"/>
</g>
</g>
</g>
<defs>
<clipPath id="clip0_232_9584">
<rect width="24" height="24" rx="5" fill="white"/>
</clipPath>
</defs>
</svg>
