<svg width="24" height="24" viewBox="0 0 24 24" fill="none" xmlns="http://www.w3.org/2000/svg">
<g id="farm">
<g clip-path="url(#clip0_232_17016)">
<g id="Weight=Dynamic">
<path id="Vector (Stroke)" fill-rule="evenodd" clip-rule="evenodd" d="M7.66459 4.32918C7.87574 4.22361 8.12426 4.22361 8.33541 4.32918L14.3354 7.32918C14.5895 7.45622 14.75 7.71592 14.75 8V13.25H22C22.4142 13.25 22.75 13.5858 22.75 14C22.75 14.4142 22.4142 14.75 22 14.75H18.75V16.25H22C22.4142 16.25 22.75 16.5858 22.75 17C22.75 17.4142 22.4142 17.75 22 17.75H18.75V20C18.75 20.4142 18.4142 20.75 18 20.75C17.5858 20.75 17.25 20.4142 17.25 20V17.75H14.75V20C14.75 20.4142 14.4142 20.75 14 20.75H2C1.58579 20.75 1.25 20.4142 1.25 20V8C1.25 7.71592 1.4105 7.45622 1.66459 7.32918L7.66459 4.32918ZM14.75 16.25H17.25V14.75H14.75V16.25ZM13.25 19.25H11.75V13C11.75 12.5858 11.4142 12.25 11 12.25H5C4.58579 12.25 4.25 12.5858 4.25 13V19.25H2.75V8.46353L8 5.83853L13.25 8.46353V19.25ZM5.75 19.25H10.25V13.75H5.75V19.25Z" fill="black"/>
</g>
</g>
</g>
<defs>
<clipPath id="clip0_232_17016">
<rect width="24" height="24" rx="5" fill="white"/>
</clipPath>
</defs>
</svg>
