<svg width="24" height="24" viewBox="0 0 24 24" fill="none" xmlns="http://www.w3.org/2000/svg">
<g id="fast-right-circle">
<g clip-path="url(#clip0_232_11311)">
<g id="Weight=Dynamic">
<path id="Vector (Stroke)" fill-rule="evenodd" clip-rule="evenodd" d="M12 2.75C6.89137 2.75 2.75 6.89137 2.75 12C2.75 17.1086 6.89137 21.25 12 21.25C17.1086 21.25 21.25 17.1086 21.25 12C21.25 6.89137 17.1086 2.75 12 2.75ZM1.25 12C1.25 6.06294 6.06294 1.25 12 1.25C17.9371 1.25 22.75 6.06294 22.75 12C22.75 17.9371 17.9371 22.75 12 22.75C6.06294 22.75 1.25 17.9371 1.25 12ZM7.46967 7.96967C7.76256 7.67678 8.23744 7.67678 8.53033 7.96967L12.0303 11.4697C12.3232 11.7626 12.3232 12.2374 12.0303 12.5303L8.53033 16.0303C8.23744 16.3232 7.76256 16.3232 7.46967 16.0303C7.17678 15.7374 7.17678 15.2626 7.46967 14.9697L10.4393 12L7.46967 9.03033C7.17678 8.73744 7.17678 8.26256 7.46967 7.96967ZM13.4697 7.96967C13.7626 7.67678 14.2374 7.67678 14.5303 7.96967L18.0303 11.4697C18.3232 11.7626 18.3232 12.2374 18.0303 12.5303L14.5303 16.0303C14.2374 16.3232 13.7626 16.3232 13.4697 16.0303C13.1768 15.7374 13.1768 15.2626 13.4697 14.9697L16.4393 12L13.4697 9.03033C13.1768 8.73744 13.1768 8.26256 13.4697 7.96967Z" fill="black"/>
</g>
</g>
</g>
<defs>
<clipPath id="clip0_232_11311">
<rect width="24" height="24" rx="5" fill="white"/>
</clipPath>
</defs>
</svg>
