<svg width="24" height="24" viewBox="0 0 24 24" fill="none" xmlns="http://www.w3.org/2000/svg">
<g id="fast-left-circle">
<g clip-path="url(#clip0_232_11321)">
<g id="Weight=Dynamic">
<path id="Vector (Stroke)" fill-rule="evenodd" clip-rule="evenodd" d="M12 2.75C6.89137 2.75 2.75 6.89137 2.75 12C2.75 17.1086 6.89137 21.25 12 21.25C17.1086 21.25 21.25 17.1086 21.25 12C21.25 6.89137 17.1086 2.75 12 2.75ZM1.25 12C1.25 6.06294 6.06294 1.25 12 1.25C17.9371 1.25 22.75 6.06294 22.75 12C22.75 17.9371 17.9371 22.75 12 22.75C6.06294 22.75 1.25 17.9371 1.25 12ZM11.0303 7.96967C11.3232 8.26256 11.3232 8.73744 11.0303 9.03033L8.06066 12L11.0303 14.9697C11.3232 15.2626 11.3232 15.7374 11.0303 16.0303C10.7374 16.3232 10.2626 16.3232 9.96967 16.0303L6.46967 12.5303C6.17678 12.2374 6.17678 11.7626 6.46967 11.4697L9.96967 7.96967C10.2626 7.67678 10.7374 7.67678 11.0303 7.96967ZM17.0303 7.96967C17.3232 8.26256 17.3232 8.73744 17.0303 9.03033L14.0607 12L17.0303 14.9697C17.3232 15.2626 17.3232 15.7374 17.0303 16.0303C16.7374 16.3232 16.2626 16.3232 15.9697 16.0303L12.4697 12.5303C12.1768 12.2374 12.1768 11.7626 12.4697 11.4697L15.9697 7.96967C16.2626 7.67678 16.7374 7.67678 17.0303 7.96967Z" fill="black"/>
</g>
</g>
</g>
<defs>
<clipPath id="clip0_232_11321">
<rect width="24" height="24" rx="5" fill="white"/>
</clipPath>
</defs>
</svg>
