<svg width="24" height="24" viewBox="0 0 24 24" fill="none" xmlns="http://www.w3.org/2000/svg">
<g id="fast-down-circle">
<g clip-path="url(#clip0_232_11341)">
<g id="Weight=Dynamic">
<path id="Vector (Stroke)" fill-rule="evenodd" clip-rule="evenodd" d="M12 2.75C6.89137 2.75 2.75 6.89137 2.75 12C2.75 17.1086 6.89137 21.25 12 21.25C17.1086 21.25 21.25 17.1086 21.25 12C21.25 6.89137 17.1086 2.75 12 2.75ZM1.25 12C1.25 6.06294 6.06294 1.25 12 1.25C17.9371 1.25 22.75 6.06294 22.75 12C22.75 17.9371 17.9371 22.75 12 22.75C6.06294 22.75 1.25 17.9371 1.25 12ZM7.96967 6.96967C8.26256 6.67678 8.73744 6.67678 9.03033 6.96967L12 9.93934L14.9697 6.96967C15.2626 6.67678 15.7374 6.67678 16.0303 6.96967C16.3232 7.26256 16.3232 7.73744 16.0303 8.03033L12.5303 11.5303C12.2374 11.8232 11.7626 11.8232 11.4697 11.5303L7.96967 8.03033C7.67678 7.73744 7.67678 7.26256 7.96967 6.96967ZM7.96967 12.9697C8.26256 12.6768 8.73744 12.6768 9.03033 12.9697L12 15.9393L14.9697 12.9697C15.2626 12.6768 15.7374 12.6768 16.0303 12.9697C16.3232 13.2626 16.3232 13.7374 16.0303 14.0303L12.5303 17.5303C12.2374 17.8232 11.7626 17.8232 11.4697 17.5303L7.96967 14.0303C7.67678 13.7374 7.67678 13.2626 7.96967 12.9697Z" fill="black"/>
</g>
</g>
</g>
<defs>
<clipPath id="clip0_232_11341">
<rect width="24" height="24" rx="5" fill="white"/>
</clipPath>
</defs>
</svg>
