<svg width="24" height="24" viewBox="0 0 24 24" fill="none" xmlns="http://www.w3.org/2000/svg">
<g id="fast-up-circle">
<g clip-path="url(#clip0_232_11331)">
<g id="Weight=Dynamic">
<path id="Vector (Stroke)" fill-rule="evenodd" clip-rule="evenodd" d="M12 2.75C6.89137 2.75 2.75 6.89137 2.75 12C2.75 17.1086 6.89137 21.25 12 21.25C17.1086 21.25 21.25 17.1086 21.25 12C21.25 6.89137 17.1086 2.75 12 2.75ZM1.25 12C1.25 6.06294 6.06294 1.25 12 1.25C17.9371 1.25 22.75 6.06294 22.75 12C22.75 17.9371 17.9371 22.75 12 22.75C6.06294 22.75 1.25 17.9371 1.25 12ZM7.96967 9.96967L11.4697 6.46967C11.7626 6.17678 12.2374 6.17678 12.5303 6.46967L16.0303 9.96967C16.3232 10.2626 16.3232 10.7374 16.0303 11.0303C15.7374 11.3232 15.2626 11.3232 14.9697 11.0303L12 8.06066L9.03033 11.0303C8.73744 11.3232 8.26256 11.3232 7.96967 11.0303C7.67678 10.7374 7.67678 10.2626 7.96967 9.96967ZM7.96967 15.9697L11.4697 12.4697C11.7626 12.1768 12.2374 12.1768 12.5303 12.4697L16.0303 15.9697C16.3232 16.2626 16.3232 16.7374 16.0303 17.0303C15.7374 17.3232 15.2626 17.3232 14.9697 17.0303L12 14.0607L9.03033 17.0303C8.73744 17.3232 8.26256 17.3232 7.96967 17.0303C7.67678 16.7374 7.67678 16.2626 7.96967 15.9697Z" fill="black"/>
</g>
</g>
</g>
<defs>
<clipPath id="clip0_232_11331">
<rect width="24" height="24" rx="5" fill="white"/>
</clipPath>
</defs>
</svg>
