<svg width="24" height="24" viewBox="0 0 24 24" fill="none" xmlns="http://www.w3.org/2000/svg">
<g id="fast-arrow-down">
<g clip-path="url(#clip0_232_11049)">
<g id="Weight=Dynamic">
<path id="Vector (Stroke)" fill-rule="evenodd" clip-rule="evenodd" d="M5.46967 4.46967C5.76256 4.17678 6.23744 4.17678 6.53033 4.46967L12 9.93934L17.4697 4.46967C17.7626 4.17678 18.2374 4.17678 18.5303 4.46967C18.8232 4.76256 18.8232 5.23744 18.5303 5.53033L12.5303 11.5303C12.2374 11.8232 11.7626 11.8232 11.4697 11.5303L5.46967 5.53033C5.17678 5.23744 5.17678 4.76256 5.46967 4.46967ZM5.46967 12.4697C5.76256 12.1768 6.23744 12.1768 6.53033 12.4697L12 17.9393L17.4697 12.4697C17.7626 12.1768 18.2374 12.1768 18.5303 12.4697C18.8232 12.7626 18.8232 13.2374 18.5303 13.5303L12.5303 19.5303C12.2374 19.8232 11.7626 19.8232 11.4697 19.5303L5.46967 13.5303C5.17678 13.2374 5.17678 12.7626 5.46967 12.4697Z" fill="black"/>
</g>
</g>
</g>
<defs>
<clipPath id="clip0_232_11049">
<rect width="24" height="24" rx="5" fill="white"/>
</clipPath>
</defs>
</svg>
