<svg width="24" height="24" viewBox="0 0 24 24" fill="none" xmlns="http://www.w3.org/2000/svg">
<g id="fast-arrow-up-square">
<g clip-path="url(#clip0_232_11285)">
<g id="Weight=Dynamic">
<path id="Vector (Stroke)" fill-rule="evenodd" clip-rule="evenodd" d="M3.75 3.75V20.25H20.25V3.75H3.75ZM2.25 3.6C2.25 2.85441 2.85442 2.25 3.6 2.25H20.4C21.1456 2.25 21.75 2.85442 21.75 3.6V20.4C21.75 21.1456 21.1456 21.75 20.4 21.75H3.6C2.85442 21.75 2.25 21.1456 2.25 20.4V3.6ZM11.4697 6.46967C11.7626 6.17678 12.2374 6.17678 12.5303 6.46967L16.0303 9.96967C16.3232 10.2626 16.3232 10.7374 16.0303 11.0303C15.7374 11.3232 15.2626 11.3232 14.9697 11.0303L12 8.06066L9.03033 11.0303C8.73744 11.3232 8.26256 11.3232 7.96967 11.0303C7.67678 10.7374 7.67678 10.2626 7.96967 9.96967L11.4697 6.46967ZM7.96967 15.9697L11.4697 12.4697C11.7626 12.1768 12.2374 12.1768 12.5303 12.4697L16.0303 15.9697C16.3232 16.2626 16.3232 16.7374 16.0303 17.0303C15.7374 17.3232 15.2626 17.3232 14.9697 17.0303L12 14.0607L9.03033 17.0303C8.73744 17.3232 8.26256 17.3232 7.96967 17.0303C7.67678 16.7374 7.67678 16.2626 7.96967 15.9697Z" fill="black"/>
</g>
</g>
</g>
<defs>
<clipPath id="clip0_232_11285">
<rect width="24" height="24" rx="5" fill="white"/>
</clipPath>
</defs>
</svg>
