<svg width="24" height="24" viewBox="0 0 24 24" fill="none" xmlns="http://www.w3.org/2000/svg">
<g id="favourite-book">
<g clip-path="url(#clip0_232_2083)">
<g id="Weight=Dynamic">
<path id="Vector (Stroke)" fill-rule="evenodd" clip-rule="evenodd" d="M6 3.75C5.30964 3.75 4.75 4.30964 4.75 5V16.5499C5.12503 16.3581 5.54989 16.25 6 16.25H19.25V3.75H6ZM20.7364 16.8571C20.7453 16.8109 20.75 16.7631 20.75 16.7143V3.6C20.75 2.85442 20.1456 2.25 19.4 2.25H6C4.48122 2.25 3.25 3.48122 3.25 5V19C3.25 20.5188 4.48122 21.75 6 21.75H20C20.4142 21.75 20.75 21.4142 20.75 21C20.75 20.5858 20.4142 20.25 20 20.25H6C5.30964 20.25 4.75 19.6904 4.75 19C4.75 18.3096 5.30964 17.75 6 17.75H20C20.4142 17.75 20.75 17.4142 20.75 17C20.75 16.9511 20.7453 16.9034 20.7364 16.8571ZM13.7221 7.25C13.3148 7.25 12.9248 7.4128 12.6384 7.70159L12.6383 7.70172L12.5323 7.80854C12.3915 7.95045 12.1998 8.03027 11.9999 8.03027C11.8 8.03027 11.6083 7.95046 11.4675 7.80855L11.3615 7.70166L11.893 7.17421L11.3615 7.70166C10.7642 7.0997 9.7912 7.0997 9.19388 7.70166C8.60204 8.29811 8.60204 9.26139 9.19388 9.85784L12.0036 12.6894C12.6253 12.1011 13.2148 11.4924 13.8164 10.8713C14.1404 10.5366 14.468 10.1984 14.8059 9.85784L14.8061 9.85772C15.0905 9.57116 15.25 9.18355 15.25 8.77975C15.25 8.37598 15.0906 7.98838 14.806 7.70177L14.8058 7.70156C14.5194 7.41279 14.1294 7.25 13.7221 7.25ZM12.0003 6.28761C12.5023 5.94028 13.102 5.75 13.7221 5.75C14.5299 5.75 15.3031 6.07289 15.8708 6.64522C16.4346 7.21326 16.75 7.98082 16.75 8.77975C16.75 9.57874 16.4345 10.3464 15.8707 10.9144M12.0003 6.28761C10.8175 5.46699 9.17991 5.58616 8.12912 6.64512C6.95696 7.8264 6.95696 9.7331 8.12912 10.9144L11.0471 13.8551C11.5543 14.3662 12.3827 14.3827 12.9107 13.8956L12.9107 13.8956L12.9147 13.8918C13.6044 13.2461 14.2747 12.5542 14.9288 11.8791C15.2464 11.5512 15.5603 11.2272 15.8706 10.9145" fill="black"/>
</g>
</g>
</g>
<defs>
<clipPath id="clip0_232_2083">
<rect width="24" height="24" rx="5" fill="white"/>
</clipPath>
</defs>
</svg>
