<svg width="24" height="24" viewBox="0 0 24 24" fill="none" xmlns="http://www.w3.org/2000/svg">
<g id="favourite-window">
<g clip-path="url(#clip0_232_15389)">
<g id="Weight=Dynamic">
<path id="Vector (Stroke)" fill-rule="evenodd" clip-rule="evenodd" d="M4 3.75C3.30964 3.75 2.75 4.30964 2.75 5V6.25H21.25V5C21.25 4.30964 20.6904 3.75 20 3.75H4ZM22.75 5C22.75 3.48122 21.5188 2.25 20 2.25H4C2.48122 2.25 1.25 3.48122 1.25 5V19C1.25 20.5188 2.48122 21.75 4 21.75H13C13.4142 21.75 13.75 21.4142 13.75 21C13.75 20.5858 13.4142 20.25 13 20.25H4C3.30964 20.25 2.75 19.6904 2.75 19V7.75H21.25V13C21.25 13.4142 21.5858 13.75 22 13.75C22.4142 13.75 22.75 13.4142 22.75 13V5ZM5.51172 4.44142C5.81961 4.71851 5.84457 5.19273 5.56747 5.50061L5.55747 5.51172C5.28038 5.81961 4.80616 5.84457 4.49828 5.56747C4.19039 5.29038 4.16543 4.81616 4.44253 4.50828L4.45253 4.49717C4.72962 4.18928 5.20384 4.16432 5.51172 4.44142ZM8.51173 4.44142C8.81961 4.71852 8.84456 5.19274 8.56747 5.50062L8.55747 5.51173C8.28037 5.81961 7.80615 5.84456 7.49827 5.56747C7.19039 5.29037 7.16544 4.81615 7.44253 4.50827L7.45253 4.49716C7.72963 4.18928 8.20385 4.16433 8.51173 4.44142ZM11.5117 4.44142C11.8196 4.71852 11.8446 5.19274 11.5675 5.50062L11.5575 5.51173C11.2804 5.81961 10.8062 5.84456 10.4983 5.56747C10.1904 5.29037 10.1654 4.81615 10.4425 4.50827L10.4525 4.49716C10.7296 4.18928 11.2038 4.16433 11.5117 4.44142ZM19.7221 15.75C19.3148 15.75 18.9248 15.9128 18.6384 16.2016L18.5323 16.3085C18.3915 16.4505 18.1998 16.5303 17.9999 16.5303C17.8 16.5303 17.6083 16.4505 17.4675 16.3085L17.3615 16.2017C16.7642 15.5997 15.7912 15.5997 15.1939 16.2017C14.602 16.7981 14.602 17.7614 15.1939 18.3578L18.0036 21.1894C18.6253 20.6011 19.2148 19.9924 19.8163 19.3713C20.1404 19.0366 20.468 18.6984 20.8059 18.3578C21.0904 18.0713 21.25 17.6835 21.25 17.2798C21.25 16.876 21.0906 16.4884 20.806 16.2018C20.5196 15.913 20.1294 15.75 19.7221 15.75ZM18.0003 14.7876C18.5023 14.4403 19.102 14.25 19.7221 14.25C20.5299 14.25 21.3031 14.5729 21.8708 15.1452C22.4346 15.7133 22.75 16.4808 22.75 17.2798C22.75 18.0787 22.4345 18.8464 21.8707 19.4144C21.5603 19.7271 21.2465 20.0511 20.9288 20.3791C20.2747 21.0542 19.6044 21.7461 18.9147 22.3918L18.9107 22.3956C18.3827 22.8827 17.5543 22.8662 17.0471 22.3551L14.1291 19.4144C12.957 18.2331 12.957 16.3264 14.1291 15.1451C15.1799 14.0862 16.8175 13.967 18.0003 14.7876Z" fill="black"/>
</g>
</g>
</g>
<defs>
<clipPath id="clip0_232_15389">
<rect width="24" height="24" rx="5" fill="white"/>
</clipPath>
</defs>
</svg>
