<svg width="24" height="24" viewBox="0 0 24 24" fill="none" xmlns="http://www.w3.org/2000/svg">
<g id="figma">
<g clip-path="url(#clip0_232_4713)">
<g id="Weight=Dynamic">
<path id="Vector (Stroke)" fill-rule="evenodd" clip-rule="evenodd" d="M9 3.75C8.40326 3.75 7.83097 3.98705 7.40901 4.40901C6.98705 4.83097 6.75 5.40326 6.75 6C6.75 6.59674 6.98705 7.16903 7.40901 7.59099C7.83097 8.01295 8.40326 8.25 9 8.25H11.25V3.75H9ZM12.75 3.75V8.25H15C15.2955 8.25 15.5881 8.1918 15.861 8.07873C16.134 7.96566 16.3821 7.79992 16.591 7.59099C16.7999 7.38206 16.9657 7.13402 17.0787 6.86104C17.1918 6.58805 17.25 6.29547 17.25 6C17.25 5.70453 17.1918 5.41195 17.0787 5.13896C16.9657 4.86598 16.7999 4.61794 16.591 4.40901C16.3821 4.20008 16.134 4.03434 15.861 3.92127C15.5881 3.8082 15.2955 3.75 15 3.75H12.75ZM17.25 9C17.3916 8.89377 17.5259 8.7774 17.6517 8.65165C17.9999 8.30343 18.2761 7.89003 18.4645 7.43506C18.653 6.98009 18.75 6.49246 18.75 6C18.75 5.50754 18.653 5.01991 18.4645 4.56494C18.2761 4.10997 17.9999 3.69657 17.6517 3.34835C17.3034 3.00013 16.89 2.72391 16.4351 2.53545C15.9801 2.347 15.4925 2.25 15 2.25H9C8.00544 2.25 7.05161 2.64509 6.34835 3.34835C5.64509 4.05161 5.25 5.00544 5.25 6C5.25 6.99456 5.64509 7.94839 6.34835 8.65165C6.47456 8.77786 6.60884 8.89414 6.74998 9C6.60884 9.10586 6.47456 9.22214 6.34835 9.34835C5.64509 10.0516 5.25 11.0054 5.25 12C5.25 12.9946 5.64509 13.9484 6.34835 14.6516C6.47456 14.7779 6.60884 14.8941 6.74998 15C6.60884 15.1059 6.47456 15.2221 6.34835 15.3483C5.64509 16.0516 5.25 17.0054 5.25 18C5.25 18.9946 5.64509 19.9484 6.34835 20.6517C7.05161 21.3549 8.00544 21.75 9 21.75C9.99456 21.75 10.9484 21.3549 11.6517 20.6517C12.3549 19.9484 12.75 18.9946 12.75 18V15C13.0006 15.1879 13.2743 15.3442 13.5649 15.4645C14.0199 15.653 14.5075 15.75 15 15.75C15.4925 15.75 15.9801 15.653 16.4351 15.4645C16.89 15.2761 17.3034 14.9999 17.6517 14.6516C17.9999 14.3034 18.2761 13.89 18.4645 13.4351C18.653 12.9801 18.75 12.4925 18.75 12C18.75 11.5075 18.653 11.0199 18.4645 10.5649C18.2761 10.11 17.9999 9.69657 17.6517 9.34835C17.5259 9.2226 17.3916 9.10623 17.25 9ZM11.25 14.25V9.75H9C8.40326 9.75 7.83097 9.98705 7.40901 10.409C6.98705 10.831 6.75 11.4033 6.75 12C6.75 12.5967 6.98705 13.169 7.40901 13.591C7.83097 14.0129 8.40326 14.25 9 14.25H11.25ZM11.25 15.75V18C11.25 18.5967 11.0129 19.169 10.591 19.591C10.169 20.0129 9.59674 20.25 9 20.25C8.40326 20.25 7.83097 20.0129 7.40901 19.591C6.98705 19.169 6.75 18.5967 6.75 18C6.75 17.4033 6.98705 16.831 7.40901 16.409C7.83097 15.9871 8.40326 15.75 9 15.75H11.25ZM15 9.75C14.7045 9.75 14.4119 9.8082 14.139 9.92127C13.866 10.0343 13.6179 10.2001 13.409 10.409C13.2001 10.6179 13.0343 10.866 12.9213 11.139C12.8082 11.4119 12.75 11.7045 12.75 12C12.75 12.2955 12.8082 12.5881 12.9213 12.861C13.0343 13.134 13.2001 13.3821 13.409 13.591C13.6179 13.7999 13.866 13.9657 14.139 14.0787C14.4119 14.1918 14.7045 14.25 15 14.25C15.2955 14.25 15.5881 14.1918 15.861 14.0787C16.134 13.9657 16.3821 13.7999 16.591 13.591C16.7999 13.3821 16.9657 13.134 17.0787 12.861C17.1918 12.5881 17.25 12.2955 17.25 12C17.25 11.7045 17.1918 11.4119 17.0787 11.139C16.9657 10.866 16.7999 10.6179 16.591 10.409C16.3821 10.2001 16.134 10.0343 15.861 9.92127C15.5881 9.8082 15.2955 9.75 15 9.75Z" fill="black"/>
</g>
</g>
</g>
<defs>
<clipPath id="clip0_232_4713">
<rect width="24" height="24" rx="5" fill="white"/>
</clipPath>
</defs>
</svg>
