<svg width="24" height="24" viewBox="0 0 24 24" fill="none" xmlns="http://www.w3.org/2000/svg">
<g id="file-not-found">
<g clip-path="url(#clip0_232_12184)">
<g id="Weight=Dynamic">
<path id="Vector (Stroke)" fill-rule="evenodd" clip-rule="evenodd" d="M3.25 3C3.25 2.58579 3.58579 2.25 4 2.25H9C9.41421 2.25 9.75 2.58579 9.75 3C9.75 3.41421 9.41421 3.75 9 3.75H4.75V6C4.75 6.41421 4.41421 6.75 4 6.75C3.58579 6.75 3.25 6.41421 3.25 6V3ZM14.25 3C14.25 2.58579 14.5858 2.25 15 2.25H20C20.4142 2.25 20.75 2.58579 20.75 3V6C20.75 6.41421 20.4142 6.75 20 6.75C19.5858 6.75 19.25 6.41421 19.25 6V3.75H15C14.5858 3.75 14.25 3.41421 14.25 3ZM12 7.25C12.4142 7.25 12.75 7.58579 12.75 8V12C12.75 12.4142 12.4142 12.75 12 12.75C11.5858 12.75 11.25 12.4142 11.25 12V8C11.25 7.58579 11.5858 7.25 12 7.25ZM4 10.25C4.41421 10.25 4.75 10.5858 4.75 11V13C4.75 13.4142 4.41421 13.75 4 13.75C3.58579 13.75 3.25 13.4142 3.25 13V11C3.25 10.5858 3.58579 10.25 4 10.25ZM20 10.25C20.4142 10.25 20.75 10.5858 20.75 11V13C20.75 13.4142 20.4142 13.75 20 13.75C19.5858 13.75 19.25 13.4142 19.25 13V11C19.25 10.5858 19.5858 10.25 20 10.25ZM12.5117 15.4414C12.8196 15.7185 12.8446 16.1927 12.5675 16.5006L12.5575 16.5117C12.2804 16.8196 11.8062 16.8446 11.4983 16.5675C11.1904 16.2904 11.1654 15.8162 11.4425 15.5083L11.4525 15.4972C11.7296 15.1893 12.2038 15.1643 12.5117 15.4414ZM4 17.25C4.41421 17.25 4.75 17.5858 4.75 18V20.25H9C9.41421 20.25 9.75 20.5858 9.75 21C9.75 21.4142 9.41421 21.75 9 21.75H4C3.58579 21.75 3.25 21.4142 3.25 21V18C3.25 17.5858 3.58579 17.25 4 17.25ZM20 17.25C20.4142 17.25 20.75 17.5858 20.75 18V21C20.75 21.4142 20.4142 21.75 20 21.75H15C14.5858 21.75 14.25 21.4142 14.25 21C14.25 20.5858 14.5858 20.25 15 20.25H19.25V18C19.25 17.5858 19.5858 17.25 20 17.25Z" fill="black"/>
</g>
</g>
</g>
<defs>
<clipPath id="clip0_232_12184">
<rect width="24" height="24" rx="5" fill="white"/>
</clipPath>
</defs>
</svg>
