<svg width="24" height="24" viewBox="0 0 24 24" fill="none" xmlns="http://www.w3.org/2000/svg">
<g id="fill-color">
<g clip-path="url(#clip0_232_4326)">
<g id="Weight=Dynamic">
<path id="Vector (Stroke)" fill-rule="evenodd" clip-rule="evenodd" d="M7.76264 1.27729C8.05554 0.984425 8.53039 0.984446 8.82325 1.27734L18.7226 11.1768C18.8632 11.3174 18.9422 11.5082 18.9422 11.7071C18.9422 11.906 18.8632 12.0967 18.7226 12.2374L11.6515 19.3085C10.5776 20.3824 8.8364 20.3824 7.76247 19.3085L2.10562 13.6516C1.03169 12.5777 1.03169 10.8365 2.10562 9.76257L8.6464 3.22178L7.7626 2.3379C7.46973 2.04501 7.46975 1.57016 7.76264 1.27729ZM9.70699 4.28241L3.16622 10.8232C2.67805 11.3113 2.67805 12.1028 3.16622 12.591L8.82308 18.2478C9.31125 18.736 10.1027 18.736 10.5909 18.2478L17.1317 11.7071L9.70699 4.28241ZM20.5287 14.4691L19.999 15L19.4684 14.47C19.7611 14.1771 20.2357 14.1767 20.5287 14.4691ZM19.9999 16.0984C19.7418 16.3877 19.4204 16.7655 19.1002 17.1868C18.7405 17.6601 18.3938 18.1734 18.1394 18.6673C17.879 19.1731 17.7527 19.588 17.7499 19.886C17.7616 21.1345 18.7649 22.1366 19.9997 22.1366C21.2411 22.1366 22.2497 21.128 22.2494 19.8866C22.2494 19.5903 22.1248 19.1753 21.8635 18.6674C21.6097 18.174 21.2628 17.6609 20.9024 17.1877C20.5813 16.766 20.2588 16.3879 19.9999 16.0984ZM23.1973 17.9813C23.4987 18.567 23.7492 19.2361 23.7493 19.8864C23.7497 21.9564 22.0693 23.6365 19.9997 23.6365C17.925 23.6365 16.2649 21.9526 16.25 19.892L16.2499 19.8826C16.2533 19.2339 16.5044 18.5661 16.8059 17.9806C17.1148 17.3807 17.5173 16.7907 17.9061 16.2792C18.2968 15.7651 18.6854 15.315 18.9755 14.9942C19.1209 14.8334 19.2425 14.704 19.3285 14.614C19.3715 14.5691 19.4056 14.5339 19.4294 14.5096L19.4572 14.4813L19.465 14.4735L19.4672 14.4712L19.4684 14.47C19.4686 14.4699 19.4684 14.47 19.999 15C20.5287 14.4691 20.5286 14.469 20.5287 14.4691L20.53 14.4703L20.5322 14.4726L20.54 14.4804L20.5679 14.5087C20.5918 14.5331 20.6261 14.5683 20.6692 14.6133C20.7555 14.7032 20.8775 14.8327 21.0234 14.9936C21.3144 15.3145 21.7041 15.7647 22.0958 16.279C22.4854 16.7907 22.8886 17.381 23.1973 17.9813Z" fill="black"/>
</g>
</g>
</g>
<defs>
<clipPath id="clip0_232_4326">
<rect width="24" height="24" rx="5" fill="white"/>
</clipPath>
</defs>
</svg>
