<svg width="24" height="24" viewBox="0 0 24 24" fill="none" xmlns="http://www.w3.org/2000/svg">
<g id="fillet-3d">
<g clip-path="url(#clip0_232_991)">
<g id="Weight=Dynamic">
<path id="Vector (Stroke)" fill-rule="evenodd" clip-rule="evenodd" d="M16 2.75C15.6494 2.75 15.3021 2.7636 14.9586 2.79029C14.5456 2.82237 14.1848 2.5136 14.1527 2.10063C14.1207 1.68766 14.4294 1.32688 14.8424 1.29479C15.2245 1.26511 15.6106 1.25 16 1.25H16.8C17.2142 1.25 17.55 1.58579 17.55 2C17.55 2.41421 17.2142 2.75 16.8 2.75H16ZM18.45 2C18.45 1.58579 18.7858 1.25 19.2 1.25H20C20.4142 1.25 20.75 1.58579 20.75 2C20.75 2.41421 20.4142 2.75 20 2.75H19.2C18.7858 2.75 18.45 2.41421 18.45 2ZM12.3856 2.45009C12.5135 2.84405 12.2978 3.26713 11.9039 3.39506C11.2393 3.61085 10.5978 3.87778 9.98378 4.19125C9.61487 4.3796 9.16312 4.23322 8.97477 3.86431C8.78642 3.49539 8.9328 3.04364 9.30171 2.85529C9.98548 2.5062 10.7002 2.20883 11.4406 1.96839C11.8346 1.84046 12.2577 2.05613 12.3856 2.45009ZM7.4777 4.86671C7.74686 5.18155 7.70982 5.65498 7.39497 5.92414C6.86722 6.37531 6.37531 6.86722 5.92414 7.39497C5.65498 7.70982 5.18155 7.74686 4.86671 7.4777C4.55186 7.20855 4.51482 6.73512 4.78398 6.42027C5.28591 5.83314 5.83314 5.28591 6.42027 4.78398C6.73512 4.51482 7.20855 4.55186 7.4777 4.86671ZM8.46967 8.46967C8.76256 8.17678 9.23744 8.17678 9.53033 8.46967L10.2303 9.16967C10.5232 9.46256 10.5232 9.93744 10.2303 10.2303C9.93744 10.5232 9.46256 10.5232 9.16967 10.2303L8.46967 9.53033C8.17678 9.23744 8.17678 8.76256 8.46967 8.46967ZM3.86431 8.97477C4.23322 9.16312 4.3796 9.61487 4.19125 9.98378C3.87778 10.5978 3.61085 11.2393 3.39506 11.9039C3.26713 12.2978 2.84405 12.5135 2.45009 12.3856C2.05613 12.2577 1.84046 11.8346 1.96839 11.4406C2.20883 10.7002 2.5062 9.98548 2.85529 9.30171C3.04364 8.9328 3.49539 8.78642 3.86431 8.97477ZM11.2697 11.2697C11.5626 10.9768 12.0374 10.9768 12.3303 11.2697L13.7303 12.6697C14.0232 12.9626 14.0232 13.4374 13.7303 13.7303C13.4374 14.0232 12.9626 14.0232 12.6697 13.7303L11.2697 12.3303C10.9768 12.0374 10.9768 11.5626 11.2697 11.2697ZM2.10063 14.1527C2.5136 14.1848 2.82237 14.5456 2.79029 14.9586C2.7636 15.3021 2.75 15.6494 2.75 16V16.8C2.75 17.2142 2.41421 17.55 2 17.55C1.58579 17.55 1.25 17.2142 1.25 16.8V16C1.25 15.6106 1.26511 15.2245 1.29479 14.8424C1.32688 14.4294 1.68766 14.1207 2.10063 14.1527ZM14.7697 14.7697C15.0626 14.4768 15.5374 14.4768 15.8303 14.7697L16.5303 15.4697C16.8232 15.7626 16.8232 16.2374 16.5303 16.5303C16.2374 16.8232 15.7626 16.8232 15.4697 16.5303L14.7697 15.8303C14.4768 15.5374 14.4768 15.0626 14.7697 14.7697ZM20.8388 16.5535C21.253 16.5535 21.5888 16.8893 21.5888 17.3035V18.0106C21.5888 18.4248 21.253 18.7606 20.8388 18.7606C20.4246 18.7606 20.0888 18.4248 20.0888 18.0106V17.3035C20.0888 16.8893 20.4246 16.5535 20.8388 16.5535ZM17.4697 17.4699C17.7626 17.177 18.2374 17.177 18.5303 17.4699L19.0981 18.0377C19.391 18.3306 19.391 18.8055 19.0981 19.0983C18.8052 19.3912 18.3303 19.3912 18.0374 19.0983L17.4697 18.5306C17.1768 18.2377 17.1768 17.7628 17.4697 17.4699ZM2 18.45C2.41421 18.45 2.75 18.7858 2.75 19.2V20C2.75 20.4142 2.41421 20.75 2 20.75C1.58579 20.75 1.25 20.4142 1.25 20V19.2C1.25 18.7858 1.58579 18.45 2 18.45ZM20.8388 19.3819C21.253 19.3819 21.5888 19.7177 21.5888 20.1319V20.8391C21.5888 21.2533 21.253 21.5891 20.8388 21.5891H20.1317C19.7175 21.5891 19.3817 21.2533 19.3817 20.8391C19.3817 20.6709 19.437 20.5156 19.5305 20.3905C19.4938 20.1611 19.5638 19.9178 19.7407 19.741C19.9176 19.5641 20.1608 19.494 20.3903 19.5308C20.5154 19.4373 20.6706 19.3819 20.8388 19.3819ZM16.5533 20.8391C16.5533 20.4248 16.8891 20.0891 17.3033 20.0891H18.0104C18.4246 20.0891 18.7604 20.4248 18.7604 20.8391C18.7604 21.2533 18.4246 21.5891 18.0104 21.5891H17.3033C16.8891 21.5891 16.5533 21.2533 16.5533 20.8391Z" fill="black"/>
</g>
</g>
</g>
<defs>
<clipPath id="clip0_232_991">
<rect width="24" height="24" rx="5" fill="white"/>
</clipPath>
</defs>
</svg>
