<svg width="24" height="24" viewBox="0 0 24 24" fill="none" xmlns="http://www.w3.org/2000/svg">
<g id="filter-list-circle">
<g clip-path="url(#clip0_232_10945)">
<g id="Weight=Dynamic">
<path id="Vector (Stroke)" fill-rule="evenodd" clip-rule="evenodd" d="M1.25 12C1.25 6.06294 6.06294 1.25 12 1.25C17.9371 1.25 22.75 6.06294 22.75 12C22.75 17.9371 17.9371 22.75 12 22.75C6.06294 22.75 1.25 17.9371 1.25 12ZM12 2.75C6.89137 2.75 2.75 6.89137 2.75 12C2.75 17.1086 6.89137 21.25 12 21.25C17.1086 21.25 21.25 17.1086 21.25 12C21.25 6.89137 17.1086 2.75 12 2.75ZM18.75 9C18.75 9.41421 18.4142 9.75 18 9.75L6 9.75C5.58579 9.75 5.25 9.41421 5.25 9C5.25 8.58579 5.58579 8.25 6 8.25L18 8.25C18.4142 8.25 18.75 8.58579 18.75 9ZM7.25 13C7.25 12.5858 7.58579 12.25 8 12.25L16 12.25C16.4142 12.25 16.75 12.5858 16.75 13C16.75 13.4142 16.4142 13.75 16 13.75L8 13.75C7.58579 13.75 7.25 13.4142 7.25 13ZM14.75 17C14.75 17.4142 14.4142 17.75 14 17.75H10C9.58579 17.75 9.25 17.4142 9.25 17C9.25 16.5858 9.58579 16.25 10 16.25L14 16.25C14.4142 16.25 14.75 16.5858 14.75 17Z" fill="black"/>
</g>
</g>
</g>
<defs>
<clipPath id="clip0_232_10945">
<rect width="24" height="24" rx="5" fill="white"/>
</clipPath>
</defs>
</svg>
