<svg width="24" height="24" viewBox="0 0 24 24" fill="none" xmlns="http://www.w3.org/2000/svg">
<g id="filter-alt">
<g clip-path="url(#clip0_232_11434)">
<g id="Weight=Dynamic">
<path id="Vector (Stroke)" fill-rule="evenodd" clip-rule="evenodd" d="M2.24951 4C2.24951 3.0335 3.03301 2.25 3.99951 2.25H19.9996C20.966 2.25 21.7495 3.0334 21.7496 3.99983L21.7499 6.99993C21.7499 7.2189 21.6542 7.42695 21.488 7.56946L14.8368 13.2701C14.7814 13.3176 14.7495 13.387 14.7495 13.46V19.2192C14.7495 20.0222 14.203 20.7222 13.424 20.917L11.424 21.417C10.3194 21.6931 9.24951 20.8577 9.24951 19.7192V13.4599C9.24951 13.387 9.21762 13.3176 9.16221 13.2701L2.51142 7.56944C2.34518 7.42696 2.24951 7.21894 2.24951 7V4ZM3.99951 3.75C3.86144 3.75 3.74951 3.86193 3.74951 4V6.25H20.2498L20.2496 3.99998C20.2496 3.86191 20.1377 3.75 19.9996 3.75H3.99951ZM18.9724 7.75H5.02696L10.1384 12.1312L9.65031 12.7007L10.1384 12.1312C10.5263 12.4637 10.7495 12.9491 10.7495 13.4599V19.7192C10.7495 19.8819 10.9024 20.0012 11.0601 19.9618L13.0601 19.4618C13.1714 19.4339 13.2495 19.3339 13.2495 19.2192V13.46C13.2495 12.9491 13.4728 12.4637 13.8607 12.1312L18.9724 7.75Z" fill="black"/>
</g>
</g>
</g>
<defs>
<clipPath id="clip0_232_11434">
<rect width="24" height="24" rx="5" fill="white"/>
</clipPath>
</defs>
</svg>
