<svg width="24" height="24" viewBox="0 0 24 24" fill="none" xmlns="http://www.w3.org/2000/svg">
<g id="filter">
<g clip-path="url(#clip0_232_11470)">
<g id="Weight=Dynamic">
<path id="Vector (Stroke)" fill-rule="evenodd" clip-rule="evenodd" d="M2.24951 4C2.24951 3.0335 3.03301 2.25 3.99951 2.25H19.9996C20.9661 2.25 21.7495 3.03336 21.7496 3.99977L21.7499 5.5856C21.7499 6.04982 21.5655 6.49505 21.2373 6.8233L14.8227 13.2374C14.7759 13.2843 14.7495 13.3479 14.7495 13.4142L14.7495 19.7192C14.7495 20.8577 13.6796 21.6931 12.5751 21.417L10.5751 20.917C9.79603 20.7222 9.24951 20.0222 9.24951 19.2192L9.24951 13.4142C9.24951 13.3479 9.22318 13.2843 9.17629 13.2374L2.76207 6.82322C2.43388 6.49503 2.24951 6.04991 2.24951 5.58579V4ZM3.99951 3.75C3.86144 3.75 3.74951 3.86193 3.74951 4V5.58579C3.74951 5.65209 3.77585 5.71568 3.82273 5.76256L10.237 12.1768C10.5651 12.505 10.7495 12.9501 10.7495 13.4142L10.7495 19.2192C10.7495 19.3339 10.8276 19.4339 10.9389 19.4618L12.9389 19.9618C13.0967 20.0012 13.2495 19.8819 13.2495 19.7192L13.2495 13.4142C13.2495 12.9501 13.4339 12.505 13.7621 12.1768L20.1766 5.76261C20.2235 5.71571 20.2499 5.65211 20.2499 5.58579L20.2496 3.99997C20.2496 3.86191 20.1377 3.75 19.9996 3.75H3.99951Z" fill="black"/>
</g>
</g>
</g>
<defs>
<clipPath id="clip0_232_11470">
<rect width="24" height="24" rx="5" fill="white"/>
</clipPath>
</defs>
</svg>
