<svg width="24" height="24" viewBox="0 0 24 24" fill="none" xmlns="http://www.w3.org/2000/svg">
<g id="finder">
<g clip-path="url(#clip0_232_15035)">
<g id="Weight=Dynamic">
<path id="Vector (Stroke)" fill-rule="evenodd" clip-rule="evenodd" d="M9 3.75C6.1005 3.75 3.75 6.10051 3.75 9V15C3.75 17.8995 6.10051 20.25 9 20.25H13.3465C13.3358 20.2269 13.3252 20.2034 13.3146 20.1796C13.0264 19.531 12.7549 18.594 12.5583 17.2289C12.3775 17.2427 12.1914 17.25 12 17.25C10.3243 17.25 9.05695 16.6894 8.20897 16.124C7.78643 15.8423 7.4674 15.5593 7.25092 15.3428C7.14249 15.2344 7.05918 15.1421 7.00087 15.074C6.9717 15.04 6.94872 15.012 6.93193 14.991C6.92353 14.9805 6.91667 14.9717 6.91135 14.9649L6.90452 14.956L6.90197 14.9526L6.90092 14.9512L6.90044 14.9506C6.90022 14.9503 6.9 14.95 7.5 14.5L6.9 14.95C6.65147 14.6186 6.71863 14.1485 7.05 13.9C7.38027 13.6523 7.84834 13.7182 8.09751 14.0467M8.09767 14.0469L8.10323 14.0539C8.10988 14.0622 8.12205 14.0772 8.13975 14.0978C8.1752 14.1392 8.23251 14.2031 8.31158 14.2822C8.4701 14.4407 8.71357 14.6577 9.04103 14.876C9.69305 15.3106 10.6757 15.75 12 15.75C12.1336 15.75 12.2638 15.7455 12.3905 15.737C12.3173 14.8753 12.2694 13.8861 12.2547 12.75H10.5C10.0858 12.75 9.75 12.4142 9.75 12C9.75 7.56013 10.8182 5.10146 12.0702 3.75H9M15.009 3.75001L14.9994 3.75054C14.984 3.75156 14.9545 3.75408 14.9127 3.76004C14.8291 3.77199 14.6976 3.7976 14.534 3.85214C14.2094 3.96034 13.7512 4.18445 13.2803 4.65533C12.4006 5.53505 11.3784 7.38092 11.2611 11.25H13C13.4142 11.25 13.75 11.5858 13.75 12C13.75 13.3437 13.7952 14.4753 13.8703 15.4276C14.3015 15.2701 14.6641 15.0726 14.959 14.876C15.2864 14.6577 15.5299 14.4407 15.6884 14.2822C15.7675 14.2031 15.8248 14.1392 15.8602 14.0978C15.8779 14.0772 15.8901 14.0622 15.8968 14.0539L15.9023 14.0469L15.9014 14.0481L15.9008 14.049L15.9004 14.0495C15.9011 14.0485 15.9018 14.0476 15.9025 14.0467L15.9026 14.0466L15.9026 14.0465C15.9026 14.0466 15.9025 14.0467 15.9023 14.0469L15.9025 14.0467C16.1516 13.7182 16.6197 13.6523 16.95 13.9C17.2814 14.1485 17.3485 14.6186 17.1 14.95L16.5 14.5C17.1 14.95 17.0998 14.9503 17.0996 14.9506L17.0991 14.9512L17.098 14.9526L17.0955 14.956L17.0886 14.9649C17.0859 14.9685 17.0827 14.9726 17.0791 14.9772C17.0757 14.9814 17.0721 14.986 17.0681 14.991C17.0513 15.012 17.0283 15.04 16.9991 15.074C16.9408 15.1421 16.8575 15.2344 16.7491 15.3428C16.5326 15.5593 16.2136 15.8423 15.791 16.124C15.3292 16.4319 14.743 16.7384 14.0343 16.9537C14.2161 18.2457 14.4594 19.062 14.6854 19.5704C14.8844 20.0182 15.0544 20.1917 15.1238 20.2486C17.9661 20.1828 20.25 17.8581 20.25 15V9C20.25 6.10351 17.9044 3.75488 15.009 3.75001ZM8.09767 14.0469L8.09857 14.0481L8.09922 14.049M8.0996 14.0495C8.0996 14.0495 8.0996 14.0495 8.09959 14.0495L8.09928 14.049C8.09939 14.0492 8.09949 14.0493 8.0996 14.0495ZM2.25 9C2.25 5.27208 5.27208 2.25 9 2.25H15C18.7279 2.25 21.75 5.27208 21.75 9V15C21.75 18.7279 18.7279 21.75 15 21.75H9C5.27208 21.75 2.25 18.7279 2.25 15V9ZM7 8.25C7.41421 8.25 7.75 8.58579 7.75 9V11C7.75 11.4142 7.41421 11.75 7 11.75C6.58579 11.75 6.25 11.4142 6.25 11V9C6.25 8.58579 6.58579 8.25 7 8.25ZM17 8.25C17.4142 8.25 17.75 8.58579 17.75 9V11C17.75 11.4142 17.4142 11.75 17 11.75C16.5858 11.75 16.25 11.4142 16.25 11V9C16.25 8.58579 16.5858 8.25 17 8.25Z" fill="black"/>
</g>
</g>
</g>
<defs>
<clipPath id="clip0_232_15035">
<rect width="24" height="24" rx="5" fill="white"/>
</clipPath>
</defs>
</svg>
