<svg width="24" height="24" viewBox="0 0 24 24" fill="none" xmlns="http://www.w3.org/2000/svg">
<g id="fingerprint">
<g clip-path="url(#clip0_232_9384)">
<g id="Weight=Dynamic">
<path id="Vector (Stroke)" fill-rule="evenodd" clip-rule="evenodd" d="M12 2.75C10.303 2.75 8.7277 3.26158 7.41719 4.13881C7.07298 4.36922 6.60715 4.27696 6.37674 3.93274C6.14633 3.58853 6.23859 3.1227 6.58281 2.89229C8.1325 1.85496 9.99674 1.25 12 1.25C16.4461 1.25 20.1953 4.22537 21.3688 8.29206C21.4837 8.69004 21.2541 9.10576 20.8562 9.2206C20.4582 9.33544 20.0425 9.10591 19.9276 8.70794C18.9344 5.26606 15.7601 2.75 12 2.75ZM12 5.75C9.13457 5.75 6.75 8.19992 6.75 11.3V14C6.75 14.4142 6.41421 14.75 6 14.75C5.58579 14.75 5.25 14.4142 5.25 14V11.3C5.25 7.44129 8.23802 4.25 12 4.25C15.762 4.25 18.75 7.44129 18.75 11.3V22C18.75 22.4142 18.4142 22.75 18 22.75C17.5858 22.75 17.25 22.4142 17.25 22V11.3C17.25 8.19992 14.8654 5.75 12 5.75ZM3.76205 7.29287C4.15259 7.4309 4.35728 7.8594 4.21925 8.24993C3.91557 9.10911 3.75 10.0344 3.75 11V22C3.75 22.4142 3.41421 22.75 3 22.75C2.58579 22.75 2.25 22.4142 2.25 22V11C2.25 9.86178 2.44535 8.76756 2.80499 7.75007C2.94302 7.35953 3.37151 7.15484 3.76205 7.29287ZM12 8.75C10.7914 8.75 9.75 9.78961 9.75 11.15V22C9.75 22.4142 9.41421 22.75 9 22.75C8.58579 22.75 8.25 22.4142 8.25 22V11.15C8.25 9.03099 9.89487 7.25 12 7.25C13.0946 7.25 14.0735 7.73791 14.7529 8.50144C15.0282 8.81089 15.0006 9.28496 14.6911 9.5603C14.3817 9.83565 13.9076 9.808 13.6323 9.49856C13.2166 9.0314 12.6359 8.75 12 8.75ZM12 10.25C12.4142 10.25 12.75 10.5858 12.75 11V14C12.75 14.4142 12.4142 14.75 12 14.75C11.5858 14.75 11.25 14.4142 11.25 14V11C11.25 10.5858 11.5858 10.25 12 10.25ZM15 13.25C15.4142 13.25 15.75 13.5858 15.75 14V22C15.75 22.4142 15.4142 22.75 15 22.75C14.5858 22.75 14.25 22.4142 14.25 22V14C14.25 13.5858 14.5858 13.25 15 13.25ZM21 13.25C21.4142 13.25 21.75 13.5858 21.75 14V22C21.75 22.4142 21.4142 22.75 21 22.75C20.5858 22.75 20.25 22.4142 20.25 22V14C20.25 13.5858 20.5858 13.25 21 13.25ZM6 17.25C6.41421 17.25 6.75 17.5858 6.75 18V22C6.75 22.4142 6.41421 22.75 6 22.75C5.58579 22.75 5.25 22.4142 5.25 22V18C5.25 17.5858 5.58579 17.25 6 17.25ZM12 17.75C12.4142 17.75 12.75 18.0858 12.75 18.5V22C12.75 22.4142 12.4142 22.75 12 22.75C11.5858 22.75 11.25 22.4142 11.25 22V18.5C11.25 18.0858 11.5858 17.75 12 17.75Z" fill="black"/>
</g>
</g>
</g>
<defs>
<clipPath id="clip0_232_9384">
<rect width="24" height="24" rx="5" fill="white"/>
</clipPath>
</defs>
</svg>
