<svg width="24" height="24" viewBox="0 0 24 24" fill="none" xmlns="http://www.w3.org/2000/svg">
<g id="fingerprint-window">
<g clip-path="url(#clip0_232_15371)">
<g id="Weight=Dynamic">
<path id="Vector (Stroke)" fill-rule="evenodd" clip-rule="evenodd" d="M4 3.75C3.30964 3.75 2.75 4.30964 2.75 5V6.25H21.25V5C21.25 4.30964 20.6904 3.75 20 3.75H4ZM21.25 7.75V11C21.25 11.4142 21.5858 11.75 22 11.75C22.4142 11.75 22.75 11.4142 22.75 11V5C22.75 3.48122 21.5188 2.25 20 2.25H4C2.48122 2.25 1.25 3.48122 1.25 5V19C1.25 20.5188 2.48122 21.75 4 21.75H9C9.41421 21.75 9.75 21.4142 9.75 21C9.75 20.5858 9.41421 20.25 9 20.25H4C3.30964 20.25 2.75 19.6904 2.75 19V7.75H21.25ZM5.51172 4.44142C5.81961 4.71851 5.84457 5.19273 5.56747 5.50061L5.55747 5.51172C5.28038 5.81961 4.80616 5.84457 4.49828 5.56747C4.19039 5.29038 4.16543 4.81616 4.44253 4.50828L4.45253 4.49717C4.72962 4.18928 5.20384 4.16432 5.51172 4.44142ZM8.51173 4.44142C8.81961 4.71852 8.84456 5.19274 8.56747 5.50062L8.55747 5.51173C8.28037 5.81961 7.80615 5.84456 7.49827 5.56747C7.19039 5.29037 7.16544 4.81615 7.44253 4.50827L7.45253 4.49716C7.72963 4.18928 8.20385 4.16433 8.51173 4.44142ZM11.5117 4.44142C11.8196 4.71852 11.8446 5.19274 11.5675 5.50062L11.5575 5.51173C11.2804 5.81961 10.8062 5.84456 10.4983 5.56747C10.1904 5.29037 10.1654 4.81615 10.4425 4.50827L10.4525 4.49716C10.7296 4.18928 11.2038 4.16433 11.5117 4.44142ZM17 12.75C16.1037 12.75 15.279 12.9859 14.6004 13.3821C14.2427 13.591 13.7834 13.4703 13.5745 13.1126C13.3657 12.7549 13.4863 12.2956 13.844 12.0868C14.7544 11.5552 15.8406 11.25 17 11.25C19.5547 11.25 21.7988 12.7445 22.5166 14.9145C22.6467 15.3077 22.4334 15.732 22.0401 15.8621C21.6469 15.9921 21.2226 15.7788 21.0925 15.3855C20.6066 13.9167 19.0043 12.75 17 12.75ZM12.5662 14.2126C12.9501 14.3681 13.1352 14.8054 12.9796 15.1893C12.8305 15.5574 12.75 15.9513 12.75 16.3615V21C12.75 21.4142 12.4142 21.75 12 21.75C11.5858 21.75 11.25 21.4142 11.25 21V16.3615C11.25 15.7522 11.37 15.1674 11.5894 14.626C11.745 14.2421 12.1823 14.057 12.5662 14.2126ZM17 15.75C16.2547 15.75 15.75 16.2967 15.75 16.8529V17.6471C15.75 18.0613 15.4142 18.3971 15 18.3971C14.5858 18.3971 14.25 18.0613 14.25 17.6471V16.8529C14.25 15.3625 15.5362 14.25 17 14.25C18.4638 14.25 19.75 15.3625 19.75 16.8529V22C19.75 22.4142 19.4142 22.75 19 22.75C18.5858 22.75 18.25 22.4142 18.25 22V16.8529C18.25 16.2967 17.7453 15.75 17 15.75ZM22 17.0654C22.4142 17.0654 22.75 17.4012 22.75 17.8154V21C22.75 21.4142 22.4142 21.75 22 21.75C21.5858 21.75 21.25 21.4142 21.25 21V17.8154C21.25 17.4012 21.5858 17.0654 22 17.0654ZM15 19.0735C15.4142 19.0735 15.75 19.4093 15.75 19.8235V22C15.75 22.4142 15.4142 22.75 15 22.75C14.5858 22.75 14.25 22.4142 14.25 22V19.8235C14.25 19.4093 14.5858 19.0735 15 19.0735Z" fill="black"/>
</g>
</g>
</g>
<defs>
<clipPath id="clip0_232_15371">
<rect width="24" height="24" rx="5" fill="white"/>
</clipPath>
</defs>
</svg>
