<svg width="24" height="24" viewBox="0 0 24 24" fill="none" xmlns="http://www.w3.org/2000/svg">
<g id="fingerprint-xmark-circle">
<g clip-path="url(#clip0_232_9428)">
<g id="Weight=Dynamic">
<path id="Vector (Stroke)" fill-rule="evenodd" clip-rule="evenodd" d="M12 2.75C6.89137 2.75 2.75 6.89137 2.75 12C2.75 17.1086 6.89137 21.25 12 21.25C12.4142 21.25 12.75 21.5858 12.75 22C12.75 22.4142 12.4142 22.75 12 22.75C6.06294 22.75 1.25 17.9371 1.25 12C1.25 6.06294 6.06294 1.25 12 1.25C17.9371 1.25 22.75 6.06294 22.75 12C22.75 13.1223 22.5778 14.2058 22.2577 15.2247C22.1336 15.6199 21.7126 15.8397 21.3175 15.7155C20.9223 15.5914 20.7025 15.1704 20.8267 14.7753C21.1015 13.9001 21.25 12.9681 21.25 12C21.25 6.89137 17.1086 2.75 12 2.75ZM12 7.75C11.1037 7.75 10.279 7.9859 9.6004 8.38213C9.2427 8.59099 8.78341 8.47034 8.57455 8.11264C8.36569 7.75494 8.48634 7.29565 8.84404 7.08679C9.75445 6.5552 10.8406 6.25 12 6.25C14.5547 6.25 16.7988 7.74451 17.5166 9.91445C17.6467 10.3077 17.4334 10.732 17.0401 10.8621C16.6469 10.9921 16.2226 10.7788 16.0925 10.3855C15.6066 8.91672 14.0043 7.75 12 7.75ZM7.56616 9.21258C7.95006 9.36814 8.13517 9.80544 7.97962 10.1893C7.83046 10.5574 7.75 10.9513 7.75 11.3615V16C7.75 16.4142 7.41421 16.75 7 16.75C6.58579 16.75 6.25 16.4142 6.25 16V11.3615C6.25 10.7522 6.37005 10.1674 6.5894 9.62604C6.74495 9.24215 7.18226 9.05703 7.56616 9.21258ZM12 10.75C11.2547 10.75 10.75 11.2967 10.75 11.8529V12.6471C10.75 13.0613 10.4142 13.3971 10 13.3971C9.58579 13.3971 9.25 13.0613 9.25 12.6471V11.8529C9.25 10.3625 10.5362 9.25 12 9.25C13.4638 9.25 14.75 10.3625 14.75 11.8529V17C14.75 17.4142 14.4142 17.75 14 17.75C13.5858 17.75 13.25 17.4142 13.25 17V11.8529C13.25 11.2967 12.7453 10.75 12 10.75ZM17 12.0654C17.4142 12.0654 17.75 12.4012 17.75 12.8154V14C17.75 14.4142 17.4142 14.75 17 14.75C16.5858 14.75 16.25 14.4142 16.25 14V12.8154C16.25 12.4012 16.5858 12.0654 17 12.0654ZM10 14.0735C10.4142 14.0735 10.75 14.4093 10.75 14.8235V17C10.75 17.4142 10.4142 17.75 10 17.75C9.58579 17.75 9.25 17.4142 9.25 17V14.8235C9.25 14.4093 9.58579 14.0735 10 14.0735ZM16.5908 17.591C16.8837 17.2981 17.3585 17.2981 17.6514 17.591L19.2424 19.182L20.8334 17.591C21.1263 17.2981 21.6012 17.2981 21.8941 17.591C22.187 17.8839 22.187 18.3588 21.8941 18.6517L20.3031 20.2427L21.8941 21.8336C22.187 22.1265 22.187 22.6014 21.8941 22.8943C21.6012 23.1872 21.1263 23.1872 20.8334 22.8943L19.2424 21.3033L17.6514 22.8943C17.3585 23.1872 16.8837 23.1872 16.5908 22.8943C16.2979 22.6014 16.2979 22.1265 16.5908 21.8336L18.1818 20.2427L16.5908 18.6517C16.2979 18.3588 16.2979 17.8839 16.5908 17.591Z" fill="black"/>
</g>
</g>
</g>
<defs>
<clipPath id="clip0_232_9428">
<rect width="24" height="24" rx="5" fill="white"/>
</clipPath>
</defs>
</svg>
