<svg width="24" height="24" viewBox="0 0 24 24" fill="none" xmlns="http://www.w3.org/2000/svg">
<g id="fingerprint-circle">
<g clip-path="url(#clip0_232_9406)">
<g id="Weight=Dynamic">
<path id="Vector (Stroke)" fill-rule="evenodd" clip-rule="evenodd" d="M12 2.75C6.89137 2.75 2.75 6.89137 2.75 12C2.75 17.1086 6.89137 21.25 12 21.25C17.1086 21.25 21.25 17.1086 21.25 12C21.25 6.89137 17.1086 2.75 12 2.75ZM1.25 12C1.25 6.06294 6.06294 1.25 12 1.25C17.9371 1.25 22.75 6.06294 22.75 12C22.75 17.9371 17.9371 22.75 12 22.75C6.06294 22.75 1.25 17.9371 1.25 12ZM12 7.75C11.1037 7.75 10.279 7.9859 9.6004 8.38213C9.2427 8.59099 8.78341 8.47034 8.57455 8.11264C8.36569 7.75494 8.48634 7.29565 8.84404 7.08679C9.75445 6.5552 10.8406 6.25 12 6.25C14.5547 6.25 16.7988 7.74451 17.5166 9.91445C17.6467 10.3077 17.4334 10.732 17.0401 10.8621C16.6469 10.9921 16.2226 10.7788 16.0925 10.3855C15.6066 8.91672 14.0043 7.75 12 7.75ZM7.56616 9.21258C7.95006 9.36814 8.13517 9.80544 7.97962 10.1893C7.83046 10.5574 7.75 10.9513 7.75 11.3615V16C7.75 16.4142 7.41421 16.75 7 16.75C6.58579 16.75 6.25 16.4142 6.25 16V11.3615C6.25 10.7522 6.37005 10.1674 6.5894 9.62604C6.74495 9.24215 7.18226 9.05703 7.56616 9.21258ZM12 10.75C11.2547 10.75 10.75 11.2967 10.75 11.8529V12.6471C10.75 13.0613 10.4142 13.3971 10 13.3971C9.58579 13.3971 9.25 13.0613 9.25 12.6471V11.8529C9.25 10.3625 10.5362 9.25 12 9.25C13.4638 9.25 14.75 10.3625 14.75 11.8529V17C14.75 17.4142 14.4142 17.75 14 17.75C13.5858 17.75 13.25 17.4142 13.25 17V11.8529C13.25 11.2967 12.7453 10.75 12 10.75ZM17 12.0654C17.4142 12.0654 17.75 12.4012 17.75 12.8154V16C17.75 16.4142 17.4142 16.75 17 16.75C16.5858 16.75 16.25 16.4142 16.25 16V12.8154C16.25 12.4012 16.5858 12.0654 17 12.0654ZM10 14.0735C10.4142 14.0735 10.75 14.4093 10.75 14.8235V17C10.75 17.4142 10.4142 17.75 10 17.75C9.58579 17.75 9.25 17.4142 9.25 17V14.8235C9.25 14.4093 9.58579 14.0735 10 14.0735Z" fill="black"/>
</g>
</g>
</g>
<defs>
<clipPath id="clip0_232_9406">
<rect width="24" height="24" rx="5" fill="white"/>
</clipPath>
</defs>
</svg>
