<svg width="24" height="24" viewBox="0 0 24 24" fill="none" xmlns="http://www.w3.org/2000/svg">
<g id="fire-flame">
<g clip-path="url(#clip0_232_2156)">
<g id="Weight=Dynamic">
<path id="Vector (Stroke)" fill-rule="evenodd" clip-rule="evenodd" d="M12.4062 2.36953L12 3L11.5938 2.36953C11.8411 2.21016 12.1589 2.21016 12.4062 2.36953ZM12 3.90536C11.7946 4.0481 11.5207 4.24321 11.1992 4.48366C10.4654 5.0324 9.49016 5.81254 8.51798 6.74094C7.54305 7.67197 6.58916 8.73515 5.88331 9.84778C5.17381 10.9662 4.75 12.0792 4.75 13.125C4.75 15.4616 5.4404 17.2184 6.63259 18.392C6.8517 18.6077 7.09093 18.8068 7.35025 18.9881C7.28405 18.6844 7.25 18.355 7.25 18C7.25 14.7977 8.67664 11.9565 10.0758 9.16994C10.1605 9.00131 10.245 8.83288 10.3292 8.66459C10.5003 8.32243 10.9014 8.16387 11.2602 8.29659C11.619 8.42931 11.8204 8.81078 11.7276 9.1819C11.6265 9.58621 11.5633 10.3205 11.5933 11.1527C11.6231 11.9805 11.7424 12.8201 11.9584 13.4411C12.0667 13.7524 12.185 13.9667 12.2945 14.0958C12.397 14.2166 12.4593 14.2281 12.4831 14.2305C12.517 14.234 12.647 14.2334 12.9038 14.0596C13.162 13.8848 13.497 13.568 13.908 13.0395C14.0661 12.8362 14.3176 12.7283 14.5739 12.7536C14.8302 12.779 15.0556 12.9342 15.1708 13.1646C16.3812 15.5854 16.8408 17.6322 16.3732 19.1701C16.741 18.9427 17.0724 18.6823 17.3674 18.392C18.5596 17.2184 19.25 15.4616 19.25 13.125C19.25 12.0792 18.8262 10.9662 18.1167 9.84778C17.4108 8.73515 16.457 7.67197 15.482 6.74094C14.5098 5.81254 13.5346 5.0324 12.8008 4.48366C12.4793 4.24321 12.2054 4.0481 12 3.90536ZM12 21.75C14.6668 21.75 16.8758 20.9807 18.4197 19.461C19.9651 17.9397 20.75 15.7589 20.75 13.125C20.75 11.6856 20.1738 10.2903 19.3833 9.04424C18.5892 7.79244 17.543 6.63504 16.518 5.65614C15.4902 4.67461 14.4654 3.85548 13.6992 3.28243C13.3154 2.99542 12.9949 2.76896 12.7691 2.6135C12.6562 2.53574 12.5669 2.47567 12.5052 2.43459C12.4743 2.41404 12.4502 2.39824 12.4336 2.38735L12.4142 2.3747L12.4088 2.37118L12.4071 2.37012C12.4069 2.36999 12.4062 2.36953 12 3C11.5938 2.36953 11.594 2.36941 11.5938 2.36953L11.5912 2.37118L11.5858 2.3747L11.5664 2.38735C11.5498 2.39824 11.5257 2.41404 11.4948 2.43459C11.4331 2.47567 11.3438 2.53574 11.2309 2.6135C11.0051 2.76896 10.6846 2.99542 10.3008 3.28243C9.53456 3.85548 8.50984 4.67461 7.48202 5.65614C6.45695 6.63504 5.41084 7.79244 4.61669 9.04424C3.82619 10.2903 3.25 11.6856 3.25 13.125C3.25 15.7589 4.03487 17.9397 5.58031 19.461C7.12417 20.9807 9.33321 21.75 12 21.75ZM12 20.25C13.7394 20.25 14.5867 19.6851 14.8946 18.8622C15.1954 18.058 15.1031 16.7532 14.2988 14.8504C14.112 15.0273 13.9275 15.1779 13.7447 15.3017C13.3061 15.5986 12.8267 15.7738 12.3294 15.7226C11.822 15.6704 11.4311 15.3967 11.1508 15.0663C10.8775 14.7442 10.6834 14.3413 10.5416 13.9339C10.3766 13.4595 10.2634 12.9218 10.191 12.3768C9.34897 14.249 8.75 16.0552 8.75 18C8.75 18.9879 9.09551 19.4764 9.56637 19.7679C10.1072 20.1027 10.932 20.25 12 20.25Z" fill="black"/>
</g>
</g>
</g>
<defs>
<clipPath id="clip0_232_2156">
<rect width="24" height="24" rx="5" fill="white"/>
</clipPath>
</defs>
</svg>
