<svg width="24" height="24" viewBox="0 0 24 24" fill="none" xmlns="http://www.w3.org/2000/svg">
<g id="fishing">
<g clip-path="url(#clip0_232_1836)">
<g id="Weight=Dynamic">
<path id="Vector (Stroke)" fill-rule="evenodd" clip-rule="evenodd" d="M16 3.75C15.3096 3.75 14.75 4.30964 14.75 5C14.75 5.69036 15.3096 6.25 16 6.25C16.6904 6.25 17.25 5.69036 17.25 5C17.25 4.30964 16.6904 3.75 16 3.75ZM13.25 5C13.25 3.48122 14.4812 2.25 16 2.25C17.5188 2.25 18.75 3.48122 18.75 5C18.75 6.25878 17.9043 7.32002 16.75 7.64648V17C16.75 18.7327 16.0176 20.0714 14.906 20.9607C13.8135 21.8346 12.3898 22.25 11 22.25C9.61017 22.25 8.18645 21.8346 7.09398 20.9607C5.98244 20.0714 5.25 18.7327 5.25 17V13C5.25 12.6967 5.43273 12.4232 5.71299 12.3071C5.99324 12.191 6.31583 12.2552 6.53033 12.4697L8.53033 14.4697C8.82322 14.7626 8.82322 15.2374 8.53033 15.5303C8.23744 15.8232 7.76256 15.8232 7.46967 15.5303L6.75 14.8107V17C6.75 18.2673 7.26756 19.1786 8.03102 19.7893C8.81355 20.4154 9.88983 20.75 11 20.75C12.1102 20.75 13.1865 20.4154 13.969 19.7893C14.7324 19.1786 15.25 18.2673 15.25 17V7.64648C14.0957 7.32002 13.25 6.25878 13.25 5Z" fill="black"/>
</g>
</g>
</g>
<defs>
<clipPath id="clip0_232_1836">
<rect width="24" height="24" rx="5" fill="white"/>
</clipPath>
</defs>
</svg>
