<svg width="24" height="24" viewBox="0 0 24 24" fill="none" xmlns="http://www.w3.org/2000/svg">
<g id="fish">
<g clip-path="url(#clip0_232_2406)">
<g id="Weight=Dynamic">
<path id="Vector (Stroke)" fill-rule="evenodd" clip-rule="evenodd" d="M8.86202 4.6057C8.99867 4.38459 9.24007 4.25 9.50001 4.25C11.6589 4.25 13.409 4.9248 14.6142 5.59437C15.2175 5.92949 15.6884 6.26555 16.0116 6.52069C16.1136 6.6012 16.2011 6.67384 16.2736 6.73609C16.3799 6.73616 16.5061 6.74047 16.6495 6.75268C17.0839 6.78965 17.6778 6.89924 18.3535 7.18376C19.7205 7.75932 21.3481 9.01906 22.6708 11.6646C22.7434 11.8097 22.7669 11.9745 22.7379 12.1341C22.1932 15.1301 20.5392 16.8025 19.0066 17.7082C18.2492 18.1557 17.5281 18.4131 16.9952 18.5592C16.728 18.6325 16.5058 18.6784 16.3468 18.7064C16.3162 18.7118 16.2879 18.7165 16.262 18.7207L12.3975 21.136C12.1663 21.2805 11.8749 21.2882 11.6364 21.156C11.398 21.0238 11.25 20.7726 11.25 20.5V17.9918C10.059 17.435 8.91488 16.6005 8.03217 15.7178C7.64059 15.3263 7.29024 14.9151 7.00643 14.5022C6.91688 14.6047 6.82119 14.7012 6.72048 14.7918C6.13645 15.3175 5.39391 15.6399 4.71552 15.8434C4.02927 16.0492 3.35333 16.1497 2.85588 16.1994C2.60533 16.2245 2.39567 16.2371 2.24696 16.2435C2.17252 16.2466 2.11309 16.2483 2.07115 16.2491L2.02161 16.2499L2.0072 16.25L2.00269 16.25L2.00112 16.25C2.00086 16.25 2.00001 16.25 2.00001 15.5V16.25C1.75892 16.25 1.53254 16.1341 1.39157 15.9385C1.25061 15.743 1.21226 15.4915 1.28849 15.2628L2.20944 12.5L1.28849 9.73717C1.21226 9.50846 1.25061 9.25704 1.39157 9.06147C1.53254 8.86589 1.75892 8.75 2.00001 8.75V9.5C2.00001 8.75 1.99975 8.75 2.00001 8.75L2.00112 8.75L2.00269 8.75L2.0072 8.75002L2.02161 8.75013L2.07115 8.75088C2.11309 8.75172 2.17252 8.75336 2.24696 8.75655C2.39567 8.76292 2.60533 8.77554 2.85588 8.8006C3.35333 8.85034 4.02927 8.95076 4.71552 9.15663C5.39391 9.36015 6.13645 9.68253 6.72048 10.2082C6.87036 10.343 7.00911 10.4909 7.13307 10.6521C7.48063 10.2666 7.89361 9.90657 8.28664 9.59776C8.74847 9.2349 9.20677 8.92414 9.54756 8.70505C9.6115 8.66395 9.67152 8.62594 9.7269 8.59126C9.71054 8.40278 9.68265 8.15795 9.63521 7.8733C9.5184 7.17242 9.28617 6.24937 8.82919 5.33541C8.71294 5.10292 8.72536 4.82681 8.86202 4.6057ZM11.1643 7.95304C11.5436 7.84509 12.0132 7.75 12.5 7.75C12.9142 7.75 13.25 8.08579 13.25 8.5C13.25 8.91421 12.9142 9.25 12.5 9.25C12.1134 9.25 11.6997 9.34899 11.3622 9.46151C11.1979 9.51628 11.0613 9.57096 10.9673 9.61123C10.9205 9.63129 10.8848 9.64755 10.8621 9.65815L10.8512 9.6633L10.8398 9.66999C10.8166 9.68358 10.7816 9.70425 10.7365 9.73141C10.6462 9.78576 10.5158 9.86585 10.3587 9.96682C10.0432 10.1696 9.62655 10.4526 9.21338 10.7772C8.79578 11.1054 8.40521 11.4579 8.12583 11.7971C7.82688 12.1601 7.75001 12.3942 7.75001 12.5C7.75 12.6832 7.83335 12.9839 8.07473 13.3908C8.30861 13.785 8.65633 14.2207 9.09283 14.6572C9.96913 15.5335 11.1359 16.3466 12.2785 16.8036C12.5633 16.9175 12.75 17.1933 12.75 17.5V19.1468L15.6025 17.364C15.6995 17.3033 15.8091 17.2657 15.9229 17.2539C15.9237 17.2539 15.9245 17.2538 15.9254 17.2537L16 18C15.9254 17.2537 15.9257 17.2537 15.9254 17.2537L15.924 17.2538L15.927 17.2535C15.93 17.2531 15.9345 17.2526 15.9405 17.2518C15.9448 17.2513 15.9498 17.2506 15.9555 17.2498C15.9832 17.2461 16.0276 17.2395 16.0868 17.2291C16.2052 17.2083 16.3814 17.1722 16.5986 17.1126C17.0344 16.9931 17.6258 16.7817 18.2435 16.4168C19.4206 15.7212 20.7179 14.457 21.214 12.1105C20.0633 9.91726 18.7468 8.97688 17.7715 8.56621C17.2597 8.35073 16.8223 8.27281 16.5223 8.24727C16.3722 8.2345 16.2569 8.23488 16.1844 8.23769C16.1482 8.2391 16.1228 8.2411 16.1094 8.24236L16.0988 8.24344C15.8682 8.27409 15.6362 8.19596 15.4711 8.03176C15.471 8.03159 15.4713 8.03193 15.4711 8.03176C15.471 8.03157 15.4703 8.03088 15.4701 8.03069L15.4546 8.01582C15.4402 8.00215 15.4165 7.98006 15.3838 7.95074C15.3185 7.89207 15.2172 7.80467 15.0822 7.69802C14.8116 7.48441 14.4075 7.19547 13.8858 6.90561C13.0697 6.45222 11.9759 6.00203 10.6587 5.82669C10.8899 6.4933 11.0298 7.1166 11.1148 7.6267C11.1339 7.74102 11.1502 7.85005 11.1643 7.95304ZM3.0693 10.3362L3.71152 12.2628C3.76283 12.4168 3.76283 12.5832 3.71152 12.7372L3.0693 14.6638C3.44052 14.6128 3.86536 14.5324 4.28449 14.4066C4.8561 14.2351 5.36356 13.995 5.71703 13.6769C6.04903 13.3781 6.25001 13.0103 6.25001 12.5C6.25001 11.9897 6.04903 11.6219 5.71703 11.3231C5.36356 11.005 4.8561 10.7649 4.28449 10.5934C3.86536 10.4676 3.44052 10.3872 3.0693 10.3362ZM10.834 9.67151C10.8338 9.67163 10.8338 9.67163 10.834 9.67151V9.67151ZM17.5117 11.4414C17.8196 11.7185 17.8446 12.1927 17.5675 12.5006L17.5575 12.5117C17.2804 12.8196 16.8062 12.8446 16.4983 12.5675C16.1904 12.2904 16.1654 11.8162 16.4425 11.5083L16.4525 11.4972C16.7296 11.1893 17.2039 11.1643 17.5117 11.4414Z" fill="black"/>
</g>
</g>
</g>
<defs>
<clipPath id="clip0_232_2406">
<rect width="24" height="24" rx="5" fill="white"/>
</clipPath>
</defs>
</svg>
