<svg width="24" height="24" viewBox="0 0 24 24" fill="none" xmlns="http://www.w3.org/2000/svg">
<g id="flare">
<g clip-path="url(#clip0_232_13186)">
<g id="Weight=Dynamic">
<path id="Polygon (Stroke)" fill-rule="evenodd" clip-rule="evenodd" d="M10.7767 2.34793C11.2615 1.30912 12.7386 1.30912 13.2234 2.34793L16.0643 8.4357L22.1521 11.2767C23.1909 11.7614 23.1909 13.2386 22.1521 13.7233L16.0643 16.5643L13.2234 22.6521C12.7386 23.6909 11.2615 23.6909 10.7767 22.6521L7.93572 16.5643L1.84795 13.7233C0.809146 13.2386 0.809146 11.7614 1.84795 11.2767L7.93572 8.4357L10.7767 2.34793ZM12 3.27353L9.27193 9.11945C9.13782 9.40682 8.90684 9.6378 8.61947 9.7719L2.77355 12.5L8.61947 15.2281C8.90684 15.3622 9.13782 15.5932 9.27193 15.8805L12 21.7265L14.7281 15.8805C14.8622 15.5932 15.0932 15.3622 15.3806 15.2281L21.2265 12.5L15.3806 9.7719C15.0932 9.6378 14.8622 9.40682 14.7281 9.11945L12 3.27353Z" fill="black"/>
</g>
</g>
</g>
<defs>
<clipPath id="clip0_232_13186">
<rect width="24" height="24" rx="5" fill="white"/>
</clipPath>
</defs>
</svg>
