<svg width="24" height="24" viewBox="0 0 24 24" fill="none" xmlns="http://www.w3.org/2000/svg">
<g id="flask">
<g clip-path="url(#clip0_232_13538)">
<g id="Weight=Dynamic">
<path id="Vector (Stroke)" fill-rule="evenodd" clip-rule="evenodd" d="M11.5117 1.44144C11.8196 1.71854 11.8446 2.19276 11.5675 2.50064L11.5575 2.51175C11.2804 2.81963 10.8061 2.84458 10.4983 2.56748C10.1904 2.29039 10.1654 1.81617 10.4425 1.50829L10.4525 1.49718C10.7296 1.1893 11.2039 1.16435 11.5117 1.44144ZM7.25 4.00002C7.25 3.58581 7.58579 3.25002 8 3.25002H16C16.4142 3.25002 16.75 3.58581 16.75 4.00002C16.75 4.41423 16.4142 4.75002 16 4.75002H15.75V10.2602C15.75 10.5586 15.8567 10.8471 16.0509 11.0737L18.8458 14.3343C19.0164 14.4231 19.1486 14.5756 19.2109 14.7602L21.088 16.9502C21.5152 17.4486 21.75 18.0834 21.75 18.7399V19C21.75 20.5188 20.5188 21.75 19 21.75H5C3.48122 21.75 2.25 20.5188 2.25 19V18.7399C2.25 18.0834 2.48483 17.4486 2.91204 16.9502L7.94907 11.0737C8.14326 10.8471 8.25 10.5586 8.25 10.2602V4.75002H8C7.58579 4.75002 7.25 4.41423 7.25 4.00002ZM9.75 4.75002V10.2602C9.75 10.9166 9.51517 11.5514 9.08796 12.0498L7.20209 14.25H16.7979L14.912 12.0498C14.4848 11.5514 14.25 10.9166 14.25 10.2602V4.75002H9.75ZM18.0836 15.75H5.91638L4.05093 17.9264C3.85674 18.1529 3.75 18.4415 3.75 18.7399V19C3.75 19.6904 4.30964 20.25 5 20.25H19C19.6904 20.25 20.25 19.6904 20.25 19V18.7399C20.25 18.4415 20.1433 18.1529 19.9491 17.9264L18.0836 15.75ZM12.5117 8.44144C12.8196 8.71854 12.8446 9.19275 12.5675 9.50063L12.5575 9.51175C12.2804 9.81963 11.8062 9.84458 11.4983 9.56749C11.1904 9.29039 11.1654 8.81617 11.4425 8.50829L11.4525 8.49718C11.7296 8.1893 12.2038 8.16434 12.5117 8.44144Z" fill="black"/>
</g>
</g>
</g>
<defs>
<clipPath id="clip0_232_13538">
<rect width="24" height="24" rx="5" fill="white"/>
</clipPath>
</defs>
</svg>
