<svg width="24" height="24" viewBox="0 0 24 24" fill="none" xmlns="http://www.w3.org/2000/svg">
<g id="flash-off">
<g clip-path="url(#clip0_232_12767)">
<g id="Weight=Dynamic">
<path id="Vector (Stroke)" fill-rule="evenodd" clip-rule="evenodd" d="M13.2319 2.28681C13.5409 2.38727 13.75 2.6752 13.75 3.00005V9.25005H19C19.2821 9.25005 19.5403 9.40834 19.6683 9.65972C19.7963 9.9111 19.7725 10.213 19.6066 10.4412L17.7884 12.9412C17.5447 13.2762 17.0757 13.3502 16.7407 13.1066C16.4057 12.863 16.3316 12.3939 16.5753 12.0589L17.5272 10.7501H13C12.5858 10.7501 12.25 10.4143 12.25 10.0001V5.30644L11.4247 6.44118C11.1811 6.77617 10.712 6.85023 10.3771 6.6066C10.0421 6.36297 9.968 5.89391 10.2116 5.55892L12.3934 2.55892C12.5845 2.2962 12.923 2.18635 13.2319 2.28681ZM3.46967 3.46972C3.76256 3.17683 4.23744 3.17683 4.53033 3.46972L9.23876 8.17815C9.30198 8.2246 9.35581 8.27912 9.39986 8.33925L20.5303 19.4697C20.8232 19.7626 20.8232 20.2375 20.5303 20.5304C20.2374 20.8233 19.7626 20.8233 19.4697 20.5304L15.3008 16.3615L11.6066 21.4412C11.4155 21.7039 11.077 21.8137 10.7681 21.7133C10.4591 21.6128 10.25 21.3249 10.25 21.0001V14.7501H5C4.71791 14.7501 4.45967 14.5918 4.33166 14.3404C4.20366 14.089 4.22753 13.7871 4.39345 13.5589L7.80598 8.86669L3.46967 4.53038C3.17678 4.23749 3.17678 3.76261 3.46967 3.46972ZM8.87978 9.94049L6.47283 13.2501H11C11.4142 13.2501 11.75 13.5858 11.75 14.0001V18.6937L14.227 15.2877L8.87978 9.94049Z" fill="black"/>
</g>
</g>
</g>
<defs>
<clipPath id="clip0_232_12767">
<rect width="24" height="24" rx="5" fill="white"/>
</clipPath>
</defs>
</svg>
