<svg width="24" height="24" viewBox="0 0 24 24" fill="none" xmlns="http://www.w3.org/2000/svg">
<g id="flash">
<g clip-path="url(#clip0_232_12752)">
<g id="Weight=Dynamic">
<path id="Vector (Stroke)" fill-rule="evenodd" clip-rule="evenodd" d="M13.2319 2.28681C13.5409 2.38727 13.75 2.6752 13.75 3.00005V9.25005H19C19.2821 9.25005 19.5403 9.40834 19.6683 9.65972C19.7963 9.9111 19.7725 10.213 19.6066 10.4412L11.6066 21.4412C11.4155 21.7039 11.077 21.8137 10.7681 21.7133C10.4591 21.6128 10.25 21.3249 10.25 21.0001V14.7501H5C4.71791 14.7501 4.45967 14.5918 4.33167 14.3404C4.20366 14.089 4.22753 13.7871 4.39345 13.5589L12.3935 2.55892C12.5845 2.2962 12.923 2.18635 13.2319 2.28681ZM6.47283 13.2501H11C11.4142 13.2501 11.75 13.5858 11.75 14.0001V18.6937L17.5272 10.7501H13C12.5858 10.7501 12.25 10.4143 12.25 10.0001V5.30644L6.47283 13.2501Z" fill="black"/>
</g>
</g>
</g>
<defs>
<clipPath id="clip0_232_12752">
<rect width="24" height="24" rx="5" fill="white"/>
</clipPath>
</defs>
</svg>
