<svg width="24" height="24" viewBox="0 0 24 24" fill="none" xmlns="http://www.w3.org/2000/svg">
<g id="flip-reverse">
<g clip-path="url(#clip0_232_4582)">
<g id="Weight=Dynamic">
<path id="Vector (Stroke)" fill-rule="evenodd" clip-rule="evenodd" d="M9.66306 3.26789C10.006 3.34429 10.25 3.64857 10.25 3.99995V7.99995C10.25 8.41417 9.91422 8.74995 9.5 8.74995C9.08579 8.74995 8.75 8.41417 8.75 7.99995V7.36701L8.3041 8.31828C8.12829 8.69333 7.68173 8.85485 7.30668 8.67905C6.93162 8.50324 6.7701 8.05668 6.94591 7.68163L8.82091 3.68163C8.97005 3.36346 9.32009 3.1915 9.66306 3.26789ZM14.3369 3.26789C14.6799 3.1915 15.03 3.36346 15.1791 3.68163L22.6791 19.6816C22.788 19.9139 22.7706 20.1858 22.6329 20.4023C22.4953 20.6188 22.2566 20.75 22 20.75H14.5C14.0858 20.75 13.75 20.4142 13.75 20V3.99995C13.75 3.64857 13.994 3.34429 14.3369 3.26789ZM15.25 7.36701V19.25H20.8201L15.25 7.36701ZM6.06833 11.3209C6.44338 11.4967 6.6049 11.9432 6.4291 12.3183L5.4916 14.3183C5.31579 14.6933 4.86923 14.8549 4.49418 14.679C4.11912 14.5032 3.9576 14.0567 4.13341 13.6816L5.07091 11.6816C5.24671 11.3066 5.69327 11.1451 6.06833 11.3209ZM9.5 11.25C9.91422 11.25 10.25 11.5857 10.25 12V14C10.25 14.4142 9.91422 14.75 9.5 14.75C9.08579 14.75 8.75 14.4142 8.75 14V12C8.75 11.5857 9.08579 11.25 9.5 11.25ZM3.25583 17.3209C3.63088 17.4967 3.7924 17.9432 3.6166 18.3183L3.17987 19.25H3.875C4.28922 19.25 4.625 19.5857 4.625 20C4.625 20.4142 4.28922 20.75 3.875 20.75H2C1.74344 20.75 1.50469 20.6188 1.36705 20.4023C1.22942 20.1858 1.21202 19.9139 1.32091 19.6816L2.25841 17.6816C2.43421 17.3066 2.88077 17.1451 3.25583 17.3209ZM9.5 17.25C9.91422 17.25 10.25 17.5857 10.25 18V20C10.25 20.4142 9.91422 20.75 9.5 20.75H7.625C7.21079 20.75 6.875 20.4142 6.875 20C6.875 19.5857 7.21079 19.25 7.625 19.25H8.75V18C8.75 17.5857 9.08579 17.25 9.5 17.25Z" fill="black"/>
</g>
</g>
</g>
<defs>
<clipPath id="clip0_232_4582">
<rect width="24" height="24" rx="5" fill="white"/>
</clipPath>
</defs>
</svg>
