<svg width="24" height="24" viewBox="0 0 24 24" fill="none" xmlns="http://www.w3.org/2000/svg">
<g id="flip">
<g clip-path="url(#clip0_232_4566)">
<g id="Weight=Dynamic">
<path id="Vector (Stroke)" fill-rule="evenodd" clip-rule="evenodd" d="M9.66306 3.26789C10.006 3.34429 10.25 3.64857 10.25 3.99995V20C10.25 20.4142 9.91422 20.75 9.5 20.75H2C1.74344 20.75 1.50469 20.6188 1.36705 20.4023C1.22942 20.1858 1.21202 19.9139 1.32091 19.6816L8.82091 3.68163C8.97005 3.36346 9.32009 3.1915 9.66306 3.26789ZM14.3369 3.26789C14.6799 3.1915 15.03 3.36346 15.1791 3.68163L17.0541 7.68163C17.2299 8.05668 17.0684 8.50324 16.6933 8.67905C16.3183 8.85485 15.8717 8.69333 15.6959 8.31828L15.25 7.36701V7.99995C15.25 8.41417 14.9142 8.74995 14.5 8.74995C14.0858 8.74995 13.75 8.41417 13.75 7.99995V3.99995C13.75 3.64857 13.994 3.34429 14.3369 3.26789ZM3.17987 19.25H8.75V7.36701L3.17987 19.25ZM17.9317 11.3209C18.3067 11.1451 18.7533 11.3066 18.9291 11.6816L19.8666 13.6816C20.0424 14.0567 19.8809 14.5032 19.5058 14.679C19.1308 14.8549 18.6842 14.6933 18.5084 14.3183L17.5709 12.3183C17.3951 11.9432 17.5566 11.4967 17.9317 11.3209ZM14.5 11.25C14.9142 11.25 15.25 11.5857 15.25 12V14C15.25 14.4142 14.9142 14.75 14.5 14.75C14.0858 14.75 13.75 14.4142 13.75 14V12C13.75 11.5857 14.0858 11.25 14.5 11.25ZM20.7442 17.3209C21.1192 17.1451 21.5658 17.3066 21.7416 17.6816L22.6791 19.6816C22.788 19.9139 22.7706 20.1858 22.6329 20.4023C22.4953 20.6188 22.2566 20.75 22 20.75H20.125C19.7108 20.75 19.375 20.4142 19.375 20C19.375 19.5857 19.7108 19.25 20.125 19.25H20.8201L20.3834 18.3183C20.2076 17.9432 20.3691 17.4967 20.7442 17.3209ZM14.5 17.25C14.9142 17.25 15.25 17.5857 15.25 18V19.25H16.375C16.7892 19.25 17.125 19.5857 17.125 20C17.125 20.4142 16.7892 20.75 16.375 20.75H14.5C14.0858 20.75 13.75 20.4142 13.75 20V18C13.75 17.5857 14.0858 17.25 14.5 17.25Z" fill="black"/>
</g>
</g>
</g>
<defs>
<clipPath id="clip0_232_4566">
<rect width="24" height="24" rx="5" fill="white"/>
</clipPath>
</defs>
</svg>
