<svg width="24" height="24" viewBox="0 0 24 24" fill="none" xmlns="http://www.w3.org/2000/svg">
<g id="floppy-disk-arrow-in">
<g clip-path="url(#clip0_232_1513)">
<g id="Weight=Dynamic">
<path id="Vector (Stroke)" fill-rule="evenodd" clip-rule="evenodd" d="M5 3.75C4.30964 3.75 3.75 4.30964 3.75 5V7.5C3.75 7.91421 3.41421 8.25 3 8.25C2.58579 8.25 2.25 7.91421 2.25 7.5V5C2.25 3.48122 3.48122 2.25 5 2.25H16.1716C16.9009 2.25 17.6004 2.53973 18.1161 3.05546L20.9445 5.88388C21.4603 6.39961 21.75 7.09908 21.75 7.82843V19C21.75 20.5188 20.5188 21.75 19 21.75H5C3.48122 21.75 2.25 20.5188 2.25 19V16.5C2.25 16.0858 2.58579 15.75 3 15.75C3.41421 15.75 3.75 16.0858 3.75 16.5V19C3.75 19.6904 4.30964 20.25 5 20.25H5.25V17C5.25 16.5858 5.58579 16.25 6 16.25C6.41421 16.25 6.75 16.5858 6.75 17V20.25H17.25V13.75H15C14.5858 13.75 14.25 13.4142 14.25 13C14.25 12.5858 14.5858 12.25 15 12.25H17.4C18.1456 12.25 18.75 12.8544 18.75 13.6V20.25H19C19.6904 20.25 20.25 19.6904 20.25 19V7.82843C20.25 7.49691 20.1183 7.17896 19.8839 6.94454L17.0555 4.11612C16.9648 4.02544 16.8616 3.95014 16.75 3.89188V8.4C16.75 9.14559 16.1456 9.75 15.4 9.75H13.5C13.0858 9.75 12.75 9.41421 12.75 9C12.75 8.58579 13.0858 8.25 13.5 8.25H15.25V3.75H8.75V6C8.75 6.41421 8.41421 6.75 8 6.75C7.58579 6.75 7.25 6.41421 7.25 6V3.75H5ZM8.46967 8.46967C8.76256 8.17678 9.23744 8.17678 9.53033 8.46967L12.5303 11.4697C12.8232 11.7626 12.8232 12.2374 12.5303 12.5303L9.53033 15.5303C9.23744 15.8232 8.76256 15.8232 8.46967 15.5303C8.17678 15.2374 8.17678 14.7626 8.46967 14.4697L10.1893 12.75H1C0.585786 12.75 0.25 12.4142 0.25 12C0.25 11.5858 0.585786 11.25 1 11.25H10.1893L8.46967 9.53033C8.17678 9.23744 8.17678 8.76256 8.46967 8.46967Z" fill="black"/>
</g>
</g>
</g>
<defs>
<clipPath id="clip0_232_1513">
<rect width="24" height="24" rx="5" fill="white"/>
</clipPath>
</defs>
</svg>
