<svg width="24" height="24" viewBox="0 0 24 24" fill="none" xmlns="http://www.w3.org/2000/svg">
<g id="floppy-disk">
<g clip-path="url(#clip0_232_5927)">
<g id="Weight=Dynamic">
<path id="Vector (Stroke)" fill-rule="evenodd" clip-rule="evenodd" d="M5 3.75C4.30964 3.75 3.75 4.30964 3.75 5V19C3.75 19.6904 4.30964 20.25 5 20.25H5.25V13.6C5.25 12.8544 5.85441 12.25 6.6 12.25H17.4C18.1456 12.25 18.75 12.8544 18.75 13.6V20.25H19C19.6904 20.25 20.25 19.6904 20.25 19V7.82843C20.25 7.49691 20.1183 7.17896 19.8839 6.94454L17.0555 4.11612C16.9648 4.02544 16.8616 3.95014 16.75 3.89188V8.4C16.75 9.14559 16.1456 9.75 15.4 9.75H8.6C7.85442 9.75 7.25 9.14558 7.25 8.4V3.75H5ZM5 2.25C3.48122 2.25 2.25 3.48122 2.25 5V19C2.25 20.5188 3.48122 21.75 5 21.75H19C20.5188 21.75 21.75 20.5188 21.75 19V7.82843C21.75 7.09908 21.4603 6.39961 20.9445 5.88388L18.1161 3.05546C17.6004 2.53973 16.9009 2.25 16.1716 2.25H5ZM8.75 3.75V8.25H15.25V3.75H8.75ZM17.25 20.25V13.75H6.75V20.25H17.25Z" fill="black"/>
</g>
</g>
</g>
<defs>
<clipPath id="clip0_232_5927">
<rect width="24" height="24" rx="5" fill="white"/>
</clipPath>
</defs>
</svg>
