<svg width="24" height="24" viewBox="0 0 24 24" fill="none" xmlns="http://www.w3.org/2000/svg">
<g id="floppy-disk-arrow-out">
<g clip-path="url(#clip0_232_1529)">
<g id="Weight=Dynamic">
<path id="Vector (Stroke)" fill-rule="evenodd" clip-rule="evenodd" d="M5 3.75C4.30964 3.75 3.75 4.30964 3.75 5V6.5C3.75 6.91421 3.41421 7.25 3 7.25C2.58579 7.25 2.25 6.91421 2.25 6.5V5C2.25 3.48122 3.48122 2.25 5 2.25H16.1716C16.9009 2.25 17.6004 2.53973 18.1161 3.05546L20.9445 5.88388C21.4603 6.39961 21.75 7.09908 21.75 7.82843V19C21.75 20.5188 20.5188 21.75 19 21.75H5C3.48122 21.75 2.25 20.5188 2.25 19V17.5C2.25 17.0858 2.58579 16.75 3 16.75C3.41421 16.75 3.75 17.0858 3.75 17.5V19C3.75 19.6904 4.30964 20.25 5 20.25H5.25V17.5C5.25 17.0858 5.58579 16.75 6 16.75C6.41421 16.75 6.75 17.0858 6.75 17.5V20.25H17.25V13.75H15C14.5858 13.75 14.25 13.4142 14.25 13C14.25 12.5858 14.5858 12.25 15 12.25H17.4C18.1456 12.25 18.75 12.8544 18.75 13.6V20.25H19C19.6904 20.25 20.25 19.6904 20.25 19V7.82843C20.25 7.49691 20.1183 7.17896 19.8839 6.94454L17.0555 4.11612C16.9648 4.02544 16.8616 3.95014 16.75 3.89188V8.4C16.75 9.14559 16.1456 9.75 15.4 9.75H8.6C7.85441 9.75 7.25 9.14558 7.25 8.4V3.75H5ZM8.75 3.75V8.25H15.25V3.75H8.75ZM4.53033 8.46967C4.82322 8.76256 4.82322 9.23744 4.53033 9.53033L2.81066 11.25H12C12.4142 11.25 12.75 11.5858 12.75 12C12.75 12.4142 12.4142 12.75 12 12.75H2.81066L4.53033 14.4697C4.82322 14.7626 4.82322 15.2374 4.53033 15.5303C4.23744 15.8232 3.76256 15.8232 3.46967 15.5303L0.46967 12.5303C0.176777 12.2374 0.176777 11.7626 0.46967 11.4697L3.46967 8.46967C3.76256 8.17678 4.23744 8.17678 4.53033 8.46967Z" fill="black"/>
</g>
</g>
</g>
<defs>
<clipPath id="clip0_232_1529">
<rect width="24" height="24" rx="5" fill="white"/>
</clipPath>
</defs>
</svg>
