<svg width="24" height="24" viewBox="0 0 24 24" fill="none" xmlns="http://www.w3.org/2000/svg">
<g id="flower">
<g clip-path="url(#clip0_232_2004)">
<g id="Weight=Dynamic" clip-path="url(#clip1_232_2004)">
<path id="Vector (Stroke)" fill-rule="evenodd" clip-rule="evenodd" d="M12.5305 0.46967L12.0002 1L11.4699 0.46967C11.7627 0.176777 12.2376 0.176777 12.5305 0.46967ZM14.7394 5.38704C14.7464 5.25868 14.7502 5.12952 14.7502 5C14.7502 3.77456 14.1491 2.62133 13.6242 1.83397C13.3536 1.4281 13.0842 1.09135 12.8821 0.855656C12.7808 0.737417 12.6955 0.643583 12.6344 0.578105C12.6038 0.545341 12.5792 0.519603 12.5616 0.501383L12.5405 0.479728L12.5341 0.473227L12.5319 0.471078L12.5305 0.46967C12.5304 0.469525 12.5305 0.46967 12.0002 1C11.4699 0.46967 11.47 0.469525 11.4699 0.46967L11.4684 0.471078L11.4663 0.473227L11.4599 0.479728L11.4388 0.501383C11.4211 0.519603 11.3965 0.545341 11.366 0.578105C11.3048 0.643583 11.2196 0.737417 11.1182 0.855656C10.9162 1.09135 10.6467 1.4281 10.3761 1.83397C9.85124 2.62133 9.25018 3.77456 9.25018 5C9.25018 5.12952 9.25392 5.25868 9.26093 5.38704C9.17517 5.29136 9.08653 5.19744 8.99498 5.1059C8.12847 4.23939 6.888 3.84894 5.96009 3.66336C5.48176 3.56769 5.05309 3.52013 4.74358 3.49632C4.5883 3.48438 4.46167 3.47831 4.37216 3.47522C4.32737 3.47368 4.29177 3.47288 4.26642 3.47246L4.23617 3.47208L4.22703 3.47203L4.224 3.47202L4.22288 3.47202C4.22267 3.47202 4.22201 3.47202 4.22201 4.22202L4.22288 3.47202C4.02397 3.47202 3.83234 3.55103 3.69168 3.69169C3.55103 3.83234 3.47201 4.0231 3.47201 4.22202H4.22201C3.47201 4.22202 3.47201 4.22181 3.47201 4.22202L3.47202 4.22401L3.47202 4.22704L3.47208 4.23617L3.47246 4.26642C3.47288 4.29177 3.47368 4.32737 3.47522 4.37216C3.47831 4.46167 3.48438 4.58831 3.49632 4.74358C3.52013 5.05309 3.56769 5.48177 3.66335 5.96009C3.84894 6.888 4.23938 8.12847 5.1059 8.99499C5.19736 9.08645 5.29121 9.17503 5.3868 9.26073C5.25858 9.25373 5.12956 9.25 5.00018 9.25C3.77475 9.25 2.62151 9.85106 1.83416 10.376C1.42828 10.6465 1.09153 10.916 0.855839 11.1181C0.7376 11.2194 0.643766 11.3047 0.578288 11.3658C0.545524 11.3964 0.519786 11.421 0.501566 11.4386L0.479911 11.4597L0.47341 11.4661L0.471261 11.4683L0.470464 11.4691C0.470319 11.4692 0.469853 11.4697 1.00018 12L0.470464 11.4691C0.177571 11.762 0.17696 12.2374 0.469853 12.5303L1.00018 12C0.469853 12.5303 0.469708 12.5302 0.469853 12.5303L0.471261 12.5317L0.47341 12.5339L0.479911 12.5403L0.501566 12.5614C0.519786 12.579 0.545524 12.6036 0.578288 12.6342C0.643766 12.6953 0.7376 12.7806 0.855839 12.8819C1.09153 13.084 1.42828 13.3535 1.83416 13.624C2.62151 14.1489 3.77475 14.75 5.00018 14.75C5.12962 14.75 5.25869 14.7463 5.38696 14.7393C5.29129 14.825 5.19738 14.9137 5.10584 15.0052C4.23933 15.8717 3.84888 17.1122 3.6633 18.0401C3.56763 18.5184 3.52007 18.9471 3.49626 19.2566C3.48432 19.4119 3.47825 19.5385 3.47516 19.628C3.47362 19.6728 3.47282 19.7084 3.4724 19.7338L3.47202 19.764L3.47197 19.7731L3.47196 19.7762L3.47196 19.7773C3.47196 19.7775 3.47196 19.7782 4.22196 19.7782L3.47196 19.7773C3.47196 20.1915 3.80774 20.5282 4.22196 20.5282V19.7782C4.22196 20.5282 4.22175 20.5282 4.22196 20.5282L4.22394 20.5282L4.22698 20.5282L4.23611 20.5281L4.26636 20.5277C4.29171 20.5273 4.32731 20.5265 4.3721 20.525C4.46161 20.5219 4.58824 20.5158 4.74352 20.5039C5.05303 20.4801 5.4817 20.4325 5.96003 20.3368C6.88794 20.1512 8.12841 19.7608 8.99493 18.8943C9.08648 18.8027 9.17515 18.7088 9.26093 18.6131C9.25392 18.7414 9.25018 18.8705 9.25018 19C9.25018 20.2254 9.85124 21.3787 10.3761 22.166C10.6467 22.5719 10.9162 22.9086 11.1182 23.1443C11.2196 23.2626 11.3048 23.3564 11.366 23.4219C11.3965 23.4547 11.4211 23.4804 11.4388 23.4986L11.4599 23.5203L11.4663 23.5268L11.4692 23.5297C11.4694 23.5299 11.4699 23.5303 12.0002 23L11.4692 23.5297C11.7621 23.8226 12.2376 23.8232 12.5305 23.5303L12.0002 23C12.5305 23.5303 12.5304 23.5305 12.5305 23.5303L12.5341 23.5268L12.5405 23.5203L12.5616 23.4986C12.5792 23.4804 12.6038 23.4547 12.6344 23.4219C12.6955 23.3564 12.7808 23.2626 12.8821 23.1443C13.0842 22.9086 13.3536 22.5719 13.6242 22.166C14.1491 21.3787 14.7502 20.2254 14.7502 19C14.7502 18.8705 14.7464 18.7414 14.7394 18.6131C14.8252 18.7088 14.9139 18.8027 15.0054 18.8943C15.872 19.7608 17.1124 20.1512 18.0403 20.3368C18.5187 20.4325 18.9473 20.4801 19.2568 20.5039C19.4121 20.5158 19.5388 20.5219 19.6283 20.525C19.6731 20.5265 19.7087 20.5273 19.734 20.5277L19.7643 20.5281L19.7734 20.5282L19.7764 20.5282L19.7775 20.5282C19.7778 20.5282 19.7784 20.5282 19.7784 19.7782L19.7775 20.5282C20.1918 20.5282 20.5284 20.1924 20.5284 19.7782H19.7784C20.5284 19.7782 20.5284 19.7784 20.5284 19.7782L20.5284 19.7762L20.5284 19.7731L20.5283 19.764L20.528 19.7338C20.5275 19.7084 20.5267 19.6728 20.5252 19.628C20.5221 19.5385 20.516 19.4119 20.5041 19.2566C20.4803 18.9471 20.4327 18.5184 20.3371 18.0401C20.1515 17.1122 19.761 15.8717 18.8945 15.0052C18.803 14.9137 18.7091 14.825 18.6134 14.7393C18.7417 14.7463 18.8707 14.75 19.0002 14.75C20.2256 14.75 21.3789 14.1489 22.1662 13.624C22.5721 13.3535 22.9088 13.084 23.1445 12.8819C23.2628 12.7806 23.3566 12.6953 23.4221 12.6342C23.4548 12.6036 23.4806 12.579 23.4988 12.5614L23.5205 12.5403L23.527 12.5339L23.5299 12.5309C23.53 12.5308 23.5305 12.5303 23.0002 12L23.5299 12.5309C23.8228 12.238 23.8234 11.7626 23.5305 11.4697L23.0002 12C23.5305 11.4697 23.5307 11.4698 23.5305 11.4697L23.527 11.4661L23.5205 11.4597L23.4988 11.4386C23.4806 11.421 23.4548 11.3964 23.4221 11.3658C23.3566 11.3047 23.2628 11.2194 23.1445 11.1181C22.9088 10.916 22.5721 10.6465 22.1662 10.376C21.3789 9.85106 20.2256 9.25 19.0002 9.25C18.8708 9.25 18.7418 9.25373 18.6136 9.26073C18.7092 9.17503 18.803 9.08645 18.8945 8.99499C19.761 8.12847 20.1514 6.888 20.337 5.96009C20.4327 5.48177 20.4802 5.05309 20.504 4.74358C20.516 4.58831 20.5221 4.46167 20.5251 4.37216C20.5267 4.32737 20.5275 4.29177 20.5279 4.26642L20.5283 4.23617L20.5283 4.22704L20.5284 4.22401L20.5284 4.22288C20.5284 4.22268 20.5284 4.22202 19.7784 4.22202L20.5284 4.22288C20.5284 3.80867 20.1926 3.47202 19.7784 3.47202V4.22202C19.7784 3.47202 19.7786 3.47202 19.7784 3.47202L19.7764 3.47202L19.7733 3.47203L19.7642 3.47208L19.7339 3.47246C19.7086 3.47288 19.673 3.47368 19.6282 3.47522C19.5387 3.47831 19.4121 3.48438 19.2568 3.49632C18.9473 3.52013 18.5186 3.56769 18.0403 3.66336C17.1124 3.84894 15.8719 4.23939 15.0054 5.1059C14.9138 5.19744 14.8252 5.29136 14.7394 5.38704ZM12.5002 8.28261C12.5828 8.08527 12.6857 7.82178 12.7887 7.51283C13.0262 6.80026 13.2502 5.88656 13.2502 5C13.2502 4.22544 12.8512 3.37867 12.3761 2.66603C12.2477 2.47342 12.119 2.29832 12.0002 2.14608C11.8814 2.29832 11.7526 2.47342 11.6242 2.66603C11.1491 3.37867 10.7502 4.22544 10.7502 5C10.7502 5.88656 10.9742 6.80026 11.2117 7.51283C11.3147 7.82174 11.4176 8.08519 11.5001 8.28251C11.6636 8.26075 11.8304 8.24951 11.9998 8.24951C12.1695 8.24951 12.3365 8.26078 12.5002 8.28261ZM9.72512 9.01795C9.45916 9.22117 9.22119 9.45916 9.01801 9.72514C8.82009 9.644 8.56101 9.53046 8.26973 9.38483C7.59792 9.04892 6.79345 8.56122 6.16656 7.93433C5.61886 7.38663 5.3022 6.50578 5.13423 5.66592C5.08883 5.43893 5.05605 5.22408 5.03241 5.03241C5.22407 5.05605 5.43893 5.08883 5.66592 5.13423C6.50578 5.3022 7.38662 5.61886 7.93432 6.16656C8.56122 6.79345 9.04892 7.59792 9.38482 8.26974C9.53045 8.56098 9.64397 8.82004 9.72512 9.01795ZM8.28279 11.5C8.26104 11.6634 8.24982 11.8301 8.24982 11.9995C8.24982 12.1692 8.26109 12.3362 8.28292 12.5C8.08557 12.5825 7.82204 12.6855 7.51301 12.7885C6.80045 13.026 5.88674 13.25 5.00018 13.25C4.22562 13.25 3.37885 12.8511 2.66621 12.376C2.4736 12.2476 2.2985 12.1188 2.14626 12C2.2985 11.8812 2.4736 11.7524 2.66621 11.624C3.37885 11.1489 4.22562 10.75 5.00018 10.75C5.88674 10.75 6.80045 10.974 7.51301 11.2115C7.82197 11.3145 8.08546 11.4174 8.28279 11.5ZM9.01867 14.2747C9.22179 14.5405 9.45964 14.7783 9.72544 14.9813C9.64426 15.1793 9.53062 15.4387 9.38477 15.7304C9.04886 16.4023 8.56116 17.2067 7.93427 17.8336C7.38657 18.3813 6.50572 18.698 5.66586 18.866C5.43887 18.9114 5.22402 18.9441 5.03235 18.9678C5.05599 18.7761 5.08877 18.5613 5.13417 18.3343C5.30214 17.4944 5.6188 16.6136 6.1665 16.0659C6.79339 15.439 7.59786 14.9513 8.26968 14.6154C8.5613 14.4695 8.82066 14.3559 9.01867 14.2747ZM11.5005 15.7166C11.6639 15.7383 11.8305 15.7495 11.9998 15.7495C12.1693 15.7495 12.3362 15.7383 12.4998 15.7165C12.5824 15.9139 12.6855 16.1777 12.7887 16.4872C13.0262 17.1997 13.2502 18.1134 13.2502 19C13.2502 19.7746 12.8512 20.6213 12.3761 21.334C12.2477 21.5266 12.119 21.7017 12.0002 21.8539C11.8814 21.7017 11.7526 21.5266 11.6242 21.334C11.1491 20.6213 10.7502 19.7746 10.7502 19C10.7502 18.1134 10.9742 17.1997 11.2117 16.4872C11.3148 16.1778 11.4179 15.914 11.5005 15.7166ZM14.2748 14.9809C14.3559 15.179 14.4696 15.4385 14.6156 15.7304C14.9515 16.4023 15.4392 17.2067 16.0661 17.8336C16.6138 18.3813 17.4946 18.698 18.3345 18.866C18.5615 18.9114 18.7764 18.9441 18.968 18.9678C18.9444 18.7761 18.9116 18.5613 18.8662 18.3343C18.6982 17.4944 18.3816 16.6136 17.8339 16.0659C17.207 15.439 16.4025 14.9513 15.7307 14.6154C15.4388 14.4694 15.1792 14.3557 14.9811 14.2745C14.7781 14.5402 14.5404 14.7779 14.2748 14.9809ZM15.7167 12.4997C15.7386 12.336 15.7498 12.1691 15.7498 11.9995C15.7498 11.8302 15.7386 11.6636 15.7169 11.5003C15.9143 11.4177 16.178 11.3146 16.4874 11.2115C17.1999 10.974 18.1136 10.75 19.0002 10.75C19.7747 10.75 20.6215 11.1489 21.3342 11.624C21.5268 11.7524 21.7019 11.8812 21.8541 12C21.7019 12.1188 21.5268 12.2476 21.3342 12.376C20.6215 12.8511 19.7747 13.25 19.0002 13.25C18.1136 13.25 17.1999 13.026 16.4874 12.7885C16.178 12.6854 15.9142 12.5823 15.7167 12.4997ZM14.9818 9.72537C14.7787 9.45949 14.5409 9.22156 14.2751 9.01838C14.3562 8.82042 14.4698 8.56119 14.6155 8.26974C14.9514 7.59792 15.4391 6.79345 16.066 6.16656C16.6137 5.61886 17.4946 5.3022 18.3344 5.13423C18.5614 5.08883 18.7763 5.05605 18.968 5.03241C18.9443 5.22408 18.9115 5.43893 18.8661 5.66592C18.6982 6.50578 18.3815 7.38663 17.8338 7.93433C17.2069 8.56122 16.4024 9.04892 15.7306 9.38483C15.4391 9.5306 15.1798 9.64421 14.9818 9.72537ZM12.3292 8.66483C12.1443 9.03524 12.2944 9.48564 12.6648 9.67082C12.7513 9.71408 12.8422 9.73905 12.9331 9.74719C13.0032 9.80587 13.0852 9.85262 13.1772 9.88328C13.5701 10.0142 13.9947 9.80198 14.1258 9.40919M11.9998 9.74951C10.7572 9.74951 9.74982 10.7569 9.74982 11.9995C9.74982 13.2421 10.7572 14.2495 11.9998 14.2495C13.2425 14.2495 14.2498 13.2421 14.2498 11.9995C14.2498 10.7569 13.2425 9.74951 11.9998 9.74951ZM22.4705 12.531C22.4706 12.5311 22.4706 12.5311 22.4705 12.531V12.531Z" fill="black"/>
</g>
</g>
</g>
<defs>
<clipPath id="clip0_232_2004">
<rect width="24" height="24" rx="5" fill="white"/>
</clipPath>
<clipPath id="clip1_232_2004">
<rect width="24" height="24" fill="white"/>
</clipPath>
</defs>
</svg>
