<svg width="24" height="24" viewBox="0 0 24 24" fill="none" xmlns="http://www.w3.org/2000/svg">
<g id="folder-settings">
<g clip-path="url(#clip0_232_6121)">
<g id="Weight=Dynamic">
<path id="Vector (Stroke)" fill-rule="evenodd" clip-rule="evenodd" d="M2.46282 3.25694C2.50815 3.25234 2.55392 3.25 2.6 3.25H2.7343C3.14852 3.25 3.4843 3.58579 3.4843 4C3.4843 4.40909 3.15677 4.74169 2.74963 4.74985C2.73708 5.15307 2.40626 5.47609 2 5.47609C1.58579 5.47609 1.25 5.1403 1.25 4.72609V4.6C1.25 4.55392 1.25234 4.50815 1.25694 4.46282C1.28947 4.14262 1.51891 3.89002 1.81293 3.81293C1.89002 3.51891 2.14262 3.28947 2.46282 3.25694ZM3.77504 4C3.77504 3.58579 4.11083 3.25 4.52504 3.25H4.79365C5.20787 3.25 5.54365 3.58579 5.54365 4C5.54365 4.41421 5.20787 4.75 4.79365 4.75H4.52504C4.11083 4.75 3.77504 4.41421 3.77504 4ZM5.83439 4C5.83439 3.58579 6.17018 3.25 6.58439 3.25H6.853C7.26722 3.25 7.603 3.58579 7.603 4C7.603 4.41421 7.26722 4.75 6.853 4.75H6.58439C6.17018 4.75 5.83439 4.41421 5.83439 4ZM7.89374 4C7.89374 3.58579 8.22953 3.25 8.64374 3.25H8.77805C8.79887 3.25 8.81966 3.25048 8.8404 3.25144C8.9848 3.25812 9.11777 3.3052 9.22889 3.38127C9.36275 3.39583 9.49436 3.44661 9.60834 3.53552C9.6247 3.54828 9.6408 3.56145 9.65661 3.575L9.75975 3.66341C10.0742 3.93298 10.1107 4.40645 9.8411 4.72095C9.57154 5.03544 9.09806 5.07186 8.78357 4.80229L8.72256 4.75H8.64374C8.22953 4.75 7.89374 4.41421 7.89374 4ZM10.0774 4.9235C10.347 4.60901 10.8205 4.57259 11.135 4.84215L11.3412 5.01896C11.6557 5.28853 11.6921 5.762 11.4226 6.0765C11.153 6.39099 10.6795 6.42741 10.365 6.15785L10.1588 5.98104C9.84427 5.71147 9.80785 5.238 10.0774 4.9235ZM2 5.65725C2.41421 5.65725 2.75 5.99303 2.75 6.40725V6.65942C2.75 7.07363 2.41421 7.40942 2 7.40942C1.58579 7.40942 1.25 7.07363 1.25 6.65942V6.40725C1.25 5.99303 1.58579 5.65725 2 5.65725ZM11.6589 6.27905C11.9285 5.96456 12.4019 5.92814 12.7164 6.19771L12.7774 6.25H12.8634C13.2777 6.25 13.6134 6.58579 13.6134 7C13.6134 7.41421 13.2777 7.75 12.8634 7.75H12.722C12.7011 7.75 12.6803 7.74952 12.6596 7.74856C12.5152 7.74189 12.3822 7.6948 12.2711 7.61873C12.1372 7.60417 12.0056 7.55339 11.8917 7.46448C11.8753 7.45171 11.8592 7.43855 11.8434 7.425L11.7402 7.33659C11.4258 7.06702 11.3893 6.59355 11.6589 6.27905ZM14.75 7.75C14.3358 7.75 14 7.41421 14 7C14 6.58579 14.3358 6.25 14.75 6.25H15.033C15.4472 6.25 15.783 6.58579 15.783 7C15.783 7.41421 15.4472 7.75 15.033 7.75H14.75ZM16.9195 7.75C16.5053 7.75 16.1695 7.41421 16.1695 7C16.1695 6.58579 16.5053 6.25 16.9195 6.25H17.2025C17.6167 6.25 17.9525 6.58579 17.9525 7C17.9525 7.41421 17.6167 7.75 17.2025 7.75H16.9195ZM19.089 7.75C18.6748 7.75 18.339 7.41421 18.339 7C18.339 6.58579 18.6748 6.25 19.089 6.25H19.372C19.7862 6.25 20.122 6.58579 20.122 7C20.122 7.41421 19.7862 7.75 19.372 7.75H19.089ZM21.25 7.74995C20.8397 7.74539 20.5085 7.41137 20.5085 7C20.5085 6.58579 20.8443 6.25 21.2585 6.25H21.4C21.4461 6.25 21.4919 6.25234 21.5372 6.25694C21.8574 6.28947 22.11 6.51891 22.1871 6.81293C22.4811 6.89002 22.7105 7.14262 22.7431 7.46282C22.7477 7.50815 22.75 7.55392 22.75 7.6V7.78261C22.75 8.19682 22.4142 8.53261 22 8.53261C21.5858 8.53261 21.25 8.19682 21.25 7.78261V7.74995ZM2 7.59058C2.41421 7.59058 2.75 7.92637 2.75 8.34058V8.59275C2.75 8.91547 2.54617 9.19059 2.26023 9.29638C2.54617 9.40217 2.75 9.67728 2.75 10V10.1533C2.75 10.1736 2.74919 10.1937 2.74761 10.2136C2.74857 10.2256 2.74924 10.2378 2.74963 10.25H2.75326C3.16747 10.25 3.50326 10.5858 3.50326 11C3.50326 11.4142 3.16747 11.75 2.75326 11.75H2.60249C2.69517 11.8748 2.75 12.0294 2.75 12.1967V12.5033C2.75 12.9175 2.41421 13.2533 2 13.2533C1.58579 13.2533 1.25 12.9175 1.25 12.5033V12.1967C1.25 11.8026 1.55398 11.4795 1.94027 11.4491C1.88171 11.3716 1.83802 11.2828 1.81293 11.1871C1.51891 11.11 1.28947 10.8574 1.25694 10.5372C1.25234 10.4919 1.25 10.4461 1.25 10.4V10.2739C1.25 10.2536 1.25081 10.2335 1.25239 10.2136C1.25081 10.1937 1.25 10.1736 1.25 10.1533V10C1.25 9.67728 1.45383 9.40217 1.73977 9.29638C1.45383 9.19059 1.25 8.91547 1.25 8.59275V8.34058C1.25 7.92637 1.58579 7.59058 2 7.59058ZM22 9.25C22.4142 9.25 22.75 9.58579 22.75 10V10.1304C22.75 10.145 22.7496 10.1595 22.7488 10.1739C22.7496 10.1883 22.75 10.2028 22.75 10.2174V10.4C22.75 10.4461 22.7477 10.4919 22.7431 10.5372C22.7132 10.8314 22.5171 11.0685 22.2573 11.1649C22.5448 11.2699 22.75 11.5458 22.75 11.8696V12.1304C22.75 12.5446 22.4142 12.8804 22 12.8804C21.5858 12.8804 21.25 12.5446 21.25 12.1304V11.8696C21.25 11.8289 21.2532 11.7889 21.2595 11.75H21.2467C20.8325 11.75 20.4967 11.4142 20.4967 11C20.4967 10.5858 20.8325 10.25 21.2467 10.25H21.25V10.2174C21.25 10.2028 21.2504 10.1883 21.2512 10.1739C21.2504 10.1595 21.25 10.145 21.25 10.1304V10C21.25 9.58579 21.5858 9.25 22 9.25ZM4.04674 11C4.04674 10.5858 4.38253 10.25 4.79674 10.25H5.10326C5.51747 10.25 5.85326 10.5858 5.85326 11C5.85326 11.4142 5.51747 11.75 5.10326 11.75H4.79674C4.38253 11.75 4.04674 11.4142 4.04674 11ZM6.39674 11C6.39674 10.5858 6.73253 10.25 7.14674 10.25H7.45326C7.86747 10.25 8.20326 10.5858 8.20326 11C8.20326 11.4142 7.86747 11.75 7.45326 11.75H7.14674C6.73253 11.75 6.39674 11.4142 6.39674 11ZM9.80326 11.75H9.49674C9.08253 11.75 8.74674 11.4142 8.74674 11C8.74674 10.5858 9.08253 10.25 9.49674 10.25H9.80326C10.2175 10.25 10.5533 10.5858 10.5533 11C10.5533 11.4142 10.2175 11.75 9.80326 11.75ZM11.0967 11C11.0967 10.5858 11.4325 10.25 11.8467 10.25H12.1533C12.5675 10.25 12.9033 10.5858 12.9033 11C12.9033 11.4142 12.5675 11.75 12.1533 11.75H11.8467C11.4325 11.75 11.0967 11.4142 11.0967 11ZM13.4467 11C13.4467 10.5858 13.7825 10.25 14.1967 10.25H14.5033C14.9175 10.25 15.2533 10.5858 15.2533 11C15.2533 11.4142 14.9175 11.75 14.5033 11.75H14.1967C13.7825 11.75 13.4467 11.4142 13.4467 11ZM15.7967 11C15.7967 10.5858 16.1325 10.25 16.5467 10.25H16.8533C17.2675 10.25 17.6033 10.5858 17.6033 11C17.6033 11.4142 17.2675 11.75 16.8533 11.75H16.5467C16.1325 11.75 15.7967 11.4142 15.7967 11ZM18.1467 11C18.1467 10.5858 18.4825 10.25 18.8967 10.25H19.2033C19.6175 10.25 19.9533 10.5858 19.9533 11C19.9533 11.4142 19.6175 11.75 19.2033 11.75H18.8967C18.4825 11.75 18.1467 11.4142 18.1467 11ZM22 13.1196C22.4142 13.1196 22.75 13.4554 22.75 13.8696V14C22.75 14.4142 22.4142 14.75 22 14.75C21.5858 14.75 21.25 14.4142 21.25 14V13.8696C21.25 13.4554 21.5858 13.1196 22 13.1196ZM2 13.7967C2.41421 13.7967 2.75 14.1325 2.75 14.5467V14.8533C2.75 15.2675 2.41421 15.6033 2 15.6033C1.58579 15.6033 1.25 15.2675 1.25 14.8533V14.5467C1.25 14.1325 1.58579 13.7967 2 13.7967ZM18.8086 15.2548C18.8721 15.2516 18.9359 15.25 19 15.25C19.0641 15.25 19.1279 15.2516 19.1914 15.2548C19.6051 15.2757 19.9235 15.628 19.9027 16.0416C19.8943 16.2082 19.8322 16.3593 19.734 16.479C19.8882 16.6329 19.9745 16.8524 19.9507 17.0861C19.9089 17.4982 19.5409 17.7984 19.1288 17.7565C19.0866 17.7522 19.0437 17.75 19 17.75C18.9855 17.75 18.9712 17.7502 18.9569 17.7507C18.8486 17.7544 18.7449 17.7348 18.6505 17.6966C18.588 17.7766 18.5082 17.8452 18.4128 17.8961C18.4003 17.9028 18.3878 17.9097 18.3755 17.9168C18.3509 17.931 18.3267 17.9461 18.3031 17.962C17.9596 18.1934 17.4935 18.1025 17.2621 17.7589C17.2312 17.7131 17.2061 17.6651 17.1866 17.6158C16.908 17.8003 16.5296 17.781 16.2702 17.5467C15.9627 17.2691 15.9386 16.7948 16.2162 16.4874C16.3019 16.3925 16.3925 16.3019 16.4874 16.2162C16.7948 15.9386 17.2691 15.9627 17.5467 16.2702C17.6269 16.359 17.682 16.4618 17.7122 16.5697C17.9039 16.4695 18.1194 16.4603 18.3089 16.527C18.1861 16.4009 18.1069 16.2313 18.0973 16.0416C18.0765 15.628 18.3949 15.2757 18.8086 15.2548ZM20.4533 16.2702C20.7309 15.9627 21.2052 15.9386 21.5126 16.2162C21.6075 16.3019 21.6981 16.3925 21.7838 16.4874C22.0614 16.7948 22.0373 17.2691 21.7298 17.5467C21.4224 17.8243 20.9482 17.8001 20.6705 17.4927C20.6189 17.4356 20.5644 17.3811 20.5073 17.3295C20.1999 17.0518 20.1757 16.5776 20.4533 16.2702ZM2 16.1467C2.41421 16.1467 2.75 16.4825 2.75 16.8967V17.2033C2.75 17.6175 2.41421 17.9533 2 17.9533C1.58579 17.9533 1.25 17.6175 1.25 17.2033V16.8967C1.25 16.4825 1.58579 16.1467 2 16.1467ZM21.521 18.266C21.3671 18.1118 21.1476 18.0255 20.9139 18.0493C20.5018 18.0911 20.2016 18.4591 20.2435 18.8712C20.2478 18.9134 20.25 18.9563 20.25 19C20.25 19.0437 20.2478 19.0866 20.2435 19.1288C20.2016 19.5409 20.5018 19.9089 20.9139 19.9507C21.1476 19.9745 21.3671 19.8882 21.521 19.734C21.6407 19.8322 21.7918 19.8943 21.9584 19.9027C22.372 19.9235 22.7243 19.6051 22.7452 19.1914C22.7484 19.1279 22.75 19.0641 22.75 19C22.75 18.9359 22.7484 18.8721 22.7452 18.8086C22.7243 18.3949 22.372 18.0765 21.9584 18.0973C21.7918 18.1057 21.6407 18.1678 21.521 18.266ZM16.5138 19.7036C16.658 19.8285 16.8497 19.8987 17.055 19.8848C17.4683 19.857 17.7807 19.4994 17.7529 19.0861C17.751 19.0577 17.75 19.029 17.75 19C17.75 18.971 17.751 18.9423 17.7529 18.9139C17.7807 18.5006 17.4683 18.143 17.055 18.1152C16.8497 18.1013 16.658 18.1715 16.5138 18.2964C16.3892 18.1807 16.2247 18.1066 16.0416 18.0973C15.628 18.0765 15.2757 18.3949 15.2548 18.8086C15.2516 18.8721 15.25 18.9359 15.25 19C15.25 19.0641 15.2516 19.1279 15.2548 19.1914C15.2757 19.6051 15.628 19.9235 16.0416 19.9027C16.2247 19.8934 16.3892 19.8193 16.5138 19.7036ZM2 18.4967C2.41421 18.4967 2.75 18.8325 2.75 19.2467V19.2501C3.15759 19.2578 3.48565 19.5906 3.48565 20C3.48565 20.4142 3.14987 20.75 2.73565 20.75H2.6C2.55392 20.75 2.50815 20.7477 2.46282 20.7431C2.14262 20.7105 1.89002 20.4811 1.81293 20.1871C1.51891 20.11 1.28947 19.8574 1.25694 19.5372C1.25234 19.4919 1.25 19.4461 1.25 19.4V19.2467C1.25 18.8325 1.58579 18.4967 2 18.4967ZM3.79435 20C3.79435 19.5858 4.13013 19.25 4.54435 19.25H4.81565C5.22987 19.25 5.56565 19.5858 5.56565 20C5.56565 20.4142 5.22987 20.75 4.81565 20.75H4.54435C4.13013 20.75 3.79435 20.4142 3.79435 20ZM5.87435 20C5.87435 19.5858 6.21013 19.25 6.62435 19.25H6.89565C7.30987 19.25 7.64565 19.5858 7.64565 20C7.64565 20.4142 7.30987 20.75 6.89565 20.75H6.62435C6.21013 20.75 5.87435 20.4142 5.87435 20ZM7.95435 20C7.95435 19.5858 8.29013 19.25 8.70435 19.25H8.97565C9.38987 19.25 9.72565 19.5858 9.72565 20C9.72565 20.4142 9.38987 20.75 8.97565 20.75H8.70435C8.29013 20.75 7.95435 20.4142 7.95435 20ZM10.0343 20C10.0343 19.5858 10.3701 19.25 10.7843 19.25H11.0557C11.4699 19.25 11.8057 19.5858 11.8057 20C11.8057 20.4142 11.4699 20.75 11.0557 20.75H10.7843C10.3701 20.75 10.0343 20.4142 10.0343 20ZM13 20.75H12.8643C12.4501 20.75 12.1143 20.4142 12.1143 20C12.1143 19.5858 12.4501 19.25 12.8643 19.25H13C13.4142 19.25 13.75 19.5858 13.75 20C13.75 20.4142 13.4142 20.75 13 20.75ZM17.2621 20.2411C17.4935 19.8975 17.9596 19.8066 18.3031 20.038C18.3267 20.0539 18.3509 20.069 18.3755 20.0832C18.3878 20.0903 18.4003 20.0972 18.4128 20.1039C18.5082 20.1548 18.588 20.2234 18.6505 20.3034C18.7449 20.2652 18.8486 20.2456 18.9569 20.2493C18.9712 20.2498 18.9855 20.25 19 20.25C19.0437 20.25 19.0866 20.2478 19.1288 20.2435C19.5409 20.2016 19.9089 20.5018 19.9507 20.9139C19.9745 21.1476 19.8882 21.3671 19.734 21.521C19.8322 21.6407 19.8943 21.7918 19.9027 21.9584C19.9235 22.372 19.6051 22.7243 19.1914 22.7452C19.1279 22.7484 19.0641 22.75 19 22.75C18.9359 22.75 18.8721 22.7484 18.8086 22.7452C18.3949 22.7243 18.0765 22.372 18.0973 21.9584C18.1069 21.7687 18.1861 21.5991 18.3089 21.473C18.1194 21.5397 17.9039 21.5305 17.7122 21.4303C17.682 21.5382 17.6269 21.641 17.5467 21.7298C17.2691 22.0373 16.7948 22.0614 16.4874 21.7838C16.3925 21.6981 16.3019 21.6075 16.2162 21.5126C15.9386 21.2052 15.9627 20.7309 16.2702 20.4533C16.5296 20.219 16.908 20.1997 17.1866 20.3842C17.2061 20.3349 17.2312 20.2869 17.2621 20.2411ZM21.7298 20.4533C22.0373 20.7309 22.0614 21.2052 21.7838 21.5126C21.6981 21.6075 21.6075 21.6981 21.5126 21.7838C21.2052 22.0614 20.7309 22.0373 20.4533 21.7298C20.1757 21.4224 20.1999 20.9482 20.5073 20.6705C20.5644 20.6189 20.6189 20.5644 20.6705 20.5073C20.9482 20.1999 21.4224 20.1757 21.7298 20.4533Z" fill="black"/>
</g>
</g>
</g>
<defs>
<clipPath id="clip0_232_6121">
<rect width="24" height="24" rx="5" fill="white"/>
</clipPath>
</defs>
</svg>
