<svg width="24" height="24" viewBox="0 0 24 24" fill="none" xmlns="http://www.w3.org/2000/svg">
<g id="folder">
<g clip-path="url(#clip0_232_6167)">
<g id="Weight=Dynamic">
<path id="Vector (Stroke)" fill-rule="evenodd" clip-rule="evenodd" d="M1.25 4.6C1.25 3.85442 1.85442 3.25 2.6 3.25H8.77805C9.10031 3.25 9.41194 3.36528 9.65661 3.575L12.7774 6.25H21.4C22.1456 6.25 22.75 6.85442 22.75 7.6V19.4C22.75 20.1456 22.1456 20.75 21.4 20.75H2.6C1.85441 20.75 1.25 20.1456 1.25 19.4V4.6ZM12.8196 6.28611C12.8195 6.28604 12.8197 6.28618 12.8196 6.28611V6.28611ZM2.75 4.75V10.25H21.25V7.75H12.722C12.3997 7.75 12.0881 7.63472 11.8434 7.425L8.72256 4.75H2.75ZM21.25 11.75H2.75V19.25H21.25V11.75Z" fill="black"/>
</g>
</g>
</g>
<defs>
<clipPath id="clip0_232_6167">
<rect width="24" height="24" rx="5" fill="white"/>
</clipPath>
</defs>
</svg>
