<svg width="24" height="24" viewBox="0 0 24 24" fill="none" xmlns="http://www.w3.org/2000/svg">
<g id="folder-plus">
<g clip-path="url(#clip0_232_6185)">
<g id="Weight=Dynamic">
<path id="Vector (Stroke)" fill-rule="evenodd" clip-rule="evenodd" d="M1.25 4.6C1.25 3.85442 1.85442 3.25 2.6 3.25H8.77805C9.10031 3.25 9.41194 3.36528 9.65661 3.575L12.7774 6.25H14C14.4142 6.25 14.75 6.58579 14.75 7C14.75 7.41421 14.4142 7.75 14 7.75H12.722C12.3997 7.75 12.0881 7.63472 11.8434 7.425L8.72256 4.75H2.75V10.25H21.4C22.1456 10.25 22.75 10.8544 22.75 11.6V19.4C22.75 20.1456 22.1456 20.75 21.4 20.75H2.6C1.85441 20.75 1.25 20.1456 1.25 19.4V4.6ZM2.75 11.75V19.25H21.25V11.75H2.75ZM12.8196 6.28611C12.8195 6.28604 12.8197 6.28618 12.8196 6.28611V6.28611ZM20 3.25C20.4142 3.25 20.75 3.58579 20.75 4V5.25H22C22.4142 5.25 22.75 5.58579 22.75 6C22.75 6.41421 22.4142 6.75 22 6.75H20.75V8C20.75 8.41421 20.4142 8.75 20 8.75C19.5858 8.75 19.25 8.41421 19.25 8V6.75H18C17.5858 6.75 17.25 6.41421 17.25 6C17.25 5.58579 17.5858 5.25 18 5.25H19.25V4C19.25 3.58579 19.5858 3.25 20 3.25Z" fill="black"/>
</g>
</g>
</g>
<defs>
<clipPath id="clip0_232_6185">
<rect width="24" height="24" rx="5" fill="white"/>
</clipPath>
</defs>
</svg>
