<svg width="24" height="24" viewBox="0 0 24 24" fill="none" xmlns="http://www.w3.org/2000/svg">
<g id="folder-warning">
<g clip-path="url(#clip0_232_6173)">
<g id="Weight=Dynamic">
<path id="Vector (Stroke)" fill-rule="evenodd" clip-rule="evenodd" d="M18 2.25C18.4142 2.25 18.75 2.58579 18.75 3V7C18.75 7.41421 18.4142 7.75 18 7.75C17.5858 7.75 17.25 7.41421 17.25 7V3C17.25 2.58579 17.5858 2.25 18 2.25ZM1.25 4.6C1.25 3.85442 1.85442 3.25 2.6 3.25H8.77805C9.10031 3.25 9.41194 3.36528 9.65661 3.575L12.7774 6.25H14C14.4142 6.25 14.75 6.58579 14.75 7C14.75 7.41421 14.4142 7.75 14 7.75H12.722C12.3997 7.75 12.0881 7.63472 11.8434 7.425L8.72256 4.75H2.75V10.25H14C14.4142 10.25 14.75 10.5858 14.75 11C14.75 11.4142 14.4142 11.75 14 11.75H2.75V19.25H21.25V7C21.25 6.58579 21.5858 6.25 22 6.25C22.4142 6.25 22.75 6.58579 22.75 7V19.4C22.75 20.1456 22.1456 20.75 21.4 20.75H2.6C1.85441 20.75 1.25 20.1456 1.25 19.4V4.6ZM12.8196 6.28611C12.8195 6.28604 12.8197 6.28618 12.8196 6.28611V6.28611ZM18.5117 10.4414C18.8196 10.7185 18.8446 11.1927 18.5675 11.5006L18.5575 11.5117C18.2804 11.8196 17.8062 11.8446 17.4983 11.5675C17.1904 11.2904 17.1654 10.8162 17.4425 10.5083L17.4525 10.4972C17.7296 10.1893 18.2038 10.1643 18.5117 10.4414Z" fill="black"/>
</g>
</g>
</g>
<defs>
<clipPath id="clip0_232_6173">
<rect width="24" height="24" rx="5" fill="white"/>
</clipPath>
</defs>
</svg>
