<svg width="24" height="24" viewBox="0 0 24 24" fill="none" xmlns="http://www.w3.org/2000/svg">
<g id="font-question">
<g clip-path="url(#clip0_232_6715)">
<g id="Weight=Dynamic">
<path id="Vector (Stroke)" fill-rule="evenodd" clip-rule="evenodd" d="M16.5773 7.27043C16.1995 7.59091 15.9272 8.07883 15.9272 8.79422C15.9272 9.20843 15.5915 9.54422 15.1772 9.54422C14.763 9.54422 14.4272 9.20843 14.4272 8.79422C14.4272 7.64679 14.8868 6.73759 15.6068 6.12667C16.3105 5.52958 17.2221 5.25 18.1045 5.25C18.987 5.25 19.8985 5.52959 20.6022 6.12668C21.3223 6.7376 21.7818 7.6468 21.7818 8.79422C21.7818 9.60039 21.5755 10.2122 21.24 10.7155C20.9571 11.1399 20.5893 11.4681 20.2959 11.73C20.2639 11.7585 20.2329 11.7863 20.2029 11.8132C19.8756 12.1078 19.6239 12.3548 19.4391 12.6813C19.2617 12.9948 19.1206 13.4298 19.1206 14.1165C19.1206 14.5307 18.7848 14.8665 18.3706 14.8665C17.9564 14.8665 17.6206 14.5307 17.6206 14.1165C17.6206 13.2064 17.8122 12.5104 18.1337 11.9424C18.4479 11.3874 18.8615 11.0024 19.1995 10.6983C19.2262 10.6742 19.2523 10.6508 19.2778 10.6279C19.5958 10.3423 19.8205 10.1406 19.9919 9.88339C20.1554 9.63823 20.2818 9.31863 20.2818 8.79422C20.2818 8.07884 20.0095 7.59093 19.6318 7.27044C19.2378 6.93612 18.6857 6.75 18.1045 6.75C17.5233 6.75 16.9713 6.93612 16.5773 7.27043ZM8.79057 5.91529C9.08467 5.91529 9.35164 6.0872 9.47334 6.35494L14.7956 18.064C14.967 18.4411 14.8003 18.8857 14.4232 19.0571C14.0461 19.2285 13.6015 19.0618 13.4301 18.6847L12.5655 16.7825H5.01566L4.15104 18.6847C3.97963 19.0618 3.535 19.2285 3.15791 19.0571C2.78082 18.8857 2.61408 18.4411 2.78549 18.064L8.10779 6.35494C8.22949 6.0872 8.49646 5.91529 8.79057 5.91529ZM5.69748 15.2825H11.8837L8.79057 8.47775L5.69748 15.2825ZM18.883 17.8158C19.1909 18.0928 19.2158 18.5671 18.9387 18.8749L18.9281 18.8868C18.651 19.1947 18.1768 19.2196 17.8689 18.9425C17.561 18.6654 17.536 18.1912 17.8131 17.8833L17.8238 17.8715C18.1009 17.5636 18.5751 17.5387 18.883 17.8158Z" fill="black"/>
</g>
</g>
</g>
<defs>
<clipPath id="clip0_232_6715">
<rect width="24" height="24" rx="5" fill="white"/>
</clipPath>
</defs>
</svg>
