<svg width="24" height="24" viewBox="0 0 24 24" fill="none" xmlns="http://www.w3.org/2000/svg">
<g id="football-ball">
<g clip-path="url(#clip0_232_1790)">
<g id="Weight=Dynamic">
<path id="Vector (Stroke)" fill-rule="evenodd" clip-rule="evenodd" d="M15.7028 4.74272L19.2572 8.29713C19.2813 7.58648 19.2683 6.92817 19.2389 6.35922C19.1934 5.47855 18.5213 4.80651 17.6407 4.76098C17.0717 4.73157 16.4134 4.71855 15.7028 4.74272ZM19.0946 10.2559L13.744 4.90527C11.5116 5.20847 9.20025 5.9608 7.58046 7.58059C5.96068 9.20037 5.20835 11.5118 4.90515 13.7441L10.2558 19.0947C12.4881 18.7915 14.7995 18.0392 16.4193 16.4194C18.0391 14.7996 18.7914 12.4882 19.0946 10.2559ZM8.29701 19.2573L4.7426 15.7029C4.71842 16.4135 4.73145 17.0718 4.76086 17.6408C4.80639 18.5215 5.47842 19.1935 6.3591 19.239C6.92804 19.2684 7.58636 19.2815 8.29701 19.2573ZM13.9288 3.37038C15.3512 3.2062 16.6806 3.20935 17.7181 3.26298C19.3663 3.34818 20.6517 4.63359 20.7369 6.28179C20.7905 7.31932 20.7937 8.64866 20.6295 10.0711C20.343 12.5534 19.5344 15.4256 17.48 17.4801C15.4255 19.5346 12.5533 20.3431 10.071 20.6296C8.64854 20.7938 7.3192 20.7907 6.28166 20.737C4.63347 20.6518 3.34806 19.3664 3.26286 17.7182C3.20923 16.6807 3.20608 15.3513 3.37025 13.9289C3.65676 11.4466 4.46532 8.57441 6.5198 6.51993C8.57429 4.46544 11.4465 3.65688 13.9288 3.37038ZM11.4696 8.64125C11.7624 8.34835 12.2373 8.34835 12.5302 8.64125L13.4141 9.52513L14.298 8.64125C14.5909 8.34835 15.0657 8.34835 15.3586 8.64125C15.6515 8.93414 15.6515 9.40901 15.3586 9.70191L14.4748 10.5858L15.3586 11.4697C15.6515 11.7626 15.6515 12.2374 15.3586 12.5303C15.0657 12.8232 14.5909 12.8232 14.298 12.5303L13.4141 11.6465L11.6463 13.4142L12.5302 14.2981C12.8231 14.591 12.8231 15.0659 12.5302 15.3588C12.2373 15.6517 11.7624 15.6517 11.4696 15.3588L10.5857 14.4749L9.70178 15.3588C9.40889 15.6517 8.93402 15.6517 8.64112 15.3588C8.34823 15.0659 8.34823 14.591 8.64112 14.2981L9.52501 13.4142L8.64112 12.5303C8.34823 12.2374 8.34823 11.7626 8.64112 11.4697C8.93402 11.1768 9.40889 11.1768 9.70178 11.4697L10.5857 12.3536L12.3534 10.5858L11.4696 9.70191C11.1767 9.40901 11.1767 8.93414 11.4696 8.64125Z" fill="black"/>
</g>
</g>
</g>
<defs>
<clipPath id="clip0_232_1790">
<rect width="24" height="24" rx="5" fill="white"/>
</clipPath>
</defs>
</svg>
