<svg width="24" height="24" viewBox="0 0 24 24" fill="none" xmlns="http://www.w3.org/2000/svg">
<g id="football">
<g clip-path="url(#clip0_232_1779)">
<g id="Weight=Dynamic">
<path id="Vector (Stroke)" fill-rule="evenodd" clip-rule="evenodd" d="M12.6796 3.72193C12.1716 3.66694 11.7173 3.71987 11.3752 3.9174C11.0331 4.11494 10.7601 4.48183 10.5537 4.94933C10.3881 5.32439 10.2869 5.71564 10.227 6.02369C10.5238 6.12581 10.9132 6.23383 11.3208 6.27794C11.8289 6.33293 12.2831 6.28 12.6252 6.08247C12.9673 5.88494 13.2403 5.51804 13.4467 5.05054C13.6123 4.67548 13.7135 4.28423 13.7734 3.97618C13.4767 3.87406 13.0872 3.76604 12.6796 3.72193ZM12.841 2.23064C13.517 2.30379 14.1228 2.50033 14.4953 2.64265L14.2276 3.34326M12.841 2.23064C12.1732 2.15836 11.3538 2.19769 10.6252 2.61837L12.841 2.23064ZM5 2.24999C5.41421 2.24999 5.75 2.58578 5.75 2.99999V13.0781H18.25V2.99999C18.25 2.58578 18.5858 2.24999 19 2.24999C19.4142 2.24999 19.75 2.58578 19.75 2.99999V13.8281C19.75 14.2423 19.4142 14.5781 19 14.5781H12.75V21C12.75 21.4142 12.4142 21.75 12 21.75C11.5858 21.75 11.25 21.4142 11.25 21V14.5781H5C4.58579 14.5781 4.25 14.2423 4.25 13.8281V2.99999C4.25 2.58578 4.58579 2.24999 5 2.24999ZM10.6252 2.61837C9.89658 3.03904 9.45285 3.72893 9.18151 4.34346L10.6252 2.61837ZM9.18151 4.34346C8.90688 4.96544 8.7742 5.58831 8.71119 5.9821L9.18151 4.34346ZM14.4953 2.64265C15.0546 2.85632 15.3838 3.42658 15.2892 4.01777C15.2262 4.41156 15.0935 5.03443 14.8189 5.65642C14.5476 6.27094 14.1038 6.96083 13.3752 7.38151C12.6466 7.80218 11.8272 7.84151 11.1594 7.76924C10.4834 7.69608 9.87766 7.49955 9.50512 7.35722C8.94583 7.14355 8.61659 6.57329 8.71119 5.9821" fill="black"/>
</g>
</g>
</g>
<defs>
<clipPath id="clip0_232_1779">
<rect width="24" height="24" rx="5" fill="white"/>
</clipPath>
</defs>
</svg>
