<svg width="24" height="24" viewBox="0 0 24 24" fill="none" xmlns="http://www.w3.org/2000/svg">
<g id="forward-15-seconds">
<g clip-path="url(#clip0_232_10284)">
<g id="Weight=Dynamic">
<path id="Vector (Stroke)" fill-rule="evenodd" clip-rule="evenodd" d="M16.9697 1.46967C17.2626 1.17678 17.7374 1.17678 18.0303 1.46967L20.0303 3.46967C20.3232 3.76256 20.3232 4.23744 20.0303 4.53033L18.0303 6.53033C17.7374 6.82322 17.2626 6.82322 16.9697 6.53033C16.6768 6.23744 16.6768 5.76256 16.9697 5.46967L17.6893 4.75H12C7.44365 4.75 3.75 8.44365 3.75 13C3.75 17.5564 7.44365 21.25 12 21.25C16.5563 21.25 20.25 17.5564 20.25 13C20.25 12.5858 20.5858 12.25 21 12.25C21.4142 12.25 21.75 12.5858 21.75 13C21.75 18.3848 17.3848 22.75 12 22.75C6.61522 22.75 2.25 18.3848 2.25 13C2.25 7.61522 6.61522 3.25 12 3.25H17.6893L16.9697 2.53033C16.6768 2.23744 16.6768 1.76256 16.9697 1.46967ZM9 8.25C9.41421 8.25 9.75 8.58579 9.75 9V16C9.75 16.4142 9.41421 16.75 9 16.75C8.58579 16.75 8.25 16.4142 8.25 16V9C8.25 8.58579 8.58579 8.25 9 8.25ZM11.25 10C11.25 9.0335 12.0335 8.25 13 8.25H15C15.4142 8.25 15.75 8.58579 15.75 9C15.75 9.41421 15.4142 9.75 15 9.75H13C12.8619 9.75 12.75 9.86193 12.75 10V11.5C12.75 11.6381 12.8619 11.75 13 11.75H14C14.9665 11.75 15.75 12.5335 15.75 13.5V15C15.75 15.9665 14.9665 16.75 14 16.75H12C11.5858 16.75 11.25 16.4142 11.25 16C11.25 15.5858 11.5858 15.25 12 15.25H14C14.1381 15.25 14.25 15.1381 14.25 15V13.5C14.25 13.3619 14.1381 13.25 14 13.25H13C12.0335 13.25 11.25 12.4665 11.25 11.5V10Z" fill="black"/>
</g>
</g>
</g>
<defs>
<clipPath id="clip0_232_10284">
<rect width="24" height="24" rx="5" fill="white"/>
</clipPath>
</defs>
</svg>
