<svg width="24" height="24" viewBox="0 0 24 24" fill="none" xmlns="http://www.w3.org/2000/svg">
<g id="forward-message">
<g clip-path="url(#clip0_232_3357)">
<g id="Weight=Dynamic">
<path id="Vector (Stroke)" fill-rule="evenodd" clip-rule="evenodd" d="M4 4.75C3.30964 4.75 2.75 5.30964 2.75 6V18C2.75 18.6904 3.30964 19.25 4 19.25H10C10.4142 19.25 10.75 19.5858 10.75 20C10.75 20.4142 10.4142 20.75 10 20.75H4C2.48122 20.75 1.25 19.5188 1.25 18V6C1.25 4.48122 2.48122 3.25 4 3.25H20C21.5188 3.25 22.75 4.48122 22.75 6V12.8571C22.75 13.2714 22.4142 13.6071 22 13.6071C21.5858 13.6071 21.25 13.2714 21.25 12.8571V6C21.25 5.30964 20.6904 4.75 20 4.75H4ZM6.35688 7.61413C6.56999 7.25894 7.03069 7.14377 7.38587 7.35688L12 10.1254L16.6141 7.35688C16.9693 7.14377 17.43 7.25894 17.6431 7.61413C17.8562 7.96931 17.7411 8.43001 17.3859 8.64312L12.3859 11.6431C12.1484 11.7856 11.8516 11.7856 11.6141 11.6431L6.61413 8.64312C6.25894 8.43001 6.14377 7.96931 6.35688 7.61413ZM18.3164 13.473C18.6075 13.1783 19.0823 13.1753 19.377 13.4664L22.527 16.5775C22.6697 16.7184 22.75 16.9106 22.75 17.1111C22.75 17.3116 22.6697 17.5038 22.527 17.6447L19.377 20.7558C19.0823 21.0469 18.6075 21.044 18.3164 20.7492C18.0253 20.4545 18.0283 19.9797 18.323 19.6886L20.1733 17.8611H15.7C14.9789 17.8611 14.5042 18.101 14.2102 18.4004C13.9082 18.708 13.75 19.1257 13.75 19.5556C13.75 19.9854 13.9082 20.4031 14.2102 20.7107C14.5042 21.0101 14.9789 21.25 15.7 21.25C16.1142 21.25 16.45 21.5858 16.45 22C16.45 22.4142 16.1142 22.75 15.7 22.75C14.6211 22.75 13.7458 22.3787 13.1398 21.7616C12.5418 21.1525 12.25 20.3479 12.25 19.5556C12.25 18.7632 12.5418 17.9587 13.1398 17.3496C13.7458 16.7324 14.6211 16.3611 15.7 16.3611H20.1733L18.323 14.5336C18.0283 14.2425 18.0253 13.7677 18.3164 13.473Z" fill="black"/>
</g>
</g>
</g>
<defs>
<clipPath id="clip0_232_3357">
<rect width="24" height="24" rx="5" fill="white"/>
</clipPath>
</defs>
</svg>
