<svg width="24" height="24" viewBox="0 0 24 24" fill="none" xmlns="http://www.w3.org/2000/svg">
<g id="forward">
<g clip-path="url(#clip0_232_10415)">
<g id="Weight=Dynamic">
<path id="Vector (Stroke)" fill-rule="evenodd" clip-rule="evenodd" d="M13.75 6.48424V17.5157L21.2357 12L13.75 6.48424ZM12.25 6.18739C12.25 5.08019 13.5095 4.44377 14.4008 5.10056L22.2894 10.9132C23.0216 11.4527 23.0216 12.5473 22.2894 13.0868L14.4008 18.8994C13.5095 19.5562 12.25 18.9198 12.25 17.8126V6.18739ZM2.75 6.48424V17.5157L10.2357 12L2.75 6.48424ZM1.25 6.18739C1.25 5.08019 2.50947 4.44377 3.40082 5.10056L11.2894 10.9132C12.0216 11.4527 12.0216 12.5473 11.2894 13.0868L3.40082 18.8994C2.50946 19.5562 1.25 18.9198 1.25 17.8126V6.18739Z" fill="black"/>
</g>
</g>
</g>
<defs>
<clipPath id="clip0_232_10415">
<rect width="24" height="24" rx="5" fill="white"/>
</clipPath>
</defs>
</svg>
