<svg width="24" height="24" viewBox="0 0 24 24" fill="none" xmlns="http://www.w3.org/2000/svg">
<g id="frame-minus-in">
<g clip-path="url(#clip0_232_4853)">
<g id="Weight=Dynamic">
<path id="Vector (Stroke)" fill-rule="evenodd" clip-rule="evenodd" d="M1.25 2C1.25 1.58579 1.58579 1.25 2 1.25H4.9984C5.41261 1.25 5.7484 1.58579 5.7484 2V2.75049H18.249V2.00098C18.249 1.58676 18.5848 1.25098 18.999 1.25098H21.9974C22.4116 1.25098 22.7474 1.58676 22.7474 2.00098V4.99938C22.7474 5.41359 22.4116 5.74938 21.9974 5.74938H21.248V18.251H21.9974C22.4116 18.251 22.7474 18.5868 22.7474 19.001V21.9994C22.7474 22.4136 22.4116 22.7494 21.9974 22.7494H18.999C18.5848 22.7494 18.249 22.4136 18.249 21.9994V21.2505H5.7484V21.9984C5.7484 22.4126 5.41261 22.7484 4.9984 22.7484H2C1.58579 22.7484 1.25 22.4126 1.25 21.9984V19C1.25 18.5858 1.58579 18.25 2 18.25H2.75V5.7484H2C1.58579 5.7484 1.25 5.41261 1.25 4.9984V2ZM3.47676 4.2484H2.75V2.75H4.2484V4.2484H3.52324C3.51552 4.24817 3.50777 4.24805 3.5 4.24805C3.49223 4.24805 3.48448 4.24817 3.47676 4.2484ZM4.25 5.7484V18.25H4.9984C5.41261 18.25 5.7484 18.5858 5.7484 19V19.7505H18.249V19.001C18.249 18.5868 18.5848 18.251 18.999 18.251H19.748V5.74938H18.999C18.5848 5.74938 18.249 5.41359 18.249 4.99938V4.25049H5.7484V4.9984C5.7484 5.41261 5.41261 5.7484 4.9984 5.7484H4.25ZM21.2474 4.24938V2.75098H19.749V4.24938H21.2474ZM19.749 21.2494H21.2474V19.751H20.5261C20.5168 19.7513 20.5074 19.7515 20.498 19.7515C20.4887 19.7515 20.4793 19.7513 20.47 19.751H19.749V21.2494ZM4.2484 21.2484V19.75H3.5064C3.50427 19.75 3.50213 19.75 3.5 19.75C3.49787 19.75 3.49573 19.75 3.4936 19.75H2.75V21.2484H4.2484ZM8.25 12C8.25 11.5858 8.58579 11.25 9 11.25H15C15.4142 11.25 15.75 11.5858 15.75 12C15.75 12.4142 15.4142 12.75 15 12.75H9C8.58579 12.75 8.25 12.4142 8.25 12Z" fill="black"/>
</g>
</g>
</g>
<defs>
<clipPath id="clip0_232_4853">
<rect width="24" height="24" rx="5" fill="white"/>
</clipPath>
</defs>
</svg>
