<svg width="24" height="24" viewBox="0 0 24 24" fill="none" xmlns="http://www.w3.org/2000/svg">
<g id="frame-tool">
<g clip-path="url(#clip0_232_4496)">
<g id="Weight=Dynamic">
<path id="Vector (Stroke)" fill-rule="evenodd" clip-rule="evenodd" d="M7 1.25C7.41421 1.25 7.75 1.58579 7.75 2V3C7.75 3.41421 7.41421 3.75 7 3.75C6.58579 3.75 6.25 3.41421 6.25 3V2C6.25 1.58579 6.58579 1.25 7 1.25ZM17 1.25C17.4142 1.25 17.75 1.58579 17.75 2V3C17.75 3.41421 17.4142 3.75 17 3.75C16.5858 3.75 16.25 3.41421 16.25 3V2C16.25 1.58579 16.5858 1.25 17 1.25ZM6.75 6.75V17.25H17.25V6.75H6.75ZM5.25 6.6C5.25 5.85441 5.85442 5.25 6.6 5.25H17.4C18.1456 5.25 18.75 5.85442 18.75 6.6V17.4C18.75 18.1456 18.1456 18.75 17.4 18.75H6.6C5.85441 18.75 5.25 18.1456 5.25 17.4V6.6ZM1.25 7C1.25 6.58579 1.58579 6.25 2 6.25H3C3.41421 6.25 3.75 6.58579 3.75 7C3.75 7.41421 3.41421 7.75 3 7.75H2C1.58579 7.75 1.25 7.41421 1.25 7ZM20.25 7C20.25 6.58579 20.5858 6.25 21 6.25H22C22.4142 6.25 22.75 6.58579 22.75 7C22.75 7.41421 22.4142 7.75 22 7.75H21C20.5858 7.75 20.25 7.41421 20.25 7ZM1.25 17C1.25 16.5858 1.58579 16.25 2 16.25H3C3.41421 16.25 3.75 16.5858 3.75 17C3.75 17.4142 3.41421 17.75 3 17.75H2C1.58579 17.75 1.25 17.4142 1.25 17ZM20.25 17C20.25 16.5858 20.5858 16.25 21 16.25H22C22.4142 16.25 22.75 16.5858 22.75 17C22.75 17.4142 22.4142 17.75 22 17.75H21C20.5858 17.75 20.25 17.4142 20.25 17ZM7 20.25C7.41421 20.25 7.75 20.5858 7.75 21V22C7.75 22.4142 7.41421 22.75 7 22.75C6.58579 22.75 6.25 22.4142 6.25 22V21C6.25 20.5858 6.58579 20.25 7 20.25ZM17 20.25C17.4142 20.25 17.75 20.5858 17.75 21V22C17.75 22.4142 17.4142 22.75 17 22.75C16.5858 22.75 16.25 22.4142 16.25 22V21C16.25 20.5858 16.5858 20.25 17 20.25Z" fill="black"/>
</g>
</g>
</g>
<defs>
<clipPath id="clip0_232_4496">
<rect width="24" height="24" rx="5" fill="white"/>
</clipPath>
</defs>
</svg>
