<svg width="24" height="24" viewBox="0 0 24 24" fill="none" xmlns="http://www.w3.org/2000/svg">
<g id="frame-alt-empty">
<g clip-path="url(#clip0_232_4472)">
<g id="Weight=Dynamic">
<path id="Vector (Stroke)" fill-rule="evenodd" clip-rule="evenodd" d="M6 2.25C6.41421 2.25 6.75 2.58579 6.75 3V5.25L17.25 5.25V3C17.25 2.58579 17.5858 2.25 18 2.25C18.4142 2.25 18.75 2.58579 18.75 3V5.25H21C21.4142 5.25 21.75 5.58579 21.75 6C21.75 6.41421 21.4142 6.75 21 6.75H18.75L18.75 17.25H21C21.4142 17.25 21.75 17.5858 21.75 18C21.75 18.4142 21.4142 18.75 21 18.75H18.75V21C18.75 21.4142 18.4142 21.75 18 21.75C17.5858 21.75 17.25 21.4142 17.25 21V18.75H6.75L6.75 21C6.75 21.4142 6.41421 21.75 6 21.75C5.58579 21.75 5.25 21.4142 5.25 21L5.25 18.75H3C2.58579 18.75 2.25 18.4142 2.25 18C2.25 17.5858 2.58579 17.25 3 17.25H5.25L5.25 6.75H3C2.58579 6.75 2.25 6.41421 2.25 6C2.25 5.58579 2.58579 5.25 3 5.25L5.25 5.25V3C5.25 2.58579 5.58579 2.25 6 2.25ZM6.75 6.75L6.75 17.25L17.25 17.25L17.25 6.75L6.75 6.75Z" fill="black"/>
</g>
</g>
</g>
<defs>
<clipPath id="clip0_232_4472">
<rect width="24" height="24" rx="5" fill="white"/>
</clipPath>
</defs>
</svg>
