<svg width="24" height="24" viewBox="0 0 24 24" fill="none" xmlns="http://www.w3.org/2000/svg">
<g id="frame-alt">
<g clip-path="url(#clip0_232_4280)">
<g id="Weight=Dynamic">
<g id="Vector">
<path fill-rule="evenodd" clip-rule="evenodd" d="M9.6 9H14.4C14.7314 9 15 9.26863 15 9.6V14.4C15 14.7314 14.7314 15 14.4 15H9.6C9.26863 15 9 14.7314 9 14.4V9.6C9 9.26863 9.26863 9 9.6 9Z" fill="black"/>
</g>
<path id="Vector (Stroke)" fill-rule="evenodd" clip-rule="evenodd" d="M6 2.25C6.41421 2.25 6.75 2.58579 6.75 3V5.25L17.25 5.25V3C17.25 2.58579 17.5858 2.25 18 2.25C18.4142 2.25 18.75 2.58579 18.75 3V5.25H21C21.4142 5.25 21.75 5.58579 21.75 6C21.75 6.41421 21.4142 6.75 21 6.75H18.75V17.25H21C21.4142 17.25 21.75 17.5858 21.75 18C21.75 18.4142 21.4142 18.75 21 18.75H18.75V21C18.75 21.4142 18.4142 21.75 18 21.75C17.5858 21.75 17.25 21.4142 17.25 21V18.75H6.75V21C6.75 21.4142 6.41421 21.75 6 21.75C5.58579 21.75 5.25 21.4142 5.25 21V18.75H3C2.58579 18.75 2.25 18.4142 2.25 18C2.25 17.5858 2.58579 17.25 3 17.25H5.25L5.25 6.75H3C2.58579 6.75 2.25 6.41421 2.25 6C2.25 5.58579 2.58579 5.25 3 5.25H5.25V3C5.25 2.58579 5.58579 2.25 6 2.25ZM6.75 6.75L6.75 17.25L17.25 17.25L17.25 6.75L6.75 6.75ZM9.75 9.75V14.25H14.25V9.75H9.75ZM8.25 9.6C8.25 8.85442 8.85442 8.25 9.6 8.25H14.4C15.1456 8.25 15.75 8.85441 15.75 9.6V14.4C15.75 15.1456 15.1456 15.75 14.4 15.75H9.6C8.85441 15.75 8.25 15.1456 8.25 14.4V9.6Z" fill="black"/>
</g>
</g>
</g>
<defs>
<clipPath id="clip0_232_4280">
<rect width="24" height="24" rx="5" fill="white"/>
</clipPath>
</defs>
</svg>
