<svg width="24" height="24" viewBox="0 0 24 24" fill="none" xmlns="http://www.w3.org/2000/svg">
<g id="frame">
<g clip-path="url(#clip0_232_4758)">
<g id="Weight=Dynamic">
<path id="Vector (Stroke)" fill-rule="evenodd" clip-rule="evenodd" d="M9.74902 2C9.74902 1.58579 10.0848 1.25 10.499 1.25H13.4974C13.9116 1.25 14.2474 1.58579 14.2474 2V2.75098H18.249V2.00195C18.249 1.58774 18.5848 1.25195 18.999 1.25195H21.9974C22.4116 1.25195 22.7474 1.58774 22.7474 2.00195V5.00035C22.7474 5.41457 22.4116 5.75035 21.9974 5.75035H21.248V9.75293H21.9974C22.4116 9.75293 22.7474 10.0887 22.7474 10.5029V13.5013C22.7474 13.9155 22.4116 14.2513 21.9974 14.2513H21.248V18.252H21.9974C22.4116 18.252 22.7474 18.5877 22.7474 19.002V22.0004C22.7474 22.4146 22.4116 22.7504 21.9974 22.7504H18.999C18.5848 22.7504 18.249 22.4146 18.249 22.0004V21.249H14.2474V21.9984C14.2474 22.4126 13.9116 22.7484 13.4974 22.7484H10.499C10.0848 22.7484 9.74902 22.4126 9.74902 21.9984V21.2515H5.7484V21.9994C5.7484 22.4136 5.41261 22.7494 4.9984 22.7494H2C1.58579 22.7494 1.25 22.4136 1.25 21.9994V19.001C1.25 18.5868 1.58579 18.251 2 18.251H2.75V14.2504H2C1.58579 14.2504 1.25 13.9146 1.25 13.5004V10.502C1.25 10.0877 1.58579 9.75195 2 9.75195H2.75V5.74938H2C1.58579 5.74938 1.25 5.41359 1.25 4.99938V2.00098C1.25 1.58676 1.58579 1.25098 2 1.25098H4.9984C5.41261 1.25098 5.7484 1.58676 5.7484 2.00098V2.75342H9.74902V2ZM11.249 3.54016C11.2496 3.52798 11.2499 3.51574 11.2499 3.50342C11.2499 3.4911 11.2496 3.47885 11.249 3.46668V2.75H12.7474V4.2484H11.249V3.54016ZM9.74902 4.25342H5.7484V4.99938C5.7484 5.41359 5.41261 5.74938 4.9984 5.74938H4.25V9.75195H4.9984C5.41261 9.75195 5.7484 10.0877 5.7484 10.502V13.5004C5.7484 13.9146 5.41261 14.2504 4.9984 14.2504H4.25V18.251H4.9984C5.41261 18.251 5.7484 18.5868 5.7484 19.001V19.7515H9.74902V19C9.74902 18.5858 10.0848 18.25 10.499 18.25H13.4974C13.9116 18.25 14.2474 18.5858 14.2474 19V19.749H18.249V19.002C18.249 18.5877 18.5848 18.252 18.999 18.252H19.748V14.2513H18.999C18.5848 14.2513 18.249 13.9155 18.249 13.5013V10.5029C18.249 10.0887 18.5848 9.75293 18.999 9.75293H19.748V5.75035H18.999C18.5848 5.75035 18.249 5.41457 18.249 5.00035V4.25098H14.2474V4.9984C14.2474 5.41261 13.9116 5.7484 13.4974 5.7484H10.499C10.0848 5.7484 9.74902 5.41261 9.74902 4.9984V4.25342ZM21.2474 4.25035V2.75195H19.749V4.25035H21.2474ZM19.749 11.2529V12.7513H21.2474V11.2529H20.5106C20.5064 11.253 20.5022 11.253 20.498 11.253C20.4939 11.253 20.4897 11.253 20.4855 11.2529H19.749ZM19.749 19.752V21.2504H21.2474V19.752H20.554C20.5355 19.7533 20.5169 19.754 20.498 19.754C20.4792 19.754 20.4606 19.7533 20.4421 19.752H19.749ZM12.7474 19.75H11.249V20.4647C11.2496 20.4769 11.2499 20.4891 11.2499 20.5015C11.2499 20.5138 11.2496 20.526 11.249 20.5382V21.2484H12.7474V19.75ZM4.2484 21.2494V19.751H3.56791C3.54554 19.753 3.52289 19.754 3.5 19.754C3.47711 19.754 3.45446 19.753 3.43209 19.751H2.75V21.2494H4.2484ZM4.2484 12.7504V11.252H3.54059C3.52715 11.2527 3.51362 11.253 3.5 11.253C3.48638 11.253 3.47285 11.2527 3.45941 11.252H2.75V12.7504H4.2484ZM4.2484 4.24938V2.75098H2.75V4.24938H4.2484Z" fill="black"/>
</g>
</g>
</g>
<defs>
<clipPath id="clip0_232_4758">
<rect width="24" height="24" rx="5" fill="white"/>
</clipPath>
</defs>
</svg>
