<svg width="24" height="24" viewBox="0 0 24 24" fill="none" xmlns="http://www.w3.org/2000/svg">
<g id="frame-simple">
<g clip-path="url(#clip0_232_4738)">
<g id="Weight=Dynamic">
<path id="Vector (Stroke)" fill-rule="evenodd" clip-rule="evenodd" d="M1.25 2C1.25 1.58579 1.58579 1.25 2 1.25H4.9984C5.41261 1.25 5.7484 1.58579 5.7484 2V2.75098H18.248V2.00195C18.248 1.58774 18.5838 1.25195 18.998 1.25195H21.9964C22.4107 1.25195 22.7464 1.58774 22.7464 2.00195V5.00035C22.7464 5.41457 22.4107 5.75035 21.9964 5.75035H21.2471V18.252H21.9964C22.4107 18.252 22.7464 18.5877 22.7464 19.002V22.0004C22.7464 22.4146 22.4107 22.7504 21.9964 22.7504H18.998C18.5838 22.7504 18.248 22.4146 18.248 22.0004V21.251H5.7484V21.9984C5.7484 22.4126 5.41261 22.7484 4.9984 22.7484H2C1.58579 22.7484 1.25 22.4126 1.25 21.9984V19C1.25 18.5858 1.58579 18.25 2 18.25H2.74902V5.7484H2C1.58579 5.7484 1.25 5.41261 1.25 4.9984V2ZM3.52226 4.2484C3.51454 4.24817 3.5068 4.24805 3.49902 4.24805C3.49125 4.24805 3.4835 4.24817 3.47579 4.2484H2.75V2.75H4.2484V3.47774C4.24817 3.48546 4.24805 3.4932 4.24805 3.50098C4.24805 3.50875 4.24817 3.5165 4.2484 3.52421V4.2484H3.52226ZM4.24902 5.7484V18.25H4.9984C5.41261 18.25 5.7484 18.5858 5.7484 19V19.751H18.248V19.002C18.248 18.5877 18.5838 18.252 18.998 18.252H19.7471V5.75035H18.998C18.5838 5.75035 18.248 5.41457 18.248 5.00035V4.25098H5.7484V4.9984C5.7484 5.41261 5.41261 5.7484 4.9984 5.7484H4.24902ZM20.5329 4.25035C20.521 4.24979 20.5091 4.24951 20.4971 4.24951C20.4851 4.24951 20.4731 4.24979 20.4612 4.25035H19.748V3.51848C19.7482 3.51266 19.7482 3.50683 19.7482 3.50098C19.7482 3.49513 19.7482 3.48929 19.748 3.48347V2.75195H21.2464V4.25035H20.5329ZM19.748 20.5185C19.7482 20.5127 19.7482 20.5068 19.7482 20.501C19.7482 20.4951 19.7482 20.4893 19.748 20.4835V19.752H21.2464V21.2504H19.748V20.5185ZM4.2484 20.4777V19.75H3.50542C3.50329 19.75 3.50116 19.75 3.49902 19.75C3.49689 19.75 3.49476 19.75 3.49263 19.75H2.75V21.2484H4.2484V20.5242C4.24817 20.5165 4.24805 20.5088 4.24805 20.501C4.24805 20.4932 4.24817 20.4855 4.2484 20.4777Z" fill="black"/>
</g>
</g>
</g>
<defs>
<clipPath id="clip0_232_4738">
<rect width="24" height="24" rx="5" fill="white"/>
</clipPath>
</defs>
</svg>
