<svg width="24" height="24" viewBox="0 0 24 24" fill="none" xmlns="http://www.w3.org/2000/svg">
<g id="frame-select">
<g clip-path="url(#clip0_232_4794)">
<g id="Weight=Dynamic">
<path id="Vector (Stroke)" fill-rule="evenodd" clip-rule="evenodd" d="M1.25 2C1.25 1.58579 1.58579 1.25 2 1.25H4.9984C5.41261 1.25 5.7484 1.58579 5.7484 2V2.75098H18.249V2.00195C18.249 1.58774 18.5848 1.25195 18.999 1.25195H21.9974C22.4116 1.25195 22.7474 1.58774 22.7474 2.00195V5.00035C22.7474 5.41457 22.4116 5.75035 21.9974 5.75035H21.248V18.252H21.9974C22.4116 18.252 22.7474 18.5877 22.7474 19.002V22.0004C22.7474 22.4146 22.4116 22.7504 21.9974 22.7504H18.999C18.5848 22.7504 18.249 22.4146 18.249 22.0004V21.251H5.7484V21.9984C5.7484 22.4126 5.41261 22.7484 4.9984 22.7484H2C1.58579 22.7484 1.25 22.4126 1.25 21.9984V19C1.25 18.5858 1.58579 18.25 2 18.25H2.75V5.7484H2C1.58579 5.7484 1.25 5.41261 1.25 4.9984V2ZM4.25 5.7484V18.25H4.9984C5.41261 18.25 5.7484 18.5858 5.7484 19V19.751H18.249V19.002C18.249 18.5877 18.5848 18.252 18.999 18.252H19.748V5.75035H18.999C18.5848 5.75035 18.249 5.41457 18.249 5.00035V4.25098H5.7484V4.9984C5.7484 5.41261 5.41261 5.7484 4.9984 5.7484H4.25ZM4.2484 4.2484V2.75H2.75V4.2484H4.2484ZM20.5213 4.25035C20.5136 4.25012 20.5058 4.25 20.498 4.25C20.4903 4.25 20.4825 4.25012 20.4748 4.25035H19.749V2.75195H21.2474V4.25035H20.5213ZM19.749 21.2504H21.2474V19.752H20.5044C20.5023 19.752 20.5002 19.752 20.498 19.752C20.4959 19.752 20.4938 19.752 20.4917 19.752H19.749V21.2504ZM4.2484 21.2484V19.75H3.52805C3.51875 19.7503 3.50939 19.7505 3.5 19.7505C3.49061 19.7505 3.48125 19.7503 3.47195 19.75H2.75V21.2484H4.2484ZM7.46625 7.47162C7.6831 7.25477 8.01014 7.19179 8.29202 7.31259L15.2921 10.3126C15.5783 10.4353 15.7589 10.722 15.746 11.0332C15.733 11.3443 15.5291 11.615 15.2337 11.7135L13.3862 12.3291L15.5275 14.4718C15.8203 14.7648 15.8202 15.2397 15.5272 15.5325C15.2342 15.8253 14.7593 15.8251 14.4665 15.5321L12.3256 13.3897L11.708 15.2395C11.6094 15.5348 11.3387 15.7384 11.0276 15.7513C10.7165 15.7642 10.4299 15.5835 10.3073 15.2974L7.30722 8.2974C7.18642 8.01551 7.2494 7.68848 7.46625 7.47162ZM9.42455 9.42991L10.9095 12.8947L11.2872 11.7634C11.3619 11.5396 11.5376 11.364 11.7615 11.2894L12.8877 10.9141L9.42455 9.42991Z" fill="black"/>
</g>
</g>
</g>
<defs>
<clipPath id="clip0_232_4794">
<rect width="24" height="24" rx="5" fill="white"/>
</clipPath>
</defs>
</svg>
