<svg width="24" height="24" viewBox="0 0 24 24" fill="none" xmlns="http://www.w3.org/2000/svg">
<g id="fx-tag">
<g clip-path="url(#clip0_232_12401)">
<g id="Weight=Dynamic">
<path id="Vector (Stroke)" fill-rule="evenodd" clip-rule="evenodd" d="M8 3.75C5.10051 3.75 2.75 6.10051 2.75 9V15C2.75 17.8995 5.10051 20.25 8 20.25H16C18.8995 20.25 21.25 17.8995 21.25 15V9C21.25 6.10051 18.8995 3.75 16 3.75H8ZM1.25 9C1.25 5.27208 4.27208 2.25 8 2.25H16C19.7279 2.25 22.75 5.27208 22.75 9V15C22.75 18.7279 19.7279 21.75 16 21.75H8C4.27208 21.75 1.25 18.7279 1.25 15V9ZM12.5199 8.42383C12.8381 8.15866 13.311 8.20165 13.5762 8.51986L15.5 10.8285L17.4238 8.51986C17.689 8.20165 18.1619 8.15866 18.4801 8.42383C18.7983 8.68901 18.8413 9.16193 18.5762 9.48014L16.4763 12L18.5762 14.5199C18.8413 14.8381 18.7983 15.311 18.4801 15.5762C18.1619 15.8413 17.689 15.7983 17.4238 15.4801L15.5 13.1715L13.5762 15.4801C13.311 15.7983 12.8381 15.8413 12.5199 15.5762C12.2017 15.311 12.1587 14.8381 12.4238 14.5199L14.5237 12L12.4238 9.48014C12.1587 9.16193 12.2017 8.68901 12.5199 8.42383ZM5.25 9C5.25 8.58579 5.58579 8.25 6 8.25H11C11.4142 8.25 11.75 8.58579 11.75 9C11.75 9.41421 11.4142 9.75 11 9.75H6.75V11.25H9.57129C9.9855 11.25 10.3213 11.5858 10.3213 12C10.3213 12.4142 9.9855 12.75 9.57129 12.75H6.75V15C6.75 15.4142 6.41421 15.75 6 15.75C5.58579 15.75 5.25 15.4142 5.25 15V12.0146C5.24991 12.0098 5.24986 12.0049 5.24986 12C5.24986 11.9951 5.24991 11.9902 5.25 11.9854V9Z" fill="black"/>
</g>
</g>
</g>
<defs>
<clipPath id="clip0_232_12401">
<rect width="24" height="24" rx="5" fill="white"/>
</clipPath>
</defs>
</svg>
