<svg width="24" height="24" viewBox="0 0 24 24" fill="none" xmlns="http://www.w3.org/2000/svg">
<g id="fx">
<g clip-path="url(#clip0_232_12426)">
<g id="Weight=Dynamic">
<path id="Vector (Stroke)" fill-rule="evenodd" clip-rule="evenodd" d="M12.5315 6.41435C12.8549 6.15559 13.3269 6.20803 13.5857 6.53148L17 10.7994L20.4143 6.53148C20.6731 6.20803 21.1451 6.15559 21.4685 6.41435C21.792 6.6731 21.8444 7.14507 21.5857 7.46852L17.9605 12L21.5857 16.5315C21.8444 16.8549 21.792 17.3269 21.4685 17.5856C21.1451 17.8444 20.6731 17.792 20.4143 17.4685L17 13.2006L13.5857 17.4685C13.3269 17.792 12.8549 17.8444 12.5315 17.5856C12.208 17.3269 12.1556 16.8549 12.4143 16.5315L16.0395 12L12.4143 7.46852C12.1556 7.14507 12.208 6.6731 12.5315 6.41435ZM2.25 7C2.25 6.58578 2.58579 6.25 3 6.25H10C10.4142 6.25 10.75 6.58578 10.75 7C10.75 7.41421 10.4142 7.75 10 7.75H3.75V11.25H8C8.41421 11.25 8.75 11.5858 8.75 12C8.75 12.4142 8.41421 12.75 8 12.75H3.75V17C3.75 17.4142 3.41421 17.75 3 17.75C2.58579 17.75 2.25 17.4142 2.25 17V7Z" fill="black"/>
</g>
</g>
</g>
<defs>
<clipPath id="clip0_232_12426">
<rect width="24" height="24" rx="5" fill="white"/>
</clipPath>
</defs>
</svg>
