<svg width="24" height="24" viewBox="0 0 24 24" fill="none" xmlns="http://www.w3.org/2000/svg">
<g id="gamepad">
<g clip-path="url(#clip0_232_8024)">
<g id="Weight=Dynamic">
<path id="Vector (Stroke)" fill-rule="evenodd" clip-rule="evenodd" d="M2.89345 5.33265C3.20013 4.10921 4.29951 3.25 5.56164 3.25H18.4385C19.6984 3.25 20.7973 4.10202 21.1215 5.31413C21.5239 6.81865 22.2984 9.67175 23.7227 14.7993C24.2869 16.8303 23.4011 18.6951 21.8987 19.5036C21.146 19.9087 20.249 20.0396 19.3467 19.7888C18.4451 19.5382 17.5952 18.9235 16.8898 17.9359C16.649 17.5989 16.7271 17.1305 17.0641 16.8897C17.4012 16.6489 17.8696 16.727 18.1104 17.0641C18.655 17.8265 19.2361 18.2012 19.7484 18.3436C20.2599 18.4858 20.7595 18.4133 21.1879 18.1827C22.0477 17.72 22.6619 16.5849 22.2774 15.2007C20.8524 10.0705 20.0765 7.21247 19.6724 5.70173C19.5224 5.14071 19.0141 4.75 18.4385 4.75H5.56164C4.9883 4.75 4.48804 5.14041 4.34844 5.69736C3.50875 9.04719 2.75797 11.9928 1.86687 15.2007C1.48239 16.5849 2.09663 17.72 2.95641 18.1827C3.3848 18.4133 3.88438 18.4858 4.39592 18.3436C4.90822 18.2012 5.48933 17.8265 6.03394 17.0641C6.27469 16.727 6.74311 16.6489 7.08017 16.8897C7.41723 17.1305 7.49529 17.5989 7.25454 17.9359C6.54915 18.9235 5.69918 19.5382 4.79762 19.7888C3.89531 20.0396 2.99826 19.9087 2.24557 19.5036C0.743197 18.6951 -0.142567 16.8303 0.421598 14.7993C1.30741 11.6103 2.05444 8.67979 2.89345 5.33265ZM15.9326 6.49828C16.2096 6.1904 16.6839 6.16543 16.9917 6.44253L17.0029 6.45253C17.3107 6.72962 17.3357 7.20384 17.0586 7.51172C16.7815 7.8196 16.3073 7.84457 15.9994 7.56747L15.9883 7.55747C15.6804 7.28038 15.6555 6.80616 15.9326 6.49828ZM7.00003 6.25C7.41424 6.25 7.75003 6.58579 7.75003 7V7.75H8.50003C8.91424 7.75 9.25003 8.08579 9.25003 8.5C9.25003 8.91421 8.91424 9.25 8.50003 9.25H7.75003V10C7.75003 10.4142 7.41424 10.75 7.00003 10.75C6.58581 10.75 6.25003 10.4142 6.25003 10V9.25H5.50003C5.08581 9.25 4.75003 8.91421 4.75003 8.5C4.75003 8.08579 5.08581 7.75 5.50003 7.75H6.25003V7C6.25003 6.58579 6.58581 6.25 7.00003 6.25ZM14.4423 7.99827C14.7194 7.69039 15.1936 7.66544 15.5015 7.94253L15.5126 7.95253C15.8205 8.22963 15.8455 8.70385 15.5684 9.01173C15.2913 9.31961 14.8171 9.34456 14.5092 9.06747L14.4981 9.05747C14.1902 8.78037 14.1652 8.30616 14.4423 7.99827ZM17.4423 7.9983C17.7194 7.6904 18.1936 7.66543 18.5015 7.94251L18.5126 7.95251C18.8205 8.22959 18.8455 8.70381 18.5684 9.0117C18.2913 9.3196 17.8171 9.34457 17.5092 9.06749L17.4981 9.05749C17.1902 8.78041 17.1652 8.30619 17.4423 7.9983ZM15.9326 9.49827C16.2097 9.19039 16.6839 9.16544 16.9918 9.44253L17.0029 9.45253C17.3107 9.72963 17.3357 10.2038 17.0586 10.5117C16.7815 10.8196 16.3073 10.8446 15.9994 10.5675L15.9883 10.5575C15.6804 10.2804 15.6555 9.80616 15.9326 9.49827ZM8.00003 12.75C7.30967 12.75 6.75003 13.3096 6.75003 14C6.75003 14.6904 7.30967 15.25 8.00003 15.25C8.69038 15.25 9.25003 14.6904 9.25003 14C9.25003 13.3096 8.69038 12.75 8.00003 12.75ZM5.25003 14C5.25003 12.4812 6.48124 11.25 8.00003 11.25C9.51881 11.25 10.75 12.4812 10.75 14C10.75 15.5188 9.51881 16.75 8.00003 16.75C6.48124 16.75 5.25003 15.5188 5.25003 14ZM16 12.75C15.3097 12.75 14.75 13.3096 14.75 14C14.75 14.6904 15.3097 15.25 16 15.25C16.6904 15.25 17.25 14.6904 17.25 14C17.25 13.3096 16.6904 12.75 16 12.75ZM13.25 14C13.25 12.4812 14.4812 11.25 16 11.25C17.5188 11.25 18.75 12.4812 18.75 14C18.75 15.5188 17.5188 16.75 16 16.75C14.4812 16.75 13.25 15.5188 13.25 14Z" fill="black"/>
</g>
</g>
</g>
<defs>
<clipPath id="clip0_232_8024">
<rect width="24" height="24" rx="5" fill="white"/>
</clipPath>
</defs>
</svg>
