<svg width="24" height="24" viewBox="0 0 24 24" fill="none" xmlns="http://www.w3.org/2000/svg">
<g id="garage">
<g clip-path="url(#clip0_232_17510)">
<g id="Weight=Dynamic">
<path id="Vector (Stroke)" fill-rule="evenodd" clip-rule="evenodd" d="M11.8373 3.26786C11.9445 3.24405 12.0555 3.24405 12.1627 3.26786L21.1627 5.26786C21.5059 5.34412 21.75 5.64848 21.75 6V20C21.75 20.4142 21.4142 20.75 21 20.75H3C2.58579 20.75 2.25 20.4142 2.25 20V6C2.25 5.64848 2.49415 5.34412 2.8373 5.26786L11.8373 3.26786ZM3.75 6.60163V19.25H5.25V8C5.25 7.58579 5.58579 7.25 6 7.25H18C18.4142 7.25 18.75 7.58579 18.75 8V19.25H20.25V6.60163L12 4.7683L3.75 6.60163ZM17.25 19.25V16.75H6.75V19.25H17.25ZM6.75 15.25H17.25V12.75H6.75V15.25ZM6.75 11.25H17.25V8.75H6.75V11.25Z" fill="black"/>
</g>
</g>
</g>
<defs>
<clipPath id="clip0_232_17510">
<rect width="24" height="24" rx="5" fill="white"/>
</clipPath>
</defs>
</svg>
