<svg width="24" height="24" viewBox="0 0 24 24" fill="none" xmlns="http://www.w3.org/2000/svg">
<g id="gas-tank">
<g clip-path="url(#clip0_232_15764)">
<g id="Weight=Dynamic">
<path id="Vector (Stroke)" fill-rule="evenodd" clip-rule="evenodd" d="M6.24862 2.99999C6.24862 2.58517 6.5849 2.2489 6.99971 2.2489H12.0001C12.4149 2.2489 12.7512 2.58517 12.7512 2.99999V4.2491H14.0017C18.281 4.2491 21.7512 7.71835 21.7512 11.9977V18.4399C21.7512 19.3173 21.4022 20.1615 20.7803 20.7827C20.1591 21.4032 19.3167 21.7529 18.4369 21.7529H5.5633C4.68347 21.7529 3.84109 21.4032 3.21993 20.7827C2.59803 20.1615 2.24902 19.3174 2.24902 18.4399V7.56206C2.24902 5.7326 3.732 4.2491 5.5633 4.2491H6.24862V2.99999ZM6.9997 5.75127H5.5633C4.5614 5.75127 3.75119 6.56244 3.75119 7.56206V18.4399C3.75119 18.9194 3.94221 19.381 4.28151 19.7199C4.62155 20.0596 5.08234 20.2507 5.5633 20.2507H18.4369C18.9179 20.2507 19.3787 20.0596 19.7187 19.7199C20.058 19.381 20.249 18.9194 20.249 18.4399V11.9977C20.249 8.5482 17.4516 5.75127 14.0017 5.75127H12.0001C11.5853 5.75127 11.249 5.415 11.249 5.00019V3.75107H7.75079V5.00019C7.75079 5.415 7.41451 5.75127 6.9997 5.75127ZM16.5233 8.33508C16.8209 8.624 16.828 9.09951 16.539 9.39715L13.0469 12.9947L16.5389 16.5922C16.8278 16.8898 16.8209 17.3654 16.5233 17.6543C16.2257 17.9433 15.7503 17.9363 15.4613 17.6387L11.9992 14.074L8.53904 17.6386C8.25012 17.9363 7.77461 17.9433 7.47696 17.6544C7.17932 17.3655 7.17225 16.89 7.46117 16.5923L10.9522 12.9959L7.46131 9.40144C7.17231 9.10387 7.17926 8.62836 7.47683 8.33936C7.7744 8.05036 8.24991 8.05731 8.53891 8.35488L11.999 11.9176L15.4612 8.35087C15.7501 8.05322 16.2256 8.04615 16.5233 8.33508Z" fill="black"/>
</g>
</g>
</g>
<defs>
<clipPath id="clip0_232_15764">
<rect width="24" height="24" rx="5" fill="white"/>
</clipPath>
</defs>
</svg>
