<svg width="24" height="24" viewBox="0 0 24 24" fill="none" xmlns="http://www.w3.org/2000/svg">
<g id="gas-tank-droplet">
<g clip-path="url(#clip0_232_15772)">
<g id="Weight=Dynamic">
<path id="Vector (Stroke)" fill-rule="evenodd" clip-rule="evenodd" d="M6.2496 2.99999C6.2496 2.5858 6.58537 2.25003 6.99956 2.25003H12C12.4142 2.25003 12.7499 2.5858 12.7499 2.99999V4.25023H14.0016C18.2802 4.25023 21.7499 7.71898 21.7499 11.9977V18.4399C21.7499 19.3171 21.4011 20.161 20.7794 20.7819C20.1584 21.4022 19.3163 21.7518 18.4367 21.7518H5.56316C4.68362 21.7518 3.84153 21.4022 3.22058 20.7819C2.59889 20.161 2.25 19.3171 2.25 18.4399V7.56207C2.25 5.73323 3.73247 4.25023 5.56316 4.25023H6.2496V2.99999ZM6.99956 5.75016H5.56316C4.56064 5.75016 3.74993 6.56183 3.74993 7.56207V18.4399C3.74993 18.9197 3.94106 19.3816 4.28058 19.7207C4.62083 20.0606 5.08189 20.2518 5.56316 20.2518H18.4367C18.918 20.2518 19.3791 20.0606 19.7194 19.7207C20.0589 19.3816 20.25 18.9197 20.25 18.4399V11.9977C20.25 8.54759 17.4521 5.75016 14.0016 5.75016H12C11.5858 5.75016 11.25 5.41439 11.25 5.00019V3.74996H7.74953V5.00019C7.74953 5.41439 7.41375 5.75016 6.99956 5.75016ZM12.5288 8.4691L11.999 8.99999L11.4685 8.46997C11.7611 8.17706 12.2357 8.17667 12.5288 8.4691ZM15.7493 13.8864C15.7492 13.2361 15.4987 12.567 15.1974 11.9813C14.8886 11.381 14.4854 10.7907 14.0958 10.279C13.7042 9.7647 13.3144 9.3145 13.0234 8.99354C12.8775 8.83264 12.7555 8.70319 12.6693 8.61324C12.6261 8.56825 12.5918 8.53308 12.568 8.50873L12.54 8.48044L12.5323 8.4726L12.5288 8.4691C12.5286 8.469 12.5288 8.4691 11.999 8.99999C11.4685 8.46997 11.4686 8.46986 11.4685 8.46997L11.4673 8.47117L11.465 8.47347L11.4572 8.4813L11.4294 8.50957C11.4056 8.53391 11.3715 8.56906 11.3285 8.61404C11.2425 8.70395 11.1209 8.83335 10.9755 8.99419C10.6854 9.31503 10.2968 9.76507 9.90609 10.2792C9.51727 10.7907 9.11485 11.3807 8.80594 11.9806C8.50444 12.5661 8.25336 13.2339 8.25001 13.8826L8.25002 13.8919C8.26495 15.9526 9.92497 17.6365 11.9997 17.6365C14.0693 17.6365 15.7497 15.9564 15.7493 13.8864ZM11.9999 10.0984C11.7418 10.3877 11.4204 10.7655 11.1003 11.1868C10.7405 11.6601 10.3938 12.1733 10.1395 12.6673C9.87899 13.1731 9.75269 13.588 9.74995 13.886C9.76162 15.1345 10.765 16.1365 11.9997 16.1365C13.2411 16.1365 14.2497 15.128 14.2494 13.8867C14.2494 13.5903 14.1248 13.1753 13.8635 12.6674C13.6097 12.174 13.2628 11.6609 12.9024 11.1877C12.5813 10.766 12.2588 10.3879 11.9999 10.0984Z" fill="black"/>
</g>
</g>
</g>
<defs>
<clipPath id="clip0_232_15772">
<rect width="24" height="24" rx="5" fill="white"/>
</clipPath>
</defs>
</svg>
