<svg width="24" height="24" viewBox="0 0 24 24" fill="none" xmlns="http://www.w3.org/2000/svg">
<g id="gas">
<g clip-path="url(#clip0_232_11980)">
<g id="Weight=Dynamic">
<path id="Vector (Stroke)" fill-rule="evenodd" clip-rule="evenodd" d="M10.25 2C10.25 1.58579 10.5858 1.25 11 1.25H13C13.4142 1.25 13.75 1.58579 13.75 2C13.75 2.41421 13.4142 2.75 13 2.75H12.75V4.32501C14.4617 4.67247 15.75 6.18578 15.75 8V21.4C15.75 22.1456 15.1456 22.75 14.4 22.75H9.6C8.85441 22.75 8.25 22.1456 8.25 21.4V8C8.25 6.18578 9.53832 4.67247 11.25 4.32501V2.75H11C10.5858 2.75 10.25 2.41421 10.25 2ZM9.75 11.75V21.25H14.25V11.75H9.75ZM14.25 10.25H9.75V8C9.75 6.75736 10.7574 5.75 12 5.75C13.2426 5.75 14.25 6.75736 14.25 8V10.25Z" fill="black"/>
</g>
</g>
</g>
<defs>
<clipPath id="clip0_232_11980">
<rect width="24" height="24" rx="5" fill="white"/>
</clipPath>
</defs>
</svg>
