<svg width="24" height="24" viewBox="0 0 24 24" fill="none" xmlns="http://www.w3.org/2000/svg">
<g id="gif-format">
<g clip-path="url(#clip0_232_12610)">
<g id="Weight=Dynamic">
<path id="Vector (Stroke)" fill-rule="evenodd" clip-rule="evenodd" d="M3.25 3.6C3.25 2.85441 3.85442 2.25 4.6 2.25H19.4C20.1456 2.25 20.75 2.85442 20.75 3.6V6C20.75 6.41421 20.4142 6.75 20 6.75C19.5858 6.75 19.25 6.41421 19.25 6V3.75H4.75V6C4.75 6.41421 4.41421 6.75 4 6.75C3.58579 6.75 3.25 6.41421 3.25 6V3.6ZM4.75 9C4.75 8.58579 5.08579 8.25 5.5 8.25H8.5C8.91421 8.25 9.25 8.58579 9.25 9C9.25 9.41421 8.91421 9.75 8.5 9.75H6.25V14.25H7.75V12.6C7.75 12.1858 8.08579 11.85 8.5 11.85C8.91421 11.85 9.25 12.1858 9.25 12.6V15C9.25 15.4142 8.91421 15.75 8.5 15.75H5.5C5.08579 15.75 4.75 15.4142 4.75 15V9ZM12 8.25C12.4142 8.25 12.75 8.58579 12.75 9V15C12.75 15.4142 12.4142 15.75 12 15.75C11.5858 15.75 11.25 15.4142 11.25 15V9C11.25 8.58579 11.5858 8.25 12 8.25ZM14.75 9C14.75 8.58579 15.0858 8.25 15.5 8.25H18.5C18.9142 8.25 19.25 8.58579 19.25 9C19.25 9.41421 18.9142 9.75 18.5 9.75H16.25V11.25H17.5C17.9142 11.25 18.25 11.5858 18.25 12C18.25 12.4142 17.9142 12.75 17.5 12.75H16.25V15C16.25 15.4142 15.9142 15.75 15.5 15.75C15.0858 15.75 14.75 15.4142 14.75 15V9ZM4 17.25C4.41421 17.25 4.75 17.5858 4.75 18V20.25H19.25V18C19.25 17.5858 19.5858 17.25 20 17.25C20.4142 17.25 20.75 17.5858 20.75 18V20.4C20.75 21.1456 20.1456 21.75 19.4 21.75H4.6C3.85442 21.75 3.25 21.1456 3.25 20.4V18C3.25 17.5858 3.58579 17.25 4 17.25Z" fill="black"/>
</g>
</g>
</g>
<defs>
<clipPath id="clip0_232_12610">
<rect width="24" height="24" rx="5" fill="white"/>
</clipPath>
</defs>
</svg>
