<svg width="24" height="24" viewBox="0 0 24 24" fill="none" xmlns="http://www.w3.org/2000/svg">
<g id="git-cherry-pick-commit">
<g clip-path="url(#clip0_232_8661)">
<g id="Weight=Dynamic">
<path id="Vector (Stroke)" fill-rule="evenodd" clip-rule="evenodd" d="M12 3.25C12.4142 3.25 12.75 3.58579 12.75 4V7.25H15C16.5188 7.25 17.75 8.48122 17.75 10V11C17.75 11.4142 17.4142 11.75 17 11.75C16.5858 11.75 16.25 11.4142 16.25 11V10C16.25 9.30964 15.6904 8.75 15 8.75H9C8.30964 8.75 7.75 9.30964 7.75 10V11C7.75 11.4142 7.41421 11.75 7 11.75C6.58579 11.75 6.25 11.4142 6.25 11V10C6.25 8.48122 7.48122 7.25 9 7.25H11.25V4C11.25 3.58579 11.5858 3.25 12 3.25ZM12 14.75C10.7574 14.75 9.75 15.7574 9.75 17C9.75 18.2426 10.7574 19.25 12 19.25C13.2426 19.25 14.25 18.2426 14.25 17C14.25 15.7574 13.2426 14.75 12 14.75ZM8.32501 16.25C8.67247 14.5383 10.1858 13.25 12 13.25C13.8142 13.25 15.3275 14.5383 15.675 16.25H21C21.4142 16.25 21.75 16.5858 21.75 17C21.75 17.4142 21.4142 17.75 21 17.75H15.675C15.3275 19.4617 13.8142 20.75 12 20.75C10.1858 20.75 8.67247 19.4617 8.32501 17.75H3C2.58579 17.75 2.25 17.4142 2.25 17C2.25 16.5858 2.58579 16.25 3 16.25H8.32501Z" fill="black"/>
</g>
</g>
</g>
<defs>
<clipPath id="clip0_232_8661">
<rect width="24" height="24" rx="5" fill="white"/>
</clipPath>
</defs>
</svg>
