<svg width="24" height="24" viewBox="0 0 24 24" fill="none" xmlns="http://www.w3.org/2000/svg">
<g id="git-pull-request-closed">
<g clip-path="url(#clip0_232_8673)">
<g id="Weight=Dynamic">
<path id="Vector (Stroke)" fill-rule="evenodd" clip-rule="evenodd" d="M3.46967 2.46967C3.76256 2.17678 4.23744 2.17678 4.53033 2.46967L6.12132 4.06066L7.71231 2.46967C8.0052 2.17678 8.48008 2.17678 8.77297 2.46967C9.06586 2.76256 9.06586 3.23744 8.77297 3.53033L7.18198 5.12132L8.77297 6.71231C9.06586 7.0052 9.06586 7.48008 8.77297 7.77297C8.48008 8.06586 8.0052 8.06586 7.71231 7.77297L6.12132 6.18198L4.53033 7.77297C4.23744 8.06586 3.76256 8.06586 3.46967 7.77297C3.17678 7.48008 3.17678 7.0052 3.46967 6.71231L5.06066 5.12132L3.46967 3.53033C3.17678 3.23744 3.17678 2.76256 3.46967 2.46967ZM11.25 5C11.25 4.58579 11.5858 4.25 12 4.25H16C16.6312 4.25 17.1545 4.40996 17.5723 4.68846C17.9853 4.96383 18.2513 5.32562 18.4208 5.66459C18.5888 6.00063 18.6691 6.32758 18.7085 6.5642C18.7286 6.68429 18.7389 6.786 18.7442 6.86063C18.7469 6.89807 18.7483 6.92906 18.7491 6.95255L18.7498 6.98217L18.75 6.9926L18.75 6.99668L18.75 6.99844C18.75 6.99882 18.75 7 18 7H18.75V16.3535C19.9043 16.68 20.75 17.7412 20.75 19C20.75 20.5188 19.5188 21.75 18 21.75C16.4812 21.75 15.25 20.5188 15.25 19C15.25 17.7412 16.0957 16.68 17.25 16.3535V7.00486C17.25 7.00426 17.25 7.00348 17.2499 7.00253C17.2497 6.99672 17.2492 6.98475 17.248 6.9675C17.2455 6.93275 17.2402 6.87821 17.229 6.8108C17.2059 6.67242 17.1612 6.49937 17.0792 6.33541C16.9987 6.17438 16.8897 6.03617 16.7402 5.93654C16.5955 5.84004 16.3688 5.75 16 5.75H12C11.5858 5.75 11.25 5.41421 11.25 5ZM17.25 7.00636C17.25 7.00645 17.25 7.00646 17.25 7.00636V7.00636ZM6 10.25C6.41421 10.25 6.75 10.5858 6.75 11V16.3535C7.90425 16.68 8.75 17.7412 8.75 19C8.75 20.5188 7.51878 21.75 6 21.75C4.48122 21.75 3.25 20.5188 3.25 19C3.25 17.7412 4.09575 16.68 5.25 16.3535V11C5.25 10.5858 5.58579 10.25 6 10.25ZM6 17.75C5.30964 17.75 4.75 18.3096 4.75 19C4.75 19.6904 5.30964 20.25 6 20.25C6.69036 20.25 7.25 19.6904 7.25 19C7.25 18.3096 6.69036 17.75 6 17.75ZM18 17.75C17.3096 17.75 16.75 18.3096 16.75 19C16.75 19.6904 17.3096 20.25 18 20.25C18.6904 20.25 19.25 19.6904 19.25 19C19.25 18.3096 18.6904 17.75 18 17.75Z" fill="black"/>
</g>
</g>
</g>
<defs>
<clipPath id="clip0_232_8673">
<rect width="24" height="24" rx="5" fill="white"/>
</clipPath>
</defs>
</svg>
