<svg width="24" height="24" viewBox="0 0 24 24" fill="none" xmlns="http://www.w3.org/2000/svg">
<g id="git-fork">
<g clip-path="url(#clip0_232_8597)">
<g id="Weight=Dynamic">
<g id="Vector">
<path fill-rule="evenodd" clip-rule="evenodd" d="M17 3.75C16.3096 3.75 15.75 4.30964 15.75 5C15.75 5.69036 16.3096 6.25 17 6.25C17.6904 6.25 18.25 5.69036 18.25 5C18.25 4.30964 17.6904 3.75 17 3.75ZM14.25 5C14.25 3.48122 15.4812 2.25 17 2.25C18.5188 2.25 19.75 3.48122 19.75 5C19.75 6.51878 18.5188 7.75 17 7.75C15.4812 7.75 14.25 6.51878 14.25 5Z" fill="black"/>
<path fill-rule="evenodd" clip-rule="evenodd" d="M7 3.75C6.30964 3.75 5.75 4.30964 5.75 5C5.75 5.69036 6.30964 6.25 7 6.25C7.69036 6.25 8.25 5.69036 8.25 5C8.25 4.30964 7.69036 3.75 7 3.75ZM4.25 5C4.25 3.48122 5.48122 2.25 7 2.25C8.51878 2.25 9.75 3.48122 9.75 5C9.75 6.51878 8.51878 7.75 7 7.75C5.48122 7.75 4.25 6.51878 4.25 5Z" fill="black"/>
<path fill-rule="evenodd" clip-rule="evenodd" d="M7 17.75C6.30964 17.75 5.75 18.3096 5.75 19C5.75 19.6904 6.30964 20.25 7 20.25C7.69036 20.25 8.25 19.6904 8.25 19C8.25 18.3096 7.69036 17.75 7 17.75ZM4.25 19C4.25 17.4812 5.48122 16.25 7 16.25C8.51878 16.25 9.75 17.4812 9.75 19C9.75 20.5188 8.51878 21.75 7 21.75C5.48122 21.75 4.25 20.5188 4.25 19Z" fill="black"/>
<path fill-rule="evenodd" clip-rule="evenodd" d="M7 6.25C7.41421 6.25 7.75 6.58579 7.75 7V17C7.75 17.4142 7.41421 17.75 7 17.75C6.58579 17.75 6.25 17.4142 6.25 17V7C6.25 6.58579 6.58579 6.25 7 6.25Z" fill="black"/>
<path fill-rule="evenodd" clip-rule="evenodd" d="M17 6.25C17.4142 6.25 17.75 6.58579 17.75 7V8C17.75 9.48126 17.145 10.4322 16.4939 11.0019C16.1781 11.2782 15.8631 11.4555 15.625 11.5646C15.5053 11.6195 15.4031 11.658 15.3269 11.6839C15.2888 11.6968 15.2569 11.7066 15.2325 11.7138C15.2271 11.7153 15.2222 11.7168 15.2175 11.7181L9.23717 13.7115C9.22138 13.7168 9.20542 13.7215 9.18931 13.7257C9.18887 13.7258 9.18828 13.726 9.18754 13.7262C9.1827 13.7276 9.17157 13.731 9.15504 13.7366C9.12182 13.7479 9.06783 13.7679 8.99999 13.799C8.8631 13.8617 8.6781 13.9657 8.49388 14.1269C8.14501 14.4322 7.75 14.9813 7.75 16V17C7.75 17.4142 7.41421 17.75 7 17.75C6.58579 17.75 6.25 17.4142 6.25 17V16C6.25 14.5187 6.85499 13.5678 7.50612 12.9981C7.8219 12.7218 8.1369 12.5445 8.37501 12.4354C8.49467 12.3805 8.59693 12.342 8.67309 12.3161C8.71125 12.3032 8.74308 12.2934 8.76754 12.2862C8.77286 12.2847 8.77785 12.2832 8.78247 12.2819L14.7628 10.2885C14.7786 10.2832 14.7946 10.2785 14.8107 10.2743C14.8111 10.2742 14.8117 10.274 14.8125 10.2738C14.8173 10.2724 14.8284 10.269 14.845 10.2634C14.8782 10.2521 14.9322 10.2321 15 10.201C15.1369 10.1383 15.3219 10.0343 15.5061 9.87307C15.855 9.56781 16.25 9.01874 16.25 8V7C16.25 6.58579 16.5858 6.25 17 6.25ZM9.18931 13.7257C9.1874 13.7262 9.18548 13.7267 9.18357 13.7272C9.18349 13.7272 9.18365 13.7272 9.18357 13.7272C9.18309 13.7273 9.18238 13.7275 9.1819 13.7276L9 13C9.1819 13.7276 9.18316 13.7273 9.18357 13.7272L9.1849 13.7269L9.18754 13.7262C9.18828 13.726 9.18887 13.7258 9.18931 13.7257Z" fill="black"/>
</g>
</g>
</g>
</g>
<defs>
<clipPath id="clip0_232_8597">
<rect width="24" height="24" rx="5" fill="white"/>
</clipPath>
</defs>
</svg>
