<svg width="24" height="24" viewBox="0 0 24 24" fill="none" xmlns="http://www.w3.org/2000/svg">
<g id="git-compare">
<g clip-path="url(#clip0_232_8645)">
<g id="Weight=Dynamic">
<path id="Vector (Stroke)" fill-rule="evenodd" clip-rule="evenodd" d="M15.5303 1.96979C15.8232 2.26269 15.8232 2.73756 15.5303 3.03045L14.3108 4.25H16C16.6312 4.25 17.1545 4.40997 17.5723 4.68846C17.9853 4.96383 18.2513 5.32562 18.4208 5.66459C18.5888 6.00063 18.6691 6.32758 18.7085 6.5642C18.7286 6.68429 18.7389 6.786 18.7442 6.86063C18.7469 6.89807 18.7483 6.92906 18.7491 6.95255L18.7498 6.98217L18.75 6.9926L18.75 6.99668L18.75 6.99844C18.75 6.99882 18.75 7 18 7H18.75V16.3535C19.9043 16.68 20.75 17.7412 20.75 19C20.75 20.5188 19.5188 21.75 18 21.75C16.4812 21.75 15.25 20.5188 15.25 19C15.25 17.7412 16.0957 16.68 17.25 16.3535V7.00486C17.25 7.00426 17.25 7.00348 17.2499 7.00253C17.2497 6.99672 17.2492 6.98475 17.248 6.9675C17.2455 6.93275 17.2402 6.87821 17.229 6.8108C17.2059 6.67242 17.1612 6.49937 17.0792 6.33541C16.9987 6.17438 16.8897 6.03617 16.7402 5.93654C16.5955 5.84004 16.3688 5.75 16 5.75H14.3105L15.5303 6.96979C15.8232 7.26269 15.8232 7.73756 15.5303 8.03045C15.2374 8.32335 14.7626 8.32335 14.4697 8.03045L11.9697 5.53045C11.6768 5.23756 11.6768 4.76269 11.9697 4.46979L14.4697 1.96979C14.7626 1.6769 15.2374 1.6769 15.5303 1.96979ZM17.25 7.00636C17.25 7.00645 17.25 7.00646 17.25 7.00636V7.00636ZM6 3.75C5.30964 3.75 4.75 4.30964 4.75 5C4.75 5.69036 5.30964 6.25 6 6.25C6.69036 6.25 7.25 5.69036 7.25 5C7.25 4.30964 6.69036 3.75 6 3.75ZM3.25 5C3.25 3.48122 4.48122 2.25 6 2.25C7.51878 2.25 8.75 3.48122 8.75 5C8.75 6.25878 7.90425 7.32002 6.75 7.64648V16.9951C6.75002 16.9957 6.75004 16.9965 6.75007 16.9975C6.75027 17.0033 6.75077 17.0153 6.752 17.0325C6.75448 17.0673 6.75981 17.1218 6.77105 17.1892C6.79411 17.3276 6.83884 17.5006 6.92082 17.6646C7.00133 17.8256 7.11033 17.9638 7.25978 18.0635C7.40453 18.16 7.63124 18.25 8 18.25H9.18934L7.96967 17.0303C7.67678 16.7374 7.67678 16.2626 7.96967 15.9697C8.26256 15.6768 8.73744 15.6768 9.03033 15.9697L11.5303 18.4697C11.671 18.6103 11.75 18.8011 11.75 19C11.75 19.1989 11.671 19.3897 11.5303 19.5303L9.03033 22.0303C8.73744 22.3232 8.26256 22.3232 7.96967 22.0303C7.67678 21.7374 7.67678 21.2626 7.96967 20.9697L9.18934 19.75H8C7.36876 19.75 6.84547 19.59 6.42773 19.3115C6.01467 19.0362 5.74867 18.6744 5.57918 18.3354C5.41116 17.9994 5.33089 17.6724 5.29145 17.4358C5.27144 17.3157 5.26114 17.214 5.25581 17.1394C5.25314 17.1019 5.25169 17.0709 5.2509 17.0474L5.25016 17.0178L5.25003 17.0074L5.25001 17.0033L5.25 17.0016C5.25 17.0012 5.25 17 6 17H5.25V7.64648C4.09575 7.32002 3.25 6.25878 3.25 5ZM18 17.75C17.3096 17.75 16.75 18.3096 16.75 19C16.75 19.6904 17.3096 20.25 18 20.25C18.6904 20.25 19.25 19.6904 19.25 19C19.25 18.3096 18.6904 17.75 18 17.75Z" fill="black"/>
</g>
</g>
</g>
<defs>
<clipPath id="clip0_232_8645">
<rect width="24" height="24" rx="5" fill="white"/>
</clipPath>
</defs>
</svg>
