<svg width="24" height="24" viewBox="0 0 24 24" fill="none" xmlns="http://www.w3.org/2000/svg">
<g id="git-pull-request">
<g clip-path="url(#clip0_232_8581)">
<g id="Weight=Dynamic">
<path id="Vector (Stroke)" fill-rule="evenodd" clip-rule="evenodd" d="M15.5303 1.96979C15.8232 2.26269 15.8232 2.73756 15.5303 3.03045L14.3108 4.25H16C16.6312 4.25 17.1545 4.40997 17.5723 4.68846C17.9853 4.96383 18.2513 5.32562 18.4208 5.66459C18.5888 6.00063 18.6691 6.32758 18.7085 6.5642C18.7286 6.68429 18.7389 6.786 18.7442 6.86063C18.7469 6.89807 18.7483 6.92906 18.7491 6.95255L18.7498 6.98217L18.75 6.9926L18.75 6.99668L18.75 6.99844C18.75 6.99882 18.75 7 18 7H18.75V16.3535C19.9043 16.68 20.75 17.7412 20.75 19C20.75 20.5188 19.5188 21.75 18 21.75C16.4812 21.75 15.25 20.5188 15.25 19C15.25 17.7412 16.0957 16.68 17.25 16.3535V7.00486C17.25 7.00426 17.25 7.00348 17.2499 7.00253C17.2497 6.99672 17.2492 6.98475 17.248 6.9675C17.2455 6.93275 17.2402 6.87821 17.229 6.8108C17.2059 6.67242 17.1612 6.49937 17.0792 6.33541C16.9987 6.17438 16.8897 6.03617 16.7402 5.93654C16.5955 5.84004 16.3688 5.75 16 5.75H14.3105L15.5303 6.96979C15.8232 7.26269 15.8232 7.73756 15.5303 8.03045C15.2374 8.32335 14.7626 8.32335 14.4697 8.03045L11.9697 5.53045C11.6768 5.23756 11.6768 4.76269 11.9697 4.46979L14.4697 1.96979C14.7626 1.6769 15.2374 1.6769 15.5303 1.96979ZM17.25 7.00636C17.25 7.00645 17.25 7.00646 17.25 7.00636V7.00636ZM6 3.75C5.30964 3.75 4.75 4.30964 4.75 5C4.75 5.69036 5.30964 6.25 6 6.25C6.69036 6.25 7.25 5.69036 7.25 5C7.25 4.30964 6.69036 3.75 6 3.75ZM3.25 5C3.25 3.48122 4.48122 2.25 6 2.25C7.51878 2.25 8.75 3.48122 8.75 5C8.75 6.25878 7.90425 7.32002 6.75 7.64648V16.3535C7.90425 16.68 8.75 17.7412 8.75 19C8.75 20.5188 7.51878 21.75 6 21.75C4.48122 21.75 3.25 20.5188 3.25 19C3.25 17.7412 4.09575 16.68 5.25 16.3535V7.64648C4.09575 7.32002 3.25 6.25878 3.25 5ZM6 17.75C5.30964 17.75 4.75 18.3096 4.75 19C4.75 19.6904 5.30964 20.25 6 20.25C6.69036 20.25 7.25 19.6904 7.25 19C7.25 18.3096 6.69036 17.75 6 17.75ZM18 17.75C17.3096 17.75 16.75 18.3096 16.75 19C16.75 19.6904 17.3096 20.25 18 20.25C18.6904 20.25 19.25 19.6904 19.25 19C19.25 18.3096 18.6904 17.75 18 17.75Z" fill="black"/>
</g>
</g>
</g>
<defs>
<clipPath id="clip0_232_8581">
<rect width="24" height="24" rx="5" fill="white"/>
</clipPath>
</defs>
</svg>
