<svg width="24" height="24" viewBox="0 0 24 24" fill="none" xmlns="http://www.w3.org/2000/svg">
<g id="git-merge">
<g clip-path="url(#clip0_232_8611)">
<g id="Weight=Dynamic">
<path id="Vector (Stroke)" fill-rule="evenodd" clip-rule="evenodd" d="M6 3.75C5.30964 3.75 4.75 4.30964 4.75 5C4.75 5.69036 5.30964 6.25 6 6.25C6.69036 6.25 7.25 5.69036 7.25 5C7.25 4.30964 6.69036 3.75 6 3.75ZM3.25 5C3.25 3.48122 4.48122 2.25 6 2.25C7.51878 2.25 8.75 3.48122 8.75 5C8.75 6.25878 7.90425 7.32002 6.75 7.64648V9C6.75 10.5967 7.32757 12.6852 8.59752 14.3592C9.84848 16.0082 11.7625 17.25 14.5 17.25H15.3535C15.68 16.0957 16.7412 15.25 18 15.25C19.5188 15.25 20.75 16.4812 20.75 18C20.75 19.5188 19.5188 20.75 18 20.75C16.7412 20.75 15.68 19.9043 15.3535 18.75H14.5C11.2375 18.75 8.90152 17.2418 7.40248 15.2658C7.16425 14.9518 6.94695 14.6258 6.75 14.2919V21C6.75 21.4142 6.41421 21.75 6 21.75C5.58579 21.75 5.25 21.4142 5.25 21V7.64648C4.09575 7.32002 3.25 6.25878 3.25 5ZM18 16.75C17.3096 16.75 16.75 17.3096 16.75 18C16.75 18.6904 17.3096 19.25 18 19.25C18.6904 19.25 19.25 18.6904 19.25 18C19.25 17.3096 18.6904 16.75 18 16.75Z" fill="black"/>
</g>
</g>
</g>
<defs>
<clipPath id="clip0_232_8611">
<rect width="24" height="24" rx="5" fill="white"/>
</clipPath>
</defs>
</svg>
