<svg width="24" height="24" viewBox="0 0 24 24" fill="none" xmlns="http://www.w3.org/2000/svg">
<g id="git-branch">
<g clip-path="url(#clip0_232_8633)">
<g id="Weight=Dynamic">
<path id="Vector (Stroke)" fill-rule="evenodd" clip-rule="evenodd" d="M6 2.25C6.41421 2.25 6.75 2.58579 6.75 3V15.3535C7.66584 15.6125 8.38745 16.3342 8.64648 17.25H9C10.6229 17.25 12.7095 16.7583 14.3699 15.5445C15.9981 14.3543 17.25 12.4499 17.25 9.5V8.64648C16.0957 8.32002 15.25 7.25878 15.25 6C15.25 4.48122 16.4812 3.25 18 3.25C19.5188 3.25 20.75 4.48122 20.75 6C20.75 7.25878 19.9043 8.32002 18.75 8.64648V9.5C18.75 12.9501 17.2519 15.2957 15.2551 16.7555C13.2905 18.1917 10.8771 18.75 9 18.75H8.64648C8.32002 19.9043 7.25878 20.75 6 20.75C4.48122 20.75 3.25 19.5188 3.25 18C3.25 16.7412 4.09575 15.68 5.25 15.3535V3C5.25 2.58579 5.58579 2.25 6 2.25ZM18 4.75C17.3096 4.75 16.75 5.30964 16.75 6C16.75 6.69036 17.3096 7.25 18 7.25C18.6904 7.25 19.25 6.69036 19.25 6C19.25 5.30964 18.6904 4.75 18 4.75ZM6 16.75C5.30964 16.75 4.75 17.3096 4.75 18C4.75 18.6904 5.30964 19.25 6 19.25C6.69036 19.25 7.25 18.6904 7.25 18C7.25 17.3096 6.69036 16.75 6 16.75Z" fill="black"/>
</g>
</g>
</g>
<defs>
<clipPath id="clip0_232_8633">
<rect width="24" height="24" rx="5" fill="white"/>
</clipPath>
</defs>
</svg>
