<svg width="24" height="24" viewBox="0 0 24 24" fill="none" xmlns="http://www.w3.org/2000/svg">
<g id="git-commit">
<g clip-path="url(#clip0_232_8623)">
<g id="Weight=Dynamic">
<path id="Vector (Stroke)" fill-rule="evenodd" clip-rule="evenodd" d="M12 9.75C10.7574 9.75 9.75 10.7574 9.75 12C9.75 13.2426 10.7574 14.25 12 14.25C13.2426 14.25 14.25 13.2426 14.25 12C14.25 10.7574 13.2426 9.75 12 9.75ZM8.32501 11.25C8.67247 9.53832 10.1858 8.25 12 8.25C13.8142 8.25 15.3275 9.53832 15.675 11.25H21C21.4142 11.25 21.75 11.5858 21.75 12C21.75 12.4142 21.4142 12.75 21 12.75H15.675C15.3275 14.4617 13.8142 15.75 12 15.75C10.1858 15.75 8.67247 14.4617 8.32501 12.75H3C2.58579 12.75 2.25 12.4142 2.25 12C2.25 11.5858 2.58579 11.25 3 11.25H8.32501Z" fill="black"/>
</g>
</g>
</g>
<defs>
<clipPath id="clip0_232_8623">
<rect width="24" height="24" rx="5" fill="white"/>
</clipPath>
</defs>
</svg>
