<svg width="24" height="24" viewBox="0 0 24 24" fill="none" xmlns="http://www.w3.org/2000/svg">
<g id="git">
<g clip-path="url(#clip0_232_8715)">
<g id="Weight=Dynamic" clip-path="url(#clip1_232_8715)">
<path id="Union" fill-rule="evenodd" clip-rule="evenodd" d="M10.5469 0.395406C11.0741 -0.131801 11.9289 -0.131803 12.4561 0.395406L22.6075 10.5469C23.1347 11.0741 23.1347 11.9289 22.6075 12.4561L12.4561 22.6075C11.9289 23.1347 11.0741 23.1347 10.5469 22.6075L0.395406 12.4561C-0.131801 11.9289 -0.131803 11.0741 0.395406 10.5469L10.5469 0.395406ZM11.5015 1.56213L8.81238 4.25123L10.5319 5.97072C10.8256 5.83014 11.1546 5.75142 11.502 5.75142C12.7446 5.75142 13.752 6.75878 13.752 8.00142C13.752 8.34881 13.6732 8.67782 13.5327 8.97157L14.7818 10.2208C15.0756 10.0802 15.4046 10.0015 15.752 10.0015C16.9946 10.0015 18.002 11.0088 18.002 12.2515C18.002 13.4941 16.9946 14.5015 15.752 14.5015C14.5093 14.5015 13.502 13.4941 13.502 12.2515C13.502 11.9041 13.5807 11.5752 13.7212 11.2814L12.4719 10.0322C12.4006 10.0663 12.3272 10.0968 12.252 10.1234V13.8795C13.1258 14.1884 13.752 15.0218 13.752 16.0015C13.752 17.2441 12.7446 18.2515 11.502 18.2515C10.2593 18.2515 9.25195 17.2441 9.25195 16.0015C9.25195 15.0218 9.87806 14.1884 10.752 13.8795V10.1234C9.87807 9.8145 9.25197 8.98108 9.25197 8.00142C9.25197 7.65408 9.33068 7.32512 9.47123 7.0314L7.75172 5.31189L1.56213 11.5015L11.5015 21.4408L21.4408 11.5015L11.5015 1.56213ZM10.752 16.0015C10.752 15.5873 11.0877 15.2515 11.502 15.2515C11.9162 15.2515 12.252 15.5873 12.252 16.0015C12.252 16.4157 11.9162 16.7515 11.502 16.7515C11.0877 16.7515 10.752 16.4157 10.752 16.0015ZM11.502 8.75142C11.9162 8.75142 12.252 8.41563 12.252 8.00142C12.252 7.58721 11.9162 7.25142 11.502 7.25142C11.0878 7.25142 10.752 7.58721 10.752 8.00142C10.752 8.41563 11.0878 8.75142 11.502 8.75142ZM15.752 11.5015C15.3377 11.5015 15.002 11.8373 15.002 12.2515C15.002 12.6657 15.3377 13.0015 15.752 13.0015C16.1662 13.0015 16.502 12.6657 16.502 12.2515C16.502 11.8373 16.1662 11.5015 15.752 11.5015Z" fill="black"/>
</g>
</g>
</g>
<defs>
<clipPath id="clip0_232_8715">
<rect width="24" height="24" rx="5" fill="white"/>
</clipPath>
<clipPath id="clip1_232_8715">
<rect width="24" height="24" fill="white"/>
</clipPath>
</defs>
</svg>
