<svg width="24" height="24" viewBox="0 0 24 24" fill="none" xmlns="http://www.w3.org/2000/svg">
<g id="github-circle">
<g clip-path="url(#clip0_232_8570)">
<g id="Weight=Dynamic">
<g id="Vector">
<path fill-rule="evenodd" clip-rule="evenodd" d="M12 2.75C6.89137 2.75 2.75 6.89137 2.75 12C2.75 17.1086 6.89137 21.25 12 21.25C17.1086 21.25 21.25 17.1086 21.25 12C21.25 6.89137 17.1086 2.75 12 2.75ZM1.25 12C1.25 6.06294 6.06294 1.25 12 1.25C17.9371 1.25 22.75 6.06294 22.75 12C22.75 17.9371 17.9371 22.75 12 22.75C6.06294 22.75 1.25 17.9371 1.25 12Z" fill="black"/>
<path d="M14.2022 6.17361C15.0343 5.66401 15.68 5.42312 16.1607 5.31921C16.4278 5.26147 16.643 5.24628 16.8087 5.25072C16.8984 5.25073 16.9345 5.23516 17.1481 5.29684C17.3617 5.35852 17.5369 5.51177 17.6264 5.71523C17.9853 6.53045 18.0582 7.43452 17.8416 8.28804C18.4265 9.03144 18.7498 9.94799 18.75 10.8987C18.75 12.8398 18.1382 14.156 17.1135 14.995C16.4601 15.53 15.6879 15.8285 14.925 16.0032C15.0567 16.3758 15.1107 16.7709 15.0833 17.165V19C15.0833 19.4142 14.7475 19.75 14.3333 19.75C13.9191 19.75 13.5833 19.4142 13.5833 19V17.137C13.5833 17.1168 13.5841 17.0967 13.5858 17.0766C13.602 16.8762 13.5742 16.6744 13.5039 16.4844C13.4336 16.2942 13.322 16.1194 13.1752 15.9719C12.9717 15.7676 12.9034 15.4647 12.9995 15.1928C13.0956 14.921 13.3391 14.7283 13.6257 14.6971C14.6327 14.5879 15.5247 14.3572 16.1632 13.8344C16.7618 13.3443 17.25 12.5021 17.25 10.899C17.2498 10.1915 16.9705 9.50724 16.4637 8.98895C16.2589 8.77943 16.1948 8.46981 16.2997 8.1962C16.4718 7.74724 16.5079 7.26382 16.4092 6.80125C16.0833 6.88214 15.5368 7.08825 14.7433 7.60616C14.5656 7.72213 14.3471 7.75742 14.142 7.70328C13.4407 7.51822 12.7203 7.42569 12 7.42569V5.92569C12.739 5.92569 13.4779 6.00833 14.2022 6.17361Z" fill="black"/>
<path d="M9.79777 6.17361C8.96571 5.664 8.31999 5.42312 7.8393 5.31921C7.57215 5.26147 7.35697 5.24628 7.19126 5.25072C7.10156 5.25072 7.06547 5.23516 6.8519 5.29684C6.63833 5.35852 6.46312 5.51177 6.37356 5.71523C6.01471 6.53045 5.94177 7.43452 6.15843 8.28804C5.57347 9.03143 5.25018 9.94799 5.25 10.8987C5.25 12.8398 5.8618 14.156 6.88654 14.995C7.53991 15.5299 8.31206 15.8285 9.07504 16.0032C8.9433 16.3758 8.8893 16.7709 8.91667 17.165V19C8.91667 19.4142 9.25245 19.75 9.66667 19.75C10.0809 19.75 10.4167 19.4142 10.4167 19V17.137C10.4167 17.1168 10.4159 17.0967 10.4142 17.0766C10.398 16.8762 10.4258 16.6744 10.4961 16.4844C10.5664 16.2942 10.678 16.1194 10.8248 15.9719C11.0283 15.7676 11.0966 15.4647 11.0005 15.1928C10.9044 14.921 10.6609 14.7283 10.3743 14.6971C9.36732 14.5879 8.47532 14.3572 7.83679 13.8344C7.23821 13.3443 6.75003 12.5021 6.75 10.899C6.75017 10.1915 7.0295 9.50723 7.53626 8.98894C7.74111 8.77943 7.80519 8.4698 7.70032 8.19619C7.52825 7.74724 7.49212 7.26382 7.59075 6.80125C7.91671 6.88214 8.46324 7.08825 9.25674 7.60616C9.43441 7.72213 9.65289 7.75741 9.85804 7.70328C10.5593 7.51822 11.2797 7.42569 12 7.42569V5.92569C11.261 5.92569 10.5221 6.00833 9.79777 6.17361Z" fill="black"/>
<path fill-rule="evenodd" clip-rule="evenodd" d="M4.6574 15.0872C5.02587 14.898 5.47796 15.0433 5.66718 15.4118C6.10381 16.2621 6.64967 16.7598 7.2412 17.0007C7.83491 17.2424 8.56636 17.2628 9.44077 16.9866C9.83574 16.8619 10.2571 17.0809 10.3818 17.4759C10.5066 17.8709 10.2875 18.2922 9.89257 18.417C8.76697 18.7725 7.66509 18.7929 6.67547 18.3899C5.68366 17.986 4.89619 17.1941 4.33282 16.097C4.14361 15.7285 4.28893 15.2764 4.6574 15.0872Z" fill="black"/>
</g>
</g>
</g>
</g>
<defs>
<clipPath id="clip0_232_8570">
<rect width="24" height="24" rx="5" fill="white"/>
</clipPath>
</defs>
</svg>
