<svg width="24" height="24" viewBox="0 0 24 24" fill="none" xmlns="http://www.w3.org/2000/svg">
<g id="github">
<g clip-path="url(#clip0_232_8555)">
<g id="Weight=Dynamic">
<g id="Vector">
<path d="M15.8659 2.69769C17.1477 1.87485 18.119 1.50313 18.8161 1.34837C19.1906 1.26523 19.485 1.24497 19.7035 1.25098C19.8126 1.25399 19.9019 1.26351 19.972 1.27469C20.007 1.28027 20.0371 1.28624 20.0623 1.29198C20.0749 1.29484 20.0863 1.29764 20.0964 1.3003L20.1107 1.30417L20.1172 1.306L20.1202 1.30689L20.1217 1.30733C20.1217 1.30733 20.1232 1.30776 19.9099 2.02679L20.1232 1.30776C20.337 1.37116 20.5114 1.52639 20.5993 1.73133C21.1283 2.9656 21.2124 4.34017 20.8462 5.62246C21.7506 6.72523 22.2497 8.11107 22.2499 9.54666C22.2499 12.4388 21.3677 14.3367 19.9401 15.5371C18.8907 16.4195 17.6121 16.8671 16.3552 17.1109C16.4153 17.2363 16.4692 17.365 16.5166 17.4965C16.7112 18.0369 16.7907 18.612 16.7499 19.1848V22.0268C16.7499 22.441 16.4141 22.7768 15.9999 22.7768C15.5857 22.7768 15.2499 22.441 15.2499 22.0268V19.1568C15.2499 19.1372 15.2507 19.1175 15.2522 19.098C15.2814 18.7273 15.2313 18.3546 15.1053 18.0047C14.9793 17.6549 14.7803 17.3358 14.5214 17.0688C14.3222 16.8634 14.2573 16.5625 14.3541 16.2932C14.4509 16.0239 14.6924 15.8331 14.9768 15.8014C16.5047 15.6311 17.9309 15.2667 18.9747 14.389C19.9821 13.5419 20.7499 12.1147 20.7499 9.54693L20.384 7.73164C20.1654 7.21133 19.8529 6.73006 19.4567 6.31393C19.2588 6.10606 19.1969 5.80346 19.2973 5.53456C19.532 4.90545 19.6149 4.23629 19.547 3.57985L19.3835 2.76875C19.3137 2.7783 19.233 2.79234 19.1412 2.81272C18.6163 2.92924 17.7244 3.25372 16.4175 4.12978C16.2372 4.25067 16.0133 4.28747 15.8037 4.23068C14.722 3.9375 13.6109 3.79091 12.4999 3.79091V2.29091C13.6301 2.29091 14.7603 2.4265 15.8659 2.69769Z" fill="black"/>
<path d="M9.13391 2.69769C7.85218 1.87485 6.88082 1.50313 6.18372 1.34837C5.80923 1.26523 5.51487 1.24497 5.29632 1.25098C5.18724 1.25399 5.09792 1.26351 5.02784 1.27469C4.99284 1.28027 4.96276 1.28624 4.93755 1.29198C4.92495 1.29484 4.91357 1.29764 4.90342 1.3003L4.88911 1.30417L4.88265 1.306L4.87959 1.30689L4.87811 1.30733C4.87811 1.30733 4.87665 1.30776 5.08992 2.02679L4.87665 1.30776C4.66288 1.37116 4.48841 1.52639 4.40057 1.73133C3.87155 2.9656 3.78741 4.34017 4.15369 5.62246C3.24922 6.72523 2.75018 8.11107 2.74992 9.54666C2.74992 12.4388 3.63213 14.3367 5.05973 15.5371C6.10918 16.4195 7.38779 16.8671 8.64467 17.1109C8.58451 17.2363 8.53061 17.365 8.48327 17.4965C8.28862 18.0369 8.20919 18.612 8.24992 19.1848V22.0268C8.24992 22.441 8.58571 22.7768 8.99992 22.7768C9.41413 22.7768 9.74992 22.441 9.74992 22.0268V19.1568C9.74992 19.1372 9.74915 19.1175 9.74761 19.098C9.71845 18.7273 9.76853 18.3546 9.89454 18.0047C10.0205 17.6549 10.2196 17.3358 10.4784 17.0688C10.6776 16.8634 10.7425 16.5625 10.6457 16.2932C10.549 16.0239 10.3074 15.8331 10.023 15.8014C8.49514 15.6311 7.06895 15.2667 6.0251 14.389C5.01773 13.5419 4.24995 12.1147 4.24992 9.54693L4.61586 7.73164C4.83439 7.21133 5.14695 6.73006 5.54312 6.31393C5.74102 6.10606 5.80294 5.80346 5.70258 5.53456C5.4678 4.90545 5.38497 4.23629 5.45283 3.57985L5.61633 2.76875C5.68618 2.7783 5.76684 2.79234 5.85862 2.81272C6.38349 2.92924 7.27541 3.25372 8.58232 4.12978C8.76266 4.25067 8.98655 4.28747 9.19611 4.23068C10.2779 3.9375 11.3889 3.79091 12.4999 3.79091V2.29091C11.3697 2.29091 10.2395 2.4265 9.13391 2.69769Z" fill="black"/>
<path fill-rule="evenodd" clip-rule="evenodd" d="M1.66451 16.3559C2.03499 16.1707 2.4855 16.3208 2.67074 16.6913C3.36026 18.0704 4.24187 18.9128 5.2268 19.3248C6.21218 19.7369 7.39703 19.7582 8.76849 19.3133C9.16249 19.1855 9.58551 19.4013 9.71332 19.7953C9.84114 20.1893 9.62535 20.6123 9.23135 20.7401C7.60281 21.2684 6.03766 21.2898 4.64804 20.7086C3.25797 20.1272 2.13958 18.9831 1.3291 17.3621C1.14386 16.9917 1.29403 16.5412 1.66451 16.3559Z" fill="black"/>
</g>
</g>
</g>
</g>
<defs>
<clipPath id="clip0_232_8555">
<rect width="24" height="24" rx="5" fill="white"/>
</clipPath>
</defs>
</svg>
