<svg width="24" height="24" viewBox="0 0 24 24" fill="none" xmlns="http://www.w3.org/2000/svg">
<g id="gitlab-full">
<g clip-path="url(#clip0_232_8564)">
<g id="Weight=Dynamic">
<path id="vec (Stroke)" fill-rule="evenodd" clip-rule="evenodd" d="M6.71291 4.27216L4.32099 10.6571L4.32014 10.6594L4.15411 11.107L4.15325 11.1093L2.90232 14.4482L12 21.0722L21.0976 14.4482L17.2847 4.2727L15.3037 10.3746C15.1766 10.7662 14.8118 11.0313 14.4002 11.0313H9.5997C9.18816 11.0313 8.82341 10.7663 8.69622 10.3749L6.71291 4.27216ZM5.86013 2.27275C6.17551 1.43087 7.37538 1.45741 7.65324 2.3124L9.99927 9.53128H14.0005L16.3439 2.31269C16.6216 1.45753 17.8216 1.43074 18.1371 2.27267L22.6489 14.3134C22.7987 14.713 22.6635 15.1635 22.3185 15.4147L12.5592 22.5206C12.2259 22.7633 11.7741 22.7633 11.4408 22.5206L1.68142 15.4147C1.33641 15.1635 1.20126 14.7131 1.35099 14.3134L2.74774 10.5854L2.7486 10.5831L2.91547 10.1332L5.86013 2.27275Z" fill="black"/>
</g>
</g>
</g>
<defs>
<clipPath id="clip0_232_8564">
<rect width="24" height="24" rx="5" fill="white"/>
</clipPath>
</defs>
</svg>
