<svg width="24" height="24" viewBox="0 0 24 24" fill="none" xmlns="http://www.w3.org/2000/svg">
<g id="glass-half-alt">
<g clip-path="url(#clip0_232_7891)">
<g id="Weight=Dynamic">
<path id="Vector (Stroke)" fill-rule="evenodd" clip-rule="evenodd" d="M3.80127 4.33503L3.8555 4.74172C4.06902 4.88935 4.34668 5.03834 4.69358 5.18223C5.24011 5.40894 5.91513 5.60533 6.68799 5.76562C8.23363 6.08619 10.1094 6.24998 12 6.24998C13.8905 6.24998 15.7663 6.08618 17.3119 5.76561C18.0848 5.60531 18.7598 5.40893 19.3063 5.18222C19.6532 5.03832 19.9309 4.88934 20.1444 4.74171L20.1987 4.33503C19.4736 3.87075 17.1883 2.75 12 2.75C6.81162 2.75 4.52634 3.87075 3.80127 4.33503ZM19.9021 6.55898C19.8951 6.56191 19.8881 6.56484 19.8811 6.56775C19.2223 6.84104 18.4508 7.06132 17.6166 7.23435C15.9479 7.58044 13.9666 7.74998 12 7.74998C10.0333 7.74998 8.05201 7.58045 6.38336 7.23436C5.54908 7.06133 4.77767 6.84105 4.11885 6.56776C4.11182 6.56485 4.10481 6.56193 4.0978 6.559L4.76044 11.5288C5.41096 11.2022 6.17621 10.9554 6.9724 10.7696C8.46931 10.4204 10.2427 10.25 12 10.25C13.7572 10.25 15.5306 10.4204 17.0275 10.7696C17.8237 10.9554 18.589 11.2022 19.2395 11.5288L19.9021 6.55898ZM20.6146 12.5647L21.7042 4.39303C21.7591 3.98112 21.6199 3.5004 21.2036 3.20403C20.3521 2.59774 17.8024 1.25 12 1.25C6.1975 1.25 3.64782 2.59774 2.79629 3.20403C2.38004 3.5004 2.24081 3.98112 2.29573 4.39303L3.38528 12.5647L3.01215 13L3.43052 13.4881C3.46005 13.5225 3.49054 13.5565 3.52198 13.5899L3.99492 17.1369C4.1907 18.6053 5.06037 19.8983 6.34659 20.6333L6.66647 20.8161C9.97137 22.7046 14.0286 22.7046 17.3335 20.8161L17.6533 20.6333C18.9396 19.8983 19.8092 18.6053 20.005 17.1369L20.4779 13.5899C20.5093 13.5565 20.5398 13.5226 20.5694 13.4881L20.9878 13L20.6146 12.5647ZM18.809 12.9999C18.3095 12.7095 17.5965 12.4427 16.6867 12.2304C15.3265 11.913 13.6713 11.75 12 11.75C10.3286 11.75 8.67347 11.913 7.31324 12.2304C6.40334 12.4427 5.6903 12.7096 5.19085 12.9999C5.61449 13.2463 6.19483 13.4777 6.92713 13.6732C8.09612 13.9853 9.53036 14.1744 11.0285 14.2315C12.8498 14.301 14.7254 14.1739 16.2824 13.8577C17.061 13.6996 17.7427 13.4976 18.2913 13.2591C18.4862 13.1743 18.6584 13.0875 18.809 12.9999ZM5.17846 14.6639L5.48176 16.9387C5.61572 17.9434 6.21075 18.8281 7.0908 19.3309L7.41068 19.5137C9.51118 20.714 11.9649 21.0277 14.25 20.4549V15.655C13.1782 15.7474 12.0619 15.772 10.9714 15.7305C9.39461 15.6703 7.84461 15.4707 6.54022 15.1224C6.06526 14.9956 5.60439 14.8444 5.17846 14.6639ZM15.75 15.4759C16.0336 15.4319 16.3111 15.3825 16.5809 15.3277C17.3999 15.1614 18.1642 14.9422 18.8215 14.6638L18.5182 16.9387C18.3842 17.9434 17.7892 18.8281 16.9091 19.3309L16.5892 19.5137C16.3151 19.6704 16.035 19.8119 15.75 19.9384V15.4759Z" fill="black"/>
</g>
</g>
</g>
<defs>
<clipPath id="clip0_232_7891">
<rect width="24" height="24" rx="5" fill="white"/>
</clipPath>
</defs>
</svg>
