<svg width="24" height="24" viewBox="0 0 24 24" fill="none" xmlns="http://www.w3.org/2000/svg">
<g id="glasses">
<g clip-path="url(#clip0_232_2533)">
<g id="Weight=Dynamic">
<path id="Vector (Stroke)" fill-rule="evenodd" clip-rule="evenodd" d="M2 5.25C2.41421 5.25 2.75 5.58579 2.75 6V10.5359C3.59965 9.73843 4.74279 9.25 6 9.25C8.36815 9.25 10.3315 10.983 10.6911 13.25H13.3089C13.6685 10.983 15.6318 9.25 18 9.25C19.2572 9.25 20.4003 9.73843 21.25 10.5359V6C21.25 5.58579 21.5858 5.25 22 5.25C22.4142 5.25 22.75 5.58579 22.75 6V14C22.75 16.6234 20.6234 18.75 18 18.75C15.6318 18.75 13.6685 17.017 13.3089 14.75H10.6911C10.3315 17.017 8.36815 18.75 6 18.75C3.37665 18.75 1.25 16.6234 1.25 14V6C1.25 5.58579 1.58579 5.25 2 5.25ZM21.25 14C21.25 12.2051 19.7949 10.75 18 10.75C16.2051 10.75 14.75 12.2051 14.75 14C14.75 15.7949 16.2051 17.25 18 17.25C19.7949 17.25 21.25 15.7949 21.25 14ZM2.75 14C2.75 15.7949 4.20507 17.25 6 17.25C7.79493 17.25 9.25 15.7949 9.25 14C9.25 12.2051 7.79493 10.75 6 10.75C4.20507 10.75 2.75 12.2051 2.75 14Z" fill="black"/>
</g>
</g>
</g>
<defs>
<clipPath id="clip0_232_2533">
<rect width="24" height="24" rx="5" fill="white"/>
</clipPath>
</defs>
</svg>
