<svg width="24" height="24" viewBox="0 0 24 24" fill="none" xmlns="http://www.w3.org/2000/svg">
<g id="glass-empty">
<g clip-path="url(#clip0_232_7881)">
<g id="Weight=Dynamic">
<path id="Vector (Stroke)" fill-rule="evenodd" clip-rule="evenodd" d="M3.80127 4.33503L3.8555 4.74172C4.06902 4.88935 4.34668 5.03834 4.69358 5.18223C5.24011 5.40894 5.91513 5.60533 6.68799 5.76562C8.23363 6.08619 10.1094 6.24998 12 6.24998C13.8905 6.24998 15.7663 6.08618 17.3119 5.76561C18.0848 5.60531 18.7598 5.40893 19.3063 5.18222C19.6532 5.03832 19.9309 4.88934 20.1444 4.74171L20.1987 4.33503C19.4736 3.87075 17.1883 2.75 12 2.75C6.81162 2.75 4.52634 3.87075 3.80127 4.33503ZM19.9021 6.55898C19.8951 6.56191 19.8881 6.56484 19.8811 6.56775C19.2223 6.84104 18.4508 7.06132 17.6166 7.23435C15.9479 7.58044 13.9666 7.74998 12 7.74998C10.0333 7.74998 8.05201 7.58045 6.38336 7.23436C5.54908 7.06133 4.77767 6.84105 4.11885 6.56776C4.11182 6.56485 4.10481 6.56193 4.0978 6.559L5.48176 16.9387C5.61572 17.9434 6.21075 18.8281 7.0908 19.3309L7.41068 19.5137C10.2544 21.1387 13.7455 21.1387 16.5892 19.5137L16.9091 19.3309C17.7892 18.8281 18.3842 17.9434 18.5182 16.9387L19.9021 6.55898ZM2.79629 3.20403C3.64782 2.59774 6.1975 1.25 12 1.25C17.8024 1.25 20.3521 2.59774 21.2036 3.20403C21.6199 3.5004 21.7591 3.98112 21.7042 4.39303L20.005 17.1369C19.8092 18.6053 18.9396 19.8983 17.6533 20.6333L17.3335 20.8161C14.0286 22.7046 9.97137 22.7046 6.66647 20.8161L6.34659 20.6333C5.06037 19.8983 4.1907 18.6053 3.99492 17.1369L2.29573 4.39303C2.24081 3.98112 2.38004 3.5004 2.79629 3.20403ZM7.35288 10.2646C7.75905 10.1833 8.15416 10.4467 8.2354 10.8529L9.2354 15.8529C9.31663 16.2591 9.05322 16.6542 8.64705 16.7354C8.24088 16.8167 7.84576 16.5533 7.76453 16.1471L6.76453 11.1471C6.68329 10.7409 6.94671 10.3458 7.35288 10.2646Z" fill="black"/>
</g>
</g>
</g>
<defs>
<clipPath id="clip0_232_7881">
<rect width="24" height="24" rx="5" fill="white"/>
</clipPath>
</defs>
</svg>
