<svg width="24" height="24" viewBox="0 0 24 24" fill="none" xmlns="http://www.w3.org/2000/svg">
<g id="glass-fragile">
<g clip-path="url(#clip0_232_13346)">
<g id="Weight=Dynamic">
<path id="Vector (Stroke)" fill-rule="evenodd" clip-rule="evenodd" d="M12.4851 1.25H6.57827C6.23411 1.25 5.93412 1.48423 5.85065 1.81811L6.57827 2C5.85065 1.81811 5.8507 1.81794 5.85065 1.81811L5.85016 1.8201L5.8492 1.82399L5.84592 1.83737L5.83424 1.88595C5.82431 1.9278 5.81023 1.9883 5.79296 2.06561C5.75843 2.22017 5.71109 2.44219 5.65866 2.71679C5.55398 3.26508 5.42815 4.02755 5.3441 4.88388C5.18013 6.55431 5.15658 8.74207 5.89619 10.3595C6.58172 11.8587 8.07081 13.1915 9.2894 14.1106C9.91371 14.5815 10.4976 14.966 10.9254 15.233C11.0468 15.3087 11.1559 15.3752 11.2502 15.4317V21.25H8.00019C7.58597 21.25 7.25019 21.5858 7.25019 22C7.25019 22.4142 7.58597 22.75 8.00019 22.75H16.0002C16.4144 22.75 16.7502 22.4142 16.7502 22C16.7502 21.5858 16.4144 21.25 16.0002 21.25H12.7502V15.4317C12.8444 15.3752 12.9536 15.3087 13.075 15.233C13.5028 14.966 14.0867 14.5815 14.711 14.1106C15.9296 13.1915 17.4187 11.8587 18.1042 10.3595C18.8438 8.74207 18.8202 6.55431 18.6563 4.88388C18.5722 4.02755 18.4464 3.26508 18.3417 2.71679C18.2893 2.44219 18.2419 2.22017 18.2074 2.06561C18.1901 1.9883 18.1761 1.9278 18.1661 1.88595L18.1545 1.83737L18.1512 1.82399L18.1502 1.8201L18.1499 1.81887C18.1499 1.8187 18.1497 1.81811 17.4221 2L18.1499 1.81887C18.0664 1.48498 17.7663 1.25 17.4221 1.25H12.5164C12.506 1.24978 12.4955 1.24978 12.4851 1.25ZM16.8195 2.75H12.9637L11.7137 5.25H13.5002C13.7601 5.25 14.0015 5.38459 14.1382 5.6057C14.2748 5.82681 14.2873 6.10292 14.171 6.33541L12.171 10.3354C11.9858 10.7059 11.5353 10.8561 11.1648 10.6708C10.7943 10.4856 10.6441 10.0351 10.8294 9.66459L12.2867 6.75H10.5002C10.2403 6.75 9.99885 6.61541 9.8622 6.3943C9.72554 6.17318 9.71312 5.89708 9.82937 5.66459L11.2867 2.75H7.18089C7.16542 2.82622 7.14904 2.90911 7.13205 2.99809C7.0335 3.51428 6.91545 4.23038 6.83692 5.03041C6.67572 6.67268 6.69927 8.50873 7.26034 9.73572C7.77959 10.8713 9.00146 12.0146 10.1926 12.913C10.7732 13.3509 11.3189 13.7105 11.7195 13.9604C11.8238 14.0255 11.918 14.083 12.0002 14.1324C12.0823 14.083 12.1766 14.0255 12.2809 13.9604C12.6815 13.7105 13.2272 13.3509 13.8077 12.913C14.9989 12.0146 16.2208 10.8713 16.74 9.73572C17.3011 8.50873 17.3247 6.67268 17.1634 5.03041C17.0849 4.23038 16.9669 3.51428 16.8683 2.99809C16.8513 2.90911 16.835 2.82622 16.8195 2.75Z" fill="black"/>
</g>
</g>
</g>
<defs>
<clipPath id="clip0_232_13346">
<rect width="24" height="24" rx="5" fill="white"/>
</clipPath>
</defs>
</svg>
