<svg width="24" height="24" viewBox="0 0 24 24" fill="none" xmlns="http://www.w3.org/2000/svg">
<g id="globe">
<g clip-path="url(#clip0_232_3169)">
<g id="Weight=Dynamic">
<path id="Vector (Stroke)" fill-rule="evenodd" clip-rule="evenodd" d="M2.75226 11.7937C2.75361 11.7942 2.75496 11.7947 2.75631 11.7952L8.25631 13.7952C8.62632 13.9297 8.82931 14.3275 8.72114 14.706L7.78488 17.9829L8.66778 20.6316C9.70164 21.031 10.8252 21.25 12 21.25C13.5064 21.25 14.9286 20.8899 16.1854 20.2512L15.8442 18.5455L13.7215 17.6964C13.4367 17.5825 13.25 17.3067 13.25 17V13.5C13.25 13.1772 13.4566 12.8906 13.7628 12.7885L16.7628 11.7885C16.8658 11.7542 16.975 11.7426 17.0828 11.7546L21.2475 12.2173C21.2492 12.1451 21.25 12.0726 21.25 12C21.25 11.7284 21.2383 11.4596 21.2154 11.1939C21.1983 11.1869 21.1814 11.1792 21.1646 11.1708L19.3229 10.25H17.6444L15.2785 11.1964C15.0475 11.2888 14.7856 11.2606 14.5795 11.1211C14.3734 10.9815 14.25 10.7489 14.25 10.5V7.5C14.25 7.12676 14.5244 6.81032 14.8939 6.75754L17.9351 6.32309L18.2885 5.26283C18.2924 5.25105 18.2966 5.23945 18.301 5.228C16.6494 3.69051 14.4345 2.75 12 2.75C11.0969 2.75 10.224 2.87942 9.39889 3.12074L10.1708 4.66459C10.2912 4.90532 10.2733 5.19209 10.124 5.41603L8.12404 8.41603C8.0137 8.58153 7.84214 8.69643 7.64709 8.73544L5.32603 9.19965L2.96852 11.0857C2.91121 11.1315 2.84924 11.1676 2.78462 11.1941C2.76752 11.3922 2.75666 11.5922 2.75226 11.7937ZM3.27546 8.91916L4.53148 7.91435C4.62511 7.83944 4.73534 7.78808 4.85291 7.76456L7.04829 7.32549L8.63453 4.94612L7.992 3.66106C5.80267 4.71525 4.09221 6.60623 3.27546 8.91916ZM19.4512 6.51797L19.2115 7.23717C19.1217 7.50667 18.8873 7.70229 18.6061 7.74246L15.75 8.15047V9.39223L17.2215 8.80364C17.31 8.76821 17.4046 8.75 17.5 8.75H19.5C19.6164 8.75 19.7313 8.77711 19.8354 8.82918L20.8627 9.34281C20.5548 8.31461 20.073 7.3616 19.4512 6.51797ZM21.0924 13.7093L17.0809 13.2636L14.75 14.0406V16.4922L16.7785 17.3036C17.0139 17.3978 17.1857 17.6044 17.2354 17.8529L17.5456 19.4039C19.3611 18.042 20.6592 16.0279 21.0924 13.7093ZM6.74788 19.6153L6.28849 18.2372C6.24069 18.0938 6.23733 17.9393 6.27886 17.794L7.08685 14.966L2.85968 13.4288C3.25676 15.9896 4.70422 18.2032 6.74788 19.6153ZM1.25 12C1.25 6.06294 6.06294 1.25 12 1.25C17.9371 1.25 22.75 6.06294 22.75 12C22.75 17.9371 17.9371 22.75 12 22.75C6.06294 22.75 1.25 17.9371 1.25 12Z" fill="black"/>
</g>
</g>
</g>
<defs>
<clipPath id="clip0_232_3169">
<rect width="24" height="24" rx="5" fill="white"/>
</clipPath>
</defs>
</svg>
