<svg width="24" height="24" viewBox="0 0 24 24" fill="none" xmlns="http://www.w3.org/2000/svg">
<g id="golf">
<g clip-path="url(#clip0_232_1956)">
<g id="Weight=Dynamic">
<path id="Vector (Stroke)" fill-rule="evenodd" clip-rule="evenodd" d="M11.25 3.40993C11.25 2.44074 12.241 1.7873 13.1318 2.16908L21.5758 5.78794C22.6434 6.24549 22.6731 7.74825 21.6244 8.24764L12.75 12.4736V14.2689C14.4834 14.3565 16.0675 14.7455 17.2852 15.3543C18.6316 16.0275 19.75 17.0964 19.75 18.5C19.75 19.9036 18.6316 20.9725 17.2852 21.6457C15.8938 22.3414 14.0242 22.75 12 22.75C9.97582 22.75 8.10618 22.3414 6.71484 21.6457C5.36836 20.9725 4.25 19.9036 4.25 18.5C4.25 17.0964 5.36836 16.0275 6.71484 15.3543C7.93254 14.7455 9.51661 14.3565 11.25 14.2689V3.40993ZM11.25 15.771C9.71733 15.8572 8.37014 16.2037 7.38566 16.6959C6.19864 17.2895 5.75 17.9706 5.75 18.5C5.75 19.0294 6.19864 19.7105 7.38566 20.3041C8.52782 20.8751 10.1582 21.25 12 21.25C13.8418 21.25 15.4722 20.8751 16.6143 20.3041C17.8014 19.7105 18.25 19.0294 18.25 18.5C18.25 17.9706 17.8014 17.2895 16.6143 16.6959C15.6299 16.2037 14.2827 15.8572 12.75 15.771V18C12.75 18.4142 12.4142 18.75 12 18.75C11.5858 18.75 11.25 18.4142 11.25 18V15.771ZM12.75 10.8122L20.68 7.03598L12.75 3.63741V10.8122Z" fill="black"/>
</g>
</g>
</g>
<defs>
<clipPath id="clip0_232_1956">
<rect width="24" height="24" rx="5" fill="white"/>
</clipPath>
</defs>
</svg>
