<svg width="24" height="24" viewBox="0 0 24 24" fill="none" xmlns="http://www.w3.org/2000/svg">
<g id="google-drive-warning">
<g clip-path="url(#clip0_232_2735)">
<g id="Weight=Dynamic">
<path id="Vector (Stroke)" fill-rule="evenodd" clip-rule="evenodd" d="M14.8567 2.25C15.1195 2.24983 15.3633 2.38728 15.4992 2.61229L22.142 13.6123C22.3561 13.9669 22.2423 14.4279 21.8877 14.642C21.5331 14.8561 21.0721 14.7423 20.858 14.3877L14.9088 4.5363L12.8444 8.53959L14.7111 12.156C14.9011 12.5241 14.7567 12.9765 14.3886 13.1665C14.0206 13.3564 13.5682 13.2121 13.3782 12.844L12.0008 10.1755L9.89772 14.2538H12.5C12.9142 14.2538 13.25 14.5895 13.25 15.0038C13.25 15.418 12.9142 15.7538 12.5 15.7538H9.12421L6.80561 20.25H12.0036C12.4178 20.25 12.7536 20.5858 12.7536 21C12.7536 21.4142 12.4178 21.75 12.0036 21.75H5.575C5.31081 21.75 5.0661 21.611 4.93081 21.3841L1.3558 15.3878C1.21483 15.1514 1.21472 14.8567 1.35553 14.6201L8.49839 2.62014C8.63353 2.39311 8.87816 2.25393 9.14236 2.25375L14.8567 2.25ZM5.52749 19.4557L3.32034 15.7538H7.43651L5.52749 19.4557ZM8.21002 14.2538L11.1565 8.53993L9.09619 4.54848L3.31924 14.2538H8.21002ZM10.3736 3.75295L12.0001 6.904L13.6261 3.75081L10.3736 3.75295ZM18 15.25C18.4142 15.25 18.75 15.5858 18.75 16V18C18.75 18.4142 18.4142 18.75 18 18.75C17.5858 18.75 17.25 18.4142 17.25 18V16C17.25 15.5858 17.5858 15.25 18 15.25ZM18.5117 21.4414C18.8196 21.7185 18.8446 22.1927 18.5675 22.5006L18.5575 22.5117C18.2804 22.8196 17.8062 22.8446 17.4983 22.5675C17.1904 22.2904 17.1654 21.8162 17.4425 21.5083L17.4525 21.4972C17.7296 21.1893 18.2038 21.1643 18.5117 21.4414Z" fill="black"/>
</g>
</g>
</g>
<defs>
<clipPath id="clip0_232_2735">
<rect width="24" height="24" rx="5" fill="white"/>
</clipPath>
</defs>
</svg>
