<svg width="24" height="24" viewBox="0 0 24 24" fill="none" xmlns="http://www.w3.org/2000/svg">
<g id="google-circle">
<g clip-path="url(#clip0_232_14041)">
<g id="Weight=Dynamic">
<path id="Vector (Stroke)" fill-rule="evenodd" clip-rule="evenodd" d="M12 2.75C6.89137 2.75 2.75 6.89137 2.75 12C2.75 17.1086 6.89137 21.25 12 21.25C17.1086 21.25 21.25 17.1086 21.25 12C21.25 6.89137 17.1086 2.75 12 2.75ZM1.25 12C1.25 6.06294 6.06294 1.25 12 1.25C17.9371 1.25 22.75 6.06294 22.75 12C22.75 17.9371 17.9371 22.75 12 22.75C6.06294 22.75 1.25 17.9371 1.25 12ZM6.25 12C6.25 8.8097 8.88798 6.25 12.1089 6.25C13.622 6.25 15.0065 6.81472 16.047 7.74382L15.048 8.86272C14.275 8.1725 13.2437 7.75 12.1089 7.75C9.68593 7.75 7.75 9.66828 7.75 12C7.75 14.3317 9.68593 16.25 12.1089 16.25C13.636 16.25 14.6127 15.6945 15.2351 14.9732C15.6873 14.4492 15.9762 13.8087 16.1291 13.1667H12.841V11.6667H17.804L17.7482 12.4687C17.6697 13.5969 17.2716 14.9091 16.3707 15.9532C15.4498 17.0204 14.051 17.75 12.1089 17.75C8.88798 17.75 6.25 15.1903 6.25 12Z" fill="black"/>
</g>
</g>
</g>
<defs>
<clipPath id="clip0_232_14041">
<rect width="24" height="24" rx="5" fill="white"/>
</clipPath>
</defs>
</svg>
