<svg width="24" height="24" viewBox="0 0 24 24" fill="none" xmlns="http://www.w3.org/2000/svg">
<g id="google-home">
<g clip-path="url(#clip0_232_8900)">
<g id="Weight=Dynamic">
<path id="Vector (Stroke)" fill-rule="evenodd" clip-rule="evenodd" d="M11 2.75C6.44365 2.75 2.75 6.44365 2.75 11C2.75 15.5563 6.44365 19.25 11 19.25C13.4433 19.25 15.6378 18.1888 17.1495 16.4998C18.4563 15.0397 19.25 13.1135 19.25 11C19.25 6.44365 15.5563 2.75 11 2.75ZM1.25 11C1.25 5.61522 5.61522 1.25 11 1.25C16.3848 1.25 20.75 5.61522 20.75 11C20.75 12.9325 20.1872 14.7345 19.2171 16.25H19.5C21.2949 16.25 22.75 17.7051 22.75 19.5C22.75 21.2949 21.2949 22.75 19.5 22.75H17C16.5858 22.75 16.25 22.4142 16.25 22C16.25 21.5858 16.5858 21.25 17 21.25H19.5C20.4665 21.25 21.25 20.4665 21.25 19.5C21.25 18.5335 20.4665 17.75 19.5 17.75H18.0356C16.2621 19.5981 13.7651 20.75 11 20.75C5.61522 20.75 1.25 16.3848 1.25 11ZM8.51173 10.4414C8.81961 10.7185 8.84456 11.1927 8.56747 11.5006L8.55747 11.5117C8.28037 11.8196 7.80616 11.8446 7.49827 11.5675C7.19039 11.2904 7.16544 10.8162 7.44253 10.5083L7.45253 10.4972C7.72963 10.1893 8.20385 10.1643 8.51173 10.4414ZM11.5117 10.4414C11.8196 10.7185 11.8446 11.1927 11.5675 11.5006L11.5575 11.5117C11.2804 11.8196 10.8062 11.8446 10.4983 11.5675C10.1904 11.2904 10.1654 10.8162 10.4425 10.5083L10.4525 10.4972C10.7296 10.1893 11.2038 10.1643 11.5117 10.4414ZM14.5117 10.4414C14.8196 10.7185 14.8446 11.1927 14.5675 11.5006L14.5575 11.5117C14.2804 11.8196 13.8062 11.8446 13.4983 11.5675C13.1904 11.2904 13.1654 10.8162 13.4425 10.5083L13.4525 10.4972C13.7296 10.1893 14.2038 10.1643 14.5117 10.4414Z" fill="black"/>
</g>
</g>
</g>
<defs>
<clipPath id="clip0_232_8900">
<rect width="24" height="24" rx="5" fill="white"/>
</clipPath>
</defs>
</svg>
