<svg width="24" height="24" viewBox="0 0 24 24" fill="none" xmlns="http://www.w3.org/2000/svg">
<g id="google-one">
<g clip-path="url(#clip0_232_2745)">
<g id="Weight=Dynamic">
<path id="Vector (Stroke)" fill-rule="evenodd" clip-rule="evenodd" d="M15.7499 5.28044C15.8349 4.50443 15.5906 3.69754 15.0111 3.08693C13.9657 1.98525 12.2251 1.93967 11.1234 2.98513L6.23105 7.62777C5.12937 8.67323 5.08379 10.4138 6.12925 11.5155C7.17471 12.6172 8.91532 12.6628 10.017 11.6173L10.2499 11.3963V19C10.2499 20.5188 11.4812 21.75 12.9999 21.75C14.5187 21.75 15.7499 20.5188 15.7499 19V5.28044ZM14.2499 5.18223V5C14.2499 4.30964 13.6903 3.75 12.9999 3.75C12.3096 3.75 11.7499 4.30964 11.7499 5V7.90494L13.8768 5.88663C14.0827 5.69121 14.2075 5.44235 14.2499 5.18223ZM11.7499 9.97284L14.2499 7.60042V19C14.2499 19.6904 13.6903 20.25 12.9999 20.25C12.3096 20.25 11.7499 19.6904 11.7499 19V9.97284ZM10.2499 9.32838V5.88189L7.26359 8.71583C6.76282 9.19104 6.7421 9.98223 7.21731 10.483C7.69252 10.9838 8.48371 11.0045 8.98447 10.5293L10.2499 9.32838Z" fill="black"/>
</g>
</g>
</g>
<defs>
<clipPath id="clip0_232_2745">
<rect width="24" height="24" rx="5" fill="white"/>
</clipPath>
</defs>
</svg>
