<svg width="24" height="24" viewBox="0 0 24 24" fill="none" xmlns="http://www.w3.org/2000/svg">
<g id="google-drive-sync">
<g clip-path="url(#clip0_232_2713)">
<g id="Weight=Dynamic">
<path id="Vector (Stroke)" fill-rule="evenodd" clip-rule="evenodd" d="M14.8567 2.25C15.1212 2.24983 15.3664 2.38909 15.5017 2.61648L20.8571 11.6165C21.0689 11.9724 20.9521 12.4327 20.5961 12.6445C20.2402 12.8563 19.7799 12.7395 19.5681 12.3835L14.904 4.54546L12.8444 8.53959L14.7111 12.156C14.9011 12.5241 14.7567 12.9765 14.3886 13.1665C14.0206 13.3564 13.5682 13.2121 13.3782 12.844L12.0008 10.1755L9.89772 14.2538H12.5C12.9142 14.2538 13.25 14.5895 13.25 15.0038C13.25 15.418 12.9142 15.7538 12.5 15.7538H9.12421L6.80561 20.25H12.0036C12.4178 20.25 12.7536 20.5858 12.7536 21C12.7536 21.4142 12.4178 21.75 12.0036 21.75H5.575C5.31081 21.75 5.0661 21.611 4.93081 21.3841L1.3558 15.3878C1.21483 15.1514 1.21472 14.8567 1.35553 14.6201L8.49839 2.62014C8.63353 2.39311 8.87816 2.25393 9.14236 2.25375L14.8567 2.25ZM5.52749 19.4557L3.32034 15.7538H7.43651L5.52749 19.4557ZM8.21002 14.2538L11.1565 8.53993L9.09619 4.54848L3.31924 14.2538H8.21002ZM10.3736 3.75295L12.0001 6.904L13.6261 3.75081L10.3736 3.75295ZM18.9902 15.75C17.6116 15.75 16.3728 16.7387 15.9132 18.222C15.7906 18.6177 15.3704 18.839 14.9748 18.7164C14.5791 18.5938 14.3578 18.1736 14.4804 17.778C15.1026 15.7703 16.8519 14.25 18.9902 14.25C20.2675 14.25 21.4074 14.7937 22.2501 15.659V15.55C22.2501 15.1358 22.5859 14.8 23.0001 14.8C23.4143 14.8 23.7501 15.1358 23.7501 15.55V17.1722C23.7501 17.9178 23.1457 18.5222 22.4001 18.5222H20.9951C20.5809 18.5222 20.2451 18.1864 20.2451 17.7722C20.2451 17.358 20.5809 17.0222 20.9951 17.0222H21.4511C20.8424 16.2289 19.9512 15.75 18.9902 15.75ZM23.0252 19.2836C23.4209 19.4062 23.6422 19.8264 23.5196 20.222C22.8974 22.2297 21.1481 23.75 19.0098 23.75C17.7325 23.75 16.5926 23.2063 15.7499 22.341V22.45C15.7499 22.8642 15.4141 23.2 14.9999 23.2C14.5857 23.2 14.2499 22.8642 14.2499 22.45V20.8278C14.2499 20.0822 14.8544 19.4778 15.5999 19.4778H17.0049C17.4191 19.4778 17.7549 19.8136 17.7549 20.2278C17.7549 20.642 17.4191 20.9778 17.0049 20.9778H16.5489C17.1575 21.7711 18.0488 22.25 19.0098 22.25C20.3884 22.25 21.6272 21.2613 22.0868 19.778C22.2094 19.3823 22.6296 19.161 23.0252 19.2836Z" fill="black"/>
</g>
</g>
</g>
<defs>
<clipPath id="clip0_232_2713">
<rect width="24" height="24" rx="5" fill="white"/>
</clipPath>
</defs>
</svg>
