<svg width="24" height="24" viewBox="0 0 24 24" fill="none" xmlns="http://www.w3.org/2000/svg">
<g id="google-drive">
<g clip-path="url(#clip0_232_2707)">
<g id="Weight=Dynamic">
<path id="Vector (Stroke)" fill-rule="evenodd" clip-rule="evenodd" d="M14.8567 2.25C15.1212 2.24983 15.3664 2.38909 15.5017 2.61648L22.6445 14.6202C22.7852 14.8566 22.7852 15.1509 22.6445 15.3873L19.0767 21.3835C18.9415 21.6108 18.6966 21.75 18.4321 21.75H5.575C5.31081 21.75 5.0661 21.611 4.93081 21.3841L1.3558 15.3878C1.21483 15.1514 1.21472 14.8567 1.35553 14.6201L8.49839 2.62014C8.63353 2.39311 8.87816 2.25393 9.14236 2.25375L14.8567 2.25ZM9.09619 4.54848L11.1565 8.53993L8.21002 14.2538H3.31924L9.09619 4.54848ZM3.32034 15.7538L5.52749 19.4557L7.43651 15.7538H3.32034ZM9.12421 15.7538L6.80561 20.25H17.201L14.8801 15.7538H9.12421ZM16.5682 15.7538L18.4787 19.455L20.681 15.7538H16.5682ZM20.681 14.2538H15.7939L12.8444 8.53959L14.904 4.54546L20.681 14.2538ZM13.6261 3.75081L10.3736 3.75295L12.0001 6.904L13.6261 3.75081ZM12.0008 10.1755L14.1059 14.2538H9.89772L12.0008 10.1755Z" fill="black"/>
</g>
</g>
</g>
<defs>
<clipPath id="clip0_232_2707">
<rect width="24" height="24" rx="5" fill="white"/>
</clipPath>
</defs>
</svg>
