<svg width="24" height="24" viewBox="0 0 24 24" fill="none" xmlns="http://www.w3.org/2000/svg">
<g id="google-drive-check">
<g clip-path="url(#clip0_232_2727)">
<g id="Weight=Dynamic">
<path id="Vector (Stroke)" fill-rule="evenodd" clip-rule="evenodd" d="M14.8567 2.25C15.1195 2.24983 15.3633 2.38728 15.4992 2.61229L22.142 13.6123C22.3561 13.9669 22.2423 14.4279 21.8877 14.642C21.5331 14.8561 21.0721 14.7423 20.858 14.3877L14.9088 4.5363L12.8444 8.53959L14.7111 12.156C14.9011 12.5241 14.7567 12.9765 14.3886 13.1665C14.0206 13.3564 13.5682 13.2121 13.3782 12.844L12.0008 10.1755L9.89772 14.2538H12.5C12.9142 14.2538 13.25 14.5895 13.25 15.0038C13.25 15.418 12.9142 15.7538 12.5 15.7538H9.12421L6.80561 20.25H12.0036C12.4178 20.25 12.7536 20.5858 12.7536 21C12.7536 21.4142 12.4178 21.75 12.0036 21.75H5.575C5.31081 21.75 5.0661 21.611 4.93081 21.3841L1.3558 15.3878C1.21483 15.1514 1.21472 14.8567 1.35553 14.6201L8.49839 2.62014C8.63353 2.39311 8.87816 2.25393 9.14236 2.25375L14.8567 2.25ZM5.52749 19.4557L3.32034 15.7538H7.43651L5.52749 19.4557ZM8.21002 14.2538L11.1565 8.53993L9.09619 4.54848L3.31924 14.2538H8.21002ZM10.3736 3.75295L12.0001 6.904L13.6261 3.75081L10.3736 3.75295ZM23.5303 16.4697C23.8232 16.7626 23.8232 17.2374 23.5303 17.5303L18.5303 22.5303C18.2374 22.8232 17.7626 22.8232 17.4697 22.5303L14.4697 19.5303C14.1768 19.2374 14.1768 18.7626 14.4697 18.4697C14.7626 18.1768 15.2374 18.1768 15.5303 18.4697L18 20.9393L22.4697 16.4697C22.7626 16.1768 23.2374 16.1768 23.5303 16.4697Z" fill="black"/>
</g>
</g>
</g>
<defs>
<clipPath id="clip0_232_2727">
<rect width="24" height="24" rx="5" fill="white"/>
</clipPath>
</defs>
</svg>
