<svg width="24" height="24" viewBox="0 0 24 24" fill="none" xmlns="http://www.w3.org/2000/svg">
<g id="gps">
<g clip-path="url(#clip0_232_10060)">
<g id="Weight=Dynamic">
<path id="Vector (Stroke)" fill-rule="evenodd" clip-rule="evenodd" d="M14.3163 9.40902C14.0717 9.26518 13.7421 9.25001 13.3571 9.25001H11.25V11.95H13.3571C13.7421 11.95 14.0717 11.9348 14.3163 11.791C14.4745 11.6979 14.75 11.4607 14.75 10.6C14.75 9.73936 14.4745 9.50207 14.3163 9.40902ZM11.25 13.45H13.3571C13.3688 13.45 13.381 13.45 13.3936 13.45C13.7389 13.4506 14.4513 13.4517 15.0766 13.084C15.8112 12.6521 16.25 11.8394 16.25 10.6C16.25 9.36065 15.8112 8.54794 15.0766 8.11599C14.4513 7.74832 13.7389 7.74943 13.3936 7.74997C13.381 7.74999 13.3688 7.75001 13.3571 7.75001H10.5C10.0858 7.75001 9.75 8.08579 9.75 8.50001V15.5C9.75 15.9142 10.0858 16.25 10.5 16.25C10.9142 16.25 11.25 15.9142 11.25 15.5V13.45ZM4.5 9.25001C2.98122 9.25001 1.75 10.4812 1.75 12C1.75 13.5188 2.98122 14.75 4.5 14.75C5.7739 14.75 6.83487 13.9345 7.15271 12.75H5C4.58579 12.75 4.25 12.4142 4.25 12C4.25 11.5858 4.58579 11.25 5 11.25H8C8.41421 11.25 8.75 11.5858 8.75 12C8.75 14.4236 6.83777 16.25 4.5 16.25C2.15279 16.25 0.25 14.3472 0.25 12C0.25 9.6528 2.15279 7.75001 4.5 7.75001C5.40198 7.75001 6.24038 8.03183 6.92907 8.51221C7.26881 8.74918 7.35211 9.21669 7.11514 9.55642C6.87817 9.89616 6.41066 9.97946 6.07093 9.74249C5.62579 9.432 5.08527 9.25001 4.5 9.25001ZM17.25 10.25C17.25 8.86929 18.3693 7.75001 19.75 7.75001H22C22.4142 7.75001 22.75 8.08579 22.75 8.50001C22.75 8.91422 22.4142 9.25001 22 9.25001H19.75C19.1977 9.25001 18.75 9.69772 18.75 10.25C18.75 10.8023 19.1977 11.25 19.75 11.25H21.25C22.6307 11.25 23.75 12.3693 23.75 13.75C23.75 15.1307 22.6307 16.25 21.25 16.25H18C17.5858 16.25 17.25 15.9142 17.25 15.5C17.25 15.0858 17.5858 14.75 18 14.75H21.25C21.8023 14.75 22.25 14.3023 22.25 13.75C22.25 13.1977 21.8023 12.75 21.25 12.75H19.75C18.3693 12.75 17.25 11.6307 17.25 10.25Z" fill="black"/>
</g>
</g>
</g>
<defs>
<clipPath id="clip0_232_10060">
<rect width="24" height="24" rx="5" fill="white"/>
</clipPath>
</defs>
</svg>
