<svg width="24" height="24" viewBox="0 0 24 24" fill="none" xmlns="http://www.w3.org/2000/svg">
<g id="graduation-cap">
<g clip-path="url(#clip0_232_13686)">
<g id="Weight=Dynamic">
<path id="Vector (Stroke)" fill-rule="evenodd" clip-rule="evenodd" d="M10.8963 3.46335C11.2764 3.27332 11.7237 3.27332 12.1038 3.46335L20.7622 7.79253C20.7764 7.79965 20.7905 7.80697 20.8043 7.81447C20.8148 7.81911 20.8251 7.82402 20.8355 7.82918L22.8355 8.82918C23.0896 8.95623 23.2501 9.21592 23.2501 9.5V13C23.2501 13.4142 22.9143 13.75 22.5001 13.75C22.0858 13.75 21.7501 13.4142 21.7501 13V9.96353L21.2939 9.73546C21.1702 9.92708 20.9929 10.0921 20.7622 10.2075L19.2501 10.9635V15.9121C19.2501 16.9739 18.6387 17.9409 17.6795 18.3963L12.6795 20.7703C11.9331 21.1246 11.067 21.1246 10.3206 20.7703L5.32058 18.3963C4.36137 17.9409 3.75006 16.9739 3.75006 15.9121V10.9635L2.23796 10.2075C1.24295 9.70997 1.24294 8.29004 2.23796 7.79253L10.8963 3.46335ZM4.84894 9.83592C4.83973 9.83107 4.8304 9.8264 4.82096 9.82193L3.17711 9L11.5001 4.83853L19.823 9L18.1792 9.82192C18.1697 9.8264 18.1604 9.83107 18.1512 9.83593L11.5001 13.1615L4.84894 9.83592ZM5.25006 11.7135V15.9121C5.25006 16.3948 5.52793 16.8343 5.96393 17.0413L10.9639 19.4152C11.3032 19.5763 11.6969 19.5763 12.0362 19.4152L17.0362 17.0413C17.4722 16.8343 17.7501 16.3948 17.7501 15.9121V11.7135L12.1038 14.5367C11.7237 14.7267 11.2764 14.7267 10.8963 14.5367L5.25006 11.7135Z" fill="black"/>
</g>
</g>
</g>
<defs>
<clipPath id="clip0_232_13686">
<rect width="24" height="24" rx="5" fill="white"/>
</clipPath>
</defs>
</svg>
