<svg width="24" height="24" viewBox="0 0 24 24" fill="none" xmlns="http://www.w3.org/2000/svg">
<g id="graph-up">
<g clip-path="url(#clip0_232_2314)">
<g id="Weight=Dynamic">
<path id="Vector (Stroke)" fill-rule="evenodd" clip-rule="evenodd" d="M4 3.25C4.41421 3.25 4.75 3.58579 4.75 4V14.7688L11.487 8.45285C11.7824 8.17599 12.2441 8.18343 12.5303 8.46967L15 10.9393L18.9697 6.96967C19.2626 6.67678 19.7374 6.67678 20.0303 6.96967C20.3232 7.26256 20.3232 7.73744 20.0303 8.03033L15.5303 12.5303C15.2374 12.8232 14.7626 12.8232 14.4697 12.5303L11.9832 10.0438L4.75 16.8249V19.25H20C20.4142 19.25 20.75 19.5858 20.75 20C20.75 20.4142 20.4142 20.75 20 20.75H4C3.58579 20.75 3.25 20.4142 3.25 20V4C3.25 3.58579 3.58579 3.25 4 3.25Z" fill="black"/>
</g>
</g>
</g>
<defs>
<clipPath id="clip0_232_2314">
<rect width="24" height="24" rx="5" fill="white"/>
</clipPath>
</defs>
</svg>
