<svg width="24" height="24" viewBox="0 0 24 24" fill="none" xmlns="http://www.w3.org/2000/svg">
<g id="graph-down">
<g clip-path="url(#clip0_232_2322)">
<g id="Weight=Dynamic">
<path id="Vector (Stroke)" fill-rule="evenodd" clip-rule="evenodd" d="M4 3.25C4.41421 3.25 4.75 3.58579 4.75 4V6.68934L12 13.9393L14.4697 11.4697C14.7626 11.1768 15.2374 11.1768 15.5303 11.4697L20.0303 15.9697C20.3232 16.2626 20.3232 16.7374 20.0303 17.0303C19.7374 17.3232 19.2626 17.3232 18.9697 17.0303L15 13.0607L12.5303 15.5303C12.2374 15.8232 11.7626 15.8232 11.4697 15.5303L4.75 8.81066V19.25H20C20.4142 19.25 20.75 19.5858 20.75 20C20.75 20.4142 20.4142 20.75 20 20.75H4C3.58579 20.75 3.25 20.4142 3.25 20V4C3.25 3.58579 3.58579 3.25 4 3.25Z" fill="black"/>
</g>
</g>
</g>
<defs>
<clipPath id="clip0_232_2322">
<rect width="24" height="24" rx="5" fill="white"/>
</clipPath>
</defs>
</svg>
