<svg width="24" height="24" viewBox="0 0 24 24" fill="none" xmlns="http://www.w3.org/2000/svg">
<g id="grid-plus">
<g clip-path="url(#clip0_232_9894)">
<g id="Weight=Dynamic">
<path id="Vector (Stroke)" fill-rule="evenodd" clip-rule="evenodd" d="M4.75 4.75V9.25H9.25V4.75H4.75ZM3.25 4.6C3.25 3.85442 3.85441 3.25 4.6 3.25H9.4C10.1456 3.25 10.75 3.85442 10.75 4.6V9.4C10.75 10.1456 10.1456 10.75 9.4 10.75H4.6C3.85442 10.75 3.25 10.1456 3.25 9.4V4.6ZM14.75 4.75V9.25H19.25V4.75H14.75ZM13.25 4.6C13.25 3.85442 13.8544 3.25 14.6 3.25H19.4C20.1456 3.25 20.75 3.85441 20.75 4.6V9.4C20.75 10.1456 20.1456 10.75 19.4 10.75H14.6C13.8544 10.75 13.25 10.1456 13.25 9.4V4.6ZM4.75 14.75V19.25H9.25V14.75H4.75ZM3.25 14.6C3.25 13.8544 3.85441 13.25 4.6 13.25H9.4C10.1456 13.25 10.75 13.8544 10.75 14.6V19.4C10.75 20.1456 10.1456 20.75 9.4 20.75H4.6C3.85441 20.75 3.25 20.1456 3.25 19.4V14.6ZM16.9922 13.25C17.4064 13.25 17.7422 13.5858 17.7422 14V16.25H19.9922C20.4064 16.25 20.7422 16.5858 20.7422 17C20.7422 17.4142 20.4064 17.75 19.9922 17.75H17.7422V20C17.7422 20.4142 17.4064 20.75 16.9922 20.75C16.578 20.75 16.2422 20.4142 16.2422 20V17.75H13.9922C13.578 17.75 13.2422 17.4142 13.2422 17C13.2422 16.5858 13.578 16.25 13.9922 16.25H16.2422V14C16.2422 13.5858 16.578 13.25 16.9922 13.25Z" fill="black"/>
</g>
</g>
</g>
<defs>
<clipPath id="clip0_232_9894">
<rect width="24" height="24" rx="5" fill="white"/>
</clipPath>
</defs>
</svg>
