<svg width="24" height="24" viewBox="0 0 24 24" fill="none" xmlns="http://www.w3.org/2000/svg">
<g id="grid-xmark">
<g clip-path="url(#clip0_232_9882)">
<g id="Weight=Dynamic">
<path id="Vector (Stroke)" fill-rule="evenodd" clip-rule="evenodd" d="M4.75 4.75V9.25H9.25V4.75H4.75ZM3.25 4.6C3.25 3.85442 3.85441 3.25 4.6 3.25H9.4C10.1456 3.25 10.75 3.85442 10.75 4.6V9.4C10.75 10.1456 10.1456 10.75 9.4 10.75H4.6C3.85442 10.75 3.25 10.1456 3.25 9.4V4.6ZM14.75 4.75V9.25H19.25V4.75H14.75ZM13.25 4.6C13.25 3.85442 13.8544 3.25 14.6 3.25H19.4C20.1456 3.25 20.75 3.85441 20.75 4.6V9.4C20.75 10.1456 20.1456 10.75 19.4 10.75H14.6C13.8544 10.75 13.25 10.1456 13.25 9.4V4.6ZM4.75 14.75V19.25H9.25V14.75H4.75ZM3.25 14.6C3.25 13.8544 3.85441 13.25 4.6 13.25H9.4C10.1456 13.25 10.75 13.8544 10.75 14.6V19.4C10.75 20.1456 10.1456 20.75 9.4 20.75H4.6C3.85441 20.75 3.25 20.1456 3.25 19.4V14.6ZM14.341 14.3483C14.6339 14.0555 15.1088 14.0555 15.4017 14.3483L16.9926 15.9393L18.5836 14.3483C18.8765 14.0555 19.3514 14.0555 19.6443 14.3483C19.9372 14.6412 19.9372 15.1161 19.6443 15.409L18.0533 17L19.6443 18.591C19.9372 18.8839 19.9372 19.3588 19.6443 19.6516C19.3514 19.9445 18.8765 19.9445 18.5836 19.6516L16.9926 18.0607L15.4017 19.6516C15.1088 19.9445 14.6339 19.9445 14.341 19.6517C14.0481 19.3588 14.0481 18.8839 14.341 18.591L15.932 17L14.341 15.409C14.0481 15.1161 14.0481 14.6412 14.341 14.3483Z" fill="black"/>
</g>
</g>
</g>
<defs>
<clipPath id="clip0_232_9882">
<rect width="24" height="24" rx="5" fill="white"/>
</clipPath>
</defs>
</svg>
