<svg width="24" height="24" viewBox="0 0 24 24" fill="none" xmlns="http://www.w3.org/2000/svg">
<g id="gym">
<g clip-path="url(#clip0_232_1942)">
<g id="Weight=Dynamic">
<path id="Vector (Stroke)" fill-rule="evenodd" clip-rule="evenodd" d="M3.25 7.6C3.25 6.85442 3.85441 6.25 4.6 6.25H7.4C8.14558 6.25 8.75 6.85442 8.75 7.6V11.25H15.25V7.6C15.25 6.85442 15.8544 6.25 16.6 6.25H19.4C20.1456 6.25 20.75 6.85441 20.75 7.6V8.25H22.4C23.1456 8.25 23.75 8.85441 23.75 9.6V14.4C23.75 15.1456 23.1456 15.75 22.4 15.75H20.75V16.4C20.75 17.1456 20.1456 17.75 19.4 17.75H16.6C15.8544 17.75 15.25 17.1456 15.25 16.4V12.75H8.75V16.4C8.75 17.1456 8.14559 17.75 7.4 17.75H4.6C3.85442 17.75 3.25 17.1456 3.25 16.4V15.75H1.6C0.854416 15.75 0.25 15.1456 0.25 14.4V9.6C0.25 8.85442 0.854416 8.25 1.6 8.25H3.25V7.6ZM4.75 16.25H7.25V7.75H4.75V16.25ZM3.25 9.75H1.75V14.25H3.25V9.75ZM16.75 16.25H19.25V7.75H16.75V16.25ZM20.75 14.25H22.25V9.75H20.75V14.25Z" fill="black"/>
</g>
</g>
</g>
<defs>
<clipPath id="clip0_232_1942">
<rect width="24" height="24" rx="5" fill="white"/>
</clipPath>
</defs>
</svg>
