<svg width="24" height="24" viewBox="0 0 24 24" fill="none" xmlns="http://www.w3.org/2000/svg">
<g id="half-cookie">
<g clip-path="url(#clip0_232_14974)">
<g id="Weight=Dynamic">
<path id="Vector (Stroke)" fill-rule="evenodd" clip-rule="evenodd" d="M10.6565 1.33312C5.35317 1.99471 1.25 6.51768 1.25 11.9999C1.25 17.937 6.06294 22.7499 12 22.7499C17.2016 22.7499 21.5389 19.0562 22.535 14.1491C22.6174 13.7432 22.3551 13.3473 21.9492 13.2649C21.8468 13.2441 21.7451 13.2452 21.6489 13.2651C21.5715 13.2703 21.4936 13.2878 21.4178 13.3185C21.0247 13.4779 20.3212 13.4907 19.7276 13.2021C19.1941 12.9428 18.7497 12.4447 18.7497 11.5C18.7497 11.2881 18.6601 11.0861 18.503 10.9439C18.3459 10.8017 18.1359 10.7326 17.9251 10.7537C15.593 10.9869 14.1601 10.2747 13.5023 9.32341C12.8484 8.37767 12.7937 6.95449 13.7296 5.38387C13.8677 5.1521 13.8706 4.86402 13.7374 4.62944C13.6041 4.39487 13.3551 4.24996 13.0853 4.24996C12.1028 4.24996 11.4298 3.38292 11.6666 2.39321C11.724 2.28217 11.7543 2.15565 11.7496 2.02325C11.7597 1.70047 11.559 1.3958 11.2369 1.28844C11.0374 1.22195 10.8298 1.24394 10.6565 1.33312ZM20.7763 14.9305C20.2111 14.9339 19.6112 14.8134 19.0718 14.5512C18.2402 14.147 17.5498 13.4029 17.3261 12.2941C15.0204 12.3555 13.237 11.5772 12.2685 10.1765C11.3651 8.86985 11.29 7.19387 11.9721 5.54665C10.8855 5.12441 10.185 4.095 10.1254 2.93983C5.91582 3.80606 2.75 7.53367 2.75 11.9999C2.75 17.1085 6.89137 21.2499 12 21.2499C16.0838 21.2499 19.5508 18.6028 20.7763 14.9305ZM19.25 3.49996C19.25 2.8096 19.8096 2.24996 20.5 2.24996C21.1904 2.24996 21.75 2.8096 21.75 3.49996C21.75 4.19032 21.1904 4.74996 20.5 4.74996C19.8096 4.74996 19.25 4.19032 19.25 3.49996ZM20.5 3.74996C20.6381 3.74996 20.75 3.63803 20.75 3.49996C20.75 3.36189 20.6381 3.24996 20.5 3.24996C20.3619 3.24996 20.25 3.36189 20.25 3.49996C20.25 3.63803 20.3619 3.74996 20.5 3.74996ZM17.5117 5.44138C17.8196 5.71848 17.8446 6.19269 17.5675 6.50057L17.5575 6.51169C17.2804 6.81957 16.8062 6.84452 16.4983 6.56743C16.1904 6.29033 16.1654 5.81611 16.4425 5.50823L16.4525 5.49712C16.7296 5.18924 17.2038 5.16428 17.5117 5.44138ZM21.5117 8.44138C21.8196 8.71848 21.8446 9.19269 21.5675 9.50057L21.5575 9.51169C21.2804 9.81957 20.8062 9.84452 20.4983 9.56743C20.1904 9.29033 20.1654 8.81611 20.4425 8.50823L20.4525 8.49712C20.7296 8.18924 21.2038 8.16428 21.5117 8.44138ZM5.25 9.49996C5.25 8.8096 5.80964 8.24996 6.5 8.24996C7.19036 8.24996 7.75 8.8096 7.75 9.49996C7.75 10.1903 7.19036 10.75 6.5 10.75C5.80964 10.75 5.25 10.1903 5.25 9.49996ZM6.5 9.74996C6.63807 9.74996 6.75 9.63803 6.75 9.49996C6.75 9.36189 6.63807 9.24996 6.5 9.24996C6.36193 9.24996 6.25 9.36189 6.25 9.49996C6.25 9.63803 6.36193 9.74996 6.5 9.74996ZM11.5117 11.4414C11.8196 11.7185 11.8446 12.1927 11.5675 12.5006L11.5575 12.5117C11.2804 12.8196 10.8062 12.8445 10.4983 12.5674C10.1904 12.2903 10.1654 11.8161 10.4425 11.5082L10.4525 11.4971C10.7296 11.1892 11.2038 11.1643 11.5117 11.4414ZM7.51173 14.4414C7.81961 14.7185 7.84456 15.1927 7.56747 15.5006L7.55747 15.5117C7.28037 15.8196 6.80616 15.8445 6.49827 15.5674C6.19039 15.2903 6.16544 14.8161 6.44253 14.5082L6.45253 14.4971C6.72963 14.1892 7.20385 14.1643 7.51173 14.4414ZM17.5117 14.4414C17.8196 14.7185 17.8446 15.1927 17.5675 15.5006L17.5575 15.5117C17.2804 15.8196 16.8062 15.8445 16.4983 15.5674C16.1904 15.2903 16.1654 14.8161 16.4425 14.5082L16.4525 14.4971C16.7296 14.1892 17.2038 14.1643 17.5117 14.4414ZM10.25 18C10.25 17.0335 11.0335 16.25 12 16.25C12.9665 16.25 13.75 17.0335 13.75 18C13.75 18.9665 12.9665 19.75 12 19.75C11.0335 19.75 10.25 18.9665 10.25 18ZM12 17.75C11.8619 17.75 11.75 17.8619 11.75 18C11.75 18.138 11.8619 18.25 12 18.25C12.1381 18.25 12.25 18.138 12.25 18C12.25 17.8619 12.1381 17.75 12 17.75Z" fill="black"/>
</g>
</g>
</g>
<defs>
<clipPath id="clip0_232_14974">
<rect width="24" height="24" rx="5" fill="white"/>
</clipPath>
</defs>
</svg>
