<svg width="24" height="24" viewBox="0 0 24 24" fill="none" xmlns="http://www.w3.org/2000/svg">
<g id="hammer">
<g clip-path="url(#clip0_232_15669)">
<g id="Weight=Dynamic">
<path id="Vector (Stroke)" fill-rule="evenodd" clip-rule="evenodd" d="M9.39621 1.33272C9.649 1.07992 10.0451 1.0407 10.3426 1.23901L18.8278 6.89587C19.0148 7.0205 19.136 7.2224 19.1582 7.446C19.1803 7.6696 19.101 7.89135 18.9421 8.05023L18.4118 8.58056L18.7654 8.93412L19.2957 8.40379C19.4364 8.26314 19.6271 8.18412 19.826 8.18412C20.0249 8.18412 20.2157 8.26314 20.3564 8.40379L22.8312 10.8787C22.9719 11.0193 23.0509 11.2101 23.0509 11.409C23.0509 11.6079 22.9719 11.7987 22.8312 11.9393L17.8815 16.8891C17.5886 17.182 17.1137 17.182 16.8208 16.8891L14.346 14.4142C14.0531 14.1213 14.0531 13.6464 14.346 13.3535L14.8763 12.8232L14.5227 12.4697L13.2854 13.7071L4.80009 22.1924C4.65944 22.333 4.46867 22.412 4.26976 22.412C4.07085 22.412 3.88008 22.333 3.73943 22.1924L1.61811 20.071C1.32521 19.7782 1.32521 19.3033 1.61811 19.0104L11.307 9.32141C11.306 9.26769 11.3037 9.20558 11.2993 9.13558C11.2803 8.83059 11.2221 8.37619 11.0615 7.81433C10.7419 6.69567 10.0104 5.12894 8.33555 3.45404C8.19489 3.31339 8.11588 3.12262 8.11588 2.92371C8.11588 2.7248 8.19489 2.53403 8.33555 2.39338L9.39621 1.33272ZM12.0479 9.64122L12.7933 9.72405C12.7745 9.8933 12.6986 10.0511 12.5782 10.1715L11.6944 11.0554L12.755 12.1161L13.9924 10.8787C14.133 10.738 14.3238 10.659 14.5227 10.659C14.7216 10.659 14.9124 10.738 15.0531 10.8787L16.4673 12.2929C16.7602 12.5858 16.7602 13.0606 16.4673 13.3535L15.9369 13.8839L17.3512 15.2981L21.2402 11.409L19.826 9.99478L19.2957 10.5251C19.1551 10.6658 18.9643 10.7448 18.7654 10.7448C18.5665 10.7448 18.3757 10.6658 18.235 10.5251L16.8208 9.11089C16.6802 8.97024 16.6012 8.77948 16.6012 8.58056C16.6012 8.38165 16.6802 8.19089 16.8208 8.05023L17.2346 7.63647L10.0221 2.82815L9.91359 2.93665C11.4203 4.60016 12.1542 6.1786 12.5038 7.40225C12.6969 8.07783 12.7713 8.6399 12.7964 9.04201C12.809 9.24304 12.8092 9.40416 12.8058 9.51964C12.8041 9.57739 12.8015 9.62377 12.7991 9.65806C12.7978 9.67521 12.7966 9.68934 12.7956 9.70036L12.7943 9.71457L12.7937 9.7199L12.7935 9.72212L12.7933 9.72405C12.7932 9.72452 12.7933 9.72405 12.0479 9.64122ZM11.6944 13.1768L10.6337 12.1161L3.2091 19.5407L4.26976 20.6014L11.6944 13.1768Z" fill="black"/>
</g>
</g>
</g>
<defs>
<clipPath id="clip0_232_15669">
<rect width="24" height="24" rx="5" fill="white"/>
</clipPath>
</defs>
</svg>
