<svg width="24" height="24" viewBox="0 0 24 24" fill="none" xmlns="http://www.w3.org/2000/svg">
<g id="hand-cash">
<g clip-path="url(#clip0_232_7636)">
<g id="Weight=Dynamic">
<path id="Vector (Stroke)" fill-rule="evenodd" clip-rule="evenodd" d="M7.54652 5.75657C8.00049 4.86258 8.92871 4.25 10 4.25H20C21.5188 4.25 22.75 5.48122 22.75 7V13C22.75 14.5188 21.5188 15.75 20.0001 15.75C20 15.75 20.0001 15.75 20.0001 15.75L13.7619 15.7504C13.2472 16.1572 12.8125 16.4825 12.4952 16.7138C12.3157 16.8446 12.1735 16.9455 12.0755 17.0142C12.0265 17.0486 11.9885 17.0749 11.9623 17.0929L11.9365 17.1106L7.94998 20.1003C7.82018 20.1976 7.6623 20.2502 7.50004 20.2502L2.00004 20.2505C1.58583 20.2505 1.25003 19.9147 1.25001 19.5005C1.24999 19.0863 1.58576 18.7505 1.99997 18.7505L7.25001 18.7503L11.05 15.9005C11.0597 15.8932 11.0696 15.8862 11.0796 15.8794C11.0796 15.8794 11.0797 15.8794 11.0796 15.8794L11.0866 15.8746L11.1119 15.8573C11.1346 15.8417 11.1691 15.8178 11.2146 15.7859C11.3055 15.7222 11.44 15.6267 11.6117 15.5016C11.955 15.2514 12.4459 14.8832 13.0315 14.4147C13.5291 14.0167 13.7254 13.6071 13.773 13.2703C13.8216 12.9271 13.726 12.5933 13.525 12.3254C13.5231 12.3228 13.5211 12.3202 13.5192 12.3176C13.34 12.2029 13.175 12.068 13.0274 11.9161C12.6049 11.7124 12.0365 11.7104 11.4159 12.124C10.3872 12.8097 9.37828 13.4403 8.6276 13.899C8.25194 14.1285 7.94022 14.3155 7.72207 14.4452C7.61298 14.5101 7.52726 14.5607 7.46859 14.5952L7.40133 14.6346L7.37795 14.6483C7.37791 14.6483 7.37742 14.6486 7.00001 14.0005L7.37795 14.6483C7.02 14.8568 6.56033 14.7359 6.35189 14.3779C6.14345 14.02 6.26464 13.5608 6.62258 13.3524C6.62257 13.3524 6.62258 13.3524 6.62258 13.3524L6.64379 13.34L6.70817 13.3022C6.76487 13.2689 6.84849 13.2195 6.95535 13.156C7.03971 13.1058 7.13854 13.0468 7.25001 12.9798V7.29622C6.52726 7.41945 5.86141 7.78482 5.36719 8.34082L2.56057 11.4983C2.28538 11.8079 1.81132 11.8358 1.50174 11.5606C1.19215 11.2854 1.16426 10.8113 1.43945 10.5017L4.24608 7.34428C5.09198 6.39263 6.2819 5.82308 7.54652 5.75657ZM8.75001 12.0593C9.31523 11.7051 9.94644 11.3008 10.5841 10.8758C11.144 10.5027 11.7182 10.3183 12.2648 10.2869C12.255 10.1926 12.25 10.0969 12.25 10C12.25 8.48122 13.4812 7.25 15 7.25C16.5188 7.25 17.75 8.48122 17.75 10C17.75 11.4303 16.6581 12.6055 15.2624 12.7376C15.294 12.9785 15.294 13.2277 15.2582 13.4805C15.2212 13.7421 15.147 14 15.0355 14.2503L20 14.25C20.6903 14.25 21.25 13.6904 21.25 13V7C21.25 6.30964 20.6904 5.75 20 5.75H10C9.30965 5.75 8.75001 6.30964 8.75001 7V12.0593ZM14.4749 11.1347C14.6346 11.2087 14.8125 11.25 15 11.25C15.6904 11.25 16.25 10.6904 16.25 10C16.25 9.30964 15.6904 8.75 15 8.75C14.3097 8.75 13.75 9.30964 13.75 10C13.75 10.2779 13.8407 10.5346 13.9941 10.7422C14.1681 10.8552 14.3294 10.9868 14.4749 11.1347ZM11.0117 9.44142C11.3196 9.71852 11.3446 10.1927 11.0675 10.5006L11.0575 10.5117C10.7804 10.8196 10.3062 10.8446 9.99828 10.5675C9.6904 10.2904 9.66545 9.81616 9.94254 9.50827L9.95254 9.49716C10.2296 9.18928 10.7039 9.16433 11.0117 9.44142ZM20.0117 9.44137C20.3196 9.71844 20.3446 10.1927 20.0675 10.5006L20.0575 10.5117C19.7805 10.8196 19.3062 10.8446 18.9983 10.5675C18.6904 10.2904 18.6654 9.81623 18.9425 9.50833L18.9525 9.49722C19.2296 9.18931 19.7038 9.16431 20.0117 9.44137Z" fill="black"/>
</g>
</g>
</g>
<defs>
<clipPath id="clip0_232_7636">
<rect width="24" height="24" rx="5" fill="white"/>
</clipPath>
</defs>
</svg>
