<svg width="24" height="24" viewBox="0 0 24 24" fill="none" xmlns="http://www.w3.org/2000/svg">
<g id="hand-card">
<g clip-path="url(#clip0_232_7610)">
<g id="Weight=Dynamic">
<path id="Vector (Stroke)" fill-rule="evenodd" clip-rule="evenodd" d="M7.54652 5.75657C8.00049 4.86258 8.92871 4.25 10 4.25H20C21.5188 4.25 22.75 5.48122 22.75 7V13C22.75 14.5188 21.5188 15.75 20.0001 15.75C20 15.75 20.0001 15.75 20.0001 15.75L13.7619 15.7504C13.2472 16.1572 12.8125 16.4825 12.4952 16.7138C12.3157 16.8446 12.1735 16.9455 12.0755 17.0142C12.0265 17.0486 11.9885 17.0749 11.9623 17.0929L11.9365 17.1106L7.94998 20.1003C7.82018 20.1976 7.6623 20.2502 7.50004 20.2502L2.00004 20.2505C1.58583 20.2505 1.25003 19.9147 1.25001 19.5005C1.24999 19.0863 1.58576 18.7505 1.99997 18.7505L7.25001 18.7503L11.05 15.9005C11.0597 15.8932 11.0696 15.8861 11.0797 15.8793L11.0809 15.8786L11.0866 15.8746L11.1119 15.8573C11.1346 15.8417 11.1691 15.8178 11.2146 15.7859C11.3055 15.7222 11.44 15.6267 11.6117 15.5016C11.955 15.2514 12.4459 14.8832 13.0315 14.4147C13.5291 14.0167 13.7254 13.6071 13.773 13.2703C13.8216 12.9271 13.726 12.5933 13.525 12.3254C13.1386 11.8102 12.3345 11.5118 11.4159 12.124C10.2741 12.885 9.15661 13.5784 8.38918 14.0442C8.08121 14.2312 7.82901 14.3818 7.65349 14.4859C7.56571 14.538 7.49708 14.5785 7.45021 14.606L7.39653 14.6375L7.37785 14.6484C7.37784 14.6484 7.37742 14.6486 7.00001 14.0005L7.37785 14.6484C7.01991 14.8568 6.56033 14.7359 6.35189 14.3779C6.14345 14.02 6.26465 13.5608 6.62258 13.3524C6.62257 13.3524 6.62258 13.3524 6.62258 13.3524L6.6393 13.3426L6.69044 13.3126C6.73558 13.2861 6.80237 13.2468 6.88822 13.1958C6.9856 13.1381 7.10746 13.0655 7.25001 12.9798V7.29622C6.52726 7.41945 5.86141 7.78482 5.36719 8.34082L2.56057 11.4983C2.28538 11.8079 1.81132 11.8358 1.50174 11.5606C1.19215 11.2854 1.16426 10.8113 1.43945 10.5017L4.24608 7.34428C5.09198 6.39263 6.2819 5.82308 7.54652 5.75657ZM8.75001 12.0593C9.31514 11.7051 9.94636 11.3008 10.5841 10.8758C12.1655 9.82187 13.8614 10.2738 14.725 11.4254C15.1491 11.9908 15.3659 12.7196 15.2582 13.4805C15.2212 13.7421 15.147 14 15.0355 14.2503L20 14.25C20.6903 14.25 21.25 13.6904 21.25 13V9.75L11 9.75C10.5858 9.75 10.25 9.41421 10.25 9C10.25 8.58579 10.5858 8.25 11 8.25L21.25 8.25V7C21.25 6.30964 20.6904 5.75 20 5.75H10C9.30965 5.75 8.75001 6.30964 8.75001 7V12.0593Z" fill="black"/>
</g>
</g>
</g>
<defs>
<clipPath id="clip0_232_7610">
<rect width="24" height="24" rx="5" fill="white"/>
</clipPath>
</defs>
</svg>
