<svg width="24" height="24" viewBox="0 0 24 24" fill="none" xmlns="http://www.w3.org/2000/svg">
<g id="handbag">
<g clip-path="url(#clip0_232_2588)">
<g id="Weight=Dynamic">
<path id="Vector (Stroke)" fill-rule="evenodd" clip-rule="evenodd" d="M9.75 3.75V7.25H14.25V3.75H9.75ZM15.75 7.25V3.6C15.75 2.85442 15.1456 2.25 14.4 2.25H9.6C8.85442 2.25 8.25 2.85442 8.25 3.6V7.25H4C2.48122 7.25 1.25 8.48122 1.25 10V19C1.25 20.5188 2.48122 21.75 4 21.75H20C21.5188 21.75 22.75 20.5188 22.75 19V10C22.75 8.48122 21.5188 7.25 20 7.25H15.75ZM14.25 8.75V14C14.25 14.4142 14.5858 14.75 15 14.75C15.4142 14.75 15.75 14.4142 15.75 14V8.75H20C20.6904 8.75 21.25 9.30964 21.25 10V19C21.25 19.6904 20.6904 20.25 20 20.25H4C3.30964 20.25 2.75 19.6904 2.75 19V10C2.75 9.30964 3.30964 8.75 4 8.75H8.25V14C8.25 14.4142 8.58579 14.75 9 14.75C9.41421 14.75 9.75 14.4142 9.75 14V8.75H14.25Z" fill="black"/>
</g>
</g>
</g>
<defs>
<clipPath id="clip0_232_2588">
<rect width="24" height="24" rx="5" fill="white"/>
</clipPath>
</defs>
</svg>
