<svg width="24" height="24" viewBox="0 0 24 24" fill="none" xmlns="http://www.w3.org/2000/svg">
<g id="hand-brake">
<g clip-path="url(#clip0_232_16392)">
<g id="Weight=Dynamic">
<path id="Vector (Stroke)" fill-rule="evenodd" clip-rule="evenodd" d="M12 4.75C7.99594 4.75 4.75 7.99594 4.75 12C4.75 16.0041 7.99594 19.25 12 19.25C16.0041 19.25 19.25 16.0041 19.25 12C19.25 7.99594 16.0041 4.75 12 4.75ZM3.25 12C3.25 7.16751 7.16751 3.25 12 3.25C16.8325 3.25 20.75 7.16751 20.75 12C20.75 16.8325 16.8325 20.75 12 20.75C7.16751 20.75 3.25 16.8325 3.25 12ZM4.46468 3.95147C4.76763 4.23395 4.78422 4.70854 4.50174 5.01148C2.79392 6.84301 1.75 9.29876 1.75 12C1.75 14.7012 2.79392 17.157 4.50174 18.9885C4.78422 19.2915 4.76763 19.766 4.46468 20.0485C4.16174 20.331 3.68716 20.3144 3.40467 20.0115C1.44818 17.9133 0.25 15.0957 0.25 12C0.25 8.90428 1.44818 6.08674 3.40467 3.98852C3.68716 3.68557 4.16174 3.66898 4.46468 3.95147ZM19.5354 3.95147C19.8383 3.66898 20.3129 3.68557 20.5954 3.98852C22.5519 6.08674 23.7501 8.90428 23.7501 12C23.7501 15.0957 22.5519 17.9133 20.5954 20.0115C20.3129 20.3144 19.8383 20.331 19.5354 20.0485C19.2324 19.766 19.2159 19.2915 19.4983 18.9885C21.2062 17.157 22.2501 14.7012 22.2501 12C22.2501 9.29876 21.2062 6.84301 19.4983 5.01148C19.2159 4.70854 19.2324 4.23395 19.5354 3.95147ZM12 7.25C12.4142 7.25 12.75 7.58579 12.75 8V9C12.75 9.41421 12.4142 9.75 12 9.75C11.5858 9.75 11.25 9.41421 11.25 9V8C11.25 7.58579 11.5858 7.25 12 7.25ZM12 11.25C12.4142 11.25 12.75 11.5858 12.75 12V16C12.75 16.4142 12.4142 16.75 12 16.75C11.5858 16.75 11.25 16.4142 11.25 16V12C11.25 11.5858 11.5858 11.25 12 11.25Z" fill="black"/>
</g>
</g>
</g>
<defs>
<clipPath id="clip0_232_16392">
<rect width="24" height="24" rx="5" fill="white"/>
</clipPath>
</defs>
</svg>
