<svg width="24" height="24" viewBox="0 0 24 24" fill="none" xmlns="http://www.w3.org/2000/svg">
<g id="hard-drive">
<g clip-path="url(#clip0_232_6013)">
<g id="Weight=Dynamic">
<path id="Vector (Stroke)" fill-rule="evenodd" clip-rule="evenodd" d="M4.15335 3.21208C4.32466 2.64105 4.85025 2.25 5.44642 2.25H18.5536C19.1498 2.25 19.6753 2.64105 19.8466 3.21208L22.75 12.8899V20.4C22.75 21.1456 22.1456 21.75 21.4 21.75H2.6C1.85442 21.75 1.25 21.1456 1.25 20.4V12.8899L4.15335 3.21208ZM5.55802 3.75L3.00802 12.25H20.992L18.442 3.75H5.55802ZM21.25 13.75H2.75V20.25H21.25V13.75ZM6.51173 16.4414C6.81961 16.7185 6.84456 17.1927 6.56747 17.5006L6.55747 17.5117C6.28037 17.8196 5.80616 17.8446 5.49827 17.5675C5.19039 17.2904 5.16544 16.8162 5.44253 16.5083L5.45253 16.4972C5.72963 16.1893 6.20385 16.1643 6.51173 16.4414ZM10.5117 16.4414C10.8196 16.7185 10.8446 17.1927 10.5675 17.5006L10.5575 17.5117C10.2804 17.8196 9.80616 17.8446 9.49827 17.5675C9.19039 17.2904 9.16544 16.8162 9.44253 16.5083L9.45253 16.4972C9.72963 16.1893 10.2038 16.1643 10.5117 16.4414Z" fill="black"/>
</g>
</g>
</g>
<defs>
<clipPath id="clip0_232_6013">
<rect width="24" height="24" rx="5" fill="white"/>
</clipPath>
</defs>
</svg>
