<svg width="24" height="24" viewBox="0 0 24 24" fill="none" xmlns="http://www.w3.org/2000/svg">
<g id="hashtag">
<g clip-path="url(#clip0_232_14069)">
<g id="Weight=Dynamic">
<path id="Vector (Stroke)" fill-rule="evenodd" clip-rule="evenodd" d="M10.1627 2.26786C10.567 2.35772 10.822 2.75835 10.7321 3.1627L10.0461 6.25H16.5095L17.2679 2.8373C17.3577 2.43295 17.7583 2.178 18.1627 2.26786C18.567 2.35772 18.822 2.75835 18.7321 3.1627L18.0461 6.25H22C22.4142 6.25 22.75 6.58579 22.75 7C22.75 7.41421 22.4142 7.75 22 7.75H17.7127L16.0461 15.25H20.5C20.9142 15.25 21.25 15.5858 21.25 16C21.25 16.4142 20.9142 16.75 20.5 16.75H15.7127L14.7321 21.1627C14.6423 21.567 14.2417 21.822 13.8373 21.7321C13.433 21.6423 13.178 21.2417 13.2679 20.8373L14.1761 16.75H7.71274L6.73214 21.1627C6.64228 21.567 6.24165 21.822 5.8373 21.7321C5.43295 21.6423 5.178 21.2417 5.26786 20.8373L6.17615 16.75H2.5C2.08579 16.75 1.75 16.4142 1.75 16C1.75 15.5858 2.08579 15.25 2.5 15.25H6.50948L8.17615 7.75H4C3.58579 7.75 3.25 7.41421 3.25 7C3.25 6.58579 3.58579 6.25 4 6.25H8.50948L9.26786 2.8373C9.35772 2.43295 9.75835 2.178 10.1627 2.26786ZM9.71274 7.75L8.04607 15.25H14.5095L16.1761 7.75H9.71274Z" fill="black"/>
</g>
</g>
</g>
<defs>
<clipPath id="clip0_232_14069">
<rect width="24" height="24" rx="5" fill="white"/>
</clipPath>
</defs>
</svg>
