<svg width="24" height="24" viewBox="0 0 24 24" fill="none" xmlns="http://www.w3.org/2000/svg">
<g id="hat">
<g clip-path="url(#clip0_232_2551)">
<g id="Weight=Dynamic">
<path id="Vector (Stroke)" fill-rule="evenodd" clip-rule="evenodd" d="M14.5117 5.44143C14.8196 5.71853 14.8446 6.19274 14.5675 6.50062L14.5575 6.51173C14.2804 6.81961 13.8061 6.84457 13.4983 6.56747C13.1904 6.29037 13.1654 5.81615 13.4425 5.50827L13.4525 5.49716C13.7296 5.18928 14.2039 5.16433 14.5117 5.44143ZM14 8.75C10.5482 8.75 7.75 11.5482 7.75 15V16.25H20.25V15C20.25 11.5482 17.4518 8.75 14 8.75ZM6.25 16.25H2C1.58579 16.25 1.25 16.5858 1.25 17C1.25 17.4142 1.58579 17.75 2 17.75H21C21.4142 17.75 21.75 17.4142 21.75 17V15C21.75 10.7198 18.2802 7.25 14 7.25C9.71979 7.25 6.25 10.7198 6.25 15V16.25Z" fill="black"/>
</g>
</g>
</g>
<defs>
<clipPath id="clip0_232_2551">
<rect width="24" height="24" rx="5" fill="white"/>
</clipPath>
</defs>
</svg>
