<svg width="24" height="24" viewBox="0 0 24 24" fill="none" xmlns="http://www.w3.org/2000/svg">
<g id="hd-display">
<g clip-path="url(#clip0_232_12373)">
<g id="Weight=Dynamic">
<path id="Vector (Stroke)" fill-rule="evenodd" clip-rule="evenodd" d="M7 3.75C4.1005 3.75 1.75 6.1005 1.75 9V15C1.75 17.8995 4.1005 20.25 7 20.25H17C19.8995 20.25 22.25 17.8995 22.25 15V9C22.25 6.1005 19.8995 3.75 17 3.75H7ZM0.25 9C0.25 5.27208 3.27208 2.25 7 2.25H17C20.7279 2.25 23.75 5.27208 23.75 9V15C23.75 18.7279 20.7279 21.75 17 21.75H7C3.27208 21.75 0.25 18.7279 0.25 15V9ZM14.75 9.25431V14.7457C15.715 14.7307 16.5157 14.665 17.1203 14.3829C17.4642 14.2224 17.7273 13.9965 17.9147 13.6592C18.1085 13.3104 18.25 12.79 18.25 12C18.25 11.21 18.1085 10.6896 17.9147 10.3408C17.7273 10.0035 17.4642 9.77763 17.1203 9.61714C16.5157 9.33498 15.715 9.26929 14.75 9.25431ZM19.2259 9.61233C19.579 10.2479 19.75 11.04 19.75 12C19.75 12.96 19.579 13.7521 19.2259 14.3877C18.8664 15.0348 18.3483 15.4651 17.7547 15.7421C16.6645 16.2509 15.272 16.2504 14.0961 16.25C14.0639 16.25 14.0319 16.25 14 16.25C13.5858 16.25 13.25 15.9142 13.25 15.5V8.5C13.25 8.08579 13.5858 7.75 14 7.75C14.0319 7.75 14.0639 7.74999 14.0961 7.74998C15.272 7.74959 16.6645 7.74914 17.7547 8.25786C18.3483 8.53487 18.8664 8.96522 19.2259 9.61233ZM6 7.75C6.41421 7.75 6.75 8.08579 6.75 8.5V11.25H9.75V8.5C9.75 8.08579 10.0858 7.75 10.5 7.75C10.9142 7.75 11.25 8.08579 11.25 8.5V15.5C11.25 15.9142 10.9142 16.25 10.5 16.25C10.0858 16.25 9.75 15.9142 9.75 15.5V12.75H6.75V15.5C6.75 15.9142 6.41421 16.25 6 16.25C5.58579 16.25 5.25 15.9142 5.25 15.5V8.5C5.25 8.08579 5.58579 7.75 6 7.75Z" fill="black"/>
</g>
</g>
</g>
<defs>
<clipPath id="clip0_232_12373">
<rect width="24" height="24" rx="5" fill="white"/>
</clipPath>
</defs>
</svg>
