<svg width="24" height="24" viewBox="0 0 24 24" fill="none" xmlns="http://www.w3.org/2000/svg">
<g id="hd">
<g clip-path="url(#clip0_232_12418)">
<g id="Weight=Dynamic">
<path id="Vector (Stroke)" fill-rule="evenodd" clip-rule="evenodd" d="M13.75 7.75158V16.2484C15.4952 16.2387 17.0443 16.1691 18.2115 15.6827C18.8468 15.418 19.336 15.0403 19.6757 14.4944C20.0197 13.9416 20.25 13.1522 20.25 12C20.25 10.8478 20.0197 10.0584 19.6757 9.50562C19.336 8.95968 18.8468 8.58201 18.2115 8.31732C17.0443 7.83097 15.4952 7.76136 13.75 7.75158ZM20.9493 8.71316C21.4803 9.56662 21.75 10.6522 21.75 12C21.75 13.3478 21.4803 14.4334 20.9493 15.2869C20.414 16.1472 19.6532 16.707 18.7885 17.0673C17.1489 17.7505 15.0236 17.7502 13.1001 17.75C13.0667 17.75 13.0333 17.75 13 17.75C12.5858 17.75 12.25 17.4142 12.25 17V7.00001C12.25 6.5858 12.5858 6.25001 13 6.25001C13.0333 6.25001 13.0667 6.25001 13.1001 6.25001C15.0236 6.2498 17.1489 6.24957 18.7885 6.93271C19.6532 7.29302 20.414 7.85284 20.9493 8.71316ZM3 6.25001C3.41421 6.25001 3.75 6.5858 3.75 7.00001V11.25H9.25V7.00001C9.25 6.5858 9.58579 6.25001 10 6.25001C10.4142 6.25001 10.75 6.5858 10.75 7.00001V17C10.75 17.4142 10.4142 17.75 10 17.75C9.58579 17.75 9.25 17.4142 9.25 17V12.75H3.75V17C3.75 17.4142 3.41421 17.75 3 17.75C2.58579 17.75 2.25 17.4142 2.25 17V7.00001C2.25 6.5858 2.58579 6.25001 3 6.25001Z" fill="black"/>
</g>
</g>
</g>
<defs>
<clipPath id="clip0_232_12418">
<rect width="24" height="24" rx="5" fill="white"/>
</clipPath>
</defs>
</svg>
