<svg width="24" height="24" viewBox="0 0 24 24" fill="none" xmlns="http://www.w3.org/2000/svg">
<g id="hdr">
<g clip-path="url(#clip0_232_12436)">
<g id="Weight=Dynamic">
<path id="Vector (Stroke)" fill-rule="evenodd" clip-rule="evenodd" d="M21.3163 9.40904C21.0717 9.2652 20.7421 9.25002 20.3571 9.25002H18.25V11.95H20.3571C20.7421 11.95 21.0717 11.9348 21.3163 11.791C21.4745 11.698 21.75 11.4607 21.75 10.6C21.75 9.73937 21.4745 9.50209 21.3163 9.40904ZM18.25 13.45V15.5C18.25 15.9142 17.9142 16.25 17.5 16.25C17.0858 16.25 16.75 15.9142 16.75 15.5V8.50002C16.75 8.08581 17.0858 7.75002 17.5 7.75002H20.3571C20.3688 7.75002 20.381 7.75 20.3936 7.74998C20.7389 7.74944 21.4513 7.74833 22.0766 8.116C22.8112 8.54796 23.25 9.36067 23.25 10.6C23.25 11.8394 22.8112 12.6521 22.0766 13.084C21.9611 13.1519 21.8427 13.2072 21.7242 13.2523L23.0956 15.0442C23.3473 15.3731 23.2848 15.8439 22.9558 16.0956C22.6269 16.3474 22.1561 16.2848 21.9044 15.9558L19.9867 13.45H18.25ZM10.25 9.25433V14.7457C11.215 14.7307 12.0157 14.665 12.6203 14.3829C12.9642 14.2224 13.2273 13.9965 13.4147 13.6592C13.6085 13.3105 13.75 12.79 13.75 12C13.75 11.21 13.6085 10.6896 13.4147 10.3408C13.2273 10.0035 12.9642 9.77765 12.6203 9.61716C12.0157 9.335 11.215 9.26931 10.25 9.25433ZM14.7259 9.61235C15.079 10.248 15.25 11.04 15.25 12C15.25 12.96 15.079 13.7521 14.7259 14.3877C14.3664 15.0348 13.8483 15.4651 13.2547 15.7422C12.1645 16.2509 10.772 16.2504 9.59613 16.25C9.56392 16.25 9.53187 16.25 9.5 16.25C9.08579 16.25 8.75 15.9142 8.75 15.5V8.50002C8.75 8.08581 9.08579 7.75002 9.5 7.75002C9.53187 7.75002 9.56392 7.75001 9.59613 7.75C10.772 7.74961 12.1645 7.74916 13.2547 8.25788C13.8483 8.53489 14.3664 8.96525 14.7259 9.61235ZM1.5 7.75002C1.91421 7.75002 2.25 8.08581 2.25 8.50002V11.25H5.25V8.50002C5.25 8.08581 5.58579 7.75002 6 7.75002C6.41421 7.75002 6.75 8.08581 6.75 8.50002V15.5C6.75 15.9142 6.41421 16.25 6 16.25C5.58579 16.25 5.25 15.9142 5.25 15.5V12.75H2.25V15.5C2.25 15.9142 1.91421 16.25 1.5 16.25C1.08579 16.25 0.75 15.9142 0.75 15.5V8.50002C0.75 8.08581 1.08579 7.75002 1.5 7.75002Z" fill="black"/>
</g>
</g>
</g>
<defs>
<clipPath id="clip0_232_12436">
<rect width="24" height="24" rx="5" fill="white"/>
</clipPath>
</defs>
</svg>
