<svg width="24" height="24" viewBox="0 0 24 24" fill="none" xmlns="http://www.w3.org/2000/svg">
<g id="headset-warning">
<g clip-path="url(#clip0_232_10393)">
<g id="Weight=Dynamic">
<path id="Vector (Stroke)" fill-rule="evenodd" clip-rule="evenodd" d="M4.76113 12.5364L5.07259 12.4585C5.92447 12.2457 6.75 12.8899 6.75 13.7683V19.2314C6.75 20.1097 5.92459 20.7539 5.07271 20.5411L3.33302 20.1062C2.10881 19.8001 1.25 18.7001 1.25 17.4383V15.5614C1.25 14.3281 2.07031 13.2495 3.25033 12.9155C3.29086 7.65348 7.11304 3.25 12 3.25C16.887 3.25 20.7091 7.65347 20.7497 12.9155C21.9297 13.2495 22.75 14.3281 22.75 15.5614V17.4383C22.75 18.7001 21.8912 19.8001 20.667 20.1062L18.9274 20.5411C18.0755 20.7539 17.25 20.1096 17.25 19.2314V13.7683C17.25 12.89 18.0754 12.2457 18.9273 12.4585L19.2389 12.5365C19.0262 8.12016 15.7919 4.75 12 4.75C8.20817 4.75 4.97387 8.12013 4.76113 12.5364ZM4.18189 14.2274L3.69688 14.3486C3.14041 14.4878 2.75 14.9878 2.75 15.5614V17.4383C2.75 18.0118 3.14037 18.5118 3.69684 18.6509L5.25 19.0392V13.9604L4.18189 14.2274ZM12 12.25C12.4142 12.25 12.75 12.5858 12.75 13V18C12.75 18.4142 12.4142 18.75 12 18.75C11.5858 18.75 11.25 18.4142 11.25 18V13C11.25 12.5858 11.5858 12.25 12 12.25ZM18.75 13.9604L20.3032 14.3487C20.3031 14.3486 20.3033 14.3487 20.3032 14.3487C20.8594 14.4879 21.25 14.9879 21.25 15.5614V17.4383C21.25 18.0118 20.8596 18.5118 20.3032 18.6509C20.3032 18.6509 20.3032 18.6509 20.3032 18.6509L18.75 19.0392V13.9604ZM12.512 20.4417C12.8197 20.7189 12.8445 21.1931 12.5672 21.5009L12.5572 21.512C12.28 21.8197 11.8058 21.8445 11.498 21.5672C11.1903 21.29 11.1655 20.8158 11.4428 20.508L11.4528 20.4969C11.73 20.1892 12.2042 20.1644 12.512 20.4417Z" fill="black"/>
</g>
</g>
</g>
<defs>
<clipPath id="clip0_232_10393">
<rect width="24" height="24" rx="5" fill="white"/>
</clipPath>
</defs>
</svg>
