<svg width="24" height="24" viewBox="0 0 24 24" fill="none" xmlns="http://www.w3.org/2000/svg">
<g id="headset-help">
<g clip-path="url(#clip0_232_3289)">
<g id="Weight=Dynamic">
<path id="Vector (Stroke)" fill-rule="evenodd" clip-rule="evenodd" d="M3.2504 10.9157C3.29575 6.12217 7.1957 2.25024 12 2.25024C16.8043 2.25024 20.7042 6.12216 20.7496 10.9157C21.9296 11.2497 22.75 12.3282 22.75 13.5616V15.4384C22.75 16.6717 21.9298 17.7501 20.75 18.0842V18.5002C20.75 20.0191 19.5188 21.2502 18 21.2502H15.622C15.3131 22.1241 14.4796 22.7502 13.5 22.7502H10.5C9.25735 22.7502 8.25 21.7428 8.25 20.5002C8.25 19.2576 9.25735 18.2502 10.5 18.2502H13.5C14.4796 18.2502 15.3131 18.8764 15.622 19.7502H18C18.6904 19.7502 19.25 19.1906 19.25 18.5002V18.4606L18.9274 18.5412C18.9274 18.5412 18.9275 18.5412 18.9274 18.5412C18.0753 18.7543 17.25 18.1098 17.25 17.2315V11.7685C17.25 10.8903 18.0753 10.2457 18.9274 10.4588L19.2354 10.5358C18.9959 6.74816 15.8481 3.75024 12 3.75024C8.15194 3.75024 5.00409 6.74816 4.76464 10.5358L5.07253 10.4588C5.07251 10.4588 5.07254 10.4588 5.07253 10.4588C5.92463 10.2458 6.75 10.8903 6.75 11.7685V17.2315C6.75 18.1098 5.92468 18.7543 5.07257 18.5412C5.07256 18.5412 5.07259 18.5412 5.07257 18.5412L3.33302 18.1063C2.10883 17.8003 1.25 16.7004 1.25 15.4384V13.5616C1.25 12.3282 2.07036 11.2497 3.2504 10.9157ZM3.51493 11.6213L3.48461 11.5001L3.51493 11.6213ZM18.75 11.9606V17.0394L20.3032 16.6511C20.3032 16.6511 20.3032 16.6511 20.3032 16.6511C20.8596 16.512 21.25 16.0121 21.25 15.4384V13.5616C21.25 12.988 20.8596 12.4881 20.3032 12.3489C20.3032 12.3489 20.3032 12.3489 20.3032 12.3489L18.75 11.9606ZM5.25 11.9606L3.69684 12.3489C3.14035 12.4881 2.75 12.988 2.75 13.5616V15.4384C2.75 16.0121 3.14035 16.512 3.69684 16.6511L5.25 17.0394V11.9606ZM10.5 19.7502C10.0858 19.7502 9.75 20.086 9.75 20.5002C9.75 20.9144 10.0858 21.2502 10.5 21.2502H13.5C13.9142 21.2502 14.25 20.9144 14.25 20.5002C14.25 20.0861 13.9142 19.7502 13.5 19.7502H10.5Z" fill="black"/>
</g>
</g>
</g>
<defs>
<clipPath id="clip0_232_3289">
<rect width="24" height="24" rx="5" fill="white"/>
</clipPath>
</defs>
</svg>
