<svg width="24" height="24" viewBox="0 0 24 24" fill="none" xmlns="http://www.w3.org/2000/svg">
<g id="headset">
<g clip-path="url(#clip0_232_10372)">
<g id="Weight=Dynamic">
<path id="Vector (Stroke)" fill-rule="evenodd" clip-rule="evenodd" d="M4.76113 12.5366L5.07259 12.4588C5.92447 12.246 6.75 12.8902 6.75 13.7685V19.2316C6.75 20.1099 5.92459 20.7541 5.07271 20.5413L3.33302 20.1064C2.10881 19.8003 1.25 18.7003 1.25 17.4385V15.5616C1.25 14.3284 2.07031 13.2497 3.25033 12.9157C3.29086 7.65372 7.11304 3.25024 12 3.25024C16.887 3.25024 20.7091 7.65372 20.7497 12.9157C21.9297 13.2497 22.75 14.3283 22.75 15.5616V17.4385C22.75 18.7003 21.8912 19.8003 20.667 20.1064L18.9274 20.5413C18.0755 20.7541 17.25 20.1099 17.25 19.2316V13.7685C17.25 12.8902 18.0754 12.2459 18.9273 12.4588L19.2389 12.5367C19.0262 8.12041 15.7919 4.75024 12 4.75024C8.20817 4.75024 4.97387 8.12037 4.76113 12.5366ZM4.18189 14.2276L3.69688 14.3489C3.14041 14.488 2.75 14.988 2.75 15.5616V17.4385C2.75 18.0121 3.14037 18.5121 3.69684 18.6512L5.25 19.0395V13.9606L4.18189 14.2276ZM18.75 13.9606L20.3032 14.3489C20.3031 14.3489 20.3033 14.3489 20.3032 14.3489C20.8594 14.4881 21.25 14.9882 21.25 15.5616V17.4385C21.25 18.012 20.8596 18.5121 20.3032 18.6512C20.3032 18.6512 20.3032 18.6512 20.3032 18.6512L18.75 19.0395V13.9606Z" fill="black"/>
</g>
</g>
</g>
<defs>
<clipPath id="clip0_232_10372">
<rect width="24" height="24" rx="5" fill="white"/>
</clipPath>
</defs>
</svg>
