<svg width="24" height="24" viewBox="0 0 24 24" fill="none" xmlns="http://www.w3.org/2000/svg">
<g id="health-shield">
<g clip-path="url(#clip0_232_8794)">
<g id="Weight=Dynamic">
<path id="Vector (Stroke)" fill-rule="evenodd" clip-rule="evenodd" d="M11.4035 1.36427C11.7964 1.27695 12.2037 1.27695 12.5966 1.36427L20.2587 3.06697C21.1474 3.26446 21.742 4.10934 21.6121 5.01858L19.7425 18.1061C19.6968 18.4259 19.5314 19.5137 18.4051 20.4999C17.2917 21.4747 15.3559 22.25 12 22.25C8.64416 22.25 6.70833 21.4747 5.59496 20.4999C4.46862 19.5137 4.30324 18.4259 4.25755 18.1061L2.38791 5.01859C2.25802 4.10935 2.85258 3.26446 3.74129 3.06697L11.4035 1.36427ZM12.2712 2.82855C12.0926 2.78886 11.9074 2.78886 11.7288 2.82855L4.06669 4.53125C3.93521 4.56047 3.85493 4.68112 3.87283 4.80645L5.7436 17.9019C5.77009 18.0883 5.86275 18.7406 6.58309 19.3713C7.32705 20.0227 8.85586 20.75 12 20.75C15.1442 20.75 16.673 20.0227 17.4169 19.3713C18.1373 18.7406 18.2299 18.0883 18.2564 17.9019L20.1272 4.80646C20.1451 4.68113 20.0648 4.56047 19.9333 4.53125L12.2712 2.82855ZM9.58334 7.99999C9.58334 7.58578 9.91913 7.24999 10.3333 7.24999H13.6667C14.0809 7.24999 14.4167 7.58578 14.4167 7.99999V9.58333H16C16.4142 9.58333 16.75 9.91912 16.75 10.3333V13.6667C16.75 14.0809 16.4142 14.4167 16 14.4167H14.4167V16C14.4167 16.4142 14.0809 16.75 13.6667 16.75H10.3333C9.91913 16.75 9.58334 16.4142 9.58334 16V14.4167H8.00001C7.58579 14.4167 7.25001 14.0809 7.25001 13.6667V10.3333C7.25001 9.91912 7.58579 9.58333 8.00001 9.58333H9.58334V7.99999ZM11.0833 8.74999V10.3333C11.0833 10.7475 10.7476 11.0833 10.3333 11.0833H8.75001V12.9167H10.3333C10.7476 12.9167 11.0833 13.2524 11.0833 13.6667V15.25H12.9167V13.6667C12.9167 13.2524 13.2525 12.9167 13.6667 12.9167H15.25V11.0833H13.6667C13.2525 11.0833 12.9167 10.7475 12.9167 10.3333V8.74999H11.0833Z" fill="black"/>
</g>
</g>
</g>
<defs>
<clipPath id="clip0_232_8794">
<rect width="24" height="24" rx="5" fill="white"/>
</clipPath>
</defs>
</svg>
