<svg width="24" height="24" viewBox="0 0 24 24" fill="none" xmlns="http://www.w3.org/2000/svg">
<g id="healthcare">
<g clip-path="url(#clip0_232_8823)">
<g id="Weight=Dynamic">
<path id="Vector (Stroke)" fill-rule="evenodd" clip-rule="evenodd" d="M9.58333 4C9.58333 3.58579 9.91912 3.25 10.3333 3.25H13.6667C14.0809 3.25 14.4167 3.58579 14.4167 4V5.58333H16C16.4142 5.58333 16.75 5.91912 16.75 6.33333V9.66667C16.75 10.0809 16.4142 10.4167 16 10.4167H14.4167V12C14.4167 12.4142 14.0809 12.75 13.6667 12.75H10.3333C9.91912 12.75 9.58333 12.4142 9.58333 12V10.4167H8C7.58579 10.4167 7.25 10.0809 7.25 9.66667V6.33333C7.25 5.91912 7.58579 5.58333 8 5.58333H9.58333V4ZM11.0833 4.75V6.33333C11.0833 6.74755 10.7475 7.08333 10.3333 7.08333H8.75V8.91667H10.3333C10.7475 8.91667 11.0833 9.25245 11.0833 9.66667V11.25H12.9167V9.66667C12.9167 9.25245 13.2525 8.91667 13.6667 8.91667H15.25V7.08333H13.6667C13.2525 7.08333 12.9167 6.74755 12.9167 6.33333V4.75H11.0833ZM3.5 9.75C3.08579 9.75 2.75 10.0858 2.75 10.5V15.6893L6.53033 19.4697C6.82322 19.7626 6.82322 20.2374 6.53033 20.5303C6.23744 20.8232 5.76256 20.8232 5.46967 20.5303L1.64541 16.7061C1.39223 16.4529 1.25 16.1095 1.25 15.7515V10.5C1.25 9.25736 2.25736 8.25 3.5 8.25C4.74264 8.25 5.75 9.25736 5.75 10.5V13.3197C6.72354 13.0008 7.80935 13.2487 8.54964 13.989L9.44454 14.8839C9.96027 15.3996 10.25 16.0991 10.25 16.8284V20C10.25 20.4142 9.91421 20.75 9.5 20.75C9.08579 20.75 8.75 20.4142 8.75 20V16.8284C8.75 16.4969 8.6183 16.179 8.38388 15.9445L7.48898 15.0496C7.10853 14.6692 6.52731 14.5749 6.04608 14.8155L5.93279 14.8721L6.53033 15.4697C6.82322 15.7626 6.82322 16.2374 6.53033 16.5303C6.23744 16.8232 5.76256 16.8232 5.46967 16.5303L4.61154 15.6722C4.58484 15.6455 4.55948 15.6177 4.53552 15.5889C4.36161 15.4516 4.25 15.2388 4.25 15V10.5C4.25 10.0858 3.91421 9.75 3.5 9.75ZM2.70607 15.6454C2.70599 15.6453 2.70614 15.6455 2.70607 15.6454V15.6454ZM18.25 10.5C18.25 9.25736 19.2574 8.25 20.5 8.25C21.7426 8.25 22.75 9.25736 22.75 10.5V15.7515C22.75 16.1095 22.6078 16.4529 22.3546 16.7061L18.5303 20.5303C18.2374 20.8232 17.7626 20.8232 17.4697 20.5303C17.1768 20.2374 17.1768 19.7626 17.4697 19.4697L21.25 15.6893V10.5C21.25 10.0858 20.9142 9.75 20.5 9.75C20.0858 9.75 19.75 10.0858 19.75 10.5V15C19.75 15.2388 19.6384 15.4516 19.4645 15.5889C19.4405 15.6177 19.4152 15.6455 19.3885 15.6722L18.5303 16.5303C18.2374 16.8232 17.7626 16.8232 17.4697 16.5303C17.1768 16.2374 17.1768 15.7626 17.4697 15.4697L18.0672 14.8721L17.9539 14.8155C17.4727 14.5749 16.8915 14.6692 16.511 15.0496L15.6161 15.9445C15.3817 16.179 15.25 16.4969 15.25 16.8284V20C15.25 20.4142 14.9142 20.75 14.5 20.75C14.0858 20.75 13.75 20.4142 13.75 20V16.8284C13.75 16.0991 14.0397 15.3996 14.5555 14.8839L15.4504 13.989C16.1907 13.2487 17.2765 13.0008 18.25 13.3197V10.5Z" fill="black"/>
</g>
</g>
</g>
<defs>
<clipPath id="clip0_232_8823">
<rect width="24" height="24" rx="5" fill="white"/>
</clipPath>
</defs>
</svg>
