<svg width="24" height="24" viewBox="0 0 24 24" fill="none" xmlns="http://www.w3.org/2000/svg">
<g id="heart-arrow-down">
<g clip-path="url(#clip0_232_14520)">
<g id="Weight=Dynamic">
<path id="Vector (Stroke)" fill-rule="evenodd" clip-rule="evenodd" d="M16.3053 3.75C14.9937 3.75 13.7335 4.28909 12.8047 5.25232L12.8045 5.25245L12.5395 5.52714C12.3982 5.67365 12.2034 5.75641 11.9998 5.75642C11.7962 5.75642 11.6013 5.67365 11.46 5.52714L11.1949 5.25229C9.26309 3.24988 6.12529 3.24988 4.19352 5.2523C2.26883 7.24739 2.26883 10.477 4.19352 12.4721L6.01728 14.3626C6.30487 14.6607 6.29634 15.1355 5.99824 15.4231C5.70013 15.7107 5.22534 15.7021 4.93775 15.404L3.11399 13.5136C0.62867 10.9374 0.62867 6.78707 3.11399 4.21085C5.54605 1.68984 9.46239 1.60032 11.9999 3.94228C13.1757 2.85872 14.7069 2.25 16.3053 2.25C18.0313 2.25 19.679 2.95977 20.8854 4.21074M16.3053 3.75C17.617 3.75 18.8771 4.28904 19.8059 5.25219L16.3053 3.75ZM21.25 8.86222C21.25 7.50674 20.7294 6.20909 19.8061 5.2524L19.8059 5.25219M20.8856 4.21096C22.0833 5.452 22.75 7.1249 22.75 8.86222C22.75 10.5997 22.0831 12.2728 20.8854 13.5137C20.2854 14.1357 19.6891 14.765 19.0921 15.3979C18.8079 15.6993 18.3332 15.7131 18.0319 15.4289C17.7306 15.1447 17.7167 14.67 18.0009 14.3687C18.5992 13.7344 19.2 13.1003 19.806 12.4721L19.8061 12.472C20.7294 11.5155 21.25 10.2178 21.25 8.86222M12 10.25C12.4142 10.25 12.75 10.5858 12.75 11V19.6893L15.4697 16.9697C15.7626 16.6768 16.2374 16.6768 16.5303 16.9697C16.8232 17.2626 16.8232 17.7374 16.5303 18.0303L12.5303 22.0303C12.2374 22.3232 11.7626 22.3232 11.4697 22.0303L7.46967 18.0303C7.17678 17.7374 7.17678 17.2626 7.46967 16.9697C7.76256 16.6768 8.23744 16.6768 8.53033 16.9697L11.25 19.6893V11C11.25 10.5858 11.5858 10.25 12 10.25Z" fill="black"/>
</g>
</g>
</g>
<defs>
<clipPath id="clip0_232_14520">
<rect width="24" height="24" rx="5" fill="white"/>
</clipPath>
</defs>
</svg>
