<svg width="24" height="24" viewBox="0 0 24 24" fill="none" xmlns="http://www.w3.org/2000/svg">
<g id="heating-square">
<g clip-path="url(#clip0_232_13895)">
<g id="Weight=Dynamic">
<path id="Vector (Stroke)" fill-rule="evenodd" clip-rule="evenodd" d="M2.25 3.6C2.25 2.85442 2.85442 2.25 3.6 2.25H20.4C21.1456 2.25 21.75 2.85442 21.75 3.6V20.4C21.75 21.1456 21.1456 21.75 20.4 21.75H3.6C2.85442 21.75 2.25 21.1456 2.25 20.4V3.6ZM3.75 3.75V20.25H20.25V3.75H3.75ZM8.48033 5.42383C8.79854 5.689 8.84153 6.16192 8.57636 6.48013L8.00019 6C8.57636 6.48013 8.57615 6.48039 8.57636 6.48013L8.57718 6.47916L8.57829 6.47781C8.57835 6.47774 8.57822 6.47786 8.57718 6.47916L8.56423 6.49553C8.55183 6.51145 8.53172 6.53781 8.50567 6.57388C8.45346 6.64617 8.37804 6.75655 8.29311 6.89923C8.12203 7.18665 7.91928 7.59359 7.78535 8.07573C7.52401 9.0166 7.51628 10.2477 8.57636 11.5199C10.0162 13.2477 10.024 15.0166 9.66031 16.3257C9.48175 16.9686 9.21576 17.4992 8.99622 17.868C8.88584 18.0534 8.78548 18.2009 8.71074 18.3043C8.67332 18.3562 8.64216 18.3972 8.61916 18.4267C8.60766 18.4414 8.59819 18.4533 8.59098 18.4623L8.58189 18.4734L8.57867 18.4774L8.5774 18.4789C8.57715 18.4792 8.57636 18.4801 8.00019 18L8.57636 18.4801C8.31119 18.7983 7.83827 18.8413 7.52006 18.5762C7.20224 18.3113 7.15896 17.8392 7.42306 17.521L7.42211 17.5222C7.42221 17.522 7.42218 17.5221 7.42306 17.521L7.43615 17.5045C7.44856 17.4885 7.46867 17.4622 7.49472 17.4261C7.54693 17.3538 7.62234 17.2435 7.70728 17.1008C7.87836 16.8133 8.08111 16.4064 8.21503 15.9243C8.47638 14.9834 8.4841 13.7523 7.42402 12.4801C5.98415 10.7523 5.97643 8.9834 6.34007 7.67427C6.51864 7.03141 6.78463 6.50085 7.00417 6.13202C7.11454 5.94658 7.2149 5.79914 7.28964 5.69565C7.32707 5.64383 7.35823 5.60281 7.38122 5.57331C7.39272 5.55856 7.4022 5.54667 7.40941 5.53774L7.4185 5.52656L7.42172 5.52265L7.42298 5.52112C7.42323 5.52082 7.42402 5.51987 8.00019 6L7.42402 5.51987C7.68919 5.20166 8.16212 5.15866 8.48033 5.42383ZM7.42306 17.521C7.42288 17.5212 7.42324 17.5208 7.42306 17.521V17.521ZM12.0002 6C11.424 5.51987 11.4238 5.52016 11.4235 5.52046L11.4217 5.52265L11.4185 5.52656L11.4094 5.53774C11.4022 5.54667 11.3927 5.55856 11.3812 5.57331C11.3582 5.60281 11.3271 5.64383 11.2896 5.69565C11.2149 5.79914 11.1145 5.94658 11.0042 6.13202C10.7846 6.50085 10.5186 7.03141 10.3401 7.67427C9.97643 8.9834 9.98415 10.7523 11.424 12.4801C12.4841 13.7523 12.4764 14.9834 12.215 15.9243C12.0811 16.4064 11.8784 16.8133 11.7073 17.1008C11.6223 17.2435 11.5469 17.3538 11.4947 17.4261C11.4687 17.4622 11.4486 17.4885 11.4362 17.5045L11.4236 17.5203C11.4234 17.5206 11.4238 17.5201 11.4236 17.5203C11.4238 17.5201 11.424 17.5199 12.0002 18L12.5764 18.4801C12.3112 18.7983 11.8383 18.8413 11.5201 18.5762C11.2025 18.3116 11.1591 17.84 11.4224 17.5218C11.4226 17.5215 11.423 17.521 11.4236 17.5203C11.4234 17.5206 11.4238 17.5201 11.4236 17.5203L12.0002 18C12.5764 18.4801 12.5761 18.4804 12.5764 18.4801L12.5774 18.4789L12.5787 18.4774L12.5819 18.4734L12.591 18.4623C12.5982 18.4533 12.6077 18.4414 12.6192 18.4267C12.6422 18.3972 12.6733 18.3562 12.7107 18.3043C12.7855 18.2009 12.8858 18.0534 12.9962 17.868C13.2158 17.4992 13.4817 16.9686 13.6603 16.3257C14.024 15.0166 14.0162 13.2477 12.5764 11.5199C11.5163 10.2477 11.524 9.0166 11.7854 8.07573C11.9193 7.59359 12.122 7.18665 12.2931 6.89923C12.378 6.75655 12.4535 6.64617 12.5057 6.57388C12.5317 6.53781 12.5518 6.51145 12.5642 6.49553L12.5768 6.47966C12.5777 6.47856 12.5782 6.47795 12.5783 6.47783M12.5783 6.47783L12.5768 6.47966C12.8415 6.16145 12.7984 5.68885 12.4803 5.42383C12.1621 5.15866 11.6887 5.20225 11.4235 5.52046L12.0002 6M16.0002 6C15.424 5.51987 15.4238 5.52016 15.4235 5.52046L15.4217 5.52265L15.4185 5.52656L15.4094 5.53774C15.4022 5.54667 15.3927 5.55856 15.3812 5.57331C15.3582 5.60281 15.3271 5.64383 15.2896 5.69565C15.2149 5.79914 15.1145 5.94658 15.0042 6.13202C14.7846 6.50085 14.5186 7.03141 14.3401 7.67427C13.9764 8.9834 13.9842 10.7523 15.424 12.4801C16.4841 13.7523 16.4764 14.9834 16.215 15.9243C16.0811 16.4064 15.8784 16.8133 15.7073 17.1008C15.6223 17.2435 15.5469 17.3538 15.4947 17.4261C15.4687 17.4622 15.4486 17.4885 15.4362 17.5045L15.4236 17.5203C15.4228 17.5214 15.4223 17.522 15.4221 17.5221M16.5768 6.47961C16.5772 6.4791 16.5776 6.4786 16.5781 6.47809C16.8413 6.1599 16.7979 5.68843 16.4803 5.42383C16.1621 5.15866 15.6887 5.20225 15.4235 5.52046L16.0002 6M16.5768 6.47961L16.5642 6.49553C16.5518 6.51145 16.5317 6.53781 16.5057 6.57388C16.4535 6.64617 16.378 6.75655 16.2931 6.89923C16.122 7.18665 15.9193 7.59359 15.7854 8.07573C15.524 9.0166 15.5163 10.2477 16.5764 11.5199C18.0162 13.2477 18.024 15.0166 17.6603 16.3257C17.4817 16.9686 17.2158 17.4992 16.9962 17.868C16.8858 18.0534 16.7855 18.2009 16.7107 18.3043C16.6733 18.3562 16.6422 18.3972 16.6192 18.4267C16.6077 18.4414 16.5982 18.4533 16.591 18.4623L16.5819 18.4734L16.5787 18.4774L16.5774 18.4789C16.5772 18.4792 16.5764 18.4801 16.0002 18L16.5764 18.4801C16.3112 18.7983 15.8383 18.8413 15.5201 18.5762C15.2022 18.3113 15.1595 17.8385 15.4236 17.5203L15.4221 17.5221M15.4236 17.5203C15.4234 17.5206 15.4238 17.5201 15.4236 17.5203V17.5203Z" fill="black"/>
</g>
</g>
</g>
<defs>
<clipPath id="clip0_232_13895">
<rect width="24" height="24" rx="5" fill="white"/>
</clipPath>
</defs>
</svg>
