<svg width="24" height="24" viewBox="0 0 24 24" fill="none" xmlns="http://www.w3.org/2000/svg">
<g id="help-square">
<g clip-path="url(#clip0_232_1333)">
<g id="Weight=Dynamic">
<path id="Vector (Stroke)" fill-rule="evenodd" clip-rule="evenodd" d="M3.75 3.75V20.25H20.25V3.75H3.75ZM2.25 3.6C2.25 2.85441 2.85442 2.25 3.6 2.25H20.4C21.1456 2.25 21.75 2.85442 21.75 3.6V20.4C21.75 21.1456 21.1456 21.75 20.4 21.75H3.6C2.85442 21.75 2.25 21.1456 2.25 20.4V3.6ZM10.3446 7.60312C10.0001 7.8954 9.75 8.34101 9.75 9C9.75 9.41421 9.41421 9.75 9 9.75C8.58579 9.75 8.25 9.41421 8.25 9C8.25 7.90897 8.68736 7.04208 9.37414 6.45936C10.0446 5.89047 10.9119 5.62499 11.75 5.62499C12.5882 5.62499 13.4554 5.89048 14.1259 6.45937C14.8126 7.04209 15.25 7.90898 15.25 9C15.25 9.76588 15.0538 10.3495 14.7334 10.8301C14.4642 11.234 14.1143 11.5462 13.839 11.7919C13.8089 11.8187 13.7798 11.8447 13.7517 11.8699C13.4445 12.1464 13.213 12.3743 13.0433 12.6741C12.881 12.9609 12.75 13.3616 12.75 13.9999C12.75 14.4141 12.4142 14.7499 12 14.7499C11.5858 14.7499 11.25 14.4141 11.25 13.9999C11.25 13.1383 11.4315 12.4765 11.7379 11.9352C12.037 11.4069 12.4305 11.041 12.7483 10.755C12.7729 10.7328 12.797 10.7112 12.8205 10.6901C13.1207 10.4204 13.3276 10.2347 13.4853 9.99802C13.6337 9.77552 13.75 9.48413 13.75 9C13.75 8.34102 13.4999 7.89541 13.1554 7.60313C12.7946 7.29701 12.2868 7.12499 11.75 7.12499C11.2131 7.12499 10.7054 7.29701 10.3446 7.60312ZM12.5117 17.4414C12.8196 17.7185 12.8446 18.1927 12.5675 18.5006L12.5575 18.5117C12.2804 18.8196 11.8062 18.8446 11.4983 18.5675C11.1904 18.2904 11.1654 17.8162 11.4425 17.5083L11.4525 17.4972C11.7296 17.1893 12.2038 17.1643 12.5117 17.4414Z" fill="black"/>
</g>
</g>
</g>
<defs>
<clipPath id="clip0_232_1333">
<rect width="24" height="24" rx="5" fill="white"/>
</clipPath>
</defs>
</svg>
