<svg width="24" height="24" viewBox="0 0 24 24" fill="none" xmlns="http://www.w3.org/2000/svg">
<g id="heptagon">
<g clip-path="url(#clip0_232_13180)">
<g id="Weight=Dynamic" clip-path="url(#clip1_232_13180)">
<path id="Polygon (Stroke)" fill-rule="evenodd" clip-rule="evenodd" d="M11.4144 0.949641C11.7846 0.771385 12.2158 0.771384 12.5859 0.94964L20.6654 4.84052C21.0355 5.01877 21.3044 5.35588 21.3958 5.75642L23.3913 14.4991C23.4827 14.8997 23.3867 15.32 23.1306 15.6413L17.5394 22.6524C17.2833 22.9736 16.8948 23.1607 16.4839 23.1607H7.51639C7.10555 23.1607 6.71707 22.9736 6.46091 22.6524L0.869735 15.6413C0.613582 15.32 0.517634 14.8997 0.609055 14.4991L2.60452 5.75642C2.69594 5.35588 2.96478 5.01877 3.33493 4.84052L11.4144 0.949641ZM12.0002 2.33244L4.05084 6.16063L2.08752 14.7625L7.58862 21.6607H16.4117L21.9128 14.7625L19.9495 6.16063L12.0002 2.33244Z" fill="black"/>
</g>
</g>
</g>
<defs>
<clipPath id="clip0_232_13180">
<rect width="24" height="24" rx="5" fill="white"/>
</clipPath>
<clipPath id="clip1_232_13180">
<rect width="24" height="24" fill="white"/>
</clipPath>
</defs>
</svg>
