<svg width="24" height="24" viewBox="0 0 24 24" fill="none" xmlns="http://www.w3.org/2000/svg">
<g id="hexagon-dice">
<g clip-path="url(#clip0_232_8155)">
<g id="Weight=Dynamic">
<path id="Vector (Stroke)" fill-rule="evenodd" clip-rule="evenodd" d="M11.325 0.523685C11.7427 0.282531 12.2573 0.282531 12.675 0.523685L21.6013 5.67728C21.668 5.7158 21.7307 5.75954 21.7888 5.80782C21.9277 5.86578 22.0484 5.96518 22.1322 6.09639C22.2229 6.2385 22.2616 6.40422 22.2471 6.56676C22.2663 6.65769 22.2763 6.75134 22.2763 6.84641V17.1536C22.2763 17.6359 22.019 18.0816 21.6013 18.3227L12.675 23.4763C12.6169 23.5099 12.5569 23.5387 12.4956 23.563C12.3605 23.6819 12.1849 23.75 12 23.75C11.8152 23.75 11.6396 23.6819 11.5045 23.563C11.4431 23.5387 11.3831 23.5099 11.325 23.4763L2.39875 18.3227C1.98106 18.0816 1.72375 17.6359 1.72375 17.1536V6.84641C1.72375 6.75134 1.73375 6.65769 1.753 6.56676C1.7385 6.40422 1.77716 6.2385 1.8679 6.09639C1.95167 5.96518 2.07237 5.86578 2.21125 5.80782C2.26939 5.75954 2.33203 5.7158 2.39875 5.67728L11.325 0.523685ZM3.22375 9.46998V16.24L5.9933 14.7013L3.22375 9.46998ZM6.74157 16.0016L4.00839 17.52L9.76943 20.8461L6.74157 16.0016ZM14.2306 20.8461L19.9917 17.52L17.2585 16.0016L14.2306 20.8461ZM18.0068 14.7013L20.7763 16.24V9.46998L18.0068 14.7013ZM18.9573 5.88279L12.75 2.29904V6.20949L18.9573 5.88279ZM12 8.4151L8.35322 14.25H15.6468L12 8.4151ZM16.9462 13.4988L13.3108 7.68205L20.2181 7.31851L16.9462 13.4988ZM15.6468 15.75H8.35322L12 21.5849L15.6468 15.75ZM7.05388 13.4988L10.6893 7.68205L3.78198 7.31851L7.05388 13.4988ZM11.25 6.20949L5.04279 5.88279L11.25 2.29904V6.20949Z" fill="black"/>
</g>
</g>
</g>
<defs>
<clipPath id="clip0_232_8155">
<rect width="24" height="24" rx="5" fill="white"/>
</clipPath>
</defs>
</svg>
