<svg width="24" height="24" viewBox="0 0 24 24" fill="none" xmlns="http://www.w3.org/2000/svg">
<g id="historic-shield-alt">
<g clip-path="url(#clip0_232_12952)">
<g id="Weight=Dynamic">
<path id="Vector (Stroke)" fill-rule="evenodd" clip-rule="evenodd" d="M3.25 2.6C3.25 1.85441 3.85442 1.25 4.6 1.25H19.4C20.1456 1.25 20.75 1.85442 20.75 2.6V15.5279C20.75 17.327 19.7335 18.9718 18.1243 19.7764L12.6037 22.5367C12.2237 22.7267 11.7763 22.7267 11.3963 22.5367L5.87574 19.7764C4.26651 18.9718 3.25 17.327 3.25 15.5279V2.6ZM4.75 10.75V15.5279C4.75 16.7589 5.44551 17.8842 6.54656 18.4348L12 21.1615L17.4534 18.4348C18.5545 17.8842 19.25 16.7589 19.25 15.5279V10.75H4.75ZM11.25 9.25H4.75V2.75H11.25V9.25ZM12.75 9.25H19.25V2.75H12.75V9.25ZM11.9329 21.195C11.9328 21.1951 11.933 21.195 11.9329 21.195V21.195Z" fill="black"/>
</g>
</g>
</g>
<defs>
<clipPath id="clip0_232_12952">
<rect width="24" height="24" rx="5" fill="white"/>
</clipPath>
</defs>
</svg>
