<svg width="24" height="24" viewBox="0 0 24 24" fill="none" xmlns="http://www.w3.org/2000/svg">
<g id="home-simple">
<g clip-path="url(#clip0_232_9068)">
<g id="Weight=Dynamic">
<path id="Vector (Stroke)" fill-rule="evenodd" clip-rule="evenodd" d="M9.53807 3.61512C11.0512 2.69804 12.9487 2.69804 14.4619 3.61512L19.4619 6.64542C20.8824 7.50631 21.75 9.04664 21.75 10.7076V17C21.75 19.6234 19.6234 21.75 17 21.75H7C4.37665 21.75 2.25 19.6234 2.25 17V10.7076C2.25 9.04664 3.1176 7.50631 4.53806 6.64542L9.53807 3.61512ZM13.6845 4.89791C12.6491 4.27044 11.3509 4.27044 10.3155 4.89792L5.31552 7.92822C4.34362 8.51725 3.75 9.57115 3.75 10.7076V17C3.75 18.795 5.20508 20.25 7 20.25H17C18.7949 20.25 20.25 18.795 20.25 17V10.7076C20.25 9.57116 19.6564 8.51725 18.6845 7.92822L13.6845 4.89791ZM8.25 17C8.25 16.5858 8.58579 16.25 9 16.25H15C15.4142 16.25 15.75 16.5858 15.75 17C15.75 17.4142 15.4142 17.75 15 17.75H9C8.58579 17.75 8.25 17.4142 8.25 17Z" fill="black"/>
</g>
</g>
</g>
<defs>
<clipPath id="clip0_232_9068">
<rect width="24" height="24" rx="5" fill="white"/>
</clipPath>
</defs>
</svg>
