<svg width="24" height="24" viewBox="0 0 24 24" fill="none" xmlns="http://www.w3.org/2000/svg">
<g id="home-temperature-out">
<g clip-path="url(#clip0_232_9172)">
<g id="Weight=Dynamic">
<path id="Vector (Stroke)" fill-rule="evenodd" clip-rule="evenodd" d="M3.29434 2.56914C3.69743 2.30041 4.21361 2.26828 4.64692 2.48493L14.3355 7.32922C14.706 7.51446 14.8561 7.96496 14.6709 8.33545C14.4857 8.70593 14.0352 8.8561 13.6647 8.67086L4.05396 3.8655L2.9161 4.62408C2.57146 4.85384 2.10581 4.76071 1.87604 4.41606C1.64628 4.07142 1.73941 3.60576 2.08405 3.376L3.29434 2.56914ZM19.0001 6.75004C19.4143 6.75004 19.7501 7.08582 19.7501 7.50004V8.25004H21.0001C21.4143 8.25004 21.7501 8.58582 21.7501 9.00004C21.7501 9.41425 21.4143 9.75004 21.0001 9.75004H19.7501V11.25H21.0001C21.4143 11.25 21.7501 11.5858 21.7501 12C21.7501 12.4143 21.4143 12.75 21.0001 12.75H19.7501V13.3536C20.9043 13.68 21.7501 14.7413 21.7501 16C21.7501 17.5188 20.5189 18.75 19.0001 18.75C17.4813 18.75 16.2501 17.5188 16.2501 16C16.2501 14.7413 17.0958 13.68 18.2501 13.3536V7.50004C18.2501 7.08582 18.5859 6.75004 19.0001 6.75004ZM12.0001 10.25C12.4143 10.25 12.7501 10.5858 12.7501 11V19C12.7501 20.5188 11.5189 21.75 10.0001 21.75H3.60008C2.85449 21.75 2.25008 21.1456 2.25008 20.4V15.6C2.25008 14.8545 2.8545 14.25 3.60008 14.25H6.40008C7.14566 14.25 7.75008 14.8545 7.75008 15.6V20.25H10.0001C10.6904 20.25 11.2501 19.6904 11.2501 19V11C11.2501 10.5858 11.5859 10.25 12.0001 10.25ZM6.25008 20.25V15.75H3.75008V20.25H6.25008ZM19.0001 14.75C18.3097 14.75 17.7501 15.3097 17.7501 16C17.7501 16.6904 18.3097 17.25 19.0001 17.25C19.6904 17.25 20.2501 16.6904 20.2501 16C20.2501 15.3097 19.6904 14.75 19.0001 14.75Z" fill="black"/>
</g>
</g>
</g>
<defs>
<clipPath id="clip0_232_9172">
<rect width="24" height="24" rx="5" fill="white"/>
</clipPath>
</defs>
</svg>
