<svg width="24" height="24" viewBox="0 0 24 24" fill="none" xmlns="http://www.w3.org/2000/svg">
<g id="home-user">
<g clip-path="url(#clip0_232_8912)">
<g id="Weight=Dynamic">
<path id="Vector (Stroke)" fill-rule="evenodd" clip-rule="evenodd" d="M11.6241 3.35093C11.8565 3.21636 12.1432 3.21636 12.3757 3.35093L21.8757 8.85093C22.2341 9.05847 22.3565 9.51731 22.1489 9.87578C21.9414 10.2342 21.4826 10.3566 21.1241 10.1491L11.9999 4.86662L2.87566 10.1491C2.51719 10.3566 2.05835 10.2342 1.85081 9.87578C1.64327 9.51731 1.76563 9.05847 2.1241 8.85093L11.6241 3.35093ZM11.9999 9.75C10.7572 9.75 9.74988 10.7574 9.74988 12C9.74988 13.2426 10.7572 14.25 11.9999 14.25C13.2425 14.25 14.2499 13.2426 14.2499 12C14.2499 10.7574 13.2425 9.75 11.9999 9.75ZM14.4814 14.8116C15.2593 14.1245 15.7499 13.1195 15.7499 12C15.7499 9.92893 14.0709 8.25 11.9999 8.25C9.92881 8.25 8.24988 9.92893 8.24988 12C8.24988 13.1195 8.74046 14.1245 9.51836 14.8116C7.58502 15.7379 6.24988 17.713 6.24988 20V21H7.74988V20C7.74988 17.6528 9.65267 15.75 11.9999 15.75C14.3471 15.75 16.2499 17.6528 16.2499 20V21H17.7499V20C17.7499 17.713 16.4147 15.7379 14.4814 14.8116Z" fill="black"/>
</g>
</g>
</g>
<defs>
<clipPath id="clip0_232_8912">
<rect width="24" height="24" rx="5" fill="white"/>
</clipPath>
</defs>
</svg>
