<svg width="24" height="24" viewBox="0 0 24 24" fill="none" xmlns="http://www.w3.org/2000/svg">
<g id="home-hospital">
<g clip-path="url(#clip0_232_8813)">
<g id="Weight=Dynamic">
<path id="Vector (Stroke)" fill-rule="evenodd" clip-rule="evenodd" d="M11.609 3.36004C11.8491 3.21332 12.1511 3.21332 12.3912 3.36004L21.3912 8.86004C21.7446 9.07603 21.8561 9.53765 21.6401 9.89109C21.4241 10.2445 20.9625 10.356 20.609 10.14L12.0001 4.87896L3.39119 10.14C3.03775 10.356 2.57614 10.2445 2.36015 9.89109C2.14415 9.53765 2.25558 9.07603 2.60902 8.86004L11.609 3.36004ZM9.58344 9C9.58344 8.58579 9.91923 8.25 10.3334 8.25H13.6668C14.081 8.25 14.4168 8.58579 14.4168 9V10.5833H16.0001C16.4143 10.5833 16.7501 10.9191 16.7501 11.3333V14.6667C16.7501 15.0809 16.4143 15.4167 16.0001 15.4167H14.4168V17C14.4168 17.4142 14.081 17.75 13.6668 17.75H10.3334C9.91923 17.75 9.58344 17.4142 9.58344 17V15.4167H8.00011C7.58589 15.4167 7.25011 15.0809 7.25011 14.6667V11.3333C7.25011 10.9191 7.58589 10.5833 8.00011 10.5833H9.58344V9ZM11.0834 9.75V11.3333C11.0834 11.7475 10.7477 12.0833 10.3334 12.0833H8.75011V13.9167H10.3334C10.7477 13.9167 11.0834 14.2525 11.0834 14.6667V16.25H12.9168V14.6667C12.9168 14.2525 13.2526 13.9167 13.6668 13.9167H15.2501V12.0833H13.6668C13.2526 12.0833 12.9168 11.7475 12.9168 11.3333V9.75H11.0834ZM5.00011 12.25C5.41432 12.25 5.75011 12.5858 5.75011 13V19.25H18.2501V13C18.2501 12.5858 18.5859 12.25 19.0001 12.25C19.4143 12.25 19.7501 12.5858 19.7501 13V19.4C19.7501 20.1456 19.1457 20.75 18.4001 20.75H5.60011C4.85452 20.75 4.25011 20.1456 4.25011 19.4V13C4.25011 12.5858 4.58589 12.25 5.00011 12.25Z" fill="black"/>
</g>
</g>
</g>
<defs>
<clipPath id="clip0_232_8813">
<rect width="24" height="24" rx="5" fill="white"/>
</clipPath>
</defs>
</svg>
