<svg width="24" height="24" viewBox="0 0 24 24" fill="none" xmlns="http://www.w3.org/2000/svg">
<g id="home-shield">
<g clip-path="url(#clip0_232_9036)">
<g id="Weight=Dynamic">
<path id="Vector (Stroke)" fill-rule="evenodd" clip-rule="evenodd" d="M11.3962 2.46335C11.7762 2.27332 12.2236 2.27332 12.6037 2.46335L22.3353 7.32919C22.7058 7.51443 22.856 7.96494 22.6707 8.33542C22.4855 8.70591 22.035 8.85608 21.6645 8.67083L11.9999 3.83854L2.33533 8.67083C1.96485 8.85607 1.51434 8.70591 1.3291 8.33542C1.14386 7.96494 1.29403 7.51443 1.66451 7.32919L11.3962 2.46335ZM9.26112 8.93528L11.3098 8.40414C11.7624 8.2868 12.2375 8.2868 12.6901 8.40414L14.7387 8.93528C15.3293 9.0884 15.7631 9.62957 15.7419 10.2677C15.6539 12.9114 14.8541 14.5265 13.9936 15.4915C13.5683 15.9685 13.1421 16.2706 12.8108 16.4563C12.6454 16.549 12.5039 16.6126 12.3979 16.6545C12.3449 16.6755 12.3007 16.6912 12.2667 16.7024C12.2566 16.7057 12.2474 16.7087 12.2391 16.7113C12.2335 16.713 12.2283 16.7146 12.2235 16.716L12.2079 16.7206L12.2017 16.7224L12.199 16.7231L12.1978 16.7234C12.1972 16.7236 12.1966 16.7238 11.9999 16C11.8033 16.7238 11.8027 16.7236 11.8021 16.7234L11.8008 16.7231L11.7981 16.7224L11.7919 16.7206L11.7764 16.716C11.7646 16.7125 11.7502 16.708 11.7332 16.7024C11.6992 16.6912 11.6549 16.6755 11.6019 16.6545C11.4959 16.6126 11.3544 16.549 11.189 16.4563C10.8578 16.2706 10.4316 15.9685 10.0063 15.4915C9.1457 14.5265 8.34599 12.9114 8.25796 10.2677C8.23671 9.62957 8.67049 9.0884 9.26112 8.93528ZM11.9999 16L11.8033 16.7238C11.932 16.7588 12.0678 16.7588 12.1966 16.7238L11.9999 16ZM11.9999 15.1894C12.0241 15.177 12.05 15.1632 12.0774 15.1478C12.2813 15.0336 12.572 14.8319 12.874 14.4932C13.4565 13.8401 14.1373 12.6129 14.2374 10.3549L12.3136 9.85614C12.1079 9.8028 11.892 9.8028 11.6862 9.85614L9.76245 10.3549C9.86258 12.6129 10.5434 13.8401 11.1258 14.4932C11.4278 14.8319 11.7186 15.0336 11.9224 15.1478C11.9499 15.1632 11.9758 15.177 11.9999 15.1894ZM3.99992 10.25C4.41413 10.25 4.74992 10.5858 4.74992 11V19C4.74992 19.6904 5.30956 20.25 5.99992 20.25H17.9999C18.6903 20.25 19.2499 19.6904 19.2499 19V11C19.2499 10.5858 19.5857 10.25 19.9999 10.25C20.4141 10.25 20.7499 10.5858 20.7499 11V19C20.7499 20.5188 19.5187 21.75 17.9999 21.75H5.99992C4.48114 21.75 3.24992 20.5188 3.24992 19V11C3.24992 10.5858 3.58571 10.25 3.99992 10.25Z" fill="black"/>
</g>
</g>
</g>
<defs>
<clipPath id="clip0_232_9036">
<rect width="24" height="24" rx="5" fill="white"/>
</clipPath>
</defs>
</svg>
