<svg width="24" height="24" viewBox="0 0 24 24" fill="none" xmlns="http://www.w3.org/2000/svg">
<g id="home-simple-door">
<g clip-path="url(#clip0_232_9100)">
<g id="Weight=Dynamic">
<path id="Vector (Stroke)" fill-rule="evenodd" clip-rule="evenodd" d="M9.53807 3.61512C11.0512 2.69804 12.9487 2.69804 14.4619 3.61512L19.4619 6.64542C20.8824 7.50631 21.75 9.04664 21.75 10.7076V17C21.75 19.6234 19.6234 21.75 17 21.75H7C4.37665 21.75 2.25 19.6234 2.25 17V10.7076C2.25 9.04664 3.1176 7.50631 4.53806 6.64542L9.53807 3.61512ZM13.6845 4.89791C12.6491 4.27044 11.3509 4.27044 10.3155 4.89792L5.31552 7.92822C4.34362 8.51725 3.75 9.57115 3.75 10.7076V17C3.75 18.795 5.20508 20.25 7 20.25H8.25V17C8.25 14.929 9.92893 13.25 12 13.25C14.0711 13.25 15.75 14.929 15.75 17V20.25H17C18.7949 20.25 20.25 18.795 20.25 17V10.7076C20.25 9.57116 19.6564 8.51725 18.6845 7.92822L13.6845 4.89791ZM14.25 20.25V17C14.25 15.7574 13.2426 14.75 12 14.75C10.7574 14.75 9.75 15.7574 9.75 17V20.25H14.25Z" fill="black"/>
</g>
</g>
</g>
<defs>
<clipPath id="clip0_232_9100">
<rect width="24" height="24" rx="5" fill="white"/>
</clipPath>
</defs>
</svg>
