<svg width="24" height="24" viewBox="0 0 24 24" fill="none" xmlns="http://www.w3.org/2000/svg">
<g id="home-secure">
<g clip-path="url(#clip0_232_9046)">
<g id="Weight=Dynamic">
<path id="Vector (Stroke)" fill-rule="evenodd" clip-rule="evenodd" d="M11.3962 2.46335C11.7762 2.27332 12.2236 2.27332 12.6037 2.46335L22.3353 7.32919C22.7058 7.51443 22.856 7.96494 22.6707 8.33542C22.4855 8.70591 22.035 8.85608 21.6645 8.67083L11.9999 3.83854L2.33533 8.67083C1.96485 8.85607 1.51434 8.70591 1.3291 8.33542C1.14386 7.96494 1.29403 7.51443 1.66451 7.32919L11.3962 2.46335ZM9.79127 8.31178C10.2303 7.70199 10.9555 7.25001 11.9999 7.25001C13.0444 7.25001 13.7695 7.70199 14.2086 8.31178C14.6201 8.88333 14.7499 9.54666 14.7499 10V11.2958C15.3258 11.45 15.7499 11.9755 15.7499 12.6V15.4C15.7499 16.1456 15.1455 16.75 14.3999 16.75H9.59992C8.85434 16.75 8.24992 16.1456 8.24992 15.4V12.6C8.24992 11.9755 8.67401 11.45 9.24992 11.2958V10C9.24992 9.54666 9.37976 8.88333 9.79127 8.31178ZM10.7499 11.25H13.2499V10C13.2499 9.7867 13.1798 9.45003 12.9913 9.18824C12.8303 8.9647 12.5555 8.75001 11.9999 8.75001C11.4444 8.75001 11.1695 8.9647 11.0086 9.18824C10.8201 9.45003 10.7499 9.7867 10.7499 10V11.25ZM3.99992 10.25C4.41413 10.25 4.74992 10.5858 4.74992 11V19C4.74992 19.6904 5.30956 20.25 5.99992 20.25H17.9999C18.6903 20.25 19.2499 19.6904 19.2499 19V11C19.2499 10.5858 19.5857 10.25 19.9999 10.25C20.4141 10.25 20.7499 10.5858 20.7499 11V19C20.7499 20.5188 19.5187 21.75 17.9999 21.75H5.99992C4.48114 21.75 3.24992 20.5188 3.24992 19V11C3.24992 10.5858 3.58571 10.25 3.99992 10.25ZM9.74992 12.75V15.25H14.2499V12.75H9.74992Z" fill="black"/>
</g>
</g>
</g>
<defs>
<clipPath id="clip0_232_9046">
<rect width="24" height="24" rx="5" fill="white"/>
</clipPath>
</defs>
</svg>
