<svg width="24" height="24" viewBox="0 0 24 24" fill="none" xmlns="http://www.w3.org/2000/svg">
<g id="home-sale">
<g clip-path="url(#clip0_232_9124)">
<g id="Weight=Dynamic">
<path id="Vector (Stroke)" fill-rule="evenodd" clip-rule="evenodd" d="M11.3962 2.46332C11.7762 2.27329 12.2236 2.27329 12.6037 2.46332L22.3353 7.32916C22.7058 7.5144 22.856 7.96491 22.6707 8.33539C22.4855 8.70588 22.035 8.85605 21.6645 8.6708L11.9999 3.83851L2.33533 8.6708C1.96485 8.85604 1.51434 8.70588 1.3291 8.33539C1.14386 7.96491 1.29403 7.5144 1.66451 7.32916L11.3962 2.46332ZM11.9999 7.24998C12.4141 7.24998 12.7499 7.58577 12.7499 7.99998V8.44951C13.4163 8.58765 14.0631 8.88377 14.5086 9.29507C14.813 9.57602 14.832 10.0505 14.551 10.3549C14.2701 10.6592 13.7956 10.6782 13.4912 10.3973C13.1889 10.1183 12.5699 9.87928 11.9912 9.86299C11.9848 9.86292 11.9784 9.86276 11.9721 9.86253C11.9237 9.86158 11.8756 9.86221 11.828 9.86452C11.5295 9.87902 11.3396 9.95648 11.2392 10.0383C11.166 10.0978 11.0833 10.2018 11.0833 10.4616C11.0833 10.5604 11.1053 10.604 11.1206 10.6276C11.1404 10.6582 11.1841 10.7069 11.286 10.7668C11.5181 10.9031 11.86 10.9956 12.3497 11.1189C12.366 11.123 12.3825 11.1271 12.3991 11.1313C12.8203 11.2371 13.3688 11.3749 13.8069 11.6322C14.0487 11.7742 14.2914 11.9707 14.4722 12.2502C14.6574 12.5367 14.7499 12.8681 14.7499 13.2308C14.7499 14.0303 14.3609 14.6356 13.7911 15.0039C13.476 15.2076 13.1171 15.3335 12.7499 15.3986V16C12.7499 16.4142 12.4141 16.75 11.9999 16.75C11.5857 16.75 11.2499 16.4142 11.2499 16V15.3617C10.5559 15.2119 9.86954 14.8751 9.41783 14.3191C9.15663 13.9976 9.2055 13.5253 9.52698 13.2641C9.84845 13.0029 10.3208 13.0518 10.582 13.3732C10.8308 13.6794 11.3893 13.9315 12.0248 13.9526C12.434 13.9662 12.7697 13.8781 12.9768 13.7442C13.151 13.6316 13.2499 13.4842 13.2499 13.2308C13.2499 13.132 13.2278 13.0883 13.2126 13.0647C13.1928 13.0341 13.1491 12.9854 13.0471 12.9256C12.815 12.7892 12.4732 12.6968 11.9835 12.5735C11.9672 12.5694 11.9507 12.5652 11.934 12.5611C11.5129 12.4553 10.9643 12.3175 10.5263 12.0602C10.2845 11.9181 10.0417 11.7216 9.86101 11.4421C9.67575 11.1556 9.58325 10.8243 9.58325 10.4616C9.58325 9.79824 9.83379 9.24836 10.2919 8.87523C10.5784 8.64187 10.9129 8.5044 11.2499 8.43144V7.99998C11.2499 7.58577 11.5857 7.24998 11.9999 7.24998ZM3.99992 10.25C4.41413 10.25 4.74992 10.5858 4.74992 11V19C4.74992 19.6903 5.30956 20.25 5.99992 20.25H17.9999C18.6903 20.25 19.2499 19.6903 19.2499 19V11C19.2499 10.5858 19.5857 10.25 19.9999 10.25C20.4141 10.25 20.7499 10.5858 20.7499 11V19C20.7499 20.5188 19.5187 21.75 17.9999 21.75H5.99992C4.48114 21.75 3.24992 20.5188 3.24992 19V11C3.24992 10.5858 3.58571 10.25 3.99992 10.25Z" fill="black"/>
</g>
</g>
</g>
<defs>
<clipPath id="clip0_232_9124">
<rect width="24" height="24" rx="5" fill="white"/>
</clipPath>
</defs>
</svg>
