<svg width="24" height="24" viewBox="0 0 24 24" fill="none" xmlns="http://www.w3.org/2000/svg">
<g id="home">
<g clip-path="url(#clip0_232_9232)">
<g id="Weight=Dynamic">
<path id="Vector (Stroke)" fill-rule="evenodd" clip-rule="evenodd" d="M11.3962 2.46332C11.7762 2.27329 12.2236 2.27329 12.6037 2.46332L22.3353 7.32916C22.7058 7.5144 22.856 7.96491 22.6707 8.33539C22.4855 8.70588 22.035 8.85605 21.6645 8.6708L11.9999 3.83851L2.33533 8.6708C1.96485 8.85604 1.51434 8.70588 1.3291 8.33539C1.14386 7.96491 1.29403 7.5144 1.66451 7.32916L11.3962 2.46332ZM3.99992 10.25C4.41413 10.25 4.74992 10.5858 4.74992 11V19C4.74992 19.6903 5.30956 20.25 5.99992 20.25H17.9999C18.6903 20.25 19.2499 19.6903 19.2499 19V11C19.2499 10.5858 19.5857 10.25 19.9999 10.25C20.4141 10.25 20.7499 10.5858 20.7499 11V19C20.7499 20.5188 19.5187 21.75 17.9999 21.75H5.99992C4.48114 21.75 3.24992 20.5188 3.24992 19V11C3.24992 10.5858 3.58571 10.25 3.99992 10.25Z" fill="black"/>
</g>
</g>
</g>
<defs>
<clipPath id="clip0_232_9232">
<rect width="24" height="24" rx="5" fill="white"/>
</clipPath>
</defs>
</svg>
