<svg width="24" height="24" viewBox="0 0 24 24" fill="none" xmlns="http://www.w3.org/2000/svg">
<g id="home-temperature-in">
<g clip-path="url(#clip0_232_9156)">
<g id="Weight=Dynamic">
<path id="Vector (Stroke)" fill-rule="evenodd" clip-rule="evenodd" d="M11.3962 2.46332C11.7762 2.27329 12.2236 2.27329 12.6037 2.46332L22.3353 7.32916C22.7058 7.5144 22.856 7.96491 22.6707 8.33539C22.4855 8.70588 22.035 8.85605 21.6645 8.6708L11.9999 3.83851L2.33533 8.6708C1.96485 8.85604 1.51434 8.70588 1.3291 8.33539C1.14386 7.96491 1.29403 7.5144 1.66451 7.32916L11.3962 2.46332ZM11.9999 6.74998C12.4141 6.74998 12.7499 7.08577 12.7499 7.49998V8.24998H13.9999C14.4141 8.24998 14.7499 8.58577 14.7499 8.99998C14.7499 9.4142 14.4141 9.74998 13.9999 9.74998H12.7499V11.25H13.9999C14.4141 11.25 14.7499 11.5858 14.7499 12C14.7499 12.4142 14.4141 12.75 13.9999 12.75H12.7499V13.3535C13.9042 13.68 14.7499 14.7412 14.7499 16C14.7499 17.5188 13.5187 18.75 11.9999 18.75C10.4811 18.75 9.24992 17.5188 9.24992 16C9.24992 14.7412 10.0957 13.68 11.2499 13.3535V7.49998C11.2499 7.08577 11.5857 6.74998 11.9999 6.74998ZM3.99992 10.25C4.41413 10.25 4.74992 10.5858 4.74992 11V19C4.74992 19.6903 5.30956 20.25 5.99992 20.25H17.9999C18.6903 20.25 19.2499 19.6903 19.2499 19V11C19.2499 10.5858 19.5857 10.25 19.9999 10.25C20.4141 10.25 20.7499 10.5858 20.7499 11V19C20.7499 20.5188 19.5187 21.75 17.9999 21.75H5.99992C4.48114 21.75 3.24992 20.5188 3.24992 19V11C3.24992 10.5858 3.58571 10.25 3.99992 10.25ZM11.9999 14.75C11.3096 14.75 10.7499 15.3096 10.7499 16C10.7499 16.6903 11.3096 17.25 11.9999 17.25C12.6903 17.25 13.2499 16.6903 13.2499 16C13.2499 15.3096 12.6903 14.75 11.9999 14.75Z" fill="black"/>
</g>
</g>
</g>
<defs>
<clipPath id="clip0_232_9156">
<rect width="24" height="24" rx="5" fill="white"/>
</clipPath>
</defs>
</svg>
