<svg width="24" height="24" viewBox="0 0 24 24" fill="none" xmlns="http://www.w3.org/2000/svg">
<g id="home-table">
<g clip-path="url(#clip0_232_9304)">
<g id="Weight=Dynamic">
<path id="Vector (Stroke)" fill-rule="evenodd" clip-rule="evenodd" d="M0.25 7C0.25 6.58579 0.585786 6.25 1 6.25H23C23.4142 6.25 23.75 6.58579 23.75 7C23.75 7.41421 23.4142 7.75 23 7.75H20.75V17C20.75 17.4142 20.4142 17.75 20 17.75C19.5858 17.75 19.25 17.4142 19.25 17V10.75H4.75V17C4.75 17.4142 4.41421 17.75 4 17.75C3.58579 17.75 3.25 17.4142 3.25 17V7.75H1C0.585786 7.75 0.25 7.41421 0.25 7ZM4.75 7.75V9.25H19.25V7.75H4.75Z" fill="black"/>
</g>
</g>
</g>
<defs>
<clipPath id="clip0_232_9304">
<rect width="24" height="24" rx="5" fill="white"/>
</clipPath>
</defs>
</svg>
