<svg width="24" height="24" viewBox="0 0 24 24" fill="none" xmlns="http://www.w3.org/2000/svg">
<g id="horiz-distribution-right">
<g clip-path="url(#clip0_232_4969)">
<g id="Weight=Dynamic">
<path id="Vector (Stroke)" fill-rule="evenodd" clip-rule="evenodd" d="M5 3.25C5.41421 3.25 5.75 3.58579 5.75 4V6.25H10.4C11.1456 6.25 11.75 6.85442 11.75 7.6V16.4C11.75 17.1456 11.1456 17.75 10.4 17.75H5.75V20C5.75 20.4142 5.41421 20.75 5 20.75C4.58579 20.75 4.25 20.4142 4.25 20V4C4.25 3.58579 4.58579 3.25 5 3.25ZM5.75 16.25H10.25V7.75H5.75V16.25ZM15 3.25C15.4142 3.25 15.75 3.58579 15.75 4V6.25H18.4C19.1456 6.25 19.75 6.85442 19.75 7.6V16.4C19.75 17.1456 19.1456 17.75 18.4 17.75H15.75V20C15.75 20.4142 15.4142 20.75 15 20.75C14.5858 20.75 14.25 20.4142 14.25 20V4C14.25 3.58579 14.5858 3.25 15 3.25ZM15.75 16.25H18.25V7.75H15.75V16.25Z" fill="black"/>
</g>
</g>
</g>
<defs>
<clipPath id="clip0_232_4969">
<rect width="24" height="24" rx="5" fill="white"/>
</clipPath>
</defs>
</svg>
