<svg width="24" height="24" viewBox="0 0 24 24" fill="none" xmlns="http://www.w3.org/2000/svg">
<g id="horizontal-split">
<g clip-path="url(#clip0_232_11097)">
<g id="Weight=Dynamic">
<path id="Vector (Stroke)" fill-rule="evenodd" clip-rule="evenodd" d="M10 2.25C10.4142 2.25 10.75 2.58579 10.75 3V21C10.75 21.4142 10.4142 21.75 10 21.75C9.58579 21.75 9.25 21.4142 9.25 21V12.75H3.81066L6.03033 14.9697C6.32322 15.2626 6.32322 15.7374 6.03033 16.0303C5.73744 16.3232 5.26256 16.3232 4.96967 16.0303L1.46967 12.5303C1.17678 12.2374 1.17678 11.7626 1.46967 11.4697L4.96967 7.96967C5.26256 7.67678 5.73744 7.67678 6.03033 7.96967C6.32322 8.26256 6.32322 8.73744 6.03033 9.03033L3.81066 11.25H9.25V3C9.25 2.58579 9.58579 2.25 10 2.25ZM14 2.25C14.4142 2.25 14.75 2.58579 14.75 3V11.25H20.1893L17.9697 9.03033C17.6768 8.73744 17.6768 8.26256 17.9697 7.96967C18.2626 7.67678 18.7374 7.67678 19.0303 7.96967L22.5303 11.4697C22.8232 11.7626 22.8232 12.2374 22.5303 12.5303L19.0303 16.0303C18.7374 16.3232 18.2626 16.3232 17.9697 16.0303C17.6768 15.7374 17.6768 15.2626 17.9697 14.9697L20.1893 12.75H14.75V21C14.75 21.4142 14.4142 21.75 14 21.75C13.5858 21.75 13.25 21.4142 13.25 21V3C13.25 2.58579 13.5858 2.25 14 2.25Z" fill="black"/>
</g>
</g>
</g>
<defs>
<clipPath id="clip0_232_11097">
<rect width="24" height="24" rx="5" fill="white"/>
</clipPath>
</defs>
</svg>
