<svg width="24" height="24" viewBox="0 0 24 24" fill="none" xmlns="http://www.w3.org/2000/svg">
<g id="horizontal-merge">
<g clip-path="url(#clip0_232_11085)">
<g id="Weight=Dynamic">
<path id="Vector (Stroke)" fill-rule="evenodd" clip-rule="evenodd" d="M10 2.25C10.4142 2.25 10.75 2.58579 10.75 3V21C10.75 21.4142 10.4142 21.75 10 21.75C9.58579 21.75 9.25 21.4142 9.25 21V13.8107L7.03033 16.0303C6.73744 16.3232 6.26256 16.3232 5.96967 16.0303C5.67678 15.7374 5.67678 15.2626 5.96967 14.9697L8.18934 12.75H2C1.58579 12.75 1.25 12.4142 1.25 12C1.25 11.5858 1.58579 11.25 2 11.25H8.18934L5.96967 9.03033C5.67678 8.73744 5.67678 8.26256 5.96967 7.96967C6.26256 7.67678 6.73744 7.67678 7.03033 7.96967L9.25 10.1893V3C9.25 2.58579 9.58579 2.25 10 2.25ZM14 2.25C14.4142 2.25 14.75 2.58579 14.75 3V10.1893L16.9697 7.96967C17.2626 7.67678 17.7374 7.67678 18.0303 7.96967C18.3232 8.26256 18.3232 8.73744 18.0303 9.03033L15.8107 11.25H22C22.4142 11.25 22.75 11.5858 22.75 12C22.75 12.4142 22.4142 12.75 22 12.75H15.8107L18.0303 14.9697C18.3232 15.2626 18.3232 15.7374 18.0303 16.0303C17.7374 16.3232 17.2626 16.3232 16.9697 16.0303L14.75 13.8107V21C14.75 21.4142 14.4142 21.75 14 21.75C13.5858 21.75 13.25 21.4142 13.25 21V3C13.25 2.58579 13.5858 2.25 14 2.25Z" fill="black"/>
</g>
</g>
</g>
<defs>
<clipPath id="clip0_232_11085">
<rect width="24" height="24" rx="5" fill="white"/>
</clipPath>
</defs>
</svg>
