<svg width="24" height="24" viewBox="0 0 24 24" fill="none" xmlns="http://www.w3.org/2000/svg">
<g id="horiz-distribution-left">
<g clip-path="url(#clip0_232_4959)">
<g id="Weight=Dynamic">
<path id="Vector (Stroke)" fill-rule="evenodd" clip-rule="evenodd" d="M9 3.25C9.41421 3.25 9.75 3.58579 9.75 4V20C9.75 20.4142 9.41421 20.75 9 20.75C8.58579 20.75 8.25 20.4142 8.25 20V17.75H5.6C4.85441 17.75 4.25 17.1456 4.25 16.4V7.6C4.25 6.85442 4.85442 6.25 5.6 6.25H8.25V4C8.25 3.58579 8.58579 3.25 9 3.25ZM8.25 7.75H5.75V16.25H8.25V7.75ZM19 3.25C19.4142 3.25 19.75 3.58579 19.75 4V20C19.75 20.4142 19.4142 20.75 19 20.75C18.5858 20.75 18.25 20.4142 18.25 20V17.75H13.6C12.8544 17.75 12.25 17.1456 12.25 16.4V7.6C12.25 6.85442 12.8544 6.25 13.6 6.25H18.25V4C18.25 3.58579 18.5858 3.25 19 3.25ZM18.25 7.75H13.75V16.25H18.25V7.75Z" fill="black"/>
</g>
</g>
</g>
<defs>
<clipPath id="clip0_232_4959">
<rect width="24" height="24" rx="5" fill="white"/>
</clipPath>
</defs>
</svg>
