<svg width="24" height="24" viewBox="0 0 24 24" fill="none" xmlns="http://www.w3.org/2000/svg">
<g id="hospital-circle">
<g clip-path="url(#clip0_232_8802)">
<g id="Weight=Dynamic">
<path id="Vector (Stroke)" fill-rule="evenodd" clip-rule="evenodd" d="M12 2.75C6.89137 2.75 2.75 6.89137 2.75 12C2.75 17.1086 6.89137 21.25 12 21.25C17.1086 21.25 21.25 17.1086 21.25 12C21.25 6.89137 17.1086 2.75 12 2.75ZM1.25 12C1.25 6.06294 6.06294 1.25 12 1.25C17.9371 1.25 22.75 6.06294 22.75 12C22.75 17.9371 17.9371 22.75 12 22.75C6.06294 22.75 1.25 17.9371 1.25 12ZM8 6.25C8.41421 6.25 8.75 6.58579 8.75 7V11.25H15.25V7C15.25 6.58579 15.5858 6.25 16 6.25C16.4142 6.25 16.75 6.58579 16.75 7V17C16.75 17.4142 16.4142 17.75 16 17.75C15.5858 17.75 15.25 17.4142 15.25 17V12.75H8.75V17C8.75 17.4142 8.41421 17.75 8 17.75C7.58579 17.75 7.25 17.4142 7.25 17V7C7.25 6.58579 7.58579 6.25 8 6.25Z" fill="black"/>
</g>
</g>
</g>
<defs>
<clipPath id="clip0_232_8802">
<rect width="24" height="24" rx="5" fill="white"/>
</clipPath>
</defs>
</svg>
