<svg width="24" height="24" viewBox="0 0 24 24" fill="none" xmlns="http://www.w3.org/2000/svg">
<g id="hospital">
<g clip-path="url(#clip0_232_17490)">
<g id="Weight=Dynamic">
<path id="Vector (Stroke)" fill-rule="evenodd" clip-rule="evenodd" d="M7.75 3.75V7.4C7.75 8.14558 7.14558 8.75 6.4 8.75H4.75V20.25H19.25V8.75H17.6C16.8544 8.75 16.25 8.14559 16.25 7.4V3.75H7.75ZM6.25 3.6C6.25 2.85442 6.85442 2.25 7.6 2.25H16.4C17.1456 2.25 17.75 2.85441 17.75 3.6V7.25H19.4C20.1456 7.25 20.75 7.85441 20.75 8.6V20.4C20.75 21.1456 20.1456 21.75 19.4 21.75H4.6C3.85442 21.75 3.25 21.1456 3.25 20.4V8.6C3.25 7.85442 3.85441 7.25 4.6 7.25H6.25V3.6ZM11.9922 5.25C12.4064 5.25 12.7422 5.58579 12.7422 6V7.25H13.9922C14.4064 7.25 14.7422 7.58579 14.7422 8C14.7422 8.41421 14.4064 8.75 13.9922 8.75H12.7422V10C12.7422 10.4142 12.4064 10.75 11.9922 10.75C11.578 10.75 11.2422 10.4142 11.2422 10V8.75H9.99219C9.57797 8.75 9.24219 8.41421 9.24219 8C9.24219 7.58579 9.57797 7.25 9.99219 7.25H11.2422V6C11.2422 5.58579 11.578 5.25 11.9922 5.25ZM8.51173 12.4414C8.81961 12.7185 8.84456 13.1927 8.56747 13.5006L8.55747 13.5117C8.28037 13.8196 7.80616 13.8446 7.49827 13.5675C7.19039 13.2904 7.16544 12.8162 7.44253 12.5083L7.45253 12.4972C7.72963 12.1893 8.20385 12.1643 8.51173 12.4414ZM12.5117 12.4414C12.8196 12.7185 12.8446 13.1927 12.5675 13.5006L12.5575 13.5117C12.2804 13.8196 11.8062 13.8446 11.4983 13.5675C11.1904 13.2904 11.1654 12.8162 11.4425 12.5083L11.4525 12.4972C11.7296 12.1893 12.2038 12.1643 12.5117 12.4414ZM16.5117 12.4414C16.8196 12.7185 16.8446 13.1927 16.5675 13.5006L16.5575 13.5117C16.2804 13.8196 15.8062 13.8446 15.4983 13.5675C15.1904 13.2904 15.1654 12.8162 15.4425 12.5083L15.4525 12.4972C15.7296 12.1893 16.2038 12.1643 16.5117 12.4414ZM8.51173 16.4414C8.81961 16.7185 8.84456 17.1927 8.56747 17.5006L8.55747 17.5117C8.28037 17.8196 7.80616 17.8446 7.49827 17.5675C7.19039 17.2904 7.16544 16.8162 7.44253 16.5083L7.45253 16.4972C7.72963 16.1893 8.20385 16.1643 8.51173 16.4414ZM12.5117 16.4414C12.8196 16.7185 12.8446 17.1927 12.5675 17.5006L12.5575 17.5117C12.2804 17.8196 11.8062 17.8446 11.4983 17.5675C11.1904 17.2904 11.1654 16.8162 11.4425 16.5083L11.4525 16.4972C11.7296 16.1893 12.2038 16.1643 12.5117 16.4414ZM16.5117 16.4414C16.8196 16.7185 16.8446 17.1927 16.5675 17.5006L16.5575 17.5117C16.2804 17.8196 15.8062 17.8446 15.4983 17.5675C15.1904 17.2904 15.1654 16.8162 15.4425 16.5083L15.4525 16.4972C15.7296 16.1893 16.2038 16.1643 16.5117 16.4414Z" fill="black"/>
</g>
</g>
</g>
<defs>
<clipPath id="clip0_232_17490">
<rect width="24" height="24" rx="5" fill="white"/>
</clipPath>
</defs>
</svg>
