<svg width="24" height="24" viewBox="0 0 24 24" fill="none" xmlns="http://www.w3.org/2000/svg">
<g id="hot-air-balloon">
<g clip-path="url(#clip0_232_16082)">
<g id="Weight=Dynamic">
<path id="Vector (Stroke)" fill-rule="evenodd" clip-rule="evenodd" d="M7.57119 3.71281C5.85365 5.0123 4.75 7.07786 4.75 9.5C4.75 11.4803 6.00011 13.2966 7.38747 14.684C7.79644 15.0929 8.20639 15.4536 8.57999 15.7582C8.27193 14.7943 7.9196 13.5449 7.64004 12.1471C7.13534 9.62363 6.84558 6.51085 7.57119 3.71281ZM8.47164 1.4679C5.39975 2.78732 3.25 5.80424 3.25 9.5C3.25 12.0911 4.85703 14.2748 6.32681 15.7446C7.07498 16.4928 7.8204 17.0888 8.37791 17.4977C8.65731 17.7026 8.89119 17.8617 9.05687 17.9705C9.13975 18.025 9.20568 18.067 9.25185 18.0959C9.27494 18.1104 9.2931 18.1216 9.30597 18.1295L9.32128 18.1388L9.32589 18.1416L9.32741 18.1425C9.32762 18.1426 9.32838 18.1431 9.61756 17.6612L9.32841 18.1431C9.44498 18.2131 9.57835 18.25 9.71429 18.25H14.2857C14.4216 18.25 14.555 18.2131 14.6716 18.1431L14.4213 17.726C14.4213 17.726 14.4213 17.726 14.4213 17.726C14.6716 18.1431 14.6714 18.1432 14.6716 18.1431L14.6726 18.1425L14.6741 18.1416L14.6787 18.1388L14.694 18.1295C14.7069 18.1216 14.7251 18.1104 14.7481 18.0959C14.7943 18.067 14.8603 18.025 14.9431 17.9705C15.1088 17.8617 15.3427 17.7026 15.6221 17.4977C16.1796 17.0888 16.925 16.4928 17.6732 15.7446C19.143 14.2748 20.75 12.0911 20.75 9.5C20.75 5.71031 18.4896 2.63441 15.2924 1.37061C15.2008 1.31135 15.0973 1.27274 14.9897 1.25737C14.0563 0.927758 13.0494 0.75 12 0.75C10.958 0.75 9.9579 0.925253 9.03015 1.2504C8.82331 1.24234 8.61979 1.32062 8.47164 1.4679ZM9.51346 2.67026C8.30519 5.3926 8.51787 8.88773 9.11091 11.8529C9.41581 13.3774 9.81282 14.7215 10.1339 15.6847C10.2818 16.1286 10.4133 16.4904 10.5114 16.75H13.3734C13.4715 16.4904 13.6029 16.1286 13.7509 15.6847C14.0719 14.7215 14.469 13.3774 14.7739 11.8529C15.3703 8.87085 15.582 5.35279 14.3505 2.62384C13.6139 2.38053 12.8233 2.25 12 2.25C11.1258 2.25 10.2885 2.39717 9.51346 2.67026ZM16.2857 3.60733C17.0464 6.43241 16.7558 9.59188 16.2447 12.1471C15.9529 13.6063 15.5818 14.9036 15.2645 15.8834C15.6782 15.5542 16.146 15.1505 16.6125 14.684C17.9999 13.2966 19.25 11.4803 19.25 9.5C19.25 7.01124 18.0848 4.89893 16.2857 3.60733ZM9.25 20.6C9.25 19.8544 9.85441 19.25 10.6 19.25H13.4C14.1456 19.25 14.75 19.8544 14.75 20.6V22.4C14.75 23.1456 14.1456 23.75 13.4 23.75H10.6C9.85441 23.75 9.25 23.1456 9.25 22.4V20.6ZM10.75 20.75V22.25H13.25V20.75H10.75Z" fill="black"/>
</g>
</g>
</g>
<defs>
<clipPath id="clip0_232_16082">
<rect width="24" height="24" rx="5" fill="white"/>
</clipPath>
</defs>
</svg>
