<svg width="24" height="24" viewBox="0 0 24 24" fill="none" xmlns="http://www.w3.org/2000/svg">
<g id="hourglass">
<g clip-path="url(#clip0_232_2172)">
<g id="Weight=Dynamic">
<path id="Vector (Stroke)" fill-rule="evenodd" clip-rule="evenodd" d="M4.25 2C4.25 1.58579 4.58579 1.25 5 1.25H19C19.4142 1.25 19.75 1.58579 19.75 2C19.75 2.41421 19.4142 2.75 19 2.75H5C4.58579 2.75 4.25 2.41421 4.25 2ZM4.25 5C4.25 4.58579 4.58579 4.25 5 4.25H19C19.4142 4.25 19.75 4.58579 19.75 5C19.75 8.08811 17.9438 10.7544 15.3302 12C17.9438 13.2456 19.75 15.9119 19.75 19C19.75 19.4142 19.4142 19.75 19 19.75H5C4.58579 19.75 4.25 19.4142 4.25 19C4.25 15.9119 6.05618 13.2456 8.66976 12C6.05618 10.7544 4.25 8.08811 4.25 5ZM12 12.75C8.80204 12.75 6.16505 15.1518 5.79454 18.25H18.2055C17.8349 15.1518 15.198 12.75 12 12.75ZM5.79454 5.75C6.16506 8.84817 8.80204 11.25 12 11.25C15.198 11.25 17.8349 8.84817 18.2055 5.75H5.79454ZM4.25 22C4.25 21.5858 4.58579 21.25 5 21.25H19C19.4142 21.25 19.75 21.5858 19.75 22C19.75 22.4142 19.4142 22.75 19 22.75H5C4.58579 22.75 4.25 22.4142 4.25 22Z" fill="black"/>
</g>
</g>
</g>
<defs>
<clipPath id="clip0_232_2172">
<rect width="24" height="24" rx="5" fill="white"/>
</clipPath>
</defs>
</svg>
