<svg width="24" height="24" viewBox="0 0 24 24" fill="none" xmlns="http://www.w3.org/2000/svg">
<g id="house-rooms">
<g clip-path="url(#clip0_232_17204)">
<g id="Weight=Dynamic">
<path id="Vector (Stroke)" fill-rule="evenodd" clip-rule="evenodd" d="M11.8372 2.26786C11.9444 2.24405 12.0555 2.24405 12.1626 2.26786L21.1626 4.26786C21.567 4.35772 21.8219 4.75835 21.7321 5.1627C21.6422 5.56705 21.2416 5.822 20.8372 5.73214L11.9999 3.7683L3.16261 5.73214C2.75826 5.822 2.35763 5.56705 2.26778 5.1627C2.17792 4.75835 2.43287 4.35772 2.83722 4.26786L11.8372 2.26786ZM2.24992 8.6C2.24992 7.85442 2.85433 7.25 3.59992 7.25H20.3999C21.1455 7.25 21.7499 7.85442 21.7499 8.6V20.4C21.7499 21.1456 21.1455 21.75 20.3999 21.75H3.59992C2.85433 21.75 2.24992 21.1456 2.24992 20.4V8.6ZM3.74992 12.75H4.99992C5.41413 12.75 5.74992 12.4142 5.74992 12C5.74992 11.5858 5.41413 11.25 4.99992 11.25H3.74992V8.75H20.2499V11.25H7.99992C7.5857 11.25 7.24992 11.5858 7.24992 12C7.24992 12.4142 7.5857 12.75 7.99992 12.75H10.2499V16C10.2499 16.4142 10.5857 16.75 10.9999 16.75C11.4141 16.75 11.7499 16.4142 11.7499 16V12.75H15.2499V15.25H13.9999C13.5857 15.25 13.2499 15.5858 13.2499 16C13.2499 16.4142 13.5857 16.75 13.9999 16.75H15.9999C16.4141 16.75 16.7499 16.4142 16.7499 16V12.75H20.2499V20.25H11.7499V19C11.7499 18.5858 11.4141 18.25 10.9999 18.25C10.5857 18.25 10.2499 18.5858 10.2499 19V20.25H3.74992V12.75Z" fill="black"/>
</g>
</g>
</g>
<defs>
<clipPath id="clip0_232_17204">
<rect width="24" height="24" rx="5" fill="white"/>
</clipPath>
</defs>
</svg>
