<svg width="24" height="24" viewBox="0 0 24 24" fill="none" xmlns="http://www.w3.org/2000/svg">
<g id="ice-cream">
<g clip-path="url(#clip0_232_7977)">
<g id="Weight=Dynamic">
<path id="Vector (Stroke)" fill-rule="evenodd" clip-rule="evenodd" d="M4.25 9C4.25 4.71979 7.71979 1.25 12 1.25C16.2802 1.25 19.75 4.71979 19.75 9V16C19.75 17.5188 18.5188 18.75 16.9999 18.7499C16.2499 18.7499 15.5 18.7498 14.75 18.7497V20C14.75 21.5188 13.5188 22.75 12 22.75C10.4812 22.75 9.25 21.5188 9.25 20V18.7493C8.50034 18.7494 7.75067 18.7495 7.00101 18.7496C5.48192 18.75 4.25 17.5187 4.25 15.9994V9ZM10.75 18.7493V20C10.75 20.6904 11.3096 21.25 12 21.25C12.6904 21.25 13.25 20.6904 13.25 20V18.7495C12.4167 18.7494 11.5833 18.7493 10.75 18.7493ZM12 2.75C8.54822 2.75 5.75 5.54822 5.75 9V11.25H18.25V9C18.25 5.54822 15.4518 2.75 12 2.75ZM18.25 12.75H5.75V15.9994C5.75 16.6899 6.30996 17.2498 7.00068 17.2496C9.51764 17.2491 12.0346 17.2494 14.5515 17.2497C15.3677 17.2498 16.1839 17.2498 17.0001 17.2499C17.6904 17.25 18.25 16.6904 18.25 16V12.75Z" fill="black"/>
</g>
</g>
</g>
<defs>
<clipPath id="clip0_232_7977">
<rect width="24" height="24" rx="5" fill="white"/>
</clipPath>
</defs>
</svg>
