<svg width="24" height="24" viewBox="0 0 24 24" fill="none" xmlns="http://www.w3.org/2000/svg">
<g id="import">
<g clip-path="url(#clip0_232_12142)">
<g id="Weight=Dynamic">
<path id="Vector (Stroke)" fill-rule="evenodd" clip-rule="evenodd" d="M12 2.25C12.4142 2.25 12.75 2.58579 12.75 3V13.1893L14.9697 10.9697C15.2626 10.6768 15.7374 10.6768 16.0303 10.9697C16.3232 11.2626 16.3232 11.7374 16.0303 12.0303L12.5303 15.5303C12.2374 15.8232 11.7626 15.8232 11.4697 15.5303L7.96967 12.0303C7.67678 11.7374 7.67678 11.2626 7.96967 10.9697C8.26256 10.6768 8.73744 10.6768 9.03033 10.9697L11.25 13.1893V3C11.25 2.58579 11.5858 2.25 12 2.25ZM4 12.25C4.41421 12.25 4.75 12.5858 4.75 13V19C4.75 19.6904 5.30964 20.25 6 20.25H18C18.6904 20.25 19.25 19.6904 19.25 19V13C19.25 12.5858 19.5858 12.25 20 12.25C20.4142 12.25 20.75 12.5858 20.75 13V19C20.75 20.5188 19.5188 21.75 18 21.75H6C4.48122 21.75 3.25 20.5188 3.25 19V13C3.25 12.5858 3.58579 12.25 4 12.25Z" fill="black"/>
</g>
</g>
</g>
<defs>
<clipPath id="clip0_232_12142">
<rect width="24" height="24" rx="5" fill="white"/>
</clipPath>
</defs>
</svg>
