<svg width="24" height="24" viewBox="0 0 24 24" fill="none" xmlns="http://www.w3.org/2000/svg">
<g id="inclination">
<g clip-path="url(#clip0_232_13915)">
<g id="Weight=Dynamic">
<path id="Vector (Stroke)" fill-rule="evenodd" clip-rule="evenodd" d="M16.9647 3.45976C17.2631 3.74708 17.2721 4.22187 16.9847 4.52023L3.76348 18.25H22.0001C22.4143 18.25 22.7501 18.5858 22.7501 19C22.7501 19.4142 22.4143 19.75 22.0001 19.75H3.4108C2.22032 19.75 1.6126 18.3211 2.43837 17.4636L15.9043 3.47977C16.1916 3.1814 16.6664 3.17244 16.9647 3.45976ZM16.584 7.37596C16.9287 7.1462 17.3943 7.23933 17.6241 7.58398C18.6393 9.10672 19.2999 10.2872 19.7663 11.5532C20.2316 12.8162 20.4904 14.1289 20.7425 15.8939C20.8011 16.304 20.5162 16.6839 20.1061 16.7425C19.6961 16.801 19.3162 16.5161 19.2576 16.1061C19.0097 14.3711 18.7685 13.1838 18.3588 12.0718C17.9502 10.9628 17.3609 9.89328 16.376 8.41603C16.1463 8.07138 16.2394 7.60573 16.584 7.37596Z" fill="black"/>
</g>
</g>
</g>
<defs>
<clipPath id="clip0_232_13915">
<rect width="24" height="24" rx="5" fill="white"/>
</clipPath>
</defs>
</svg>
