<svg width="24" height="24" viewBox="0 0 24 24" fill="none" xmlns="http://www.w3.org/2000/svg">
<g id="industry">
<g clip-path="url(#clip0_232_17356)">
<g id="Weight=Dynamic">
<path id="Vector (Stroke)" fill-rule="evenodd" clip-rule="evenodd" d="M11 1.25C11.4142 1.25 11.75 1.58579 11.75 2V5C11.75 6.24257 12.7575 7.25 14.0002 7.25H15C17.2 7.25 18.75 8.4 18.75 10C18.75 10.4142 18.4142 10.75 18 10.75C17.5858 10.75 17.25 10.4142 17.25 10C17.25 9.6 16.8 8.75 15 8.75H14.0002C11.9292 8.75 10.25 7.07114 10.25 5V2C10.25 1.58579 10.5858 1.25 11 1.25ZM21 1.25C21.4142 1.25 21.75 1.58579 21.75 2C21.75 2.71385 21.502 3.2943 21.0851 3.73076C20.7301 4.10241 20.2847 4.337 19.8515 4.48783C19.9041 4.53728 19.9563 4.58871 20.0082 4.6422C20.9958 5.6607 21.75 7.32808 21.75 10C21.75 10.4142 21.4142 10.75 21 10.75C20.5858 10.75 20.25 10.4142 20.25 10C20.25 7.61929 19.5859 6.36146 18.9313 5.68642C18.2806 5.0154 17.5463 4.82406 17.188 4.76992C17.1092 4.76439 17.0447 4.75867 16.9975 4.75404C16.971 4.75143 16.9499 4.74916 16.9346 4.74745L16.9162 4.74533L16.9104 4.74463L16.9084 4.74439L16.9073 4.74425C16.9072 4.74424 16.907 4.74421 17 4C17 3.25 17.0001 3.25 17.0002 3.25L17.0015 3.25L17.0031 3.25001L17.0068 3.25003L17.0159 3.25013L17.0413 3.25073C17.0613 3.25134 17.0873 3.25246 17.119 3.2545C17.1761 3.25817 17.2517 3.26483 17.3426 3.27689C17.7741 3.30386 18.5773 3.31146 19.2512 3.10615C19.5898 3.00298 19.8404 2.86222 20.0005 2.69466C20.1434 2.54503 20.25 2.33878 20.25 2C20.25 1.58579 20.5858 1.25 21 1.25ZM17 4L17.0002 3.25C16.6041 3.25 16.2761 3.55804 16.2514 3.9534C16.2268 4.34875 16.5142 4.69511 16.9073 4.74425L17 4ZM17.25 12C17.25 11.5858 17.5858 11.25 18 11.25H21C21.4142 11.25 21.75 11.5858 21.75 12V21C21.75 21.4142 21.4142 21.75 21 21.75H3C2.58579 21.75 2.25 21.4142 2.25 21V17C2.25 16.7811 2.34567 16.573 2.51191 16.4306L6.01191 13.4306C6.26083 13.2172 6.61948 13.1902 6.8975 13.364L10.5 15.6156L14.1025 13.364C14.3599 13.2031 14.6889 13.2133 14.9359 13.3897L17.25 15.0426V12ZM17.25 16.886L14.4722 14.9018L10.8975 17.136C10.6543 17.288 10.3457 17.288 10.1025 17.136L6.56975 14.928L3.75 17.345V20.25H17.25V16.886ZM18.75 20.25H20.25V12.75H18.75V20.25Z" fill="black"/>
</g>
</g>
</g>
<defs>
<clipPath id="clip0_232_17356">
<rect width="24" height="24" rx="5" fill="white"/>
</clipPath>
</defs>
</svg>
