<svg width="24" height="24" viewBox="0 0 24 24" fill="none" xmlns="http://www.w3.org/2000/svg">
<g id="infinite">
<g clip-path="url(#clip0_232_13821)">
<g id="Weight=Dynamic">
<path id="Vector (Stroke)" fill-rule="evenodd" clip-rule="evenodd" d="M0.25 12C0.25 8.82436 2.82436 6.25 6 6.25C7.88168 6.25 9.55194 7.15481 10.5997 8.54954C10.6081 8.5608 10.6162 8.57229 10.6241 8.584L14.6115 14.5657C15.3888 15.5905 16.6173 16.25 18 16.25C20.3472 16.25 22.25 14.3472 22.25 12C22.25 9.65279 20.3472 7.75 18 7.75C16.6174 7.75 15.3892 8.40948 14.6119 9.43428L14.3741 9.791C14.1443 10.1357 13.6787 10.2288 13.334 9.99906C12.9894 9.76931 12.8962 9.30366 13.126 8.959L13.3759 8.584C13.3837 8.5723 13.3919 8.56081 13.4003 8.54957C14.4481 7.15469 16.1183 6.25 18 6.25C21.1756 6.25 23.75 8.82436 23.75 12C23.75 15.1756 21.1756 17.75 18 17.75C16.1183 17.75 14.4477 16.8454 13.4 15.4504C13.3915 15.4392 13.3834 15.4277 13.3756 15.416L9.38814 9.43429C8.61074 8.40955 7.38254 7.75 6 7.75C3.65279 7.75 1.75 9.65279 1.75 12C1.75 14.3472 3.65279 16.25 6 16.25C7.38271 16.25 8.61116 15.5905 9.38849 14.5657L9.70961 14.084C9.93936 13.7393 10.405 13.6462 10.7497 13.8759C11.0943 14.1057 11.1875 14.5713 10.9577 14.916L10.6244 15.416C10.6166 15.4277 10.6085 15.4392 10.6 15.4504C9.55227 16.8454 7.88167 17.75 6 17.75C2.82436 17.75 0.25 15.1756 0.25 12Z" fill="black"/>
</g>
</g>
</g>
<defs>
<clipPath id="clip0_232_13821">
<rect width="24" height="24" rx="5" fill="white"/>
</clipPath>
</defs>
</svg>
