<svg width="24" height="24" viewBox="0 0 24 24" fill="none" xmlns="http://www.w3.org/2000/svg">
<g id="info-circle">
<g clip-path="url(#clip0_232_1189)">
<g id="Weight=Dynamic">
<path id="Vector (Stroke)" fill-rule="evenodd" clip-rule="evenodd" d="M12 2.75C6.89137 2.75 2.75 6.89137 2.75 12C2.75 17.1086 6.89137 21.25 12 21.25C17.1086 21.25 21.25 17.1086 21.25 12C21.25 6.89137 17.1086 2.75 12 2.75ZM1.25 12C1.25 6.06294 6.06294 1.25 12 1.25C17.9371 1.25 22.75 6.06294 22.75 12C22.75 17.9371 17.9371 22.75 12 22.75C6.06294 22.75 1.25 17.9371 1.25 12ZM12.5117 6.94142C12.8196 7.21852 12.8446 7.69273 12.5675 8.00062L12.5575 8.01173C12.2804 8.31961 11.8062 8.34456 11.4983 8.06747C11.1904 7.79037 11.1654 7.31616 11.4425 7.00827L11.4525 6.99716C11.7296 6.68928 12.2038 6.66433 12.5117 6.94142ZM12 10.75C12.4142 10.75 12.75 11.0858 12.75 11.5V16.5C12.75 16.9142 12.4142 17.25 12 17.25C11.5858 17.25 11.25 16.9142 11.25 16.5V11.5C11.25 11.0858 11.5858 10.75 12 10.75Z" fill="black"/>
</g>
</g>
</g>
<defs>
<clipPath id="clip0_232_1189">
<rect width="24" height="24" rx="5" fill="white"/>
</clipPath>
</defs>
</svg>
