<svg width="24" height="24" viewBox="0 0 24 24" fill="none" xmlns="http://www.w3.org/2000/svg">
<g id="input-field">
<g clip-path="url(#clip0_232_14492)">
<g id="Weight=Dynamic">
<path id="Vector (Stroke)" fill-rule="evenodd" clip-rule="evenodd" d="M1.25 8C1.25 6.48122 2.48122 5.25 4 5.25H20C21.5188 5.25 22.75 6.48122 22.75 8V16C22.75 17.5188 21.5188 18.75 20 18.75H4C2.48122 18.75 1.25 17.5188 1.25 16V8ZM4 6.75C3.30964 6.75 2.75 7.30964 2.75 8V16C2.75 16.6904 3.30964 17.25 4 17.25H20C20.6904 17.25 21.25 16.6904 21.25 16V8C21.25 7.30964 20.6904 6.75 20 6.75H4ZM4.25 8.5C4.25 8.08579 4.58579 7.75 5 7.75H8C8.41421 7.75 8.75 8.08579 8.75 8.5C8.75 8.91421 8.41421 9.25 8 9.25H7.25V14.75H8C8.41421 14.75 8.75 15.0858 8.75 15.5C8.75 15.9142 8.41421 16.25 8 16.25H5C4.58579 16.25 4.25 15.9142 4.25 15.5C4.25 15.0858 4.58579 14.75 5 14.75H5.75V9.25H5C4.58579 9.25 4.25 8.91421 4.25 8.5Z" fill="black"/>
</g>
</g>
</g>
<defs>
<clipPath id="clip0_232_14492">
<rect width="24" height="24" rx="5" fill="white"/>
</clipPath>
</defs>
</svg>
