<svg width="24" height="24" viewBox="0 0 24 24" fill="none" xmlns="http://www.w3.org/2000/svg">
<g id="input-search">
<g clip-path="url(#clip0_232_11478)">
<g id="Weight=Dynamic">
<path id="Vector (Stroke)" fill-rule="evenodd" clip-rule="evenodd" d="M2.25 10C2.25 6.82436 4.82436 4.25 8 4.25H16C19.1756 4.25 21.75 6.82436 21.75 10V12C21.75 12.4142 21.4142 12.75 21 12.75C20.5858 12.75 20.25 12.4142 20.25 12V10C20.25 7.65279 18.3472 5.75 16 5.75H8C5.65279 5.75 3.75 7.65279 3.75 10C3.75 12.3472 5.65279 14.25 8 14.25H12C12.4142 14.25 12.75 14.5858 12.75 15C12.75 15.4142 12.4142 15.75 12 15.75H8C4.82436 15.75 2.25 13.1756 2.25 10ZM18 14.75C16.7574 14.75 15.75 15.7574 15.75 17C15.75 18.2426 16.7574 19.25 18 19.25C18.6226 19.25 19.1849 18.9981 19.5931 18.5889C19.9998 18.1811 20.25 17.6205 20.25 17C20.25 15.7574 19.2426 14.75 18 14.75ZM14.25 17C14.25 14.9289 15.9289 13.25 18 13.25C20.0711 13.25 21.75 14.9289 21.75 17C21.75 17.7629 21.5217 18.4732 21.1303 19.0654L22.5311 20.4705C22.8236 20.7638 22.8229 21.2387 22.5295 21.5311C22.2362 21.8236 21.7613 21.8229 21.4689 21.5295L20.0705 20.1269C19.4773 20.5203 18.7651 20.75 18 20.75C15.9289 20.75 14.25 19.0711 14.25 17Z" fill="black"/>
</g>
</g>
</g>
<defs>
<clipPath id="clip0_232_11478">
<rect width="24" height="24" rx="5" fill="white"/>
</clipPath>
</defs>
</svg>
