<svg width="24" height="24" viewBox="0 0 24 24" fill="none" xmlns="http://www.w3.org/2000/svg">
<g id="input-output">
<g clip-path="url(#clip0_232_15129)">
<g id="Weight=Dynamic">
<path id="Vector (Stroke)" fill-rule="evenodd" clip-rule="evenodd" d="M3 4.25C3.41421 4.25 3.75 4.58579 3.75 5L3.75 19C3.75 19.4142 3.41421 19.75 3 19.75C2.58579 19.75 2.25 19.4142 2.25 19L2.25 5C2.25 4.58579 2.58579 4.25 3 4.25ZM14 5.75C10.5482 5.75 7.75 8.54822 7.75 12C7.75 15.4518 10.5482 18.25 14 18.25C17.4518 18.25 20.25 15.4518 20.25 12C20.25 8.54822 17.4518 5.75 14 5.75ZM6.25 12C6.25 7.71979 9.71979 4.25 14 4.25C18.2802 4.25 21.75 7.71979 21.75 12C21.75 16.2802 18.2802 19.75 14 19.75C9.71979 19.75 6.25 16.2802 6.25 12Z" fill="black"/>
</g>
</g>
</g>
<defs>
<clipPath id="clip0_232_15129">
<rect width="24" height="24" rx="5" fill="white"/>
</clipPath>
</defs>
</svg>
