<svg width="24" height="24" viewBox="0 0 24 24" fill="none" xmlns="http://www.w3.org/2000/svg">
<g id="instagram">
<g clip-path="url(#clip0_232_14284)">
<g id="Weight=Dynamic">
<path id="Vector (Stroke)" fill-rule="evenodd" clip-rule="evenodd" d="M8 3.75C5.65279 3.75 3.75 5.65279 3.75 8V16C3.75 18.3472 5.65279 20.25 8 20.25H16C18.3472 20.25 20.25 18.3472 20.25 16V8C20.25 5.65279 18.3472 3.75 16 3.75H8ZM2.25 8C2.25 4.82436 4.82436 2.25 8 2.25H16C19.1756 2.25 21.75 4.82436 21.75 8V16C21.75 19.1756 19.1756 21.75 16 21.75H8C4.82436 21.75 2.25 19.1756 2.25 16V8ZM18.0117 5.94143C18.3196 6.21853 18.3446 6.69274 18.0675 7.00062L18.0575 7.01173C17.7804 7.31961 17.3061 7.34456 16.9983 7.06746C16.6904 6.79036 16.6654 6.31615 16.9425 6.00827L16.9525 5.99716C17.2296 5.68928 17.7039 5.66433 18.0117 5.94143ZM12 8.75C10.2051 8.75 8.75 10.2051 8.75 12C8.75 13.7949 10.2051 15.25 12 15.25C13.7949 15.25 15.25 13.7949 15.25 12C15.25 10.2051 13.7949 8.75 12 8.75ZM7.25 12C7.25 9.37665 9.37665 7.25 12 7.25C14.6234 7.25 16.75 9.37665 16.75 12C16.75 14.6234 14.6234 16.75 12 16.75C9.37665 16.75 7.25 14.6234 7.25 12Z" fill="black"/>
</g>
</g>
</g>
<defs>
<clipPath id="clip0_232_14284">
<rect width="24" height="24" rx="5" fill="white"/>
</clipPath>
</defs>
</svg>
