<svg width="24" height="24" viewBox="0 0 24 24" fill="none" xmlns="http://www.w3.org/2000/svg">
<g id="intersect-alt">
<g clip-path="url(#clip0_232_4522)">
<g id="Weight=Dynamic">
<path id="Vector (Stroke)" fill-rule="evenodd" clip-rule="evenodd" d="M3.51149 2.44254C3.81937 2.71963 3.84433 3.19385 3.56723 3.50173L3.55723 3.51284C3.28014 3.82072 2.80592 3.84568 2.49804 3.56859C2.19016 3.29149 2.1652 2.81728 2.44229 2.50939L2.45229 2.49828C2.72939 2.1904 3.2036 2.16544 3.51149 2.44254ZM7.51149 2.44254C7.81937 2.71964 7.84433 3.19386 7.56723 3.50174L7.55723 3.51285C7.28013 3.82073 6.80591 3.84568 6.49803 3.56858C6.19015 3.29148 6.1652 2.81727 6.4423 2.50939L6.4523 2.49828C6.7294 2.1904 7.20361 2.16544 7.51149 2.44254ZM11.5115 2.44254C11.8194 2.71964 11.8443 3.19386 11.5672 3.50174L11.5572 3.51285C11.2801 3.82073 10.8059 3.84568 10.498 3.56858C10.1902 3.29148 10.1652 2.81727 10.4423 2.50939L10.4523 2.49828C10.7294 2.1904 11.2036 2.16544 11.5115 2.44254ZM15.5115 2.44254C15.8194 2.71964 15.8443 3.19386 15.5672 3.50174L15.5572 3.51285C15.2801 3.82073 14.8059 3.84568 14.498 3.56858C14.1902 3.29148 14.1652 2.81727 14.4423 2.50939L14.4523 2.49828C14.7294 2.1904 15.2036 2.16544 15.5115 2.44254ZM15 6.25C15.4142 6.25 15.75 6.58578 15.75 7V8.25H17C17.4142 8.25 17.75 8.58578 17.75 9C17.75 9.41421 17.4142 9.75 17 9.75H15.75V14C15.75 14.9665 14.9665 15.75 14 15.75L9.75 15.75V17C9.75 17.4142 9.41421 17.75 9 17.75C8.58578 17.75 8.25 17.4142 8.25 17V15.75H7C6.58579 15.75 6.25 15.4142 6.25 15C6.25 14.5858 6.58579 14.25 7 14.25H8.25L8.25 10C8.25 9.0335 9.0335 8.25 10 8.25L14.25 8.25V7C14.25 6.58578 14.5858 6.25 15 6.25ZM14.25 9.75L10 9.75C9.86193 9.75 9.75 9.86193 9.75 10L9.75 14.25L14 14.25C14.1381 14.25 14.25 14.1381 14.25 14V9.75ZM3.51148 6.44253C3.81937 6.71962 3.84433 7.19384 3.56724 7.50173L3.55724 7.51284C3.28014 7.82072 2.80593 7.84568 2.49804 7.56859C2.19016 7.2915 2.1652 6.81728 2.44229 6.5094L2.45229 6.49829C2.72938 6.1904 3.2036 6.16544 3.51148 6.44253ZM21.5117 8.44142C21.8196 8.71851 21.8446 9.19273 21.5675 9.50061L21.5575 9.51172C21.2804 9.8196 20.8062 9.84456 20.4983 9.56747C20.1904 9.29037 20.1654 8.81615 20.4425 8.50827L20.4525 8.49716C20.7296 8.18928 21.2038 8.16432 21.5117 8.44142ZM3.51148 10.4425C3.81937 10.7196 3.84433 11.1938 3.56724 11.5017L3.55724 11.5128C3.28014 11.8207 2.80593 11.8457 2.49804 11.5686C2.19016 11.2915 2.1652 10.8173 2.44229 10.5094L2.45229 10.4983C2.72938 10.1904 3.2036 10.1654 3.51148 10.4425ZM21.5117 12.4414C21.8196 12.7185 21.8446 13.1927 21.5675 13.5006L21.5575 13.5117C21.2804 13.8196 20.8062 13.8446 20.4983 13.5675C20.1904 13.2904 20.1654 12.8162 20.4425 12.5083L20.4525 12.4972C20.7296 12.1893 21.2038 12.1643 21.5117 12.4414ZM3.51148 14.4425C3.81937 14.7196 3.84433 15.1938 3.56724 15.5017L3.55724 15.5128C3.28014 15.8207 2.80593 15.8457 2.49804 15.5686C2.19016 15.2915 2.1652 14.8173 2.44229 14.5094L2.45229 14.4983C2.72938 14.1904 3.2036 14.1654 3.51148 14.4425ZM21.5117 16.4414C21.8196 16.7185 21.8446 17.1927 21.5675 17.5006L21.5575 17.5117C21.2804 17.8196 20.8062 17.8446 20.4983 17.5675C20.1904 17.2904 20.1654 16.8162 20.4425 16.5083L20.4525 16.4972C20.7296 16.1893 21.2038 16.1643 21.5117 16.4414ZM9.51169 20.4414C9.81959 20.7185 9.84457 21.1927 9.5675 21.5006L9.5575 21.5117C9.28042 21.8196 8.80621 21.8446 8.49831 21.5675C8.19041 21.2904 8.16542 20.8162 8.4425 20.5083L8.4525 20.4972C8.72957 20.1893 9.20379 20.1643 9.51169 20.4414ZM13.5117 20.4414C13.8196 20.7185 13.8446 21.1927 13.5675 21.5006L13.5575 21.5117C13.2804 21.8196 12.8062 21.8446 12.4983 21.5675C12.1904 21.2904 12.1654 20.8162 12.4425 20.5083L12.4525 20.4972C12.7296 20.1893 13.2038 20.1643 13.5117 20.4414ZM17.5117 20.4414C17.8196 20.7185 17.8446 21.1927 17.5675 21.5006L17.5575 21.5117C17.2804 21.8196 16.8062 21.8446 16.4983 21.5675C16.1904 21.2904 16.1654 20.8162 16.4425 20.5083L16.4525 20.4972C16.7296 20.1893 17.2038 20.1643 17.5117 20.4414ZM21.5117 20.4414C21.8196 20.7185 21.8446 21.1927 21.5675 21.5006L21.5575 21.5117C21.2804 21.8196 20.8062 21.8446 20.4983 21.5675C20.1904 21.2904 20.1654 20.8162 20.4425 20.5083L20.4525 20.4972C20.7296 20.1893 21.2038 20.1643 21.5117 20.4414Z" fill="black"/>
</g>
</g>
</g>
<defs>
<clipPath id="clip0_232_4522">
<rect width="24" height="24" rx="5" fill="white"/>
</clipPath>
</defs>
</svg>
