<svg width="24" height="24" viewBox="0 0 24 24" fill="none" xmlns="http://www.w3.org/2000/svg">
<g id="intersect">
<g clip-path="url(#clip0_232_4634)">
<g id="Weight=Dynamic">
<path id="Vector (Stroke)" fill-rule="evenodd" clip-rule="evenodd" d="M3.75 3.75H4.5C4.91421 3.75 5.25 3.41421 5.25 3C5.25 2.58579 4.91421 2.25 4.5 2.25H3.6C2.85442 2.25 2.25 2.85442 2.25 3.6V4.5C2.25 4.91421 2.58579 5.25 3 5.25C3.41421 5.25 3.75 4.91421 3.75 4.5V3.75ZM6.75 3C6.75 2.58579 7.08579 2.25 7.5 2.25H10.5C10.9142 2.25 11.25 2.58579 11.25 3C11.25 3.41421 10.9142 3.75 10.5 3.75H7.5C7.08579 3.75 6.75 3.41421 6.75 3ZM12.75 3C12.75 2.58579 13.0858 2.25 13.5 2.25H14.4C15.1456 2.25 15.75 2.85442 15.75 3.6V4.5C15.75 4.91421 15.4142 5.25 15 5.25C14.5858 5.25 14.25 4.91421 14.25 4.5V3.75H13.5C13.0858 3.75 12.75 3.41421 12.75 3ZM3 6.75C3.41421 6.75 3.75 7.08579 3.75 7.5V10.5C3.75 10.9142 3.41421 11.25 3 11.25C2.58579 11.25 2.25 10.9142 2.25 10.5V7.5C2.25 7.08579 2.58579 6.75 3 6.75ZM15 6.75C15.4142 6.75 15.75 7.08579 15.75 7.5V8.25H16.5C16.9142 8.25 17.25 8.58579 17.25 9C17.25 9.41421 16.9142 9.75 16.5 9.75H15.75V14.4C15.75 15.1456 15.1456 15.75 14.4 15.75H9.75V16.5C9.75 16.9142 9.41421 17.25 9 17.25C8.58579 17.25 8.25 16.9142 8.25 16.5V15.75H7.5C7.08579 15.75 6.75 15.4142 6.75 15C6.75 14.5858 7.08579 14.25 7.5 14.25H8.25V9.6C8.25 8.85442 8.85442 8.25 9.6 8.25H14.25V7.5C14.25 7.08579 14.5858 6.75 15 6.75ZM14.25 9.75H9.75V14.25H14.25V9.75ZM18.75 9C18.75 8.58579 19.0858 8.25 19.5 8.25H20.4C21.1456 8.25 21.75 8.85441 21.75 9.6V10.5C21.75 10.9142 21.4142 11.25 21 11.25C20.5858 11.25 20.25 10.9142 20.25 10.5V9.75H19.5C19.0858 9.75 18.75 9.41421 18.75 9ZM3 12.75C3.41421 12.75 3.75 13.0858 3.75 13.5V14.25H4.5C4.91421 14.25 5.25 14.5858 5.25 15C5.25 15.4142 4.91421 15.75 4.5 15.75H3.6C2.85442 15.75 2.25 15.1456 2.25 14.4V13.5C2.25 13.0858 2.58579 12.75 3 12.75ZM21 12.75C21.4142 12.75 21.75 13.0858 21.75 13.5V16.5C21.75 16.9142 21.4142 17.25 21 17.25C20.5858 17.25 20.25 16.9142 20.25 16.5V13.5C20.25 13.0858 20.5858 12.75 21 12.75ZM9 18.75C9.41421 18.75 9.75 19.0858 9.75 19.5V20.25H10.5C10.9142 20.25 11.25 20.5858 11.25 21C11.25 21.4142 10.9142 21.75 10.5 21.75H9.6C8.85441 21.75 8.25 21.1456 8.25 20.4V19.5C8.25 19.0858 8.58579 18.75 9 18.75ZM21 18.75C21.4142 18.75 21.75 19.0858 21.75 19.5V20.4C21.75 21.1456 21.1456 21.75 20.4 21.75H19.5C19.0858 21.75 18.75 21.4142 18.75 21C18.75 20.5858 19.0858 20.25 19.5 20.25H20.25V19.5C20.25 19.0858 20.5858 18.75 21 18.75ZM12.75 21C12.75 20.5858 13.0858 20.25 13.5 20.25H16.5C16.9142 20.25 17.25 20.5858 17.25 21C17.25 21.4142 16.9142 21.75 16.5 21.75H13.5C13.0858 21.75 12.75 21.4142 12.75 21Z" fill="black"/>
</g>
</g>
</g>
<defs>
<clipPath id="clip0_232_4634">
<rect width="24" height="24" rx="5" fill="white"/>
</clipPath>
</defs>
</svg>
