<svg width="24" height="24" viewBox="0 0 24 24" fill="none" xmlns="http://www.w3.org/2000/svg">
<g id="internet">
<g clip-path="url(#clip0_232_3307)">
<g id="Weight=Dynamic">
<path id="Vector (Stroke)" fill-rule="evenodd" clip-rule="evenodd" d="M3.16565 9.25C2.89552 10.1187 2.75 11.0424 2.75 12C2.75 12.9576 2.89552 13.8813 3.16565 14.75H7.4527C7.32538 13.8899 7.25 12.9708 7.25 11.9999C7.25 11.0291 7.32537 10.11 7.45268 9.25H3.16565ZM3.782 7.75H7.73686C8.02981 6.48375 8.42071 5.3826 8.8114 4.47742C9.03885 3.95045 9.26666 3.48887 9.47585 3.09859C6.99899 3.79957 4.94462 5.50647 3.782 7.75ZM11.4134 2.7683C11.3472 2.86829 11.2656 2.99563 11.1727 3.14904C10.9067 3.58796 10.5482 4.23873 10.1886 5.07184C9.8635 5.82505 9.53858 6.72481 9.28 7.75H14.72C14.4614 6.72481 14.1365 5.82505 13.8114 5.07184C13.4518 4.23873 13.0933 3.58796 12.8273 3.14904C12.7344 2.99563 12.6528 2.86829 12.5866 2.7683C12.3927 2.75616 12.197 2.75 12 2.75C11.803 2.75 11.6073 2.75616 11.4134 2.7683ZM14.5242 3.09859C14.7333 3.48887 14.9612 3.95045 15.1886 4.47742C15.5793 5.3826 15.9702 6.48375 16.2631 7.75H20.218C19.0554 5.50647 17.001 3.79957 14.5242 3.09859ZM22.0755 8.24379C22.074 8.23959 22.0724 8.2354 22.0708 8.23123C20.6644 4.47461 17.2162 1.71504 13.077 1.30328C13.0749 1.30307 13.0728 1.30286 13.0706 1.30265C12.7185 1.26783 12.3613 1.25 12 1.25C11.6387 1.25 11.2815 1.26783 10.9293 1.30265C10.9272 1.30286 10.9251 1.30307 10.923 1.30328C5.49161 1.84358 1.25 6.42645 1.25 12C1.25 17.9371 6.06294 22.75 12 22.75C12.4142 22.75 12.75 22.4142 12.75 22C12.75 21.5858 12.4142 21.25 12 21.25C11.803 21.25 11.6074 21.2438 11.4134 21.2317C11.3472 21.1317 11.2657 21.0043 11.1727 20.8508C10.9067 20.4119 10.5482 19.7611 10.1886 18.928C9.86351 18.1749 9.5386 17.2751 9.28003 16.25H12C12.4142 16.25 12.75 15.9142 12.75 15.5C12.75 15.0858 12.4142 14.75 12 14.75H8.9705C8.83287 13.8957 8.75 12.976 8.75 11.9999C8.75 11.0239 8.83286 10.1043 8.97048 9.25H15.0295C15.1671 10.1043 15.25 11.0239 15.25 11.9999H16.75C16.75 11.0291 16.6746 10.11 16.5473 9.25H20.8343C21.1045 10.1187 21.25 11.0424 21.25 12C21.25 12.4142 21.5858 12.75 22 12.75C22.4142 12.75 22.75 12.4142 22.75 12C22.75 10.6787 22.5116 9.41308 22.0755 8.24379ZM7.73689 16.25H3.782C4.94463 18.4936 6.99903 20.2005 9.47592 20.9014C9.26671 20.5111 9.03887 20.0495 8.8114 19.5225C8.42073 18.6173 8.02984 17.5162 7.73689 16.25ZM15.5623 14.018C15.9862 13.7212 16.5247 13.7431 16.954 14.0072L22.2718 17.2785C22.7599 17.5788 23.0016 18.1013 22.9816 18.5907C22.9608 19.0974 22.6252 19.6831 21.9182 19.7633L19.7568 20.0083L18.7873 21.9556C18.4701 22.5926 17.805 22.7075 17.3218 22.5538C16.855 22.4053 16.4466 21.9993 16.3314 21.4381L15.0762 15.3221C14.9748 14.8283 15.1385 14.3148 15.5623 14.018ZM16.6622 15.5887L17.7187 20.7363L18.7775 18.6097L21.138 18.3421L16.6622 15.5887ZM17.4445 21.287C17.4444 21.2872 17.4446 21.2869 17.4445 21.287V21.287Z" fill="black"/>
</g>
</g>
</g>
<defs>
<clipPath id="clip0_232_3307">
<rect width="24" height="24" rx="5" fill="white"/>
</clipPath>
</defs>
</svg>
