<svg width="24" height="24" viewBox="0 0 24 24" fill="none" xmlns="http://www.w3.org/2000/svg">
<g id="ip-address-tag">
<g clip-path="url(#clip0_232_12912)">
<g id="Weight=Dynamic">
<path id="Vector (Stroke)" fill-rule="evenodd" clip-rule="evenodd" d="M8 3.75C5.10051 3.75 2.75 6.10051 2.75 9V15C2.75 17.8995 5.10051 20.25 8 20.25H16C18.8995 20.25 21.25 17.8995 21.25 15V9C21.25 6.10051 18.8995 3.75 16 3.75H8ZM1.25 9C1.25 5.27208 4.27208 2.25 8 2.25H16C19.7279 2.25 22.75 5.27208 22.75 9V15C22.75 18.7279 19.7279 21.75 16 21.75H8C4.27208 21.75 1.25 18.7279 1.25 15V9ZM9 8.25C9.41421 8.25 9.75 8.58579 9.75 9V15C9.75 15.4142 9.41421 15.75 9 15.75C8.58579 15.75 8.25 15.4142 8.25 15V9C8.25 8.58579 8.58579 8.25 9 8.25ZM11.25 9C11.25 8.58579 11.5858 8.25 12 8.25H14.5C15.7426 8.25 16.75 9.25736 16.75 10.5C16.75 11.7426 15.7426 12.75 14.5 12.75H12.75V15C12.75 15.4142 12.4142 15.75 12 15.75C11.5858 15.75 11.25 15.4142 11.25 15V12.0146C11.2499 12.0097 11.2499 12.0049 11.2499 12C11.2499 11.9951 11.2499 11.9903 11.25 11.9854V9ZM12.75 11.25H14.5C14.9142 11.25 15.25 10.9142 15.25 10.5C15.25 10.0858 14.9142 9.75 14.5 9.75H12.75V11.25Z" fill="black"/>
</g>
</g>
</g>
<defs>
<clipPath id="clip0_232_12912">
<rect width="24" height="24" rx="5" fill="white"/>
</clipPath>
</defs>
</svg>
