<svg width="24" height="24" viewBox="0 0 24 24" fill="none" xmlns="http://www.w3.org/2000/svg">
<g id="iris-scan">
<g clip-path="url(#clip0_232_9512)">
<g id="Weight=Dynamic">
<path id="Vector (Stroke)" fill-rule="evenodd" clip-rule="evenodd" d="M2.25 3C2.25 2.58579 2.58579 2.25 3 2.25H6C6.41422 2.25 6.75 2.58579 6.75 3C6.75 3.41421 6.41422 3.75 6 3.75H3.75V6C3.75 6.41421 3.41422 6.75 3 6.75C2.58579 6.75 2.25 6.41421 2.25 6V3ZM17.25 3C17.25 2.58579 17.5858 2.25 18 2.25H21C21.4142 2.25 21.75 2.58579 21.75 3V6C21.75 6.41421 21.4142 6.75 21 6.75C20.5858 6.75 20.25 6.41421 20.25 6V3.75H18C17.5858 3.75 17.25 3.41421 17.25 3ZM3.92845 12.0469C4.80026 13.3204 5.94562 14.5632 7.25485 15.515C8.71857 16.579 10.345 17.25 12 17.25C13.655 17.25 15.2815 16.579 16.7452 15.515C18.0544 14.5632 19.1998 13.3204 20.0716 12.0469C17.829 9.30551 15.4205 6.75 12 6.75C8.57957 6.75 6.17106 9.30554 3.92845 12.0469ZM2.41688 11.5283C4.67148 8.74092 7.57988 5.25 12 5.25C16.4202 5.25 19.3286 8.74087 21.5831 11.5283C21.7852 11.7781 21.8057 12.1288 21.6342 12.4004C20.6462 13.9651 19.2632 15.539 17.6272 16.7283C15.9926 17.9165 14.0634 18.75 12 18.75C9.93668 18.75 8.00742 17.9165 6.37286 16.7283C4.73681 15.539 3.35379 13.9651 2.36584 12.4004C2.19433 12.1288 2.21485 11.7781 2.41688 11.5283ZM12 10.75C11.3096 10.75 10.75 11.3096 10.75 12C10.75 12.6904 11.3096 13.25 12 13.25C12.6904 13.25 13.25 12.6904 13.25 12C13.25 11.3096 12.6904 10.75 12 10.75ZM9.25 12C9.25 10.4812 10.4812 9.25 12 9.25C13.5188 9.25 14.75 10.4812 14.75 12C14.75 13.5188 13.5188 14.75 12 14.75C10.4812 14.75 9.25 13.5188 9.25 12ZM3 17.25C3.41422 17.25 3.75 17.5858 3.75 18V20.25H6C6.41422 20.25 6.75 20.5858 6.75 21C6.75 21.4142 6.41422 21.75 6 21.75H3C2.58579 21.75 2.25 21.4142 2.25 21V18C2.25 17.5858 2.58579 17.25 3 17.25ZM21 17.25C21.4142 17.25 21.75 17.5858 21.75 18V21C21.75 21.4142 21.4142 21.75 21 21.75H18C17.5858 21.75 17.25 21.4142 17.25 21C17.25 20.5858 17.5858 20.25 18 20.25H20.25V18C20.25 17.5858 20.5858 17.25 21 17.25Z" fill="black"/>
</g>
</g>
</g>
<defs>
<clipPath id="clip0_232_9512">
<rect width="24" height="24" rx="5" fill="white"/>
</clipPath>
</defs>
</svg>
