<svg width="24" height="24" viewBox="0 0 24 24" fill="none" xmlns="http://www.w3.org/2000/svg">
<g id="italic">
<g clip-path="url(#clip0_232_6659)">
<g id="Weight=Dynamic">
<path id="Vector (Stroke)" fill-rule="evenodd" clip-rule="evenodd" d="M10.25 5C10.25 4.58579 10.5858 4.25 11 4.25H17C17.4142 4.25 17.75 4.58579 17.75 5C17.75 5.41421 17.4142 5.75 17 5.75H14.5657L10.9943 18.25L13 18.25C13.4142 18.25 13.75 18.5858 13.75 19C13.75 19.4142 13.4142 19.75 13 19.75L7 19.75C6.58579 19.75 6.25 19.4142 6.25 19C6.25 18.5858 6.58579 18.25 7 18.25H9.43427L13.0057 5.75H11C10.5858 5.75 10.25 5.41421 10.25 5Z" fill="black"/>
</g>
</g>
</g>
<defs>
<clipPath id="clip0_232_6659">
<rect width="24" height="24" rx="5" fill="white"/>
</clipPath>
</defs>
</svg>
