<svg width="24" height="24" viewBox="0 0 24 24" fill="none" xmlns="http://www.w3.org/2000/svg">
<g id="jellyfish">
<g clip-path="url(#clip0_232_2416)">
<g id="Weight=Dynamic">
<path id="Vector (Stroke)" fill-rule="evenodd" clip-rule="evenodd" d="M2.25 11.1667C2.25 5.70288 6.60231 1.25 12 1.25C17.3977 1.25 21.75 5.70288 21.75 11.1667C21.75 11.2403 21.7492 11.3138 21.7476 11.3872C21.7166 12.8317 20.4526 13.75 19.1792 13.75H17.6632C18.3819 14.6728 18.3477 15.9878 17.5606 16.8733C17.2428 17.2307 17.2428 17.7693 17.5606 18.1267C18.3834 19.0525 18.3834 20.4475 17.5606 21.3733L16.5606 22.4983C16.2854 22.8079 15.8113 22.8357 15.5017 22.5606C15.1921 22.2854 15.1643 21.8113 15.4394 21.5017L16.4394 20.3767C16.7572 20.0193 16.7572 19.4807 16.4394 19.1233C15.6166 18.1975 15.6166 16.8025 16.4394 15.8767C16.7572 15.5193 16.7572 14.9807 16.4394 14.6233L15.6632 13.75H12.6632C13.3819 14.6728 13.3477 15.9878 12.5606 16.8733C12.2428 17.2307 12.2428 17.7693 12.5606 18.1267C13.3834 19.0525 13.3834 20.4475 12.5606 21.3733L11.5606 22.4983C11.2854 22.8079 10.8113 22.8357 10.5017 22.5606C10.1921 22.2854 10.1643 21.8113 10.4394 21.5017L11.4394 20.3767C11.7572 20.0193 11.7572 19.4807 11.4394 19.1233C10.6166 18.1975 10.6166 16.8025 11.4394 15.8767C11.7572 15.5193 11.7572 14.9807 11.4394 14.6233L10.6632 13.75H7.66318C8.38189 14.6728 8.34769 15.9878 7.56056 16.8733C7.24285 17.2307 7.24285 17.7693 7.56056 18.1267C8.38345 19.0525 8.38345 20.4475 7.56056 21.3733L6.56056 22.4983C6.28537 22.8079 5.81131 22.8357 5.50173 22.5606C5.19214 22.2854 5.16425 21.8113 5.43944 21.5017L6.43944 20.3767C6.75715 20.0193 6.75715 19.4807 6.43944 19.1233C5.61655 18.1975 5.61655 16.8025 6.43944 15.8767C6.75715 15.5193 6.75715 14.9807 6.43944 14.6233L5.6632 13.75H4.82077C3.5474 13.75 2.28339 12.8317 2.25237 11.3872C2.25079 11.3138 2.25 11.2403 2.25 11.1667ZM6.00328 12.25C6.00091 12.25 5.99855 12.25 5.99618 12.25H4.82077C4.1864 12.25 3.76196 11.8177 3.75202 11.3549C3.75068 11.2924 3.75 11.2296 3.75 11.1667C3.75 6.50524 7.45656 2.75 12 2.75C16.5434 2.75 20.25 6.50524 20.25 11.1667C20.25 11.2296 20.2493 11.2924 20.248 11.3549C20.238 11.8177 19.8136 12.25 19.1792 12.25H16.0033C16.0009 12.25 15.9985 12.25 15.9962 12.25H11.0033C11.0009 12.25 10.9985 12.25 10.9962 12.25H6.00328Z" fill="black"/>
</g>
</g>
</g>
<defs>
<clipPath id="clip0_232_2416">
<rect width="24" height="24" rx="5" fill="white"/>
</clipPath>
</defs>
</svg>
