<svg width="24" height="24" viewBox="0 0 24 24" fill="none" xmlns="http://www.w3.org/2000/svg">
<g id="jpeg-format">
<g clip-path="url(#clip0_232_12532)">
<g id="Weight=Dynamic">
<path id="Vector (Stroke)" fill-rule="evenodd" clip-rule="evenodd" d="M3.25 3.6C3.25 2.85441 3.85442 2.25 4.6 2.25H19.4C20.1456 2.25 20.75 2.85442 20.75 3.6V6C20.75 6.41421 20.4142 6.75 20 6.75C19.5858 6.75 19.25 6.41421 19.25 6V3.75H4.75V6C4.75 6.41421 4.41421 6.75 4 6.75C3.58579 6.75 3.25 6.41421 3.25 6V3.6ZM4 8.25C4.41421 8.25 4.75 8.58579 4.75 9V13.2C4.75 13.7986 4.58036 14.2953 4.29017 14.687C4.00646 15.07 3.64006 15.3094 3.30777 15.4589C2.97646 15.608 2.6552 15.6789 2.42376 15.7136C2.30614 15.7312 2.2067 15.7403 2.13406 15.7449C2.09761 15.7473 2.06757 15.7485 2.04496 15.7492L2.01663 15.7499L2.00681 15.75L2.00303 15.75L2.00142 15.75C2.00108 15.75 2.00001 15.75 2 15L2.00001 15.75C1.58579 15.75 1.25 15.4142 1.25 15C1.25 14.5874 1.58319 14.2526 1.9952 14.25C1.99637 14.25 1.99754 14.25 1.99872 14.25M1.99872 14.25L1.9977 14.25L1.9952 14.25L1.99997 14.2499C2.00665 14.2497 2.01957 14.2492 2.03782 14.248C2.07455 14.2457 2.13136 14.2407 2.20124 14.2302C2.3448 14.2086 2.52354 14.167 2.69223 14.0911C2.85994 14.0156 2.99354 13.9174 3.08483 13.7942C3.16964 13.6797 3.25 13.5014 3.25 13.2V9C3.25 8.58579 3.58579 8.25 4 8.25M1.99997 14.2499C1.99996 14.2499 1.99997 14.2499 1.99997 14.2499V14.2499ZM6.25 9C6.25 8.58579 6.58579 8.25 7 8.25H10C10.4142 8.25 10.75 8.58579 10.75 9V12C10.75 12.4142 10.4142 12.75 10 12.75H7.75V15C7.75 15.4142 7.41421 15.75 7 15.75C6.58579 15.75 6.25 15.4142 6.25 15V9ZM7.75 11.25H9.25V9.75H7.75V11.25ZM12.25 9C12.25 8.58579 12.5858 8.25 13 8.25H16C16.4142 8.25 16.75 8.58579 16.75 9C16.75 9.41421 16.4142 9.75 16 9.75H13.75V11.25H15C15.4142 11.25 15.75 11.5858 15.75 12C15.75 12.4142 15.4142 12.75 15 12.75H13.75V14.25H16C16.4142 14.25 16.75 14.5858 16.75 15C16.75 15.4142 16.4142 15.75 16 15.75H13C12.5858 15.75 12.25 15.4142 12.25 15V9ZM18.25 9C18.25 8.58579 18.5858 8.25 19 8.25H22C22.4142 8.25 22.75 8.58579 22.75 9C22.75 9.41421 22.4142 9.75 22 9.75H19.75V14.25H21.25V12.6C21.25 12.1858 21.5858 11.85 22 11.85C22.4142 11.85 22.75 12.1858 22.75 12.6V15C22.75 15.4142 22.4142 15.75 22 15.75H19C18.5858 15.75 18.25 15.4142 18.25 15V9ZM4 17.25C4.41421 17.25 4.75 17.5858 4.75 18V20.25H19.25V18C19.25 17.5858 19.5858 17.25 20 17.25C20.4142 17.25 20.75 17.5858 20.75 18V20.4C20.75 21.1456 20.1456 21.75 19.4 21.75H4.6C3.85442 21.75 3.25 21.1456 3.25 20.4V18C3.25 17.5858 3.58579 17.25 4 17.25Z" fill="black"/>
</g>
</g>
</g>
<defs>
<clipPath id="clip0_232_12532">
<rect width="24" height="24" rx="5" fill="white"/>
</clipPath>
</defs>
</svg>
