<svg width="24" height="24" viewBox="0 0 24 24" fill="none" xmlns="http://www.w3.org/2000/svg">
<g id="jpg-format">
<g clip-path="url(#clip0_232_12446)">
<g id="Weight=Dynamic">
<path id="Vector (Stroke)" fill-rule="evenodd" clip-rule="evenodd" d="M3.25 3.6C3.25 2.85441 3.85442 2.25 4.6 2.25H19.4C20.1456 2.25 20.75 2.85442 20.75 3.6V6C20.75 6.41421 20.4142 6.75 20 6.75C19.5858 6.75 19.25 6.41421 19.25 6V3.75H4.75V6C4.75 6.41421 4.41421 6.75 4 6.75C3.58579 6.75 3.25 6.41421 3.25 6V3.6ZM7 8.25C7.41421 8.25 7.75 8.58579 7.75 9V13.2C7.75 13.7986 7.58036 14.2953 7.29017 14.687C7.00646 15.07 6.64006 15.3094 6.30777 15.4589C5.97646 15.608 5.6552 15.6789 5.42376 15.7136C5.30614 15.7312 5.2067 15.7403 5.13406 15.7449C5.09761 15.7473 5.06757 15.7485 5.04496 15.7492L5.01663 15.7499L5.00681 15.75L5.00303 15.75L5.00142 15.75C5.00108 15.75 5.00001 15.75 5 15L5.00001 15.75C4.58579 15.75 4.25 15.4142 4.25 15C4.25 14.5874 4.58319 14.2526 4.9952 14.25L4.99997 14.2499C5.00665 14.2497 5.01957 14.2492 5.03782 14.248C5.07455 14.2457 5.13136 14.2407 5.20124 14.2302C5.3448 14.2086 5.52354 14.167 5.69223 14.0911C5.85994 14.0156 5.99354 13.9174 6.08483 13.7942C6.16964 13.6797 6.25 13.5014 6.25 13.2V9C6.25 8.58579 6.58579 8.25 7 8.25ZM9.25 9C9.25 8.58579 9.58579 8.25 10 8.25H13C13.4142 8.25 13.75 8.58579 13.75 9V12C13.75 12.4142 13.4142 12.75 13 12.75H10.75V15C10.75 15.4142 10.4142 15.75 10 15.75C9.58579 15.75 9.25 15.4142 9.25 15V9ZM10.75 11.25H12.25V9.75H10.75V11.25ZM15.25 9C15.25 8.58579 15.5858 8.25 16 8.25H19C19.4142 8.25 19.75 8.58579 19.75 9C19.75 9.41421 19.4142 9.75 19 9.75H16.75V14.25H18.25V12.6C18.25 12.1858 18.5858 11.85 19 11.85C19.4142 11.85 19.75 12.1858 19.75 12.6V15C19.75 15.4142 19.4142 15.75 19 15.75H16C15.5858 15.75 15.25 15.4142 15.25 15V9ZM4 17.25C4.41421 17.25 4.75 17.5858 4.75 18V20.25H19.25V18C19.25 17.5858 19.5858 17.25 20 17.25C20.4142 17.25 20.75 17.5858 20.75 18V20.4C20.75 21.1456 20.1456 21.75 19.4 21.75H4.6C3.85442 21.75 3.25 21.1456 3.25 20.4V18C3.25 17.5858 3.58579 17.25 4 17.25Z" fill="black"/>
</g>
</g>
</g>
<defs>
<clipPath id="clip0_232_12446">
<rect width="24" height="24" rx="5" fill="white"/>
</clipPath>
</defs>
</svg>
