<svg width="24" height="24" viewBox="0 0 24 24" fill="none" xmlns="http://www.w3.org/2000/svg">
<g id="kanban-board">
<g clip-path="url(#clip0_232_5519)">
<g id="Weight=Dynamic">
<path id="Vector (Stroke)" fill-rule="evenodd" clip-rule="evenodd" d="M3.75 3.75V20.25H20.25V3.75H3.75ZM2.25 3.6C2.25 2.85442 2.85442 2.25 3.6 2.25H20.4C21.1456 2.25 21.75 2.85442 21.75 3.6V20.4C21.75 21.1456 21.1456 21.75 20.4 21.75H3.6C2.85442 21.75 2.25 21.1456 2.25 20.4V3.6ZM6 5.25C6.41421 5.25 6.75 5.58579 6.75 6V16C6.75 16.4142 6.41421 16.75 6 16.75C5.58579 16.75 5.25 16.4142 5.25 16V6C5.25 5.58579 5.58579 5.25 6 5.25ZM10 5.25C10.4142 5.25 10.75 5.58579 10.75 6V9C10.75 9.41421 10.4142 9.75 10 9.75C9.58579 9.75 9.25 9.41421 9.25 9V6C9.25 5.58579 9.58579 5.25 10 5.25ZM14 5.25C14.4142 5.25 14.75 5.58579 14.75 6V13C14.75 13.4142 14.4142 13.75 14 13.75C13.5858 13.75 13.25 13.4142 13.25 13V6C13.25 5.58579 13.5858 5.25 14 5.25ZM18 5.25C18.4142 5.25 18.75 5.58579 18.75 6V11C18.75 11.4142 18.4142 11.75 18 11.75C17.5858 11.75 17.25 11.4142 17.25 11V6C17.25 5.58579 17.5858 5.25 18 5.25Z" fill="black"/>
</g>
</g>
</g>
<defs>
<clipPath id="clip0_232_5519">
<rect width="24" height="24" rx="5" fill="white"/>
</clipPath>
</defs>
</svg>
