<svg width="24" height="24" viewBox="0 0 24 24" fill="none" xmlns="http://www.w3.org/2000/svg">
<g id="key-plus">
<g clip-path="url(#clip0_232_13076)">
<g id="Weight=Dynamic">
<path id="Vector (Stroke)" fill-rule="evenodd" clip-rule="evenodd" d="M17.5391 5.21667C16.2698 3.94747 14.2121 3.94747 12.9429 5.21667C11.6737 6.48588 11.6737 8.54366 12.9429 9.81287C14.2121 11.0821 16.2698 11.0821 17.5391 9.81287C18.8083 8.54366 18.8083 6.48588 17.5391 5.21667ZM11.8822 4.15601C13.7372 2.30102 16.7447 2.30102 18.5997 4.15601C20.4547 6.011 20.4547 9.01854 18.5997 10.8735C16.9252 12.5481 14.3114 12.711 12.4542 11.3622L7.81652 15.9999L9.4077 17.591C9.70059 17.8839 9.70059 18.3588 9.4077 18.6517C9.1148 18.9446 8.63993 18.9446 8.34704 18.6517L6.75586 17.0605L4.98791 18.8285L6.5789 20.4195C6.87179 20.7124 6.87179 21.1872 6.5789 21.4801C6.286 21.773 5.81113 21.773 5.51824 21.4801L3.39692 19.3588C3.25626 19.2182 3.17725 19.0274 3.17725 18.8285C3.17725 18.6296 3.25626 18.4388 3.39692 18.2981L11.3935 10.3016C10.0448 8.4443 10.2077 5.83055 11.8822 4.15601ZM17.9924 14.2501C18.4066 14.2501 18.7424 14.5858 18.7424 15.0001V17.2501H20.9924C21.4066 17.2501 21.7424 17.5858 21.7424 18.0001C21.7424 18.4143 21.4066 18.7501 20.9924 18.7501H18.7424V21.0001C18.7424 21.4143 18.4066 21.7501 17.9924 21.7501C17.5782 21.7501 17.2424 21.4143 17.2424 21.0001V18.7501H14.9924C14.5782 18.7501 14.2424 18.4143 14.2424 18.0001C14.2424 17.5858 14.5782 17.2501 14.9924 17.2501H17.2424V15.0001C17.2424 14.5858 17.5782 14.2501 17.9924 14.2501Z" fill="black"/>
</g>
</g>
</g>
<defs>
<clipPath id="clip0_232_13076">
<rect width="24" height="24" rx="5" fill="white"/>
</clipPath>
</defs>
</svg>
