<svg width="24" height="24" viewBox="0 0 24 24" fill="none" xmlns="http://www.w3.org/2000/svg">
<g id="key-xmark">
<g clip-path="url(#clip0_232_13112)">
<g id="Weight=Dynamic">
<path id="Vector (Stroke)" fill-rule="evenodd" clip-rule="evenodd" d="M17.5391 5.21655C16.2698 3.94735 14.2121 3.94735 12.9429 5.21655C11.6737 6.48575 11.6737 8.54354 12.9429 9.81274C14.2121 11.0819 16.2698 11.0819 17.5391 9.81274C18.8083 8.54354 18.8083 6.48575 17.5391 5.21655ZM11.8822 4.15589C13.7372 2.3009 16.7447 2.3009 18.5997 4.15589C20.4547 6.01088 20.4547 9.01841 18.5997 10.8734C16.9252 12.5479 14.3114 12.7108 12.4542 11.3621L7.81652 15.9997L9.4077 17.5909C9.70059 17.8838 9.70059 18.3587 9.4077 18.6516C9.1148 18.9445 8.63993 18.9445 8.34704 18.6516L6.75586 17.0604L4.98791 18.8284L6.5789 20.4193C6.87179 20.7122 6.87179 21.1871 6.5789 21.48C6.286 21.7729 5.81113 21.7729 5.51824 21.48L3.39692 19.3587C3.25626 19.218 3.17725 19.0273 3.17725 18.8284C3.17725 18.6294 3.25626 18.4387 3.39692 18.298L11.3935 10.3014C10.0448 8.44417 10.2077 5.83043 11.8822 4.15589ZM15.3412 15.3483C15.6341 15.0554 16.1089 15.0554 16.4018 15.3483L17.9928 16.9393L19.5838 15.3483C19.8767 15.0554 20.3516 15.0554 20.6445 15.3483C20.9374 15.6412 20.9374 16.116 20.6445 16.4089L19.0535 17.9999L20.6445 19.5909C20.9374 19.8838 20.9374 20.3587 20.6445 20.6516C20.3516 20.9445 19.8767 20.9445 19.5838 20.6516L17.9928 19.0606L16.4018 20.6516C16.1089 20.9445 15.6341 20.9445 15.3412 20.6516C15.0483 20.3587 15.0483 19.8838 15.3412 19.5909L16.9322 17.9999L15.3412 16.4089C15.0483 16.116 15.0483 15.6412 15.3412 15.3483Z" fill="black"/>
</g>
</g>
</g>
<defs>
<clipPath id="clip0_232_13112">
<rect width="24" height="24" rx="5" fill="white"/>
</clipPath>
</defs>
</svg>
