<svg width="24" height="24" viewBox="0 0 24 24" fill="none" xmlns="http://www.w3.org/2000/svg">
<g id="key-command">
<g clip-path="url(#clip0_232_14508)">
<g id="Weight=Dynamic">
<path id="Vector (Stroke)" fill-rule="evenodd" clip-rule="evenodd" d="M6 3.75C4.75736 3.75 3.75 4.75736 3.75 6C3.75 7.24264 4.75736 8.25 6 8.25H8.25V6C8.25 4.75736 7.24264 3.75 6 3.75ZM9.75 8.25V6C9.75 3.92893 8.07107 2.25 6 2.25C3.92893 2.25 2.25 3.92893 2.25 6C2.25 8.07107 3.92893 9.75 6 9.75H8.25V14.25H6C3.92893 14.25 2.25 15.9289 2.25 18C2.25 20.0711 3.92893 21.75 6 21.75C8.07107 21.75 9.75 20.0711 9.75 18V15.75H14.25V18C14.25 20.0711 15.9289 21.75 18 21.75C20.0711 21.75 21.75 20.0711 21.75 18C21.75 15.9289 20.0711 14.25 18 14.25H15.75V9.75H18C20.0711 9.75 21.75 8.07107 21.75 6C21.75 3.92893 20.0711 2.25 18 2.25C15.9289 2.25 14.25 3.92893 14.25 6V8.25H9.75ZM9.75 9.75V14.25H14.25V9.75H9.75ZM15.75 8.25H18C19.2426 8.25 20.25 7.24264 20.25 6C20.25 4.75736 19.2426 3.75 18 3.75C16.7574 3.75 15.75 4.75736 15.75 6V8.25ZM15.75 15.75V18C15.75 19.2426 16.7574 20.25 18 20.25C19.2426 20.25 20.25 19.2426 20.25 18C20.25 16.7574 19.2426 15.75 18 15.75H15.75ZM8.25 15.75H6C4.75736 15.75 3.75 16.7574 3.75 18C3.75 19.2426 4.75736 20.25 6 20.25C7.24264 20.25 8.25 19.2426 8.25 18V15.75Z" fill="black"/>
</g>
</g>
</g>
<defs>
<clipPath id="clip0_232_14508">
<rect width="24" height="24" rx="5" fill="white"/>
</clipPath>
</defs>
</svg>
