<svg width="24" height="24" viewBox="0 0 24 24" fill="none" xmlns="http://www.w3.org/2000/svg">
<g id="key">
<g clip-path="url(#clip0_232_13104)">
<g id="Weight=Dynamic">
<path id="Vector (Stroke)" fill-rule="evenodd" clip-rule="evenodd" d="M1.25 12C1.25 9.37665 3.37665 7.25 6 7.25C8.36815 7.25 10.3315 8.98301 10.6911 11.25H22C22.4142 11.25 22.75 11.5858 22.75 12V15C22.75 15.4142 22.4142 15.75 22 15.75C21.5858 15.75 21.25 15.4142 21.25 15V12.75H18.75V15C18.75 15.4142 18.4142 15.75 18 15.75C17.5858 15.75 17.25 15.4142 17.25 15V12.75H10.6911C10.3315 15.017 8.36815 16.75 6 16.75C3.37665 16.75 1.25 14.6234 1.25 12ZM6 8.75C4.20507 8.75 2.75 10.2051 2.75 12C2.75 13.7949 4.20507 15.25 6 15.25C7.79493 15.25 9.25 13.7949 9.25 12C9.25 10.2051 7.79493 8.75 6 8.75Z" fill="black"/>
</g>
</g>
</g>
<defs>
<clipPath id="clip0_232_13104">
<rect width="24" height="24" rx="5" fill="white"/>
</clipPath>
</defs>
</svg>
