<svg width="24" height="24" viewBox="0 0 24 24" fill="none" xmlns="http://www.w3.org/2000/svg">
<g id="keyframe">
<g clip-path="url(#clip0_232_16956)">
<g id="Weight=Dynamic">
<path id="Vector (Stroke)" fill-rule="evenodd" clip-rule="evenodd" d="M9.96537 2.12336C11.0565 0.923154 12.9439 0.923157 14.035 2.12336L13.4877 2.62097L14.035 2.12336L21.3321 10.1501C22.2857 11.199 22.2857 12.8009 21.3321 13.8498L14.035 21.8766C12.9439 23.0768 11.0565 23.0768 9.96537 21.8766L2.66829 13.8498C1.71474 12.8009 1.71474 11.199 2.66829 10.1501L9.96537 2.12336ZM12.9251 3.13236C12.4292 2.58682 11.5712 2.58682 11.0753 3.13236L3.7782 11.1591C3.34477 11.6359 3.34477 12.3641 3.7782 12.8408L11.0753 20.8676C11.5712 21.4132 12.4292 21.4132 12.9251 20.8676L20.2222 12.8408C20.6556 12.3641 20.6556 11.6359 20.2222 11.1592L12.9251 3.13236Z" fill="black"/>
</g>
</g>
</g>
<defs>
<clipPath id="clip0_232_16956">
<rect width="24" height="24" rx="5" fill="white"/>
</clipPath>
</defs>
</svg>
