<svg width="24" height="24" viewBox="0 0 24 24" fill="none" xmlns="http://www.w3.org/2000/svg">
<g id="keyframes-minus">
<g clip-path="url(#clip0_232_17285)">
<g id="Weight=Dynamic">
<path id="Vector (Stroke)" fill-rule="evenodd" clip-rule="evenodd" d="M12.5119 4.43057C12.8264 4.161 13.2999 4.19743 13.5694 4.51192L18.4538 10.2103C19.3365 11.2402 19.3365 12.7598 18.4538 13.7897L13.5694 19.4881C13.2999 19.8026 12.8264 19.839 12.5119 19.5695C12.1974 19.2999 12.161 18.8264 12.4306 18.5119L17.3149 12.8135C17.7162 12.3454 17.7162 11.6546 17.3149 11.1865L12.4306 5.48811C12.161 5.17361 12.1974 4.70014 12.5119 4.43057ZM16.5119 4.43057C16.8264 4.161 17.2999 4.19743 17.5694 4.51192L22.4538 10.2103C23.3365 11.2402 23.3365 12.7598 22.4538 13.7897L17.5694 19.4881C17.2999 19.8026 16.8264 19.839 16.5119 19.5695C16.1974 19.2999 16.161 18.8264 16.4306 18.5119L21.3149 12.8135C21.7162 12.3454 21.7162 11.6546 21.3149 11.1865L16.4306 5.48811C16.161 5.17361 16.1974 4.70014 16.5119 4.43057ZM5.93041 5.22631C7.02604 3.97416 8.97395 3.97416 10.0696 5.22631L14.412 10.1891C15.3193 11.2259 15.3193 12.7741 14.4121 13.8109L10.0696 18.7737C8.97396 20.0259 7.02605 20.0259 5.93041 18.7737L5.68557 18.4939C5.41281 18.1822 5.4444 17.7083 5.75612 17.4356C6.06785 17.1628 6.54167 17.1944 6.81443 17.5061L7.05928 17.786C7.55729 18.3551 8.44271 18.3551 8.94072 17.786L13.2832 12.8231C13.6956 12.3519 13.6956 11.6482 13.2832 11.1769L8.94072 6.21406C8.44271 5.64491 7.55729 5.64491 7.05928 6.21407L6.81443 6.49389C6.54167 6.80562 6.06785 6.83721 5.75612 6.56445C5.44439 6.29168 5.41281 5.81786 5.68557 5.50613L5.93041 5.22631ZM1.25 12C1.25 11.5858 1.58579 11.25 2 11.25H8C8.41421 11.25 8.75 11.5858 8.75 12C8.75 12.4142 8.41421 12.75 8 12.75H2C1.58579 12.75 1.25 12.4142 1.25 12Z" fill="black"/>
</g>
</g>
</g>
<defs>
<clipPath id="clip0_232_17285">
<rect width="24" height="24" rx="5" fill="white"/>
</clipPath>
</defs>
</svg>
