<svg width="24" height="24" viewBox="0 0 24 24" fill="none" xmlns="http://www.w3.org/2000/svg">
<g id="keyframe-plus-in">
<g clip-path="url(#clip0_232_17159)">
<g id="Weight=Dynamic">
<path id="Vector (Stroke)" fill-rule="evenodd" clip-rule="evenodd" d="M9.96537 2.12336C11.0565 0.923154 12.9439 0.923157 14.035 2.12336L13.4877 2.62097L14.035 2.12336L21.3321 10.1501C22.2857 11.199 22.2857 12.8009 21.3321 13.8498L14.035 21.8766C12.9439 23.0768 11.0565 23.0768 9.96537 21.8766L2.66829 13.8498C1.71474 12.8009 1.71474 11.199 2.66829 10.1501L9.96537 2.12336ZM12.9251 3.13236C12.4292 2.58682 11.5712 2.58682 11.0753 3.13236L3.7782 11.1591C3.34477 11.6359 3.34477 12.3641 3.7782 12.8408L11.0753 20.8676C11.5712 21.4132 12.4292 21.4132 12.9251 20.8676L20.2222 12.8408C20.6556 12.3641 20.6556 11.6359 20.2222 11.1592L12.9251 3.13236ZM13.4801 2.62786L12.9251 3.13236L13.4801 2.62786C12.7502 8.58578 12.4144 8.24999 12.0002 8.24999L12.7502 8.99999V11.25C15.7502 11.5858 15.4144 11.25 15.0002 11.25C15.4144 12.75 15.7502 12.4142 15.7502 12L15.0002 12.75H12.7502C12.4144 15.75 12.7502 15.4142 12.7502 15C11.2502 15.4142 11.586 15.75 12.0002 15.75L11.2502 15V12.75C8.2502 12.4142 8.58599 12.75 9.0002 12.75C8.58599 11.25 8.2502 11.5858 8.2502 12L9.0002 11.25H11.2502C11.586 8.24999 11.2502 8.58578 11.2502 8.99999" fill="black"/>
</g>
</g>
</g>
<defs>
<clipPath id="clip0_232_17159">
<rect width="24" height="24" rx="5" fill="white"/>
</clipPath>
</defs>
</svg>
