<svg width="24" height="24" viewBox="0 0 24 24" fill="none" xmlns="http://www.w3.org/2000/svg">
<g id="keyframe-align-horizontal">
<g clip-path="url(#clip0_232_17245)">
<g id="Weight=Dynamic">
<path id="Vector (Stroke)" fill-rule="evenodd" clip-rule="evenodd" d="M10.9629 6.07297C11.5026 5.4253 12.4974 5.4253 13.0371 6.07297L17.2561 11.1357C17.6733 11.6364 17.6733 12.3636 17.2561 12.8642L13.0371 17.927C12.4974 18.5747 11.5026 18.5747 10.9629 17.927L6.74393 12.8642C6.32673 12.3636 6.32672 11.6364 6.74393 11.1357L10.9629 6.07297ZM12 7.17153L7.97628 12L12 16.8285L16.0237 12L12 7.17153ZM1.25 12C1.25 11.5858 1.58579 11.25 2 11.25H4C4.41421 11.25 4.75 11.5858 4.75 12C4.75 12.4142 4.41421 12.75 4 12.75H2C1.58579 12.75 1.25 12.4142 1.25 12ZM19.25 12C19.25 11.5858 19.5858 11.25 20 11.25H22C22.4142 11.25 22.75 11.5858 22.75 12C22.75 12.4142 22.4142 12.75 22 12.75H20C19.5858 12.75 19.25 12.4142 19.25 12Z" fill="black"/>
</g>
</g>
</g>
<defs>
<clipPath id="clip0_232_17245">
<rect width="24" height="24" rx="5" fill="white"/>
</clipPath>
</defs>
</svg>
