<svg width="24" height="24" viewBox="0 0 24 24" fill="none" xmlns="http://www.w3.org/2000/svg">
<g id="keyframe-plus">
<g clip-path="url(#clip0_232_16871)">
<g id="Weight=Dynamic">
<path id="Vector (Stroke)" fill-rule="evenodd" clip-rule="evenodd" d="M18.9999 1.25C19.4141 1.25 19.7499 1.58579 19.7499 2V4.25H21.9999C22.4141 4.25 22.7499 4.58579 22.7499 5C22.7499 5.41421 22.4141 5.75 21.9999 5.75H19.7499V8C19.7499 8.41421 19.4141 8.75 18.9999 8.75C18.5857 8.75 18.2499 8.41421 18.2499 8V5.75H15.9999C15.5857 5.75 15.2499 5.41421 15.2499 5C15.2499 4.58579 15.5857 4.25 15.9999 4.25H18.2499V2C18.2499 1.58579 18.5857 1.25 18.9999 1.25ZM7.9445 5.1834C9.03842 3.95273 10.9613 3.95273 12.0552 5.1834L17.3793 11.173C18.3055 12.2149 18.3055 13.7851 17.3793 14.827L12.0552 20.8166C10.9613 22.0473 9.03842 22.0473 7.9445 20.8166L2.6204 14.827C1.69424 13.7851 1.69424 12.2149 2.62041 11.173L7.9445 5.1834ZM10.9341 6.17994C10.4369 5.62055 9.56285 5.62055 9.06561 6.17994L3.74152 12.1695C3.32054 12.6432 3.32054 13.3568 3.74152 13.8305L9.06561 19.8201C9.56285 20.3794 10.4369 20.3794 10.9341 19.8201L16.2582 13.8305C16.6792 13.3568 16.6792 12.6432 16.2582 12.1695L10.9341 6.17994Z" fill="black"/>
</g>
</g>
</g>
<defs>
<clipPath id="clip0_232_16871">
<rect width="24" height="24" rx="5" fill="white"/>
</clipPath>
</defs>
</svg>
