<svg width="24" height="24" viewBox="0 0 24 24" fill="none" xmlns="http://www.w3.org/2000/svg">
<g id="keyframes-couple">
<g clip-path="url(#clip0_232_16816)">
<g id="Weight=Dynamic">
<path id="Vector (Stroke)" fill-rule="evenodd" clip-rule="evenodd" d="M6.9445 4.18337C8.03842 2.95271 9.96132 2.95271 11.0552 4.18337L10.5035 4.67385L11.0552 4.18337L11.9999 5.24608L12.9445 4.18338L13.5051 4.68165L12.9445 4.18337C14.0384 2.95271 15.9613 2.95271 17.0552 4.18337L16.5035 4.67385L17.0552 4.18337L22.3793 10.173C23.3055 11.2149 23.3055 12.785 22.3793 13.827L17.0552 19.8166C15.9613 21.0472 14.0384 21.0472 12.9445 19.8166L11.9999 18.7539L11.0552 19.8166C9.96132 21.0472 8.03842 21.0472 6.9445 19.8166L1.6204 13.827C0.69424 12.785 0.69424 11.2149 1.62041 10.173L6.9445 4.18337ZM11.4456 17.1196C11.4409 17.1248 11.4363 17.1299 11.4318 17.1352L9.93413 18.82C9.43689 19.3794 8.56285 19.3794 8.06561 18.82L2.74152 12.8304C2.32054 12.3568 2.32054 11.6431 2.74152 11.1695L8.06561 5.17992C8.56285 4.62053 9.43689 4.62053 9.93413 5.17992L11.4318 6.86479C11.4363 6.87002 11.4409 6.87519 11.4456 6.88031L15.2582 11.1695C15.6792 11.6431 15.6792 12.3568 15.2582 12.8304L11.4456 17.1196ZM13.0033 17.625L14.0656 18.82C14.5628 19.3794 15.4369 19.3794 15.9341 18.82L21.2582 12.8304C21.6792 12.3568 21.6792 11.6431 21.2582 11.1695L15.9341 5.17992C15.4369 4.62053 14.5628 4.62053 14.0656 5.17992L13.0033 6.37498L16.3793 10.173C17.3055 11.2149 17.3055 12.785 16.3793 13.827L13.0033 17.625Z" fill="black"/>
</g>
</g>
</g>
<defs>
<clipPath id="clip0_232_16816">
<rect width="24" height="24" rx="5" fill="white"/>
</clipPath>
</defs>
</svg>
