<svg width="24" height="24" viewBox="0 0 24 24" fill="none" xmlns="http://www.w3.org/2000/svg">
<g id="keyframe-align-vertical">
<g clip-path="url(#clip0_232_16779)">
<g id="Weight=Dynamic">
<path id="Vector (Stroke)" fill-rule="evenodd" clip-rule="evenodd" d="M12.0001 1.25C12.4143 1.25 12.7501 1.58579 12.7501 2V4C12.7501 4.41421 12.4143 4.75 12.0001 4.75C11.5859 4.75 11.2501 4.41421 11.2501 4V2C11.2501 1.58579 11.5859 1.25 12.0001 1.25ZM6.74405 11.1358L10.963 6.07298C11.5028 5.42531 12.4975 5.42531 13.0372 6.07298L17.2562 11.1357C17.6734 11.6364 17.6734 12.3636 17.2562 12.8642L13.0372 17.927C12.4975 18.5747 11.5028 18.5747 10.963 17.927L6.74405 12.8642C6.32685 12.3636 6.32685 11.6364 6.74405 11.1358ZM12.0001 7.17154L7.97641 12L12.0001 16.8285L16.0238 12L12.0001 7.17154ZM16.1039 11.904L16.1036 11.9043L16.1039 11.904ZM12.0001 19.25C12.4143 19.25 12.7501 19.5858 12.7501 20V22C12.7501 22.4142 12.4143 22.75 12.0001 22.75C11.5859 22.75 11.2501 22.4142 11.2501 22V20C11.2501 19.5858 11.5859 19.25 12.0001 19.25Z" fill="black"/>
</g>
</g>
</g>
<defs>
<clipPath id="clip0_232_16779">
<rect width="24" height="24" rx="5" fill="white"/>
</clipPath>
</defs>
</svg>
