<svg width="24" height="24" viewBox="0 0 24 24" fill="none" xmlns="http://www.w3.org/2000/svg">
<g id="keyframes">
<g clip-path="url(#clip0_232_17070)">
<g id="Weight=Dynamic">
<path id="Vector (Stroke)" fill-rule="evenodd" clip-rule="evenodd" d="M12.5121 4.43057C12.8266 4.161 13.3001 4.19743 13.5696 4.51192L18.454 10.2103C19.3367 11.2402 19.3367 12.7598 18.454 13.7897L13.5696 19.4881C13.3001 19.8026 12.8266 19.839 12.5121 19.5695C12.1976 19.2999 12.1612 18.8264 12.4307 18.5119L17.3151 12.8135C17.7163 12.3454 17.7163 11.6546 17.3151 11.1865L12.4307 5.48811C12.1612 5.17361 12.1976 4.70014 12.5121 4.43057ZM16.5121 4.43057C16.8266 4.161 17.3001 4.19743 17.5696 4.51192L22.454 10.2103C23.3367 11.2402 23.3367 12.7598 22.454 13.7897L17.5696 19.4881C17.3001 19.8026 16.8266 19.839 16.5121 19.5695C16.1976 19.2999 16.1612 18.8264 16.4307 18.5119L21.3151 12.8135C21.7163 12.3454 21.7163 11.6546 21.3151 11.1865L16.4307 5.48811C16.1612 5.17361 16.1976 4.70014 16.5121 4.43057ZM5.93059 5.22631C7.02622 3.97416 8.97413 3.97416 10.0698 5.22631L14.4122 10.1891C15.3194 11.2259 15.3194 12.7741 14.4122 13.8109L10.0698 18.7737C8.97414 20.0259 7.02623 20.0259 5.93059 18.7737L1.58813 13.8109C0.680912 12.7741 0.680908 11.2259 1.58813 10.1891L5.93059 5.22631ZM8.9409 6.21406C8.44288 5.64491 7.55747 5.64491 7.05946 6.21407L2.71699 11.1769C2.30462 11.6482 2.30462 12.3519 2.71699 12.8231L7.05946 17.786C7.55747 18.3551 8.44288 18.3551 8.9409 17.786L13.2834 12.8231C13.6957 12.3519 13.6957 11.6482 13.2834 11.1769L8.9409 6.21406Z" fill="black"/>
</g>
</g>
</g>
<defs>
<clipPath id="clip0_232_17070">
<rect width="24" height="24" rx="5" fill="white"/>
</clipPath>
</defs>
</svg>
