<svg width="24" height="24" viewBox="0 0 24 24" fill="none" xmlns="http://www.w3.org/2000/svg">
<g id="keyframe-position">
<g clip-path="url(#clip0_232_17042)">
<g id="Weight=Dynamic">
<path id="Vector (Stroke)" fill-rule="evenodd" clip-rule="evenodd" d="M10.9629 3.07297C11.5026 2.4253 12.4974 2.4253 13.0371 3.07297L17.2561 8.13574C17.6733 8.63638 17.6733 9.3636 17.2561 9.86424L13.0371 14.927C12.4974 15.5747 11.5026 15.5747 10.9629 14.927L6.74393 9.86424C6.32673 9.3636 6.32672 8.63638 6.74393 8.13574L10.9629 3.07297ZM12 4.17153L7.97628 8.99999L12 13.8285L16.0237 8.99999L12 4.17153ZM12 16.25C12.4142 16.25 12.75 16.5858 12.75 17V19.25H21C21.4142 19.25 21.75 19.5858 21.75 20C21.75 20.4142 21.4142 20.75 21 20.75H3C2.58579 20.75 2.25 20.4142 2.25 20C2.25 19.5858 2.58579 19.25 3 19.25H11.25V17C11.25 16.5858 11.5858 16.25 12 16.25Z" fill="black"/>
</g>
</g>
</g>
<defs>
<clipPath id="clip0_232_17042">
<rect width="24" height="24" rx="5" fill="white"/>
</clipPath>
</defs>
</svg>
