<svg width="24" height="24" viewBox="0 0 24 24" fill="none" xmlns="http://www.w3.org/2000/svg">
<g id="lamp">
<g clip-path="url(#clip0_232_8894)">
<g id="Weight=Dynamic">
<path id="Vector (Stroke)" fill-rule="evenodd" clip-rule="evenodd" d="M8.29776 2.73666C8.40753 2.44393 8.68737 2.25 9 2.25H15C15.3126 2.25 15.5925 2.44393 15.7023 2.73666L18.7023 10.7367C18.7886 10.967 18.7566 11.225 18.6164 11.4272C18.4763 11.6294 18.246 11.75 18 11.75H12.75V20.25H15C15.4142 20.25 15.75 20.5858 15.75 21C15.75 21.4142 15.4142 21.75 15 21.75H9C8.58579 21.75 8.25 21.4142 8.25 21C8.25 20.5858 8.58579 20.25 9 20.25H11.25V11.75H6C5.75402 11.75 5.52367 11.6294 5.38356 11.4272C5.24345 11.225 5.21139 10.967 5.29776 10.7367L8.29776 2.73666ZM12.75 10.25V7C12.75 6.58579 12.4142 6.25 12 6.25C11.5858 6.25 11.25 6.58579 11.25 7V10.25H7.08225L9.51975 3.75H14.4803L16.9178 10.25H12.75Z" fill="black"/>
</g>
</g>
</g>
<defs>
<clipPath id="clip0_232_8894">
<rect width="24" height="24" rx="5" fill="white"/>
</clipPath>
</defs>
</svg>
