<svg width="24" height="24" viewBox="0 0 24 24" fill="none" xmlns="http://www.w3.org/2000/svg">
<g id="language">
<g clip-path="url(#clip0_232_11850)">
<g id="Weight=Dynamic">
<path id="Vector (Stroke)" fill-rule="evenodd" clip-rule="evenodd" d="M3.16565 9.25C2.89552 10.1187 2.75 11.0424 2.75 12C2.75 12.9576 2.89552 13.8813 3.16565 14.75H7.4527C7.32538 13.8899 7.25 12.9708 7.25 11.9999C7.25 11.0291 7.32537 10.11 7.45268 9.25H3.16565ZM3.782 7.75H7.73686C8.02981 6.48375 8.42071 5.3826 8.8114 4.47742C9.03885 3.95045 9.26666 3.48887 9.47585 3.09859C6.99899 3.79957 4.94462 5.50647 3.782 7.75ZM11.4134 2.7683C11.3472 2.86829 11.2656 2.99563 11.1727 3.14904C10.9067 3.58796 10.5482 4.23873 10.1886 5.07184C9.8635 5.82505 9.53858 6.72481 9.28 7.75H14.72C14.4614 6.72481 14.1365 5.82505 13.8114 5.07184C13.4518 4.23873 13.0933 3.58796 12.8273 3.14904C12.7344 2.99563 12.6528 2.86829 12.5866 2.7683C12.3927 2.75616 12.197 2.75 12 2.75C11.803 2.75 11.6073 2.75616 11.4134 2.7683ZM14.5242 3.09859C14.7333 3.48887 14.9612 3.95045 15.1886 4.47742C15.5793 5.3826 15.9702 6.48375 16.2631 7.75H20.218C19.0554 5.50647 17.001 3.79957 14.5242 3.09859ZM22.0803 8.25659C22.0759 8.24377 22.0712 8.23111 22.0661 8.21861C20.6566 4.46843 17.2116 1.71458 13.077 1.30328C13.0749 1.30307 13.0728 1.30286 13.0706 1.30265C12.7185 1.26783 12.3613 1.25 12 1.25C11.6387 1.25 11.2815 1.26783 10.9293 1.30265C10.9272 1.30286 10.9251 1.30307 10.923 1.30328C5.49161 1.84358 1.25 6.42645 1.25 12C1.25 17.9371 6.06294 22.75 12 22.75C16.6063 22.75 20.5359 19.8529 22.0661 15.7814C22.0712 15.7689 22.0759 15.7562 22.0803 15.7434C22.5134 14.5777 22.75 13.3165 22.75 12C22.75 10.6835 22.5134 9.42231 22.0803 8.25659ZM20.8343 9.25H16.5473C16.6746 10.11 16.75 11.0291 16.75 11.9999C16.75 12.9708 16.6746 13.8899 16.5473 14.75H20.8343C21.1045 13.8813 21.25 12.9576 21.25 12C21.25 11.0424 21.1045 10.1187 20.8343 9.25ZM20.218 16.25H16.2631C15.9702 17.5162 15.5793 18.6173 15.1886 19.5225C14.9611 20.0495 14.7333 20.5111 14.5241 20.9014C17.001 20.2005 19.0554 18.4936 20.218 16.25ZM12.5866 21.2317C12.6528 21.1317 12.7343 21.0043 12.8273 20.8508C13.0933 20.4119 13.4518 19.7611 13.8114 18.928C14.1365 18.1749 14.4614 17.2751 14.72 16.25H9.28003C9.5386 17.2751 9.86351 18.1749 10.1886 18.928C10.5482 19.7611 10.9067 20.4119 11.1727 20.8508C11.2657 21.0043 11.3472 21.1317 11.4134 21.2317C11.6074 21.2438 11.803 21.25 12 21.25C12.197 21.25 12.3926 21.2438 12.5866 21.2317ZM9.47592 20.9014C9.26671 20.5111 9.03887 20.0495 8.8114 19.5225C8.42073 18.6173 8.02984 17.5162 7.73689 16.25H3.782C4.94463 18.4936 6.99903 20.2005 9.47592 20.9014ZM8.9705 14.75H15.0295C15.1671 13.8957 15.25 12.976 15.25 11.9999C15.25 11.0239 15.1671 10.1043 15.0295 9.25H8.97048C8.83286 10.1043 8.75 11.0239 8.75 11.9999C8.75 12.976 8.83287 13.8957 8.9705 14.75Z" fill="black"/>
</g>
</g>
</g>
<defs>
<clipPath id="clip0_232_11850">
<rect width="24" height="24" rx="5" fill="white"/>
</clipPath>
</defs>
</svg>
