<svg width="24" height="24" viewBox="0 0 24 24" fill="none" xmlns="http://www.w3.org/2000/svg">
<g id="laptop-warning">
<g clip-path="url(#clip0_232_5893)">
<g id="Weight=Dynamic">
<path id="Vector (Stroke)" fill-rule="evenodd" clip-rule="evenodd" d="M5.19998 2.75C4.50963 2.75 3.94998 3.30964 3.94998 4V13.4722H20.05V4C20.05 3.30964 19.4903 2.75 18.8 2.75H5.19998ZM20.2327 14.9722H3.76726L2.44136 19.6598C2.21569 20.4576 2.81507 21.25 3.64416 21.25H20.3558C21.1849 21.25 21.7843 20.4576 21.5586 19.6598L20.2327 14.9722ZM2.44998 14.1182V4C2.44998 2.48122 3.6812 1.25 5.19998 1.25H18.8C20.3188 1.25 21.55 2.48122 21.55 4V14.1182L23.002 19.2515C23.4984 21.0067 22.1798 22.75 20.3558 22.75H3.64416C1.82015 22.75 0.501527 21.0067 0.997986 19.2515L2.44998 14.1182ZM12 4.25C12.4142 4.25 12.75 4.58579 12.75 5V8C12.75 8.41421 12.4142 8.75 12 8.75C11.5858 8.75 11.25 8.41421 11.25 8V5C11.25 4.58579 11.5858 4.25 12 4.25ZM12.5117 10.4414C12.8196 10.7185 12.8445 11.1927 12.5674 11.5006L12.5574 11.5117C12.2804 11.8196 11.8061 11.8446 11.4983 11.5675C11.1904 11.2904 11.1654 10.8162 11.4425 10.5083L11.4525 10.4972C11.7296 10.1893 12.2038 10.1643 12.5117 10.4414ZM10.25 19C10.25 18.5858 10.5858 18.25 11 18.25H13C13.4142 18.25 13.75 18.5858 13.75 19C13.75 19.4142 13.4142 19.75 13 19.75H11C10.5858 19.75 10.25 19.4142 10.25 19Z" fill="black"/>
</g>
</g>
</g>
<defs>
<clipPath id="clip0_232_5893">
<rect width="24" height="24" rx="5" fill="white"/>
</clipPath>
</defs>
</svg>
