<svg width="24" height="24" viewBox="0 0 24 24" fill="none" xmlns="http://www.w3.org/2000/svg">
<g id="laptop-fix">
<g clip-path="url(#clip0_232_5905)">
<g id="Weight=Dynamic">
<path id="Vector (Stroke)" fill-rule="evenodd" clip-rule="evenodd" d="M5.20018 2.75C4.50982 2.75 3.95018 3.30964 3.95018 4V13.4722H20.05V8.11108C20.05 7.69687 20.3858 7.36108 20.8 7.36108C21.2142 7.36108 21.55 7.69687 21.55 8.11108V14.1182L23.002 19.2515C23.4984 21.0066 22.1798 22.75 20.3558 22.75H3.64416C1.82015 22.75 0.501527 21.0066 0.997986 19.2515L2.35477 14.4548C2.37896 14.3692 2.41107 14.2876 2.45018 14.2106V4C2.45018 2.48122 3.6814 1.25 5.20018 1.25H12.0002C12.4144 1.25 12.7502 1.58579 12.7502 2C12.7502 2.41421 12.4144 2.75 12.0002 2.75H5.20018ZM20.2327 14.9722H3.76726L2.44136 19.6597C2.21569 20.4575 2.81507 21.25 3.64416 21.25H20.3558C21.1849 21.25 21.7843 20.4575 21.5586 19.6597L20.2327 14.9722ZM17.1264 1.46967C17.4193 1.17678 17.8942 1.17678 18.1871 1.46967C18.4799 1.76256 18.4799 2.23744 18.1871 2.53033C17.6989 3.01849 17.6989 3.80988 18.1871 4.29804C18.6752 4.78622 19.4667 4.78622 19.9548 4.2981C20.2477 4.0052 20.7226 4.0052 21.0155 4.2981C21.3084 4.59099 21.3084 5.06586 21.0155 5.35876C20.1254 6.24887 18.7769 6.40117 17.7299 5.81583L15.8158 7.73C16.4011 8.77705 16.2487 10.1256 15.3586 11.0156C15.0657 11.3085 14.5908 11.3085 14.2979 11.0156C14.005 10.7228 14.005 10.2479 14.2979 9.95499C14.7861 9.46681 14.7861 8.67526 14.298 8.18713C13.8099 7.69902 13.0184 7.69902 12.5302 8.18722C12.2373 8.48011 11.7624 8.48011 11.4695 8.18722C11.1766 7.89433 11.1766 7.41945 11.4695 7.12656C12.3596 6.2365 13.708 6.08401 14.7551 6.66934L16.6693 4.75517C16.0839 3.70816 16.2363 2.35976 17.1264 1.46967ZM10.25 19C10.25 18.5858 10.5858 18.25 11 18.25H13C13.4142 18.25 13.75 18.5858 13.75 19C13.75 19.4142 13.4142 19.75 13 19.75H11C10.5858 19.75 10.25 19.4142 10.25 19Z" fill="black"/>
</g>
</g>
</g>
<defs>
<clipPath id="clip0_232_5905">
<rect width="24" height="24" rx="5" fill="white"/>
</clipPath>
</defs>
</svg>
