<svg width="24" height="24" viewBox="0 0 24 24" fill="none" xmlns="http://www.w3.org/2000/svg">
<g id="leaderboard">
<g clip-path="url(#clip0_232_2028)">
<g id="Weight=Dynamic">
<path id="Vector (Stroke)" fill-rule="evenodd" clip-rule="evenodd" d="M8.25 5C8.25 4.58579 8.58579 4.25 9 4.25H15C15.4142 4.25 15.75 4.58579 15.75 5C15.75 5.41421 15.4142 5.75 15 5.75H9C8.58579 5.75 8.25 5.41421 8.25 5ZM8.25 8.6C8.25 7.85442 8.85442 7.25 9.6 7.25H14.4C15.1456 7.25 15.75 7.85441 15.75 8.6V13.75H20.4C21.1456 13.75 21.75 14.3544 21.75 15.1V18.4C21.75 19.1456 21.1456 19.75 20.4 19.75H3.6C2.85441 19.75 2.25 19.1456 2.25 18.4V13.1C2.25 12.3544 2.85441 11.75 3.6 11.75H8.25V8.6ZM9.75 18.25H14.25V8.75H9.75V18.25ZM15.75 18.25H20.25V15.25H15.75V18.25ZM8.25 18.25V13.25H3.75V18.25H8.25Z" fill="black"/>
</g>
</g>
</g>
<defs>
<clipPath id="clip0_232_2028">
<rect width="24" height="24" rx="5" fill="white"/>
</clipPath>
</defs>
</svg>
