<svg width="24" height="24" viewBox="0 0 24 24" fill="none" xmlns="http://www.w3.org/2000/svg">
<g id="leaderboard-star">
<g clip-path="url(#clip0_232_2040)">
<g id="Weight=Dynamic">
<path id="Vector (Stroke)" fill-rule="evenodd" clip-rule="evenodd" d="M12 4.33892L11.4839 5.43318C11.3775 5.6589 11.1657 5.81689 10.919 5.85463L9.69567 6.04177L10.6028 6.96649C10.7701 7.13707 10.8462 7.37718 10.8075 7.61299L10.6008 8.87433L11.6384 8.30326C11.8635 8.17933 12.1365 8.17933 12.3616 8.30326L13.3992 8.87433L13.1925 7.61299C13.1538 7.37718 13.2299 7.13707 13.3972 6.96649L14.3043 6.04177L13.081 5.85463C12.8343 5.81689 12.6225 5.6589 12.5161 5.43318L12 4.33892ZM11.0364 2.86567C11.4235 2.04478 12.5765 2.04478 12.9636 2.86567L13.7025 4.43225L15.3409 4.6829C16.2517 4.82223 16.5231 5.92192 15.9389 6.5175L14.7342 7.74555L15.0199 9.4887C15.1526 10.2985 14.3076 11.0865 13.4564 10.618L12 9.81641L10.5436 10.618C9.69244 11.0865 8.84743 10.2985 8.98013 9.4887L9.26579 7.74555L8.06111 6.5175C7.47688 5.92192 7.74826 4.82223 8.65907 4.6829L10.2975 4.43225L11.0364 2.86567ZM8.25 12.6C8.25 11.8544 8.85441 11.25 9.6 11.25H14.4C15.1456 11.25 15.75 11.8544 15.75 12.6V16.75H20.4C21.1456 16.75 21.75 17.3544 21.75 18.1V20.4C21.75 21.1456 21.1456 21.75 20.4 21.75H3.6C2.85441 21.75 2.25 21.1456 2.25 20.4V16.1C2.25 15.3544 2.85441 14.75 3.6 14.75H8.25V12.6ZM9.75 20.25H14.25V12.75H9.75V20.25ZM15.75 20.25H20.25V18.25H15.75V20.25ZM8.25 20.25V16.25H3.75V20.25H8.25Z" fill="black"/>
</g>
</g>
</g>
<defs>
<clipPath id="clip0_232_2040">
<rect width="24" height="24" rx="5" fill="white"/>
</clipPath>
</defs>
</svg>
