<svg width="24" height="24" viewBox="0 0 24 24" fill="none" xmlns="http://www.w3.org/2000/svg">
<g id="leaf">
<g clip-path="url(#clip0_232_10552)">
<g id="Weight=Dynamic">
<path id="Vector (Stroke)" fill-rule="evenodd" clip-rule="evenodd" d="M18.4031 2.95596C19.1453 2.88449 19.8049 3.4282 19.8763 4.17035L20.4708 10.3448C20.8856 14.6522 17.6599 18.4703 13.3708 18.8833C11.6657 19.0475 10.0239 18.6416 8.64616 17.8198C8.55427 18.0531 8.47123 18.2788 8.39627 18.4953C8.12678 19.2739 7.96289 19.9304 7.86688 20.3883C7.8189 20.6171 7.78797 20.7959 7.7693 20.9149C7.75997 20.9745 7.75372 21.019 7.74994 21.0474L7.74606 21.0777L7.74544 21.0828C7.69948 21.4943 7.32874 21.7911 6.9172 21.7454C6.50552 21.6997 6.20887 21.3289 6.25461 20.9172L7.00003 21C6.25461 20.9172 6.25458 20.9175 6.25461 20.9172L6.25493 20.9144L6.25544 20.91L6.25708 20.8962C6.25846 20.8849 6.26042 20.8693 6.26305 20.8495C6.26831 20.8101 6.27621 20.754 6.28739 20.6827C6.30974 20.5401 6.34522 20.336 6.3988 20.0805C6.50591 19.5696 6.68577 18.8511 6.97879 18.0047C7.09928 17.6566 7.23914 17.2862 7.40125 16.8992C6.0372 15.664 5.10784 13.9448 4.91825 11.9758C4.51141 7.75056 7.60682 3.99552 11.832 3.58868L18.4031 2.95596ZM9.26206 16.438C9.81502 15.3316 10.5612 14.1404 11.5645 12.9939C11.8372 12.6821 11.8056 12.2083 11.4939 11.9356C11.1822 11.6628 10.7084 11.6944 10.4356 12.0061C9.42912 13.1564 8.66093 14.3449 8.07601 15.4629C7.16048 14.5007 6.54731 13.2441 6.41134 11.832C6.0839 8.43141 8.5752 5.40922 11.9758 5.08177L18.3976 4.46343L18.9778 10.4886C19.3113 13.9531 16.7099 17.0548 13.2271 17.3902C11.7853 17.529 10.4026 17.1631 9.26206 16.438Z" fill="black"/>
</g>
</g>
</g>
<defs>
<clipPath id="clip0_232_10552">
<rect width="24" height="24" rx="5" fill="white"/>
</clipPath>
</defs>
</svg>
