<svg width="24" height="24" viewBox="0 0 24 24" fill="none" xmlns="http://www.w3.org/2000/svg">
<g id="learning">
<g clip-path="url(#clip0_232_16483)">
<g id="Weight=Dynamic">
<g id="Vector">
<path fill-rule="evenodd" clip-rule="evenodd" d="M6.74372 16.7241C7.14651 17.4166 7.47517 18.1794 7.56446 19.068C7.56696 19.0929 7.56822 19.1179 7.56822 19.143L7.56818 22C7.56817 22.4142 7.23238 22.75 6.81816 22.75C6.40395 22.75 6.06817 22.4142 6.06818 22L6.06822 19.1825C6.00281 18.596 5.78153 18.0533 5.44709 17.4783C5.19976 17.053 4.91547 16.6484 4.60086 16.2007C4.46526 16.0077 4.32404 15.8067 4.1777 15.5926C3.2285 14.2036 2.25 12.5097 2.25 10.0004C2.25 7.56948 2.97653 5.35414 4.50171 3.74845C6.03466 2.13456 8.29486 1.2205 11.1897 1.25073C13.2837 1.27259 15.3664 1.88111 16.9422 3.14528C18.4908 4.38764 19.5064 6.23149 19.5655 8.63492L21.6327 11.8834C21.7093 12.0037 21.75 12.1434 21.75 12.286C21.75 12.9817 21.5822 13.5537 21.2918 14.0101C21.0034 14.4634 20.6214 14.7595 20.2571 14.9504C20.0213 15.0739 19.7892 15.1554 19.5851 15.2096C19.5837 15.2999 19.5808 15.3971 19.5759 15.5003C19.5483 16.0782 19.4561 16.8658 19.1886 17.6664C18.9211 18.4671 18.4658 19.3168 17.6891 19.9678C17.0495 20.5038 16.2299 20.8729 15.2045 20.9932V22C15.2045 22.4142 14.8687 22.75 14.4545 22.75C14.0403 22.75 13.7045 22.4142 13.7045 22V20.2858C13.7045 19.8716 14.0403 19.5358 14.4545 19.5358C15.5252 19.5358 16.2357 19.2287 16.7256 18.8181C17.2273 18.3977 17.5561 17.8189 17.7659 17.1911C17.9757 16.5632 18.054 15.9223 18.0776 15.4288C18.0892 15.1843 18.0872 14.9818 18.0825 14.8428C18.0801 14.7734 18.0771 14.7201 18.0748 14.6859C18.0737 14.6687 18.0727 14.6563 18.0721 14.6491L18.0716 14.6429C18.0517 14.4328 18.1212 14.2234 18.2633 14.0672C18.4041 13.9122 18.6033 13.8233 18.8125 13.8217L18.8165 13.8216C18.8233 13.8214 18.8367 13.8208 18.856 13.8193C18.8948 13.8164 18.9553 13.8102 19.0301 13.7972C19.1831 13.7704 19.3763 13.7184 19.5611 13.6216C19.7422 13.5267 19.9057 13.3943 20.0263 13.2048C20.1257 13.0487 20.2154 12.8234 20.242 12.4919L18.1855 9.26026C18.1089 9.13992 18.0682 9.00024 18.0682 8.8576C18.0682 6.79878 17.2437 5.31024 16.0035 4.3153C14.7431 3.30409 13.0075 2.76979 11.174 2.75064C8.61436 2.72392 6.78363 3.52409 5.58928 4.78149C4.38716 6.04708 3.75 7.86008 3.75 10.0004C3.75 12.0624 4.53102 13.4511 5.41613 14.7462C5.53614 14.9218 5.66195 15.1009 5.78944 15.2824C6.12016 15.7532 6.46221 16.2401 6.74372 16.7241Z" fill="black"/>
<path fill-rule="evenodd" clip-rule="evenodd" d="M11 8.75C10.7711 8.75 10.5586 8.81085 10.3755 8.91677C9.99996 9.13403 9.74999 9.53827 9.74999 10C9.74999 10.4617 9.99996 10.866 10.3755 11.0832C10.5586 11.1891 10.7711 11.25 11 11.25C11.6904 11.25 12.25 10.6904 12.25 10C12.25 9.30964 11.6904 8.75 11 8.75ZM9.62445 7.61836C10.0297 7.38393 10.5003 7.25 11 7.25C12.5188 7.25 13.75 8.48122 13.75 10C13.75 11.5188 12.5188 12.75 11 12.75C10.5003 12.75 10.0297 12.6161 9.62445 12.3816C8.80443 11.9073 8.24999 11.0188 8.24999 10C8.24999 8.98117 8.80443 8.09272 9.62445 7.61836Z" fill="black"/>
<path fill-rule="evenodd" clip-rule="evenodd" d="M10.8086 6.25482C10.872 6.25162 10.9359 6.25 11 6.25C11.0641 6.25 11.1279 6.25162 11.1914 6.25482C11.6051 6.27568 11.9235 6.62796 11.9027 7.04165C11.8818 7.45534 11.5295 7.77378 11.1158 7.75291C11.0775 7.75098 11.0389 7.75 11 7.75C10.9611 7.75 10.9225 7.75098 10.8842 7.75291C10.4705 7.77378 10.1182 7.45534 10.0973 7.04165C10.0765 6.62796 10.3949 6.27568 10.8086 6.25482ZM12.4533 7.27017C12.7309 6.96275 13.2052 6.93858 13.5126 7.21619C13.6075 7.30193 13.6981 7.39246 13.7838 7.48741C14.0614 7.79483 14.0372 8.26909 13.7298 8.5467C13.4224 8.82431 12.9481 8.80014 12.6705 8.49272C12.6189 8.43557 12.5644 8.38107 12.5073 8.32945C12.1999 8.05185 12.1757 7.57759 12.4533 7.27017ZM9.5467 7.27017C9.8243 7.57759 9.80014 8.05185 9.49272 8.32945C9.43556 8.38107 9.38106 8.43557 9.32945 8.49272C9.05184 8.80014 8.57758 8.82431 8.27016 8.5467C7.96274 8.26909 7.93858 7.79483 8.21618 7.48742C8.30193 7.39247 8.39246 7.30193 8.48741 7.21619C8.79483 6.93858 9.26909 6.96275 9.5467 7.27017ZM13.9583 9.09733C14.372 9.07646 14.7243 9.3949 14.7452 9.80859C14.7484 9.87205 14.75 9.93587 14.75 10C14.75 10.0641 14.7484 10.1279 14.7452 10.1914C14.7243 10.6051 14.372 10.9235 13.9583 10.9027C13.5447 10.8818 13.2262 10.5295 13.2471 10.1158C13.249 10.0775 13.25 10.0389 13.25 10C13.25 9.96108 13.249 9.92246 13.2471 9.88416C13.2262 9.47047 13.5447 9.11819 13.9583 9.09733ZM8.04164 9.09733C8.45533 9.11819 8.77377 9.47047 8.75291 9.88416C8.75098 9.92246 8.74999 9.96108 8.74999 10C8.74999 10.0389 8.75098 10.0775 8.75291 10.1158C8.77377 10.5295 8.45533 10.8818 8.04164 10.9027C7.62796 10.9235 7.27568 10.6051 7.25481 10.1914C7.25161 10.1279 7.24999 10.0641 7.24999 10C7.24999 9.93587 7.25161 9.87205 7.25481 9.80859C7.27568 9.3949 7.62795 9.07646 8.04164 9.09733ZM13.7298 11.4533C14.0372 11.7309 14.0614 12.2052 13.7838 12.5126C13.6981 12.6075 13.6075 12.6981 13.5126 12.7838C13.2052 13.0614 12.7309 13.0373 12.4533 12.7298C12.1757 12.4224 12.1999 11.9482 12.5073 11.6705C12.5644 11.6189 12.6189 11.5644 12.6705 11.5073C12.9481 11.1999 13.4224 11.1757 13.7298 11.4533ZM8.27016 11.4533C8.57758 11.1757 9.05184 11.1999 9.32945 11.5073C9.38106 11.5644 9.43556 11.6189 9.49272 11.6705C9.80014 11.9482 9.8243 12.4224 9.5467 12.7298C9.26909 13.0373 8.79483 13.0614 8.48741 12.7838C8.39246 12.6981 8.30193 12.6075 8.21619 12.5126C7.93858 12.2052 7.96274 11.7309 8.27016 11.4533ZM10.0973 12.9584C10.1182 12.5447 10.4705 12.2262 10.8842 12.2471C10.9225 12.249 10.9611 12.25 11 12.25C11.0389 12.25 11.0775 12.249 11.1158 12.2471C11.5295 12.2262 11.8818 12.5447 11.9027 12.9584C11.9235 13.372 11.6051 13.7243 11.1914 13.7452C11.1279 13.7484 11.0641 13.75 11 13.75C10.9359 13.75 10.872 13.7484 10.8086 13.7452C10.3949 13.7243 10.0765 13.372 10.0973 12.9584Z" fill="black"/>
</g>
</g>
</g>
</g>
<defs>
<clipPath id="clip0_232_16483">
<rect width="24" height="24" rx="5" fill="white"/>
</clipPath>
</defs>
</svg>
