<svg width="24" height="24" viewBox="0 0 24 24" fill="none" xmlns="http://www.w3.org/2000/svg">
<g id="lens-plus">
<g clip-path="url(#clip0_232_4460)">
<g id="Weight=Dynamic">
<path id="Vector (Stroke)" fill-rule="evenodd" clip-rule="evenodd" d="M12.7584 2.00011C12.82 1.59051 13.202 1.3084 13.6116 1.37002C18.7844 2.14812 22.75 6.61023 22.75 11.9999C22.75 17.937 17.9371 22.7499 12 22.7499C6.61035 22.7499 2.14825 18.7843 1.37014 13.6115C1.30853 13.2019 1.59063 12.8199 2.00023 12.7583C2.40984 12.6967 2.79184 12.9788 2.85345 13.3884C3.5228 17.8381 7.36366 21.2499 12 21.2499C17.1087 21.2499 21.25 17.1086 21.25 11.9999C21.25 7.36354 17.8382 3.52268 13.3885 2.85333C12.9789 2.79172 12.6968 2.40972 12.7584 2.00011ZM5.99217 2.24998C6.40638 2.24998 6.74217 2.58577 6.74217 2.99998V5.24998H8.99217C9.40638 5.24998 9.74217 5.58577 9.74217 5.99998C9.74217 6.41419 9.40638 6.74998 8.99217 6.74998H6.74217V8.99998C6.74217 9.41419 6.40638 9.74998 5.99217 9.74998C5.57795 9.74998 5.24217 9.41419 5.24217 8.99998V6.74998H2.99217C2.57795 6.74998 2.24217 6.41419 2.24217 5.99998C2.24217 5.58577 2.57795 5.24998 2.99217 5.24998H5.24217V2.99998C5.24217 2.58577 5.57795 2.24998 5.99217 2.24998ZM16.436 7.89115C16.7723 7.64926 17.2409 7.72576 17.4828 8.062C17.613 8.24294 17.7344 8.43062 17.8466 8.62444C18.054 8.98298 17.9314 9.44178 17.5729 9.64918C17.2144 9.85659 16.7556 9.73407 16.5482 9.37552C16.461 9.22481 16.3665 9.0788 16.2652 8.93796C16.0233 8.60171 16.0998 8.13304 16.436 7.89115ZM17.9979 12.7737C18.399 12.8769 18.6405 13.2858 18.5373 13.6869C17.9265 16.06 16.06 17.9265 13.6869 18.5373C13.2858 18.6405 12.8769 18.399 12.7737 17.9979C12.6704 17.5968 12.9119 17.1879 13.313 17.0846C15.1568 16.6101 16.6101 15.1568 17.0846 13.313C17.1879 12.9119 17.5968 12.6704 17.9979 12.7737Z" fill="black"/>
</g>
</g>
</g>
<defs>
<clipPath id="clip0_232_4460">
<rect width="24" height="24" rx="5" fill="white"/>
</clipPath>
</defs>
</svg>
