<svg width="24" height="24" viewBox="0 0 24 24" fill="none" xmlns="http://www.w3.org/2000/svg">
<g id="lens">
<g clip-path="url(#clip0_232_4450)">
<g id="Weight=Dynamic">
<path id="Vector (Stroke)" fill-rule="evenodd" clip-rule="evenodd" d="M12 2.75C6.89137 2.75 2.75 6.89137 2.75 12C2.75 17.1086 6.89137 21.25 12 21.25C17.1086 21.25 21.25 17.1086 21.25 12C21.25 6.89137 17.1086 2.75 12 2.75ZM1.25 12C1.25 6.06294 6.06294 1.25 12 1.25C17.9371 1.25 22.75 6.06294 22.75 12C22.75 17.9371 17.9371 22.75 12 22.75C6.06294 22.75 1.25 17.9371 1.25 12ZM16.436 7.89117C16.7723 7.64928 17.241 7.72577 17.4829 8.06202C17.613 8.24296 17.7345 8.43064 17.8466 8.62446C18.054 8.983 17.9315 9.4418 17.5729 9.6492C17.2144 9.85661 16.7556 9.73409 16.5482 9.37554C16.461 9.22483 16.3665 9.07882 16.2652 8.93798C16.0233 8.60173 16.0998 8.13306 16.436 7.89117ZM17.9979 12.7737C18.3991 12.8769 18.6405 13.2858 18.5373 13.6869C17.9265 16.06 16.06 17.9265 13.6869 18.5373C13.2858 18.6405 12.8769 18.3991 12.7737 17.9979C12.6704 17.5968 12.9119 17.1879 13.3131 17.0846C15.1568 16.6101 16.6101 15.1568 17.0846 13.3131C17.1879 12.9119 17.5968 12.6704 17.9979 12.7737Z" fill="black"/>
</g>
</g>
</g>
<defs>
<clipPath id="clip0_232_4450">
<rect width="24" height="24" rx="5" fill="white"/>
</clipPath>
</defs>
</svg>
