<svg width="24" height="24" viewBox="0 0 24 24" fill="none" xmlns="http://www.w3.org/2000/svg">
<g id="lifebelt">
<g clip-path="url(#clip0_232_11808)">
<g id="Weight=Dynamic">
<path id="Vector (Stroke)" fill-rule="evenodd" clip-rule="evenodd" d="M4.95693 6.00325C3.58069 7.61805 2.75 9.71202 2.75 12C2.75 14.288 3.5807 16.382 4.95696 17.9968L8.19979 14.8502C7.6034 14.0563 7.25 13.0694 7.25 12C7.25 10.9306 7.60339 9.94376 8.19976 9.14985L4.95693 6.00325ZM6.0189 4.94362L9.27847 8.10646C10.0492 7.56671 10.9876 7.25 12 7.25C13.0123 7.25 13.9507 7.56667 14.7214 8.10636L17.981 4.94351C16.3683 3.57529 14.2805 2.75 12 2.75C9.7194 2.75 7.63157 3.57534 6.0189 4.94362ZM19.043 6.00312L15.8001 9.14971C16.3966 9.94364 16.75 10.9305 16.75 12C16.75 13.0695 16.3966 14.0564 15.8001 14.8503L19.0429 17.9969C20.4193 16.3821 21.25 14.2881 21.25 12C21.25 9.71195 20.4193 7.61794 19.043 6.00312ZM17.9809 19.0565L14.7214 15.8937C13.9506 16.4333 13.0123 16.75 12 16.75C10.9876 16.75 10.0492 16.4333 9.2785 15.8936L6.01893 19.0564C7.6316 20.4247 9.71941 21.25 12 21.25C14.2805 21.25 16.3683 20.4247 17.9809 19.0565ZM14.2561 14.3394C14.2496 14.3453 14.2433 14.3514 14.237 14.3576C13.6544 14.9107 12.8668 15.25 12 15.25C10.2051 15.25 8.75 13.7949 8.75 12C8.75 11.0779 9.13402 10.2455 9.75085 9.65397C9.75248 9.65242 9.75411 9.65086 9.75574 9.64929C10.3391 9.09215 11.1296 8.75 12 8.75C12.8662 8.75 13.6532 9.08885 14.2358 9.64123C14.2429 9.64828 14.2501 9.65516 14.2574 9.66187C14.8694 10.2529 15.25 11.082 15.25 12C15.25 12.9187 14.8689 13.7483 14.2561 14.3394ZM1.25 12C1.25 6.06294 6.06294 1.25 12 1.25C17.9371 1.25 22.75 6.06294 22.75 12C22.75 17.9371 17.9371 22.75 12 22.75C6.06294 22.75 1.25 17.9371 1.25 12Z" fill="black"/>
</g>
</g>
</g>
<defs>
<clipPath id="clip0_232_11808">
<rect width="24" height="24" rx="5" fill="white"/>
</clipPath>
</defs>
</svg>
