<svg width="24" height="24" viewBox="0 0 24 24" fill="none" xmlns="http://www.w3.org/2000/svg">
<g id="light-bulb-off">
<g clip-path="url(#clip0_232_8980)">
<g id="Weight=Dynamic">
<path id="Vector (Stroke)" fill-rule="evenodd" clip-rule="evenodd" d="M2.46967 2.46967C2.76256 2.17678 3.23744 2.17678 3.53033 2.46967L21.5303 20.4697C21.8232 20.7626 21.8232 21.2374 21.5303 21.5303C21.2374 21.8232 20.7626 21.8232 20.4697 21.5303L6.74966 7.81032C6.74878 7.86894 6.74881 7.92824 6.74975 7.9882C6.76988 9.26733 7.15835 10.098 8.03014 10.9696C8.04427 10.9838 8.05839 10.9979 8.0725 11.012C8.53891 11.478 8.99075 11.9295 9.29578 12.5396C9.61911 13.1862 9.74993 13.9429 9.74985 15.0001C9.74982 15.4143 9.414 15.75 8.99979 15.75C8.58558 15.75 8.24982 15.4142 8.24985 14.9999C8.24992 14.0571 8.13081 13.5638 7.95414 13.2104C7.7684 12.8389 7.48841 12.5491 6.96956 12.0304C5.84104 10.902 5.2766 9.70644 5.24994 8.0118C5.24146 7.47309 5.29167 6.95537 5.40421 6.46487L2.46967 3.53033C2.17678 3.23744 2.17678 2.76256 2.46967 2.46967ZM12 3.75C10.9013 3.75 9.99246 3.90663 9.26287 4.17967C8.87494 4.32485 8.44276 4.12806 8.29758 3.74012C8.1524 3.35218 8.34919 2.92 8.73713 2.77482C9.67017 2.42564 10.7638 2.25 12 2.25C14.1117 2.25 15.8219 2.7642 17.0083 3.78874C18.2117 4.82802 18.7767 6.30678 18.7499 8.0118C18.7232 9.70654 18.1584 10.9021 17.0304 12.0303C16.7375 12.3232 16.2626 12.3232 15.9697 12.0304C15.6768 11.7375 15.6768 11.2626 15.9696 10.9697C16.8413 10.0979 17.23 9.26723 17.2501 7.9882C17.2712 6.6435 16.8364 5.62227 16.0278 4.92398C15.2022 4.21094 13.8885 3.75 12 3.75ZM8.25 18C8.25 17.5858 8.58579 17.25 9 17.25H15C15.4142 17.25 15.75 17.5858 15.75 18C15.75 18.4142 15.4142 18.75 15 18.75H9C8.58579 18.75 8.25 18.4142 8.25 18ZM10 21.75C9.58579 21.75 9.25 21.4142 9.25 21C9.25 20.5858 9.58579 20.25 10 20.25H14C14.4142 20.25 14.75 20.5858 14.75 21C14.75 21.4142 14.4142 21.75 14 21.75H10Z" fill="black"/>
</g>
</g>
</g>
<defs>
<clipPath id="clip0_232_8980">
<rect width="24" height="24" rx="5" fill="white"/>
</clipPath>
</defs>
</svg>
