<svg width="24" height="24" viewBox="0 0 24 24" fill="none" xmlns="http://www.w3.org/2000/svg">
<g id="light-bulb">
<g clip-path="url(#clip0_232_8970)">
<g id="Weight=Dynamic">
<path id="Vector (Stroke)" fill-rule="evenodd" clip-rule="evenodd" d="M7.972 4.92398C7.16344 5.62227 6.72859 6.6435 6.74975 7.9882C6.76988 9.26733 7.15834 10.098 8.03013 10.9696C8.04426 10.9838 8.05839 10.9979 8.07249 11.012C8.5389 11.478 8.99075 11.9295 9.29578 12.5396C9.6191 13.1862 9.74992 13.9429 9.74984 15.0001C9.74981 15.4143 9.414 15.75 8.99979 15.75C8.58557 15.75 8.24981 15.4142 8.24984 14.9999C8.24991 14.0571 8.13081 13.5638 7.95414 13.2104C7.76839 12.8389 7.48841 12.5491 6.96955 12.0304C5.84104 10.902 5.2766 9.70644 5.24993 8.0118C5.22311 6.30678 5.78818 4.82802 6.99158 3.78874C8.1779 2.7642 9.88819 2.25 11.9998 2.25C14.1115 2.25 15.8218 2.7642 17.0081 3.78874C18.2115 4.82802 18.7766 6.30678 18.7497 8.0118C18.7231 9.70654 18.1583 10.9021 17.0302 12.0303C16.5116 12.549 16.2316 12.8388 16.0458 13.2104C15.8691 13.5638 15.7499 14.0573 15.7498 15.0001C15.7498 15.4143 15.414 15.75 14.9998 15.75C14.5856 15.75 14.2498 15.4142 14.2498 14.9999C14.2499 13.9428 14.3809 13.1862 14.7042 12.5396C15.0092 11.9296 15.4609 11.4781 15.9271 11.0121C15.9412 10.998 15.9553 10.9839 15.9695 10.9697C16.8411 10.0979 17.2298 9.26723 17.2499 7.9882C17.2711 6.6435 16.8362 5.62227 16.0277 4.92398C15.202 4.21094 13.8883 3.75 11.9998 3.75C10.1113 3.75 8.79764 4.21094 7.972 4.92398ZM8.24999 18C8.24999 17.5858 8.58578 17.25 8.99999 17.25H15C15.4142 17.25 15.75 17.5858 15.75 18C15.75 18.4142 15.4142 18.75 15 18.75H8.99999C8.58578 18.75 8.24999 18.4142 8.24999 18ZM9.24999 21C9.24999 20.5858 9.58578 20.25 9.99999 20.25H14C14.4142 20.25 14.75 20.5858 14.75 21C14.75 21.4142 14.4142 21.75 14 21.75H9.99999C9.58578 21.75 9.24999 21.4142 9.24999 21Z" fill="black"/>
</g>
</g>
</g>
<defs>
<clipPath id="clip0_232_8970">
<rect width="24" height="24" rx="5" fill="white"/>
</clipPath>
</defs>
</svg>
