<svg width="24" height="24" viewBox="0 0 24 24" fill="none" xmlns="http://www.w3.org/2000/svg">
<g id="light-bulb-on">
<g clip-path="url(#clip0_232_8952)">
<g id="Weight=Dynamic">
<path id="Vector (Stroke)" fill-rule="evenodd" clip-rule="evenodd" d="M2.46967 1.46967C2.76256 1.17678 3.23744 1.17678 3.53033 1.46967L4.53033 2.46967C4.82322 2.76256 4.82322 3.23744 4.53033 3.53033C4.23744 3.82322 3.76256 3.82322 3.46967 3.53033L2.46967 2.53033C2.17678 2.23744 2.17678 1.76256 2.46967 1.46967ZM21.5303 1.46967C21.8232 1.76256 21.8232 2.23744 21.5303 2.53033L20.5303 3.53033C20.2374 3.82322 19.7626 3.82322 19.4697 3.53033C19.1768 3.23744 19.1768 2.76256 19.4697 2.46967L20.4697 1.46967C20.7626 1.17678 21.2374 1.17678 21.5303 1.46967ZM7.97201 4.92398C7.16344 5.62227 6.7286 6.6435 6.74975 7.9882C6.76988 9.26733 7.15835 10.098 8.03014 10.9696C8.04427 10.9838 8.05839 10.9979 8.0725 11.012C8.53891 11.478 8.99075 11.9295 9.29578 12.5396C9.53704 13.0221 9.67111 13.5658 9.7236 14.25H14.2762C14.3288 13.5658 14.4629 13.0221 14.7042 12.5396C15.0092 11.9296 15.4609 11.4781 15.9271 11.0121C15.9412 10.998 15.9553 10.9839 15.9695 10.9697C16.8411 10.0979 17.2298 9.26723 17.2499 7.9882C17.2711 6.6435 16.8362 5.62227 16.0277 4.92398C15.2021 4.21094 13.8883 3.75 11.9998 3.75C10.1113 3.75 8.79764 4.21094 7.97201 4.92398ZM6.99159 3.78874C8.17791 2.7642 9.88819 2.25 11.9998 2.25C14.1115 2.25 15.8218 2.7642 17.0081 3.78874C18.2115 4.82802 18.7766 6.30678 18.7498 8.0118C18.7231 9.70654 18.1583 10.9021 17.0302 12.0303C16.5116 12.549 16.2316 12.8388 16.0458 13.2104C15.8691 13.5638 15.7499 14.0573 15.7498 15.0001C15.7498 15.4142 15.414 15.75 14.9998 15.75H8.99985C8.80093 15.75 8.61015 15.671 8.4695 15.5303C8.32884 15.3896 8.24983 15.1989 8.24985 14.9999C8.24992 14.0571 8.13081 13.5638 7.95414 13.2104C7.7684 12.8389 7.48841 12.5491 6.96956 12.0304C5.84104 10.902 5.2766 9.70644 5.24994 8.0118C5.22311 6.30678 5.78819 4.82802 6.99159 3.78874ZM4.53033 14.4697C4.82322 14.7626 4.82322 15.2374 4.53033 15.5303L3.53033 16.5303C3.23744 16.8232 2.76256 16.8232 2.46967 16.5303C2.17678 16.2374 2.17678 15.7626 2.46967 15.4697L3.46967 14.4697C3.76256 14.1768 4.23744 14.1768 4.53033 14.4697ZM19.4697 14.4697C19.7626 14.1768 20.2374 14.1768 20.5303 14.4697L21.5303 15.4697C21.8232 15.7626 21.8232 16.2374 21.5303 16.5303C21.2374 16.8232 20.7626 16.8232 20.4697 16.5303L19.4697 15.5303C19.1768 15.2374 19.1768 14.7626 19.4697 14.4697ZM8.25 18C8.25 17.5858 8.58579 17.25 9 17.25H15C15.4142 17.25 15.75 17.5858 15.75 18C15.75 18.4142 15.4142 18.75 15 18.75H9C8.58579 18.75 8.25 18.4142 8.25 18ZM9.25 21C9.25 20.5858 9.58579 20.25 10 20.25H14C14.4142 20.25 14.75 20.5858 14.75 21C14.75 21.4142 14.4142 21.75 14 21.75H10C9.58579 21.75 9.25 21.4142 9.25 21Z" fill="black"/>
</g>
</g>
</g>
<defs>
<clipPath id="clip0_232_8952">
<rect width="24" height="24" rx="5" fill="white"/>
</clipPath>
</defs>
</svg>
