<svg width="24" height="24" viewBox="0 0 24 24" fill="none" xmlns="http://www.w3.org/2000/svg">
<g id="line-space">
<g clip-path="url(#clip0_232_1563)">
<g id="Weight=Dynamic">
<path id="Vector (Stroke)" fill-rule="evenodd" clip-rule="evenodd" d="M4.4697 4.46967C4.76259 4.17678 5.23746 4.17678 5.53036 4.46967L7.53036 6.46967C7.82325 6.76256 7.82325 7.23744 7.53036 7.53033C7.23746 7.82322 6.76259 7.82322 6.4697 7.53033L5.75003 6.81066V16.8619L6.41438 16.0315C6.67313 15.708 7.1451 15.6556 7.46855 15.9143C7.792 16.1731 7.84444 16.6451 7.58568 16.9685L5.58568 19.4685C5.44335 19.6464 5.22787 19.75 5.00003 19.75C4.77219 19.75 4.55671 19.6464 4.41438 19.4685L2.41438 16.9685C2.15562 16.6451 2.20806 16.1731 2.53151 15.9143C2.85495 15.6556 3.32692 15.708 3.58568 16.0315L4.25003 16.8619V6.81066L3.53036 7.53033C3.23746 7.82322 2.76259 7.82322 2.4697 7.53033C2.1768 7.23744 2.1768 6.76256 2.4697 6.46967L4.4697 4.46967ZM10.25 6C10.25 5.58579 10.5858 5.25 11 5.25H21C21.4142 5.25 21.75 5.58579 21.75 6C21.75 6.41421 21.4142 6.75 21 6.75H11C10.5858 6.75 10.25 6.41421 10.25 6ZM10.25 12C10.25 11.5858 10.5858 11.25 11 11.25H21C21.4142 11.25 21.75 11.5858 21.75 12C21.75 12.4142 21.4142 12.75 21 12.75H11C10.5858 12.75 10.25 12.4142 10.25 12ZM10.25 18C10.25 17.5858 10.5858 17.25 11 17.25H21C21.4142 17.25 21.75 17.5858 21.75 18C21.75 18.4142 21.4142 18.75 21 18.75H11C10.5858 18.75 10.25 18.4142 10.25 18Z" fill="black"/>
</g>
</g>
</g>
<defs>
<clipPath id="clip0_232_1563">
<rect width="24" height="24" rx="5" fill="white"/>
</clipPath>
</defs>
</svg>
