<svg width="24" height="24" viewBox="0 0 24 24" fill="none" xmlns="http://www.w3.org/2000/svg">
<g id="link-xmark">
<g clip-path="url(#clip0_232_12162)">
<g id="Weight=Dynamic">
<path id="Vector (Stroke)" fill-rule="evenodd" clip-rule="evenodd" d="M8.85715 7.75L7.14286 7.75001C4.69635 7.75001 2.75 9.67184 2.75 11.9976C2.75 14.0025 4.19348 15.705 6.1615 16.139C6.47631 16.2084 6.80467 16.2452 7.14286 16.2452C7.55707 16.2452 7.89286 16.581 7.89286 16.9952C7.89286 17.4095 7.55707 17.7452 7.14286 17.7452C6.69546 17.7452 6.25881 17.6965 5.8385 17.6038C3.22597 17.0277 1.25 14.7495 1.25 11.9976C1.25 8.8032 3.90872 6.25001 7.14285 6.25001L8.85714 6.25C12.1014 6.25 14.75 9.09582 14.75 11.9976C14.75 12.4118 14.4142 12.7476 14 12.7476C13.5858 12.7476 13.25 12.4118 13.25 11.9976C13.25 9.91598 11.2647 7.75 8.85715 7.75ZM16.1071 7.00008C16.1071 6.58587 16.4429 6.25008 16.8571 6.25008C17.3045 6.25008 17.7412 6.29883 18.1615 6.39151L18 7.12392L18.1615 6.39151C20.774 6.96759 22.75 9.24578 22.75 11.9977C22.75 13.6636 22.0228 15.1608 20.8704 16.2065C20.5636 16.4849 20.0893 16.4619 19.811 16.1551C19.5326 15.8484 19.5556 15.3741 19.8624 15.0957C20.7203 14.3171 21.25 13.2157 21.25 11.9977C21.25 9.9928 19.8065 8.29028 17.8385 7.85632C17.5237 7.78691 17.1953 7.75008 16.8571 7.75008C16.4429 7.75008 16.1071 7.41429 16.1071 7.00008ZM9.99972 11.2475C10.4139 11.2475 10.7497 11.5833 10.7497 11.9975C10.7497 14.0791 12.735 16.2451 15.1426 16.2451C15.5568 16.2451 15.8926 16.5809 15.8926 16.9951C15.8926 17.4093 15.5568 17.7451 15.1426 17.7451C11.8983 17.7451 9.24972 14.8993 9.24972 11.9975C9.24972 11.5833 9.58551 11.2475 9.99972 11.2475ZM17.4697 18.5303C17.1768 18.2374 17.1768 17.7626 17.4697 17.4697C17.7626 17.1768 18.2374 17.1768 18.5303 17.4697L20.1213 19.0607L21.7123 17.4697C22.0052 17.1768 22.4801 17.1768 22.773 17.4697C23.0659 17.7626 23.0659 18.2374 22.773 18.5303L21.182 20.1213L22.773 21.7123C23.0659 22.0052 23.0659 22.4801 22.773 22.773C22.4801 23.0659 22.0052 23.0659 21.7123 22.773L20.1213 21.182L18.5303 22.773C18.2374 23.0659 17.7626 23.0659 17.4697 22.773C17.1768 22.4801 17.1768 22.0052 17.4697 21.7123L19.0607 20.1213L17.4697 18.5303Z" fill="black"/>
</g>
</g>
</g>
<defs>
<clipPath id="clip0_232_12162">
<rect width="24" height="24" rx="5" fill="white"/>
</clipPath>
</defs>
</svg>
