<svg width="24" height="24" viewBox="0 0 24 24" fill="none" xmlns="http://www.w3.org/2000/svg">
<g id="linkedin">
<g clip-path="url(#clip0_232_14155)">
<g id="Weight=Dynamic">
<path id="Vector (Stroke)" fill-rule="evenodd" clip-rule="evenodd" d="M2.25 8C2.25 4.82436 4.82436 2.25 8 2.25H16C19.1756 2.25 21.75 4.82436 21.75 8V16C21.75 19.1756 19.1756 21.75 16 21.75H8C4.82436 21.75 2.25 19.1756 2.25 16V8ZM8 3.75C5.65279 3.75 3.75 5.65279 3.75 8V16C3.75 18.3472 5.65279 20.25 8 20.25H16C18.3472 20.25 20.25 18.3472 20.25 16V8C20.25 5.65279 18.3472 3.75 16 3.75H8ZM7.51173 6.44142C7.81961 6.71852 7.84456 7.19273 7.56747 7.50062L7.55747 7.51173C7.28037 7.81961 6.80616 7.84456 6.49827 7.56747C6.19039 7.29037 6.16544 6.81616 6.44253 6.50827L6.45253 6.49716C6.72963 6.18928 7.20385 6.16432 7.51173 6.44142ZM7 9.25C7.41421 9.25 7.75 9.58579 7.75 10V17C7.75 17.4142 7.41421 17.75 7 17.75C6.58579 17.75 6.25 17.4142 6.25 17V10C6.25 9.58579 6.58579 9.25 7 9.25ZM11 9.25C11.4142 9.25 11.75 9.58579 11.75 10V10.8456C12.4177 10.3982 13.2204 10.1875 14 10.1875C14.8972 10.1875 15.8252 10.4666 16.5426 11.0645C17.2773 11.6767 17.75 12.5915 17.75 13.75V17C17.75 17.4142 17.4142 17.75 17 17.75C16.5858 17.75 16.25 17.4142 16.25 17V13.75C16.25 13.0335 15.9727 12.5421 15.5824 12.2168C15.1748 11.8772 14.6028 11.6875 14 11.6875C13.3972 11.6875 12.8252 11.8772 12.4176 12.2168C12.0273 12.5421 11.75 13.0335 11.75 13.75V17C11.75 17.4142 11.4142 17.75 11 17.75C10.5858 17.75 10.25 17.4142 10.25 17V10C10.25 9.58579 10.5858 9.25 11 9.25Z" fill="black"/>
</g>
</g>
</g>
<defs>
<clipPath id="clip0_232_14155">
<rect width="24" height="24" rx="5" fill="white"/>
</clipPath>
</defs>
</svg>
