<svg width="24" height="24" viewBox="0 0 24 24" fill="none" xmlns="http://www.w3.org/2000/svg">
<g id="link">
<g clip-path="url(#clip0_232_12120)">
<g id="Weight=Dynamic">
<path id="Vector (Stroke)" fill-rule="evenodd" clip-rule="evenodd" d="M16.1071 6.99976C16.1071 6.58554 16.4429 6.24976 16.8571 6.24976C17.3045 6.24976 17.7412 6.29851 18.1615 6.39119L18 7.1236L18.1615 6.39119C20.774 6.96726 22.75 9.24546 22.75 11.9974C22.75 15.1918 20.0913 17.745 16.8571 17.745L15.1429 17.745C11.8986 17.745 9.25 14.8992 9.25 11.9974C9.25 11.5832 9.58579 11.2474 10 11.2474C10.4142 11.2474 10.75 11.5832 10.75 11.9974C10.75 14.079 12.7353 16.245 15.1429 16.245L16.8571 16.245C19.3036 16.245 21.25 14.3232 21.25 11.9974C21.25 9.99248 19.8065 8.28996 17.8385 7.856C17.5237 7.78659 17.1953 7.74976 16.8571 7.74976C16.4429 7.74976 16.1071 7.41397 16.1071 6.99976ZM8.85715 7.74989L7.14286 7.74989C4.69635 7.74989 2.75 9.67173 2.75 11.9975C2.75 14.0024 4.19348 15.7049 6.1615 16.1389C6.47631 16.2083 6.80467 16.2451 7.14286 16.2451C7.55707 16.2451 7.89286 16.5809 7.89286 16.9951C7.89286 17.4094 7.55707 17.7451 7.14286 17.7451C6.69546 17.7451 6.25881 17.6964 5.8385 17.6037C3.22597 17.0276 1.25 14.7494 1.25 11.9975C1.25 8.80308 3.90872 6.24989 7.14285 6.24989L8.85714 6.24989C12.1014 6.24989 14.75 9.09571 14.75 11.9975C14.75 12.4117 14.4142 12.7475 14 12.7475C13.5858 12.7475 13.25 12.4117 13.25 11.9975C13.25 9.91587 11.2647 7.74989 8.85715 7.74989Z" fill="black"/>
</g>
</g>
</g>
<defs>
<clipPath id="clip0_232_12120">
<rect width="24" height="24" rx="5" fill="white"/>
</clipPath>
</defs>
</svg>
