<svg width="24" height="24" viewBox="0 0 24 24" fill="none" xmlns="http://www.w3.org/2000/svg">
<g id="link-slash">
<g clip-path="url(#clip0_232_12150)">
<g id="Weight=Dynamic">
<path id="Vector (Stroke)" fill-rule="evenodd" clip-rule="evenodd" d="M2.46967 2.46967C2.76256 2.17678 3.23744 2.17678 3.53033 2.46967L17.2859 16.2252C19.5274 16.0161 21.25 14.1858 21.25 11.9975C21.25 9.99259 19.8065 8.29007 17.8385 7.85611C17.5237 7.7867 17.1953 7.74987 16.8571 7.74987C16.4429 7.74987 16.1071 7.41408 16.1071 6.99987C16.1071 6.58565 16.4429 6.24987 16.8571 6.24987C17.3045 6.24987 17.7412 6.29862 18.1615 6.3913C20.774 6.96737 22.75 9.24557 22.75 11.9975C22.75 14.6075 20.9748 16.7897 18.5613 17.5006L21.5303 20.4697C21.8232 20.7626 21.8232 21.2374 21.5303 21.5303C21.2374 21.8232 20.7626 21.8232 20.4697 21.5303L16.6845 17.7451L15.1429 17.7451C11.8986 17.7451 9.25 14.8993 9.25 11.9975H10C9.25 11.9975 9.25 11.9977 9.25 11.9975L9.25 11.9958L9.25001 11.9938L9.25004 11.9886L9.25022 11.9738C9.25042 11.9621 9.25077 11.9466 9.25142 11.9277C9.25273 11.8901 9.25523 11.8385 9.26003 11.7762C9.26956 11.6525 9.28856 11.4812 9.32711 11.2889C9.36515 11.099 9.42892 10.8531 9.54212 10.6028L6.70971 7.77037C4.47037 7.98146 2.75 9.81083 2.75 11.9977C2.75 14.0026 4.19348 15.7051 6.1615 16.1391C6.47631 16.2085 6.80467 16.2453 7.14286 16.2453C7.55707 16.2453 7.89286 16.5811 7.89286 16.9953C7.89286 17.4095 7.55707 17.7453 7.14286 17.7453C6.69546 17.7453 6.25881 17.6966 5.8385 17.6039C3.22597 17.0278 1.25 14.7496 1.25 11.9977C1.25 9.389 3.02337 7.2077 5.43501 6.49567L2.46967 3.53033C2.17678 3.23744 2.17678 2.76256 2.46967 2.46967ZM10.75 12.0006C10.7515 14.0815 12.7362 16.2451 15.1429 16.2451H15.1845M10.3248 7.1725C10.5051 6.7996 10.9536 6.6435 11.3265 6.82383C12.4371 7.36091 13.3582 8.23132 13.9635 9.25178C14.1748 9.60804 14.0573 10.0681 13.701 10.2795C13.3448 10.4908 12.8847 10.3733 12.6734 10.017C12.2134 9.24162 11.5103 8.57889 10.6735 8.17421C10.3006 7.99388 10.1445 7.5454 10.3248 7.1725Z" fill="black"/>
</g>
</g>
</g>
<defs>
<clipPath id="clip0_232_12150">
<rect width="24" height="24" rx="5" fill="white"/>
</clipPath>
</defs>
</svg>
