<svg width="24" height="24" viewBox="0 0 24 24" fill="none" xmlns="http://www.w3.org/2000/svg">
<g id="linux">
<g clip-path="url(#clip0_232_14406)">
<g id="Weight=Dynamic">
<path id="Vector (Stroke)" fill-rule="evenodd" clip-rule="evenodd" d="M12 4.75C8.0075 4.75 5.25 7.9209 5.25 11V18C5.25 19.6621 3.86464 20.75 2.5 20.75C2.08579 20.75 1.75 20.4142 1.75 20C1.75 19.5858 2.08579 19.25 2.5 19.25C3.13536 19.25 3.75 18.7379 3.75 18V11C3.75 7.0791 7.1925 3.25 12 3.25C16.8075 3.25 20.25 7.0791 20.25 11V18C20.25 18.7379 20.8646 19.25 21.5 19.25C21.9142 19.25 22.25 19.5858 22.25 20C22.25 20.4142 21.9142 20.75 21.5 20.75C20.1354 20.75 18.75 19.6621 18.75 18V11C18.75 7.9209 15.9925 4.75 12 4.75ZM8.34253 10.4611C7.99092 10.9533 7.75 11.6718 7.75 12.5C7.75 13.1015 7.87704 13.6448 8.08109 14.0857C8.09705 14.0775 8.11304 14.0694 8.12906 14.0614C8.32434 13.9638 8.53186 13.874 8.75 13.7926V12C8.75 11.5858 9.08579 11.25 9.5 11.25C9.91421 11.25 10.25 11.5858 10.25 12V13.3955C10.5495 13.3441 10.8589 13.3058 11.1756 13.2814C11.2238 13.0347 11.25 12.7726 11.25 12.5C11.25 11.6718 11.0091 10.9533 10.6575 10.4611C10.3048 9.96736 9.88528 9.75 9.5 9.75C9.11472 9.75 8.69517 9.96736 8.34253 10.4611ZM12 9.77C11.9607 9.70831 11.9201 9.64801 11.8781 9.5892C11.3259 8.81614 10.4954 8.25 9.5 8.25C8.50457 8.25 7.67411 8.81614 7.12193 9.5892C6.56872 10.3637 6.25 11.3952 6.25 12.5C6.25 13.4172 6.46971 14.2842 6.86115 14.9956C6.49128 15.4121 6.25 15.9144 6.25 16.5C6.25 17.6275 7.14451 18.4463 8.12906 18.9386C9.15847 19.4533 10.5281 19.75 12 19.75C13.4719 19.75 14.8415 19.4533 15.8709 18.9386C16.8555 18.4463 17.75 17.6275 17.75 16.5C17.75 15.9144 17.5087 15.4121 17.1388 14.9956C17.5303 14.2842 17.75 13.4172 17.75 12.5C17.75 11.3952 17.4313 10.3637 16.8781 9.5892C16.3259 8.81614 15.4954 8.25 14.5 8.25C13.5046 8.25 12.6741 8.81614 12.1219 9.5892C12.0799 9.64801 12.0393 9.70831 12 9.77ZM15.9189 14.0857C16.123 13.6448 16.25 13.1015 16.25 12.5C16.25 11.6718 16.0091 10.9533 15.6575 10.4611C15.3048 9.96736 14.8853 9.75 14.5 9.75C14.1147 9.75 13.6952 9.96736 13.3425 10.4611C12.9909 10.9533 12.75 11.6718 12.75 12.5C12.75 12.7726 12.7762 13.0347 12.8244 13.2814C13.1411 13.3058 13.4505 13.3441 13.75 13.3955V12C13.75 11.5858 14.0858 11.25 14.5 11.25C14.9142 11.25 15.25 11.5858 15.25 12V13.7926C15.4681 13.874 15.6757 13.9638 15.8709 14.0614C15.887 14.0694 15.9029 14.0775 15.9189 14.0857ZM8.79988 15.4031C7.97478 15.8156 7.75 16.2468 7.75 16.5C7.75 16.7532 7.97478 17.1844 8.79988 17.5969C9.58011 17.9871 10.7105 18.25 12 18.25C13.2895 18.25 14.4199 17.9871 15.2001 17.5969C16.0252 17.1844 16.25 16.7532 16.25 16.5C16.25 16.2468 16.0252 15.8156 15.2001 15.4031C14.4199 15.0129 13.2895 14.75 12 14.75C10.7105 14.75 9.58011 15.0129 8.79988 15.4031Z" fill="black"/>
</g>
</g>
</g>
<defs>
<clipPath id="clip0_232_14406">
<rect width="24" height="24" rx="5" fill="white"/>
</clipPath>
</defs>
</svg>
