<svg width="24" height="24" viewBox="0 0 24 24" fill="none" xmlns="http://www.w3.org/2000/svg">
<g id="list-select">
<g clip-path="url(#clip0_232_6525)">
<g id="Weight=Dynamic">
<path id="Vector (Stroke)" fill-rule="evenodd" clip-rule="evenodd" d="M5.51172 5.44142C5.81961 5.71852 5.84456 6.19273 5.56747 6.50062L5.55747 6.51173C5.28038 6.81961 4.80616 6.84457 4.49828 6.56747C4.19039 6.29038 4.16544 5.81616 4.44253 5.50828L4.45253 5.49717C4.72962 5.18929 5.20384 5.16433 5.51172 5.44142ZM8.25 6C8.25 5.58579 8.58579 5.25 9 5.25L20 5.25C20.4142 5.25 20.75 5.58579 20.75 6C20.75 6.41422 20.4142 6.75 20 6.75L9 6.75C8.58579 6.75 8.25 6.41422 8.25 6ZM5.51172 11.4414C5.8196 11.7185 5.84457 12.1927 5.56747 12.5006L5.55747 12.5117C5.28038 12.8196 4.80616 12.8446 4.49828 12.5675C4.1904 12.2904 4.16543 11.8162 4.44253 11.5083L4.45253 11.4972C4.72962 11.1893 5.20384 11.1643 5.51172 11.4414ZM8.25 12C8.25 11.5858 8.58579 11.25 9 11.25L20 11.25C20.4142 11.25 20.75 11.5858 20.75 12C20.75 12.4142 20.4142 12.75 20 12.75L9 12.75C8.58579 12.75 8.25 12.4142 8.25 12ZM7.13012 16.0697C7.42302 16.3626 7.42302 16.8374 7.13012 17.1303L5.13013 19.1303C4.83724 19.4232 4.36236 19.4232 4.06947 19.1303L3.26947 18.3303C2.97658 18.0374 2.97658 17.5626 3.26947 17.2697C3.56237 16.9768 4.03724 16.9768 4.33013 17.2697L4.5998 17.5393L6.06946 16.0697C6.36236 15.7768 6.83723 15.7768 7.13012 16.0697ZM8.25 18C8.25 17.5858 8.58579 17.25 9 17.25L20 17.25C20.4142 17.25 20.75 17.5858 20.75 18C20.75 18.4142 20.4142 18.75 20 18.75L9 18.75C8.58579 18.75 8.25 18.4142 8.25 18Z" fill="black"/>
</g>
</g>
</g>
<defs>
<clipPath id="clip0_232_6525">
<rect width="24" height="24" rx="5" fill="white"/>
</clipPath>
</defs>
</svg>
