<svg width="24" height="24" viewBox="0 0 24 24" fill="none" xmlns="http://www.w3.org/2000/svg">
<g id="list">
<g clip-path="url(#clip0_232_6509)">
<g id="Weight=Dynamic">
<path id="Vector (Stroke)" fill-rule="evenodd" clip-rule="evenodd" d="M4.51173 5.44142C4.81961 5.71852 4.84457 6.19273 4.56748 6.50062L4.55748 6.51173C4.28038 6.81961 3.80616 6.84457 3.49828 6.56747C3.1904 6.29038 3.16544 5.81616 3.44254 5.50828L3.45254 5.49717C3.72963 5.18929 4.20385 5.16433 4.51173 5.44142ZM7.25001 6C7.25001 5.58579 7.58579 5.25 8.00001 5.25L20 5.25C20.4142 5.25 20.75 5.58579 20.75 6C20.75 6.41422 20.4142 6.75 20 6.75L8.00001 6.75C7.58579 6.75 7.25001 6.41422 7.25001 6ZM4.51173 11.4414C4.81961 11.7185 4.84457 12.1927 4.56748 12.5006L4.55748 12.5117C4.28039 12.8196 3.80617 12.8446 3.49829 12.5675C3.1904 12.2904 3.16544 11.8162 3.44253 11.5083L3.45253 11.4972C3.72962 11.1893 4.20384 11.1643 4.51173 11.4414ZM7.25001 12C7.25001 11.5858 7.58579 11.25 8.00001 11.25L20 11.25C20.4142 11.25 20.75 11.5858 20.75 12C20.75 12.4142 20.4142 12.75 20 12.75L8.00001 12.75C7.58579 12.75 7.25001 12.4142 7.25001 12ZM4.51173 17.4414C4.81961 17.7185 4.84457 18.1927 4.56748 18.5006L4.55748 18.5117C4.28039 18.8196 3.80617 18.8446 3.49829 18.5675C3.1904 18.2904 3.16544 17.8162 3.44253 17.5083L3.45253 17.4972C3.72962 17.1893 4.20384 17.1643 4.51173 17.4414ZM7.25001 18C7.25001 17.5858 7.58579 17.25 8.00001 17.25L20 17.25C20.4142 17.25 20.75 17.5858 20.75 18C20.75 18.4142 20.4142 18.75 20 18.75L8.00001 18.75C7.58579 18.75 7.25001 18.4142 7.25001 18Z" fill="black"/>
</g>
</g>
</g>
<defs>
<clipPath id="clip0_232_6509">
<rect width="24" height="24" rx="5" fill="white"/>
</clipPath>
</defs>
</svg>
