<svg width="24" height="24" viewBox="0 0 24 24" fill="none" xmlns="http://www.w3.org/2000/svg">
<g id="lock-square">
<g clip-path="url(#clip0_232_14752)">
<g id="Weight=Dynamic">
<path id="Vector (Stroke)" fill-rule="evenodd" clip-rule="evenodd" d="M5 3.75C4.30964 3.75 3.75 4.30964 3.75 5V19C3.75 19.6904 4.30964 20.25 5 20.25H19C19.6904 20.25 20.25 19.6904 20.25 19V5C20.25 4.30964 19.6904 3.75 19 3.75H5ZM2.25 5C2.25 3.48122 3.48122 2.25 5 2.25H19C20.5188 2.25 21.75 3.48122 21.75 5V19C21.75 20.5188 20.5188 21.75 19 21.75H5C3.48122 21.75 2.25 20.5188 2.25 19V5ZM9.27185 7.48068C9.81883 6.76845 10.7087 6.25 12 6.25C13.2913 6.25 14.1812 6.76845 14.7282 7.48068C15.2482 8.1578 15.4167 8.95309 15.4167 9.5V11.2501C16.1546 11.259 16.75 11.86 16.75 12.6V16.4C16.75 17.1456 16.1456 17.75 15.4 17.75H8.6C7.85441 17.75 7.25 17.1456 7.25 16.4V12.6C7.25 11.86 7.84543 11.259 8.58333 11.2501V9.5C8.58333 8.95309 8.75181 8.1578 9.27185 7.48068ZM10.0833 11.25H13.9167V9.5C13.9167 9.21358 13.8185 8.75887 13.5385 8.39432C13.2855 8.06488 12.842 7.75 12 7.75C11.158 7.75 10.7145 8.06488 10.4615 8.39432C10.1815 8.75887 10.0833 9.21358 10.0833 9.5V11.25ZM8.75 12.75V16.25H15.25V12.75H8.75Z" fill="black"/>
</g>
</g>
</g>
<defs>
<clipPath id="clip0_232_14752">
<rect width="24" height="24" rx="5" fill="white"/>
</clipPath>
</defs>
</svg>
