<svg width="24" height="24" viewBox="0 0 24 24" fill="none" xmlns="http://www.w3.org/2000/svg">
<g id="lock-slash">
<g clip-path="url(#clip0_232_12938)">
<g id="Weight=Dynamic">
<path id="Vector (Stroke)" fill-rule="evenodd" clip-rule="evenodd" d="M2.46967 2.46967C2.76256 2.17678 3.23744 2.17678 3.53033 2.46967L21.5303 20.4697C21.8232 20.7626 21.8232 21.2374 21.5303 21.5303C21.2374 21.8232 20.7626 21.8232 20.4697 21.5303L18.701 19.7617C18.5429 20.3316 18.0203 20.75 17.4 20.75H6.6C5.85442 20.75 5.25 20.1456 5.25 19.4V12.6C5.25 11.8544 5.85442 11.25 6.6 11.25H7.25V8.31066L2.46967 3.53033C2.17678 3.23744 2.17678 2.76256 2.46967 2.46967ZM8.75 9.81066V11.25H10.1893L8.75 9.81066ZM11.67 12.7307C11.6154 12.7433 11.5585 12.75 11.5 12.75H6.75V19.25H17.25V18.5C17.25 18.4415 17.2567 18.3846 17.2693 18.33L11.67 12.7307ZM9.80969 3.70715C10.4258 3.41519 11.1532 3.25 11.9995 3.25C13.844 3.25 15.0691 4.03532 15.8082 5.06177C16.5197 6.04998 16.7495 7.21332 16.7495 8V11.25H17.4C18.1456 11.25 18.75 11.8544 18.75 12.6V13C18.75 13.4142 18.4142 13.75 18 13.75C17.5858 13.75 17.25 13.4142 17.25 13V12.75H16.5995C15.8539 12.75 15.2495 12.1456 15.2495 11.4V8C15.2495 7.45335 15.0794 6.61668 14.5909 5.93823C14.1299 5.29802 13.3551 4.75 11.9995 4.75C11.3522 4.75 10.8474 4.87531 10.452 5.06266C10.0777 5.24004 9.63049 5.08039 9.45311 4.70608C9.27573 4.33177 9.43537 3.88453 9.80969 3.70715Z" fill="black"/>
</g>
</g>
</g>
<defs>
<clipPath id="clip0_232_12938">
<rect width="24" height="24" rx="5" fill="white"/>
</clipPath>
</defs>
</svg>
