<svg width="24" height="24" viewBox="0 0 24 24" fill="none" xmlns="http://www.w3.org/2000/svg">
<g id="loft-3d">
<g clip-path="url(#clip0_232_941)">
<g id="Weight=Dynamic">
<path id="Vector (Stroke)" fill-rule="evenodd" clip-rule="evenodd" d="M11.6591 3.3316C14.4184 1.82653 17.3087 0.250001 22 0.25C22.4142 0.25 22.75 0.585786 22.75 1C22.75 1.41421 22.4142 1.75 22 1.75C17.7016 1.75 15.0943 3.16649 12.3591 4.65838L12.3409 4.66831C9.58161 6.17338 6.69129 7.7499 2 7.7499C1.58579 7.7499 1.25 7.41412 1.25 6.9999C1.25 6.58569 1.58579 6.2499 2 6.2499C6.29839 6.2499 8.90569 4.83342 11.6409 3.34153L11.6591 3.3316ZM12 6.75C12.1989 6.75 12.3897 6.82902 12.5303 6.96967L15.0303 9.46967C15.3232 9.76256 15.3232 10.2374 15.0303 10.5303C14.7374 10.8232 14.2626 10.8232 13.9697 10.5303L12.75 9.31066V14.6893L13.9697 13.4697C14.2626 13.1768 14.7374 13.1768 15.0303 13.4697C15.3232 13.7626 15.3232 14.2374 15.0303 14.5303L12.5303 17.0303C12.2374 17.3232 11.7626 17.3232 11.4697 17.0303L8.96967 14.5303C8.67678 14.2374 8.67678 13.7626 8.96967 13.4697C9.26256 13.1768 9.73744 13.1768 10.0303 13.4697L11.25 14.6893V9.31066L10.0303 10.5303C9.73744 10.8232 9.26256 10.8232 8.96967 10.5303C8.67678 10.2374 8.67678 9.76256 8.96967 9.46967L11.4697 6.96967C11.6103 6.82902 11.8011 6.75 12 6.75ZM11.6591 19.3316C14.4184 17.8265 17.3087 16.25 22 16.25C22.4142 16.25 22.75 16.5858 22.75 17C22.75 17.4142 22.4142 17.75 22 17.75C17.7016 17.75 15.0943 19.1665 12.3591 20.6584L12.3409 20.6683C9.5816 22.1734 6.69129 23.7499 2 23.7499C1.58579 23.7499 1.25 23.4141 1.25 22.9999C1.25 22.5857 1.58579 22.2499 2 22.2499C6.29839 22.2499 8.90569 20.8334 11.6409 19.3415L11.6591 19.3316Z" fill="black"/>
</g>
</g>
</g>
<defs>
<clipPath id="clip0_232_941">
<rect width="24" height="24" rx="5" fill="white"/>
</clipPath>
</defs>
</svg>
