<svg width="24" height="24" viewBox="0 0 24 24" fill="none" xmlns="http://www.w3.org/2000/svg">
<g id="log-no-access">
<g clip-path="url(#clip0_232_14372)">
<g id="Weight=Dynamic">
<path id="Vector (Stroke)" fill-rule="evenodd" clip-rule="evenodd" d="M7 3.75C6.30964 3.75 5.75 4.30964 5.75 5V19C5.75 19.6904 6.30964 20.25 7 20.25H17C17.6904 20.25 18.25 19.6904 18.25 19V18C18.25 17.5858 18.5858 17.25 19 17.25C19.4142 17.25 19.75 17.5858 19.75 18V19C19.75 20.5188 18.5188 21.75 17 21.75H7C5.48122 21.75 4.25 20.5188 4.25 19V5C4.25 3.48122 5.48122 2.25 7 2.25H17C18.5188 2.25 19.75 3.48122 19.75 5V6C19.75 6.41421 19.4142 6.75 19 6.75C18.5858 6.75 18.25 6.41421 18.25 6V5C18.25 4.30964 17.6904 3.75 17 3.75H7ZM15 8.75C13.2051 8.75 11.75 10.2051 11.75 12C11.75 12.6145 11.9201 13.1885 12.2162 13.6784L16.7337 9.2504C16.2319 8.93316 15.6377 8.75 15 8.75ZM17.7838 10.3216L13.2663 14.7496C13.7681 15.0668 14.3623 15.25 15 15.25C16.7949 15.25 18.25 13.7949 18.25 12C18.25 11.3855 18.0799 10.8115 17.7838 10.3216ZM10.25 12C10.25 9.37665 12.3766 7.25 15 7.25C16.3286 7.25 17.5309 7.79646 18.3921 8.67497C19.2313 9.53098 19.75 10.7057 19.75 12C19.75 14.6234 17.6234 16.75 15 16.75C13.6714 16.75 12.4691 16.2035 11.6079 15.325C10.7687 14.469 10.25 13.2943 10.25 12Z" fill="black"/>
</g>
</g>
</g>
<defs>
<clipPath id="clip0_232_14372">
<rect width="24" height="24" rx="5" fill="white"/>
</clipPath>
</defs>
</svg>
