<svg width="24" height="24" viewBox="0 0 24 24" fill="none" xmlns="http://www.w3.org/2000/svg">
<g id="long-arrow-left-up">
<g clip-path="url(#clip0_232_11207)">
<g id="Weight=Dynamic">
<path id="Vector (Stroke)" fill-rule="evenodd" clip-rule="evenodd" d="M7.46967 6.46967C7.76256 6.17678 8.23744 6.17678 8.53033 6.46967L12.0303 9.96967C12.3232 10.2626 12.3232 10.7374 12.0303 11.0303C11.7374 11.3232 11.2626 11.3232 10.9697 11.0303L8.75 8.81066V13C8.75 14.7949 10.2051 16.25 12 16.25H19C19.4142 16.25 19.75 16.5858 19.75 17C19.75 17.4142 19.4142 17.75 19 17.75H12C9.37665 17.75 7.25 15.6234 7.25 13V8.81066L5.03033 11.0303C4.73744 11.3232 4.26256 11.3232 3.96967 11.0303C3.67678 10.7374 3.67678 10.2626 3.96967 9.96967L7.46967 6.46967Z" fill="black"/>
</g>
</g>
</g>
<defs>
<clipPath id="clip0_232_11207">
<rect width="24" height="24" rx="5" fill="white"/>
</clipPath>
</defs>
</svg>
