<svg width="24" height="24" viewBox="0 0 24 24" fill="none" xmlns="http://www.w3.org/2000/svg">
<g id="long-arrow-down-right">
<g clip-path="url(#clip0_232_11239)">
<g id="Weight=Dynamic">
<path id="Vector (Stroke)" fill-rule="evenodd" clip-rule="evenodd" d="M6.75 4C7.16421 4 7.5 4.33579 7.5 4.75V11.75C7.5 13.5449 8.95507 15 10.75 15H14.9393L12.7197 12.7803C12.4268 12.4874 12.4268 12.0126 12.7197 11.7197C13.0126 11.4268 13.4874 11.4268 13.7803 11.7197L17.2803 15.2197C17.5732 15.5126 17.5732 15.9874 17.2803 16.2803L13.7803 19.7803C13.4874 20.0732 13.0126 20.0732 12.7197 19.7803C12.4268 19.4874 12.4268 19.0126 12.7197 18.7197L14.9393 16.5H10.75C8.12665 16.5 6 14.3734 6 11.75V4.75C6 4.33579 6.33579 4 6.75 4Z" fill="black"/>
</g>
</g>
</g>
<defs>
<clipPath id="clip0_232_11239">
<rect width="24" height="24" rx="5" fill="white"/>
</clipPath>
</defs>
</svg>
