<svg width="24" height="24" viewBox="0 0 24 24" fill="none" xmlns="http://www.w3.org/2000/svg">
<g id="long-arrow-up-right">
<g clip-path="url(#clip0_232_11223)">
<g id="Weight=Dynamic">
<path id="Vector (Stroke)" fill-rule="evenodd" clip-rule="evenodd" d="M12.7197 4.21967C13.0126 3.92678 13.4874 3.92678 13.7803 4.21967L17.2803 7.71967C17.5732 8.01256 17.5732 8.48744 17.2803 8.78033L13.7803 12.2803C13.4874 12.5732 13.0126 12.5732 12.7197 12.2803C12.4268 11.9874 12.4268 11.5126 12.7197 11.2197L14.9393 9H10.75C8.95507 9 7.5 10.4551 7.5 12.25V19.25C7.5 19.6642 7.16421 20 6.75 20C6.33579 20 6 19.6642 6 19.25V12.25C6 9.62665 8.12665 7.5 10.75 7.5H14.9393L12.7197 5.28033C12.4268 4.98744 12.4268 4.51256 12.7197 4.21967Z" fill="black"/>
</g>
</g>
</g>
<defs>
<clipPath id="clip0_232_11223">
<rect width="24" height="24" rx="5" fill="white"/>
</clipPath>
</defs>
</svg>
