<svg width="24" height="24" viewBox="0 0 24 24" fill="none" xmlns="http://www.w3.org/2000/svg">
<g id="long-arrow-right-up">
<g clip-path="url(#clip0_232_11191)">
<g id="Weight=Dynamic">
<path id="Vector (Stroke)" fill-rule="evenodd" clip-rule="evenodd" d="M14.9697 6.46967C15.2626 6.17678 15.7374 6.17678 16.0303 6.46967L19.5303 9.96967C19.8232 10.2626 19.8232 10.7374 19.5303 11.0303C19.2374 11.3232 18.7626 11.3232 18.4697 11.0303L16.25 8.81066V13C16.25 15.6234 14.1234 17.75 11.5 17.75H4.5C4.08579 17.75 3.75 17.4142 3.75 17C3.75 16.5858 4.08579 16.25 4.5 16.25H11.5C13.2949 16.25 14.75 14.7949 14.75 13V8.81066L12.5303 11.0303C12.2374 11.3232 11.7626 11.3232 11.4697 11.0303C11.1768 10.7374 11.1768 10.2626 11.4697 9.96967L14.9697 6.46967Z" fill="black"/>
</g>
</g>
</g>
<defs>
<clipPath id="clip0_232_11191">
<rect width="24" height="24" rx="5" fill="white"/>
</clipPath>
</defs>
</svg>
