<svg width="24" height="24" viewBox="0 0 24 24" fill="none" xmlns="http://www.w3.org/2000/svg">
<g id="long-arrow-right-down">
<g clip-path="url(#clip0_232_11215)">
<g id="Weight=Dynamic">
<path id="Vector (Stroke)" fill-rule="evenodd" clip-rule="evenodd" d="M3.75 7C3.75 6.58579 4.08579 6.25 4.5 6.25H11.5C14.1234 6.25 16.25 8.37665 16.25 11V15.1893L18.4697 12.9697C18.7626 12.6768 19.2374 12.6768 19.5303 12.9697C19.8232 13.2626 19.8232 13.7374 19.5303 14.0303L16.0303 17.5303C15.7374 17.8232 15.2626 17.8232 14.9697 17.5303L11.4697 14.0303C11.1768 13.7374 11.1768 13.2626 11.4697 12.9697C11.7626 12.6768 12.2374 12.6768 12.5303 12.9697L14.75 15.1893V11C14.75 9.20507 13.2949 7.75 11.5 7.75H4.5C4.08579 7.75 3.75 7.41421 3.75 7Z" fill="black"/>
</g>
</g>
</g>
<defs>
<clipPath id="clip0_232_11215">
<rect width="24" height="24" rx="5" fill="white"/>
</clipPath>
</defs>
</svg>
