<svg width="24" height="24" viewBox="0 0 24 24" fill="none" xmlns="http://www.w3.org/2000/svg">
<g id="long-arrow-up-left">
<g clip-path="url(#clip0_232_11231)">
<g id="Weight=Dynamic">
<path id="Vector (Stroke)" fill-rule="evenodd" clip-rule="evenodd" d="M10.7803 4.21967C11.0732 4.51256 11.0732 4.98744 10.7803 5.28033L8.56066 7.5H12.75C15.3734 7.5 17.5 9.62665 17.5 12.25V19.25C17.5 19.6642 17.1642 20 16.75 20C16.3358 20 16 19.6642 16 19.25V12.25C16 10.4551 14.5449 9 12.75 9H8.56066L10.7803 11.2197C11.0732 11.5126 11.0732 11.9874 10.7803 12.2803C10.4874 12.5732 10.0126 12.5732 9.71967 12.2803L6.21967 8.78033C5.92678 8.48744 5.92678 8.01256 6.21967 7.71967L9.71967 4.21967C10.0126 3.92678 10.4874 3.92678 10.7803 4.21967Z" fill="black"/>
</g>
</g>
</g>
<defs>
<clipPath id="clip0_232_11231">
<rect width="24" height="24" rx="5" fill="white"/>
</clipPath>
</defs>
</svg>
