<svg width="24" height="24" viewBox="0 0 24 24" fill="none" xmlns="http://www.w3.org/2000/svg">
<g id="long-arrow-down-left">
<g clip-path="url(#clip0_232_11247)">
<g id="Weight=Dynamic">
<path id="Vector (Stroke)" fill-rule="evenodd" clip-rule="evenodd" d="M16.75 4C17.1642 4 17.5 4.33579 17.5 4.75V11.75C17.5 14.3734 15.3734 16.5 12.75 16.5H8.56066L10.7803 18.7197C11.0732 19.0126 11.0732 19.4874 10.7803 19.7803C10.4874 20.0732 10.0126 20.0732 9.71967 19.7803L6.21967 16.2803C5.92678 15.9874 5.92678 15.5126 6.21967 15.2197L9.71967 11.7197C10.0126 11.4268 10.4874 11.4268 10.7803 11.7197C11.0732 12.0126 11.0732 12.4874 10.7803 12.7803L8.56066 15H12.75C14.5449 15 16 13.5449 16 11.75V4.75C16 4.33579 16.3358 4 16.75 4Z" fill="black"/>
</g>
</g>
</g>
<defs>
<clipPath id="clip0_232_11247">
<rect width="24" height="24" rx="5" fill="white"/>
</clipPath>
</defs>
</svg>
