<svg width="24" height="24" viewBox="0 0 24 24" fill="none" xmlns="http://www.w3.org/2000/svg">
<g id="long-arrow-left-down">
<g clip-path="url(#clip0_232_11199)">
<g id="Weight=Dynamic">
<path id="Vector (Stroke)" fill-rule="evenodd" clip-rule="evenodd" d="M12 7.75C10.2051 7.75 8.75 9.20507 8.75 11V15.1893L10.9697 12.9697C11.2626 12.6768 11.7374 12.6768 12.0303 12.9697C12.3232 13.2626 12.3232 13.7374 12.0303 14.0303L8.53033 17.5303C8.23744 17.8232 7.76256 17.8232 7.46967 17.5303L3.96967 14.0303C3.67678 13.7374 3.67678 13.2626 3.96967 12.9697C4.26256 12.6768 4.73744 12.6768 5.03033 12.9697L7.25 15.1893V11C7.25 8.37665 9.37665 6.25 12 6.25H19C19.4142 6.25 19.75 6.58579 19.75 7C19.75 7.41421 19.4142 7.75 19 7.75H12Z" fill="black"/>
</g>
</g>
</g>
<defs>
<clipPath id="clip0_232_11199">
<rect width="24" height="24" rx="5" fill="white"/>
</clipPath>
</defs>
</svg>
