<svg width="24" height="24" viewBox="0 0 24 24" fill="none" xmlns="http://www.w3.org/2000/svg">
<g id="lot-of-cash">
<g clip-path="url(#clip0_232_7521)">
<g id="Weight=Dynamic">
<path id="Vector (Stroke)" fill-rule="evenodd" clip-rule="evenodd" d="M3 4.75C2.30964 4.75 1.75 5.30964 1.75 6V14C1.75 14.6904 2.30964 15.25 3 15.25H3.25V10C3.25 8.48122 4.48122 7.25 6 7.25H18.25V6C18.25 5.30964 17.6904 4.75 17 4.75H3ZM19.75 7.25V6C19.75 4.48122 18.5188 3.25 17 3.25H3C1.48122 3.25 0.25 4.48122 0.25 6V14C0.25 15.5188 1.48122 16.75 3 16.75H3.25V18C3.25 19.5188 4.48122 20.75 6 20.75H20C21.5188 20.75 22.75 19.5188 22.75 18V10C22.75 8.48122 21.5188 7.25 20 7.25H19.75ZM6 8.75C5.30964 8.75 4.75 9.30964 4.75 10V18C4.75 18.6904 5.30964 19.25 6 19.25H20C20.6904 19.25 21.25 18.6904 21.25 18V10C21.25 9.30964 20.6904 8.75 20 8.75H6ZM10.25 14C10.25 12.4812 11.4812 11.25 13 11.25C14.5188 11.25 15.75 12.4812 15.75 14C15.75 15.5188 14.5188 16.75 13 16.75C11.4812 16.75 10.25 15.5188 10.25 14ZM13 12.75C12.3096 12.75 11.75 13.3096 11.75 14C11.75 14.6904 12.3096 15.25 13 15.25C13.6904 15.25 14.25 14.6904 14.25 14C14.25 13.3096 13.6904 12.75 13 12.75ZM8.01173 13.4414C8.31961 13.7185 8.34456 14.1927 8.06747 14.5006L8.05747 14.5117C7.78037 14.8196 7.30616 14.8446 6.99827 14.5675C6.69039 14.2904 6.66544 13.8162 6.94253 13.5083L6.95253 13.4972C7.22963 13.1893 7.70385 13.1643 8.01173 13.4414ZM19.0117 13.4414C19.3196 13.7185 19.3446 14.1927 19.0675 14.5006L19.0575 14.5117C18.7804 14.8196 18.3062 14.8446 17.9983 14.5675C17.6904 14.2904 17.6654 13.8162 17.9425 13.5083L17.9525 13.4972C18.2296 13.1893 18.7038 13.1643 19.0117 13.4414Z" fill="black"/>
</g>
</g>
</g>
<defs>
<clipPath id="clip0_232_7521">
<rect width="24" height="24" rx="5" fill="white"/>
</clipPath>
</defs>
</svg>
