<svg width="24" height="24" viewBox="0 0 24 24" fill="none" xmlns="http://www.w3.org/2000/svg">
<g id="lullaby">
<g clip-path="url(#clip0_232_10264)">
<g id="Weight=Dynamic">
<path id="Vector (Stroke)" fill-rule="evenodd" clip-rule="evenodd" d="M9.02411 1.78977V3C9.02411 7.13921 10.0503 10.0955 11.9774 12.0226C13.9045 13.9497 16.8608 14.9759 21 14.9759H22.2102L21.6716 16.0597C19.9964 19.4307 16.5164 21.75 12.4934 21.75C6.83613 21.75 2.25 17.1639 2.25 11.5066C2.25 7.48357 4.5693 4.00362 7.94034 2.32836L9.02411 1.78977ZM19.75 3.75H21C21.4142 3.75 21.75 3.41421 21.75 3C21.75 2.58578 21.4142 2.25 21 2.25H19.6C18.8544 2.25 18.25 2.85441 18.25 3.6V7.37803C18.0154 7.29511 17.763 7.25 17.5 7.25C16.2574 7.25 15.25 8.25736 15.25 9.5C15.25 10.7426 16.2574 11.75 17.5 11.75C18.7426 11.75 19.75 10.7426 19.75 9.5V3.75ZM18.25 9.5C18.25 9.08578 17.9142 8.75 17.5 8.75C17.0858 8.75 16.75 9.08578 16.75 9.5C16.75 9.91421 17.0858 10.25 17.5 10.25C17.9142 10.25 18.25 9.91421 18.25 9.5ZM7.55715 4.28875C5.25722 5.86473 3.75 8.51017 3.75 11.5066C3.75 16.3354 7.66455 20.25 12.4934 20.25C15.4898 20.25 18.1353 18.7428 19.7112 16.4428C15.9583 16.2455 12.9936 15.1601 10.9168 13.0832C8.83989 11.0064 7.75451 8.04169 7.55715 4.28875Z" fill="black"/>
</g>
</g>
</g>
<defs>
<clipPath id="clip0_232_10264">
<rect width="24" height="24" rx="5" fill="white"/>
</clipPath>
</defs>
</svg>
