<svg width="24" height="24" viewBox="0 0 24 24" fill="none" xmlns="http://www.w3.org/2000/svg">
<g id="mac-dock">
<g clip-path="url(#clip0_232_15078)">
<g id="Weight=Dynamic">
<g id="Vector">
</g>
<path id="Vector (Stroke)" fill-rule="evenodd" clip-rule="evenodd" d="M1.25016 4C1.25016 3.0335 2.03367 2.25 3.00016 2.25H21.0002C21.9667 2.25 22.7502 3.0335 22.7502 4V17.4849C22.7504 17.4953 22.7504 17.5058 22.7502 17.5162V20C22.7502 20.9665 21.9667 21.75 21.0002 21.75H3.00016C2.03367 21.75 1.25016 20.9665 1.25016 20V17.5162C1.24994 17.5058 1.24995 17.4953 1.25016 17.4849V4ZM2.75016 17.9635L4.33557 17.1708C4.70606 16.9856 4.85623 16.5351 4.67098 16.1646C4.48574 15.7941 4.03524 15.6439 3.66475 15.8292L2.75016 16.2865V4C2.75016 3.86193 2.86209 3.75 3.00016 3.75H21.0002C21.1382 3.75 21.2502 3.86193 21.2502 4V16.2865L20.3356 15.8292C19.9651 15.6439 19.5146 15.7941 19.3293 16.1646C19.1441 16.5351 19.2943 16.9856 19.6648 17.1708L21.2502 17.9635V20C21.2502 20.1381 21.1382 20.25 21.0002 20.25H3.00016C2.86209 20.25 2.75016 20.1381 2.75016 20V17.9635ZM6.75016 16.5C6.75016 15.8096 7.30981 15.25 8.00016 15.25C8.69052 15.25 9.25016 15.8096 9.25016 16.5C9.25016 17.1904 8.69052 17.75 8.00016 17.75C7.30981 17.75 6.75016 17.1904 6.75016 16.5ZM8.00016 16.75C8.13824 16.75 8.25016 16.6381 8.25016 16.5C8.25016 16.3619 8.13824 16.25 8.00016 16.25C7.86209 16.25 7.75016 16.3619 7.75016 16.5C7.75016 16.6381 7.86209 16.75 8.00016 16.75ZM10.7502 16.5C10.7502 15.8096 11.3098 15.25 12.0002 15.25C12.6905 15.25 13.2502 15.8096 13.2502 16.5C13.2502 17.1904 12.6905 17.75 12.0002 17.75C11.3098 17.75 10.7502 17.1904 10.7502 16.5ZM12.0002 16.75C12.1382 16.75 12.2502 16.6381 12.2502 16.5C12.2502 16.3619 12.1382 16.25 12.0002 16.25C11.8621 16.25 11.7502 16.3619 11.7502 16.5C11.7502 16.6381 11.8621 16.75 12.0002 16.75ZM14.7502 16.5C14.7502 15.8096 15.3098 15.25 16.0002 15.25C16.6905 15.25 17.2502 15.8096 17.2502 16.5C17.2502 17.1904 16.6905 17.75 16.0002 17.75C15.3098 17.75 14.7502 17.1904 14.7502 16.5ZM16.0002 16.75C16.1382 16.75 16.2502 16.6381 16.2502 16.5C16.2502 16.3619 16.1382 16.25 16.0002 16.25C15.8621 16.25 15.7502 16.3619 15.7502 16.5C15.7502 16.6381 15.8621 16.75 16.0002 16.75Z" fill="black"/>
</g>
</g>
</g>
<defs>
<clipPath id="clip0_232_15078">
<rect width="24" height="24" rx="5" fill="white"/>
</clipPath>
</defs>
</svg>
