<svg width="24" height="24" viewBox="0 0 24 24" fill="none" xmlns="http://www.w3.org/2000/svg">
<g id="mac-option-key">
<g clip-path="url(#clip0_232_15119)">
<g id="Weight=Dynamic">
<path id="Vector (Stroke)" fill-rule="evenodd" clip-rule="evenodd" d="M5 3.75C4.30964 3.75 3.75 4.30964 3.75 5V19C3.75 19.6904 4.30964 20.25 5 20.25H19C19.6904 20.25 20.25 19.6904 20.25 19V5C20.25 4.30964 19.6904 3.75 19 3.75H5ZM2.25 5C2.25 3.48122 3.48122 2.25 5 2.25H19C20.5188 2.25 21.75 3.48122 21.75 5V19C21.75 20.5188 20.5188 21.75 19 21.75H5C3.48122 21.75 2.25 20.5188 2.25 19V5ZM6.25 10C6.25 9.58579 6.58579 9.25 7 9.25H10.3333C10.6361 9.25 10.9092 9.43205 11.0256 9.71154L12.5 13.25H17C17.4142 13.25 17.75 13.5858 17.75 14C17.75 14.4142 17.4142 14.75 17 14.75H12C11.6972 14.75 11.4241 14.5679 11.3077 14.2885L9.83333 10.75H7C6.58579 10.75 6.25 10.4142 6.25 10ZM13.25 10C13.25 9.58579 13.5858 9.25 14 9.25H17C17.4142 9.25 17.75 9.58579 17.75 10C17.75 10.4142 17.4142 10.75 17 10.75H14C13.5858 10.75 13.25 10.4142 13.25 10Z" fill="black"/>
</g>
</g>
</g>
<defs>
<clipPath id="clip0_232_15119">
<rect width="24" height="24" rx="5" fill="white"/>
</clipPath>
</defs>
</svg>
