<svg width="24" height="24" viewBox="0 0 24 24" fill="none" xmlns="http://www.w3.org/2000/svg">
<g id="mac-control-key">
<g clip-path="url(#clip0_232_14500)">
<g id="Weight=Dynamic">
<path id="Vector (Stroke)" fill-rule="evenodd" clip-rule="evenodd" d="M5 3.75C4.30964 3.75 3.75 4.30964 3.75 5V19C3.75 19.6904 4.30964 20.25 5 20.25H19C19.6904 20.25 20.25 19.6904 20.25 19V5C20.25 4.30964 19.6904 3.75 19 3.75H5ZM2.25 5C2.25 3.48122 3.48122 2.25 5 2.25H19C20.5188 2.25 21.75 3.48122 21.75 5V19C21.75 20.5188 20.5188 21.75 19 21.75H5C3.48122 21.75 2.25 20.5188 2.25 19V5ZM11.4697 9.46967C11.7626 9.17678 12.2374 9.17678 12.5303 9.46967L16.5303 13.4697C16.8232 13.7626 16.8232 14.2374 16.5303 14.5303C16.2374 14.8232 15.7626 14.8232 15.4697 14.5303L12 11.0607L8.53033 14.5303C8.23744 14.8232 7.76256 14.8232 7.46967 14.5303C7.17678 14.2374 7.17678 13.7626 7.46967 13.4697L11.4697 9.46967Z" fill="black"/>
</g>
</g>
</g>
<defs>
<clipPath id="clip0_232_14500">
<rect width="24" height="24" rx="5" fill="white"/>
</clipPath>
</defs>
</svg>
