<svg width="24" height="24" viewBox="0 0 24 24" fill="none" xmlns="http://www.w3.org/2000/svg">
<g id="mac-os-window">
<g clip-path="url(#clip0_232_15433)">
<g id="Weight=Dynamic">
<path id="Vector (Stroke)" fill-rule="evenodd" clip-rule="evenodd" d="M4.22222 4.75C3.42891 4.75 2.75 5.41751 2.75 6.28571V17.7143C2.75 18.5825 3.4289 19.25 4.22222 19.25H19.7778C20.5711 19.25 21.25 18.5825 21.25 17.7143V6.28571C21.25 5.4175 20.5711 4.75 19.7778 4.75H4.22222ZM1.25 6.28571C1.25 4.62919 2.56093 3.25 4.22222 3.25H19.7778C21.4391 3.25 22.75 4.6292 22.75 6.28571V17.7143C22.75 19.3708 21.4391 20.75 19.7778 20.75H4.22222C2.56094 20.75 1.25 19.3709 1.25 17.7143V6.28571ZM5.51175 6.44158C5.81962 6.71869 5.84456 7.1929 5.56745 7.50077L5.55745 7.51188C5.28034 7.81975 4.80612 7.84469 4.49825 7.56758C4.19038 7.29047 4.16544 6.81625 4.44255 6.50838L4.45255 6.49727C4.72966 6.1894 5.20388 6.16447 5.51175 6.44158ZM7.51175 6.44158C7.81962 6.71869 7.84456 7.1929 7.56745 7.50077L7.55745 7.51188C7.28034 7.81975 6.80612 7.84469 6.49825 7.56758C6.19038 7.29047 6.16544 6.81625 6.44255 6.50838L6.45255 6.49727C6.72966 6.1894 7.20388 6.16447 7.51175 6.44158ZM9.51175 6.44158C9.81962 6.71869 9.84456 7.1929 9.56745 7.50077L9.55745 7.51188C9.28034 7.81975 8.80612 7.84469 8.49825 7.56758C8.19038 7.29047 8.16544 6.81625 8.44255 6.50838L8.45255 6.49727C8.72966 6.1894 9.20388 6.16447 9.51175 6.44158Z" fill="black"/>
</g>
</g>
</g>
<defs>
<clipPath id="clip0_232_15433">
<rect width="24" height="24" rx="5" fill="white"/>
</clipPath>
</defs>
</svg>
