<svg width="24" height="24" viewBox="0 0 24 24" fill="none" xmlns="http://www.w3.org/2000/svg">
<g id="magic-wand">
<g clip-path="url(#clip0_232_4512)">
<g id="Weight=Dynamic">
<path id="Vector (Stroke)" fill-rule="evenodd" clip-rule="evenodd" d="M9.5 1.25C9.81383 1.25 10.0945 1.4454 10.2034 1.73972L11.029 3.97097L13.2603 4.79661C13.5546 4.90552 13.75 5.18617 13.75 5.5C13.75 5.81383 13.5546 6.09448 13.2603 6.20339L11.029 7.02903L10.2034 9.26028C10.0945 9.5546 9.81383 9.75 9.5 9.75C9.18617 9.75 8.90552 9.5546 8.79661 9.26028L7.97097 7.02903L5.73972 6.20339C5.4454 6.09448 5.25 5.81383 5.25 5.5C5.25 5.18617 5.4454 4.90552 5.73972 4.79661L7.97097 3.97097L8.79661 1.73972C8.90552 1.4454 9.18617 1.25 9.5 1.25ZM9.5 4.16116L9.25807 4.81496C9.18211 5.02025 9.02025 5.18211 8.81496 5.25807L8.16116 5.5L8.81496 5.74193C9.02025 5.81789 9.18211 5.97975 9.25807 6.18504L9.5 6.83884L9.74193 6.18504C9.81789 5.97975 9.97975 5.81789 10.185 5.74193L10.8388 5.5L10.185 5.25807C9.97975 5.18211 9.81789 5.02025 9.74193 4.81496L9.5 4.16116ZM18.5303 5.46967C18.8232 5.76256 18.8232 6.23744 18.5303 6.53033L16.0303 9.03033C15.7374 9.32322 15.2626 9.32322 14.9697 9.03033C14.6768 8.73744 14.6768 8.26256 14.9697 7.96967L17.4697 5.46967C17.7626 5.17678 18.2374 5.17678 18.5303 5.46967ZM19 9.25C19.3138 9.25 19.5945 9.4454 19.7034 9.73972L20.1239 10.8761L21.2603 11.2966C21.5546 11.4055 21.75 11.6862 21.75 12C21.75 12.3138 21.5546 12.5945 21.2603 12.7034L20.1239 13.1239L19.7034 14.2603C19.5945 14.5546 19.3138 14.75 19 14.75C18.6862 14.75 18.4055 14.5546 18.2966 14.2603L17.8761 13.1239L16.7397 12.7034C16.4454 12.5945 16.25 12.3138 16.25 12C16.25 11.6862 16.4454 11.4055 16.7397 11.2966L17.8761 10.8761L18.2966 9.73972C18.4055 9.4454 18.6862 9.25 19 9.25ZM19 11.9801C18.9935 11.9869 18.9869 11.9935 18.9801 12C18.9869 12.0065 18.9935 12.0131 19 12.0199C19.0065 12.0131 19.0131 12.0065 19.0199 12C19.0131 11.9935 19.0065 11.9869 19 11.9801ZM13.5303 10.4697C13.8232 10.7626 13.8232 11.2374 13.5303 11.5303L3.53033 21.5303C3.23744 21.8232 2.76256 21.8232 2.46967 21.5303C2.17678 21.2374 2.17678 20.7626 2.46967 20.4697L12.4697 10.4697C12.7626 10.1768 13.2374 10.1768 13.5303 10.4697Z" fill="black"/>
</g>
</g>
</g>
<defs>
<clipPath id="clip0_232_4512">
<rect width="24" height="24" rx="5" fill="white"/>
</clipPath>
</defs>
</svg>
