<svg width="24" height="24" viewBox="0 0 24 24" fill="none" xmlns="http://www.w3.org/2000/svg">
<g id="magnet-energy">
<g clip-path="url(#clip0_232_13708)">
<g id="Weight=Dynamic">
<path id="Vector (Stroke)" fill-rule="evenodd" clip-rule="evenodd" d="M12.0309 1.34438C12.393 1.54554 12.5234 2.00214 12.3223 2.36423L11.2746 4.25H14C14.2657 4.25 14.5116 4.39062 14.6464 4.61965C14.7812 4.84869 14.7847 5.13193 14.6556 5.36423L12.989 8.36423C12.7878 8.72632 12.3312 8.85678 11.9691 8.65562C11.607 8.45446 11.4766 7.99786 11.6777 7.63577L12.7254 5.75H10C9.73426 5.75 9.48836 5.60938 9.3536 5.38035C9.21883 5.15131 9.21533 4.86807 9.34438 4.63577L11.011 1.63577C11.2122 1.27368 11.6688 1.14322 12.0309 1.34438ZM4.25 9C4.25 8.58579 4.58579 8.25 5 8.25H8C8.41421 8.25 8.75 8.58579 8.75 9C8.75 9.41421 8.41421 9.75 8 9.75H5.75V12.25H9.17578V11.5C9.17578 11.0858 9.51157 10.75 9.92578 10.75C10.34 10.75 10.6758 11.0858 10.6758 11.5V12.6743C10.7233 12.7728 10.75 12.8833 10.75 13C10.75 13.1167 10.7233 13.2272 10.6758 13.3257V15.0606C10.6758 15.6709 11.2204 16.25 11.9999 16.25C12.7793 16.25 13.3239 15.6709 13.3239 15.0606V11.5C13.3239 11.0858 13.6597 10.75 14.0739 10.75C14.4881 10.75 14.8239 11.0858 14.8239 11.5V12.25H18.25V9.75H16C15.5858 9.75 15.25 9.41421 15.25 9C15.25 8.58579 15.5858 8.25 16 8.25H19C19.4142 8.25 19.75 8.58579 19.75 9V15.7407C19.75 19.6885 16.1991 22.75 12 22.75C7.80088 22.75 4.25 19.6885 4.25 15.7407V9ZM18.25 13.75H14.8239V15.0606C14.8239 16.5926 13.5113 17.75 11.9999 17.75C10.4884 17.75 9.17578 16.5926 9.17578 15.0606V13.75H5.75V15.7407C5.75 18.7067 8.46713 21.25 12 21.25C15.5329 21.25 18.25 18.7067 18.25 15.7407V13.75Z" fill="black"/>
</g>
</g>
</g>
<defs>
<clipPath id="clip0_232_13708">
<rect width="24" height="24" rx="5" fill="white"/>
</clipPath>
</defs>
</svg>
