<svg width="24" height="24" viewBox="0 0 24 24" fill="none" xmlns="http://www.w3.org/2000/svg">
<g id="magnet">
<g clip-path="url(#clip0_232_13726)">
<g id="Weight=Dynamic">
<path id="Vector (Stroke)" fill-rule="evenodd" clip-rule="evenodd" d="M3.25 4C3.25 3.58579 3.58579 3.25 4 3.25H9.62963C10.0438 3.25 10.3796 3.58579 10.3796 4V10.8182C10.3796 11.5516 11.0454 12.25 12 12.25C12.9546 12.25 13.6204 11.5516 13.6204 10.8182V4C13.6204 3.58579 13.9562 3.25 14.3704 3.25H20C20.4142 3.25 20.75 3.58579 20.75 4V12.2963C20.75 16.9916 16.8056 20.75 12 20.75C7.19444 20.75 3.25 16.9916 3.25 12.2963V4ZM4.75 4.75V7.25H8.87963V4.75H4.75ZM8.87963 8.75H4.75V12.2963C4.75 16.1103 7.96901 19.25 12 19.25C16.031 19.25 19.25 16.1103 19.25 12.2963V8.75H15.1204V10.8182C15.1204 12.4947 13.6636 13.75 12 13.75C10.3364 13.75 8.87963 12.4947 8.87963 10.8182V8.75ZM15.1204 7.25H19.25V4.75H15.1204V7.25Z" fill="black"/>
</g>
</g>
</g>
<defs>
<clipPath id="clip0_232_13726">
<rect width="24" height="24" rx="5" fill="white"/>
</clipPath>
</defs>
</svg>
