<svg width="24" height="24" viewBox="0 0 24 24" fill="none" xmlns="http://www.w3.org/2000/svg">
<g id="mail-open">
<g clip-path="url(#clip0_232_3259)">
<g id="Weight=Dynamic">
<path id="Vector (Stroke)" fill-rule="evenodd" clip-rule="evenodd" d="M10.5851 1.97417C11.456 1.45164 12.544 1.45164 13.4149 1.97417L21.4149 6.77417C22.2432 7.27116 22.75 8.1663 22.75 9.13228V19.9999C22.75 21.5187 21.5188 22.7499 20 22.7499H4C2.48122 22.7499 1.25 21.5187 1.25 19.9999V9.13228C1.25 8.1663 1.75682 7.27116 2.58514 6.77417L10.5851 1.97417ZM12.6431 3.26041C12.2473 3.0229 11.7527 3.0229 11.3569 3.26041L3.35688 8.06041C2.98037 8.28631 2.75 8.6932 2.75 9.13228V19.9999C2.75 20.6903 3.30964 21.2499 4 21.2499H20C20.6904 21.2499 21.25 20.6903 21.25 19.9999V9.13228C21.25 8.6932 21.0196 8.28631 20.6431 8.06041L12.6431 3.26041ZM6.38558 11.5698C6.62311 11.2305 7.09076 11.1479 7.4301 11.3855L12 14.5844L16.5699 11.3855C16.9092 11.1479 17.3769 11.2305 17.6144 11.5698C17.852 11.9091 17.7694 12.3768 17.4301 12.6143L12.4301 16.1143C12.1719 16.2951 11.8281 16.2951 11.5699 16.1143L6.5699 12.6143C6.23057 12.3768 6.14804 11.9091 6.38558 11.5698Z" fill="black"/>
</g>
</g>
</g>
<defs>
<clipPath id="clip0_232_3259">
<rect width="24" height="24" rx="5" fill="white"/>
</clipPath>
</defs>
</svg>
