<svg width="24" height="24" viewBox="0 0 24 24" fill="none" xmlns="http://www.w3.org/2000/svg">
<g id="mail-in">
<g clip-path="url(#clip0_232_2994)">
<g id="Weight=Dynamic">
<path id="Vector (Stroke)" fill-rule="evenodd" clip-rule="evenodd" d="M3 5.75C2.30964 5.75 1.75 6.30964 1.75 7V17C1.75 17.6904 2.30964 18.25 3 18.25H17C17.4142 18.25 17.75 18.5858 17.75 19C17.75 19.4142 17.4142 19.75 17 19.75H3C1.48122 19.75 0.25 18.5188 0.25 17V7C0.25 5.48122 1.48122 4.25 3 4.25H16C17.5188 4.25 18.75 5.48122 18.75 7V9C18.75 9.41421 18.4142 9.75 18 9.75C17.5858 9.75 17.25 9.41421 17.25 9V7C17.25 6.30964 16.6904 5.75 16 5.75H3ZM4.37596 8.58397C4.60573 8.23933 5.07138 8.1462 5.41603 8.37596L9.5 11.0986L13.584 8.37596C13.9286 8.1462 14.3943 8.23933 14.624 8.58397C14.8538 8.92862 14.7607 9.39427 14.416 9.62404L9.91603 12.624C9.6641 12.792 9.3359 12.792 9.08398 12.624L4.58398 9.62404C4.23933 9.39427 4.1462 8.92862 4.37596 8.58397ZM20.5303 10.4697C20.8232 10.7626 20.8232 11.2374 20.5303 11.5303L18.8107 13.25H23C23.4142 13.25 23.75 13.5858 23.75 14C23.75 14.4142 23.4142 14.75 23 14.75H18.8107L20.5303 16.4697C20.8232 16.7626 20.8232 17.2374 20.5303 17.5303C20.2374 17.8232 19.7626 17.8232 19.4697 17.5303L16.4697 14.5303C16.1768 14.2374 16.1768 13.7626 16.4697 13.4697L19.4697 10.4697C19.7626 10.1768 20.2374 10.1768 20.5303 10.4697Z" fill="black"/>
</g>
</g>
</g>
<defs>
<clipPath id="clip0_232_2994">
<rect width="24" height="24" rx="5" fill="white"/>
</clipPath>
</defs>
</svg>
