<svg width="24" height="24" viewBox="0 0 24 24" fill="none" xmlns="http://www.w3.org/2000/svg">
<g id="male">
<g clip-path="url(#clip0_232_8739)">
<g id="Weight=Dynamic">
<path id="Vector (Stroke)" fill-rule="evenodd" clip-rule="evenodd" d="M15.25 4C15.25 3.58579 15.5858 3.25 16 3.25H20C20.4142 3.25 20.75 3.58579 20.75 4V8C20.75 8.41421 20.4142 8.75 20 8.75C19.5858 8.75 19.25 8.41421 19.25 8V5.80609L15.2655 9.77634C16.1938 10.9323 16.75 12.4017 16.75 14C16.75 17.7279 13.7279 20.75 10 20.75C6.27208 20.75 3.25 17.7279 3.25 14C3.25 10.2721 6.27208 7.25 10 7.25C11.5886 7.25 13.05 7.79953 14.2028 8.71776L18.1847 4.75H16C15.5858 4.75 15.25 4.41421 15.25 4ZM10 8.75C7.1005 8.75 4.75 11.1005 4.75 14C4.75 16.8995 7.1005 19.25 10 19.25C12.8995 19.25 15.25 16.8995 15.25 14C15.25 12.5455 14.6595 11.2303 13.7033 10.2787C12.7531 9.3331 11.4454 8.75 10 8.75Z" fill="black"/>
</g>
</g>
</g>
<defs>
<clipPath id="clip0_232_8739">
<rect width="24" height="24" rx="5" fill="white"/>
</clipPath>
</defs>
</svg>
