<svg width="24" height="24" viewBox="0 0 24 24" fill="none" xmlns="http://www.w3.org/2000/svg">
<g id="map-pin-plus">
<g clip-path="url(#clip0_232_9999)">
<g id="Weight=Dynamic">
<g id="Vector">
</g>
<path id="Vector (Stroke)" fill-rule="evenodd" clip-rule="evenodd" d="M9 2.75C5.568 2.75 2.75 5.61771 2.75 9.2C2.75 10.0022 3.11319 11.0386 3.75164 12.205C4.37955 13.3521 5.22616 14.5407 6.08726 15.6247C6.94615 16.7059 7.80699 17.6674 8.45407 18.3594C8.66057 18.5803 8.84491 18.7733 9 18.9335C9.15509 18.7733 9.33943 18.5803 9.54593 18.3594C10.193 17.6674 11.0538 16.7059 11.9127 15.6247C12.7738 14.5407 13.6204 13.3521 14.2484 12.205C14.8868 11.0386 15.25 10.0022 15.25 9.2C15.25 5.61771 12.432 2.75 9 2.75ZM9 20C8.47648 20.5371 8.47638 20.537 8.47625 20.5368L8.47017 20.5309L8.4539 20.5149L8.39273 20.4544C8.33966 20.4017 8.26256 20.3245 8.16486 20.2253C7.9695 20.0269 7.69152 19.7402 7.35843 19.3839C6.69301 18.6723 5.80385 17.6794 4.91275 16.5577C4.02384 15.4387 3.12045 14.1758 2.43586 12.9252C1.76181 11.6938 1.25 10.386 1.25 9.2C1.25 4.82939 4.70002 1.25 9 1.25C13.3 1.25 16.75 4.82939 16.75 9.2C16.75 10.386 16.2382 11.6938 15.5641 12.9252C14.8796 14.1758 13.9762 15.4387 13.0873 16.5577C12.1962 17.6794 11.307 18.6723 10.6416 19.3839C10.3085 19.7402 10.0305 20.0269 9.83514 20.2253C9.73744 20.3245 9.66034 20.4017 9.60727 20.4544L9.5461 20.5149L9.52983 20.5309L9.52414 20.5364C9.52401 20.5366 9.52352 20.5371 9 20ZM9 20L9.52414 20.5364L9 21.0474L8.47625 20.5368L9 20ZM9 8.75C8.86193 8.75 8.75 8.86193 8.75 9C8.75 9.13807 8.86193 9.25 9 9.25C9.13807 9.25 9.25 9.13807 9.25 9C9.25 8.86193 9.13807 8.75 9 8.75ZM7.25 9C7.25 8.0335 8.0335 7.25 9 7.25C9.9665 7.25 10.75 8.0335 10.75 9C10.75 9.9665 9.9665 10.75 9 10.75C8.0335 10.75 7.25 9.9665 7.25 9ZM19 15.25C19.4142 15.25 19.75 15.5858 19.75 16V18.25H22C22.4142 18.25 22.75 18.5858 22.75 19C22.75 19.4142 22.4142 19.75 22 19.75H19.75V22C19.75 22.4142 19.4142 22.75 19 22.75C18.5858 22.75 18.25 22.4142 18.25 22V19.75H16C15.5858 19.75 15.25 19.4142 15.25 19C15.25 18.5858 15.5858 18.25 16 18.25H18.25V16C18.25 15.5858 18.5858 15.25 19 15.25Z" fill="black"/>
</g>
</g>
</g>
<defs>
<clipPath id="clip0_232_9999">
<rect width="24" height="24" rx="5" fill="white"/>
</clipPath>
</defs>
</svg>
