<svg width="24" height="24" viewBox="0 0 24 24" fill="none" xmlns="http://www.w3.org/2000/svg">
<g id="map-xmark">
<g clip-path="url(#clip0_232_10116)">
<g id="Weight=Dynamic">
<path id="Vector (Stroke)" fill-rule="evenodd" clip-rule="evenodd" d="M8.76283 2.28849C8.91678 2.23717 9.08322 2.23717 9.23717 2.28849L14.8269 4.15173C14.8808 4.16971 14.9331 4.19087 14.9834 4.21496L19.9731 2.55173C20.8473 2.26034 21.75 2.911 21.75 3.83246V15C21.75 15.4142 21.4142 15.75 21 15.75C20.5858 15.75 20.25 15.4142 20.25 15V4.04057L15.75 5.54057V20.1675C15.75 21.089 14.8473 21.7397 13.9731 21.4483L14.2103 20.7368L13.9731 21.4483L9 19.7906L4.02691 21.4483L3.78974 20.7368L3.78376 20.7188M3.78974 20.7368L4.02691 21.4483C3.15274 21.7397 2.25 21.089 2.25 20.1675L2.25 5.43246C2.25 4.85137 2.62183 4.33549 3.17309 4.15173L8.76283 2.28849M9.75 18.4594L14.25 19.9594V5.54057L9.75 4.04057V18.4594ZM8.25 4.04057L3.75 5.54057V19.9594L8.25 18.4594V4.04057ZM16.5908 17.591C16.8837 17.2981 17.3585 17.2981 17.6514 17.591L19.2424 19.182L20.8334 17.591C21.1263 17.2981 21.6012 17.2981 21.8941 17.591C22.187 17.8839 22.187 18.3588 21.8941 18.6517L20.3031 20.2427L21.8941 21.8336C22.187 22.1265 22.187 22.6014 21.8941 22.8943C21.6012 23.1872 21.1263 23.1872 20.8334 22.8943L19.2424 21.3033L17.6514 22.8943C17.3585 23.1872 16.8837 23.1872 16.5908 22.8943C16.2979 22.6014 16.2979 22.1265 16.5908 21.8336L18.1818 20.2427L16.5908 18.6517C16.2979 18.3588 16.2979 17.8839 16.5908 17.591Z" fill="black"/>
</g>
</g>
</g>
<defs>
<clipPath id="clip0_232_10116">
<rect width="24" height="24" rx="5" fill="white"/>
</clipPath>
</defs>
</svg>
