<svg width="24" height="24" viewBox="0 0 24 24" fill="none" xmlns="http://www.w3.org/2000/svg">
<g id="maps-turn-left">
<g clip-path="url(#clip0_232_10080)">
<g id="Weight=Dynamic">
<path id="Vector (Stroke)" fill-rule="evenodd" clip-rule="evenodd" d="M9.11021 3.56407C9.35097 3.90113 9.2729 4.36954 8.93584 4.6103L7.34026 5.75H7.99991C8.41413 5.75 8.74991 6.08578 8.74991 6.5C8.74991 6.91421 8.41413 7.25 7.99991 7.25H7.99923C7.99956 7.25 7.99991 7.25 7.99991 6.5C7.99991 5.75 8.0003 5.75 8.00069 5.75L8.00157 5.75L8.0036 5.75001L8.00877 5.75004L8.02348 5.75022C8.03521 5.75041 8.05074 5.75075 8.06982 5.75139C8.10796 5.75266 8.16044 5.75509 8.22522 5.75972C8.35454 5.76895 8.53438 5.78706 8.74821 5.8227C9.17233 5.89339 9.74929 6.03616 10.3353 6.32918C10.9243 6.62366 11.5361 7.07717 11.999 7.77147C12.4649 8.47047 12.7499 9.36876 12.7499 10.5C12.7499 10.9142 12.4141 11.25 11.9999 11.25C11.5857 11.25 11.2499 10.9142 11.2499 10.5C11.2499 9.63124 11.0349 9.02953 10.7509 8.60352C10.4637 8.17282 10.0755 7.87633 9.6645 7.67082C9.25054 7.46384 8.8275 7.35661 8.50161 7.30229C8.34045 7.27543 8.20779 7.26229 8.11835 7.2559C8.07376 7.25272 8.0403 7.25124 8.01985 7.25056L7.99929 7.25002C7.99857 7.25001 7.998 7.25 7.9976 7.25H7.34026L6.29026 6.5M7.34026 7.25L8.93584 8.3897C9.2729 8.63045 9.35097 9.09887 9.11021 9.43593C8.86946 9.77299 8.40104 9.85105 8.06398 9.6103L4.56398 7.1103C4.36689 6.96951 4.24991 6.74221 4.24991 6.5C4.24991 6.25778 4.36689 6.03048 4.56398 5.8897L8.06398 3.3897C8.40104 3.14894 8.86946 3.22701 9.11021 3.56407M7.34026 7.25H4.99991V6.5M3.86627 19.2264L11.1695 12.7347C11.6431 12.3137 12.3568 12.3137 12.8304 12.7347L20.1336 19.2264C21.084 20.0712 20.3128 21.6304 19.0645 21.3877L11.9999 20.014L4.93531 21.3877C3.68707 21.6304 2.91586 20.0712 3.86627 19.2264ZM11.9999 14.0035L5.54513 19.741L11.7613 18.5323C11.9189 18.5017 12.0809 18.5017 12.2385 18.5323L18.4547 19.741L11.9999 14.0035Z" fill="black"/>
</g>
</g>
</g>
<defs>
<clipPath id="clip0_232_10080">
<rect width="24" height="24" rx="5" fill="white"/>
</clipPath>
</defs>
</svg>
