<svg width="24" height="24" viewBox="0 0 24 24" fill="none" xmlns="http://www.w3.org/2000/svg">
<g id="maps-turn-right">
<g clip-path="url(#clip0_232_10070)">
<g id="Weight=Dynamic">
<path id="Vector (Stroke)" fill-rule="evenodd" clip-rule="evenodd" d="M14.8896 3.56407C15.1304 3.22701 15.5988 3.14894 15.9358 3.3897L19.4358 5.8897C19.6329 6.03048 19.7499 6.25778 19.7499 6.5C19.7499 6.74221 19.6329 6.96951 19.4358 7.1103L15.9358 9.6103C15.5988 9.85105 15.1304 9.77299 14.8896 9.43593C14.6489 9.09887 14.7269 8.63045 15.064 8.3897L16.6596 7.25H16.0006L15.98 7.25056C15.9595 7.25124 15.9261 7.25272 15.8815 7.2559C15.792 7.26229 15.6594 7.27543 15.4982 7.30229C15.1723 7.35661 14.7493 7.46384 14.3353 7.67082C13.9243 7.87633 13.5361 8.17282 13.249 8.60352C12.9649 9.02953 12.7499 9.63124 12.7499 10.5C12.7499 10.9142 12.4141 11.25 11.9999 11.25C11.5857 11.25 11.2499 10.9142 11.2499 10.5C11.2499 9.36876 11.5349 8.47047 12.0009 7.77147C12.4637 7.07717 13.0755 6.62366 13.6645 6.32918C14.2505 6.03616 14.8275 5.89339 15.2516 5.8227C15.4655 5.78706 15.6453 5.76895 15.7746 5.75972C15.8394 5.75509 15.8919 5.75266 15.93 5.75139C15.9491 5.75075 15.9646 5.75041 15.9763 5.75022L15.9911 5.75004L15.9953 5.75001C15.5832 5.75249 15.2499 6.08732 15.2499 6.5M15.9985 5.75C15.9984 5.75 15.9986 5.75 15.9985 5.75V5.75ZM15.9985 5.75C15.9989 5.75 15.9999 5.75 15.9999 6.5C15.9999 7.25 16.0003 7.25 16.0006 7.25M15.9985 5.75C15.9987 5.75 15.9997 5.75 15.9999 5.75H16.6596L17.7096 6.5M18.9999 6.5V5.75H16.6596L15.064 4.6103C14.7269 4.36954 14.6489 3.90113 14.8896 3.56407M3.86627 19.2264L11.1695 12.7347C11.6431 12.3137 12.3568 12.3137 12.8304 12.7347L20.1336 19.2264C21.084 20.0712 20.3128 21.6304 19.0645 21.3877L11.9999 20.014L4.93531 21.3877C3.68707 21.6304 2.91586 20.0712 3.86627 19.2264ZM11.9999 14.0035L5.54513 19.741L11.7613 18.5323C11.9189 18.5017 12.0809 18.5017 12.2385 18.5323L18.4547 19.741L11.9999 14.0035Z" fill="black"/>
</g>
</g>
</g>
<defs>
<clipPath id="clip0_232_10070">
<rect width="24" height="24" rx="5" fill="white"/>
</clipPath>
</defs>
</svg>
