<svg width="24" height="24" viewBox="0 0 24 24" fill="none" xmlns="http://www.w3.org/2000/svg">
<g id="maps-arrow">
<g clip-path="url(#clip0_232_9962)">
<g id="Weight=Dynamic">
<path id="Vector (Stroke)" fill-rule="evenodd" clip-rule="evenodd" d="M11.9999 5.52977L4.68077 18.5416L11.5469 15.8714L11.8187 16.5704L11.5469 15.8714C11.8383 15.7581 12.1616 15.7581 12.453 15.8714L19.3191 18.5416L11.9999 5.52977ZM10.9104 4.40701C11.3883 3.55744 12.6115 3.55745 13.0894 4.40701L20.9688 18.4149C21.5442 19.4378 20.5201 20.6181 19.4263 20.1927L11.9999 17.3047L4.57354 20.1927L4.3061 19.505L4.57354 20.1927C3.47972 20.6181 2.45564 19.4378 3.03101 18.4149L10.9104 4.40701L11.5641 4.77471L10.9104 4.40701ZM11.9093 17.2695L11.9097 17.2696L11.9093 17.2695Z" fill="black"/>
</g>
</g>
</g>
<defs>
<clipPath id="clip0_232_9962">
<rect width="24" height="24" rx="5" fill="white"/>
</clipPath>
</defs>
</svg>
