<svg width="24" height="24" viewBox="0 0 24 24" fill="none" xmlns="http://www.w3.org/2000/svg">
<g id="maps-turn-back">
<g clip-path="url(#clip0_232_10098)">
<g id="Weight=Dynamic">
<path id="Vector (Stroke)" fill-rule="evenodd" clip-rule="evenodd" d="M6.25 6.00059C6.25 6.0003 6.25 6 5.5 6C4.75 6 4.75 5.99967 4.75 5.99933L4.75001 5.99683L4.75003 5.99236L4.75016 5.97959C4.7503 5.96941 4.75056 5.95589 4.75104 5.93927C4.75199 5.90606 4.7538 5.8603 4.75726 5.80378C4.76417 5.69097 4.77772 5.53392 4.80441 5.34706C4.85725 4.9772 4.96429 4.47105 5.18564 3.95456C5.40696 3.43814 5.75509 2.8827 6.30517 2.45486C6.86592 2.01872 7.59261 1.75 8.5 1.75C9.50624 1.75 10.3108 2.00371 10.9395 2.42284C11.5635 2.83883 11.9701 3.38812 12.2333 3.91459C12.4951 4.43813 12.6222 4.95258 12.6851 5.32983C12.7168 5.52023 12.733 5.68053 12.7413 5.79617C12.7454 5.85412 12.7476 5.90123 12.7487 5.93571C12.7493 5.95296 12.7496 5.96708 12.7498 5.97786L12.75 5.99151L12.75 5.99641L12.75 5.99837C12.75 5.99876 12.75 6 12 6H12.75V10.5C12.75 10.9142 12.4142 11.25 12 11.25C11.5858 11.25 11.25 10.9142 11.25 10.5V6.00267C11.25 6.00249 11.25 6.0029 11.25 6.00267L11.2496 5.98568C11.249 5.96889 11.2478 5.9408 11.2451 5.90304C11.2397 5.82728 11.2285 5.71415 11.2055 5.57642C11.159 5.29742 11.0674 4.93687 10.8917 4.58541C10.7174 4.23688 10.4678 3.91117 10.1074 3.67091C9.75172 3.43379 9.24376 3.25 8.5 3.25C7.90739 3.25 7.50908 3.41878 7.22608 3.63889C6.93241 3.8673 6.71804 4.18686 6.56436 4.54544C6.41071 4.90395 6.33025 5.2728 6.28934 5.55919C6.26916 5.70046 6.25927 5.81684 6.25446 5.89544C6.25206 5.93462 6.25094 5.96406 6.25043 5.98211L6.25 6.00059C6.24999 6.00129 6.25 6.00156 6.25 6.00193V9.18934L8.46967 6.96967C8.76256 6.67678 9.23744 6.67678 9.53033 6.96967C9.82322 7.26256 9.82322 7.73744 9.53033 8.03033L6.03033 11.5303C5.73744 11.8232 5.26256 11.8232 4.96967 11.5303L1.46967 8.03033C1.17678 7.73744 1.17678 7.26256 1.46967 6.96967C1.76256 6.67678 2.23744 6.67678 2.53033 6.96967L4.75 9.18934L4.75 5.99933C4.75 5.58512 5.08579 5.25 5.5 5.25C5.91421 5.25 6.25 5.58638 6.25 6.00059ZM3.86636 19.2264L11.1695 12.7347C11.6432 12.3137 12.3568 12.3137 12.8305 12.7347L20.1336 19.2264C21.0841 20.0713 20.3128 21.6304 19.0646 21.3877L12 20.014L4.9354 21.3877C3.68716 21.6304 2.91594 20.0713 3.86636 19.2264ZM12 14.0035L5.54522 19.7411L11.7614 18.5323C11.919 18.5017 12.081 18.5017 12.2386 18.5323L18.4548 19.7411L12 14.0035Z" fill="black"/>
</g>
</g>
</g>
<defs>
<clipPath id="clip0_232_10098">
<rect width="24" height="24" rx="5" fill="white"/>
</clipPath>
</defs>
</svg>
