<svg width="24" height="24" viewBox="0 0 24 24" fill="none" xmlns="http://www.w3.org/2000/svg">
<g id="maps-arrow-xmark">
<g clip-path="url(#clip0_232_10108)">
<g id="Weight=Dynamic">
<path id="Vector (Stroke)" fill-rule="evenodd" clip-rule="evenodd" d="M11.9999 5.52977L17.8462 15.9232C18.0493 16.2842 18.5066 16.4123 18.8676 16.2092C19.2286 16.0061 19.3567 15.5488 19.1536 15.1878L13.0894 4.40701L12.4394 4.77263L13.0894 4.40701C12.6115 3.55745 11.3883 3.55744 10.9104 4.40701L3.03101 18.4149C2.45564 19.4378 3.47972 20.6181 4.57354 20.1927L4.3061 19.505L4.57354 20.1927L11.9999 17.3047L13.7281 17.9768C14.1141 18.1269 14.5488 17.9356 14.6989 17.5496C14.849 17.1635 14.6578 16.7289 14.2717 16.5787L12.453 15.8714C12.1616 15.7581 11.8383 15.7581 11.5469 15.8714L11.8187 16.5704L11.5469 15.8714L4.68077 18.5416L11.9999 5.52977ZM11.9093 17.2695L11.9097 17.2696L11.9093 17.2695ZM16.5907 17.591C16.8836 17.2981 17.3584 17.2981 17.6513 17.591L19.2423 19.182L20.8333 17.591C21.1262 17.2981 21.6011 17.2981 21.894 17.591C22.1869 17.8839 22.1869 18.3587 21.894 18.6516L20.303 20.2426L21.894 21.8336C22.1869 22.1265 22.1869 22.6014 21.894 22.8943C21.6011 23.1872 21.1262 23.1872 20.8333 22.8943L19.2423 21.3033L17.6513 22.8943C17.3584 23.1872 16.8836 23.1872 16.5907 22.8943C16.2978 22.6014 16.2978 22.1265 16.5907 21.8336L18.1817 20.2426L16.5907 18.6516C16.2978 18.3587 16.2978 17.8839 16.5907 17.591Z" fill="black"/>
</g>
</g>
</g>
<defs>
<clipPath id="clip0_232_10108">
<rect width="24" height="24" rx="5" fill="white"/>
</clipPath>
</defs>
</svg>
