<svg width="24" height="24" viewBox="0 0 24 24" fill="none" xmlns="http://www.w3.org/2000/svg">
<g id="maps-go-straight">
<g clip-path="url(#clip0_232_10090)">
<g id="Weight=Dynamic">
<path id="Vector (Stroke)" fill-rule="evenodd" clip-rule="evenodd" d="M11.6024 3.364C11.8456 3.212 12.1542 3.212 12.3974 3.364L16.3974 5.864C16.7487 6.08353 16.8554 6.54625 16.6359 6.8975C16.4164 7.24875 15.9537 7.35553 15.6024 7.136L12.7499 5.35319V10.5C12.7499 10.9142 12.4141 11.25 11.9999 11.25C11.5857 11.25 11.2499 10.9142 11.2499 10.5V5.35319L8.39741 7.136C8.04616 7.35553 7.58345 7.24875 7.36391 6.8975C7.14438 6.54625 7.25116 6.08353 7.60241 5.864L11.6024 3.364ZM3.86627 19.2264L11.1695 12.7347C11.6431 12.3137 12.3568 12.3137 12.8304 12.7347L20.1336 19.2264C21.084 20.0713 20.3128 21.6304 19.0645 21.3877L11.9999 20.014L4.93531 21.3877C3.68707 21.6304 2.91586 20.0713 3.86627 19.2264ZM11.9999 14.0035L5.54513 19.7411L11.7613 18.5323C11.9189 18.5017 12.0809 18.5017 12.2385 18.5323L18.4547 19.7411L11.9999 14.0035Z" fill="black"/>
</g>
</g>
</g>
<defs>
<clipPath id="clip0_232_10090">
<rect width="24" height="24" rx="5" fill="white"/>
</clipPath>
</defs>
</svg>
