<svg width="24" height="24" viewBox="0 0 24 24" fill="none" xmlns="http://www.w3.org/2000/svg">
<g id="mask-square">
<g clip-path="url(#clip0_232_4504)">
<g id="Weight=Dynamic">
<path id="Vector (Stroke)" fill-rule="evenodd" clip-rule="evenodd" d="M2.25 3.6C2.25 2.85442 2.85442 2.25 3.6 2.25H20.4C21.1456 2.25 21.75 2.85442 21.75 3.6V20.4C21.75 21.1456 21.1456 21.75 20.4 21.75H3.6C2.85442 21.75 2.25 21.1456 2.25 20.4V3.6ZM3.75 3.75V20.25H20.25V3.75H3.75ZM12 6.75C9.1005 6.75 6.75 9.1005 6.75 12C6.75 14.0181 7.88902 15.7717 9.56086 16.6504L13.0248 6.84983C12.6938 6.78438 12.3512 6.75 12 6.75ZM14.4391 7.34958L10.9752 17.1502C11.3062 17.2156 11.6488 17.25 12 17.25C14.8995 17.25 17.25 14.8995 17.25 12C17.25 9.98189 16.111 8.22831 14.4391 7.34958ZM5.25 12C5.25 8.27208 8.27208 5.25 12 5.25C12.7876 5.25 13.5452 5.3852 14.2499 5.63428C16.8706 6.56056 18.75 9.05984 18.75 12C18.75 15.7279 15.7279 18.75 12 18.75C11.2124 18.75 10.4548 18.6148 9.75007 18.3657C7.12939 17.4394 5.25 14.9402 5.25 12Z" fill="black"/>
</g>
</g>
</g>
<defs>
<clipPath id="clip0_232_4504">
<rect width="24" height="24" rx="5" fill="white"/>
</clipPath>
</defs>
</svg>
