<svg width="24" height="24" viewBox="0 0 24 24" fill="none" xmlns="http://www.w3.org/2000/svg">
<g id="mastercard-card">
<g clip-path="url(#clip0_232_7829)">
<g id="Weight=Dynamic">
<path id="Vector (Stroke)" fill-rule="evenodd" clip-rule="evenodd" d="M1.25 7C1.25 5.48122 2.48122 4.25 4 4.25H20C21.5188 4.25 22.75 5.48122 22.75 7V17C22.75 18.5188 21.5188 19.75 20 19.75H4C2.48122 19.75 1.25 18.5188 1.25 17V7ZM4 5.75C3.30964 5.75 2.75 6.30964 2.75 7V17C2.75 17.6904 3.30964 18.25 4 18.25H20C20.6904 18.25 21.25 17.6904 21.25 17V9.75H6C5.58579 9.75 5.25 9.41421 5.25 9C5.25 8.58579 5.58579 8.25 6 8.25H21.25V7C21.25 6.30964 20.6904 5.75 20 5.75H4ZM13.25 14.5C13.25 13.2574 14.2574 12.25 15.5 12.25C15.8588 12.25 16.1986 12.3344 16.5 12.4841C16.8014 12.3344 17.1412 12.25 17.5 12.25C18.7426 12.25 19.75 13.2574 19.75 14.5C19.75 15.7426 18.7426 16.75 17.5 16.75C17.1412 16.75 16.8014 16.6656 16.5 16.5159C16.1986 16.6656 15.8588 16.75 15.5 16.75C14.2574 16.75 13.25 15.7426 13.25 14.5ZM15.5 13.75C15.0858 13.75 14.75 14.0858 14.75 14.5C14.75 14.9142 15.0858 15.25 15.5 15.25C15.6926 15.25 15.8666 15.1784 15.9998 15.0592C16.2846 14.8043 16.7154 14.8043 17.0002 15.0592C17.1334 15.1784 17.3074 15.25 17.5 15.25C17.9142 15.25 18.25 14.9142 18.25 14.5C18.25 14.0858 17.9142 13.75 17.5 13.75C17.3074 13.75 17.1334 13.8216 17.0002 13.9408C16.7154 14.1957 16.2846 14.1957 15.9998 13.9408C15.8666 13.8216 15.6926 13.75 15.5 13.75Z" fill="black"/>
</g>
</g>
</g>
<defs>
<clipPath id="clip0_232_7829">
<rect width="24" height="24" rx="5" fill="white"/>
</clipPath>
</defs>
</svg>
