<svg width="24" height="24" viewBox="0 0 24 24" fill="none" xmlns="http://www.w3.org/2000/svg">
<g id="mastodon">
<g clip-path="url(#clip0_232_13979)">
<g id="Weight=Dynamic">
<g id="Vector">
<path fill-rule="evenodd" clip-rule="evenodd" d="M8.24971 7.89815C7.955 8.13391 7.74994 8.48275 7.74994 9V13.4992L6.99994 13.5L6.24994 13.5V9C6.24994 8.01725 6.66988 7.24108 7.31267 6.72684C7.93639 6.22786 8.73511 5.99999 9.49994 5.99999C10.2648 6 11.0635 6.22787 11.6872 6.72685C12.33 7.24108 12.7499 8.01725 12.7499 9V11.999L11.9999 12L11.2499 12V9C11.2499 8.48275 11.0449 8.13392 10.7502 7.89815C10.4364 7.64713 9.98511 7.5 9.49994 7.49999C9.01477 7.49999 8.56349 7.64712 8.24971 7.89815ZM11.9999 12.75C11.5857 12.75 11.2499 12.4142 11.2499 12L11.9999 12H12.7499C12.7499 12.4142 12.4142 12.75 11.9999 12.75ZM6.99994 14.25C6.58573 14.25 6.24994 13.9142 6.24994 13.5L6.99994 13.5L7.74994 13.4992C7.74994 13.9134 7.41415 14.25 6.99994 14.25Z" fill="black"/>
<path fill-rule="evenodd" clip-rule="evenodd" d="M15.7502 7.89815C16.0449 8.13391 16.2499 8.48275 16.2499 9V13.4992L16.9999 13.5L17.7499 13.5V9C17.7499 8.01725 17.33 7.24108 16.6872 6.72684C16.0635 6.22786 15.2648 5.99999 14.4999 5.99999C13.7351 6 12.9364 6.22787 12.3127 6.72685C11.6699 7.24108 11.2499 8.01725 11.2499 9V12L11.9999 12H12.7499V9C12.7499 8.48275 12.955 8.13392 13.2497 7.89815C13.5635 7.64713 14.0148 7.5 14.4999 7.49999C14.9851 7.49999 15.4364 7.64712 15.7502 7.89815ZM11.9999 12.75C12.4142 12.75 12.7499 12.4142 12.7499 12H11.9999L11.2499 12C11.2499 12.4142 11.5857 12.75 11.9999 12.75ZM16.9999 14.25C17.4142 14.25 17.7499 13.9142 17.7499 13.5L16.9999 13.5L16.2499 13.4992C16.2499 13.9134 16.5857 14.25 16.9999 14.25Z" fill="black"/>
<path fill-rule="evenodd" clip-rule="evenodd" d="M4.38416 3.11317C5.70584 2.00319 7.44424 1.75 8.9997 1.75H14.9997C16.1 1.75 17.7779 2.021 19.1999 3.0875C20.661 4.18334 21.7498 6.04323 21.7497 9C21.7497 8.99999 21.7497 9.00001 21.7497 9L21.7496 13C21.7496 14.1914 21.3322 15.195 20.5566 15.9802C19.7989 16.7473 18.74 17.266 17.5078 17.599C15.0521 18.2627 11.685 18.248 7.9005 17.7434C7.48992 17.6887 7.20146 17.3115 7.2562 16.9009C7.31095 16.4903 7.68817 16.2018 8.09875 16.2566C11.8144 16.752 14.9472 16.7373 17.1165 16.151C18.1968 15.859 18.9817 15.4402 19.4895 14.9261C19.9795 14.43 20.2496 13.8086 20.2496 13L20.2497 9C20.2498 6.45679 19.3388 5.06665 18.2999 4.2875C17.2219 3.479 15.8997 3.25 14.9997 3.25H8.99969C7.55504 3.25 6.25975 3.49681 5.34883 4.26183C4.47125 4.99885 3.789 6.35894 3.88604 8.97217C3.90534 9.49082 3.91717 10.0283 3.92939 10.5841C3.96515 12.2096 4.00432 13.9904 4.2439 15.907C4.29528 16.318 4.00374 16.6928 3.59273 16.7442C3.18171 16.7956 2.80687 16.504 2.75549 16.093C2.50543 14.0927 2.46393 12.1995 2.42797 10.559C2.41615 10.0196 2.40492 9.5075 2.38708 9.02789C2.27987 6.14111 3.02914 4.25115 4.38416 3.11317Z" fill="black"/>
<path fill-rule="evenodd" clip-rule="evenodd" d="M3.40691 15.2558C3.81792 15.2044 4.19252 15.496 4.2439 15.907C4.47366 17.7449 5.17698 18.9062 6.0673 19.6514C6.97328 20.4098 8.14481 20.7967 9.39909 20.9425C11.5006 21.1869 13.6708 20.7361 14.75 20.4415C14.75 20.4197 14.75 20.3978 14.75 20.376C13.6325 20.5193 12.0837 20.612 10.7038 20.4096C9.80944 20.2784 8.88592 20.0099 8.20806 19.4616C7.47571 18.8692 7.09489 17.9997 7.25784 16.8909C7.31807 16.4811 7.69911 16.1977 8.10892 16.258C8.51873 16.3182 8.80213 16.6992 8.7419 17.1091C8.65501 17.7003 8.83681 18.0408 9.15141 18.2953C9.52051 18.5939 10.1283 18.8091 10.9214 18.9254C12.4928 19.1559 14.4006 18.9455 15.3599 18.7632C15.5794 18.7215 15.806 18.7798 15.9781 18.9222C16.1502 19.0646 16.2498 19.2763 16.2499 19.4996C16.2501 19.8332 16.25 20.1669 16.25 20.5004C16.25 20.667 16.2499 20.8336 16.2499 21C16.2499 21.3228 16.0434 21.6094 15.7371 21.7115C14.9448 21.9756 12.0726 22.7635 9.22584 22.4325C7.79263 22.2658 6.30791 21.809 5.10451 20.8017C3.88545 19.7813 3.02576 18.2551 2.75549 16.093C2.70411 15.682 2.99589 15.3072 3.40691 15.2558Z" fill="black"/>
</g>
</g>
</g>
</g>
<defs>
<clipPath id="clip0_232_13979">
<rect width="24" height="24" rx="5" fill="white"/>
</clipPath>
</defs>
</svg>
