<svg width="24" height="24" viewBox="0 0 24 24" fill="none" xmlns="http://www.w3.org/2000/svg">
<g id="math-book">
<g clip-path="url(#clip0_232_1902)">
<g id="Weight=Dynamic">
<path id="Vector (Stroke)" fill-rule="evenodd" clip-rule="evenodd" d="M6 3.75C5.30964 3.75 4.75 4.30964 4.75 5V16.5499C5.12503 16.3581 5.54989 16.25 6 16.25H19.25V3.75H6ZM20.7364 16.8571C20.7453 16.8109 20.75 16.7631 20.75 16.7143V3.6C20.75 2.85442 20.1456 2.25 19.4 2.25H6C4.48122 2.25 3.25 3.48122 3.25 5V19C3.25 20.5188 4.48122 21.75 6 21.75H20C20.4142 21.75 20.75 21.4142 20.75 21C20.75 20.5858 20.4142 20.25 20 20.25H6C5.30964 20.25 4.75 19.6904 4.75 19C4.75 18.3096 5.30964 17.75 6 17.75H20C20.4142 17.75 20.75 17.4142 20.75 17C20.75 16.9511 20.7453 16.9034 20.7364 16.8571ZM12.5117 6.44142C12.8196 6.71852 12.8446 7.19273 12.5675 7.50062L12.5575 7.51173C12.2804 7.81961 11.8062 7.84456 11.4983 7.56747C11.1904 7.29037 11.1654 6.81616 11.4425 6.50827L11.4525 6.49716C11.7296 6.18928 12.2038 6.16432 12.5117 6.44142ZM9.25 10C9.25 9.58579 9.58579 9.25 10 9.25H14C14.4142 9.25 14.75 9.58579 14.75 10C14.75 10.4142 14.4142 10.75 14 10.75H10C9.58579 10.75 9.25 10.4142 9.25 10ZM12.5117 12.4414C12.8196 12.7185 12.8446 13.1927 12.5675 13.5006L12.5575 13.5117C12.2804 13.8196 11.8062 13.8446 11.4983 13.5675C11.1904 13.2904 11.1654 12.8162 11.4425 12.5083L11.4525 12.4972C11.7296 12.1893 12.2038 12.1643 12.5117 12.4414Z" fill="black"/>
</g>
</g>
</g>
<defs>
<clipPath id="clip0_232_1902">
<rect width="24" height="24" rx="5" fill="white"/>
</clipPath>
</defs>
</svg>
