<svg width="24" height="24" viewBox="0 0 24 24" fill="none" xmlns="http://www.w3.org/2000/svg">
<g id="maximize">
<g clip-path="url(#clip0_232_11611)">
<g id="Weight=Dynamic">
<path id="Vector (Stroke)" fill-rule="evenodd" clip-rule="evenodd" d="M3.25 4C3.25 3.58579 3.58579 3.25 4 3.25H7C7.41421 3.25 7.75 3.58579 7.75 4C7.75 4.41421 7.41421 4.75 7 4.75H4.75V7C4.75 7.41421 4.41421 7.75 4 7.75C3.58579 7.75 3.25 7.41421 3.25 7V4ZM16.25 4C16.25 3.58579 16.5858 3.25 17 3.25H20C20.4142 3.25 20.75 3.58579 20.75 4V7C20.75 7.41421 20.4142 7.75 20 7.75C19.5858 7.75 19.25 7.41421 19.25 7V4.75H17C16.5858 4.75 16.25 4.41421 16.25 4ZM4 16.25C4.41421 16.25 4.75 16.5858 4.75 17V19.25H7C7.41421 19.25 7.75 19.5858 7.75 20C7.75 20.4142 7.41421 20.75 7 20.75H4C3.58579 20.75 3.25 20.4142 3.25 20V17C3.25 16.5858 3.58579 16.25 4 16.25ZM20 16.25C20.4142 16.25 20.75 16.5858 20.75 17V20C20.75 20.4142 20.4142 20.75 20 20.75H17C16.5858 20.75 16.25 20.4142 16.25 20C16.25 19.5858 16.5858 19.25 17 19.25H19.25V17C19.25 16.5858 19.5858 16.25 20 16.25Z" fill="black"/>
</g>
</g>
</g>
<defs>
<clipPath id="clip0_232_11611">
<rect width="24" height="24" rx="5" fill="white"/>
</clipPath>
</defs>
</svg>
