<svg width="24" height="24" viewBox="0 0 24 24" fill="none" xmlns="http://www.w3.org/2000/svg">
<g id="medal">
<g clip-path="url(#clip0_232_2104)">
<g id="Weight=Dynamic">
<path id="Vector (Stroke)" fill-rule="evenodd" clip-rule="evenodd" d="M14.6482 1.30748C15.0307 1.46658 15.2117 1.90558 15.0526 2.28802L14.0126 4.78802C13.8535 5.17046 13.4145 5.35152 13.0321 5.19242C12.6497 5.03333 12.4686 4.59432 12.6277 4.21188L13.6677 1.71188C13.8268 1.32944 14.2658 1.14838 14.6482 1.30748ZM18.3031 1.31384C18.682 1.48112 18.8536 1.92392 18.6863 2.30285L15.2514 10.0833C17.3361 11.2313 18.7502 13.4498 18.7502 16C18.7502 19.7279 15.7281 22.75 12.0002 22.75C8.27224 22.75 5.25016 19.7279 5.25016 16C5.25016 13.6248 6.47699 11.5373 8.32904 10.3348L4.32934 2.33536C4.1441 1.96488 4.29427 1.51437 4.66475 1.32913C5.03524 1.14389 5.48574 1.29406 5.67098 1.66454L9.67025 9.66308C10.2613 9.4457 10.8909 9.30868 11.5453 9.26506L8.16111 2.32882C7.97948 1.95655 8.13403 1.50753 8.5063 1.3259C8.87856 1.14427 9.32759 1.29881 9.50922 1.67108L13.2647 9.36834C13.468 9.40689 13.668 9.45456 13.8645 9.5109L17.314 1.69705C17.4813 1.31812 17.9241 1.14655 18.3031 1.31384ZM12.0002 10.75C11.1547 10.75 10.3579 10.9493 9.65222 11.3028C7.92988 12.1656 6.75016 13.9457 6.75016 16C6.75016 18.8994 9.10067 21.25 12.0002 21.25C14.8997 21.25 17.2502 18.8994 17.2502 16C17.2502 13.8051 15.9031 11.9232 13.9878 11.139C13.5719 10.9688 13.1292 10.8504 12.6675 10.7919C12.4492 10.7642 12.2266 10.75 12.0002 10.75Z" fill="black"/>
</g>
</g>
</g>
<defs>
<clipPath id="clip0_232_2104">
<rect width="24" height="24" rx="5" fill="white"/>
</clipPath>
</defs>
</svg>
