<svg width="24" height="24" viewBox="0 0 24 24" fill="none" xmlns="http://www.w3.org/2000/svg">
<g id="media-image-list">
<g clip-path="url(#clip0_232_12682)">
<g id="Weight=Dynamic">
<path id="Vector (Stroke)" fill-rule="evenodd" clip-rule="evenodd" d="M3.25 4.6C3.25 3.85442 3.85442 3.25 4.6 3.25H18C18.4142 3.25 18.75 3.58579 18.75 4C18.75 4.41421 18.4142 4.75 18 4.75H4.75V18C4.75 18.4142 4.41421 18.75 4 18.75C3.58579 18.75 3.25 18.4142 3.25 18V4.6ZM6.25 7.6C6.25 6.85442 6.85442 6.25 7.6 6.25H20.4C21.1456 6.25 21.75 6.85442 21.75 7.6V17.9825C21.7503 17.9941 21.7503 18.0058 21.75 18.0174V20.4C21.75 21.1456 21.1456 21.75 20.4 21.75H7.6C6.85442 21.75 6.25 21.1456 6.25 20.4V16.8173C6.24973 16.8056 6.24973 16.7941 6.25 16.7825V7.6ZM7.75 17.342V20.25H20.25V18.5318L12.4373 15.7923L7.75 17.342ZM20.25 16.9422L12.6926 14.2922C12.5363 14.2374 12.3663 14.2359 12.209 14.2879L7.75 15.7621V7.75H20.25V16.9422ZM14.25 11.5C14.25 10.2574 15.2574 9.25 16.5 9.25C17.7426 9.25 18.75 10.2574 18.75 11.5C18.75 12.7426 17.7426 13.75 16.5 13.75C15.2574 13.75 14.25 12.7426 14.25 11.5ZM16.5 10.75C16.0858 10.75 15.75 11.0858 15.75 11.5C15.75 11.9142 16.0858 12.25 16.5 12.25C16.9142 12.25 17.25 11.9142 17.25 11.5C17.25 11.0858 16.9142 10.75 16.5 10.75Z" fill="black"/>
</g>
</g>
</g>
<defs>
<clipPath id="clip0_232_12682">
<rect width="24" height="24" rx="5" fill="white"/>
</clipPath>
</defs>
</svg>
