<svg width="24" height="24" viewBox="0 0 24 24" fill="none" xmlns="http://www.w3.org/2000/svg">
<g id="media-image-plus">
<g clip-path="url(#clip0_232_12656)">
<g id="Weight=Dynamic">
<path id="Vector (Stroke)" fill-rule="evenodd" clip-rule="evenodd" d="M2.25019 3.6C2.25019 2.85442 2.85461 2.25 3.60019 2.25H20.4002C21.1458 2.25 21.7502 2.85442 21.7502 3.6V13C21.7502 13.4142 21.4144 13.75 21.0002 13.75C20.586 13.75 20.2502 13.4142 20.2502 13V3.75H3.75019V14.8626L9.70475 12.3106C9.89863 12.2276 10.1185 12.2299 10.3105 12.3172L15.8105 14.8172C16.1876 14.9886 16.3544 15.4333 16.183 15.8103C16.0116 16.1874 15.5669 16.3542 15.1898 16.1828L9.99128 13.8198L3.75019 16.4945V20.25H13.0002C13.4144 20.25 13.7502 20.5858 13.7502 21C13.7502 21.4142 13.4144 21.75 13.0002 21.75H3.60019C2.85461 21.75 2.25019 21.1456 2.25019 20.4V16.0173C2.24994 16.006 2.24994 15.9947 2.25019 15.9834V3.6ZM13.2502 8C13.2502 6.48122 14.4814 5.25 16.0002 5.25C17.519 5.25 18.7502 6.48122 18.7502 8C18.7502 9.51878 17.519 10.75 16.0002 10.75C14.4814 10.75 13.2502 9.51878 13.2502 8ZM16.0002 6.75C15.3098 6.75 14.7502 7.30964 14.7502 8C14.7502 8.69036 15.3098 9.25 16.0002 9.25C16.6905 9.25 17.2502 8.69036 17.2502 8C17.2502 7.30964 16.6905 6.75 16.0002 6.75ZM19.0002 15.25C19.4144 15.25 19.7502 15.5858 19.7502 16V18.25H22.0002C22.4144 18.25 22.7502 18.5858 22.7502 19C22.7502 19.4142 22.4144 19.75 22.0002 19.75H19.7502V22C19.7502 22.4142 19.4144 22.75 19.0002 22.75C18.586 22.75 18.2502 22.4142 18.2502 22V19.75H16.0002C15.586 19.75 15.2502 19.4142 15.2502 19C15.2502 18.5858 15.586 18.25 16.0002 18.25H18.2502V16C18.2502 15.5858 18.586 15.25 19.0002 15.25Z" fill="black"/>
</g>
</g>
</g>
<defs>
<clipPath id="clip0_232_12656">
<rect width="24" height="24" rx="5" fill="white"/>
</clipPath>
</defs>
</svg>
