<svg width="24" height="24" viewBox="0 0 24 24" fill="none" xmlns="http://www.w3.org/2000/svg">
<g id="media-video-plus">
<g clip-path="url(#clip0_232_12702)">
<g id="Weight=Dynamic">
<path id="Vector (Stroke)" fill-rule="evenodd" clip-rule="evenodd" d="M2.25 3.6C2.25 2.85442 2.85442 2.25 3.6 2.25H20.4C21.1456 2.25 21.75 2.85442 21.75 3.6V13C21.75 13.4142 21.4142 13.75 21 13.75C20.5858 13.75 20.25 13.4142 20.25 13V3.75H3.75V20.25H13C13.4142 20.25 13.75 20.5858 13.75 21C13.75 21.4142 13.4142 21.75 13 21.75H3.6C2.85442 21.75 2.25 21.1456 2.25 20.4V3.6ZM9.75 9.29238V14.7076L14.4883 12L9.75 9.29238ZM8.25 9.03391C8.25 7.99735 9.3698 7.3475 10.2698 7.86178L15.4604 10.8279C16.3674 11.3461 16.3674 12.6539 15.4604 13.1721L10.2698 16.1382C9.3698 16.6525 8.25 16.0027 8.25 14.9661V9.03391ZM19 15.25C19.4142 15.25 19.75 15.5858 19.75 16V18.25H22C22.4142 18.25 22.75 18.5858 22.75 19C22.75 19.4142 22.4142 19.75 22 19.75H19.75V22C19.75 22.4142 19.4142 22.75 19 22.75C18.5858 22.75 18.25 22.4142 18.25 22V19.75H16C15.5858 19.75 15.25 19.4142 15.25 19C15.25 18.5858 15.5858 18.25 16 18.25H18.25V16C18.25 15.5858 18.5858 15.25 19 15.25Z" fill="black"/>
</g>
</g>
</g>
<defs>
<clipPath id="clip0_232_12702">
<rect width="24" height="24" rx="5" fill="white"/>
</clipPath>
</defs>
</svg>
