<svg width="24" height="24" viewBox="0 0 24 24" fill="none" xmlns="http://www.w3.org/2000/svg">
<g id="media-image">
<g clip-path="url(#clip0_232_12646)">
<g id="Weight=Dynamic">
<path id="Vector (Stroke)" fill-rule="evenodd" clip-rule="evenodd" d="M2.25019 3.6C2.25019 2.85442 2.85461 2.25 3.60019 2.25H20.4002C21.1458 2.25 21.7502 2.85442 21.7502 3.6V17.9839C21.7504 17.9949 21.7504 18.0059 21.7502 18.017V20.4C21.7502 21.1456 21.1458 21.75 20.4002 21.75H3.60019C2.85461 21.75 2.25019 21.1456 2.25019 20.4V16.0173C2.24994 16.006 2.24994 15.9947 2.25019 15.9834V3.6ZM3.75019 16.4945V20.25H20.2502V18.4829L9.99128 13.8198L3.75019 16.4945ZM20.2502 16.8352L10.3105 12.3172C10.1185 12.2299 9.89863 12.2276 9.70475 12.3106L3.75019 14.8626V3.75H20.2502V16.8352ZM13.2502 8C13.2502 6.48122 14.4814 5.25 16.0002 5.25C17.519 5.25 18.7502 6.48122 18.7502 8C18.7502 9.51878 17.519 10.75 16.0002 10.75C14.4814 10.75 13.2502 9.51878 13.2502 8ZM16.0002 6.75C15.3098 6.75 14.7502 7.30964 14.7502 8C14.7502 8.69036 15.3098 9.25 16.0002 9.25C16.6905 9.25 17.2502 8.69036 17.2502 8C17.2502 7.30964 16.6905 6.75 16.0002 6.75Z" fill="black"/>
</g>
</g>
</g>
<defs>
<clipPath id="clip0_232_12646">
<rect width="24" height="24" rx="5" fill="white"/>
</clipPath>
</defs>
</svg>
