<svg width="24" height="24" viewBox="0 0 24 24" fill="none" xmlns="http://www.w3.org/2000/svg">
<g id="media-image-xmark">
<g clip-path="url(#clip0_232_12668)">
<g id="Weight=Dynamic">
<path id="Vector (Stroke)" fill-rule="evenodd" clip-rule="evenodd" d="M2.25019 3.6C2.25019 2.85442 2.85461 2.25 3.60019 2.25H20.4002C21.1458 2.25 21.7502 2.85442 21.7502 3.6V13C21.7502 13.4142 21.4144 13.75 21.0002 13.75C20.586 13.75 20.2502 13.4142 20.2502 13V3.75H3.75019V14.8626L9.70475 12.3106C9.89863 12.2276 10.1185 12.2299 10.3105 12.3172L14.3105 14.1354C14.6876 14.3068 14.8544 14.7514 14.683 15.1285C14.5116 15.5056 14.0669 15.6724 13.6898 15.501L9.99128 13.8198L3.75019 16.4945V20.25H13.0002C13.4144 20.25 13.7502 20.5858 13.7502 21C13.7502 21.4142 13.4144 21.75 13.0002 21.75H3.60019C2.85461 21.75 2.25019 21.1456 2.25019 20.4V16.0173C2.24994 16.006 2.24994 15.9947 2.25019 15.9834V3.6ZM13.2502 8C13.2502 6.48122 14.4814 5.25 16.0002 5.25C17.519 5.25 18.7502 6.48122 18.7502 8C18.7502 9.51878 17.519 10.75 16.0002 10.75C14.4814 10.75 13.2502 9.51878 13.2502 8ZM16.0002 6.75C15.3098 6.75 14.7502 7.30964 14.7502 8C14.7502 8.69036 15.3098 9.25 16.0002 9.25C16.6905 9.25 17.2502 8.69036 17.2502 8C17.2502 7.30964 16.6905 6.75 16.0002 6.75ZM16.349 16.3483C16.6419 16.0555 17.1168 16.0555 17.4097 16.3483L19.0006 17.9393L20.5916 16.3483C20.8845 16.0555 21.3594 16.0555 21.6523 16.3483C21.9452 16.6412 21.9452 17.1161 21.6523 17.409L20.0613 19L21.6523 20.591C21.9452 20.8839 21.9452 21.3588 21.6523 21.6517C21.3594 21.9445 20.8845 21.9445 20.5916 21.6517L19.0006 20.0607L17.4097 21.6517C17.1168 21.9445 16.6419 21.9445 16.349 21.6517C16.0561 21.3588 16.0561 20.8839 16.349 20.591L17.94 19L16.349 17.409C16.0561 17.1161 16.0561 16.6412 16.349 16.3483Z" fill="black"/>
</g>
</g>
</g>
<defs>
<clipPath id="clip0_232_12668">
<rect width="24" height="24" rx="5" fill="white"/>
</clipPath>
</defs>
</svg>
