<svg width="24" height="24" viewBox="0 0 24 24" fill="none" xmlns="http://www.w3.org/2000/svg">
<g id="medium">
<g clip-path="url(#clip0_232_14173)">
<g id="Weight=Dynamic">
<path id="Vector (Stroke)" fill-rule="evenodd" clip-rule="evenodd" d="M7 8.75C5.20507 8.75 3.75 10.2051 3.75 12C3.75 13.7949 5.20507 15.25 7 15.25C8.79493 15.25 10.25 13.7949 10.25 12C10.25 10.2051 8.79493 8.75 7 8.75ZM2.25 12C2.25 9.37665 4.37665 7.25 7 7.25C9.62335 7.25 11.75 9.37665 11.75 12C11.75 14.6234 9.62335 16.75 7 16.75C4.37665 16.75 2.25 14.6234 2.25 12ZM14.2566 9.50698C13.957 10.1063 13.75 10.9866 13.75 12C13.75 13.0134 13.957 13.8937 14.2566 14.493C14.5787 15.1371 14.8848 15.25 15 15.25C15.1152 15.25 15.4213 15.1371 15.7434 14.493C16.043 13.8937 16.25 13.0134 16.25 12C16.25 10.9866 16.043 10.1063 15.7434 9.50698C15.4213 8.86285 15.1152 8.75 15 8.75C14.8848 8.75 14.5787 8.86285 14.2566 9.50698ZM12.915 8.83616C13.3168 8.03258 14.0106 7.25 15 7.25C15.9894 7.25 16.6832 8.03258 17.085 8.83616C17.5093 9.68461 17.75 10.8042 17.75 12C17.75 13.1958 17.5093 14.3154 17.085 15.1638C16.6832 15.9674 15.9894 16.75 15 16.75C14.0106 16.75 13.3168 15.9674 12.915 15.1638C12.4907 14.3154 12.25 13.1958 12.25 12C12.25 10.8042 12.4907 9.68461 12.915 8.83616ZM20 9.43825C19.8492 10.0825 19.75 10.9837 19.75 12C19.75 13.0163 19.8492 13.9175 20 14.5618C20.1508 13.9175 20.25 13.0163 20.25 12C20.25 10.9837 20.1508 10.0825 20 9.43825ZM20.2987 8.63512C20.2988 8.63589 20.2945 8.64184 20.2855 8.65066C20.2942 8.63877 20.2986 8.63435 20.2987 8.63512ZM19.7145 8.65065C19.7055 8.64183 19.7012 8.63589 19.7013 8.63512C19.7014 8.63435 19.7059 8.63876 19.7145 8.65065ZM19.7013 15.3649C19.7012 15.3641 19.7055 15.3582 19.7145 15.3493C19.7058 15.3612 19.7014 15.3656 19.7013 15.3649ZM20.2855 15.3493C20.2945 15.3582 20.2988 15.3641 20.2987 15.3649C20.2986 15.3656 20.2941 15.3612 20.2855 15.3493ZM18.9651 7.93272C19.1077 7.69148 19.4331 7.25 20 7.25C20.5669 7.25 20.8923 7.69148 21.0349 7.93272C21.2072 8.22417 21.3363 8.59597 21.4347 8.98967C21.6344 9.78861 21.75 10.8526 21.75 12C21.75 13.1474 21.6344 14.2114 21.4347 15.0103C21.3363 15.404 21.2072 15.7758 21.0349 16.0673C20.8923 16.3085 20.5669 16.75 20 16.75C19.4331 16.75 19.1077 16.3085 18.9651 16.0673C18.7928 15.7758 18.6637 15.404 18.5653 15.0103C18.3656 14.2114 18.25 13.1474 18.25 12C18.25 10.8526 18.3656 9.78861 18.5653 8.98967C18.6637 8.59597 18.7928 8.22417 18.9651 7.93272Z" fill="black"/>
</g>
</g>
</g>
<defs>
<clipPath id="clip0_232_14173">
<rect width="24" height="24" rx="5" fill="white"/>
</clipPath>
</defs>
</svg>
