<svg width="24" height="24" viewBox="0 0 24 24" fill="none" xmlns="http://www.w3.org/2000/svg">
<g id="media-video">
<g clip-path="url(#clip0_232_12694)">
<g id="Weight=Dynamic">
<path id="Vector (Stroke)" fill-rule="evenodd" clip-rule="evenodd" d="M2.25 3.6C2.25 2.85442 2.85442 2.25 3.6 2.25H20.4C21.1456 2.25 21.75 2.85442 21.75 3.6V20.4C21.75 21.1456 21.1456 21.75 20.4 21.75H3.6C2.85442 21.75 2.25 21.1456 2.25 20.4V3.6ZM3.75 3.75V20.25H20.25V3.75H3.75ZM9.75 9.29238V14.7076L14.4883 12L9.75 9.29238ZM8.25 9.03391C8.25 7.99735 9.3698 7.3475 10.2698 7.86178L15.4604 10.8279C16.3674 11.3461 16.3674 12.6539 15.4604 13.1721L10.2698 16.1382C9.3698 16.6525 8.25 16.0027 8.25 14.9661V9.03391Z" fill="black"/>
</g>
</g>
</g>
<defs>
<clipPath id="clip0_232_12694">
<rect width="24" height="24" rx="5" fill="white"/>
</clipPath>
</defs>
</svg>
