<svg width="24" height="24" viewBox="0 0 24 24" fill="none" xmlns="http://www.w3.org/2000/svg">
<g id="media-video-xmark">
<g clip-path="url(#clip0_232_12326)">
<g id="Weight=Dynamic">
<path id="Vector (Stroke)" fill-rule="evenodd" clip-rule="evenodd" d="M2.25 3.6C2.25 2.85442 2.85442 2.25 3.6 2.25H20.4C21.1456 2.25 21.75 2.85442 21.75 3.6V13C21.75 13.4142 21.4142 13.75 21 13.75C20.5858 13.75 20.25 13.4142 20.25 13V3.75H3.75V20.25H13C13.4142 20.25 13.75 20.5858 13.75 21C13.75 21.4142 13.4142 21.75 13 21.75H3.6C2.85442 21.75 2.25 21.1456 2.25 20.4V3.6ZM9.75 9.29238V14.7076L14.4883 12L9.75 9.29238ZM8.25 9.03391C8.25 7.99735 9.3698 7.3475 10.2698 7.86178L15.4604 10.8279C16.3674 11.3461 16.3674 12.6539 15.4604 13.1721L10.2698 16.1382C9.3698 16.6525 8.25 16.0027 8.25 14.9661V9.03391ZM16.3488 16.3483C16.6417 16.0555 17.1166 16.0555 17.4095 16.3483L19.0005 17.9393L20.5914 16.3483C20.8843 16.0555 21.3592 16.0555 21.6521 16.3483C21.945 16.6412 21.945 17.1161 21.6521 17.409L20.0611 19L21.6521 20.591C21.945 20.8839 21.945 21.3588 21.6521 21.6517C21.3592 21.9445 20.8843 21.9445 20.5914 21.6517L19.0005 20.0607L17.4095 21.6517C17.1166 21.9445 16.6417 21.9445 16.3488 21.6517C16.0559 21.3588 16.0559 20.8839 16.3488 20.591L17.9398 19L16.3488 17.409C16.0559 17.1161 16.0559 16.6412 16.3488 16.3483Z" fill="black"/>
</g>
</g>
</g>
<defs>
<clipPath id="clip0_232_12326">
<rect width="24" height="24" rx="5" fill="white"/>
</clipPath>
</defs>
</svg>
