<svg width="24" height="24" viewBox="0 0 24 24" fill="none" xmlns="http://www.w3.org/2000/svg">
<g id="media-image-folder">
<g clip-path="url(#clip0_232_12351)">
<g id="Weight=Dynamic">
<path id="Vector (Stroke)" fill-rule="evenodd" clip-rule="evenodd" d="M1.25 3.6C1.25 2.85442 1.85442 2.25 2.6 2.25H8.77805C9.10031 2.25 9.41194 2.36528 9.65661 2.575L12.7774 5.25H21.4C22.1456 5.25 22.75 5.85442 22.75 6.6V9C22.75 9.41421 22.4142 9.75 22 9.75C21.5858 9.75 21.25 9.41421 21.25 9V6.75H12.722C12.3997 6.75 12.0881 6.63472 11.8434 6.425L8.72256 3.75H2.75V9.25H10C10.4142 9.25 10.75 9.58579 10.75 10C10.75 10.4142 10.4142 10.75 10 10.75H2.75V18.25H10C10.4142 18.25 10.75 18.5858 10.75 19C10.75 19.4142 10.4142 19.75 10 19.75H2.6C1.85441 19.75 1.25 19.1456 1.25 18.4V3.6ZM12.8196 5.28611C12.8195 5.28604 12.8197 5.28618 12.8196 5.28611V5.28611ZM12.25 12.6C12.25 11.8544 12.8544 11.25 13.6 11.25H21.4C22.1456 11.25 22.75 11.8544 22.75 12.6V18.9826C22.7503 18.9942 22.7503 19.0058 22.75 19.0175V20.4C22.75 21.1456 22.1456 21.75 21.4 21.75H13.6C12.8544 21.75 12.25 21.1456 12.25 20.4V18.2174C12.2497 18.2057 12.2497 18.1941 12.25 18.1825V12.6ZM13.75 18.7357V20.25H21.25V19.5253L16.4927 17.7954L13.75 18.7357ZM21.25 17.9292L16.7563 16.2952C16.5952 16.2366 16.4189 16.2349 16.2568 16.2905L13.75 17.15V12.75H21.25V17.9292ZM20.0117 13.9414C20.3196 14.2185 20.3446 14.6927 20.0675 15.0006L20.0575 15.0117C19.7804 15.3196 19.3062 15.3446 18.9983 15.0675C18.6904 14.7904 18.6654 14.3162 18.9425 14.0083L18.9525 13.9972C19.2296 13.6893 19.7038 13.6643 20.0117 13.9414Z" fill="black"/>
</g>
</g>
</g>
<defs>
<clipPath id="clip0_232_12351">
<rect width="24" height="24" rx="5" fill="white"/>
</clipPath>
</defs>
</svg>
