<svg width="24" height="24" viewBox="0 0 24 24" fill="none" xmlns="http://www.w3.org/2000/svg">
<g id="media-video-list">
<g clip-path="url(#clip0_232_12338)">
<g id="Weight=Dynamic">
<path id="Vector (Stroke)" fill-rule="evenodd" clip-rule="evenodd" d="M3.25 4.6C3.25 3.85442 3.85442 3.25 4.6 3.25H18C18.4142 3.25 18.75 3.58579 18.75 4C18.75 4.41421 18.4142 4.75 18 4.75H4.75V18C4.75 18.4142 4.41421 18.75 4 18.75C3.58579 18.75 3.25 18.4142 3.25 18V4.6ZM6.25 7.6C6.25 6.85442 6.85442 6.25 7.6 6.25H20.4C21.1456 6.25 21.75 6.85442 21.75 7.6V20.4C21.75 21.1456 21.1456 21.75 20.4 21.75H7.6C6.85442 21.75 6.25 21.1456 6.25 20.4V7.6ZM7.75 7.75V20.25H20.25V7.75H7.75ZM12.75 12.3246V15.6754L15.5423 14L12.75 12.3246ZM11.25 12.0597C11.25 11.0104 12.3948 10.3622 13.2946 10.9021L16.5284 12.8424C17.4023 13.3667 17.4023 14.6333 16.5284 15.1576L13.2946 17.0979C12.3948 17.6378 11.25 16.9896 11.25 15.9403V12.0597Z" fill="black"/>
</g>
</g>
</g>
<defs>
<clipPath id="clip0_232_12338">
<rect width="24" height="24" rx="5" fill="white"/>
</clipPath>
</defs>
</svg>
