<svg width="24" height="24" viewBox="0 0 24 24" fill="none" xmlns="http://www.w3.org/2000/svg">
<g id="media-video-folder">
<g clip-path="url(#clip0_232_12363)">
<g id="Weight=Dynamic">
<path id="Vector (Stroke)" fill-rule="evenodd" clip-rule="evenodd" d="M1.25 3.6C1.25 2.85442 1.85442 2.25 2.6 2.25H8.77805C9.10031 2.25 9.41194 2.36528 9.65661 2.575L12.7774 5.25H21.4C22.1456 5.25 22.75 5.85442 22.75 6.6V9C22.75 9.41421 22.4142 9.75 22 9.75C21.5858 9.75 21.25 9.41421 21.25 9V6.75H12.722C12.3997 6.75 12.0881 6.63472 11.8434 6.425L8.72256 3.75H2.75V9.25H10C10.4142 9.25 10.75 9.58579 10.75 10C10.75 10.4142 10.4142 10.75 10 10.75H2.75V18.25H10C10.4142 18.25 10.75 18.5858 10.75 19C10.75 19.4142 10.4142 19.75 10 19.75H2.6C1.85441 19.75 1.25 19.1456 1.25 18.4V3.6ZM12.8196 5.28611C12.8195 5.28604 12.8197 5.28618 12.8196 5.28611V5.28611ZM12.25 12.6C12.25 11.8544 12.8544 11.25 13.6 11.25H21.4C22.1456 11.25 22.75 11.8544 22.75 12.6V20.4C22.75 21.1456 22.1456 21.75 21.4 21.75H13.6C12.8544 21.75 12.25 21.1456 12.25 20.4V12.6ZM13.75 12.75V20.25H21.25V12.75H13.75ZM16.75 15.3532V17.6468L18.5849 16.5L16.75 15.3532ZM15.25 15.0825C15.25 14.0222 16.4163 13.3758 17.3155 13.9378L19.5834 15.3552C20.4294 15.884 20.4294 17.116 19.5834 17.6448L17.3155 19.0623C16.4163 19.6242 15.25 18.9778 15.25 17.9175V15.0825Z" fill="black"/>
</g>
</g>
</g>
<defs>
<clipPath id="clip0_232_12363">
<rect width="24" height="24" rx="5" fill="white"/>
</clipPath>
</defs>
</svg>
