<svg width="24" height="24" viewBox="0 0 24 24" fill="none" xmlns="http://www.w3.org/2000/svg">
<g id="megaphone">
<g clip-path="url(#clip0_232_5975)">
<g id="Weight=Dynamic">
<path id="Vector (Stroke)" fill-rule="evenodd" clip-rule="evenodd" d="M20.25 3.29236L14.75 6.43521V13.5647L20.25 16.7076V3.29236ZM13.25 13.25V6.74997H7C5.20507 6.74997 3.75 8.20505 3.75 9.99997C3.75 11.7949 5.20507 13.25 7 13.25H13.25ZM10.3495 14.75H7.86476L8.49962 19.194C8.58618 19.7999 9.1051 20.25 9.71716 20.25C10.4656 20.25 11.0405 19.5871 10.9347 18.8461L10.3495 14.75ZM11.8648 14.75H13.8008L19.7302 18.1382C20.6302 18.6525 21.75 18.0026 21.75 16.9661V3.03388C21.75 1.99732 20.6302 1.34747 19.7302 1.86175L13.8008 5.24997H7C4.37665 5.24997 2.25 7.37662 2.25 9.99997C2.25 12.4004 4.03063 14.385 6.34309 14.7049L7.0147 19.4061C7.20682 20.751 8.35862 21.75 9.71716 21.75C11.3784 21.75 12.6546 20.2786 12.4196 18.634L11.8648 14.75Z" fill="black"/>
</g>
</g>
</g>
<defs>
<clipPath id="clip0_232_5975">
<rect width="24" height="24" rx="5" fill="white"/>
</clipPath>
</defs>
</svg>
