<svg width="24" height="24" viewBox="0 0 24 24" fill="none" xmlns="http://www.w3.org/2000/svg">
<g id="menu-scale">
<g clip-path="url(#clip0_232_1130)">
<g id="Weight=Dynamic">
<path id="Vector (Stroke)" fill-rule="evenodd" clip-rule="evenodd" d="M2.25 5C2.25 4.58579 2.58579 4.25 3 4.25H11C11.4142 4.25 11.75 4.58579 11.75 5C11.75 5.41421 11.4142 5.75 11 5.75H3C2.58579 5.75 2.25 5.41421 2.25 5ZM2.25 12C2.25 11.5858 2.58579 11.25 3 11.25H16C16.4142 11.25 16.75 11.5858 16.75 12C16.75 12.4142 16.4142 12.75 16 12.75H3C2.58579 12.75 2.25 12.4142 2.25 12ZM2.25 19C2.25 18.5858 2.58579 18.25 3 18.25H21C21.4142 18.25 21.75 18.5858 21.75 19C21.75 19.4142 21.4142 19.75 21 19.75H3C2.58579 19.75 2.25 19.4142 2.25 19Z" fill="black"/>
</g>
</g>
</g>
<defs>
<clipPath id="clip0_232_1130">
<rect width="24" height="24" rx="5" fill="white"/>
</clipPath>
</defs>
</svg>
