<svg width="24" height="24" viewBox="0 0 24 24" fill="none" xmlns="http://www.w3.org/2000/svg">
<g id="message-alert">
<g clip-path="url(#clip0_232_3087)">
<g id="Weight=Dynamic">
<path id="Vector (Stroke)" fill-rule="evenodd" clip-rule="evenodd" d="M5 3.75C4.30964 3.75 3.75 4.30964 3.75 5V19.8619L5.81386 17.2821C6.33573 16.6297 7.12584 16.25 7.96125 16.25H19C19.6904 16.25 20.25 15.6904 20.25 15V5C20.25 4.30964 19.6904 3.75 19 3.75H5ZM2.25 5C2.25 3.48122 3.48122 2.25 5 2.25H19C20.5188 2.25 21.75 3.48122 21.75 5V15C21.75 16.5188 20.5188 17.75 19 17.75H7.96125C7.58152 17.75 7.22238 17.9226 6.98516 18.2191L4.65417 21.1329C3.85699 22.1294 2.25 21.5657 2.25 20.2895V5ZM12 6.25C12.4142 6.25 12.75 6.58579 12.75 7V9C12.75 9.41421 12.4142 9.75 12 9.75C11.5858 9.75 11.25 9.41421 11.25 9V7C11.25 6.58579 11.5858 6.25 12 6.25ZM12.5117 12.4414C12.8196 12.7185 12.8446 13.1927 12.5675 13.5006L12.5575 13.5117C12.2804 13.8196 11.8062 13.8446 11.4983 13.5675C11.1904 13.2904 11.1654 12.8162 11.4425 12.5083L11.4525 12.4972C11.7296 12.1893 12.2038 12.1643 12.5117 12.4414Z" fill="black"/>
</g>
</g>
</g>
<defs>
<clipPath id="clip0_232_3087">
<rect width="24" height="24" rx="5" fill="white"/>
</clipPath>
</defs>
</svg>
