<svg width="24" height="24" viewBox="0 0 24 24" fill="none" xmlns="http://www.w3.org/2000/svg">
<g id="meter-arrow-down-right">
<g clip-path="url(#clip0_232_10167)">
<g id="Weight=Dynamic">
<path id="Vector (Stroke)" fill-rule="evenodd" clip-rule="evenodd" d="M5.18934 7.24979L1.96973 4.03043L3.03035 2.96973L6.25004 6.18917L6.25004 4.00008C6.25003 3.58587 6.58582 3.25008 7.00003 3.25008C7.41425 3.25008 7.75003 3.58586 7.75004 4.00007L7.75005 7.99974C7.75005 8.41394 7.41428 8.74973 7.00007 8.74974L3.00016 8.74985C2.58595 8.74986 2.25015 8.41408 2.25014 7.99987C2.25013 7.58565 2.58591 7.24986 3.00012 7.24985L5.18934 7.24979ZM14.4999 9.74997C10.756 9.74997 7.74993 12.7132 7.74993 16.3333C7.74993 17.3494 7.98543 18.3101 8.40594 19.1682C8.4211 19.1992 8.47204 19.25 8.57358 19.25H20.4263C20.5278 19.25 20.5788 19.1992 20.5939 19.1682C21.0144 18.3101 21.2499 17.3494 21.2499 16.3333C21.2499 12.7132 18.2438 9.74997 14.4999 9.74997ZM6.24993 16.3333C6.24993 11.8532 9.95956 8.24997 14.4999 8.24997C19.0403 8.24997 22.7499 11.8532 22.7499 16.3333C22.7499 17.5841 22.4595 18.7701 21.9409 19.8283C21.6449 20.4322 21.0317 20.75 20.4263 20.75H8.57358C7.96817 20.75 7.35491 20.4322 7.05899 19.8283C6.54039 18.7701 6.24993 17.5841 6.24993 16.3333ZM10.9696 11.9696C11.2625 11.6767 11.7374 11.6767 12.0303 11.9696L15.5303 15.4696L14.4696 16.5303L10.9696 13.0303C10.6767 12.7374 10.6767 12.2625 10.9696 11.9696Z" fill="black"/>
</g>
</g>
</g>
<defs>
<clipPath id="clip0_232_10167">
<rect width="24" height="24" rx="5" fill="white"/>
</clipPath>
</defs>
</svg>
