<svg width="24" height="24" viewBox="0 0 24 24" fill="none" xmlns="http://www.w3.org/2000/svg">
<g id="metro">
<g clip-path="url(#clip0_232_15970)">
<g id="Weight=Dynamic">
<path id="Vector (Stroke)" fill-rule="evenodd" clip-rule="evenodd" d="M12 2.75C6.89136 2.75 2.75 6.89136 2.75 12V15C2.75 17.3472 4.6528 19.25 7 19.25H7.12697C5.97368 18.1984 5.25 16.6837 5.25 15V12C5.25 8.82437 7.82437 6.25 11 6.25H13C16.1756 6.25 18.75 8.82436 18.75 12V15C18.75 16.6837 18.0263 18.1984 16.873 19.25H17C19.3472 19.25 21.25 17.3472 21.25 15V12C21.25 6.89137 17.1086 2.75 12 2.75ZM13 19.25C15.3472 19.25 17.25 17.3472 17.25 15V12C17.25 9.6528 15.3472 7.75 13 7.75H11C8.65279 7.75 6.75 9.65279 6.75 12V15C6.75 17.3472 8.6528 19.25 11 19.25H13ZM6.00777 20.6647C3.30499 20.1946 1.25 17.8372 1.25 15V12C1.25 6.06294 6.06294 1.25 12 1.25C17.937 1.25 22.75 6.06293 22.75 12V15C22.75 17.8372 20.695 20.1946 17.9922 20.6647L19.0857 22.0315C19.3444 22.3549 19.292 22.8269 18.9685 23.0857C18.6451 23.3444 18.1731 23.292 17.9143 22.9685L16.1395 20.75H15.0605L16.0857 22.0315C16.3444 22.3549 16.292 22.8269 15.9685 23.0857C15.6451 23.3444 15.1731 23.292 14.9143 22.9685L13.1395 20.75H10.8605L9.08565 22.9685C8.82689 23.292 8.35493 23.3444 8.03148 23.0857C7.70803 22.8269 7.65559 22.3549 7.91435 22.0315L8.93953 20.75H7.86047L6.08565 22.9685C5.82689 23.292 5.35493 23.3444 5.03148 23.0857C4.70803 22.8269 4.65559 22.3549 4.91435 22.0315L6.00777 20.6647ZM10.8991 11.25H13.1009C12.9194 10.9503 12.5902 10.75 12.2143 10.75H11.7857C11.4098 10.75 11.0806 10.9503 10.8991 11.25ZM9.25 11.7857C9.25 10.3853 10.3853 9.25 11.7857 9.25H12.2143C13.6147 9.25 14.75 10.3853 14.75 11.7857C14.75 12.3183 14.3183 12.75 13.7857 12.75H10.2143C9.68169 12.75 9.25 12.3183 9.25 11.7857ZM10.512 15.4417C10.8198 15.7189 10.8445 16.1932 10.5672 16.5009L10.5572 16.512C10.28 16.8198 9.80573 16.8445 9.49799 16.5672C9.19025 16.29 9.16554 15.8157 9.44279 15.508L9.45279 15.4969C9.73004 15.1892 10.2043 15.1644 10.512 15.4417ZM14.512 15.4417C14.8198 15.7189 14.8445 16.1932 14.5672 16.5009L14.5572 16.512C14.28 16.8198 13.8057 16.8445 13.498 16.5672C13.1902 16.29 13.1655 15.8157 13.4428 15.508L13.4528 15.4969C13.73 15.1892 14.2043 15.1644 14.512 15.4417Z" fill="black"/>
</g>
</g>
</g>
<defs>
<clipPath id="clip0_232_15970">
<rect width="24" height="24" rx="5" fill="white"/>
</clipPath>
</defs>
</svg>
