<svg width="24" height="24" viewBox="0 0 24 24" fill="none" xmlns="http://www.w3.org/2000/svg">
<g id="microphone-warning">
<g clip-path="url(#clip0_232_16826)">
<g id="Weight=Dynamic">
<path id="Vector (Stroke)" fill-rule="evenodd" clip-rule="evenodd" d="M6.25 5C6.25 2.92893 7.92893 1.25 10 1.25C12.0711 1.25 13.75 2.92893 13.75 5V11C13.75 13.0711 12.0711 14.75 10 14.75C7.92893 14.75 6.25 13.0711 6.25 11V5ZM10 2.75C8.75736 2.75 7.75 3.75736 7.75 5V11C7.75 12.2426 8.75736 13.25 10 13.25C11.2426 13.25 12.25 12.2426 12.25 11V5C12.25 3.75736 11.2426 2.75 10 2.75ZM3 9.25C3.41421 9.25 3.75 9.58579 3.75 10V11C3.75 14.4518 6.54822 17.25 10 17.25C13.4518 17.25 16.25 14.4518 16.25 11V10C16.25 9.58579 16.5858 9.25 17 9.25C17.4142 9.25 17.75 9.58579 17.75 10V11C17.75 15.0272 14.6783 18.337 10.75 18.7142V21.25H13C13.4142 21.25 13.75 21.5858 13.75 22C13.75 22.4142 13.4142 22.75 13 22.75H7C6.58579 22.75 6.25 22.4142 6.25 22C6.25 21.5858 6.58579 21.25 7 21.25H9.25V18.7142C5.3217 18.337 2.25 15.0272 2.25 11V10C2.25 9.58579 2.58579 9.25 3 9.25ZM21 13.25C21.4142 13.25 21.75 13.5858 21.75 14V18C21.75 18.4142 21.4142 18.75 21 18.75C20.5858 18.75 20.25 18.4142 20.25 18V14C20.25 13.5858 20.5858 13.25 21 13.25ZM21.5117 21.4414C21.8196 21.7185 21.8446 22.1927 21.5675 22.5006L21.5575 22.5117C21.2804 22.8196 20.8062 22.8446 20.4983 22.5675C20.1904 22.2904 20.1654 21.8162 20.4425 21.5083L20.4525 21.4972C20.7296 21.1893 21.2038 21.1643 21.5117 21.4414Z" fill="black"/>
</g>
</g>
</g>
<defs>
<clipPath id="clip0_232_16826">
<rect width="24" height="24" rx="5" fill="white"/>
</clipPath>
</defs>
</svg>
