<svg width="24" height="24" viewBox="0 0 24 24" fill="none" xmlns="http://www.w3.org/2000/svg">
<g id="microscope">
<g clip-path="url(#clip0_232_13829)">
<g id="Weight=Dynamic">
<path id="Vector (Stroke)" fill-rule="evenodd" clip-rule="evenodd" d="M11.25 2C11.25 1.58579 11.5858 1.25 12 1.25H16C16.4142 1.25 16.75 1.58579 16.75 2C16.75 2.41421 16.4142 2.75 16 2.75H12C11.5858 2.75 11.25 2.41421 11.25 2ZM11.25 4.6C11.25 3.85441 11.8544 3.25 12.6 3.25H15.4C16.1456 3.25 16.75 3.85441 16.75 4.6V11.4C16.75 12.1456 16.1456 12.75 15.4 12.75H12.6C11.8544 12.75 11.25 12.1456 11.25 11.4V7.7744C10.1837 7.84746 9.37196 8.08456 8.81093 8.4853C8.17542 8.93923 7.75 9.68494 7.75 11V12.325C9.21935 12.6233 10.3767 13.7807 10.675 15.25H19C19.4142 15.25 19.75 15.5858 19.75 16C19.75 16.4142 19.4142 16.75 19 16.75H10.675C10.3767 18.2193 9.21935 19.3767 7.75 19.675V21.25H19C19.4142 21.25 19.75 21.5858 19.75 22C19.75 22.4142 19.4142 22.75 19 22.75H5C4.58579 22.75 4.25 22.4142 4.25 22C4.25 21.5858 4.58579 21.25 5 21.25H6.25V19.675C4.53832 19.3275 3.25 17.8142 3.25 16C3.25 14.1858 4.53832 12.6725 6.25 12.325V11C6.25 9.31506 6.82458 8.06077 7.93907 7.2647C8.82996 6.62835 9.98388 6.34628 11.25 6.27132V4.6ZM12.75 11.25H15.25V4.75H12.75V11.25ZM7 13.75C5.75736 13.75 4.75 14.7574 4.75 16C4.75 17.2426 5.75736 18.25 7 18.25C8.24264 18.25 9.25 17.2426 9.25 16C9.25 14.7574 8.24264 13.75 7 13.75Z" fill="black"/>
</g>
</g>
</g>
<defs>
<clipPath id="clip0_232_13829">
<rect width="24" height="24" rx="5" fill="white"/>
</clipPath>
</defs>
</svg>
