<svg width="24" height="24" viewBox="0 0 24 24" fill="none" xmlns="http://www.w3.org/2000/svg">
<g id="microphone">
<g clip-path="url(#clip0_232_16918)">
<g id="Weight=Dynamic">
<path id="Vector (Stroke)" fill-rule="evenodd" clip-rule="evenodd" d="M8.25 5C8.25 2.92893 9.92893 1.25 12 1.25C14.0711 1.25 15.75 2.92893 15.75 5V11C15.75 13.0711 14.0711 14.75 12 14.75C9.92893 14.75 8.25 13.0711 8.25 11V5ZM12 2.75C10.7574 2.75 9.75 3.75736 9.75 5V11C9.75 12.2426 10.7574 13.25 12 13.25C13.2426 13.25 14.25 12.2426 14.25 11V5C14.25 3.75736 13.2426 2.75 12 2.75ZM5 9.25C5.41421 9.25 5.75 9.58579 5.75 10V11C5.75 14.4518 8.54822 17.25 12 17.25C15.4518 17.25 18.25 14.4518 18.25 11V10C18.25 9.58579 18.5858 9.25 19 9.25C19.4142 9.25 19.75 9.58579 19.75 10V11C19.75 15.0272 16.6783 18.337 12.75 18.7142V21.25H15C15.4142 21.25 15.75 21.5858 15.75 22C15.75 22.4142 15.4142 22.75 15 22.75H9C8.58579 22.75 8.25 22.4142 8.25 22C8.25 21.5858 8.58579 21.25 9 21.25H11.25V18.7142C7.3217 18.337 4.25 15.0272 4.25 11V10C4.25 9.58579 4.58579 9.25 5 9.25Z" fill="black"/>
</g>
</g>
</g>
<defs>
<clipPath id="clip0_232_16918">
<rect width="24" height="24" rx="5" fill="white"/>
</clipPath>
</defs>
</svg>
