<svg width="24" height="24" viewBox="0 0 24 24" fill="none" xmlns="http://www.w3.org/2000/svg">
<g id="microphone-mute">
<g clip-path="url(#clip0_232_17297)">
<g id="Weight=Dynamic">
<path id="Vector (Stroke)" fill-rule="evenodd" clip-rule="evenodd" d="M8.25 5C8.25 2.92893 9.92893 1.25 12 1.25C14.0711 1.25 15.75 2.92893 15.75 5V10.5C15.75 10.9142 15.4142 11.25 15 11.25C14.5858 11.25 14.25 10.9142 14.25 10.5V5C14.25 3.75736 13.2426 2.75 12 2.75C10.7574 2.75 9.75 3.75736 9.75 5V5.5C9.75 5.91421 9.41421 6.25 9 6.25C8.58579 6.25 8.25 5.91421 8.25 5.5V5ZM2.46967 2.46967C2.76256 2.17678 3.23744 2.17678 3.53033 2.46967L16.4497 15.389C17.5637 14.2598 18.25 12.7103 18.25 11V10C18.25 9.58579 18.5858 9.25 19 9.25C19.4142 9.25 19.75 9.58579 19.75 10V11C19.75 13.1249 18.8942 15.0503 17.5103 16.4496L21.5303 20.4697C21.8232 20.7626 21.8232 21.2374 21.5303 21.5303C21.2374 21.8232 20.7626 21.8232 20.4697 21.5303L16.3525 17.4132C15.3064 18.1244 14.0767 18.5866 12.75 18.7141V21.25H15C15.4142 21.25 15.75 21.5858 15.75 22C15.75 22.4142 15.4142 22.75 15 22.75H9C8.58579 22.75 8.25 22.4142 8.25 22C8.25 21.5858 8.58579 21.25 9 21.25H11.25V18.7142C7.3217 18.337 4.25 15.0272 4.25 11V10C4.25 9.58579 4.58579 9.25 5 9.25C5.41421 9.25 5.75 9.58579 5.75 10V11C5.75 14.4518 8.54822 17.25 12 17.25C13.1986 17.25 14.3173 16.9132 15.268 16.3287L13.6806 14.7413C10.7593 14.5813 8.41865 12.2407 8.25872 9.31938L2.46967 3.53033C2.17678 3.23744 2.17678 2.76256 2.46967 2.46967Z" fill="black"/>
</g>
</g>
</g>
<defs>
<clipPath id="clip0_232_17297">
<rect width="24" height="24" rx="5" fill="white"/>
</clipPath>
</defs>
</svg>
