<svg width="24" height="24" viewBox="0 0 24 24" fill="none" xmlns="http://www.w3.org/2000/svg">
<g id="microphone-plus">
<g clip-path="url(#clip0_232_17089)">
<g id="Weight=Dynamic">
<path id="Vector (Stroke)" fill-rule="evenodd" clip-rule="evenodd" d="M4.25 5C4.25 2.92893 5.92893 1.25 8 1.25C10.0711 1.25 11.75 2.92893 11.75 5V11C11.75 13.0711 10.0711 14.75 8 14.75C5.92893 14.75 4.25 13.0711 4.25 11V5ZM8 2.75C6.75736 2.75 5.75 3.75736 5.75 5V11C5.75 12.2426 6.75736 13.25 8 13.25C9.24264 13.25 10.25 12.2426 10.25 11V5C10.25 3.75736 9.24264 2.75 8 2.75ZM1 9.25C1.41421 9.25 1.75 9.58579 1.75 10V11C1.75 14.4518 4.54822 17.25 8 17.25C11.4518 17.25 14.25 14.4518 14.25 11V10C14.25 9.58579 14.5858 9.25 15 9.25C15.4142 9.25 15.75 9.58579 15.75 10V11C15.75 15.0272 12.6783 18.337 8.75 18.7142V21.25H11C11.4142 21.25 11.75 21.5858 11.75 22C11.75 22.4142 11.4142 22.75 11 22.75H5C4.58579 22.75 4.25 22.4142 4.25 22C4.25 21.5858 4.58579 21.25 5 21.25H7.25V18.7142C3.3217 18.337 0.25 15.0272 0.25 11V10C0.25 9.58579 0.585786 9.25 1 9.25ZM19.9922 15.25C20.4064 15.25 20.7422 15.5858 20.7422 16V18.25H22.9922C23.4064 18.25 23.7422 18.5858 23.7422 19C23.7422 19.4142 23.4064 19.75 22.9922 19.75H20.7422V22C20.7422 22.4142 20.4064 22.75 19.9922 22.75C19.578 22.75 19.2422 22.4142 19.2422 22V19.75H16.9922C16.578 19.75 16.2422 19.4142 16.2422 19C16.2422 18.5858 16.578 18.25 16.9922 18.25H19.2422V16C19.2422 15.5858 19.578 15.25 19.9922 15.25Z" fill="black"/>
</g>
</g>
</g>
<defs>
<clipPath id="clip0_232_17089">
<rect width="24" height="24" rx="5" fill="white"/>
</clipPath>
</defs>
</svg>
