<svg width="24" height="24" viewBox="0 0 24 24" fill="none" xmlns="http://www.w3.org/2000/svg">
<g id="minus-hexagon">
<g clip-path="url(#clip0_232_13152)">
<g id="Weight=Dynamic">
<path id="Vector (Stroke)" fill-rule="evenodd" clip-rule="evenodd" d="M11.3249 0.5237C11.7426 0.282546 12.2572 0.282546 12.6749 0.5237L21.6012 5.67729C22.0189 5.91845 22.2762 6.36412 22.2762 6.84642V17.1536C22.2762 17.6359 22.0189 18.0816 21.6012 18.3227L12.6749 23.4763C12.2572 23.7175 11.7426 23.7175 11.3249 23.4763L2.39863 18.3227C1.98094 18.0816 1.72363 17.6359 1.72363 17.1536V6.84642C1.72363 6.36412 1.98094 5.91844 2.39863 5.67729L11.3249 0.5237ZM11.9999 1.86604L3.22363 6.93303V17.067L11.9999 22.134L20.7762 17.067V6.93303L11.9999 1.86604ZM8.24991 12C8.24991 11.5858 8.5857 11.25 8.99991 11.25H14.9999C15.4141 11.25 15.7499 11.5858 15.7499 12C15.7499 12.4142 15.4141 12.75 14.9999 12.75H8.99991C8.5857 12.75 8.24991 12.4142 8.24991 12Z" fill="black"/>
</g>
</g>
</g>
<defs>
<clipPath id="clip0_232_13152">
<rect width="24" height="24" rx="5" fill="white"/>
</clipPath>
</defs>
</svg>
