<svg width="24" height="24" viewBox="0 0 24 24" fill="none" xmlns="http://www.w3.org/2000/svg">
<g id="mirror">
<g clip-path="url(#clip0_232_9198)">
<g id="Weight=Dynamic">
<path id="Vector (Stroke)" fill-rule="evenodd" clip-rule="evenodd" d="M3.25 4C3.25 2.48122 4.48122 1.25 6 1.25H18C19.5188 1.25 20.75 2.48122 20.75 4V4.99428C20.75 4.99782 20.75 5.00137 20.75 5.00492V8.99313C20.75 8.99739 20.75 9.00166 20.75 9.00592V20C20.75 21.5188 19.5188 22.75 18 22.75H6C4.48122 22.75 3.25 21.5188 3.25 20V4ZM19.25 8.63953L12.0315 14.4143C11.708 14.6731 11.6556 15.1451 11.9143 15.4685C12.1731 15.792 12.6451 15.8444 12.9685 15.5857L19.25 10.5605V20C19.25 20.6904 18.6904 21.25 18 21.25H6C5.30964 21.25 4.75 20.6904 4.75 20V4C4.75 3.30964 5.30964 2.75 6 2.75H18C18.6904 2.75 19.25 3.30964 19.25 4V4.64872L13.5199 9.42383C13.2017 9.68901 13.1587 10.1619 13.4238 10.4801C13.689 10.7983 14.1619 10.8413 14.4801 10.5762L19.25 6.60128V8.63953Z" fill="black"/>
</g>
</g>
</g>
<defs>
<clipPath id="clip0_232_9198">
<rect width="24" height="24" rx="5" fill="white"/>
</clipPath>
</defs>
</svg>
