<svg width="24" height="24" viewBox="0 0 24 24" fill="none" xmlns="http://www.w3.org/2000/svg">
<g id="mobile-voice">
<g clip-path="url(#clip0_232_9550)">
<g id="Weight=Dynamic">
<path id="Vector (Stroke)" fill-rule="evenodd" clip-rule="evenodd" d="M16 2.25C16.4142 2.25 16.75 2.58579 16.75 3V13C16.75 13.4142 16.4142 13.75 16 13.75C15.5858 13.75 15.25 13.4142 15.25 13V3C15.25 2.58579 15.5858 2.25 16 2.25ZM19 3.25C19.4142 3.25 19.75 3.58579 19.75 4V12C19.75 12.4142 19.4142 12.75 19 12.75C18.5858 12.75 18.25 12.4142 18.25 12V4C18.25 3.58579 18.5858 3.25 19 3.25ZM3.75 5.75H8C8.41421 5.75 8.75 5.41421 8.75 5C8.75 4.58579 8.41421 4.25 8 4.25H3.6C2.85442 4.25 2.25 4.85442 2.25 5.6V20.4C2.25 21.1456 2.85442 21.75 3.6 21.75H12.4C13.1456 21.75 13.75 21.1456 13.75 20.4V16C13.75 15.5858 13.4142 15.25 13 15.25C12.5858 15.25 12.25 15.5858 12.25 16V20.25H3.75V5.75ZM13 4.25C13.4142 4.25 13.75 4.58579 13.75 5V11C13.75 11.4142 13.4142 11.75 13 11.75C12.5858 11.75 12.25 11.4142 12.25 11V5C12.25 4.58579 12.5858 4.25 13 4.25ZM10 6.25C10.4142 6.25 10.75 6.58579 10.75 7V9C10.75 9.41421 10.4142 9.75 10 9.75C9.58579 9.75 9.25 9.41421 9.25 9L9.25 7C9.25 6.58579 9.58579 6.25 10 6.25ZM22 6.25C22.4142 6.25 22.75 6.58579 22.75 7V9C22.75 9.41421 22.4142 9.75 22 9.75C21.5858 9.75 21.25 9.41421 21.25 9V7C21.25 6.58579 21.5858 6.25 22 6.25ZM8.51173 16.4414C8.81961 16.7185 8.84456 17.1927 8.56747 17.5006L8.55747 17.5117C8.28037 17.8196 7.80616 17.8446 7.49827 17.5675C7.19039 17.2904 7.16544 16.8162 7.44253 16.5083L7.45253 16.4972C7.72963 16.1893 8.20385 16.1643 8.51173 16.4414Z" fill="black"/>
</g>
</g>
</g>
<defs>
<clipPath id="clip0_232_9550">
<rect width="24" height="24" rx="5" fill="white"/>
</clipPath>
</defs>
</svg>
