<svg width="24" height="24" viewBox="0 0 24 24" fill="none" xmlns="http://www.w3.org/2000/svg">
<g id="mobile-fingerprint">
<g clip-path="url(#clip0_232_9688)">
<g id="Weight=Dynamic">
<path id="Vector (Stroke)" fill-rule="evenodd" clip-rule="evenodd" d="M17 2.75C16.1037 2.75 15.279 2.9859 14.6004 3.38213C14.2427 3.59099 13.7834 3.47034 13.5745 3.11264C13.3657 2.75494 13.4863 2.29565 13.844 2.08679C14.7544 1.5552 15.8406 1.25 17 1.25C19.5547 1.25 21.7988 2.74451 22.5166 4.91445C22.6467 5.30771 22.4334 5.73196 22.0401 5.86205C21.6469 5.99214 21.2226 5.7788 21.0925 5.38555C20.6066 3.91672 19.0043 2.75 17 2.75ZM12.5662 4.21259C12.9501 4.36814 13.1352 4.80545 12.9796 5.18934C12.8305 5.55745 12.75 5.95134 12.75 6.36154V11C12.75 11.4142 12.4142 11.75 12 11.75C11.5858 11.75 11.25 11.4142 11.25 11V6.36154C11.25 5.7522 11.37 5.1674 11.5894 4.62604C11.745 4.24215 12.1823 4.05703 12.5662 4.21259ZM3.75 5.75H8C8.41421 5.75 8.75 5.41421 8.75 5C8.75 4.58579 8.41421 4.25 8 4.25H3.6C2.85442 4.25 2.25 4.85442 2.25 5.6V20.4C2.25 21.1456 2.85442 21.75 3.6 21.75H12.4C13.1456 21.75 13.75 21.1456 13.75 20.4V16C13.75 15.5858 13.4142 15.25 13 15.25C12.5858 15.25 12.25 15.5858 12.25 16V20.25H3.75V5.75ZM17 5.75C16.2547 5.75 15.75 6.29671 15.75 6.85294V7.64706C15.75 8.06127 15.4142 8.39706 15 8.39706C14.5858 8.39706 14.25 8.06127 14.25 7.64706V6.85294C14.25 5.36247 15.5362 4.25 17 4.25C18.4638 4.25 19.75 5.36247 19.75 6.85294V12C19.75 12.4142 19.4142 12.75 19 12.75C18.5858 12.75 18.25 12.4142 18.25 12V6.85294C18.25 6.29671 17.7453 5.75 17 5.75ZM22 7.06538C22.4142 7.06538 22.75 7.40117 22.75 7.81538V11C22.75 11.4142 22.4142 11.75 22 11.75C21.5858 11.75 21.25 11.4142 21.25 11V7.81538C21.25 7.40117 21.5858 7.06538 22 7.06538ZM15 9.07353C15.4142 9.07353 15.75 9.40932 15.75 9.82353V12C15.75 12.4142 15.4142 12.75 15 12.75C14.5858 12.75 14.25 12.4142 14.25 12V9.82353C14.25 9.40932 14.5858 9.07353 15 9.07353ZM8.51173 16.4414C8.81961 16.7185 8.84456 17.1927 8.56747 17.5006L8.55747 17.5117C8.28037 17.8196 7.80616 17.8446 7.49827 17.5675C7.19039 17.2904 7.16544 16.8162 7.44253 16.5083L7.45253 16.4972C7.72963 16.1893 8.20385 16.1643 8.51173 16.4414Z" fill="black"/>
</g>
</g>
</g>
<defs>
<clipPath id="clip0_232_9688">
<rect width="24" height="24" rx="5" fill="white"/>
</clipPath>
</defs>
</svg>
