<svg width="24" height="24" viewBox="0 0 24 24" fill="none" xmlns="http://www.w3.org/2000/svg">
<g id="modern-tv-4k">
<g clip-path="url(#clip0_232_5797)">
<g id="Weight=Dynamic">
<path id="Vector (Stroke)" fill-rule="evenodd" clip-rule="evenodd" d="M2.75 3.75V16.25H21.25V3.75H2.75ZM1.25 3.6C1.25 2.85441 1.85442 2.25 2.6 2.25H21.4C22.1456 2.25 22.75 2.85442 22.75 3.6V16.4C22.75 17.1456 22.1456 17.75 21.4 17.75H2.6C1.85442 17.75 1.25 17.1456 1.25 16.4V3.6ZM9.91603 6.37596C10.2607 6.60573 10.3538 7.07138 10.124 7.41603L7.90139 10.75H10C10.4142 10.75 10.75 11.0858 10.75 11.5V13C10.75 13.4142 10.4142 13.75 10 13.75C9.58579 13.75 9.25 13.4142 9.25 13V12.25H6.5C6.2234 12.25 5.96926 12.0978 5.83874 11.8539C5.70823 11.61 5.72253 11.3141 5.87596 11.084L8.87596 6.58398C9.10573 6.23933 9.57138 6.1462 9.91603 6.37596ZM17.4939 6.43557C17.8056 6.70833 17.8372 7.18215 17.5644 7.49388L15.794 9.51722L17.6439 12.6155C17.8563 12.9712 17.7401 13.4316 17.3845 13.6439C17.0288 13.8563 16.5684 13.7401 16.3561 13.3845L14.7556 10.704L14.25 11.2818V13C14.25 13.4142 13.9142 13.75 13.5 13.75C13.0858 13.75 12.75 13.4142 12.75 13L12.75 7C12.75 6.58579 13.0858 6.25 13.5 6.25C13.9142 6.25 14.25 6.58579 14.25 7L14.25 9.00391L16.4356 6.50612C16.7083 6.19439 17.1821 6.16281 17.4939 6.43557ZM6.25 21C6.25 20.5858 6.58579 20.25 7 20.25H17C17.4142 20.25 17.75 20.5858 17.75 21C17.75 21.4142 17.4142 21.75 17 21.75H7C6.58579 21.75 6.25 21.4142 6.25 21Z" fill="black"/>
</g>
</g>
</g>
<defs>
<clipPath id="clip0_232_5797">
<rect width="24" height="24" rx="5" fill="white"/>
</clipPath>
</defs>
</svg>
