<svg width="24" height="24" viewBox="0 0 24 24" fill="none" xmlns="http://www.w3.org/2000/svg">
<g id="moon-sat">
<g clip-path="url(#clip0_232_13845)">
<g id="Weight=Dynamic">
<path id="Vector (Stroke)" fill-rule="evenodd" clip-rule="evenodd" d="M3.73392 7.84408C3.10447 9.09361 2.75 10.5054 2.75 12C2.75 17.1086 6.89137 21.25 12 21.25C14.1266 21.25 16.0855 20.5324 17.6479 19.3261C16.2285 18.6378 15.25 17.1836 15.25 15.5C15.25 13.1528 17.1528 11.25 19.5 11.25C20.1207 11.25 20.7107 11.3833 21.2424 11.6227C21.0445 6.68899 16.9823 2.75 12 2.75C11.0978 2.75 10.2258 2.87916 9.40144 3.11999C10.2254 3.80768 10.7497 4.84223 10.7497 5.99995C10.7497 8.07102 9.07082 9.74995 6.99975 9.74995C5.59883 9.74995 4.37777 8.98208 3.73392 7.84408ZM4.76106 6.24093L4.76242 6.24079C4.8821 7.36982 5.83864 8.24995 6.99975 8.24995C8.24239 8.24995 9.24975 7.24259 9.24975 5.99995C9.24975 4.97937 8.56959 4.1161 7.63735 3.84136C6.52216 4.43894 5.54371 5.25848 4.76106 6.24093ZM21.1585 13.3061C20.6972 12.9566 20.1232 12.75 19.5 12.75C17.9812 12.75 16.75 13.9812 16.75 15.5C16.75 16.8061 17.6611 17.9005 18.8823 18.1805C20.0796 16.8481 20.8956 15.166 21.1585 13.3061ZM1.25 12C1.25 6.06294 6.06294 1.25 12 1.25C17.9371 1.25 22.75 6.06294 22.75 12C22.75 17.9371 17.9371 22.75 12 22.75C6.06294 22.75 1.25 17.9371 1.25 12ZM15.0117 7.94142C15.3196 8.21852 15.3446 8.69273 15.0675 9.00062L15.0575 9.01173C14.7804 9.31961 14.3062 9.34456 13.9983 9.06747C13.6904 8.79037 13.6654 8.31616 13.9425 8.00827L13.9525 7.99716C14.2296 7.68928 14.7038 7.66433 15.0117 7.94142ZM10 13.75C9.30964 13.75 8.75 14.3096 8.75 15C8.75 15.6904 9.30964 16.25 10 16.25C10.6904 16.25 11.25 15.6904 11.25 15C11.25 14.3096 10.6904 13.75 10 13.75ZM7.25 15C7.25 13.4812 8.48122 12.25 10 12.25C11.5188 12.25 12.75 13.4812 12.75 15C12.75 16.5188 11.5188 17.75 10 17.75C8.48122 17.75 7.25 16.5188 7.25 15Z" fill="black"/>
</g>
</g>
</g>
<defs>
<clipPath id="clip0_232_13845">
<rect width="24" height="24" rx="5" fill="white"/>
</clipPath>
</defs>
</svg>
