<svg width="24" height="24" viewBox="0 0 24 24" fill="none" xmlns="http://www.w3.org/2000/svg">
<g id="more-vert-circle">
<g clip-path="url(#clip0_232_11011)">
<g id="Weight=Dynamic">
<g id="Vector">
</g>
<path id="Vector (Stroke)" fill-rule="evenodd" clip-rule="evenodd" d="M12 2.75C6.89137 2.75 2.75 6.89137 2.75 12C2.75 17.1086 6.89137 21.25 12 21.25C17.1086 21.25 21.25 17.1086 21.25 12C21.25 6.89137 17.1086 2.75 12 2.75ZM1.25 12C1.25 6.06294 6.06294 1.25 12 1.25C17.9371 1.25 22.75 6.06294 22.75 12C22.75 17.9371 17.9371 22.75 12 22.75C6.06294 22.75 1.25 17.9371 1.25 12ZM12 7.25C12.1381 7.25 12.25 7.13807 12.25 7C12.25 6.86193 12.1381 6.75 12 6.75C11.8619 6.75 11.75 6.86193 11.75 7C11.75 7.13807 11.8619 7.25 12 7.25ZM10.75 7C10.75 6.30964 11.3096 5.75 12 5.75C12.6904 5.75 13.25 6.30964 13.25 7C13.25 7.69036 12.6904 8.25 12 8.25C11.3096 8.25 10.75 7.69036 10.75 7ZM12 12.25C12.1381 12.25 12.25 12.1381 12.25 12C12.25 11.8619 12.1381 11.75 12 11.75C11.8619 11.75 11.75 11.8619 11.75 12C11.75 12.1381 11.8619 12.25 12 12.25ZM10.75 12C10.75 11.3096 11.3096 10.75 12 10.75C12.6904 10.75 13.25 11.3096 13.25 12C13.25 12.6904 12.6904 13.25 12 13.25C11.3096 13.25 10.75 12.6904 10.75 12ZM12 17.25C12.1381 17.25 12.25 17.1381 12.25 17C12.25 16.8619 12.1381 16.75 12 16.75C11.8619 16.75 11.75 16.8619 11.75 17C11.75 17.1381 11.8619 17.25 12 17.25ZM10.75 17C10.75 16.3096 11.3096 15.75 12 15.75C12.6904 15.75 13.25 16.3096 13.25 17C13.25 17.6904 12.6904 18.25 12 18.25C11.3096 18.25 10.75 17.6904 10.75 17Z" fill="black"/>
</g>
</g>
</g>
<defs>
<clipPath id="clip0_232_11011">
<rect width="24" height="24" rx="5" fill="white"/>
</clipPath>
</defs>
</svg>
