<svg width="24" height="24" viewBox="0 0 24 24" fill="none" xmlns="http://www.w3.org/2000/svg">
<g id="motorcycle">
<g clip-path="url(#clip0_232_16066)">
<g id="Weight=Dynamic">
<path id="Vector (Stroke)" fill-rule="evenodd" clip-rule="evenodd" d="M17.5303 4.46967C17.8232 4.76256 17.8232 5.23744 17.5303 5.53033L16.8581 6.20257L18.228 10.3124C18.4793 10.2714 18.7371 10.25 19 10.25C21.6234 10.25 23.75 12.3766 23.75 15C23.75 17.6234 21.6234 19.75 19 19.75C16.3766 19.75 14.25 17.6234 14.25 15C14.25 13.1685 15.2865 11.5792 16.8049 10.7865L16.465 9.76664L13.657 13.3769L12.6964 15.7785C12.5825 16.0633 12.3067 16.25 12 16.25H9.58381C9.03509 18.2669 7.19074 19.75 5 19.75C2.37665 19.75 0.25 17.6234 0.25 15C0.25 12.3766 2.37665 10.25 5 10.25C5.68257 10.25 6.33151 10.394 6.91812 10.6532L7.51553 10.2549C5.80861 9.31251 3.51328 9.42755 1.95 10.6C1.61863 10.8485 1.14853 10.7814 0.900003 10.45C0.651473 10.1187 0.718627 9.64855 1.05 9.40002C3.29273 7.71795 6.61235 7.70019 8.87782 9.34673L11.084 7.87596C11.2072 7.79383 11.3519 7.75 11.5 7.75L15.7928 7.75L15.2885 6.23717C15.1987 5.96767 15.2688 5.67054 15.4697 5.46967L16.4697 4.46967C16.7626 4.17678 17.2374 4.17678 17.5303 4.46967ZM14.9665 9.25L11.7271 9.25L8.26998 11.5547C9.12522 12.3667 9.6784 13.4938 9.74353 14.75H11.4922L12.3036 12.7215C12.3297 12.6562 12.3649 12.595 12.408 12.5395L14.9665 9.25ZM8.24053 14.75C8.11287 13.0719 6.71081 11.75 5 11.75C3.20507 11.75 1.75 13.2051 1.75 15C1.75 16.7949 3.20507 18.25 5 18.25C6.35198 18.25 7.51114 17.4245 8.00092 16.25H5.5C5.08579 16.25 4.75 15.9142 4.75 15.5C4.75 15.0858 5.08579 14.75 5.5 14.75H8.24053ZM17.2883 12.2367C16.3649 12.81 15.75 13.8332 15.75 15C15.75 16.7949 17.2051 18.25 19 18.25C20.7949 18.25 22.25 16.7949 22.25 15C22.25 13.2051 20.7949 11.75 19 11.75C18.9028 11.75 18.8065 11.7543 18.7114 11.7626L19.7115 14.7628C19.8425 15.1558 19.6301 15.5805 19.2372 15.7115C18.8442 15.8425 18.4195 15.6301 18.2885 15.2372L17.2883 12.2367Z" fill="black"/>
</g>
</g>
</g>
<defs>
<clipPath id="clip0_232_16066">
<rect width="24" height="24" rx="5" fill="white"/>
</clipPath>
</defs>
</svg>
