<svg width="24" height="24" viewBox="0 0 24 24" fill="none" xmlns="http://www.w3.org/2000/svg">
<g id="mouse-scroll-wheel">
<g clip-path="url(#clip0_232_15113)">
<g id="Weight=Dynamic">
<path id="Vector (Stroke)" fill-rule="evenodd" clip-rule="evenodd" d="M12 2.75C7.99594 2.75 4.75 5.99594 4.75 10V14C4.75 18.0041 7.99594 21.25 12 21.25C16.0041 21.25 19.25 18.0041 19.25 14V10C19.25 5.99594 16.0041 2.75 12 2.75ZM3.25 10C3.25 5.16751 7.16751 1.25 12 1.25C16.8325 1.25 20.75 5.16751 20.75 10V14C20.75 18.8325 16.8325 22.75 12 22.75C7.16751 22.75 3.25 18.8325 3.25 14V10ZM9.46967 6.46967L11.4697 4.46967C11.7626 4.17678 12.2374 4.17678 12.5303 4.46967L14.5303 6.46967C14.8232 6.76256 14.8232 7.23744 14.5303 7.53033C14.2374 7.82322 13.7626 7.82322 13.4697 7.53033L12.75 6.81066V11.1893L13.4697 10.4697C13.7626 10.1768 14.2374 10.1768 14.5303 10.4697C14.8232 10.7626 14.8232 11.2374 14.5303 11.5303L12.5303 13.5303C12.2374 13.8232 11.7626 13.8232 11.4697 13.5303L9.46967 11.5303C9.17678 11.2374 9.17678 10.7626 9.46967 10.4697C9.76256 10.1768 10.2374 10.1768 10.5303 10.4697L11.25 11.1893V6.81066L10.5303 7.53033C10.2374 7.82322 9.76256 7.82322 9.46967 7.53033C9.17678 7.23744 9.17678 6.76256 9.46967 6.46967Z" fill="black"/>
</g>
</g>
</g>
<defs>
<clipPath id="clip0_232_15113">
<rect width="24" height="24" rx="5" fill="white"/>
</clipPath>
</defs>
</svg>
