<svg width="24" height="24" viewBox="0 0 24 24" fill="none" xmlns="http://www.w3.org/2000/svg">
<g id="movie">
<g clip-path="url(#clip0_232_1964)">
<g id="Weight=Dynamic">
<path id="Vector (Stroke)" fill-rule="evenodd" clip-rule="evenodd" d="M3.75 2.75V21.25H6.25V20C6.25 19.5858 6.58579 19.25 7 19.25C7.41421 19.25 7.75 19.5858 7.75 20V21.25H16.25V20C16.25 19.5858 16.5858 19.25 17 19.25C17.4142 19.25 17.75 19.5858 17.75 20V21.25H20.25V2.75H17.75V4C17.75 4.41421 17.4142 4.75 17 4.75C16.5858 4.75 16.25 4.41421 16.25 4V2.75H7.75V4C7.75 4.41421 7.41421 4.75 7 4.75C6.58579 4.75 6.25 4.41421 6.25 4V2.75H3.75ZM2.25 2.6C2.25 1.85442 2.85442 1.25 3.6 1.25H20.4C21.1456 1.25 21.75 1.85442 21.75 2.6V21.4C21.75 22.1456 21.1456 22.75 20.4 22.75H3.6C2.85442 22.75 2.25 22.1456 2.25 21.4V2.6ZM7.51173 7.44142C7.81961 7.71852 7.84456 8.19273 7.56747 8.50062L7.55747 8.51173C7.28037 8.81961 6.80616 8.84456 6.49827 8.56747C6.19039 8.29037 6.16544 7.81616 6.44253 7.50827L6.45253 7.49716C6.72963 7.18928 7.20385 7.16433 7.51173 7.44142ZM17.5117 7.44142C17.8196 7.71852 17.8446 8.19273 17.5675 8.50062L17.5575 8.51173C17.2804 8.81961 16.8062 8.84456 16.4983 8.56747C16.1904 8.29037 16.1654 7.81616 16.4425 7.50827L16.4525 7.49716C16.7296 7.18928 17.2038 7.16433 17.5117 7.44142ZM7.51173 11.4414C7.81961 11.7185 7.84456 12.1927 7.56747 12.5006L7.55747 12.5117C7.28037 12.8196 6.80616 12.8446 6.49827 12.5675C6.19039 12.2904 6.16544 11.8162 6.44253 11.5083L6.45253 11.4972C6.72963 11.1893 7.20385 11.1643 7.51173 11.4414ZM17.5117 11.4414C17.8196 11.7185 17.8446 12.1927 17.5675 12.5006L17.5575 12.5117C17.2804 12.8196 16.8062 12.8446 16.4983 12.5675C16.1904 12.2904 16.1654 11.8162 16.4425 11.5083L16.4525 11.4972C16.7296 11.1893 17.2038 11.1643 17.5117 11.4414ZM7.51173 15.4414C7.81961 15.7185 7.84456 16.1927 7.56747 16.5006L7.55747 16.5117C7.28037 16.8196 6.80616 16.8446 6.49827 16.5675C6.19039 16.2904 6.16544 15.8162 6.44253 15.5083L6.45253 15.4972C6.72963 15.1893 7.20385 15.1643 7.51173 15.4414ZM17.5117 15.4414C17.8196 15.7185 17.8446 16.1927 17.5675 16.5006L17.5575 16.5117C17.2804 16.8196 16.8062 16.8446 16.4983 16.5675C16.1904 16.2904 16.1654 15.8162 16.4425 15.5083L16.4525 15.4972C16.7296 15.1893 17.2038 15.1643 17.5117 15.4414Z" fill="black"/>
</g>
</g>
</g>
<defs>
<clipPath id="clip0_232_1964">
<rect width="24" height="24" rx="5" fill="white"/>
</clipPath>
</defs>
</svg>
