<svg width="24" height="24" viewBox="0 0 24 24" fill="none" xmlns="http://www.w3.org/2000/svg">
<g id="mpeg-format">
<g clip-path="url(#clip0_232_12592)">
<g id="Weight=Dynamic">
<path id="Vector (Stroke)" fill-rule="evenodd" clip-rule="evenodd" d="M3.25 3.6C3.25 2.85441 3.85442 2.25 4.6 2.25H19.4C20.1456 2.25 20.75 2.85442 20.75 3.6V6C20.75 6.41421 20.4142 6.75 20 6.75C19.5858 6.75 19.25 6.41421 19.25 6V3.75H4.75V6C4.75 6.41421 4.41421 6.75 4 6.75C3.58579 6.75 3.25 6.41421 3.25 6V3.6ZM1.32769 8.27006C1.66621 8.19015 2.01526 8.35348 2.17082 8.66459L3 10.3229L3.82918 8.66459C3.98474 8.35348 4.33379 8.19015 4.67231 8.27006C5.01084 8.34998 5.25 8.65217 5.25 9V15C5.25 15.4142 4.91421 15.75 4.5 15.75C4.08579 15.75 3.75 15.4142 3.75 15V12.1771L3.67082 12.3354C3.54378 12.5895 3.28408 12.75 3 12.75C2.71592 12.75 2.45622 12.5895 2.32918 12.3354L2.25 12.1771V15C2.25 15.4142 1.91421 15.75 1.5 15.75C1.08579 15.75 0.75 15.4142 0.75 15V9C0.75 8.65217 0.989157 8.34998 1.32769 8.27006ZM6.75 9C6.75 8.58579 7.08579 8.25 7.5 8.25H10.5C10.9142 8.25 11.25 8.58579 11.25 9V12C11.25 12.4142 10.9142 12.75 10.5 12.75H8.25V15C8.25 15.4142 7.91421 15.75 7.5 15.75C7.08579 15.75 6.75 15.4142 6.75 15V9ZM8.25 11.25H9.75V9.75H8.25V11.25ZM12.75 9C12.75 8.58579 13.0858 8.25 13.5 8.25H16.5C16.9142 8.25 17.25 8.58579 17.25 9C17.25 9.41421 16.9142 9.75 16.5 9.75H14.25V11.25H15.5C15.9142 11.25 16.25 11.5858 16.25 12C16.25 12.4142 15.9142 12.75 15.5 12.75H14.25V14.25H16.5C16.9142 14.25 17.25 14.5858 17.25 15C17.25 15.4142 16.9142 15.75 16.5 15.75H13.5C13.0858 15.75 12.75 15.4142 12.75 15V9ZM18.75 9C18.75 8.58579 19.0858 8.25 19.5 8.25H22.5C22.9142 8.25 23.25 8.58579 23.25 9C23.25 9.41421 22.9142 9.75 22.5 9.75H20.25V14.25H21.75V12.6C21.75 12.1858 22.0858 11.85 22.5 11.85C22.9142 11.85 23.25 12.1858 23.25 12.6V15C23.25 15.4142 22.9142 15.75 22.5 15.75H19.5C19.0858 15.75 18.75 15.4142 18.75 15V9ZM4 17.25C4.41421 17.25 4.75 17.5858 4.75 18V20.25H19.25V18C19.25 17.5858 19.5858 17.25 20 17.25C20.4142 17.25 20.75 17.5858 20.75 18V20.4C20.75 21.1456 20.1456 21.75 19.4 21.75H4.6C3.85442 21.75 3.25 21.1456 3.25 20.4V18C3.25 17.5858 3.58579 17.25 4 17.25Z" fill="black"/>
</g>
</g>
</g>
<defs>
<clipPath id="clip0_232_12592">
<rect width="24" height="24" rx="5" fill="white"/>
</clipPath>
</defs>
</svg>
