<svg width="24" height="24" viewBox="0 0 24 24" fill="none" xmlns="http://www.w3.org/2000/svg">
<g id="multiple-pages-plus">
<g clip-path="url(#clip0_232_6271)">
<g id="Weight=Dynamic">
<path id="Vector (Stroke)" fill-rule="evenodd" clip-rule="evenodd" d="M6.25 2C6.25 1.58579 6.58579 1.25 7 1.25H16.5C16.6989 1.25 16.8897 1.32902 17.0303 1.46967L21.5303 5.96967C21.671 6.11032 21.75 6.30109 21.75 6.5V19C21.75 19.4142 21.4142 19.75 21 19.75C20.5858 19.75 20.25 19.4142 20.25 19V6.81066L16.1893 2.75H7C6.58579 2.75 6.25 2.41421 6.25 2ZM2.25 6.5C2.25 5.25736 3.25736 4.25 4.5 4.25H14.2515C14.6095 4.25 14.9529 4.39223 15.2061 4.64541L18.3546 7.79393C18.6078 8.04711 18.75 8.39049 18.75 8.74853V20.5C18.75 21.7426 17.7426 22.75 16.5 22.75H11C10.5858 22.75 10.25 22.4142 10.25 22C10.25 21.5858 10.5858 21.25 11 21.25H16.5C16.9142 21.25 17.25 20.9142 17.25 20.5V9.75H14.6C13.8544 9.75 13.25 9.14559 13.25 8.4V5.75H4.5C4.08579 5.75 3.75 6.08579 3.75 6.5V13C3.75 13.4142 3.41421 13.75 3 13.75C2.58579 13.75 2.25 13.4142 2.25 13V6.5ZM14.75 6.31066L16.6893 8.25H14.75V6.31066ZM4.99219 15.25C5.4064 15.25 5.74219 15.5858 5.74219 16V18.25H7.99219C8.4064 18.25 8.74219 18.5858 8.74219 19C8.74219 19.4142 8.4064 19.75 7.99219 19.75H5.74219V22C5.74219 22.4142 5.4064 22.75 4.99219 22.75C4.57797 22.75 4.24219 22.4142 4.24219 22V19.75H1.99219C1.57797 19.75 1.24219 19.4142 1.24219 19C1.24219 18.5858 1.57797 18.25 1.99219 18.25H4.24219V16C4.24219 15.5858 4.57797 15.25 4.99219 15.25Z" fill="black"/>
</g>
</g>
</g>
<defs>
<clipPath id="clip0_232_6271">
<rect width="24" height="24" rx="5" fill="white"/>
</clipPath>
</defs>
</svg>
