<svg width="24" height="24" viewBox="0 0 24 24" fill="none" xmlns="http://www.w3.org/2000/svg">
<g id="multiple-pages-xmark">
<g clip-path="url(#clip0_232_6295)">
<g id="Weight=Dynamic">
<path id="Vector (Stroke)" fill-rule="evenodd" clip-rule="evenodd" d="M6.25 2C6.25 1.58579 6.58579 1.25 7 1.25H16.5C16.6989 1.25 16.8897 1.32902 17.0303 1.46967L21.5303 5.96967C21.671 6.11032 21.75 6.30109 21.75 6.5V19C21.75 19.4142 21.4142 19.75 21 19.75C20.5858 19.75 20.25 19.4142 20.25 19V6.81066L16.1893 2.75H7C6.58579 2.75 6.25 2.41421 6.25 2ZM2.25 6.5C2.25 5.25736 3.25736 4.25 4.5 4.25H14.2515C14.6095 4.25 14.9529 4.39223 15.2061 4.64541L18.3546 7.79393C18.6078 8.04711 18.75 8.39049 18.75 8.74853V20.5C18.75 21.7426 17.7426 22.75 16.5 22.75H11C10.5858 22.75 10.25 22.4142 10.25 22C10.25 21.5858 10.5858 21.25 11 21.25H16.5C16.9142 21.25 17.25 20.9142 17.25 20.5V9.75H14.6C13.8544 9.75 13.25 9.14559 13.25 8.4V5.75H4.5C4.08579 5.75 3.75 6.08579 3.75 6.5V13C3.75 13.4142 3.41422 13.75 3 13.75C2.58579 13.75 2.25 13.4142 2.25 13V6.5ZM14.75 6.31066L16.6893 8.25H14.75V6.31066ZM2.3405 16.3483C2.6334 16.0555 3.10827 16.0555 3.40116 16.3483L4.99215 17.9393L6.58314 16.3483C6.87604 16.0555 7.35091 16.0555 7.64381 16.3483C7.9367 16.6412 7.9367 17.1161 7.64381 17.409L6.05282 19L7.64381 20.591C7.9367 20.8839 7.9367 21.3588 7.64381 21.6517C7.35091 21.9445 6.87604 21.9445 6.58314 21.6517L4.99215 20.0607L3.40116 21.6517C3.10827 21.9445 2.6334 21.9445 2.3405 21.6517C2.04761 21.3588 2.04761 20.8839 2.3405 20.591L3.93149 19L2.3405 17.409C2.04761 17.1161 2.04761 16.6412 2.3405 16.3483Z" fill="black"/>
</g>
</g>
</g>
<defs>
<clipPath id="clip0_232_6295">
<rect width="24" height="24" rx="5" fill="white"/>
</clipPath>
</defs>
</svg>
