<svg width="24" height="24" viewBox="0 0 24 24" fill="none" xmlns="http://www.w3.org/2000/svg">
<g id="multi-bubble">
<g clip-path="url(#clip0_232_2954)">
<g id="Weight=Dynamic">
<path id="Vector (Stroke)" fill-rule="evenodd" clip-rule="evenodd" d="M5.33988 8.74186C5.95042 4.50523 9.59441 1.25 14 1.25C18.8325 1.25 22.75 5.16751 22.75 10C22.75 11.4917 22.3761 12.8981 21.7166 14.1285L22.3373 17.4627C22.3826 17.7058 22.3051 17.9555 22.1303 18.1303C21.9555 18.3051 21.7058 18.3826 21.4627 18.3373L18.1285 17.7166C17.2918 18.1651 16.3735 18.4816 15.4017 18.6382C14.9928 18.7041 14.6078 18.426 14.5419 18.0171C14.4761 17.6081 14.7542 17.2232 15.1631 17.1573C16.0472 17.0149 16.8777 16.7125 17.6245 16.2805C17.7794 16.1909 17.9613 16.1596 18.1373 16.1924L20.6626 16.6626L20.1924 14.1373C20.1596 13.9613 20.1909 13.7794 20.2805 13.6245C20.897 12.5588 21.25 11.3218 21.25 10C21.25 5.99594 18.0041 2.75 14 2.75C10.3508 2.75 7.33023 5.44674 6.82454 8.95582C6.76546 9.3658 6.38521 9.65026 5.97523 9.59117C5.56525 9.53209 5.28079 9.15184 5.33988 8.74186ZM7.5 11.75C4.87665 11.75 2.75 13.8766 2.75 16.5C2.75 17.3664 2.98129 18.1766 3.38501 18.8745C3.47464 19.0294 3.5059 19.2113 3.47313 19.3873L3.21242 20.7876L4.61272 20.5269C4.7887 20.4941 4.9706 20.5254 5.12554 20.615C5.82344 21.0187 6.63357 21.25 7.5 21.25C10.1234 21.25 12.25 19.1234 12.25 16.5C12.25 13.8766 10.1234 11.75 7.5 11.75ZM1.25 16.5C1.25 13.0482 4.04822 10.25 7.5 10.25C10.9518 10.25 13.75 13.0482 13.75 16.5C13.75 19.9518 10.9518 22.75 7.5 22.75C6.46439 22.75 5.48585 22.4976 4.62441 22.0505L2.41228 22.4623C2.16923 22.5076 1.91949 22.4301 1.74467 22.2553C1.56985 22.0805 1.49242 21.8308 1.53767 21.5877L1.94953 19.3756C1.50244 18.5142 1.25 17.5356 1.25 16.5Z" fill="black"/>
</g>
</g>
</g>
<defs>
<clipPath id="clip0_232_2954">
<rect width="24" height="24" rx="5" fill="white"/>
</clipPath>
</defs>
</svg>
