<svg width="24" height="24" viewBox="0 0 24 24" fill="none" xmlns="http://www.w3.org/2000/svg">
<g id="multi-mac-os-window">
<g clip-path="url(#clip0_232_14798)">
<g id="Weight=Dynamic">
<path id="Vector (Stroke)" fill-rule="evenodd" clip-rule="evenodd" d="M4 4.75C3.30964 4.75 2.75 5.30964 2.75 6V14C2.75 14.6904 3.30964 15.25 4 15.25H6.25V11C6.25 9.48122 7.48122 8.25 9 8.25H16.25V6C16.25 5.30964 15.6904 4.75 15 4.75H4ZM17.75 8.25V6C17.75 4.48122 16.5188 3.25 15 3.25H4C2.48122 3.25 1.25 4.48122 1.25 6V14C1.25 15.5188 2.48122 16.75 4 16.75H6.25V19C6.25 20.5188 7.48122 21.75 9 21.75H20C21.5188 21.75 22.75 20.5188 22.75 19V11C22.75 9.48122 21.5188 8.25 20 8.25H17.75ZM5.51173 6.44142C5.81961 6.71852 5.84456 7.19273 5.56747 7.50061L5.55747 7.51173C5.28037 7.81961 4.80616 7.84456 4.49827 7.56747C4.19039 7.29037 4.16544 6.81616 4.44253 6.50827L4.45253 6.49716C4.72963 6.18928 5.20384 6.16432 5.51173 6.44142ZM7.51173 6.44143C7.81961 6.71853 7.84456 7.19274 7.56746 7.50062L7.55746 7.51173C7.28036 7.81961 6.80615 7.84456 6.49827 7.56746C6.19039 7.29036 6.16544 6.81615 6.44254 6.50827L6.45254 6.49716C6.72964 6.18928 7.20385 6.16433 7.51173 6.44143ZM9.51173 6.44143C9.81961 6.71853 9.84456 7.19274 9.56746 7.50062L9.55746 7.51173C9.28036 7.81961 8.80615 7.84456 8.49827 7.56746C8.19039 7.29036 8.16544 6.81615 8.44254 6.50827L8.45254 6.49716C8.72964 6.18928 9.20385 6.16433 9.51173 6.44143ZM9 9.75C8.30964 9.75 7.75 10.3096 7.75 11V19C7.75 19.6904 8.30964 20.25 9 20.25H20C20.6904 20.25 21.25 19.6904 21.25 19V11C21.25 10.3096 20.6904 9.75 20 9.75H9ZM10.5117 11.4414C10.8196 11.7185 10.8446 12.1927 10.5675 12.5006L10.5575 12.5117C10.2804 12.8196 9.80616 12.8446 9.49827 12.5675C9.19039 12.2904 9.16544 11.8162 9.44253 11.5083L9.45253 11.4972C9.72963 11.1893 10.2038 11.1643 10.5117 11.4414ZM12.5117 11.4414C12.8196 11.7185 12.8446 12.1927 12.5675 12.5006L12.5575 12.5117C12.2804 12.8196 11.8062 12.8446 11.4983 12.5675C11.1904 12.2904 11.1654 11.8162 11.4425 11.5083L11.4525 11.4972C11.7296 11.1893 12.2038 11.1643 12.5117 11.4414ZM14.5117 11.4414C14.8196 11.7185 14.8446 12.1927 14.5675 12.5006L14.5575 12.5117C14.2804 12.8196 13.8062 12.8446 13.4983 12.5675C13.1904 12.2904 13.1654 11.8162 13.4425 11.5083L13.4525 11.4972C13.7296 11.1893 14.2038 11.1643 14.5117 11.4414Z" fill="black"/>
</g>
</g>
</g>
<defs>
<clipPath id="clip0_232_14798">
<rect width="24" height="24" rx="5" fill="white"/>
</clipPath>
</defs>
</svg>
