<svg width="24" height="24" viewBox="0 0 24 24" fill="none" xmlns="http://www.w3.org/2000/svg">
<g id="multiple-pages-empty">
<g clip-path="url(#clip0_232_6319)">
<g id="Weight=Dynamic">
<path id="Vector (Stroke)" fill-rule="evenodd" clip-rule="evenodd" d="M6.25 2C6.25 1.58579 6.58579 1.25 7 1.25H16.5C16.6989 1.25 16.8897 1.32902 17.0303 1.46967L21.5303 5.96967C21.671 6.11032 21.75 6.30109 21.75 6.5V19C21.75 19.4142 21.4142 19.75 21 19.75C20.5858 19.75 20.25 19.4142 20.25 19V6.81066L16.1893 2.75H7C6.58579 2.75 6.25 2.41421 6.25 2ZM4.5 5.75C4.08579 5.75 3.75 6.08579 3.75 6.5V20.5C3.75 20.9142 4.08579 21.25 4.5 21.25H16.5C16.9142 21.25 17.25 20.9142 17.25 20.5V9.75H14.6C13.8544 9.75 13.25 9.14559 13.25 8.4V5.75H4.5ZM4.5 4.25C3.25736 4.25 2.25 5.25736 2.25 6.5V20.5C2.25 21.7426 3.25736 22.75 4.5 22.75H16.5C17.7426 22.75 18.75 21.7426 18.75 20.5V8.74853C18.75 8.39049 18.6078 8.04711 18.3546 7.79393L15.2061 4.64541C14.9529 4.39223 14.6095 4.25 14.2515 4.25H4.5ZM14.75 6.31066L16.6893 8.25H14.75V6.31066Z" fill="black"/>
</g>
</g>
</g>
<defs>
<clipPath id="clip0_232_6319">
<rect width="24" height="24" rx="5" fill="white"/>
</clipPath>
</defs>
</svg>
