<svg width="24" height="24" viewBox="0 0 24 24" fill="none" xmlns="http://www.w3.org/2000/svg">
<g id="multi-window">
<g clip-path="url(#clip0_232_14768)">
<g id="Weight=Dynamic">
<path id="Vector (Stroke)" fill-rule="evenodd" clip-rule="evenodd" d="M4 4.75C3.30964 4.75 2.75 5.30964 2.75 6V14C2.75 14.6904 3.30964 15.25 4 15.25H6.25V11C6.25 9.48122 7.48122 8.25 9 8.25H16.25V6C16.25 5.30964 15.6904 4.75 15 4.75H4ZM17.75 8.25V6C17.75 4.48122 16.5188 3.25 15 3.25H4C2.48122 3.25 1.25 4.48122 1.25 6V14C1.25 15.5188 2.48122 16.75 4 16.75H6.25V19C6.25 20.5188 7.48122 21.75 9 21.75H20C21.5188 21.75 22.75 20.5188 22.75 19V11C22.75 9.48122 21.5188 8.25 20 8.25H17.75ZM4.25 7C4.25 6.58579 4.58579 6.25 5 6.25H6C6.41421 6.25 6.75 6.58579 6.75 7C6.75 7.41421 6.41421 7.75 6 7.75H5C4.58579 7.75 4.25 7.41421 4.25 7ZM9 9.75C8.30964 9.75 7.75 10.3096 7.75 11V19C7.75 19.6904 8.30964 20.25 9 20.25H20C20.6904 20.25 21.25 19.6904 21.25 19V11C21.25 10.3096 20.6904 9.75 20 9.75H9ZM9.25 12C9.25 11.5858 9.58579 11.25 10 11.25H11C11.4142 11.25 11.75 11.5858 11.75 12C11.75 12.4142 11.4142 12.75 11 12.75H10C9.58579 12.75 9.25 12.4142 9.25 12Z" fill="black"/>
</g>
</g>
</g>
<defs>
<clipPath id="clip0_232_14768">
<rect width="24" height="24" rx="5" fill="white"/>
</clipPath>
</defs>
</svg>
