<svg width="24" height="24" viewBox="0 0 24 24" fill="none" xmlns="http://www.w3.org/2000/svg">
<g id="music-note">
<g clip-path="url(#clip0_232_10465)">
<g id="Weight=Dynamic">
<path id="Vector (Stroke)" fill-rule="evenodd" clip-rule="evenodd" d="M17.4755 2.42C17.6493 2.56245 17.75 2.77531 17.75 3.00001V7.00001C17.75 7.35752 17.4977 7.66533 17.1471 7.73544L12.75 8.61486V19C12.75 20.5188 11.5188 21.75 10 21.75H9C7.48122 21.75 6.25 20.5188 6.25 19V18C6.25 16.4812 7.48122 15.25 9 15.25H11.25V4.00001C11.25 3.6425 11.5023 3.33468 11.8529 3.26457L16.8529 2.26457C17.0732 2.2205 17.3017 2.27755 17.4755 2.42ZM11.25 16.75H9C8.30964 16.75 7.75 17.3097 7.75 18V19C7.75 19.6904 8.30964 20.25 9 20.25H10C10.6904 20.25 11.25 19.6904 11.25 19V16.75ZM12.75 7.08515L16.25 6.38515V3.91486L12.75 4.61486V7.08515Z" fill="black"/>
</g>
</g>
</g>
<defs>
<clipPath id="clip0_232_10465">
<rect width="24" height="24" rx="5" fill="white"/>
</clipPath>
</defs>
</svg>
