<svg width="24" height="24" viewBox="0 0 24 24" fill="none" xmlns="http://www.w3.org/2000/svg">
<g id="music-double-note">
<g clip-path="url(#clip0_232_10177)">
<g id="Weight=Dynamic">
<path id="Vector (Stroke)" fill-rule="evenodd" clip-rule="evenodd" d="M20.4806 2.42419C20.6513 2.56669 20.75 2.77761 20.75 3.00001V17C20.75 18.5188 19.5188 19.75 18 19.75H17C15.4812 19.75 14.25 18.5188 14.25 17V16C14.25 14.4812 15.4812 13.25 17 13.25H19.25V3.89867L9.75 5.62594V19C9.75 20.5188 8.51878 21.75 7 21.75H6C4.48122 21.75 3.25 20.5188 3.25 19V18C3.25 16.4812 4.48122 15.25 6 15.25H8.25V5.00001C8.25 4.63754 8.50922 4.32694 8.86584 4.2621L19.8658 2.2621C20.0846 2.22232 20.3098 2.28169 20.4806 2.42419ZM8.25 16.75H6C5.30964 16.75 4.75 17.3096 4.75 18V19C4.75 19.6904 5.30964 20.25 6 20.25H7C7.69036 20.25 8.25 19.6904 8.25 19V16.75ZM19.25 14.75H17C16.3096 14.75 15.75 15.3096 15.75 16V17C15.75 17.6904 16.3096 18.25 17 18.25H18C18.6904 18.25 19.25 17.6904 19.25 17V14.75Z" fill="black"/>
</g>
</g>
</g>
<defs>
<clipPath id="clip0_232_10177">
<rect width="24" height="24" rx="5" fill="white"/>
</clipPath>
</defs>
</svg>
