<svg width="24" height="24" viewBox="0 0 24 24" fill="none" xmlns="http://www.w3.org/2000/svg">
<g id="music-note-plus">
<g clip-path="url(#clip0_232_10472)">
<g id="Weight=Dynamic">
<path id="Vector (Stroke)" fill-rule="evenodd" clip-rule="evenodd" d="M12.4755 2.42C12.6493 2.56245 12.75 2.77531 12.75 3.00001V7.00001C12.75 7.35752 12.4977 7.66533 12.1471 7.73544L7.75 8.61486V19C7.75 20.5188 6.51878 21.75 5 21.75H4C2.48122 21.75 1.25 20.5188 1.25 19V18C1.25 16.4812 2.48122 15.25 4 15.25H6.25V4.00001C6.25 3.6425 6.50234 3.33468 6.85291 3.26457L11.8529 2.26457C12.0732 2.2205 12.3017 2.27755 12.4755 2.42ZM6.25 16.75H4C3.30964 16.75 2.75 17.3097 2.75 18V19C2.75 19.6904 3.30964 20.25 4 20.25H5C5.69036 20.25 6.25 19.6904 6.25 19V16.75ZM7.75 7.08515L11.25 6.38515V3.91486L7.75 4.61486V7.08515ZM19 6.25001C19.4142 6.25001 19.75 6.58579 19.75 7.00001V9.25001H22C22.4142 9.25001 22.75 9.58579 22.75 10C22.75 10.4142 22.4142 10.75 22 10.75H19.75V13C19.75 13.4142 19.4142 13.75 19 13.75C18.5858 13.75 18.25 13.4142 18.25 13V10.75H16C15.5858 10.75 15.25 10.4142 15.25 10C15.25 9.58579 15.5858 9.25001 16 9.25001H18.25V7.00001C18.25 6.58579 18.5858 6.25001 19 6.25001Z" fill="black"/>
</g>
</g>
</g>
<defs>
<clipPath id="clip0_232_10472">
<rect width="24" height="24" rx="5" fill="white"/>
</clipPath>
</defs>
</svg>
