<svg width="24" height="24" viewBox="0 0 24 24" fill="none" xmlns="http://www.w3.org/2000/svg">
<g id="music-double-note-plus">
<g clip-path="url(#clip0_232_10195)">
<g id="Weight=Dynamic">
<path id="Vector (Stroke)" fill-rule="evenodd" clip-rule="evenodd" d="M20 2.75C20.4142 2.75 20.75 3.08579 20.75 3.5V5.75H23C23.4142 5.75 23.75 6.08579 23.75 6.5C23.75 6.91421 23.4142 7.25 23 7.25H20.75V9.5C20.75 9.91421 20.4142 10.25 20 10.25C19.5858 10.25 19.25 9.91421 19.25 9.5V7.25H17C16.5858 7.25 16.25 6.91421 16.25 6.5C16.25 6.08579 16.5858 5.75 17 5.75H19.25V3.5C19.25 3.08579 19.5858 2.75 20 2.75ZM14.7442 3.90706C14.7956 4.31807 14.504 4.69291 14.093 4.74429L6.75 5.66209V19C6.75 20.5188 5.51878 21.75 4 21.75H3C1.48122 21.75 0.25 20.5188 0.25 19V18C0.25 16.4812 1.48122 15.25 3 15.25L5.25 15.25V4.99999C5.25 4.62175 5.53166 4.3027 5.90698 4.25579L13.907 3.25587C14.318 3.20449 14.6928 3.49604 14.7442 3.90706ZM5.25 16.75L3 16.75C2.30964 16.75 1.75 17.3096 1.75 18V19C1.75 19.6904 2.30964 20.25 3 20.25H4C4.69036 20.25 5.25 19.6904 5.25 19V16.75ZM15 9.25C15.4142 9.25 15.75 9.58579 15.75 10V17C15.75 18.5188 14.5188 19.75 13 19.75H12C10.4812 19.75 9.25 18.5188 9.25 17V16C9.25 14.4812 10.4812 13.25 12 13.25H14.25V10C14.25 9.58579 14.5858 9.25 15 9.25ZM14.25 14.75H12C11.3096 14.75 10.75 15.3096 10.75 16V17C10.75 17.6904 11.3096 18.25 12 18.25H13C13.6904 18.25 14.25 17.6904 14.25 17V14.75Z" fill="black"/>
</g>
</g>
</g>
<defs>
<clipPath id="clip0_232_10195">
<rect width="24" height="24" rx="5" fill="white"/>
</clipPath>
</defs>
</svg>
