<svg width="24" height="24" viewBox="0 0 24 24" fill="none" xmlns="http://www.w3.org/2000/svg">
<g id="n-square">
<g clip-path="url(#clip0_232_15615)">
<g id="Weight=Dynamic">
<path id="Vector (Stroke)" fill-rule="evenodd" clip-rule="evenodd" d="M2.25 3.6C2.25 2.85442 2.85442 2.25 3.6 2.25H20.4C21.1456 2.25 21.75 2.85442 21.75 3.6V20.4C21.75 21.1456 21.1456 21.75 20.4 21.75H3.6C2.85442 21.75 2.25 21.1456 2.25 20.4V3.6ZM3.75 3.75V20.25H20.25V3.75H3.75ZM9.82769 7.27006C10.1662 7.19015 10.5153 7.35348 10.6708 7.66459L13.25 12.8229V8C13.25 7.58579 13.5858 7.25 14 7.25C14.4142 7.25 14.75 7.58579 14.75 8V16C14.75 16.3478 14.5108 16.65 14.1723 16.7299C13.8338 16.8099 13.4847 16.6465 13.3292 16.3354L10.75 11.1771V16C10.75 16.4142 10.4142 16.75 10 16.75C9.58579 16.75 9.25 16.4142 9.25 16V8C9.25 7.65217 9.48916 7.34998 9.82769 7.27006Z" fill="black"/>
</g>
</g>
</g>
<defs>
<clipPath id="clip0_232_15615">
<rect width="24" height="24" rx="5" fill="white"/>
</clipPath>
</defs>
</svg>
