<svg width="24" height="24" viewBox="0 0 24 24" fill="none" xmlns="http://www.w3.org/2000/svg">
<g id="navigator">
<g clip-path="url(#clip0_232_9974)">
<g id="Weight=Dynamic">
<path id="Vector (Stroke)" fill-rule="evenodd" clip-rule="evenodd" d="M12 2.75C6.89137 2.75 2.75 6.89137 2.75 12C2.75 17.1086 6.89137 21.25 12 21.25C17.1086 21.25 21.25 17.1086 21.25 12C21.25 6.89137 17.1086 2.75 12 2.75ZM1.25 12C1.25 6.06294 6.06294 1.25 12 1.25C17.9371 1.25 22.75 6.06294 22.75 12C22.75 17.9371 17.9371 22.75 12 22.75C6.06294 22.75 1.25 17.9371 1.25 12ZM10.4209 5.75859C11.0918 4.49145 12.907 4.49145 13.5778 5.75859L18.5362 15.1244C19.3299 16.6236 17.7826 18.2811 16.2324 17.5921L11.9994 15.7108L7.76638 17.5921C6.2162 18.2811 4.66884 16.6236 5.46256 15.1244L10.4209 5.75859ZM12.2521 6.46042C12.1447 6.2575 11.854 6.2575 11.7466 6.46042L6.78825 15.8262C6.66114 16.0663 6.90893 16.3317 7.15717 16.2214L11.9994 14.0693L16.8416 16.2214C17.0898 16.3317 17.3376 16.0663 17.2105 15.8262L12.2521 6.46042Z" fill="black"/>
</g>
</g>
</g>
<defs>
<clipPath id="clip0_232_9974">
<rect width="24" height="24" rx="5" fill="white"/>
</clipPath>
</defs>
</svg>
