<svg width="24" height="24" viewBox="0 0 24 24" fill="none" xmlns="http://www.w3.org/2000/svg">
<g id="navigator-alt">
<g clip-path="url(#clip0_232_9982)">
<g id="Weight=Dynamic">
<path id="Vector (Stroke)" fill-rule="evenodd" clip-rule="evenodd" d="M12 2.75C6.89137 2.75 2.75 6.89137 2.75 12C2.75 17.1086 6.89137 21.25 12 21.25C17.1086 21.25 21.25 17.1086 21.25 12C21.25 6.89137 17.1086 2.75 12 2.75ZM1.25 12C1.25 6.06294 6.06294 1.25 12 1.25C17.9371 1.25 22.75 6.06294 22.75 12C22.75 17.9371 17.9371 22.75 12 22.75C6.06294 22.75 1.25 17.9371 1.25 12ZM15.9543 5.79182C17.3385 5.41825 18.5765 6.74582 18.1073 8.10063L14.6391 18.1144C14.084 19.7174 11.8165 19.7161 11.2632 18.1125L9.75219 13.7336L5.48937 11.9208C3.92827 11.257 4.08514 8.99496 5.72295 8.55296L15.9543 5.79182ZM16.6899 7.60974C16.765 7.39278 16.5667 7.18019 16.3451 7.24001L6.11378 10.0011C5.85151 10.0719 5.82638 10.4342 6.07637 10.5405L10.9527 12.6141L12.6811 17.6232C12.7697 17.88 13.1328 17.8802 13.2217 17.6235L16.6899 7.60974Z" fill="black"/>
</g>
</g>
</g>
<defs>
<clipPath id="clip0_232_9982">
<rect width="24" height="24" rx="5" fill="white"/>
</clipPath>
</defs>
</svg>
