<svg width="24" height="24" viewBox="0 0 24 24" fill="none" xmlns="http://www.w3.org/2000/svg">
<g id="neighbourhood">
<g clip-path="url(#clip0_232_16931)">
<g id="Weight=Dynamic">
<path id="Vector (Stroke)" fill-rule="evenodd" clip-rule="evenodd" d="M10.5747 1.98683C11.4507 1.45589 12.5493 1.45589 13.4253 1.98683L16.9253 4.10804C17.7477 4.60645 18.25 5.49822 18.25 6.45983V9.99998C18.25 10.059 18.2432 10.1165 18.2303 10.1716L21.4255 12.108C22.2479 12.6064 22.7501 13.4982 22.7501 14.4598V19C22.7501 20.5188 21.5189 21.75 20.0001 21.75H16.0001C15.5859 21.75 15.2501 21.4142 15.2501 21C15.2501 20.5858 15.5859 20.25 16.0001 20.25H17.25V17.75H16C15.5858 17.75 15.25 17.4142 15.25 17C15.25 16.5858 15.5858 16.25 16 16.25H17.4C18.1456 16.25 18.75 16.8544 18.75 17.6V20.25H20.0001C20.6905 20.25 21.2501 19.6903 21.2501 19V14.4598C21.2501 14.0227 21.0218 13.6174 20.648 13.3908L17.1428 11.2665C16.7463 11.0262 16.2494 11.0251 15.8518 11.2636L15.2194 11.6431C14.8642 11.8562 14.4035 11.741 14.1904 11.3859C13.9773 11.0307 14.0924 10.57 14.4476 10.3569L15.0801 9.97738C15.5913 9.67065 16.1772 9.54403 16.75 9.59732V6.45983C16.75 6.02274 16.5217 5.61739 16.1479 5.39084L12.6479 3.26963C12.2497 3.02829 11.7503 3.02829 11.3521 3.26963L7.85212 5.39084C7.47832 5.61739 7.25 6.02274 7.25 6.45984V9.59999C7.82522 9.54755 8.41328 9.6765 8.92533 9.98683L12.4253 12.108C13.2477 12.6064 13.75 13.4982 13.75 14.4598V19C13.75 20.5188 12.5188 21.75 11 21.75H4C2.48122 21.75 1.25 20.5188 1.25 19V14.4598C1.25 13.4982 1.7523 12.6064 2.57467 12.108L5.76973 10.1716C5.75683 10.1165 5.75 10.059 5.75 9.99998V6.45984C5.75 5.49822 6.2523 4.60645 7.07467 4.10804L10.5747 1.98683ZM6.75 20.25H8.25V17.75H6.75V20.25ZM9.75 20.25V17.6C9.75 16.8544 9.14559 16.25 8.4 16.25H6.6C5.85441 16.25 5.25 16.8544 5.25 17.6V20.25H4C3.30964 20.25 2.75 19.6903 2.75 19V14.4598C2.75 14.0227 2.97832 13.6174 3.35212 13.3908L6.85212 11.2696C7.25033 11.0283 7.74967 11.0283 8.14788 11.2696L11.6479 13.3908C12.0217 13.6174 12.25 14.0227 12.25 14.4598V19C12.25 19.6903 11.6904 20.25 11 20.25H9.75Z" fill="black"/>
</g>
</g>
</g>
<defs>
<clipPath id="clip0_232_16931">
<rect width="24" height="24" rx="5" fill="white"/>
</clipPath>
</defs>
</svg>
