<svg width="24" height="24" viewBox="0 0 24 24" fill="none" xmlns="http://www.w3.org/2000/svg">
<g id="network-reverse">
<g clip-path="url(#clip0_232_3452)">
<g id="Weight=Dynamic">
<path id="Vector (Stroke)" fill-rule="evenodd" clip-rule="evenodd" d="M7.75 2.6C7.75 1.85442 8.35442 1.25 9.1 1.25H14.9C15.6456 1.25 16.25 1.85441 16.25 2.6V6.4C16.25 7.14559 15.6456 7.75 14.9 7.75H12.75V10.75H15.5C17.0188 10.75 18.25 11.9812 18.25 13.5V16.25H20.4C21.1456 16.25 21.75 16.8544 21.75 17.6V21.4C21.75 22.1456 21.1456 22.75 20.4 22.75H14.6C13.8544 22.75 13.25 22.1456 13.25 21.4V17.6C13.25 16.8544 13.8544 16.25 14.6 16.25H16.75V13.5C16.75 12.8096 16.1904 12.25 15.5 12.25H8.5C7.80964 12.25 7.25 12.8096 7.25 13.5V16.25H9.4C10.1456 16.25 10.75 16.8544 10.75 17.6V21.4C10.75 22.1456 10.1456 22.75 9.4 22.75H3.6C2.85441 22.75 2.25 22.1456 2.25 21.4V17.6C2.25 16.8544 2.85441 16.25 3.6 16.25H5.75V13.5C5.75 11.9812 6.98122 10.75 8.5 10.75H11.25V7.75H9.1C8.35442 7.75 7.75 7.14558 7.75 6.4V2.6ZM9.25 2.75V6.25H14.75V2.75H9.25ZM3.75 17.75V21.25H9.25V17.75H3.75ZM14.75 17.75V21.25H20.25V17.75H14.75Z" fill="black"/>
</g>
</g>
</g>
<defs>
<clipPath id="clip0_232_3452">
<rect width="24" height="24" rx="5" fill="white"/>
</clipPath>
</defs>
</svg>
