<svg width="24" height="24" viewBox="0 0 24 24" fill="none" xmlns="http://www.w3.org/2000/svg">
<g id="network">
<g clip-path="url(#clip0_232_3433)">
<g id="Weight=Dynamic">
<path id="Vector (Stroke)" fill-rule="evenodd" clip-rule="evenodd" d="M2.25 2.6C2.25 1.85442 2.85442 1.25 3.6 1.25H9.4C10.1456 1.25 10.75 1.85442 10.75 2.6V6.4C10.75 7.14558 10.1456 7.75 9.4 7.75H7.25V10.5C7.25 11.1904 7.80964 11.75 8.5 11.75H15.5C16.1904 11.75 16.75 11.1904 16.75 10.5V7.75H14.6C13.8544 7.75 13.25 7.14559 13.25 6.4V2.6C13.25 1.85441 13.8544 1.25 14.6 1.25H20.4C21.1456 1.25 21.75 1.85441 21.75 2.6V6.4C21.75 7.14559 21.1456 7.75 20.4 7.75H18.25V10.5C18.25 12.0188 17.0188 13.25 15.5 13.25H12.75V16.25H14.9C15.6456 16.25 16.25 16.8544 16.25 17.6V21.4C16.25 22.1456 15.6456 22.75 14.9 22.75H9.1C8.35441 22.75 7.75 22.1456 7.75 21.4V17.6C7.75 16.8544 8.35441 16.25 9.1 16.25H11.25V13.25H8.5C6.98122 13.25 5.75 12.0188 5.75 10.5V7.75H3.6C2.85442 7.75 2.25 7.14558 2.25 6.4V2.6ZM3.75 2.75V6.25H9.25V2.75H3.75ZM14.75 2.75V6.25H20.25V2.75H14.75ZM9.25 17.75V21.25H14.75V17.75H9.25Z" fill="black"/>
</g>
</g>
</g>
<defs>
<clipPath id="clip0_232_3433">
<rect width="24" height="24" rx="5" fill="white"/>
</clipPath>
</defs>
</svg>
