<svg width="24" height="24" viewBox="0 0 24 24" fill="none" xmlns="http://www.w3.org/2000/svg">
<g id="network-left">
<g clip-path="url(#clip0_232_3490)">
<g id="Weight=Dynamic">
<path id="Vector (Stroke)" fill-rule="evenodd" clip-rule="evenodd" d="M2.75 3.75V9.25H6.25V3.75H2.75ZM1.25 3.6C1.25 2.85442 1.85442 2.25 2.6 2.25H6.4C7.14558 2.25 7.75 2.85442 7.75 3.6V5.75H10.5C12.0188 5.75 13.25 6.98122 13.25 8.5V11.25H16.25V9.1C16.25 8.35441 16.8544 7.75 17.6 7.75H21.4C22.1456 7.75 22.75 8.35441 22.75 9.1V14.9C22.75 15.6456 22.1456 16.25 21.4 16.25H17.6C16.8544 16.25 16.25 15.6456 16.25 14.9V12.75H13.25V15.5C13.25 17.0188 12.0188 18.25 10.5 18.25H7.75V20.4C7.75 21.1456 7.14559 21.75 6.4 21.75H2.6C1.85441 21.75 1.25 21.1456 1.25 20.4V14.6C1.25 13.8544 1.85441 13.25 2.6 13.25H6.4C7.14559 13.25 7.75 13.8544 7.75 14.6V16.75H10.5C11.1904 16.75 11.75 16.1904 11.75 15.5V8.5C11.75 7.80964 11.1904 7.25 10.5 7.25H7.75V9.4C7.75 10.1456 7.14558 10.75 6.4 10.75H2.6C1.85442 10.75 1.25 10.1456 1.25 9.4V3.6ZM17.75 9.25V14.75H21.25V9.25H17.75ZM2.75 14.75V20.25H6.25V14.75H2.75Z" fill="black"/>
</g>
</g>
</g>
<defs>
<clipPath id="clip0_232_3490">
<rect width="24" height="24" rx="5" fill="white"/>
</clipPath>
</defs>
</svg>
