<svg width="24" height="24" viewBox="0 0 24 24" fill="none" xmlns="http://www.w3.org/2000/svg">
<g id="network-right">
<g clip-path="url(#clip0_232_3471)">
<g id="Weight=Dynamic">
<path id="Vector (Stroke)" fill-rule="evenodd" clip-rule="evenodd" d="M16.25 3.6C16.25 2.85441 16.8544 2.25 17.6 2.25H21.4C22.1456 2.25 22.75 2.85441 22.75 3.6V9.4C22.75 10.1456 22.1456 10.75 21.4 10.75H17.6C16.8544 10.75 16.25 10.1456 16.25 9.4V7.25H13.5C12.8096 7.25 12.25 7.80964 12.25 8.5V15.5C12.25 16.1904 12.8096 16.75 13.5 16.75H16.25V14.6C16.25 13.8544 16.8544 13.25 17.6 13.25H21.4C22.1456 13.25 22.75 13.8544 22.75 14.6V20.4C22.75 21.1456 22.1456 21.75 21.4 21.75H17.6C16.8544 21.75 16.25 21.1456 16.25 20.4V18.25H13.5C11.9812 18.25 10.75 17.0188 10.75 15.5V12.75H7.75V14.9C7.75 15.6456 7.14559 16.25 6.4 16.25H2.6C1.85441 16.25 1.25 15.6456 1.25 14.9V9.1C1.25 8.35442 1.85442 7.75 2.6 7.75H6.4C7.14558 7.75 7.75 8.35442 7.75 9.1V11.25H10.75V8.5C10.75 6.98122 11.9812 5.75 13.5 5.75H16.25V3.6ZM17.75 3.75V9.25H21.25V3.75H17.75ZM2.75 9.25V14.75H6.25V9.25H2.75ZM17.75 14.75V20.25H21.25V14.75H17.75Z" fill="black"/>
</g>
</g>
</g>
<defs>
<clipPath id="clip0_232_3471">
<rect width="24" height="24" rx="5" fill="white"/>
</clipPath>
</defs>
</svg>
