<svg width="24" height="24" viewBox="0 0 24 24" fill="none" xmlns="http://www.w3.org/2000/svg">
<g id="nintendo-switch">
<g clip-path="url(#clip0_232_8365)">
<g id="Weight=Dynamic">
<g id="Vector">
</g>
<path id="Vector (Stroke)" fill-rule="evenodd" clip-rule="evenodd" d="M6 3.75C4.20507 3.75 2.75 5.20507 2.75 7V17C2.75 18.7949 4.20507 20.25 6 20.25H9.75V3.75H6ZM1.25 7C1.25 4.37665 3.37665 2.25 6 2.25H9.9C10.6456 2.25 11.25 2.85442 11.25 3.6V20.4C11.25 21.1456 10.6456 21.75 9.9 21.75H6C3.37665 21.75 1.25 19.6234 1.25 17V7ZM14.25 3.75V20.25H18C19.7949 20.25 21.25 18.7949 21.25 17V7C21.25 5.20507 19.7949 3.75 18 3.75H14.25ZM12.75 3.6C12.75 2.85442 13.3544 2.25 14.1 2.25H18C20.6234 2.25 22.75 4.37665 22.75 7V17C22.75 19.6234 20.6234 21.75 18 21.75H14.1C13.3544 21.75 12.75 21.1456 12.75 20.4V3.6ZM6.5 6.75C6.36193 6.75 6.25 6.86193 6.25 7C6.25 7.13807 6.36193 7.25 6.5 7.25C6.63807 7.25 6.75 7.13807 6.75 7C6.75 6.86193 6.63807 6.75 6.5 6.75ZM4.75 7C4.75 6.0335 5.5335 5.25 6.5 5.25C7.4665 5.25 8.25 6.0335 8.25 7C8.25 7.9665 7.4665 8.75 6.5 8.75C5.5335 8.75 4.75 7.9665 4.75 7ZM17.5 12.75C17.3619 12.75 17.25 12.8619 17.25 13C17.25 13.1381 17.3619 13.25 17.5 13.25C17.6381 13.25 17.75 13.1381 17.75 13C17.75 12.8619 17.6381 12.75 17.5 12.75ZM15.75 13C15.75 12.0335 16.5335 11.25 17.5 11.25C18.4665 11.25 19.25 12.0335 19.25 13C19.25 13.9665 18.4665 14.75 17.5 14.75C16.5335 14.75 15.75 13.9665 15.75 13Z" fill="black"/>
</g>
</g>
</g>
<defs>
<clipPath id="clip0_232_8365">
<rect width="24" height="24" rx="5" fill="white"/>
</clipPath>
</defs>
</svg>
