<svg width="24" height="24" viewBox="0 0 24 24" fill="none" xmlns="http://www.w3.org/2000/svg">
<g id="no-smoking-circle">
<g clip-path="url(#clip0_232_1736)">
<g id="Weight=Dynamic">
<path id="Vector (Stroke)" fill-rule="evenodd" clip-rule="evenodd" d="M4.95034 6.011C3.57804 7.62475 2.75 9.71567 2.75 12C2.75 17.1086 6.89137 21.25 12 21.25C14.2843 21.25 16.3753 20.422 17.989 19.0497L14.6893 15.75H6.6C5.85442 15.75 5.25 15.1456 5.25 14.4V12.6C5.25 11.8544 5.85441 11.25 6.6 11.25H10.1893L4.95034 6.011ZM6.011 4.95034L14.25 13.1893V12C14.25 11.5858 14.5858 11.25 15 11.25C15.4142 11.25 15.75 11.5858 15.75 12V14.6893L19.0497 17.989C20.422 16.3753 21.25 14.2843 21.25 12C21.25 9.55389 20.3005 7.32955 18.75 5.67541L18.75 9C18.75 9.41421 18.4142 9.75 18 9.75C17.5858 9.75 17.25 9.41422 17.25 9L17.25 4.3832C15.7585 3.35321 13.9497 2.75 12 2.75C11.5699 2.75 11.1466 2.77936 10.7321 2.83618C10.7438 2.88891 10.75 2.94373 10.75 3V4.14286C10.75 5.3066 11.6934 6.25 12.8571 6.25C13.7576 6.25 14.496 6.57083 15.0074 7.10776C15.5094 7.63484 15.75 8.32559 15.75 9C15.75 9.41421 15.4142 9.75 15 9.75C14.5858 9.75 14.25 9.41421 14.25 9C14.25 8.67441 14.1335 8.36516 13.9212 8.14224C13.7183 7.92917 13.3853 7.75 12.8571 7.75C10.865 7.75 9.25 6.13503 9.25 4.14286V3.16565C8.04644 3.5399 6.94824 4.15333 6.011 4.95034ZM13.1893 14.25L11.6893 12.75H6.75V14.25H13.1893ZM1.25 12C1.25 6.06294 6.06294 1.25 12 1.25C17.9371 1.25 22.75 6.06294 22.75 12C22.75 17.9371 17.9371 22.75 12 22.75C6.06294 22.75 1.25 17.9371 1.25 12ZM18 11.25C18.4142 11.25 18.75 11.5858 18.75 12V15C18.75 15.4142 18.4142 15.75 18 15.75C17.5858 15.75 17.25 15.4142 17.25 15V12C17.25 11.5858 17.5858 11.25 18 11.25Z" fill="black"/>
</g>
</g>
</g>
<defs>
<clipPath id="clip0_232_1736">
<rect width="24" height="24" rx="5" fill="white"/>
</clipPath>
</defs>
</svg>
