<svg width="24" height="24" viewBox="0 0 24 24" fill="none" xmlns="http://www.w3.org/2000/svg">
<g id="non-binary">
<g clip-path="url(#clip0_232_8745)">
<g id="Weight=Dynamic">
<path id="Vector (Stroke)" fill-rule="evenodd" clip-rule="evenodd" d="M12 2.25C12.4142 2.25 12.75 2.58579 12.75 3V4.28647L14.6646 3.32918C15.0351 3.14394 15.4856 3.29411 15.6708 3.66459C15.8561 4.03507 15.7059 4.48558 15.3354 4.67082L13.6771 5.5L15.3354 6.32918C15.7059 6.51442 15.8561 6.96493 15.6708 7.33541C15.4856 7.70589 15.0351 7.85606 14.6646 7.67082L12.75 6.71353V8.2912C16.125 8.66428 18.75 11.5256 18.75 15C18.75 18.7279 15.7279 21.75 12 21.75C8.27208 21.75 5.25 18.7279 5.25 15C5.25 11.5256 7.87504 8.66428 11.25 8.2912V6.71353L9.33541 7.67082C8.96493 7.85606 8.51442 7.70589 8.32918 7.33541C8.14394 6.96493 8.29411 6.51442 8.66459 6.32918L10.3229 5.5L8.66459 4.67082C8.29411 4.48558 8.14394 4.03507 8.32918 3.66459C8.51442 3.29411 8.96493 3.14394 9.33541 3.32918L11.25 4.28647V3C11.25 2.58579 11.5858 2.25 12 2.25ZM12 9.75C9.1005 9.75 6.75 12.1005 6.75 15C6.75 17.8995 9.1005 20.25 12 20.25C14.8995 20.25 17.25 17.8995 17.25 15C17.25 12.1005 14.8995 9.75 12 9.75Z" fill="black"/>
</g>
</g>
</g>
<defs>
<clipPath id="clip0_232_8745">
<rect width="24" height="24" rx="5" fill="white"/>
</clipPath>
</defs>
</svg>
