<svg width="24" height="24" viewBox="0 0 24 24" fill="none" xmlns="http://www.w3.org/2000/svg">
<g id="notes">
<g clip-path="url(#clip0_232_11824)">
<g id="Weight=Dynamic">
<path id="Vector (Stroke)" fill-rule="evenodd" clip-rule="evenodd" d="M10 0.25C10.4142 0.25 10.75 0.585786 10.75 1V5C10.75 5.41421 10.4142 5.75 10 5.75C9.58579 5.75 9.25 5.41421 9.25 5V3.75H6C5.30964 3.75 4.75 4.30964 4.75 5V20C4.75 20.6904 5.30964 21.25 6 21.25H18C18.6904 21.25 19.25 20.6904 19.25 20V5C19.25 4.30964 18.6904 3.75 18 3.75H14.5C14.0858 3.75 13.75 3.41421 13.75 3C13.75 2.58579 14.0858 2.25 14.5 2.25H18C19.5188 2.25 20.75 3.48122 20.75 5V20C20.75 21.5188 19.5188 22.75 18 22.75H6C4.48122 22.75 3.25 21.5188 3.25 20V5C3.25 3.48122 4.48122 2.25 6 2.25H9.25V1C9.25 0.585786 9.58579 0.25 10 0.25ZM7.25 10C7.25 9.58579 7.58579 9.25 8 9.25H10C10.4142 9.25 10.75 9.58579 10.75 10C10.75 10.4142 10.4142 10.75 10 10.75H8C7.58579 10.75 7.25 10.4142 7.25 10ZM7.25 14C7.25 13.5858 7.58579 13.25 8 13.25L16 13.25C16.4142 13.25 16.75 13.5858 16.75 14C16.75 14.4142 16.4142 14.75 16 14.75L8 14.75C7.58579 14.75 7.25 14.4142 7.25 14ZM7.25 18C7.25 17.5858 7.58579 17.25 8 17.25H12C12.4142 17.25 12.75 17.5858 12.75 18C12.75 18.4142 12.4142 18.75 12 18.75H8C7.58579 18.75 7.25 18.4142 7.25 18Z" fill="black"/>
</g>
</g>
</g>
<defs>
<clipPath id="clip0_232_11824">
<rect width="24" height="24" rx="5" fill="white"/>
</clipPath>
</defs>
</svg>
