<svg width="24" height="24" viewBox="0 0 24 24" fill="none" xmlns="http://www.w3.org/2000/svg">
<g id="npm-square">
<g clip-path="url(#clip0_232_5637)">
<g id="Weight=Dynamic">
<path id="Vector (Stroke)" fill-rule="evenodd" clip-rule="evenodd" d="M2.25 3.6C2.25 2.85442 2.85442 2.25 3.6 2.25H20.4C21.1456 2.25 21.75 2.85442 21.75 3.6V20.4C21.75 21.1456 21.1456 21.75 20.4 21.75H3.6C2.85442 21.75 2.25 21.1456 2.25 20.4V3.6ZM3.75 3.75V20.25H20.25V3.75H3.75ZM7.25 8C7.25 7.58579 7.58579 7.25 8 7.25H16C16.4142 7.25 16.75 7.58579 16.75 8V16C16.75 16.4142 16.4142 16.75 16 16.75H8C7.58579 16.75 7.25 16.4142 7.25 16V8ZM13.75 15.25V11C13.75 10.5858 13.4142 10.25 13 10.25C12.5858 10.25 12.25 10.5858 12.25 11V15.25H8.75V8.75H15.25V15.25H13.75Z" fill="black"/>
</g>
</g>
</g>
<defs>
<clipPath id="clip0_232_5637">
<rect width="24" height="24" rx="5" fill="white"/>
</clipPath>
</defs>
</svg>
