<svg width="24" height="24" viewBox="0 0 24 24" fill="none" xmlns="http://www.w3.org/2000/svg">
<g id="npm">
<g clip-path="url(#clip0_232_5619)">
<g id="Weight=Dynamic">
<path id="Vector (Stroke)" fill-rule="evenodd" clip-rule="evenodd" d="M0.25 8C0.25 7.58579 0.585786 7.25 1 7.25H23C23.4142 7.25 23.75 7.58579 23.75 8V15C23.75 15.4142 23.4142 15.75 23 15.75H11.75V17C11.75 17.4142 11.4142 17.75 11 17.75H7.5C7.08579 17.75 6.75 17.4142 6.75 17V15.75H1C0.585786 15.75 0.25 15.4142 0.25 15V8ZM5.75 14.25V11C5.75 10.5858 5.41421 10.25 5 10.25C4.58579 10.25 4.25 10.5858 4.25 11V14.25H1.75V8.75H6.75V14.25H5.75ZM8.25 8.75V16.25H10.25V15C10.25 14.5858 10.5858 14.25 11 14.25H12.75V8.75H8.25ZM14.25 8.75V14.25H17.25V11C17.25 10.5858 17.5858 10.25 18 10.25C18.4142 10.25 18.75 10.5858 18.75 11V14.25H19.75V11C19.75 10.5858 20.0858 10.25 20.5 10.25C20.9142 10.25 21.25 10.5858 21.25 11V14.25H22.25V8.75H14.25ZM11 10.25C11.4142 10.25 11.75 10.5858 11.75 11V12C11.75 12.4142 11.4142 12.75 11 12.75C10.5858 12.75 10.25 12.4142 10.25 12V11C10.25 10.5858 10.5858 10.25 11 10.25Z" fill="black"/>
</g>
</g>
</g>
<defs>
<clipPath id="clip0_232_5619">
<rect width="24" height="24" rx="5" fill="white"/>
</clipPath>
</defs>
</svg>
