<svg width="24" height="24" viewBox="0 0 24 24" fill="none" xmlns="http://www.w3.org/2000/svg">
<g id="number-9-square">
<g clip-path="url(#clip0_232_12106)">
<g id="Weight=Dynamic">
<path id="Vector (Stroke)" fill-rule="evenodd" clip-rule="evenodd" d="M3.75 3.75V20.25H20.25V3.75H3.75ZM2.25 3.6C2.25 2.85441 2.85442 2.25 3.6 2.25H20.4C21.1456 2.25 21.75 2.85442 21.75 3.6V20.4C21.75 21.1456 21.1456 21.75 20.4 21.75H3.6C2.85442 21.75 2.25 21.1456 2.25 20.4V3.6ZM9.75361 7.92257C10.4053 7.3824 11.2431 7.25 12 7.25C12.7569 7.25 13.5947 7.3824 14.2464 7.92257C14.9267 8.48652 15.25 9.36149 15.25 10.5C15.25 10.6174 15.2444 10.7316 15.2334 10.8424C15.2443 10.8932 15.25 10.9459 15.25 11V11.0279C15.25 11.7567 15.25 12.4804 15.1747 13.1328C15.098 13.7976 14.9371 14.457 14.5684 15.0306C13.7907 16.2403 12.3186 16.75 10 16.75C9.58579 16.75 9.25 16.4142 9.25 16C9.25 15.5858 9.58579 15.25 10 15.25C12.1814 15.25 12.9593 14.7597 13.3066 14.2194C13.5004 13.918 13.6207 13.5149 13.6846 12.9609C13.6848 12.9591 13.685 12.9573 13.6853 12.9555C13.1588 13.1753 12.5674 13.25 12 13.25C11.2406 13.25 10.4381 13.1162 9.80598 12.6796C9.12642 12.2102 8.75 11.4651 8.75 10.5C8.75 9.36149 9.07325 8.48652 9.75361 7.92257ZM10.7109 9.07743C10.4864 9.26348 10.25 9.63851 10.25 10.5C10.25 11.0349 10.4332 11.2898 10.6585 11.4454C10.9312 11.6338 11.3787 11.75 12 11.75C12.6213 11.75 13.0688 11.6338 13.3415 11.4454C13.5668 11.2898 13.75 11.0349 13.75 10.5C13.75 9.63851 13.5136 9.26348 13.2891 9.07743C13.036 8.8676 12.6238 8.75 12 8.75C11.3762 8.75 10.964 8.8676 10.7109 9.07743Z" fill="black"/>
</g>
</g>
</g>
<defs>
<clipPath id="clip0_232_12106">
<rect width="24" height="24" rx="5" fill="white"/>
</clipPath>
</defs>
</svg>
