<svg width="24" height="24" viewBox="0 0 24 24" fill="none" xmlns="http://www.w3.org/2000/svg">
<g id="number-1-square">
<g clip-path="url(#clip0_232_12009)">
<g id="Weight=Dynamic">
<path id="Vector (Stroke)" fill-rule="evenodd" clip-rule="evenodd" d="M3.75 3.75V20.25H20.25V3.75H3.75ZM2.25 3.6C2.25 2.85441 2.85442 2.25 3.6 2.25H20.4C21.1456 2.25 21.75 2.85442 21.75 3.6V20.4C21.75 21.1456 21.1456 21.75 20.4 21.75H3.6C2.85442 21.75 2.25 21.1456 2.25 20.4V3.6ZM13.287 7.30709C13.5673 7.42318 13.75 7.69665 13.75 8V16C13.75 16.4142 13.4142 16.75 13 16.75C12.5858 16.75 12.25 16.4142 12.25 16V9.81066L10.5303 11.5303C10.2374 11.8232 9.76256 11.8232 9.46967 11.5303C9.17678 11.2374 9.17678 10.7626 9.46967 10.4697L12.4697 7.46967C12.6842 7.25517 13.0068 7.191 13.287 7.30709Z" fill="black"/>
</g>
</g>
</g>
<defs>
<clipPath id="clip0_232_12009">
<rect width="24" height="24" rx="5" fill="white"/>
</clipPath>
</defs>
</svg>
