<svg width="24" height="24" viewBox="0 0 24 24" fill="none" xmlns="http://www.w3.org/2000/svg">
<g id="number-0-square">
<g clip-path="url(#clip0_232_11998)">
<g id="Weight=Dynamic">
<path id="Vector (Stroke)" fill-rule="evenodd" clip-rule="evenodd" d="M3.75 3.75V20.25H20.25V3.75H3.75ZM2.25 3.6C2.25 2.85441 2.85442 2.25 3.6 2.25H20.4C21.1456 2.25 21.75 2.85442 21.75 3.6V20.4C21.75 21.1456 21.1456 21.75 20.4 21.75H3.6C2.85442 21.75 2.25 21.1456 2.25 20.4V3.6ZM11.5 8.75C10.8096 8.75 10.25 9.30964 10.25 10V14C10.25 14.6904 10.8096 15.25 11.5 15.25H12.5C13.1904 15.25 13.75 14.6904 13.75 14V10C13.75 9.30964 13.1904 8.75 12.5 8.75H11.5ZM8.75 10C8.75 8.48122 9.98122 7.25 11.5 7.25H12.5C14.0188 7.25 15.25 8.48122 15.25 10V14C15.25 15.5188 14.0188 16.75 12.5 16.75H11.5C9.98122 16.75 8.75 15.5188 8.75 14V10Z" fill="black"/>
</g>
</g>
</g>
<defs>
<clipPath id="clip0_232_11998">
<rect width="24" height="24" rx="5" fill="white"/>
</clipPath>
</defs>
</svg>
