<svg width="24" height="24" viewBox="0 0 24 24" fill="none" xmlns="http://www.w3.org/2000/svg">
<g id="number-5-square">
<g clip-path="url(#clip0_232_12056)">
<g id="Weight=Dynamic">
<path id="Vector (Stroke)" fill-rule="evenodd" clip-rule="evenodd" d="M3.75 3.75V20.25H20.25V3.75H3.75ZM2.25 3.6C2.25 2.85441 2.85442 2.25 3.6 2.25H20.4C21.1456 2.25 21.75 2.85442 21.75 3.6V20.4C21.75 21.1456 21.1456 21.75 20.4 21.75H3.6C2.85442 21.75 2.25 21.1456 2.25 20.4V3.6ZM9.2602 7.8767C9.32048 7.51506 9.63337 7.25 10 7.25H14C14.4142 7.25 14.75 7.58579 14.75 8C14.75 8.41421 14.4142 8.75 14 8.75H10.6353L10.3853 10.25H12.5C13.3931 10.25 14.1302 10.586 14.6182 11.2381C15.08 11.8552 15.25 12.6639 15.25 13.5C15.25 15.4377 13.771 16.75 12 16.75C10.3699 16.75 8.75 15.6663 8.75 14C8.75 13.5858 9.08579 13.25 9.5 13.25C9.91421 13.25 10.25 13.5858 10.25 14C10.25 14.5428 10.8687 15.25 12 15.25C12.9904 15.25 13.75 14.5623 13.75 13.5C13.75 12.8361 13.6103 12.3948 13.4173 12.1369C13.2505 11.914 12.9876 11.75 12.5 11.75H9.5C9.27954 11.75 9.07024 11.653 8.92773 11.4848C8.78523 11.3166 8.72396 11.0942 8.7602 10.8767L9.2602 7.8767Z" fill="black"/>
</g>
</g>
</g>
<defs>
<clipPath id="clip0_232_12056">
<rect width="24" height="24" rx="5" fill="white"/>
</clipPath>
</defs>
</svg>
