<svg width="24" height="24" viewBox="0 0 24 24" fill="none" xmlns="http://www.w3.org/2000/svg">
<g id="number-7-square">
<g clip-path="url(#clip0_232_12081)">
<g id="Weight=Dynamic">
<path id="Vector (Stroke)" fill-rule="evenodd" clip-rule="evenodd" d="M3.75 3.75V20.25H20.25V3.75H3.75ZM2.25 3.6C2.25 2.85441 2.85442 2.25 3.6 2.25H20.4C21.1456 2.25 21.75 2.85442 21.75 3.6V20.4C21.75 21.1456 21.1456 21.75 20.4 21.75H3.6C2.85442 21.75 2.25 21.1456 2.25 20.4V3.6ZM8.75 8C8.75 7.58579 9.08579 7.25 9.5 7.25H14.5C14.8033 7.25 15.0768 7.43273 15.1929 7.71299C15.309 7.99314 15.2449 8.31559 15.0306 8.53009C15.0306 8.5301 15.0306 8.53011 15.0305 8.53012C15.0305 8.53019 15.0304 8.53026 15.0303 8.53033L14.5 8V8.75H12.8507H9.5C9.08579 8.75 8.75 8.41421 8.75 8ZM12.8507 8.75C12.5496 9.12806 12.213 9.57843 11.876 10.084C10.8511 11.6213 9.75 13.7746 9.75 16C9.75 16.4142 10.0858 16.75 10.5 16.75C10.9142 16.75 11.25 16.4142 11.25 16C11.25 14.2254 12.1489 12.3787 13.124 10.916C13.6035 10.1969 14.084 9.59615 14.4444 9.17559C14.6243 8.96571 14.7735 8.80173 14.8764 8.69143C14.9279 8.6363 14.9677 8.59465 14.994 8.56746L15.0231 8.53767L15.0295 8.53114L15.0303 8.53033" fill="black"/>
</g>
</g>
</g>
<defs>
<clipPath id="clip0_232_12081">
<rect width="24" height="24" rx="5" fill="white"/>
</clipPath>
</defs>
</svg>
