<svg width="24" height="24" viewBox="0 0 24 24" fill="none" xmlns="http://www.w3.org/2000/svg">
<g id="number-3-square">
<g clip-path="url(#clip0_232_12031)">
<g id="Weight=Dynamic">
<path id="Vector (Stroke)" fill-rule="evenodd" clip-rule="evenodd" d="M3.75 3.75V20.25H20.25V3.75H3.75ZM2.25 3.6C2.25 2.85441 2.85442 2.25 3.6 2.25H20.4C21.1456 2.25 21.75 2.85442 21.75 3.6V20.4C21.75 21.1456 21.1456 21.75 20.4 21.75H3.6C2.85442 21.75 2.25 21.1456 2.25 20.4V3.6ZM8.75 10C8.75 8.33369 10.3699 7.25 12 7.25C13.6301 7.25 15.25 8.33369 15.25 10C15.25 10.6855 15.0575 11.3829 14.574 11.9174C14.5484 11.9456 14.5223 11.9732 14.4955 12C14.5223 12.0269 14.5484 12.0544 14.574 12.0826C15.0575 12.6171 15.25 13.3145 15.25 14C15.25 15.6663 13.6301 16.75 12 16.75C10.3699 16.75 8.75 15.6663 8.75 14C8.75 13.5858 9.08579 13.25 9.5 13.25C9.91421 13.25 10.25 13.5858 10.25 14C10.25 14.5428 10.8687 15.25 12 15.25C13.1313 15.25 13.75 14.5428 13.75 14C13.75 13.5809 13.6329 13.2783 13.4616 13.0889C13.3018 12.9123 13.0195 12.75 12.5 12.75C12.0858 12.75 11.75 12.4142 11.75 12C11.75 11.5858 12.0858 11.25 12.5 11.25C13.0195 11.25 13.3018 11.0877 13.4616 10.9111C13.6329 10.7217 13.75 10.4191 13.75 10C13.75 9.45717 13.1313 8.75 12 8.75C10.8687 8.75 10.25 9.45717 10.25 10C10.25 10.4142 9.91421 10.75 9.5 10.75C9.08579 10.75 8.75 10.4142 8.75 10Z" fill="black"/>
</g>
</g>
</g>
<defs>
<clipPath id="clip0_232_12031">
<rect width="24" height="24" rx="5" fill="white"/>
</clipPath>
</defs>
</svg>
