<svg width="24" height="24" viewBox="0 0 24 24" fill="none" xmlns="http://www.w3.org/2000/svg">
<g id="numbered-list-right">
<g clip-path="url(#clip0_232_6541)">
<g id="Weight=Dynamic">
<path id="Vector (Stroke)" fill-rule="evenodd" clip-rule="evenodd" d="M20.787 2.30709C21.0673 2.42318 21.25 2.69665 21.25 3V7C21.25 7.41421 20.9142 7.75 20.5 7.75C20.0858 7.75 19.75 7.41421 19.75 7V4.81066L19.5303 5.03033C19.2374 5.32322 18.7626 5.32322 18.4697 5.03033C18.1768 4.73744 18.1768 4.26256 18.4697 3.96967L19.9697 2.46967C20.1842 2.25517 20.5068 2.191 20.787 2.30709ZM2.25 5C2.25 4.58579 2.58579 4.25 3 4.25L15 4.25C15.4142 4.25 15.75 4.58579 15.75 5C15.75 5.41421 15.4142 5.75 15 5.75L3 5.75C2.58579 5.75 2.25 5.41421 2.25 5ZM18.4713 10.0767C18.7259 9.62418 19.2224 9.25 20 9.25C20.5328 9.25 20.9599 9.42665 21.2634 9.72757C21.5486 10.0103 21.6621 10.3405 21.7091 10.5512C21.7921 10.9233 21.6644 11.2423 21.5356 11.4427L20.3737 13.25H21C21.4142 13.25 21.75 13.5858 21.75 14C21.75 14.4142 21.4142 14.75 21 14.75H19C18.7256 14.75 18.4732 14.6002 18.3417 14.3594C18.2102 14.1186 18.2208 13.8252 18.3691 13.5944L20.1806 10.7766C20.179 10.7759 20.1773 10.7752 20.1756 10.7746C20.1523 10.7655 20.0988 10.75 20 10.75C19.8644 10.75 19.8129 10.7789 19.8042 10.7841C19.7948 10.7897 19.7877 10.7961 19.7787 10.8121C19.7671 10.8326 19.758 10.8605 19.7528 10.8882C19.7513 10.8961 19.7505 10.9024 19.75 10.9062V11.1111C19.75 11.5253 19.4142 11.8611 19 11.8611C18.5858 11.8611 18.25 11.5253 18.25 11.1111V10.8889C18.25 10.8431 18.2522 10.4663 18.4713 10.0767ZM2.25 12C2.25 11.5858 2.58579 11.25 3 11.25L15 11.25C15.4142 11.25 15.75 11.5858 15.75 12C15.75 12.4142 15.4142 12.75 15 12.75L3 12.75C2.58579 12.75 2.25 12.4142 2.25 12ZM19.5 17.75H19C18.5858 17.75 18.25 17.4142 18.25 17C18.25 16.5858 18.5858 16.25 19 16.25H21C21.2841 16.25 21.5438 16.4105 21.6708 16.6646C21.7979 16.9187 21.7704 17.2227 21.6 17.45L20.8394 18.4641C21.3821 18.7613 21.75 19.3377 21.75 20C21.75 20.9665 20.9665 21.75 20 21.75H19C18.5858 21.75 18.25 21.4142 18.25 21C18.25 20.5858 18.5858 20.25 19 20.25H20C20.1381 20.25 20.25 20.1381 20.25 20C20.25 19.8619 20.1381 19.75 20 19.75C19.176 19.75 18.7056 18.8092 19.2 18.15L19.5 17.75ZM2.25 19C2.25 18.5858 2.58579 18.25 3 18.25L15 18.25C15.4142 18.25 15.75 18.5858 15.75 19C15.75 19.4142 15.4142 19.75 15 19.75L3 19.75C2.58579 19.75 2.25 19.4142 2.25 19Z" fill="black"/>
</g>
</g>
</g>
<defs>
<clipPath id="clip0_232_6541">
<rect width="24" height="24" rx="5" fill="white"/>
</clipPath>
</defs>
</svg>
