<svg width="24" height="24" viewBox="0 0 24 24" fill="none" xmlns="http://www.w3.org/2000/svg">
<g id="number-2-square">
<g clip-path="url(#clip0_232_12020)">
<g id="Weight=Dynamic">
<path id="Vector (Stroke)" fill-rule="evenodd" clip-rule="evenodd" d="M3.75 3.75V20.25H20.25V3.75H3.75ZM2.25 3.6C2.25 2.85441 2.85442 2.25 3.6 2.25H20.4C21.1456 2.25 21.75 2.85442 21.75 3.6V20.4C21.75 21.1456 21.1456 21.75 20.4 21.75H3.6C2.85442 21.75 2.25 21.1456 2.25 20.4V3.6ZM11.8077 8.75C10.9749 8.75 10.25 9.46073 10.25 10.4V10.8C10.25 11.2142 9.91421 11.55 9.5 11.55C9.08579 11.55 8.75 11.2142 8.75 10.8V10.4C8.75 8.6883 10.0915 7.25 11.8077 7.25C13.5239 7.25 14.8654 8.6883 14.8654 10.4C14.8654 10.9926 14.7059 11.5504 14.4265 12.027C13.8383 13.0302 12.6904 14.1853 11.7537 15.0476C11.6789 15.1165 11.6048 15.1841 11.5319 15.25H14.5C14.9142 15.25 15.25 15.5858 15.25 16C15.25 16.4142 14.9142 16.75 14.5 16.75H9.5C9.18089 16.75 8.89673 16.5481 8.79175 16.2467C8.68677 15.9454 8.78397 15.6106 9.034 15.4123L9.5 16C9.034 15.4123 9.03396 15.4124 9.03394 15.4124L9.034 15.4123L9.03417 15.4122L9.0355 15.4111L9.04159 15.4063L9.06701 15.3859C9.0897 15.3677 9.12361 15.3404 9.16743 15.3047C9.2551 15.2334 9.3823 15.1289 9.53856 14.9976C9.85144 14.7348 10.2789 14.3665 10.7378 13.9441C11.6782 13.0782 12.67 12.057 13.1324 11.2683C13.2793 11.0178 13.3654 10.7213 13.3654 10.4C13.3654 9.46073 12.6405 8.75 11.8077 8.75Z" fill="black"/>
</g>
</g>
</g>
<defs>
<clipPath id="clip0_232_12020">
<rect width="24" height="24" rx="5" fill="white"/>
</clipPath>
</defs>
</svg>
