<svg width="24" height="24" viewBox="0 0 24 24" fill="none" xmlns="http://www.w3.org/2000/svg">
<g id="number-4-square">
<g clip-path="url(#clip0_232_12045)">
<g id="Weight=Dynamic">
<path id="Vector (Stroke)" fill-rule="evenodd" clip-rule="evenodd" d="M3.75 3.75V20.25H20.25V3.75H3.75ZM2.25 3.6C2.25 2.85441 2.85442 2.25 3.6 2.25H20.4C21.1456 2.25 21.75 2.85442 21.75 3.6V20.4C21.75 21.1456 21.1456 21.75 20.4 21.75H3.6C2.85442 21.75 2.25 21.1456 2.25 20.4V3.6ZM13.7521 7.29365C14.0507 7.40023 14.25 7.683 14.25 8V12.75H15C15.4142 12.75 15.75 13.0858 15.75 13.5C15.75 13.9142 15.4142 14.25 15 14.25H14.25V16C14.25 16.4142 13.9142 16.75 13.5 16.75C13.0858 16.75 12.75 16.4142 12.75 16V14.25H9C8.71021 14.25 8.44635 14.083 8.32225 13.8212C8.19815 13.5593 8.23602 13.2494 8.41953 13.0251L12.9195 7.52507C13.1203 7.27972 13.4536 7.18708 13.7521 7.29365ZM12.75 12.75V10.1011L10.5827 12.75H12.75Z" fill="black"/>
</g>
</g>
</g>
<defs>
<clipPath id="clip0_232_12045">
<rect width="24" height="24" rx="5" fill="white"/>
</clipPath>
</defs>
</svg>
