<svg width="24" height="24" viewBox="0 0 24 24" fill="none" xmlns="http://www.w3.org/2000/svg">
<g id="o-square">
<g clip-path="url(#clip0_232_15623)">
<g id="Weight=Dynamic">
<path id="Vector (Stroke)" fill-rule="evenodd" clip-rule="evenodd" d="M2.25 3.6C2.25 2.85442 2.85442 2.25 3.6 2.25H20.4C21.1456 2.25 21.75 2.85442 21.75 3.6V20.4C21.75 21.1456 21.1456 21.75 20.4 21.75H3.6C2.85442 21.75 2.25 21.1456 2.25 20.4V3.6ZM3.75 3.75V20.25H20.25V3.75H3.75ZM9.25 9.8C9.25 8.39167 10.3917 7.25 11.8 7.25H12.2C13.6083 7.25 14.75 8.39167 14.75 9.8V14.2C14.75 15.6083 13.6083 16.75 12.2 16.75H11.8C10.3917 16.75 9.25 15.6083 9.25 14.2V9.8ZM11.8 8.75C11.2201 8.75 10.75 9.2201 10.75 9.8V14.2C10.75 14.7799 11.2201 15.25 11.8 15.25H12.2C12.7799 15.25 13.25 14.7799 13.25 14.2V9.8C13.25 9.2201 12.7799 8.75 12.2 8.75H11.8Z" fill="black"/>
</g>
</g>
</g>
<defs>
<clipPath id="clip0_232_15623">
<rect width="24" height="24" rx="5" fill="white"/>
</clipPath>
</defs>
</svg>
