<svg width="24" height="24" viewBox="0 0 24 24" fill="none" xmlns="http://www.w3.org/2000/svg">
<g id="octagon">
<g clip-path="url(#clip0_232_13174)">
<g id="Weight=Dynamic" clip-path="url(#clip1_232_13174)">
<path id="Polygon (Stroke)" fill-rule="evenodd" clip-rule="evenodd" d="M11.4833 0.402201C11.814 0.265184 12.1857 0.265184 12.5165 0.402201L19.8355 3.43381C20.1663 3.57083 20.4291 3.83364 20.5661 4.16443L23.5977 11.4834C23.7347 11.8142 23.7347 12.1858 23.5977 12.5166L20.5661 19.8356C20.4291 20.1664 20.1662 20.4292 19.8355 20.5662L12.5165 23.5978C12.1857 23.7348 11.814 23.7348 11.4833 23.5978L4.1643 20.5662C3.83352 20.4292 3.57071 20.1664 3.43369 19.8356L0.402079 12.5166C0.265062 12.1858 0.265062 11.8142 0.402079 11.4834L3.43369 4.16443C3.57071 3.83364 3.83352 3.57083 4.1643 3.43381L11.4833 0.402201ZM11.9999 1.8118L4.79573 4.79585L1.81168 12L4.79573 19.2042L11.9999 22.1882L19.204 19.2042L22.1881 12L19.204 4.79585L11.9999 1.8118Z" fill="black"/>
</g>
</g>
</g>
<defs>
<clipPath id="clip0_232_13174">
<rect width="24" height="24" rx="5" fill="white"/>
</clipPath>
<clipPath id="clip1_232_13174">
<rect width="24" height="24" fill="white"/>
</clipPath>
</defs>
</svg>
