<svg width="24" height="24" viewBox="0 0 24 24" fill="none" xmlns="http://www.w3.org/2000/svg">
<g id="off-tag">
<g clip-path="url(#clip0_232_14818)">
<g id="Weight=Dynamic">
<path id="Vector (Stroke)" fill-rule="evenodd" clip-rule="evenodd" d="M7 3.75C4.1005 3.75 1.75 6.10051 1.75 9V15C1.75 17.8995 4.10051 20.25 7 20.25H17C19.8995 20.25 22.25 17.8995 22.25 15V9C22.25 6.1005 19.8995 3.75 17 3.75H7ZM0.25 9C0.25 5.27208 3.27208 2.25 7 2.25H17C20.7279 2.25 23.75 5.27208 23.75 9V15C23.75 18.7279 20.7279 21.75 17 21.75H7C3.27208 21.75 0.25 18.7279 0.25 15V9ZM7 9.75C5.75736 9.75 4.75 10.7574 4.75 12C4.75 13.2426 5.75736 14.25 7 14.25C8.24264 14.25 9.25 13.2426 9.25 12C9.25 10.7574 8.24264 9.75 7 9.75ZM3.25 12C3.25 9.92893 4.92893 8.25 7 8.25C9.07107 8.25 10.75 9.92893 10.75 12C10.75 14.0711 9.07107 15.75 7 15.75C4.92893 15.75 3.25 14.0711 3.25 12ZM11.25 9C11.25 8.58579 11.5858 8.25 12 8.25H15C15.4142 8.25 15.75 8.58579 15.75 9C15.75 9.41421 15.4142 9.75 15 9.75H12.75V11.25H14.5713C14.9855 11.25 15.3213 11.5858 15.3213 12C15.3213 12.4142 14.9855 12.75 14.5713 12.75H12.75V15C12.75 15.4142 12.4142 15.75 12 15.75C11.5858 15.75 11.25 15.4142 11.25 15V12.0146C11.2499 12.0097 11.2499 12.0049 11.2499 12C11.2499 11.9951 11.2499 11.9903 11.25 11.9854V9ZM16.25 9C16.25 8.58579 16.5858 8.25 17 8.25H20C20.4142 8.25 20.75 8.58579 20.75 9C20.75 9.41421 20.4142 9.75 20 9.75H17.75V11.25H19.5713C19.9855 11.25 20.3213 11.5858 20.3213 12C20.3213 12.4142 19.9855 12.75 19.5713 12.75H17.75V15C17.75 15.4142 17.4142 15.75 17 15.75C16.5858 15.75 16.25 15.4142 16.25 15V12.0146C16.2499 12.0097 16.2499 12.0049 16.2499 12C16.2499 11.9951 16.2499 11.9903 16.25 11.9854V9Z" fill="black"/>
</g>
</g>
</g>
<defs>
<clipPath id="clip0_232_14818">
<rect width="24" height="24" rx="5" fill="white"/>
</clipPath>
</defs>
</svg>
