<svg width="24" height="24" viewBox="0 0 24 24" fill="none" xmlns="http://www.w3.org/2000/svg">
<g id="oil-industry">
<g clip-path="url(#clip0_232_2469)">
<g id="Weight=Dynamic">
<path id="Vector (Stroke)" fill-rule="evenodd" clip-rule="evenodd" d="M11 1.25C11.4142 1.25 11.75 1.58579 11.75 2V5C11.75 6.24257 12.7575 7.25 14.0002 7.25H15C17.2 7.25 18.75 8.4 18.75 10C18.75 10.4142 18.4142 10.75 18 10.75C17.5858 10.75 17.25 10.4142 17.25 10C17.25 9.6 16.8 8.75 15 8.75H14.0002C11.9292 8.75 10.25 7.07114 10.25 5V2C10.25 1.58579 10.5858 1.25 11 1.25ZM21 1.25C21.4142 1.25 21.75 1.58579 21.75 2C21.75 2.71385 21.502 3.2943 21.0851 3.73076C20.7301 4.10241 20.2847 4.337 19.8515 4.48783C19.9041 4.53728 19.9563 4.58871 20.0082 4.6422C20.9958 5.6607 21.75 7.32808 21.75 10C21.75 10.4142 21.4142 10.75 21 10.75C20.5858 10.75 20.25 10.4142 20.25 10C20.25 7.61929 19.5859 6.36146 18.9313 5.68642C18.2806 5.0154 17.5463 4.82406 17.188 4.76992C17.1092 4.76439 17.0447 4.75867 16.9975 4.75404C16.971 4.75143 16.9499 4.74916 16.9346 4.74745L16.9162 4.74533L16.9104 4.74463L16.9084 4.74439L16.9073 4.74425C16.9072 4.74424 16.907 4.74421 17 4C17 3.25 17.0001 3.25 17.0002 3.25L17.0015 3.25L17.0031 3.25001L17.0068 3.25003L17.0159 3.25013L17.0413 3.25073C17.0613 3.25134 17.0873 3.25246 17.119 3.2545C17.1761 3.25817 17.2517 3.26483 17.3426 3.27689C17.7741 3.30386 18.5773 3.31146 19.2512 3.10615C19.5898 3.00298 19.8404 2.86222 20.0005 2.69466C20.1434 2.54503 20.25 2.33878 20.25 2C20.25 1.58579 20.5858 1.25 21 1.25ZM17 4L17.0002 3.25C16.6041 3.25 16.2761 3.55804 16.2514 3.9534C16.2268 4.34875 16.5142 4.69511 16.9073 4.74425L17 4ZM6.5332 5.47255L6 6L5.4668 5.47255L6 4.93355L6.5332 5.47255ZM6 7.10222C5.74043 7.3938 5.41717 7.77327 5.09539 8.19334C4.73396 8.66517 4.38621 9.17295 4.13202 9.65451C3.86823 10.1543 3.75 10.5434 3.75 10.8C3.75 12.1994 4.80222 13.25 6 13.25C7.19778 13.25 8.25 12.1994 8.25 10.8C8.25 10.5434 8.13177 10.1543 7.86798 9.65451C7.61379 9.17295 7.26604 8.66517 6.90461 8.19334C6.58283 7.77327 6.25956 7.3938 6 7.10222ZM6 6C5.4668 5.47255 5.4669 5.47245 5.4668 5.47255L5.46341 5.47599L5.45574 5.4838L5.42806 5.51219C5.40433 5.53666 5.37023 5.57204 5.32726 5.61729C5.24135 5.70775 5.11972 5.83789 4.97424 5.99924C4.68401 6.32112 4.29523 6.77124 3.90461 7.28118C3.51604 7.78843 3.11379 8.3702 2.80548 8.95432C2.50677 9.52023 2.25 10.173 2.25 10.8C2.25 12.9352 3.88407 14.75 6 14.75C8.11593 14.75 9.75 12.9352 9.75 10.8C9.75 10.173 9.49323 9.52023 9.19452 8.95432C8.88621 8.3702 8.48396 7.78843 8.09539 7.28118C7.70477 6.77124 7.31599 6.32112 7.02576 5.99924C6.88028 5.83789 6.75865 5.70775 6.67274 5.61729C6.62977 5.57204 6.59567 5.53666 6.57194 5.51219L6.54426 5.4838L6.53659 5.47599L6.5332 5.47255C6.5331 5.47245 6.5332 5.47255 6 6ZM17.25 12C17.25 11.5858 17.5858 11.25 18 11.25H21C21.4142 11.25 21.75 11.5858 21.75 12V21C21.75 21.4142 21.4142 21.75 21 21.75H10.5C10.0858 21.75 9.75 21.4142 9.75 21V16.5C9.75 16.2414 9.88321 16.0011 10.1025 15.864L14.1025 13.364C14.3599 13.2031 14.6889 13.2133 14.9359 13.3897L17.25 15.0426V12ZM17.25 16.886L14.4722 14.9018L11.25 16.9157V20.25H17.25V16.886ZM18.75 20.25H20.25V12.75H18.75V20.25Z" fill="black"/>
</g>
</g>
</g>
<defs>
<clipPath id="clip0_232_2469">
<rect width="24" height="24" rx="5" fill="white"/>
</clipPath>
</defs>
</svg>
