<svg width="24" height="24" viewBox="0 0 24 24" fill="none" xmlns="http://www.w3.org/2000/svg">
<g id="okrs">
<g clip-path="url(#clip0_232_17595)">
<g id="Weight=Dynamic">
<path id="Vector (Stroke)" fill-rule="evenodd" clip-rule="evenodd" d="M18 3.75C17.3096 3.75 16.75 4.30964 16.75 5C16.75 5.69036 17.3096 6.25 18 6.25C18.6904 6.25 19.25 5.69036 19.25 5C19.25 4.30964 18.6904 3.75 18 3.75ZM15.25 5C15.25 3.48122 16.4812 2.25 18 2.25C19.5188 2.25 20.75 3.48122 20.75 5C20.75 6.51878 19.5188 7.75 18 7.75C16.4812 7.75 15.25 6.51878 15.25 5ZM2.25 5C2.25 4.58579 2.58579 4.25 3 4.25H13C13.4142 4.25 13.75 4.58579 13.75 5C13.75 5.41421 13.4142 5.75 13 5.75H3C2.58579 5.75 2.25 5.41421 2.25 5ZM18 10.75C17.3096 10.75 16.75 11.3096 16.75 12C16.75 12.6904 17.3096 13.25 18 13.25C18.6904 13.25 19.25 12.6904 19.25 12C19.25 11.3096 18.6904 10.75 18 10.75ZM15.25 12C15.25 10.4812 16.4812 9.25 18 9.25C19.5188 9.25 20.75 10.4812 20.75 12C20.75 13.5188 19.5188 14.75 18 14.75C16.4812 14.75 15.25 13.5188 15.25 12ZM2.25 12C2.25 11.5858 2.58579 11.25 3 11.25H13C13.4142 11.25 13.75 11.5858 13.75 12C13.75 12.4142 13.4142 12.75 13 12.75H3C2.58579 12.75 2.25 12.4142 2.25 12ZM15.4697 16.4697C15.7626 16.1768 16.2374 16.1768 16.5303 16.4697L18.1213 18.0607L19.7123 16.4697C20.0052 16.1768 20.4801 16.1768 20.773 16.4697C21.0659 16.7626 21.0659 17.2374 20.773 17.5303L19.182 19.1213L20.773 20.7123C21.0659 21.0052 21.0659 21.4801 20.773 21.773C20.4801 22.0659 20.0052 22.0659 19.7123 21.773L18.1213 20.182L16.5303 21.773C16.2374 22.0659 15.7626 22.0659 15.4697 21.773C15.1768 21.4801 15.1768 21.0052 15.4697 20.7123L17.0607 19.1213L15.4697 17.5303C15.1768 17.2374 15.1768 16.7626 15.4697 16.4697ZM2.25 19C2.25 18.5858 2.58579 18.25 3 18.25H13C13.4142 18.25 13.75 18.5858 13.75 19C13.75 19.4142 13.4142 19.75 13 19.75H3C2.58579 19.75 2.25 19.4142 2.25 19Z" fill="black"/>
</g>
</g>
</g>
<defs>
<clipPath id="clip0_232_17595">
<rect width="24" height="24" rx="5" fill="white"/>
</clipPath>
</defs>
</svg>
