<svg width="24" height="24" viewBox="0 0 24 24" fill="none" xmlns="http://www.w3.org/2000/svg">
<g id="on-tag">
<g clip-path="url(#clip0_232_14834)">
<g id="Weight=Dynamic">
<path id="Vector (Stroke)" fill-rule="evenodd" clip-rule="evenodd" d="M7 3.75C4.1005 3.75 1.75 6.10051 1.75 9V15C1.75 17.8995 4.10051 20.25 7 20.25H17C19.8995 20.25 22.25 17.8995 22.25 15V9C22.25 6.1005 19.8995 3.75 17 3.75H7ZM0.25 9C0.25 5.27208 3.27208 2.25 7 2.25H17C20.7279 2.25 23.75 5.27208 23.75 9V15C23.75 18.7279 20.7279 21.75 17 21.75H7C3.27208 21.75 0.25 18.7279 0.25 15V9ZM13.7827 8.28218C14.099 8.18641 14.4407 8.30898 14.624 8.58397L17.25 12.5229V9C17.25 8.58579 17.5858 8.25 18 8.25C18.4142 8.25 18.75 8.58579 18.75 9V15C18.75 15.3305 18.5337 15.622 18.2173 15.7178C17.901 15.8136 17.5593 15.691 17.376 15.416L14.75 11.4771V15C14.75 15.4142 14.4142 15.75 14 15.75C13.5858 15.75 13.25 15.4142 13.25 15V9C13.25 8.6695 13.4663 8.37795 13.7827 8.28218ZM9 9.75C7.75736 9.75 6.75 10.7574 6.75 12C6.75 13.2426 7.75736 14.25 9 14.25C10.2426 14.25 11.25 13.2426 11.25 12C11.25 10.7574 10.2426 9.75 9 9.75ZM5.25 12C5.25 9.92893 6.92893 8.25 9 8.25C11.0711 8.25 12.75 9.92893 12.75 12C12.75 14.0711 11.0711 15.75 9 15.75C6.92893 15.75 5.25 14.0711 5.25 12Z" fill="black"/>
</g>
</g>
</g>
<defs>
<clipPath id="clip0_232_14834">
<rect width="24" height="24" rx="5" fill="white"/>
</clipPath>
</defs>
</svg>
