<svg width="24" height="24" viewBox="0 0 24 24" fill="none" xmlns="http://www.w3.org/2000/svg">
<g id="one-point-circle">
<g clip-path="url(#clip0_232_484)">
<g id="Weight=Dynamic">
<g id="Vector">
</g>
<path id="Vector (Stroke)" fill-rule="evenodd" clip-rule="evenodd" d="M12 2.75C6.89137 2.75 2.75 6.89137 2.75 12C2.75 17.1086 6.89137 21.25 12 21.25C14.2843 21.25 16.3753 20.422 17.989 19.0497L16.9697 18.0303C16.6768 17.7374 16.6768 17.2626 16.9697 16.9697C17.2626 16.6768 17.7374 16.6768 18.0303 16.9697L19.0497 17.989C20.422 16.3753 21.25 14.2843 21.25 12C21.25 6.89137 17.1086 2.75 12 2.75ZM1.25 12C1.25 6.06294 6.06294 1.25 12 1.25C17.9371 1.25 22.75 6.06294 22.75 12C22.75 17.9371 17.9371 22.75 12 22.75C6.06294 22.75 1.25 17.9371 1.25 12ZM12 11.75C11.8619 11.75 11.75 11.8619 11.75 12C11.75 12.1381 11.8619 12.25 12 12.25C12.1381 12.25 12.25 12.1381 12.25 12C12.25 11.8619 12.1381 11.75 12 11.75ZM10.25 12C10.25 11.0335 11.0335 10.25 12 10.25C12.9665 10.25 13.75 11.0335 13.75 12C13.75 12.9665 12.9665 13.75 12 13.75C11.0335 13.75 10.25 12.9665 10.25 12ZM13.9697 13.9697C14.2626 13.6768 14.7374 13.6768 15.0303 13.9697L16.0303 14.9697C16.3232 15.2626 16.3232 15.7374 16.0303 16.0303C15.7374 16.3232 15.2626 16.3232 14.9697 16.0303L13.9697 15.0303C13.6768 14.7374 13.6768 14.2626 13.9697 13.9697Z" fill="black"/>
</g>
</g>
</g>
<defs>
<clipPath id="clip0_232_484">
<rect width="24" height="24" rx="5" fill="white"/>
</clipPath>
</defs>
</svg>
