<svg width="24" height="24" viewBox="0 0 24 24" fill="none" xmlns="http://www.w3.org/2000/svg">
<g id="one-finger-select-hand-gesture">
<g clip-path="url(#clip0_232_8421)">
<g id="Weight=Dynamic">
<path id="Vector (Stroke)" fill-rule="evenodd" clip-rule="evenodd" d="M9.00005 2.75C8.58583 2.75 8.25005 3.08579 8.25005 3.5V15C8.25005 15.4142 7.91426 15.75 7.50005 15.75C7.08583 15.75 6.75005 15.4142 6.75005 15V14.25L6.09596 15.1221C5.73505 15.6033 5.76806 16.2734 6.17452 16.7168L9.95841 20.8447C10.1954 21.1032 10.5289 21.25 10.8789 21.25H15.5C17.4379 21.25 18.75 19.6354 18.75 18V9.42857C18.75 9.02828 18.6229 8.79708 18.4968 8.66898C18.3645 8.53461 18.1858 8.46426 18 8.46426C17.8143 8.46426 17.6355 8.5346 17.5033 8.66896C17.3772 8.79704 17.25 9.02822 17.25 9.42852V9.99995C17.25 10.4142 16.9143 10.7499 16.5 10.7499C16.0858 10.7499 15.75 10.4142 15.75 9.99995V8.2857C15.75 7.8854 15.6229 7.65421 15.4968 7.52612C15.3645 7.39176 15.1858 7.32141 15 7.32141C14.8143 7.32141 14.6356 7.39176 14.5033 7.52612C14.3772 7.65421 14.25 7.8854 14.25 8.2857V9.99998C14.25 10.4142 13.9143 10.75 13.5 10.75C13.0858 10.75 12.75 10.4142 12.75 9.99998V7.50005C12.75 7.09976 12.6229 6.86856 12.4968 6.74048C12.3645 6.60611 12.1858 6.53577 12 6.53577C11.8143 6.53577 11.6356 6.60611 11.5033 6.74048C11.3772 6.86856 11.25 7.09976 11.25 7.50005V10.0001C11.25 10.4143 10.9143 10.7501 10.5 10.7501C10.0858 10.7501 9.75005 10.4143 9.75005 10.0001V3.49899C9.75005 3.08543 9.41492 2.75 9.00005 2.75ZM11.25 5.16628V3.49899C11.25 2.25569 10.242 1.25 9.00005 1.25C7.75741 1.25 6.75005 2.25736 6.75005 3.5V11.75L4.89596 14.2221C4.10195 15.2808 4.17457 16.7549 5.06879 17.7304L8.85268 21.8582C9.3733 22.4262 10.1077 22.75 10.8789 22.75H15.5C18.3622 22.75 20.25 20.3646 20.25 18V9.42857C20.25 8.68601 20.0022 8.06006 19.5658 7.61672C19.1356 7.17965 18.5643 6.96427 18.0001 6.96426C17.672 6.96425 17.3415 7.03706 17.0378 7.18392C16.923 6.91374 16.7638 6.675 16.5658 6.47384C16.1356 6.03678 15.5643 5.82141 15 5.82141C14.6199 5.82141 14.2366 5.91916 13.8954 6.11659C13.8022 5.95961 13.6919 5.81628 13.5658 5.6882C13.1356 5.25113 12.5643 5.03577 12 5.03577C11.747 5.03577 11.4926 5.07908 11.25 5.16628Z" fill="black"/>
</g>
</g>
</g>
<defs>
<clipPath id="clip0_232_8421">
<rect width="24" height="24" rx="5" fill="white"/>
</clipPath>
</defs>
</svg>
