<svg width="24" height="24" viewBox="0 0 24 24" fill="none" xmlns="http://www.w3.org/2000/svg">
<g id="open-select-hand-gesture">
<g clip-path="url(#clip0_232_8407)">
<g id="Weight=Dynamic">
<path id="Vector (Stroke)" fill-rule="evenodd" clip-rule="evenodd" d="M9.50001 2.75C9.0858 2.75 8.75001 3.08579 8.75001 3.5V14.5714C8.75001 14.8715 8.57121 15.1426 8.29545 15.2608C8.01969 15.379 7.70003 15.3214 7.48277 15.1145L5.65993 13.3785C5.32693 13.0613 4.7968 13.0855 4.49397 13.4316C4.2203 13.7443 4.22835 14.2136 4.5126 14.5168L10.4546 20.8549C10.6911 21.1073 11.0204 21.25 11.3655 21.25H16C17.9379 21.25 19.25 19.6354 19.25 18V9.42857C19.25 9.02828 19.1229 8.79708 18.9968 8.66898C18.8645 8.53461 18.6858 8.46426 18.5 8.46426C18.3142 8.46426 18.1355 8.5346 18.0032 8.66896C17.8772 8.79704 17.75 9.02822 17.75 9.42852V9.99995C17.75 10.4142 17.4142 10.7499 17 10.7499C16.5858 10.7499 16.25 10.4142 16.25 9.99995V8.2857C16.25 7.8854 16.1229 7.65421 15.9968 7.52612C15.8645 7.39176 15.6858 7.32141 15.5 7.32141C15.3143 7.32141 15.1355 7.39176 15.0033 7.52612C14.8772 7.65421 14.75 7.8854 14.75 8.2857V9.99998C14.75 10.4142 14.4142 10.75 14 10.75C13.5858 10.75 13.25 10.4142 13.25 9.99998V7.50005C13.25 7.09976 13.1229 6.86856 12.9968 6.74048C12.8645 6.60611 12.6858 6.53577 12.5 6.53577C12.3143 6.53577 12.1355 6.60611 12.0033 6.74048C11.8772 6.86856 11.75 7.09976 11.75 7.50005V10.0001C11.75 10.4143 11.4142 10.7501 11 10.7501C10.5858 10.7501 10.25 10.4143 10.25 10.0001V3.49899C10.25 3.08543 9.91488 2.75 9.50001 2.75ZM11.75 5.16628V3.49899C11.75 2.25569 10.742 1.25 9.50001 1.25C8.25737 1.25 7.25001 2.25736 7.25001 3.5V12.8214L6.69441 12.2923C5.74354 11.3867 4.2298 11.4556 3.36511 12.4438C2.58365 13.3369 2.60665 14.677 3.41829 15.5428L9.36025 21.8808C9.87987 22.4351 10.605 22.75 11.3655 22.75H16C18.8621 22.75 20.75 20.3646 20.75 18V9.42857C20.75 8.68601 20.5022 8.06006 20.0658 7.61672C19.6355 7.17965 19.0643 6.96427 18.5 6.96426C18.1719 6.96425 17.8415 7.03706 17.5378 7.18392C17.423 6.91374 17.2638 6.675 17.0658 6.47384C16.6355 6.03678 16.0643 5.82141 15.5 5.82141C15.1199 5.82141 14.7366 5.91916 14.3954 6.11659C14.3022 5.95961 14.1918 5.81628 14.0658 5.6882C13.6355 5.25113 13.0643 5.03577 12.5 5.03577C12.247 5.03577 11.9925 5.07908 11.75 5.16628Z" fill="black"/>
</g>
</g>
</g>
<defs>
<clipPath id="clip0_232_8407">
<rect width="24" height="24" rx="5" fill="white"/>
</clipPath>
</defs>
</svg>
