<svg width="24" height="24" viewBox="0 0 24 24" fill="none" xmlns="http://www.w3.org/2000/svg">
<g id="open-in-window">
<g clip-path="url(#clip0_232_1543)">
<g id="Weight=Dynamic">
<path id="Vector (Stroke)" fill-rule="evenodd" clip-rule="evenodd" d="M2.25 3.6C2.25 2.85441 2.85442 2.25 3.6 2.25H20.4C21.1456 2.25 21.75 2.85442 21.75 3.6V20.4C21.75 21.1456 21.1456 21.75 20.4 21.75H8C7.58579 21.75 7.25 21.4142 7.25 21C7.25 20.5858 7.58579 20.25 8 20.25H20.25V3.75H3.75V16C3.75 16.4142 3.41421 16.75 3 16.75C2.58579 16.75 2.25 16.4142 2.25 16V3.6ZM8 12.75C7.58579 12.75 7.25 12.4142 7.25 12C7.25 11.5858 7.58579 11.25 8 11.25H12C12.4142 11.25 12.75 11.5858 12.75 12V16C12.75 16.4142 12.4142 16.75 12 16.75C11.5858 16.75 11.25 16.4142 11.25 16V13.8107L4.03033 21.0303C3.73744 21.3232 3.26256 21.3232 2.96967 21.0303C2.67678 20.7374 2.67678 20.2626 2.96967 19.9697L10.1893 12.75H8Z" fill="black"/>
</g>
</g>
</g>
<defs>
<clipPath id="clip0_232_1543">
<rect width="24" height="24" rx="5" fill="white"/>
</clipPath>
</defs>
</svg>
