<svg width="24" height="24" viewBox="0 0 24 24" fill="none" xmlns="http://www.w3.org/2000/svg">
<g id="open-book">
<g clip-path="url(#clip0_232_1720)">
<g id="Weight=Dynamic">
<path id="Vector (Stroke)" fill-rule="evenodd" clip-rule="evenodd" d="M2.75 5.75V18.25H10C10.4501 18.25 10.875 18.3581 11.25 18.5499V7C11.25 6.30964 10.6904 5.75 10 5.75H2.75ZM12 5.11253C11.4986 4.58145 10.788 4.25 10 4.25H2.6C1.85442 4.25 1.25 4.85442 1.25 5.6V18.7143C1.25 18.7631 1.25467 18.8109 1.26359 18.8571C1.25467 18.9034 1.25 18.9511 1.25 19C1.25 19.4142 1.58579 19.75 2 19.75H10C10.6904 19.75 11.25 20.3096 11.25 21H12.75C12.75 20.3096 13.3096 19.75 14 19.75H22C22.4142 19.75 22.75 19.4142 22.75 19C22.75 18.9511 22.7453 18.9034 22.7364 18.8571C22.7453 18.8109 22.75 18.7631 22.75 18.7143V5.6C22.75 4.85442 22.1456 4.25 21.4 4.25H14C13.212 4.25 12.5014 4.58145 12 5.11253ZM12.75 7V18.5499C13.125 18.3581 13.5499 18.25 14 18.25H21.25V5.75H14C13.3096 5.75 12.75 6.30964 12.75 7Z" fill="black"/>
</g>
</g>
</g>
<defs>
<clipPath id="clip0_232_1720">
<rect width="24" height="24" rx="5" fill="white"/>
</clipPath>
</defs>
</svg>
