<svg width="24" height="24" viewBox="0 0 24 24" fill="none" xmlns="http://www.w3.org/2000/svg">
<g id="open-vpn">
<g clip-path="url(#clip0_232_12924)">
<g id="Weight=Dynamic">
<path id="Union (Stroke)" fill-rule="evenodd" clip-rule="evenodd" d="M12 2.75C6.89078 2.75 2.75 6.89078 2.75 12C2.75 15.0293 4.20985 17.7125 6.46565 19.4011L7.12348 15.9045C6.26487 14.8361 5.75 13.478 5.75 12C5.75 8.54868 8.54868 5.75 12 5.75C15.4513 5.75 18.25 8.54868 18.25 12C18.25 13.478 17.7351 14.8361 16.8765 15.9045L17.5343 19.4011C19.7901 17.7125 21.25 15.0293 21.25 12C21.25 6.89078 17.1092 2.75 12 2.75ZM1.25 12C1.25 6.06235 6.06235 1.25 12 1.25C17.9377 1.25 22.75 6.06235 22.75 12C22.75 15.6498 20.9262 18.8646 18.1511 20.8061C17.3238 21.385 16.2796 20.8445 16.1118 19.9528L15.3913 16.1228C15.3117 15.6999 15.4422 15.2903 15.6866 14.9905C16.3517 14.1745 16.75 13.1354 16.75 12C16.75 9.3771 14.6229 7.25 12 7.25C9.3771 7.25 7.25 9.3771 7.25 12C7.25 13.1354 7.64834 14.1745 8.3134 14.9905C8.55779 15.2903 8.6883 15.6999 8.60873 16.1228L7.88817 19.9528C7.72041 20.8445 6.67624 21.385 5.84889 20.8061C3.07379 18.8646 1.25 15.6498 1.25 12ZM8.25018 12C8.25018 9.92949 9.92971 8.24996 12.0002 8.24996C14.0706 8.24996 15.7502 9.92949 15.7502 12C15.7502 13.3722 15.011 14.5697 13.9154 15.2215L14.9876 21.0148C15.1163 21.7101 14.68 22.428 13.9347 22.567C13.3108 22.6834 12.6654 22.75 12.0002 22.75C11.3343 22.75 10.688 22.6832 10.063 22.5657C9.31841 22.4256 8.88408 21.708 9.01255 21.0141L10.085 15.2214C8.98936 14.5697 8.25018 13.3722 8.25018 12ZM12.0002 9.74996C10.7581 9.74996 9.75018 10.7579 9.75018 12C9.75018 12.8229 10.1935 13.5437 10.8583 13.9361C11.3142 14.2052 11.6951 14.7643 11.5726 15.426L10.5178 21.1232C11.0026 21.205 11.4967 21.25 12.0002 21.25C12.5034 21.25 12.9974 21.2051 13.4823 21.1239L12.4277 15.4259C12.3053 14.7642 12.6861 14.2052 13.142 13.9361C13.8068 13.5437 14.2502 12.8229 14.2502 12C14.2502 10.7579 13.2422 9.74996 12.0002 9.74996Z" fill="black"/>
</g>
</g>
</g>
<defs>
<clipPath id="clip0_232_12924">
<rect width="24" height="24" rx="5" fill="white"/>
</clipPath>
</defs>
</svg>
