<svg width="24" height="24" viewBox="0 0 24 24" fill="none" xmlns="http://www.w3.org/2000/svg">
<g id="open-new-window">
<g clip-path="url(#clip0_232_1475)">
<g id="Weight=Dynamic">
<path id="Vector (Stroke)" fill-rule="evenodd" clip-rule="evenodd" d="M5 3.75C4.30964 3.75 3.75 4.30964 3.75 5V19C3.75 19.6904 4.30964 20.25 5 20.25H19C19.6904 20.25 20.25 19.6904 20.25 19V13C20.25 12.5858 20.5858 12.25 21 12.25C21.4142 12.25 21.75 12.5858 21.75 13V19C21.75 20.5188 20.5188 21.75 19 21.75H5C3.48122 21.75 2.25 20.5188 2.25 19V5C2.25 3.48122 3.48122 2.25 5 2.25H11C11.4142 2.25 11.75 2.58579 11.75 3C11.75 3.41421 11.4142 3.75 11 3.75H5ZM14.25 3C14.25 2.58579 14.5858 2.25 15 2.25H21C21.4142 2.25 21.75 2.58579 21.75 3V9C21.75 9.41421 21.4142 9.75 21 9.75C20.5858 9.75 20.25 9.41421 20.25 9V4.81066L12.5303 12.5303C12.2374 12.8232 11.7626 12.8232 11.4697 12.5303C11.1768 12.2374 11.1768 11.7626 11.4697 11.4697L19.1893 3.75H15C14.5858 3.75 14.25 3.41421 14.25 3Z" fill="black"/>
</g>
</g>
</g>
<defs>
<clipPath id="clip0_232_1475">
<rect width="24" height="24" rx="5" fill="white"/>
</clipPath>
</defs>
</svg>
