<svg width="24" height="24" viewBox="0 0 24 24" fill="none" xmlns="http://www.w3.org/2000/svg">
<g id="orange-half">
<g clip-path="url(#clip0_232_7917)">
<g id="Weight=Dynamic">
<path id="Ellipse (Stroke)" fill-rule="evenodd" clip-rule="evenodd" d="M11.25 2.78037C6.51114 3.1656 2.75 7.16662 2.75 12C2.75 16.8334 6.51114 20.8344 11.25 21.2196V2.78037ZM12.75 2.78037V10.1893L16.4697 6.46967C16.7626 6.17678 17.2374 6.17678 17.5303 6.46967C17.8232 6.76256 17.8232 7.23744 17.5303 7.53033L13.8107 11.25H19C19.4142 11.25 19.75 11.5858 19.75 12C19.75 12.4142 19.4142 12.75 19 12.75H13.6954L17.555 16.9955C17.8336 17.302 17.811 17.7763 17.5045 18.055C17.198 18.3336 16.7237 18.311 16.445 18.0045L12.75 13.94V21.2196C17.4889 20.8344 21.25 16.8334 21.25 12C21.25 7.16662 17.4889 3.1656 12.75 2.78037ZM1.25 12C1.25 6.08579 6.08579 1.25 12 1.25C17.9142 1.25 22.75 6.08579 22.75 12C22.75 17.9142 17.9142 22.75 12 22.75C6.08579 22.75 1.25 17.9142 1.25 12Z" fill="black"/>
</g>
</g>
</g>
<defs>
<clipPath id="clip0_232_7917">
<rect width="24" height="24" rx="5" fill="white"/>
</clipPath>
</defs>
</svg>
