<svg width="24" height="24" viewBox="0 0 24 24" fill="none" xmlns="http://www.w3.org/2000/svg">
<g id="orange-slice-alt">
<g clip-path="url(#clip0_232_7929)">
<g id="Weight=Dynamic">
<path id="Ellipse (Stroke)" fill-rule="evenodd" clip-rule="evenodd" d="M5.08102 1.80243C5.37391 1.50954 5.84879 1.50954 6.14168 1.80243L21.698 17.3588C21.9909 17.6517 21.9909 18.1265 21.698 18.4194C17.1094 23.0081 9.66968 23.0081 5.08102 18.4194C0.492361 13.8308 0.492361 6.39109 5.08102 1.80243ZM5.63046 3.41253C2.14675 7.43937 2.31716 13.5343 6.14168 17.3588C9.9662 21.1833 16.0611 21.3537 20.0879 17.87L14.2226 12.0046L14.4924 18.2101C14.5104 18.6239 14.1895 18.974 13.7757 18.992C13.3618 19.01 13.0118 18.6891 12.9938 18.2752L12.7143 11.8468L8.61656 15.9446C8.32366 16.2375 7.84879 16.2375 7.55589 15.9446C7.263 15.6517 7.263 15.1768 7.55589 14.8839L11.5789 10.8609H5.61135C5.19714 10.8609 4.86135 10.5252 4.86135 10.1109C4.86135 9.69672 5.19714 9.36094 5.61135 9.36094H11.5789L5.63046 3.41253Z" fill="black"/>
</g>
</g>
</g>
<defs>
<clipPath id="clip0_232_7929">
<rect width="24" height="24" rx="5" fill="white"/>
</clipPath>
</defs>
</svg>
