<svg width="24" height="24" viewBox="0 0 24 24" fill="none" xmlns="http://www.w3.org/2000/svg">
<g id="orange-slice">
<g clip-path="url(#clip0_232_7923)">
<g id="Weight=Dynamic">
<path id="Ellipse (Stroke)" fill-rule="evenodd" clip-rule="evenodd" d="M17.8593 1.80243C18.1522 1.50954 18.627 1.50954 18.9199 1.80243C23.5086 6.39109 23.5086 13.8308 18.9199 18.4194C14.3313 23.0081 6.89158 23.0081 2.30292 18.4194C2.01003 18.1265 2.01003 17.6517 2.30292 17.3588L17.8593 1.80243ZM12.4221 10.8609L16.4451 14.8839C16.738 15.1768 16.738 15.6517 16.4451 15.9446C16.1522 16.2375 15.6773 16.2375 15.3844 15.9446L11.2867 11.8468L11.0072 18.2752C10.9892 18.6891 10.6391 19.01 10.2253 18.992C9.81147 18.974 9.49059 18.6239 9.50858 18.2101L9.77838 12.0046L3.91302 17.87C7.93986 21.3537 14.0348 21.1833 17.8593 17.3588C21.6838 13.5343 21.8542 7.43937 18.3705 3.41253L12.4221 9.36094H18.3896C18.8038 9.36094 19.1396 9.69672 19.1396 10.1109C19.1396 10.5252 18.8038 10.8609 18.3896 10.8609H12.4221Z" fill="black"/>
</g>
</g>
</g>
<defs>
<clipPath id="clip0_232_7923">
<rect width="24" height="24" rx="5" fill="white"/>
</clipPath>
</defs>
</svg>
