<svg width="24" height="24" viewBox="0 0 24 24" fill="none" xmlns="http://www.w3.org/2000/svg">
<g id="organic-food-square">
<g clip-path="url(#clip0_232_10666)">
<g id="Weight=Dynamic">
<path id="Vector (Stroke)" fill-rule="evenodd" clip-rule="evenodd" d="M2.25 3.6C2.25 2.85442 2.85442 2.25 3.6 2.25H20.4C21.1456 2.25 21.75 2.85442 21.75 3.6V20.4C21.75 21.1456 21.1456 21.75 20.4 21.75H3.6C2.85442 21.75 2.25 21.1456 2.25 20.4V3.6ZM3.75 3.75V20.25H20.25V3.75H3.75ZM15.5574 6.03619C16.25 5.9695 16.8655 6.47688 16.9322 7.16945L17.3067 11.0587C17.5902 14.0032 15.3864 16.6078 12.4602 16.8896C11.68 16.9647 10.9189 16.8651 10.2184 16.6223C10.079 17.0023 9.97037 17.3369 9.8911 17.598C9.83503 17.7827 9.79385 17.93 9.76702 18.0297C9.75361 18.0795 9.74379 18.1175 9.73751 18.1422L9.73073 18.1692L9.72931 18.175C9.72929 18.175 9.72933 18.1749 9.72931 18.175C9.72934 18.1749 9.7292 18.1754 9 18L8.2708 17.8246C8.17392 18.2273 8.42186 18.6323 8.82458 18.7292C9.22722 18.8261 9.63233 18.5775 9.72931 18.175M8.87545 15.9303C7.67753 15.0798 6.83655 13.7412 6.68507 12.1681C6.407 9.28013 8.52272 6.71356 11.4107 6.43548L15.5574 6.03619M8.87545 15.9303C8.69296 16.4136 8.55399 16.8388 8.45578 17.1623C8.39466 17.3636 8.34912 17.5263 8.31853 17.64C8.30323 17.6968 8.29166 17.7415 8.28373 17.7727L8.27456 17.8092L8.27201 17.8196L8.27124 17.8228L8.2708 17.8246C8.27076 17.8247 8.2708 17.8246 9 18M10.7955 15.2339C11.2413 14.2839 11.8238 13.291 12.5493 12.5107C12.8313 12.2073 12.814 11.7327 12.5107 11.4507C12.2073 11.1687 11.7327 11.186 11.4507 11.4893C10.6141 12.3892 9.96566 13.488 9.48164 14.5035C8.76485 13.8941 8.27429 13.0226 8.17817 12.0243C7.97949 9.96098 9.4911 8.12725 11.5544 7.92857L15.4621 7.55231L15.8136 11.2025C16.016 13.3041 14.4364 15.1924 12.3164 15.3965C11.7881 15.4474 11.273 15.3866 10.7955 15.2339Z" fill="black"/>
</g>
</g>
</g>
<defs>
<clipPath id="clip0_232_10666">
<rect width="24" height="24" rx="5" fill="white"/>
</clipPath>
</defs>
</svg>
