<svg width="24" height="24" viewBox="0 0 24 24" fill="none" xmlns="http://www.w3.org/2000/svg">
<g id="package-lock">
<g clip-path="url(#clip0_232_15908)">
<g id="Weight=Dynamic">
<path id="Vector (Stroke)" fill-rule="evenodd" clip-rule="evenodd" d="M3.25 6C3.25 4.48122 4.48122 3.25 6 3.25H18C19.5187 3.25 20.7499 4.48121 20.75 5.99999L20.75 12C20.75 12.4142 20.4142 12.75 20 12.75C19.5858 12.75 19.25 12.4142 19.25 12L19.25 6C19.25 5.30964 18.6903 4.75 18 4.75H12.75V9C12.75 9.41421 12.4142 9.75 12 9.75C11.5858 9.75 11.25 9.41421 11.25 9V4.75H6C5.30964 4.75 4.75 5.30964 4.75 6V18C4.75 18.6904 5.30964 19.25 6 19.25H14C14.4142 19.25 14.75 19.5858 14.75 20C14.75 20.4142 14.4142 20.75 14 20.75H6C4.48122 20.75 3.25 19.5188 3.25 18V6ZM17.5481 15.2321C17.9305 14.6745 18.5731 14.25 19.5 14.25C20.4269 14.25 21.0695 14.6745 21.4519 15.2321C21.807 15.75 21.9167 16.3455 21.9167 16.75V17.8524C22.4059 18.0552 22.75 18.5374 22.75 19.1V21.4C22.75 22.1456 22.1456 22.75 21.4 22.75H17.6C16.8544 22.75 16.25 22.1456 16.25 21.4V19.1C16.25 18.5374 16.5941 18.0552 17.0833 17.8524V16.75C17.0833 16.3455 17.193 15.75 17.5481 15.2321ZM18.5833 17.75H20.4167V16.75C20.4167 16.5712 20.3597 16.2917 20.2148 16.0804C20.0972 15.9089 19.9064 15.75 19.5 15.75C19.0936 15.75 18.9028 15.9089 18.7852 16.0804C18.6403 16.2917 18.5833 16.5712 18.5833 16.75V17.75ZM17.75 19.25V21.25H21.25V19.25H17.75Z" fill="black"/>
</g>
</g>
</g>
<defs>
<clipPath id="clip0_232_15908">
<rect width="24" height="24" rx="5" fill="white"/>
</clipPath>
</defs>
</svg>
