<svg width="24" height="24" viewBox="0 0 24 24" fill="none" xmlns="http://www.w3.org/2000/svg">
<g id="packages">
<g clip-path="url(#clip0_232_15918)">
<g id="Weight=Dynamic">
<path id="Vector (Stroke)" fill-rule="evenodd" clip-rule="evenodd" d="M7.25 5C7.25 3.48122 8.48122 2.25 10 2.25H14C15.5188 2.25 16.75 3.48121 16.75 4.99999L16.75 8.99999C16.75 10.5188 15.5188 11.75 14 11.75H10C8.48122 11.75 7.25 10.5188 7.25 9V5ZM11.25 3.75V6C11.25 6.41421 11.5858 6.75 12 6.75C12.4142 6.75 12.75 6.41421 12.75 6V3.75H14C14.6903 3.75 15.25 4.30964 15.25 5L15.25 9C15.25 9.69035 14.6904 10.25 14 10.25H10C9.30964 10.25 8.75 9.69036 8.75 9V5C8.75 4.30964 9.30964 3.75 10 3.75H11.25ZM1.25 15C1.25 13.4812 2.48122 12.25 4 12.25H7.99998C9.51876 12.25 10.75 13.4812 10.75 15L10.75 19C10.75 20.5188 9.51878 21.75 7.99999 21.75H4C2.48122 21.75 1.25 20.5188 1.25 19V15ZM5.25 13.75V16C5.25 16.4142 5.58579 16.75 6 16.75C6.41421 16.75 6.75 16.4142 6.75 16V13.75H7.99998C8.69033 13.75 9.24998 14.3096 9.24998 15L9.24999 19C9.25 19.6904 8.69035 20.25 7.99999 20.25H4C3.30964 20.25 2.75 19.6904 2.75 19V15C2.75 14.3096 3.30964 13.75 4 13.75H5.25ZM13.25 15C13.25 13.4812 14.4812 12.25 16 12.25H20C21.5188 12.25 22.75 13.4812 22.75 15L22.75 19C22.75 20.5188 21.5188 21.75 20 21.75H16C14.4812 21.75 13.25 20.5188 13.25 19V15ZM17.25 13.75V16C17.25 16.4142 17.5858 16.75 18 16.75C18.4142 16.75 18.75 16.4142 18.75 16V13.75H20C20.6903 13.75 21.25 14.3096 21.25 15L21.25 19C21.25 19.6904 20.6904 20.25 20 20.25H16C15.3096 20.25 14.75 19.6904 14.75 19V15C14.75 14.3096 15.3096 13.75 16 13.75H17.25Z" fill="black"/>
</g>
</g>
</g>
<defs>
<clipPath id="clip0_232_15918">
<rect width="24" height="24" rx="5" fill="white"/>
</clipPath>
</defs>
</svg>
