<svg width="24" height="24" viewBox="0 0 24 24" fill="none" xmlns="http://www.w3.org/2000/svg">
<g id="package">
<g clip-path="url(#clip0_232_15900)">
<g id="Weight=Dynamic">
<path id="Vector (Stroke)" fill-rule="evenodd" clip-rule="evenodd" d="M3.25 6C3.25 4.48122 4.48122 3.25 6 3.25H18C19.5187 3.25 20.7499 4.48121 20.75 5.99999L20.75 18C20.75 19.5188 19.5188 20.75 18 20.75H6C4.48122 20.75 3.25 19.5188 3.25 18V6ZM11.25 4.75V9C11.25 9.41421 11.5858 9.75 12 9.75C12.4142 9.75 12.75 9.41421 12.75 9V4.75H18C18.6903 4.75 19.25 5.30964 19.25 6L19.25 18C19.25 18.6904 18.6904 19.25 18 19.25H6C5.30964 19.25 4.75 18.6904 4.75 18V6C4.75 5.30964 5.30964 4.75 6 4.75H11.25Z" fill="black"/>
</g>
</g>
</g>
<defs>
<clipPath id="clip0_232_15900">
<rect width="24" height="24" rx="5" fill="white"/>
</clipPath>
</defs>
</svg>
