<svg width="24" height="24" viewBox="0 0 24 24" fill="none" xmlns="http://www.w3.org/2000/svg">
<g id="pacman">
<g clip-path="url(#clip0_232_8096)">
<g id="Weight=Dynamic">
<path id="Vector (Stroke)" fill-rule="evenodd" clip-rule="evenodd" d="M12 2.75C6.89137 2.75 2.75 6.89137 2.75 12C2.75 17.1086 6.89137 21.25 12 21.25C14.7556 21.25 17.2297 20.0457 18.9253 18.1323L11.55 12.6C11.3611 12.4583 11.25 12.236 11.25 12C11.25 11.764 11.3611 11.5417 11.55 11.4L18.9253 5.86765C17.2297 3.95429 14.7556 2.75 12 2.75ZM1.25 12C1.25 6.06294 6.06294 1.25 12 1.25C15.517 1.25 18.6396 2.93975 20.5996 5.54852C20.7192 5.70763 20.7706 5.90772 20.7425 6.10475C20.7145 6.30177 20.6092 6.47957 20.45 6.59899L13.2499 12L20.45 17.401C20.6092 17.5204 20.7145 17.6982 20.7425 17.8953C20.7706 18.0923 20.7192 18.2924 20.5996 18.4515C18.6396 21.0603 15.517 22.75 12 22.75C6.06294 22.75 1.25 17.9371 1.25 12ZM15.4423 11.4983C15.7194 11.1904 16.1936 11.1654 16.5015 11.4425L16.5126 11.4525C16.8205 11.7296 16.8454 12.2038 16.5683 12.5117C16.2912 12.8196 15.817 12.8446 15.5092 12.5675L15.498 12.5575C15.1902 12.2804 15.1652 11.8062 15.4423 11.4983ZM18.4423 11.4983C18.7194 11.1904 19.1936 11.1654 19.5015 11.4425L19.5126 11.4525C19.8205 11.7296 19.8454 12.2038 19.5684 12.5117C19.2913 12.8196 18.8171 12.8446 18.5092 12.5675L18.4981 12.5575C18.1902 12.2804 18.1652 11.8062 18.4423 11.4983ZM21.4423 11.4983C21.7194 11.1904 22.1936 11.1654 22.5015 11.4425L22.5126 11.4525C22.8205 11.7296 22.8454 12.2038 22.5684 12.5117C22.2913 12.8196 21.8171 12.8446 21.5092 12.5675L21.4981 12.5575C21.1902 12.2804 21.1652 11.8062 21.4423 11.4983Z" fill="black"/>
</g>
</g>
</g>
<defs>
<clipPath id="clip0_232_8096">
<rect width="24" height="24" rx="5" fill="white"/>
</clipPath>
</defs>
</svg>
