<svg width="24" height="24" viewBox="0 0 24 24" fill="none" xmlns="http://www.w3.org/2000/svg">
<g id="page-up">
<g clip-path="url(#clip0_232_10877)">
<g id="Weight=Dynamic">
<path id="Vector (Stroke)" fill-rule="evenodd" clip-rule="evenodd" d="M1.25 12C1.25 6.06294 6.06294 1.25 12 1.25C17.937 1.25 22.75 6.06293 22.75 12C22.75 17.937 17.937 22.75 12 22.75C6.06293 22.75 1.25 17.937 1.25 12ZM12 2.75C6.89136 2.75 2.75 6.89136 2.75 12C2.75 17.1086 6.89137 21.25 12 21.25C17.1086 21.25 21.25 17.1086 21.25 12C21.25 6.89137 17.1086 2.75 12 2.75ZM12 10.5607L9.03033 13.5303C8.73744 13.8232 8.26256 13.8232 7.96967 13.5303C7.67678 13.2374 7.67678 12.7626 7.96967 12.4697L11.4697 8.96967C11.7626 8.67678 12.2374 8.67678 12.5303 8.96967L16.0303 12.4697C16.3232 12.7626 16.3232 13.2374 16.0303 13.5303C15.7374 13.8232 15.2626 13.8232 14.9697 13.5303L12 10.5607Z" fill="black"/>
</g>
</g>
</g>
<defs>
<clipPath id="clip0_232_10877">
<rect width="24" height="24" rx="5" fill="white"/>
</clipPath>
</defs>
</svg>
