<svg width="24" height="24" viewBox="0 0 24 24" fill="none" xmlns="http://www.w3.org/2000/svg">
<g id="page-left">
<g clip-path="url(#clip0_232_10861)">
<g id="Weight=Dynamic">
<path id="Vector (Stroke)" fill-rule="evenodd" clip-rule="evenodd" d="M1.25 12C1.25 6.06294 6.06294 1.25 12 1.25C17.937 1.25 22.75 6.06293 22.75 12C22.75 17.937 17.937 22.75 12 22.75C6.06293 22.75 1.25 17.937 1.25 12ZM12 2.75C6.89136 2.75 2.75 6.89136 2.75 12C2.75 17.1086 6.89137 21.25 12 21.25C17.1086 21.25 21.25 17.1086 21.25 12C21.25 6.89137 17.1086 2.75 12 2.75ZM13.5303 7.96967C13.8232 8.26256 13.8232 8.73744 13.5303 9.03033L10.5607 12L13.5303 14.9697C13.8232 15.2626 13.8232 15.7374 13.5303 16.0303C13.2374 16.3232 12.7626 16.3232 12.4697 16.0303L8.96967 12.5303C8.67678 12.2374 8.67678 11.7626 8.96967 11.4697L12.4697 7.96967C12.7626 7.67678 13.2374 7.67678 13.5303 7.96967Z" fill="black"/>
</g>
</g>
</g>
<defs>
<clipPath id="clip0_232_10861">
<rect width="24" height="24" rx="5" fill="white"/>
</clipPath>
</defs>
</svg>
