<svg width="24" height="24" viewBox="0 0 24 24" fill="none" xmlns="http://www.w3.org/2000/svg">
<g id="page-flip">
<g clip-path="url(#clip0_232_11796)">
<g id="Weight=Dynamic">
<path id="Vector (Stroke)" fill-rule="evenodd" clip-rule="evenodd" d="M7.25 3.6C7.25 2.85441 7.85442 2.25 8.6 2.25H20.4C21.1456 2.25 21.75 2.85442 21.75 3.6V17C21.75 19.6234 19.6234 21.75 17 21.75H6C3.92893 21.75 2.25 20.0711 2.25 18V17C2.25 15.4812 3.48122 14.25 5 14.25H7.25V3.6ZM8.75 14.25H12.4C13.1479 14.25 13.7212 14.8431 13.7774 15.5367C13.8362 16.2641 14.0145 17.5018 14.526 18.5349C15.0256 19.5438 15.7753 20.25 17 20.25C18.7949 20.25 20.25 18.7949 20.25 17V3.75H8.75V14.25ZM13.8494 20.25C13.5824 19.9225 13.362 19.5644 13.1818 19.2004C12.5677 17.9602 12.3617 16.5581 12.2901 15.75H5C4.30964 15.75 3.75 16.3096 3.75 17V18C3.75 19.2426 4.75736 20.25 6 20.25H13.8494ZM11.25 7C11.25 6.58579 11.5858 6.25 12 6.25H17C17.4142 6.25 17.75 6.58579 17.75 7C17.75 7.41421 17.4142 7.75 17 7.75H12C11.5858 7.75 11.25 7.41421 11.25 7ZM11.25 11C11.25 10.5858 11.5858 10.25 12 10.25H17C17.4142 10.25 17.75 10.5858 17.75 11C17.75 11.4142 17.4142 11.75 17 11.75H12C11.5858 11.75 11.25 11.4142 11.25 11Z" fill="black"/>
</g>
</g>
</g>
<defs>
<clipPath id="clip0_232_11796">
<rect width="24" height="24" rx="5" fill="white"/>
</clipPath>
</defs>
</svg>
