<svg width="24" height="24" viewBox="0 0 24 24" fill="none" xmlns="http://www.w3.org/2000/svg">
<g id="page-star">
<g clip-path="url(#clip0_232_6407)">
<g id="Weight=Dynamic">
<path id="Vector (Stroke)" fill-rule="evenodd" clip-rule="evenodd" d="M4.75 2.75V21.25H11C11.4142 21.25 11.75 21.5858 11.75 22C11.75 22.4142 11.4142 22.75 11 22.75H4.6C3.85442 22.75 3.25 22.1456 3.25 21.4V2.6C3.25 1.85441 3.85442 1.25 4.6 1.25H16.2515C16.6095 1.25 16.9529 1.39223 17.2061 1.64541L20.3546 4.79393C20.6078 5.04711 20.75 5.39049 20.75 5.74853V12C20.75 12.4142 20.4142 12.75 20 12.75C19.5858 12.75 19.25 12.4142 19.25 12V6.75H16.6C15.8544 6.75 15.25 6.14559 15.25 5.4V2.75H4.75ZM16.75 3.31066V5.25H18.6893L16.75 3.31066ZM7.25 6C7.25 5.58579 7.58579 5.25 8 5.25H12C12.4142 5.25 12.75 5.58579 12.75 6C12.75 6.41421 12.4142 6.75 12 6.75H8C7.58579 6.75 7.25 6.41421 7.25 6ZM7.25 10C7.25 9.58579 7.58579 9.25 8 9.25H16C16.4142 9.25 16.75 9.58579 16.75 10C16.75 10.4142 16.4142 10.75 16 10.75H8C7.58579 10.75 7.25 10.4142 7.25 10ZM7.25 14C7.25 13.5858 7.58579 13.25 8 13.25H11C11.4142 13.25 11.75 13.5858 11.75 14C11.75 14.4142 11.4142 14.75 11 14.75H8C7.58579 14.75 7.25 14.4142 7.25 14ZM16.5364 14.8657C16.9235 14.0448 18.0765 14.0448 18.4636 14.8657L19.2025 16.4322L20.8409 16.6829C21.7517 16.8222 22.0231 17.9219 21.4389 18.5175L20.2342 19.7455L20.5199 21.4887C20.6526 22.2985 19.8076 23.0865 18.9564 22.618L17.5 21.8164L16.0436 22.618C15.1924 23.0865 14.3474 22.2985 14.4801 21.4887L14.7658 19.7455L13.5611 18.5175C12.9769 17.9219 13.2483 16.8222 14.1591 16.6829L15.7975 16.4322L16.5364 14.8657ZM17.5 16.3389L16.9839 17.4332C16.8775 17.6589 16.6657 17.8169 16.419 17.8546L15.1957 18.0418L16.1028 18.9665C16.2701 19.1371 16.3462 19.3772 16.3075 19.613L16.1008 20.8743L17.1384 20.3033C17.3635 20.1793 17.6365 20.1793 17.8616 20.3033L18.8992 20.8743L18.6925 19.613C18.6538 19.3772 18.7299 19.1371 18.8972 18.9665L19.8043 18.0418L18.581 17.8546C18.3343 17.8169 18.1225 17.6589 18.0161 17.4332L17.5 16.3389Z" fill="black"/>
</g>
</g>
</g>
<defs>
<clipPath id="clip0_232_6407">
<rect width="24" height="24" rx="5" fill="white"/>
</clipPath>
</defs>
</svg>
