<svg width="24" height="24" viewBox="0 0 24 24" fill="none" xmlns="http://www.w3.org/2000/svg">
<g id="page-minus">
<g clip-path="url(#clip0_232_6145)">
<g id="Weight=Dynamic">
<path id="Vector (Stroke)" fill-rule="evenodd" clip-rule="evenodd" d="M3.25 2.6C3.25 1.85441 3.85442 1.25 4.6 1.25H16.2515C16.6095 1.25 16.9529 1.39223 17.2061 1.64541L20.3546 4.79393C20.6078 5.04711 20.75 5.39049 20.75 5.74853V21.4C20.75 22.1456 20.1456 22.75 19.4 22.75H11C10.5858 22.75 10.25 22.4142 10.25 22C10.25 21.5858 10.5858 21.25 11 21.25H19.25V6.75H16.6C15.8544 6.75 15.25 6.14559 15.25 5.4V2.75H4.75V12C4.75 12.4142 4.41421 12.75 4 12.75C3.58579 12.75 3.25 12.4142 3.25 12V2.6ZM16.75 3.31066L18.6893 5.25H16.75V3.31066ZM1.24219 19C1.24219 18.5858 1.57797 18.25 1.99219 18.25H7.99219C8.4064 18.25 8.74219 18.5858 8.74219 19C8.74219 19.4142 8.4064 19.75 7.99219 19.75H1.99219C1.57797 19.75 1.24219 19.4142 1.24219 19Z" fill="black"/>
</g>
</g>
</g>
<defs>
<clipPath id="clip0_232_6145">
<rect width="24" height="24" rx="5" fill="white"/>
</clipPath>
</defs>
</svg>
