<svg width="24" height="24" viewBox="0 0 24 24" fill="none" xmlns="http://www.w3.org/2000/svg">
<g id="page-edit">
<g clip-path="url(#clip0_232_6307)">
<g id="Weight=Dynamic">
<path id="Vector (Stroke)" fill-rule="evenodd" clip-rule="evenodd" d="M4.75 2.75V21.25H11C11.4142 21.25 11.75 21.5858 11.75 22C11.75 22.4142 11.4142 22.75 11 22.75H4.6C3.85442 22.75 3.25 22.1456 3.25 21.4V2.6C3.25 1.85441 3.85442 1.25 4.6 1.25H16.2515C16.6095 1.25 16.9529 1.39223 17.2061 1.64541L20.3546 4.79393C20.6078 5.04711 20.75 5.39049 20.75 5.74853V12C20.75 12.4142 20.4142 12.75 20 12.75C19.5858 12.75 19.25 12.4142 19.25 12V6.75H16.6C15.8544 6.75 15.25 6.14559 15.25 5.4V2.75H4.75ZM16.75 3.31066V5.25H18.6893L16.75 3.31066ZM7.25 6C7.25 5.58579 7.58579 5.25 8 5.25H12C12.4142 5.25 12.75 5.58579 12.75 6C12.75 6.41421 12.4142 6.75 12 6.75H8C7.58579 6.75 7.25 6.41421 7.25 6ZM7.25 10C7.25 9.58579 7.58579 9.25 8 9.25H16C16.4142 9.25 16.75 9.58579 16.75 10C16.75 10.4142 16.4142 10.75 16 10.75H8C7.58579 10.75 7.25 10.4142 7.25 10ZM7.25 14C7.25 13.5858 7.58579 13.25 8 13.25H11C11.4142 13.25 11.75 13.5858 11.75 14C11.75 14.4142 11.4142 14.75 11 14.75H8C7.58579 14.75 7.25 14.4142 7.25 14ZM18.424 15.4091C19.1548 14.6783 20.3396 14.6783 21.0704 15.4091C21.8012 16.1399 21.8012 17.3247 21.0704 18.0555L17.0793 22.0467C16.817 22.309 16.478 22.4812 16.1115 22.5383L14.5551 22.781C14.3186 22.8178 14.0786 22.7395 13.9093 22.5702C13.74 22.4009 13.6617 22.1609 13.6986 21.9244L13.9412 20.368C13.9984 20.0014 14.1706 19.6625 14.4329 19.4002L18.424 15.4091ZM20.0098 16.4697C19.8648 16.3247 19.6297 16.3247 19.4847 16.4697L19.015 16.9394L19.5401 17.4645L20.0098 16.9949C20.1548 16.8499 20.1548 16.6147 20.0098 16.4697ZM18.4795 18.5252L17.9543 18.0001L15.4936 20.4608C15.4561 20.4983 15.4315 20.5467 15.4233 20.5991L15.3389 21.1407L15.8804 21.0562C15.9328 21.0481 15.9812 21.0235 16.0187 20.986L18.4795 18.5252Z" fill="black"/>
</g>
</g>
</g>
<defs>
<clipPath id="clip0_232_6307">
<rect width="24" height="24" rx="5" fill="white"/>
</clipPath>
</defs>
</svg>
