<svg width="24" height="24" viewBox="0 0 24 24" fill="none" xmlns="http://www.w3.org/2000/svg">
<g id="page-down">
<g clip-path="url(#clip0_232_10853)">
<g id="Weight=Dynamic">
<path id="Vector (Stroke)" fill-rule="evenodd" clip-rule="evenodd" d="M1.25 12C1.25 6.06294 6.06294 1.25 12 1.25C17.937 1.25 22.75 6.06293 22.75 12C22.75 17.937 17.937 22.75 12 22.75C6.06293 22.75 1.25 17.937 1.25 12ZM12 2.75C6.89136 2.75 2.75 6.89136 2.75 12C2.75 17.1086 6.89137 21.25 12 21.25C17.1086 21.25 21.25 17.1086 21.25 12C21.25 6.89137 17.1086 2.75 12 2.75ZM7.96967 10.4697C8.26256 10.1768 8.73744 10.1768 9.03033 10.4697L12 13.4393L14.9697 10.4697C15.2626 10.1768 15.7374 10.1768 16.0303 10.4697C16.3232 10.7626 16.3232 11.2374 16.0303 11.5303L12.5303 15.0303C12.2374 15.3232 11.7626 15.3232 11.4697 15.0303L7.96967 11.5303C7.67678 11.2374 7.67678 10.7626 7.96967 10.4697Z" fill="black"/>
</g>
</g>
</g>
<defs>
<clipPath id="clip0_232_10853">
<rect width="24" height="24" rx="5" fill="white"/>
</clipPath>
</defs>
</svg>
