<svg width="24" height="24" viewBox="0 0 24 24" fill="none" xmlns="http://www.w3.org/2000/svg">
<g id="palette">
<g clip-path="url(#clip0_232_1988)">
<g id="Weight=Dynamic">
<path id="Vector (Stroke)" fill-rule="evenodd" clip-rule="evenodd" d="M11.8262 2.25H12.3596C14.175 2.25046 15.9544 2.75774 17.4971 3.71474C19.0397 4.67173 20.2846 6.04042 21.0914 7.66667L21.0951 7.67399C21.3907 8.28643 21.4481 8.98513 21.2596 9.63522V9.66972L21.216 9.7919C21.097 10.1257 20.9122 10.4322 20.6727 10.6933C20.4331 10.9545 20.1436 11.1649 19.8213 11.3122L19.816 11.3146C18.7178 11.8062 17.7848 12.6043 17.1291 13.6132C16.4738 14.6215 16.1233 15.7974 16.1196 16.9998C16.1211 17.419 16.1627 17.837 16.2441 18.2481C16.3249 18.6256 16.3298 19.0154 16.2586 19.3948C16.1872 19.7747 16.0408 20.1366 15.8281 20.4593C15.6373 20.7557 15.387 21.0092 15.0929 21.2037C14.7993 21.3978 14.4685 21.5288 14.1216 21.5883C13.5438 21.6965 12.9572 21.7506 12.3694 21.75C11.0632 21.7506 9.77033 21.4887 8.56737 20.9799C7.36423 20.4711 6.27561 19.7256 5.36616 18.7879C4.45671 17.8502 3.74498 16.7392 3.27322 15.5211C2.80147 14.3029 2.57931 13.0024 2.61995 11.6967L2.62004 11.6941C2.70408 9.26067 3.69101 6.94566 5.38854 5.20008C7.08608 3.4545 9.37265 2.40337 11.8028 2.25146L11.8262 2.25ZM11.8735 3.75C9.82386 3.8838 7.89629 4.77292 6.4639 6.24584C5.02649 7.72394 4.19067 9.6841 4.11919 11.7446C4.08498 12.849 4.27297 13.949 4.67199 14.9794C5.07117 16.0101 5.67341 16.9501 6.44294 17.7436C7.21248 18.5371 8.13362 19.1678 9.15166 19.5984C10.1697 20.0289 11.2639 20.2505 12.3692 20.25H12.3704C12.8672 20.2505 13.3629 20.2046 13.8511 20.1129L13.8649 20.1103C14.008 20.0862 14.1445 20.0325 14.2656 19.9524C14.3867 19.8724 14.4897 19.7679 14.5679 19.6456L14.5742 19.6359C14.6781 19.479 14.7496 19.3028 14.7844 19.1179C14.8191 18.9329 14.8165 18.7428 14.7766 18.5589L14.7739 18.5462C14.6728 18.0378 14.6212 17.5207 14.6196 17.0024L14.6196 16.998C14.6237 15.5059 15.0583 14.0468 15.8714 12.7958C16.6839 11.5457 17.8396 10.5565 19.2001 9.94681C19.3391 9.88295 19.464 9.792 19.5674 9.67929C19.6463 9.59321 19.7116 9.49576 19.761 9.3904L19.8004 9.27599C19.9072 8.96543 19.8876 8.62534 19.7457 8.32924C19.0629 6.95498 18.0104 5.79835 16.7063 4.98939C15.4011 4.17966 13.8956 3.75042 12.3596 3.75C12.3595 3.75 12.3597 3.75 12.3596 3.75H11.8735ZM12.5117 5.44143C12.8196 5.71853 12.8446 6.19274 12.5675 6.50062L12.5575 6.51173C12.2804 6.81961 11.8061 6.84456 11.4983 6.56746C11.1904 6.29036 11.1654 5.81615 11.4425 5.50827L11.4525 5.49716C11.7296 5.18928 12.2039 5.16433 12.5117 5.44143ZM8.51173 7.44142C8.81961 7.71852 8.84456 8.19273 8.56747 8.50062L8.55747 8.51173C8.28037 8.81961 7.80616 8.84456 7.49827 8.56747C7.19039 8.29037 7.16544 7.81616 7.44253 7.50827L7.45253 7.49716C7.72963 7.18928 8.20385 7.16433 8.51173 7.44142ZM16.5117 7.44142C16.8196 7.71852 16.8446 8.19273 16.5675 8.50062L16.5575 8.51173C16.2804 8.81961 15.8062 8.84456 15.4983 8.56747C15.1904 8.29037 15.1654 7.81616 15.4425 7.50827L15.4525 7.49716C15.7296 7.18928 16.2038 7.16433 16.5117 7.44142ZM6.51172 11.4414C6.8196 11.7185 6.84457 12.1927 6.56747 12.5006L6.55747 12.5117C6.28038 12.8196 5.80616 12.8446 5.49828 12.5675C5.1904 12.2904 5.16543 11.8162 5.44253 11.5083L5.45253 11.4972C5.72962 11.1893 6.20384 11.1643 6.51172 11.4414ZM8.51173 15.4414C8.81961 15.7185 8.84456 16.1927 8.56747 16.5006L8.55747 16.5117C8.28037 16.8196 7.80616 16.8446 7.49827 16.5675C7.19039 16.2904 7.16544 15.8162 7.44253 15.5083L7.45253 15.4972C7.72963 15.1893 8.20385 15.1643 8.51173 15.4414Z" fill="black"/>
</g>
</g>
</g>
<defs>
<clipPath id="clip0_232_1988">
<rect width="24" height="24" rx="5" fill="white"/>
</clipPath>
</defs>
</svg>
