<svg width="24" height="24" viewBox="0 0 24 24" fill="none" xmlns="http://www.w3.org/2000/svg">
<g id="panorama-reduce">
<g clip-path="url(#clip0_232_12314)">
<g id="Weight=Dynamic">
<path id="Vector (Stroke)" fill-rule="evenodd" clip-rule="evenodd" d="M20.25 16.947V7.05301C18.5259 7.62403 14.7879 8.75 12 8.75C9.21206 8.75 5.47414 7.62403 3.75 7.05301V16.947C5.47414 16.376 9.21206 15.25 12 15.25C14.7879 15.25 18.5259 16.376 20.25 16.947ZM21.75 17.1379C21.75 18.0763 20.8245 18.7217 19.9499 18.4281C18.2967 17.8731 14.6095 16.75 12 16.75C9.39052 16.75 5.70325 17.8731 4.05009 18.4281C3.17552 18.7217 2.25 18.0763 2.25 17.1379V6.86208C2.25 5.92366 3.17552 5.27828 4.05009 5.57188C5.70325 6.12687 9.39052 7.25 12 7.25C14.6095 7.25 18.2967 6.12687 19.9499 5.57188C20.8245 5.27828 21.75 5.92366 21.75 6.86208V17.1379Z" fill="black"/>
</g>
</g>
</g>
<defs>
<clipPath id="clip0_232_12314">
<rect width="24" height="24" rx="5" fill="white"/>
</clipPath>
</defs>
</svg>
