<svg width="24" height="24" viewBox="0 0 24 24" fill="none" xmlns="http://www.w3.org/2000/svg">
<g id="panorama-enlarge">
<g clip-path="url(#clip0_232_12320)">
<g id="Weight=Dynamic">
<path id="Vector (Stroke)" fill-rule="evenodd" clip-rule="evenodd" d="M20.7046 18.8142C19.3694 19.0459 15.0687 19.75 12 19.75C8.93126 19.75 4.63062 19.0459 3.29539 18.8142C2.71421 18.7134 2.27376 18.2481 2.19993 17.6667C2.0698 16.6421 1.75 13.9344 1.75 12C1.75 10.0656 2.0698 7.35793 2.19993 6.33329C2.27376 5.75191 2.71421 5.2866 3.29539 5.18576C4.63063 4.95408 8.93126 4.25 12 4.25C15.0687 4.25 19.3694 4.95408 20.7046 5.18576C21.2858 5.2866 21.7262 5.75191 21.8001 6.33329C21.9302 7.35793 22.25 10.0656 22.25 12C22.25 13.9344 21.9302 16.6421 21.8001 17.6667C21.7262 18.2481 21.2858 18.7134 20.7046 18.8142ZM20.3272 17.3572C20.4653 16.254 20.75 13.7595 20.75 12C20.75 10.2405 20.4653 7.74596 20.3272 6.64281C18.866 6.39208 14.839 5.75 12 5.75C9.16101 5.75 5.13401 6.39208 3.67278 6.64281C3.53474 7.74596 3.25 10.2405 3.25 12C3.25 13.7595 3.53474 16.254 3.67278 17.3572C5.13401 17.6079 9.16101 18.25 12 18.25C14.839 18.25 18.866 17.6079 20.3272 17.3572Z" fill="black"/>
</g>
</g>
</g>
<defs>
<clipPath id="clip0_232_12320">
<rect width="24" height="24" rx="5" fill="white"/>
</clipPath>
</defs>
</svg>
