<svg width="24" height="24" viewBox="0 0 24 24" fill="none" xmlns="http://www.w3.org/2000/svg">
<g id="pants-pockets">
<g clip-path="url(#clip0_232_2515)">
<g id="Weight=Dynamic">
<path id="Vector (Stroke)" fill-rule="evenodd" clip-rule="evenodd" d="M5.79279 3.75L5.95945 6.75H6.49996C7.19032 6.75 7.74996 6.19036 7.74996 5.5V3.75H5.79279ZM9.24996 3.75V5.5C9.24996 7.01878 8.01875 8.25 6.49996 8.25H6.04279L6.70945 20.25H9.33303L10.6592 8.97744C10.8462 7.38777 13.1537 7.38773 13.3407 8.97744L14.6669 20.25H17.2905L17.9571 8.25H17.5C15.9812 8.25 14.75 7.01878 14.75 5.5V3.75H9.24996ZM16.25 3.75V5.5C16.25 6.19036 16.8096 6.75 17.5 6.75H18.0405L18.2071 3.75H16.25ZM4.2863 3.67488C4.24331 2.90106 4.85921 2.25 5.63422 2.25H18.3657C19.1407 2.25 19.7566 2.90106 19.7136 3.67488L18.7803 20.4749C18.7406 21.1903 18.1489 21.75 17.4324 21.75H14.5335C13.8489 21.75 13.2727 21.2376 13.1928 20.5577L12 10.419L10.8072 20.5577C10.7272 21.2376 10.151 21.75 9.46641 21.75H6.56756C5.85107 21.75 5.25938 21.1903 5.21963 20.4749L4.2863 3.67488Z" fill="black"/>
</g>
</g>
</g>
<defs>
<clipPath id="clip0_232_2515">
<rect width="24" height="24" rx="5" fill="white"/>
</clipPath>
</defs>
</svg>
