<svg width="24" height="24" viewBox="0 0 24 24" fill="none" xmlns="http://www.w3.org/2000/svg">
<g id="parking">
<g clip-path="url(#clip0_232_16128)">
<g id="Weight=Dynamic">
<path id="Vector (Stroke)" fill-rule="evenodd" clip-rule="evenodd" d="M12 2.75C6.89137 2.75 2.75 6.89137 2.75 12C2.75 17.1086 6.89137 21.25 12 21.25C17.1086 21.25 21.25 17.1086 21.25 12C21.25 6.89137 17.1086 2.75 12 2.75ZM1.25 12C1.25 6.06294 6.06294 1.25 12 1.25C17.9371 1.25 22.75 6.06294 22.75 12C22.75 17.9371 17.9371 22.75 12 22.75C6.06294 22.75 1.25 17.9371 1.25 12ZM13.8163 9.40902C13.5717 9.26518 13.2421 9.25 12.8571 9.25H10.75V11.95H12.8571C13.2421 11.95 13.5717 11.9348 13.8163 11.791C13.9745 11.6979 14.25 11.4606 14.25 10.6C14.25 9.73935 13.9745 9.50207 13.8163 9.40902ZM10.75 13.45H12.8571C12.8688 13.45 12.881 13.45 12.8936 13.45C13.2389 13.4506 13.9513 13.4517 14.5766 13.084C15.3112 12.6521 15.75 11.8394 15.75 10.6C15.75 9.36065 15.3112 8.54794 14.5766 8.11598C13.9513 7.74831 13.2389 7.74942 12.8936 7.74996C12.881 7.74998 12.8688 7.75 12.8571 7.75H10C9.58579 7.75 9.25 8.08579 9.25 8.5V15.5C9.25 15.9142 9.58579 16.25 10 16.25C10.4142 16.25 10.75 15.9142 10.75 15.5V13.45Z" fill="black"/>
</g>
</g>
</g>
<defs>
<clipPath id="clip0_232_16128">
<rect width="24" height="24" rx="5" fill="white"/>
</clipPath>
</defs>
</svg>
