<svg width="24" height="24" viewBox="0 0 24 24" fill="none" xmlns="http://www.w3.org/2000/svg">
<g id="password-check">
<g clip-path="url(#clip0_232_12775)">
<g id="Weight=Dynamic">
<path id="Vector (Stroke)" fill-rule="evenodd" clip-rule="evenodd" d="M2.25 8C2.25 6.48122 3.48122 5.25 5 5.25H19C20.5188 5.25 21.75 6.48122 21.75 8V13C21.75 13.4142 21.4142 13.75 21 13.75C20.5858 13.75 20.25 13.4142 20.25 13V8C20.25 7.30964 19.6904 6.75 19 6.75H5C4.30964 6.75 3.75 7.30964 3.75 8V14C3.75 14.6904 4.30964 15.25 5 15.25H12C12.4142 15.25 12.75 15.5858 12.75 16C12.75 16.4142 12.4142 16.75 12 16.75H5C3.48122 16.75 2.25 15.5188 2.25 14V8ZM8.51173 10.4414C8.81961 10.7185 8.84456 11.1927 8.56747 11.5006L8.55747 11.5117C8.28037 11.8196 7.80616 11.8446 7.49827 11.5675C7.19039 11.2904 7.16544 10.8162 7.44253 10.5083L7.45253 10.4972C7.72963 10.1893 8.20385 10.1643 8.51173 10.4414ZM12.5117 10.4414C12.8196 10.7185 12.8446 11.1927 12.5675 11.5006L12.5575 11.5117C12.2804 11.8196 11.8062 11.8446 11.4983 11.5675C11.1904 11.2904 11.1654 10.8162 11.4425 10.5083L11.4525 10.4972C11.7296 10.1893 12.2038 10.1643 12.5117 10.4414ZM16.5117 10.4414C16.8196 10.7185 16.8446 11.1927 16.5675 11.5006L16.5575 11.5117C16.2804 11.8196 15.8062 11.8446 15.4983 11.5675C15.1904 11.2904 15.1654 10.8162 15.4425 10.5083L15.4525 10.4972C15.7296 10.1893 16.2038 10.1643 16.5117 10.4414ZM21.0303 15.9697C21.3232 16.2626 21.3232 16.7374 21.0303 17.0303L17.0303 21.0303C16.7374 21.3232 16.2626 21.3232 15.9697 21.0303L13.9697 19.0303C13.6768 18.7374 13.6768 18.2626 13.9697 17.9697C14.2626 17.6768 14.7374 17.6768 15.0303 17.9697L16.5 19.4393L19.9697 15.9697C20.2626 15.6768 20.7374 15.6768 21.0303 15.9697Z" fill="black"/>
</g>
</g>
</g>
<defs>
<clipPath id="clip0_232_12775">
<rect width="24" height="24" rx="5" fill="white"/>
</clipPath>
</defs>
</svg>
