<svg width="24" height="24" viewBox="0 0 24 24" fill="none" xmlns="http://www.w3.org/2000/svg">
<g id="paste-clipboard">
<g clip-path="url(#clip0_232_1489)">
<g id="Weight=Dynamic">
<path id="Vector (Stroke)" fill-rule="evenodd" clip-rule="evenodd" d="M10.3187 2.41736C9.99962 2.79374 9.85313 3.27181 9.79043 3.63244C9.7036 4.13191 9.3154 4.61406 8.75 4.72581V6.25H15.25V4.72581C14.6846 4.61406 14.2964 4.13191 14.2096 3.63244C14.1469 3.27181 14.0004 2.79374 13.6813 2.41736C13.388 2.07135 12.8997 1.75 12 1.75C11.1003 1.75 10.612 2.07135 10.3187 2.41736ZM16.75 4.75V6.4C16.75 7.14559 16.1456 7.75 15.4 7.75H8.6C7.85442 7.75 7.25 7.14558 7.25 6.4V4.75H6C5.30964 4.75 4.75 5.30964 4.75 6V20C4.75 20.6904 5.30964 21.25 6 21.25H18C18.6904 21.25 19.25 20.6904 19.25 20V6C19.25 5.30964 18.6904 4.75 18 4.75H16.75ZM8.33617 3.25C8.43535 2.75857 8.65856 2.05601 9.17446 1.44742C9.76184 0.754506 10.6737 0.25 12 0.25C13.3263 0.25 14.2382 0.754506 14.8255 1.44742C15.3414 2.05601 15.5646 2.75857 15.6638 3.25H18C19.5188 3.25 20.75 4.48122 20.75 6V20C20.75 21.5188 19.5188 22.75 18 22.75H6C4.48122 22.75 3.25 21.5188 3.25 20V6C3.25 4.48122 4.48122 3.25 6 3.25H8.33617Z" fill="black"/>
</g>
</g>
</g>
<defs>
<clipPath id="clip0_232_1489">
<rect width="24" height="24" rx="5" fill="white"/>
</clipPath>
</defs>
</svg>
