<svg width="24" height="24" viewBox="0 0 24 24" fill="none" xmlns="http://www.w3.org/2000/svg">
<g id="path-arrow">
<g clip-path="url(#clip0_232_10925)">
<g id="Weight=Dynamic">
<path id="Vector (Stroke)" fill-rule="evenodd" clip-rule="evenodd" d="M17.4697 2.46967C17.7626 2.17678 18.2374 2.17678 18.5303 2.46967L22.0303 5.96967C22.3232 6.26256 22.3232 6.73744 22.0303 7.03033C21.7374 7.32322 21.2626 7.32322 20.9697 7.03033L18.75 4.81066V16.5C18.75 18.8472 16.8472 20.75 14.5 20.75C12.1528 20.75 10.25 18.8472 10.25 16.5V7.5C10.25 5.98121 9.01879 4.75 7.5 4.75C5.98121 4.75 4.75 5.98121 4.75 7.5V19.5C4.75 19.9142 4.41421 20.25 4 20.25C3.58579 20.25 3.25 19.9142 3.25 19.5V7.5C3.25 5.15279 5.15279 3.25 7.5 3.25C9.84721 3.25 11.75 5.15279 11.75 7.5V16.5C11.75 18.0188 12.9812 19.25 14.5 19.25C16.0188 19.25 17.25 18.0188 17.25 16.5V4.81066L15.0303 7.03033C14.7374 7.32322 14.2626 7.32322 13.9697 7.03033C13.6768 6.73744 13.6768 6.26256 13.9697 5.96967L17.4697 2.46967Z" fill="black"/>
</g>
</g>
</g>
<defs>
<clipPath id="clip0_232_10925">
<rect width="24" height="24" rx="5" fill="white"/>
</clipPath>
</defs>
</svg>
