<svg width="24" height="24" viewBox="0 0 24 24" fill="none" xmlns="http://www.w3.org/2000/svg">
<g id="paypal">
<g clip-path="url(#clip0_232_7145)">
<g id="Weight=Dynamic">
<path id="Vector (Stroke)" fill-rule="evenodd" clip-rule="evenodd" d="M5.26556 2.84805C5.33762 2.49978 5.64436 2.25 6.00001 2.25H13C14.7035 2.25 16.0363 2.89628 16.9356 3.90798C17.4441 4.48013 17.8016 5.15465 18.0141 5.86824C19.1465 6.0983 20.0623 6.65079 20.7354 7.40798C21.6224 8.40587 22.0498 9.7152 22.0498 11C22.0498 12.2848 21.6224 13.5941 20.7354 14.592C19.8361 15.6037 18.5033 16.25 16.7998 16.25H13.1038L12.0326 21.1599C11.9574 21.5044 11.6524 21.75 11.2998 21.75H6.79981C6.57425 21.75 6.36066 21.6485 6.21823 21.4736C6.07581 21.2987 6.01967 21.0689 6.06537 20.848L6.60289 18.25H3.00001C2.77444 18.25 2.56086 18.1485 2.41843 17.9736C2.276 17.7987 2.21986 17.5689 2.26556 17.348L5.26556 2.84805ZM8.69652 15.5343L7.72087 20.25H10.6958L11.767 15.3401C11.8422 14.9956 12.1472 14.75 12.4998 14.75H16.7998C18.0963 14.75 19.0135 14.2713 19.6143 13.5955C20.2272 12.9059 20.5498 11.9652 20.5498 11C20.5498 10.0348 20.2272 9.09413 19.6143 8.40452C19.2684 8.01545 18.8176 7.6917 18.25 7.48702C18.25 7.49134 18.25 7.49567 18.25 7.5C18.25 8.7848 17.8226 10.0941 16.9356 11.092C16.0363 12.1037 14.7035 12.75 13 12.75H9.30401L8.69652 15.5343ZM16.7428 7.25C16.7476 7.33305 16.75 7.41643 16.75 7.5C16.75 8.4652 16.4274 9.40587 15.8144 10.0955C15.2137 10.7713 14.2965 11.25 13 11.25H9.58294L10.4105 7.25H16.7428ZM16.3685 5.75H9.79981C9.44417 5.75 9.13742 5.99978 9.06537 6.34805L7.22927 15.2225L6.896 16.75H3.92106L6.61072 3.75H13C14.2965 3.75 15.2137 4.22872 15.8144 4.90452C16.0384 5.15651 16.2236 5.44202 16.3685 5.75Z" fill="black"/>
</g>
</g>
</g>
<defs>
<clipPath id="clip0_232_7145">
<rect width="24" height="24" rx="5" fill="white"/>
</clipPath>
</defs>
</svg>
