<svg width="24" height="24" viewBox="0 0 24 24" fill="none" xmlns="http://www.w3.org/2000/svg">
<g id="pc-check">
<g clip-path="url(#clip0_232_13024)">
<g id="Weight=Dynamic">
<path id="Vector (Stroke)" fill-rule="evenodd" clip-rule="evenodd" d="M4 2.75C3.30964 2.75 2.75 3.30964 2.75 4V17C2.75 17.6904 3.30964 18.25 4 18.25H20C20.6904 18.25 21.25 17.6904 21.25 17V4C21.25 3.30964 20.6904 2.75 20 2.75H4ZM1.25 4C1.25 2.48122 2.48122 1.25 4 1.25H20C21.5188 1.25 22.75 2.48122 22.75 4V17C22.75 18.5188 21.5188 19.75 20 19.75H4C2.48122 19.75 1.25 18.5188 1.25 17V4ZM15.5303 7.96967C15.8232 8.26256 15.8232 8.73744 15.5303 9.03033L11.5303 13.0303C11.2374 13.3232 10.7626 13.3232 10.4697 13.0303L8.46967 11.0303C8.17678 10.7374 8.17678 10.2626 8.46967 9.96967C8.76256 9.67678 9.23744 9.67678 9.53033 9.96967L11 11.4393L14.4697 7.96967C14.7626 7.67678 15.2374 7.67678 15.5303 7.96967ZM6.25 22C6.25 21.5858 6.58579 21.25 7 21.25H17C17.4142 21.25 17.75 21.5858 17.75 22C17.75 22.4142 17.4142 22.75 17 22.75H7C6.58579 22.75 6.25 22.4142 6.25 22Z" fill="black"/>
</g>
</g>
</g>
<defs>
<clipPath id="clip0_232_13024">
<rect width="24" height="24" rx="5" fill="white"/>
</clipPath>
</defs>
</svg>
