<svg width="24" height="24" viewBox="0 0 24 24" fill="none" xmlns="http://www.w3.org/2000/svg">
<g id="pc-firewall">
<g clip-path="url(#clip0_232_13002)">
<g id="Weight=Dynamic">
<path id="Vector (Stroke)" fill-rule="evenodd" clip-rule="evenodd" d="M4 2.75C3.30964 2.75 2.75 3.30964 2.75 4V17C2.75 17.6904 3.30964 18.25 4 18.25H20C20.6904 18.25 21.25 17.6904 21.25 17V4C21.25 3.30964 20.6904 2.75 20 2.75H4ZM1.25 4C1.25 2.48122 2.48122 1.25 4 1.25H20C21.5188 1.25 22.75 2.48122 22.75 4V17C22.75 18.5188 21.5188 19.75 20 19.75H4C2.48122 19.75 1.25 18.5188 1.25 17V4ZM11.333 5.39366C11.7709 5.28418 12.2291 5.28418 12.667 5.39366L15.7274 6.15877C16.3285 6.30905 16.7605 6.85776 16.7434 7.49191C16.6512 10.9115 15.5981 12.9739 14.4839 14.1904C13.9325 14.7925 13.381 15.1707 12.9571 15.4008C12.7453 15.5158 12.5652 15.5939 12.4326 15.6447C12.3662 15.6701 12.3115 15.6887 12.2705 15.7018C12.25 15.7083 12.2329 15.7135 12.2194 15.7174L12.202 15.7223L12.1953 15.7241L12.1925 15.7249L12.1913 15.7252C12.1907 15.7254 12.1901 15.7255 12 15C11.8099 15.7255 11.8093 15.7254 11.8087 15.7252L11.8075 15.7249L11.8047 15.7241L11.798 15.7223L11.7806 15.7174C11.7671 15.7135 11.75 15.7083 11.7295 15.7018C11.6885 15.6887 11.6338 15.6701 11.5674 15.6447C11.4348 15.5939 11.2547 15.5158 11.0429 15.4008C10.619 15.1707 10.0675 14.7925 9.51611 14.1904C8.40189 12.9739 7.34881 10.9115 7.25656 7.49191C7.23945 6.85776 7.67145 6.30905 8.27258 6.15877L11.333 5.39366ZM12 15L11.8099 15.7255C11.9345 15.7582 12.0655 15.7582 12.1901 15.7255L12 15ZM12 14.2012C12.0669 14.1719 12.1484 14.133 12.2414 14.0826C12.5388 13.9212 12.9528 13.6413 13.3777 13.1773C14.2044 12.2747 15.1333 10.6081 15.2399 7.58306L12.3032 6.84887C12.1041 6.79911 11.8959 6.79911 11.6968 6.84887L8.7601 7.58306C8.86666 10.6081 9.79556 12.2747 10.6223 13.1773C11.0472 13.6413 11.4612 13.9212 11.7586 14.0826C11.8516 14.133 11.9331 14.1719 12 14.2012ZM6.25 22C6.25 21.5858 6.58579 21.25 7 21.25H17C17.4142 21.25 17.75 21.5858 17.75 22C17.75 22.4142 17.4142 22.75 17 22.75H7C6.58579 22.75 6.25 22.4142 6.25 22Z" fill="black"/>
</g>
</g>
</g>
<defs>
<clipPath id="clip0_232_13002">
<rect width="24" height="24" rx="5" fill="white"/>
</clipPath>
</defs>
</svg>
