<svg width="24" height="24" viewBox="0 0 24 24" fill="none" xmlns="http://www.w3.org/2000/svg">
<g id="pc-no-entry">
<g clip-path="url(#clip0_232_13034)">
<g id="Weight=Dynamic">
<path id="Vector (Stroke)" fill-rule="evenodd" clip-rule="evenodd" d="M4 2.75C3.30964 2.75 2.75 3.30964 2.75 4V17C2.75 17.6904 3.30964 18.25 4 18.25H20C20.6904 18.25 21.25 17.6904 21.25 17V4C21.25 3.30964 20.6904 2.75 20 2.75H4ZM1.25 4C1.25 2.48122 2.48122 1.25 4 1.25H20C21.5188 1.25 22.75 2.48122 22.75 4V17C22.75 18.5188 21.5188 19.75 20 19.75H4C2.48122 19.75 1.25 18.5188 1.25 17V4ZM12 7.25C10.2051 7.25 8.75 8.70507 8.75 10.5C8.75 11.1145 8.92005 11.6885 9.21622 12.1784L13.7337 7.7504C13.2319 7.43316 12.6377 7.25 12 7.25ZM14.7838 8.82156L10.2663 13.2496C10.7681 13.5668 11.3623 13.75 12 13.75C13.7949 13.75 15.25 12.2949 15.25 10.5C15.25 9.88553 15.0799 9.3115 14.7838 8.82156ZM7.25 10.5C7.25 7.87665 9.37665 5.75 12 5.75C13.3286 5.75 14.5309 6.29646 15.3921 7.17497C16.2313 8.03098 16.75 9.20567 16.75 10.5C16.75 13.1234 14.6234 15.25 12 15.25C10.6714 15.25 9.46907 14.7035 8.60785 13.825C7.76869 12.969 7.25 11.7943 7.25 10.5ZM6.25 22C6.25 21.5858 6.58579 21.25 7 21.25H17C17.4142 21.25 17.75 21.5858 17.75 22C17.75 22.4142 17.4142 22.75 17 22.75H7C6.58579 22.75 6.25 22.4142 6.25 22Z" fill="black"/>
</g>
</g>
</g>
<defs>
<clipPath id="clip0_232_13034">
<rect width="24" height="24" rx="5" fill="white"/>
</clipPath>
</defs>
</svg>
