<svg width="24" height="24" viewBox="0 0 24 24" fill="none" xmlns="http://www.w3.org/2000/svg">
<g id="pc-warning">
<g clip-path="url(#clip0_232_13012)">
<g id="Weight=Dynamic">
<path id="Vector (Stroke)" fill-rule="evenodd" clip-rule="evenodd" d="M4 2.75C3.30964 2.75 2.75 3.30964 2.75 4V17C2.75 17.6904 3.30964 18.25 4 18.25H20C20.6904 18.25 21.25 17.6904 21.25 17V4C21.25 3.30964 20.6904 2.75 20 2.75H4ZM1.25 4C1.25 2.48122 2.48122 1.25 4 1.25H20C21.5188 1.25 22.75 2.48122 22.75 4V17C22.75 18.5188 21.5188 19.75 20 19.75H4C2.48122 19.75 1.25 18.5188 1.25 17V4ZM12 6.25C12.4142 6.25 12.75 6.58579 12.75 7V10C12.75 10.4142 12.4142 10.75 12 10.75C11.5858 10.75 11.25 10.4142 11.25 10V7C11.25 6.58579 11.5858 6.25 12 6.25ZM12.5117 13.4414C12.8196 13.7185 12.8446 14.1927 12.5675 14.5006L12.5575 14.5117C12.2804 14.8196 11.8062 14.8446 11.4983 14.5675C11.1904 14.2904 11.1654 13.8162 11.4425 13.5083L11.4525 13.4972C11.7296 13.1893 12.2038 13.1643 12.5117 13.4414ZM6.25 22C6.25 21.5858 6.58579 21.25 7 21.25H17C17.4142 21.25 17.75 21.5858 17.75 22C17.75 22.4142 17.4142 22.75 17 22.75H7C6.58579 22.75 6.25 22.4142 6.25 22Z" fill="black"/>
</g>
</g>
</g>
<defs>
<clipPath id="clip0_232_13012">
<rect width="24" height="24" rx="5" fill="white"/>
</clipPath>
</defs>
</svg>
