<svg width="24" height="24" viewBox="0 0 24 24" fill="none" xmlns="http://www.w3.org/2000/svg">
<g id="peace-hand">
<g clip-path="url(#clip0_232_8541)">
<g id="Weight=Dynamic">
<path id="Vector (Stroke)" fill-rule="evenodd" clip-rule="evenodd" d="M10.1758 3.61153C10.1758 2.30729 11.2331 1.25 12.5373 1.25C13.8415 1.25 14.8988 2.30729 14.8988 3.61153V4.12364C15.3809 3.11554 16.5337 2.57107 17.6454 2.8887C18.8966 3.24619 19.614 4.55772 19.2401 5.80413L17.2523 12.4301C17.5674 12.5658 17.9224 12.7568 18.2591 13.023C18.7473 13.409 19.2078 13.963 19.432 14.7342C19.6561 15.5051 19.6221 16.4176 19.2535 17.4826C19.2535 17.4826 19.2535 17.4826 19.2535 17.4826L19.2245 17.5663C18.9044 18.491 18.626 19.2953 18.3464 19.9673C18.0652 20.6432 17.7636 21.2341 17.3786 21.7131C16.9819 22.2065 16.5054 22.5709 15.9 22.8028C15.31 23.0288 14.6346 23.1148 13.8566 23.1148H8.87555C6.11723 23.1148 3.88074 20.8807 3.87698 18.1232L3.73059 9.9255C3.7283 9.797 3.75846 9.67548 3.81352 9.56875C3.92683 8.80272 4.41419 8.10813 5.17092 7.76327C5.79169 7.48036 6.47072 7.48874 7.05465 7.73069C7.28541 7.27658 7.66594 6.89413 8.16678 6.66589C8.83327 6.36215 9.56771 6.39813 10.1758 6.70073V3.61153ZM11.6414 8.6712L12.3356 10.2109C12.5571 10.7024 12.6436 11.239 12.5929 11.7669L15.7958 12.0649L17.8033 5.37311C17.937 4.92758 17.6806 4.45877 17.2333 4.33099C16.7883 4.20384 16.3248 4.46318 16.2004 4.90897C16.2004 4.90899 16.2004 4.90895 16.2004 4.90897L14.8713 9.67317L13.3988 9.47163V3.61153C13.3988 3.13572 13.0131 2.75 12.5373 2.75C12.0615 2.75 11.6758 3.13572 11.6758 3.61153V8.44611C11.6758 8.52454 11.6637 8.60015 11.6414 8.6712ZM15.9547 13.5861L11.1967 13.1435C10.7678 13.1036 10.3866 13.4161 10.3415 13.8445C10.3018 14.2222 10.5375 14.5744 10.9019 14.6816L14.4526 15.7259C15.006 15.8886 15.2774 16.5122 15.0195 17.0281L14.5275 18.0122C14.3422 18.3826 13.8917 18.5328 13.5212 18.3476C13.1507 18.1623 13.0006 17.7118 13.1858 17.3413L13.3709 16.9713L10.4786 16.1206C9.50834 15.8352 8.85175 14.9521 8.83733 13.9617C8.65115 14.1395 8.43251 14.2897 8.18507 14.4025C7.14591 14.876 5.94349 14.5334 5.29725 13.6452L5.37709 18.1163C5.37709 20.0485 6.94334 21.6148 8.87555 21.6148H13.8566C14.5353 21.6148 15.0088 21.5379 15.3634 21.4021C15.7026 21.2721 15.9664 21.0757 16.2094 20.7734C16.464 20.4567 16.7012 20.0168 16.9615 19.3911C17.2216 18.766 17.4857 18.004 17.8134 17.0571L17.836 16.9919C18.1266 16.1523 18.1109 15.5632 17.9916 15.1529C17.8725 14.7429 17.628 14.4362 17.3287 14.1996C17.0236 13.9584 16.6737 13.8007 16.3872 13.7033C16.2465 13.6554 16.1276 13.6243 16.0465 13.6055C16.0061 13.5962 15.9756 13.5901 15.9571 13.5866L15.9547 13.5861ZM9.56785 12.2512C9.9738 11.8745 10.5141 11.646 11.0981 11.6401C11.1275 11.3647 11.0838 11.084 10.9681 10.8274L9.89496 8.44697C9.70512 8.02586 9.20915 7.83927 8.78882 8.03083C8.41641 8.20055 8.23018 8.60885 8.3249 8.99001L9.35862 11.283C9.50046 11.5977 9.56771 11.927 9.56785 12.2512ZM6.91796 9.52124C6.95155 9.62257 6.99251 9.72283 7.04107 9.82137L7.1767 10.0966C7.18098 10.1053 7.18541 10.1139 7.18998 10.1223L7.99116 11.8995C8.18614 12.332 7.99474 12.8408 7.56303 13.0375C7.12882 13.2354 6.61648 13.0427 6.42037 12.6076L5.36483 10.2662C5.16984 9.83371 5.36124 9.32495 5.79296 9.12821C6.2147 8.93601 6.71016 9.11233 6.91796 9.52124ZM15.9368 13.5829C15.9367 13.5829 15.9368 13.5829 15.9368 13.5829V13.5829Z" fill="black"/>
</g>
</g>
</g>
<defs>
<clipPath id="clip0_232_8541">
<rect width="24" height="24" rx="5" fill="white"/>
</clipPath>
</defs>
</svg>
