<svg width="24" height="24" viewBox="0 0 24 24" fill="none" xmlns="http://www.w3.org/2000/svg">
<g id="peerlist">
<g clip-path="url(#clip0_232_14081)">
<g id="Weight=Dynamic">
<path id="Vector (Stroke)" fill-rule="evenodd" clip-rule="evenodd" d="M2.16171 8.25459C2.54154 4.83617 5.43097 2.25 8.87043 2.25H15.1299C18.5694 2.25 21.4588 4.83616 21.8386 8.25459L22.0493 10.1503C22.1859 11.3796 22.1859 12.6204 22.0493 13.8497L21.8386 15.7454C21.4588 19.1638 18.5694 21.75 15.1299 21.75H8.87043C5.43097 21.75 2.54154 19.1638 2.16171 15.7454L1.95108 13.8497C1.81448 12.6204 1.81448 11.3796 1.95108 10.1503L2.16171 8.25459ZM8.87043 3.75C6.19529 3.75 3.94796 5.76146 3.65254 8.42023L3.44191 10.3159C3.31754 11.4352 3.31754 12.5648 3.44191 13.6841L3.65254 15.5798C3.94796 18.2385 6.19529 20.25 8.87043 20.25H15.1299C17.805 20.25 20.0524 18.2385 20.3478 15.5798L20.5584 13.6841C20.6828 12.5648 20.6828 11.4352 20.5584 10.3159L20.3478 8.42023C20.0524 5.76146 17.805 3.75 15.1299 3.75H8.87043ZM8.46984 6.46967C8.61049 6.32902 8.80126 6.25 9.00017 6.25L13.0002 6.25C15.0712 6.25 16.7502 7.92893 16.7502 10C16.7502 12.0711 15.0712 13.75 13.0002 13.75H9.75017L9.75017 17C9.75017 17.4142 9.41438 17.75 9.00017 17.75C8.58596 17.75 8.25017 17.4142 8.25017 17L8.25017 7C8.25017 6.80109 8.32919 6.61032 8.46984 6.46967ZM9.75017 12.25H13.0002C14.2428 12.25 15.2502 11.2426 15.2502 10C15.2502 8.75736 14.2428 7.75 13.0002 7.75L9.75017 7.75L9.75017 12.25Z" fill="black"/>
</g>
</g>
</g>
<defs>
<clipPath id="clip0_232_14081">
<rect width="24" height="24" rx="5" fill="white"/>
</clipPath>
</defs>
</svg>
