<svg width="24" height="24" viewBox="0 0 24 24" fill="none" xmlns="http://www.w3.org/2000/svg">
<g id="pen-tablet-connect-usb">
<g clip-path="url(#clip0_232_6057)">
<g id="Weight=Dynamic">
<path id="Vector (Stroke)" fill-rule="evenodd" clip-rule="evenodd" d="M1.25 5C1.25 3.48122 2.48122 2.25 4 2.25H20C21.5188 2.25 22.75 3.48122 22.75 5V7C22.75 7.41421 22.4142 7.75 22 7.75C21.5858 7.75 21.25 7.41421 21.25 7V5C21.25 4.30964 20.6904 3.75 20 3.75H6.75V20.25H20C20.6904 20.25 21.25 19.6904 21.25 19V17C21.25 16.5858 21.5858 16.25 22 16.25C22.4142 16.25 22.75 16.5858 22.75 17V19C22.75 20.5188 21.5188 21.75 20 21.75H4C2.48122 21.75 1.25 20.5188 1.25 19V5ZM5.25 20.25V12.75H2.75V19C2.75 19.6904 3.30964 20.25 4 20.25H5.25ZM2.75 11.25H5.25V3.75H4C3.30964 3.75 2.75 4.30964 2.75 5V11.25ZM13.8252 9C13.8252 8.58579 14.161 8.25 14.5752 8.25H16.5002C16.8148 8.25 17.096 8.4464 17.2044 8.74181L18.124 11.25H18.6375C18.9424 10.4505 19.7206 9.8865 20.625 9.8865C21.7927 9.8865 22.75 10.8269 22.75 12.0001C22.75 13.1733 21.7927 14.1138 20.625 14.1138C20.0178 14.1138 19.4675 13.8594 19.0791 13.4503L18.5983 15.1989C18.5087 15.5244 18.2127 15.75 17.8751 15.75H16.2251C15.8109 15.75 15.4751 15.4142 15.4751 15C15.4751 14.5858 15.8109 14.25 16.2251 14.25H17.3035L17.716 12.75H17.6177C17.606 12.7503 17.5944 12.7503 17.5828 12.75H11C10.5858 12.75 10.25 12.4142 10.25 12C10.25 11.5858 10.5858 11.25 11 11.25H16.5264L15.9764 9.75H14.5752C14.161 9.75 13.8252 9.41421 13.8252 9ZM20.625 11.3865C20.2738 11.3865 20 11.667 20 12C20 12.3331 20.274 12.6138 20.625 12.6138C20.9761 12.6138 21.25 12.3332 21.25 12.0001C21.25 11.6671 20.9761 11.3865 20.625 11.3865Z" fill="black"/>
</g>
</g>
</g>
<defs>
<clipPath id="clip0_232_6057">
<rect width="24" height="24" rx="5" fill="white"/>
</clipPath>
</defs>
</svg>
