<svg width="24" height="24" viewBox="0 0 24 24" fill="none" xmlns="http://www.w3.org/2000/svg">
<g id="pen-tablet-connect-wifi">
<g clip-path="url(#clip0_232_5769)">
<g id="Weight=Dynamic">
<path id="Vector (Stroke)" fill-rule="evenodd" clip-rule="evenodd" d="M1.25 5C1.25 3.48122 2.48122 2.25 4 2.25H20C21.5188 2.25 22.75 3.48122 22.75 5V7C22.75 7.41421 22.4142 7.75 22 7.75C21.5858 7.75 21.25 7.41421 21.25 7V5C21.25 4.30964 20.6904 3.75 20 3.75H6.75V20.25H20C20.6904 20.25 21.25 19.6904 21.25 19V17C21.25 16.5858 21.5858 16.25 22 16.25C22.4142 16.25 22.75 16.5858 22.75 17V19C22.75 20.5188 21.5188 21.75 20 21.75H4C2.48122 21.75 1.25 20.5188 1.25 19V5ZM5.25 20.25V12.75H2.75V19C2.75 19.6904 3.30964 20.25 4 20.25H5.25ZM2.75 11.25H5.25V3.75H4C3.30964 3.75 2.75 4.30964 2.75 5V11.25ZM21.4238 12.4801C19.2237 9.83995 14.7763 9.83996 12.5762 12.4801C12.311 12.7983 11.8381 12.8413 11.5199 12.5761C11.2016 12.3109 11.1587 11.838 11.4238 11.5198C14.2237 8.16006 19.7763 8.16005 22.5762 11.5199C22.8413 11.8381 22.7983 12.311 22.4801 12.5762C22.1619 12.8414 21.689 12.7984 21.4238 12.4801ZM19.4 14.45C18.2 12.85 15.8 12.85 14.6 14.45C14.3515 14.7814 13.8814 14.8486 13.55 14.6C13.2186 14.3515 13.1515 13.8814 13.4 13.55C15.2 11.15 18.8 11.15 20.6 13.55C20.8485 13.8814 20.7814 14.3515 20.45 14.6C20.1186 14.8486 19.6485 14.7814 19.4 14.45ZM17.5117 14.9414C17.8196 15.2185 17.8446 15.6927 17.5675 16.0006L17.5575 16.0117C17.2804 16.3196 16.8062 16.3446 16.4983 16.0675C16.1904 15.7904 16.1654 15.3162 16.4425 15.0083L16.4525 14.9972C16.7296 14.6893 17.2038 14.6643 17.5117 14.9414Z" fill="black"/>
</g>
</g>
</g>
<defs>
<clipPath id="clip0_232_5769">
<rect width="24" height="24" rx="5" fill="white"/>
</clipPath>
</defs>
</svg>
