<svg width="24" height="24" viewBox="0 0 24 24" fill="none" xmlns="http://www.w3.org/2000/svg">
<g id="pen-connect-bluetooth">
<g clip-path="url(#clip0_232_5837)">
<g id="Weight=Dynamic">
<path id="Vector (Stroke)" fill-rule="evenodd" clip-rule="evenodd" d="M8.0282 2.31487C8.29876 2.19437 8.6149 2.24439 8.83505 2.44253L12.5017 5.74253C12.6698 5.8938 12.7607 6.11284 12.749 6.33867C12.7373 6.5645 12.6244 6.77302 12.4416 6.90618L9.56776 9L12.4416 11.0938C12.6244 11.227 12.7373 11.4355 12.749 11.6613C12.7607 11.8872 12.6698 12.1062 12.5017 12.2575L8.83505 15.5575C8.6149 15.7556 8.29876 15.8056 8.0282 15.6851C7.75763 15.5646 7.58332 15.2962 7.58332 15V10.4458L5.44163 12.0062C5.10685 12.2501 4.63773 12.1764 4.39381 11.8416C4.1499 11.5069 4.22357 11.0377 4.55835 10.7938L7.02046 9L4.55835 7.20618C4.22357 6.96226 4.1499 6.49314 4.39381 6.15836C4.63773 5.82357 5.10685 5.74991 5.44163 5.99382L7.58332 7.5542V3C7.58332 2.70382 7.75763 2.43537 8.0282 2.31487ZM9.08332 10.5029L10.8106 11.7614L9.08332 13.316V10.5029ZM9.08332 7.49705V4.68402L10.8106 6.23859L9.08332 7.49705ZM17.9697 4.96967C19.091 3.84835 20.909 3.84835 22.0303 4.96967C23.1516 6.09099 23.1516 7.90901 22.0303 9.03033L21.031 10.0297C21.0308 10.0299 21.0312 10.0295 21.031 10.0297C21.0308 10.0299 21.0299 10.0308 21.0297 10.031L10.2262 20.8345C10.0019 21.0588 9.72088 21.2179 9.41317 21.2948L5.68189 22.2276C5.42631 22.2915 5.15594 22.2166 4.96965 22.0303C4.78337 21.844 4.70848 21.5737 4.77238 21.3181L5.77244 17.318C5.87291 16.9162 6.28011 16.6719 6.68196 16.7723C7.0838 16.8728 7.32812 17.28 7.22765 17.6819L6.53078 20.4692L9.04937 19.8396C9.09334 19.8286 9.13348 19.8059 9.16551 19.7738L19.4393 9.5L17.5 7.56066L15.0303 10.0303C14.7374 10.3232 14.2626 10.3232 13.9697 10.0303C13.6768 9.73744 13.6768 9.26256 13.9697 8.96967L17.9697 4.96967ZM18.5607 6.5L20.5 8.43934L20.9697 7.96967C21.5052 7.43413 21.5052 6.56586 20.9697 6.03033C20.4341 5.49479 19.5659 5.49479 19.0303 6.03033L18.5607 6.5Z" fill="black"/>
</g>
</g>
</g>
<defs>
<clipPath id="clip0_232_5837">
<rect width="24" height="24" rx="5" fill="white"/>
</clipPath>
</defs>
</svg>
