<svg width="24" height="24" viewBox="0 0 24 24" fill="none" xmlns="http://www.w3.org/2000/svg">
<g id="pen-connect-wifi">
<g clip-path="url(#clip0_232_5785)">
<g id="Weight=Dynamic">
<path id="Vector (Stroke)" fill-rule="evenodd" clip-rule="evenodd" d="M12.4239 6.73015C10.2237 4.08996 5.77633 4.08997 3.57618 6.73007C3.311 7.04827 2.83807 7.09126 2.51987 6.82608C2.20167 6.5609 2.15868 6.08798 2.42386 5.76977C5.22371 2.41007 10.7763 2.41005 13.5762 5.76988C13.8414 6.08809 13.7984 6.56101 13.4802 6.82618C13.1619 7.09135 12.689 7.04836 12.4239 6.73015ZM17.9697 4.96967C19.091 3.84835 20.909 3.84835 22.0303 4.96967C23.1517 6.091 23.1517 7.90902 22.0303 9.03034L10.2262 20.8345C10.0019 21.0588 9.72091 21.2179 9.4132 21.2948L5.68192 22.2276C5.42633 22.2915 5.15597 22.2166 4.96968 22.0303C4.7834 21.844 4.70851 21.5737 4.77241 21.3181L5.70529 17.5867C5.78222 17.279 5.94132 16.998 6.1656 16.7738L17.9697 4.96967ZM20.9697 6.03033C20.4342 5.4948 19.5659 5.4948 19.0303 6.03033L18.5607 6.5L20.5 8.43934L20.9697 7.96968C21.5052 7.43414 21.5052 6.56587 20.9697 6.03033ZM19.4394 9.50001L17.5 7.56066L7.22626 17.8344C7.19422 17.8665 7.17149 17.9066 7.1605 17.9506L6.53081 20.4692L9.0494 19.8396C9.09336 19.8286 9.13351 19.8059 9.16554 19.7738L19.4394 9.50001ZM10.4 8.70003C9.20002 7.10001 6.80002 7.10001 5.60002 8.70003C5.3515 9.03141 4.8814 9.09857 4.55002 8.85004C4.21865 8.60152 4.15149 8.13142 4.40002 7.80004C6.20001 5.40001 9.80002 5.4 11.6 7.80004C11.8485 8.13142 11.7814 8.60152 11.45 8.85004C11.1186 9.09857 10.6485 9.03141 10.4 8.70003ZM8.51174 9.19142C8.81963 9.46852 8.84458 9.94274 8.56749 10.2506L8.55749 10.2617C8.28039 10.5696 7.80617 10.5946 7.49829 10.3175C7.19041 10.0404 7.16545 9.56616 7.44255 9.25828L7.45255 9.24717C7.72965 8.93929 8.20386 8.91433 8.51174 9.19142Z" fill="black"/>
</g>
</g>
</g>
<defs>
<clipPath id="clip0_232_5785">
<rect width="24" height="24" rx="5" fill="white"/>
</clipPath>
</defs>
</svg>
