<svg width="24" height="24" viewBox="0 0 24 24" fill="none" xmlns="http://www.w3.org/2000/svg">
<g id="pen-tablet">
<g clip-path="url(#clip0_232_6043)">
<g id="Weight=Dynamic">
<path id="Vector (Stroke)" fill-rule="evenodd" clip-rule="evenodd" d="M1.25 5C1.25 3.48122 2.48122 2.25 4 2.25H20C21.5188 2.25 22.75 3.48122 22.75 5V19C22.75 20.5188 21.5188 21.75 20 21.75H4C2.48122 21.75 1.25 20.5188 1.25 19V5ZM4 3.75C3.30964 3.75 2.75 4.30964 2.75 5V11.25H5.25V3.75H4ZM6.75 3.75V20.25H20C20.6904 20.25 21.25 19.6904 21.25 19V5C21.25 4.30964 20.6904 3.75 20 3.75H6.75ZM5.25 20.25V12.75H2.75V19C2.75 19.6904 3.30964 20.25 4 20.25H5.25ZM17.5117 9.44142C17.8196 9.71852 17.8446 10.1927 17.5675 10.5006L17.5575 10.5117C17.2804 10.8196 16.8062 10.8446 16.4983 10.5675C16.1904 10.2904 16.1654 9.81616 16.4425 9.50827L16.4525 9.49716C16.7296 9.18928 17.2038 9.16433 17.5117 9.44142ZM16.0694 11.0119C16.339 11.3264 16.3026 11.7999 15.9881 12.0694L12.4881 15.0694C12.1736 15.339 11.7001 15.3026 11.4306 14.9881C11.161 14.6736 11.1974 14.2001 11.5119 13.9306L15.0119 10.9306C15.3264 10.661 15.7999 10.6974 16.0694 11.0119Z" fill="black"/>
</g>
</g>
</g>
<defs>
<clipPath id="clip0_232_6043">
<rect width="24" height="24" rx="5" fill="white"/>
</clipPath>
</defs>
</svg>
