<svg width="24" height="24" viewBox="0 0 24 24" fill="none" xmlns="http://www.w3.org/2000/svg">
<g id="percentage-circle">
<g clip-path="url(#clip0_232_2242)">
<g id="Weight=Dynamic">
<g id="Vector">
</g>
<path id="Vector (Stroke)" fill-rule="evenodd" clip-rule="evenodd" d="M12 2.75C6.89137 2.75 2.75 6.89137 2.75 12C2.75 17.1086 6.89137 21.25 12 21.25C17.1086 21.25 21.25 17.1086 21.25 12C21.25 6.89137 17.1086 2.75 12 2.75ZM1.25 12C1.25 6.06294 6.06294 1.25 12 1.25C17.9371 1.25 22.75 6.06294 22.75 12C22.75 17.9371 17.9371 22.75 12 22.75C6.06294 22.75 1.25 17.9371 1.25 12ZM8.5 8.75C8.63807 8.75 8.75 8.63807 8.75 8.5C8.75 8.36193 8.63807 8.25 8.5 8.25C8.36193 8.25 8.25 8.36193 8.25 8.5C8.25 8.63807 8.36193 8.75 8.5 8.75ZM7.25 8.5C7.25 7.80964 7.80964 7.25 8.5 7.25C9.19036 7.25 9.75 7.80964 9.75 8.5C9.75 9.19036 9.19036 9.75 8.5 9.75C7.80964 9.75 7.25 9.19036 7.25 8.5ZM16.5303 7.46967C16.8232 7.76256 16.8232 8.23744 16.5303 8.53033L8.53033 16.5303C8.23744 16.8232 7.76256 16.8232 7.46967 16.5303C7.17678 16.2374 7.17678 15.7626 7.46967 15.4697L15.4697 7.46967C15.7626 7.17678 16.2374 7.17678 16.5303 7.46967ZM15.5 15.75C15.6381 15.75 15.75 15.6381 15.75 15.5C15.75 15.3619 15.6381 15.25 15.5 15.25C15.3619 15.25 15.25 15.3619 15.25 15.5C15.25 15.6381 15.3619 15.75 15.5 15.75ZM14.25 15.5C14.25 14.8096 14.8096 14.25 15.5 14.25C16.1904 14.25 16.75 14.8096 16.75 15.5C16.75 16.1904 16.1904 16.75 15.5 16.75C14.8096 16.75 14.25 16.1904 14.25 15.5Z" fill="black"/>
</g>
</g>
</g>
<defs>
<clipPath id="clip0_232_2242">
<rect width="24" height="24" rx="5" fill="white"/>
</clipPath>
</defs>
</svg>
