<svg width="24" height="24" viewBox="0 0 24 24" fill="none" xmlns="http://www.w3.org/2000/svg">
<g id="percent-rotate-out">
<g clip-path="url(#clip0_232_7275)">
<g id="Weight=Dynamic">
<g id="Vector">
<path d="M14.5 15C14.7761 15 15 14.7761 15 14.5C15 14.2239 14.7761 14 14.5 14C14.2239 14 14 14.2239 14 14.5C14 14.7761 14.2239 15 14.5 15Z" fill="black"/>
<path d="M9.5 10C9.77614 10 10 9.77614 10 9.5C10 9.22386 9.77614 9 9.5 9C9.22386 9 9 9.22386 9 9.5C9 9.77614 9.22386 10 9.5 10Z" fill="black"/>
</g>
<path id="Vector (Stroke)" fill-rule="evenodd" clip-rule="evenodd" d="M11.9999 2.75C7.20394 2.75 3.25966 6.40058 2.79564 11.0741C2.75472 11.4863 2.3874 11.7873 1.97521 11.7463C1.56302 11.7054 1.26206 11.3381 1.30298 10.9259C1.84241 5.49278 6.42523 1.25 11.9999 1.25C15.9364 1.25 19.3774 3.36573 21.25 6.5199V4C21.25 3.58579 21.5858 3.25 22 3.25C22.4142 3.25 22.75 3.58579 22.75 4V7.4C22.75 8.14559 22.1456 8.75 21.4 8.75H21.1851C21.1738 8.75025 21.1626 8.75025 21.1514 8.75H18C17.5858 8.75 17.25 8.41421 17.25 8C17.25 7.58579 17.5858 7.25 18 7.25H19.939C18.322 4.55329 15.3709 2.75 11.9999 2.75ZM9.49999 9.75C9.63807 9.75 9.74999 9.63807 9.74999 9.5C9.74999 9.36193 9.63807 9.25 9.49999 9.25C9.36192 9.25 9.24999 9.36193 9.24999 9.5C9.24999 9.63807 9.36192 9.75 9.49999 9.75ZM8.24999 9.5C8.24999 8.80964 8.80964 8.25 9.49999 8.25C10.1904 8.25 10.75 8.80964 10.75 9.5C10.75 10.1904 10.1904 10.75 9.49999 10.75C8.80964 10.75 8.24999 10.1904 8.24999 9.5ZM15.5303 8.46967C15.8232 8.76256 15.8232 9.23744 15.5303 9.53033L9.53032 15.5303C9.23743 15.8232 8.76256 15.8232 8.46966 15.5303C8.17677 15.2374 8.17677 14.7626 8.46966 14.4697L14.4697 8.46967C14.7626 8.17678 15.2374 8.17678 15.5303 8.46967ZM22.0741 12.2537C22.4863 12.2946 22.7872 12.6619 22.7463 13.0741C22.2069 18.5072 17.6241 22.75 12.0494 22.75C8.11291 22.75 4.67194 20.6343 2.79931 17.4801V20C2.79931 20.4142 2.46352 20.75 2.04931 20.75C1.6351 20.75 1.29931 20.4142 1.29931 20V16.6C1.29931 15.8544 1.90373 15.25 2.64931 15.25H2.86426C2.87549 15.2497 2.8867 15.2497 2.89788 15.25H6.04931C6.46352 15.25 6.79931 15.5858 6.79931 16C6.79931 16.4142 6.46352 16.75 6.04931 16.75H4.11029C5.72728 19.4467 8.6784 21.25 12.0494 21.25C16.8454 21.25 20.7896 17.5994 21.2537 12.9259C21.2946 12.5137 21.6619 12.2127 22.0741 12.2537ZM14.5 14.75C14.6381 14.75 14.75 14.6381 14.75 14.5C14.75 14.3619 14.6381 14.25 14.5 14.25C14.3619 14.25 14.25 14.3619 14.25 14.5C14.25 14.6381 14.3619 14.75 14.5 14.75ZM13.25 14.5C13.25 13.8096 13.8096 13.25 14.5 13.25C15.1904 13.25 15.75 13.8096 15.75 14.5C15.75 15.1904 15.1904 15.75 14.5 15.75C13.8096 15.75 13.25 15.1904 13.25 14.5Z" fill="black"/>
</g>
</g>
</g>
<defs>
<clipPath id="clip0_232_7275">
<rect width="24" height="24" rx="5" fill="white"/>
</clipPath>
</defs>
</svg>
