<svg width="24" height="24" viewBox="0 0 24 24" fill="none" xmlns="http://www.w3.org/2000/svg">
<g id="perspective-view">
<g clip-path="url(#clip0_232_466)">
<g id="Weight=Dynamic">
<path id="Vector (Stroke)" fill-rule="evenodd" clip-rule="evenodd" d="M3.40404 2.871C3.46673 2.51199 3.77842 2.25 4.14286 2.25H19.8571C20.2216 2.25 20.5333 2.51199 20.596 2.871L23.7388 20.871C23.7769 21.0892 23.7166 21.313 23.5741 21.4826C23.4316 21.6521 23.2215 21.75 23 21.75H1.00001C0.778531 21.75 0.568379 21.6521 0.425876 21.4826C0.283372 21.313 0.223089 21.0892 0.261183 20.871L3.40404 2.871ZM12.75 20.25H16.725L16.4603 17.25H12.75V20.25ZM11.25 17.25V20.25H7.27498L7.53968 17.25H11.25ZM12.75 15.75H16.328L16.0633 12.75H12.75V15.75ZM11.25 12.75V15.75H7.67204L7.93674 12.75H11.25ZM12.75 11.25H15.9309L15.6662 8.25H12.75V11.25ZM11.25 8.25V11.25H8.0691L8.3338 8.25H11.25ZM12.75 6.75H15.5339L15.2692 3.75H12.75V6.75ZM11.25 3.75V6.75H8.46616L8.73086 3.75H11.25ZM7.22503 3.75H4.77326L4.24945 6.75H6.96033L7.22503 3.75ZM6.82797 8.25H4.00001C3.99585 8.25 3.9917 8.24997 3.98756 8.2499L3.46373 11.25H6.56327L6.82797 8.25ZM6.43092 12.75H3.20183L2.67802 15.75H6.16621L6.43092 12.75ZM6.03386 17.25H2.41611L1.89231 20.25H5.76915L6.03386 17.25ZM16.775 3.75L17.0397 6.75H19.7506L19.2268 3.75H16.775ZM20.0125 8.2499C20.0083 8.24997 20.0042 8.25 20 8.25H17.172L17.4367 11.25H20.5363L20.0125 8.2499ZM20.7982 12.75H17.5691L17.8338 15.75H21.322L20.7982 12.75ZM21.5839 17.25H17.9662L18.2309 20.25H22.1077L21.5839 17.25Z" fill="black"/>
</g>
</g>
</g>
<defs>
<clipPath id="clip0_232_466">
<rect width="24" height="24" rx="5" fill="white"/>
</clipPath>
</defs>
</svg>
