<svg width="24" height="24" viewBox="0 0 24 24" fill="none" xmlns="http://www.w3.org/2000/svg">
<g id="pharmacy-cross-tag">
<g clip-path="url(#clip0_232_8778)">
<g id="Weight=Dynamic">
<path id="Vector (Stroke)" fill-rule="evenodd" clip-rule="evenodd" d="M2.25 8C2.25 4.82436 4.82436 2.25 8 2.25H16C19.1756 2.25 21.75 4.82436 21.75 8V16C21.75 19.1756 19.1756 21.75 16 21.75H8C4.82436 21.75 2.25 19.1756 2.25 16V8ZM8 3.75C5.65279 3.75 3.75 5.65279 3.75 8V16C3.75 18.3472 5.65279 20.25 8 20.25H16C18.3472 20.25 20.25 18.3472 20.25 16V8C20.25 5.65279 18.3472 3.75 16 3.75H8ZM8.75 6.6C8.75 5.85442 9.35442 5.25 10.1 5.25H13.9C14.6456 5.25 15.25 5.85441 15.25 6.6V8.75H17.4C18.1456 8.75 18.75 9.35441 18.75 10.1V13.9C18.75 14.6456 18.1456 15.25 17.4 15.25H15.25V17.4C15.25 18.1456 14.6456 18.75 13.9 18.75H10.1C9.35441 18.75 8.75 18.1456 8.75 17.4V15.25H6.6C5.85441 15.25 5.25 14.6456 5.25 13.9V10.1C5.25 9.35442 5.85442 8.75 6.6 8.75H8.75V6.6ZM10.25 6.75V8.9C10.25 9.64558 9.64558 10.25 8.9 10.25H6.75V13.75H8.9C9.64559 13.75 10.25 14.3544 10.25 15.1V17.25H13.75V15.1C13.75 14.3544 14.3544 13.75 15.1 13.75H17.25V10.25H15.1C14.3544 10.25 13.75 9.64559 13.75 8.9V6.75H10.25Z" fill="black"/>
</g>
</g>
</g>
<defs>
<clipPath id="clip0_232_8778">
<rect width="24" height="24" rx="5" fill="white"/>
</clipPath>
</defs>
</svg>
