<svg width="24" height="24" viewBox="0 0 24 24" fill="none" xmlns="http://www.w3.org/2000/svg">
<g id="phone-paused">
<g clip-path="url(#clip0_232_3239)">
<g id="Weight=Dynamic">
<path id="Vector (Stroke)" fill-rule="evenodd" clip-rule="evenodd" d="M4.06343 1.25L7.81435 1.25C8.12672 1.25 8.40638 1.44361 8.51634 1.73599L9.97178 5.60588C10.02 5.73398 10.0322 5.87281 10.0071 6.00735L9.2778 9.91931C10.1742 12.0273 11.6548 13.4439 14.1104 14.7146L17.9754 13.9657C18.1126 13.9391 18.2545 13.9514 18.3851 14.0012L22.2669 15.4804C22.5577 15.5912 22.7498 15.87 22.7498 16.1812L22.7498 19.7655C22.7498 21.391 21.3176 22.7101 19.6424 22.3456C16.5888 21.6811 10.9315 19.9923 6.9695 16.0303C3.17436 12.2352 1.90282 6.99252 1.47478 4.15869C1.23055 2.54172 2.52735 1.25 4.06343 1.25ZM7.29513 2.75L4.06343 2.75C3.34441 2.75 2.86539 3.32183 2.95796 3.93466C3.37073 6.66748 4.57836 11.5179 8.03016 14.9697C11.6786 18.6181 16.9824 20.2317 19.9613 20.8799C20.6156 21.0222 21.2498 20.524 21.2498 19.7655L21.2498 16.698L18.0508 15.479L14.1425 16.2363C13.9799 16.2678 13.8114 16.2446 13.6634 16.1703C10.7691 14.7176 8.8902 12.9954 7.80347 10.2785C7.75068 10.1466 7.73648 10.0023 7.76253 9.86255L8.49415 5.9381L7.29513 2.75ZM18 1.25C18.4142 1.25 18.75 1.58579 18.75 2V7C18.75 7.41421 18.4142 7.75 18 7.75C17.5858 7.75 17.25 7.41421 17.25 7V2C17.25 1.58579 17.5858 1.25 18 1.25ZM22 1.25C22.4142 1.25 22.75 1.58579 22.75 2V7C22.75 7.41421 22.4142 7.75 22 7.75C21.5858 7.75 21.25 7.41421 21.25 7V2C21.25 1.58579 21.5858 1.25 22 1.25Z" fill="black"/>
</g>
</g>
</g>
<defs>
<clipPath id="clip0_232_3239">
<rect width="24" height="24" rx="5" fill="white"/>
</clipPath>
</defs>
</svg>
