<svg width="24" height="24" viewBox="0 0 24 24" fill="none" xmlns="http://www.w3.org/2000/svg">
<g id="phone-disabled">
<g clip-path="url(#clip0_232_3065)">
<g id="Weight=Dynamic">
<path id="Vector (Stroke)" fill-rule="evenodd" clip-rule="evenodd" d="M1.47502 4.15775C1.23077 2.5403 2.52826 1.25 4.0638 1.25H7.81472C8.12709 1.25 8.40676 1.44361 8.51672 1.73599L9.97215 5.60588C10.0203 5.73398 10.0325 5.87281 10.0075 6.00735L9.51714 8.63745C9.44123 9.04465 9.04959 9.31321 8.64239 9.2373C8.2352 9.16139 7.96664 8.76975 8.04255 8.36255L8.49452 5.9381L7.2955 2.75H4.0638C3.34425 2.75 2.86573 3.32142 2.9582 3.93378C3.23817 5.7878 3.88927 8.65265 5.38361 11.3872C5.58224 11.7507 5.4486 12.2063 5.08512 12.405C4.72164 12.6036 4.26596 12.47 4.06733 12.1065C2.45791 9.16137 1.76946 6.10761 1.47502 4.15775ZM21.5304 2.46967C21.8233 2.76256 21.8233 3.23744 21.5304 3.53033L11.8092 13.2516C12.4575 13.7726 13.2175 14.2523 14.1108 14.7146L17.9758 13.9657C18.113 13.9391 18.2549 13.9514 18.3855 14.0012L22.2673 15.4804C22.558 15.5912 22.7502 15.87 22.7502 16.1812L22.7502 19.7655C22.7502 21.3903 21.3197 22.7104 19.6438 22.3458C16.8514 21.7383 11.8975 20.2775 8.04368 17.0171L3.53044 21.5303C3.23755 21.8232 2.76268 21.8232 2.46978 21.5303C2.17689 21.2374 2.17689 20.7626 2.46978 20.4697L20.4698 2.46967C20.7627 2.17678 21.2376 2.17678 21.5304 2.46967ZM9.10835 15.9524C12.6663 18.9179 17.2717 20.2947 19.9627 20.8801C20.6164 21.0223 21.2502 20.5247 21.2502 19.7655L21.2502 16.698L18.0512 15.479L14.1429 16.2363C13.9803 16.2678 13.8118 16.2446 13.6638 16.1703C12.5482 15.6104 11.5774 15.0079 10.7431 14.3177L9.10835 15.9524Z" fill="black"/>
</g>
</g>
</g>
<defs>
<clipPath id="clip0_232_3065">
<rect width="24" height="24" rx="5" fill="white"/>
</clipPath>
</defs>
</svg>
