<svg width="24" height="24" viewBox="0 0 24 24" fill="none" xmlns="http://www.w3.org/2000/svg">
<g id="piggy-bank">
<g clip-path="url(#clip0_232_7702)">
<g id="Weight=Dynamic">
<g id="Vector">
<path d="M15.5 13C15.2239 13 15 12.7761 15 12.5C15 12.2239 15.2239 12 15.5 12C15.7761 12 16 12.2239 16 12.5C16 12.7761 15.7761 13 15.5 13Z" fill="black"/>
</g>
<path id="Vector (Stroke)" fill-rule="evenodd" clip-rule="evenodd" d="M9.5 3.75C7.99411 3.75 6.75 4.99718 6.75 6.56472C6.75 7.19578 6.95214 7.776 7.2928 8.24403C8.59962 7.60987 10.1343 7.25 11.7647 7.25C11.8947 7.25 12.0284 7.25575 12.1641 7.26618C12.2201 7.0426 12.25 6.8077 12.25 6.56472C12.25 4.99718 11.0059 3.75 9.5 3.75ZM13.6471 7.51196C13.7145 7.2066 13.75 6.88951 13.75 6.56472C13.75 4.19478 11.8601 2.25 9.5 2.25C7.13989 2.25 5.25 4.19478 5.25 6.56472C5.25 7.47273 5.52696 8.31733 6.00061 9.01383C5.93879 9.05855 5.87779 9.10399 5.81763 9.15015C4.82687 9.91043 4.05249 10.8778 3.6234 11.9811C3.29418 11.7265 3.08757 11.377 2.95331 11.0145C2.85255 10.7425 2.80072 10.4806 2.77467 10.2853C2.76179 10.1886 2.75559 10.1112 2.75263 10.0605C2.75115 10.0353 2.75049 10.0169 2.7502 10.0064L2.74999 9.99686C2.74999 9.99685 2.74999 9.99684 2.74999 9.99684C2.74999 9.99683 2.74999 9.99683 2.74999 9.99683C2.74828 9.58407 2.41315 9.25 2 9.25C1.58579 9.25 1.25 9.58579 1.25 10H2C1.25 10 1.25 10.0003 1.25 10.0006L1.25 10.0013L1.25001 10.0029L1.25002 10.0067L1.25013 10.0169L1.25077 10.0478C1.25146 10.0727 1.25276 10.1065 1.25519 10.1481C1.26004 10.231 1.26946 10.3457 1.28783 10.4835C1.32428 10.7569 1.39745 11.1325 1.54669 11.5355C1.80282 12.227 2.30706 13.0506 3.2679 13.5177C3.25604 13.6631 3.25 13.81 3.25 13.9583C3.25 15.9852 4.37443 17.7472 6.05816 18.9439L5.73544 20.0083C5.47257 20.8753 6.1214 21.75 7.02736 21.75H8.79147C9.0837 21.75 9.36805 21.6552 9.60178 21.4798L10.7963 20.5833H12.733L13.9275 21.4798C14.1613 21.6552 14.4456 21.75 14.7379 21.75H16.502C17.4079 21.75 18.0568 20.8753 17.7939 20.0083L17.4712 18.944C18.3802 18.2985 19.1234 17.491 19.6175 16.5629L21.3456 15.6656C21.5941 15.5366 21.75 15.28 21.75 15V11.5C21.75 11.1976 21.5684 10.9248 21.2894 10.8081L19.6777 10.1339L19.7498 7.01736C19.7554 6.77328 19.6419 6.54172 19.4455 6.39668C19.2491 6.25165 18.9944 6.21128 18.7628 6.28849L14.4739 7.71812C14.2278 7.65385 13.9463 7.58087 13.6471 7.51196ZM18.395 15.6815C18.4625 15.5373 18.5763 15.4134 18.7285 15.3344L20.25 14.5444V11.9993L18.6266 11.3202C18.3418 11.2011 18.1591 10.9196 18.1662 10.6109L18.2255 8.04873L14.7372 9.21151C14.5997 9.25732 14.452 9.26235 14.3118 9.226C14.2724 9.21579 14.2327 9.20547 14.1926 9.19506C13.3985 8.98871 12.4799 8.75 11.7647 8.75C9.77116 8.75 7.99392 9.37088 6.7308 10.3402C5.46844 11.3088 4.75 12.5946 4.75 13.9583C4.75 15.5227 5.6999 16.9927 7.32867 17.9857C7.62057 18.1637 7.75518 18.5165 7.65598 18.8437L7.22959 20.25H8.74145L10.096 19.2335C10.2259 19.136 10.3838 19.0833 10.5462 19.0833H12.9831C13.1455 19.0833 13.3035 19.136 13.4333 19.2335L14.7879 20.25H16.2997L15.8733 18.8437C15.7741 18.5165 15.9088 18.1637 16.2007 17.9857C17.1679 17.396 17.9005 16.6319 18.3316 15.7848C18.3502 15.7482 18.3715 15.7137 18.395 15.6815ZM14.25 12.5C14.25 11.8096 14.8096 11.25 15.5 11.25C16.1904 11.25 16.75 11.8096 16.75 12.5C16.75 13.1904 16.1904 13.75 15.5 13.75C14.8096 13.75 14.25 13.1904 14.25 12.5ZM15.5 12.75C15.6381 12.75 15.75 12.6381 15.75 12.5C15.75 12.3619 15.6381 12.25 15.5 12.25C15.3619 12.25 15.25 12.3619 15.25 12.5C15.25 12.6381 15.3619 12.75 15.5 12.75Z" fill="black"/>
</g>
</g>
</g>
<defs>
<clipPath id="clip0_232_7702">
<rect width="24" height="24" rx="5" fill="white"/>
</clipPath>
</defs>
</svg>
