<svg width="24" height="24" viewBox="0 0 24 24" fill="none" xmlns="http://www.w3.org/2000/svg">
<g id="pillow">
<g clip-path="url(#clip0_232_9026)">
<g id="Weight=Dynamic">
<path id="Vector (Stroke)" fill-rule="evenodd" clip-rule="evenodd" d="M19.3856 4.50771C21.1619 4.33008 22.6341 5.86571 22.3816 7.63297L21.783 11.8232C21.7662 11.9405 21.7662 12.0595 21.783 12.1768L22.3816 16.367C22.6341 18.1343 21.1619 19.6699 19.3856 19.4923L12.1245 18.7662C12.0418 18.7579 11.9584 18.7579 11.8757 18.7662L4.61463 19.4923C2.83829 19.6699 1.36617 18.1343 1.61863 16.367L2.21724 12.1768C2.21724 12.1768 2.21724 12.1768 2.21724 12.1768C2.23399 12.0595 2.23399 11.9405 2.21724 11.8232C2.21724 11.8232 2.21724 11.8232 2.21724 11.8232L1.61863 7.63297C1.36617 5.86571 2.8383 4.33008 4.61463 4.50771L11.8757 5.23382C11.9584 5.24209 12.0418 5.24209 12.1245 5.23382L19.3856 4.50771ZM19.7538 5.99724C19.6823 5.992 19.6092 5.99283 19.5348 6.00027L12.2737 6.72638C12.0918 6.74457 11.9084 6.74457 11.7265 6.72638L4.46538 6.00027C3.65795 5.91952 2.9888 6.61754 3.10356 7.42084L3.70217 11.6111L3.70217 11.6111C3.73902 11.8691 3.73902 12.1309 3.70217 12.3889L3.70217 12.3889L3.10356 16.5792C3.08388 16.7169 3.08725 16.8516 3.11043 16.9798L6.55011 14.4C6.88148 14.1515 7.35158 14.2186 7.60011 14.55C7.84864 14.8814 7.78148 15.3515 7.45011 15.6L4.24643 18.0028C4.31791 18.008 4.39106 18.0072 4.46538 17.9997L11.7265 17.2736C11.9084 17.2554 12.0918 17.2554 12.2737 17.2736L19.5348 17.9997C20.3423 18.0805 21.0114 17.3825 20.8967 16.5792L20.2981 12.3889C20.2612 12.1309 20.2612 11.8691 20.2981 11.6111L20.8967 7.42084C20.9163 7.28307 20.913 7.14841 20.8898 7.02024L17.4501 9.6C17.1187 9.84853 16.6486 9.78137 16.4001 9.45C16.1516 9.11863 16.2187 8.64853 16.5501 8.4L19.7538 5.99724Z" fill="black"/>
</g>
</g>
</g>
<defs>
<clipPath id="clip0_232_9026">
<rect width="24" height="24" rx="5" fill="white"/>
</clipPath>
</defs>
</svg>
