<svg width="24" height="24" viewBox="0 0 24 24" fill="none" xmlns="http://www.w3.org/2000/svg">
<g id="pin-slash">
<g clip-path="url(#clip0_232_11454)">
<g id="Weight=Dynamic">
<path id="Vector (Stroke)" fill-rule="evenodd" clip-rule="evenodd" d="M15.1261 1.92205C15.3355 1.91347 15.5389 1.9929 15.6871 2.14109L21.5368 7.99078C21.685 8.13897 21.7644 8.34241 21.7558 8.55181C21.7472 8.76121 21.6514 8.95747 21.4916 9.09305L17.1843 12.7469C16.8684 13.0149 16.3951 12.976 16.1272 12.6601C15.8592 12.3443 15.8981 11.871 16.2139 11.603L19.9005 8.47579L15.2021 3.77738L12.0566 7.48519C11.7886 7.80105 11.3154 7.83989 10.9995 7.57193C10.6836 7.30397 10.6448 6.83069 10.9128 6.51482L14.5848 2.18624C14.7204 2.02642 14.9167 1.93062 15.1261 1.92205ZM2.46967 2.46968C2.76256 2.17678 3.23744 2.17678 3.53033 2.46968L21.5303 20.4697C21.8232 20.7626 21.8232 21.2374 21.5303 21.5303C21.2374 21.8232 20.7626 21.8232 20.4697 21.5303L16.4348 17.4955C16.4299 17.5007 16.4249 17.5058 16.4198 17.5109L14.7228 19.208C14.5821 19.3487 14.3914 19.4277 14.1925 19.4277C13.9935 19.4277 13.8028 19.3487 13.6621 19.208L9.75739 15.3033L3.53033 21.5303C3.23744 21.8232 2.76256 21.8232 2.46967 21.5303C2.17678 21.2374 2.17678 20.7626 2.46967 20.4697L8.69673 14.2426L4.46974 10.0156C4.32909 9.87497 4.25007 9.6842 4.25007 9.48529C4.25007 9.28638 4.32909 9.09561 4.46974 8.95496L6.1668 7.2579C6.17188 7.25282 6.17703 7.24782 6.18223 7.2429L2.46967 3.53034C2.17678 3.23744 2.17678 2.76257 2.46967 2.46968ZM7.5722 8.63287L6.975 8.57102L6.06073 9.48529L14.1925 17.617L15.1067 16.7027L15.0449 16.1055L7.5722 8.63287Z" fill="black"/>
</g>
</g>
</g>
<defs>
<clipPath id="clip0_232_11454">
<rect width="24" height="24" rx="5" fill="white"/>
</clipPath>
</defs>
</svg>
