<svg width="24" height="24" viewBox="0 0 24 24" fill="none" xmlns="http://www.w3.org/2000/svg">
<g id="pin">
<g clip-path="url(#clip0_232_11440)">
<g id="Weight=Dynamic">
<path id="Vector (Stroke)" fill-rule="evenodd" clip-rule="evenodd" d="M15.1261 1.92205C15.3355 1.91347 15.5389 1.9929 15.6871 2.14109L21.5368 7.99078C21.685 8.13897 21.7644 8.34241 21.7558 8.55181C21.7472 8.76121 21.6514 8.95747 21.4916 9.09305L16.2841 13.5105L16.6355 16.9033C16.6588 17.128 16.5795 17.3512 16.4198 17.5109L14.7228 19.208C14.5821 19.3487 14.3914 19.4277 14.1925 19.4277C13.9935 19.4277 13.8028 19.3487 13.6621 19.208L9.75739 15.3033L3.53033 21.5303C3.23744 21.8232 2.76256 21.8232 2.46967 21.5303C2.17678 21.2374 2.17678 20.7626 2.46967 20.4697L8.69673 14.2426L4.46974 10.0156C4.32909 9.87497 4.25007 9.6842 4.25007 9.48529C4.25007 9.28638 4.32909 9.09561 4.46974 8.95496L6.1668 7.2579C6.32652 7.09818 6.54971 7.01895 6.77439 7.04222L10.1673 7.3936L14.5848 2.18624C14.7204 2.02642 14.9167 1.93062 15.1261 1.92205ZM15.2021 3.77738L11.0553 8.66553C10.8952 8.85426 10.6523 8.95185 10.4061 8.92636L6.975 8.57102L6.06073 9.48529L14.1925 17.617L15.1067 16.7027L14.7514 13.2716C14.7259 13.0254 14.8235 12.7825 15.0122 12.6224L19.9005 8.47579L15.2021 3.77738Z" fill="black"/>
</g>
</g>
</g>
<defs>
<clipPath id="clip0_232_11440">
<rect width="24" height="24" rx="5" fill="white"/>
</clipPath>
</defs>
</svg>
