<svg width="24" height="24" viewBox="0 0 24 24" fill="none" xmlns="http://www.w3.org/2000/svg">
<g id="pine-tree">
<g clip-path="url(#clip0_232_10494)">
<g id="Weight=Dynamic">
<path id="Vector (Stroke)" fill-rule="evenodd" clip-rule="evenodd" d="M11.4897 1.4504C11.7774 1.1832 12.2226 1.1832 12.5103 1.4504L17.5103 6.09326C17.7247 6.29228 17.8038 6.59774 17.7129 6.87576C17.6221 7.15379 17.3779 7.35364 17.0874 7.38774L17.051 7.39196L16.9491 7.40352C16.9254 7.40618 16.8989 7.40914 16.8696 7.41238L19.5607 10.4413C19.7226 10.6235 19.7859 10.8731 19.7302 11.1105C19.6746 11.3479 19.507 11.5434 19.281 11.6348L19 10.9394C19.281 11.6348 19.2812 11.6347 19.281 11.6348L19.2789 11.6356L19.2759 11.6368L19.267 11.6404L19.2376 11.6517C19.2129 11.6612 19.1781 11.6742 19.1334 11.6904C19.0475 11.7214 18.9249 11.7638 18.7673 11.814L21.5658 15.0308C21.8327 15.3375 21.8066 15.8009 21.507 16.0757L21 15.5231C21.507 16.0757 21.5074 16.0754 21.507 16.0757L21.5056 16.077L21.504 16.0785L21.5 16.0822L21.4888 16.0921C21.4801 16.0998 21.4685 16.1099 21.4543 16.122C21.4257 16.1463 21.3861 16.1791 21.3353 16.2191C21.2336 16.2991 21.0867 16.408 20.8931 16.5359C20.5056 16.7919 19.9309 17.1236 19.1549 17.4522C17.7152 18.0618 15.593 18.6557 12.7037 18.7398C12.7336 18.8209 12.75 18.9085 12.75 19V22C12.75 22.4142 12.4142 22.75 12 22.75C11.5858 22.75 11.25 22.4142 11.25 22V19C11.25 18.9085 11.2664 18.8209 11.2964 18.7398C8.40698 18.6557 6.28485 18.0618 4.84508 17.4522C4.06914 17.1236 3.49445 16.7919 3.10696 16.5359C2.91327 16.408 2.76646 16.2991 2.66474 16.2191C2.61388 16.1791 2.57429 16.1463 2.54574 16.122C2.53147 16.1099 2.51996 16.0998 2.51117 16.0921L2.50005 16.0822L2.49602 16.0785L2.49438 16.077C2.49405 16.0767 2.493 16.0757 3.00001 15.5231L2.493 16.0757C2.19344 15.8009 2.16735 15.3375 2.43417 15.0308L5.23275 11.814C5.0751 11.7638 4.95255 11.7214 4.86664 11.6904C4.82192 11.6742 4.78711 11.6612 4.76244 11.6517L4.73306 11.6404L4.72412 11.6368L4.7211 11.6356L4.71995 11.6351C4.71973 11.6351 4.71904 11.6348 5.00001 10.9394L4.71995 11.6351C4.49389 11.5438 4.32543 11.3479 4.26979 11.1105C4.21416 10.8731 4.27739 10.6235 4.43933 10.4413L7.13037 7.41238C7.10114 7.40914 7.0746 7.40618 7.05091 7.40352L6.94902 7.39196L6.91334 7.38783C6.62285 7.35373 6.37791 7.15379 6.28709 6.87576C6.19626 6.59774 6.27534 6.29228 6.48967 6.09326L11.4897 1.4504ZM8.9768 7.59256L6.33087 10.5707C6.53337 10.6241 6.76374 10.6806 7.0208 10.7373C8.17746 10.9922 9.87311 11.25 12 11.25C14.1269 11.25 15.8226 10.9922 16.9792 10.7373C17.2363 10.6806 17.4666 10.6241 17.6691 10.5707L15.0232 7.59256C14.0644 7.67385 12.9229 7.75 12 7.75C11.0771 7.75 9.93561 7.67385 8.9768 7.59256ZM15.2752 6.06474C15.2397 6.06795 15.2039 6.07116 15.1678 6.07437C14.1665 6.16329 12.9439 6.25 12 6.25C11.0561 6.25 9.83348 6.16329 8.83226 6.07437C8.79611 6.07116 8.76029 6.06795 8.7248 6.06474L12 3.02348L15.2752 6.06474ZM17.1461 12.2359C15.9042 12.4993 14.1562 12.75 12 12.75C9.84378 12.75 8.09577 12.4993 6.85393 12.2359L4.10598 15.3945C4.41893 15.5884 4.85753 15.8285 5.42993 16.0709C6.80071 16.6513 8.95133 17.25 12 17.25C15.0487 17.25 17.1993 16.6513 18.5701 16.0709C19.1425 15.8285 19.5811 15.5884 19.894 15.3945L17.1461 12.2359Z" fill="black"/>
</g>
</g>
</g>
<defs>
<clipPath id="clip0_232_10494">
<rect width="24" height="24" rx="5" fill="white"/>
</clipPath>
</defs>
</svg>
