<svg width="24" height="24" viewBox="0 0 24 24" fill="none" xmlns="http://www.w3.org/2000/svg">
<g id="pinterest">
<g clip-path="url(#clip0_232_14105)">
<g id="Weight=Dynamic">
<path id="Vector (Stroke)" fill-rule="evenodd" clip-rule="evenodd" d="M12 2.75C6.89137 2.75 2.75 6.89137 2.75 12C2.75 15.8593 5.11342 19.1665 8.47186 20.5533L11.2743 9.81068C11.3788 9.40988 11.7885 9.16973 12.1893 9.27429C12.5901 9.37884 12.8303 9.78852 12.7257 10.1893L12.2499 12.0134C12.2492 12.0497 12.2458 12.0864 12.2397 12.1233C12.0045 13.5346 12.1421 14.6074 12.4832 15.2896C12.8014 15.926 13.3008 16.25 13.9999 16.25C15.4848 16.25 17.2499 14.7319 17.2499 12C17.2499 10.2451 16.6943 9.09022 15.8877 8.36553C15.0673 7.62843 13.8906 7.25 12.4999 7.25C11.2215 7.25 9.56132 8.01096 8.57735 9.27353C8.09694 9.88997 7.7952 10.6038 7.75944 11.3858C7.72384 12.1643 7.94897 13.0716 8.62391 14.084C8.85368 14.4286 8.76055 14.8943 8.4159 15.124C8.07125 15.3538 7.6056 15.2607 7.37584 14.916C6.55079 13.6784 6.20872 12.4607 6.261 11.3173C6.31312 10.1775 6.75433 9.17253 7.39422 8.35147C8.65086 6.73903 10.7407 5.75 12.4999 5.75C14.1467 5.75 15.72 6.19841 16.8902 7.24972C18.0742 8.31345 18.7499 9.90854 18.7499 12C18.7499 15.3432 16.5149 17.75 13.9999 17.75C12.7387 17.75 11.7598 17.1148 11.1939 16.0613L9.90261 21.0112C10.5765 21.1674 11.2786 21.25 12 21.25C17.1086 21.25 21.25 17.1086 21.25 12C21.25 6.89137 17.1086 2.75 12 2.75ZM1.25 12C1.25 6.06294 6.06294 1.25 12 1.25C17.9371 1.25 22.75 6.06294 22.75 12C22.75 17.9371 17.9371 22.75 12 22.75C6.06294 22.75 1.25 17.9371 1.25 12Z" fill="black"/>
</g>
</g>
</g>
<defs>
<clipPath id="clip0_232_14105">
<rect width="24" height="24" rx="5" fill="white"/>
</clipPath>
</defs>
</svg>
