<svg width="24" height="24" viewBox="0 0 24 24" fill="none" xmlns="http://www.w3.org/2000/svg">
<g id="pipe-3d">
<g clip-path="url(#clip0_232_897)">
<g id="Weight=Dynamic">
<path id="Vector (Stroke)" fill-rule="evenodd" clip-rule="evenodd" d="M10.3218 4.1341C11.5344 2.96807 13.184 2.25 15 2.25C16.5938 2.25 18.0585 2.80235 19.2133 3.72608L20.4697 2.46967C20.7626 2.17678 21.2374 2.17678 21.5303 2.46967C21.8232 2.76256 21.8232 3.23744 21.5303 3.53033L20.2739 4.78674C21.1976 5.94149 21.75 7.40624 21.75 9C21.75 10.7283 21.0995 12.3065 20.0311 13.5002C19.9869 13.5496 19.9376 13.5917 19.8847 13.6266C19.8502 13.6932 19.805 13.7557 19.7491 13.8116L15.0303 18.5303C14.9957 18.565 14.9585 18.5955 14.9194 18.622C13.6882 19.9319 11.9396 20.75 10 20.75C8.40624 20.75 6.94149 20.1976 5.78674 19.2739L3.53033 21.5303C3.23744 21.8232 2.76256 21.8232 2.46967 21.5303C2.17678 21.2374 2.17678 20.7626 2.46967 20.4697L4.72608 18.2133C3.80235 17.0585 3.25 15.5938 3.25 14C3.25 12.0604 4.06809 10.3119 5.37804 9.08062C5.40449 9.04149 5.43503 9.00431 5.46967 8.96967L10.2197 4.21967C10.2517 4.18765 10.2859 4.15912 10.3218 4.1341ZM11.2073 5.35338L9.27184 7.28882C9.51104 7.26316 9.75398 7.25 10 7.25C13.7279 7.25 16.75 10.2721 16.75 14C16.75 14.246 16.7368 14.489 16.7112 14.7282L18.6884 12.7509C18.7251 12.7143 18.7646 12.6822 18.8062 12.6547C18.8346 12.6 18.8703 12.5479 18.9134 12.4998C19.7451 11.5705 20.25 10.3451 20.25 9C20.25 6.1005 17.8995 3.75 15 3.75C13.557 3.75 12.2512 4.33118 11.3014 5.274C11.2718 5.30345 11.2403 5.32991 11.2073 5.35338ZM6.85587 18.2048L10.0303 15.0303C10.3232 14.7374 10.3232 14.2626 10.0303 13.9697C9.73744 13.6768 9.26256 13.6768 8.96967 13.9697L5.79521 17.1441C5.1388 16.2677 4.75 15.1793 4.75 14C4.75 11.1005 7.1005 8.75 10 8.75C12.8995 8.75 15.25 11.1005 15.25 14C15.25 16.8995 12.8995 19.25 10 19.25C8.82075 19.25 7.73231 18.8612 6.85587 18.2048Z" fill="black"/>
</g>
</g>
</g>
<defs>
<clipPath id="clip0_232_897">
<rect width="24" height="24" rx="5" fill="white"/>
</clipPath>
</defs>
</svg>
