<svg width="24" height="24" viewBox="0 0 24 24" fill="none" xmlns="http://www.w3.org/2000/svg">
<g id="pizza-slice">
<g clip-path="url(#clip0_232_7847)">
<g id="Weight=Dynamic">
<path id="Vector (Stroke)" fill-rule="evenodd" clip-rule="evenodd" d="M13.4983 9.56748C13.1904 9.29038 13.1655 8.81616 13.4426 8.50828L13.4526 8.49717C13.7297 8.18929 14.2039 8.16433 14.5117 8.44143C14.8196 8.71852 14.8446 9.19274 14.5675 9.50062L14.5575 9.51173C14.2804 9.81962 13.8062 9.84457 13.4983 9.56748ZM7.49831 8.56749C7.19042 8.2904 7.16546 7.81618 7.44254 7.5083L7.45254 7.49718C7.72963 7.1893 8.20385 7.16433 8.51174 7.44142C8.81962 7.71851 8.84459 8.19272 8.5675 8.50061L8.5575 8.51172C8.28042 8.81961 7.8062 8.84458 7.49831 8.56749ZM7.49831 14.5675C7.19042 14.2904 7.16546 13.8162 7.44254 13.5083L7.45254 13.4972C7.72963 13.1893 8.20385 13.1643 8.51174 13.4414C8.81962 13.7185 8.84459 14.1927 8.5675 14.5006L8.5575 14.5117C8.28042 14.8196 7.8062 14.8446 7.49831 14.5675ZM5.17938 18.7868L1.50622 3.17589C1.26908 2.16805 2.20797 1.2794 3.20126 1.57155L18.8063 6.16126C19.4046 5.61117 20.2591 5.36303 21.1066 5.57489C22.4461 5.90976 23.2605 7.26709 22.9256 8.60659C22.2711 11.2246 20.1769 14.3591 17.5805 16.9555C14.9481 19.5879 11.4262 22.0446 7.56239 22.9362C6.21704 23.2467 4.87473 22.4077 4.56427 21.0624C4.36937 20.2178 4.62743 19.3745 5.17938 18.7868ZM6.54441 18.0391L3.02541 3.08336L18.0465 7.50131C17.6573 8.89623 16.2655 11.1994 14.045 13.42C11.8326 15.6323 9.14765 17.4076 6.54441 18.0391ZM21.4704 8.24278C21.6043 7.70699 21.2786 7.16405 20.7428 7.0301C20.207 6.89615 19.6641 7.22191 19.5301 7.75771C19.0919 9.51049 17.4796 12.1067 15.1056 14.4806C12.7461 16.8402 9.7799 18.8325 6.77539 19.5259C6.23724 19.65 5.90167 20.187 6.02585 20.7251C6.15004 21.2632 6.68696 21.5988 7.2251 21.4746C10.7206 20.668 14.0044 18.4103 16.5199 15.8949C19.0209 13.3938 20.9086 10.49 21.4704 8.24278Z" fill="black"/>
</g>
</g>
</g>
<defs>
<clipPath id="clip0_232_7847">
<rect width="24" height="24" rx="5" fill="white"/>
</clipPath>
</defs>
</svg>
