<svg width="24" height="24" viewBox="0 0 24 24" fill="none" xmlns="http://www.w3.org/2000/svg">
<g id="planimetry">
<g clip-path="url(#clip0_232_17380)">
<g id="Weight=Dynamic">
<path id="Vector (Stroke)" fill-rule="evenodd" clip-rule="evenodd" d="M2.25 3.6C2.25 2.85442 2.85442 2.25 3.6 2.25H20.4C21.1456 2.25 21.75 2.85442 21.75 3.6V20.4C21.75 21.1456 21.1456 21.75 20.4 21.75H3.6C2.85442 21.75 2.25 21.1456 2.25 20.4V3.6ZM3.75 11.75V20.25H10.25V19C10.25 18.5858 10.5858 18.25 11 18.25C11.4142 18.25 11.75 18.5858 11.75 19V20.25H14.25V18C14.25 17.5858 14.5858 17.25 15 17.25C15.4142 17.25 15.75 17.5858 15.75 18V20.25H20.25V15.75H15C14.5858 15.75 14.25 15.4142 14.25 15V13C14.25 12.5858 14.5858 12.25 15 12.25C15.4142 12.25 15.75 12.5858 15.75 13V14.25H20.25V8.75H15.75V10C15.75 10.4142 15.4142 10.75 15 10.75C14.5858 10.75 14.25 10.4142 14.25 10V8C14.25 7.58579 14.5858 7.25 15 7.25H20.25V3.75H11.75V6C11.75 6.41421 11.4142 6.75 11 6.75C10.5858 6.75 10.25 6.41421 10.25 6V3.75H3.75V10.25L10.25 10.25L10.25 9C10.25 8.58579 10.5858 8.25 11 8.25C11.4142 8.25 11.75 8.58579 11.75 9V16C11.75 16.4142 11.4142 16.75 11 16.75C10.5858 16.75 10.25 16.4142 10.25 16L10.25 11.75L3.75 11.75Z" fill="black"/>
</g>
</g>
</g>
<defs>
<clipPath id="clip0_232_17380">
<rect width="24" height="24" rx="5" fill="white"/>
</clipPath>
</defs>
</svg>
