<svg width="24" height="24" viewBox="0 0 24 24" fill="none" xmlns="http://www.w3.org/2000/svg">
<g id="planet-sat">
<g clip-path="url(#clip0_232_13594)">
<g id="Weight=Dynamic">
<path id="Vector (Stroke)" fill-rule="evenodd" clip-rule="evenodd" d="M12 4.75C7.99589 4.75 4.74995 7.99594 4.74995 12C4.74995 13.5646 5.24559 15.0135 6.08842 16.1982C7.97828 15.7438 10.3417 14.8681 12.8168 13.6341C15.2908 12.4006 17.4117 11.0407 18.9118 9.80529C17.9819 6.87407 15.239 4.75 12 4.75ZM19.2306 11.4664C17.692 12.6428 15.7125 13.8664 13.4861 14.9765C11.2581 16.0873 9.08823 16.9322 7.22191 17.4529C8.49777 18.5718 10.1697 19.25 12 19.25C16.004 19.25 19.25 16.0041 19.25 12C19.25 11.8205 19.2434 11.6426 19.2306 11.4664ZM5.49946 17.8573C7.10094 19.6335 9.42005 20.75 12 20.75C16.8324 20.75 20.75 16.8325 20.75 12C20.75 11.4301 20.6955 10.8729 20.5914 10.3334C21.2858 9.69622 21.8453 9.06738 22.2062 8.47636C22.5865 7.85361 22.8732 7.05633 22.5087 6.32532C22.1186 5.54279 21.2209 5.30756 20.4297 5.25811C19.7072 5.21295 18.8303 5.30391 17.8595 5.50157C16.3083 4.10204 14.2537 3.25 12 3.25C7.16746 3.25 3.24995 7.16751 3.24995 12C3.24995 12.2596 3.26125 12.5165 3.2834 12.7704C2.54104 13.4273 1.94057 14.0736 1.5424 14.6785C1.10772 15.3388 0.757674 16.1951 1.14696 16.9759C1.51143 17.7069 2.32071 17.9578 3.04692 18.0288C3.73555 18.0962 4.57359 18.028 5.49946 17.8573ZM4.4916 16.4956C4.12294 15.8812 3.82755 15.2178 3.61753 14.5175C3.2641 14.8775 2.9891 15.2088 2.79528 15.5033C2.40875 16.0904 2.48673 16.3013 2.48936 16.3066C2.49038 16.3087 2.58948 16.4769 3.19301 16.5359C3.53889 16.5698 3.97452 16.558 4.4916 16.4956ZM19.0524 6.81971C19.553 6.75373 19.9837 6.73316 20.3361 6.75519C21.0412 6.79926 21.1636 6.98921 21.1663 6.99462C21.1673 6.99667 21.2421 7.17706 20.926 7.6946C20.7445 7.99177 20.4723 8.33334 20.1102 8.70958C19.8356 8.03339 19.4789 7.39931 19.0524 6.81971ZM10.0117 9.94141C10.3196 10.2185 10.3445 10.6927 10.0674 11.0006L10.0574 11.0117C9.78034 11.3196 9.30613 11.3446 8.99824 11.0675C8.69035 10.7904 8.66538 10.3162 8.94247 10.0083L8.95247 9.99718C9.22956 9.68929 9.70378 9.66432 10.0117 9.94141Z" fill="black"/>
</g>
</g>
</g>
<defs>
<clipPath id="clip0_232_13594">
<rect width="24" height="24" rx="5" fill="white"/>
</clipPath>
</defs>
</svg>
