<svg width="24" height="24" viewBox="0 0 24 24" fill="none" xmlns="http://www.w3.org/2000/svg">
<g id="planet">
<g clip-path="url(#clip0_232_13746)">
<g id="Weight=Dynamic">
<path id="Vector (Stroke)" fill-rule="evenodd" clip-rule="evenodd" d="M12 4.75C7.99589 4.75 4.74995 7.99594 4.74995 12C4.74995 13.5647 5.2456 15.0135 6.08845 16.1982C7.9783 15.7439 10.3417 14.8681 12.8168 13.6341C15.2908 12.4007 17.4117 11.0408 18.9118 9.80533C17.9819 6.87409 15.239 4.75 12 4.75ZM19.2306 11.4665C17.692 12.6429 15.7125 13.8665 13.4861 14.9765C11.2582 16.0873 9.08827 16.9322 7.22196 17.453C8.49781 18.5718 10.1697 19.25 12 19.25C16.004 19.25 19.25 16.0041 19.25 12C19.25 11.8206 19.2434 11.6426 19.2306 11.4665ZM5.4995 17.8573C7.10098 19.6335 9.42007 20.75 12 20.75C16.8324 20.75 20.75 16.8325 20.75 12C20.75 11.4301 20.6955 10.873 20.5914 10.3335C21.2859 9.69626 21.8453 9.06743 22.2062 8.47641C22.5865 7.85367 22.8732 7.05639 22.5087 6.32537C22.1186 5.54284 21.2209 5.30761 20.4297 5.25816C19.7072 5.21301 18.8303 5.30396 17.8595 5.50162C16.3084 4.10206 14.2537 3.25 12 3.25C7.16746 3.25 3.24995 7.16751 3.24995 12C3.24995 12.2596 3.26126 12.5166 3.2834 12.7704C2.54105 13.4274 1.94057 14.0737 1.5424 14.6785C1.10772 15.3388 0.757674 16.1952 1.14696 16.976C1.51143 17.707 2.32071 17.9578 3.04692 18.0289C3.73556 18.0963 4.57362 18.0281 5.4995 17.8573ZM4.49163 16.4957C4.12296 15.8812 3.82757 15.2179 3.61754 14.5176C3.26411 14.8775 2.9891 15.2089 2.79528 15.5033C2.40875 16.0905 2.48673 16.3014 2.48936 16.3067C2.49038 16.3087 2.58948 16.4769 3.19301 16.536C3.53889 16.5698 3.97454 16.5581 4.49163 16.4957ZM19.0525 6.81976C19.553 6.75378 19.9837 6.73321 20.3361 6.75524C21.0412 6.79931 21.1636 6.98927 21.1663 6.99467C21.1673 6.99673 21.2421 7.17711 20.926 7.69465C20.7445 7.99182 20.4723 8.33338 20.1102 8.70962C19.8356 8.03344 19.4789 7.39936 19.0525 6.81976Z" fill="black"/>
</g>
</g>
</g>
<defs>
<clipPath id="clip0_232_13746">
<rect width="24" height="24" rx="5" fill="white"/>
</clipPath>
</defs>
</svg>
