<svg width="24" height="24" viewBox="0 0 24 24" fill="none" xmlns="http://www.w3.org/2000/svg">
<g id="planet-alt">
<g clip-path="url(#clip0_232_13738)">
<g id="Weight=Dynamic">
<path id="Vector (Stroke)" fill-rule="evenodd" clip-rule="evenodd" d="M4.76871 11.473C4.75621 11.647 4.74985 11.8228 4.74985 12C4.74985 16.0041 7.99579 19.25 11.9999 19.25C13.8291 19.25 15.5001 18.5726 16.7757 17.4549C14.9078 16.9343 12.7354 16.0887 10.5048 14.9766C8.28244 13.8685 6.30611 12.6474 4.76871 11.473ZM3.40702 10.3405C3.30386 10.8778 3.24985 11.4326 3.24985 12C3.24985 16.8325 7.16736 20.75 11.9999 20.75C14.579 20.75 16.8976 19.6341 18.499 17.8587C19.4219 18.0285 20.2572 18.0961 20.9439 18.0289C21.6701 17.9578 22.4794 17.707 22.8439 16.976C23.234 16.1934 22.8817 15.335 22.445 14.6733C22.0484 14.0724 21.4523 13.4305 20.7158 12.7778C20.7383 12.5215 20.7499 12.2621 20.7499 12C20.7499 7.16751 16.8323 3.25 11.9999 3.25C9.74531 3.25 7.68993 4.10267 6.13859 5.50313C5.16238 5.30392 4.28057 5.21239 3.55492 5.25858C2.76599 5.3088 1.87141 5.54461 1.48212 6.32539C1.11765 7.05641 1.40436 7.85369 1.78465 8.47643C2.14688 9.06961 2.70908 9.70088 3.40702 10.3405ZM5.08611 9.8112C6.5858 11.0451 8.70398 12.4026 11.1741 13.6342C13.6524 14.8698 16.0189 15.7462 17.91 16.2001C18.7537 15.0151 19.2499 13.5655 19.2499 12C19.2499 7.99594 16.0039 4.75 11.9999 4.75C8.75864 4.75 6.0142 6.87693 5.08611 9.8112ZM19.5076 16.4967C20.021 16.5582 20.4538 16.5697 20.7978 16.536C21.4014 16.477 21.5005 16.3087 21.5015 16.3067C21.5042 16.3013 21.5822 16.0892 21.1931 15.4996C21.0006 15.2079 20.7287 14.8802 20.3802 14.5246C20.1701 15.2227 19.8753 15.884 19.5076 16.4967ZM3.88693 8.71618C3.52171 8.33736 3.24735 7.99356 3.06483 7.69467C2.74878 7.17713 2.8235 6.99675 2.82452 6.99469C2.82715 6.98942 2.94867 6.80021 3.65021 6.75555C4.00531 6.73294 4.4403 6.75373 4.94654 6.82086C4.51907 7.40204 4.16171 8.03797 3.88693 8.71618Z" fill="black"/>
</g>
</g>
</g>
<defs>
<clipPath id="clip0_232_13738">
<rect width="24" height="24" rx="5" fill="white"/>
</clipPath>
</defs>
</svg>
