<svg width="24" height="24" viewBox="0 0 24 24" fill="none" xmlns="http://www.w3.org/2000/svg">
<g id="playlist-plus">
<g clip-path="url(#clip0_232_10308)">
<g id="Weight=Dynamic">
<path id="Vector (Stroke)" fill-rule="evenodd" clip-rule="evenodd" d="M1.25 5C1.25 4.58579 1.58579 4.25 2 4.25H20C20.4142 4.25 20.75 4.58579 20.75 5C20.75 5.41421 20.4142 5.75 20 5.75H2C1.58579 5.75 1.25 5.41421 1.25 5ZM20 11.75L2 11.75C1.58579 11.75 1.25 11.4142 1.25 11C1.25 10.5858 1.58579 10.25 2 10.25L20 10.25C20.4142 10.25 20.75 10.5858 20.75 11C20.75 11.4142 20.4142 11.75 20 11.75ZM20 15.25C20.4142 15.25 20.75 15.5858 20.75 16V17.25H22C22.4142 17.25 22.75 17.5858 22.75 18C22.75 18.4142 22.4142 18.75 22 18.75H20.75V20C20.75 20.4142 20.4142 20.75 20 20.75C19.5858 20.75 19.25 20.4142 19.25 20V18.75H18C17.5858 18.75 17.25 18.4142 17.25 18C17.25 17.5858 17.5858 17.25 18 17.25H19.25V16C19.25 15.5858 19.5858 15.25 20 15.25ZM14 17.75L2 17.75C1.58579 17.75 1.25 17.4142 1.25 17C1.25 16.5858 1.58579 16.25 2 16.25L14 16.25C14.4142 16.25 14.75 16.5858 14.75 17C14.75 17.4142 14.4142 17.75 14 17.75Z" fill="black"/>
</g>
</g>
</g>
<defs>
<clipPath id="clip0_232_10308">
<rect width="24" height="24" rx="5" fill="white"/>
</clipPath>
</defs>
</svg>
