<svg width="24" height="24" viewBox="0 0 24 24" fill="none" xmlns="http://www.w3.org/2000/svg">
<g id="playlist">
<g clip-path="url(#clip0_232_10296)">
<g id="Weight=Dynamic">
<path id="Vector (Stroke)" fill-rule="evenodd" clip-rule="evenodd" d="M1.25 5C1.25 4.58579 1.58579 4.25 2 4.25H20C20.4142 4.25 20.75 4.58579 20.75 5C20.75 5.41421 20.4142 5.75 20 5.75H2C1.58579 5.75 1.25 5.41421 1.25 5ZM20.75 10.75H22C22.4142 10.75 22.75 10.4142 22.75 10C22.75 9.58579 22.4142 9.25 22 9.25H20.6C19.8544 9.25 19.25 9.85439 19.25 10.6V16.378C19.0154 16.2951 18.763 16.25 18.5 16.25C17.2574 16.25 16.25 17.2574 16.25 18.5C16.25 19.7426 17.2574 20.75 18.5 20.75C19.7426 20.75 20.75 19.7426 20.75 18.5V10.75ZM19.25 18.5C19.25 18.0858 18.9142 17.75 18.5 17.75C18.0858 17.75 17.75 18.0858 17.75 18.5C17.75 18.9142 18.0858 19.25 18.5 19.25C18.9142 19.25 19.25 18.9142 19.25 18.5ZM1.25 11C1.25 10.5858 1.58579 10.25 2 10.25H16C16.4142 10.25 16.75 10.5858 16.75 11C16.75 11.4142 16.4142 11.75 16 11.75H2C1.58579 11.75 1.25 11.4142 1.25 11ZM1.25 17C1.25 16.5858 1.58579 16.25 2 16.25H13C13.4142 16.25 13.75 16.5858 13.75 17C13.75 17.4142 13.4142 17.75 13 17.75H2C1.58579 17.75 1.25 17.4142 1.25 17Z" fill="black"/>
</g>
</g>
</g>
<defs>
<clipPath id="clip0_232_10296">
<rect width="24" height="24" rx="5" fill="white"/>
</clipPath>
</defs>
</svg>
