<svg width="24" height="24" viewBox="0 0 24 24" fill="none" xmlns="http://www.w3.org/2000/svg">
<g id="playlist-play">
<g clip-path="url(#clip0_232_10320)">
<g id="Weight=Dynamic">
<path id="Vector (Stroke)" fill-rule="evenodd" clip-rule="evenodd" d="M1.25 5C1.25 4.58579 1.58579 4.25 2 4.25H20C20.4142 4.25 20.75 4.58579 20.75 5C20.75 5.41421 20.4142 5.75 20 5.75H2C1.58579 5.75 1.25 5.41421 1.25 5ZM1.25 11C1.25 10.5858 1.58579 10.25 2 10.25H20C20.4142 10.25 20.75 10.5858 20.75 11C20.75 11.4142 20.4142 11.75 20 11.75H2C1.58579 11.75 1.25 11.4142 1.25 11ZM18.1568 14.3331C18.4066 14.2046 18.7073 14.2264 18.9359 14.3897L22.4359 16.8897C22.633 17.0305 22.75 17.2578 22.75 17.5C22.75 17.7422 22.633 17.9695 22.4359 18.1103L18.9359 20.6103C18.7073 20.7736 18.4066 20.7954 18.1568 20.6669C17.907 20.5383 17.75 20.2809 17.75 20V15C17.75 14.7191 17.907 14.4617 18.1568 14.3331ZM19.25 16.4574V18.5426L20.7097 17.5L19.25 16.4574ZM1.25 17C1.25 16.5858 1.58579 16.25 2 16.25H14C14.4142 16.25 14.75 16.5858 14.75 17C14.75 17.4142 14.4142 17.75 14 17.75H2C1.58579 17.75 1.25 17.4142 1.25 17Z" fill="black"/>
</g>
</g>
</g>
<defs>
<clipPath id="clip0_232_10320">
<rect width="24" height="24" rx="5" fill="white"/>
</clipPath>
</defs>
</svg>
