<svg width="24" height="24" viewBox="0 0 24 24" fill="none" xmlns="http://www.w3.org/2000/svg">
<g id="plug-type-c">
<g clip-path="url(#clip0_232_3700)">
<g id="Weight=Dynamic">
<path id="Vector (Stroke)" fill-rule="evenodd" clip-rule="evenodd" d="M12 2.75C6.89137 2.75 2.75 6.89137 2.75 12C2.75 17.1086 6.89137 21.25 12 21.25C17.1086 21.25 21.25 17.1086 21.25 12C21.25 6.89137 17.1086 2.75 12 2.75ZM1.25 12C1.25 6.06294 6.06294 1.25 12 1.25C17.9371 1.25 22.75 6.06294 22.75 12C22.75 17.9371 17.9371 22.75 12 22.75C6.06294 22.75 1.25 17.9371 1.25 12ZM8 10.75C7.30964 10.75 6.75 11.3096 6.75 12C6.75 12.6904 7.30964 13.25 8 13.25C8.69036 13.25 9.25 12.6904 9.25 12C9.25 11.3096 8.69036 10.75 8 10.75ZM5.25 12C5.25 10.4812 6.48122 9.25 8 9.25C9.51878 9.25 10.75 10.4812 10.75 12C10.75 13.5188 9.51878 14.75 8 14.75C6.48122 14.75 5.25 13.5188 5.25 12ZM16 10.75C15.3096 10.75 14.75 11.3096 14.75 12C14.75 12.6904 15.3096 13.25 16 13.25C16.6904 13.25 17.25 12.6904 17.25 12C17.25 11.3096 16.6904 10.75 16 10.75ZM13.25 12C13.25 10.4812 14.4812 9.25 16 9.25C17.5188 9.25 18.75 10.4812 18.75 12C18.75 13.5188 17.5188 14.75 16 14.75C14.4812 14.75 13.25 13.5188 13.25 12Z" fill="black"/>
</g>
</g>
</g>
<defs>
<clipPath id="clip0_232_3700">
<rect width="24" height="24" rx="5" fill="white"/>
</clipPath>
</defs>
</svg>
