<svg width="24" height="24" viewBox="0 0 24 24" fill="none" xmlns="http://www.w3.org/2000/svg">
<g id="plug-type-a">
<g clip-path="url(#clip0_232_3678)">
<g id="Weight=Dynamic">
<path id="Vector (Stroke)" fill-rule="evenodd" clip-rule="evenodd" d="M12 2.75C6.89137 2.75 2.75 6.89137 2.75 12C2.75 17.1086 6.89137 21.25 12 21.25C17.1086 21.25 21.25 17.1086 21.25 12C21.25 6.89137 17.1086 2.75 12 2.75ZM1.25 12C1.25 6.06294 6.06294 1.25 12 1.25C17.9371 1.25 22.75 6.06294 22.75 12C22.75 17.9371 17.9371 22.75 12 22.75C6.06294 22.75 1.25 17.9371 1.25 12ZM9 9.25C9.41421 9.25 9.75 9.58579 9.75 10V14C9.75 14.4142 9.41421 14.75 9 14.75C8.58579 14.75 8.25 14.4142 8.25 14V10C8.25 9.58579 8.58579 9.25 9 9.25ZM15 9.25C15.4142 9.25 15.75 9.58579 15.75 10V14C15.75 14.4142 15.4142 14.75 15 14.75C14.5858 14.75 14.25 14.4142 14.25 14V10C14.25 9.58579 14.5858 9.25 15 9.25Z" fill="black"/>
</g>
</g>
</g>
<defs>
<clipPath id="clip0_232_3678">
<rect width="24" height="24" rx="5" fill="white"/>
</clipPath>
</defs>
</svg>
