<svg width="24" height="24" viewBox="0 0 24 24" fill="none" xmlns="http://www.w3.org/2000/svg">
<g id="plug-type-g">
<g clip-path="url(#clip0_232_3688)">
<g id="Weight=Dynamic">
<path id="Vector (Stroke)" fill-rule="evenodd" clip-rule="evenodd" d="M12 2.75C6.89137 2.75 2.75 6.89137 2.75 12C2.75 17.1086 6.89137 21.25 12 21.25C17.1086 21.25 21.25 17.1086 21.25 12C21.25 6.89137 17.1086 2.75 12 2.75ZM1.25 12C1.25 6.06294 6.06294 1.25 12 1.25C17.9371 1.25 22.75 6.06294 22.75 12C22.75 17.9371 17.9371 22.75 12 22.75C6.06294 22.75 1.25 17.9371 1.25 12ZM12 6.25C12.4142 6.25 12.75 6.58579 12.75 7V10C12.75 10.4142 12.4142 10.75 12 10.75C11.5858 10.75 11.25 10.4142 11.25 10V7C11.25 6.58579 11.5858 6.25 12 6.25ZM6.25 14C6.25 13.5858 6.58579 13.25 7 13.25H10C10.4142 13.25 10.75 13.5858 10.75 14C10.75 14.4142 10.4142 14.75 10 14.75H7C6.58579 14.75 6.25 14.4142 6.25 14ZM13.25 14C13.25 13.5858 13.5858 13.25 14 13.25H17C17.4142 13.25 17.75 13.5858 17.75 14C17.75 14.4142 17.4142 14.75 17 14.75H14C13.5858 14.75 13.25 14.4142 13.25 14Z" fill="black"/>
</g>
</g>
</g>
<defs>
<clipPath id="clip0_232_3688">
<rect width="24" height="24" rx="5" fill="white"/>
</clipPath>
</defs>
</svg>
