<svg width="24" height="24" viewBox="0 0 24 24" fill="none" xmlns="http://www.w3.org/2000/svg">
<g id="plug-type-l">
<g clip-path="url(#clip0_232_3723)">
<g id="Weight=Dynamic">
<path id="Vector (Stroke)" fill-rule="evenodd" clip-rule="evenodd" d="M5.75 3.75H10C10.4142 3.75 10.75 3.41421 10.75 3C10.75 2.58579 10.4142 2.25 10 2.25H5.6C4.85442 2.25 4.25 2.85442 4.25 3.6V20.4C4.25 21.1456 4.85442 21.75 5.6 21.75H10C10.4142 21.75 10.75 21.4142 10.75 21C10.75 20.5858 10.4142 20.25 10 20.25H5.75V3.75ZM13.25 3C13.25 2.58579 13.5858 2.25 14 2.25H18.4C19.1456 2.25 19.75 2.85442 19.75 3.6V20.4C19.75 21.1456 19.1456 21.75 18.4 21.75H14C13.5858 21.75 13.25 21.4142 13.25 21C13.25 20.5858 13.5858 20.25 14 20.25H18.25V3.75H14C13.5858 3.75 13.25 3.41421 13.25 3ZM10.25 7C10.25 6.58579 10.5858 6.25 11 6.25H13C13.4142 6.25 13.75 6.58579 13.75 7C13.75 7.41421 13.4142 7.75 13 7.75H11C10.5858 7.75 10.25 7.41421 10.25 7ZM10.25 12C10.25 11.5858 10.5858 11.25 11 11.25H13C13.4142 11.25 13.75 11.5858 13.75 12C13.75 12.4142 13.4142 12.75 13 12.75H11C10.5858 12.75 10.25 12.4142 10.25 12ZM10.25 17C10.25 16.5858 10.5858 16.25 11 16.25H13C13.4142 16.25 13.75 16.5858 13.75 17C13.75 17.4142 13.4142 17.75 13 17.75H11C10.5858 17.75 10.25 17.4142 10.25 17Z" fill="black"/>
</g>
</g>
</g>
<defs>
<clipPath id="clip0_232_3723">
<rect width="24" height="24" rx="5" fill="white"/>
</clipPath>
</defs>
</svg>
