<svg width="24" height="24" viewBox="0 0 24 24" fill="none" xmlns="http://www.w3.org/2000/svg">
<g id="png-format">
<g clip-path="url(#clip0_232_12550)">
<g id="Weight=Dynamic">
<path id="Vector (Stroke)" fill-rule="evenodd" clip-rule="evenodd" d="M3.25 3.6C3.25 2.85441 3.85442 2.25 4.6 2.25H19.4C20.1456 2.25 20.75 2.85442 20.75 3.6V6C20.75 6.41421 20.4142 6.75 20 6.75C19.5858 6.75 19.25 6.41421 19.25 6V3.75H4.75V6C4.75 6.41421 4.41421 6.75 4 6.75C3.58579 6.75 3.25 6.41421 3.25 6V3.6ZM10.3277 8.27006C10.6662 8.19015 11.0153 8.35348 11.1708 8.66459L12.75 11.8229V9C12.75 8.58579 13.0858 8.25 13.5 8.25C13.9142 8.25 14.25 8.58579 14.25 9V15C14.25 15.3478 14.0108 15.65 13.6723 15.7299C13.3338 15.8099 12.9847 15.6465 12.8292 15.3354L11.25 12.1771V15C11.25 15.4142 10.9142 15.75 10.5 15.75C10.0858 15.75 9.75 15.4142 9.75 15V9C9.75 8.65217 9.98916 8.34998 10.3277 8.27006ZM3.75 9C3.75 8.58579 4.08579 8.25 4.5 8.25H7.5C7.91421 8.25 8.25 8.58579 8.25 9V12C8.25 12.4142 7.91421 12.75 7.5 12.75H5.25V15C5.25 15.4142 4.91421 15.75 4.5 15.75C4.08579 15.75 3.75 15.4142 3.75 15V9ZM5.25 11.25H6.75V9.75H5.25V11.25ZM15.75 9C15.75 8.58579 16.0858 8.25 16.5 8.25H19.5C19.9142 8.25 20.25 8.58579 20.25 9C20.25 9.41421 19.9142 9.75 19.5 9.75H17.25V14.25H18.75V12.6C18.75 12.1858 19.0858 11.85 19.5 11.85C19.9142 11.85 20.25 12.1858 20.25 12.6V15C20.25 15.4142 19.9142 15.75 19.5 15.75H16.5C16.0858 15.75 15.75 15.4142 15.75 15V9ZM4 17.25C4.41421 17.25 4.75 17.5858 4.75 18V20.25H19.25V18C19.25 17.5858 19.5858 17.25 20 17.25C20.4142 17.25 20.75 17.5858 20.75 18V20.4C20.75 21.1456 20.1456 21.75 19.4 21.75H4.6C3.85442 21.75 3.25 21.1456 3.25 20.4V18C3.25 17.5858 3.58579 17.25 4 17.25Z" fill="black"/>
</g>
</g>
</g>
<defs>
<clipPath id="clip0_232_12550">
<rect width="24" height="24" rx="5" fill="white"/>
</clipPath>
</defs>
</svg>
