<svg width="24" height="24" viewBox="0 0 24 24" fill="none" xmlns="http://www.w3.org/2000/svg">
<g id="pocket">
<g clip-path="url(#clip0_232_14012)">
<g id="Weight=Dynamic">
<path id="Vector (Stroke)" fill-rule="evenodd" clip-rule="evenodd" d="M2.25 6C2.25 4.48122 3.48122 3.25 5 3.25H19C20.5188 3.25 21.75 4.48122 21.75 6V11C21.75 16.3848 17.3848 20.75 12 20.75C6.61522 20.75 2.25 16.3848 2.25 11V6ZM5 4.75C4.30964 4.75 3.75 5.30964 3.75 6V11C3.75 15.5563 7.44365 19.25 12 19.25C16.5563 19.25 20.25 15.5563 20.25 11V6C20.25 5.30964 19.6904 4.75 19 4.75H5ZM7.46967 9.46967C7.76256 9.17678 8.23744 9.17678 8.53033 9.46967L12 12.9393L15.4697 9.46967C15.7626 9.17678 16.2374 9.17678 16.5303 9.46967C16.8232 9.76256 16.8232 10.2374 16.5303 10.5303L12.5303 14.5303C12.2374 14.8232 11.7626 14.8232 11.4697 14.5303L7.46967 10.5303C7.17678 10.2374 7.17678 9.76256 7.46967 9.46967Z" fill="black"/>
</g>
</g>
</g>
<defs>
<clipPath id="clip0_232_14012">
<rect width="24" height="24" rx="5" fill="white"/>
</clipPath>
</defs>
</svg>
