<svg width="24" height="24" viewBox="0 0 24 24" fill="none" xmlns="http://www.w3.org/2000/svg">
<g id="podcast">
<g clip-path="url(#clip0_232_3323)">
<g id="Weight=Dynamic">
<path id="Vector (Stroke)" fill-rule="evenodd" clip-rule="evenodd" d="M12 1.75C6.89137 1.75 2.75 5.89137 2.75 11C2.75 14.0258 4.20201 16.7122 6.45043 18.4011C6.78162 18.6498 6.84844 19.12 6.59967 19.4512C6.35091 19.7824 5.88076 19.8492 5.54957 19.6004C2.9402 17.6404 1.25 14.5175 1.25 11C1.25 5.06294 6.06294 0.25 12 0.25C17.9371 0.25 22.75 5.06294 22.75 11C22.75 14.5175 21.0598 17.6404 18.4504 19.6004C18.1192 19.8492 17.6491 19.7824 17.4003 19.4512C17.1516 19.12 17.2184 18.6498 17.5496 18.4011C19.798 16.7122 21.25 14.0258 21.25 11C21.25 5.89137 17.1086 1.75 12 1.75ZM12 5.75C9.1005 5.75 6.75 8.1005 6.75 11C6.75 12.3451 7.25487 13.5705 8.08664 14.4998C8.36288 14.8085 8.33662 15.2826 8.02797 15.5589C7.71933 15.8351 7.24518 15.8088 6.96894 15.5002C5.90054 14.3065 5.25 12.7283 5.25 11C5.25 7.27208 8.27208 4.25 12 4.25C15.7279 4.25 18.75 7.27208 18.75 11C18.75 12.7283 18.0995 14.3065 17.0311 15.5002C16.7548 15.8088 16.2807 15.8351 15.972 15.5589C15.6634 15.2826 15.6371 14.8085 15.9134 14.4998C16.7451 13.5705 17.25 12.3451 17.25 11C17.25 8.1005 14.8995 5.75 12 5.75ZM12 9.75C11.3096 9.75 10.75 10.3096 10.75 11C10.75 11.6904 11.3096 12.25 12 12.25C12.6904 12.25 13.25 11.6904 13.25 11C13.25 10.3096 12.6904 9.75 12 9.75ZM9.25 11C9.25 9.48122 10.4812 8.25 12 8.25C13.5188 8.25 14.75 9.48122 14.75 11C14.75 12.5188 13.5188 13.75 12 13.75C10.4812 13.75 9.25 12.5188 9.25 11ZM9.65996 15.6586L10.4746 15.1156C11.3983 14.4997 12.6017 14.4997 13.5254 15.1156L14.34 15.6586C15.2404 16.2589 15.7051 17.3314 15.5272 18.3989L15.0183 21.4521C14.7973 22.7781 13.6501 23.75 12.3057 23.75H11.6943C10.3499 23.75 9.20267 22.7781 8.98167 21.4521L8.4728 18.3989C8.2949 17.3314 8.75955 16.2589 9.65996 15.6586Z" fill="black"/>
</g>
</g>
</g>
<defs>
<clipPath id="clip0_232_3323">
<rect width="24" height="24" rx="5" fill="white"/>
</clipPath>
</defs>
</svg>
