<svg width="24" height="24" viewBox="0 0 24 24" fill="none" xmlns="http://www.w3.org/2000/svg">
<g id="pokeball">
<g clip-path="url(#clip0_232_8379)">
<g id="Weight=Dynamic">
<path id="Vector (Stroke)" fill-rule="evenodd" clip-rule="evenodd" d="M2.77997 11.25H8.32501C8.67247 9.53832 10.1858 8.25 12 8.25C13.8142 8.25 15.3275 9.53832 15.675 11.25H21.22C20.8383 6.49211 16.8561 2.75 12 2.75C7.14386 2.75 3.16173 6.49211 2.77997 11.25ZM21.22 12.75H15.675C15.3275 14.4617 13.8142 15.75 12 15.75C10.1858 15.75 8.67247 14.4617 8.32501 12.75H2.77997C3.16173 17.5079 7.14386 21.25 12 21.25C16.8561 21.25 20.8383 17.5079 21.22 12.75ZM1.25 12C1.25 6.06294 6.06294 1.25 12 1.25C17.9371 1.25 22.75 6.06294 22.75 12C22.75 17.9371 17.9371 22.75 12 22.75C6.06294 22.75 1.25 17.9371 1.25 12ZM12 9.75C10.7574 9.75 9.75 10.7574 9.75 12C9.75 13.2426 10.7574 14.25 12 14.25C13.2426 14.25 14.25 13.2426 14.25 12C14.25 10.7574 13.2426 9.75 12 9.75Z" fill="black"/>
</g>
</g>
</g>
<defs>
<clipPath id="clip0_232_8379">
<rect width="24" height="24" rx="5" fill="white"/>
</clipPath>
</defs>
</svg>
