<svg width="24" height="24" viewBox="0 0 24 24" fill="none" xmlns="http://www.w3.org/2000/svg">
<g id="polar-sh">
<g clip-path="url(#clip0_232_5533)">
<g id="Weight=Dynamic">
<path id="Vector (Stroke)" fill-rule="evenodd" clip-rule="evenodd" d="M1.25 12C1.25 6.06294 6.06294 1.25 12 1.25C17.9371 1.25 22.75 6.06294 22.75 12C22.75 17.9371 17.9371 22.75 12 22.75C6.06294 22.75 1.25 17.9371 1.25 12ZM8.81416 20.1119C8.69416 19.8693 8.58117 19.6145 8.47522 19.3496C7.70786 17.4312 7.25 14.8324 7.25 12C7.25 9.75934 7.53653 7.66487 8.03614 5.93779C6.4557 8.01495 5.75 10.447 5.75 12.5C5.75 13.9884 5.99098 15.7669 6.57423 17.2704C7.09093 18.6023 7.83244 19.6151 8.81416 20.1119ZM12 2.75C11.7204 2.75 11.3781 2.88858 10.9879 3.30118C10.5962 3.71536 10.2089 4.35495 9.86793 5.20748C9.18757 6.90837 8.75 9.30956 8.75 12C8.75 14.6904 9.18757 17.0916 9.86793 18.7925C10.2089 19.6451 10.5962 20.2846 10.9879 20.6988C11.3781 21.1114 11.7204 21.25 12 21.25C12.2796 21.25 12.6219 21.1114 13.0121 20.6988C13.4038 20.2846 13.7911 19.6451 14.1321 18.7925C14.8124 17.0916 15.25 14.6904 15.25 12C15.25 9.30956 14.8124 6.90837 14.1321 5.20748C13.7911 4.35495 13.4038 3.71536 13.0121 3.30118C12.6219 2.88858 12.2796 2.75 12 2.75ZM15.899 20.3906C19.0592 18.9195 21.25 15.7156 21.25 12C21.25 9.41445 20.1892 7.07667 18.4791 5.39815C18.6059 5.65612 18.7207 5.92024 18.8242 6.18714C19.491 7.90589 19.75 9.87748 19.75 11.5C19.75 14.3519 18.5768 17.7932 15.899 20.3906ZM15.1858 3.88811C16.1676 4.38485 16.9091 5.39768 17.4258 6.72964C18.009 8.23314 18.25 10.0116 18.25 11.5C18.25 13.553 17.5443 15.9851 15.9639 18.0622C16.4635 16.3351 16.75 14.2407 16.75 12C16.75 9.16759 16.2921 6.56878 15.5248 4.65039C15.4188 4.3855 15.3058 4.13073 15.1858 3.88811ZM8.10104 3.60944C4.94075 5.08047 2.75 8.28439 2.75 12C2.75 14.5855 3.81081 16.9233 5.52095 18.6019C5.39408 18.3439 5.27931 18.0798 5.17577 17.8129C4.50902 16.0941 4.25 14.1225 4.25 12.5C4.25 9.64812 5.42324 6.2068 8.10104 3.60944Z" fill="black"/>
</g>
</g>
</g>
<defs>
<clipPath id="clip0_232_5533">
<rect width="24" height="24" rx="5" fill="white"/>
</clipPath>
</defs>
</svg>
