<svg width="24" height="24" viewBox="0 0 24 24" fill="none" xmlns="http://www.w3.org/2000/svg">
<g id="position">
<g clip-path="url(#clip0_232_10040)">
<g id="Weight=Dynamic">
<path id="Vector (Stroke)" fill-rule="evenodd" clip-rule="evenodd" d="M12 2.25C12.4142 2.25 12.75 2.58579 12.75 3V4.28582C16.4315 4.63935 19.3607 7.5685 19.7142 11.25H21C21.4142 11.25 21.75 11.5858 21.75 12C21.75 12.4142 21.4142 12.75 21 12.75H19.7142C19.3607 16.4315 16.4315 19.3607 12.75 19.7142V21C12.75 21.4142 12.4142 21.75 12 21.75C11.5858 21.75 11.25 21.4142 11.25 21V19.7142C7.5685 19.3607 4.63935 16.4315 4.28582 12.75H3C2.58579 12.75 2.25 12.4142 2.25 12C2.25 11.5858 2.58579 11.25 3 11.25H4.28582C4.63935 7.5685 7.5685 4.63935 11.25 4.28582V3C11.25 2.58579 11.5858 2.25 12 2.25ZM12 5.75C8.54822 5.75 5.75 8.54822 5.75 12C5.75 15.4518 8.54822 18.25 12 18.25C15.4518 18.25 18.25 15.4518 18.25 12C18.25 8.54822 15.4518 5.75 12 5.75Z" fill="black"/>
</g>
</g>
</g>
<defs>
<clipPath id="clip0_232_10040">
<rect width="24" height="24" rx="5" fill="white"/>
</clipPath>
</defs>
</svg>
