<svg width="24" height="24" viewBox="0 0 24 24" fill="none" xmlns="http://www.w3.org/2000/svg">
<g id="post">
<g clip-path="url(#clip0_232_14249)">
<g id="Weight=Dynamic">
<path id="Vector (Stroke)" fill-rule="evenodd" clip-rule="evenodd" d="M7.52408 2.83366C6.84422 2.71378 6.19589 3.16774 6.07601 3.84761L3.64494 17.6349C3.52506 18.3148 3.97902 18.9631 4.65889 19.083L16.4766 21.1668C17.1564 21.2866 17.8048 20.8327 17.9247 20.1528L20.3557 6.36551C20.4756 5.68564 20.0216 5.03732 19.3418 4.91744L7.52408 2.83366ZM4.5988 3.58714C4.86253 2.09143 6.28885 1.09271 7.78456 1.35645L19.6022 3.44023C21.098 3.70396 22.0967 5.13027 21.8329 6.62598L19.4019 20.4133C19.1381 21.909 17.7118 22.9077 16.2161 22.644L4.39842 20.5602C2.90271 20.2965 1.90399 18.8702 2.16773 17.3744L4.5988 3.58714ZM8.19074 6.25134C8.26266 5.84342 8.65166 5.57105 9.05958 5.64297L16.938 7.03216C17.346 7.10409 17.6183 7.49308 17.5464 7.901C17.4745 8.30892 17.0855 8.5813 16.6776 8.50937L8.79911 7.12019C8.39118 7.04826 8.11881 6.65927 8.19074 6.25134ZM7.49614 10.1906C7.56807 9.78265 7.95706 9.51028 8.36499 9.58221L16.2434 10.9714C16.6514 11.0433 16.9237 11.4323 16.8518 11.8402C16.7799 12.2482 16.3909 12.5205 15.983 12.4486L8.10451 11.0594C7.69659 10.9875 7.42422 10.5985 7.49614 10.1906ZM6.80155 14.1298C6.87348 13.7219 7.26247 13.4495 7.67039 13.5214L12.5944 14.3897C13.0024 14.4616 13.2747 14.8506 13.2028 15.2585C13.1309 15.6664 12.7419 15.9388 12.334 15.8669L7.40992 14.9986C7.002 14.9267 6.72962 14.5377 6.80155 14.1298Z" fill="black"/>
</g>
</g>
</g>
<defs>
<clipPath id="clip0_232_14249">
<rect width="24" height="24" rx="5" fill="white"/>
</clipPath>
</defs>
</svg>
