<svg width="24" height="24" viewBox="0 0 24 24" fill="none" xmlns="http://www.w3.org/2000/svg">
<g id="potion">
<g clip-path="url(#clip0_232_8245)">
<g id="Weight=Dynamic">
<path id="Vector (Stroke)" fill-rule="evenodd" clip-rule="evenodd" d="M8.25001 2C8.25001 1.58579 8.58579 1.25 9.00001 1.25H15C15.4142 1.25 15.75 1.58579 15.75 2C15.75 2.41421 15.4142 2.75 15 2.75H9.00001C8.58579 2.75 8.25001 2.41421 8.25001 2ZM9.46981 3.46969C9.61047 3.32904 9.80123 3.25002 10.0001 3.25002L14.0001 3.25003C14.4144 3.25003 14.7501 3.58582 14.7501 4.00003V6.47273C19.3113 8.23304 21.061 12.2584 20.8668 15.8232C20.7697 17.607 20.1862 19.3143 19.1908 20.5933C18.1878 21.8819 16.7487 22.7501 15.0002 22.7501L9.00015 22.75C7.25159 22.75 5.81246 21.8819 4.80953 20.5933C3.81409 19.3143 3.23063 17.607 3.13346 15.8232C2.93927 12.2585 4.68901 8.23304 9.25014 6.47272V4.00002C9.25014 3.80111 9.32916 3.61034 9.46981 3.46969ZM10.7501 4.75002V6.56779C10.7501 7.16269 10.3624 7.65548 9.85301 7.84813C8.89177 8.21171 8.07754 8.6901 7.3986 9.25H16.6017C15.9227 8.6901 15.1085 8.21172 14.1473 7.84814C13.6379 7.65548 13.2501 7.16269 13.2501 6.56779V4.75003L10.7501 4.75002ZM17.9892 10.75H6.01112C4.95431 12.2632 4.53936 14.0549 4.63124 15.7416C4.7144 17.2682 5.2132 18.6697 5.99325 19.672C6.76582 20.6646 7.79542 21.25 9.00014 21.25L15.0002 21.2501C16.2049 21.2501 17.2345 20.6646 18.007 19.672C18.7871 18.6697 19.2859 17.2682 19.3691 15.7416C19.4609 14.0549 19.046 12.2632 17.9892 10.75ZM12.0309 12.3444C12.393 12.5455 12.5235 13.0021 12.3223 13.3642L11.2746 15.25H14C14.2657 15.25 14.5116 15.3906 14.6464 15.6197C14.7812 15.8487 14.7847 16.1319 14.6556 16.3642L12.989 19.3642C12.7878 19.7263 12.3312 19.8568 11.9691 19.6556C11.607 19.4545 11.4766 18.9979 11.6777 18.6358L12.7254 16.75H10C9.73427 16.75 9.48837 16.6094 9.3536 16.3803C9.21884 16.1513 9.21534 15.8681 9.34439 15.6358L11.0111 12.6358C11.2122 12.2737 11.6688 12.1432 12.0309 12.3444Z" fill="black"/>
</g>
</g>
</g>
<defs>
<clipPath id="clip0_232_8245">
<rect width="24" height="24" rx="5" fill="white"/>
</clipPath>
</defs>
</svg>
