<svg width="24" height="24" viewBox="0 0 24 24" fill="none" xmlns="http://www.w3.org/2000/svg">
<g id="pound">
<g clip-path="url(#clip0_232_7484)">
<g id="Weight=Dynamic">
<path id="Vector (Stroke)" fill-rule="evenodd" clip-rule="evenodd" d="M12.3335 4.75C9.95714 4.75 8.0835 6.59181 8.0835 8.8C8.0835 11.0082 9.95714 12.85 12.3335 12.85C12.3376 12.85 12.3416 12.85 12.3457 12.8501H15.1111C15.5253 12.8501 15.8611 13.1859 15.8611 13.6001C15.8611 14.0143 15.5253 14.3501 15.1111 14.3501H11.161C10.3814 16.1189 9.32917 17.9293 7.9773 19.2501H16.2196L16.2254 19.25C16.2324 19.2499 16.2452 19.2495 16.2631 19.2487C16.2991 19.2472 16.3555 19.2438 16.4282 19.2369C16.5743 19.2228 16.7819 19.1944 17.0193 19.1375C17.5036 19.0212 18.0565 18.7994 18.4804 18.3924C18.7792 18.1055 19.254 18.1152 19.5409 18.414C19.8277 18.7128 19.818 19.1876 19.5192 19.4745C18.8321 20.1342 17.996 20.4456 17.3693 20.5961C17.0511 20.6724 16.7726 20.7107 16.5715 20.73C16.4706 20.7397 16.3881 20.7447 16.3285 20.7473C16.2987 20.7486 16.2746 20.7493 16.2567 20.7497L16.2345 20.75L16.2271 20.7501L16.2231 20.7501C16.2228 20.7501 16.2221 20.7501 16.2221 20.0089V20.7501H5.6665C5.31641 20.7501 5.01289 20.5079 4.9352 20.1665C4.85752 19.8252 5.02634 19.4755 5.34196 19.324C7.03774 18.51 8.44849 16.572 9.51067 14.3501H4C3.58579 14.3501 3.25 14.0143 3.25 13.6001C3.25 13.1859 3.58579 12.8501 4 12.8501H8.4021C7.28596 11.842 6.5835 10.407 6.5835 8.8C6.5835 5.70626 9.18701 3.25 12.3335 3.25C15.48 3.25 18.0835 5.70626 18.0835 8.8C18.0835 9.21421 17.7477 9.55 17.3335 9.55C16.9193 9.55 16.5835 9.21421 16.5835 8.8C16.5835 6.59181 14.7099 4.75 12.3335 4.75Z" fill="black"/>
</g>
</g>
</g>
<defs>
<clipPath id="clip0_232_7484">
<rect width="24" height="24" rx="5" fill="white"/>
</clipPath>
</defs>
</svg>
