<svg width="24" height="24" viewBox="0 0 24 24" fill="none" xmlns="http://www.w3.org/2000/svg">
<g id="precision-tool">
<g clip-path="url(#clip0_232_5044)">
<g id="Weight=Dynamic">
<path id="Vector (Stroke)" fill-rule="evenodd" clip-rule="evenodd" d="M12 2.75C6.89137 2.75 2.75 6.89137 2.75 12C2.75 17.1086 6.89137 21.25 12 21.25C17.1086 21.25 21.25 17.1086 21.25 12C21.25 6.89137 17.1086 2.75 12 2.75ZM1.25 12C1.25 6.06294 6.06294 1.25 12 1.25C17.9371 1.25 22.75 6.06294 22.75 12C22.75 17.9371 17.9371 22.75 12 22.75C6.06294 22.75 1.25 17.9371 1.25 12ZM12 5.25C12.4142 5.25 12.75 5.58579 12.75 6V8C12.75 8.41421 12.4142 8.75 12 8.75C11.5858 8.75 11.25 8.41421 11.25 8V6C11.25 5.58579 11.5858 5.25 12 5.25ZM5.25 12C5.25 11.5858 5.58579 11.25 6 11.25H8C8.41421 11.25 8.75 11.5858 8.75 12C8.75 12.4142 8.41421 12.75 8 12.75H6C5.58579 12.75 5.25 12.4142 5.25 12ZM15.25 12C15.25 11.5858 15.5858 11.25 16 11.25H18C18.4142 11.25 18.75 11.5858 18.75 12C18.75 12.4142 18.4142 12.75 18 12.75H16C15.5858 12.75 15.25 12.4142 15.25 12ZM12 15.25C12.4142 15.25 12.75 15.5858 12.75 16V18C12.75 18.4142 12.4142 18.75 12 18.75C11.5858 18.75 11.25 18.4142 11.25 18V16C11.25 15.5858 11.5858 15.25 12 15.25Z" fill="black"/>
</g>
</g>
</g>
<defs>
<clipPath id="clip0_232_5044">
<rect width="24" height="24" rx="5" fill="white"/>
</clipPath>
</defs>
</svg>
