<svg width="24" height="24" viewBox="0 0 24 24" fill="none" xmlns="http://www.w3.org/2000/svg">
<g id="presentation">
<g clip-path="url(#clip0_232_17222)">
<g id="Weight=Dynamic">
<path id="Vector (Stroke)" fill-rule="evenodd" clip-rule="evenodd" d="M12 1.25C12.4142 1.25 12.75 1.58579 12.75 2V3.25H21.4C22.1456 3.25 22.75 3.85442 22.75 4.6V17.4C22.75 18.1456 22.1456 18.75 21.4 18.75H13.8107L16.0303 20.9697C16.3232 21.2626 16.3232 21.7374 16.0303 22.0303C15.7374 22.3232 15.2626 22.3232 14.9697 22.0303L12 19.0607L9.03033 22.0303C8.73744 22.3232 8.26256 22.3232 7.96967 22.0303C7.67678 21.7374 7.67678 21.2626 7.96967 20.9697L10.1893 18.75H2.6C1.85442 18.75 1.25 18.1456 1.25 17.4V4.6C1.25 3.85442 1.85442 3.25 2.6 3.25H11.25V2C11.25 1.58579 11.5858 1.25 12 1.25ZM2.75 4.75V17.25H21.25V4.75H2.75ZM15 7.25C15.4142 7.25 15.75 7.58579 15.75 8V14C15.75 14.4142 15.4142 14.75 15 14.75C14.5858 14.75 14.25 14.4142 14.25 14V8C14.25 7.58579 14.5858 7.25 15 7.25ZM12 9.25C12.4142 9.25 12.75 9.58579 12.75 10V14C12.75 14.4142 12.4142 14.75 12 14.75C11.5858 14.75 11.25 14.4142 11.25 14V10C11.25 9.58579 11.5858 9.25 12 9.25ZM9 11.25C9.41421 11.25 9.75 11.5858 9.75 12V14C9.75 14.4142 9.41421 14.75 9 14.75C8.58579 14.75 8.25 14.4142 8.25 14V12C8.25 11.5858 8.58579 11.25 9 11.25Z" fill="black"/>
</g>
</g>
</g>
<defs>
<clipPath id="clip0_232_17222">
<rect width="24" height="24" rx="5" fill="white"/>
</clipPath>
</defs>
</svg>
