<svg width="24" height="24" viewBox="0 0 24 24" fill="none" xmlns="http://www.w3.org/2000/svg">
<g id="printing-page">
<g clip-path="url(#clip0_232_5983)">
<g id="Weight=Dynamic">
<path id="Vector (Stroke)" fill-rule="evenodd" clip-rule="evenodd" d="M8.75 3.75V6.25H15.25V3.75H8.75ZM16.75 6.25V3.6C16.75 2.85442 16.1456 2.25 15.4 2.25H8.6C7.85442 2.25 7.25 2.85442 7.25 3.6V6.25H7C4.37665 6.25 2.25 8.37665 2.25 11V17.4C2.25 18.1456 2.85441 18.75 3.6 18.75H5.56385L5.35548 20.2091C5.35548 20.2091 5.35547 20.2091 5.35547 20.2091C5.23931 21.0224 5.87038 21.75 6.69191 21.75H17.3083C18.1298 21.75 18.7609 21.0224 18.6447 20.2091L18.6447 20.209L18.4362 18.75H20.4C21.1456 18.75 21.75 18.1456 21.75 17.4V11C21.75 8.37665 19.6234 6.25 17 6.25H16.75ZM18.2219 17.25L17.8162 14.4091L17.8162 14.4091C17.7211 13.744 17.1516 13.25 16.4797 13.25H7.52048C6.84866 13.25 6.27907 13.744 6.18405 14.4091C6.18405 14.4091 6.18405 14.4091 6.18405 14.4091L5.77812 17.25H3.75V11C3.75 9.20507 5.20507 7.75 7 7.75H17C18.7949 7.75 20.25 9.20507 20.25 11V17.25H18.2219ZM7.17103 18.1061L6.86485 20.25H17.1353L16.829 18.1061L16.829 18.106L16.3496 14.75H7.65057L7.17104 18.106L7.17103 18.1061ZM6.84041 20.4212L6.84043 20.421L6.84041 20.4212ZM17.5117 9.44142C17.8196 9.71852 17.8446 10.1927 17.5675 10.5006L17.5575 10.5117C17.2804 10.8196 16.8062 10.8446 16.4983 10.5675C16.1904 10.2904 16.1654 9.81616 16.4425 9.50827L16.4525 9.49716C16.7296 9.18928 17.2038 9.16433 17.5117 9.44142Z" fill="black"/>
</g>
</g>
</g>
<defs>
<clipPath id="clip0_232_5983">
<rect width="24" height="24" rx="5" fill="white"/>
</clipPath>
</defs>
</svg>
