<svg width="24" height="24" viewBox="0 0 24 24" fill="none" xmlns="http://www.w3.org/2000/svg">
<g id="printer">
<g clip-path="url(#clip0_232_5749)">
<g id="Weight=Dynamic">
<path id="Vector (Stroke)" fill-rule="evenodd" clip-rule="evenodd" d="M6.75 3.75V9.25647C6.83279 9.25217 6.91614 9.25 7 9.25H17C17.0839 9.25 17.1672 9.25217 17.25 9.25647V3.75H6.75ZM18.75 9.58276V3.6C18.75 2.85442 18.1456 2.25 17.4 2.25H6.6C5.85442 2.25 5.25 2.85442 5.25 3.6V9.58276C3.49269 10.2795 2.25 11.9946 2.25 14V20.4C2.25 21.1456 2.85442 21.75 3.6 21.75H20.4C21.1456 21.75 21.75 21.1456 21.75 20.4V14C21.75 11.9946 20.5073 10.2795 18.75 9.58276ZM7 10.75C5.20507 10.75 3.75 12.2051 3.75 14V20.25H20.25V14C20.25 12.2051 18.7949 10.75 17 10.75H7ZM17.5117 12.4414C17.8196 12.7185 17.8446 13.1927 17.5675 13.5006L17.5575 13.5117C17.2804 13.8196 16.8062 13.8446 16.4983 13.5675C16.1904 13.2904 16.1654 12.8162 16.4425 12.5083L16.4525 12.4972C16.7296 12.1893 17.2038 12.1643 17.5117 12.4414ZM6.25 17C6.25 16.5858 6.58579 16.25 7 16.25H17C17.4142 16.25 17.75 16.5858 17.75 17C17.75 17.4142 17.4142 17.75 17 17.75H7C6.58579 17.75 6.25 17.4142 6.25 17Z" fill="black"/>
</g>
</g>
</g>
<defs>
<clipPath id="clip0_232_5749">
<rect width="24" height="24" rx="5" fill="white"/>
</clipPath>
</defs>
</svg>
