<svg width="24" height="24" viewBox="0 0 24 24" fill="none" xmlns="http://www.w3.org/2000/svg">
<g id="priority-down">
<g clip-path="url(#clip0_232_17121)">
<g id="Weight=Dynamic" clip-path="url(#clip1_232_17121)">
<path id="Vector (Stroke)" fill-rule="evenodd" clip-rule="evenodd" d="M11.0454 0.396871C11.5726 -0.130336 12.4274 -0.130338 12.9546 0.39687L23.1061 10.5483C23.6333 11.0755 23.6333 11.9303 23.1061 12.4575L12.9546 22.609C12.4274 23.1362 11.5726 23.1362 11.0454 22.609L0.893941 12.4575C0.366734 11.9303 0.366732 11.0756 0.893941 10.5483L11.0454 0.396871ZM12 1.5636L2.06067 11.5029L12 21.4423L21.9393 11.5029L12 1.5636ZM12 5.75294C12.4142 5.75294 12.75 6.08872 12.75 6.50294V13.6923L15.4697 10.9726C15.7626 10.6797 16.2374 10.6797 16.5303 10.9726C16.8232 11.2655 16.8232 11.7404 16.5303 12.0333L12.5303 16.0333C12.3878 16.1758 12.1939 16.255 11.9924 16.2529C11.7908 16.2508 11.5986 16.1677 11.459 16.0223L7.45897 11.8557C7.17211 11.5569 7.1818 11.0821 7.48061 10.7952C7.77942 10.5084 8.25419 10.5181 8.54105 10.8169L11.25 13.6387V6.50294C11.25 6.08872 11.5858 5.75294 12 5.75294Z" fill="black"/>
</g>
</g>
</g>
<defs>
<clipPath id="clip0_232_17121">
<rect width="24" height="24" rx="5" fill="white"/>
</clipPath>
<clipPath id="clip1_232_17121">
<rect width="24" height="24" fill="white"/>
</clipPath>
</defs>
</svg>
