<svg width="24" height="24" viewBox="0 0 24 24" fill="none" xmlns="http://www.w3.org/2000/svg">
<g id="priority-up">
<g clip-path="url(#clip0_232_16945)">
<g id="Weight=Dynamic" clip-path="url(#clip1_232_16945)">
<path id="Vector (Stroke)" fill-rule="evenodd" clip-rule="evenodd" d="M11.0454 0.893941C11.5726 0.366734 12.4274 0.366732 12.9546 0.893941L23.1061 11.0454C23.6333 11.5726 23.6333 12.4274 23.1061 12.9546L12.9546 23.1061C12.4274 23.6333 11.5726 23.6333 11.0454 23.1061L0.893941 12.9546C0.366734 12.4274 0.366732 11.5726 0.893941 11.0454L11.0454 0.893941ZM12 2.06067L2.06067 12L12 21.9393L21.9393 12L12 2.06067ZM11.9924 6.25005C12.1939 6.24799 12.3878 6.32715 12.5303 6.46968L16.5303 10.4697C16.8232 10.7626 16.8232 11.2374 16.5303 11.5303C16.2374 11.8232 15.7626 11.8232 15.4697 11.5303L12.75 8.81067V16C12.75 16.4142 12.4142 16.75 12 16.75C11.5858 16.75 11.25 16.4142 11.25 16V8.86424L8.54105 11.6861C8.25419 11.9849 7.77942 11.9946 7.48061 11.7077C7.1818 11.4209 7.17211 10.9461 7.45897 10.6473L11.459 6.48061C11.5986 6.3352 11.7908 6.2521 11.9924 6.25005Z" fill="black"/>
</g>
</g>
</g>
<defs>
<clipPath id="clip0_232_16945">
<rect width="24" height="24" rx="5" fill="white"/>
</clipPath>
<clipPath id="clip1_232_16945">
<rect width="24" height="24" fill="white"/>
</clipPath>
</defs>
</svg>
