<svg width="24" height="24" viewBox="0 0 24 24" fill="none" xmlns="http://www.w3.org/2000/svg">
<g id="priority-high">
<g clip-path="url(#clip0_232_16857)">
<g id="Weight=Dynamic" clip-path="url(#clip1_232_16857)">
<path id="Vector (Stroke)" fill-rule="evenodd" clip-rule="evenodd" d="M11.0454 0.893941C11.5726 0.366734 12.4274 0.366732 12.9546 0.893941L23.1061 11.0454C23.6333 11.5726 23.6333 12.4274 23.1061 12.9546L12.9546 23.1061C12.4274 23.6333 11.5726 23.6333 11.0454 23.1061L0.893941 12.9546C0.366734 12.4274 0.366732 11.5726 0.893941 11.0454L11.0454 0.893941ZM12 2.06067L2.06067 12L12 21.9393L21.9393 12L12 2.06067ZM12 7.25001C12.4142 7.25001 12.75 7.58579 12.75 8.00001V12C12.75 12.4142 12.4142 12.75 12 12.75C11.5858 12.75 11.25 12.4142 11.25 12V8.00001C11.25 7.58579 11.5858 7.25001 12 7.25001ZM12.5117 15.4414C12.8196 15.7185 12.8446 16.1927 12.5675 16.5006L12.5575 16.5117C12.2804 16.8196 11.8062 16.8446 11.4983 16.5675C11.1904 16.2904 11.1654 15.8162 11.4425 15.5083L11.4525 15.4972C11.7296 15.1893 12.2039 15.1643 12.5117 15.4414Z" fill="black"/>
</g>
</g>
</g>
<defs>
<clipPath id="clip0_232_16857">
<rect width="24" height="24" rx="5" fill="white"/>
</clipPath>
<clipPath id="clip1_232_16857">
<rect width="24" height="24" fill="white"/>
</clipPath>
</defs>
</svg>
