<svg width="24" height="24" viewBox="0 0 24 24" fill="none" xmlns="http://www.w3.org/2000/svg">
<g id="priority-medium">
<g clip-path="url(#clip0_232_17028)">
<g id="Weight=Dynamic" clip-path="url(#clip1_232_17028)">
<path id="Vector (Stroke)" fill-rule="evenodd" clip-rule="evenodd" d="M11.0454 0.893941C11.5726 0.366734 12.4274 0.366732 12.9546 0.893941L23.1061 11.0454C23.6333 11.5726 23.6333 12.4274 23.1061 12.9546L12.9546 23.1061C12.4274 23.6333 11.5726 23.6333 11.0454 23.1061L0.893941 12.9546C0.366734 12.4274 0.366732 11.5726 0.893941 11.0454L11.0454 0.893941ZM12 2.06067L2.06067 12L12 21.9393L21.9393 12L12 2.06067ZM5.25001 12C5.25001 11.5858 5.58579 11.25 6.00001 11.25H10C10.4142 11.25 10.75 11.5858 10.75 12C10.75 12.4142 10.4142 12.75 10 12.75H6.00001C5.58579 12.75 5.25001 12.4142 5.25001 12ZM13.25 12C13.25 11.5858 13.5858 11.25 14 11.25H18C18.4142 11.25 18.75 11.5858 18.75 12C18.75 12.4142 18.4142 12.75 18 12.75H14C13.5858 12.75 13.25 12.4142 13.25 12Z" fill="black"/>
</g>
</g>
</g>
<defs>
<clipPath id="clip0_232_17028">
<rect width="24" height="24" rx="5" fill="white"/>
</clipPath>
<clipPath id="clip1_232_17028">
<rect width="24" height="24" fill="white"/>
</clipPath>
</defs>
</svg>
