<svg width="24" height="24" viewBox="0 0 24 24" fill="none" xmlns="http://www.w3.org/2000/svg">
<g id="private-wifi">
<g clip-path="url(#clip0_232_3796)">
<g id="Weight=Dynamic">
<path id="Vector (Stroke)" fill-rule="evenodd" clip-rule="evenodd" d="M21.55 7.6C15.8167 3.3 8.18338 3.3 2.45004 7.6C2.11867 7.84853 1.64857 7.78137 1.40004 7.45C1.15152 7.11863 1.21867 6.64853 1.55004 6.4C7.81671 1.7 16.1834 1.7 22.45 6.4C22.7814 6.64853 22.8486 7.11863 22.6 7.45C22.3515 7.78137 21.8814 7.84853 21.55 7.6ZM18.55 11.6C14.8167 8.8 9.18338 8.8 5.45004 11.6C5.11867 11.8485 4.64857 11.7814 4.40004 11.45C4.15152 11.1186 4.21867 10.6485 4.55004 10.4C8.81671 7.2 15.1834 7.2 19.45 10.4C19.7814 10.6485 19.8486 11.1186 19.6 11.45C19.3515 11.7814 18.8814 11.8485 18.55 11.6ZM15.1039 15.1366C13.0963 13.8873 10.9042 13.8875 8.89622 15.1367C8.54451 15.3555 8.08202 15.2477 7.86322 14.896C7.64442 14.5443 7.75216 14.0818 8.10387 13.863C10.5968 12.3122 13.4034 12.3117 15.8964 13.8631C16.2481 14.0819 16.3558 14.5445 16.1369 14.8961C15.9181 15.2478 15.4555 15.3555 15.1039 15.1366ZM17.5482 15.2321C17.9305 14.6745 18.5732 14.25 19.5 14.25C20.4269 14.25 21.0695 14.6745 21.4519 15.2321C21.807 15.75 21.9167 16.3455 21.9167 16.75V17.8524C22.4059 18.0552 22.75 18.5374 22.75 19.1V21.4C22.75 22.1456 22.1456 22.75 21.4 22.75H17.6C16.8545 22.75 16.25 22.1456 16.25 21.4V19.1C16.25 18.5374 16.5942 18.0552 17.0834 17.8524V16.75C17.0834 16.3455 17.1931 15.75 17.5482 15.2321ZM18.5834 17.75H20.4167V16.75C20.4167 16.5712 20.3597 16.2917 20.2148 16.0804C20.0972 15.9089 19.9065 15.75 19.5 15.75C19.0936 15.75 18.9029 15.9089 18.7853 16.0804C18.6404 16.2917 18.5834 16.5712 18.5834 16.75V17.75ZM12.5118 17.9414C12.8197 18.2185 12.8446 18.6927 12.5675 19.0006L12.5575 19.0117C12.2804 19.3196 11.8062 19.3446 11.4983 19.0675C11.1904 18.7904 11.1655 18.3162 11.4426 18.0083L11.4526 17.9972C11.7297 17.6893 12.2039 17.6643 12.5118 17.9414ZM17.75 19.25V21.25H21.25V19.25H17.75Z" fill="black"/>
</g>
</g>
</g>
<defs>
<clipPath id="clip0_232_3796">
<rect width="24" height="24" rx="5" fill="white"/>
</clipPath>
</defs>
</svg>
