<svg width="24" height="24" viewBox="0 0 24 24" fill="none" xmlns="http://www.w3.org/2000/svg">
<g id="privacy-policy">
<g clip-path="url(#clip0_232_6231)">
<g id="Weight=Dynamic">
<path id="Vector (Stroke)" fill-rule="evenodd" clip-rule="evenodd" d="M4.75 2.75V21.25H13C13.4142 21.25 13.75 21.5858 13.75 22C13.75 22.4142 13.4142 22.75 13 22.75H4.6C3.85442 22.75 3.25 22.1456 3.25 21.4V2.6C3.25 1.85441 3.85442 1.25 4.6 1.25H16.2515C16.6095 1.25 16.9529 1.39223 17.2061 1.64541L20.3546 4.79393C20.6078 5.04711 20.75 5.39049 20.75 5.74853V12C20.75 12.4142 20.4142 12.75 20 12.75C19.5858 12.75 19.25 12.4142 19.25 12V6.75H16.6C15.8544 6.75 15.25 6.14559 15.25 5.4V2.75H4.75ZM16.75 3.31066V5.25H18.6893L16.75 3.31066ZM7.25 6C7.25 5.58579 7.58579 5.25 8 5.25H12C12.4142 5.25 12.75 5.58579 12.75 6C12.75 6.41421 12.4142 6.75 12 6.75H8C7.58579 6.75 7.25 6.41421 7.25 6ZM7.25 10C7.25 9.58579 7.58579 9.25 8 9.25H16C16.4142 9.25 16.75 9.58579 16.75 10C16.75 10.4142 16.4142 10.75 16 10.75H8C7.58579 10.75 7.25 10.4142 7.25 10ZM7.25 14C7.25 13.5858 7.58579 13.25 8 13.25H11C11.4142 13.25 11.75 13.5858 11.75 14C11.75 14.4142 11.4142 14.75 11 14.75H8C7.58579 14.75 7.25 14.4142 7.25 14ZM18.8231 14.3981C19.2673 14.2853 19.7327 14.2853 20.1769 14.3981L22.7323 15.0471C23.3289 15.1986 23.7617 15.744 23.7428 16.38C23.6524 19.4119 22.7258 21.2507 21.7381 22.3416C21.2497 22.881 20.7609 23.2211 20.3833 23.4289C20.1947 23.5327 20.034 23.6035 19.9147 23.6498C19.855 23.673 19.8056 23.6902 19.7681 23.7023C19.7494 23.7083 19.7336 23.7132 19.721 23.7169L19.7045 23.7216L19.6981 23.7234L19.6953 23.7241L19.6941 23.7245C19.6935 23.7246 19.6929 23.7248 19.5 23C19.3071 23.7248 19.3065 23.7246 19.3059 23.7245L19.3047 23.7241L19.3019 23.7234L19.2955 23.7216L19.279 23.7169C19.2664 23.7132 19.2506 23.7083 19.2319 23.7023C19.1944 23.6902 19.145 23.673 19.0853 23.6498C18.966 23.6035 18.8053 23.5327 18.6167 23.4289C18.2391 23.2211 17.7503 22.881 17.2619 22.3416C16.2742 21.2507 15.3476 19.4119 15.2572 16.38C15.2383 15.744 15.6711 15.1986 16.2677 15.0471L18.8231 14.3981ZM19.5 23L19.3071 23.7248C19.4335 23.7584 19.5665 23.7584 19.6929 23.7248L19.5 23ZM19.5 22.1964C19.5468 22.1745 19.6006 22.1476 19.66 22.1148C19.9106 21.9769 20.2628 21.7361 20.6262 21.3348C21.3304 20.5571 22.1351 19.1105 22.2388 16.4694L19.8077 15.852C19.6058 15.8007 19.3942 15.8007 19.1923 15.852L16.7612 16.4694C16.8649 19.1105 17.6696 20.5571 18.3738 21.3348C18.7372 21.7361 19.0894 21.9769 19.34 22.1148C19.3994 22.1476 19.4532 22.1745 19.5 22.1964Z" fill="black"/>
</g>
</g>
</g>
<defs>
<clipPath id="clip0_232_6231">
<rect width="24" height="24" rx="5" fill="white"/>
</clipPath>
</defs>
</svg>
