<svg width="24" height="24" viewBox="0 0 24 24" fill="none" xmlns="http://www.w3.org/2000/svg">
<g id="project-curve-3d">
<g clip-path="url(#clip0_232_979)">
<g id="Weight=Dynamic">
<path id="Vector (Stroke)" fill-rule="evenodd" clip-rule="evenodd" d="M8.25 5C8.25 2.92893 9.92893 1.25 12 1.25C14.0711 1.25 15.75 2.92893 15.75 5V6C15.75 6.41421 15.4142 6.75 15 6.75H9C8.58579 6.75 8.25 6.41421 8.25 6V5ZM12 2.75C10.7574 2.75 9.75 3.75736 9.75 5V5.25H14.25V5C14.25 3.75736 13.2426 2.75 12 2.75ZM7.8721 7.84882C8.23174 8.05433 8.35669 8.51247 8.15118 8.8721L5.57408 13.382C7.29219 12.6695 9.55193 12.25 12 12.25C14.4481 12.25 16.7078 12.6695 18.4259 13.382L15.8488 8.8721C15.6433 8.51247 15.7683 8.05433 16.1279 7.84882C16.4875 7.64331 16.9457 7.76826 17.1512 8.1279L21.1512 15.1279C21.207 15.2255 21.2384 15.3304 21.2474 15.4356C21.5593 15.8999 21.75 16.4254 21.75 17C21.75 17.7963 21.3838 18.4985 20.836 19.074C20.292 19.6457 19.5402 20.1264 18.6686 20.5138C16.9234 21.2894 14.5651 21.75 12 21.75C9.4349 21.75 7.07658 21.2894 5.33143 20.5138C4.45981 20.1264 3.70801 19.6457 3.16397 19.074C2.61625 18.4985 2.25 17.7963 2.25 17C2.25 16.4254 2.44066 15.8999 2.75259 15.4356C2.76159 15.3304 2.79302 15.2255 2.84882 15.1279L6.84882 8.1279C7.05433 7.76826 7.51247 7.64331 7.8721 7.84882ZM4.25056 15.9601C3.88743 16.3416 3.75 16.6918 3.75 17C3.75 17.3082 3.88743 17.6584 4.25056 18.0399C4.61737 18.4254 5.18359 18.8066 5.94064 19.1431C7.45286 19.8152 9.59454 20.25 12 20.25C14.4055 20.25 16.5471 19.8152 18.0594 19.1431C18.8164 18.8066 19.3826 18.4254 19.7494 18.0399C20.1126 17.6584 20.25 17.3082 20.25 17C20.25 16.6918 20.1126 16.3416 19.7494 15.9601C19.3826 15.5746 18.8164 15.1934 18.0594 14.8569C16.5471 14.1848 14.4055 13.75 12 13.75C9.59454 13.75 7.45286 14.1848 5.94064 14.8569C5.18359 15.1934 4.61737 15.5746 4.25056 15.9601Z" fill="black"/>
</g>
</g>
</g>
<defs>
<clipPath id="clip0_232_979">
<rect width="24" height="24" rx="5" fill="white"/>
</clipPath>
</defs>
</svg>
