<svg width="24" height="24" viewBox="0 0 24 24" fill="none" xmlns="http://www.w3.org/2000/svg">
<g id="puzzle">
<g clip-path="url(#clip0_232_5599)">
<g id="Weight=Dynamic">
<path id="Vector (Stroke)" fill-rule="evenodd" clip-rule="evenodd" d="M12 2.75C11.3096 2.75 10.75 3.30964 10.75 4V4.4C10.75 5.14559 10.1456 5.75 9.4 5.75H4.75V9.25H5C6.51878 9.25 7.75 10.4812 7.75 12C7.75 13.5188 6.51878 14.75 5 14.75H4.75V18.25H9.4C10.1456 18.25 10.75 18.8544 10.75 19.6V20C10.75 20.6904 11.3096 21.25 12 21.25C12.6904 21.25 13.25 20.6904 13.25 20V19.6C13.25 18.8544 13.8544 18.25 14.6 18.25H18.25V14.6C18.25 13.8544 18.8544 13.25 19.6 13.25H20C20.6904 13.25 21.25 12.6904 21.25 12C21.25 11.3096 20.6904 10.75 20 10.75H19.6C18.8544 10.75 18.25 10.1456 18.25 9.4V5.75H14.6C13.8544 5.75 13.25 5.14558 13.25 4.4V4C13.25 3.30964 12.6904 2.75 12 2.75ZM9.25 4C9.25 2.48122 10.4812 1.25 12 1.25C13.5188 1.25 14.75 2.48122 14.75 4V4.25H18.4C19.1456 4.25 19.75 4.85442 19.75 5.6V9.25H20C21.5188 9.25 22.75 10.4812 22.75 12C22.75 13.5188 21.5188 14.75 20 14.75H19.75V18.4C19.75 19.1456 19.1456 19.75 18.4 19.75H14.75V20C14.75 21.5188 13.5188 22.75 12 22.75C10.4812 22.75 9.25 21.5188 9.25 20V19.75H4.6C3.85441 19.75 3.25 19.1456 3.25 18.4V14.6C3.25 13.8544 3.85442 13.25 4.6 13.25H5C5.69036 13.25 6.25 12.6904 6.25 12C6.25 11.3096 5.69036 10.75 5 10.75H4.6C3.85442 10.75 3.25 10.1456 3.25 9.4V5.6C3.25 4.85442 3.85442 4.25 4.6 4.25H9.25V4Z" fill="black"/>
</g>
</g>
</g>
<defs>
<clipPath id="clip0_232_5599">
<rect width="24" height="24" rx="5" fill="white"/>
</clipPath>
</defs>
</svg>
