<svg width="24" height="24" viewBox="0 0 24 24" fill="none" xmlns="http://www.w3.org/2000/svg">
<g id="qr-code">
<g clip-path="url(#clip0_232_11700)">
<g id="Weight=Dynamic">
<path id="Vector (Stroke)" fill-rule="evenodd" clip-rule="evenodd" d="M3.75001 3.75V8.25H8.25001V3.75H3.75001ZM2.25001 3.6C2.25001 2.85442 2.85442 2.25 3.60001 2.25H8.40001C9.14559 2.25 9.75001 2.85442 9.75001 3.6V8.4C9.75001 9.14558 9.14559 9.75 8.40001 9.75H3.60001C2.85442 9.75 2.25001 9.14558 2.25001 8.4V3.6ZM12 2.25C12.4142 2.25 12.75 2.58579 12.75 3V6C12.75 6.41421 12.4142 6.75 12 6.75C11.5858 6.75 11.25 6.41421 11.25 6V3C11.25 2.58579 11.5858 2.25 12 2.25ZM15.75 3.75V8.25H20.25V3.75H15.75ZM14.25 3.6C14.25 2.85444 14.8544 2.25 15.6 2.25H20.4C21.1456 2.25 21.75 2.85444 21.75 3.6V8.4C21.75 9.14556 21.1456 9.75 20.4 9.75H15.6C14.8544 9.75 14.25 9.14556 14.25 8.4V3.6ZM6.51177 5.44256C6.81963 5.71968 6.84456 6.1939 6.56744 6.50176L6.55744 6.51287C6.28033 6.82073 5.80611 6.84566 5.49824 6.56855C5.19038 6.29143 5.16545 5.81721 5.44257 5.50935L5.45257 5.49824C5.72969 5.19037 6.2039 5.16545 6.51177 5.44256ZM18.5118 5.44256C18.8196 5.71968 18.8446 6.1939 18.5674 6.50176L18.5574 6.51287C18.2803 6.82073 17.8061 6.84566 17.4982 6.56855C17.1904 6.29143 17.1655 5.81721 17.4426 5.50935L17.4526 5.49824C17.7297 5.19037 18.2039 5.16545 18.5118 5.44256ZM12.5118 8.44255C12.8196 8.71966 12.8446 9.19388 12.5675 9.50175L12.5575 9.51286C12.2803 9.82073 11.8061 9.84567 11.4983 9.56856C11.1904 9.29145 11.1655 8.81723 11.4426 8.50936L11.4526 8.49825C11.7297 8.19038 12.2039 8.16544 12.5118 8.44255ZM3.51201 11.4428C3.81975 11.72 3.84447 12.1943 3.56722 12.502L3.55722 12.5131C3.27997 12.8208 2.80574 12.8456 2.498 12.5683C2.19026 12.2911 2.16554 11.8168 2.44279 11.5091L2.45279 11.498C2.73004 11.1903 3.20427 11.1655 3.51201 11.4428ZM12.512 11.4428C12.8198 11.72 12.8445 12.1943 12.5672 12.502L12.5572 12.5131C12.28 12.8209 11.8057 12.8456 11.498 12.5683C11.1903 12.2911 11.1655 11.8168 11.4428 11.5091L11.4528 11.498C11.73 11.1902 12.2043 11.1655 12.512 11.4428ZM21.512 11.4428C21.8198 11.72 21.8445 12.1943 21.5672 12.502L21.5572 12.5131C21.28 12.8209 20.8057 12.8456 20.498 12.5683C20.1903 12.2911 20.1655 11.8168 20.4428 11.5091L20.4528 11.498C20.73 11.1902 21.2043 11.1655 21.512 11.4428ZM5.25001 12C5.25001 11.5858 5.58579 11.25 6.00001 11.25H9.00001C9.41422 11.25 9.75001 11.5858 9.75001 12C9.75001 12.4142 9.41422 12.75 9.00001 12.75H6.00001C5.58579 12.75 5.25001 12.4142 5.25001 12ZM15 11.25C15.4142 11.25 15.75 11.5858 15.75 12V15C15.75 15.4142 15.4142 15.75 15 15.75C14.5858 15.75 14.25 15.4142 14.25 15V12C14.25 11.5858 14.5858 11.25 15 11.25ZM18 11.25C18.4142 11.25 18.75 11.5858 18.75 12V15C18.75 15.4142 18.4142 15.75 18 15.75C17.5858 15.75 17.25 15.4142 17.25 15V12C17.25 11.5858 17.5858 11.25 18 11.25ZM12.512 14.4428C12.8198 14.72 12.8445 15.1943 12.5672 15.502L12.5572 15.5131C12.28 15.8209 11.8057 15.8456 11.498 15.5683C11.1903 15.2911 11.1655 14.8168 11.4428 14.5091L11.4528 14.498C11.73 14.1902 12.2043 14.1655 12.512 14.4428ZM21.512 14.4428C21.8198 14.72 21.8445 15.1943 21.5672 15.502L21.5572 15.5131C21.28 15.8209 20.8057 15.8456 20.498 15.5683C20.1903 15.2911 20.1655 14.8168 20.4428 14.5091L20.4528 14.498C20.73 14.1902 21.2043 14.1655 21.512 14.4428ZM3.75001 15.75V20.25H8.25001V15.75H3.75001ZM2.25001 15.6C2.25001 14.8544 2.85445 14.25 3.60001 14.25H8.40001C9.14557 14.25 9.75001 14.8544 9.75001 15.6V20.4C9.75001 21.1456 9.14557 21.75 8.40001 21.75H3.60001C2.85445 21.75 2.25001 21.1456 2.25001 20.4V15.6ZM6.51199 17.4428C6.81975 17.72 6.84448 18.1942 6.56724 18.502L6.55724 18.5131C6.28 18.8208 5.80577 18.8456 5.49802 18.5683C5.19027 18.2911 5.16553 17.8169 5.44277 17.5091L5.45277 17.498C5.73001 17.1903 6.20424 17.1655 6.51199 17.4428ZM11.25 18C11.25 17.5858 11.5858 17.25 12 17.25H21C21.4142 17.25 21.75 17.5858 21.75 18C21.75 18.4142 21.4142 18.75 21 18.75H12C11.5858 18.75 11.25 18.4142 11.25 18ZM12.512 20.4428C12.8197 20.72 12.8445 21.1942 12.5672 21.502L12.5572 21.5131C12.28 21.8208 11.8058 21.8456 11.498 21.5683C11.1903 21.2911 11.1655 20.8169 11.4428 20.5091L11.4528 20.498C11.73 20.1903 12.2042 20.1655 12.512 20.4428ZM15.512 20.4428C15.8197 20.72 15.8445 21.1942 15.5672 21.502L15.5572 21.5131C15.28 21.8208 14.8058 21.8456 14.498 21.5683C14.1903 21.2911 14.1655 20.8169 14.4428 20.5091L14.4528 20.498C14.73 20.1903 15.2042 20.1655 15.512 20.4428ZM17.25 21C17.25 20.5858 17.5858 20.25 18 20.25H21C21.4142 20.25 21.75 20.5858 21.75 21C21.75 21.4142 21.4142 21.75 21 21.75H18C17.5858 21.75 17.25 21.4142 17.25 21Z" fill="black"/>
</g>
</g>
</g>
<defs>
<clipPath id="clip0_232_11700">
<rect width="24" height="24" rx="5" fill="white"/>
</clipPath>
</defs>
</svg>
