<svg width="24" height="24" viewBox="0 0 24 24" fill="none" xmlns="http://www.w3.org/2000/svg">
<g id="question-mark">
<g clip-path="url(#clip0_232_1467)">
<g id="Weight=Dynamic">
<path id="Vector (Stroke)" fill-rule="evenodd" clip-rule="evenodd" d="M9.5575 5.96677C9.02553 6.41814 8.65039 7.10239 8.65039 8.07956C8.65039 8.49377 8.3146 8.82956 7.90039 8.82956C7.48618 8.82956 7.15039 8.49377 7.15039 8.07956C7.15039 6.67035 7.71275 5.56482 8.58703 4.823C9.44501 4.09502 10.5622 3.75 11.6504 3.75C12.7385 3.75 13.8558 4.09504 14.7138 4.82302C15.588 5.56483 16.1504 6.67036 16.1504 8.07956C16.1504 9.07271 15.8974 9.81539 15.4918 10.4238C15.1452 10.9437 14.6945 11.3462 14.3167 11.6837C14.2761 11.72 14.2363 11.7555 14.1976 11.7904C13.7768 12.1691 13.4316 12.505 13.1767 12.9553C12.9291 13.3927 12.7413 13.9866 12.7413 14.8976C12.7413 15.3119 12.4055 15.6476 11.9913 15.6476C11.5771 15.6476 11.2413 15.3119 11.2413 14.8976C11.2413 13.7632 11.4797 12.9083 11.8713 12.2164C12.2556 11.5375 12.7627 11.0637 13.1941 10.6754C13.2301 10.6431 13.2654 10.6114 13.2999 10.5804C13.7011 10.2204 14.0086 9.94441 14.2437 9.59178C14.4772 9.24144 14.6504 8.79096 14.6504 8.07956C14.6504 7.1024 14.2753 6.41815 13.7433 5.96678C13.195 5.50157 12.4372 5.25 11.6504 5.25C10.8635 5.25 10.1058 5.50156 9.5575 5.96677ZM12.5117 18.4414C12.8196 18.7185 12.8446 19.1927 12.5675 19.5006L12.5575 19.5117C12.2804 19.8196 11.8062 19.8446 11.4983 19.5675C11.1904 19.2904 11.1654 18.8162 11.4425 18.5083L11.4525 18.4972C11.7296 18.1893 12.2038 18.1643 12.5117 18.4414Z" fill="black"/>
</g>
</g>
</g>
<defs>
<clipPath id="clip0_232_1467">
<rect width="24" height="24" rx="5" fill="white"/>
</clipPath>
</defs>
</svg>
