<svg width="24" height="24" viewBox="0 0 24 24" fill="none" xmlns="http://www.w3.org/2000/svg">
<g id="quote-message">
<g clip-path="url(#clip0_232_3122)">
<g id="Weight=Dynamic">
<path id="Vector (Stroke)" fill-rule="evenodd" clip-rule="evenodd" d="M5 3.75C4.30964 3.75 3.75 4.30964 3.75 5V19.8619L5.81386 17.2821C6.33573 16.6297 7.12584 16.25 7.96125 16.25H19C19.6904 16.25 20.25 15.6904 20.25 15V5C20.25 4.30964 19.6904 3.75 19 3.75H5ZM2.25 5C2.25 3.48122 3.48122 2.25 5 2.25H19C20.5188 2.25 21.75 3.48122 21.75 5V15C21.75 16.5188 20.5188 17.75 19 17.75H7.96125C7.58152 17.75 7.22238 17.9226 6.98516 18.2191L4.65417 21.1329C3.85699 22.1294 2.25 21.5657 2.25 20.2895V5ZM8.5 7.75C8.36193 7.75 8.25 7.86193 8.25 8V9C8.25 9.13807 8.36193 9.25 8.5 9.25H9.75V8C9.75 7.86193 9.63807 7.75 9.5 7.75H8.5ZM9.48099 10.75C9.42305 10.8439 9.35472 10.9437 9.275 11.05C8.93823 11.499 8.47947 11.9599 7.96967 12.4697C7.67678 12.7626 7.67678 13.2374 7.96967 13.5303C8.26256 13.8232 8.73744 13.8232 9.03033 13.5303L9.05191 13.5087C9.53636 13.0243 10.0678 12.4929 10.475 11.95C10.8823 11.4069 11.25 10.7447 11.25 10V8C11.25 7.0335 10.4665 6.25 9.5 6.25H8.5C7.5335 6.25 6.75 7.0335 6.75 8V9C6.75 9.9665 7.5335 10.75 8.5 10.75H9.48099ZM14.5 7.75C14.3619 7.75 14.25 7.86193 14.25 8V9C14.25 9.13807 14.3619 9.25 14.5 9.25H15.75V8C15.75 7.86193 15.6381 7.75 15.5 7.75H14.5ZM15.481 10.75C15.4231 10.8439 15.3547 10.9437 15.275 11.05C14.9382 11.499 14.4795 11.9599 13.9697 12.4697C13.6768 12.7626 13.6768 13.2374 13.9697 13.5303C14.2626 13.8232 14.7374 13.8232 15.0303 13.5303L15.0519 13.5088C15.5364 13.0243 16.0678 12.4929 16.475 11.95C16.8823 11.4069 17.25 10.7447 17.25 10V8C17.25 7.0335 16.4665 6.25 15.5 6.25H14.5C13.5335 6.25 12.75 7.0335 12.75 8V9C12.75 9.9665 13.5335 10.75 14.5 10.75H15.481Z" fill="black"/>
</g>
</g>
</g>
<defs>
<clipPath id="clip0_232_3122">
<rect width="24" height="24" rx="5" fill="white"/>
</clipPath>
</defs>
</svg>
