<svg width="24" height="24" viewBox="0 0 24 24" fill="none" xmlns="http://www.w3.org/2000/svg">
<g id="radiation">
<g clip-path="url(#clip0_232_13696)">
<g id="Weight=Dynamic">
<g id="Vector">
<path fill-rule="evenodd" clip-rule="evenodd" d="M8.07465 20.3776L10.3172 16.8932C10.3541 16.9036 10.3924 16.9141 10.4319 16.9247C10.8393 17.0333 11.4094 17.15 12.0001 17.15C12.5908 17.15 13.1609 17.0333 13.5684 16.9247C13.6079 16.9141 13.6461 16.9036 13.683 16.8932L15.9256 20.3776C14.7346 20.9367 13.4046 21.2493 12.0001 21.2493C10.5956 21.2493 9.26566 20.9367 8.07465 20.3776ZM13.7218 15.3036L13.7179 15.3051L13.6929 15.3146C13.6694 15.3233 13.6328 15.3366 13.585 15.353C13.4891 15.3859 13.3497 15.4306 13.1819 15.4753C12.8393 15.5667 12.4094 15.65 12.0001 15.65C11.5908 15.65 11.1609 15.5667 10.8184 15.4753C10.6505 15.4306 10.5111 15.3859 10.4152 15.353C10.3674 15.3366 10.3308 15.3233 10.3073 15.3146L10.2823 15.3051L10.2787 15.3036C10.2785 15.3036 10.2788 15.3037 10.2787 15.3036C9.94529 15.1707 9.5637 15.2922 9.36943 15.5941L6.36943 20.2556C6.25844 20.428 6.22292 20.6384 6.27112 20.8377C6.31932 21.0371 6.44704 21.208 6.62456 21.3106C8.20651 22.2258 10.0433 22.7493 12.0001 22.7493C13.9569 22.7493 15.7937 22.2258 17.3757 21.3106C17.5532 21.208 17.6809 21.0371 17.7291 20.8377C17.7773 20.6384 17.7418 20.428 17.6308 20.2556L14.6308 15.5941C14.4364 15.2921 14.0553 15.1703 13.7218 15.3036Z" fill="black"/>
<path fill-rule="evenodd" clip-rule="evenodd" d="M21.2147 11.2104L17.0758 11.0106C17.0664 10.9734 17.0564 10.935 17.0458 10.8955C16.9361 10.4883 16.7521 9.9363 16.4568 9.42471C16.1614 8.91311 15.7753 8.47774 15.4775 8.17923C15.4486 8.15029 15.4204 8.12242 15.3929 8.09568L17.2893 4.41134C18.3689 5.16325 19.3046 6.15873 20.0068 7.37507C20.7091 8.59142 21.1034 9.89946 21.2147 11.2104ZM13.9969 8.85691L14.0001 8.85953L14.0208 8.87645C14.0402 8.8924 14.07 8.91743 14.1081 8.95064C14.1845 9.01725 14.2929 9.11564 14.4156 9.23862C14.666 9.48962 14.9531 9.82028 15.1577 10.1747C15.3624 10.5291 15.5052 10.9431 15.5973 11.2855C15.6425 11.4532 15.6735 11.5962 15.693 11.6957C15.7027 11.7453 15.7095 11.7837 15.7136 11.8084L15.7179 11.8348L15.7185 11.8387C15.7185 11.8385 15.7185 11.8389 15.7185 11.8387C15.77 12.1939 16.0661 12.4636 16.4247 12.4809L21.9616 12.7482C22.1664 12.7581 22.3664 12.6837 22.5149 12.5423C22.6635 12.4009 22.7476 12.2048 22.7478 11.9997C22.7493 10.1722 22.2843 8.31971 21.3059 6.62507C20.3275 4.93044 18.9557 3.60148 17.3722 2.68902C17.1945 2.58663 16.9827 2.56147 16.7859 2.6194C16.5892 2.67732 16.4248 2.81328 16.3309 2.99562L13.794 7.92442C13.6296 8.24374 13.7147 8.63475 13.9969 8.85691Z" fill="black"/>
<path fill-rule="evenodd" clip-rule="evenodd" d="M6.70704 4.41168L8.60343 8.09602C8.57593 8.12276 8.54767 8.15063 8.5188 8.17957C8.221 8.47808 7.83491 8.91345 7.53954 9.42505C7.24417 9.93665 7.06017 10.4887 6.95055 10.8959C6.93993 10.9353 6.92992 10.9737 6.92051 11.0109L2.78159 11.2108C2.89293 9.8998 3.28721 8.59176 3.98947 7.37541C4.69173 6.15907 5.62738 5.16359 6.70704 4.41168ZM8.27777 11.8393L8.27841 11.8352L8.2827 11.8087C8.28685 11.784 8.2936 11.7457 8.30331 11.6961C8.32279 11.5966 8.35382 11.4536 8.39898 11.2858C8.49115 10.9435 8.63395 10.5295 8.83858 10.175C9.04321 9.82062 9.33033 9.48996 9.58073 9.23896C9.70341 9.11598 9.81177 9.01759 9.8882 8.95098C9.92629 8.91777 9.95613 8.89274 9.97546 8.87679L9.99619 8.85987L9.99926 8.8574C9.99913 8.85751 9.9994 8.8573 9.99926 8.8574C10.2811 8.63518 10.3666 8.24393 10.2023 7.92476L7.66539 2.99596C7.57153 2.81362 7.4071 2.67766 7.21037 2.61973C7.01364 2.56181 6.80177 2.58697 6.62408 2.68936C5.04061 3.60182 3.66883 4.93078 2.69043 6.62541C1.71203 8.32005 1.24701 10.1725 1.24854 12.0001C1.24871 12.2052 1.33285 12.4012 1.48138 12.5426C1.62991 12.684 1.82987 12.7585 2.03471 12.7486L7.57164 12.4812C7.93036 12.4639 8.22645 12.1947 8.27777 11.8393Z" fill="black"/>
<path fill-rule="evenodd" clip-rule="evenodd" d="M12.0001 10.7493C12.6905 10.7493 13.2501 11.3089 13.2501 11.9993C13.2501 12.6896 12.6905 13.2493 12.0001 13.2493C11.3098 13.2493 10.7501 12.6896 10.7501 11.9993C10.7501 11.3089 11.3098 10.7493 12.0001 10.7493ZM14.7501 11.9993C14.7501 10.4805 13.5189 9.24927 12.0001 9.24927C10.4813 9.24927 9.25011 10.4805 9.25011 11.9993C9.25011 13.518 10.4813 14.7493 12.0001 14.7493C13.5189 14.7493 14.7501 13.518 14.7501 11.9993Z" fill="black"/>
</g>
</g>
</g>
</g>
<defs>
<clipPath id="clip0_232_13696">
<rect width="24" height="24" rx="5" fill="white"/>
</clipPath>
</defs>
</svg>
