<svg width="24" height="24" viewBox="0 0 24 24" fill="none" xmlns="http://www.w3.org/2000/svg">
<g id="radius">
<g clip-path="url(#clip0_232_13802)">
<g id="Weight=Dynamic">
<g id="Vector">
<path d="M12 13C12.5523 13 13 12.5523 13 12C13 11.4477 12.5523 11 12 11C11.4477 11 11 11.4477 11 12C11 12.5523 11.4477 13 12 13Z" fill="black"/>
</g>
<path id="Vector (Stroke)" fill-rule="evenodd" clip-rule="evenodd" d="M1.25 12C1.25 6.06294 6.06294 1.25 12 1.25C17.9371 1.25 22.75 6.06294 22.75 12C22.75 17.9371 17.9371 22.75 12 22.75C6.06294 22.75 1.25 17.9371 1.25 12ZM12 2.75C6.89137 2.75 2.75 6.89137 2.75 12C2.75 17.1086 6.89137 21.25 12 21.25C17.1086 21.25 21.25 17.1086 21.25 12C21.25 6.89137 17.1086 2.75 12 2.75ZM15.4697 8.46967C15.7626 8.17678 16.2374 8.17678 16.5303 8.46967L19.5303 11.4697C19.8232 11.7626 19.8232 12.2374 19.5303 12.5303L16.5303 15.5303C16.2374 15.8232 15.7626 15.8232 15.4697 15.5303C15.1768 15.2374 15.1768 14.7626 15.4697 14.4697L17.1893 12.75H13.5816C13.3007 13.3412 12.6981 13.75 12 13.75C11.0335 13.75 10.25 12.9665 10.25 12C10.25 11.0335 11.0335 10.25 12 10.25C12.6981 10.25 13.3007 10.6588 13.5816 11.25H17.1893L15.4697 9.53033C15.1768 9.23744 15.1768 8.76256 15.4697 8.46967Z" fill="black"/>
</g>
</g>
</g>
<defs>
<clipPath id="clip0_232_13802">
<rect width="24" height="24" rx="5" fill="white"/>
</clipPath>
</defs>
</svg>
