<svg width="24" height="24" viewBox="0 0 24 24" fill="none" xmlns="http://www.w3.org/2000/svg">
<g id="raw-format">
<g clip-path="url(#clip0_232_12480)">
<g id="Weight=Dynamic">
<path id="Vector (Stroke)" fill-rule="evenodd" clip-rule="evenodd" d="M3.25 3.6C3.25 2.85441 3.85442 2.25 4.6 2.25H19.4C20.1456 2.25 20.75 2.85442 20.75 3.6V6C20.75 6.41421 20.4142 6.75 20 6.75C19.5858 6.75 19.25 6.41421 19.25 6V3.75H4.75V6C4.75 6.41421 4.41421 6.75 4 6.75C3.58579 6.75 3.25 6.41421 3.25 6V3.6ZM3.75 9C3.75 8.58579 4.08579 8.25 4.5 8.25H6.9C7.64558 8.25 8.25 8.85442 8.25 9.6V10.5C8.25 11.0763 8.03336 11.6019 7.67708 12C8.03336 12.3981 8.25 12.9237 8.25 13.5V15C8.25 15.4142 7.91421 15.75 7.5 15.75C7.08579 15.75 6.75 15.4142 6.75 15V13.5C6.75 13.0858 6.41421 12.75 6 12.75H5.25V15C5.25 15.4142 4.91421 15.75 4.5 15.75C4.08579 15.75 3.75 15.4142 3.75 15V9ZM5.25 11.25H6C6.41421 11.25 6.75 10.9142 6.75 10.5V9.75H5.25V11.25ZM12 9.75C11.5858 9.75 11.25 10.0858 11.25 10.5V11.25H12.75V10.5C12.75 10.0858 12.4142 9.75 12 9.75ZM12.75 12.75V15C12.75 15.4142 13.0858 15.75 13.5 15.75C13.9142 15.75 14.25 15.4142 14.25 15V10.5C14.25 9.25736 13.2426 8.25 12 8.25C10.7574 8.25 9.75 9.25736 9.75 10.5V15C9.75 15.4142 10.0858 15.75 10.5 15.75C10.9142 15.75 11.25 15.4142 11.25 15V12.75H12.75ZM16.5 8.25C16.9142 8.25 17.25 8.58579 17.25 9V11.8229L17.3292 11.6646C17.4562 11.4105 17.7159 11.25 18 11.25C18.2841 11.25 18.5438 11.4105 18.6708 11.6646L18.75 11.8229V9C18.75 8.58579 19.0858 8.25 19.5 8.25C19.9142 8.25 20.25 8.58579 20.25 9V15C20.25 15.3478 20.0108 15.65 19.6723 15.7299C19.3338 15.8099 18.9847 15.6465 18.8292 15.3354L18 13.6771L17.1708 15.3354C17.0153 15.6465 16.6662 15.8099 16.3277 15.7299C15.9892 15.65 15.75 15.3478 15.75 15V9C15.75 8.58579 16.0858 8.25 16.5 8.25ZM4 17.25C4.41421 17.25 4.75 17.5858 4.75 18V20.25H19.25V18C19.25 17.5858 19.5858 17.25 20 17.25C20.4142 17.25 20.75 17.5858 20.75 18V20.4C20.75 21.1456 20.1456 21.75 19.4 21.75H4.6C3.85442 21.75 3.25 21.1456 3.25 20.4V18C3.25 17.5858 3.58579 17.25 4 17.25Z" fill="black"/>
</g>
</g>
</g>
<defs>
<clipPath id="clip0_232_12480">
<rect width="24" height="24" rx="5" fill="white"/>
</clipPath>
</defs>
</svg>
