<svg width="24" height="24" viewBox="0 0 24 24" fill="none" xmlns="http://www.w3.org/2000/svg">
<g id="receive-pounds">
<g clip-path="url(#clip0_232_7769)">
<g id="Weight=Dynamic">
<path id="Vector (Stroke)" fill-rule="evenodd" clip-rule="evenodd" d="M8 7.75C6.75736 7.75 5.75 8.75736 5.75 10C5.75 11.2426 6.75736 12.25 8 12.25H9.66667C10.0809 12.25 10.4167 12.5858 10.4167 13C10.4167 13.4142 10.0809 13.75 9.66667 13.75H7.49897C7.18586 14.4647 6.80835 15.1762 6.36273 15.8075C6.25616 15.9585 6.14455 16.1065 6.02774 16.25H10.3288L10.3435 16.2495C10.3599 16.2487 10.388 16.247 10.4254 16.2433C10.5009 16.2358 10.61 16.2203 10.7348 16.1891C10.9929 16.1245 11.2667 16.0059 11.4697 15.803C11.7626 15.5101 12.2374 15.5101 12.5303 15.803C12.8232 16.0959 12.8232 16.5708 12.5303 16.8637C12.0666 17.3274 11.5071 17.5421 11.0986 17.6443C10.89 17.6964 10.7074 17.7226 10.5746 17.7359C10.5078 17.7425 10.4526 17.7461 10.4117 17.7479C10.3912 17.7489 10.3742 17.7494 10.361 17.7497L10.3442 17.7499L10.338 17.75L10.3355 17.75L10.3344 17.75C10.3341 17.75 10.3333 17.75 10.3333 17V17.75H4C3.65217 17.75 3.34998 17.5108 3.27006 17.1723C3.19015 16.8338 3.35348 16.4847 3.66459 16.3292C4.18056 16.0712 4.67739 15.594 5.13727 14.9425C5.3934 14.5796 5.62896 14.1757 5.84276 13.75H3C2.58579 13.75 2.25 13.4142 2.25 13C2.25 12.5858 2.58579 12.25 3 12.25H4.99973C4.52896 11.6233 4.25 10.8442 4.25 10C4.25 7.92893 5.92893 6.25 8 6.25C10.0711 6.25 11.75 7.92893 11.75 10C11.75 10.4142 11.4142 10.75 11 10.75C10.5858 10.75 10.25 10.4142 10.25 10C10.25 8.75736 9.24264 7.75 8 7.75ZM17.3594 7.45896C17.6582 7.74582 17.6679 8.22059 17.381 8.5194L14.7597 11.25H21C21.4142 11.25 21.75 11.5858 21.75 12C21.75 12.4142 21.4142 12.75 21 12.75H14.7597L17.381 15.4806C17.6679 15.7794 17.6582 16.2542 17.3594 16.541C17.0606 16.8279 16.5858 16.8182 16.299 16.5194L12.459 12.5194C12.1803 12.2292 12.1803 11.7708 12.459 11.4806L16.299 7.4806C16.5858 7.18179 17.0606 7.1721 17.3594 7.45896Z" fill="black"/>
</g>
</g>
</g>
<defs>
<clipPath id="clip0_232_7769">
<rect width="24" height="24" rx="5" fill="white"/>
</clipPath>
</defs>
</svg>
