<svg width="24" height="24" viewBox="0 0 24 24" fill="none" xmlns="http://www.w3.org/2000/svg">
<g id="receive-euros">
<g clip-path="url(#clip0_232_7745)">
<g id="Weight=Dynamic">
<path id="Vector (Stroke)" fill-rule="evenodd" clip-rule="evenodd" d="M3.51528 10.25H3C2.58579 10.25 2.25 10.5858 2.25 11C2.25 11.4142 2.58579 11.75 3 11.75H3.25523C3.25175 11.8329 3.25 11.9163 3.25 12C3.25 12.0837 3.25175 12.1671 3.25523 12.25H3C2.58579 12.25 2.25 12.5858 2.25 13C2.25 13.4142 2.58579 13.75 3 13.75H3.51528C4.23633 16.0596 6.3503 17.75 8.86957 17.75C9.75323 17.75 10.5907 17.5408 11.3356 17.1681C11.706 16.9827 11.8561 16.5322 11.6707 16.1618C11.4854 15.7913 11.0348 15.6413 10.6644 15.8266C10.1222 16.0979 9.51392 16.25 8.86957 16.25C7.20922 16.25 5.76322 15.2317 5.1139 13.75H9C9.41421 13.75 9.75 13.4142 9.75 13C9.75 12.5858 9.41421 12.25 9 12.25H4.75699C4.75235 12.1673 4.75 12.084 4.75 12C4.75 11.916 4.75235 11.8327 4.75699 11.75H9C9.41421 11.75 9.75 11.4142 9.75 11C9.75 10.5858 9.41421 10.25 9 10.25H5.1139C5.76322 8.76825 7.20922 7.75 8.86957 7.75C9.51392 7.75 10.1222 7.90209 10.6644 8.17337C11.0348 8.35872 11.4854 8.20868 11.6707 7.83825C11.8561 7.46782 11.706 7.01727 11.3356 6.83192C10.5907 6.45923 9.75323 6.25 8.86957 6.25C6.3503 6.25 4.23633 7.94036 3.51528 10.25ZM17.3594 7.45896C17.6582 7.74582 17.6679 8.22059 17.381 8.5194L14.7597 11.25H21C21.4142 11.25 21.75 11.5858 21.75 12C21.75 12.4142 21.4142 12.75 21 12.75H14.7597L17.381 15.4806C17.6679 15.7794 17.6582 16.2542 17.3594 16.541C17.0606 16.8279 16.5858 16.8182 16.299 16.5194L12.459 12.5194C12.1803 12.2292 12.1803 11.7708 12.459 11.4806L16.299 7.4806C16.5858 7.18179 17.0606 7.1721 17.3594 7.45896Z" fill="black"/>
</g>
</g>
</g>
<defs>
<clipPath id="clip0_232_7745">
<rect width="24" height="24" rx="5" fill="white"/>
</clipPath>
</defs>
</svg>
