<svg width="24" height="24" viewBox="0 0 24 24" fill="none" xmlns="http://www.w3.org/2000/svg">
<g id="receive-yens">
<g clip-path="url(#clip0_232_7793)">
<g id="Weight=Dynamic">
<path id="Vector (Stroke)" fill-rule="evenodd" clip-rule="evenodd" d="M2.55886 6.3935C2.89385 6.14987 3.36292 6.22393 3.60654 6.55892L6.99999 11.2249L10.3934 6.55892C10.6371 6.22393 11.1061 6.14987 11.4411 6.3935C11.7761 6.63713 11.8502 7.10619 11.6065 7.44118L8.10918 12.2501H11C11.4142 12.2501 11.75 12.5858 11.75 13.0001C11.75 13.4143 11.4142 13.7501 11 13.7501H7.74999V14.2501H11C11.4142 14.2501 11.75 14.5858 11.75 15.0001C11.75 15.4143 11.4142 15.7501 11 15.7501H7.74999V18.0001C7.74999 18.4143 7.41421 18.7501 6.99999 18.7501C6.58578 18.7501 6.24999 18.4143 6.24999 18.0001V15.7501H2.99999C2.58578 15.7501 2.24999 15.4143 2.24999 15.0001C2.24999 14.5858 2.58578 14.2501 2.99999 14.2501H6.24999V13.7501H2.99999C2.58578 13.7501 2.24999 13.4143 2.24999 13.0001C2.24999 12.5858 2.58578 12.2501 2.99999 12.2501H5.8908L2.39344 7.44118C2.14981 7.10619 2.22387 6.63713 2.55886 6.3935ZM17.3594 7.45901C17.6582 7.74587 17.6679 8.22064 17.381 8.51945L14.7597 11.2501H21C21.4142 11.2501 21.75 11.5858 21.75 12.0001C21.75 12.4143 21.4142 12.7501 21 12.7501H14.7597L17.381 15.4807C17.6679 15.7795 17.6582 16.2542 17.3594 16.5411C17.0606 16.8279 16.5858 16.8183 16.299 16.5195L12.459 12.5195C12.1803 12.2292 12.1803 11.7709 12.459 11.4807L16.299 7.48065C16.5858 7.18185 17.0606 7.17216 17.3594 7.45901Z" fill="black"/>
</g>
</g>
</g>
<defs>
<clipPath id="clip0_232_7793">
<rect width="24" height="24" rx="5" fill="white"/>
</clipPath>
</defs>
</svg>
