<svg width="24" height="24" viewBox="0 0 24 24" fill="none" xmlns="http://www.w3.org/2000/svg">
<g id="redo">
<g clip-path="url(#clip0_232_1094)">
<g id="Weight=Dynamic">
<path id="Vector (Stroke)" fill-rule="evenodd" clip-rule="evenodd" d="M15.9697 3.96967C16.2626 3.67678 16.7374 3.67678 17.0303 3.96967L20.5303 7.46967C20.8232 7.76256 20.8232 8.23744 20.5303 8.53033L17.0303 12.0303C16.7374 12.3232 16.2626 12.3232 15.9697 12.0303C15.6768 11.7374 15.6768 11.2626 15.9697 10.9697L18.1893 8.75L9.00063 8.75L8.99704 8.75006L8.96737 8.75078C8.93907 8.75167 8.89431 8.75355 8.83546 8.7575C8.71752 8.76543 8.54446 8.78161 8.33498 8.81447C7.9123 8.88077 7.36097 9.01197 6.81935 9.26685C6.27959 9.52085 5.76924 9.88803 5.39327 10.4188C5.02226 10.9426 4.75 11.6703 4.75 12.7059C4.75 13.9067 5.03188 14.757 5.41592 15.3669C5.80165 15.9796 6.31806 16.3933 6.85092 16.6754C7.38755 16.9595 7.93251 17.1052 8.34909 17.1787C8.5557 17.2152 8.7261 17.2331 8.84172 17.2418C8.89939 17.2462 8.94304 17.2482 8.9703 17.2492C8.98392 17.2497 8.9934 17.2499 8.99846 17.2499L9.00072 17.25H9.0022H17.7143C18.1285 17.25 18.4643 17.5858 18.4643 18C18.4643 18.4142 18.1285 18.75 17.7143 18.75H9V18.0026C9 18.75 9.00043 18.75 9 18.75L8.99596 18.75L8.99007 18.75L8.97285 18.7497C8.95899 18.7495 8.9404 18.7491 8.91739 18.7482C8.87141 18.7466 8.80764 18.7435 8.7286 18.7375C8.57077 18.7256 8.35055 18.7021 8.08841 18.6559C7.56749 18.5639 6.86245 18.3787 6.14908 18.0011C5.43194 17.6214 4.69835 17.0425 4.14658 16.1662C3.59312 15.2871 3.25 14.1522 3.25 12.7059C3.25 11.3885 3.60274 10.3515 4.16923 9.55178C4.73076 8.75903 5.47041 8.24385 6.18065 7.90962C6.88903 7.57627 7.5877 7.41335 8.10252 7.33259C8.36179 7.29192 8.57936 7.27133 8.73485 7.26088C8.81272 7.25565 8.87538 7.25293 8.92033 7.25152C8.94281 7.25081 8.9609 7.25043 8.97427 7.25023L8.99077 7.25004L8.99631 7.25001L8.99744 7.25C8.99713 7.25001 8.99774 7.25 8.99744 7.25L8.99845 7.25C8.9987 7.25 8.99975 7.25 9 7.25H18.1893L15.9697 5.03033C15.6768 4.73744 15.6768 4.26256 15.9697 3.96967Z" fill="black"/>
</g>
</g>
</g>
<defs>
<clipPath id="clip0_232_1094">
<rect width="24" height="24" rx="5" fill="white"/>
</clipPath>
</defs>
</svg>
