<svg width="24" height="24" viewBox="0 0 24 24" fill="none" xmlns="http://www.w3.org/2000/svg">
<g id="redo-circle">
<g clip-path="url(#clip0_232_1048)">
<g id="Weight=Dynamic">
<path id="Vector (Stroke)" fill-rule="evenodd" clip-rule="evenodd" d="M12 2.75C6.89137 2.75 2.75 6.89137 2.75 12C2.75 17.1086 6.89137 21.25 12 21.25C17.1086 21.25 21.25 17.1086 21.25 12C21.25 6.89137 17.1086 2.75 12 2.75ZM1.25 12C1.25 6.06294 6.06294 1.25 12 1.25C17.9371 1.25 22.75 6.06294 22.75 12C22.75 17.9371 17.9371 22.75 12 22.75C6.06294 22.75 1.25 17.9371 1.25 12ZM12.9791 6.46045C13.277 6.17274 13.7518 6.18107 14.0396 6.47905L17.5396 10.1041C17.6778 10.2472 17.7534 10.4394 17.7499 10.6384C17.7463 10.8374 17.6638 11.0268 17.5206 11.1649L14.0206 14.5399C13.7224 14.8274 13.2476 14.8188 12.9601 14.5206C12.6726 14.2224 12.6812 13.7476 12.9794 13.4601L15.1417 11.375H9.80423L9.79532 11.3753C9.78429 11.3756 9.76439 11.3766 9.73692 11.3787C9.68171 11.3829 9.59753 11.3918 9.49434 11.4102C9.28467 11.4476 9.01534 11.5212 8.75417 11.6611C8.49692 11.7989 8.2548 11.9968 8.07429 12.2869C7.89521 12.5747 7.75 12.9961 7.75 13.625C7.75 15.06 8.3211 15.6549 8.78714 15.9358C9.04434 16.0908 9.30749 16.1712 9.51022 16.212C9.61024 16.2321 9.69145 16.2416 9.74402 16.2462C9.77017 16.2484 9.78881 16.2494 9.79866 16.2498L9.80535 16.25H10.6C11.0142 16.25 11.35 16.5858 11.35 17C11.35 17.4142 11.0142 17.75 10.6 17.75H9.8V17C9.8 17.75 9.80046 17.75 9.8 17.75L9.7981 17.75L9.79593 17.75L9.7908 17.75L9.77739 17.7498C9.76708 17.7496 9.75404 17.7492 9.73845 17.7486C9.70728 17.7473 9.66576 17.745 9.61535 17.7406C9.5148 17.732 9.37726 17.7152 9.21478 17.6826C8.89251 17.6178 8.45566 17.4873 8.01286 17.2205C7.0789 16.6576 6.25 15.565 6.25 13.625C6.25 12.7539 6.45479 12.0503 6.80071 11.4944C7.14521 10.9407 7.60308 10.5761 8.04583 10.3389C8.48466 10.1038 8.91533 9.98986 9.23066 9.93355C9.38997 9.9051 9.52454 9.89054 9.62246 9.88305C9.67155 9.87929 9.7118 9.87728 9.74179 9.87621C9.75679 9.87567 9.76926 9.87537 9.77901 9.8752L9.79159 9.87504L9.79434 9.87502C9.79482 9.87502 9.7953 9.87501 9.79579 9.87501L9.7983 9.875C9.79857 9.875 9.79973 9.875 9.8 9.875H15.2333L12.9604 7.52095C12.6727 7.22296 12.6811 6.74816 12.9791 6.46045ZM9.80655 16.25C9.80659 16.25 9.80661 16.25 9.80655 16.25V16.25Z" fill="black"/>
</g>
</g>
</g>
<defs>
<clipPath id="clip0_232_1048">
<rect width="24" height="24" rx="5" fill="white"/>
</clipPath>
</defs>
</svg>
