<svg width="24" height="24" viewBox="0 0 24 24" fill="none" xmlns="http://www.w3.org/2000/svg">
<g id="reduce">
<g clip-path="url(#clip0_232_12744)">
<g id="Weight=Dynamic">
<path id="Vector (Stroke)" fill-rule="evenodd" clip-rule="evenodd" d="M20.5303 3.46967C20.8232 3.76256 20.8232 4.23744 20.5303 4.53033L16.8107 8.25H19C19.4142 8.25 19.75 8.58579 19.75 9C19.75 9.41421 19.4142 9.75 19 9.75H15C14.5858 9.75 14.25 9.41421 14.25 9V5C14.25 4.58579 14.5858 4.25 15 4.25C15.4142 4.25 15.75 4.58579 15.75 5V7.18934L19.4697 3.46967C19.7626 3.17678 20.2374 3.17678 20.5303 3.46967ZM5 15.75C4.58579 15.75 4.25 15.4142 4.25 15C4.25 14.5858 4.58579 14.25 5 14.25H9C9.41421 14.25 9.75 14.5858 9.75 15V19C9.75 19.4142 9.41421 19.75 9 19.75C8.58579 19.75 8.25 19.4142 8.25 19V16.8107L4.53033 20.5303C4.23744 20.8232 3.76256 20.8232 3.46967 20.5303C3.17678 20.2374 3.17678 19.7626 3.46967 19.4697L7.18934 15.75H5Z" fill="black"/>
</g>
</g>
</g>
<defs>
<clipPath id="clip0_232_12744">
<rect width="24" height="24" rx="5" fill="white"/>
</clipPath>
</defs>
</svg>
