<svg width="24" height="24" viewBox="0 0 24 24" fill="none" xmlns="http://www.w3.org/2000/svg">
<g id="refresh">
<g clip-path="url(#clip0_232_1497)">
<g id="Weight=Dynamic">
<path id="Vector (Stroke)" fill-rule="evenodd" clip-rule="evenodd" d="M12 2.75C6.89137 2.75 2.75 6.89137 2.75 12C2.75 17.1086 6.89137 21.25 12 21.25C16.6364 21.25 20.4772 17.8382 21.1466 13.3884C21.2082 12.9788 21.5902 12.6967 21.9998 12.7583C22.4094 12.82 22.6915 13.202 22.6299 13.6116C21.8518 18.7843 17.3897 22.75 12 22.75C6.06294 22.75 1.25 17.9371 1.25 12C1.25 6.06294 6.06294 1.25 12 1.25C15.9364 1.25 19.3774 3.36569 21.25 6.5198V3C21.25 2.58579 21.5858 2.25 22 2.25C22.4142 2.25 22.75 2.58579 22.75 3V7.4C22.75 8.14559 22.1456 8.75 21.4 8.75H17C16.5858 8.75 16.25 8.41421 16.25 8C16.25 7.58579 16.5858 7.25 17 7.25H19.9391C18.3221 4.55329 15.371 2.75 12 2.75Z" fill="black"/>
</g>
</g>
</g>
<defs>
<clipPath id="clip0_232_1497">
<rect width="24" height="24" rx="5" fill="white"/>
</clipPath>
</defs>
</svg>
