<svg width="24" height="24" viewBox="0 0 24 24" fill="none" xmlns="http://www.w3.org/2000/svg">
<g id="refresh-circle">
<g clip-path="url(#clip0_232_1313)">
<g id="Weight=Dynamic">
<path id="Vector (Stroke)" fill-rule="evenodd" clip-rule="evenodd" d="M12 2.75C6.89137 2.75 2.75 6.89137 2.75 12C2.75 17.1086 6.89137 21.25 12 21.25C17.1086 21.25 21.25 17.1086 21.25 12C21.25 6.89137 17.1086 2.75 12 2.75ZM1.25 12C1.25 6.06294 6.06294 1.25 12 1.25C17.9371 1.25 22.75 6.06294 22.75 12C22.75 17.9371 17.9371 22.75 12 22.75C6.06294 22.75 1.25 17.9371 1.25 12ZM11.9876 7.75C9.70115 7.75 7.94704 9.28219 7.74534 11.0835C7.69925 11.4951 7.32818 11.7914 6.91654 11.7453C6.5049 11.6992 6.20857 11.3282 6.25466 10.9165C6.55593 8.22597 9.07592 6.25 11.9876 6.25C13.6576 6.25 15.1861 6.89363 16.2501 7.94671V7.5C16.2501 7.08579 16.5859 6.75 17.0001 6.75C17.4143 6.75 17.7501 7.08579 17.7501 7.5V9.12222C17.7501 9.86781 17.1457 10.4722 16.4001 10.4722H14.4939C14.0797 10.4722 13.7439 10.1364 13.7439 9.72222C13.7439 9.30801 14.0797 8.97222 14.4939 8.97222H15.1522C14.3817 8.23175 13.2617 7.75 11.9876 7.75ZM17.0669 11.253C17.4795 11.2899 17.784 11.6544 17.747 12.0669C17.467 15.1926 15.0649 17.75 12.0124 17.75C10.3039 17.75 8.79369 16.9431 7.74992 15.688V16.3999C7.74992 16.8141 7.41413 17.1499 6.99992 17.1499C6.5857 17.1499 6.24992 16.8141 6.24992 16.3999V14.2221C6.24992 13.4765 6.85433 12.8721 7.59992 12.8721H9.5061C9.92032 12.8721 10.2561 13.2079 10.2561 13.6221C10.2561 14.0363 9.92032 14.3721 9.5061 14.3721H8.63254C9.42354 15.5312 10.66 16.25 12.0124 16.25C14.1581 16.25 16.03 14.4222 16.253 11.9331C16.2899 11.5205 16.6544 11.216 17.0669 11.253Z" fill="black"/>
</g>
</g>
</g>
<defs>
<clipPath id="clip0_232_1313">
<rect width="24" height="24" rx="5" fill="white"/>
</clipPath>
</defs>
</svg>
