<svg width="24" height="24" viewBox="0 0 24 24" fill="none" xmlns="http://www.w3.org/2000/svg">
<g id="refresh-double">
<g clip-path="url(#clip0_232_1301)">
<g id="Weight=Dynamic">
<path id="Vector (Stroke)" fill-rule="evenodd" clip-rule="evenodd" d="M12 2.75C7.20401 2.75 3.25972 6.40058 2.79571 11.0741C2.75478 11.4863 2.38746 11.7873 1.97528 11.7463C1.56309 11.7054 1.26212 11.3381 1.30305 10.9259C1.84248 5.49278 6.4253 1.25 12 1.25C15.9364 1.25 19.3774 3.36569 21.25 6.51979V3C21.25 2.58579 21.5858 2.25 22 2.25C22.4142 2.25 22.75 2.58579 22.75 3V7.4C22.75 8.14559 22.1456 8.75 21.4 8.75H17C16.5858 8.75 16.25 8.41421 16.25 8C16.25 7.58579 16.5858 7.25 17 7.25H19.9391C18.3221 4.55329 15.371 2.75 12 2.75ZM22.0741 12.2537C22.4863 12.2946 22.7873 12.6619 22.7463 13.0741C22.2069 18.5072 17.6241 22.75 12.0494 22.75C8.11291 22.75 4.67194 20.6343 2.79932 17.4801V21C2.79932 21.4142 2.46353 21.75 2.04932 21.75C1.6351 21.75 1.29932 21.4142 1.29932 21V16.6C1.29932 15.8544 1.90373 15.25 2.64932 15.25H7.04932C7.46353 15.25 7.79932 15.5858 7.79932 16C7.79932 16.4142 7.46353 16.75 7.04932 16.75H4.1103C5.72729 19.4467 8.6784 21.25 12.0494 21.25C16.8454 21.25 20.7897 17.5994 21.2537 12.9259C21.2946 12.5137 21.6619 12.2127 22.0741 12.2537Z" fill="black"/>
</g>
</g>
</g>
<defs>
<clipPath id="clip0_232_1301">
<rect width="24" height="24" rx="5" fill="white"/>
</clipPath>
</defs>
</svg>
