<svg width="24" height="24" viewBox="0 0 24 24" fill="none" xmlns="http://www.w3.org/2000/svg">
<g id="reload-window">
<g clip-path="url(#clip0_232_15263)">
<g id="Weight=Dynamic">
<path id="Vector (Stroke)" fill-rule="evenodd" clip-rule="evenodd" d="M4 3.75C3.30964 3.75 2.75 4.30964 2.75 5V6.25H21.25V5C21.25 4.30964 20.6904 3.75 20 3.75H4ZM21.25 7.75V12C21.25 12.4142 21.5858 12.75 22 12.75C22.4142 12.75 22.75 12.4142 22.75 12V5C22.75 3.48122 21.5188 2.25 20 2.25H4C2.48122 2.25 1.25 3.48122 1.25 5V19C1.25 20.5188 2.48122 21.75 4 21.75H11C11.4142 21.75 11.75 21.4142 11.75 21C11.75 20.5858 11.4142 20.25 11 20.25H4C3.30964 20.25 2.75 19.6904 2.75 19V7.75H21.25ZM5.51172 4.44142C5.81961 4.71851 5.84457 5.19273 5.56747 5.50061L5.55747 5.51172C5.28038 5.81961 4.80616 5.84457 4.49828 5.56747C4.19039 5.29038 4.16543 4.81616 4.44253 4.50828L4.45253 4.49717C4.72962 4.18928 5.20384 4.16432 5.51172 4.44142ZM8.51173 4.44142C8.81961 4.71852 8.84456 5.19274 8.56747 5.50062L8.55747 5.51173C8.28037 5.81961 7.80615 5.84456 7.49827 5.56747C7.19039 5.29037 7.16544 4.81615 7.44253 4.50827L7.45253 4.49716C7.72963 4.18928 8.20385 4.16433 8.51173 4.44142ZM11.5117 4.44142C11.8196 4.71852 11.8446 5.19274 11.5675 5.50062L11.5575 5.51173C11.2804 5.81961 10.8062 5.84456 10.4983 5.56747C10.1904 5.29037 10.1654 4.81615 10.4425 4.50827L10.4525 4.49716C10.7296 4.18928 11.2038 4.16433 11.5117 4.44142ZM17.9906 14.75C16.6121 14.75 15.3733 15.7387 14.9137 17.222C14.791 17.6177 14.3709 17.839 13.9753 17.7164C13.5796 17.5938 13.3583 17.1736 13.4809 16.778C14.1031 14.7703 15.8524 13.25 17.9906 13.25C19.2678 13.25 20.4074 13.7935 21.2501 14.6585V14.5498C21.2501 14.1356 21.5859 13.7998 22.0001 13.7998C22.4143 13.7998 22.7501 14.1356 22.7501 14.5498V16.172C22.7501 16.9176 22.1457 17.522 21.4001 17.522H19.9951C19.5809 17.522 19.2451 17.1862 19.2451 16.772C19.2451 16.3578 19.5809 16.022 19.9951 16.022H20.4515C19.8428 15.2289 18.9516 14.75 17.9906 14.75ZM22.0257 18.2836C22.4214 18.4062 22.6427 18.8264 22.5201 19.222C21.8979 21.2297 20.1486 22.75 18.0103 22.75C16.7327 22.75 15.5927 22.2061 14.7499 21.3405V21.4502C14.7499 21.8644 14.4141 22.2002 13.9999 22.2002C13.5857 22.2002 13.2499 21.8644 13.2499 21.4502V19.828C13.2499 19.0824 13.8544 18.478 14.5999 18.478H16.0049C16.4191 18.478 16.7549 18.8138 16.7549 19.228C16.7549 19.6422 16.4191 19.978 16.0049 19.978H15.5495C16.1582 20.7711 17.0494 21.25 18.0103 21.25C19.3889 21.25 20.6276 20.2613 21.0873 18.778C21.2099 18.3823 21.6301 18.161 22.0257 18.2836Z" fill="black"/>
</g>
</g>
</g>
<defs>
<clipPath id="clip0_232_15263">
<rect width="24" height="24" rx="5" fill="white"/>
</clipPath>
</defs>
</svg>
