<svg width="24" height="24" viewBox="0 0 24 24" fill="none" xmlns="http://www.w3.org/2000/svg">
<g id="reminder-hand-gesture">
<g clip-path="url(#clip0_232_8451)">
<g id="Weight=Dynamic">
<path id="Vector (Stroke)" fill-rule="evenodd" clip-rule="evenodd" d="M13.7636 3.25C13.8875 2.12414 14.8421 1.25 16 1.25C17.1581 1.25 18.1119 2.12501 18.2363 3.25H19.625C20.1717 3.25 20.7208 3.38102 21.1397 3.75451C21.5732 4.14093 21.75 4.68119 21.75 5.25C21.75 5.81881 21.5732 6.35907 21.1397 6.74549C20.7208 7.11898 20.1717 7.25 19.625 7.25H18.25V11.75L20.1041 14.2221C20.8981 15.2808 20.8255 16.7549 19.9313 17.7304L16.1474 21.8582C15.6267 22.4262 14.8923 22.75 14.1211 22.75H9.5C8.01595 22.75 6.91624 21.9323 6.17566 21.014C5.43925 20.1009 4.99325 19.0165 4.79326 18.2629L5.51817 18.0705L5.74715 18.0097M5.51817 18.0705L4.79326 18.2629C4.76266 18.1476 4.75 18.0357 4.75 17.9272V9.42857C4.75 8.68601 4.99785 8.06006 5.43426 7.61672C5.8645 7.17965 6.43575 6.96429 7 6.96429C7.32807 6.96429 7.6585 7.03709 7.96221 7.18395C8.07705 6.91376 8.23624 6.67501 8.43426 6.47384C8.8645 6.03678 9.43575 5.82141 10 5.82141C10.0943 5.82141 10.1889 5.82743 10.2829 5.8395C10.2613 5.7297 10.25 5.61619 10.25 5.5V5.25C10.25 4.14543 11.1454 3.25 12.25 3.25H13.7636M13.75 4.75H12.25C11.9739 4.75 11.75 4.97386 11.75 5.25V5.42228C12.3023 5.04178 12.9963 4.94349 13.6168 5.12308C13.6618 5.13609 13.7062 5.15047 13.75 5.1662V4.75ZM15.25 4.75H16.75V15C16.75 15.4142 17.0858 15.75 17.5 15.75C17.9142 15.75 18.25 15.4142 18.25 15V14.25L18.9041 15.1221C19.265 15.6033 19.232 16.2734 18.8255 16.7168L15.0416 20.8447C14.8046 21.1032 14.4711 21.25 14.1211 21.25H9.5C8.62564 21.25 7.91414 20.7802 7.34326 20.0723C6.77637 19.3694 6.41293 18.5039 6.25 17.9039V9.42857C6.25 9.02828 6.37715 8.79708 6.50324 8.669C6.6355 8.53463 6.81425 8.46429 7 8.46429C7.18575 8.46429 7.3645 8.53463 7.49676 8.669C7.62285 8.79708 7.75 9.02828 7.75 9.42857V10C7.75 10.4142 8.08579 10.75 8.5 10.75C8.91421 10.75 9.25 10.4142 9.25 10V8.2857C9.25 7.8854 9.37715 7.65421 9.50324 7.52612C9.6355 7.39176 9.81425 7.32141 10 7.32141C10.1858 7.32141 10.3645 7.39176 10.4968 7.52612C10.6228 7.65421 10.75 7.8854 10.75 8.2857V9.99998C10.75 10.4142 11.0858 10.75 11.5 10.75C11.9142 10.75 12.25 10.4142 12.25 9.99998V7.50005C12.25 7.20311 12.3206 7.00115 12.4031 6.86839C12.5795 6.58461 12.9059 6.47887 13.1998 6.56395C13.447 6.63548 13.75 6.87537 13.75 7.50005V10.0001C13.75 10.4143 14.0858 10.7501 14.5 10.7501C14.9142 10.7501 15.25 10.4143 15.25 10.0001V4.75ZM16.7073 3.25H15.2924C15.395 2.95879 15.6727 2.75 16 2.75C16.3266 2.75 16.6044 2.9587 16.7073 3.25ZM18.25 4.75V5.75H19.625C19.9533 5.75 20.0917 5.67024 20.1415 5.62583C20.1768 5.59436 20.25 5.50961 20.25 5.25C20.25 4.99039 20.1768 4.90564 20.1415 4.87417C20.0917 4.82976 19.9533 4.75 19.625 4.75H18.25Z" fill="black"/>
</g>
</g>
</g>
<defs>
<clipPath id="clip0_232_8451">
<rect width="24" height="24" rx="5" fill="white"/>
</clipPath>
</defs>
</svg>
