<svg width="24" height="24" viewBox="0 0 24 24" fill="none" xmlns="http://www.w3.org/2000/svg">
<g id="repeat-once">
<g clip-path="url(#clip0_232_10240)">
<g id="Weight=Dynamic">
<path id="Vector (Stroke)" fill-rule="evenodd" clip-rule="evenodd" d="M4.39446 2.36201C4.61558 2.49867 4.75016 2.74007 4.75016 3V8C4.75016 8.41421 4.41438 8.75 4.00016 8.75C3.58595 8.75 3.25016 8.41421 3.25016 8V4.21353L2.33557 4.67082C1.96509 4.85606 1.51459 4.70589 1.32934 4.33541C1.1441 3.96493 1.29427 3.51442 1.66475 3.32918L3.66475 2.32918C3.89725 2.21293 4.17335 2.22536 4.39446 2.36201ZM7.25016 7C7.25016 6.58579 7.58595 6.25 8.00016 6.25H16.0002C16.9535 6.25 18.3668 6.52984 19.5634 7.39135C20.7982 8.2804 21.7502 9.75556 21.7502 12C21.7502 13.6632 21.2271 14.9187 20.4283 15.8266C20.1547 16.1376 19.6808 16.1679 19.3698 15.8943C19.0588 15.6207 19.0285 15.1468 19.3021 14.8358C19.8427 14.2213 20.2502 13.3255 20.2502 12C20.2502 10.2444 19.5355 9.2196 18.6869 8.60865C17.8001 7.97017 16.7135 7.75 16.0002 7.75H8.00016C7.58595 7.75 7.25016 7.41421 7.25016 7ZM3.00016 11.25C3.41438 11.25 3.75016 11.5858 3.75016 12C3.75016 13.7556 4.46485 14.7804 5.31339 15.3913C6.20018 16.0298 7.28685 16.25 8.00016 16.25H15.1895L13.9698 15.0303C13.6769 14.7374 13.6769 14.2626 13.9698 13.9697C14.2627 13.6768 14.7376 13.6768 15.0305 13.9697L17.5305 16.4697C17.8234 16.7626 17.8234 17.2374 17.5305 17.5303L15.0305 20.0303C14.7376 20.3232 14.2627 20.3232 13.9698 20.0303C13.6769 19.7374 13.6769 19.2626 13.9698 18.9697L15.1895 17.75H8.00016C7.04681 17.75 5.63348 17.4702 4.43694 16.6087C3.20215 15.7196 2.25016 14.2444 2.25016 12C2.25016 11.5858 2.58595 11.25 3.00016 11.25Z" fill="black"/>
</g>
</g>
</g>
<defs>
<clipPath id="clip0_232_10240">
<rect width="24" height="24" rx="5" fill="white"/>
</clipPath>
</defs>
</svg>
