<svg width="24" height="24" viewBox="0 0 24 24" fill="none" xmlns="http://www.w3.org/2000/svg">
<g id="repeat">
<g clip-path="url(#clip0_232_10232)">
<g id="Weight=Dynamic">
<path id="Vector (Stroke)" fill-rule="evenodd" clip-rule="evenodd" d="M5.31323 8.60865C4.46468 9.2196 3.75 10.2444 3.75 12C3.75 13.7556 4.46468 14.7804 5.31323 15.3913C6.20002 16.0298 7.28668 16.25 8 16.25H15.1893L13.9697 15.0303C13.6768 14.7374 13.6768 14.2626 13.9697 13.9697C14.2626 13.6768 14.7374 13.6768 15.0303 13.9697L17.5303 16.4697C17.8232 16.7626 17.8232 17.2374 17.5303 17.5303L15.0303 20.0303C14.7374 20.3232 14.2626 20.3232 13.9697 20.0303C13.6768 19.7374 13.6768 19.2626 13.9697 18.9697L15.1893 17.75H8C7.04665 17.75 5.63332 17.4702 4.43677 16.6087C3.20198 15.7196 2.25 14.2444 2.25 12C2.25 9.75556 3.20198 8.2804 4.43677 7.39135C5.63332 6.52984 7.04665 6.25 8 6.25H16C16.9534 6.25 18.3667 6.52984 19.5632 7.39135C20.798 8.2804 21.75 9.75556 21.75 12C21.75 13.6632 21.227 14.9187 20.4281 15.8266C20.1545 16.1376 19.6806 16.1679 19.3696 15.8943C19.0586 15.6207 19.0283 15.1468 19.3019 14.8358C19.8426 14.2213 20.25 13.3255 20.25 12C20.25 10.2444 19.5353 9.2196 18.6868 8.60865C17.8 7.97016 16.7133 7.75 16 7.75H8C7.28668 7.75 6.20002 7.97016 5.31323 8.60865Z" fill="black"/>
</g>
</g>
</g>
<defs>
<clipPath id="clip0_232_10232">
<rect width="24" height="24" rx="5" fill="white"/>
</clipPath>
</defs>
</svg>
