<svg width="24" height="24" viewBox="0 0 24 24" fill="none" xmlns="http://www.w3.org/2000/svg">
<g id="report-columns">
<g clip-path="url(#clip0_232_2394)">
<g id="Weight=Dynamic">
<path id="Vector (Stroke)" fill-rule="evenodd" clip-rule="evenodd" d="M3.75 3.75V7.25H9.25V3.75H3.75ZM2.25 3.6C2.25 2.85442 2.85442 2.25 3.6 2.25H9.4C10.1456 2.25 10.75 2.85442 10.75 3.6V7.4C10.75 8.14558 10.1456 8.75 9.4 8.75H3.6C2.85442 8.75 2.25 8.14558 2.25 7.4V3.6ZM14.75 3.75V12.25H20.25V3.75H14.75ZM13.25 3.6C13.25 2.85441 13.8544 2.25 14.6 2.25H20.4C21.1456 2.25 21.75 2.85442 21.75 3.6V12.4C21.75 13.1456 21.1456 13.75 20.4 13.75H14.6C13.8544 13.75 13.25 13.1456 13.25 12.4V3.6ZM3.75 11.75V20.25H9.25V11.75H3.75ZM2.25 11.6C2.25 10.8544 2.85441 10.25 3.6 10.25H9.4C10.1456 10.25 10.75 10.8544 10.75 11.6V20.4C10.75 21.1456 10.1456 21.75 9.4 21.75H3.6C2.85441 21.75 2.25 21.1456 2.25 20.4V11.6ZM14.75 16.75V20.25H20.25V16.75H14.75ZM13.25 16.6C13.25 15.8544 13.8544 15.25 14.6 15.25H20.4C21.1456 15.25 21.75 15.8544 21.75 16.6V20.4C21.75 21.1456 21.1456 21.75 20.4 21.75H14.6C13.8544 21.75 13.25 21.1456 13.25 20.4V16.6Z" fill="black"/>
</g>
</g>
</g>
<defs>
<clipPath id="clip0_232_2394">
<rect width="24" height="24" rx="5" fill="white"/>
</clipPath>
</defs>
</svg>
