<svg width="24" height="24" viewBox="0 0 24 24" fill="none" xmlns="http://www.w3.org/2000/svg">
<g id="repository">
<g clip-path="url(#clip0_232_8695)">
<g id="Weight=Dynamic">
<path id="Vector (Stroke)" fill-rule="evenodd" clip-rule="evenodd" d="M6 3.75C5.30964 3.75 4.75 4.30964 4.75 5V16.5499C5.12503 16.3581 5.54989 16.25 6 16.25H19.25V3.75H6ZM20.7364 16.8571C20.7453 16.8109 20.75 16.7631 20.75 16.7143V3.6C20.75 2.85442 20.1456 2.25 19.4 2.25H6C4.48122 2.25 3.25 3.48122 3.25 5V19C3.25 20.5188 4.48122 21.75 6 21.75H11.5C11.9142 21.75 12.25 21.4142 12.25 21C12.25 20.5858 11.9142 20.25 11.5 20.25H6C5.30964 20.25 4.75 19.6904 4.75 19C4.75 18.3096 5.30964 17.75 6 17.75H14.25V22C14.25 22.2741 14.3995 22.5263 14.6399 22.6579C14.8804 22.7895 15.1734 22.7794 15.4043 22.6317L17.5 21.2904L19.5957 22.6317C19.8266 22.7794 20.1196 22.7895 20.3601 22.6579C20.6005 22.5263 20.75 22.2741 20.75 22V17C20.75 16.9511 20.7453 16.9034 20.7364 16.8571ZM19.25 17.75V20.6295L17.9043 19.7683C17.6578 19.6106 17.3422 19.6106 17.0957 19.7683L15.75 20.6295V17.75H19.25Z" fill="black"/>
</g>
</g>
</g>
<defs>
<clipPath id="clip0_232_8695">
<rect width="24" height="24" rx="5" fill="white"/>
</clipPath>
</defs>
</svg>
