<svg width="24" height="24" viewBox="0 0 24 24" fill="none" xmlns="http://www.w3.org/2000/svg">
<g id="restart">
<g clip-path="url(#clip0_232_1457)">
<g id="Weight=Dynamic">
<path id="Vector (Stroke)" fill-rule="evenodd" clip-rule="evenodd" d="M15.536 3.53644C10.8335 1.54034 5.4032 3.73433 3.4071 8.43685C1.59552 12.7047 3.23536 17.5733 7.06985 19.9281C7.42282 20.1448 7.53323 20.6067 7.31647 20.9597C7.09971 21.3126 6.63785 21.4231 6.28488 21.2063C1.82735 18.4689 -0.0795764 12.812 2.02634 7.85075C4.34614 2.38566 10.657 -0.164108 16.1221 2.15569C21.5872 4.47548 24.137 10.7864 21.8172 16.2515C21.1389 17.8493 20.1186 19.1989 18.8779 20.25H21.9999C22.4141 20.25 22.7499 20.5857 22.7499 21C22.7499 21.4142 22.4141 21.75 21.9999 21.75H17.5999C16.8543 21.75 16.2499 21.1455 16.2499 20.4V16C16.2499 15.5857 16.5857 15.25 16.9999 15.25C17.4141 15.25 17.7499 15.5857 17.7499 16V19.2367C18.8884 18.315 19.8237 17.1089 20.4364 15.6654C22.4325 10.9629 20.2386 5.53255 15.536 3.53644ZM12.5116 21.4412C12.8195 21.7183 12.8445 22.1925 12.5674 22.5004L12.5574 22.5116C12.2803 22.8194 11.8061 22.8444 11.4982 22.5673C11.1903 22.2903 11.1653 21.816 11.4424 21.5081L11.4524 21.497C11.7295 21.1891 12.2037 21.1642 12.5116 21.4412Z" fill="black"/>
</g>
</g>
</g>
<defs>
<clipPath id="clip0_232_1457">
<rect width="24" height="24" rx="5" fill="white"/>
</clipPath>
</defs>
</svg>
