<svg width="24" height="24" viewBox="0 0 24 24" fill="none" xmlns="http://www.w3.org/2000/svg">
<g id="rewind">
<g clip-path="url(#clip0_232_10455)">
<g id="Weight=Dynamic">
<path id="Vector (Stroke)" fill-rule="evenodd" clip-rule="evenodd" d="M9.59934 5.10056C10.4907 4.44377 11.7502 5.08019 11.7502 6.18739V17.8126C11.7502 18.9198 10.4907 19.5562 9.59934 18.8994L1.7108 13.0868C0.978561 12.5473 0.978561 11.4527 1.7108 10.9132L9.59934 5.10056ZM10.2502 6.48424L2.76449 12L10.2502 17.5157V6.48424ZM20.5993 5.10056C21.4907 4.44377 22.7502 5.08018 22.7502 6.18739V17.8126C22.7502 18.9198 21.4907 19.5562 20.5993 18.8994L12.7108 13.0868C11.9786 12.5473 11.9786 11.4527 12.7108 10.9132L20.5993 5.10056ZM21.2502 6.48423L13.7645 12L21.2502 17.5157V6.48423Z" fill="black"/>
</g>
</g>
</g>
<defs>
<clipPath id="clip0_232_10455">
<rect width="24" height="24" rx="5" fill="white"/>
</clipPath>
</defs>
</svg>
