<svg width="24" height="24" viewBox="0 0 24 24" fill="none" xmlns="http://www.w3.org/2000/svg">
<g id="rhombus-arrow-right">
<g clip-path="url(#clip0_232_10156)">
<g id="Weight=Dynamic" clip-path="url(#clip1_232_10156)">
<path id="Vector (Stroke)" fill-rule="evenodd" clip-rule="evenodd" d="M12 2.06067L2.06067 12L12 21.9393L21.9393 12L12 2.06067ZM22.0454 12.1061C22.0453 12.106 22.0452 12.1059 22.0451 12.1058L22.0454 12.1061ZM11.8939 22.0454C11.894 22.0453 11.8942 22.0452 11.8943 22.0451L11.8939 22.0454ZM1.9546 11.8939C1.95465 11.894 1.95471 11.894 1.95476 11.8941L1.9546 11.8939ZM12.1059 1.95476L12.1061 1.9546C12.106 1.95465 12.106 1.95471 12.1059 1.95476ZM11.0454 0.893941C11.5726 0.366731 12.4274 0.366735 12.9546 0.893941L23.1061 11.0454C23.6333 11.5726 23.6333 12.4274 23.1061 12.9546L12.9546 23.1061C12.4274 23.6333 11.5726 23.6333 11.0454 23.1061L0.893941 12.9546C0.366731 12.4274 0.366735 11.5726 0.893941 11.0454L11.0454 0.893941ZM13.4697 8.46968C13.7626 8.17678 14.2374 8.17678 14.5303 8.46968L16.5303 10.4697C16.8232 10.7626 16.8232 11.2374 16.5303 11.5303L14.5303 13.5303C14.2374 13.8232 13.7626 13.8232 13.4697 13.5303C13.1768 13.2374 13.1768 12.7626 13.4697 12.4697L14.1893 11.75H10C9.74393 11.75 9.42508 11.8856 9.15534 12.1553C8.8856 12.4251 8.75001 12.7439 8.75001 13V14C8.75001 14.4142 8.41422 14.75 8.00001 14.75C7.58579 14.75 7.25001 14.4142 7.25001 14V13C7.25001 12.2561 7.61442 11.5749 8.09468 11.0947C8.57494 10.6144 9.25608 10.25 10 10.25H14.1893L13.4697 9.53034C13.1768 9.23744 13.1768 8.76257 13.4697 8.46968Z" fill="black"/>
</g>
</g>
</g>
<defs>
<clipPath id="clip0_232_10156">
<rect width="24" height="24" rx="5" fill="white"/>
</clipPath>
<clipPath id="clip1_232_10156">
<rect width="24" height="24" fill="white"/>
</clipPath>
</defs>
</svg>
