<svg width="24" height="24" viewBox="0 0 24 24" fill="none" xmlns="http://www.w3.org/2000/svg">
<g id="rings">
<g clip-path="url(#clip0_232_1934)">
<g id="Weight=Dynamic">
<path id="Vector (Stroke)" fill-rule="evenodd" clip-rule="evenodd" d="M8 2.25C8.41421 2.25 8.75 2.58579 8.75 3V7.2912C9.95809 7.42474 11.0701 7.87712 12 8.56231C12.9299 7.87712 14.0419 7.42474 15.25 7.2912V3C15.25 2.58579 15.5858 2.25 16 2.25C16.4142 2.25 16.75 2.58579 16.75 3V7.2912C20.125 7.66428 22.75 10.5256 22.75 14C22.75 17.7279 19.7279 20.75 16 20.75C14.5028 20.75 13.1195 20.2625 12 19.4377C10.8805 20.2625 9.4972 20.75 8 20.75C4.27208 20.75 1.25 17.7279 1.25 14C1.25 10.5256 3.87504 7.66428 7.25 7.2912V3C7.25 2.58579 7.58579 2.25 8 2.25ZM13.1247 18.3933C13.9506 18.935 14.9385 19.25 16 19.25C18.8995 19.25 21.25 16.8995 21.25 14C21.25 11.1005 18.8995 8.75 16 8.75C14.9385 8.75 13.9506 9.06501 13.1247 9.60666C14.1379 10.7874 14.75 12.3222 14.75 14C14.75 15.6778 14.1379 17.2126 13.1247 18.3933ZM12 10.5995C12.7796 11.5156 13.25 12.7028 13.25 14C13.25 15.2972 12.7796 16.4844 12 17.4005C11.2204 16.4844 10.75 15.2972 10.75 14C10.75 12.7028 11.2204 11.5156 12 10.5995ZM10.8753 9.60666C9.86215 10.7874 9.25 12.3222 9.25 14C9.25 15.6778 9.86215 17.2126 10.8753 18.3933C10.0494 18.935 9.06147 19.25 8 19.25C5.1005 19.25 2.75 16.8995 2.75 14C2.75 11.1005 5.1005 8.75 8 8.75C9.06147 8.75 10.0494 9.06501 10.8753 9.60666Z" fill="black"/>
</g>
</g>
</g>
<defs>
<clipPath id="clip0_232_1934">
<rect width="24" height="24" rx="5" fill="white"/>
</clipPath>
</defs>
</svg>
