<svg width="24" height="24" viewBox="0 0 24 24" fill="none" xmlns="http://www.w3.org/2000/svg">
<g id="rocket">
<g clip-path="url(#clip0_232_13788)">
<g id="Weight=Dynamic">
<path id="Vector (Stroke)" fill-rule="evenodd" clip-rule="evenodd" d="M12 2.21822L9.52835 5.38187C8.46679 6.74067 8.14014 8.53412 8.65446 10.1799L10.5513 16.25L13.4486 16.25L15.3454 10.1799C15.8598 8.53412 15.5331 6.74067 14.4716 5.38187L12 2.21822ZM14.1739 17.7296C14.1178 17.743 14.0595 17.75 14 17.75H10.227L7.41598 19.624C7.23699 19.7433 7.01537 19.7801 6.80745 19.7249C6.59954 19.6696 6.42534 19.5278 6.32913 19.3354L6.99995 19C6.32913 19.3354 6.32931 19.3357 6.32913 19.3354L6.32842 19.334L6.32752 19.3322L6.32519 19.3274L6.31846 19.3136C6.31307 19.3024 6.30594 19.2873 6.2973 19.2686C6.28001 19.2311 6.25664 19.1788 6.22907 19.1129C6.17401 18.9815 6.1018 18.7951 6.02798 18.565C5.88114 18.1072 5.7235 17.4624 5.6883 16.7232C5.62128 15.3157 6.00513 13.5597 7.70346 12.1657L7.22274 10.6274C6.56147 8.5113 6.98145 6.20543 8.34632 4.4584L10.9361 1.14345C11.4766 0.451612 12.5233 0.451613 13.0638 1.14345L15.6536 4.45841C17.0185 6.20543 17.4384 8.5113 16.7772 10.6274L16.3799 11.8986C18.3746 13.3298 18.8146 15.2241 18.7432 16.7232C18.708 17.4624 18.5504 18.1072 18.4036 18.565C18.3297 18.7951 18.2575 18.9815 18.2025 19.1129C18.1749 19.1788 18.1515 19.2311 18.1343 19.2686C18.1256 19.2873 18.1185 19.3024 18.1131 19.3136L18.1064 19.3274L18.104 19.3322L18.1031 19.334C18.103 19.3343 18.1024 19.3354 17.4316 19L18.1024 19.3354C18.0062 19.5278 17.832 19.6696 17.6241 19.7249C17.4162 19.7801 17.1946 19.7433 17.0156 19.624L14.1739 17.7296ZM17.0524 17.8458C17.1433 17.511 17.2236 17.1003 17.2449 16.6518C17.2932 15.6387 17.0472 14.44 15.901 13.4312L14.9578 16.4494L17.0524 17.8458ZM8.1997 13.7536C7.3361 14.6888 7.14341 15.7447 7.18661 16.6518C7.20796 17.1003 7.28828 17.511 7.37911 17.8458L9.11655 16.6875L8.1997 13.7536ZM9.24995 8.99998C9.24995 7.4812 10.4812 6.24998 12 6.24998C13.5187 6.24998 14.75 7.4812 14.75 8.99998C14.75 10.5188 13.5187 11.75 12 11.75C10.4812 11.75 9.24995 10.5188 9.24995 8.99998ZM12 7.74998C11.3096 7.74998 10.75 8.30963 10.75 8.99998C10.75 9.69034 11.3096 10.25 12 10.25C12.6903 10.25 13.25 9.69034 13.25 8.99998C13.25 8.30963 12.6903 7.74998 12 7.74998ZM9.99995 19.25C10.4142 19.25 10.75 19.5858 10.75 20C10.75 20.7309 11.112 21.3014 11.5303 21.7197C11.6946 21.884 11.8601 22.0167 12 22.1169C12.1398 22.0167 12.3053 21.884 12.4696 21.7197C12.8879 21.3014 13.25 20.7309 13.25 20C13.25 19.5858 13.5857 19.25 14 19.25C14.4142 19.25 14.75 19.5858 14.75 20C14.75 21.2691 14.112 22.1986 13.5303 22.7803C13.2374 23.0732 12.9465 23.2912 12.7285 23.4365C12.6189 23.5096 12.5259 23.5655 12.458 23.6043C12.424 23.6237 12.3961 23.639 12.3754 23.65L12.3497 23.6635L12.3411 23.6679L12.3378 23.6696L12.3365 23.6702C12.3362 23.6704 12.3354 23.6708 12 23C11.6645 23.6708 11.6643 23.6707 11.664 23.6705L11.6621 23.6696L11.6589 23.6679L11.6502 23.6635L11.6246 23.65C11.6038 23.639 11.5759 23.6237 11.5419 23.6043C11.474 23.5655 11.3811 23.5096 11.2714 23.4365C11.0534 23.2912 10.7625 23.0732 10.4696 22.7803C9.88788 22.1986 9.24995 21.2691 9.24995 20C9.24995 19.5858 9.58574 19.25 9.99995 19.25ZM12 23L11.664 23.6705C11.8751 23.7761 12.1242 23.7764 12.3354 23.6708L12 23ZM12.3382 22.3306C12.3386 22.3308 12.3386 22.3308 12.3382 22.3306V22.3306ZM11.6617 22.3306C11.6612 22.3308 11.6613 22.3308 11.6617 22.3306V22.3306Z" fill="black"/>
</g>
</g>
</g>
<defs>
<clipPath id="clip0_232_13788">
<rect width="24" height="24" rx="5" fill="white"/>
</clipPath>
</defs>
</svg>
