<svg width="24" height="24" viewBox="0 0 24 24" fill="none" xmlns="http://www.w3.org/2000/svg">
<g id="rook">
<g clip-path="url(#clip0_232_8271)">
<g id="Weight=Dynamic">
<path id="Vector (Stroke)" fill-rule="evenodd" clip-rule="evenodd" d="M6.75001 4.75V8.25H17.25V4.75H14.75V6C14.75 6.41421 14.4142 6.75 14 6.75C13.5858 6.75 13.25 6.41421 13.25 6V4.75H10.75V6C10.75 6.41421 10.4142 6.75 10 6.75C9.5858 6.75 9.25001 6.41421 9.25001 6V4.75H6.75001ZM6.60001 3.25C5.85443 3.25 5.25001 3.85442 5.25001 4.6V8.4C5.25001 9.14558 5.85443 9.75 6.60001 9.75H8.75001V10.2927C8.45871 10.3956 8.25001 10.6734 8.25001 11C8.25001 11.2984 8.42428 11.5561 8.6766 11.6769C8.61044 12.0251 8.5001 12.4272 8.34788 12.875C8.09624 13.615 7.7478 14.4295 7.35623 15.25H7.00001C6.5858 15.25 6.25001 15.5858 6.25001 16C6.25001 16.2864 6.41053 16.5353 6.64651 16.6616C6.01634 17.8596 5.37792 18.9493 4.93604 19.6792C4.39217 20.5776 5.03128 21.75 6.09901 21.75H17.901C18.9687 21.75 19.6079 20.5776 19.064 19.6792C18.6221 18.9493 17.9837 17.8596 17.3535 16.6616C17.5895 16.5353 17.75 16.2864 17.75 16C17.75 15.5858 17.4142 15.25 17 15.25H16.6438C16.2522 14.4295 15.9038 13.615 15.6521 12.875C15.4999 12.4272 15.3896 12.0251 15.3234 11.6769C15.5757 11.5561 15.75 11.2984 15.75 11C15.75 10.6734 15.5413 10.3956 15.25 10.2927V9.75H17.4C18.1456 9.75 18.75 9.14559 18.75 8.4V4.6C18.75 3.85442 18.1456 3.25 17.4 3.25H6.60001ZM13.75 9.75H10.25V10.25H13.75V9.75ZM13.8139 11.75H10.1862C10.1055 12.2619 9.95459 12.8091 9.76803 13.3578C9.56082 13.9672 9.29896 14.6088 9.00995 15.25H14.9901C14.7011 14.6088 14.4392 13.9672 14.232 13.3578C14.0454 12.8091 13.8945 12.2619 13.8139 11.75ZM15.7108 16.75H8.28926C7.59873 18.1113 6.86336 19.3836 6.3434 20.25H17.6566C17.1367 19.3836 16.4013 18.1113 15.7108 16.75Z" fill="black"/>
</g>
</g>
</g>
<defs>
<clipPath id="clip0_232_8271">
<rect width="24" height="24" rx="5" fill="white"/>
</clipPath>
</defs>
</svg>
