<svg width="24" height="24" viewBox="0 0 24 24" fill="none" xmlns="http://www.w3.org/2000/svg">
<g id="rotate-camera-left">
<g clip-path="url(#clip0_232_12291)">
<g id="Weight=Dynamic">
<path id="Vector (Stroke)" fill-rule="evenodd" clip-rule="evenodd" d="M2.80029 6.51976C4.6728 3.36586 8.11382 1.25 12.0503 1.25C17.625 1.25 22.2078 5.49278 22.7472 10.9259C22.7882 11.3381 22.4872 11.7054 22.075 11.7463C21.6628 11.7873 21.2955 11.4863 21.2546 11.0741C20.7906 6.40058 16.8463 2.75 12.0503 2.75C8.36645 2.75 5.18409 4.90341 3.69609 8.02344L3.01914 7.70059M2.80029 6.51976V3C2.80029 2.58579 2.46451 2.25 2.05029 2.25C1.63608 2.25 1.30029 2.58579 1.30029 3V7.49704C1.30029 8.18903 1.86126 8.75 2.55326 8.75C3.05631 8.75 3.49173 8.45196 3.69609 8.02344L3.01914 7.70059M10.3089 6.75L8.90761 8.92485C8.65908 9.31058 8.23163 9.54365 7.77277 9.54365H6.74994V16.25H17.2499V9.54365H16.2271C15.7682 9.54365 15.3408 9.31057 15.0923 8.92485L13.691 6.75H10.3089ZM9.09227 5.8688C9.34081 5.48308 9.76825 5.25 10.2271 5.25H13.7728C14.2316 5.25 14.6591 5.48308 14.9076 5.8688L16.3089 8.04365H17.3999C18.1455 8.04365 18.7499 8.64807 18.7499 9.39365V16.4C18.7499 17.1456 18.1455 17.75 17.3999 17.75H6.59994C5.85436 17.75 5.24994 17.1456 5.24994 16.4V9.39365C5.24994 8.64807 5.85436 8.04365 6.59994 8.04365H7.69098L9.09227 5.8688ZM11.9999 10.75C11.3096 10.75 10.7499 11.3096 10.7499 12C10.7499 12.6904 11.3096 13.25 11.9999 13.25C12.6903 13.25 13.2499 12.6904 13.2499 12C13.2499 11.3096 12.6903 10.75 11.9999 10.75ZM9.24994 12C9.24994 10.4812 10.4812 9.25 11.9999 9.25C13.5187 9.25 14.7499 10.4812 14.7499 12C14.7499 13.5188 13.5187 14.75 11.9999 14.75C10.4812 14.75 9.24994 13.5188 9.24994 12ZM1.97662 12.2537C2.38881 12.2127 2.75613 12.5137 2.79705 12.9259C3.26107 17.5994 7.20535 21.25 12.0013 21.25C15.6852 21.25 18.8675 19.0966 20.3555 15.9766C20.5599 15.548 20.9953 15.25 21.4984 15.25C22.1904 15.25 22.7513 15.811 22.7513 16.503V21C22.7513 21.4142 22.4156 21.75 22.0013 21.75C21.5871 21.75 21.2513 21.4142 21.2513 21V17.4802C19.3788 20.6341 15.9378 22.75 12.0013 22.75C6.42665 22.75 1.84382 18.5072 1.30439 13.0741C1.26347 12.6619 1.56444 12.2946 1.97662 12.2537Z" fill="black"/>
</g>
</g>
</g>
<defs>
<clipPath id="clip0_232_12291">
<rect width="24" height="24" rx="5" fill="white"/>
</clipPath>
</defs>
</svg>
