<svg width="24" height="24" viewBox="0 0 24 24" fill="none" xmlns="http://www.w3.org/2000/svg">
<g id="rotate-camera-right">
<g clip-path="url(#clip0_232_12279)">
<g id="Weight=Dynamic">
<path id="Vector (Stroke)" fill-rule="evenodd" clip-rule="evenodd" d="M12.0023 2.75C7.20633 2.75 3.26204 6.40058 2.79803 11.0741C2.7571 11.4863 2.38979 11.7873 1.9776 11.7463C1.56541 11.7054 1.26444 11.3381 1.30537 10.9259C1.8448 5.49278 6.42762 1.25 12.0023 1.25C15.9388 1.25 19.3798 3.36586 21.2523 6.51976V3C21.2523 2.58579 21.5881 2.25 22.0023 2.25C22.4165 2.25 22.7523 2.58579 22.7523 3V7.49704C22.7523 8.18903 22.1914 8.75 21.4994 8.75C20.9963 8.75 20.5609 8.45196 20.3565 8.02344C18.8685 4.90341 15.6862 2.75 12.0023 2.75ZM10.3089 6.75L8.90761 8.92485C8.65908 9.31058 8.23163 9.54365 7.77277 9.54365H6.74994V16.25H17.2499V9.54365H16.2271C15.7682 9.54365 15.3408 9.31057 15.0923 8.92485L13.691 6.75H10.3089ZM9.09227 5.8688C9.34081 5.48308 9.76825 5.25 10.2271 5.25H13.7728C14.2316 5.25 14.6591 5.48308 14.9076 5.8688L16.3089 8.04365H17.3999C18.1455 8.04365 18.7499 8.64807 18.7499 9.39365V16.4C18.7499 17.1456 18.1455 17.75 17.3999 17.75H6.59994C5.85436 17.75 5.24994 17.1456 5.24994 16.4V9.39365C5.24994 8.64807 5.85436 8.04365 6.59994 8.04365H7.69098L9.09227 5.8688ZM11.9999 10.75C11.3096 10.75 10.7499 11.3096 10.7499 12C10.7499 12.6904 11.3096 13.25 11.9999 13.25C12.6903 13.25 13.2499 12.6904 13.2499 12C13.2499 11.3096 12.6903 10.75 11.9999 10.75ZM9.24994 12C9.24994 10.4812 10.4812 9.25 11.9999 9.25C13.5187 9.25 14.7499 10.4812 14.7499 12C14.7499 13.5188 13.5187 14.75 11.9999 14.75C10.4812 14.75 9.24994 13.5188 9.24994 12ZM22.075 12.2537C22.4872 12.2946 22.7882 12.6619 22.7472 13.0741C22.2078 18.5072 17.625 22.75 12.0503 22.75C8.11382 22.75 4.67279 20.6341 2.80029 17.4802V21C2.80029 21.4142 2.46451 21.75 2.05029 21.75C1.63608 21.75 1.30029 21.4142 1.30029 21V16.503C1.30029 15.811 1.86127 15.25 2.55326 15.25C3.05631 15.25 3.49173 15.548 3.69609 15.9766C5.18409 19.0966 8.36645 21.25 12.0503 21.25C16.8463 21.25 20.7906 17.5994 21.2546 12.9259C21.2955 12.5137 21.6628 12.2127 22.075 12.2537Z" fill="black"/>
</g>
</g>
</g>
<defs>
<clipPath id="clip0_232_12279">
<rect width="24" height="24" rx="5" fill="white"/>
</clipPath>
</defs>
</svg>
