<svg width="24" height="24" viewBox="0 0 24 24" fill="none" xmlns="http://www.w3.org/2000/svg">
<g id="round-flask">
<g clip-path="url(#clip0_232_13552)">
<g id="Weight=Dynamic">
<path id="Vector (Stroke)" fill-rule="evenodd" clip-rule="evenodd" d="M11.5117 1.44144C11.8196 1.71854 11.8446 2.19276 11.5675 2.50064L11.5575 2.51175C11.2804 2.81963 10.8061 2.84458 10.4983 2.56748C10.1904 2.29039 10.1654 1.81617 10.4425 1.50829L10.4525 1.49718C10.7296 1.1893 11.2039 1.16435 11.5117 1.44144ZM7.25 4.00002C7.25 3.58581 7.58579 3.25002 8 3.25002H16C16.4142 3.25002 16.75 3.58581 16.75 4.00002C16.75 4.41423 16.4142 4.75002 16 4.75002H15.75V8.75311C15.75 9.21412 16.023 9.68312 16.4968 10.0017C18.8599 11.5905 20.75 14.3104 20.75 17.4617C20.75 18.344 20.6265 19.198 20.3958 20.0058C20.0712 21.1423 18.9936 21.75 17.949 21.75H6.05096C5.00643 21.75 3.92877 21.1423 3.60419 20.0058C3.37348 19.198 3.25 18.344 3.25 17.4617C3.25 14.3104 5.14014 11.5905 7.50324 10.0017C7.97704 9.68312 8.25 9.21412 8.25 8.75311V4.75002H8C7.58579 4.75002 7.25 4.41423 7.25 4.00002ZM9.75 4.75002V8.75311C9.75 9.81848 9.13307 10.7134 8.34019 11.2465C7.20879 12.0072 6.23428 13.046 5.58722 14.25H18.4128C17.7657 13.046 16.7912 12.0072 15.6598 11.2465C14.8669 10.7134 14.25 9.81848 14.25 8.75311V4.75002H9.75ZM19.0165 15.7498C19.011 15.75 19.0055 15.75 19 15.75H5V15.6906C4.83799 16.261 4.75 16.8545 4.75 17.4617C4.75 18.2036 4.85376 18.919 5.04651 19.5939C5.1508 19.9591 5.53382 20.25 6.05096 20.25H17.949C18.4662 20.25 18.8492 19.9591 18.9535 19.5939C19.1462 18.919 19.25 18.2036 19.25 17.4617C19.25 16.8754 19.168 16.3021 19.0165 15.7498ZM13.5117 6.44144C13.8196 6.71854 13.8446 7.19275 13.5675 7.50063L13.5575 7.51175C13.2804 7.81963 12.8062 7.84458 12.4983 7.56749C12.1904 7.29039 12.1654 6.81617 12.4425 6.50829L12.4525 6.49718C12.7296 6.1893 13.2038 6.16434 13.5117 6.44144Z" fill="black"/>
</g>
</g>
</g>
<defs>
<clipPath id="clip0_232_13552">
<rect width="24" height="24" rx="5" fill="white"/>
</clipPath>
</defs>
</svg>
