<svg width="24" height="24" viewBox="0 0 24 24" fill="none" xmlns="http://www.w3.org/2000/svg">
<g id="rounded-mirror">
<g clip-path="url(#clip0_232_9188)">
<g id="Weight=Dynamic">
<path id="Vector (Stroke)" fill-rule="evenodd" clip-rule="evenodd" d="M3.25 10C3.25 5.16751 7.16751 1.25 12 1.25C16.8325 1.25 20.75 5.16751 20.75 10V14C20.75 18.8325 16.8325 22.75 12 22.75C7.16751 22.75 3.25 18.8325 3.25 14V10ZM12 2.75C7.99594 2.75 4.75 5.99594 4.75 10V14C4.75 18.0041 7.99594 21.25 12 21.25C16.0041 21.25 19.25 18.0041 19.25 14V10C19.25 9.30152 19.1512 8.6261 18.9669 7.98697L11.9685 13.5857C11.6451 13.8444 11.1731 13.792 10.9143 13.4685C10.6556 13.1451 10.708 12.6731 11.0315 12.4143L18.3732 6.54097C18.1489 6.12856 17.8857 5.74034 17.5886 5.38124L13.4605 8.59201C13.1335 8.84632 12.6623 8.78742 12.408 8.46046C12.1537 8.13349 12.2126 7.66229 12.5395 7.40799L16.5079 4.32149C15.2703 3.33772 13.7038 2.75 12 2.75Z" fill="black"/>
</g>
</g>
</g>
<defs>
<clipPath id="clip0_232_9188">
<rect width="24" height="24" rx="5" fill="white"/>
</clipPath>
</defs>
</svg>
