<svg width="24" height="24" viewBox="0 0 24 24" fill="none" xmlns="http://www.w3.org/2000/svg">
<g id="rss-feed-tag">
<g clip-path="url(#clip0_232_14057)">
<g id="Weight=Dynamic">
<path id="Vector (Stroke)" fill-rule="evenodd" clip-rule="evenodd" d="M2.25 8C2.25 4.82436 4.82436 2.25 8 2.25H16C19.1756 2.25 21.75 4.82436 21.75 8V16C21.75 19.1756 19.1756 21.75 16 21.75H8C4.82436 21.75 2.25 19.1756 2.25 16V8ZM8 3.75C5.65279 3.75 3.75 5.65279 3.75 8V16C3.75 18.3472 5.65279 20.25 8 20.25H16C18.3472 20.25 20.25 18.3472 20.25 16V8C20.25 5.65279 18.3472 3.75 16 3.75H8ZM6.25 7C6.25 6.58579 6.58579 6.25 7 6.25C10.1704 6.25 12.8707 7.31008 14.7803 9.21967C16.6899 11.1293 17.75 13.8296 17.75 17C17.75 17.4142 17.4142 17.75 17 17.75C16.5858 17.75 16.25 17.4142 16.25 17C16.25 14.1704 15.3101 11.8707 13.7197 10.2803C12.1293 8.68991 9.82956 7.75 7 7.75C6.58579 7.75 6.25 7.41421 6.25 7ZM6.25 12C6.25 11.5858 6.58579 11.25 7 11.25C8.67044 11.25 10.1207 11.8101 11.1553 12.8447C12.1899 13.8793 12.75 15.3296 12.75 17C12.75 17.4142 12.4142 17.75 12 17.75C11.5858 17.75 11.25 17.4142 11.25 17C11.25 15.6704 10.8101 14.6207 10.0947 13.9053C9.37925 13.1899 8.32956 12.75 7 12.75C6.58579 12.75 6.25 12.4142 6.25 12ZM7.51173 16.4414C7.81961 16.7185 7.84456 17.1927 7.56747 17.5006L7.55747 17.5117C7.28037 17.8196 6.80616 17.8446 6.49827 17.5675C6.19039 17.2904 6.16544 16.8162 6.44253 16.5083L6.45253 16.4972C6.72963 16.1893 7.20385 16.1643 7.51173 16.4414Z" fill="black"/>
</g>
</g>
</g>
<defs>
<clipPath id="clip0_232_14057">
<rect width="24" height="24" rx="5" fill="white"/>
</clipPath>
</defs>
</svg>
