<svg width="24" height="24" viewBox="0 0 24 24" fill="none" xmlns="http://www.w3.org/2000/svg">
<g id="rss-feed">
<g clip-path="url(#clip0_232_14029)">
<g id="Weight=Dynamic">
<path id="Vector (Stroke)" fill-rule="evenodd" clip-rule="evenodd" d="M4.25001 5C4.25001 4.58579 4.58579 4.25 5.00001 4.25C9.37044 4.25 13.0708 5.71009 15.6803 8.31967C18.2899 10.9293 19.75 14.6296 19.75 19C19.75 19.4142 19.4142 19.75 19 19.75C18.5858 19.75 18.25 19.4142 18.25 19C18.25 14.9704 16.9101 11.6707 14.6197 9.38033C12.3293 7.08992 9.02957 5.75 5.00001 5.75C4.58579 5.75 4.25001 5.41421 4.25001 5ZM4.25001 12C4.25001 11.5858 4.58579 11.25 5.00001 11.25C7.27044 11.25 9.22075 12.0101 10.6053 13.3947C11.9899 14.7793 12.75 16.7296 12.75 19C12.75 19.4142 12.4142 19.75 12 19.75C11.5858 19.75 11.25 19.4142 11.25 19C11.25 17.0704 10.6101 15.5207 9.54468 14.4553C8.47926 13.3899 6.92957 12.75 5.00001 12.75C4.58579 12.75 4.25001 12.4142 4.25001 12ZM5.51173 18.4414C5.81961 18.7185 5.84457 19.1927 5.56748 19.5006L5.55748 19.5117C5.28039 19.8196 4.80617 19.8446 4.49829 19.5675C4.1904 19.2904 4.16544 18.8162 4.44253 18.5083L4.45253 18.4972C4.72962 18.1893 5.20384 18.1643 5.51173 18.4414Z" fill="black"/>
</g>
</g>
</g>
<defs>
<clipPath id="clip0_232_14029">
<rect width="24" height="24" rx="5" fill="white"/>
</clipPath>
</defs>
</svg>
