<svg width="24" height="24" viewBox="0 0 24 24" fill="none" xmlns="http://www.w3.org/2000/svg">
<g id="rubik-cube">
<g clip-path="url(#clip0_232_13949)">
<g id="Weight=Dynamic">
<path id="Vector (Stroke)" fill-rule="evenodd" clip-rule="evenodd" d="M2.25 3.6C2.25 2.85442 2.85442 2.25 3.6 2.25H20.4C21.1456 2.25 21.75 2.85442 21.75 3.6V20.4C21.75 21.1456 21.1456 21.75 20.4 21.75H3.6C2.85442 21.75 2.25 21.1456 2.25 20.4V3.6ZM3.75 9.75V14.25H8.25V9.75H3.75ZM8.25 8.25H3.75V3.75H8.25V8.25ZM9.75 9.75V14.25H14.25V9.75H9.75ZM14.25 8.25H9.75V3.75H14.25V8.25ZM15.75 9.75V14.25H20.25V9.75H15.75ZM20.25 8.25H15.75V3.75H20.25V8.25ZM20.25 15.75H15.75V20.25H20.25V15.75ZM14.25 20.25V15.75H9.75V20.25H14.25ZM8.25 20.25V15.75H3.75V20.25H8.25Z" fill="black"/>
</g>
</g>
</g>
<defs>
<clipPath id="clip0_232_13949">
<rect width="24" height="24" rx="5" fill="white"/>
</clipPath>
</defs>
</svg>
