<svg width="24" height="24" viewBox="0 0 24 24" fill="none" xmlns="http://www.w3.org/2000/svg">
<g id="ruler-arrows">
<g clip-path="url(#clip0_232_4995)">
<g id="Weight=Dynamic">
<path id="Vector (Stroke)" fill-rule="evenodd" clip-rule="evenodd" d="M7.25 2.6C7.25 1.85442 7.85441 1.25 8.6 1.25H15.4C16.1456 1.25 16.75 1.85442 16.75 2.6V11.25H21.1893L20.4697 10.5303C20.1768 10.2374 20.1768 9.76256 20.4697 9.46967C20.7626 9.17678 21.2374 9.17678 21.5303 9.46967L23.5303 11.4697C23.8232 11.7626 23.8232 12.2374 23.5303 12.5303L21.5303 14.5303C21.2374 14.8232 20.7626 14.8232 20.4697 14.5303C20.1768 14.2374 20.1768 13.7626 20.4697 13.4697L21.1893 12.75H16.75V21.4C16.75 22.1456 16.1456 22.75 15.4 22.75H8.6C7.85441 22.75 7.25 22.1456 7.25 21.4V12.75H2.81066L3.53033 13.4697C3.82322 13.7626 3.82322 14.2374 3.53033 14.5303C3.23744 14.8232 2.76256 14.8232 2.46967 14.5303L0.46967 12.5303C0.176777 12.2374 0.176777 11.7626 0.46967 11.4697L2.46967 9.46967C2.76256 9.17678 3.23744 9.17678 3.53033 9.46967C3.82322 9.76256 3.82322 10.2374 3.53033 10.5303L2.81066 11.25H7.25V2.6ZM8.75 21.25H15.25V17.75H13C12.5858 17.75 12.25 17.4142 12.25 17C12.25 16.5858 12.5858 16.25 13 16.25H15.25V12.75H13C12.5858 12.75 12.25 12.4142 12.25 12C12.25 11.5858 12.5858 11.25 13 11.25H15.25V7.75H13C12.5858 7.75 12.25 7.41421 12.25 7C12.25 6.58579 12.5858 6.25 13 6.25H15.25V2.75H8.75V21.25Z" fill="black"/>
</g>
</g>
</g>
<defs>
<clipPath id="clip0_232_4995">
<rect width="24" height="24" rx="5" fill="white"/>
</clipPath>
</defs>
</svg>
