<svg width="24" height="24" viewBox="0 0 24 24" fill="none" xmlns="http://www.w3.org/2000/svg">
<g id="ruler-combine">
<g clip-path="url(#clip0_232_5015)">
<g id="Weight=Dynamic">
<path id="Vector (Stroke)" fill-rule="evenodd" clip-rule="evenodd" d="M2.75 2.75V21.25H9.25V16.75H7C6.58579 16.75 6.25 16.4142 6.25 16C6.25 15.5858 6.58579 15.25 7 15.25H9.25V10.75H7C6.58579 10.75 6.25 10.4142 6.25 10C6.25 9.58579 6.58579 9.25 7 9.25H9.25V7C9.25 6.58579 9.58579 6.25 10 6.25C10.4142 6.25 10.75 6.58579 10.75 7V9.25H15.25V7C15.25 6.58579 15.5858 6.25 16 6.25C16.4142 6.25 16.75 6.58579 16.75 7V9.25H21.25V2.75H2.75ZM21.4 10.75C22.1456 10.75 22.75 10.1456 22.75 9.4V2.6C22.75 1.85442 22.1456 1.25 21.4 1.25H2.6C1.85442 1.25 1.25 1.85441 1.25 2.6V21.4C1.25 22.1456 1.85442 22.75 2.6 22.75H9.4C10.1456 22.75 10.75 22.1456 10.75 21.4V10.75H21.4Z" fill="black"/>
</g>
</g>
</g>
<defs>
<clipPath id="clip0_232_5015">
<rect width="24" height="24" rx="5" fill="white"/>
</clipPath>
</defs>
</svg>
