<svg width="24" height="24" viewBox="0 0 24 24" fill="none" xmlns="http://www.w3.org/2000/svg">
<g id="ruler-plus">
<g clip-path="url(#clip0_232_4979)">
<g id="Weight=Dynamic">
<path id="Vector (Stroke)" fill-rule="evenodd" clip-rule="evenodd" d="M3.75 2.75V21.25H10.25V17.75H8C7.58579 17.75 7.25 17.4142 7.25 17C7.25 16.5858 7.58579 16.25 8 16.25H10.25V12.75H8C7.58579 12.75 7.25 12.4142 7.25 12C7.25 11.5858 7.58579 11.25 8 11.25H10.25V7.75H8C7.58579 7.75 7.25 7.41421 7.25 7C7.25 6.58579 7.58579 6.25 8 6.25H10.25V2.75H3.75ZM2.25 2.6C2.25 1.85442 2.85442 1.25 3.6 1.25H10.4C11.1456 1.25 11.75 1.85442 11.75 2.6V21.4C11.75 22.1456 11.1456 22.75 10.4 22.75H3.6C2.85442 22.75 2.25 22.1456 2.25 21.4V2.6ZM18 1.25C18.4142 1.25 18.75 1.58579 18.75 2V4.25H21C21.4142 4.25 21.75 4.58579 21.75 5C21.75 5.41421 21.4142 5.75 21 5.75H18.75V8C18.75 8.41421 18.4142 8.75 18 8.75C17.5858 8.75 17.25 8.41421 17.25 8V5.75H15C14.5858 5.75 14.25 5.41421 14.25 5C14.25 4.58579 14.5858 4.25 15 4.25H17.25V2C17.25 1.58579 17.5858 1.25 18 1.25Z" fill="black"/>
</g>
</g>
</g>
<defs>
<clipPath id="clip0_232_4979">
<rect width="24" height="24" rx="5" fill="white"/>
</clipPath>
</defs>
</svg>
