<svg width="24" height="24" viewBox="0 0 24 24" fill="none" xmlns="http://www.w3.org/2000/svg">
<g id="ruler">
<g clip-path="url(#clip0_232_5009)">
<g id="Weight=Dynamic">
<path id="Vector (Stroke)" fill-rule="evenodd" clip-rule="evenodd" d="M8.75 2.75V21.25H15.25V17.75H13C12.5858 17.75 12.25 17.4142 12.25 17C12.25 16.5858 12.5858 16.25 13 16.25H15.25V12.75H13C12.5858 12.75 12.25 12.4142 12.25 12C12.25 11.5858 12.5858 11.25 13 11.25H15.25V7.75H13C12.5858 7.75 12.25 7.41421 12.25 7C12.25 6.58579 12.5858 6.25 13 6.25H15.25V2.75H8.75ZM7.25 2.6C7.25 1.85442 7.85442 1.25 8.6 1.25H15.4C16.1456 1.25 16.75 1.85442 16.75 2.6V21.4C16.75 22.1456 16.1456 22.75 15.4 22.75H8.6C7.85442 22.75 7.25 22.1456 7.25 21.4V2.6Z" fill="black"/>
</g>
</g>
</g>
<defs>
<clipPath id="clip0_232_5009">
<rect width="24" height="24" rx="5" fill="white"/>
</clipPath>
</defs>
</svg>
