<svg width="24" height="24" viewBox="0 0 24 24" fill="none" xmlns="http://www.w3.org/2000/svg">
<g id="running">
<g clip-path="url(#clip0_232_1651)">
<g id="Weight=Dynamic">
<path id="Vector (Stroke)" fill-rule="evenodd" clip-rule="evenodd" d="M15 3.75C14.3096 3.75 13.75 4.30964 13.75 5C13.75 5.69036 14.3096 6.25 15 6.25C15.6904 6.25 16.25 5.69036 16.25 5C16.25 4.30964 15.6904 3.75 15 3.75ZM12.25 5C12.25 3.48122 13.4812 2.25 15 2.25C16.5188 2.25 17.75 3.48122 17.75 5C17.75 6.51878 16.5188 7.75 15 7.75C13.4812 7.75 12.25 6.51878 12.25 5ZM9.27322 5.66281C9.53577 5.40637 9.94533 5.37759 10.2412 5.5948L13.0571 7.66236C13.1012 7.69474 13.1416 7.73185 13.1777 7.77303L15.8483 10.8252H19.2297C19.6439 10.8252 19.9797 11.161 19.9797 11.5752C19.9797 11.9894 19.6439 12.3252 19.2297 12.3252H15.508C15.2917 12.3252 15.086 12.2318 14.9436 12.0691L12.639 9.43529L10.31 12.3465L13.9705 16.007C14.1916 16.2281 14.2524 16.5631 14.123 16.8477L12.0554 21.3965C11.884 21.7736 11.4393 21.9403 11.0623 21.7689C10.6852 21.5975 10.5184 21.1528 10.6898 20.7758L12.5424 16.7002L8.77466 12.9325C8.50443 12.6622 8.48061 12.232 8.71934 11.9336L11.5392 8.4088L9.86622 7.18041L6.93446 10.0441C6.63815 10.3335 6.1633 10.3279 5.87387 10.0316C5.58444 9.73528 5.59002 9.26044 5.88634 8.97101L9.27322 5.66281ZM9.51556 15.2943C9.74532 15.6389 9.65219 16.1046 9.30755 16.3344L8.06698 17.1614C7.94378 17.2435 7.79902 17.2874 7.65096 17.2874H4.34277C3.92856 17.2874 3.59277 16.9516 3.59277 16.5374C3.59277 16.1232 3.92856 15.7874 4.34277 15.7874H7.42387L8.4755 15.0863C8.82014 14.8565 9.2858 14.9497 9.51556 15.2943Z" fill="black"/>
</g>
</g>
</g>
<defs>
<clipPath id="clip0_232_1651">
<rect width="24" height="24" rx="5" fill="white"/>
</clipPath>
</defs>
</svg>
