<svg width="24" height="24" viewBox="0 0 24 24" fill="none" xmlns="http://www.w3.org/2000/svg">
<g id="safari">
<g clip-path="url(#clip0_232_14924)">
<g id="Weight=Dynamic">
<path id="Vector (Stroke)" fill-rule="evenodd" clip-rule="evenodd" d="M12 2.75C6.89137 2.75 2.75 6.89137 2.75 12C2.75 17.1086 6.89137 21.25 12 21.25C17.1086 21.25 21.25 17.1086 21.25 12C21.25 6.89137 17.1086 2.75 12 2.75ZM1.25 12C1.25 6.06294 6.06294 1.25 12 1.25C17.9371 1.25 22.75 6.06294 22.75 12C22.75 17.9371 17.9371 22.75 12 22.75C6.06294 22.75 1.25 17.9371 1.25 12ZM12 4.25C12.4142 4.25 12.75 4.58579 12.75 5V6C12.75 6.41421 12.4142 6.75 12 6.75C11.5858 6.75 11.25 6.41421 11.25 6V5C11.25 4.58579 11.5858 4.25 12 4.25ZM17.4797 6.51963C17.7165 6.75641 17.7676 7.12147 17.605 7.41419L14.0695 13.7781C14.0014 13.9006 13.9005 14.0015 13.7781 14.0695L7.41411 17.6051C7.12139 17.7677 6.75633 17.7166 6.51955 17.4798C6.28276 17.243 6.23163 16.8779 6.39426 16.5852L9.92979 10.2213C9.99781 10.0988 10.0987 9.99789 10.2212 9.92987L16.5851 6.39434C16.8779 6.23172 17.2429 6.28284 17.4797 6.51963ZM6.52045 6.51996C6.81334 6.22707 7.28822 6.22707 7.58111 6.51996L8.28822 7.22707C8.58111 7.51996 8.58111 7.99484 8.28822 8.28773C7.99532 8.58062 7.52045 8.58062 7.22756 8.28773L6.52045 7.58062C6.22756 7.28773 6.22756 6.81286 6.52045 6.51996ZM10.7582 11.8189L8.98031 15.019L12.1804 13.2412L10.7582 11.8189ZM13.2411 12.1805L11.8188 10.7582L15.0189 8.98039L13.2411 12.1805ZM4.25 12C4.25 11.5858 4.58579 11.25 5 11.25H6C6.41421 11.25 6.75 11.5858 6.75 12C6.75 12.4142 6.41421 12.75 6 12.75H5C4.58579 12.75 4.25 12.4142 4.25 12ZM17.25 12C17.25 11.5858 17.5858 11.25 18 11.25H19C19.4142 11.25 19.75 11.5858 19.75 12C19.75 12.4142 19.4142 12.75 19 12.75H18C17.5858 12.75 17.25 12.4142 17.25 12ZM15.7128 15.7124C16.0057 15.4195 16.4806 15.4195 16.7735 15.7124L17.4806 16.4195C17.7735 16.7124 17.7735 17.1872 17.4806 17.4801C17.1877 17.773 16.7128 17.773 16.4199 17.4801L15.7128 16.773C15.4199 16.4801 15.4199 16.0052 15.7128 15.7124ZM12 17.25C12.4142 17.25 12.75 17.5858 12.75 18V19C12.75 19.4142 12.4142 19.75 12 19.75C11.5858 19.75 11.25 19.4142 11.25 19V18C11.25 17.5858 11.5858 17.25 12 17.25Z" fill="black"/>
</g>
</g>
</g>
<defs>
<clipPath id="clip0_232_14924">
<rect width="24" height="24" rx="5" fill="white"/>
</clipPath>
</defs>
</svg>
