<svg width="24" height="24" viewBox="0 0 24 24" fill="none" xmlns="http://www.w3.org/2000/svg">
<g id="safe-open">
<g clip-path="url(#clip0_232_7179)">
<g id="Weight=Dynamic">
<path id="Vector (Stroke)" fill-rule="evenodd" clip-rule="evenodd" d="M5 3.75C4.30964 3.75 3.75 4.30964 3.75 5V19C3.75 19.6904 4.30964 20.25 5 20.25H13C13.6904 20.25 14.25 19.6904 14.25 19V5C14.25 4.30964 13.6904 3.75 13 3.75H5ZM15.4501 3.75C15.6419 4.12503 15.75 4.54989 15.75 5V19C15.75 19.4501 15.6419 19.875 15.4501 20.25H19C19.6904 20.25 20.25 19.6904 20.25 19V5C20.25 4.30964 19.6904 3.75 19 3.75H15.4501ZM19 21.75C20.5188 21.75 21.75 20.5188 21.75 19V5C21.75 3.48122 20.5188 2.25 19 2.25H5C3.48122 2.25 2.25 3.48122 2.25 5V5.25H2C1.58579 5.25 1.25 5.58579 1.25 6C1.25 6.41421 1.58579 6.75 2 6.75H2.25V7.25H2C1.58579 7.25 1.25 7.58579 1.25 8C1.25 8.41421 1.58579 8.75 2 8.75H2.25V15.25H2C1.58579 15.25 1.25 15.5858 1.25 16C1.25 16.4142 1.58579 16.75 2 16.75H2.25V17.25H2C1.58579 17.25 1.25 17.5858 1.25 18C1.25 18.4142 1.58579 18.75 2 18.75H2.25V19C2.25 20.5188 3.48122 21.75 5 21.75H19ZM4.96967 7.96967C5.26256 7.67678 5.73744 7.67678 6.03033 7.96967L6.597 8.53634C6.85207 8.36174 7.1525 8.25 7.5 8.25C7.8475 8.25 8.14793 8.36174 8.403 8.53634L8.96967 7.96967C9.26256 7.67678 9.73744 7.67678 10.0303 7.96967C10.3232 8.26256 10.3232 8.73744 10.0303 9.03033L9.32232 9.73834C9.59858 10.376 9.75 11.1675 9.75 12C9.75 12.8325 9.59858 13.624 9.32232 14.2617L10.0303 14.9697C10.3232 15.2626 10.3232 15.7374 10.0303 16.0303C9.73744 16.3232 9.26256 16.3232 8.96967 16.0303L8.403 15.4637C8.14793 15.6383 7.8475 15.75 7.5 15.75C7.1525 15.75 6.85207 15.6383 6.597 15.4637L6.03033 16.0303C5.73744 16.3232 5.26256 16.3232 4.96967 16.0303C4.67678 15.7374 4.67678 15.2626 4.96967 14.9697L5.67768 14.2617C5.40142 13.624 5.25 12.8325 5.25 12C5.25 11.1675 5.40142 10.376 5.67768 9.73834L4.96967 9.03033C4.67678 8.73744 4.67678 8.26256 4.96967 7.96967ZM7.11016 10.2141C6.90101 10.6324 6.75 11.2628 6.75 12C6.75 12.7372 6.90101 13.3676 7.11016 13.7859C7.21463 13.9949 7.31965 14.1232 7.40051 14.1916C7.43921 14.2244 7.46696 14.2389 7.48177 14.2449C7.48908 14.2479 7.4937 14.2491 7.49592 14.2495C7.49804 14.25 7.4992 14.25 7.5 14.25C7.5008 14.25 7.50196 14.25 7.50408 14.2495C7.5063 14.2491 7.51092 14.2479 7.51823 14.2449C7.53304 14.2389 7.56079 14.2244 7.59949 14.1916C7.68035 14.1232 7.78537 13.9949 7.88984 13.7859C8.09899 13.3676 8.25 12.7372 8.25 12C8.25 11.2628 8.09899 10.6324 7.88984 10.2141C7.78537 10.0051 7.68035 9.87676 7.59949 9.80836C7.56079 9.77563 7.53304 9.76113 7.51823 9.75507C7.51092 9.75208 7.5063 9.75093 7.50408 9.75048C7.50196 9.75005 7.5008 9.75 7.5 9.75C7.4992 9.75 7.49804 9.75005 7.49592 9.75048C7.4937 9.75093 7.48908 9.75208 7.48177 9.75507C7.46696 9.76113 7.43921 9.77563 7.40051 9.80836C7.31965 9.87676 7.21463 10.0051 7.11016 10.2141ZM13 9.25C13.4142 9.25 13.75 9.58579 13.75 10V14C13.75 14.4142 13.4142 14.75 13 14.75C12.5858 14.75 12.25 14.4142 12.25 14V10C12.25 9.58579 12.5858 9.25 13 9.25Z" fill="black"/>
</g>
</g>
</g>
<defs>
<clipPath id="clip0_232_7179">
<rect width="24" height="24" rx="5" fill="white"/>
</clipPath>
</defs>
</svg>
