<svg width="24" height="24" viewBox="0 0 24 24" fill="none" xmlns="http://www.w3.org/2000/svg">
<g id="safe-arrow-left">
<g clip-path="url(#clip0_232_7207)">
<g id="Weight=Dynamic">
<path id="Vector (Stroke)" fill-rule="evenodd" clip-rule="evenodd" d="M5 3.75C4.30964 3.75 3.75 4.30964 3.75 5V19C3.75 19.6904 4.30964 20.25 5 20.25H12C12.6904 20.25 13.25 19.6904 13.25 19V5C13.25 4.30964 12.6904 3.75 12 3.75H5ZM14.4501 3.75H19C19.6904 3.75 20.25 4.30964 20.25 5V5.5C20.25 5.91421 20.5858 6.25 21 6.25C21.4142 6.25 21.75 5.91421 21.75 5.5V5C21.75 3.48122 20.5188 2.25 19 2.25H5C3.48122 2.25 2.25 3.48122 2.25 5V5.25H2C1.58579 5.25 1.25 5.58579 1.25 6C1.25 6.41421 1.58579 6.75 2 6.75H2.25V7.25H2C1.58579 7.25 1.25 7.58579 1.25 8C1.25 8.41421 1.58579 8.75 2 8.75H2.25V15.25H2C1.58579 15.25 1.25 15.5858 1.25 16C1.25 16.4142 1.58579 16.75 2 16.75H2.25V17.25H2C1.58579 17.25 1.25 17.5858 1.25 18C1.25 18.4142 1.58579 18.75 2 18.75H2.25V19C2.25 20.5188 3.48122 21.75 5 21.75H19C20.5188 21.75 21.75 20.5188 21.75 19V18.5C21.75 18.0858 21.4142 17.75 21 17.75C20.5858 17.75 20.25 18.0858 20.25 18.5V19C20.25 19.6904 19.6904 20.25 19 20.25H14.4501C14.6419 19.875 14.75 19.4501 14.75 19V12.8107L17.9697 16.0303C18.2626 16.3232 18.7374 16.3232 19.0303 16.0303C19.3232 15.7374 19.3232 15.2626 19.0303 14.9697L16.8107 12.75H22C22.4142 12.75 22.75 12.4142 22.75 12C22.75 11.5858 22.4142 11.25 22 11.25H16.8107L19.0303 9.03033C19.3232 8.73744 19.3232 8.26256 19.0303 7.96967C18.7374 7.67678 18.2626 7.67678 17.9697 7.96967L14.75 11.1893V5C14.75 4.54989 14.6419 4.12503 14.4501 3.75ZM5.96967 7.96967C6.26256 7.67678 6.73744 7.67678 7.03033 7.96967L7.597 8.53634C7.85207 8.36174 8.1525 8.25 8.5 8.25C8.8475 8.25 9.14793 8.36174 9.403 8.53634L9.96967 7.96967C10.2626 7.67678 10.7374 7.67678 11.0303 7.96967C11.3232 8.26256 11.3232 8.73744 11.0303 9.03033L10.3223 9.73834C10.5986 10.376 10.75 11.1675 10.75 12C10.75 12.8325 10.5986 13.624 10.3223 14.2617L11.0303 14.9697C11.3232 15.2626 11.3232 15.7374 11.0303 16.0303C10.7374 16.3232 10.2626 16.3232 9.96967 16.0303L9.403 15.4637C9.14793 15.6383 8.8475 15.75 8.5 15.75C8.1525 15.75 7.85207 15.6383 7.597 15.4637L7.03033 16.0303C6.73744 16.3232 6.26256 16.3232 5.96967 16.0303C5.67678 15.7374 5.67678 15.2626 5.96967 14.9697L6.67768 14.2617C6.40142 13.624 6.25 12.8325 6.25 12C6.25 11.1675 6.40142 10.376 6.67768 9.73834L5.96967 9.03033C5.67678 8.73744 5.67678 8.26256 5.96967 7.96967ZM8.11016 10.2141C7.90101 10.6324 7.75 11.2628 7.75 12C7.75 12.7372 7.90101 13.3676 8.11016 13.7859C8.21463 13.9949 8.31965 14.1232 8.40051 14.1916C8.43921 14.2244 8.46696 14.2389 8.48177 14.2449C8.48908 14.2479 8.4937 14.2491 8.49592 14.2495C8.49804 14.25 8.4992 14.25 8.5 14.25C8.5008 14.25 8.50196 14.25 8.50408 14.2495C8.5063 14.2491 8.51092 14.2479 8.51823 14.2449C8.53304 14.2389 8.56079 14.2244 8.59949 14.1916C8.68035 14.1232 8.78537 13.9949 8.88984 13.7859C9.09899 13.3676 9.25 12.7372 9.25 12C9.25 11.2628 9.09899 10.6324 8.88984 10.2141C8.78537 10.0051 8.68035 9.87676 8.59949 9.80836C8.56079 9.77563 8.53304 9.76113 8.51823 9.75507C8.51092 9.75208 8.5063 9.75093 8.50408 9.75048C8.50196 9.75005 8.5008 9.75 8.5 9.75C8.4992 9.75 8.49804 9.75005 8.49592 9.75048C8.4937 9.75093 8.48908 9.75208 8.48177 9.75507C8.46696 9.76113 8.43921 9.77563 8.40051 9.80836C8.31965 9.87676 8.21463 10.0051 8.11016 10.2141Z" fill="black"/>
</g>
</g>
</g>
<defs>
<clipPath id="clip0_232_7207">
<rect width="24" height="24" rx="5" fill="white"/>
</clipPath>
</defs>
</svg>
