<svg width="24" height="24" viewBox="0 0 24 24" fill="none" xmlns="http://www.w3.org/2000/svg">
<g id="safe">
<g clip-path="url(#clip0_232_7153)">
<g id="Weight=Dynamic">
<path id="Vector (Stroke)" fill-rule="evenodd" clip-rule="evenodd" d="M5 3.75C4.30964 3.75 3.75 4.30964 3.75 5V19C3.75 19.6904 4.30964 20.25 5 20.25H19C19.6904 20.25 20.25 19.6904 20.25 19V5C20.25 4.30964 19.6904 3.75 19 3.75H5ZM2.25 18.75V19C2.25 20.5188 3.48122 21.75 5 21.75H19C20.5188 21.75 21.75 20.5188 21.75 19V5C21.75 3.48122 20.5188 2.25 19 2.25H5C3.48122 2.25 2.25 3.48122 2.25 5V5.25H2C1.58579 5.25 1.25 5.58579 1.25 6C1.25 6.41421 1.58579 6.75 2 6.75H2.25V7.25H2C1.58579 7.25 1.25 7.58579 1.25 8C1.25 8.41421 1.58579 8.75 2 8.75H2.25V15.25H2C1.58579 15.25 1.25 15.5858 1.25 16C1.25 16.4142 1.58579 16.75 2 16.75H2.25V17.25H2C1.58579 17.25 1.25 17.5858 1.25 18C1.25 18.4142 1.58579 18.75 2 18.75H2.25ZM5.96967 7.96967C6.26256 7.67678 6.73744 7.67678 7.03033 7.96967L7.93196 8.8713C8.52478 8.47866 9.23569 8.25 10 8.25C10.7643 8.25 11.4752 8.47866 12.068 8.8713L12.9697 7.96967C13.2626 7.67678 13.7374 7.67678 14.0303 7.96967C14.3232 8.26256 14.3232 8.73744 14.0303 9.03033L13.1287 9.93196C13.5213 10.5248 13.75 11.2357 13.75 12C13.75 12.7643 13.5213 13.4752 13.1287 14.068L14.0303 14.9697C14.3232 15.2626 14.3232 15.7374 14.0303 16.0303C13.7374 16.3232 13.2626 16.3232 12.9697 16.0303L12.068 15.1287C11.4752 15.5213 10.7643 15.75 10 15.75C9.23569 15.75 8.52478 15.5213 7.93196 15.1287L7.03033 16.0303C6.73744 16.3232 6.26256 16.3232 5.96967 16.0303C5.67678 15.7374 5.67678 15.2626 5.96967 14.9697L6.8713 14.068C6.47866 13.4752 6.25 12.7643 6.25 12C6.25 11.2357 6.47866 10.5248 6.8713 9.93196L5.96967 9.03033C5.67678 8.73744 5.67678 8.26256 5.96967 7.96967ZM10 9.75C8.75736 9.75 7.75 10.7574 7.75 12C7.75 13.2426 8.75736 14.25 10 14.25C11.2426 14.25 12.25 13.2426 12.25 12C12.25 10.7574 11.2426 9.75 10 9.75ZM18 9.25C18.4142 9.25 18.75 9.58579 18.75 10V14C18.75 14.4142 18.4142 14.75 18 14.75C17.5858 14.75 17.25 14.4142 17.25 14V10C17.25 9.58579 17.5858 9.25 18 9.25Z" fill="black"/>
</g>
</g>
</g>
<defs>
<clipPath id="clip0_232_7153">
<rect width="24" height="24" rx="5" fill="white"/>
</clipPath>
</defs>
</svg>
