<svg width="24" height="24" viewBox="0 0 24 24" fill="none" xmlns="http://www.w3.org/2000/svg">
<g id="sandals">
<g clip-path="url(#clip0_232_2602)">
<g id="Weight=Dynamic">
<path id="Vector (Stroke)" fill-rule="evenodd" clip-rule="evenodd" d="M3.07242 2.9933C3.80256 2.52601 4.76259 2.25 6.00018 2.25C7.23776 2.25 8.19779 2.52601 8.92793 2.9933C9.65962 3.46157 10.1074 4.08802 10.3748 4.69939C10.6392 5.30377 10.7296 5.89633 10.7565 6.32823C10.7702 6.54638 10.768 6.72973 10.7621 6.86159C10.7592 6.92768 10.7553 6.98132 10.7518 7.02047C10.7501 7.04005 10.7485 7.05606 10.7472 7.06823L9.94729 18.2672C9.80712 20.2296 8.17421 21.75 6.20682 21.75H5.79354C3.82614 21.75 2.19324 20.2296 2.05306 18.2672L1.25316 7.06855C1.25186 7.05638 1.25023 7.04005 1.24852 7.02047C1.24509 6.98132 1.24118 6.92768 1.23823 6.86159C1.23234 6.72973 1.23018 6.54638 1.24381 6.32823C1.2708 5.89633 1.36112 5.30377 1.62553 4.69939C1.893 4.08802 2.34074 3.46157 3.07242 2.9933ZM2.80566 7.75L2.9128 9.25H9.08755L9.19469 7.75H2.80566ZM9.24478 6.25C9.2137 5.96369 9.14386 5.6281 9.00058 5.30061C8.83056 4.91198 8.55955 4.53843 8.11936 4.2567C7.67762 3.97399 7.01263 3.75 6.00018 3.75C4.98773 3.75 4.32274 3.97399 3.881 4.2567C3.4408 4.53843 3.16979 4.91198 2.99977 5.30061C2.8565 5.6281 2.78665 5.96369 2.75557 6.25H9.24478ZM8.98041 10.75H3.01995L3.54925 18.1603C3.63336 19.3377 4.6131 20.25 5.79354 20.25H6.20682C7.38726 20.25 8.367 19.3377 8.4511 18.1603L8.98041 10.75ZM2.74483 6.91061C2.74484 6.91074 2.74485 6.91082 2.74483 6.91061V6.91061ZM15.0724 2.9933C15.8026 2.52601 16.7626 2.25 18.0002 2.25C19.2378 2.25 20.1978 2.52601 20.9279 2.9933C21.6596 3.46157 22.1074 4.08802 22.3748 4.69939C22.6392 5.30377 22.7296 5.89633 22.7565 6.32823C22.7702 6.54638 22.768 6.72973 22.7621 6.86159C22.7592 6.92768 22.7553 6.98132 22.7518 7.02047C22.7501 7.04005 22.7485 7.05606 22.7472 7.06823L21.9473 18.2672C21.8071 20.2296 20.1742 21.75 18.2068 21.75H17.7935C15.8261 21.75 14.1932 20.2296 14.0531 18.2672L13.2532 7.06856C13.2519 7.05639 13.2502 7.04005 13.2485 7.02047C13.2451 6.98132 13.2412 6.92768 13.2382 6.86159C13.2323 6.72973 13.2302 6.54638 13.2438 6.32823C13.2708 5.89633 13.3611 5.30377 13.6255 4.69939C13.893 4.08802 14.3407 3.46157 15.0724 2.9933ZM14.8057 7.75L14.9128 9.25H21.0876L21.1947 7.75H14.8057ZM21.2448 6.25C21.2137 5.96369 21.1439 5.6281 21.0006 5.30061C20.8306 4.91198 20.5596 4.53843 20.1194 4.2567C19.6776 3.97399 19.0126 3.75 18.0002 3.75C16.9877 3.75 16.3227 3.97399 15.881 4.2567C15.4408 4.53843 15.1698 4.91198 14.9998 5.30061C14.8565 5.6281 14.7867 5.96369 14.7556 6.25H21.2448ZM14.7448 6.91061C14.7448 6.91072 14.7448 6.91073 14.7448 6.91061V6.91061ZM20.9804 10.75H15.0199L15.5493 18.1603C15.6334 19.3377 16.6131 20.25 17.7935 20.25H18.2068C19.3873 20.25 20.367 19.3377 20.4511 18.1603L20.9804 10.75Z" fill="black"/>
</g>
</g>
</g>
<defs>
<clipPath id="clip0_232_2602">
<rect width="24" height="24" rx="5" fill="white"/>
</clipPath>
</defs>
</svg>
