<svg width="24" height="24" viewBox="0 0 24 24" fill="none" xmlns="http://www.w3.org/2000/svg">
<g id="scale-frame-enlarge">
<g clip-path="url(#clip0_232_4885)">
<g id="Weight=Dynamic">
<path id="Vector (Stroke)" fill-rule="evenodd" clip-rule="evenodd" d="M2.25 3.6C2.25 2.85442 2.85442 2.25 3.6 2.25H6C6.41421 2.25 6.75 2.58579 6.75 3C6.75 3.41421 6.41421 3.75 6 3.75H3.75V6C3.75 6.41421 3.41421 6.75 3 6.75C2.58579 6.75 2.25 6.41421 2.25 6V3.6ZM9.25 3C9.25 2.58579 9.58579 2.25 10 2.25H14C14.4142 2.25 14.75 2.58579 14.75 3C14.75 3.41421 14.4142 3.75 14 3.75H10C9.58579 3.75 9.25 3.41421 9.25 3ZM17.25 3C17.25 2.58579 17.5858 2.25 18 2.25H20.4C21.1456 2.25 21.75 2.85441 21.75 3.6V6C21.75 6.41421 21.4142 6.75 21 6.75C20.5858 6.75 20.25 6.41421 20.25 6V3.75H18C17.5858 3.75 17.25 3.41421 17.25 3ZM3 9.25C3.41421 9.25 3.75 9.58579 3.75 10V12.25H10.4C11.1456 12.25 11.75 12.8544 11.75 13.6V20.25H14C14.4142 20.25 14.75 20.5858 14.75 21C14.75 21.4142 14.4142 21.75 14 21.75H3.6C2.85441 21.75 2.25 21.1456 2.25 20.4V10C2.25 9.58579 2.58579 9.25 3 9.25ZM10.25 20.25V13.75H3.75V20.25H10.25ZM10.25 10C10.25 9.58579 10.5858 9.25 11 9.25H14C14.4142 9.25 14.75 9.58579 14.75 10V13C14.75 13.4142 14.4142 13.75 14 13.75C13.5858 13.75 13.25 13.4142 13.25 13V10.75H11C10.5858 10.75 10.25 10.4142 10.25 10ZM21 9.25C21.4142 9.25 21.75 9.58579 21.75 10V14C21.75 14.4142 21.4142 14.75 21 14.75C20.5858 14.75 20.25 14.4142 20.25 14V10C20.25 9.58579 20.5858 9.25 21 9.25ZM21 17.25C21.4142 17.25 21.75 17.5858 21.75 18V20.4C21.75 21.1456 21.1456 21.75 20.4 21.75H18C17.5858 21.75 17.25 21.4142 17.25 21C17.25 20.5858 17.5858 20.25 18 20.25H20.25V18C20.25 17.5858 20.5858 17.25 21 17.25Z" fill="black"/>
</g>
</g>
</g>
<defs>
<clipPath id="clip0_232_4885">
<rect width="24" height="24" rx="5" fill="white"/>
</clipPath>
</defs>
</svg>
