<svg width="24" height="24" viewBox="0 0 24 24" fill="none" xmlns="http://www.w3.org/2000/svg">
<g id="scale-frame-reduce">
<g clip-path="url(#clip0_232_4907)">
<g id="Weight=Dynamic">
<path id="Vector (Stroke)" fill-rule="evenodd" clip-rule="evenodd" d="M2.25 3.6C2.25 2.85442 2.85441 2.25 3.6 2.25H20.4C21.1456 2.25 21.75 2.85441 21.75 3.6V20.4C21.75 21.1456 21.1456 21.75 20.4 21.75H3.6C2.85442 21.75 2.25 21.1456 2.25 20.4V3.6ZM3.75 13.75H6C6.41421 13.75 6.75 13.4142 6.75 13C6.75 12.5858 6.41421 12.25 6 12.25H3.75V3.75H20.25V20.25H11.75V18C11.75 17.5858 11.4142 17.25 11 17.25C10.5858 17.25 10.25 17.5858 10.25 18V20.25H3.75V13.75ZM13 7.25C13.4142 7.25 13.75 7.58579 13.75 8V10.25H16C16.4142 10.25 16.75 10.5858 16.75 11C16.75 11.4142 16.4142 11.75 16 11.75H13C12.5858 11.75 12.25 11.4142 12.25 11V8C12.25 7.58579 12.5858 7.25 13 7.25ZM8.25 13C8.25 12.5858 8.58579 12.25 9 12.25H10.4C11.1456 12.25 11.75 12.8544 11.75 13.6V15C11.75 15.4142 11.4142 15.75 11 15.75C10.5858 15.75 10.25 15.4142 10.25 15V13.75H9C8.58579 13.75 8.25 13.4142 8.25 13Z" fill="black"/>
</g>
</g>
</g>
<defs>
<clipPath id="clip0_232_4907">
<rect width="24" height="24" rx="5" fill="white"/>
</clipPath>
</defs>
</svg>
