<svg width="24" height="24" viewBox="0 0 24 24" fill="none" xmlns="http://www.w3.org/2000/svg">
<g id="scan-qr-code">
<g clip-path="url(#clip0_232_11744)">
<g id="Weight=Dynamic">
<path id="Vector (Stroke)" fill-rule="evenodd" clip-rule="evenodd" d="M2.25 3C2.25 2.58579 2.58579 2.25 3 2.25H6C6.41421 2.25 6.75 2.58579 6.75 3C6.75 3.41421 6.41421 3.75 6 3.75H3.75V6C3.75 6.41421 3.41421 6.75 3 6.75C2.58579 6.75 2.25 6.41421 2.25 6V3ZM17.25 3C17.25 2.58579 17.5858 2.25 18 2.25H21C21.4142 2.25 21.75 2.58579 21.75 3V6C21.75 6.41421 21.4142 6.75 21 6.75C20.5858 6.75 20.25 6.41421 20.25 6V3.75H18C17.5858 3.75 17.25 3.41421 17.25 3ZM12.5117 5.44254C12.8196 5.71964 12.8446 6.19385 12.5675 6.50173L12.5575 6.51284C12.2804 6.82072 11.8061 6.84567 11.4983 6.56857C11.1904 6.29147 11.1654 5.81726 11.4425 5.50938L11.4525 5.49827C11.7296 5.19039 12.2039 5.16544 12.5117 5.44254ZM5.25 6.6C5.25 5.85442 5.85442 5.25 6.6 5.25H8.4C9.14558 5.25 9.75 5.85442 9.75 6.6V8.4C9.75 9.14558 9.14558 9.75 8.4 9.75H6.6C5.85442 9.75 5.25 9.14558 5.25 8.4V6.6ZM6.75 6.75V8.25H8.25V6.75H6.75ZM14.25 6.6C14.25 5.85441 14.8544 5.25 15.6 5.25H17.4C18.1456 5.25 18.75 5.85441 18.75 6.6V8.4C18.75 9.14559 18.1456 9.75 17.4 9.75H15.6C14.8544 9.75 14.25 9.14559 14.25 8.4V6.6ZM15.75 6.75V8.25H17.25V6.75H15.75ZM12.5117 8.44253C12.8196 8.71963 12.8446 9.19384 12.5675 9.50173L12.5575 9.51284C12.2804 9.82072 11.8062 9.84567 11.4983 9.56858C11.1904 9.29148 11.1654 8.81727 11.4425 8.50939L11.4525 8.49827C11.7296 8.19039 12.2038 8.16544 12.5117 8.44253ZM12.5117 11.4425C12.8196 11.7196 12.8446 12.1938 12.5675 12.5017L12.5575 12.5128C12.2804 12.8207 11.8062 12.8457 11.4983 12.5686C11.1904 12.2915 11.1654 11.8173 11.4425 11.5094L11.4525 11.4983C11.7296 11.1904 12.2038 11.1654 12.5117 11.4425ZM18.5117 11.4425C18.8196 11.7196 18.8446 12.1938 18.5675 12.5017L18.5575 12.5128C18.2804 12.8207 17.8062 12.8457 17.4983 12.5686C17.1904 12.2915 17.1654 11.8173 17.4425 11.5094L17.4525 11.4983C17.7296 11.1904 18.2038 11.1654 18.5117 11.4425ZM5.25 12C5.25 11.5858 5.58579 11.25 6 11.25H9C9.41421 11.25 9.75 11.5858 9.75 12C9.75 12.4142 9.41421 12.75 9 12.75H6C5.58579 12.75 5.25 12.4142 5.25 12ZM15 11.25C15.4142 11.25 15.75 11.5858 15.75 12V15C15.75 15.4142 15.4142 15.75 15 15.75C14.5858 15.75 14.25 15.4142 14.25 15V12C14.25 11.5858 14.5858 11.25 15 11.25ZM12.5117 14.4425C12.8196 14.7196 12.8446 15.1938 12.5675 15.5017L12.5575 15.5128C12.2804 15.8207 11.8062 15.8457 11.4983 15.5686C11.1904 15.2915 11.1654 14.8173 11.4425 14.5094L11.4525 14.4983C11.7296 14.1904 12.2038 14.1654 12.5117 14.4425ZM18.5117 14.4425C18.8196 14.7196 18.8446 15.1938 18.5675 15.5017L18.5575 15.5128C18.2804 15.8207 17.8062 15.8457 17.4983 15.5686C17.1904 15.2915 17.1654 14.8173 17.4425 14.5094L17.4525 14.4983C17.7296 14.1904 18.2038 14.1654 18.5117 14.4425ZM5.25 15.6C5.25 14.8544 5.85441 14.25 6.6 14.25H8.4C9.14559 14.25 9.75 14.8544 9.75 15.6V17.4C9.75 18.1456 9.14559 18.75 8.4 18.75H6.6C5.85441 18.75 5.25 18.1456 5.25 17.4V15.6ZM6.75 15.75V17.25H8.25V15.75H6.75ZM18.5117 17.4425C18.8196 17.7196 18.8446 18.1938 18.5675 18.5017L18.5575 18.5128C18.2804 18.8207 17.8062 18.8457 17.4983 18.5686C17.1904 18.2915 17.1654 17.8173 17.4425 17.5094L17.4525 17.4983C17.7296 17.1904 18.2038 17.1654 18.5117 17.4425ZM3 17.25C3.41421 17.25 3.75 17.5858 3.75 18V20.25H6C6.41421 20.25 6.75 20.5858 6.75 21C6.75 21.4142 6.41421 21.75 6 21.75H3C2.58579 21.75 2.25 21.4142 2.25 21V18C2.25 17.5858 2.58579 17.25 3 17.25ZM11.25 18C11.25 17.5858 11.5858 17.25 12 17.25H15C15.4142 17.25 15.75 17.5858 15.75 18C15.75 18.4142 15.4142 18.75 15 18.75H12C11.5858 18.75 11.25 18.4142 11.25 18ZM21 17.25C21.4142 17.25 21.75 17.5858 21.75 18V21C21.75 21.4142 21.4142 21.75 21 21.75H18C17.5858 21.75 17.25 21.4142 17.25 21C17.25 20.5858 17.5858 20.25 18 20.25H20.25V18C20.25 17.5858 20.5858 17.25 21 17.25Z" fill="black"/>
</g>
</g>
</g>
<defs>
<clipPath id="clip0_232_11744">
<rect width="24" height="24" rx="5" fill="white"/>
</clipPath>
</defs>
</svg>
