<svg width="24" height="24" viewBox="0 0 24 24" fill="none" xmlns="http://www.w3.org/2000/svg">
<g id="scan-barcode">
<g clip-path="url(#clip0_232_13290)">
<g id="Weight=Dynamic">
<path id="Vector (Stroke)" fill-rule="evenodd" clip-rule="evenodd" d="M2.25 3C2.25 2.58579 2.58579 2.25 3 2.25H6C6.41421 2.25 6.75 2.58579 6.75 3C6.75 3.41421 6.41421 3.75 6 3.75H3.75V6C3.75 6.41421 3.41421 6.75 3 6.75C2.58579 6.75 2.25 6.41421 2.25 6V3ZM17.25 3C17.25 2.58579 17.5858 2.25 18 2.25H21C21.4142 2.25 21.75 2.58579 21.75 3V6C21.75 6.41421 21.4142 6.75 21 6.75C20.5858 6.75 20.25 6.41421 20.25 6V3.75H18C17.5858 3.75 17.25 3.41421 17.25 3ZM7 5.25C7.41421 5.25 7.75 5.58579 7.75 6V11.25H9.25V6C9.25 5.58579 9.58579 5.25 10 5.25H11C11.4142 5.25 11.75 5.58579 11.75 6V11.25H13.25V6C13.25 5.58579 13.5858 5.25 14 5.25C14.4142 5.25 14.75 5.58579 14.75 6V11.25H16.25V6C16.25 5.58579 16.5858 5.25 17 5.25C17.4142 5.25 17.75 5.58579 17.75 6V11.25H22C22.4142 11.25 22.75 11.5858 22.75 12C22.75 12.4142 22.4142 12.75 22 12.75H2C1.58579 12.75 1.25 12.4142 1.25 12C1.25 11.5858 1.58579 11.25 2 11.25H6.25V6C6.25 5.58579 6.58579 5.25 7 5.25ZM7 14.25C7.41421 14.25 7.75 14.5858 7.75 15V18C7.75 18.4142 7.41421 18.75 7 18.75C6.58579 18.75 6.25 18.4142 6.25 18V15C6.25 14.5858 6.58579 14.25 7 14.25ZM9.25 15C9.25 14.5858 9.58579 14.25 10 14.25H11C11.4142 14.25 11.75 14.5858 11.75 15V18C11.75 18.4142 11.4142 18.75 11 18.75H10C9.58579 18.75 9.25 18.4142 9.25 18V15ZM14 14.25C14.4142 14.25 14.75 14.5858 14.75 15V18C14.75 18.4142 14.4142 18.75 14 18.75C13.5858 18.75 13.25 18.4142 13.25 18V15C13.25 14.5858 13.5858 14.25 14 14.25ZM17 14.25C17.4142 14.25 17.75 14.5858 17.75 15V18C17.75 18.4142 17.4142 18.75 17 18.75C16.5858 18.75 16.25 18.4142 16.25 18V15C16.25 14.5858 16.5858 14.25 17 14.25ZM3 17.25C3.41421 17.25 3.75 17.5858 3.75 18V20.25H6C6.41421 20.25 6.75 20.5858 6.75 21C6.75 21.4142 6.41421 21.75 6 21.75H3C2.58579 21.75 2.25 21.4142 2.25 21V18C2.25 17.5858 2.58579 17.25 3 17.25ZM21 17.25C21.4142 17.25 21.75 17.5858 21.75 18V21C21.75 21.4142 21.4142 21.75 21 21.75H18C17.5858 21.75 17.25 21.4142 17.25 21C17.25 20.5858 17.5858 20.25 18 20.25H20.25V18C20.25 17.5858 20.5858 17.25 21 17.25Z" fill="black"/>
</g>
</g>
</g>
<defs>
<clipPath id="clip0_232_13290">
<rect width="24" height="24" rx="5" fill="white"/>
</clipPath>
</defs>
</svg>
