<svg width="24" height="24" viewBox="0 0 24 24" fill="none" xmlns="http://www.w3.org/2000/svg">
<g id="scanning">
<g clip-path="url(#clip0_232_9528)">
<g id="Weight=Dynamic">
<path id="Vector (Stroke)" fill-rule="evenodd" clip-rule="evenodd" d="M2.25 3C2.25 2.58579 2.58579 2.25 3 2.25H6C6.41421 2.25 6.75 2.58579 6.75 3C6.75 3.41421 6.41421 3.75 6 3.75H3.75V6C3.75 6.41421 3.41421 6.75 3 6.75C2.58579 6.75 2.25 6.41421 2.25 6V3ZM17.25 3C17.25 2.58579 17.5858 2.25 18 2.25H21C21.4142 2.25 21.75 2.58579 21.75 3V6C21.75 6.41421 21.4142 6.75 21 6.75C20.5858 6.75 20.25 6.41421 20.25 6V3.75H18C17.5858 3.75 17.25 3.41421 17.25 3ZM1.25 12C1.25 11.5858 1.58579 11.25 2 11.25H22C22.4142 11.25 22.75 11.5858 22.75 12C22.75 12.4142 22.4142 12.75 22 12.75H2C1.58579 12.75 1.25 12.4142 1.25 12ZM9 14.25C9.41421 14.25 9.75 14.5858 9.75 15V19C9.75 19.4142 9.41421 19.75 9 19.75C8.58579 19.75 8.25 19.4142 8.25 19V15C8.25 14.5858 8.58579 14.25 9 14.25ZM12 14.25C12.4142 14.25 12.75 14.5858 12.75 15V16C12.75 16.4142 12.4142 16.75 12 16.75C11.5858 16.75 11.25 16.4142 11.25 16V15C11.25 14.5858 11.5858 14.25 12 14.25ZM15 14.25C15.4142 14.25 15.75 14.5858 15.75 15V17C15.75 17.4142 15.4142 17.75 15 17.75C14.5858 17.75 14.25 17.4142 14.25 17V15C14.25 14.5858 14.5858 14.25 15 14.25ZM3 17.25C3.41421 17.25 3.75 17.5858 3.75 18V20.25H6C6.41421 20.25 6.75 20.5858 6.75 21C6.75 21.4142 6.41421 21.75 6 21.75H3C2.58579 21.75 2.25 21.4142 2.25 21V18C2.25 17.5858 2.58579 17.25 3 17.25ZM12 17.25C12.4142 17.25 12.75 17.5858 12.75 18V21C12.75 21.4142 12.4142 21.75 12 21.75C11.5858 21.75 11.25 21.4142 11.25 21V18C11.25 17.5858 11.5858 17.25 12 17.25ZM21 17.25C21.4142 17.25 21.75 17.5858 21.75 18V21C21.75 21.4142 21.4142 21.75 21 21.75H18C17.5858 21.75 17.25 21.4142 17.25 21C17.25 20.5858 17.5858 20.25 18 20.25H20.25V18C20.25 17.5858 20.5858 17.25 21 17.25Z" fill="black"/>
</g>
</g>
</g>
<defs>
<clipPath id="clip0_232_9528">
<rect width="24" height="24" rx="5" fill="white"/>
</clipPath>
</defs>
</svg>
