<svg width="24" height="24" viewBox="0 0 24 24" fill="none" xmlns="http://www.w3.org/2000/svg">
<g id="scarf">
<g clip-path="url(#clip0_232_2616)">
<g id="Weight=Dynamic">
<path id="Vector (Stroke)" fill-rule="evenodd" clip-rule="evenodd" d="M5 3.75C4.30964 3.75 3.75 4.30964 3.75 5V6.25H14.25V3.75H5ZM15.75 3.75H19C19.6904 3.75 20.25 4.30964 20.25 5V21C20.25 21.4142 20.5858 21.75 21 21.75C21.4142 21.75 21.75 21.4142 21.75 21V5C21.75 3.48122 20.5188 2.25 19 2.25H5C3.48122 2.25 2.25 3.48122 2.25 5V9C2.25 10.5188 3.48122 11.75 5 11.75H14.25V21C14.25 21.4142 14.5858 21.75 15 21.75C15.4142 21.75 15.75 21.4142 15.75 21V3.75ZM14.25 10.25V7.75H3.75V9C3.75 9.69036 4.30964 10.25 5 10.25H14.25ZM18 18.25C18.4142 18.25 18.75 18.5858 18.75 19V21C18.75 21.4142 18.4142 21.75 18 21.75C17.5858 21.75 17.25 21.4142 17.25 21V19C17.25 18.5858 17.5858 18.25 18 18.25Z" fill="black"/>
</g>
</g>
</g>
<defs>
<clipPath id="clip0_232_2616">
<rect width="24" height="24" rx="5" fill="white"/>
</clipPath>
</defs>
</svg>
