<svg width="24" height="24" viewBox="0 0 24 24" fill="none" xmlns="http://www.w3.org/2000/svg">
<g id="scissor">
<g clip-path="url(#clip0_232_6693)">
<g id="Weight=Dynamic">
<path id="Vector (Stroke)" fill-rule="evenodd" clip-rule="evenodd" d="M5 2.75C3.75736 2.75 2.75 3.75736 2.75 5C2.75 6.24264 3.75736 7.25 5 7.25C5.6663 7.25 6.26419 6.96133 6.67726 6.49981C7.03398 6.10125 7.25 5.57675 7.25 5C7.25 3.75736 6.24264 2.75 5 2.75ZM1.25 5C1.25 2.92893 2.92893 1.25 5 1.25C7.07107 1.25 8.75 2.92893 8.75 5C8.75 5.68453 8.56609 6.32702 8.2454 6.87973L13.0379 11.0099L19.5104 5.43187C19.8242 5.16146 20.2977 5.19661 20.5681 5.51038C20.8385 5.82415 20.8034 6.29772 20.4896 6.56813L14.1867 12L20.4896 17.4319C20.8034 17.7023 20.8385 18.1758 20.5681 18.4896C20.2977 18.8034 19.8242 18.8385 19.5104 18.5681L13.0379 12.9901L8.2454 17.1203C8.56609 17.673 8.75 18.3155 8.75 19C8.75 21.0711 7.07107 22.75 5 22.75C2.92893 22.75 1.25 21.0711 1.25 19C1.25 16.9289 2.92893 15.25 5 15.25C5.84359 15.25 6.62257 15.5291 7.24882 15.999L11.889 12L7.24882 8.00105C6.62257 8.4709 5.84359 8.75 5 8.75C2.92893 8.75 1.25 7.07107 1.25 5ZM5 16.75C3.75736 16.75 2.75 17.7574 2.75 19C2.75 20.2426 3.75736 21.25 5 21.25C6.24264 21.25 7.25 20.2426 7.25 19C7.25 18.4233 7.03398 17.8988 6.67726 17.5002C6.26419 17.0387 5.6663 16.75 5 16.75Z" fill="black"/>
</g>
</g>
</g>
<defs>
<clipPath id="clip0_232_6693">
<rect width="24" height="24" rx="5" fill="white"/>
</clipPath>
</defs>
</svg>
