<svg width="24" height="24" viewBox="0 0 24 24" fill="none" xmlns="http://www.w3.org/2000/svg">
<g id="scissor-alt">
<g clip-path="url(#clip0_232_6701)">
<g id="Weight=Dynamic">
<path id="Vector (Stroke)" fill-rule="evenodd" clip-rule="evenodd" d="M8 3.75C6.75736 3.75 5.75 4.75736 5.75 6C5.75 7.24264 6.75736 8.25 8 8.25C8.6663 8.25 9.26419 7.96133 9.67726 7.49981C10.034 7.10125 10.25 6.57675 10.25 6C10.25 4.75736 9.24264 3.75 8 3.75ZM4.25 6C4.25 3.92893 5.92893 2.25 8 2.25C10.0711 2.25 11.75 3.92893 11.75 6C11.75 6.67827 11.5694 7.31527 11.2542 7.86454L15.1181 11.0304L19.5247 7.41986C19.8451 7.15734 20.3176 7.20427 20.5801 7.52467C20.8427 7.84507 20.7957 8.31762 20.4753 8.58014L16.3014 12L20.4753 15.4199C20.7957 15.6824 20.8427 16.1549 20.5801 16.4753C20.3176 16.7957 19.8451 16.8427 19.5247 16.5801L15.1181 12.9696L11.2542 16.1355C11.5694 16.6847 11.75 17.3217 11.75 18C11.75 20.0711 10.0711 21.75 8 21.75C5.92893 21.75 4.25 20.0711 4.25 18C4.25 15.9289 5.92893 14.25 8 14.25C8.84961 14.25 9.63367 14.5331 10.2622 15.009L13.9347 12L10.2622 8.99097C9.63367 9.4669 8.84961 9.75 8 9.75C5.92893 9.75 4.25 8.07107 4.25 6ZM8 15.75C6.75736 15.75 5.75 16.7574 5.75 18C5.75 19.2426 6.75736 20.25 8 20.25C9.24264 20.25 10.25 19.2426 10.25 18C10.25 17.4233 10.034 16.8988 9.67726 16.5002C9.26419 16.0387 8.6663 15.75 8 15.75Z" fill="black"/>
</g>
</g>
</g>
<defs>
<clipPath id="clip0_232_6701">
<rect width="24" height="24" rx="5" fill="white"/>
</clipPath>
</defs>
</svg>
