<svg width="24" height="24" viewBox="0 0 24 24" fill="none" xmlns="http://www.w3.org/2000/svg">
<g id="screenshot">
<g clip-path="url(#clip0_232_12626)">
<g id="Weight=Dynamic">
<path id="Vector (Stroke)" fill-rule="evenodd" clip-rule="evenodd" d="M2.25 3C2.25 2.58579 2.58579 2.25 3 2.25H6C6.41421 2.25 6.75 2.58579 6.75 3C6.75 3.41421 6.41421 3.75 6 3.75H3.75V6C3.75 6.41421 3.41421 6.75 3 6.75C2.58579 6.75 2.25 6.41421 2.25 6V3ZM8.75 3C8.75 2.58579 9.08579 2.25 9.5 2.25H14.5C14.9142 2.25 15.25 2.58579 15.25 3C15.25 3.41421 14.9142 3.75 14.5 3.75H9.5C9.08579 3.75 8.75 3.41421 8.75 3ZM17.25 3C17.25 2.58579 17.5858 2.25 18 2.25H21C21.4142 2.25 21.75 2.58579 21.75 3V5.5C21.75 5.91421 21.4142 6.25 21 6.25C20.5858 6.25 20.25 5.91421 20.25 5.5V3.75H18C17.5858 3.75 17.25 3.41421 17.25 3ZM21 7.75C21.4142 7.75 21.75 8.08579 21.75 8.5V10C21.75 10.4142 21.4142 10.75 21 10.75C20.5858 10.75 20.25 10.4142 20.25 10V8.5C20.25 8.08579 20.5858 7.75 21 7.75ZM3 8.75C3.41421 8.75 3.75 9.08579 3.75 9.5V14.5C3.75 14.9142 3.41421 15.25 3 15.25C2.58579 15.25 2.25 14.9142 2.25 14.5V9.5C2.25 9.08579 2.58579 8.75 3 8.75ZM14.309 11.75L12.9077 13.9248C12.6591 14.3106 12.2317 14.5437 11.7728 14.5437H10.75V21.25H21.25V14.5437H20.2272C19.7683 14.5437 19.3409 14.3106 19.0923 13.9248L17.691 11.75H14.309ZM13.0923 10.8688C13.3409 10.4831 13.7683 10.25 14.2272 10.25H17.7728C18.2317 10.25 18.6591 10.4831 18.9077 10.8688L20.309 13.0437H21.4C22.1456 13.0437 22.75 13.6481 22.75 14.3937V21.4C22.75 22.1456 22.1456 22.75 21.4 22.75H10.6C9.85441 22.75 9.25 22.1456 9.25 21.4V14.3937C9.25 13.6481 9.85442 13.0437 10.6 13.0437H11.691L13.0923 10.8688ZM16 15.75C15.3096 15.75 14.75 16.3096 14.75 17C14.75 17.6904 15.3096 18.25 16 18.25C16.6904 18.25 17.25 17.6904 17.25 17C17.25 16.3096 16.6904 15.75 16 15.75ZM13.25 17C13.25 15.4812 14.4812 14.25 16 14.25C17.5188 14.25 18.75 15.4812 18.75 17C18.75 18.5188 17.5188 19.75 16 19.75C14.4812 19.75 13.25 18.5188 13.25 17ZM3 17.25C3.41421 17.25 3.75 17.5858 3.75 18V20.25H5.5C5.91421 20.25 6.25 20.5858 6.25 21C6.25 21.4142 5.91421 21.75 5.5 21.75H3C2.58579 21.75 2.25 21.4142 2.25 21V18C2.25 17.5858 2.58579 17.25 3 17.25Z" fill="black"/>
</g>
</g>
</g>
<defs>
<clipPath id="clip0_232_12626">
<rect width="24" height="24" rx="5" fill="white"/>
</clipPath>
</defs>
</svg>
