<svg width="24" height="24" viewBox="0 0 24 24" fill="none" xmlns="http://www.w3.org/2000/svg">
<g id="sea-waves">
<g clip-path="url(#clip0_232_2164)">
<g id="Weight=Dynamic">
<path id="Vector (Stroke)" fill-rule="evenodd" clip-rule="evenodd" d="M7.98185 6.60414C7.9818 6.60407 7.98176 6.604 7.98171 6.60392C7.98169 6.60389 7.98167 6.60385 7.98165 6.60382C7.98157 6.6037 7.9815 6.60358 7.98143 6.60347C7.84451 6.38365 7.60385 6.25 7.34483 6.25C7.08554 6.25 6.84465 6.38393 6.70781 6.60414L6.7076 6.60448L6.706 6.607L6.69398 6.62571C6.68255 6.64335 6.66436 6.67101 6.63972 6.70726C6.59038 6.77984 6.51551 6.88636 6.41757 7.01546C6.22075 7.27491 5.93563 7.6191 5.58218 7.96076C4.8508 8.66776 3.94566 9.25 3 9.25C2.58579 9.25 2.25 9.58579 2.25 10C2.25 10.4142 2.58579 10.75 3 10.75C4.53709 10.75 5.80437 9.83224 6.62471 9.03924C6.90475 8.76854 7.14661 8.49895 7.34483 8.25968C7.54304 8.49895 7.78491 8.76854 8.06494 9.03924C8.88529 9.83224 10.1526 10.75 11.6897 10.75C13.2013 10.75 14.6157 9.85601 15.5739 9.08407C16.0044 8.73728 16.371 8.3919 16.648 8.11234C16.9092 8.3867 17.2482 8.72418 17.6342 9.06337C18.0824 9.45719 18.6098 9.86762 19.1648 10.1832C19.7088 10.4925 20.347 10.75 21 10.75C21.4142 10.75 21.75 10.4142 21.75 10C21.75 9.58579 21.4142 9.25 21 9.25C20.722 9.25 20.3515 9.13246 19.9063 8.87928C19.4721 8.63238 19.0297 8.29281 18.6244 7.93663C18.2217 7.58275 17.8714 7.22653 17.6211 6.95769C17.4964 6.82375 17.3976 6.71269 17.3308 6.63601C17.2974 6.5977 17.272 6.56806 17.2555 6.54853L17.2373 6.52702L17.2334 6.52232L17.233 6.52182C17.2329 6.52177 17.2329 6.52171 17.2328 6.52165C17.2328 6.52164 17.2328 6.52163 17.2328 6.52162C17.2328 6.52161 17.2328 6.5216 17.2328 6.52159C17.2328 6.52157 17.2328 6.52156 17.2327 6.52154C17.0903 6.34955 16.8785 6.25 16.6552 6.25C16.4318 6.25 16.2201 6.34956 16.0776 6.52158L16.0774 6.52176L16.0774 6.52182L16.074 6.5259L16.0567 6.54625C16.0407 6.565 16.0157 6.59383 15.9825 6.63132C15.9159 6.70635 15.8165 6.81566 15.6889 6.9478C15.4328 7.21301 15.0681 7.56541 14.633 7.91593C13.7292 8.64399 12.6608 9.25 11.6897 9.25C10.744 9.25 9.83885 8.66776 9.10747 7.96076C8.75403 7.6191 8.46891 7.27491 8.27209 7.01546C8.17415 6.88636 8.09928 6.77984 8.04994 6.70726C8.0253 6.67101 8.00711 6.64335 7.99567 6.62571L7.98366 6.607L7.98206 6.60448C7.98199 6.60437 7.98192 6.60425 7.98185 6.60414ZM7.98185 13.6041C7.98184 13.6041 7.98184 13.6041 7.98183 13.6041C7.98176 13.604 7.98168 13.6039 7.98161 13.6038C7.84472 13.3838 7.60397 13.25 7.34483 13.25C7.08554 13.25 6.84465 13.3839 6.70781 13.6041L6.7076 13.6045L6.706 13.607L6.69398 13.6257C6.68255 13.6433 6.66436 13.671 6.63972 13.7073C6.59038 13.7798 6.51551 13.8864 6.41757 14.0155C6.22075 14.2749 5.93563 14.6191 5.58218 14.9608C4.8508 15.6678 3.94566 16.25 3 16.25C2.58579 16.25 2.25 16.5858 2.25 17C2.25 17.4142 2.58579 17.75 3 17.75C4.53709 17.75 5.80437 16.8322 6.62471 16.0392C6.90475 15.7685 7.14661 15.499 7.34483 15.2597C7.54304 15.499 7.78491 15.7685 8.06494 16.0392C8.88529 16.8322 10.1526 17.75 11.6897 17.75C13.2013 17.75 14.6157 16.856 15.5739 16.0841C16.0044 15.7373 16.371 15.3919 16.648 15.1123C16.9092 15.3867 17.2482 15.7242 17.6342 16.0634C18.0824 16.4572 18.6098 16.8676 19.1648 17.1832C19.7088 17.4925 20.347 17.75 21 17.75C21.4142 17.75 21.75 17.4142 21.75 17C21.75 16.5858 21.4142 16.25 21 16.25C20.722 16.25 20.3515 16.1325 19.9063 15.8793C19.4721 15.6324 19.0297 15.2928 18.6244 14.9366C18.2217 14.5827 17.8714 14.2265 17.6211 13.9577C17.4964 13.8237 17.3976 13.7127 17.3308 13.636C17.2974 13.5977 17.272 13.5681 17.2555 13.5485L17.2373 13.527L17.2334 13.5223L17.233 13.5218C17.2329 13.5218 17.2329 13.5217 17.2328 13.5217C17.2328 13.5216 17.2328 13.5216 17.2328 13.5216C17.2328 13.5216 17.2328 13.5216 17.2327 13.5215C17.0903 13.3495 16.8785 13.25 16.6552 13.25C16.4318 13.25 16.2201 13.3496 16.0776 13.5216L16.0774 13.5218L16.0774 13.5218L16.074 13.5259L16.0567 13.5462C16.0407 13.565 16.0157 13.5938 15.9825 13.6313C15.9159 13.7064 15.8165 13.8157 15.6889 13.9478C15.4328 14.213 15.0681 14.5654 14.633 14.9159C13.7292 15.644 12.6608 16.25 11.6897 16.25C10.744 16.25 9.83885 15.6678 9.10747 14.9608C8.75403 14.6191 8.46891 14.2749 8.27209 14.0155C8.17415 13.8864 8.09928 13.7798 8.04994 13.7073C8.0253 13.671 8.00711 13.6433 7.99567 13.6257L7.98366 13.607L7.98206 13.6045C7.98199 13.6044 7.98192 13.6043 7.98185 13.6041Z" fill="black"/>
</g>
</g>
</g>
<defs>
<clipPath id="clip0_232_2164">
<rect width="24" height="24" rx="5" fill="white"/>
</clipPath>
</defs>
</svg>
