<svg width="24" height="24" viewBox="0 0 24 24" fill="none" xmlns="http://www.w3.org/2000/svg">
<g id="sea-and-sun">
<g clip-path="url(#clip0_232_1641)">
<g id="Weight=Dynamic">
<path id="Vector (Stroke)" fill-rule="evenodd" clip-rule="evenodd" d="M12 3.75C8.54822 3.75 5.75 6.54822 5.75 10C5.75 10.4142 5.41421 10.75 5 10.75C4.58579 10.75 4.25 10.4142 4.25 10C4.25 5.71979 7.71979 2.25 12 2.25C16.2802 2.25 19.75 5.71979 19.75 10C19.75 10.4142 19.4142 10.75 19 10.75C18.5858 10.75 18.25 10.4142 18.25 10C18.25 6.54822 15.4518 3.75 12 3.75ZM7.98206 11.6045C7.98188 11.6042 7.98169 11.6039 7.98151 11.6036C7.84461 11.3837 7.6039 11.25 7.34483 11.25C7.08554 11.25 6.84465 11.3839 6.70781 11.6041L6.7076 11.6045L6.706 11.607L6.69398 11.6257C6.68255 11.6433 6.66436 11.671 6.63972 11.7073C6.59038 11.7798 6.51551 11.8864 6.41757 12.0155C6.22075 12.2749 5.93563 12.6191 5.58218 12.9608C4.8508 13.6678 3.94566 14.25 3 14.25C2.58579 14.25 2.25 14.5858 2.25 15C2.25 15.4142 2.58579 15.75 3 15.75C4.53709 15.75 5.80437 14.8322 6.62471 14.0392C6.90475 13.7685 7.14661 13.499 7.34483 13.2597C7.54304 13.499 7.78491 13.7685 8.06494 14.0392C8.88529 14.8322 10.1526 15.75 11.6897 15.75C13.2013 15.75 14.6157 14.856 15.5739 14.0841C16.0044 13.7373 16.371 13.3919 16.648 13.1123C16.9092 13.3867 17.2482 13.7242 17.6342 14.0634C18.0824 14.4572 18.6098 14.8676 19.1648 15.1832C19.7088 15.4925 20.347 15.75 21 15.75C21.4142 15.75 21.75 15.4142 21.75 15C21.75 14.5858 21.4142 14.25 21 14.25C20.722 14.25 20.3515 14.1325 19.9063 13.8793C19.4721 13.6324 19.0297 13.2928 18.6244 12.9366C18.2217 12.5827 17.8714 12.2265 17.6211 11.9577C17.4964 11.8237 17.3976 11.7127 17.3308 11.636C17.2974 11.5977 17.272 11.5681 17.2555 11.5485L17.2373 11.527L17.2334 11.5223L17.233 11.5218C17.2329 11.5218 17.2329 11.5217 17.2328 11.5217C17.2328 11.5216 17.2328 11.5216 17.2328 11.5216C17.0903 11.3496 16.8786 11.25 16.6552 11.25C16.4318 11.25 16.2201 11.3496 16.0776 11.5216L16.0774 11.5218L16.0774 11.5218L16.074 11.5259L16.0567 11.5462C16.0407 11.565 16.0157 11.5938 15.9825 11.6313C15.9159 11.7064 15.8165 11.8157 15.6889 11.9478C15.4328 12.213 15.0681 12.5654 14.633 12.9159C13.7292 13.644 12.6608 14.25 11.6897 14.25C10.744 14.25 9.83885 13.6678 9.10747 12.9608C8.75403 12.6191 8.46891 12.2749 8.27209 12.0155C8.17415 11.8864 8.09928 11.7798 8.04994 11.7073C8.0253 11.671 8.00711 11.6433 7.99567 11.6257L7.98366 11.607L7.98206 11.6045ZM7.98206 16.6045C7.98188 16.6042 7.98169 16.6039 7.98151 16.6036C7.84461 16.3837 7.6039 16.25 7.34483 16.25C7.08554 16.25 6.84465 16.3839 6.70781 16.6041L6.7076 16.6045L6.706 16.607L6.69398 16.6257C6.68255 16.6433 6.66436 16.671 6.63972 16.7073C6.59038 16.7798 6.51551 16.8864 6.41757 17.0155C6.22075 17.2749 5.93563 17.6191 5.58218 17.9608C4.8508 18.6678 3.94566 19.25 3 19.25C2.58579 19.25 2.25 19.5858 2.25 20C2.25 20.4142 2.58579 20.75 3 20.75C4.53709 20.75 5.80437 19.8322 6.62471 19.0392C6.90475 18.7685 7.14661 18.499 7.34483 18.2597C7.54304 18.499 7.78491 18.7685 8.06494 19.0392C8.88529 19.8322 10.1526 20.75 11.6897 20.75C13.2013 20.75 14.6157 19.856 15.5739 19.0841C16.0044 18.7373 16.371 18.3919 16.648 18.1123C16.9092 18.3867 17.2482 18.7242 17.6342 19.0634C18.0824 19.4572 18.6098 19.8676 19.1648 20.1832C19.7088 20.4925 20.347 20.75 21 20.75C21.4142 20.75 21.75 20.4142 21.75 20C21.75 19.5858 21.4142 19.25 21 19.25C20.722 19.25 20.3515 19.1325 19.9063 18.8793C19.4721 18.6324 19.0297 18.2928 18.6244 17.9366C18.2217 17.5827 17.8714 17.2265 17.6211 16.9577C17.4964 16.8237 17.3976 16.7127 17.3308 16.636C17.2974 16.5977 17.272 16.5681 17.2555 16.5485L17.2373 16.527L17.2334 16.5223L17.233 16.5218C17.2329 16.5218 17.2329 16.5217 17.2328 16.5217C17.2328 16.5216 17.2328 16.5216 17.2328 16.5216C17.0903 16.3496 16.8786 16.25 16.6552 16.25C16.4318 16.25 16.2201 16.3496 16.0776 16.5216L16.0774 16.5218L16.0774 16.5218L16.074 16.5259L16.0567 16.5462C16.0407 16.565 16.0157 16.5938 15.9825 16.6313C15.9159 16.7064 15.8165 16.8157 15.6889 16.9478C15.4328 17.213 15.0681 17.5654 14.633 17.9159C13.7292 18.644 12.6608 19.25 11.6897 19.25C10.744 19.25 9.83885 18.6678 9.10747 17.9608C8.75403 17.6191 8.46891 17.2749 8.27209 17.0155C8.17415 16.8864 8.09928 16.7798 8.04994 16.7073C8.0253 16.671 8.00711 16.6433 7.99567 16.6257L7.98366 16.607L7.98206 16.6045Z" fill="black"/>
</g>
</g>
</g>
<defs>
<clipPath id="clip0_232_1641">
<rect width="24" height="24" rx="5" fill="white"/>
</clipPath>
</defs>
</svg>
