<svg width="24" height="24" viewBox="0 0 24 24" fill="none" xmlns="http://www.w3.org/2000/svg">
<g id="search-engine">
<g clip-path="url(#clip0_232_15060)">
<g id="Weight=Dynamic">
<path id="Vector (Stroke)" fill-rule="evenodd" clip-rule="evenodd" d="M5 3.75C4.30964 3.75 3.75 4.30964 3.75 5V19C3.75 19.6904 4.30964 20.25 5 20.25H19C19.6904 20.25 20.25 19.6904 20.25 19V5C20.25 4.30964 19.6904 3.75 19 3.75H5ZM2.25 5C2.25 3.48122 3.48122 2.25 5 2.25H19C20.5188 2.25 21.75 3.48122 21.75 5V19C21.75 20.5188 20.5188 21.75 19 21.75H5C3.48122 21.75 2.25 20.5188 2.25 19V5ZM11.4286 8.75C9.94924 8.75 8.75 9.94924 8.75 11.4286C8.75 12.9079 9.94924 14.1071 11.4286 14.1071C12.1697 14.1071 12.8394 13.8071 13.3251 13.3201C13.8092 12.8347 14.1071 12.1672 14.1071 11.4286C14.1071 9.94924 12.9079 8.75 11.4286 8.75ZM7.25 11.4286C7.25 9.12081 9.12081 7.25 11.4286 7.25C13.7363 7.25 15.6071 9.12081 15.6071 11.4286C15.6071 12.3099 15.3337 13.1282 14.8679 13.8022L16.5311 15.4705C16.8236 15.7638 16.8229 16.2387 16.5295 16.5311C16.2362 16.8236 15.7613 16.8229 15.4689 16.5295L13.8081 14.8638C13.133 15.3321 12.3125 15.6071 11.4286 15.6071C9.12081 15.6071 7.25 13.7363 7.25 11.4286Z" fill="black"/>
</g>
</g>
</g>
<defs>
<clipPath id="clip0_232_15060">
<rect width="24" height="24" rx="5" fill="white"/>
</clipPath>
</defs>
</svg>
