<svg width="24" height="24" viewBox="0 0 24 24" fill="none" xmlns="http://www.w3.org/2000/svg">
<g id="security-pass">
<g clip-path="url(#clip0_232_12980)">
<g id="Weight=Dynamic">
<path id="Vector (Stroke)" fill-rule="evenodd" clip-rule="evenodd" d="M12 4.75C7.99594 4.75 4.75 7.99594 4.75 12C4.75 16.0041 7.99594 19.25 12 19.25C16.0041 19.25 19.25 16.0041 19.25 12C19.25 11.5858 19.5858 11.25 20 11.25C20.4142 11.25 20.75 11.5858 20.75 12C20.75 16.8325 16.8325 20.75 12 20.75C7.16751 20.75 3.25 16.8325 3.25 12C3.25 7.16751 7.16751 3.25 12 3.25C13.0347 3.25 14.0291 3.42993 14.9524 3.76083C15.3423 3.90057 15.5451 4.32995 15.4054 4.71988C15.2657 5.10981 14.8363 5.31263 14.4464 5.17289C13.6831 4.89935 12.8598 4.75 12 4.75ZM20.5303 5.46967C20.8232 5.76256 20.8232 6.23743 20.5303 6.53033L12.5303 14.5303C12.3897 14.671 12.1989 14.75 12 14.75C11.8011 14.75 11.6103 14.671 11.4697 14.5303L8.46967 11.5303C8.17678 11.2374 8.17678 10.7626 8.46967 10.4697C8.76256 10.1768 9.23744 10.1768 9.53033 10.4697L12 12.9393L19.4697 5.46967C19.7626 5.17677 20.2374 5.17677 20.5303 5.46967Z" fill="black"/>
</g>
</g>
</g>
<defs>
<clipPath id="clip0_232_12980">
<rect width="24" height="24" rx="5" fill="white"/>
</clipPath>
</defs>
</svg>
