<svg width="24" height="24" viewBox="0 0 24 24" fill="none" xmlns="http://www.w3.org/2000/svg">
<g id="secure-window">
<g clip-path="url(#clip0_232_15231)">
<g id="Weight=Dynamic">
<path id="Vector (Stroke)" fill-rule="evenodd" clip-rule="evenodd" d="M4 3.75C3.30964 3.75 2.75 4.30964 2.75 5V6.25H21.25V5C21.25 4.30964 20.6904 3.75 20 3.75H4ZM22.75 5C22.75 3.48122 21.5188 2.25 20 2.25H4C2.48122 2.25 1.25 3.48122 1.25 5V19C1.25 20.5188 2.48122 21.75 4 21.75H13C13.4142 21.75 13.75 21.4142 13.75 21C13.75 20.5858 13.4142 20.25 13 20.25H4C3.30964 20.25 2.75 19.6904 2.75 19V7.75H21.25V12C21.25 12.4142 21.5858 12.75 22 12.75C22.4142 12.75 22.75 12.4142 22.75 12V5ZM5.51172 4.44142C5.81961 4.71851 5.84457 5.19273 5.56747 5.50061L5.55747 5.51172C5.28038 5.81961 4.80616 5.84457 4.49828 5.56747C4.19039 5.29038 4.16543 4.81616 4.44253 4.50828L4.45253 4.49717C4.72962 4.18928 5.20384 4.16432 5.51172 4.44142ZM8.51173 4.44142C8.81961 4.71852 8.84456 5.19274 8.56747 5.50062L8.55747 5.51173C8.28037 5.81961 7.80615 5.84456 7.49827 5.56747C7.19039 5.29037 7.16544 4.81615 7.44253 4.50827L7.45253 4.49716C7.72963 4.18928 8.20385 4.16433 8.51173 4.44142ZM11.5117 4.44142C11.8196 4.71852 11.8446 5.19274 11.5675 5.50062L11.5575 5.51173C11.2804 5.81961 10.8062 5.84456 10.4983 5.56747C10.1904 5.29037 10.1654 4.81615 10.4425 4.50827L10.4525 4.49716C10.7296 4.18928 11.2038 4.16433 11.5117 4.44142ZM17.8231 13.3981C18.2673 13.2853 18.7327 13.2853 19.1769 13.3981L21.7323 14.0471C22.3289 14.1986 22.7617 14.744 22.7428 15.38C22.6524 18.4119 21.7258 20.2507 20.7381 21.3416C20.2497 21.881 19.7609 22.2211 19.3833 22.4289C19.1947 22.5327 19.034 22.6035 18.9147 22.6498C18.855 22.673 18.8056 22.6902 18.7681 22.7023C18.7494 22.7083 18.7336 22.7132 18.721 22.7169L18.7045 22.7216L18.6981 22.7234L18.6953 22.7241L18.6941 22.7245C18.6935 22.7246 18.6929 22.7248 18.5 22C18.3071 22.7248 18.3065 22.7246 18.3059 22.7245L18.3047 22.7241L18.3019 22.7234L18.2955 22.7216L18.279 22.7169C18.2664 22.7132 18.2506 22.7083 18.2319 22.7023C18.1944 22.6902 18.145 22.673 18.0853 22.6498C17.966 22.6035 17.8053 22.5327 17.6167 22.4289C17.2391 22.2211 16.7503 21.881 16.2619 21.3416C15.2742 20.2507 14.3476 18.4119 14.2572 15.38C14.2383 14.744 14.6711 14.1986 15.2677 14.0471L17.8231 13.3981ZM18.5 22L18.3071 22.7248C18.4335 22.7584 18.5665 22.7584 18.6929 22.7248L18.5 22ZM18.5 21.1964C18.5468 21.1745 18.6006 21.1476 18.66 21.1148C18.9106 20.9769 19.2628 20.7361 19.6262 20.3348C20.3304 19.5571 21.1351 18.1105 21.2388 15.4694L18.8077 14.852C18.6058 14.8007 18.3942 14.8007 18.1923 14.852L15.7612 15.4694C15.8649 18.1105 16.6696 19.5571 17.3738 20.3348C17.7372 20.7361 18.0894 20.9769 18.34 21.1148C18.3994 21.1476 18.4532 21.1745 18.5 21.1964Z" fill="black"/>
</g>
</g>
</g>
<defs>
<clipPath id="clip0_232_15231">
<rect width="24" height="24" rx="5" fill="white"/>
</clipPath>
</defs>
</svg>
