<svg width="24" height="24" viewBox="0 0 24 24" fill="none" xmlns="http://www.w3.org/2000/svg">
<g id="select-window">
<g clip-path="url(#clip0_232_15199)">
<g id="Weight=Dynamic">
<path id="Vector (Stroke)" fill-rule="evenodd" clip-rule="evenodd" d="M4 3.75C3.30964 3.75 2.75 4.30964 2.75 5V6.25H21.25V5C21.25 4.30964 20.6904 3.75 20 3.75H4ZM22.75 5C22.75 3.48122 21.5188 2.25 20 2.25H4C2.48122 2.25 1.25 3.48122 1.25 5V19C1.25 20.5188 2.48122 21.75 4 21.75H14C14.4142 21.75 14.75 21.4142 14.75 21C14.75 20.5858 14.4142 20.25 14 20.25H4C3.30964 20.25 2.75 19.6904 2.75 19V7.75H21.25V15H22.75V5ZM5.51172 4.44142C5.81961 4.71851 5.84457 5.19273 5.56747 5.50061L5.55747 5.51172C5.28038 5.81961 4.80616 5.84457 4.49828 5.56747C4.19039 5.29038 4.16543 4.81616 4.44253 4.50828L4.45253 4.49717C4.72962 4.18928 5.20384 4.16432 5.51172 4.44142ZM8.51173 4.44142C8.81961 4.71852 8.84456 5.19274 8.56747 5.50062L8.55747 5.51173C8.28037 5.81961 7.80615 5.84456 7.49827 5.56747C7.19039 5.29037 7.16544 4.81615 7.44253 4.50827L7.45253 4.49716C7.72963 4.18928 8.20385 4.16433 8.51173 4.44142ZM11.5117 4.44142C11.8196 4.71852 11.8446 5.19274 11.5675 5.50062L11.5575 5.51173C11.2804 5.81961 10.8062 5.84456 10.4983 5.56747C10.1904 5.29037 10.1654 4.81615 10.4425 4.50827L10.4525 4.49716C10.7296 4.18928 11.2038 4.16433 11.5117 4.44142ZM15.7657 14.4657C16.1895 14.169 16.7281 14.1908 17.1574 14.4549L22.4752 17.7263C22.9632 18.0265 23.205 18.5491 23.1849 19.0385C23.1641 19.5452 22.8286 20.1309 22.1215 20.211L19.9601 20.4561L18.9907 22.4033C18.6735 23.0403 18.0084 23.1553 17.5251 23.0015C17.0584 22.853 16.65 22.4471 16.5348 21.8858L15.2795 15.7698C15.1782 15.2761 15.3418 14.7625 15.7657 14.4657ZM16.8655 16.0365L17.922 21.1841L18.9808 19.0575L21.3413 18.7899L16.8655 16.0365ZM17.6479 21.7348C17.6478 21.735 17.648 21.7346 17.6479 21.7348V21.7348Z" fill="black"/>
</g>
</g>
</g>
<defs>
<clipPath id="clip0_232_15199">
<rect width="24" height="24" rx="5" fill="white"/>
</clipPath>
</defs>
</svg>
