<svg width="24" height="24" viewBox="0 0 24 24" fill="none" xmlns="http://www.w3.org/2000/svg">
<g id="send-dollars">
<g clip-path="url(#clip0_232_7717)">
<g id="Weight=Dynamic">
<path id="Vector (Stroke)" fill-rule="evenodd" clip-rule="evenodd" d="M6.50002 4.25C6.91424 4.25 7.25002 4.58579 7.25002 5V6.25924C8.47189 6.4307 9.71057 6.9429 10.5087 7.67967C10.8131 7.96062 10.8321 8.43511 10.5511 8.73948C10.2702 9.04384 9.79568 9.06282 9.49131 8.78187C8.85168 8.19143 7.63108 7.72618 6.4814 7.69762C5.80451 7.68081 5.25371 7.81855 4.89433 8.06982C4.5735 8.29414 4.33336 8.65564 4.33336 9.3077C4.33336 9.57958 4.39842 9.76387 4.48887 9.90375C4.58386 10.0506 4.73497 10.1913 4.96583 10.3269C5.45574 10.6147 6.14135 10.7937 6.97479 11.0035C6.99424 11.0084 7.01378 11.0133 7.0334 11.0182C7.79174 11.209 8.68207 11.4329 9.37729 11.8413C9.74799 12.0591 10.0982 12.3475 10.3541 12.7433C10.6146 13.1461 10.75 13.618 10.75 14.1538C10.75 15.3482 10.178 16.2358 9.32927 16.7844C8.72341 17.1761 7.9943 17.387 7.25002 17.4561V19C7.25002 19.4142 6.91424 19.75 6.50002 19.75C6.08581 19.75 5.75002 19.4142 5.75002 19V17.4134C4.48041 17.2286 3.20073 16.6672 2.41794 15.7037C2.15674 15.3822 2.2056 14.9099 2.52708 14.6487C2.84856 14.3875 3.32091 14.4364 3.58211 14.7578C4.15312 15.4606 5.3108 15.9389 6.52489 15.9792C7.31817 16.0055 8.02884 15.839 8.51493 15.5247C8.96817 15.2317 9.25002 14.8022 9.25002 14.1538C9.25002 13.882 9.18497 13.6977 9.09451 13.5578C8.99952 13.4109 8.84842 13.2703 8.61755 13.1347C8.12764 12.8469 7.44203 12.6679 6.60859 12.4581C6.58915 12.4532 6.56961 12.4483 6.54998 12.4433C5.79164 12.2526 4.90131 12.0286 4.20609 11.6202C3.8354 11.4025 3.4852 11.114 3.22928 10.7183C2.96882 10.3155 2.83336 9.84351 2.83336 9.3077C2.83336 8.20435 3.28206 7.36681 4.03482 6.8405C4.53835 6.48844 5.13798 6.30284 5.75002 6.23148V5C5.75002 4.58579 6.08581 4.25 6.50002 4.25ZM16.6406 7.45896C16.9394 7.1721 17.4142 7.18179 17.7011 7.4806L21.5411 11.4806C21.8197 11.7708 21.8197 12.2292 21.5411 12.5194L17.7011 16.5194C17.4142 16.8182 16.9394 16.8279 16.6406 16.541C16.3418 16.2542 16.3321 15.7794 16.619 15.4806L19.2404 12.75H13C12.5858 12.75 12.25 12.4142 12.25 12C12.25 11.5858 12.5858 11.25 13 11.25H19.2404L16.619 8.5194C16.3321 8.22059 16.3418 7.74582 16.6406 7.45896Z" fill="black"/>
</g>
</g>
</g>
<defs>
<clipPath id="clip0_232_7717">
<rect width="24" height="24" rx="5" fill="white"/>
</clipPath>
</defs>
</svg>
