<svg width="24" height="24" viewBox="0 0 24 24" fill="none" xmlns="http://www.w3.org/2000/svg">
<g id="send-diagonal">
<g clip-path="url(#clip0_232_3054)">
<g id="Weight=Dynamic">
<path id="Vector (Stroke)" fill-rule="evenodd" clip-rule="evenodd" d="M22.7669 3.12307C22.94 3.37026 22.9481 3.6971 22.7874 3.95254L11.8121 21.4037C11.6483 21.6642 11.342 21.7982 11.0395 21.7417C10.737 21.6851 10.4997 21.4496 10.441 21.1475L8.83435 12.8788L1.6138 8.54089C1.35001 8.38242 1.20979 8.07889 1.26013 7.77531C1.31047 7.47172 1.54115 7.22969 1.84197 7.16484L21.9945 2.8201C22.2894 2.75651 22.5938 2.87589 22.7669 3.12307ZM10.336 12.7428L11.5518 19.0001L19.5405 6.2978L10.336 12.7428ZM18.68 5.06914L4.01161 8.23154L9.47554 11.5141L18.68 5.06914Z" fill="black"/>
</g>
</g>
</g>
<defs>
<clipPath id="clip0_232_3054">
<rect width="24" height="24" rx="5" fill="white"/>
</clipPath>
</defs>
</svg>
