<svg width="24" height="24" viewBox="0 0 24 24" fill="none" xmlns="http://www.w3.org/2000/svg">
<g id="send">
<g clip-path="url(#clip0_232_3043)">
<g id="Weight=Dynamic">
<path id="Vector (Stroke)" fill-rule="evenodd" clip-rule="evenodd" d="M3.29106 3.3088L3.00002 4.00002H3.00002L3.29106 3.3088ZM5.74152 12L2.31488 4.30512C2.1897 4.02401 2.24894 3.69495 2.4643 3.47514C2.67967 3.25533 3.00745 3.18938 3.29106 3.3088L22.2911 11.3088C22.5692 11.4259 22.75 11.6983 22.75 12C22.75 12.3018 22.5692 12.5742 22.2911 12.6912L3.29106 20.6913C3.00745 20.8107 2.67967 20.7447 2.4643 20.5249C2.24894 20.3051 2.1897 19.976 2.31488 19.6949L5.74152 12ZM7.04954 12.75L4.4565 18.573L18.2861 12.75L7.04954 12.75ZM18.2861 11.25L7.04954 11.25L4.4565 5.42705L18.2861 11.25Z" fill="black"/>
</g>
</g>
</g>
<defs>
<clipPath id="clip0_232_3043">
<rect width="24" height="24" rx="5" fill="white"/>
</clipPath>
</defs>
</svg>
