<svg width="24" height="24" viewBox="0 0 24 24" fill="none" xmlns="http://www.w3.org/2000/svg">
<g id="server-connection">
<g clip-path="url(#clip0_232_4061)">
<g id="Weight=Dynamic">
<path id="Vector (Stroke)" fill-rule="evenodd" clip-rule="evenodd" d="M5.25 5C5.25 4.58579 5.58579 4.25 6 4.25H18C18.4142 4.25 18.75 4.58579 18.75 5V13C18.75 13.4142 18.4142 13.75 18 13.75H12.75V18.25H21C21.4142 18.25 21.75 18.5858 21.75 19C21.75 19.4142 21.4142 19.75 21 19.75H3C2.58579 19.75 2.25 19.4142 2.25 19C2.25 18.5858 2.58579 18.25 3 18.25H11.25V13.75H6C5.58579 13.75 5.25 13.4142 5.25 13V5ZM6.75 5.75V12.25H17.25V5.75H6.75ZM9.51175 8.44133C9.81962 8.71844 9.84456 9.19266 9.56745 9.50053L9.55745 9.51164C9.28034 9.81951 8.80612 9.84445 8.49825 9.56734C8.19038 9.29023 8.16544 8.81601 8.44255 8.50814L8.45255 8.49703C8.72966 8.18916 9.20388 8.16422 9.51175 8.44133ZM12.5118 8.44133C12.8196 8.71844 12.8446 9.19266 12.5674 9.50053L12.5574 9.51164C12.2803 9.81951 11.8061 9.84445 11.4983 9.56734C11.1904 9.29023 11.1654 8.81601 11.4426 8.50814L11.4526 8.49703C11.7297 8.18916 12.2039 8.16422 12.5118 8.44133Z" fill="black"/>
</g>
</g>
</g>
<defs>
<clipPath id="clip0_232_4061">
<rect width="24" height="24" rx="5" fill="white"/>
</clipPath>
</defs>
</svg>
