<svg width="24" height="24" viewBox="0 0 24 24" fill="none" xmlns="http://www.w3.org/2000/svg">
<g id="server">
<g clip-path="url(#clip0_232_3633)">
<g id="Weight=Dynamic">
<path id="Vector (Stroke)" fill-rule="evenodd" clip-rule="evenodd" d="M2.75 2.75V9.25H21.25V2.75H2.75ZM1.25 2.6C1.25 1.85441 1.85442 1.25 2.6 1.25H21.4C22.1456 1.25 22.75 1.85442 22.75 2.6V9.4C22.75 10.1456 22.1456 10.75 21.4 10.75H2.6C1.85442 10.75 1.25 10.1456 1.25 9.4V2.6ZM6.51173 5.44142C6.81961 5.71852 6.84456 6.19273 6.56747 6.50062L6.55747 6.51173C6.28037 6.81961 5.80616 6.84456 5.49827 6.56747C5.19039 6.29037 5.16544 5.81616 5.44253 5.50827L5.45253 5.49716C5.72963 5.18928 6.20385 5.16432 6.51173 5.44142ZM2.75 14.75V21.25H21.25V14.75H2.75ZM1.25 14.6C1.25 13.8544 1.85442 13.25 2.6 13.25H21.4C22.1456 13.25 22.75 13.8544 22.75 14.6V21.4C22.75 22.1456 22.1456 22.75 21.4 22.75H2.6C1.85441 22.75 1.25 22.1456 1.25 21.4V14.6ZM6.51173 17.4414C6.81961 17.7185 6.84456 18.1927 6.56747 18.5006L6.55747 18.5117C6.28037 18.8196 5.80616 18.8446 5.49827 18.5675C5.19039 18.2904 5.16544 17.8162 5.44253 17.5083L5.45253 17.4972C5.72963 17.1893 6.20385 17.1643 6.51173 17.4414Z" fill="black"/>
</g>
</g>
</g>
<defs>
<clipPath id="clip0_232_3633">
<rect width="24" height="24" rx="5" fill="white"/>
</clipPath>
</defs>
</svg>
