<svg width="24" height="24" viewBox="0 0 24 24" fill="none" xmlns="http://www.w3.org/2000/svg">
<g id="settings-profiles">
<g clip-path="url(#clip0_232_14780)">
<g id="Weight=Dynamic">
<path id="Vector (Stroke)" fill-rule="evenodd" clip-rule="evenodd" d="M11.115 1.77569C11.6228 1.33453 12.3779 1.33454 12.8857 1.77569L14.786 3.42658L17.2938 3.20796C17.9639 3.14954 18.5748 3.59338 18.7264 4.24877L19.2934 6.70135L21.4507 7.99851C22.0272 8.34514 22.2605 9.06329 21.9979 9.68257L21.015 12L21.9979 14.3175C22.2605 14.9368 22.0272 15.6549 21.4507 16.0016L19.2934 17.2987L18.7264 19.7513C18.5748 20.4067 17.9639 20.8505 17.2938 20.7921L14.786 20.5735L12.8857 22.2244C12.3779 22.6655 11.6228 22.6655 11.115 22.2244L9.21468 20.5735L6.70692 20.7921C6.03679 20.8505 5.42589 20.4067 5.27437 19.7513L4.70735 17.2987L2.55003 16.0016C1.97354 15.6549 1.7402 14.9368 2.00284 14.3175L2.9857 12L2.00284 9.68257C1.7402 9.06328 1.97354 8.34514 2.55003 7.99851L4.70735 6.70135L5.27437 4.24877C5.42589 3.59338 6.03679 3.14954 6.70692 3.20796L9.21468 3.42658L11.115 1.77569ZM12.0004 2.99352L10.1504 4.60067C9.87415 4.84065 9.51233 4.95821 9.14778 4.92644L6.70647 4.71361L6.15447 7.10121C6.07204 7.45773 5.84842 7.76551 5.53482 7.95407L3.43466 9.21687L4.39148 11.4729C4.53435 11.8098 4.53435 12.1903 4.39148 12.5271L3.43466 14.7832L5.53482 16.046C5.84842 16.2346 6.07204 16.5423 6.15447 16.8989L6.70647 19.2865L9.14778 19.0736C9.51232 19.0418 9.87415 19.1594 10.1504 19.3994L12.0004 21.0065L13.8503 19.3994C14.1266 19.1594 14.4884 19.0418 14.8529 19.0736L17.2943 19.2865L17.8463 16.8989C17.9287 16.5423 18.1523 16.2346 18.4659 16.046L20.5661 14.7832L19.6092 12.5271C19.4664 12.1903 19.4664 11.8098 19.6092 11.4729L20.5661 9.21687L18.4659 7.95407C18.1523 7.76551 17.9287 7.45773 17.8463 7.10121L17.2943 4.71361L14.8529 4.92644C14.4884 4.95821 14.1266 4.84065 13.8503 4.60067L12.0004 2.99352ZM16.5307 9.4697C16.8236 9.7626 16.8236 10.2375 16.5307 10.5304L11.5307 15.5304C11.2378 15.8233 10.7629 15.8233 10.47 15.5304L8.47003 13.5304C8.17714 13.2375 8.17714 12.7626 8.47003 12.4697C8.76292 12.1768 9.2378 12.1768 9.53069 12.4697L11.0004 13.9394L15.47 9.4697C15.7629 9.17681 16.2378 9.17681 16.5307 9.4697Z" fill="black"/>
</g>
</g>
</g>
<defs>
<clipPath id="clip0_232_14780">
<rect width="24" height="24" rx="5" fill="white"/>
</clipPath>
</defs>
</svg>
