<svg width="24" height="24" viewBox="0 0 24 24" fill="none" xmlns="http://www.w3.org/2000/svg">
<g id="settings">
<g clip-path="url(#clip0_232_14364)">
<g id="Weight=Dynamic">
<path id="Vector (Stroke)" fill-rule="evenodd" clip-rule="evenodd" d="M10.2557 1.80912C10.3424 1.47964 10.6403 1.25 10.981 1.25H12.9353C13.2762 1.25 13.5741 1.47982 13.6607 1.80947L14.1883 3.8181L16.126 4.61496L17.5127 3.42984C17.8104 3.17551 18.2535 3.19285 18.5303 3.46967L20.5303 5.46967C20.8061 5.74542 20.8245 6.18646 20.5727 6.48425L19.3925 7.88007L20.1715 9.76116L22.1848 10.2731C22.5173 10.3577 22.75 10.657 22.75 11L22.7499 12.9772C22.7499 13.3187 22.5192 13.617 22.1887 13.703L20.164 14.2299L19.3839 16.1135L20.5721 17.515C20.8245 17.8127 20.8063 18.2543 20.5303 18.5303L18.5303 20.5303C18.2486 20.812 17.7958 20.8243 17.4993 20.5584L17.4437 20.5087C17.4077 20.4766 17.3557 20.4302 17.2918 20.3735C17.1639 20.2601 16.989 20.1057 16.8008 19.9419C16.5687 19.7399 16.3307 19.5361 16.1369 19.3762L14.2392 20.1621L13.727 22.1841C13.6428 22.5169 13.3433 22.75 13 22.75H11C10.6565 22.75 10.3569 22.5167 10.2728 22.1836L9.76234 20.1622L7.9188 19.4038L6.4738 20.5814C6.17554 20.8245 5.74173 20.8024 5.46967 20.5303L3.46967 18.5303C3.18858 18.2492 3.17563 17.7976 3.44016 17.5009L4.64057 16.1544L3.8517 14.283L1.80248 13.7235C1.47627 13.6345 1.25 13.3381 1.25 13V11C1.25 10.6515 1.49012 10.3488 1.82955 10.2696L3.82402 9.80418L4.59144 7.91735L3.4179 6.47293C3.17556 6.17464 3.19791 5.74143 3.46967 5.46967L5.46967 3.46967C5.75053 3.18881 6.20166 3.17562 6.49844 3.43959L7.84921 4.64101L9.7177 3.85337L10.2557 1.80912ZM11.5591 2.75L11.0744 4.592C11.0152 4.81704 10.8548 5.00184 10.6404 5.09223L7.99574 6.20707C7.7293 6.31938 7.42202 6.26853 7.20597 6.07637L6.03013 5.03053L5.00862 6.05204L6.03546 7.31592C6.20804 7.52833 6.25121 7.81789 6.1481 8.07141L5.06724 10.7289C4.97551 10.9544 4.78003 11.1214 4.54295 11.1767L2.75 11.5951V12.4273L4.59864 12.932C4.82079 12.9926 5.00277 13.152 5.09222 13.3642L6.20686 16.0084C6.31929 16.2751 6.2682 16.5828 6.07559 16.7988L5.03111 17.9704L6.05132 18.9907L7.31736 17.9589C7.53067 17.7851 7.82203 17.742 8.07651 17.8467L10.6824 18.9187C10.9021 19.0091 11.066 19.1983 11.1242 19.4287L11.5841 21.25H12.4163L12.8775 19.429C12.9356 19.1995 13.0988 19.0109 13.3176 18.9203L15.9682 17.8226C16.2073 17.7236 16.4807 17.7549 16.6913 17.9054C16.9476 18.0886 17.4134 18.4865 17.7856 18.8105C17.8486 18.8653 17.9101 18.919 17.9688 18.9705L18.9812 17.9581L17.9438 16.7344C17.7621 16.5201 17.7155 16.2221 17.823 15.9625L18.9209 13.3111C19.0109 13.0939 19.1975 12.9314 19.425 12.8722L21.2499 12.3974L21.25 11.5831L19.4375 11.1223C19.2083 11.064 19.0199 10.9009 18.9294 10.6823L17.8318 8.03175C17.7244 7.77244 17.7708 7.47487 17.952 7.26055L18.9819 6.04253L17.96 5.02071L16.752 6.05312C16.538 6.23595 16.2397 6.28363 15.9795 6.17659L13.2725 5.06337C13.055 4.97394 12.8921 4.7877 12.8324 4.56027L12.3569 2.75H11.5591ZM12 9.75C10.7574 9.75 9.75 10.7574 9.75 12C9.75 13.2426 10.7574 14.25 12 14.25C13.2426 14.25 14.25 13.2426 14.25 12C14.25 10.7574 13.2426 9.75 12 9.75ZM8.25 12C8.25 9.92893 9.92893 8.25 12 8.25C14.0711 8.25 15.75 9.92893 15.75 12C15.75 14.0711 14.0711 15.75 12 15.75C9.92893 15.75 8.25 14.0711 8.25 12Z" fill="black"/>
</g>
</g>
</g>
<defs>
<clipPath id="clip0_232_14364">
<rect width="24" height="24" rx="5" fill="white"/>
</clipPath>
</defs>
</svg>
