<svg width="24" height="24" viewBox="0 0 24 24" fill="none" xmlns="http://www.w3.org/2000/svg">
<g id="shield-download">
<g clip-path="url(#clip0_232_12896)">
<g id="Weight=Dynamic">
<path id="Vector (Stroke)" fill-rule="evenodd" clip-rule="evenodd" d="M11.4035 1.36427C11.7964 1.27695 12.2037 1.27695 12.5966 1.36427L20.2587 3.06697C21.1474 3.26446 21.742 4.10934 21.6121 5.01858L19.7425 18.1061C19.6968 18.4259 19.5314 19.5137 18.4051 20.4999C17.2917 21.4747 15.3559 22.25 12 22.25C8.64416 22.25 6.70833 21.4747 5.59496 20.4999C4.46862 19.5137 4.30324 18.4259 4.25755 18.1061L2.38791 5.01859C2.25802 4.10935 2.85258 3.26446 3.74129 3.06697L11.4035 1.36427ZM12.2712 2.82855C12.0926 2.78886 11.9074 2.78886 11.7288 2.82855L4.06669 4.53125C3.93521 4.56047 3.85493 4.68112 3.87283 4.80645L5.7436 17.9019C5.77009 18.0883 5.86275 18.7406 6.58309 19.3713C7.32705 20.0227 8.85586 20.75 12 20.75C15.1442 20.75 16.673 20.0227 17.4169 19.3713C18.1373 18.7406 18.2299 18.0883 18.2564 17.9019L20.1272 4.80646C20.1451 4.68113 20.0648 4.56047 19.9333 4.53125L12.2712 2.82855ZM12 7.24999C12.4142 7.24999 12.75 7.58578 12.75 7.99999V13.1893L14.4697 11.4697C14.7626 11.1768 15.2374 11.1768 15.5303 11.4697C15.8232 11.7626 15.8232 12.2374 15.5303 12.5303L12.5303 15.5303C12.2374 15.8232 11.7626 15.8232 11.4697 15.5303L8.46968 12.5303C8.17678 12.2374 8.17678 11.7626 8.46968 11.4697C8.76257 11.1768 9.23744 11.1768 9.53034 11.4697L11.25 13.1893V7.99999C11.25 7.58578 11.5858 7.24999 12 7.24999Z" fill="black"/>
</g>
</g>
</g>
<defs>
<clipPath id="clip0_232_12896">
<rect width="24" height="24" rx="5" fill="white"/>
</clipPath>
</defs>
</svg>
