<svg width="24" height="24" viewBox="0 0 24 24" fill="none" xmlns="http://www.w3.org/2000/svg">
<g id="shield-eye">
<g clip-path="url(#clip0_232_12849)">
<g id="Weight=Dynamic">
<g id="Vector">
</g>
<path id="Vector (Stroke)" fill-rule="evenodd" clip-rule="evenodd" d="M11.4035 1.36427C11.7964 1.27695 12.2037 1.27695 12.5966 1.36427L20.2587 3.06697C21.1474 3.26446 21.742 4.10934 21.6121 5.01858L19.7425 18.1061C19.6968 18.4259 19.5314 19.5137 18.4051 20.4999C17.2917 21.4747 15.3559 22.25 12 22.25C8.64416 22.25 6.70833 21.4747 5.59496 20.4999C4.46862 19.5137 4.30324 18.4259 4.25755 18.1061L2.38791 5.01859C2.25802 4.10935 2.85258 3.26446 3.74129 3.06697L11.4035 1.36427ZM12.2712 2.82855C12.0926 2.78886 11.9074 2.78886 11.7288 2.82855L4.06669 4.53125C3.93521 4.56047 3.85493 4.68112 3.87283 4.80645L5.7436 17.9019C5.77009 18.0883 5.86275 18.7406 6.58309 19.3713C7.32705 20.0227 8.85586 20.75 12 20.75C15.1442 20.75 16.673 20.0227 17.4169 19.3713C18.1373 18.7406 18.2299 18.0883 18.2564 17.9019L20.1272 4.80646C20.1451 4.68113 20.0648 4.56047 19.9333 4.53125L12.2712 2.82855ZM8.00001 8.99999L7.46968 8.46966C7.17678 8.76256 7.17678 9.23743 7.46968 9.53032C7.7585 9.81915 8.22428 9.82316 8.51802 9.54237C8.51953 9.54107 8.52205 9.53891 8.52562 9.53597C8.53969 9.52438 8.57022 9.50041 8.61916 9.46778C8.71677 9.40271 8.88947 9.30199 9.15355 9.19635C9.68039 8.98562 10.5845 8.74999 12 8.74999C13.4155 8.74999 14.3196 8.98562 14.8465 9.19635C15.1105 9.30199 15.2832 9.40271 15.3809 9.46778C15.4298 9.50041 15.4603 9.52438 15.4744 9.53597C15.478 9.53892 15.4805 9.54107 15.482 9.54237C15.7757 9.82316 16.2415 9.81914 16.5303 9.53032C16.8232 9.23743 16.8232 8.76256 16.5303 8.46966L16 8.99999C16.5303 8.46966 16.5299 8.46927 16.5295 8.46888L16.5287 8.46807L16.527 8.46638L16.5233 8.46274L16.5147 8.45442C16.5084 8.44842 16.501 8.44153 16.4925 8.43381C16.4756 8.41837 16.4541 8.39962 16.428 8.37808C16.3756 8.33498 16.3046 8.28083 16.2129 8.21971C16.0293 8.09728 15.7645 7.948 15.4036 7.80364C14.6804 7.51437 13.5845 7.24999 12 7.24999C10.4155 7.24999 9.31962 7.51437 8.59647 7.80364C8.23555 7.948 7.97075 8.09728 7.78711 8.21971C7.69542 8.28083 7.62439 8.33498 7.57206 8.37808C7.5459 8.39962 7.52445 8.41837 7.50747 8.43381C7.49897 8.44153 7.4916 8.44842 7.48531 8.45442L7.47669 8.46274L7.47298 8.46638L7.47128 8.46807L7.47047 8.46888C7.47007 8.46927 7.46968 8.46966 8.00001 8.99999ZM12 12.75C11.8619 12.75 11.75 12.8619 11.75 13C11.75 13.1381 11.8619 13.25 12 13.25C12.1381 13.25 12.25 13.1381 12.25 13C12.25 12.8619 12.1381 12.75 12 12.75ZM10.25 13C10.25 12.0335 11.0335 11.25 12 11.25C12.9665 11.25 13.75 12.0335 13.75 13C13.75 13.9665 12.9665 14.75 12 14.75C11.0335 14.75 10.25 13.9665 10.25 13Z" fill="black"/>
</g>
</g>
</g>
<defs>
<clipPath id="clip0_232_12849">
<rect width="24" height="24" rx="5" fill="white"/>
</clipPath>
</defs>
</svg>
