<svg width="24" height="24" viewBox="0 0 24 24" fill="none" xmlns="http://www.w3.org/2000/svg">
<g id="shield-xmark">
<g clip-path="url(#clip0_232_12880)">
<g id="Weight=Dynamic">
<path id="Vector (Stroke)" fill-rule="evenodd" clip-rule="evenodd" d="M11.4035 1.36427C11.7964 1.27696 12.2037 1.27696 12.5966 1.36427L20.2587 3.06697C21.1474 3.26447 21.742 4.10935 21.6121 5.01859L19.7425 18.1061C19.6968 18.4259 19.5314 19.5137 18.4051 20.4999C17.2917 21.4747 15.3559 22.25 12 22.25C8.64416 22.25 6.70833 21.4747 5.59496 20.4999C4.46862 19.5137 4.30324 18.4259 4.25755 18.1061L2.38791 5.01859C2.25802 4.10935 2.85258 3.26447 3.74129 3.06697L11.4035 1.36427ZM12.2712 2.82855C12.0926 2.78886 11.9074 2.78886 11.7288 2.82855L4.06669 4.53125C3.93521 4.56047 3.85493 4.68113 3.87283 4.80646L5.7436 17.9019C5.77009 18.0883 5.86275 18.7406 6.58309 19.3713C7.32705 20.0227 8.85586 20.75 12 20.75C15.1442 20.75 16.673 20.0227 17.4169 19.3713C18.1373 18.7406 18.2299 18.0883 18.2564 17.9019L20.1272 4.80646C20.1451 4.68113 20.0648 4.56047 19.9333 4.53125L12.2712 2.82855ZM9.341 9.34835C9.63389 9.05546 10.1088 9.05546 10.4017 9.34835L11.9926 10.9393L13.5836 9.34835C13.8765 9.05546 14.3514 9.05546 14.6443 9.34835C14.9372 9.64124 14.9372 10.1161 14.6443 10.409L13.0533 12L14.6443 13.591C14.9372 13.8839 14.9372 14.3588 14.6443 14.6516C14.3514 14.9445 13.8765 14.9445 13.5836 14.6516L11.9926 13.0607L10.4017 14.6516C10.1088 14.9445 9.63389 14.9445 9.341 14.6516C9.04811 14.3588 9.04811 13.8839 9.341 13.591L10.932 12L9.341 10.409C9.04811 10.1161 9.04811 9.64124 9.341 9.34835Z" fill="black"/>
</g>
</g>
</g>
<defs>
<clipPath id="clip0_232_12880">
<rect width="24" height="24" rx="5" fill="white"/>
</clipPath>
</defs>
</svg>
