<svg width="24" height="24" viewBox="0 0 24 24" fill="none" xmlns="http://www.w3.org/2000/svg">
<g id="shield-question">
<g clip-path="url(#clip0_232_12870)">
<g id="Weight=Dynamic">
<path id="Vector (Stroke)" fill-rule="evenodd" clip-rule="evenodd" d="M11.4035 1.36427C11.7964 1.27696 12.2037 1.27696 12.5966 1.36427L20.2587 3.06697C21.1474 3.26447 21.742 4.10935 21.6121 5.01859L19.7425 18.1061C19.6968 18.4259 19.5314 19.5137 18.4051 20.4999C17.2917 21.4747 15.3559 22.25 12 22.25C8.64416 22.25 6.70833 21.4747 5.59496 20.4999C4.46862 19.5137 4.30324 18.4259 4.25755 18.1061L2.38791 5.01859C2.25802 4.10935 2.85258 3.26447 3.74129 3.06697L11.4035 1.36427ZM12.2712 2.82855C12.0926 2.78886 11.9074 2.78886 11.7288 2.82855L4.06669 4.53125C3.93521 4.56047 3.85493 4.68113 3.87283 4.80646L5.7436 17.9019C5.77009 18.0883 5.86275 18.7406 6.58309 19.3713C7.32705 20.0227 8.85586 20.75 12 20.75C15.1442 20.75 16.673 20.0227 17.4169 19.3713C18.1373 18.7406 18.2299 18.0883 18.2564 17.9019L20.1272 4.80646C20.1451 4.68113 20.0648 4.56047 19.9333 4.53125L12.2712 2.82855ZM10.3446 7.60312C10.0001 7.8954 9.75001 8.34101 9.75001 9C9.75001 9.41421 9.41422 9.75 9.00001 9.75C8.58579 9.75 8.25001 9.41421 8.25001 9C8.25001 7.90897 8.68737 7.04208 9.37415 6.45936C10.0446 5.89047 10.9119 5.62499 11.75 5.62499C12.5882 5.62499 13.4554 5.89048 14.1259 6.45937C14.8126 7.04209 15.25 7.90898 15.25 9C15.25 9.76588 15.0538 10.3495 14.7334 10.8301C14.4642 11.234 14.1143 11.5462 13.839 11.7919C13.8089 11.8187 13.7798 11.8447 13.7517 11.8699C13.4446 12.1464 13.213 12.3743 13.0433 12.6741C12.881 12.9609 12.75 13.3616 12.75 13.9999C12.75 14.4141 12.4142 14.7499 12 14.7499C11.5858 14.7499 11.25 14.4141 11.25 13.9999C11.25 13.1383 11.4316 12.4765 11.7379 11.9352C12.037 11.4069 12.4305 11.041 12.7483 10.755C12.773 10.7328 12.797 10.7112 12.8205 10.6901C13.1208 10.4204 13.3276 10.2347 13.4853 9.99802C13.6337 9.77552 13.75 9.48413 13.75 9C13.75 8.34102 13.4999 7.89541 13.1554 7.60313C12.7946 7.29701 12.2869 7.12499 11.75 7.12499C11.2132 7.12499 10.7054 7.297 10.3446 7.60312ZM12.5117 17.4414C12.8196 17.7185 12.8446 18.1927 12.5675 18.5006L12.5575 18.5117C12.2804 18.8196 11.8062 18.8446 11.4983 18.5675C11.1904 18.2904 11.1654 17.8162 11.4425 17.5083L11.4525 17.4972C11.7296 17.1893 12.2038 17.1643 12.5117 17.4414Z" fill="black"/>
</g>
</g>
</g>
<defs>
<clipPath id="clip0_232_12870">
<rect width="24" height="24" rx="5" fill="white"/>
</clipPath>
</defs>
</svg>
