<svg width="24" height="24" viewBox="0 0 24 24" fill="none" xmlns="http://www.w3.org/2000/svg">
<g id="shield-minus">
<g clip-path="url(#clip0_232_12819)">
<g id="Weight=Dynamic">
<path id="Vector (Stroke)" fill-rule="evenodd" clip-rule="evenodd" d="M11.4035 1.36428C11.7964 1.27697 12.2037 1.27697 12.5966 1.36428L20.2587 3.06699C21.1474 3.26448 21.742 4.10936 21.6121 5.0186L19.7425 18.1061C19.6968 18.4259 19.5314 19.5137 18.4051 20.4999C17.2917 21.4747 15.3559 22.25 12 22.25C8.64416 22.25 6.70833 21.4747 5.59496 20.4999C4.46862 19.5137 4.30324 18.4259 4.25755 18.1061L2.38791 5.0186C2.25802 4.10936 2.85258 3.26448 3.74129 3.06699L11.4035 1.36428ZM12.2712 2.82856C12.0926 2.78888 11.9074 2.78888 11.7288 2.82856L4.06669 4.53127C3.93521 4.56048 3.85493 4.68114 3.87283 4.80647L5.7436 17.9019C5.77009 18.0883 5.86275 18.7406 6.58309 19.3714C7.32705 20.0228 8.85586 20.75 12 20.75C15.1442 20.75 16.673 20.0228 17.4169 19.3714C18.1373 18.7406 18.2299 18.0884 18.2564 17.9019L20.1272 4.80647C20.1451 4.68114 20.0648 4.56048 19.9333 4.53127L12.2712 2.82856ZM8.25001 12C8.25001 11.5858 8.58579 11.25 9.00001 11.25H15C15.4142 11.25 15.75 11.5858 15.75 12C15.75 12.4142 15.4142 12.75 15 12.75H9.00001C8.58579 12.75 8.25001 12.4142 8.25001 12Z" fill="black"/>
</g>
</g>
</g>
<defs>
<clipPath id="clip0_232_12819">
<rect width="24" height="24" rx="5" fill="white"/>
</clipPath>
</defs>
</svg>
