<svg width="24" height="24" viewBox="0 0 24 24" fill="none" xmlns="http://www.w3.org/2000/svg">
<g id="shield-alt">
<g clip-path="url(#clip0_232_12974)">
<g id="Weight=Dynamic">
<path id="Vector (Stroke)" fill-rule="evenodd" clip-rule="evenodd" d="M11.4034 1.36425C11.7963 1.27694 12.2036 1.27694 12.5965 1.36425L20.2587 3.06695C21.1508 3.2652 21.7409 4.11638 21.6115 5.02218L19.7424 18.106C19.6967 18.4259 19.5313 19.5137 18.405 20.4999C17.2916 21.4747 15.3558 22.25 12 22.25C8.64411 22.25 6.70828 21.4747 5.59491 20.4999C4.46857 19.5137 4.30319 18.4259 4.2575 18.106L2.38837 5.02218C2.25897 4.11638 2.84913 3.2652 3.74124 3.06695L11.4034 1.36425ZM12.2711 2.82853C12.0925 2.78885 11.9074 2.78885 11.7288 2.82853L4.06664 4.53124C3.93857 4.5597 3.8549 4.68129 3.8733 4.81005L4.22186 7.24998H19.7781L20.1266 4.81005C20.145 4.68129 20.0614 4.5597 19.9333 4.53124L12.2711 2.82853ZM19.5638 8.74998H4.43615L5.22186 14.25H18.7781L19.5638 8.74998ZM18.5638 15.75H5.43615L5.74355 17.9019C5.77004 18.0883 5.8627 18.7406 6.58304 19.3713C7.327 20.0227 8.85581 20.75 12 20.75C15.1441 20.75 16.6729 20.0227 17.4169 19.3713C18.1372 18.7406 18.2299 18.0883 18.2564 17.9019L18.5638 15.75Z" fill="black"/>
</g>
</g>
</g>
<defs>
<clipPath id="clip0_232_12974">
<rect width="24" height="24" rx="5" fill="white"/>
</clipPath>
</defs>
</svg>
