<svg width="24" height="24" viewBox="0 0 24 24" fill="none" xmlns="http://www.w3.org/2000/svg">
<g id="shield-broken">
<g clip-path="url(#clip0_232_12811)">
<g id="Weight=Dynamic">
<path id="Vector (Stroke)" fill-rule="evenodd" clip-rule="evenodd" d="M11.4035 1.36425C11.7964 1.27694 12.2037 1.27694 12.5966 1.36425L20.2587 3.06695C21.1474 3.26445 21.742 4.10933 21.6121 5.01857L19.7425 18.106C19.6968 18.4259 19.5314 19.5137 18.4051 20.4999C17.2917 21.4747 15.3559 22.25 12 22.25C8.64416 22.25 6.70833 21.4747 5.59496 20.4999C4.46862 19.5137 4.30324 18.4259 4.25755 18.106L2.38791 5.01857C2.25802 4.10933 2.85258 3.26445 3.74129 3.06695L11.4035 1.36425ZM12.2712 2.82853C12.0926 2.78885 11.9074 2.78885 11.7288 2.82853L4.06669 4.53124C3.93521 4.56045 3.85493 4.68111 3.87283 4.80644L5.7436 17.9019C5.77009 18.0883 5.86275 18.7406 6.58309 19.3713C7.32705 20.0227 8.85586 20.75 12 20.75C15.1442 20.75 16.673 20.0227 17.4169 19.3713C18.1373 18.7406 18.2299 18.0883 18.2564 17.9019L20.1272 4.80644C20.1451 4.68111 20.0648 4.56045 19.9333 4.53124L12.2712 2.82853ZM11.8354 6.32916C12.2059 6.5144 12.3561 6.96491 12.1708 7.33539L10.2135 11.25H15C15.2599 11.25 15.5013 11.3846 15.638 11.6057C15.7747 11.8268 15.7871 12.1029 15.6708 12.3354L13.1708 17.3354C12.9856 17.7059 12.5351 17.856 12.1646 17.6708C11.7941 17.4856 11.6439 17.0351 11.8292 16.6646L13.7865 12.75H9.00001C8.74008 12.75 8.49867 12.6154 8.36202 12.3943C8.22537 12.1732 8.21294 11.8971 8.32919 11.6646L10.8292 6.66457C11.0144 6.29409 11.4649 6.14392 11.8354 6.32916Z" fill="black"/>
</g>
</g>
</g>
<defs>
<clipPath id="clip0_232_12811">
<rect width="24" height="24" rx="5" fill="white"/>
</clipPath>
</defs>
</svg>
