<svg width="24" height="24" viewBox="0 0 24 24" fill="none" xmlns="http://www.w3.org/2000/svg">
<g id="shield-search">
<g clip-path="url(#clip0_232_12839)">
<g id="Weight=Dynamic">
<path id="Vector (Stroke)" fill-rule="evenodd" clip-rule="evenodd" d="M11.4035 1.36428C11.7964 1.27697 12.2037 1.27697 12.5966 1.36428L20.2587 3.06699C21.1474 3.26448 21.742 4.10936 21.6121 5.0186L19.7425 18.1061C19.6968 18.4259 19.5314 19.5137 18.4051 20.4999C17.2917 21.4747 15.3559 22.25 12 22.25C8.64416 22.25 6.70833 21.4747 5.59496 20.4999C4.46862 19.5137 4.30324 18.4259 4.25755 18.1061L2.38791 5.0186C2.25802 4.10936 2.85258 3.26448 3.74129 3.06699L11.4035 1.36428ZM12.2712 2.82856C12.0926 2.78888 11.9074 2.78888 11.7288 2.82856L4.06669 4.53127C3.93521 4.56048 3.85493 4.68114 3.87283 4.80647L5.7436 17.9019C5.77009 18.0883 5.86275 18.7406 6.58309 19.3714C7.32705 20.0228 8.85586 20.75 12 20.75C15.1442 20.75 16.673 20.0228 17.4169 19.3714C18.1373 18.7406 18.2299 18.0884 18.2564 17.9019L20.1272 4.80647C20.1451 4.68114 20.0648 4.56048 19.9333 4.53127L12.2712 2.82856ZM11.5 9.25001C10.5335 9.25001 9.75001 10.0335 9.75001 11C9.75001 11.9665 10.5335 12.75 11.5 12.75C11.9843 12.75 12.4215 12.5543 12.7391 12.2358C13.0556 11.9184 13.25 11.4826 13.25 11C13.25 10.0335 12.4665 9.25001 11.5 9.25001ZM8.25001 11C8.25001 9.20508 9.70508 7.75001 11.5 7.75001C13.2949 7.75001 14.75 9.20508 14.75 11C14.75 11.6254 14.5729 12.2102 14.2666 12.706L15.5303 13.9697C15.8232 14.2626 15.8232 14.7374 15.5303 15.0303C15.2374 15.3232 14.7626 15.3232 14.4697 15.0303L13.206 13.7666C12.7102 14.0729 12.1254 14.25 11.5 14.25C9.70508 14.25 8.25001 12.7949 8.25001 11Z" fill="black"/>
</g>
</g>
</g>
<defs>
<clipPath id="clip0_232_12839">
<rect width="24" height="24" rx="5" fill="white"/>
</clipPath>
</defs>
</svg>
