<svg width="24" height="24" viewBox="0 0 24 24" fill="none" xmlns="http://www.w3.org/2000/svg">
<g id="shield-alert">
<g clip-path="url(#clip0_232_12860)">
<g id="Weight=Dynamic">
<path id="Vector (Stroke)" fill-rule="evenodd" clip-rule="evenodd" d="M11.4035 1.36428C11.7964 1.27696 12.2037 1.27696 12.5966 1.36428L20.2587 3.06698C21.1474 3.26447 21.742 4.10935 21.6121 5.01859L19.7425 18.1061C19.6968 18.4259 19.5314 19.5137 18.4051 20.4999C17.2917 21.4747 15.3559 22.25 12 22.25C8.64416 22.25 6.70833 21.4747 5.59496 20.4999C4.46862 19.5137 4.30324 18.4259 4.25755 18.1061L2.38791 5.01859C2.25802 4.10935 2.85258 3.26447 3.74129 3.06698L11.4035 1.36428ZM12.2712 2.82856C12.0926 2.78887 11.9074 2.78887 11.7288 2.82856L4.06669 4.53126C3.93521 4.56047 3.85493 4.68113 3.87283 4.80646L5.7436 17.9019C5.77009 18.0883 5.86275 18.7406 6.58309 19.3713C7.32705 20.0228 8.85586 20.75 12 20.75C15.1442 20.75 16.673 20.0228 17.4169 19.3714C18.1373 18.7406 18.2299 18.0883 18.2564 17.9019L20.1272 4.80646C20.1451 4.68113 20.0648 4.56047 19.9333 4.53126L12.2712 2.82856ZM12 6.25C12.4142 6.25 12.75 6.58579 12.75 7V12C12.75 12.4142 12.4142 12.75 12 12.75C11.5858 12.75 11.25 12.4142 11.25 12V7C11.25 6.58579 11.5858 6.25 12 6.25ZM12.5117 15.4414C12.8196 15.7185 12.8446 16.1927 12.5675 16.5006L12.5575 16.5117C12.2804 16.8196 11.8062 16.8446 11.4983 16.5675C11.1904 16.2904 11.1654 15.8162 11.4425 15.5083L11.4525 15.4972C11.7296 15.1893 12.2038 15.1643 12.5117 15.4414Z" fill="black"/>
</g>
</g>
</g>
<defs>
<clipPath id="clip0_232_12860">
<rect width="24" height="24" rx="5" fill="white"/>
</clipPath>
</defs>
</svg>
