<svg width="24" height="24" viewBox="0 0 24 24" fill="none" xmlns="http://www.w3.org/2000/svg">
<g id="shirt">
<g clip-path="url(#clip0_232_2570)">
<g id="Weight=Dynamic">
<g id="Vector">
<path fill-rule="evenodd" clip-rule="evenodd" d="M5.99996 10.25C6.41417 10.25 6.74996 10.5858 6.74996 11V19.25H17.25V11C17.25 10.5858 17.5857 10.25 18 10.25C18.4142 10.25 18.75 10.5858 18.75 11V19.4C18.75 20.1456 18.1455 20.75 17.4 20.75H6.59996C5.85437 20.75 5.24996 20.1456 5.24996 19.4V11C5.24996 10.5858 5.58574 10.25 5.99996 10.25Z" fill="black"/>
<path fill-rule="evenodd" clip-rule="evenodd" d="M5.24996 4C5.24996 3.58579 5.58574 3.25 5.99996 3.25V4.75C5.58574 4.75 5.24996 4.41421 5.24996 4ZM8.299 4.75H5.99996V3.25H8.99996C9.41417 3.25 9.74996 3.58579 9.74996 4C9.74996 4.78906 10.2109 6.25 12 6.25C12.4142 6.25 12.75 6.58579 12.75 7C12.75 7.41422 12.4142 7.75 12 7.75C11.1444 7.75 10.4479 7.57105 9.89218 7.252C9.33434 6.93176 8.96097 6.49478 8.71653 6.04664C8.47022 5.59507 8.35391 5.12926 8.299 4.75Z" fill="black"/>
<path fill-rule="evenodd" clip-rule="evenodd" d="M18.75 4C18.75 3.58579 18.4142 3.25 18 3.25V4.75C18.4142 4.75 18.75 4.41421 18.75 4ZM15.7009 4.75H18V3.25H15C14.5857 3.25 14.25 3.58579 14.25 4C14.25 4.78906 13.789 6.25 12 6.25C11.5857 6.25 11.25 6.58579 11.25 7C11.25 7.41422 11.5857 7.75 12 7.75C12.8555 7.75 13.552 7.57105 14.1077 7.252C14.6656 6.93176 15.0389 6.49478 15.2834 6.04664C15.5297 5.59507 15.646 5.12926 15.7009 4.75Z" fill="black"/>
<path fill-rule="evenodd" clip-rule="evenodd" d="M17.3036 3.72146C17.4574 3.33687 17.8939 3.14981 18.2785 3.30364L22.7214 5.08081C23.4137 5.35771 23.7504 6.14337 23.4735 6.83563L21.8472 10.9014C21.6422 11.4139 21.1458 11.75 20.5937 11.75H18C17.5857 11.75 17.25 11.4142 17.25 11C17.25 10.5858 17.5857 10.25 18 10.25L20.4922 10.25L22.0251 6.41782L17.7214 4.69636C17.3368 4.54252 17.1498 4.10605 17.3036 3.72146Z" fill="black"/>
<path fill-rule="evenodd" clip-rule="evenodd" d="M3.50766 10.25H5.99996C6.41417 10.25 6.74996 10.5858 6.74996 11C6.74996 11.4142 6.4141 11.75 5.99988 11.75H3.4061C2.85408 11.75 2.35767 11.4139 2.15266 10.9014L0.526359 6.83563C0.249456 6.14337 0.586168 5.35771 1.27843 5.08081L5.72134 3.30364C6.10593 3.14981 6.5424 3.33687 6.69624 3.72146C6.85007 4.10605 6.66301 4.54252 6.27843 4.69636L1.97478 6.41782L3.50766 10.25Z" fill="black"/>
</g>
</g>
</g>
</g>
<defs>
<clipPath id="clip0_232_2570">
<rect width="24" height="24" rx="5" fill="white"/>
</clipPath>
</defs>
</svg>
