<svg width="24" height="24" viewBox="0 0 24 24" fill="none" xmlns="http://www.w3.org/2000/svg">
<g id="shirt-tank-top">
<g clip-path="url(#clip0_232_2559)">
<g id="Weight=Dynamic">
<g id="Vector">
<path fill-rule="evenodd" clip-rule="evenodd" d="M7.26283 5.28849C7.45153 5.22559 7.6575 5.24022 7.83541 5.32918C9.18236 6.00265 10.4863 6.25 12 6.25C12.4142 6.25 12.75 6.58579 12.75 7C12.75 7.41421 12.4142 7.75 12 7.75C10.4645 7.75 9.50798 7.62292 8.78449 7.40587C8.40246 7.29126 8.08403 7.14779 7.80536 7.00675C7.74897 7.10248 7.69706 7.18782 7.65026 7.26478C7.61156 7.3284 7.57635 7.38629 7.54497 7.4396C7.4118 7.66578 7.31717 7.85418 7.22358 8.19734C7.02691 8.91847 7.17783 9.48149 7.46269 10.1973C7.50262 10.2977 7.54613 10.4026 7.59155 10.512C7.86174 11.1632 8.19924 11.9766 8.24905 12.9621C8.39427 15.836 7.89144 18.0488 7.09039 20.25H11.9992L12 21L12 21.75H6C5.75114 21.75 5.51848 21.6266 5.37895 21.4205C5.23943 21.2144 5.21122 20.9525 5.30365 20.7215C6 18 6.83 16 6.75096 13.0379C6.71523 12.3307 6.48777 11.7764 6.22014 11.1242C6.1708 11.004 6.1201 10.8804 6.06898 10.7519C5.74798 9.94525 5.44916 9.00266 5.77643 7.80266C5.91261 7.30335 6.06797 6.99176 6.25236 6.67857C6.29648 6.60364 6.33996 6.53208 6.38404 6.45953C6.51596 6.24241 6.65327 6.01642 6.82918 5.6646C6.91813 5.48668 7.07412 5.35139 7.26283 5.28849ZM12 21L12 21.75C12.4142 21.75 12.75 21.4142 12.75 21C12.75 20.5858 12.4134 20.25 11.9992 20.25L12 21Z" fill="black"/>
<path fill-rule="evenodd" clip-rule="evenodd" d="M16.7372 5.28849C16.5485 5.22559 16.3425 5.24022 16.1646 5.32918C14.8176 6.00265 13.5137 6.25 12 6.25C11.5858 6.25 11.25 6.58579 11.25 7C11.25 7.41421 11.5858 7.75 12 7.75C13.5355 7.75 14.492 7.62292 15.2155 7.40587C15.5975 7.29126 15.916 7.14779 16.1946 7.00675C16.251 7.10248 16.3029 7.18782 16.3497 7.26478C16.3884 7.3284 16.4237 7.38629 16.455 7.4396C16.5882 7.66579 16.6828 7.85418 16.7764 8.19734C16.9731 8.91847 16.8222 9.4815 16.5373 10.1973C16.4974 10.2977 16.4539 10.4026 16.4085 10.512C16.1383 11.1632 15.8008 11.9766 15.751 12.9621C15.6057 15.836 16.1086 18.0488 16.9096 20.25H12.0008L12 21L12 21.75H18C18.2489 21.75 18.4815 21.6266 18.6211 21.4205C18.7606 21.2144 18.7888 20.9525 18.6964 20.7215C18 18 17.17 16 17.249 13.0379C17.2848 12.3307 17.5122 11.7764 17.7799 11.1242C17.8292 11.004 17.8799 10.8804 17.931 10.7519C18.252 9.94526 18.5508 9.00266 18.2236 7.80266C18.0874 7.30335 17.932 6.99176 17.7476 6.67857C17.7035 6.60364 17.66 6.53208 17.616 6.45953C17.484 6.24241 17.3467 6.01642 17.1708 5.6646C17.0819 5.48668 16.9259 5.35139 16.7372 5.28849ZM12 21L12 21.75C11.5857 21.75 11.25 21.4142 11.25 21C11.25 20.5858 11.5866 20.25 12.0008 20.25L12 21Z" fill="black"/>
<path fill-rule="evenodd" clip-rule="evenodd" d="M7.5 2.25C7.91422 2.25 8.25 2.58579 8.25 3V6.00002C8.25 6.41423 7.91422 6.75002 7.5 6.75002C7.08579 6.75002 6.75 6.41423 6.75 6.00002V3C6.75 2.58579 7.08579 2.25 7.5 2.25Z" fill="black"/>
<path fill-rule="evenodd" clip-rule="evenodd" d="M16.5 2.25C16.9142 2.25 17.25 2.58579 17.25 3V6.00002C17.25 6.41423 16.9142 6.75002 16.5 6.75002C16.0858 6.75002 15.75 6.41423 15.75 6.00002V3C15.75 2.58579 16.0858 2.25 16.5 2.25Z" fill="black"/>
</g>
</g>
</g>
</g>
<defs>
<clipPath id="clip0_232_2559">
<rect width="24" height="24" rx="5" fill="white"/>
</clipPath>
</defs>
</svg>
