<svg width="24" height="24" viewBox="0 0 24 24" fill="none" xmlns="http://www.w3.org/2000/svg">
<g id="shopping-bag-arrow-up">
<g clip-path="url(#clip0_232_13474)">
<g id="Weight=Dynamic">
<path id="Vector (Stroke)" fill-rule="evenodd" clip-rule="evenodd" d="M11.9999 3.75C11.3096 3.75 10.7499 4.30964 10.7499 5C10.7499 5.41421 10.4141 5.75 9.99993 5.75C9.58572 5.75 9.24993 5.41421 9.24993 5C9.24993 3.48122 10.4812 2.25 11.9999 2.25C13.5187 2.25 14.7499 3.48122 14.7499 5C14.7499 5.41421 14.4141 5.75 13.9999 5.75C13.5857 5.75 13.2499 5.41421 13.2499 5C13.2499 4.30964 12.6903 3.75 11.9999 3.75ZM3.99775 9.58184C4.20414 8.24031 5.35845 7.25 6.71577 7.25H17.2841C18.6414 7.25 19.7957 8.2403 20.0021 9.58184L21.3867 18.5818C21.643 20.2477 20.3541 21.75 18.6687 21.75H16.4999C16.0857 21.75 15.7499 21.4142 15.7499 21C15.7499 20.5858 16.0857 20.25 16.4999 20.25H18.6687C19.4348 20.25 20.0207 19.5671 19.9042 18.8099L18.5196 9.80993C18.4257 9.20014 17.9011 8.75 17.2841 8.75H6.71577C6.09881 8.75 5.57412 9.20014 5.48031 9.80993L4.09569 18.8099C3.9792 19.5671 4.56505 20.25 5.33116 20.25H7.49993C7.91415 20.25 8.24993 20.5858 8.24993 21C8.24993 21.4142 7.91415 21.75 7.49993 21.75H5.33116C3.64572 21.75 2.35685 20.2477 2.61313 18.5818L3.99775 9.58184ZM8.4696 14.4697L11.4696 11.4697C11.7625 11.1768 12.2374 11.1768 12.5303 11.4697L15.5303 14.4697C15.8232 14.7626 15.8232 15.2374 15.5303 15.5303C15.2374 15.8232 14.7625 15.8232 14.4696 15.5303L12.7499 13.8107V19C12.7499 19.4142 12.4141 19.75 11.9999 19.75C11.5857 19.75 11.2499 19.4142 11.2499 19V13.8107L9.53026 15.5303C9.23737 15.8232 8.7625 15.8232 8.4696 15.5303C8.17671 15.2374 8.17671 14.7626 8.4696 14.4697Z" fill="black"/>
</g>
</g>
</g>
<defs>
<clipPath id="clip0_232_13474">
<rect width="24" height="24" rx="5" fill="white"/>
</clipPath>
</defs>
</svg>
