<svg width="24" height="24" viewBox="0 0 24 24" fill="none" xmlns="http://www.w3.org/2000/svg">
<g id="shopping-bag-check">
<g clip-path="url(#clip0_232_13442)">
<g id="Weight=Dynamic">
<path id="Vector (Stroke)" fill-rule="evenodd" clip-rule="evenodd" d="M11.9999 3.75C11.3096 3.75 10.7499 4.30964 10.7499 5C10.7499 5.41421 10.4141 5.75 9.99993 5.75C9.58572 5.75 9.24993 5.41421 9.24993 5C9.24993 3.48122 10.4812 2.25 11.9999 2.25C13.5187 2.25 14.7499 3.48122 14.7499 5C14.7499 5.41421 14.4141 5.75 13.9999 5.75C13.5857 5.75 13.2499 5.41421 13.2499 5C13.2499 4.30964 12.6903 3.75 11.9999 3.75ZM3.99775 9.58184C4.20414 8.24031 5.35845 7.25 6.71577 7.25H17.2841C18.6414 7.25 19.7957 8.2403 20.0021 9.58184L20.7412 14.386C20.8042 14.7954 20.5234 15.1783 20.114 15.2413C19.7046 15.3043 19.3216 15.0234 19.2587 14.614L18.5196 9.80993C18.4257 9.20014 17.9011 8.75 17.2841 8.75H6.71577C6.09881 8.75 5.57412 9.20014 5.48031 9.80993L4.09569 18.8099C3.9792 19.5671 4.56505 20.25 5.33116 20.25H11.9999C12.4141 20.25 12.7499 20.5858 12.7499 21C12.7499 21.4142 12.4141 21.75 11.9999 21.75H5.33116C3.64572 21.75 2.35685 20.2477 2.61313 18.5818L3.99775 9.58184ZM22.5303 16.4697C22.8232 16.7626 22.8232 17.2374 22.5303 17.5303L17.5303 22.5303C17.2374 22.8232 16.7625 22.8232 16.4696 22.5303L13.4696 19.5303C13.1767 19.2374 13.1767 18.7626 13.4696 18.4697C13.7625 18.1768 14.2374 18.1768 14.5303 18.4697L16.9999 20.9393L21.4696 16.4697C21.7625 16.1768 22.2374 16.1768 22.5303 16.4697Z" fill="black"/>
</g>
</g>
</g>
<defs>
<clipPath id="clip0_232_13442">
<rect width="24" height="24" rx="5" fill="white"/>
</clipPath>
</defs>
</svg>
