<svg width="24" height="24" viewBox="0 0 24 24" fill="none" xmlns="http://www.w3.org/2000/svg">
<g id="shop-four-tiles-window">
<g clip-path="url(#clip0_232_17366)">
<g id="Weight=Dynamic">
<path id="Vector (Stroke)" fill-rule="evenodd" clip-rule="evenodd" d="M2.16997 3.37806C2.27847 2.72711 2.84167 2.25 3.50161 2.25H20.485C21.1449 2.25 21.7081 2.72711 21.8166 3.37806L22.5211 7.60531C22.5842 7.98376 22.4871 8.43748 22.1291 8.75489C22.0314 8.84152 21.9047 8.94424 21.7501 9.05024V19C21.7501 20.5188 20.5189 21.75 19.0001 21.75H5.00008C3.4813 21.75 2.25008 20.5188 2.25008 19V9.05953C2.08928 8.95024 1.95803 8.84404 1.85747 8.75488C1.49948 8.43747 1.40236 7.98376 1.46543 7.60532L2.16997 3.37806ZM3.75008 9.68131V19C3.75008 19.6904 4.30973 20.25 5.00008 20.25H19.0001C19.6904 20.25 20.2501 19.6904 20.2501 19V9.67872C20.0158 9.72368 19.7633 9.75 19.4932 9.75C18.5754 9.75 17.8219 9.4445 17.3086 9.15118C17.1923 9.08468 17.0869 9.01806 16.9932 8.95453C16.8996 9.01806 16.7942 9.08468 16.6779 9.15118C16.1645 9.4445 15.4111 9.75 14.4932 9.75C13.5754 9.75 12.8219 9.4445 12.3086 9.15118C12.1923 9.08468 12.0869 9.01806 11.9932 8.95453C11.8996 9.01806 11.7942 9.08468 11.6779 9.15118C11.1645 9.4445 10.4111 9.75 9.49325 9.75C8.57541 9.75 7.82194 9.4445 7.30864 9.15118C7.19227 9.08468 7.0869 9.01806 6.99326 8.95454C6.89962 9.01806 6.79426 9.08468 6.67789 9.15118C6.1646 9.4445 5.41114 9.75 4.49331 9.75C4.2285 9.75 3.98056 9.72469 3.75008 9.68131ZM7.77954 7.6745C7.85595 7.72871 7.94759 7.78867 8.05285 7.84882C8.41455 8.0555 8.91108 8.25 9.49325 8.25C10.0754 8.25 10.5719 8.0555 10.9336 7.84882C11.0561 7.77882 11.1602 7.70909 11.2432 7.64837V3.75H8.17199L7.77954 7.6745ZM6.66451 3.75H3.62867L2.96591 7.72657C3.25392 7.95071 3.77377 8.25 4.49331 8.25C5.07547 8.25 5.57199 8.0555 5.93366 7.84882C6.07345 7.76894 6.1892 7.68941 6.27718 7.62322L6.66451 3.75ZM7.52209 7.46813L7.52116 7.46727L7.52012 7.46624C7.52012 7.46624 7.52074 7.46685 7.52209 7.46813ZM3.64956 3.62466C3.64955 3.62472 3.64957 3.6246 3.64956 3.62466V3.62466ZM12.7432 3.75V7.64837C12.8263 7.70909 12.9304 7.77882 13.0529 7.84882C13.4145 8.0555 13.9111 8.25 14.4932 8.25C15.0754 8.25 15.5719 8.0555 15.9336 7.84882C16.0389 7.78867 16.1305 7.72871 16.207 7.6745L15.8145 3.75H12.7432ZM17.322 3.75L17.7093 7.62321C17.7973 7.6894 17.9131 7.76893 18.0529 7.84882C18.4146 8.0555 18.9111 8.25 19.4932 8.25C20.2128 8.25 20.7327 7.95071 21.0207 7.72656L20.3579 3.75H17.322ZM17.5221 7.46813L17.5212 7.46727L17.5201 7.46624C17.5199 7.466 17.5205 7.46665 17.5221 7.46813ZM16.4644 7.46813L16.4653 7.46727L16.4664 7.46624C16.4663 7.46633 16.4657 7.46694 16.4644 7.46813ZM12.5221 7.46813L12.5212 7.46727L12.5201 7.46624C12.5199 7.466 12.5205 7.46665 12.5221 7.46813ZM11.4644 7.46813L11.4653 7.46727L11.4664 7.46624C11.4663 7.46633 11.4657 7.46694 11.4644 7.46813Z" fill="black"/>
</g>
</g>
</g>
<defs>
<clipPath id="clip0_232_17366">
<rect width="24" height="24" rx="5" fill="white"/>
</clipPath>
</defs>
</svg>
