<svg width="24" height="24" viewBox="0 0 24 24" fill="none" xmlns="http://www.w3.org/2000/svg">
<g id="shop-four-tiles">
<g clip-path="url(#clip0_232_17105)">
<g id="Weight=Dynamic">
<path id="Vector (Stroke)" fill-rule="evenodd" clip-rule="evenodd" d="M2.16997 3.37806C2.27847 2.72711 2.84167 2.25 3.50161 2.25H20.4852C21.1451 2.25 21.7084 2.72711 21.8168 3.37806L22.5214 7.60531C22.5845 7.98376 22.4873 8.43748 22.1293 8.75489C22.0316 8.84157 21.9048 8.94435 21.7501 9.05041V19C21.7501 20.5188 20.5189 21.75 19.0001 21.75H5.00008C3.4813 21.75 2.25008 20.5188 2.25008 19V9.05953C2.08928 8.95024 1.95803 8.84404 1.85747 8.75488C1.49948 8.43747 1.40236 7.98376 1.46543 7.60532L2.16997 3.37806ZM3.75008 9.68131V19C3.75008 19.6904 4.30973 20.25 5.00008 20.25H8.08334V15C8.08334 13.4812 9.31455 12.25 10.8333 12.25H12.8333C14.3521 12.25 15.5833 13.4812 15.5833 15V20.25H19.0001C19.6904 20.25 20.2501 19.6904 20.2501 19V9.67877C20.0158 9.7237 19.7634 9.75 19.4935 9.75C18.5757 9.75 17.8222 9.4445 17.3089 9.15118C17.1925 9.08468 17.0871 9.01806 16.9935 8.95453C16.8998 9.01806 16.7945 9.08468 16.6781 9.15118C16.1648 9.4445 15.4113 9.75 14.4935 9.75C13.5757 9.75 12.8222 9.4445 12.3089 9.15118C12.1925 9.08468 12.0871 9.01806 11.9935 8.95453C11.8998 9.01806 11.7945 9.08468 11.6781 9.15118C11.1648 9.4445 10.4113 9.75 9.49349 9.75C8.57566 9.75 7.82219 9.4445 7.30889 9.15118C7.19249 9.08467 7.08712 9.01804 6.99346 8.95451C6.89979 9.01805 6.79439 9.08468 6.67798 9.1512C6.16464 9.4445 5.41114 9.75 4.49331 9.75C4.2285 9.75 3.98056 9.72469 3.75008 9.68131ZM7.77978 7.6745C7.8562 7.72871 7.94783 7.78867 8.0531 7.84882C8.41479 8.0555 8.91132 8.25 9.49349 8.25C10.0757 8.25 10.5722 8.0555 10.9339 7.84882C11.0564 7.77882 11.1604 7.70909 11.2435 7.64837V3.75H8.17223L7.77978 7.6745ZM6.66475 3.75H3.62867L2.96591 7.72657C3.25392 7.95071 3.77377 8.25 4.49331 8.25C5.07548 8.25 5.57207 8.0555 5.93383 7.8488C6.07364 7.76891 6.18942 7.68937 6.27743 7.62318L6.66475 3.75ZM6.4647 7.46808C6.46625 7.46661 6.46691 7.46596 6.46667 7.46619L6.46563 7.46722L6.4647 7.46808ZM3.64956 3.62466C3.64955 3.62472 3.64957 3.6246 3.64956 3.62466V3.62466ZM12.7435 3.75V7.64837C12.8266 7.70909 12.9306 7.77882 13.0531 7.84882C13.4148 8.0555 13.9113 8.25 14.4935 8.25C15.0757 8.25 15.5722 8.0555 15.9339 7.84882C16.0392 7.78867 16.1308 7.72871 16.2072 7.6745L15.8148 3.75H12.7435ZM17.3222 3.75L17.7096 7.62321C17.7975 7.6894 17.9133 7.76893 18.0531 7.84882C18.4148 8.0555 18.9113 8.25 19.4935 8.25C20.213 8.25 20.7329 7.95071 21.0209 7.72656L20.3581 3.75H17.3222ZM17.5223 7.46813L17.5214 7.46727L17.5204 7.46624C17.5204 7.46624 17.521 7.46685 17.5223 7.46813ZM16.4647 7.46813L16.4656 7.46727L16.4666 7.46624C16.4669 7.466 16.4662 7.46665 16.4647 7.46813ZM12.5223 7.46813L12.5214 7.46727L12.5204 7.46624C12.5201 7.466 12.5208 7.46665 12.5223 7.46813ZM11.4647 7.46813L11.4656 7.46727L11.4666 7.46624C11.4665 7.46633 11.4659 7.46694 11.4647 7.46813ZM7.52233 7.46813L7.5214 7.46727L7.52036 7.46624C7.52012 7.466 7.52078 7.46665 7.52233 7.46813ZM14.0833 20.25V15C14.0833 14.3096 13.5237 13.75 12.8333 13.75H10.8333C10.143 13.75 9.58333 14.3096 9.58333 15V20.25H14.0833Z" fill="black"/>
</g>
</g>
</g>
<defs>
<clipPath id="clip0_232_17105">
<rect width="24" height="24" rx="5" fill="white"/>
</clipPath>
</defs>
</svg>
