<svg width="24" height="24" viewBox="0 0 24 24" fill="none" xmlns="http://www.w3.org/2000/svg">
<g id="shopping-code-xmark">
<g clip-path="url(#clip0_232_13246)">
<g id="Weight=Dynamic">
<path id="Vector (Stroke)" fill-rule="evenodd" clip-rule="evenodd" d="M6 4.25C6.41421 4.25 6.75 4.58579 6.75 5V7C6.75 7.41421 6.41421 7.75 6 7.75C5.58579 7.75 5.25 7.41421 5.25 7V5C5.25 4.58579 5.58579 4.25 6 4.25ZM10 4.25C10.4142 4.25 10.75 4.58579 10.75 5V11C10.75 11.4142 10.4142 11.75 10 11.75C9.58579 11.75 9.25 11.4142 9.25 11V5C9.25 4.58579 9.58579 4.25 10 4.25ZM14 4.25C14.4142 4.25 14.75 4.58579 14.75 5V10C14.75 10.4142 14.4142 10.75 14 10.75C13.5858 10.75 13.25 10.4142 13.25 10V5C13.25 4.58579 13.5858 4.25 14 4.25ZM18 4.25C18.4142 4.25 18.75 4.58579 18.75 5V6C18.75 6.41421 18.4142 6.75 18 6.75C17.5858 6.75 17.25 6.41421 17.25 6V5C17.25 4.58579 17.5858 4.25 18 4.25ZM18 8.25C18.4142 8.25 18.75 8.58579 18.75 9V13C18.75 13.4142 18.4142 13.75 18 13.75C17.5858 13.75 17.25 13.4142 17.25 13V9C17.25 8.58579 17.5858 8.25 18 8.25ZM6 9.25C6.41421 9.25 6.75 9.58579 6.75 10V16C6.75 16.4142 6.41421 16.75 6 16.75C5.58579 16.75 5.25 16.4142 5.25 16V10C5.25 9.58579 5.58579 9.25 6 9.25ZM14 12.25C14.4142 12.25 14.75 12.5858 14.75 13V15C14.75 15.4142 14.4142 15.75 14 15.75C13.5858 15.75 13.25 15.4142 13.25 15V13C13.25 12.5858 13.5858 12.25 14 12.25ZM10 13.25C10.4142 13.25 10.75 13.5858 10.75 14V16C10.75 16.4142 10.4142 16.75 10 16.75C9.58579 16.75 9.25 16.4142 9.25 16V14C9.25 13.5858 9.58579 13.25 10 13.25ZM15.5908 16.591C15.8837 16.2981 16.3585 16.2981 16.6514 16.591L18.2424 18.182L19.8334 16.591C20.1263 16.2981 20.6012 16.2981 20.8941 16.591C21.187 16.8839 21.187 17.3588 20.8941 17.6517L19.3031 19.2427L20.8941 20.8336C21.187 21.1265 21.187 21.6014 20.8941 21.8943C20.6012 22.1872 20.1263 22.1872 19.8334 21.8943L18.2424 20.3033L16.6514 21.8943C16.3585 22.1872 15.8837 22.1872 15.5908 21.8943C15.2979 21.6014 15.2979 21.1265 15.5908 20.8336L17.1818 19.2427L15.5908 17.6517C15.2979 17.3588 15.2979 16.8839 15.5908 16.591ZM6 17.75C6.41421 17.75 6.75 18.0858 6.75 18.5V19C6.75 19.4142 6.41421 19.75 6 19.75C5.58579 19.75 5.25 19.4142 5.25 19V18.5C5.25 18.0858 5.58579 17.75 6 17.75ZM10 17.75C10.4142 17.75 10.75 18.0858 10.75 18.5V19C10.75 19.4142 10.4142 19.75 10 19.75C9.58579 19.75 9.25 19.4142 9.25 19V18.5C9.25 18.0858 9.58579 17.75 10 17.75Z" fill="black"/>
</g>
</g>
</g>
<defs>
<clipPath id="clip0_232_13246">
<rect width="24" height="24" rx="5" fill="white"/>
</clipPath>
</defs>
</svg>
