<svg width="24" height="24" viewBox="0 0 24 24" fill="none" xmlns="http://www.w3.org/2000/svg">
<g id="shop">
<g clip-path="url(#clip0_232_17456)">
<g id="Weight=Dynamic">
<path id="Vector (Stroke)" fill-rule="evenodd" clip-rule="evenodd" d="M4.56582 3.75L2.95837 9.37609C3.33372 9.41681 3.79513 9.45247 4.26568 9.45411C4.84021 9.45613 5.37778 9.40678 5.77953 9.28317C6.24617 9.13958 6.88287 8.79284 7.2844 8.55713L7.685 3.75H4.56582ZM9.1902 3.75L8.78618 8.5982C9.19257 8.83365 9.78284 9.14845 10.2207 9.28317C10.9206 9.49854 11.4704 9.59454 12.0001 9.59454C12.5298 9.59454 13.0796 9.49854 13.7795 9.28317C14.2173 9.14845 14.8076 8.83365 15.214 8.59819L14.81 3.75H9.1902ZM16.3152 3.75L16.7158 8.55713C17.1173 8.79284 17.754 9.13958 18.2207 9.28317C18.6224 9.40678 19.16 9.45613 19.7345 9.45411C20.2051 9.45247 20.6665 9.41681 21.0418 9.37609L19.4344 3.75H16.3152ZM16.0001 9.8763C16.4229 10.1229 17.1585 10.5258 17.7795 10.7168C18.3935 10.9058 19.1064 10.9563 19.7398 10.9541C19.9129 10.9535 20.084 10.9489 20.2501 10.9414V19C20.2501 19.6904 19.6905 20.25 19.0001 20.25H15.5833V15C15.5833 13.4812 14.3521 12.25 12.8333 12.25H10.8333C9.31456 12.25 8.08335 13.4812 8.08335 15V20.25H5.0001C4.30974 20.25 3.7501 19.6904 3.7501 19V10.9414C3.9162 10.9489 4.08725 10.9535 4.26043 10.9541C4.8938 10.9563 5.60665 10.9058 6.22066 10.7168C6.84167 10.5258 7.57728 10.1229 8.00011 9.8763C8.41864 10.1204 9.15575 10.5249 9.77953 10.7168C10.5726 10.9608 11.2764 11.0945 12.0001 11.0945C12.7238 11.0945 13.4276 10.9608 14.2207 10.7168C14.8444 10.5249 15.5815 10.1204 16.0001 9.8763ZM2.2501 10.7636C1.61202 10.5215 1.2725 9.81653 1.46061 9.15814L3.15462 3.22913C3.32021 2.64957 3.84993 2.25 4.45268 2.25H19.5475C20.1503 2.25 20.68 2.64957 20.8456 3.22913L22.5396 9.15814C22.7277 9.81654 22.3882 10.5215 21.7501 10.7636V19C21.7501 20.5188 20.5189 21.75 19.0001 21.75H5.0001C3.48131 21.75 2.2501 20.5188 2.2501 19V10.7636ZM9.58335 20.25H14.0833V15C14.0833 14.3096 13.5237 13.75 12.8333 13.75H10.8333C10.143 13.75 9.58335 14.3096 9.58335 15V20.25Z" fill="black"/>
</g>
</g>
</g>
<defs>
<clipPath id="clip0_232_17456">
<rect width="24" height="24" rx="5" fill="white"/>
</clipPath>
</defs>
</svg>
