<svg width="24" height="24" viewBox="0 0 24 24" fill="none" xmlns="http://www.w3.org/2000/svg">
<g id="shopping-bag-pocket">
<g clip-path="url(#clip0_232_13430)">
<g id="Weight=Dynamic">
<path id="Vector (Stroke)" fill-rule="evenodd" clip-rule="evenodd" d="M11.9999 3.75C11.3096 3.75 10.7499 4.30964 10.7499 5C10.7499 5.41421 10.4141 5.75 9.99993 5.75C9.58572 5.75 9.24993 5.41421 9.24993 5C9.24993 3.48122 10.4812 2.25 11.9999 2.25C13.5187 2.25 14.7499 3.48122 14.7499 5C14.7499 5.41421 14.4141 5.75 13.9999 5.75C13.5857 5.75 13.2499 5.41421 13.2499 5C13.2499 4.30964 12.6903 3.75 11.9999 3.75ZM3.99775 9.58184C4.20414 8.24031 5.35845 7.25 6.71577 7.25H17.2841C18.6414 7.25 19.7957 8.2403 20.0021 9.58184L21.3867 18.5818C21.643 20.2477 20.3541 21.75 18.6687 21.75H5.33116C3.64572 21.75 2.35685 20.2477 2.61313 18.5818L3.99775 9.58184ZM6.71577 8.75C6.09881 8.75 5.57412 9.20014 5.48031 9.80993L4.09569 18.8099C3.9792 19.5671 4.56505 20.25 5.33116 20.25H18.6687C19.4348 20.25 20.0207 19.5671 19.9042 18.8099L18.5196 9.80993C18.4257 9.20014 17.9011 8.75 17.2841 8.75H6.71577ZM8.99993 10.25C9.41415 10.25 9.74993 10.5858 9.74993 11V18C9.74993 18.4142 9.41415 18.75 8.99993 18.75C8.58572 18.75 8.24993 18.4142 8.24993 18V11C8.24993 10.5858 8.58572 10.25 8.99993 10.25ZM14.9999 10.25C15.4141 10.25 15.7499 10.5858 15.7499 11V18C15.7499 18.4142 15.4141 18.75 14.9999 18.75C14.5857 18.75 14.2499 18.4142 14.2499 18V11C14.2499 10.5858 14.5857 10.25 14.9999 10.25Z" fill="black"/>
</g>
</g>
</g>
<defs>
<clipPath id="clip0_232_13430">
<rect width="24" height="24" rx="5" fill="white"/>
</clipPath>
</defs>
</svg>
