<svg width="24" height="24" viewBox="0 0 24 24" fill="none" xmlns="http://www.w3.org/2000/svg">
<g id="short-pants-pockets">
<g clip-path="url(#clip0_232_2493)">
<g id="Weight=Dynamic">
<path id="Vector (Stroke)" fill-rule="evenodd" clip-rule="evenodd" d="M2.31339 5.72346C2.24074 4.93245 2.86339 4.25 3.65773 4.25H20.3425C21.1368 4.25 21.7595 4.93245 21.6868 5.72346L20.5113 18.5235C20.4475 19.2183 19.8647 19.75 19.167 19.75H15.0153C14.422 19.75 13.8982 19.3625 13.7245 18.7952L12.0001 13.1622L10.2757 18.7952C10.102 19.3625 9.57824 19.75 8.98486 19.75H4.83324C4.13549 19.75 3.55271 19.2183 3.4889 18.5235L2.31339 5.72346ZM3.82214 5.75L4.09765 8.75H5.5001C6.19046 8.75 6.7501 8.19036 6.7501 7.5V5.75H3.82214ZM8.2501 5.75V7.5C8.2501 9.01878 7.01889 10.25 5.5001 10.25H4.2354L4.9701 18.25H8.87391L10.7092 12.2546C11.099 10.9815 12.9012 10.9815 13.291 12.2546L15.1263 18.25H19.0301L19.7648 10.25H18.5001C16.9813 10.25 15.7501 9.01878 15.7501 7.5V5.75H8.2501ZM17.2501 5.75V7.5C17.2501 8.19036 17.8097 8.75 18.5001 8.75H19.9026L20.1781 5.75H17.2501Z" fill="black"/>
</g>
</g>
</g>
<defs>
<clipPath id="clip0_232_2493">
<rect width="24" height="24" rx="5" fill="white"/>
</clipPath>
</defs>
</svg>
