<svg width="24" height="24" viewBox="0 0 24 24" fill="none" xmlns="http://www.w3.org/2000/svg">
<g id="shortcut-square">
<g clip-path="url(#clip0_232_11121)">
<g id="Weight=Dynamic">
<path id="Vector (Stroke)" fill-rule="evenodd" clip-rule="evenodd" d="M3.75 3.75V20.25H20.25V3.75H3.75ZM2.25 3.6C2.25 2.85442 2.85442 2.25 3.6 2.25H20.4C21.1456 2.25 21.75 2.85444 21.75 3.6V20.4C21.75 21.1456 21.1456 21.75 20.4 21.75H3.6C2.85444 21.75 2.25 21.1456 2.25 20.4V3.6ZM9.3252 8.02515C9.3252 7.61093 9.66098 7.27515 10.0752 7.27515H15.0249C15.4391 7.27515 15.7749 7.61093 15.7749 8.02515V12.9749C15.7749 13.3891 15.4391 13.7249 15.0249 13.7249C14.6107 13.7249 14.2749 13.3891 14.2749 12.9749V9.83584L12.0197 12.091C11.4938 12.6169 11.2646 13.1061 11.1807 13.5253C11.0958 13.95 11.1496 14.3568 11.2728 14.7264C11.3971 15.0992 11.5873 15.4189 11.7517 15.6491C11.8328 15.7627 11.9049 15.8506 11.9547 15.908C11.9794 15.9366 11.9984 15.9574 12.0099 15.9697L12.0212 15.9815L12.0202 15.9806C12.0208 15.9811 12.0213 15.9817 12.0219 15.9823C12.3126 16.2753 12.3119 16.7486 12.0197 17.0407C11.7268 17.3336 11.252 17.3336 10.9591 17.0407L11.4894 16.5104C10.9591 17.0407 10.9593 17.041 10.9591 17.0407L10.9579 17.0396L10.9565 17.0382L10.9531 17.0347L10.9436 17.0249C10.9361 17.0172 10.9263 17.007 10.9145 16.9944C10.8909 16.9692 10.8592 16.9343 10.8211 16.8904C10.7452 16.8028 10.6433 16.678 10.5311 16.521C10.3088 16.2098 10.0349 15.7561 9.8498 15.2008C9.66367 14.6424 9.56279 13.9664 9.70987 13.2311C9.85805 12.4902 10.2475 11.7419 10.9591 11.0304L13.2143 8.77515H14.2749M15.0249 8.02515C14.4946 7.49482 14.4945 7.49483 14.4945 7.49486L13.2143 8.77515H10.0752C9.66098 8.77515 9.3252 8.43936 9.3252 8.02515" fill="black"/>
</g>
</g>
</g>
<defs>
<clipPath id="clip0_232_11121">
<rect width="24" height="24" rx="5" fill="white"/>
</clipPath>
</defs>
</svg>
