<svg width="24" height="24" viewBox="0 0 24 24" fill="none" xmlns="http://www.w3.org/2000/svg">
<g id="short-pants">
<g clip-path="url(#clip0_232_2509)">
<g id="Weight=Dynamic">
<path id="Rectangle (Stroke)" fill-rule="evenodd" clip-rule="evenodd" d="M3.82367 4.75L5.18305 19.25H11.2501V12C11.2501 11.5858 11.5859 11.25 12.0001 11.25C12.4143 11.25 12.7501 11.5858 12.7501 12V16.05H18.8328L20.1571 4.75H3.82367ZM12.7501 17.55H18.9663C19.6511 17.55 20.2274 17.0373 20.3071 16.3571L21.6665 4.75713C21.7605 3.95476 21.1335 3.25 20.3257 3.25H3.65895C2.86359 3.25 2.24061 3.93413 2.31485 4.72601L3.70235 19.526C3.76738 20.2197 4.34969 20.75 5.04645 20.75H11.4001C12.1457 20.75 12.7501 20.1456 12.7501 19.4V17.55Z" fill="black"/>
</g>
</g>
</g>
<defs>
<clipPath id="clip0_232_2509">
<rect width="24" height="24" rx="5" fill="white"/>
</clipPath>
</defs>
</svg>
