<svg width="24" height="24" viewBox="0 0 24 24" fill="none" xmlns="http://www.w3.org/2000/svg">
<g id="shuffle">
<g clip-path="url(#clip0_232_10220)">
<g id="Weight=Dynamic">
<path id="Vector (Stroke)" fill-rule="evenodd" clip-rule="evenodd" d="M19.4696 4.46967C19.7625 4.17678 20.2374 4.17678 20.5303 4.46967L22.5303 6.46966C22.6709 6.61031 22.75 6.80108 22.75 6.99999C22.75 7.1989 22.6709 7.38967 22.5303 7.53032L20.5303 9.53033C20.2374 9.82322 19.7625 9.82322 19.4696 9.53033C19.1767 9.23744 19.1767 8.76256 19.4696 8.46967L20.1553 7.78402C19.0265 7.84083 17.7951 7.9924 16.6188 8.39676C14.8587 9.00177 13.2317 10.1691 12.3024 12.5C13.2317 14.8309 14.8587 15.9982 16.6188 16.6032C17.7951 17.0076 19.0265 17.1592 20.1553 17.216L19.4696 16.5303C19.1767 16.2374 19.1767 15.7626 19.4696 15.4697C19.7625 15.1768 20.2374 15.1768 20.5303 15.4697L22.5303 17.4697C22.6709 17.6103 22.75 17.8011 22.75 18C22.75 18.1989 22.6709 18.3897 22.5303 18.5303L20.5303 20.5303C20.2374 20.8232 19.7625 20.8232 19.4696 20.5303C19.1767 20.2374 19.1767 19.7626 19.4696 19.4697L20.2182 18.7211C18.9705 18.6653 17.527 18.5016 16.1311 18.0218C14.3662 17.4151 12.6717 16.3011 11.5127 14.3032C10.4425 16.2677 8.97726 17.3906 7.39922 18.0106C5.51656 18.7502 3.52246 18.7501 2.04509 18.75L2 18.75C1.58579 18.75 1.25 18.4142 1.25 18C1.25 17.5858 1.58578 17.25 2 17.25C3.51827 17.25 5.25264 17.2423 6.85074 16.6144C8.34506 16.0274 9.76732 14.8762 10.6983 12.5C9.76732 10.1238 8.34506 8.97263 6.85074 8.38557C5.25264 7.75774 3.51827 7.75 2 7.75C1.58578 7.75 1.25 7.41421 1.25 7C1.25 6.58578 1.58579 6.25 2 6.25C2.01498 6.25 2.03001 6.25 2.04509 6.25C3.52246 6.24992 5.51656 6.24983 7.39922 6.98945C8.97726 7.6094 10.4425 8.73232 11.5127 10.6968C12.6717 8.69889 14.3662 7.58494 16.1311 6.97823C17.527 6.4984 18.9705 6.33471 20.2182 6.27888L19.4696 5.53033C19.1767 5.23744 19.1767 4.76256 19.4696 4.46967Z" fill="black"/>
</g>
</g>
</g>
<defs>
<clipPath id="clip0_232_10220">
<rect width="24" height="24" rx="5" fill="white"/>
</clipPath>
</defs>
</svg>
