<svg width="24" height="24" viewBox="0 0 24 24" fill="none" xmlns="http://www.w3.org/2000/svg">
<g id="sidebar-collapse">
<g clip-path="url(#clip0_232_11001)">
<g id="Weight=Dynamic">
<path id="Vector (Stroke)" fill-rule="evenodd" clip-rule="evenodd" d="M5 3.75C4.30964 3.75 3.75 4.30964 3.75 5V19C3.75 19.6904 4.30964 20.25 5 20.25H8.75V3.75H5ZM5 2.25C3.48122 2.25 2.25 3.48122 2.25 5V19C2.25 20.5188 3.48122 21.75 5 21.75H19C20.5188 21.75 21.75 20.5188 21.75 19V5C21.75 3.48122 20.5188 2.25 19 2.25H5ZM10.25 3.75V20.25H19C19.6904 20.25 20.25 19.6904 20.25 19V5C20.25 4.30964 19.6904 3.75 19 3.75H10.25ZM7.74388 9.43557C8.05561 9.70833 8.08719 10.1822 7.81443 10.4939L6.49658 12L7.81443 13.5061C8.08719 13.8178 8.05561 14.2917 7.74388 14.5644C7.43215 14.8372 6.95833 14.8056 6.68557 14.4939L4.93557 12.4939C4.68814 12.2111 4.68814 11.7889 4.93557 11.5061L6.68557 9.50612C6.95833 9.19439 7.43215 9.16281 7.74388 9.43557Z" fill="black"/>
</g>
</g>
</g>
<defs>
<clipPath id="clip0_232_11001">
<rect width="24" height="24" rx="5" fill="white"/>
</clipPath>
</defs>
</svg>
