<svg width="24" height="24" viewBox="0 0 24 24" fill="none" xmlns="http://www.w3.org/2000/svg">
<g id="sidebar-expand">
<g clip-path="url(#clip0_232_10991)">
<g id="Weight=Dynamic">
<path id="Vector (Stroke)" fill-rule="evenodd" clip-rule="evenodd" d="M5 3.75C4.30964 3.75 3.75 4.30964 3.75 5V19C3.75 19.6904 4.30964 20.25 5 20.25H8.75V3.75H5ZM5 2.25C3.48122 2.25 2.25 3.48122 2.25 5V19C2.25 20.5188 3.48122 21.75 5 21.75H19C20.5188 21.75 21.75 20.5188 21.75 19V5C21.75 3.48122 20.5188 2.25 19 2.25H5ZM10.25 3.75V20.25H19C19.6904 20.25 20.25 19.6904 20.25 19V5C20.25 4.30964 19.6904 3.75 19 3.75H10.25ZM5.00612 9.43557C5.31785 9.16281 5.79167 9.19439 6.06443 9.50612L7.81443 11.5061C8.06186 11.7889 8.06186 12.2111 7.81443 12.4939L6.06443 14.4939C5.79167 14.8056 5.31785 14.8372 5.00612 14.5644C4.69439 14.2917 4.66281 13.8178 4.93557 13.5061L6.25342 12L4.93557 10.4939C4.66281 10.1822 4.69439 9.70833 5.00612 9.43557Z" fill="black"/>
</g>
</g>
</g>
<defs>
<clipPath id="clip0_232_10991">
<rect width="24" height="24" rx="5" fill="white"/>
</clipPath>
</defs>
</svg>
