<svg width="24" height="24" viewBox="0 0 24 24" fill="none" xmlns="http://www.w3.org/2000/svg">
<g id="sigma-function">
<g clip-path="url(#clip0_232_626)">
<g id="Weight=Dynamic">
<path id="Vector (Stroke)" fill-rule="evenodd" clip-rule="evenodd" d="M3.30711 3.71299C3.4232 3.43273 3.69668 3.25 4.00002 3.25H20C20.4142 3.25 20.75 3.58579 20.75 4V7C20.75 7.41421 20.4142 7.75 20 7.75C19.5858 7.75 19.25 7.41421 19.25 7V4.75H5.81068L12.5304 11.4697C12.8232 11.7626 12.8232 12.2374 12.5304 12.5303L5.81068 19.25H19.25V17C19.25 16.5858 19.5858 16.25 20 16.25C20.4142 16.25 20.75 16.5858 20.75 17V20C20.75 20.4142 20.4142 20.75 20 20.75H4.00002C3.69668 20.75 3.4232 20.5673 3.30711 20.287C3.19103 20.0068 3.25519 19.6842 3.46969 19.4697L10.9394 12L3.46969 4.53033C3.25519 4.31583 3.19103 3.99324 3.30711 3.71299Z" fill="black"/>
</g>
</g>
</g>
<defs>
<clipPath id="clip0_232_626">
<rect width="24" height="24" rx="5" fill="white"/>
</clipPath>
</defs>
</svg>
