<svg width="24" height="24" viewBox="0 0 24 24" fill="none" xmlns="http://www.w3.org/2000/svg">
<g id="simple-cart">
<g clip-path="url(#clip0_232_13504)">
<g id="Weight=Dynamic">
<path id="Vector (Stroke)" fill-rule="evenodd" clip-rule="evenodd" d="M2.03469 2.78164C2.43143 2.66262 2.84954 2.88776 2.96857 3.2845L3.55822 5.25001H22.0002C22.2373 5.25001 22.4604 5.36211 22.6019 5.55232C22.7434 5.74252 22.7867 5.98844 22.7186 6.21553L19.7186 16.2155C19.6234 16.5328 19.3314 16.75 19.0002 16.75H6.0002C5.66899 16.75 5.377 16.5328 5.28183 16.2155L1.53183 3.71553C1.4128 3.31878 1.63794 2.90067 2.03469 2.78164ZM4.00822 6.75001L6.55822 15.25H18.4422L20.9922 6.75001H4.00822ZM8.0002 18.75C8.41441 18.75 8.7502 19.0858 8.7502 19.5C8.7502 19.9142 9.08598 20.25 9.5002 20.25C9.91441 20.25 10.2502 19.9142 10.2502 19.5C10.2502 19.0858 10.586 18.75 11.0002 18.75C11.4144 18.75 11.7502 19.0858 11.7502 19.5C11.7502 20.7427 10.7428 21.75 9.5002 21.75C8.25756 21.75 7.2502 20.7427 7.2502 19.5C7.2502 19.0858 7.58598 18.75 8.0002 18.75ZM14.0002 18.75C14.4144 18.75 14.7502 19.0858 14.7502 19.5C14.7502 19.9142 15.086 20.25 15.5002 20.25C15.9144 20.25 16.2502 19.9142 16.2502 19.5C16.2502 19.0858 16.586 18.75 17.0002 18.75C17.4144 18.75 17.7502 19.0858 17.7502 19.5C17.7502 20.7427 16.7428 21.75 15.5002 21.75C14.2576 21.75 13.2502 20.7427 13.2502 19.5C13.2502 19.0858 13.586 18.75 14.0002 18.75Z" fill="black"/>
</g>
</g>
</g>
<defs>
<clipPath id="clip0_232_13504">
<rect width="24" height="24" rx="5" fill="white"/>
</clipPath>
</defs>
</svg>
