<svg width="24" height="24" viewBox="0 0 24 24" fill="none" xmlns="http://www.w3.org/2000/svg">
<g id="sine-wave">
<g clip-path="url(#clip0_232_13754)">
<g id="Weight=Dynamic">
<path id="Vector (Stroke)" fill-rule="evenodd" clip-rule="evenodd" d="M3.76627 11.25L5 11.25C5.41421 11.25 5.75 11.5858 5.75 12C5.75 12.4142 5.41421 12.75 5 12.75L3 12.75C2.80108 12.75 2.61031 12.671 2.46966 12.5303C2.32901 12.3897 2.24999 12.1989 2.25 12C2.25008 10.0041 2.58061 7.66425 3.25949 5.79727C3.59821 4.86577 4.04017 4.00564 4.6091 3.36557C5.18468 2.71803 5.93609 2.25001 6.85712 2.25M3.76627 11.25C3.83755 9.57765 4.1424 7.75858 4.66919 6.30987C4.97331 5.47351 5.3349 4.80686 5.73023 4.36211C6.11891 3.92483 6.49247 3.75 6.85714 3.75H6.85716C7.03048 3.75 7.30601 3.85138 7.69312 4.27763C8.07233 4.69518 8.46814 5.32757 8.87829 6.14787C9.69737 7.78604 10.4849 9.98773 11.2937 12.2522L11.3057 12.286C12.1003 14.5108 12.916 16.7948 13.7801 18.5229C14.2137 19.3901 14.6817 20.164 15.1965 20.7308C15.7033 21.2889 16.3519 21.75 17.1429 21.75C18.0639 21.75 18.8153 21.282 19.3909 20.6344C19.9599 19.9944 20.4018 19.1342 20.7406 18.2027C21.4195 16.3358 21.75 13.9959 21.75 12C21.75 11.5858 21.4142 11.25 21 11.25L19 11.25C18.5858 11.25 18.25 11.5858 18.25 12C18.25 12.4142 18.5858 12.75 19 12.75L20.2338 12.75C20.1625 14.4223 19.8577 16.2414 19.3309 17.6901C19.0267 18.5265 18.6651 19.1931 18.2698 19.6379C17.8811 20.0752 17.5075 20.25 17.1429 20.25C16.9695 20.25 16.694 20.1486 16.3069 19.7223C15.9277 19.3048 15.5319 18.6724 15.1217 17.8521C14.3026 16.2139 13.515 14.0122 12.7063 11.7477L12.6943 11.714C11.8997 9.48911 11.084 7.20514 10.2199 5.47705C9.78632 4.60984 9.3183 3.83599 8.80353 3.26918C8.29668 2.71108 7.64811 2.24999 6.85714 2.25M6.75 12C6.75 11.5858 7.08579 11.25 7.5 11.25H8.5C8.91421 11.25 9.25 11.5858 9.25 12C9.25 12.4142 8.91421 12.75 8.5 12.75H7.5C7.08579 12.75 6.75 12.4142 6.75 12ZM14.75 12C14.75 11.5858 15.0858 11.25 15.5 11.25H16.5C16.9142 11.25 17.25 11.5858 17.25 12C17.25 12.4142 16.9142 12.75 16.5 12.75H15.5C15.0858 12.75 14.75 12.4142 14.75 12Z" fill="black"/>
</g>
</g>
</g>
<defs>
<clipPath id="clip0_232_13754">
<rect width="24" height="24" rx="5" fill="white"/>
</clipPath>
</defs>
</svg>
