<svg width="24" height="24" viewBox="0 0 24 24" fill="none" xmlns="http://www.w3.org/2000/svg">
<g id="single-tap-gesture">
<g clip-path="url(#clip0_232_8477)">
<g id="Weight=Dynamic">
<path id="Vector (Stroke)" fill-rule="evenodd" clip-rule="evenodd" d="M12 4.25C8.71899 4.25 5.95661 5.70097 4.62458 7.7051C4.3953 8.05007 3.92978 8.14386 3.58481 7.91457C3.23984 7.68529 3.14606 7.21977 3.37534 6.8748C5.03576 4.3766 8.31506 2.75 12 2.75C15.6849 2.75 18.9642 4.3766 20.6246 6.8748C20.8539 7.21977 20.7601 7.68529 20.4151 7.91457C20.0701 8.14386 19.6046 8.05007 19.3753 7.7051C18.0433 5.70097 15.2809 4.25 12 4.25ZM12 7.25C8.54818 7.25 5.74996 10.0482 5.74996 13.5C5.74996 16.9518 8.54818 19.75 12 19.75C15.4517 19.75 18.25 16.9518 18.25 13.5C18.25 10.0482 15.4517 7.25 12 7.25ZM4.24996 13.5C4.24996 9.21979 7.71975 5.75 12 5.75C16.2802 5.75 19.75 9.21979 19.75 13.5C19.75 17.7802 16.2802 21.25 12 21.25C7.71975 21.25 4.24996 17.7802 4.24996 13.5Z" fill="black"/>
</g>
</g>
</g>
<defs>
<clipPath id="clip0_232_8477">
<rect width="24" height="24" rx="5" fill="white"/>
</clipPath>
</defs>
</svg>
