<svg width="24" height="24" viewBox="0 0 24 24" fill="none" xmlns="http://www.w3.org/2000/svg">
<g id="skateboarding">
<g clip-path="url(#clip0_232_1852)">
<g id="Weight=Dynamic">
<path id="Vector (Stroke)" fill-rule="evenodd" clip-rule="evenodd" d="M17.0002 2.75C16.3098 2.75 15.7502 3.30964 15.7502 4C15.7502 4.69036 16.3098 5.25 17.0002 5.25C17.6905 5.25 18.2502 4.69036 18.2502 4C18.2502 3.30964 17.6905 2.75 17.0002 2.75ZM14.2502 4C14.2502 2.48122 15.4814 1.25 17.0002 1.25C18.519 1.25 19.7502 2.48122 19.7502 4C19.7502 5.51878 18.519 6.75 17.0002 6.75C15.4814 6.75 14.2502 5.51878 14.2502 4ZM12.6527 6.95528C11.924 6.71741 11.0841 6.63006 10.3356 7.00432L7.3356 8.50432C6.96512 8.68956 6.51461 8.53939 6.32937 8.16891C6.14413 7.79843 6.2943 7.34792 6.66478 7.16268L9.66478 5.66268C10.9163 5.03693 12.2116 5.23339 13.1182 5.52933C13.5794 5.6799 13.9673 5.86458 14.24 6.01132C14.3771 6.08506 14.4869 6.15022 14.5644 6.19827C14.6032 6.22232 14.6341 6.24217 14.6563 6.25678L14.6832 6.27465L14.6917 6.28041L14.6947 6.28245L14.6959 6.28326C14.6961 6.28342 14.6968 6.28392 14.2707 6.90111L14.6968 6.28392C14.8969 6.42208 15.0176 6.64866 15.0206 6.8918C15.0237 7.13494 14.9086 7.36445 14.712 7.50753L11.1901 10.0705L14.4746 12.7526C14.649 12.895 14.7502 13.1083 14.7502 13.3335V17.3335C14.7502 17.7477 14.4144 18.0835 14.0002 18.0835C13.586 18.0835 13.2502 17.7477 13.2502 17.3335V13.6893L9.48809 10.6173C9.30799 10.4702 9.20628 10.2479 9.21275 10.0155C9.21923 9.78303 9.33314 9.56674 9.52115 9.42992L12.8347 7.01858C12.7757 6.99682 12.715 6.97561 12.6527 6.95528ZM14.4155 9.20935C14.4155 8.79514 14.7513 8.45935 15.1655 8.45935H17.8872C18.3014 8.45935 18.6372 8.79514 18.6372 9.20935C18.6372 9.62356 18.3014 9.95935 17.8872 9.95935H15.1655C14.7513 9.95935 14.4155 9.62356 14.4155 9.20935ZM10.173 12.9285C10.4027 13.2731 10.3096 13.7388 9.96497 13.9685L8.7244 14.7956C8.6012 14.8777 8.45644 14.9215 8.30837 14.9215H5.00019C4.58598 14.9215 4.25019 14.5857 4.25019 14.1715C4.25019 13.7573 4.58598 13.4215 5.00019 13.4215H8.08129L9.13292 12.7204C9.47756 12.4907 9.94321 12.5838 10.173 12.9285ZM19.6896 18.7046C19.8527 19.0853 19.6764 19.5262 19.2956 19.6894L16.9623 20.6894C16.8689 20.7294 16.7684 20.75 16.6669 20.75L7.33353 20.75C7.23196 20.75 7.13144 20.7294 7.03809 20.6894L4.70475 19.6894C4.32403 19.5262 4.14767 19.0853 4.31083 18.7046C4.474 18.3238 4.91491 18.1475 5.29563 18.3106L7.48747 19.25L16.5129 19.25L18.7048 18.3106C19.0855 18.1475 19.5264 18.3238 19.6896 18.7046ZM8.51189 21.4414C8.81978 21.7185 8.84477 22.1927 8.56769 22.5006L8.55769 22.5117C8.28061 22.8196 7.80639 22.8446 7.4985 22.5675C7.1906 22.2904 7.16562 21.8162 7.4427 21.5083L7.4527 21.4972C7.72978 21.1893 8.20399 21.1643 8.51189 21.4414ZM16.5119 21.4414C16.8198 21.7185 16.8448 22.1927 16.5677 22.5006L16.5577 22.5117C16.2806 22.8196 15.8064 22.8446 15.4985 22.5675C15.1906 22.2904 15.1656 21.8162 15.4427 21.5083L15.4527 21.4972C15.7298 21.1893 16.204 21.1643 16.5119 21.4414Z" fill="black"/>
</g>
</g>
</g>
<defs>
<clipPath id="clip0_232_1852">
<rect width="24" height="24" rx="5" fill="white"/>
</clipPath>
</defs>
</svg>
