<svg width="24" height="24" viewBox="0 0 24 24" fill="none" xmlns="http://www.w3.org/2000/svg">
<g id="skateboard">
<g clip-path="url(#clip0_232_2232)">
<g id="Weight=Dynamic">
<path id="Vector (Stroke)" fill-rule="evenodd" clip-rule="evenodd" d="M1.28183 8.78444C1.40085 8.3877 1.81896 8.16256 2.21571 8.28158L5.4436 9.24995H18.5568L21.7847 8.28158C22.1814 8.16256 22.5995 8.3877 22.7186 8.78444C22.8376 9.18118 22.6125 9.5993 22.2157 9.71832L18.8824 10.7183C18.8125 10.7393 18.7399 10.75 18.6669 10.75H5.33353C5.26053 10.75 5.18793 10.7393 5.11802 10.7183L1.78469 9.71832C1.38794 9.5993 1.1628 9.18119 1.28183 8.78444ZM4.2502 14.5C4.2502 13.2573 5.25754 12.25 6.5002 12.25C7.74285 12.25 8.7502 13.2573 8.7502 14.5C8.7502 15.7426 7.74285 16.75 6.5002 16.75C5.25754 16.75 4.2502 15.7426 4.2502 14.5ZM6.5002 13.75C6.08599 13.75 5.7502 14.0858 5.7502 14.5C5.7502 14.9141 6.08599 15.25 6.5002 15.25C6.9144 15.25 7.2502 14.9141 7.2502 14.5C7.2502 14.0858 6.9144 13.75 6.5002 13.75ZM15.2502 14.5C15.2502 13.2573 16.2576 12.25 17.5002 12.25C18.7428 12.25 19.7502 13.2573 19.7502 14.5C19.7502 15.7426 18.7428 16.75 17.5002 16.75C16.2576 16.75 15.2502 15.7426 15.2502 14.5ZM17.5002 13.75C17.086 13.75 16.7502 14.0858 16.7502 14.5C16.7502 14.9141 17.086 15.25 17.5002 15.25C17.9144 15.25 18.2502 14.9141 18.2502 14.5C18.2502 14.0858 17.9144 13.75 17.5002 13.75Z" fill="black"/>
</g>
</g>
</g>
<defs>
<clipPath id="clip0_232_2232">
<rect width="24" height="24" rx="5" fill="white"/>
</clipPath>
</defs>
</svg>
