<svg width="24" height="24" viewBox="0 0 24 24" fill="none" xmlns="http://www.w3.org/2000/svg">
<g id="skip-prev">
<g clip-path="url(#clip0_232_10435)">
<g id="Weight=Dynamic">
<path id="Vector (Stroke)" fill-rule="evenodd" clip-rule="evenodd" d="M16.5635 4.67855C17.4488 3.97963 18.75 4.61021 18.75 5.73814V18.2619C18.75 19.3898 17.4488 20.0204 16.5635 19.3215L8.63178 13.0596C7.94714 12.5191 7.94714 11.4809 8.63178 10.9404L16.5635 4.67855ZM17.25 6.04767L9.71037 12L17.25 17.9523V6.04767ZM6 6.25001C6.41421 6.25001 6.75 6.5858 6.75 7.00001V17C6.75 17.4142 6.41421 17.75 6 17.75C5.58579 17.75 5.25 17.4142 5.25 17V7.00001C5.25 6.5858 5.58579 6.25001 6 6.25001Z" fill="black"/>
</g>
</g>
</g>
<defs>
<clipPath id="clip0_232_10435">
<rect width="24" height="24" rx="5" fill="white"/>
</clipPath>
</defs>
</svg>
