<svg width="24" height="24" viewBox="0 0 24 24" fill="none" xmlns="http://www.w3.org/2000/svg">
<g id="skip-next">
<g clip-path="url(#clip0_232_10445)">
<g id="Weight=Dynamic">
<path id="Vector (Stroke)" fill-rule="evenodd" clip-rule="evenodd" d="M6.75 6.04767V17.9523L14.2896 12L6.75 6.04767ZM5.25 5.73814C5.25 4.6102 6.55122 3.97963 7.43652 4.67855L15.3682 10.9404C16.0529 11.4809 16.0529 12.5191 15.3682 13.0596L7.43652 19.3215C6.55122 20.0204 5.25 19.3898 5.25 18.2619V5.73814ZM18 6.25001C18.4142 6.25001 18.75 6.5858 18.75 7.00001V17C18.75 17.4142 18.4142 17.75 18 17.75C17.5858 17.75 17.25 17.4142 17.25 17V7.00001C17.25 6.5858 17.5858 6.25001 18 6.25001Z" fill="black"/>
</g>
</g>
</g>
<defs>
<clipPath id="clip0_232_10445">
<rect width="24" height="24" rx="5" fill="white"/>
</clipPath>
</defs>
</svg>
