<svg width="24" height="24" viewBox="0 0 24 24" fill="none" xmlns="http://www.w3.org/2000/svg">
<g id="sleeper-chair">
<g clip-path="url(#clip0_232_9056)">
<g id="Weight=Dynamic">
<path id="Vector (Stroke)" fill-rule="evenodd" clip-rule="evenodd" d="M4.25 5C4.25 3.48122 5.48122 2.25 7 2.25H17C18.5188 2.25 19.75 3.48122 19.75 5V9.25947C21.4281 9.38713 22.75 10.7892 22.75 12.5C22.75 13.8525 21.9244 15.0109 20.75 15.5007V21C20.75 21.4142 20.4142 21.75 20 21.75C19.5858 21.75 19.25 21.4142 19.25 21V18.75H4.75V21C4.75 21.4142 4.41421 21.75 4 21.75C3.58579 21.75 3.25 21.4142 3.25 21V15.5007C2.07557 15.0109 1.25 13.8525 1.25 12.5C1.25 10.7892 2.57189 9.38713 4.25 9.25947V5ZM5.75 9.49908C6.92448 9.98886 7.75 11.148 7.75 12.5V13.25H16.25V12.5C16.25 11.148 17.0755 9.98886 18.25 9.49908V5C18.25 4.30964 17.6904 3.75 17 3.75H7C6.30964 3.75 5.75 4.30964 5.75 5V9.49908ZM4.75 17.25H19.25V14.95C19.25 14.5933 19.5012 14.2859 19.8508 14.215C20.6493 14.0529 21.25 13.3458 21.25 12.5C21.25 11.5335 20.4665 10.75 19.5 10.75C18.5335 10.75 17.75 11.5335 17.75 12.5V14C17.75 14.4142 17.4142 14.75 17 14.75H7C6.58579 14.75 6.25 14.4142 6.25 14V12.5C6.25 11.5335 5.4665 10.75 4.5 10.75C3.5335 10.75 2.75 11.5335 2.75 12.5C2.75 13.3458 3.35073 14.0529 4.1492 14.215C4.49877 14.2859 4.75 14.5933 4.75 14.95V17.25Z" fill="black"/>
</g>
</g>
</g>
<defs>
<clipPath id="clip0_232_9056">
<rect width="24" height="24" rx="5" fill="white"/>
</clipPath>
</defs>
</svg>
