<svg width="24" height="24" viewBox="0 0 24 24" fill="none" xmlns="http://www.w3.org/2000/svg">
<g id="slips">
<g clip-path="url(#clip0_232_2610)">
<g id="Weight=Dynamic">
<path id="Rectangle (Stroke)" fill-rule="evenodd" clip-rule="evenodd" d="M0.25 4.6C0.25 3.85442 0.854416 3.25 1.6 3.25H22.4C23.1456 3.25 23.75 3.85441 23.75 4.6V8.51175C23.75 9.1519 23.3041 9.69415 22.6959 9.83708C21.6462 10.0837 19.1438 10.7332 17.3452 11.6658C15.8672 12.4322 14.9757 13.8865 14.4461 15.4532C13.9189 17.0126 13.7864 18.5807 13.7563 19.4094C13.7301 20.1294 13.1447 20.75 12.3805 20.75H11.6195C10.8553 20.75 10.2699 20.1294 10.2437 19.4094C10.2136 18.5807 10.0811 17.0126 9.55393 15.4532C9.02428 13.8865 8.13282 12.4322 6.65476 11.6658C4.8562 10.7332 2.35376 10.0837 1.30413 9.83708C0.695931 9.69415 0.25 9.1519 0.25 8.51175V4.6ZM1.75 4.75V8.40117C2.86751 8.66764 5.42783 9.33997 7.34524 10.3342C9.31074 11.3533 10.3845 13.2265 10.9749 14.9727C11.5454 16.6602 11.6987 18.3261 11.7386 19.25H12.2614C12.3013 18.3261 12.4546 16.6602 13.0251 14.9728C13.6155 13.2265 14.6893 11.3533 16.6548 10.3342C18.5722 9.33997 21.1325 8.66764 22.25 8.40117V4.75H1.75Z" fill="black"/>
</g>
</g>
</g>
<defs>
<clipPath id="clip0_232_2610">
<rect width="24" height="24" rx="5" fill="white"/>
</clipPath>
</defs>
</svg>
