<svg width="24" height="24" viewBox="0 0 24 24" fill="none" xmlns="http://www.w3.org/2000/svg">
<g id="small-lamp">
<g clip-path="url(#clip0_232_9326)">
<g id="Weight=Dynamic">
<path id="Vector (Stroke)" fill-rule="evenodd" clip-rule="evenodd" d="M7.55806 3.75L5.00806 12.25H18.992L16.442 3.75H7.55806ZM6.15339 3.21208C6.32469 2.64105 6.85028 2.25 7.44645 2.25H16.5536C17.1498 2.25 17.6754 2.64105 17.8467 3.21208L20.4867 12.0121C20.7465 12.8783 20.0979 13.75 19.1936 13.75H4.80645C3.90214 13.75 3.25353 12.8783 3.51339 12.0121L6.15339 3.21208L6.87176 3.42759L6.15339 3.21208ZM12 14.25C12.4142 14.25 12.75 14.5858 12.75 15V16.2947C14.0733 16.4583 14.9985 17.0538 15.6183 17.808C16.3223 18.6648 16.5829 19.6642 16.6828 20.2852C16.8196 21.1352 16.1227 21.75 15.4 21.75H8.60003C7.87739 21.75 7.18051 21.1352 7.31725 20.2852C7.41715 19.6642 7.67776 18.6648 8.38181 17.808C9.00158 17.0538 9.92674 16.4583 11.25 16.2947L11.25 15C11.25 14.5858 11.5858 14.25 12 14.25ZM8.85085 20.25H15.1492C15.046 19.7905 14.8444 19.2289 14.4593 18.7603C14.0204 18.2261 13.2943 17.75 12 17.75C10.7058 17.75 9.97967 18.2261 9.54072 18.7603C9.15565 19.2289 8.95403 19.7905 8.85085 20.25Z" fill="black"/>
</g>
</g>
</g>
<defs>
<clipPath id="clip0_232_9326">
<rect width="24" height="24" rx="5" fill="white"/>
</clipPath>
</defs>
</svg>
