<svg width="24" height="24" viewBox="0 0 24 24" fill="none" xmlns="http://www.w3.org/2000/svg">
<g id="small-lamp-alt">
<g clip-path="url(#clip0_232_9316)">
<g id="Weight=Dynamic">
<path id="Vector (Stroke)" fill-rule="evenodd" clip-rule="evenodd" d="M7.55806 3.75L5.00806 12.25H18.992L16.442 3.75H7.55806ZM8.75003 13.75H19.1936C20.0979 13.75 20.7465 12.8783 20.4867 12.0121L17.8467 3.21208C17.6754 2.64105 17.1498 2.25 16.5536 2.25H7.44645C6.85028 2.25 6.32469 2.64105 6.15339 3.21208L3.51339 12.0121C3.25353 12.8783 3.90214 13.75 4.80645 13.75H7.25003V15C7.25003 15.4142 7.58582 15.75 8.00003 15.75C8.41425 15.75 8.75003 15.4142 8.75003 15V13.75ZM12 14.25C12.4142 14.25 12.75 14.5858 12.75 15V20.25H16C16.4142 20.25 16.75 20.5858 16.75 21C16.75 21.4142 16.4142 21.75 16 21.75H8.00003C7.58582 21.75 7.25003 21.4142 7.25003 21C7.25003 20.5858 7.58582 20.25 8.00003 20.25H11.25L11.25 15C11.25 14.5858 11.5858 14.25 12 14.25Z" fill="black"/>
</g>
</g>
</g>
<defs>
<clipPath id="clip0_232_9316">
<rect width="24" height="24" rx="5" fill="white"/>
</clipPath>
</defs>
</svg>
