<svg width="24" height="24" viewBox="0 0 24 24" fill="none" xmlns="http://www.w3.org/2000/svg">
<g id="smartphone-device">
<g clip-path="url(#clip0_232_5855)">
<g id="Weight=Dynamic">
<path id="Vector (Stroke)" fill-rule="evenodd" clip-rule="evenodd" d="M7.75 4.75V19.25H16.25V4.75H7.75ZM6.25 4.6C6.25 3.85441 6.85442 3.25 7.6 3.25H16.4C17.1456 3.25 17.75 3.85442 17.75 4.6V19.4C17.75 20.1456 17.1456 20.75 16.4 20.75H7.6C6.85442 20.75 6.25 20.1456 6.25 19.4V4.6ZM12.5117 15.4414C12.8196 15.7185 12.8446 16.1927 12.5675 16.5006L12.5575 16.5117C12.2804 16.8196 11.8062 16.8446 11.4983 16.5675C11.1904 16.2904 11.1654 15.8162 11.4425 15.5083L11.4525 15.4972C11.7296 15.1893 12.2038 15.1643 12.5117 15.4414Z" fill="black"/>
</g>
</g>
</g>
<defs>
<clipPath id="clip0_232_5855">
<rect width="24" height="24" rx="5" fill="white"/>
</clipPath>
</defs>
</svg>
