<svg width="24" height="24" viewBox="0 0 24 24" fill="none" xmlns="http://www.w3.org/2000/svg">
<g id="smoking">
<g clip-path="url(#clip0_232_1605)">
<g id="Weight=Dynamic">
<path id="Vector (Stroke)" fill-rule="evenodd" clip-rule="evenodd" d="M17.25 2C17.25 1.58579 17.5858 1.25 18 1.25C18.8915 1.25 20.0584 1.54099 21.0198 2.28053C22.0114 3.04333 22.75 4.26039 22.75 6C22.75 7.69758 22.1677 8.81176 21.2 9.5375C20.9036 9.75983 20.5778 9.93909 20.2396 10.0882C20.6235 10.3275 20.9902 10.6278 21.3194 11.0119C22.227 12.0707 22.75 13.6461 22.75 16C22.75 16.4142 22.4142 16.75 22 16.75C21.5858 16.75 21.25 16.4142 21.25 16C21.25 13.8539 20.773 12.6793 20.1806 11.9881C19.5845 11.2926 18.7716 10.966 17.8181 10.7276V9.27239C18.8557 9.01299 19.6942 8.79183 20.3 8.3375C20.8323 7.93824 21.25 7.30242 21.25 6C21.25 4.73961 20.7386 3.95667 20.1052 3.46947C19.4416 2.95901 18.6085 2.75 18 2.75C17.5858 2.75 17.25 2.41421 17.25 2ZM13.5 6.75C12.5335 6.75 11.75 7.5335 11.75 8.5V11C11.75 12.2426 12.7575 13.25 14.0002 13.25H15C17.2 13.25 18.75 14.4 18.75 16C18.75 16.4142 18.4142 16.75 18 16.75C17.5858 16.75 17.25 16.4142 17.25 16C17.25 15.6 16.8 14.75 15 14.75H14.0002C11.9292 14.75 10.25 13.0711 10.25 11V8.5C10.25 6.70507 11.7051 5.25 13.5 5.25H14C14.4142 5.25 14.75 5.58579 14.75 6C14.75 6.41421 14.4142 6.75 14 6.75H13.5ZM1.25 19.6C1.25 18.8544 1.85441 18.25 2.6 18.25H13.4C14.1456 18.25 14.75 18.8544 14.75 19.6V21.4C14.75 22.1456 14.1456 22.75 13.4 22.75H2.6C1.85442 22.75 1.25 22.1456 1.25 21.4V19.6ZM2.75 19.75V21.25H13.25V19.75H2.75ZM18 18.25C18.4142 18.25 18.75 18.5858 18.75 19V22C18.75 22.4142 18.4142 22.75 18 22.75C17.5858 22.75 17.25 22.4142 17.25 22V19C17.25 18.5858 17.5858 18.25 18 18.25ZM22 18.25C22.4142 18.25 22.75 18.5858 22.75 19V22C22.75 22.4142 22.4142 22.75 22 22.75C21.5858 22.75 21.25 22.4142 21.25 22V19C21.25 18.5858 21.5858 18.25 22 18.25Z" fill="black"/>
</g>
</g>
</g>
<defs>
<clipPath id="clip0_232_1605">
<rect width="24" height="24" rx="5" fill="white"/>
</clipPath>
</defs>
</svg>
