<svg width="24" height="24" viewBox="0 0 24 24" fill="none" xmlns="http://www.w3.org/2000/svg">
<g id="snapchat">
<g clip-path="url(#clip0_232_14243)">
<g id="Weight=Dynamic">
<path id="Vector 35 (Stroke)" fill-rule="evenodd" clip-rule="evenodd" d="M8.40533 4.21784C7.43724 5.18595 6.75 6.67472 6.75 8.75004V10.25C6.75 10.4489 6.67098 10.6397 6.53033 10.7804C6.38968 10.921 6.19891 11 6 11L4.84039 11L6.43593 12.1397C6.69409 12.3241 6.8083 12.651 6.72115 12.956C6.39448 14.0994 5.20758 16.3879 2.81899 17.5463C2.83372 17.5574 2.84862 17.5683 2.86369 17.5792C3.21927 17.8356 3.60957 18 4 18C4.25077 18 4.48494 18.1253 4.62404 18.334L5.34543 19.4161L7.35292 19.0146C7.57017 18.9711 7.79552 19.0259 7.96852 19.1643C8.34912 19.4688 9.03123 19.94 9.80198 20.3312C10.59 20.7312 11.3787 21 12 21C12.6213 21 13.41 20.7312 14.198 20.3312C14.9688 19.94 15.6509 19.4688 16.0315 19.1643C16.2045 19.0259 16.4298 18.9711 16.6471 19.0146L18.6546 19.4161L19.376 18.334C19.5151 18.1253 19.7492 18 20 18C20.3904 18 20.7807 17.8356 21.1363 17.5792C21.1514 17.5683 21.1663 17.5574 21.181 17.5463C18.7924 16.3879 17.6055 14.0994 17.2789 12.956C17.1917 12.651 17.3059 12.3241 17.5641 12.1397L19.1596 11L18 11C17.8011 11 17.6103 10.921 17.4697 10.7804C17.329 10.6397 17.25 10.4489 17.25 10.25V8.75004C17.25 6.67471 16.5628 5.18593 15.5947 4.21783C14.6195 3.24267 13.3145 2.75 12 2.75C10.6855 2.75 9.38049 3.24268 8.40533 4.21784ZM16.6553 3.15717C17.9372 4.43908 18.75 6.32533 18.75 8.75004V9.50003L19.6277 9.50002C20.941 9.50001 21.4811 11.1852 20.4124 11.9486L18.8967 13.0312C19.3773 14.1619 20.5856 15.923 22.706 16.5289C22.9363 16.5947 23.1213 16.7665 23.204 16.9912C23.2866 17.216 23.2569 17.4668 23.124 17.666C22.911 17.9855 22.5247 18.4273 22.0137 18.7958C21.5937 19.0987 21.0509 19.3793 20.4216 19.4697L19.624 20.666C19.4555 20.9189 19.1509 21.045 18.8529 20.9854L16.6863 20.5521C16.2282 20.8905 15.5868 21.3084 14.877 21.6688C14.0233 22.1021 12.9787 22.5 12 22.5C11.0213 22.5 9.97666 22.1021 9.12303 21.6688C8.41319 21.3084 7.77179 20.8905 7.31369 20.5521L5.14709 20.9854C4.84907 21.045 4.54455 20.9189 4.37597 20.666L3.57842 19.4697C2.94907 19.3793 2.40627 19.0987 1.98631 18.7958C1.47533 18.4273 1.08898 17.9855 0.875966 17.666C0.743121 17.4668 0.713428 17.216 0.796054 16.9912C0.878679 16.7665 1.06369 16.5947 1.29396 16.5289C3.4144 15.923 4.62269 14.1619 5.10327 13.0312L3.58764 11.9486C2.51893 11.1852 3.05898 9.50001 4.37232 9.50002L5.25 9.50003V8.75004C5.25 6.32534 6.06277 4.4391 7.34467 3.15719C8.61952 1.88233 10.3145 1.25 12 1.25C13.6855 1.25 15.3805 1.88232 16.6553 3.15717Z" fill="black"/>
</g>
</g>
</g>
<defs>
<clipPath id="clip0_232_14243">
<rect width="24" height="24" rx="5" fill="white"/>
</clipPath>
</defs>
</svg>
