<svg width="24" height="24" viewBox="0 0 24 24" fill="none" xmlns="http://www.w3.org/2000/svg">
<g id="snow-flake">
<g clip-path="url(#clip0_232_16584)">
<g id="Weight=Dynamic">
<path id="Vector (Stroke)" fill-rule="evenodd" clip-rule="evenodd" d="M12.0002 1.25C12.4144 1.25 12.7502 1.58579 12.7502 2V3.89223L14.2216 3.30364C14.6062 3.14981 15.0427 3.33687 15.1966 3.72146C15.3504 4.10604 15.1633 4.54252 14.7787 4.69636L12.7502 5.50777V10.7366L16.8109 8.52166L17.2577 5.39393C17.3163 4.98388 17.6962 4.69896 18.1063 4.75754C18.5163 4.81612 18.8012 5.19602 18.7427 5.60607L18.4595 7.588L20.6281 6.34882C20.9877 6.14331 21.4459 6.26826 21.6514 6.6279C21.8569 6.98753 21.7319 7.44567 21.3723 7.65118L19.418 8.76793L21.2062 9.27886C21.6045 9.39265 21.8351 9.80776 21.7213 10.206C21.6075 10.6043 21.1924 10.8349 20.7942 10.7211L17.5896 9.80555L13.5664 12L17.5896 14.1944L20.7942 13.2789C21.1924 13.1651 21.6075 13.3957 21.7213 13.794C21.8351 14.1922 21.6045 14.6073 21.2062 14.7211L19.418 15.2321L21.3723 16.3488C21.7319 16.5543 21.8569 17.0125 21.6514 17.3721C21.4459 17.7317 20.9877 17.8567 20.6281 17.6512L18.4595 16.412L18.7427 18.3939C18.8012 18.804 18.5163 19.1839 18.1063 19.2425C17.6962 19.301 17.3163 19.0161 17.2577 18.6061L16.8109 15.4783L12.7502 13.2634V18.0754L14.8861 19.3569C15.2413 19.57 15.3564 20.0307 15.1433 20.3859C14.9302 20.7411 14.4695 20.8562 14.1143 20.6431L12.7502 19.8246V22C12.7502 22.4142 12.4144 22.75 12.0002 22.75C11.586 22.75 11.2502 22.4142 11.2502 22V19.8246L9.88607 20.6431C9.53088 20.8562 9.07018 20.7411 8.85707 20.3859C8.64396 20.0307 8.75914 19.57 9.11432 19.3569L11.2502 18.0754V13.2634L7.18947 15.4783L6.74266 18.6061C6.68408 19.0161 6.30418 19.301 5.89413 19.2425C5.48408 19.1839 5.19915 18.804 5.25773 18.3939L5.54086 16.412L3.3723 17.6512C3.01266 17.8567 2.55452 17.7317 2.34901 17.3721C2.1435 17.0125 2.26845 16.5543 2.62809 16.3488L4.5824 15.2321L2.79415 14.7211C2.39588 14.6073 2.16526 14.1922 2.27905 13.794C2.39284 13.3957 2.80796 13.1651 3.20623 13.2789L6.4108 14.1944L10.4339 12L6.4108 9.80555L3.20623 10.7211C2.80796 10.8349 2.39284 10.6043 2.27905 10.206C2.16526 9.80776 2.39588 9.39265 2.79415 9.27886L4.5824 8.76793L2.62809 7.65118C2.26845 7.44567 2.1435 6.98753 2.34901 6.6279C2.55452 6.26826 3.01266 6.14331 3.3723 6.34882L5.54086 7.588L5.25773 5.60607C5.19915 5.19602 5.48408 4.81612 5.89413 4.75754C6.30418 4.69896 6.68408 4.98388 6.74266 5.39393L7.18947 8.52166L11.2502 10.7366V5.50777L9.22165 4.69636C8.83706 4.54252 8.65 4.10604 8.80384 3.72146C8.95767 3.33687 9.39415 3.14981 9.77874 3.30364L11.2502 3.89223V2C11.2502 1.58579 11.586 1.25 12.0002 1.25Z" fill="black"/>
</g>
</g>
</g>
<defs>
<clipPath id="clip0_232_16584">
<rect width="24" height="24" rx="5" fill="white"/>
</clipPath>
</defs>
</svg>
