<svg width="24" height="24" viewBox="0 0 24 24" fill="none" xmlns="http://www.w3.org/2000/svg">
<g id="soap">
<g clip-path="url(#clip0_232_11970)">
<g id="Weight=Dynamic">
<path id="Vector (Stroke)" fill-rule="evenodd" clip-rule="evenodd" d="M8.25 3C8.25 2.58579 8.58579 2.25 9 2.25H13C13.4142 2.25 13.75 2.58579 13.75 3C13.75 3.41421 13.4142 3.75 13 3.75H12.75V6.25H13C15.6234 6.25 17.75 8.37665 17.75 11V20.4C17.75 21.1456 17.1456 21.75 16.4 21.75H7.6C6.85442 21.75 6.25 21.1456 6.25 20.4V11C6.25 8.37665 8.37665 6.25 11 6.25H11.25V3.75H9C8.58579 3.75 8.25 3.41421 8.25 3ZM11 7.75C9.20507 7.75 7.75 9.20507 7.75 11V12.25H16.25V11C16.25 9.20507 14.7949 7.75 13 7.75H11ZM16.25 13.75H7.75V20.25H16.25V13.75Z" fill="black"/>
</g>
</g>
</g>
<defs>
<clipPath id="clip0_232_11970">
<rect width="24" height="24" rx="5" fill="white"/>
</clipPath>
</defs>
</svg>
