<svg width="24" height="24" viewBox="0 0 24 24" fill="none" xmlns="http://www.w3.org/2000/svg">
<g id="soccer-ball">
<g clip-path="url(#clip0_232_1982)">
<g id="Weight=Dynamic">
<path id="Polygon (Stroke)" fill-rule="evenodd" clip-rule="evenodd" d="M2.7854 11.1852L4.67252 9.27104L4.14715 7.10936C3.39706 8.31123 2.91521 9.69776 2.7854 11.1852ZM3.93186 4.89574C2.26262 6.78999 1.25 9.27674 1.25 12C1.25 17.9371 6.06294 22.75 12 22.75C17.9371 22.75 22.75 17.9371 22.75 12C22.75 9.27675 21.7374 6.79001 20.0682 4.89576C20.064 4.89093 20.0598 4.88615 20.0555 4.88142C18.0859 2.65426 15.2069 1.25 12 1.25C8.79306 1.25 5.9141 2.65427 3.94449 4.88144C3.94022 4.88615 3.93601 4.89092 3.93186 4.89574ZM5.32347 5.59791L6.14388 8.97354L8.11323 9.89688L11.25 7.61786V5.38553L8.51576 3.42867C7.30169 3.92268 6.21621 4.66715 5.32347 5.59791ZM10.3499 2.89675L12 4.07771L13.6501 2.89676C13.1147 2.80034 12.5632 2.75 12 2.75C11.4368 2.75 10.8853 2.80034 10.3499 2.89675ZM15.4842 3.42867L12.75 5.38552V7.61786L15.8868 9.89687L17.8561 8.97355L18.6765 5.59791C17.7838 4.66715 16.6983 3.92268 15.4842 3.42867ZM19.8529 7.10936L19.3275 9.27104L21.2146 11.1852C21.0848 9.69776 20.6029 8.31123 19.8529 7.10936ZM21.1635 13.2699L18.3382 10.4042L16.4171 11.305L15.1827 15.1039L16.351 16.7081L20.1941 16.2959C20.6811 15.3689 21.0154 14.3491 21.1635 13.2699ZM19.1068 17.9211L16.4616 18.2048L15.0126 20.7483C16.6255 20.193 18.0367 19.2042 19.1068 17.9211ZM13.0329 21.193L15.1084 17.5498L13.9696 15.9861H10.0305L8.89155 17.5498L10.9671 21.193C11.3062 21.2307 11.6508 21.25 12 21.25C12.3492 21.25 12.6938 21.2307 13.0329 21.193ZM8.98742 20.7483L7.53835 18.2048L4.89315 17.9211C5.96335 19.2042 7.3745 20.193 8.98742 20.7483ZM3.80595 16.2959L7.64896 16.7081L8.81733 15.1039L7.58299 11.305L5.66177 10.4042L2.83646 13.2699C2.98463 14.3491 3.31893 15.3689 3.80595 16.2959ZM9.07748 11.0504L10.1938 14.4861H13.8063L14.9226 11.0504L12 8.92705L9.07748 11.0504Z" fill="black"/>
</g>
</g>
</g>
<defs>
<clipPath id="clip0_232_1982">
<rect width="24" height="24" rx="5" fill="white"/>
</clipPath>
</defs>
</svg>
