<svg width="24" height="24" viewBox="0 0 24 24" fill="none" xmlns="http://www.w3.org/2000/svg">
<g id="sofa">
<g clip-path="url(#clip0_232_9014)">
<g id="Weight=Dynamic">
<path id="Vector (Stroke)" fill-rule="evenodd" clip-rule="evenodd" d="M3.25 7C3.25 5.48122 4.48122 4.25 6 4.25H18C19.5188 4.25 20.75 5.48122 20.75 7V8.35352C21.9043 8.67998 22.75 9.74122 22.75 11V19C22.75 19.4142 22.4142 19.75 22 19.75C21.5858 19.75 21.25 19.4142 21.25 19V17.75H2.75V19C2.75 19.4142 2.41421 19.75 2 19.75C1.58579 19.75 1.25 19.4142 1.25 19V11C1.25 9.74122 2.09575 8.67998 3.25 8.35352V7ZM4.75 8.35352C5.90425 8.67998 6.75 9.74122 6.75 11V12.25H17.25V11C17.25 9.74122 18.0957 8.67998 19.25 8.35352V7C19.25 6.30964 18.6904 5.75 18 5.75H6C5.30964 5.75 4.75 6.30964 4.75 7V8.35352ZM2.75 16.25H21.25V11C21.25 10.3096 20.6904 9.75 20 9.75C19.3096 9.75 18.75 10.3096 18.75 11V13C18.75 13.4142 18.4142 13.75 18 13.75H6C5.58579 13.75 5.25 13.4142 5.25 13V11C5.25 10.3096 4.69036 9.75 4 9.75C3.30964 9.75 2.75 10.3096 2.75 11V16.25Z" fill="black"/>
</g>
</g>
</g>
<defs>
<clipPath id="clip0_232_9014">
<rect width="24" height="24" rx="5" fill="white"/>
</clipPath>
</defs>
</svg>
