<svg width="24" height="24" viewBox="0 0 24 24" fill="none" xmlns="http://www.w3.org/2000/svg">
<g id="soil">
<g clip-path="url(#clip0_232_10568)">
<g id="Weight=Dynamic">
<path id="Vector (Stroke)" fill-rule="evenodd" clip-rule="evenodd" d="M1.25 4C1.25 3.58579 1.58579 3.25 2 3.25H22C22.4142 3.25 22.75 3.58579 22.75 4C22.75 4.41421 22.4142 4.75 22 4.75H2C1.58579 4.75 1.25 4.41421 1.25 4ZM3.51173 7.44142C3.81961 7.71852 3.84456 8.19273 3.56747 8.50062L3.55747 8.51173C3.28037 8.81961 2.80616 8.84457 2.49827 8.56747C2.19039 8.29038 2.16544 7.81616 2.44253 7.50828L2.45253 7.49717C2.72963 7.18928 3.20384 7.16433 3.51173 7.44142ZM9.51173 7.44143C9.81961 7.71853 9.84456 8.19274 9.56746 8.50062L9.55746 8.51173C9.28036 8.81961 8.80615 8.84456 8.49827 8.56746C8.19039 8.29037 8.16544 7.81615 8.44254 7.50827L8.45254 7.49716C8.72964 7.18928 9.20385 7.16433 9.51173 7.44143ZM15.5117 7.44143C15.8196 7.71853 15.8446 8.19274 15.5675 8.50062L15.5575 8.51173C15.2804 8.81961 14.8061 8.84456 14.4983 8.56746C14.1904 8.29037 14.1654 7.81615 14.4425 7.50827L14.4525 7.49716C14.7296 7.18928 15.2039 7.16433 15.5117 7.44143ZM21.5117 7.44143C21.8196 7.71853 21.8446 8.19274 21.5675 8.50062L21.5575 8.51173C21.2804 8.81961 20.8061 8.84456 20.4983 8.56746C20.1904 8.29037 20.1654 7.81615 20.4425 7.50827L20.4525 7.49716C20.7296 7.18928 21.2039 7.16433 21.5117 7.44143ZM6.51173 11.4414C6.81961 11.7185 6.84456 12.1927 6.56747 12.5006L6.55747 12.5117C6.28037 12.8196 5.80616 12.8446 5.49827 12.5675C5.19039 12.2904 5.16544 11.8162 5.44253 11.5083L5.45253 11.4972C5.72963 11.1893 6.20385 11.1643 6.51173 11.4414ZM12.5117 11.4414C12.8196 11.7185 12.8446 12.1927 12.5675 12.5006L12.5575 12.5117C12.2804 12.8196 11.8062 12.8446 11.4983 12.5675C11.1904 12.2904 11.1654 11.8162 11.4425 11.5083L11.4525 11.4972C11.7296 11.1893 12.2038 11.1643 12.5117 11.4414ZM18.5117 11.4414C18.8196 11.7185 18.8446 12.1927 18.5675 12.5006L18.5575 12.5117C18.2804 12.8196 17.8062 12.8446 17.4983 12.5675C17.1904 12.2904 17.1654 11.8162 17.4425 11.5083L17.4525 11.4972C17.7296 11.1893 18.2038 11.1643 18.5117 11.4414ZM3.51172 15.4414C3.8196 15.7185 3.84457 16.1927 3.56747 16.5006L3.55747 16.5117C3.28038 16.8196 2.80616 16.8446 2.49828 16.5675C2.1904 16.2904 2.16543 15.8162 2.44253 15.5083L2.45253 15.4972C2.72962 15.1893 3.20384 15.1643 3.51172 15.4414ZM9.51173 15.4414C9.81961 15.7185 9.84456 16.1927 9.56747 16.5006L9.55747 16.5117C9.28037 16.8196 8.80616 16.8446 8.49827 16.5675C8.19039 16.2904 8.16544 15.8162 8.44253 15.5083L8.45253 15.4972C8.72963 15.1893 9.20385 15.1643 9.51173 15.4414ZM15.5117 15.4414C15.8196 15.7185 15.8446 16.1927 15.5675 16.5006L15.5575 16.5117C15.2804 16.8196 14.8062 16.8446 14.4983 16.5675C14.1904 16.2904 14.1654 15.8162 14.4425 15.5083L14.4525 15.4972C14.7296 15.1893 15.2038 15.1643 15.5117 15.4414ZM21.5117 15.4414C21.8196 15.7185 21.8446 16.1927 21.5675 16.5006L21.5575 16.5117C21.2804 16.8196 20.8062 16.8446 20.4983 16.5675C20.1904 16.2904 20.1654 15.8162 20.4425 15.5083L20.4525 15.4972C20.7296 15.1893 21.2038 15.1643 21.5117 15.4414ZM6.51173 19.4414C6.81961 19.7185 6.84456 20.1927 6.56747 20.5006L6.55747 20.5117C6.28037 20.8196 5.80616 20.8446 5.49827 20.5675C5.19039 20.2904 5.16544 19.8162 5.44253 19.5083L5.45253 19.4972C5.72963 19.1893 6.20385 19.1643 6.51173 19.4414ZM12.5117 19.4414C12.8196 19.7185 12.8446 20.1927 12.5675 20.5006L12.5575 20.5117C12.2804 20.8196 11.8062 20.8446 11.4983 20.5675C11.1904 20.2904 11.1654 19.8162 11.4425 19.5083L11.4525 19.4972C11.7296 19.1893 12.2038 19.1643 12.5117 19.4414ZM18.5117 19.4414C18.8196 19.7185 18.8446 20.1927 18.5675 20.5006L18.5575 20.5117C18.2804 20.8196 17.8062 20.8446 17.4983 20.5675C17.1904 20.2904 17.1654 19.8162 17.4425 19.5083L17.4525 19.4972C17.7296 19.1893 18.2038 19.1643 18.5117 19.4414Z" fill="black"/>
</g>
</g>
</g>
<defs>
<clipPath id="clip0_232_10568">
<rect width="24" height="24" rx="5" fill="white"/>
</clipPath>
</defs>
</svg>
