<svg width="24" height="24" viewBox="0 0 24 24" fill="none" xmlns="http://www.w3.org/2000/svg">
<g id="soil-alt">
<g clip-path="url(#clip0_232_10602)">
<g id="Weight=Dynamic">
<g id="Vector">
<path fill-rule="evenodd" clip-rule="evenodd" d="M6.75 12C6.75 12.4142 6.41421 12.75 6 12.75H2C1.58579 12.75 1.25 12.4142 1.25 12C1.25 11.5858 1.58579 11.25 2 11.25H6C6.41421 11.25 6.75 11.5858 6.75 12Z" fill="black"/>
<path fill-rule="evenodd" clip-rule="evenodd" d="M22.75 12C22.75 12.4142 22.4142 12.75 22 12.75H17C16.5858 12.75 16.25 12.4142 16.25 12C16.25 11.5858 16.5858 11.25 17 11.25H22C22.4142 11.25 22.75 11.5858 22.75 12Z" fill="black"/>
<path fill-rule="evenodd" clip-rule="evenodd" d="M3.51172 19.4414C3.81961 19.7185 3.84456 20.1927 3.56747 20.5006L3.55747 20.5117C3.28038 20.8196 2.80616 20.8446 2.49828 20.5675C2.19039 20.2904 2.16544 19.8162 2.44253 19.5083L2.45253 19.4972C2.72962 19.1893 3.20384 19.1643 3.51172 19.4414Z" fill="black"/>
<path fill-rule="evenodd" clip-rule="evenodd" d="M6.51172 15.4414C6.81961 15.7185 6.84456 16.1927 6.56747 16.5006L6.55747 16.5117C6.28038 16.8196 5.80616 16.8446 5.49828 16.5675C5.19039 16.2904 5.16544 15.8162 5.44253 15.5083L5.45253 15.4972C5.72962 15.1893 6.20384 15.1643 6.51172 15.4414Z" fill="black"/>
<path fill-rule="evenodd" clip-rule="evenodd" d="M9.51172 19.4414C9.81961 19.7185 9.84457 20.1927 9.56747 20.5006L9.55747 20.5117C9.28038 20.8196 8.80616 20.8446 8.49828 20.5675C8.19039 20.2904 8.16544 19.8162 8.44253 19.5083L8.45253 19.4972C8.72962 19.1893 9.20384 19.1643 9.51172 19.4414Z" fill="black"/>
<path fill-rule="evenodd" clip-rule="evenodd" d="M12.5117 15.4414C12.8196 15.7185 12.8446 16.1927 12.5675 16.5006L12.5575 16.5117C12.2804 16.8196 11.8062 16.8446 11.4983 16.5675C11.1904 16.2904 11.1654 15.8162 11.4425 15.5083L11.4525 15.4972C11.7296 15.1893 12.2038 15.1643 12.5117 15.4414Z" fill="black"/>
<path fill-rule="evenodd" clip-rule="evenodd" d="M15.5117 19.4414C15.8196 19.7185 15.8446 20.1927 15.5675 20.5006L15.5575 20.5117C15.2804 20.8196 14.8062 20.8446 14.4983 20.5675C14.1904 20.2904 14.1654 19.8162 14.4425 19.5083L14.4525 19.4972C14.7296 19.1893 15.2038 19.1643 15.5117 19.4414Z" fill="black"/>
<path fill-rule="evenodd" clip-rule="evenodd" d="M18.5117 15.4414C18.8196 15.7185 18.8446 16.1927 18.5675 16.5006L18.5575 16.5117C18.2804 16.8196 17.8062 16.8446 17.4983 16.5675C17.1904 16.2904 17.1654 15.8162 17.4425 15.5083L17.4525 15.4972C17.7296 15.1893 18.2038 15.1643 18.5117 15.4414Z" fill="black"/>
<path fill-rule="evenodd" clip-rule="evenodd" d="M21.5117 19.4414C21.8196 19.7185 21.8446 20.1927 21.5675 20.5006L21.5575 20.5117C21.2804 20.8196 20.8062 20.8446 20.4983 20.5675C20.1904 20.2904 20.1654 19.8162 20.4425 19.5083L20.4525 19.4972C20.7296 19.1893 21.2038 19.1643 21.5117 19.4414Z" fill="black"/>
<path fill-rule="evenodd" clip-rule="evenodd" d="M12.5107 6.45071C12.814 6.73275 12.8313 7.2073 12.5493 7.51067C11.5912 8.54119 10.8826 9.94237 10.4088 11.1258C10.1746 11.7107 10.0034 12.2281 9.8911 12.598C9.83503 12.7827 9.79385 12.93 9.76702 13.0297C9.7536 13.0795 9.74379 13.1175 9.73751 13.1422L9.73073 13.1692L9.72931 13.175M9.72931 13.175C9.63233 13.5775 9.22722 13.8261 8.82458 13.7292C8.42186 13.6323 8.17392 13.2273 8.2708 12.8246L9 13C8.2708 12.8246 8.2708 12.8246 8.2708 12.8246L8.27124 12.8228L8.27201 12.8196L8.27456 12.8092L8.28373 12.7727C8.29166 12.7415 8.30323 12.6968 8.31853 12.64C8.34912 12.5263 8.39466 12.3636 8.45578 12.1623C8.57786 11.7601 8.76291 11.201 9.01623 10.5683C9.51742 9.31646 10.3088 7.71764 11.4507 6.48934C11.7327 6.18597 12.2073 6.16868 12.5107 6.45071" fill="black"/>
<path fill-rule="evenodd" clip-rule="evenodd" d="M11.5544 2.92858C9.4911 3.12725 7.97949 4.96098 8.17817 7.02432C8.37597 9.07852 10.2439 10.5961 12.3164 10.3965C14.4364 10.1924 16.016 8.30409 15.8136 6.20247L15.4621 2.55231L11.5544 2.92858ZM6.68507 7.16809C6.407 4.28013 8.52272 1.71356 11.4107 1.43548L15.5574 1.03619C16.25 0.969506 16.8655 1.47688 16.9322 2.16945L17.3067 6.0587C17.5902 9.0032 15.3864 11.6078 12.4602 11.8896C9.58143 12.1668 6.96403 10.0652 6.68507 7.16809Z" fill="black"/>
</g>
</g>
</g>
</g>
<defs>
<clipPath id="clip0_232_10602">
<rect width="24" height="24" rx="5" fill="white"/>
</clipPath>
</defs>
</svg>
