<svg width="24" height="24" viewBox="0 0 24 24" fill="none" xmlns="http://www.w3.org/2000/svg">
<g id="sort-up">
<g clip-path="url(#clip0_232_6481)">
<g id="Weight=Dynamic">
<path id="Vector (Stroke)" fill-rule="evenodd" clip-rule="evenodd" d="M18.4697 3.46967C18.7626 3.17678 19.2374 3.17678 19.5303 3.46967L22.5303 6.46967C22.8232 6.76256 22.8232 7.23744 22.5303 7.53033C22.2374 7.82322 21.7626 7.82322 21.4697 7.53033L19.75 5.81066V14C19.75 14.4142 19.4142 14.75 19 14.75C18.5858 14.75 18.25 14.4142 18.25 14V5.81066L16.5303 7.53033C16.2374 7.82322 15.7626 7.82322 15.4697 7.53033C15.1768 7.23744 15.1768 6.76256 15.4697 6.46967L18.4697 3.46967ZM1.25 6C1.25 5.58579 1.58579 5.25 2 5.25H6C6.41421 5.25 6.75 5.58579 6.75 6C6.75 6.41421 6.41421 6.75 6 6.75H2C1.58579 6.75 1.25 6.41421 1.25 6ZM1.25 10C1.25 9.58579 1.58579 9.25 2 9.25H10C10.4142 9.25 10.75 9.58579 10.75 10C10.75 10.4142 10.4142 10.75 10 10.75H2C1.58579 10.75 1.25 10.4142 1.25 10ZM1.25 14C1.25 13.5858 1.58579 13.25 2 13.25H14C14.4142 13.25 14.75 13.5858 14.75 14C14.75 14.4142 14.4142 14.75 14 14.75H2C1.58579 14.75 1.25 14.4142 1.25 14ZM1.25 18C1.25 17.5858 1.58579 17.25 2 17.25H18C18.4142 17.25 18.75 17.5858 18.75 18C18.75 18.4142 18.4142 18.75 18 18.75H2C1.58579 18.75 1.25 18.4142 1.25 18Z" fill="black"/>
</g>
</g>
</g>
<defs>
<clipPath id="clip0_232_6481">
<rect width="24" height="24" rx="5" fill="white"/>
</clipPath>
</defs>
</svg>
