<svg width="24" height="24" viewBox="0 0 24 24" fill="none" xmlns="http://www.w3.org/2000/svg">
<g id="sound-min">
<g clip-path="url(#clip0_232_17313)">
<g id="Weight=Dynamic">
<path id="Vector (Stroke)" fill-rule="evenodd" clip-rule="evenodd" d="M14.5367 3.39613C15.7002 2.62896 17.25 3.46345 17.25 4.85714V19.1428C17.25 20.5365 15.7002 21.371 14.5367 20.6039L8.53761 16.6484C8.49677 16.6215 8.44893 16.6071 8.4 16.6071H5.5C3.98122 16.6071 2.75 15.3759 2.75 13.8571V10.1429C2.75 8.62407 3.98122 7.39285 5.5 7.39285H8.4C8.44892 7.39285 8.49677 7.3785 8.53761 7.35157L8.95046 7.97771L8.53761 7.35157L14.5367 3.39613ZM15.75 4.85714C15.75 4.65804 15.5286 4.53883 15.3624 4.64842L9.3633 8.60386C9.0774 8.79237 8.74246 8.89285 8.4 8.89285H5.5C4.80964 8.89285 4.25 9.4525 4.25 10.1429V13.8571C4.25 14.5475 4.80965 15.1071 5.5 15.1071H8.4C8.74246 15.1071 9.07739 15.2076 9.3633 15.3961L15.3624 19.3516C15.5286 19.4612 15.75 19.342 15.75 19.1428V4.85714ZM20.5 8.24999C20.9142 8.24999 21.25 8.58578 21.25 8.99999V15C21.25 15.4142 20.9142 15.75 20.5 15.75C20.0858 15.75 19.75 15.4142 19.75 15V8.99999C19.75 8.58578 20.0858 8.24999 20.5 8.24999Z" fill="black"/>
</g>
</g>
</g>
<defs>
<clipPath id="clip0_232_17313">
<rect width="24" height="24" rx="5" fill="white"/>
</clipPath>
</defs>
</svg>
