<svg width="24" height="24" viewBox="0 0 24 24" fill="none" xmlns="http://www.w3.org/2000/svg">
<g id="sound-off">
<g clip-path="url(#clip0_232_17323)">
<g id="Weight=Dynamic">
<path id="Vector (Stroke)" fill-rule="evenodd" clip-rule="evenodd" d="M13.0367 3.39613C14.2002 2.62897 15.75 3.46346 15.75 4.85714V19.1429C15.75 20.5365 14.2002 21.371 13.0367 20.6039L7.03761 16.6484C6.99677 16.6215 6.94893 16.6071 6.9 16.6071H4C2.48122 16.6071 1.25 15.3759 1.25 13.8571V10.1429C1.25 8.62407 2.48122 7.39286 4 7.39286H6.9C6.94892 7.39286 6.99677 7.3785 7.03761 7.35157L7.45046 7.97772L7.03761 7.35157L13.0367 3.39613ZM14.25 4.85714C14.25 4.65804 14.0286 4.53883 13.8624 4.64843L7.8633 8.60387C7.5774 8.79238 7.24246 8.89286 6.9 8.89286H4C3.30964 8.89286 2.75 9.4525 2.75 10.1429V13.8571C2.75 14.5475 3.30965 15.1071 4 15.1071H6.9C7.24246 15.1071 7.57739 15.2076 7.8633 15.3961L13.8624 19.3516C14.0286 19.4612 14.25 19.342 14.25 19.1429V4.85714ZM22.5303 9.46961C22.8232 9.76247 22.8233 10.2373 22.5304 10.5303L21.061 12L22.5304 13.4697C22.8232 13.7627 22.8232 14.2375 22.5303 14.5304C22.2373 14.8233 21.7625 14.8232 21.4696 14.5303L20.0003 13.0607L18.5303 14.5304C18.2373 14.8233 17.7625 14.8232 17.4696 14.5303C17.1768 14.2373 17.1768 13.7625 17.4697 13.4696L18.9397 12L17.4697 10.5304C17.1768 10.2375 17.1768 9.76266 17.4696 9.46973C17.7625 9.1768 18.2373 9.17675 18.5303 9.46961L20.0003 10.9393L21.4696 9.46973C21.7625 9.1768 22.2373 9.17675 22.5303 9.46961Z" fill="black"/>
</g>
</g>
</g>
<defs>
<clipPath id="clip0_232_17323">
<rect width="24" height="24" rx="5" fill="white"/>
</clipPath>
</defs>
</svg>
