<svg width="24" height="24" viewBox="0 0 24 24" fill="none" xmlns="http://www.w3.org/2000/svg">
<g id="sound-low">
<g clip-path="url(#clip0_232_17346)">
<g id="Weight=Dynamic">
<path id="Vector (Stroke)" fill-rule="evenodd" clip-rule="evenodd" d="M13.0367 3.39613C14.2002 2.62897 15.75 3.46346 15.75 4.85714V19.1429C15.75 20.5365 14.2002 21.371 13.0367 20.6039L7.03761 16.6484C6.99677 16.6215 6.94893 16.6071 6.9 16.6071H4C2.48122 16.6071 1.25 15.3759 1.25 13.8571V10.1429C1.25 8.62407 2.48122 7.39286 4 7.39286H6.9C6.94892 7.39286 6.99677 7.3785 7.03761 7.35157L13.0367 3.39613ZM14.25 4.85714C14.25 4.65804 14.0286 4.53883 13.8624 4.64843L7.8633 8.60387C7.5774 8.79238 7.24246 8.89286 6.9 8.89286H4C3.30964 8.89286 2.75 9.4525 2.75 10.1429V13.8571C2.75 14.5475 3.30965 15.1071 4 15.1071H6.9C7.24246 15.1071 7.57739 15.2076 7.8633 15.3961L13.8624 19.3516C14.0286 19.4612 14.25 19.342 14.25 19.1429V4.85714ZM18.9697 6.96967C19.2626 6.67678 19.7374 6.67678 20.0303 6.96967L19.5 7.5C20.0303 6.96967 20.0301 6.96944 20.0303 6.96967L20.0313 6.9706L20.0323 6.97168L20.0349 6.97426L20.0416 6.98113L20.0613 7.00165C20.0771 7.01833 20.0982 7.04101 20.1237 7.06959C20.1747 7.1267 20.2439 7.20756 20.325 7.31121C20.487 7.51816 20.6983 7.8181 20.9084 8.20336C21.3286 8.97364 21.75 10.0966 21.75 11.5C21.75 12.9034 21.3286 14.0264 20.9084 14.7966C20.6983 15.1819 20.487 15.4818 20.325 15.6888C20.2439 15.7924 20.1747 15.8733 20.1237 15.9304C20.0982 15.959 20.0771 15.9817 20.0613 15.9984L20.0416 16.0189L20.0349 16.0257L20.0323 16.0283L20.0313 16.0294C20.031 16.0296 20.0303 16.0303 19.5 15.5L20.0303 16.0303C19.7374 16.3232 19.2626 16.3232 18.9697 16.0303C18.6776 15.7383 18.6768 15.2654 18.9671 14.9723M18.9689 14.9705L18.9671 14.9723L18.9724 14.9667C18.9786 14.9602 18.9897 14.9482 19.0052 14.9309C19.0362 14.8962 19.0842 14.8404 19.1437 14.7643C19.263 14.6119 19.4267 14.3806 19.5916 14.0784C19.9214 13.4736 20.25 12.5966 20.25 11.5C20.25 10.4034 19.9214 9.52636 19.5916 8.92164C19.4267 8.6194 19.263 8.38809 19.1437 8.23567C19.0842 8.15963 19.0362 8.10377 19.0052 8.06908C18.9897 8.05176 18.9786 8.03978 18.9724 8.03327L18.9673 8.02793L18.9682 8.02887L18.969 8.02965C18.9684 8.02901 18.9679 8.02857 18.9673 8.02793C18.677 7.73483 18.6776 7.2617 18.9697 6.96967" fill="black"/>
</g>
</g>
</g>
<defs>
<clipPath id="clip0_232_17346">
<rect width="24" height="24" rx="5" fill="white"/>
</clipPath>
</defs>
</svg>
