<svg width="24" height="24" viewBox="0 0 24 24" fill="none" xmlns="http://www.w3.org/2000/svg">
<g id="spades">
<g clip-path="url(#clip0_232_8399)">
<g id="Weight=Dynamic">
<path id="Vector (Stroke)" fill-rule="evenodd" clip-rule="evenodd" d="M11.4697 1.46967C11.7626 1.17678 12.2374 1.17678 12.5303 1.46967C13.3826 2.32198 14.2182 3.12726 15.0148 3.89501C16.5098 5.33585 17.8677 6.6445 18.9418 7.8838C20.606 9.80404 21.75 11.7275 21.75 14C21.75 15.3972 21.3249 16.5313 20.5553 17.3287C19.7886 18.1232 18.7485 18.5123 17.6515 18.551C16.6723 18.5856 15.6319 18.3451 14.636 17.8488L16.1912 20.7647C16.6708 21.6639 16.0191 22.75 15 22.75H9C7.98086 22.75 7.32923 21.6639 7.80882 20.7647L9.36398 17.8488C8.36812 18.345 7.3277 18.5856 6.34854 18.551C5.25155 18.5123 4.21141 18.1232 3.4447 17.3287C2.6751 16.5313 2.25 15.3972 2.25 14C2.25 11.7275 3.39402 9.80404 5.05823 7.8838C6.13229 6.6445 7.49016 5.33585 8.98518 3.89501C9.7818 3.12726 10.6174 2.32198 11.4697 1.46967ZM12 16.0938L9.25 21.25H14.75L12 16.0938ZM6.19177 8.8662C4.60598 10.696 3.75 12.2725 3.75 14C3.75 15.0881 4.0749 15.8217 4.52405 16.2871C4.97609 16.7555 5.62345 17.0245 6.40146 17.0519C7.97487 17.1075 9.99558 16.1545 11.376 14.084C11.5151 13.8753 11.7492 13.75 12 13.75C12.2508 13.75 12.4849 13.8753 12.624 14.084C14.0044 16.1545 16.0251 17.1075 17.5985 17.0519C18.3765 17.0245 19.0239 16.7555 19.476 16.2871C19.9251 15.8217 20.25 15.0881 20.25 14C20.25 12.2725 19.394 10.696 17.8082 8.8662C16.7759 7.67501 15.5018 6.44775 14.0453 5.04468C13.3978 4.42102 12.7143 3.76264 12 3.05724C11.2857 3.76264 10.6022 4.42102 9.95474 5.04468C8.49818 6.44775 7.22413 7.67501 6.19177 8.8662Z" fill="black"/>
</g>
</g>
</g>
<defs>
<clipPath id="clip0_232_8399">
<rect width="24" height="24" rx="5" fill="white"/>
</clipPath>
</defs>
</svg>
