<svg width="24" height="24" viewBox="0 0 24 24" fill="none" xmlns="http://www.w3.org/2000/svg">
<g id="spark">
<g clip-path="url(#clip0_232_11675)">
<g id="Weight=Dynamic">
<path id="Vector 47 (Stroke)" fill-rule="evenodd" clip-rule="evenodd" d="M12 2.25C12.4142 2.25 12.75 2.58579 12.75 3C12.75 6.09606 13.4131 8.10432 14.6711 9.35408C15.9301 10.6048 17.9397 11.25 21 11.25C21.4142 11.25 21.75 11.5858 21.75 12C21.75 12.4142 21.4142 12.75 21 12.75C17.9447 12.75 15.9337 13.412 14.6728 14.6728C13.412 15.9337 12.75 17.9447 12.75 21C12.75 21.4142 12.4142 21.75 12 21.75C11.5858 21.75 11.25 21.4142 11.25 21C11.25 17.9459 10.5838 15.9346 9.32042 14.6733C8.05684 13.4118 6.04516 12.75 3 12.75C2.58579 12.75 2.25 12.4142 2.25 12C2.25 11.5858 2.58579 11.25 3 11.25C6.05016 11.25 8.06042 10.6051 9.32216 9.35365C10.5827 8.10343 11.25 6.09482 11.25 3C11.25 2.58579 11.5858 2.25 12 2.25ZM11.9983 7.87298C11.6185 8.86745 11.0855 9.7174 10.3785 10.4186C9.67823 11.1132 8.83433 11.635 7.85346 12.0069C8.8356 12.3845 9.67993 12.9126 10.3802 13.6118C11.0861 14.3165 11.6187 15.168 11.9983 16.1605C12.3765 15.1683 12.9075 14.3169 13.6122 13.6122C14.3116 12.9128 15.1555 12.3845 16.1382 12.0069C15.1568 11.6349 14.3133 11.113 13.6139 10.4182C12.9081 9.71698 12.3767 8.86714 11.9983 7.87298Z" fill="black"/>
</g>
</g>
</g>
<defs>
<clipPath id="clip0_232_11675">
<rect width="24" height="24" rx="5" fill="white"/>
</clipPath>
</defs>
</svg>
