<svg width="24" height="24" viewBox="0 0 24 24" fill="none" xmlns="http://www.w3.org/2000/svg">
<g id="sparks">
<g clip-path="url(#clip0_232_11682)">
<g id="Weight=Dynamic">
<path id="Vector (Stroke)" fill-rule="evenodd" clip-rule="evenodd" d="M6.5 1.25C6.91421 1.25 7.25 1.58579 7.25 2C7.25 3.5053 7.57396 4.38855 8.09985 4.91101C8.62674 5.43446 9.51131 5.75 11 5.75C11.4142 5.75 11.75 6.08579 11.75 6.5C11.75 6.91421 11.4142 7.25 11 7.25C9.51632 7.25 8.63032 7.57286 8.10159 8.10159C7.57286 8.63032 7.25 9.51632 7.25 11C7.25 11.4142 6.91421 11.75 6.5 11.75C6.08579 11.75 5.75 11.4142 5.75 11C5.75 9.51756 5.42532 8.63122 4.89526 8.10202C4.36496 7.57258 3.47828 7.25 2 7.25C1.58579 7.25 1.25 6.91421 1.25 6.5C1.25 6.08579 1.58579 5.75 2 5.75C3.48328 5.75 4.36854 5.43473 4.897 4.91058C5.42421 4.38766 5.75 3.50405 5.75 2C5.75 1.58579 6.08579 1.25 6.5 1.25ZM6.49868 5.28671C6.34432 5.53714 6.16337 5.76722 5.95332 5.97557C5.74775 6.17946 5.52169 6.35519 5.27663 6.50531C5.52248 6.65728 5.7491 6.83488 5.95506 7.0405C6.16431 7.24941 6.3447 7.47972 6.49868 7.72997C6.6522 7.47992 6.83211 7.24974 7.04093 7.04093C7.24675 6.83511 7.47331 6.65737 7.7192 6.50531C7.4741 6.3551 7.2481 6.17923 7.04267 5.97514C6.83305 5.76689 6.65257 5.53694 6.49868 5.28671ZM15 7.25C15.4142 7.25 15.75 7.58579 15.75 8C15.75 10.3891 16.2624 11.8973 17.195 12.8238C18.1286 13.7513 19.6382 14.25 22 14.25C22.4142 14.25 22.75 14.5858 22.75 15C22.75 15.4142 22.4142 15.75 22 15.75C19.6432 15.75 18.1322 16.2613 17.1967 17.1967C16.2613 18.1322 15.75 19.6432 15.75 22C15.75 22.4142 15.4142 22.75 15 22.75C14.5858 22.75 14.25 22.4142 14.25 22C14.25 19.6444 13.7356 18.1331 12.7981 17.1972C11.8604 16.261 10.3488 15.75 8 15.75C7.58579 15.75 7.25 15.4142 7.25 15C7.25 14.5858 7.58579 14.25 8 14.25C10.3538 14.25 11.864 13.7516 12.7999 12.8234C13.7345 11.8964 14.25 10.3878 14.25 8C14.25 7.58579 14.5858 7.25 15 7.25ZM14.9984 12.224C14.7107 12.8587 14.3337 13.4147 13.8562 13.8884C13.3845 14.3563 12.8336 14.7249 12.2084 15.0063C12.8346 15.2917 13.386 15.6645 13.8579 16.1356C14.3345 16.6114 14.711 17.1685 14.9984 17.8025C15.2849 17.1688 15.6603 16.6118 16.1361 16.1361C16.6074 15.6647 17.1586 15.2918 17.785 15.0063C17.1596 14.7248 16.609 14.3561 16.1378 13.888C15.6611 13.4143 15.2851 12.8584 14.9984 12.224Z" fill="black"/>
</g>
</g>
</g>
<defs>
<clipPath id="clip0_232_11682">
<rect width="24" height="24" rx="5" fill="white"/>
</clipPath>
</defs>
</svg>
