<svg width="24" height="24" viewBox="0 0 24 24" fill="none" xmlns="http://www.w3.org/2000/svg">
<g id="sphere">
<g clip-path="url(#clip0_232_652)">
<g id="Weight=Dynamic">
<path id="Vector (Stroke)" fill-rule="evenodd" clip-rule="evenodd" d="M7.53971 3.89444C4.6843 5.46906 2.75 8.50864 2.75 12C2.75 15.4914 4.6843 18.5309 7.53971 20.1056C7.39075 19.8978 7.2488 19.6812 7.11424 19.4569C5.9474 17.5122 5.25 14.874 5.25 12C5.25 9.12602 5.9474 6.4878 7.11424 4.54306C7.2488 4.31879 7.39075 4.10216 7.53971 3.89444ZM12 1.25C6.06294 1.25 1.25 6.06294 1.25 12C1.25 17.9371 6.06294 22.75 12 22.75C17.9371 22.75 22.75 17.9371 22.75 12C22.75 6.06294 17.9371 1.25 12 1.25ZM12 2.75C10.7101 2.75 9.41417 3.62533 8.40048 5.3148C7.39575 6.98935 6.75 9.35114 6.75 12C6.75 14.6489 7.39575 17.0106 8.40048 18.6852C9.41417 20.3747 10.7101 21.25 12 21.25C17.1086 21.25 21.25 17.1086 21.25 12C21.25 6.89137 17.1086 2.75 12 2.75Z" fill="black"/>
</g>
</g>
</g>
<defs>
<clipPath id="clip0_232_652">
<rect width="24" height="24" rx="5" fill="white"/>
</clipPath>
</defs>
</svg>
