<svg width="24" height="24" viewBox="0 0 24 24" fill="none" xmlns="http://www.w3.org/2000/svg">
<g id="spiral">
<g clip-path="url(#clip0_232_717)">
<g id="Weight=Dynamic">
<g id="Vector">
<path fill-rule="evenodd" clip-rule="evenodd" d="M5.84225 4.5249C4.57334 5.01623 4.25 5.58183 4.25 6.00398C4.25 6.42532 4.57224 6.98918 5.84136 7.47873C7.07572 7.95488 8.97111 8.25 11.5 8.25C14.8953 8.25 16.7391 7.52369 17.7094 6.8777C18.1954 6.55412 18.4746 6.24282 18.6266 6.03261C18.6338 6.02266 18.6408 6.01292 18.6474 6.00341C18.6406 5.99361 18.6335 5.98359 18.6261 5.97334C18.4739 5.76238 18.1946 5.4502 17.7086 5.12577C16.7384 4.47814 14.8949 3.75 11.5 3.75C8.97157 3.75 7.07642 4.04702 5.84225 4.5249ZM19.5 6.00398C20.2114 6.24143 20.2112 6.24217 20.2109 6.24293L20.2104 6.24449L20.2092 6.24784L20.2066 6.25537L20.2 6.27373C20.1949 6.28741 20.1885 6.30394 20.1806 6.32312C20.1648 6.36149 20.143 6.41047 20.114 6.46848C20.0559 6.58457 19.9687 6.73653 19.8421 6.91161C19.5879 7.26314 19.1796 7.70085 18.5407 8.12628C17.2609 8.97829 15.1048 9.75 11.5 9.75C8.88608 9.75 6.78145 9.4491 5.30151 8.87822C3.85634 8.32076 2.75 7.38661 2.75 6.00398C2.75 4.62215 3.85523 3.68576 5.30062 3.1261C6.78074 2.55298 8.88562 2.25 11.5 2.25C15.1051 2.25 17.2616 3.02385 18.5414 3.87821C19.1804 4.30477 19.5886 4.74359 19.8427 5.09587C19.9692 5.27132 20.0563 5.42358 20.1144 5.53985C20.1434 5.59795 20.1651 5.64699 20.1809 5.68539C20.1887 5.70459 20.1951 5.72113 20.2002 5.73481L20.2068 5.75316L20.2094 5.76069L20.2106 5.76403L20.2111 5.7656C20.2114 5.76635 20.2116 5.76709 19.5 6.00398ZM19.5 6.00398L20.2114 6.24143C20.2628 6.0875 20.2629 5.92106 20.2116 5.76709L19.5 6.00398Z" fill="black"/>
<path fill-rule="evenodd" clip-rule="evenodd" d="M5.84225 10.5249C4.57334 11.0162 4.25 11.5818 4.25 12.004C4.25 12.4253 4.57224 12.9892 5.84136 13.4787C7.07572 13.9549 8.97111 14.25 11.5 14.25C14.8953 14.25 16.7391 13.5237 17.7094 12.8777C18.1954 12.5541 18.4746 12.2428 18.6266 12.0326C18.6338 12.0227 18.6408 12.0129 18.6474 12.0034C18.6406 11.9936 18.6335 11.9836 18.6261 11.9733C18.4739 11.7624 18.1946 11.4502 17.7086 11.1258C16.7384 10.4781 14.8949 9.75 11.5 9.75C8.97157 9.75 7.07642 10.047 5.84225 10.5249ZM19.5 12.004C20.2114 12.2414 20.2112 12.2422 20.2109 12.2429L20.2104 12.2445L20.2092 12.2478L20.2066 12.2554L20.2 12.2737C20.1949 12.2874 20.1885 12.3039 20.1806 12.3231C20.1648 12.3615 20.143 12.4105 20.114 12.4685C20.0559 12.5846 19.9687 12.7365 19.8421 12.9116C19.5879 13.2631 19.1796 13.7009 18.5407 14.1263C17.2609 14.9783 15.1048 15.75 11.5 15.75C8.88608 15.75 6.78145 15.4491 5.30151 14.8782C3.85634 14.3208 2.75 13.3866 2.75 12.004C2.75 10.6221 3.85523 9.68576 5.30062 9.1261C6.78074 8.55299 8.88562 8.25 11.5 8.25C15.1051 8.25 17.2616 9.02385 18.5414 9.87821C19.1804 10.3048 19.5886 10.7436 19.8427 11.0959C19.9692 11.2713 20.0563 11.4236 20.1144 11.5398C20.1434 11.5979 20.1651 11.647 20.1809 11.6854C20.1887 11.7046 20.1951 11.7211 20.2002 11.7348L20.2068 11.7532L20.2094 11.7607L20.2106 11.764L20.2111 11.7656C20.2114 11.7663 20.2116 11.7671 19.5 12.004ZM19.5 12.004L20.2114 12.2414C20.2628 12.0875 20.2629 11.9211 20.2116 11.7671L19.5 12.004Z" fill="black"/>
<path fill-rule="evenodd" clip-rule="evenodd" d="M5.84225 16.5249C4.57334 17.0162 4.25 17.5818 4.25 18.004C4.25 18.4253 4.57224 18.9892 5.84136 19.4787C7.07572 19.9549 8.97111 20.25 11.5 20.25C14.8953 20.25 16.7391 19.5237 17.7094 18.8777C18.1954 18.5541 18.4746 18.2428 18.6266 18.0326C18.6338 18.0227 18.6408 18.0129 18.6474 18.0034C18.6406 17.9936 18.6335 17.9836 18.6261 17.9733C18.4739 17.7624 18.1946 17.4502 17.7086 17.1258C16.7384 16.4781 14.8949 15.75 11.5 15.75C8.97157 15.75 7.07642 16.047 5.84225 16.5249ZM19.5 18.004C20.2114 18.2414 20.2112 18.2422 20.2109 18.2429L20.2104 18.2445L20.2092 18.2478L20.2066 18.2554L20.2 18.2737C20.1949 18.2874 20.1885 18.3039 20.1806 18.3231C20.1648 18.3615 20.143 18.4105 20.114 18.4685C20.0559 18.5846 19.9687 18.7365 19.8421 18.9116C19.5879 19.2631 19.1796 19.7009 18.5407 20.1263C17.2609 20.9783 15.1048 21.75 11.5 21.75C8.88608 21.75 6.78145 21.4491 5.30151 20.8782C3.85634 20.3208 2.75 19.3866 2.75 18.004C2.75 16.6221 3.85523 15.6858 5.30062 15.1261C6.78074 14.553 8.88562 14.25 11.5 14.25C15.1051 14.25 17.2616 15.0239 18.5414 15.8782C19.1804 16.3048 19.5886 16.7436 19.8427 17.0959C19.9692 17.2713 20.0563 17.4236 20.1144 17.5398C20.1434 17.5979 20.1651 17.647 20.1809 17.6854C20.1887 17.7046 20.1951 17.7211 20.2002 17.7348L20.2068 17.7532L20.2094 17.7607L20.2106 17.764L20.2111 17.7656C20.2114 17.7663 20.2116 17.7671 19.5 18.004ZM19.5 18.004L20.2114 18.2414C20.2628 18.0875 20.2629 17.9211 20.2116 17.7671L19.5 18.004Z" fill="black"/>
<path fill-rule="evenodd" clip-rule="evenodd" d="M18.963 5.47642C19.2522 5.17985 19.727 5.17384 20.0236 5.463L19.5 6C20.0236 5.463 20.0233 5.46273 20.0236 5.463L20.0247 5.46411L20.0259 5.46531L20.0287 5.46801L20.0352 5.47456L20.0525 5.49226C20.0658 5.50612 20.0826 5.52411 20.1023 5.54625C20.1419 5.59052 20.1934 5.65152 20.2528 5.72945C20.3715 5.88525 20.522 6.10946 20.67 6.40353C20.9673 6.99449 21.25 7.85922 21.25 9C21.25 10.1408 20.9673 11.0055 20.67 11.5965C20.522 11.8905 20.3715 12.1147 20.2528 12.2705C20.1934 12.3485 20.1419 12.4095 20.1023 12.4538C20.0826 12.4759 20.0658 12.4939 20.0525 12.5077L20.0352 12.5254L20.0287 12.532L20.0259 12.5347L20.0247 12.5359C20.0244 12.5362 20.0236 12.537 19.5 12L20.0236 12.537C19.727 12.8262 19.2522 12.8202 18.963 12.5236C18.6758 12.229 18.6798 11.7587 18.9703 11.469C18.9721 11.4672 18.9766 11.4624 18.9836 11.4545C18.9987 11.4376 19.0253 11.4066 19.0597 11.3615C19.1285 11.2712 19.228 11.1251 19.33 10.9223C19.5327 10.5195 19.75 9.88422 19.75 9C19.75 8.11578 19.5327 7.48051 19.33 7.07772C19.228 6.87492 19.1285 6.72881 19.0597 6.63852C19.0253 6.5934 18.9987 6.56241 18.9836 6.54545C18.9766 6.53762 18.9721 6.53281 18.9703 6.53101C18.6798 6.24131 18.6758 5.77096 18.963 5.47642Z" fill="black"/>
<path fill-rule="evenodd" clip-rule="evenodd" d="M20.5 3.25C20.9142 3.25 21.25 3.58579 21.25 4C21.25 4.87254 20.9238 5.52718 20.5986 5.95806C20.4372 6.17191 20.2751 6.3324 20.1501 6.44178C20.0873 6.49671 20.033 6.53953 19.9916 6.57046C19.9708 6.58595 19.9532 6.59854 19.9393 6.60824L19.9211 6.62066L19.9142 6.62528L19.9113 6.62719L19.91 6.62804C19.9097 6.62824 19.9087 6.62883 19.5 6L19.9087 6.62883C19.5614 6.85457 19.0969 6.75604 18.8712 6.40874C18.647 6.06387 18.7426 5.60339 19.084 5.37593C19.0836 5.37622 19.0842 5.37584 19.084 5.37593M19.084 5.37593C19.0856 5.37483 19.0891 5.37232 19.0943 5.3684C19.1076 5.35852 19.1314 5.34001 19.1624 5.31291C19.2249 5.25823 19.3128 5.17184 19.4014 5.05444C19.5762 4.82282 19.75 4.47746 19.75 4C19.75 3.58579 20.0858 3.25 20.5 3.25" fill="black"/>
<path fill-rule="evenodd" clip-rule="evenodd" d="M18.963 11.4764C19.2522 11.1798 19.727 11.1738 20.0236 11.463L19.5 12C20.0236 11.463 20.0233 11.4627 20.0236 11.463L20.0247 11.4641L20.0259 11.4653L20.0287 11.468L20.0352 11.4746L20.0525 11.4923C20.0658 11.5061 20.0826 11.5241 20.1023 11.5462C20.1419 11.5905 20.1934 11.6515 20.2528 11.7295C20.3715 11.8853 20.522 12.1095 20.67 12.4035C20.9673 12.9945 21.25 13.8592 21.25 15C21.25 16.1408 20.9673 17.0055 20.67 17.5965C20.522 17.8905 20.3715 18.1148 20.2528 18.2705C20.1934 18.3485 20.1419 18.4095 20.1023 18.4538C20.0826 18.4759 20.0658 18.4939 20.0525 18.5077L20.0352 18.5254L20.0287 18.532L20.0259 18.5347L20.0247 18.5359C20.0244 18.5362 20.0236 18.537 19.5 18L20.0236 18.537C19.727 18.8262 19.2522 18.8202 18.963 18.5236C18.6758 18.229 18.6798 17.7587 18.9703 17.469C18.9721 17.4672 18.9766 17.4624 18.9836 17.4546C18.9987 17.4376 19.0253 17.4066 19.0597 17.3615C19.1285 17.2712 19.228 17.1251 19.33 16.9223C19.5327 16.5195 19.75 15.8842 19.75 15C19.75 14.1158 19.5327 13.4805 19.33 13.0777C19.228 12.8749 19.1285 12.7288 19.0597 12.6385C19.0253 12.5934 18.9987 12.5624 18.9836 12.5455C18.9766 12.5376 18.9721 12.5328 18.9703 12.531C18.6798 12.2413 18.6758 11.771 18.963 11.4764Z" fill="black"/>
<path fill-rule="evenodd" clip-rule="evenodd" d="M18.8712 17.5913C19.0969 17.244 19.5614 17.1454 19.9087 17.3712L19.5 18C19.9087 17.3712 19.9084 17.371 19.9087 17.3712L19.91 17.372L19.9113 17.3728L19.9142 17.3747L19.9211 17.3793L19.9393 17.3918C19.9532 17.4015 19.9708 17.414 19.9916 17.4295C20.033 17.4605 20.0873 17.5033 20.1501 17.5582C20.2751 17.6676 20.4372 17.8281 20.5986 18.0419C20.9238 18.4728 21.25 19.1275 21.25 20C21.25 20.4142 20.9142 20.75 20.5 20.75C20.0858 20.75 19.75 20.4142 19.75 20C19.75 19.5225 19.5762 19.1772 19.4014 18.9456C19.3128 18.8282 19.2249 18.7418 19.1624 18.6871C19.1314 18.66 19.1076 18.6415 19.0943 18.6316C19.0891 18.6277 19.0856 18.6252 19.084 18.6241C18.7426 18.3966 18.647 17.9361 18.8712 17.5913Z" fill="black"/>
</g>
</g>
</g>
</g>
<defs>
<clipPath id="clip0_232_717">
<rect width="24" height="24" rx="5" fill="white"/>
</clipPath>
</defs>
</svg>
