<svg width="24" height="24" viewBox="0 0 24 24" fill="none" xmlns="http://www.w3.org/2000/svg">
<g id="split-area">
<g clip-path="url(#clip0_232_11641)">
<g id="Weight=Dynamic">
<path id="Vector (Stroke)" fill-rule="evenodd" clip-rule="evenodd" d="M3.25 4C3.25 3.58579 3.58579 3.25 4 3.25H7C7.41421 3.25 7.75 3.58579 7.75 4C7.75 4.41421 7.41421 4.75 7 4.75H4.75V7C4.75 7.41421 4.41421 7.75 4 7.75C3.58579 7.75 3.25 7.41421 3.25 7V4ZM10.25 4C10.25 3.58579 10.5858 3.25 11 3.25H13C13.4142 3.25 13.75 3.58579 13.75 4C13.75 4.41421 13.4142 4.75 13 4.75H11C10.5858 4.75 10.25 4.41421 10.25 4ZM16.25 4C16.25 3.58579 16.5858 3.25 17 3.25H20C20.4142 3.25 20.75 3.58579 20.75 4V7C20.75 7.41421 20.4142 7.75 20 7.75C19.5858 7.75 19.25 7.41421 19.25 7V4.75H17C16.5858 4.75 16.25 4.41421 16.25 4ZM1.25 12C1.25 11.5858 1.58579 11.25 2 11.25H22C22.4142 11.25 22.75 11.5858 22.75 12C22.75 12.4142 22.4142 12.75 22 12.75H2C1.58579 12.75 1.25 12.4142 1.25 12ZM3.25 16C3.25 15.5858 3.58579 15.25 4 15.25H20C20.4142 15.25 20.75 15.5858 20.75 16V20C20.75 20.4142 20.4142 20.75 20 20.75H4C3.58579 20.75 3.25 20.4142 3.25 20V16ZM4.75 16.75V19.25H19.25V16.75H4.75Z" fill="black"/>
</g>
</g>
</g>
<defs>
<clipPath id="clip0_232_11641">
<rect width="24" height="24" rx="5" fill="white"/>
</clipPath>
</defs>
</svg>
