<svg width="24" height="24" viewBox="0 0 24 24" fill="none" xmlns="http://www.w3.org/2000/svg">
<g id="spock-hand-gesture">
<g clip-path="url(#clip0_232_8465)">
<g id="Weight=Dynamic">
<path id="Vector (Stroke)" fill-rule="evenodd" clip-rule="evenodd" d="M11.1261 4.02612C11.0256 3.6443 10.6508 3.40187 10.2614 3.46678C9.81764 3.54074 9.53345 3.98007 9.64794 4.41511L11.7253 12.3091C11.8307 12.7097 11.5915 13.1199 11.1909 13.2253C10.7903 13.3307 10.3801 13.0914 10.2747 12.6909L8.47395 5.84802L8.33297 5.87151C7.59686 5.9942 7.13155 6.73036 7.33657 7.44791L8.69806 12.2132L7.97692 12.4192L8.69807 12.2132C8.73252 12.3338 8.75001 12.4586 8.75001 12.584V16C8.75001 16.3125 8.55629 16.5922 8.2638 16.7021C7.97131 16.812 7.64133 16.729 7.43557 16.4939L5.18083 13.917C4.83942 13.5268 4.22822 13.5403 3.90434 13.9452C3.6545 14.2575 3.66206 14.7033 3.92233 15.0069L8.47081 20.3135C8.70831 20.5906 9.05492 20.75 9.41979 20.75H16C17.9379 20.75 19.25 19.1354 19.25 17.5V12.566C19.25 12.4678 19.2607 12.3694 19.2822 12.273L19.8101 9.89706C19.9656 9.1975 19.5023 8.51072 18.7954 8.39291L18.593 8.35918L17.7354 12.6471C17.6542 13.0533 17.2591 13.3167 16.8529 13.2354C16.4467 13.1542 16.1833 12.7591 16.2646 12.3529L17.2622 7.36477L17.5077 5.89185C17.5791 5.46363 17.2898 5.05864 16.8616 4.98727C16.4394 4.91691 16.0386 5.19715 15.9597 5.61776L14.7372 12.1382C14.6725 12.483 14.3775 12.7369 14.027 12.7495C13.6764 12.7621 13.364 12.5301 13.2747 12.1909L11.1261 4.02612ZM18.8631 6.8835L19.042 6.91332C20.5971 7.17251 21.6164 8.68342 21.2744 10.2225L20.75 12.5823V17.5C20.75 19.8646 18.8621 22.25 16 22.25H9.41979C8.61697 22.25 7.85435 21.8992 7.33192 21.2897L2.78344 15.9831C2.05418 15.1323 2.03302 13.8831 2.73303 13.0081C3.64054 11.8737 5.35307 11.836 6.3097 12.9293L7.25001 14.0039V12.605L5.89428 7.85999C5.44325 6.28139 6.46694 4.66183 8.08637 4.39192L8.12822 4.38495C8.04329 3.24235 8.84045 2.18291 10.0148 1.98719C11.1686 1.79488 12.279 2.51314 12.5767 3.64438L13.8771 8.58587L14.4854 5.34133C14.7148 4.11809 15.8805 3.30307 17.1082 3.50768C18.3535 3.71524 19.1948 4.89307 18.9873 6.13845L18.8631 6.8835Z" fill="black"/>
</g>
</g>
</g>
<defs>
<clipPath id="clip0_232_8465">
<rect width="24" height="24" rx="5" fill="white"/>
</clipPath>
</defs>
</svg>
