<svg width="24" height="24" viewBox="0 0 24 24" fill="none" xmlns="http://www.w3.org/2000/svg">
<g id="spotify">
<g clip-path="url(#clip0_232_10252)">
<g id="Weight=Dynamic">
<path id="Vector (Stroke)" fill-rule="evenodd" clip-rule="evenodd" d="M1.25 12C1.25 6.06294 6.06294 1.25 12 1.25C17.9371 1.25 22.75 6.06294 22.75 12C22.75 17.9371 17.9371 22.75 12 22.75C6.06294 22.75 1.25 17.9371 1.25 12ZM12 2.75C6.89137 2.75 2.75 6.89137 2.75 12C2.75 17.1086 6.89137 21.25 12 21.25C17.1086 21.25 21.25 17.1086 21.25 12C21.25 6.89137 17.1086 2.75 12 2.75ZM18.6141 11.6431C13.8487 8.78389 9.07269 9.24822 6.1233 9.73977C5.71472 9.80786 5.3283 9.53185 5.2602 9.12327C5.19211 8.71469 5.46813 8.32827 5.8767 8.26018C8.92731 7.75176 14.1513 7.21611 19.3859 10.3568C19.7411 10.5699 19.8562 11.0306 19.6431 11.3858C19.43 11.741 18.9693 11.8562 18.6141 11.6431ZM6.3181 11.2724C5.91625 11.3729 5.67193 11.7801 5.77239 12.1819C5.87282 12.5836 6.27978 12.8279 6.6815 12.7277M7 15L6.8373 14.2679C6.43295 14.3577 6.178 14.7583 6.26786 15.1627C6.35768 15.5669 6.75808 15.8218 7.16229 15.7322L7.16834 15.7309L7.19923 15.7246C7.22806 15.7188 7.27316 15.7101 7.33342 15.6994C7.454 15.6779 7.63506 15.6486 7.86792 15.619C8.33406 15.5598 9.00526 15.5 9.8125 15.5C11.4316 15.5 13.5699 15.7407 15.6954 16.6854C16.0739 16.8536 16.5171 16.6831 16.6854 16.3046C16.8536 15.9261 16.6831 15.4829 16.3046 15.3146C13.9301 14.2593 11.5684 14 9.8125 14C8.93224 14 8.19719 14.0652 7.67896 14.131C7.41963 14.1639 7.21397 14.1971 7.07087 14.2225C6.99931 14.2352 6.94333 14.246 6.90404 14.2539L6.85776 14.2634L6.84425 14.2663L6.83995 14.2673L6.83842 14.2676C6.83816 14.2677 6.8373 14.2679 7 15Z" fill="black"/>
</g>
</g>
</g>
<defs>
<clipPath id="clip0_232_10252">
<rect width="24" height="24" rx="5" fill="white"/>
</clipPath>
</defs>
</svg>
