<svg width="24" height="24" viewBox="0 0 24 24" fill="none" xmlns="http://www.w3.org/2000/svg">
<g id="square-wave">
<g clip-path="url(#clip0_232_13770)">
<g id="Weight=Dynamic">
<path id="Vector (Stroke)" fill-rule="evenodd" clip-rule="evenodd" d="M5.25 4C5.25 3.58579 5.58579 3.25 6 3.25H12C12.4142 3.25 12.75 3.58579 12.75 4V19.25H17.25V12C17.25 11.5858 17.5858 11.25 18 11.25H21C21.4142 11.25 21.75 11.5858 21.75 12C21.75 12.4142 21.4142 12.75 21 12.75H18.75V20C18.75 20.4142 18.4142 20.75 18 20.75H12C11.5858 20.75 11.25 20.4142 11.25 20V4.75H6.75V12C6.75 12.4142 6.41421 12.75 6 12.75H3C2.58579 12.75 2.25 12.4142 2.25 12C2.25 11.5858 2.58579 11.25 3 11.25H5.25V4ZM7.75 12C7.75 11.5858 8.08579 11.25 8.5 11.25H9.5C9.91421 11.25 10.25 11.5858 10.25 12C10.25 12.4142 9.91421 12.75 9.5 12.75H8.5C8.08579 12.75 7.75 12.4142 7.75 12ZM13.75 12C13.75 11.5858 14.0858 11.25 14.5 11.25H15.5C15.9142 11.25 16.25 11.5858 16.25 12C16.25 12.4142 15.9142 12.75 15.5 12.75H14.5C14.0858 12.75 13.75 12.4142 13.75 12Z" fill="black"/>
</g>
</g>
</g>
<defs>
<clipPath id="clip0_232_13770">
<rect width="24" height="24" rx="5" fill="white"/>
</clipPath>
</defs>
</svg>
