<svg width="24" height="24" viewBox="0 0 24 24" fill="none" xmlns="http://www.w3.org/2000/svg">
<g id="stackoverflow">
<g clip-path="url(#clip0_232_14089)">
<g id="Weight=Dynamic">
<path id="Vector (Stroke)" fill-rule="evenodd" clip-rule="evenodd" d="M14.6467 1.90899C14.9731 1.65398 15.4444 1.71185 15.6994 2.03826L20.6247 8.34234C20.8797 8.66875 20.8218 9.14008 20.4954 9.3951C20.169 9.65011 19.6977 9.59224 19.4427 9.26584L14.5174 2.96175C14.2624 2.63534 14.3202 2.16401 14.6467 1.90899ZM11.4704 5.01791C11.7366 4.70061 12.2097 4.65922 12.527 4.92547L18.6554 10.0678C18.9727 10.334 19.0141 10.8071 18.7478 11.1244C18.4816 11.4417 18.0085 11.4831 17.6912 11.2168L11.5628 6.07454C11.2455 5.80828 11.2041 5.33522 11.4704 5.01791ZM8.78218 8.68304C8.95724 8.30763 9.40347 8.14522 9.77888 8.32027L17.0293 11.7012C17.4047 11.8763 17.5672 12.3225 17.3921 12.6979C17.2171 13.0733 16.7708 13.2357 16.3954 13.0607L9.14495 9.67973C8.76955 9.50468 8.60713 9.05844 8.78218 8.68304ZM7.35428 12.8441C7.4404 12.4389 7.83866 12.1803 8.24382 12.2664L16.069 13.9297C16.4742 14.0158 16.7328 14.4141 16.6467 14.8192C16.5606 15.2244 16.1623 15.483 15.7571 15.3969L7.93196 13.7336C7.52679 13.6475 7.26816 13.2492 7.35428 12.8441ZM5 14.25C5.41421 14.25 5.75 14.5858 5.75 15V20.25H18.25V15C18.25 14.5858 18.5858 14.25 19 14.25C19.4142 14.25 19.75 14.5858 19.75 15V21C19.75 21.4142 19.4142 21.75 19 21.75H5C4.58579 21.75 4.25 21.4142 4.25 21V15C4.25 14.5858 4.58579 14.25 5 14.25ZM7.25 17C7.25 16.5858 7.58579 16.25 8 16.25H16C16.4142 16.25 16.75 16.5858 16.75 17C16.75 17.4142 16.4142 17.75 16 17.75H8C7.58579 17.75 7.25 17.4142 7.25 17Z" fill="black"/>
</g>
</g>
</g>
<defs>
<clipPath id="clip0_232_14089">
<rect width="24" height="24" rx="5" fill="white"/>
</clipPath>
</defs>
</svg>
