<svg width="24" height="24" viewBox="0 0 24 24" fill="none" xmlns="http://www.w3.org/2000/svg">
<g id="star">
<g clip-path="url(#clip0_232_11383)">
<g id="Weight=Dynamic">
<path id="Path (Stroke)" fill-rule="evenodd" clip-rule="evenodd" d="M11.9141 3.27202C11.8946 3.28355 11.874 3.30194 11.8565 3.33726L9.259 8.56947C9.14951 8.79001 8.93875 8.94276 8.69509 8.97817L2.88624 9.82237C2.75112 9.84201 2.70954 9.99811 2.79736 10.0832L6.99986 14.153C7.17799 14.3255 7.25934 14.5749 7.21719 14.8193L6.22539 20.5689C6.21878 20.6072 6.22453 20.6329 6.23292 20.6523C6.24258 20.6746 6.26049 20.6982 6.28712 20.7174C6.31375 20.7367 6.34285 20.747 6.36922 20.7494C6.39255 20.7516 6.4213 20.7486 6.4578 20.7295L11.6523 18.0134C11.87 17.8995 12.1297 17.8995 12.3474 18.0134L17.5419 20.7295C17.5784 20.7486 17.6072 20.7516 17.6305 20.7494C17.6569 20.747 17.686 20.7367 17.7126 20.7174C17.7392 20.6982 17.7571 20.6746 17.7668 20.6523C17.7752 20.6329 17.7809 20.6072 17.7743 20.5689L16.7825 14.8193C16.7404 14.5749 16.8217 14.3255 16.9998 14.153L21.2023 10.0832C21.2902 9.99811 21.2486 9.84201 21.1135 9.82237L15.3046 8.97817C15.061 8.94276 14.8502 8.79001 14.7407 8.56947L12.1432 3.33726C12.1256 3.30194 12.1051 3.28355 12.0856 3.27202C12.0633 3.25889 12.0336 3.25 11.9998 3.25C11.9661 3.25 11.9364 3.25889 11.9141 3.27202ZM10.513 2.67026C11.1221 1.44325 12.8776 1.44325 13.4867 2.67026L15.9094 7.55031L21.3292 8.33797C22.6847 8.53496 23.2372 10.2006 22.2459 11.1607L18.328 14.9548L19.2525 20.3139C19.4871 21.6742 18.0554 22.6907 16.8469 22.0587L11.9998 19.5243L7.15284 22.0587C5.94427 22.6907 4.51258 21.6742 4.74722 20.3139L5.67165 14.9548L1.75384 11.1607C0.762503 10.2006 1.31501 8.53496 2.67051 8.33797L8.09028 7.55031L10.513 2.67026Z" fill="black"/>
</g>
</g>
</g>
<defs>
<clipPath id="clip0_232_11383">
<rect width="24" height="24" rx="5" fill="white"/>
</clipPath>
</defs>
</svg>
