<svg width="24" height="24" viewBox="0 0 24 24" fill="none" xmlns="http://www.w3.org/2000/svg">
<g id="star-dashed">
<g clip-path="url(#clip0_232_11521)">
<g id="Weight=Dynamic">
<path id="Vector (Stroke)" fill-rule="evenodd" clip-rule="evenodd" d="M11.9142 3.27202C11.8947 3.28355 11.8741 3.30194 11.8566 3.33726L11.3611 4.33538C11.1769 4.70639 10.7268 4.85784 10.3558 4.67365C9.98479 4.48946 9.83334 4.03939 10.0175 3.66838L10.513 2.67026C11.1222 1.44325 12.8777 1.44325 13.4868 2.67026L14.4778 4.6665C14.662 5.03751 14.5106 5.48759 14.1396 5.67177C13.7686 5.85596 13.3185 5.70451 13.1343 5.3335L12.1433 3.33726C12.1257 3.30194 12.1052 3.28355 12.0856 3.27202C12.0634 3.25889 12.0337 3.25 11.9999 3.25C11.9662 3.25 11.9365 3.25889 11.9142 3.27202ZM9.72397 5.94615C10.095 6.13033 10.2464 6.58041 10.0622 6.95142L9.259 8.56941C9.14951 8.78994 8.93875 8.9427 8.69509 8.97811L7.10771 9.2088C6.69781 9.26837 6.31722 8.98437 6.25765 8.57446C6.19808 8.16455 6.48208 7.78397 6.89199 7.72439L8.09028 7.55025L8.7187 6.28442C8.90288 5.91341 9.35296 5.76196 9.72397 5.94615ZM14.6771 6.75523C15.0481 6.57104 15.4982 6.72249 15.6824 7.0935L15.9092 7.55034L16.9723 7.70484C17.3822 7.76441 17.6662 8.145 17.6066 8.55491C17.5471 8.96482 17.1665 9.24882 16.7566 9.18925L15.3043 8.9782C15.0607 8.94279 14.8499 8.79003 14.7404 8.56949L14.3388 7.7605C14.1546 7.38949 14.3061 6.93942 14.6771 6.75523ZM19.0272 8.76128C19.0868 8.35137 19.4673 8.06737 19.8772 8.12694L21.3295 8.33799C22.6849 8.53498 23.2375 10.2007 22.2461 11.1607L21.1955 12.1782C20.8979 12.4663 20.4231 12.4587 20.135 12.1612C19.8468 11.8636 19.8544 11.3888 20.152 11.1006L21.2026 10.0832C21.2904 9.99814 21.2488 9.84203 21.1137 9.82239L19.6615 9.61134C19.2516 9.55177 18.9676 9.17118 19.0272 8.76128ZM4.63131 8.81084C4.69089 9.22074 4.40688 9.60133 3.99697 9.6609L2.88624 9.82233C2.75113 9.84196 2.70954 9.99807 2.79736 10.0831L4.22036 11.4612C4.51791 11.7493 4.52552 12.2242 4.23737 12.5217C3.94921 12.8193 3.47439 12.8269 3.17684 12.5387L1.75384 11.1606C0.762503 10.2006 1.31501 8.53491 2.67051 8.33792L3.78125 8.1765C4.19115 8.11693 4.57174 8.40093 4.63131 8.81084ZM19.1107 13.1526C19.3989 13.4501 19.3913 13.9249 19.0937 14.2131L18.3278 14.9548L18.5084 16.0017C18.5788 16.4099 18.305 16.7979 17.8968 16.8683C17.4886 16.9387 17.1006 16.6649 17.0302 16.2567L16.7822 14.8193C16.7401 14.5749 16.8214 14.3255 16.9996 14.153L18.0502 13.1356C18.3478 12.8474 18.8226 12.855 19.1107 13.1526ZM5.24429 13.497C5.53245 13.1995 6.00726 13.1919 6.30481 13.48L6.99969 14.153C7.17781 14.3255 7.25916 14.5749 7.21701 14.8192L6.99135 16.1275C6.92094 16.5357 6.53296 16.8095 6.12477 16.7391C5.71659 16.6686 5.44277 16.2807 5.51318 15.8725L5.67148 14.9548L5.26129 14.5576C4.96374 14.2694 4.95613 13.7946 5.24429 13.497ZM11.6521 18.0134C11.8698 17.8995 12.1295 17.8995 12.3472 18.0134L13.6458 18.6924C14.0129 18.8843 14.1549 19.3375 13.9629 19.7045C13.771 20.0716 13.3178 20.2136 12.9508 20.0216L11.9997 19.5243L10.7751 20.1646C10.408 20.3566 9.95489 20.2146 9.76296 19.8475C9.57103 19.4805 9.713 19.0273 10.0801 18.8354L11.6521 18.0134ZM18.1376 18.2648C18.5457 18.1944 18.9337 18.4682 19.0041 18.8764L19.2521 20.3138C19.4867 21.6741 18.055 22.6906 16.8465 22.0587L15.5478 21.3796C15.1808 21.1877 15.0388 20.7345 15.2307 20.3675C15.4227 20.0004 15.8758 19.8584 16.2429 20.0504L17.5415 20.7294C17.578 20.7485 17.6068 20.7515 17.6301 20.7493C17.6565 20.7469 17.6856 20.7366 17.7122 20.7173C17.7388 20.6981 17.7567 20.6745 17.7664 20.6522C17.7748 20.6329 17.7805 20.6071 17.7739 20.5688L17.526 19.1314C17.4556 18.7232 17.7294 18.3352 18.1376 18.2648ZM5.79879 18.6298C6.20697 18.7002 6.48079 19.0882 6.41038 19.4964L6.22538 20.5688C6.21877 20.6072 6.22452 20.6329 6.23291 20.6522C6.24258 20.6745 6.26048 20.6981 6.28711 20.7174C6.31374 20.7366 6.34284 20.7469 6.36921 20.7494C6.39254 20.7515 6.42129 20.7485 6.45779 20.7294L7.30506 20.2864C7.67212 20.0945 8.12527 20.2365 8.3172 20.6035C8.50914 20.9706 8.36716 21.4237 8.0001 21.6157L7.15284 22.0587C5.94426 22.6906 4.51257 21.6741 4.74721 20.3139L4.93221 19.2414C5.00262 18.8332 5.3906 18.5594 5.79879 18.6298Z" fill="black"/>
</g>
</g>
</g>
<defs>
<clipPath id="clip0_232_11521">
<rect width="24" height="24" rx="5" fill="white"/>
</clipPath>
</defs>
</svg>
