<svg width="24" height="24" viewBox="0 0 24 24" fill="none" xmlns="http://www.w3.org/2000/svg">
<g id="star-half-dashed">
<g clip-path="url(#clip0_232_11545)">
<g id="Weight=Dynamic">
<path id="Vector (Stroke)" fill-rule="evenodd" clip-rule="evenodd" d="M11.9998 1.75C11.4087 1.75003 10.8176 2.05678 10.513 2.67026L10.0175 3.66838C9.83334 4.03939 9.98479 4.48946 10.3558 4.67365C10.6656 4.82747 11.0306 4.74721 11.2498 4.50047L11.2497 18.2238L10.0801 18.8354C9.713 19.0273 9.57103 19.4805 9.76296 19.8475C9.95489 20.2146 10.408 20.3566 10.7751 20.1646L11.9997 19.5243L16.8469 22.0588C18.0554 22.6907 19.4871 21.6742 19.2525 20.3139L18.328 14.9548L22.2459 11.1607C23.2372 10.2006 22.6847 8.53496 21.3292 8.33797L15.9094 7.55031L13.4868 2.67027L13.4868 2.67026C13.1822 2.05673 12.591 1.74997 11.9998 1.75ZM12.7498 4.5591L14.7407 8.56946C14.8502 8.79001 15.0609 8.94276 15.3046 8.97817L21.1135 9.82237C21.2486 9.84201 21.2902 9.99811 21.2023 10.0832L16.9998 14.153C16.8217 14.3255 16.7404 14.5749 16.7825 14.8193L17.7743 20.5689C17.7809 20.6072 17.7752 20.6329 17.7668 20.6523C17.7571 20.6746 17.7392 20.6982 17.7126 20.7174C17.686 20.7367 17.6569 20.747 17.6305 20.7494C17.6072 20.7516 17.5784 20.7486 17.5419 20.7295L17.1944 21.3941L17.5419 20.7295L12.7497 18.2238L12.7498 4.5591ZM9.72397 5.94615C10.095 6.13033 10.2464 6.58041 10.0622 6.95142L9.259 8.56941C9.14951 8.78994 8.93875 8.9427 8.69509 8.97811L7.10771 9.2088C6.69781 9.26837 6.31722 8.98437 6.25765 8.57446C6.19808 8.16455 6.48208 7.78397 6.89199 7.72439L8.09028 7.55025L8.7187 6.28442C8.90288 5.91341 9.35296 5.76196 9.72397 5.94615ZM4.63131 8.81084C4.69089 9.22074 4.40688 9.60133 3.99697 9.6609L2.88624 9.82233C2.75112 9.84196 2.70954 9.99807 2.79736 10.0831L4.22036 11.4612C4.51791 11.7493 4.52552 12.2242 4.23737 12.5217C3.94921 12.8193 3.47439 12.8269 3.17684 12.5387L1.75384 11.1606C0.762503 10.2006 1.31501 8.53491 2.67051 8.33792L3.78125 8.1765C4.19115 8.11693 4.57174 8.40093 4.63131 8.81084ZM5.24429 13.497C5.53245 13.1995 6.00726 13.1919 6.30481 13.48L6.99969 14.153C7.17781 14.3255 7.25916 14.5749 7.21701 14.8192L6.99135 16.1275C6.92094 16.5357 6.53296 16.8095 6.12477 16.7391C5.71659 16.6686 5.44277 16.2807 5.51318 15.8725L5.67148 14.9548L5.26129 14.5576C4.96374 14.2694 4.95613 13.7946 5.24429 13.497ZM5.79879 18.6298C6.20697 18.7002 6.48079 19.0882 6.41038 19.4964L6.22538 20.5688C6.21877 20.6072 6.22452 20.6329 6.23291 20.6522C6.24258 20.6745 6.26048 20.6981 6.28711 20.7174C6.31374 20.7366 6.34284 20.7469 6.36921 20.7494C6.39254 20.7515 6.42129 20.7485 6.45779 20.7294L7.30506 20.2864C7.67212 20.0945 8.12527 20.2365 8.3172 20.6035C8.50914 20.9706 8.36716 21.4237 8.0001 21.6157L7.15284 22.0587C5.94426 22.6906 4.51257 21.6741 4.74721 20.3139L4.93221 19.2414C5.00262 18.8332 5.3906 18.5594 5.79879 18.6298Z" fill="black"/>
</g>
</g>
</g>
<defs>
<clipPath id="clip0_232_11545">
<rect width="24" height="24" rx="5" fill="white"/>
</clipPath>
</defs>
</svg>
