<svg width="24" height="24" viewBox="0 0 24 24" fill="none" xmlns="http://www.w3.org/2000/svg">
<g id="stat-up">
<g clip-path="url(#clip0_232_2364)">
<g id="Weight=Dynamic">
<path id="Vector (Stroke)" fill-rule="evenodd" clip-rule="evenodd" d="M20.5303 3.46967C20.8232 3.76256 20.8232 4.23744 20.5303 4.53033L15.5303 9.53033C15.2374 9.82322 14.7626 9.82322 14.4697 9.53033L12 7.06066L4.53033 14.5303C4.23744 14.8232 3.76256 14.8232 3.46967 14.5303C3.17678 14.2374 3.17678 13.7626 3.46967 13.4697L11.4697 5.46967C11.7626 5.17678 12.2374 5.17678 12.5303 5.46967L15 7.93934L19.4697 3.46967C19.7626 3.17678 20.2374 3.17678 20.5303 3.46967ZM15.4697 11.4697C15.7626 11.1768 16.2374 11.1768 16.5303 11.4697L19.5303 14.4697C19.8232 14.7626 19.8232 15.2374 19.5303 15.5303C19.2374 15.8232 18.7626 15.8232 18.4697 15.5303L16.75 13.8107V20C16.75 20.4142 16.4142 20.75 16 20.75C15.5858 20.75 15.25 20.4142 15.25 20V13.8107L13.5303 15.5303C13.2374 15.8232 12.7626 15.8232 12.4697 15.5303C12.1768 15.2374 12.1768 14.7626 12.4697 14.4697L15.4697 11.4697Z" fill="black"/>
</g>
</g>
</g>
<defs>
<clipPath id="clip0_232_2364">
<rect width="24" height="24" rx="5" fill="white"/>
</clipPath>
</defs>
</svg>
