<svg width="24" height="24" viewBox="0 0 24 24" fill="none" xmlns="http://www.w3.org/2000/svg">
<g id="stats-report">
<g clip-path="url(#clip0_232_2380)">
<g id="Weight=Dynamic">
<path id="Vector (Stroke)" fill-rule="evenodd" clip-rule="evenodd" d="M3.75 3.75V20.25H20.25V3.75H3.75ZM2.25 3.6C2.25 2.85441 2.85442 2.25 3.6 2.25H20.4C21.1456 2.25 21.75 2.85442 21.75 3.6V20.4C21.75 21.1456 21.1456 21.75 20.4 21.75H3.6C2.85442 21.75 2.25 21.1456 2.25 20.4V3.6ZM6 5.25H9V6.75H6V5.25ZM12.25 8.5C12.25 6.70507 13.7051 5.25 15.5 5.25C17.2949 5.25 18.75 6.70507 18.75 8.5C18.75 10.2949 17.2949 11.75 15.5 11.75C13.7051 11.75 12.25 10.2949 12.25 8.5ZM15.5 6.75C14.5335 6.75 13.75 7.5335 13.75 8.5C13.75 9.4665 14.5335 10.25 15.5 10.25C16.4665 10.25 17.25 9.4665 17.25 8.5C17.25 7.5335 16.4665 6.75 15.5 6.75ZM10 9.75H6V8.25H10V9.75ZM5.41435 12.5315C5.67311 12.208 6.14507 12.1556 6.46852 12.4143L11 16.0395L13.0315 14.4143C13.2865 14.2103 13.6443 14.1948 13.916 14.376L18.416 17.376C18.7607 17.6057 18.8538 18.0714 18.624 18.416C18.3943 18.7607 17.9286 18.8538 17.584 18.624L13.5403 15.9282L11.4685 17.5857C11.1946 17.8048 10.8054 17.8048 10.5315 17.5857L5.53148 13.5857C5.20803 13.3269 5.15559 12.8549 5.41435 12.5315Z" fill="black"/>
</g>
</g>
</g>
<defs>
<clipPath id="clip0_232_2380">
<rect width="24" height="24" rx="5" fill="white"/>
</clipPath>
</defs>
</svg>
