<svg width="24" height="24" viewBox="0 0 24 24" fill="none" xmlns="http://www.w3.org/2000/svg">
<g id="stat-down">
<g clip-path="url(#clip0_232_2372)">
<g id="Weight=Dynamic">
<path id="Vector (Stroke)" fill-rule="evenodd" clip-rule="evenodd" d="M16 3.25C16.4142 3.25 16.75 3.58579 16.75 4V10.1893L18.4697 8.46967C18.7626 8.17678 19.2374 8.17678 19.5303 8.46967C19.8232 8.76256 19.8232 9.23744 19.5303 9.53033L16.5303 12.5303C16.2374 12.8232 15.7626 12.8232 15.4697 12.5303L12.4697 9.53033C12.1768 9.23744 12.1768 8.76256 12.4697 8.46967C12.7626 8.17678 13.2374 8.17678 13.5303 8.46967L15.25 10.1893V4C15.25 3.58579 15.5858 3.25 16 3.25ZM3.46967 9.46967C3.76256 9.17678 4.23744 9.17678 4.53033 9.46967L12 16.9393L14.4697 14.4697C14.7626 14.1768 15.2374 14.1768 15.5303 14.4697L20.5303 19.4697C20.8232 19.7626 20.8232 20.2374 20.5303 20.5303C20.2374 20.8232 19.7626 20.8232 19.4697 20.5303L15 16.0607L12.5303 18.5303C12.2374 18.8232 11.7626 18.8232 11.4697 18.5303L3.46967 10.5303C3.17678 10.2374 3.17678 9.76256 3.46967 9.46967Z" fill="black"/>
</g>
</g>
</g>
<defs>
<clipPath id="clip0_232_2372">
<rect width="24" height="24" rx="5" fill="white"/>
</clipPath>
</defs>
</svg>
