<svg width="24" height="24" viewBox="0 0 24 24" fill="none" xmlns="http://www.w3.org/2000/svg">
<g id="strategy">
<g clip-path="url(#clip0_232_17583)">
<g id="Weight=Dynamic">
<path id="Vector (Stroke)" fill-rule="evenodd" clip-rule="evenodd" d="M5 3.75C4.30964 3.75 3.75 4.30964 3.75 5C3.75 5.69036 4.30964 6.25 5 6.25C5.69036 6.25 6.25 5.69036 6.25 5C6.25 4.30964 5.69036 3.75 5 3.75ZM2.25 5C2.25 3.48122 3.48122 2.25 5 2.25C6.51878 2.25 7.75 3.48122 7.75 5C7.75 6.51878 6.51878 7.75 5 7.75C3.48122 7.75 2.25 6.51878 2.25 5ZM15.2288 3.4925C15.4038 3.1171 15.85 2.95468 16.2255 3.12974L20.7114 5.22159C21.0869 5.39665 21.2493 5.84288 21.0742 6.21829L18.9824 10.7043C18.8073 11.0797 18.3611 11.2421 17.9857 11.067C17.6103 10.892 17.4478 10.4458 17.6229 10.0704L19.0518 7.00602C15.4009 7.9496 12.6699 9.12167 10.7029 10.9824C8.56299 13.0066 7.23436 15.9379 6.74588 20.5785C6.70252 20.9905 6.33342 21.2892 5.92149 21.2459C5.50955 21.2025 5.21076 20.8334 5.25412 20.4215C5.76564 15.5621 7.18701 12.2434 9.6721 9.89265C11.8061 7.87396 14.6548 6.63842 18.1644 5.68897L15.5915 4.4892C15.2161 4.31415 15.0537 3.86791 15.2288 3.4925ZM15.4697 15.4697C15.7626 15.1768 16.2374 15.1768 16.5303 15.4697L18.1213 17.0607L19.7123 15.4697C20.0052 15.1768 20.4801 15.1768 20.773 15.4697C21.0659 15.7626 21.0659 16.2374 20.773 16.5303L19.182 18.1213L20.773 19.7123C21.0659 20.0052 21.0659 20.4801 20.773 20.773C20.4801 21.0659 20.0052 21.0659 19.7123 20.773L18.1213 19.182L16.5303 20.773C16.2374 21.0659 15.7626 21.0659 15.4697 20.773C15.1768 20.4801 15.1768 20.0052 15.4697 19.7123L17.0607 18.1213L15.4697 16.5303C15.1768 16.2374 15.1768 15.7626 15.4697 15.4697Z" fill="black"/>
</g>
</g>
</g>
<defs>
<clipPath id="clip0_232_17583">
<rect width="24" height="24" rx="5" fill="white"/>
</clipPath>
</defs>
</svg>
