<svg width="24" height="24" viewBox="0 0 24 24" fill="none" xmlns="http://www.w3.org/2000/svg">
<g id="stretching">
<g clip-path="url(#clip0_232_1796)">
<g id="Weight=Dynamic">
<path id="Vector (Stroke)" fill-rule="evenodd" clip-rule="evenodd" d="M16.0001 3.75C15.3097 3.75 14.7501 4.30964 14.7501 5C14.7501 5.69036 15.3097 6.25 16.0001 6.25C16.6904 6.25 17.2501 5.69036 17.2501 5C17.2501 4.30964 16.6904 3.75 16.0001 3.75ZM13.2501 5C13.2501 3.48122 14.4813 2.25 16.0001 2.25C17.5188 2.25 18.7501 3.48122 18.7501 5C18.7501 6.51878 17.5188 7.75 16.0001 7.75C14.4813 7.75 13.2501 6.51878 13.2501 5ZM14.2564 8.46837C14.4361 8.6472 14.5133 8.90471 14.4616 9.15292L13.3707 14.391C13.3566 14.4584 13.3334 14.5234 13.3017 14.5845L10.5744 19.8226C10.4584 20.0454 10.2385 20.1953 9.98873 20.222L5.07964 20.7458C4.66776 20.7897 4.29824 20.4914 4.2543 20.0796C4.21035 19.6677 4.50861 19.2982 4.92049 19.2542L9.42966 18.7731L11.9233 13.9837L12.7585 9.97365L10.1473 10.5309L11.0457 11.6812C11.3007 12.0077 11.2427 12.479 10.9162 12.7339C10.5898 12.9889 10.1185 12.9309 9.86351 12.6045L8.22715 10.5093C8.06805 10.3055 8.02506 10.0342 8.11339 9.79133C8.20173 9.5484 8.40892 9.36808 8.66172 9.31413L13.5708 8.26652C13.8188 8.2136 14.0766 8.28954 14.2564 8.46837ZM14.0682 15.2856C14.0682 14.8714 14.404 14.5356 14.8182 14.5356H17C17.4142 14.5356 17.75 14.8714 17.75 15.2856V19.9999C17.75 20.4141 17.4142 20.7499 17 20.7499C16.5858 20.7499 16.25 20.4141 16.25 19.9999V16.0356H14.8182C14.404 16.0356 14.0682 15.6999 14.0682 15.2856Z" fill="black"/>
</g>
</g>
</g>
<defs>
<clipPath id="clip0_232_1796">
<rect width="24" height="24" rx="5" fill="white"/>
</clipPath>
</defs>
</svg>
