<svg width="24" height="24" viewBox="0 0 24 24" fill="none" xmlns="http://www.w3.org/2000/svg">
<g id="strikethrough">
<g clip-path="url(#clip0_232_6743)">
<g id="Weight=Dynamic">
<path id="Vector (Stroke)" fill-rule="evenodd" clip-rule="evenodd" d="M10.068 3.75C8.23551 3.75 6.75 5.23551 6.75 7.06797C6.75 8.49613 7.66387 9.76405 9.01874 10.2157L12.1217 11.25H21C21.4142 11.25 21.75 11.5858 21.75 12C21.75 12.4142 21.4142 12.75 21 12.75H3C2.58579 12.75 2.25 12.4142 2.25 12C2.25 11.5858 2.58579 11.25 3 11.25H7.675C6.19612 10.4042 5.25 8.81904 5.25 7.06797C5.25 4.40708 7.40708 2.25 10.068 2.25H16.2857C16.6999 2.25 17.0357 2.58579 17.0357 3C17.0357 3.41421 16.6999 3.75 16.2857 3.75H10.068ZM17.1556 14.3401C17.5201 14.1433 17.9751 14.2792 18.1719 14.6436C18.5432 15.3311 18.75 16.1138 18.75 16.932C18.75 19.5929 16.5929 21.75 13.932 21.75H6C5.58579 21.75 5.25 21.4142 5.25 21C5.25 20.5858 5.58579 20.25 6 20.25H13.932C15.7645 20.25 17.25 18.7645 17.25 16.932C17.25 16.368 17.1077 15.8297 16.8521 15.3564C16.6553 14.9919 16.7912 14.5369 17.1556 14.3401Z" fill="black"/>
</g>
</g>
</g>
<defs>
<clipPath id="clip0_232_6743">
<rect width="24" height="24" rx="5" fill="white"/>
</clipPath>
</defs>
</svg>
