<svg width="24" height="24" viewBox="0 0 24 24" fill="none" xmlns="http://www.w3.org/2000/svg">
<g id="stroller">
<g clip-path="url(#clip0_232_8755)">
<g id="Weight=Dynamic">
<path id="Vector (Stroke)" fill-rule="evenodd" clip-rule="evenodd" d="M3.75396 11.25H10.75V3.78582C6.90329 4.15521 3.87797 7.33658 3.75396 11.25ZM12.25 11.25V3C12.25 2.58579 11.9142 2.25 11.5 2.25C6.39137 2.25 2.25 6.39137 2.25 11.5C2.25 13.2972 2.7633 14.9768 3.65162 16.3976C3.87122 16.7488 4.33395 16.8555 4.68516 16.6359C5.03638 16.4163 5.14308 15.9536 4.92348 15.6024C4.38982 14.7489 4.01773 13.7841 3.85017 12.75H19.1503C18.9827 13.7841 18.6106 14.7489 18.077 15.6024C17.8574 15.9536 17.9641 16.4163 18.3153 16.6359C18.6665 16.8555 19.1292 16.7488 19.3488 16.3976C20.2371 14.9768 20.7504 13.2972 20.7504 11.5V10.25H22.5004C22.9146 10.25 23.2504 9.91421 23.2504 9.5C23.2504 9.08579 22.9146 8.75 22.5004 8.75H20.0004C19.5862 8.75 19.2504 9.08579 19.2504 9.5V11.25H12.25ZM5.25 19C5.25 17.4812 6.48122 16.25 8 16.25C9.51878 16.25 10.75 17.4812 10.75 19C10.75 20.5188 9.51878 21.75 8 21.75C6.48122 21.75 5.25 20.5188 5.25 19ZM8 17.75C7.30964 17.75 6.75 18.3096 6.75 19C6.75 19.6904 7.30964 20.25 8 20.25C8.69036 20.25 9.25 19.6904 9.25 19C9.25 18.3096 8.69036 17.75 8 17.75ZM12.25 19C12.25 17.4812 13.4812 16.25 15 16.25C16.5188 16.25 17.75 17.4812 17.75 19C17.75 20.5188 16.5188 21.75 15 21.75C13.4812 21.75 12.25 20.5188 12.25 19ZM15 17.75C14.3096 17.75 13.75 18.3096 13.75 19C13.75 19.6904 14.3096 20.25 15 20.25C15.6904 20.25 16.25 19.6904 16.25 19C16.25 18.3096 15.6904 17.75 15 17.75Z" fill="black"/>
</g>
</g>
</g>
<defs>
<clipPath id="clip0_232_8755">
<rect width="24" height="24" rx="5" fill="white"/>
</clipPath>
</defs>
</svg>
