<svg width="24" height="24" viewBox="0 0 24 24" fill="none" xmlns="http://www.w3.org/2000/svg">
<g id="style-border">
<g clip-path="url(#clip0_232_4875)">
<g id="Weight=Dynamic">
<path id="Vector (Stroke)" fill-rule="evenodd" clip-rule="evenodd" d="M1.25037 8.00009C1.25037 4.27239 4.27227 1.25049 7.99997 1.25049H16C19.7277 1.25049 22.7496 4.27239 22.7496 8.00009V16.0001C22.7496 19.7278 19.7277 22.7497 16 22.7497H7.99997C4.27227 22.7497 1.25037 19.7278 1.25037 16.0001V8.00009ZM7.99997 2.74969C5.10025 2.74969 2.74957 5.10037 2.74957 8.00009V16.0001C2.74957 18.8998 5.10025 21.2505 7.99997 21.2505H16C18.8997 21.2505 21.2504 18.8998 21.2504 16.0001V8.00009C21.2504 5.10037 18.8997 2.74969 16 2.74969H7.99997ZM4.25037 8.00009C4.25037 5.92924 5.92912 4.25049 7.99997 4.25049H16C18.0708 4.25049 19.7496 5.92924 19.7496 8.00009V16.0001C19.7496 18.0709 18.0708 19.7497 16 19.7497H7.99997C5.92912 19.7497 4.25037 18.0709 4.25037 16.0001V8.00009ZM7.99997 5.74969C6.7571 5.74969 5.74957 6.75723 5.74957 8.00009V16.0001C5.74957 17.2429 6.7571 18.2505 7.99997 18.2505H16C17.2428 18.2505 18.2504 17.2429 18.2504 16.0001V8.00009C18.2504 6.75723 17.2428 5.74969 16 5.74969H7.99997Z" fill="black"/>
</g>
</g>
</g>
<defs>
<clipPath id="clip0_232_4875">
<rect width="24" height="24" rx="5" fill="white"/>
</clipPath>
</defs>
</svg>
