<svg width="24" height="24" viewBox="0 0 24 24" fill="none" xmlns="http://www.w3.org/2000/svg">
<g id="submit-document">
<g clip-path="url(#clip0_232_6205)">
<g id="Weight=Dynamic">
<path id="Vector (Stroke)" fill-rule="evenodd" clip-rule="evenodd" d="M4.75 2.75V21.25H14C14.4142 21.25 14.75 21.5858 14.75 22C14.75 22.4142 14.4142 22.75 14 22.75H4.6C3.85442 22.75 3.25 22.1456 3.25 21.4V2.6C3.25 1.85441 3.85442 1.25 4.6 1.25H16.2515C16.6095 1.25 16.9529 1.39223 17.2061 1.64541L20.3546 4.79393C20.6078 5.04711 20.75 5.39049 20.75 5.74853V13C20.75 13.4142 20.4142 13.75 20 13.75C19.5858 13.75 19.25 13.4142 19.25 13V6.75H16.6C15.8544 6.75 15.25 6.14559 15.25 5.4V2.75H4.75ZM16.75 3.31066L18.6893 5.25H16.75V3.31066ZM18.4697 15.4697C18.7626 15.1768 19.2374 15.1768 19.5303 15.4697L22.5303 18.4697C22.8232 18.7626 22.8232 19.2374 22.5303 19.5303L19.5303 22.5303C19.2374 22.8232 18.7626 22.8232 18.4697 22.5303C18.1768 22.2374 18.1768 21.7626 18.4697 21.4697L20.1893 19.75H16C15.5858 19.75 15.25 19.4142 15.25 19C15.25 18.5858 15.5858 18.25 16 18.25H20.1893L18.4697 16.5303C18.1768 16.2374 18.1768 15.7626 18.4697 15.4697Z" fill="black"/>
</g>
</g>
</g>
<defs>
<clipPath id="clip0_232_6205">
<rect width="24" height="24" rx="5" fill="white"/>
</clipPath>
</defs>
</svg>
