<svg width="24" height="24" viewBox="0 0 24 24" fill="none" xmlns="http://www.w3.org/2000/svg">
<g id="substract">
<g clip-path="url(#clip0_232_4670)">
<g id="Weight=Dynamic">
<path id="Vector (Stroke)" fill-rule="evenodd" clip-rule="evenodd" d="M2.25 3.6C2.25 2.85442 2.85442 2.25 3.6 2.25H14.4C15.1456 2.25 15.75 2.85442 15.75 3.6V8.25H16.5C16.9142 8.25 17.25 8.58579 17.25 9C17.25 9.41421 16.9142 9.75 16.5 9.75H15.75V14.4C15.75 15.1456 15.1456 15.75 14.4 15.75H9.75V16.5C9.75 16.9142 9.41421 17.25 9 17.25C8.58579 17.25 8.25 16.9142 8.25 16.5V15.75H3.6C2.85442 15.75 2.25 15.1456 2.25 14.4V3.6ZM9.75 14.25H14.25V9.75H9.75V14.25ZM14.25 8.25H9.6C8.85442 8.25 8.25 8.85442 8.25 9.6V14.25H3.75V3.75H14.25V8.25ZM18.75 9C18.75 8.58579 19.0858 8.25 19.5 8.25H20.4C21.1456 8.25 21.75 8.85441 21.75 9.6V10.5C21.75 10.9142 21.4142 11.25 21 11.25C20.5858 11.25 20.25 10.9142 20.25 10.5V9.75H19.5C19.0858 9.75 18.75 9.41421 18.75 9ZM21 12.75C21.4142 12.75 21.75 13.0858 21.75 13.5V16.5C21.75 16.9142 21.4142 17.25 21 17.25C20.5858 17.25 20.25 16.9142 20.25 16.5V13.5C20.25 13.0858 20.5858 12.75 21 12.75ZM9 18.75C9.41421 18.75 9.75 19.0858 9.75 19.5V20.25H10.5C10.9142 20.25 11.25 20.5858 11.25 21C11.25 21.4142 10.9142 21.75 10.5 21.75H9.6C8.85441 21.75 8.25 21.1456 8.25 20.4V19.5C8.25 19.0858 8.58579 18.75 9 18.75ZM21 18.75C21.4142 18.75 21.75 19.0858 21.75 19.5V20.4C21.75 21.1456 21.1456 21.75 20.4 21.75H19.5C19.0858 21.75 18.75 21.4142 18.75 21C18.75 20.5858 19.0858 20.25 19.5 20.25H20.25V19.5C20.25 19.0858 20.5858 18.75 21 18.75ZM12.75 21C12.75 20.5858 13.0858 20.25 13.5 20.25H16.5C16.9142 20.25 17.25 20.5858 17.25 21C17.25 21.4142 16.9142 21.75 16.5 21.75H13.5C13.0858 21.75 12.75 21.4142 12.75 21Z" fill="black"/>
</g>
</g>
</g>
<defs>
<clipPath id="clip0_232_4670">
<rect width="24" height="24" rx="5" fill="white"/>
</clipPath>
</defs>
</svg>
