<svg width="24" height="24" viewBox="0 0 24 24" fill="none" xmlns="http://www.w3.org/2000/svg">
<g id="suggestion">
<g clip-path="url(#clip0_232_10032)">
<g id="Weight=Dynamic">
<path id="Vector (Stroke)" fill-rule="evenodd" clip-rule="evenodd" d="M2.25 3.6C2.25 2.85442 2.85442 2.25 3.6 2.25H20.4C21.1456 2.25 21.75 2.85442 21.75 3.6V17.4C21.75 18.1456 21.1456 18.75 20.4 18.75H16.3241L12.9831 22.2998C12.45 22.8661 11.55 22.8661 11.0169 22.2998L7.67595 18.75H3.6C2.85441 18.75 2.25 18.1456 2.25 17.4V3.6ZM3.75 3.75V17.25H7.74076C8.11299 17.25 8.46871 17.4037 8.72383 17.6748L12 21.1557L15.2762 17.6748C15.5313 17.4037 15.887 17.25 16.2592 17.25H20.25V3.75H3.75ZM12 6.25C12.2728 6.25 12.524 6.39809 12.6561 6.63672L13.9772 9.02279L16.3633 10.3439C16.6019 10.476 16.75 10.7272 16.75 11C16.75 11.2728 16.6019 11.524 16.3633 11.6561L13.9772 12.9772L12.6561 15.3633C12.524 15.6019 12.2728 15.75 12 15.75C11.7272 15.75 11.476 15.6019 11.3439 15.3633L10.0228 12.9772L7.63672 11.6561C7.39809 11.524 7.25 11.2728 7.25 11C7.25 10.7272 7.39809 10.476 7.63672 10.3439L10.0228 9.02279L11.3439 6.63672C11.476 6.39809 11.7272 6.25 12 6.25ZM12 8.54839L11.2307 9.93785C11.1625 10.061 11.061 10.1625 10.9378 10.2307L9.54839 11L10.9378 11.7693C11.061 11.8375 11.1625 11.939 11.2307 12.0622L12 13.4516L12.7693 12.0622C12.8375 11.939 12.939 11.8375 13.0622 11.7693L14.4516 11L13.0622 10.2307C12.939 10.1625 12.8375 10.061 12.7693 9.93785L12 8.54839Z" fill="black"/>
</g>
</g>
</g>
<defs>
<clipPath id="clip0_232_10032">
<rect width="24" height="24" rx="5" fill="white"/>
</clipPath>
</defs>
</svg>
