<svg width="24" height="24" viewBox="0 0 24 24" fill="none" xmlns="http://www.w3.org/2000/svg">
<g id="suitcase">
<g clip-path="url(#clip0_232_2582)">
<g id="Weight=Dynamic">
<path id="Vector (Stroke)" fill-rule="evenodd" clip-rule="evenodd" d="M8.75 3.75V6.25H15.25V3.75H8.75ZM16.75 6.25V3.6C16.75 2.85442 16.1456 2.25 15.4 2.25H8.6C7.85442 2.25 7.25 2.85442 7.25 3.6V6.25H4C2.48122 6.25 1.25 7.48122 1.25 9V19C1.25 20.5188 2.48122 21.75 4 21.75H20C21.5188 21.75 22.75 20.5188 22.75 19V9C22.75 7.48122 21.5188 6.25 20 6.25H16.75ZM4 7.75C3.30964 7.75 2.75 8.30964 2.75 9V19C2.75 19.6904 3.30964 20.25 4 20.25H20C20.6904 20.25 21.25 19.6904 21.25 19V9C21.25 8.30964 20.6904 7.75 20 7.75H4Z" fill="black"/>
</g>
</g>
</g>
<defs>
<clipPath id="clip0_232_2582">
<rect width="24" height="24" rx="5" fill="white"/>
</clipPath>
</defs>
</svg>
