<svg width="24" height="24" viewBox="0 0 24 24" fill="none" xmlns="http://www.w3.org/2000/svg">
<g id="svg-format">
<g clip-path="url(#clip0_232_12564)">
<g id="Weight=Dynamic">
<path id="Vector (Stroke)" fill-rule="evenodd" clip-rule="evenodd" d="M3.25 3.6C3.25 2.85441 3.85442 2.25 4.6 2.25H19.4C20.1456 2.25 20.75 2.85442 20.75 3.6V6C20.75 6.41421 20.4142 6.75 20 6.75C19.5858 6.75 19.25 6.41421 19.25 6V3.75H4.75V6C4.75 6.41421 4.41421 6.75 4 6.75C3.58579 6.75 3.25 6.41421 3.25 6V3.6ZM10.3181 8.27239C10.7199 8.17193 11.1271 8.41625 11.2276 8.8181L12 11.9077L12.7724 8.8181C12.8729 8.41625 13.2801 8.17193 13.6819 8.27239C14.0837 8.37285 14.3281 8.78006 14.2276 9.1819L12.7276 15.1819C12.6441 15.5158 12.3442 15.75 12 15.75C11.6558 15.75 11.3559 15.5158 11.2724 15.1819L9.77239 9.1819C9.67193 8.78006 9.91625 8.37285 10.3181 8.27239ZM6 9.75C5.58579 9.75 5.25 10.0858 5.25 10.5C5.25 10.9142 5.58579 11.25 6 11.25H6.5C7.74264 11.25 8.75 12.2574 8.75 13.5C8.75 14.7426 7.74264 15.75 6.5 15.75H4.5C4.08579 15.75 3.75 15.4142 3.75 15C3.75 14.5858 4.08579 14.25 4.5 14.25H6.5C6.91421 14.25 7.25 13.9142 7.25 13.5C7.25 13.0858 6.91421 12.75 6.5 12.75H6C4.75736 12.75 3.75 11.7426 3.75 10.5C3.75 9.25736 4.75736 8.25 6 8.25H7.5C7.91421 8.25 8.25 8.58579 8.25 9C8.25 9.41421 7.91421 9.75 7.5 9.75H6ZM15.75 9C15.75 8.58579 16.0858 8.25 16.5 8.25H19.5C19.9142 8.25 20.25 8.58579 20.25 9C20.25 9.41421 19.9142 9.75 19.5 9.75H17.25V14.25H18.75V12.6C18.75 12.1858 19.0858 11.85 19.5 11.85C19.9142 11.85 20.25 12.1858 20.25 12.6V15C20.25 15.4142 19.9142 15.75 19.5 15.75H16.5C16.0858 15.75 15.75 15.4142 15.75 15V9ZM4 17.25C4.41421 17.25 4.75 17.5858 4.75 18V20.25H19.25V18C19.25 17.5858 19.5858 17.25 20 17.25C20.4142 17.25 20.75 17.5858 20.75 18V20.4C20.75 21.1456 20.1456 21.75 19.4 21.75H4.6C3.85442 21.75 3.25 21.1456 3.25 20.4V18C3.25 17.5858 3.58579 17.25 4 17.25Z" fill="black"/>
</g>
</g>
</g>
<defs>
<clipPath id="clip0_232_12564">
<rect width="24" height="24" rx="5" fill="white"/>
</clipPath>
</defs>
</svg>
