<svg width="24" height="24" viewBox="0 0 24 24" fill="none" xmlns="http://www.w3.org/2000/svg">
<g id="sweep-3d">
<g clip-path="url(#clip0_232_913)">
<g id="Weight=Dynamic">
<path id="Vector (Stroke)" fill-rule="evenodd" clip-rule="evenodd" d="M14.5962 2.25621C14.8269 2.28605 15.0306 2.42121 15.1478 2.6221L17.4208 6.51857L19.4697 4.46968C19.7626 4.17678 20.2374 4.17678 20.5303 4.46968C20.8232 4.76257 20.8232 5.23744 20.5303 5.53034L18.2023 7.85835L22.1478 14.6221C22.3195 14.9164 22.2712 15.2894 22.0303 15.5303L16.0303 21.5303C15.8896 21.671 15.6989 21.75 15.5 21.75H7C6.58579 21.75 6.25 21.4142 6.25 21C6.25 20.5858 6.58579 20.25 7 20.25H14.1942L8.49996 10.4885L3.31446 19.3779C3.10575 19.7357 2.64651 19.8566 2.28872 19.6478C1.93093 19.4391 1.81008 18.9799 2.01879 18.6221L7.85213 8.6221C7.88459 8.56646 7.92408 8.51523 7.96963 8.46967L13.9697 2.46967C14.1341 2.30522 14.3656 2.22636 14.5962 2.25621ZM9.43912 9.12151L15.6576 19.7817L20.5608 14.8785L14.3424 4.21828L9.43912 9.12151ZM9.03033 15.9697C9.32322 16.2626 9.32322 16.7374 9.03033 17.0303L3.53033 22.5303C3.23744 22.8232 2.76256 22.8232 2.46967 22.5303C2.17678 22.2374 2.17678 21.7626 2.46967 21.4697L7.96967 15.9697C8.26256 15.6768 8.73744 15.6768 9.03033 15.9697Z" fill="black"/>
</g>
</g>
</g>
<defs>
<clipPath id="clip0_232_913">
<rect width="24" height="24" rx="5" fill="white"/>
</clipPath>
</defs>
</svg>
