<svg width="24" height="24" viewBox="0 0 24 24" fill="none" xmlns="http://www.w3.org/2000/svg">
<g id="swipe-up-gesture">
<g clip-path="url(#clip0_232_8485)">
<g id="Weight=Dynamic">
<path id="Vector (Stroke)" fill-rule="evenodd" clip-rule="evenodd" d="M11.4697 1.46967C11.7626 1.17678 12.2374 1.17678 12.5303 1.46967L15.5303 4.46967C15.8232 4.76256 15.8232 5.23744 15.5303 5.53033C15.2374 5.82322 14.7626 5.82322 14.4697 5.53033L12.75 3.81066V9.2912C16.125 9.66428 18.75 12.5256 18.75 16C18.75 19.7279 15.7279 22.75 12 22.75C8.27208 22.75 5.25 19.7279 5.25 16C5.25 12.5256 7.87504 9.66428 11.25 9.2912V3.81066L9.53033 5.53033C9.23744 5.82322 8.76256 5.82322 8.46967 5.53033C8.17678 5.23744 8.17678 4.76256 8.46967 4.46967L11.4697 1.46967ZM12 10.75C9.10051 10.75 6.75 13.1005 6.75 16C6.75 18.8995 9.1005 21.25 12 21.25C14.8995 21.25 17.25 18.8995 17.25 16C17.25 13.1005 14.8995 10.75 12 10.75Z" fill="black"/>
</g>
</g>
</g>
<defs>
<clipPath id="clip0_232_8485">
<rect width="24" height="24" rx="5" fill="white"/>
</clipPath>
</defs>
</svg>
