<svg width="24" height="24" viewBox="0 0 24 24" fill="none" xmlns="http://www.w3.org/2000/svg">
<g id="swipe-two-fingers-up-gesture">
<g clip-path="url(#clip0_232_8509)">
<g id="Weight=Dynamic">
<path id="Vector (Stroke)" fill-rule="evenodd" clip-rule="evenodd" d="M5.9806 4.45896C6.27082 4.18035 6.72918 4.18035 7.0194 4.45896L9.5194 6.85896C9.81821 7.14582 9.8279 7.62059 9.54104 7.9194C9.25418 8.21821 8.77941 8.2279 8.4806 7.94104L7.25 6.75966V11.316C9.23951 11.6702 10.75 13.4087 10.75 15.5C10.75 17.8472 8.84721 19.75 6.5 19.75C4.15279 19.75 2.25 17.8472 2.25 15.5C2.25 13.4087 3.76049 11.6702 5.75 11.316V6.75966L4.5194 7.94104C4.22059 8.2279 3.74582 8.21821 3.45896 7.9194C3.1721 7.62059 3.18179 7.14582 3.4806 6.85896L5.9806 4.45896ZM16.9806 4.45896C17.2708 4.18035 17.7292 4.18035 18.0194 4.45896L20.5194 6.85896C20.8182 7.14582 20.8279 7.62059 20.541 7.9194C20.2542 8.21821 19.7794 8.2279 19.4806 7.94104L18.25 6.75966V11.316C20.2395 11.6702 21.75 13.4087 21.75 15.5C21.75 17.8472 19.8472 19.75 17.5 19.75C15.1528 19.75 13.25 17.8472 13.25 15.5C13.25 13.4087 14.7605 11.6702 16.75 11.316V6.75966L15.5194 7.94104C15.2206 8.2279 14.7458 8.21821 14.459 7.9194C14.1721 7.62059 14.1818 7.14582 14.4806 6.85896L16.9806 4.45896ZM6.5 12.75C4.98122 12.75 3.75 13.9812 3.75 15.5C3.75 17.0188 4.98122 18.25 6.5 18.25C8.01878 18.25 9.25 17.0188 9.25 15.5C9.25 13.9812 8.01878 12.75 6.5 12.75ZM17.5 12.75C15.9812 12.75 14.75 13.9812 14.75 15.5C14.75 17.0188 15.9812 18.25 17.5 18.25C19.0188 18.25 20.25 17.0188 20.25 15.5C20.25 13.9812 19.0188 12.75 17.5 12.75Z" fill="black"/>
</g>
</g>
</g>
<defs>
<clipPath id="clip0_232_8509">
<rect width="24" height="24" rx="5" fill="white"/>
</clipPath>
</defs>
</svg>
