<svg width="24" height="24" viewBox="0 0 24 24" fill="none" xmlns="http://www.w3.org/2000/svg">
<g id="swipe-right-gesture">
<g clip-path="url(#clip0_232_8503)">
<g id="Weight=Dynamic">
<path id="Vector (Stroke)" fill-rule="evenodd" clip-rule="evenodd" d="M1.25 12C1.25 8.27208 4.27208 5.25 8 5.25C11.4744 5.25 14.3357 7.87504 14.7088 11.25H20.1893L18.4697 9.53033C18.1768 9.23744 18.1768 8.76256 18.4697 8.46967C18.7626 8.17678 19.2374 8.17678 19.5303 8.46967L22.5303 11.4697C22.8232 11.7626 22.8232 12.2374 22.5303 12.5303L19.5303 15.5303C19.2374 15.8232 18.7626 15.8232 18.4697 15.5303C18.1768 15.2374 18.1768 14.7626 18.4697 14.4697L20.1893 12.75H14.7088C14.3357 16.125 11.4744 18.75 8 18.75C4.27208 18.75 1.25 15.7279 1.25 12ZM8 6.75C5.1005 6.75 2.75 9.10051 2.75 12C2.75 14.8995 5.1005 17.25 8 17.25C10.8995 17.25 13.25 14.8995 13.25 12C13.25 9.10051 10.8995 6.75 8 6.75Z" fill="black"/>
</g>
</g>
</g>
<defs>
<clipPath id="clip0_232_8503">
<rect width="24" height="24" rx="5" fill="white"/>
</clipPath>
</defs>
</svg>
