<svg width="24" height="24" viewBox="0 0 24 24" fill="none" xmlns="http://www.w3.org/2000/svg">
<g id="swipe-two-fingers-down-gesture">
<g clip-path="url(#clip0_232_8517)">
<g id="Weight=Dynamic">
<path id="Vector (Stroke)" fill-rule="evenodd" clip-rule="evenodd" d="M2.25 8.5C2.25 6.15279 4.15279 4.25 6.5 4.25C8.84721 4.25 10.75 6.15279 10.75 8.5C10.75 10.5913 9.23951 12.3298 7.25 12.684V17.2403L8.4806 16.059C8.77941 15.7721 9.25418 15.7818 9.54104 16.0806C9.8279 16.3794 9.81821 16.8542 9.5194 17.141L7.0194 19.541C6.72918 19.8197 6.27082 19.8197 5.9806 19.541L3.4806 17.141C3.18179 16.8542 3.1721 16.3794 3.45896 16.0806C3.74582 15.7818 4.22059 15.7721 4.5194 16.059L5.75 17.2403V12.684C3.76049 12.3298 2.25 10.5913 2.25 8.5ZM6.5 5.75C4.98122 5.75 3.75 6.98122 3.75 8.5C3.75 10.0188 4.98122 11.25 6.5 11.25C8.01878 11.25 9.25 10.0188 9.25 8.5C9.25 6.98122 8.01878 5.75 6.5 5.75ZM13.25 8.5C13.25 6.15279 15.1528 4.25 17.5 4.25C19.8472 4.25 21.75 6.15279 21.75 8.5C21.75 10.5913 20.2395 12.3298 18.25 12.684V17.2403L19.4806 16.059C19.7794 15.7721 20.2542 15.7818 20.541 16.0806C20.8279 16.3794 20.8182 16.8542 20.5194 17.141L18.0194 19.541C17.7292 19.8197 17.2708 19.8197 16.9806 19.541L14.4806 17.141C14.1818 16.8542 14.1721 16.3794 14.459 16.0806C14.7458 15.7818 15.2206 15.7721 15.5194 16.059L16.75 17.2403V12.684C14.7605 12.3298 13.25 10.5913 13.25 8.5ZM17.5 5.75C15.9812 5.75 14.75 6.98122 14.75 8.5C14.75 10.0188 15.9812 11.25 17.5 11.25C19.0188 11.25 20.25 10.0188 20.25 8.5C20.25 6.98122 19.0188 5.75 17.5 5.75Z" fill="black"/>
</g>
</g>
</g>
<defs>
<clipPath id="clip0_232_8517">
<rect width="24" height="24" rx="5" fill="white"/>
</clipPath>
</defs>
</svg>
