<svg width="24" height="24" viewBox="0 0 24 24" fill="none" xmlns="http://www.w3.org/2000/svg">
<g id="swipe-two-fingers-right-gesture">
<g clip-path="url(#clip0_232_8525)">
<g id="Weight=Dynamic">
<path id="Vector (Stroke)" fill-rule="evenodd" clip-rule="evenodd" d="M4.25 6.5C4.25 4.15279 6.15279 2.25 8.5 2.25C10.5913 2.25 12.3298 3.76049 12.684 5.75H17.2403L16.059 4.5194C15.7721 4.22059 15.7818 3.74582 16.0806 3.45896C16.3794 3.1721 16.8542 3.18179 17.141 3.4806L19.541 5.9806C19.8197 6.27082 19.8197 6.72918 19.541 7.0194L17.141 9.5194C16.8542 9.81821 16.3794 9.8279 16.0806 9.54104C15.7818 9.25418 15.7721 8.77941 16.059 8.4806L17.2403 7.25H12.684C12.3298 9.23951 10.5913 10.75 8.5 10.75C6.15279 10.75 4.25 8.84721 4.25 6.5ZM8.5 3.75C6.98122 3.75 5.75 4.98122 5.75 6.5C5.75 8.01878 6.98122 9.25 8.5 9.25C10.0188 9.25 11.25 8.01878 11.25 6.5C11.25 4.98122 10.0188 3.75 8.5 3.75ZM4.25 17.5C4.25 15.1528 6.15279 13.25 8.5 13.25C10.5913 13.25 12.3298 14.7605 12.684 16.75H17.2403L16.059 15.5194C15.7721 15.2206 15.7818 14.7458 16.0806 14.459C16.3794 14.1721 16.8542 14.1818 17.141 14.4806L19.541 16.9806C19.8197 17.2708 19.8197 17.7292 19.541 18.0194L17.141 20.5194C16.8542 20.8182 16.3794 20.8279 16.0806 20.541C15.7818 20.2542 15.7721 19.7794 16.059 19.4806L17.2403 18.25H12.684C12.3298 20.2395 10.5913 21.75 8.5 21.75C6.15279 21.75 4.25 19.8472 4.25 17.5ZM8.5 14.75C6.98122 14.75 5.75 15.9812 5.75 17.5C5.75 19.0188 6.98122 20.25 8.5 20.25C10.0188 20.25 11.25 19.0188 11.25 17.5C11.25 15.9812 10.0188 14.75 8.5 14.75Z" fill="black"/>
</g>
</g>
</g>
<defs>
<clipPath id="clip0_232_8525">
<rect width="24" height="24" rx="5" fill="white"/>
</clipPath>
</defs>
</svg>
