<svg width="24" height="24" viewBox="0 0 24 24" fill="none" xmlns="http://www.w3.org/2000/svg">
<g id="swipe-down-gesture">
<g clip-path="url(#clip0_232_8491)">
<g id="Weight=Dynamic">
<path id="Vector (Stroke)" fill-rule="evenodd" clip-rule="evenodd" d="M12 2.75C9.10051 2.75 6.75 5.1005 6.75 8C6.75 10.8995 9.10051 13.25 12 13.25C14.8995 13.25 17.25 10.8995 17.25 8C17.25 5.1005 14.8995 2.75 12 2.75ZM5.25 8C5.25 4.27208 8.27208 1.25 12 1.25C15.7279 1.25 18.75 4.27208 18.75 8C18.75 11.4744 16.125 14.3357 12.75 14.7088V20.1893L14.4697 18.4697C14.7626 18.1768 15.2374 18.1768 15.5303 18.4697C15.8232 18.7626 15.8232 19.2374 15.5303 19.5303L12.5303 22.5303C12.2374 22.8232 11.7626 22.8232 11.4697 22.5303L8.46967 19.5303C8.17678 19.2374 8.17678 18.7626 8.46967 18.4697C8.76256 18.1768 9.23744 18.1768 9.53033 18.4697L11.25 20.1893V14.7088C7.87504 14.3357 5.25 11.4744 5.25 8Z" fill="black"/>
</g>
</g>
</g>
<defs>
<clipPath id="clip0_232_8491">
<rect width="24" height="24" rx="5" fill="white"/>
</clipPath>
</defs>
</svg>
