<svg width="24" height="24" viewBox="0 0 24 24" fill="none" xmlns="http://www.w3.org/2000/svg">
<g id="swipe-left-gesture">
<g clip-path="url(#clip0_232_8497)">
<g id="Weight=Dynamic">
<path id="Vector (Stroke)" fill-rule="evenodd" clip-rule="evenodd" d="M16 6.75C13.1005 6.75 10.75 9.10051 10.75 12C10.75 14.8995 13.1005 17.25 16 17.25C18.8995 17.25 21.25 14.8995 21.25 12C21.25 9.10051 18.8995 6.75 16 6.75ZM9.2912 11.25C9.66428 7.87504 12.5256 5.25 16 5.25C19.7279 5.25 22.75 8.27208 22.75 12C22.75 15.7279 19.7279 18.75 16 18.75C12.5256 18.75 9.66428 16.125 9.2912 12.75H3.81066L5.53033 14.4697C5.82322 14.7626 5.82322 15.2374 5.53033 15.5303C5.23744 15.8232 4.76256 15.8232 4.46967 15.5303L1.46967 12.5303C1.17678 12.2374 1.17678 11.7626 1.46967 11.4697L4.46967 8.46967C4.76256 8.17678 5.23744 8.17678 5.53033 8.46967C5.82322 8.76256 5.82322 9.23744 5.53033 9.53033L3.81066 11.25H9.2912Z" fill="black"/>
</g>
</g>
</g>
<defs>
<clipPath id="clip0_232_8497">
<rect width="24" height="24" rx="5" fill="white"/>
</clipPath>
</defs>
</svg>
