<svg width="24" height="24" viewBox="0 0 24 24" fill="none" xmlns="http://www.w3.org/2000/svg">
<g id="swipe-two-fingers-left-gesture">
<g clip-path="url(#clip0_232_8533)">
<g id="Weight=Dynamic">
<path id="Vector (Stroke)" fill-rule="evenodd" clip-rule="evenodd" d="M15.5 3.75C13.9812 3.75 12.75 4.98122 12.75 6.5C12.75 8.01878 13.9812 9.25 15.5 9.25C17.0188 9.25 18.25 8.01878 18.25 6.5C18.25 4.98122 17.0188 3.75 15.5 3.75ZM11.316 5.75C11.6702 3.76049 13.4087 2.25 15.5 2.25C17.8472 2.25 19.75 4.15279 19.75 6.5C19.75 8.84721 17.8472 10.75 15.5 10.75C13.4087 10.75 11.6702 9.23951 11.316 7.25H6.75966L7.94104 8.4806C8.2279 8.77941 8.21821 9.25418 7.9194 9.54104C7.62059 9.8279 7.14582 9.81821 6.85896 9.5194L4.45896 7.0194C4.18035 6.72918 4.18035 6.27082 4.45896 5.9806L6.85896 3.4806C7.14582 3.18179 7.62059 3.1721 7.9194 3.45896C8.21821 3.74582 8.2279 4.22059 7.94104 4.5194L6.75966 5.75H11.316ZM15.5 14.75C13.9812 14.75 12.75 15.9812 12.75 17.5C12.75 19.0188 13.9812 20.25 15.5 20.25C17.0188 20.25 18.25 19.0188 18.25 17.5C18.25 15.9812 17.0188 14.75 15.5 14.75ZM11.316 16.75C11.6702 14.7605 13.4087 13.25 15.5 13.25C17.8472 13.25 19.75 15.1528 19.75 17.5C19.75 19.8472 17.8472 21.75 15.5 21.75C13.4087 21.75 11.6702 20.2395 11.316 18.25H6.75966L7.94104 19.4806C8.2279 19.7794 8.21821 20.2542 7.9194 20.541C7.62059 20.8279 7.14582 20.8182 6.85896 20.5194L4.45896 18.0194C4.18035 17.7292 4.18035 17.2708 4.45896 16.9806L6.85896 14.4806C7.14582 14.1818 7.62059 14.1721 7.9194 14.459C8.21821 14.7458 8.2279 15.2206 7.94104 15.5194L6.75966 16.75H11.316Z" fill="black"/>
</g>
</g>
</g>
<defs>
<clipPath id="clip0_232_8533">
<rect width="24" height="24" rx="5" fill="white"/>
</clipPath>
</defs>
</svg>
