<svg width="24" height="24" viewBox="0 0 24 24" fill="none" xmlns="http://www.w3.org/2000/svg">
<g id="switch-off">
<g clip-path="url(#clip0_232_14632)">
<g id="Weight=Dynamic">
<g id="Vector">
</g>
<path id="Vector (Stroke)" fill-rule="evenodd" clip-rule="evenodd" d="M7 7.75C4.65279 7.75 2.75 9.65279 2.75 12C2.75 14.3472 4.65279 16.25 7 16.25H17C19.3472 16.25 21.25 14.3472 21.25 12C21.25 9.65279 19.3472 7.75 17 7.75H7ZM1.25 12C1.25 8.82436 3.82436 6.25 7 6.25H17C20.1756 6.25 22.75 8.82436 22.75 12C22.75 15.1756 20.1756 17.75 17 17.75H7C3.82436 17.75 1.25 15.1756 1.25 12ZM7 11.75C6.86193 11.75 6.75 11.8619 6.75 12C6.75 12.1381 6.86193 12.25 7 12.25C7.13807 12.25 7.25 12.1381 7.25 12C7.25 11.8619 7.13807 11.75 7 11.75ZM5.25 12C5.25 11.0335 6.0335 10.25 7 10.25C7.9665 10.25 8.75 11.0335 8.75 12C8.75 12.9665 7.9665 13.75 7 13.75C6.0335 13.75 5.25 12.9665 5.25 12Z" fill="black"/>
</g>
</g>
</g>
<defs>
<clipPath id="clip0_232_14632">
<rect width="24" height="24" rx="5" fill="white"/>
</clipPath>
</defs>
</svg>
