<svg width="24" height="24" viewBox="0 0 24 24" fill="none" xmlns="http://www.w3.org/2000/svg">
<g id="switch-on">
<g clip-path="url(#clip0_232_14641)">
<g id="Weight=Dynamic">
<g id="Vector">
</g>
<path id="Vector (Stroke)" fill-rule="evenodd" clip-rule="evenodd" d="M7 7.75C4.65279 7.75 2.75 9.65279 2.75 12C2.75 14.3472 4.65279 16.25 7 16.25H17C19.3472 16.25 21.25 14.3472 21.25 12C21.25 9.65279 19.3472 7.75 17 7.75H7ZM1.25 12C1.25 8.82436 3.82436 6.25 7 6.25H17C20.1756 6.25 22.75 8.82436 22.75 12C22.75 15.1756 20.1756 17.75 17 17.75H7C3.82436 17.75 1.25 15.1756 1.25 12ZM17 11.75C16.8619 11.75 16.75 11.8619 16.75 12C16.75 12.1381 16.8619 12.25 17 12.25C17.1381 12.25 17.25 12.1381 17.25 12C17.25 11.8619 17.1381 11.75 17 11.75ZM15.25 12C15.25 11.0335 16.0335 10.25 17 10.25C17.9665 10.25 18.75 11.0335 18.75 12C18.75 12.9665 17.9665 13.75 17 13.75C16.0335 13.75 15.25 12.9665 15.25 12Z" fill="black"/>
</g>
</g>
</g>
<defs>
<clipPath id="clip0_232_14641">
<rect width="24" height="24" rx="5" fill="white"/>
</clipPath>
</defs>
</svg>
