<svg width="24" height="24" viewBox="0 0 24 24" fill="none" xmlns="http://www.w3.org/2000/svg">
<g id="system-restart">
<g clip-path="url(#clip0_232_14844)">
<g id="Weight=Dynamic">
<path id="Vector (Stroke)" fill-rule="evenodd" clip-rule="evenodd" d="M12 1.25C12.4142 1.25 12.75 1.58579 12.75 2V6C12.75 6.41421 12.4142 6.75 12 6.75C11.5858 6.75 11.25 6.41421 11.25 6V2C11.25 1.58579 11.5858 1.25 12 1.25ZM4.39838 4.39862C4.69127 4.10573 5.16615 4.10573 5.45904 4.39862L8.28747 7.22705C8.58036 7.51995 8.58036 7.99482 8.28747 8.28771C7.99458 8.58061 7.5197 8.58061 7.22681 8.28771L4.39838 5.45929C4.10549 5.16639 4.10549 4.69152 4.39838 4.39862ZM19.6016 4.39862C19.8945 4.69152 19.8945 5.16639 19.6016 5.45929L16.7732 8.28771C16.4803 8.58061 16.0054 8.58061 15.7125 8.28771C15.4196 7.99482 15.4196 7.51995 15.7125 7.22705L18.541 4.39862C18.8339 4.10573 19.3087 4.10573 19.6016 4.39862ZM1.25 12C1.25 11.5858 1.58579 11.25 2 11.25H6C6.41421 11.25 6.75 11.5858 6.75 12C6.75 12.4142 6.41421 12.75 6 12.75H2C1.58579 12.75 1.25 12.4142 1.25 12ZM17.25 12C17.25 11.5858 17.5858 11.25 18 11.25H22C22.4142 11.25 22.75 11.5858 22.75 12C22.75 12.4142 22.4142 12.75 22 12.75H18C17.5858 12.75 17.25 12.4142 17.25 12ZM8.28814 15.7123C8.58104 16.0052 8.58104 16.4801 8.28814 16.773L5.45972 19.6014C5.16682 19.8943 4.69195 19.8943 4.39906 19.6014C4.10616 19.3085 4.10616 18.8337 4.39906 18.5408L7.22748 15.7123C7.52038 15.4195 7.99525 15.4195 8.28814 15.7123ZM15.7119 15.7123C16.0048 15.4195 16.4796 15.4195 16.7725 15.7123L19.6009 18.5408C19.8938 18.8337 19.8938 19.3085 19.6009 19.6014C19.3081 19.8943 18.8332 19.8943 18.5403 19.6014L15.7119 16.773C15.419 16.4801 15.419 16.0052 15.7119 15.7123ZM12 17.25C12.4142 17.25 12.75 17.5858 12.75 18V22C12.75 22.4142 12.4142 22.75 12 22.75C11.5858 22.75 11.25 22.4142 11.25 22V18C11.25 17.5858 11.5858 17.25 12 17.25Z" fill="black"/>
</g>
</g>
</g>
<defs>
<clipPath id="clip0_232_14844">
<rect width="24" height="24" rx="5" fill="white"/>
</clipPath>
</defs>
</svg>
