<svg width="24" height="24" viewBox="0 0 24 24" fill="none" xmlns="http://www.w3.org/2000/svg">
<g id="table">
<g clip-path="url(#clip0_232_9918)">
<g id="Weight=Dynamic">
<path id="Vector (Stroke)" fill-rule="evenodd" clip-rule="evenodd" d="M2.25 3C2.25 2.58579 2.58579 2.25 3 2.25H21C21.4142 2.25 21.75 2.58579 21.75 3V21C21.75 21.4142 21.4142 21.75 21 21.75H3C2.58579 21.75 2.25 21.4142 2.25 21V3ZM3.75 8.25V11.25H6.75V8.25H3.75ZM6.75 6.75H3.75V3.75H6.75V6.75ZM8.25 8.25V11.25H11.25V8.25H8.25ZM11.25 6.75H8.25V3.75H11.25V6.75ZM12.75 8.25V11.25H15.75V8.25H12.75ZM15.75 6.75H12.75V3.75H15.75V6.75ZM17.25 8.25V11.25H20.25V8.25H17.25ZM20.25 6.75H17.25V3.75H20.25V6.75ZM20.25 12.75H17.25V15.75H20.25V12.75ZM20.25 17.25H17.25V20.25H20.25V17.25ZM15.75 20.25V17.25H12.75V20.25H15.75ZM11.25 20.25V17.25H8.25V20.25H11.25ZM6.75 20.25V17.25H3.75V20.25H6.75ZM3.75 15.75H6.75V12.75H3.75V15.75ZM8.25 12.75V15.75H11.25V12.75H8.25ZM12.75 12.75V15.75H15.75V12.75H12.75Z" fill="black"/>
</g>
</g>
</g>
<defs>
<clipPath id="clip0_232_9918">
<rect width="24" height="24" rx="5" fill="white"/>
</clipPath>
</defs>
</svg>
