<svg width="24" height="24" viewBox="0 0 24 24" fill="none" xmlns="http://www.w3.org/2000/svg">
<g id="task-list">
<g clip-path="url(#clip0_232_6577)">
<g id="Weight=Dynamic">
<path id="Vector (Stroke)" fill-rule="evenodd" clip-rule="evenodd" d="M7.13012 4.06966C7.42302 4.36255 7.42302 4.83743 7.13012 5.13032L5.13013 7.13031C4.98948 7.27097 4.79871 7.34998 4.5998 7.34998C4.40089 7.34998 4.21012 7.27097 4.06947 7.13031L3.26947 6.33032C2.97658 6.03742 2.97658 5.56255 3.26947 5.26966C3.56237 4.97676 4.03724 4.97676 4.33013 5.26966L4.5998 5.53932L6.06946 4.06966C6.36236 3.77677 6.83723 3.77677 7.13012 4.06966ZM8.25 6C8.25 5.58579 8.58579 5.25 9 5.25L20 5.25C20.4142 5.25 20.75 5.58579 20.75 6C20.75 6.41421 20.4142 6.75 20 6.75L9 6.75C8.58579 6.75 8.25 6.41421 8.25 6ZM7.13012 10.0697C7.42302 10.3626 7.42302 10.8374 7.13012 11.1303L5.13013 13.1303C4.98948 13.271 4.79871 13.35 4.5998 13.35C4.40089 13.35 4.21012 13.271 4.06947 13.1303L3.26947 12.3303C2.97658 12.0374 2.97658 11.5625 3.26947 11.2697C3.56237 10.9768 4.03724 10.9768 4.33013 11.2697L4.5998 11.5393L6.06946 10.0697C6.36236 9.77677 6.83723 9.77677 7.13012 10.0697ZM8.25 12C8.25 11.5858 8.58579 11.25 9 11.25L20 11.25C20.4142 11.25 20.75 11.5858 20.75 12C20.75 12.4142 20.4142 12.75 20 12.75L9 12.75C8.58579 12.75 8.25 12.4142 8.25 12ZM7.13012 16.0697C7.42302 16.3626 7.42302 16.8374 7.13012 17.1303L5.13013 19.1303C4.83724 19.4232 4.36236 19.4232 4.06947 19.1303L3.26947 18.3303C2.97658 18.0374 2.97658 17.5626 3.26947 17.2697C3.56237 16.9768 4.03724 16.9768 4.33013 17.2697L4.5998 17.5393L6.06946 16.0697C6.36236 15.7768 6.83723 15.7768 7.13012 16.0697ZM8.25 18C8.25 17.5858 8.58579 17.25 9 17.25L20 17.25C20.4142 17.25 20.75 17.5858 20.75 18C20.75 18.4142 20.4142 18.75 20 18.75L9 18.75C8.58579 18.75 8.25 18.4142 8.25 18Z" fill="black"/>
</g>
</g>
</g>
<defs>
<clipPath id="clip0_232_6577">
<rect width="24" height="24" rx="5" fill="white"/>
</clipPath>
</defs>
</svg>
