<svg width="24" height="24" viewBox="0 0 24 24" fill="none" xmlns="http://www.w3.org/2000/svg">
<g id="telegram-circle">
<g clip-path="url(#clip0_232_14049)">
<g id="Weight=Dynamic">
<path id="Vector (Stroke)" fill-rule="evenodd" clip-rule="evenodd" d="M12 2.75C6.89137 2.75 2.75 6.89137 2.75 12C2.75 17.1086 6.89137 21.25 12 21.25C17.1086 21.25 21.25 17.1086 21.25 12C21.25 6.89137 17.1086 2.75 12 2.75ZM1.25 12C1.25 6.06294 6.06294 1.25 12 1.25C17.9371 1.25 22.75 6.06294 22.75 12C22.75 17.9371 17.9371 22.75 12 22.75C6.06294 22.75 1.25 17.9371 1.25 12ZM18.5384 7.47788C18.7412 7.68704 18.8046 7.99473 18.7009 8.267L14.7009 18.767C14.6103 19.0046 14.4055 19.1802 14.1569 19.2334C13.9082 19.2866 13.6495 19.2102 13.4697 19.0303L9.09486 14.6555L4.76283 13.2115C4.45808 13.1099 4.25186 12.8255 4.25001 12.5043C4.24817 12.1831 4.4511 11.8963 4.75467 11.7913L17.7547 7.29126C18.03 7.19596 18.3356 7.26872 18.5384 7.47788ZM10.6599 14.0993L13.7114 17.1508L16.4239 10.0306L10.6599 14.0993ZM13.2417 10.4408L7.33151 12.4866L9.37735 13.1685L13.2417 10.4408Z" fill="black"/>
</g>
</g>
</g>
<defs>
<clipPath id="clip0_232_14049">
<rect width="24" height="24" rx="5" fill="white"/>
</clipPath>
</defs>
</svg>
