<svg width="24" height="24" viewBox="0 0 24 24" fill="none" xmlns="http://www.w3.org/2000/svg">
<g id="telegram">
<g clip-path="url(#clip0_232_14167)">
<g id="Weight=Dynamic">
<path id="Vector (Stroke)" fill-rule="evenodd" clip-rule="evenodd" d="M21.4716 4.41683C21.6818 4.58678 21.7843 4.85669 21.7398 5.12331L19.2398 20.1233C19.1977 20.3759 19.0296 20.5896 18.794 20.69C18.5584 20.7904 18.2879 20.7636 18.0765 20.619L12.3413 16.6949L9.53266 19.528C9.31867 19.7439 8.99558 19.8092 8.71452 19.6935C8.43347 19.5778 8.25003 19.3039 8.25003 19V14.1505L1.89397 13.2425C1.55713 13.1944 1.29489 12.9255 1.25516 12.5876C1.21543 12.2497 1.40817 11.9273 1.72466 11.8024L20.7247 4.30239C20.9761 4.20315 21.2614 4.24687 21.4716 4.41683ZM9.75003 14.9219L11.0828 15.8338L9.75003 17.1782V14.9219ZM8.81033 12.7153L15.498 7.97817L4.90916 12.158L8.81033 12.7153ZM19.9642 6.6528L10.3126 13.4893L17.9535 18.7173L19.9642 6.6528Z" fill="black"/>
</g>
</g>
</g>
<defs>
<clipPath id="clip0_232_14167">
<rect width="24" height="24" rx="5" fill="white"/>
</clipPath>
</defs>
</svg>
