<svg width="24" height="24" viewBox="0 0 24 24" fill="none" xmlns="http://www.w3.org/2000/svg">
<g id="temperature-up">
<g clip-path="url(#clip0_232_16597)">
<g id="Weight=Dynamic">
<path id="Vector (Stroke)" fill-rule="evenodd" clip-rule="evenodd" d="M3.25 3C3.25 2.58579 3.58579 2.25 4 2.25H12C12.4142 2.25 12.75 2.58579 12.75 3C12.75 3.41421 12.4142 3.75 12 3.75H10.75V5.25H12C12.4142 5.25 12.75 5.58579 12.75 6C12.75 6.41421 12.4142 6.75 12 6.75H10.75V8.25H12C12.4142 8.25 12.75 8.58579 12.75 9C12.75 9.41421 12.4142 9.75 12 9.75H10.75V11.6409C11.9735 12.6944 12.75 14.2566 12.75 15.9999C12.75 19.1755 10.1756 21.7499 7 21.7499C3.82436 21.7499 1.25 19.1755 1.25 15.9999C1.25 14.2566 2.02651 12.6944 3.25 11.6409V3ZM9.25 3.75H4.75V11.9995C4.75 12.2354 4.63903 12.4575 4.45043 12.5992C3.41646 13.3758 2.75 14.6099 2.75 15.9999C2.75 18.3471 4.65279 20.2499 7 20.2499C9.34721 20.2499 11.25 18.3471 11.25 15.9999C11.25 14.6099 10.5835 13.3758 9.54957 12.5992C9.36097 12.4575 9.25 12.2354 9.25 11.9995V3.75ZM7 5.25C7.41421 5.25 7.75 5.58579 7.75 6V13.3535C8.90425 13.68 9.75 14.7412 9.75 16C9.75 17.5188 8.51878 18.75 7 18.75C5.48122 18.75 4.25 17.5188 4.25 16C4.25 14.7412 5.09575 13.68 6.25 13.3535V6C6.25 5.58579 6.58579 5.25 7 5.25ZM18.4697 5.46967C18.7626 5.17678 19.2374 5.17678 19.5303 5.46967L22.0303 7.96967C22.3232 8.26256 22.3232 8.73744 22.0303 9.03033C21.7374 9.32322 21.2626 9.32322 20.9697 9.03033L19.75 7.81066V18C19.75 18.4142 19.4142 18.75 19 18.75C18.5858 18.75 18.25 18.4142 18.25 18V7.81066L17.0303 9.03033C16.7374 9.32322 16.2626 9.32322 15.9697 9.03033C15.6768 8.73744 15.6768 8.26256 15.9697 7.96967L18.4697 5.46967ZM7 14.75C6.30964 14.75 5.75 15.3096 5.75 16C5.75 16.6904 6.30964 17.25 7 17.25C7.69036 17.25 8.25 16.6904 8.25 16C8.25 15.3096 7.69036 14.75 7 14.75Z" fill="black"/>
</g>
</g>
</g>
<defs>
<clipPath id="clip0_232_16597">
<rect width="24" height="24" rx="5" fill="white"/>
</clipPath>
</defs>
</svg>
