<svg width="24" height="24" viewBox="0 0 24 24" fill="none" xmlns="http://www.w3.org/2000/svg">
<g id="temperature-down">
<g clip-path="url(#clip0_232_16615)">
<g id="Weight=Dynamic">
<path id="Vector (Stroke)" fill-rule="evenodd" clip-rule="evenodd" d="M4.25 3C4.25 2.58579 4.58579 2.25 5 2.25H13C13.4142 2.25 13.75 2.58579 13.75 3C13.75 3.41421 13.4142 3.75 13 3.75H11.75V5.25H13C13.4142 5.25 13.75 5.58579 13.75 6C13.75 6.41421 13.4142 6.75 13 6.75H11.75V8.25H13C13.4142 8.25 13.75 8.58579 13.75 9C13.75 9.41421 13.4142 9.75 13 9.75H11.75V11.6409C12.9735 12.6944 13.75 14.2566 13.75 15.9999C13.75 19.1755 11.1756 21.7499 8 21.7499C4.82436 21.7499 2.25 19.1755 2.25 15.9999C2.25 14.2566 3.02651 12.6944 4.25 11.6409V3ZM10.25 3.75H5.75V11.9995C5.75 12.2354 5.63903 12.4575 5.45043 12.5992C4.41646 13.3758 3.75 14.6099 3.75 15.9999C3.75 18.3471 5.65279 20.2499 8 20.2499C10.3472 20.2499 12.25 18.3471 12.25 15.9999C12.25 14.6099 11.5835 13.3758 10.5496 12.5992C10.361 12.4575 10.25 12.2354 10.25 11.9995V3.75ZM8 5.25C8.41421 5.25 8.75 5.58579 8.75 6V13.3535C9.90425 13.68 10.75 14.7412 10.75 16C10.75 17.5188 9.51878 18.75 8 18.75C6.48122 18.75 5.25 17.5188 5.25 16C5.25 14.7412 6.09575 13.68 7.25 13.3535V6C7.25 5.58579 7.58579 5.25 8 5.25ZM19 5.25C19.4142 5.25 19.75 5.58579 19.75 6V16.1893L20.9697 14.9697C21.2626 14.6768 21.7374 14.6768 22.0303 14.9697C22.3232 15.2626 22.3232 15.7374 22.0303 16.0303L19.5303 18.5303C19.2374 18.8232 18.7626 18.8232 18.4697 18.5303L15.9697 16.0303C15.6768 15.7374 15.6768 15.2626 15.9697 14.9697C16.2626 14.6768 16.7374 14.6768 17.0303 14.9697L18.25 16.1893V6C18.25 5.58579 18.5858 5.25 19 5.25ZM8 14.75C7.30964 14.75 6.75 15.3096 6.75 16C6.75 16.6904 7.30964 17.25 8 17.25C8.69036 17.25 9.25 16.6904 9.25 16C9.25 15.3096 8.69036 14.75 8 14.75Z" fill="black"/>
</g>
</g>
</g>
<defs>
<clipPath id="clip0_232_16615">
<rect width="24" height="24" rx="5" fill="white"/>
</clipPath>
</defs>
</svg>
