<svg width="24" height="24" viewBox="0 0 24 24" fill="none" xmlns="http://www.w3.org/2000/svg">
<g id="temperature-high">
<g clip-path="url(#clip0_232_16566)">
<g id="Weight=Dynamic">
<path id="Vector (Stroke)" fill-rule="evenodd" clip-rule="evenodd" d="M5.25 3C5.25 2.58579 5.58579 2.25 6 2.25H14C14.4142 2.25 14.75 2.58579 14.75 3C14.75 3.41421 14.4142 3.75 14 3.75H12.75V5.25H14C14.4142 5.25 14.75 5.58579 14.75 6C14.75 6.41421 14.4142 6.75 14 6.75H12.75V8.25H14C14.4142 8.25 14.75 8.58579 14.75 9C14.75 9.41421 14.4142 9.75 14 9.75H12.75V11.641C13.9735 12.6945 14.75 14.2567 14.75 16C14.75 19.1756 12.1756 21.75 9 21.75C5.82436 21.75 3.25 19.1756 3.25 16C3.25 14.2567 4.02651 12.6945 5.25 11.641V3ZM11.25 3.75H6.75V11.9996C6.75 12.2355 6.63903 12.4576 6.45043 12.5993C5.41646 13.376 4.75 14.61 4.75 16C4.75 18.3472 6.65279 20.25 9 20.25C11.3472 20.25 13.25 18.3472 13.25 16C13.25 14.61 12.5835 13.376 11.5496 12.5993C11.361 12.4576 11.25 12.2355 11.25 11.9996V3.75ZM19 3.75C18.3096 3.75 17.75 4.30964 17.75 5C17.75 5.69036 18.3096 6.25 19 6.25C19.6904 6.25 20.25 5.69036 20.25 5C20.25 4.30964 19.6904 3.75 19 3.75ZM16.25 5C16.25 3.48122 17.4812 2.25 19 2.25C20.5188 2.25 21.75 3.48122 21.75 5C21.75 6.51878 20.5188 7.75 19 7.75C17.4812 7.75 16.25 6.51878 16.25 5ZM9 5.25C9.41421 5.25 9.75 5.58579 9.75 6V13.3535C10.9043 13.68 11.75 14.7412 11.75 16C11.75 17.5188 10.5188 18.75 9 18.75C7.48122 18.75 6.25 17.5188 6.25 16C6.25 14.7412 7.09575 13.68 8.25 13.3535V6C8.25 5.58579 8.58579 5.25 9 5.25ZM9 14.75C8.30964 14.75 7.75 15.3096 7.75 16C7.75 16.6904 8.30964 17.25 9 17.25C9.69036 17.25 10.25 16.6904 10.25 16C10.25 15.3096 9.69036 14.75 9 14.75Z" fill="black"/>
</g>
</g>
</g>
<defs>
<clipPath id="clip0_232_16566">
<rect width="24" height="24" rx="5" fill="white"/>
</clipPath>
</defs>
</svg>
