<svg width="24" height="24" viewBox="0 0 24 24" fill="none" xmlns="http://www.w3.org/2000/svg">
<g id="tennis-ball">
<g clip-path="url(#clip0_232_1619)">
<g id="Weight=Dynamic">
<path id="Vector (Stroke)" fill-rule="evenodd" clip-rule="evenodd" d="M5.24135 5.68464C3.69595 7.33782 2.75 9.55844 2.75 12C2.75 14.4177 3.67758 16.6188 5.19628 18.2668C7.16968 13.7798 7.16006 9.49641 5.24135 5.68464ZM4.92375 3.90726C2.67207 5.87773 1.25 8.7728 1.25 12C1.25 15.2262 2.67119 18.1205 4.92167 20.0909C4.93024 20.0988 4.93902 20.1064 4.948 20.1139C6.83562 21.7559 9.30171 22.75 12 22.75C14.6985 22.75 17.1647 21.7557 19.0524 20.1135C19.0611 20.1063 19.0696 20.0989 19.0779 20.0913C21.3286 18.1209 22.75 15.2264 22.75 12C22.75 8.77254 21.3277 5.87728 19.0757 3.9068C19.069 3.90071 19.0621 3.89473 19.0552 3.88886C17.1671 2.24524 14.6998 1.25 12 1.25C9.30045 1.25 6.8333 2.24506 4.94534 3.88842C4.938 3.89458 4.93081 3.90086 4.92375 3.90726ZM6.3909 4.64408C8.79902 9.13239 8.75943 14.1903 6.36008 19.3323C7.92116 20.5348 9.87706 21.25 12 21.25C14.1229 21.25 16.0788 20.5348 17.6399 19.3323C15.2406 14.1903 15.201 9.13238 17.6091 4.64407C16.0531 3.4558 14.109 2.75 12 2.75C9.89101 2.75 7.94687 3.4558 6.3909 4.64408ZM18.7586 5.68463C16.8399 9.49641 16.8303 13.7798 18.8037 18.2668C20.3224 16.6188 21.25 14.4177 21.25 12C21.25 9.55844 20.304 7.33781 18.7586 5.68463Z" fill="black"/>
</g>
</g>
</g>
<defs>
<clipPath id="clip0_232_1619">
<rect width="24" height="24" rx="5" fill="white"/>
</clipPath>
</defs>
</svg>
