<svg width="24" height="24" viewBox="0 0 24 24" fill="none" xmlns="http://www.w3.org/2000/svg">
<g id="tennis-ball-alt">
<g clip-path="url(#clip0_232_1806)">
<g id="Weight=Dynamic">
<path id="Vector (Stroke)" fill-rule="evenodd" clip-rule="evenodd" d="M13.1795 2.825C11.2378 2.57391 9.20127 2.93474 7.37484 3.98923C5.54842 5.04372 4.21765 6.62701 3.46428 8.43406C7.79393 11.117 10.2886 15.5171 10.7817 21.1699C12.7349 21.4308 14.7863 21.0722 16.6248 20.0107C18.4634 18.9492 19.7996 17.3519 20.5503 15.5299C15.9014 12.2765 13.3381 7.91604 13.1795 2.825ZM14.0514 1.44738C11.5953 0.968812 8.96204 1.34081 6.62484 2.69019C4.28713 4.03987 2.64812 6.13499 1.83472 8.50194C1.83132 8.51125 1.82812 8.52061 1.82512 8.52999C0.860503 11.3622 1.07655 14.5803 2.69007 17.375C4.30361 20.1697 6.98255 21.9658 9.91767 22.5465C9.92744 22.5487 9.93728 22.5506 9.94718 22.5523C12.4036 23.0312 15.0373 22.6593 17.3748 21.3097C19.7123 19.9602 21.3512 17.8653 22.1647 15.4987C22.1682 15.4891 22.1715 15.4795 22.1746 15.4698C23.1392 12.6376 22.9231 9.41962 21.3096 6.62497C19.6964 3.83078 17.0182 2.03481 14.0838 1.45374C14.0731 1.45139 14.0623 1.44926 14.0514 1.44738ZM14.6953 3.15137C14.9395 7.41181 17.0729 11.1261 21.0254 14.0253C21.5167 11.8387 21.2194 9.46877 20.0106 7.37497C18.7898 5.2605 16.8603 3.81036 14.6953 3.15137ZM9.24105 20.829C8.70657 15.9564 6.55656 12.2517 2.98901 9.90999C2.47723 12.1144 2.76832 14.5105 3.98911 16.625C5.19798 18.7188 7.10183 20.1612 9.24105 20.829Z" fill="black"/>
</g>
</g>
</g>
<defs>
<clipPath id="clip0_232_1806">
<rect width="24" height="24" rx="5" fill="white"/>
</clipPath>
</defs>
</svg>
