<svg width="24" height="24" viewBox="0 0 24 24" fill="none" xmlns="http://www.w3.org/2000/svg">
<g id="terminal">
<g clip-path="url(#clip0_232_14864)">
<g id="Weight=Dynamic">
<path id="Vector (Stroke)" fill-rule="evenodd" clip-rule="evenodd" d="M4.46967 6.46967C4.76256 6.17678 5.23744 6.17678 5.53033 6.46967L10.5303 11.4697C10.8232 11.7626 10.8232 12.2374 10.5303 12.5303L5.53033 17.5303C5.23744 17.8232 4.76256 17.8232 4.46967 17.5303C4.17678 17.2374 4.17678 16.7626 4.46967 16.4697L8.93934 12L4.46967 7.53033C4.17678 7.23744 4.17678 6.76256 4.46967 6.46967ZM13 16.25H20C20.4142 16.25 20.75 16.5858 20.75 17C20.75 17.4142 20.4142 17.75 20 17.75H13C12.5858 17.75 12.25 17.4142 12.25 17C12.25 16.5858 12.5858 16.25 13 16.25Z" fill="black"/>
</g>
</g>
</g>
<defs>
<clipPath id="clip0_232_14864">
<rect width="24" height="24" rx="5" fill="white"/>
</clipPath>
</defs>
</svg>
