<svg width="24" height="24" viewBox="0 0 24 24" fill="none" xmlns="http://www.w3.org/2000/svg">
<g id="terminal-tag">
<g clip-path="url(#clip0_232_15068)">
<g id="Weight=Dynamic">
<path id="Vector (Stroke)" fill-rule="evenodd" clip-rule="evenodd" d="M4 4.75C3.30964 4.75 2.75 5.30964 2.75 6V18C2.75 18.6904 3.30964 19.25 4 19.25H20C20.6904 19.25 21.25 18.6904 21.25 18V6C21.25 5.30964 20.6904 4.75 20 4.75H4ZM1.25 6C1.25 4.48122 2.48122 3.25 4 3.25H20C21.5188 3.25 22.75 4.48122 22.75 6V18C22.75 19.5188 21.5188 20.75 20 20.75H4C2.48122 20.75 1.25 19.5188 1.25 18V6ZM5.46967 7.46967C5.76256 7.17678 6.23744 7.17678 6.53033 7.46967L10.5303 11.4697C10.8232 11.7626 10.8232 12.2374 10.5303 12.5303L6.53033 16.5303C6.23744 16.8232 5.76256 16.8232 5.46967 16.5303C5.17678 16.2374 5.17678 15.7626 5.46967 15.4697L8.93934 12L5.46967 8.53033C5.17678 8.23744 5.17678 7.76256 5.46967 7.46967ZM12.25 16C12.25 15.5858 12.5858 15.25 13 15.25H18C18.4142 15.25 18.75 15.5858 18.75 16C18.75 16.4142 18.4142 16.75 18 16.75H13C12.5858 16.75 12.25 16.4142 12.25 16Z" fill="black"/>
</g>
</g>
</g>
<defs>
<clipPath id="clip0_232_15068">
<rect width="24" height="24" rx="5" fill="white"/>
</clipPath>
</defs>
</svg>
