<svg width="24" height="24" viewBox="0 0 24 24" fill="none" xmlns="http://www.w3.org/2000/svg">
<g id="text">
<g clip-path="url(#clip0_232_6651)">
<g id="Weight=Dynamic">
<path id="Vector (Stroke)" fill-rule="evenodd" clip-rule="evenodd" d="M4.25 5C4.25 4.58579 4.58579 4.25 5 4.25H19C19.4142 4.25 19.75 4.58579 19.75 5V7C19.75 7.41421 19.4142 7.75 19 7.75C18.5858 7.75 18.25 7.41421 18.25 7V5.75H12.75V18.25H14C14.4142 18.25 14.75 18.5858 14.75 19C14.75 19.4142 14.4142 19.75 14 19.75H10C9.58579 19.75 9.25 19.4142 9.25 19C9.25 18.5858 9.58579 18.25 10 18.25H11.25V5.75H5.75V7C5.75 7.41421 5.41421 7.75 5 7.75C4.58579 7.75 4.25 7.41421 4.25 7V5Z" fill="black"/>
</g>
</g>
</g>
<defs>
<clipPath id="clip0_232_6651">
<rect width="24" height="24" rx="5" fill="white"/>
</clipPath>
</defs>
</svg>
