<svg width="24" height="24" viewBox="0 0 24 24" fill="none" xmlns="http://www.w3.org/2000/svg">
<g id="text-size">
<g clip-path="url(#clip0_232_6775)">
<g id="Weight=Dynamic">
<path id="Vector (Stroke)" fill-rule="evenodd" clip-rule="evenodd" d="M2.25 5C2.25 4.58579 2.58579 4.25 3 4.25H17C17.4142 4.25 17.75 4.58579 17.75 5V7C17.75 7.41421 17.4142 7.75 17 7.75C16.5858 7.75 16.25 7.41421 16.25 7V5.75H10.75V18.25H12C12.4142 18.25 12.75 18.5858 12.75 19C12.75 19.4142 12.4142 19.75 12 19.75H8C7.58579 19.75 7.25 19.4142 7.25 19C7.25 18.5858 7.58579 18.25 8 18.25H9.25V5.75H3.75V7C3.75 7.41421 3.41421 7.75 3 7.75C2.58579 7.75 2.25 7.41421 2.25 7V5ZM12.25 12C12.25 11.5858 12.5858 11.25 13 11.25H21C21.4142 11.25 21.75 11.5858 21.75 12V14C21.75 14.4142 21.4142 14.75 21 14.75C20.5858 14.75 20.25 14.4142 20.25 14V12.75H17.75V18.25H18.5C18.9142 18.25 19.25 18.5858 19.25 19C19.25 19.4142 18.9142 19.75 18.5 19.75H15.5C15.0858 19.75 14.75 19.4142 14.75 19C14.75 18.5858 15.0858 18.25 15.5 18.25H16.25V12.75H13.75V14C13.75 14.4142 13.4142 14.75 13 14.75C12.5858 14.75 12.25 14.4142 12.25 14V12Z" fill="black"/>
</g>
</g>
</g>
<defs>
<clipPath id="clip0_232_6775">
<rect width="24" height="24" rx="5" fill="white"/>
</clipPath>
</defs>
</svg>
