<svg width="24" height="24" viewBox="0 0 24 24" fill="none" xmlns="http://www.w3.org/2000/svg">
<g id="text-box">
<g clip-path="url(#clip0_232_6787)">
<g id="Weight=Dynamic">
<path id="Vector (Stroke)" fill-rule="evenodd" clip-rule="evenodd" d="M2.25 5C2.25 3.48122 3.48122 2.25 5 2.25H19C20.5188 2.25 21.75 3.48122 21.75 5V9.75H22.5C22.9142 9.75 23.25 10.0858 23.25 10.5V13.5C23.25 13.9142 22.9142 14.25 22.5 14.25H21.75V19C21.75 20.5188 20.5188 21.75 19 21.75H5C3.48122 21.75 2.25 20.5188 2.25 19V14.25H1.5C1.08579 14.25 0.75 13.9142 0.75 13.5V10.5C0.75 10.0858 1.08579 9.75 1.5 9.75H2.25V5ZM2.25 11.25V12.75H3.75V11.25H2.25ZM3.75 14.25H4.5C4.91421 14.25 5.25 13.9142 5.25 13.5V10.5C5.25 10.0858 4.91421 9.75 4.5 9.75H3.75V5C3.75 4.30964 4.30964 3.75 5 3.75H19C19.6904 3.75 20.25 4.30964 20.25 5V9.75H19.5C19.0858 9.75 18.75 10.0858 18.75 10.5V13.5C18.75 13.9142 19.0858 14.25 19.5 14.25H20.25V19C20.25 19.6904 19.6904 20.25 19 20.25H5C4.30964 20.25 3.75 19.6904 3.75 19V14.25ZM21.75 12.75V11.25H20.25V12.75H21.75ZM7.25 8C7.25 7.58579 7.58579 7.25 8 7.25H16C16.4142 7.25 16.75 7.58579 16.75 8C16.75 8.41421 16.4142 8.75 16 8.75H12.75L12.75 16C12.75 16.4142 12.4142 16.75 12 16.75C11.5858 16.75 11.25 16.4142 11.25 16L11.25 8.75H8C7.58579 8.75 7.25 8.41421 7.25 8Z" fill="black"/>
</g>
</g>
</g>
<defs>
<clipPath id="clip0_232_6787">
<rect width="24" height="24" rx="5" fill="white"/>
</clipPath>
</defs>
</svg>
