<svg width="24" height="24" viewBox="0 0 24 24" fill="none" xmlns="http://www.w3.org/2000/svg">
<g id="text-magnifying-glass">
<g clip-path="url(#clip0_232_6725)">
<g id="Weight=Dynamic">
<path id="Vector (Stroke)" fill-rule="evenodd" clip-rule="evenodd" d="M2.25 5C2.25 4.58579 2.58579 4.25 3 4.25H15C15.4142 4.25 15.75 4.58579 15.75 5V7C15.75 7.41421 15.4142 7.75 15 7.75C14.5858 7.75 14.25 7.41421 14.25 7V5.75H9.75V16.25H11C11.4142 16.25 11.75 16.5858 11.75 17C11.75 17.4142 11.4142 17.75 11 17.75H7C6.58579 17.75 6.25 17.4142 6.25 17C6.25 16.5858 6.58579 16.25 7 16.25H8.25V5.75H3.75V7C3.75 7.41421 3.41421 7.75 3 7.75C2.58579 7.75 2.25 7.41421 2.25 7V5ZM17 14.75C15.7574 14.75 14.75 15.7574 14.75 17C14.75 18.2426 15.7574 19.25 17 19.25C17.6226 19.25 18.1849 18.9981 18.5931 18.5889C18.9998 18.1811 19.25 17.6205 19.25 17C19.25 15.7574 18.2426 14.75 17 14.75ZM13.25 17C13.25 14.9289 14.9289 13.25 17 13.25C19.0711 13.25 20.75 14.9289 20.75 17C20.75 17.764 20.521 18.4753 20.1286 19.068L21.5303 20.4697C21.8232 20.7626 21.8232 21.2374 21.5303 21.5303C21.2374 21.8232 20.7626 21.8232 20.4697 21.5303L19.068 20.1286C18.4753 20.521 17.764 20.75 17 20.75C14.9289 20.75 13.25 19.0711 13.25 17Z" fill="black"/>
</g>
</g>
</g>
<defs>
<clipPath id="clip0_232_6725">
<rect width="24" height="24" rx="5" fill="white"/>
</clipPath>
</defs>
</svg>
