<svg width="24" height="24" viewBox="0 0 24 24" fill="none" xmlns="http://www.w3.org/2000/svg">
<g id="text-arrows-up-down">
<g clip-path="url(#clip0_232_6665)">
<g id="Weight=Dynamic">
<path id="Vector (Stroke)" fill-rule="evenodd" clip-rule="evenodd" d="M2.25 5C2.25 4.58579 2.58579 4.25 3 4.25H15C15.4142 4.25 15.75 4.58579 15.75 5V7C15.75 7.41421 15.4142 7.75 15 7.75C14.5858 7.75 14.25 7.41421 14.25 7V5.75H9.75V16.25H11C11.4142 16.25 11.75 16.5858 11.75 17C11.75 17.4142 11.4142 17.75 11 17.75H7C6.58579 17.75 6.25 17.4142 6.25 17C6.25 16.5858 6.58579 16.25 7 16.25H8.25V5.75H3.75V7C3.75 7.41421 3.41421 7.75 3 7.75C2.58579 7.75 2.25 7.41421 2.25 7V5ZM17.4697 10.4697C17.7626 10.1768 18.2374 10.1768 18.5303 10.4697L20.5303 12.4697C20.8232 12.7626 20.8232 13.2374 20.5303 13.5303C20.2374 13.8232 19.7626 13.8232 19.4697 13.5303L18.75 12.8107V18.8619L19.4143 18.0315C19.6731 17.708 20.1451 17.6556 20.4685 17.9143C20.792 18.1731 20.8444 18.6451 20.5857 18.9685L18.5857 21.4685C18.4433 21.6464 18.2278 21.75 18 21.75C17.7722 21.75 17.5567 21.6464 17.4143 21.4685L15.4143 18.9685C15.1556 18.6451 15.208 18.1731 15.5315 17.9143C15.8549 17.6556 16.3269 17.708 16.5857 18.0315L17.25 18.8619V12.8107L16.5303 13.5303C16.2374 13.8232 15.7626 13.8232 15.4697 13.5303C15.1768 13.2374 15.1768 12.7626 15.4697 12.4697L17.4697 10.4697Z" fill="black"/>
</g>
</g>
</g>
<defs>
<clipPath id="clip0_232_6665">
<rect width="24" height="24" rx="5" fill="white"/>
</clipPath>
</defs>
</svg>
