<svg width="24" height="24" viewBox="0 0 24 24" fill="none" xmlns="http://www.w3.org/2000/svg">
<g id="three-points-circle">
<g clip-path="url(#clip0_232_519)">
<g id="Weight=Dynamic">
<g id="Vector">
</g>
<path id="Vector (Stroke)" fill-rule="evenodd" clip-rule="evenodd" d="M4.44583 6.66044C3.37771 8.16881 2.75 10.0111 2.75 12C2.75 13.9889 3.37771 15.8312 4.44583 17.3396C4.61998 17.2815 4.80632 17.25 5 17.25C5.9665 17.25 6.75 18.0335 6.75 19C6.75 19.1937 6.71853 19.38 6.66043 19.5542C8.16881 20.6223 10.0111 21.25 12 21.25C13.9889 21.25 15.8312 20.6223 17.3396 19.5542C17.2815 19.38 17.25 19.1937 17.25 19C17.25 18.0335 18.0335 17.25 19 17.25C19.1937 17.25 19.38 17.2815 19.5542 17.3396C20.6223 15.8312 21.25 13.9889 21.25 12C21.25 6.89137 17.1086 2.75 12 2.75C10.0111 2.75 8.16881 3.37771 6.66044 4.44583C6.71853 4.61998 6.75 4.80632 6.75 5C6.75 5.9665 5.9665 6.75 5 6.75C4.80632 6.75 4.61998 6.71853 4.44583 6.66044ZM3.35766 5.6057C2.03328 7.39273 1.25 9.60489 1.25 12C1.25 14.3951 2.03328 16.6073 3.35766 18.3943C3.28803 18.583 3.25 18.7871 3.25 19C3.25 19.9665 4.0335 20.75 5 20.75C5.21292 20.75 5.41695 20.712 5.60569 20.6423C7.39272 21.9667 9.60489 22.75 12 22.75C14.3951 22.75 16.6073 21.9667 18.3943 20.6423C18.583 20.712 18.7871 20.75 19 20.75C19.9665 20.75 20.75 19.9665 20.75 19C20.75 18.7871 20.712 18.583 20.6423 18.3943C21.9667 16.6073 22.75 14.3951 22.75 12C22.75 6.06294 17.9371 1.25 12 1.25C9.60489 1.25 7.39273 2.03328 5.6057 3.35766C5.41696 3.28803 5.21292 3.25 5 3.25C4.0335 3.25 3.25 4.0335 3.25 5C3.25 5.21292 3.28803 5.41696 3.35766 5.6057ZM5 8.25C5.41421 8.25 5.75 8.58579 5.75 9V10.5C5.75 10.9142 5.41421 11.25 5 11.25C4.58579 11.25 4.25 10.9142 4.25 10.5V9C4.25 8.58579 4.58579 8.25 5 8.25ZM5 12.75C5.41421 12.75 5.75 13.0858 5.75 13.5V15C5.75 15.4142 5.41421 15.75 5 15.75C4.58579 15.75 4.25 15.4142 4.25 15V13.5C4.25 13.0858 4.58579 12.75 5 12.75ZM8.25 19C8.25 18.5858 8.58579 18.25 9 18.25H10.5C10.9142 18.25 11.25 18.5858 11.25 19C11.25 19.4142 10.9142 19.75 10.5 19.75H9C8.58579 19.75 8.25 19.4142 8.25 19ZM12.75 19C12.75 18.5858 13.0858 18.25 13.5 18.25H15C15.4142 18.25 15.75 18.5858 15.75 19C15.75 19.4142 15.4142 19.75 15 19.75H13.5C13.0858 19.75 12.75 19.4142 12.75 19Z" fill="black"/>
</g>
</g>
</g>
<defs>
<clipPath id="clip0_232_519">
<rect width="24" height="24" rx="5" fill="white"/>
</clipPath>
</defs>
</svg>
