<svg width="24" height="24" viewBox="0 0 24 24" fill="none" xmlns="http://www.w3.org/2000/svg">
<g id="threads">
<g clip-path="url(#clip0_232_14237)">
<g id="Weight=Dynamic">
<path id="Vector (Stroke)" fill-rule="evenodd" clip-rule="evenodd" d="M6.11682 3.64629C7.93271 1.90418 10.399 1.25 13 1.25C16.7719 1.25 20.268 3.21216 21.5487 7.19104C21.6756 7.58533 21.4589 8.00785 21.0646 8.13477C20.6703 8.26169 20.2478 8.04494 20.1209 7.65065C19.0751 4.40174 16.244 2.75 13 2.75C10.6304 2.75 8.59672 3.34582 7.15526 4.72871C5.72005 6.1056 4.75 8.38024 4.75 12C4.75 15.6198 5.72005 17.8944 7.15526 19.2713C8.59672 20.6542 10.6304 21.25 13 21.25C15.7455 21.25 17.9754 19.784 18.8975 18.0157C19.3538 17.1407 19.4849 16.2081 19.2385 15.325C19.0049 14.4877 18.4107 13.6191 17.2787 12.8519C17.1927 13.9507 16.9093 14.9678 16.3342 15.7834C15.5284 16.926 14.2391 17.55 12.5 17.55C11.5776 17.55 10.8387 17.3504 10.2573 17.0095C9.6752 16.6681 9.29333 16.2099 9.0476 15.7587C8.80482 15.313 8.6949 14.8751 8.64432 14.5544C8.61877 14.3924 8.60759 14.2555 8.60288 14.1557C8.60052 14.1056 8.59976 14.0645 8.59967 14.0337C8.59963 14.0183 8.59975 14.0054 8.59992 13.9953L8.60001 13.9911C8.60472 12.1349 10.0764 11.1319 11.6333 10.7376C12.8784 10.4223 14.3532 10.4296 15.7207 10.7131C15.716 10.6741 15.7112 10.6349 15.7061 10.5956C15.5296 9.22273 14.7162 8.36521 13.7203 8.02688C12.707 7.68265 11.4459 7.85877 10.3841 8.71253C10.0613 8.97208 9.58917 8.9208 9.32962 8.59799C9.07007 8.27518 9.12136 7.80308 9.44417 7.54353C10.8868 6.38364 12.6807 6.08953 14.2028 6.6066C15.7422 7.12957 16.9445 8.46486 17.1939 10.4044C17.2273 10.6646 17.2539 10.9223 17.2729 11.1766C17.4654 11.254 17.6533 11.3381 17.8354 11.4292C17.8585 11.4407 17.8809 11.4534 17.9026 11.4673C19.4023 12.4215 20.3197 13.6185 20.6833 14.9219C21.0464 16.2231 20.8337 17.5468 20.2275 18.7093C19.0246 21.016 16.2545 22.75 13 22.75C10.399 22.75 7.93271 22.0958 6.11682 20.3537C4.29466 18.6056 3.25 15.8802 3.25 12C3.25 8.11976 4.29466 5.3944 6.11682 3.64629ZM15.8059 12.2724C14.5332 11.9437 13.1175 11.9091 12.0016 12.1917C10.7158 12.5173 10.1 13.1594 10.1 14C10.1 14.007 10.0999 14.0141 10.0997 14.0211L10.0997 14.0292C10.0997 14.0394 10.1 14.0584 10.1012 14.085C10.1037 14.1383 10.1101 14.2201 10.126 14.3206C10.1582 14.5249 10.2264 14.787 10.3649 15.0413C10.5004 15.2901 10.7029 15.5319 11.0161 15.7155C11.33 15.8996 11.7974 16.05 12.5 16.05C13.8478 16.05 14.6348 15.5904 15.1083 14.9189C15.5461 14.2981 15.7822 13.4028 15.8059 12.2724Z" fill="black"/>
</g>
</g>
</g>
<defs>
<clipPath id="clip0_232_14237">
<rect width="24" height="24" rx="5" fill="white"/>
</clipPath>
</defs>
</svg>
