<svg width="24" height="24" viewBox="0 0 24 24" fill="none" xmlns="http://www.w3.org/2000/svg">
<g id="three-stars">
<g clip-path="url(#clip0_232_11418)">
<g id="Weight=Dynamic">
<path id="Vector (Stroke)" fill-rule="evenodd" clip-rule="evenodd" d="M10.9958 2.89219C11.3997 2.03594 12.6008 2.03594 13.0046 2.89219L13.8733 4.73414L15.8022 5.02922C16.7503 5.17426 17.0365 6.32189 16.4253 6.94497L15.0105 8.38722L15.3458 10.433C15.4848 11.2816 14.6009 12.0993 13.7164 11.6125L12.0002 10.6679L10.2841 11.6125C9.3996 12.0993 8.51561 11.2816 8.65468 10.433L8.98992 8.38722L7.57512 6.94497C6.96391 6.32189 7.25015 5.17426 8.19822 5.02922L10.1271 4.73414L10.9958 2.89219ZM12.0002 4.27902L11.3135 5.73507C11.2071 5.9608 10.9953 6.11878 10.7486 6.15652L9.14375 6.40203L10.3269 7.60816C10.4943 7.77874 10.5703 8.01885 10.5317 8.25466L10.2598 9.91362L11.6386 9.15473C11.8637 9.0308 12.1367 9.0308 12.3619 9.15473L13.7407 9.91362L13.4688 8.25466C13.4302 8.01885 13.5062 7.77874 13.6735 7.60816L14.8567 6.40203L13.2519 6.15652C13.0052 6.11878 12.7934 5.9608 12.6869 5.73507L12.0002 4.27902ZM4.99584 11.8922C5.39967 11.0359 6.60078 11.0359 7.00461 11.8922L7.87332 13.7341L9.80223 14.0292C10.7503 14.1743 11.0365 15.3219 10.4253 15.945L9.01052 17.3872L9.34577 19.433C9.48484 20.2816 8.60085 21.0993 7.71639 20.6125L6.00022 19.6679L4.28405 20.6125C3.3996 21.0993 2.51561 20.2816 2.65468 19.433L2.98992 17.3872L1.57512 15.945C0.963908 15.3219 1.25015 14.1743 2.19822 14.0292L4.12713 13.7341L4.99584 11.8922ZM18.0002 13.279L17.3135 14.7351C17.2071 14.9608 16.9953 15.1188 16.7486 15.1565L15.1437 15.402L16.3269 16.6082C16.4943 16.7787 16.5703 17.0189 16.5317 17.2547L16.2598 18.9136L17.6386 18.1547C17.8638 18.0308 18.1367 18.0308 18.3619 18.1547L19.7407 18.9136L19.4688 17.2547C19.4302 17.0189 19.5062 16.7787 19.6735 16.6082L20.8567 15.402L19.2519 15.1565C19.0052 15.1188 18.7934 14.9608 18.6869 14.7351L18.0002 13.279ZM6.00022 13.279L5.31352 14.7351C5.20706 14.9608 4.99529 15.1188 4.74859 15.1565L3.14375 15.402L4.32693 16.6082C4.49426 16.7787 4.5703 17.0189 4.53165 17.2547L4.2598 18.9136L5.63858 18.1547C5.86375 18.0308 6.1367 18.0308 6.36187 18.1547L7.74065 18.9136L7.46879 17.2547C7.43015 17.0189 7.50619 16.7787 7.67352 16.6082L8.8567 15.402L7.25186 15.1565C7.00516 15.1188 6.79339 14.9608 6.68693 14.7351L6.00022 13.279ZM16.9958 11.8922C17.3997 11.0359 18.6008 11.0359 19.0046 11.8922L19.8733 13.7341L21.8022 14.0292C22.7503 14.1743 23.0365 15.3219 22.4253 15.945L21.0105 17.3872L21.3458 19.433C21.4848 20.2816 20.6009 21.0993 19.7164 20.6125L18.0002 19.6679L16.2841 20.6125C15.3996 21.0993 14.5156 20.2816 14.6547 19.433L14.9899 17.3872L13.5751 15.945C12.9639 15.3219 13.2501 14.1743 14.1982 14.0292L16.1271 13.7341L16.9958 11.8922Z" fill="black"/>
</g>
</g>
</g>
<defs>
<clipPath id="clip0_232_11418">
<rect width="24" height="24" rx="5" fill="white"/>
</clipPath>
</defs>
</svg>
