<svg width="24" height="24" viewBox="0 0 24 24" fill="none" xmlns="http://www.w3.org/2000/svg">
<g id="thumbs-up">
<g clip-path="url(#clip0_232_14276)">
<g id="Weight=Dynamic">
<path id="Vector (Stroke)" fill-rule="evenodd" clip-rule="evenodd" d="M13.3798 3.80039C12.9962 3.32088 12.2521 3.37094 11.9362 3.89749L9.22572 8.41488C8.88545 8.98201 8.35852 9.39843 7.75 9.60465V19.25H16.4724C17.0361 19.25 17.53 18.8727 17.6784 18.3289L19.5875 11.3289C19.8043 10.5337 19.2057 9.75001 18.3815 9.75001H13.8064C12.9021 9.75001 12.2535 8.87827 12.5134 8.01209L13.5358 4.60406C13.6189 4.32682 13.5606 4.02641 13.3798 3.80039ZM4.1 20.75C3.35442 20.75 2.75 20.1456 2.75 19.4V9.60001C2.75 8.85443 3.35442 8.25001 4.1 8.25001H6.86762C7.3067 8.25001 7.71358 8.01964 7.93949 7.64313L10.6499 3.12575C11.5037 1.70284 13.5145 1.56759 14.5511 2.86335C15.0398 3.47412 15.1973 4.2859 14.9725 5.03508L14.008 8.25001H18.3815C20.1948 8.25001 21.5117 9.9742 21.0346 11.7236L19.1255 18.7236C18.7992 19.92 17.7125 20.75 16.4724 20.75H4.1ZM6.25 19.25V9.75001H4.25V19.25H6.25Z" fill="black"/>
</g>
</g>
</g>
<defs>
<clipPath id="clip0_232_14276">
<rect width="24" height="24" rx="5" fill="white"/>
</clipPath>
</defs>
</svg>
