<svg width="24" height="24" viewBox="0 0 24 24" fill="none" xmlns="http://www.w3.org/2000/svg">
<g id="thumbs-down">
<g clip-path="url(#clip0_232_14141)">
<g id="Weight=Dynamic">
<path id="Vector (Stroke)" fill-rule="evenodd" clip-rule="evenodd" d="M2.75 4.1C2.75 3.35442 3.35442 2.75 4.1 2.75H16.4724C17.7125 2.75 18.7992 3.58001 19.1255 4.77643L21.0346 11.7764C21.5117 13.5258 20.1948 15.25 18.3815 15.25H14.008L14.9725 18.4649C15.1973 19.2141 15.0398 20.0259 14.5511 20.6367C13.5145 21.9324 11.5037 21.7972 10.6499 20.3743L7.93949 15.8569C7.71358 15.4804 7.3067 15.25 6.86762 15.25H4.1C3.35442 15.25 2.75 14.6456 2.75 13.9V4.1ZM6.25 4.25H4.25V13.75H6.25V4.25ZM7.75 13.8954V4.25H16.4724C17.0361 4.25 17.53 4.62728 17.6784 5.1711L19.5875 12.1711C19.8043 12.9663 19.2057 13.75 18.3815 13.75H13.8064C12.9021 13.75 12.2535 14.6217 12.5134 15.4879L13.5358 18.896C13.6189 19.1732 13.5606 19.4736 13.3798 19.6996C12.9962 20.1791 12.2521 20.1291 11.9362 19.6025L9.22572 15.0851C8.88545 14.518 8.35852 14.1016 7.75 13.8954Z" fill="black"/>
</g>
</g>
</g>
<defs>
<clipPath id="clip0_232_14141">
<rect width="24" height="24" rx="5" fill="white"/>
</clipPath>
</defs>
</svg>
