<svg width="24" height="24" viewBox="0 0 24 24" fill="none" xmlns="http://www.w3.org/2000/svg">
<g id="tiff-format">
<g clip-path="url(#clip0_232_12512)">
<g id="Weight=Dynamic">
<path id="Vector (Stroke)" fill-rule="evenodd" clip-rule="evenodd" d="M3.25 3.6C3.25 2.85441 3.85442 2.25 4.6 2.25H19.4C20.1456 2.25 20.75 2.85442 20.75 3.6V6C20.75 6.41421 20.4142 6.75 20 6.75C19.5858 6.75 19.25 6.41421 19.25 6V3.75H4.75V6C4.75 6.41421 4.41421 6.75 4 6.75C3.58579 6.75 3.25 6.41421 3.25 6V3.6ZM2.75 9C2.75 8.58579 3.08579 8.25 3.5 8.25H6.5C6.91421 8.25 7.25 8.58579 7.25 9C7.25 9.41421 6.91421 9.75 6.5 9.75H5.75V15C5.75 15.4142 5.41421 15.75 5 15.75C4.58579 15.75 4.25 15.4142 4.25 15V9.75H3.5C3.08579 9.75 2.75 9.41421 2.75 9ZM9 8.25C9.41421 8.25 9.75 8.58579 9.75 9V15C9.75 15.4142 9.41421 15.75 9 15.75C8.58579 15.75 8.25 15.4142 8.25 15V9C8.25 8.58579 8.58579 8.25 9 8.25ZM11.25 9C11.25 8.58579 11.5858 8.25 12 8.25H15C15.4142 8.25 15.75 8.58579 15.75 9C15.75 9.41421 15.4142 9.75 15 9.75H12.75V11.25H14.5C14.9142 11.25 15.25 11.5858 15.25 12C15.25 12.4142 14.9142 12.75 14.5 12.75H12.75V15C12.75 15.4142 12.4142 15.75 12 15.75C11.5858 15.75 11.25 15.4142 11.25 15V9ZM16.75 9C16.75 8.58579 17.0858 8.25 17.5 8.25H20.5C20.9142 8.25 21.25 8.58579 21.25 9C21.25 9.41421 20.9142 9.75 20.5 9.75H18.25V11.25H20C20.4142 11.25 20.75 11.5858 20.75 12C20.75 12.4142 20.4142 12.75 20 12.75H18.25V15C18.25 15.4142 17.9142 15.75 17.5 15.75C17.0858 15.75 16.75 15.4142 16.75 15V9ZM4 17.25C4.41421 17.25 4.75 17.5858 4.75 18V20.25H19.25V18C19.25 17.5858 19.5858 17.25 20 17.25C20.4142 17.25 20.75 17.5858 20.75 18V20.4C20.75 21.1456 20.1456 21.75 19.4 21.75H4.6C3.85442 21.75 3.25 21.1456 3.25 20.4V18C3.25 17.5858 3.58579 17.25 4 17.25Z" fill="black"/>
</g>
</g>
</g>
<defs>
<clipPath id="clip0_232_12512">
<rect width="24" height="24" rx="5" fill="white"/>
</clipPath>
</defs>
</svg>
