<svg width="24" height="24" viewBox="0 0 24 24" fill="none" xmlns="http://www.w3.org/2000/svg">
<g id="tiktok">
<g clip-path="url(#clip0_232_14004)">
<g id="Weight=Dynamic">
<path id="Vector (Stroke)" fill-rule="evenodd" clip-rule="evenodd" d="M2.25 8C2.25 4.82436 4.82436 2.25 8 2.25H16C19.1756 2.25 21.75 4.82436 21.75 8V16C21.75 19.1756 19.1756 21.75 16 21.75H8C4.82436 21.75 2.25 19.1756 2.25 16V8ZM8 3.75C5.65279 3.75 3.75 5.65279 3.75 8V16C3.75 18.3472 5.65279 20.25 8 20.25H16C18.3472 20.25 20.25 18.3472 20.25 16V8C20.25 5.65279 18.3472 3.75 16 3.75H8ZM12.8799 5.25968C13.243 5.20076 13.5952 5.41386 13.7115 5.76283C13.8434 6.1584 14.1812 6.79926 14.7414 7.33108C15.2888 7.8508 16.0281 8.25 17 8.25C17.4142 8.25 17.75 8.58579 17.75 9C17.75 9.41421 17.4142 9.75 17 9.75C15.5973 9.75 14.5169 9.1704 13.75 8.45779V15C13.75 17.0711 12.0711 18.75 10 18.75C7.92893 18.75 6.25 17.0711 6.25 15C6.25 12.9289 7.92893 11.25 10 11.25C10.4142 11.25 10.75 11.5858 10.75 12C10.75 12.4142 10.4142 12.75 10 12.75C8.75736 12.75 7.75 13.7574 7.75 15C7.75 16.2426 8.75736 17.25 10 17.25C11.2426 17.25 12.25 16.2426 12.25 15V6C12.25 5.63216 12.5168 5.31861 12.8799 5.25968Z" fill="black"/>
</g>
</g>
</g>
<defs>
<clipPath id="clip0_232_14004">
<rect width="24" height="24" rx="5" fill="white"/>
</clipPath>
</defs>
</svg>
