<svg width="24" height="24" viewBox="0 0 24 24" fill="none" xmlns="http://www.w3.org/2000/svg">
<g id="timer-off">
<g clip-path="url(#clip0_232_11864)">
<g id="Weight=Dynamic">
<path id="Vector (Stroke)" fill-rule="evenodd" clip-rule="evenodd" d="M8.25 2C8.25 1.58579 8.58579 1.25 9 1.25H15C15.4142 1.25 15.75 1.58579 15.75 2C15.75 2.41421 15.4142 2.75 15 2.75H9C8.58579 2.75 8.25 2.41421 8.25 2ZM12 6.75C11.1093 6.75 10.2578 6.91027 9.47148 7.2029C9.08328 7.34738 8.65146 7.1498 8.50698 6.7616C8.36251 6.37339 8.56009 5.94158 8.94829 5.7971C9.89945 5.44311 10.928 5.25 12 5.25C16.8325 5.25 20.75 9.16751 20.75 14C20.75 15.159 20.5243 16.2671 20.1137 17.2814C19.9583 17.6654 19.521 17.8506 19.1371 17.6952C18.7531 17.5398 18.5679 17.1025 18.7233 16.7186C19.0627 15.88 19.25 14.9628 19.25 14C19.25 9.99594 16.0041 6.75 12 6.75ZM4.47905 6.46045C4.77704 6.17274 5.25184 6.18107 5.53955 6.47905L11.25 12.3934V10C11.25 9.58579 11.5858 9.25 12 9.25C12.4142 9.25 12.75 9.58579 12.75 10V13.947L19.5396 20.9791C19.8273 21.277 19.8189 21.7518 19.5209 22.0396C19.223 22.3273 18.7482 22.3189 18.4604 22.0209L17.3795 20.9014C15.8958 22.0594 14.0277 22.75 12 22.75C7.16751 22.75 3.25 18.8325 3.25 14C3.25 11.8617 4.01783 9.90144 5.29165 8.38184L4.46045 7.52095C4.17274 7.22296 4.18107 6.74816 4.47905 6.46045ZM6.34054 9.46818C5.34484 10.7098 4.75 12.2848 4.75 14C4.75 18.0041 7.99594 21.25 12 21.25C13.6241 21.25 15.1221 20.7168 16.3307 19.8151L6.34054 9.46818Z" fill="black"/>
</g>
</g>
</g>
<defs>
<clipPath id="clip0_232_11864">
<rect width="24" height="24" rx="5" fill="white"/>
</clipPath>
</defs>
</svg>
