<svg width="24" height="24" viewBox="0 0 24 24" fill="none" xmlns="http://www.w3.org/2000/svg">
<g id="tools">
<g clip-path="url(#clip0_232_15695)">
<g id="Weight=Dynamic">
<path id="Vector (Stroke)" fill-rule="evenodd" clip-rule="evenodd" d="M3.3733 1.13082C3.61665 0.887468 3.99439 0.840965 4.2895 1.01803L7.82503 3.13935C8.12646 3.32021 8.26183 3.68616 8.15067 4.01964L7.59014 5.70122L8.87014 6.98122C9.04254 5.65154 9.57773 4.36129 10.5803 3.35874C11.588 2.351 12.9866 1.7647 14.3509 1.56647C15.7071 1.36942 17.1398 1.54076 18.214 2.18529C18.412 2.30412 18.5443 2.50755 18.5725 2.73677C18.6007 2.966 18.5218 3.19543 18.3585 3.35874L15.5098 6.20739L15.3332 8.15179L17.2776 7.97516L20.1262 5.12651C20.2895 4.9632 20.519 4.88424 20.7482 4.91246C20.9774 4.94068 21.1808 5.07293 21.2997 5.27097C21.9442 6.34518 22.1155 7.77786 21.9185 9.13403C21.7203 10.4983 21.134 11.8969 20.1262 12.9047C19.6412 13.3897 19.0889 13.7656 18.4972 14.0438L21.6007 17.1473C22.6747 18.2213 22.6747 19.9625 21.6007 21.0364C20.5268 22.1104 18.7856 22.1104 17.7116 21.0364L12.0249 15.3497L6.3381 21.0364C5.26416 22.1104 3.52295 22.1104 2.44901 21.0364C1.37507 19.9625 1.37507 18.2213 2.44901 17.1473L9.18559 10.4108C9.05438 9.99905 8.95469 9.56653 8.89066 9.12306L6.52948 6.76188L4.8479 7.32241C4.51442 7.43357 4.14847 7.2982 3.96761 6.99677L1.84629 3.46123C1.66923 3.16613 1.71573 2.78838 1.95908 2.54503L3.3733 1.13082ZM6.13913 5.31086L6.53739 4.11605L4.01989 2.60555L3.43381 3.19162L4.94432 5.70913L6.13913 5.31086ZM13.1061 14.3095L18.7723 19.9758C19.2605 20.4639 20.0519 20.4639 20.5401 19.9758C21.0282 19.4876 21.0282 18.6962 20.5401 18.208L16.8873 14.5552C15.614 14.79 14.2801 14.6774 13.1061 14.3095ZM14.5666 3.05088C13.449 3.21327 12.3727 3.68763 11.6409 4.4194C10.2582 5.80217 10.0014 8.08458 10.6304 10.0036C10.7852 10.4761 10.6881 11.0295 10.3031 11.4146L3.50967 18.208C3.02152 18.6962 3.02152 19.4876 3.50967 19.9758C3.99783 20.4639 4.78928 20.4639 5.27744 19.9758L12.3485 12.9047C12.5593 12.6939 12.8749 12.628 13.1525 12.7367C15.1201 13.5079 17.5989 13.3107 19.0656 11.844C19.7973 11.1122 20.2717 10.036 20.4341 8.91835C20.5344 8.22821 20.51 7.56417 20.3802 6.99381L18.1462 9.22784C18.0221 9.35192 17.8585 9.42856 17.6837 9.44444L14.5727 9.72705C14.351 9.74718 14.1319 9.66783 13.9745 9.51046C13.8171 9.35308 13.7378 9.13393 13.7579 8.91227L14.0405 5.80123C14.0564 5.62648 14.133 5.46283 14.2571 5.33876L16.4912 3.10472C15.9208 2.97497 15.2568 2.95061 14.5666 3.05088Z" fill="black"/>
</g>
</g>
</g>
<defs>
<clipPath id="clip0_232_15695">
<rect width="24" height="24" rx="5" fill="white"/>
</clipPath>
</defs>
</svg>
