<svg width="24" height="24" viewBox="0 0 24 24" fill="none" xmlns="http://www.w3.org/2000/svg">
<g id="tournament">
<g clip-path="url(#clip0_232_8108)">
<g id="Weight=Dynamic">
<path id="Vector (Stroke)" fill-rule="evenodd" clip-rule="evenodd" d="M2.25 3C2.25 2.58579 2.58579 2.25 3 2.25H8.00001C8.41422 2.25 8.75001 2.58579 8.75001 3V5.25H15C15.4142 5.25 15.75 5.58579 15.75 6V11.25H22C22.4142 11.25 22.75 11.5858 22.75 12C22.75 12.4142 22.4142 12.75 22 12.75H15.75V18C15.75 18.4142 15.4142 18.75 15 18.75H8.75L8.75001 21C8.75001 21.1989 8.67099 21.3897 8.53034 21.5303C8.38968 21.671 8.19892 21.75 8.00001 21.75H3C2.58579 21.75 2.25 21.4142 2.25 21C2.25 20.5858 2.58579 20.25 3 20.25H7.25V15.75H3C2.58579 15.75 2.25 15.4142 2.25 15C2.25 14.5858 2.58579 14.25 3 14.25H8.00001C8.19892 14.25 8.38968 14.329 8.53034 14.4697C8.67099 14.6103 8.75001 14.8011 8.75001 15L8.75 17.25H14.25V6.75H8.75001V9C8.75001 9.41421 8.41422 9.75 8.00001 9.75H3C2.58579 9.75 2.25 9.41421 2.25 9C2.25 8.58579 2.58579 8.25 3 8.25H7.25001V3.75H3C2.58579 3.75 2.25 3.41421 2.25 3Z" fill="black"/>
</g>
</g>
</g>
<defs>
<clipPath id="clip0_232_8108">
<rect width="24" height="24" rx="5" fill="white"/>
</clipPath>
</defs>
</svg>
