<svg width="24" height="24" viewBox="0 0 24 24" fill="none" xmlns="http://www.w3.org/2000/svg">
<g id="tower-no-access">
<g clip-path="url(#clip0_232_13060)">
<g id="Weight=Dynamic">
<path id="Vector (Stroke)" fill-rule="evenodd" clip-rule="evenodd" d="M2.25 2.6C2.25 1.85442 2.85442 1.25 3.6 1.25H5.4C6.14558 1.25 6.75 1.85442 6.75 2.6V4.25H9.25V2.6C9.25 1.85442 9.85442 1.25 10.6 1.25H13.4C14.1456 1.25 14.75 1.85442 14.75 2.6V4.25H17.25V2.6C17.25 1.85442 17.8544 1.25 18.6 1.25H20.4C21.1456 1.25 21.75 1.85441 21.75 2.6V7.81833C21.75 8.08486 21.6711 8.34542 21.5233 8.56718L20.624 9.91603C20.3943 10.2607 19.9286 10.3538 19.584 10.124C19.2393 9.89427 19.1462 9.42862 19.376 9.08397L20.25 7.77292V2.75H18.75V4.4C18.75 5.14558 18.1456 5.75 17.4 5.75H14.6C13.8544 5.75 13.25 5.14558 13.25 4.4V2.75H10.75V4.4C10.75 5.14558 10.1456 5.75 9.4 5.75H6.6C5.85442 5.75 5.25 5.14558 5.25 4.4V2.75H3.75V7.77292L5.52327 10.4328C5.67111 10.6546 5.75 10.9151 5.75 11.1817V20C5.75 20.6904 6.30964 21.25 7 21.25H9C9.41421 21.25 9.75 21.5858 9.75 22C9.75 22.4142 9.41421 22.75 9 22.75H7C5.48122 22.75 4.25 21.5188 4.25 20V11.2271L2.47673 8.56718C2.32889 8.34542 2.25 8.08486 2.25 7.81833V2.6ZM17 14.75C15.2051 14.75 13.75 16.2051 13.75 18C13.75 18.6145 13.92 19.1885 14.2162 19.6784L18.7337 15.2504C18.2319 14.9332 17.6377 14.75 17 14.75ZM19.7838 16.3216L15.2663 20.7496C15.7681 21.0668 16.3623 21.25 17 21.25C18.7949 21.25 20.25 19.7949 20.25 18C20.25 17.3855 20.08 16.8115 19.7838 16.3216ZM12.25 18C12.25 15.3766 14.3766 13.25 17 13.25C18.3286 13.25 19.5309 13.7965 20.3921 14.675C21.2313 15.531 21.75 16.7057 21.75 18C21.75 20.6234 19.6234 22.75 17 22.75C15.6714 22.75 14.4691 22.2035 13.6079 21.325C12.7687 20.469 12.25 19.2943 12.25 18Z" fill="black"/>
</g>
</g>
</g>
<defs>
<clipPath id="clip0_232_13060">
<rect width="24" height="24" rx="5" fill="white"/>
</clipPath>
</defs>
</svg>
