<svg width="24" height="24" viewBox="0 0 24 24" fill="none" xmlns="http://www.w3.org/2000/svg">
<g id="tower-warning">
<g clip-path="url(#clip0_232_13050)">
<g id="Weight=Dynamic">
<path id="Vector (Stroke)" fill-rule="evenodd" clip-rule="evenodd" d="M2.25 2.6C2.25 1.85442 2.85442 1.25 3.6 1.25H5.4C6.14558 1.25 6.75 1.85442 6.75 2.6V4.25H9.25V2.6C9.25 1.85442 9.85442 1.25 10.6 1.25H13.4C14.1456 1.25 14.75 1.85442 14.75 2.6V4.25H17.25V2.6C17.25 1.85442 17.8544 1.25 18.6 1.25H20.4C21.1456 1.25 21.75 1.85441 21.75 2.6V7.81833C21.75 8.08486 21.6711 8.34542 21.5233 8.56718L19.75 11.2271V20C19.75 21.5188 18.5188 22.75 17 22.75H7C5.48122 22.75 4.25 21.5188 4.25 20V11.2271L2.47673 8.56718C2.32889 8.34542 2.25 8.08486 2.25 7.81833V2.6ZM3.75 2.75V7.77292L5.52327 10.4328C5.67111 10.6546 5.75 10.9151 5.75 11.1817V20C5.75 20.6904 6.30964 21.25 7 21.25H17C17.6904 21.25 18.25 20.6904 18.25 20V11.1817C18.25 10.9151 18.3289 10.6546 18.4767 10.4328L19.1008 10.8488L18.4767 10.4328L20.25 7.77292V2.75H18.75V4.4C18.75 5.14558 18.1456 5.75 17.4 5.75H14.6C13.8544 5.75 13.25 5.14558 13.25 4.4V2.75H10.75V4.4C10.75 5.14558 10.1456 5.75 9.4 5.75H6.6C5.85442 5.75 5.25 5.14558 5.25 4.4V2.75H3.75ZM12 9.25C12.4142 9.25 12.75 9.58579 12.75 10V13C12.75 13.4142 12.4142 13.75 12 13.75C11.5858 13.75 11.25 13.4142 11.25 13V10C11.25 9.58579 11.5858 9.25 12 9.25ZM12.5117 16.4414C12.8196 16.7185 12.8446 17.1927 12.5675 17.5006L12.5575 17.5117C12.2804 17.8196 11.8062 17.8446 11.4983 17.5675C11.1904 17.2904 11.1654 16.8162 11.4425 16.5083L11.4525 16.4972C11.7296 16.1893 12.2038 16.1643 12.5117 16.4414Z" fill="black"/>
</g>
</g>
</g>
<defs>
<clipPath id="clip0_232_13050">
<rect width="24" height="24" rx="5" fill="white"/>
</clipPath>
</defs>
</svg>
