<svg width="24" height="24" viewBox="0 0 24 24" fill="none" xmlns="http://www.w3.org/2000/svg">
<g id="tower-check">
<g clip-path="url(#clip0_232_13068)">
<g id="Weight=Dynamic">
<path id="Vector (Stroke)" fill-rule="evenodd" clip-rule="evenodd" d="M2.25 2.6C2.25 1.85442 2.85442 1.25 3.6 1.25H5.4C6.14558 1.25 6.75 1.85442 6.75 2.6V4.25H9.25V2.6C9.25 1.85442 9.85442 1.25 10.6 1.25H13.4C14.1456 1.25 14.75 1.85442 14.75 2.6V4.25H17.25V2.6C17.25 1.85442 17.8544 1.25 18.6 1.25H20.4C21.1456 1.25 21.75 1.85441 21.75 2.6V7.81833C21.75 8.08486 21.6711 8.34542 21.5233 8.56718L19.75 11.2271V13.5C19.75 13.9142 19.4142 14.25 19 14.25C18.5858 14.25 18.25 13.9142 18.25 13.5V11.1817C18.25 10.9151 18.3289 10.6546 18.4767 10.4328L19.1008 10.8488L18.4767 10.4328L20.25 7.77292V2.75H18.75V4.4C18.75 5.14558 18.1456 5.75 17.4 5.75H14.6C13.8544 5.75 13.25 5.14558 13.25 4.4V2.75H10.75V4.4C10.75 5.14558 10.1456 5.75 9.4 5.75H6.6C5.85442 5.75 5.25 5.14558 5.25 4.4V2.75H3.75V7.77292L5.52327 10.4328C5.67111 10.6546 5.75 10.9151 5.75 11.1817V20C5.75 20.6904 6.30964 21.25 7 21.25H9C9.41421 21.25 9.75 21.5858 9.75 22C9.75 22.4142 9.41421 22.75 9 22.75H7C5.48122 22.75 4.25 21.5188 4.25 20V11.2271L2.47673 8.56718C2.32889 8.34542 2.25 8.08486 2.25 7.81833V2.6ZM21.5303 16.4697C21.8232 16.7626 21.8232 17.2374 21.5303 17.5303L16.5303 22.5303C16.2374 22.8232 15.7626 22.8232 15.4697 22.5303L12.4697 19.5303C12.1768 19.2374 12.1768 18.7626 12.4697 18.4697C12.7626 18.1768 13.2374 18.1768 13.5303 18.4697L16 20.9393L20.4697 16.4697C20.7626 16.1768 21.2374 16.1768 21.5303 16.4697Z" fill="black"/>
</g>
</g>
</g>
<defs>
<clipPath id="clip0_232_13068">
<rect width="24" height="24" rx="5" fill="white"/>
</clipPath>
</defs>
</svg>
