<svg width="24" height="24" viewBox="0 0 24 24" fill="none" xmlns="http://www.w3.org/2000/svg">
<g id="trademark">
<g clip-path="url(#clip0_232_12134)">
<g id="Weight=Dynamic">
<path id="Vector (Stroke)" fill-rule="evenodd" clip-rule="evenodd" d="M12 2.75C6.89137 2.75 2.75 6.89137 2.75 12C2.75 17.1086 6.89137 21.25 12 21.25C17.1086 21.25 21.25 17.1086 21.25 12C21.25 6.89137 17.1086 2.75 12 2.75ZM1.25 12C1.25 6.06294 6.06294 1.25 12 1.25C17.9371 1.25 22.75 6.06294 22.75 12C22.75 17.9371 17.9371 22.75 12 22.75C6.06294 22.75 1.25 17.9371 1.25 12ZM13.3163 9.40902C13.0717 9.26518 12.7421 9.25 12.3571 9.25H10.25V11.95H12.3571C12.7421 11.95 13.0717 11.9348 13.3163 11.791C13.4745 11.6979 13.75 11.4606 13.75 10.6C13.75 9.73935 13.4745 9.50207 13.3163 9.40902ZM10.25 13.45V15.5C10.25 15.9142 9.91421 16.25 9.5 16.25C9.08579 16.25 8.75 15.9142 8.75 15.5V8.5C8.75 8.08579 9.08579 7.75 9.5 7.75H12.3571C12.3688 7.75 12.381 7.74998 12.3936 7.74996C12.7389 7.74942 13.4513 7.74831 14.0766 8.11598C14.8112 8.54794 15.25 9.36065 15.25 10.6C15.25 11.8394 14.8112 12.6521 14.0766 13.084C13.9611 13.1519 13.8427 13.2072 13.7242 13.2523L15.0956 15.0442C15.3473 15.3731 15.2848 15.8439 14.9558 16.0956C14.6269 16.3473 14.1561 16.2848 13.9044 15.9558L11.9867 13.45H10.25Z" fill="black"/>
</g>
</g>
</g>
<defs>
<clipPath id="clip0_232_12134">
<rect width="24" height="24" rx="5" fill="white"/>
</clipPath>
</defs>
</svg>
