<svg width="24" height="24" viewBox="0 0 24 24" fill="none" xmlns="http://www.w3.org/2000/svg">
<g id="train">
<g clip-path="url(#clip0_232_15992)">
<g id="Weight=Dynamic">
<path id="Vector (Stroke)" fill-rule="evenodd" clip-rule="evenodd" d="M9 3.75C6.1005 3.75 3.75 6.1005 3.75 9V13C3.75 15.8995 6.1005 18.25 9 18.25H10.494C10.4983 18.25 10.5026 18.25 10.5069 18.25H13.4931C13.4974 18.25 13.5017 18.25 13.506 18.25H15C17.8995 18.25 20.25 15.8995 20.25 13V9C20.25 6.1005 17.8995 3.75 15 3.75H9ZM13.1395 19.75L14.9143 21.9685C15.1731 22.292 15.6451 22.3444 15.9685 22.0857C16.292 21.8269 16.3444 21.3549 16.0857 21.0315L15.0603 19.7497C15.4042 19.7467 15.742 19.718 16.0718 19.6654L17.9143 21.9685C18.1731 22.292 18.6451 22.3444 18.9685 22.0857C19.292 21.8269 19.3444 21.3549 19.0857 21.0315L17.6339 19.2168C20.0531 18.1905 21.75 15.7934 21.75 13V9C21.75 5.27208 18.7279 2.25 15 2.25H9C5.27208 2.25 2.25 5.27208 2.25 9V13C2.25 15.7934 3.94688 18.1905 6.36609 19.2168L4.91435 21.0315C4.65559 21.3549 4.70803 21.8269 5.03148 22.0857C5.35493 22.3444 5.82689 22.292 6.08565 21.9685L7.92817 19.6654C8.258 19.718 8.5958 19.7467 8.93974 19.7497L7.91435 21.0315C7.65559 21.3549 7.70803 21.8269 8.03148 22.0857C8.35493 22.3444 8.82689 22.292 9.08565 21.9685L10.8605 19.75H13.1395ZM7.78458 9.25H16.2154C16.0483 8.39511 15.2951 7.75 14.3913 7.75H9.6087C8.70487 7.75 7.95172 8.39511 7.78458 9.25ZM6.25 9.6087C6.25 7.75374 7.75374 6.25 9.6087 6.25H14.3913C16.2462 6.25 17.75 7.75373 17.75 9.6087C17.75 10.239 17.239 10.75 16.6087 10.75H7.3913C6.76098 10.75 6.25 10.239 6.25 9.6087ZM8.51201 14.4417C8.81975 14.7189 8.84446 15.1932 8.56721 15.5009L8.55721 15.512C8.27996 15.8198 7.80573 15.8445 7.49799 15.5672C7.19025 15.29 7.16554 14.8157 7.44279 14.508L7.45279 14.4969C7.73004 14.1892 8.20427 14.1644 8.51201 14.4417ZM16.512 14.4417C16.8198 14.7189 16.8445 15.1932 16.5672 15.5009L16.5572 15.512C16.28 15.8198 15.8057 15.8445 15.498 15.5672C15.1902 15.29 15.1655 14.8157 15.4428 14.508L15.4528 14.4969C15.73 14.1892 16.2043 14.1644 16.512 14.4417Z" fill="black"/>
</g>
</g>
</g>
<defs>
<clipPath id="clip0_232_15992">
<rect width="24" height="24" rx="5" fill="white"/>
</clipPath>
</defs>
</svg>
