<svg width="24" height="24" viewBox="0 0 24 24" fill="none" xmlns="http://www.w3.org/2000/svg">
<g id="tram">
<g clip-path="url(#clip0_232_16012)">
<g id="Weight=Dynamic">
<path id="Vector (Stroke)" fill-rule="evenodd" clip-rule="evenodd" d="M6.25 2C6.25 1.58579 6.58579 1.25 7 1.25H17C17.4142 1.25 17.75 1.58579 17.75 2C17.75 2.41421 17.4142 2.75 17 2.75H14.5856L13.9606 5.25H15C18.1756 5.25 20.75 7.82436 20.75 11V18C20.75 19.4988 19.5511 20.7175 18.06 20.7494L19.0857 22.0315C19.3444 22.3549 19.292 22.8269 18.9685 23.0857C18.6451 23.3444 18.1731 23.292 17.9143 22.9685L16.1395 20.75H15.0605L16.0857 22.0315C16.3444 22.3549 16.292 22.8269 15.9685 23.0857C15.6451 23.3444 15.1731 23.292 14.9143 22.9685L13.1395 20.75H10.8605L9.08565 22.9685C8.82689 23.292 8.35493 23.3444 8.03148 23.0857C7.70803 22.8269 7.65559 22.3549 7.91435 22.0315L8.93953 20.75H7.86047L6.08565 22.9685C5.82689 23.292 5.35493 23.3444 5.03148 23.0857C4.70803 22.8269 4.65559 22.3549 4.91435 22.0315L5.94004 20.7494C4.44895 20.7175 3.25 19.4988 3.25 18V11C3.25 7.82437 5.82437 5.25 9 5.25H12.4144L13.0394 2.75H7C6.58579 2.75 6.25 2.41421 6.25 2ZM7.50687 19.25C7.50261 19.25 7.49834 19.25 7.49408 19.25H6C5.30964 19.25 4.75 18.6904 4.75 18V11C4.75 8.65279 6.65279 6.75 9 6.75H15C17.3472 6.75 19.25 8.6528 19.25 11V18C19.25 18.6904 18.6904 19.25 18 19.25H16.5059C16.5017 19.25 16.4974 19.25 16.4931 19.25H13.5059C13.5017 19.25 13.4974 19.25 13.4931 19.25H10.5069C10.5026 19.25 10.4983 19.25 10.4941 19.25H7.50687ZM7.78458 11.25H16.2154C16.0483 10.3951 15.2951 9.75 14.3913 9.75H9.6087C8.70488 9.75 7.95173 10.3951 7.78458 11.25ZM6.25 11.6087C6.25 9.7538 7.75373 8.25 9.6087 8.25H14.3913C16.2462 8.25 17.75 9.75379 17.75 11.6087C17.75 12.239 17.239 12.75 16.6087 12.75H7.3913C6.76096 12.75 6.25 12.239 6.25 11.6087ZM9.51201 15.4417C9.81975 15.7189 9.84446 16.1932 9.56721 16.5009L9.55721 16.512C9.27996 16.8198 8.80573 16.8445 8.49799 16.5672C8.19025 16.29 8.16554 15.8157 8.44279 15.508L8.45279 15.4969C8.73004 15.1892 9.20427 15.1644 9.51201 15.4417ZM15.512 15.4417C15.8198 15.7189 15.8445 16.1932 15.5672 16.5009L15.5572 16.512C15.28 16.8198 14.8057 16.8445 14.498 16.5672C14.1902 16.29 14.1655 15.8157 14.4428 15.508L14.4528 15.4969C14.73 15.1892 15.2043 15.1644 15.512 15.4417Z" fill="black"/>
</g>
</g>
</g>
<defs>
<clipPath id="clip0_232_16012">
<rect width="24" height="24" rx="5" fill="white"/>
</clipPath>
</defs>
</svg>
