<svg width="24" height="24" viewBox="0 0 24 24" fill="none" xmlns="http://www.w3.org/2000/svg">
<g id="translate">
<g clip-path="url(#clip0_232_11990)">
<g id="Weight=Dynamic">
<path id="Vector (Stroke)" fill-rule="evenodd" clip-rule="evenodd" d="M9 2.25C9.41421 2.25 9.75 2.58579 9.75 3V4.25H16C16.4142 4.25 16.75 4.58579 16.75 5C16.75 5.41421 16.4142 5.75 16 5.75H14.0467C13.2068 8.20445 11.7121 10.5041 10.0252 12.5419L12.5219 14.9614C12.8194 15.2497 12.8269 15.7245 12.5386 16.0219C12.2503 16.3194 11.7755 16.3269 11.4781 16.0386L9.04239 13.6783C7.53183 15.3539 5.92222 16.8402 4.48809 18.0694C4.1736 18.339 3.70012 18.3026 3.43056 17.9881C3.16099 17.6736 3.19741 17.2001 3.51191 16.9306C4.94102 15.7056 6.52896 14.236 8.00294 12.5909C7.57242 12.0785 7.09778 11.4651 6.66952 10.8792C6.09602 10.0946 5.56072 9.2985 5.32918 8.83541C5.14394 8.46493 5.29411 8.01442 5.66459 7.82918C6.03507 7.64394 6.48558 7.79411 6.67082 8.16459C6.83928 8.5015 7.30398 9.20535 7.88048 9.99401C8.2445 10.492 8.63493 10.9991 8.99312 11.4354C10.4421 9.66286 11.686 7.74282 12.4512 5.75H2C1.58579 5.75 1.25 5.41421 1.25 5C1.25 4.58579 1.58579 4.25 2 4.25H8.25V3C8.25 2.58579 8.58579 2.25 9 2.25ZM17.5 9.75C17.8112 9.75 18.0901 9.94219 18.2009 10.233L22.2009 20.733C22.3483 21.1201 22.1541 21.5534 21.767 21.7009C21.3799 21.8483 20.9466 21.6541 20.7991 21.267L19.8403 18.75H15.1597L14.2009 21.267C14.0534 21.6541 13.6201 21.8483 13.233 21.7009C12.8459 21.5534 12.6517 21.1201 12.7991 20.733L16.7991 10.233C16.9099 9.94219 17.1888 9.75 17.5 9.75ZM15.7312 17.25H19.2689L17.5 12.6068L15.7312 17.25Z" fill="black"/>
</g>
</g>
</g>
<defs>
<clipPath id="clip0_232_11990">
<rect width="24" height="24" rx="5" fill="white"/>
</clipPath>
</defs>
</svg>
