<svg width="24" height="24" viewBox="0 0 24 24" fill="none" xmlns="http://www.w3.org/2000/svg">
<g id="transition-down">
<g clip-path="url(#clip0_232_16981)">
<g id="Weight=Dynamic">
<path id="Vector (Stroke)" fill-rule="evenodd" clip-rule="evenodd" d="M2.25 5C2.25 2.92893 3.92893 1.25 6 1.25H18C20.0711 1.25 21.75 2.92893 21.75 5V7C21.75 9.07107 20.0711 10.75 18 10.75H12.75V16.1893L14.4697 14.4697C14.7626 14.1768 15.2374 14.1768 15.5303 14.4697C15.8232 14.7626 15.8232 15.2374 15.5303 15.5303L12.5303 18.5303C12.2374 18.8232 11.7626 18.8232 11.4697 18.5303L8.46967 15.5303C8.17678 15.2374 8.17678 14.7626 8.46967 14.4697C8.76256 14.1768 9.23744 14.1768 9.53033 14.4697L11.25 16.1893V10.75H6C3.92893 10.75 2.25 9.07107 2.25 7V5ZM18 9.25C19.2426 9.25 20.25 8.24264 20.25 7V5C20.25 3.75736 19.2426 2.75 18 2.75H6C4.75736 2.75 3.75 3.75736 3.75 5V7C3.75 8.24264 4.75736 9.25 6 9.25H18ZM3 15.25C3.41421 15.25 3.75 15.5858 3.75 16V18C3.75 19.7949 5.20507 21.25 7 21.25H17C18.7949 21.25 20.25 19.7949 20.25 18V16C20.25 15.5858 20.5858 15.25 21 15.25C21.4142 15.25 21.75 15.5858 21.75 16V18C21.75 20.6234 19.6234 22.75 17 22.75H7C4.37665 22.75 2.25 20.6234 2.25 18V16C2.25 15.5858 2.58579 15.25 3 15.25Z" fill="black"/>
</g>
</g>
</g>
<defs>
<clipPath id="clip0_232_16981">
<rect width="24" height="24" rx="5" fill="white"/>
</clipPath>
</defs>
</svg>
