<svg width="24" height="24" viewBox="0 0 24 24" fill="none" xmlns="http://www.w3.org/2000/svg">
<g id="transition-left">
<g clip-path="url(#clip0_232_16803)">
<g id="Weight=Dynamic">
<path id="Vector (Stroke)" fill-rule="evenodd" clip-rule="evenodd" d="M6 3.75C4.20507 3.75 2.75 5.20507 2.75 7V17C2.75 18.7949 4.20507 20.25 6 20.25H8C8.41421 20.25 8.75 20.5858 8.75 21C8.75 21.4142 8.41421 21.75 8 21.75H6C3.37665 21.75 1.25 19.6234 1.25 17V7C1.25 4.37665 3.37665 2.25 6 2.25H8C8.41421 2.25 8.75 2.58579 8.75 3C8.75 3.41421 8.41421 3.75 8 3.75H6ZM17 3.75C15.7574 3.75 14.75 4.75736 14.75 6V18C14.75 19.2426 15.7574 20.25 17 20.25H19C20.2426 20.25 21.25 19.2426 21.25 18V6C21.25 4.75736 20.2426 3.75 19 3.75H17ZM13.25 12.75V18C13.25 20.0711 14.9289 21.75 17 21.75H19C21.0711 21.75 22.75 20.0711 22.75 18V6C22.75 3.92893 21.0711 2.25 19 2.25H17C14.9289 2.25 13.25 3.92893 13.25 6V11.25H7.81066L9.53033 9.53033C9.82322 9.23744 9.82322 8.76256 9.53033 8.46967C9.23744 8.17678 8.76256 8.17678 8.46967 8.46967L5.46967 11.4697C5.17678 11.7626 5.17678 12.2374 5.46967 12.5303L8.46967 15.5303C8.76256 15.8232 9.23744 15.8232 9.53033 15.5303C9.82322 15.2374 9.82322 14.7626 9.53033 14.4697L7.81066 12.75H13.25Z" fill="black"/>
</g>
</g>
</g>
<defs>
<clipPath id="clip0_232_16803">
<rect width="24" height="24" rx="5" fill="white"/>
</clipPath>
</defs>
</svg>
