<svg width="24" height="24" viewBox="0 0 24 24" fill="none" xmlns="http://www.w3.org/2000/svg">
<g id="treadmill">
<g clip-path="url(#clip0_232_1702)">
<g id="Weight=Dynamic">
<path id="Vector (Stroke)" fill-rule="evenodd" clip-rule="evenodd" d="M13 2.75C12.3096 2.75 11.75 3.30964 11.75 4C11.75 4.69036 12.3096 5.25 13 5.25C13.6904 5.25 14.25 4.69036 14.25 4C14.25 3.30964 13.6904 2.75 13 2.75ZM10.25 4C10.25 2.48122 11.4812 1.25 13 1.25C14.5188 1.25 15.75 2.48122 15.75 4C15.75 5.51878 14.5188 6.75 13 6.75C11.4812 6.75 10.25 5.51878 10.25 4ZM7.27322 4.66281C7.53576 4.40637 7.94532 4.37759 8.24115 4.59479L11.0572 6.66236C11.1013 6.69474 11.1417 6.73185 11.1777 6.77303L13.8483 9.8252H15.2297C15.6439 9.8252 15.9797 10.161 15.9797 10.5752C15.9797 10.9894 15.6439 11.3252 15.2297 11.3252H13.508C13.2917 11.3252 13.086 11.2318 12.9435 11.0691L10.639 8.43529L8.31006 11.3465L11.9706 15.007C12.1917 15.2281 12.2524 15.5631 12.1231 15.8477L10.2934 19.8729L17.901 18.879V9.69475L17.5043 10.0551C17.1978 10.3336 16.7234 10.3109 16.4449 10.0043C16.1664 9.69777 16.1891 9.22344 16.4957 8.9449L18.1515 7.44046L20.3921 5.44048C20.7011 5.16465 21.1752 5.19155 21.451 5.50056C21.7269 5.80957 21.7 6.28368 21.391 6.55952L19.401 8.33586V19.22L21.4136 21.1719C21.7109 21.4603 21.7182 21.9351 21.4298 22.2325C21.1415 22.5298 20.6666 22.5371 20.3693 22.2487L18.3889 20.328L3.43993 22.2811C3.02921 22.3347 2.65275 22.0453 2.59909 21.6345C2.54543 21.2238 2.83489 20.8474 3.24561 20.7937L8.6225 20.0912C8.62172 19.9856 8.64333 19.8782 8.68989 19.7758L10.5424 15.7002L6.77472 11.9325C6.50449 11.6622 6.48067 11.232 6.71941 10.9336L9.53929 7.40881L7.86623 6.18041L4.93446 9.04406C4.63815 9.33349 4.1633 9.32791 3.87387 9.03159C3.58444 8.73528 3.59002 8.26044 3.88634 7.97101L7.27322 4.66281ZM7.51556 14.2943C7.74532 14.6389 7.65219 15.1046 7.30755 15.3344L6.06698 16.1614C5.94378 16.2435 5.79902 16.2874 5.65096 16.2874H2.34277C1.92856 16.2874 1.59277 15.9516 1.59277 15.5374C1.59277 15.1232 1.92856 14.7874 2.34277 14.7874H5.42387L6.4755 14.0863C6.82014 13.8565 7.2858 13.9497 7.51556 14.2943Z" fill="black"/>
</g>
</g>
</g>
<defs>
<clipPath id="clip0_232_1702">
<rect width="24" height="24" rx="5" fill="white"/>
</clipPath>
</defs>
</svg>
