<svg width="24" height="24" viewBox="0 0 24 24" fill="none" xmlns="http://www.w3.org/2000/svg">
<g id="tree">
<g clip-path="url(#clip0_232_10482)">
<g id="Weight=Dynamic">
<path id="Vector (Stroke)" fill-rule="evenodd" clip-rule="evenodd" d="M6.28432 6.36816C3.41444 6.93391 1.25 9.46419 1.25 12.5C1.25 15.9518 4.04822 18.75 7.5 18.75L11.25 18.75L11.25 22C11.25 22.4142 11.5858 22.75 12 22.75C12.4142 22.75 12.75 22.4142 12.75 22L12.75 18.75L16.5 18.75C19.9518 18.75 22.75 15.9518 22.75 12.5C22.75 9.46406 20.5859 6.93432 17.7157 6.36827C17.4011 3.48986 14.9621 1.25 12 1.25C9.03789 1.25 6.59892 3.4898 6.28432 6.36816ZM7.81597 6.25H9C9.41421 6.25 9.75 6.58579 9.75 7C9.75 7.41421 9.41421 7.75 9 7.75H7.5C4.87665 7.75 2.75 9.87665 2.75 12.5C2.75 15.1234 4.87665 17.25 7.5 17.25L11.25 17.25V10C11.25 9.58579 11.5858 9.25 12 9.25C12.4142 9.25 12.75 9.58579 12.75 10V12.7865L15.6646 11.3292C16.0351 11.1439 16.4856 11.2941 16.6708 11.6646C16.8561 12.0351 16.7059 12.4856 16.3354 12.6708L12.75 14.4635V17.25L16.5 17.25C19.1234 17.25 21.25 15.1233 21.25 12.5C21.25 10.0226 19.3529 7.98748 16.9327 7.76939C16.5386 7.73387 16.2433 7.3996 16.2501 7.01014C16.25 7.00677 16.25 7.00339 16.25 7C16.25 4.65279 14.3472 2.75 12 2.75C9.9087 2.75 8.1702 4.26049 7.81597 6.25Z" fill="black"/>
</g>
</g>
</g>
<defs>
<clipPath id="clip0_232_10482">
<rect width="24" height="24" rx="5" fill="white"/>
</clipPath>
</defs>
</svg>
