<svg width="24" height="24" viewBox="0 0 24 24" fill="none" xmlns="http://www.w3.org/2000/svg">
<g id="trekking">
<g clip-path="url(#clip0_232_1920)">
<g id="Weight=Dynamic">
<path id="Vector (Stroke)" fill-rule="evenodd" clip-rule="evenodd" d="M12.0001 3.25C11.3098 3.25 10.7501 3.80964 10.7501 4.5C10.7501 5.19036 11.3098 5.75 12.0001 5.75C12.6905 5.75 13.2501 5.19036 13.2501 4.5C13.2501 3.80964 12.6905 3.25 12.0001 3.25ZM9.25014 4.5C9.25014 2.98122 10.4814 1.75 12.0001 1.75C13.5189 1.75 14.7501 2.98122 14.7501 4.5C14.7501 6.01878 13.5189 7.25 12.0001 7.25C10.4814 7.25 9.25014 6.01878 9.25014 4.5ZM9.12418 8.08397C9.35394 8.42862 9.26081 8.89427 8.91616 9.12404C8.31369 9.52569 7.7592 10.2765 7.33547 11.0029C7.19806 11.2385 7.08013 11.4614 6.98415 11.6535L8.33555 12.3292C8.70603 12.5144 8.8562 12.9649 8.67096 13.3354C8.48572 13.7059 8.03521 13.8561 7.66473 13.6708L5.66473 12.6708C5.31584 12.4964 5.15891 12.0836 5.30378 11.7215L6.00014 12C5.30378 11.7215 5.30372 11.7216 5.30378 11.7215L5.30535 11.7176L5.3084 11.71L5.31889 11.6845C5.32782 11.663 5.34062 11.6325 5.35717 11.594C5.39026 11.5172 5.43843 11.4083 5.50073 11.2754C5.62502 11.0103 5.8072 10.6458 6.03981 10.2471C6.49108 9.47348 7.18659 8.47431 8.08411 7.87596C8.42876 7.6462 8.89441 7.73933 9.12418 8.08397ZM10.7263 7.80177C10.9683 7.70687 11.2422 7.74404 11.4501 7.9L15.0793 10.6219L17.2501 9.53647V8.5C17.2501 8.08579 17.5859 7.75 18.0001 7.75C18.4144 7.75 18.7501 8.08579 18.7501 8.5V21.5C18.7501 21.9142 18.4144 22.25 18.0001 22.25C17.5859 22.25 17.2501 21.9142 17.2501 21.5V11.2135L15.3355 12.1708C15.0815 12.2979 14.7774 12.2704 14.5501 12.1L11.521 9.82812L10.815 13.7107L13.9882 16.4306C14.1326 16.5543 14.2246 16.7282 14.2456 16.9172L14.7456 21.4172C14.7913 21.8289 14.4946 22.1997 14.083 22.2454C13.6713 22.2912 13.3005 21.9945 13.2547 21.5828L12.7874 17.3769L9.51205 14.5694C9.30966 14.396 9.21455 14.1281 9.26224 13.8658L10.2622 8.36584C10.3087 8.1101 10.4843 7.89667 10.7263 7.80177ZM10.3047 16.3146C10.6833 16.4829 10.8537 16.9261 10.6855 17.3046L8.6855 21.8046C8.51727 22.1831 8.07405 22.3536 7.69554 22.1854C7.31702 22.0171 7.14655 21.5739 7.31478 21.1954L9.31478 16.6954C9.48301 16.3169 9.92623 16.1464 10.3047 16.3146Z" fill="black"/>
</g>
</g>
</g>
<defs>
<clipPath id="clip0_232_1920">
<rect width="24" height="24" rx="5" fill="white"/>
</clipPath>
</defs>
</svg>
