<svg width="24" height="24" viewBox="0 0 24 24" fill="none" xmlns="http://www.w3.org/2000/svg">
<g id="trello">
<g clip-path="url(#clip0_232_5579)">
<g id="Weight=Dynamic">
<path id="Vector (Stroke)" fill-rule="evenodd" clip-rule="evenodd" d="M2.25 5C2.25 3.48122 3.48122 2.25 5 2.25H19C20.5188 2.25 21.75 3.48122 21.75 5V19C21.75 20.5188 20.5188 21.75 19 21.75H5C3.48122 21.75 2.25 20.5188 2.25 19V5ZM5 3.75C4.30964 3.75 3.75 4.30964 3.75 5V19C3.75 19.6904 4.30964 20.25 5 20.25H19C19.6904 20.25 20.25 19.6904 20.25 19V5C20.25 4.30964 19.6904 3.75 19 3.75H5ZM5.25 6.6C5.25 5.85442 5.85442 5.25 6.6 5.25H10.4C11.1456 5.25 11.75 5.85442 11.75 6.6V17.4C11.75 18.1456 11.1456 18.75 10.4 18.75H6.6C5.85442 18.75 5.25 18.1456 5.25 17.4V6.6ZM6.75 6.75V17.25H10.25V6.75H6.75ZM12.25 6.6C12.25 5.85441 12.8544 5.25 13.6 5.25H17.4C18.1456 5.25 18.75 5.85441 18.75 6.6V13.4C18.75 14.1456 18.1456 14.75 17.4 14.75H13.6C12.8544 14.75 12.25 14.1456 12.25 13.4V6.6ZM13.75 6.75V13.25H17.25V6.75H13.75Z" fill="black"/>
</g>
</g>
</g>
<defs>
<clipPath id="clip0_232_5579">
<rect width="24" height="24" rx="5" fill="white"/>
</clipPath>
</defs>
</svg>
