<svg width="24" height="24" viewBox="0 0 24 24" fill="none" xmlns="http://www.w3.org/2000/svg">
<g id="triangle-flag-circle">
<g clip-path="url(#clip0_232_11790)">
<g id="Weight=Dynamic">
<path id="Vector (Stroke)" fill-rule="evenodd" clip-rule="evenodd" d="M12 2.75C6.89137 2.75 2.75 6.89137 2.75 12C2.75 15.7737 5.0098 19.0196 8.25 20.4583V6.99654C8.25 5.97921 9.33255 5.32744 10.2316 5.80343L16.9014 9.33447C17.8351 9.82876 17.8648 11.1556 16.9542 11.6912L9.75 15.929V20.9744C10.4703 21.1544 11.224 21.25 12 21.25C17.1086 21.25 21.25 17.1086 21.25 12C21.25 6.89137 17.1086 2.75 12 2.75ZM9.75 14.1887L15.9622 10.5345L9.75 7.24568V14.1887ZM1.25 12C1.25 6.06294 6.06294 1.25 12 1.25C17.9371 1.25 22.75 6.06294 22.75 12C22.75 17.9371 17.9371 22.75 12 22.75C6.06294 22.75 1.25 17.9371 1.25 12Z" fill="black"/>
</g>
</g>
</g>
<defs>
<clipPath id="clip0_232_11790">
<rect width="24" height="24" rx="5" fill="white"/>
</clipPath>
</defs>
</svg>
