<svg width="24" height="24" viewBox="0 0 24 24" fill="none" xmlns="http://www.w3.org/2000/svg">
<g id="triangle-flag-two-stripes">
<g clip-path="url(#clip0_232_11782)">
<g id="Weight=Dynamic">
<path id="Vector (Stroke)" fill-rule="evenodd" clip-rule="evenodd" d="M7.25007 3.57709C7.25007 2.51936 8.41129 1.87249 9.31065 2.42924L14.8853 5.88024C14.892 5.88421 14.8986 5.88828 14.9051 5.89247L18.1009 7.87084C18.9367 8.38821 18.957 9.59674 18.1392 10.142L8.75007 16.4014V21C8.75007 21.4142 8.41428 21.75 8.00007 21.75C7.58586 21.75 7.25007 21.4142 7.25007 21V11.011C7.24998 11.0042 7.24998 10.9974 7.25007 10.9906V3.57709ZM8.75007 11.3943V14.5986L17.1129 9.02338L14.522 7.41946L8.75007 11.3943ZM13.1293 6.55729L8.75007 9.573V3.84637L13.1293 6.55729Z" fill="black"/>
</g>
</g>
</g>
<defs>
<clipPath id="clip0_232_11782">
<rect width="24" height="24" rx="5" fill="white"/>
</clipPath>
</defs>
</svg>
