<svg width="24" height="24" viewBox="0 0 24 24" fill="none" xmlns="http://www.w3.org/2000/svg">
<g id="truck">
<g clip-path="url(#clip0_232_16094)">
<g id="Weight=Dynamic">
<path id="Vector (Stroke)" fill-rule="evenodd" clip-rule="evenodd" d="M2.75 6.75V16.25H4.35352C4.67998 15.0957 5.74122 14.25 7 14.25C8.25878 14.25 9.32002 15.0957 9.64648 16.25H13.25V6.75H2.75ZM14.75 8.25V6.6C14.75 5.85442 14.1456 5.25 13.4 5.25H2.6C1.85442 5.25 1.25 5.85442 1.25 6.6V16.4C1.25 17.1456 1.85442 17.75 2.6 17.75H4.35352C4.67998 18.9043 5.74122 19.75 7 19.75C8.25878 19.75 9.32002 18.9043 9.64648 17.75H14.3535C14.68 18.9043 15.7412 19.75 17 19.75C18.2588 19.75 19.32 18.9043 19.6465 17.75H21.4C22.1456 17.75 22.75 17.1456 22.75 16.4V13.6273C22.75 13.4384 22.7104 13.2517 22.6336 13.079L20.8437 9.05171C20.627 8.56419 20.1436 8.25 19.6101 8.25H14.75ZM14.75 9.75V15.4185C15.2477 14.7117 16.0699 14.25 17 14.25C18.2588 14.25 19.32 15.0957 19.6465 16.25H21.25V13.6592L19.5126 9.75H14.75ZM7 15.75C6.30964 15.75 5.75 16.3096 5.75 17C5.75 17.6904 6.30964 18.25 7 18.25C7.69036 18.25 8.25 17.6904 8.25 17C8.25 16.3096 7.69036 15.75 7 15.75ZM17 15.75C16.3096 15.75 15.75 16.3096 15.75 17C15.75 17.6904 16.3096 18.25 17 18.25C17.6904 18.25 18.25 17.6904 18.25 17C18.25 16.3096 17.6904 15.75 17 15.75Z" fill="black"/>
</g>
</g>
</g>
<defs>
<clipPath id="clip0_232_16094">
<rect width="24" height="24" rx="5" fill="white"/>
</clipPath>
</defs>
</svg>
