<svg width="24" height="24" viewBox="0 0 24 24" fill="none" xmlns="http://www.w3.org/2000/svg">
<g id="truck-green">
<g clip-path="url(#clip0_232_16050)">
<g id="Weight=Dynamic">
<path id="Vector (Stroke)" fill-rule="evenodd" clip-rule="evenodd" d="M2.75 4.75V14.25H4.35352C4.67998 13.0957 5.74122 12.25 7 12.25C8.25878 12.25 9.32002 13.0957 9.64648 14.25H13.25V4.75H2.75ZM14.75 6.25V4.6C14.75 3.85442 14.1456 3.25 13.4 3.25H2.6C1.85442 3.25 1.25 3.85442 1.25 4.6V14.4C1.25 15.1456 1.85442 15.75 2.6 15.75H4.35352C4.67998 16.9043 5.74122 17.75 7 17.75C8.25878 17.75 9.32002 16.9043 9.64648 15.75H14C14.4142 15.75 14.75 15.4142 14.75 15V7.75H19.5126L20.75 10.5342V12C20.75 12.4142 21.0858 12.75 21.5 12.75C21.9142 12.75 22.25 12.4142 22.25 12V10.5023C22.25 10.3134 22.2104 10.1267 22.1336 9.95404L20.8437 7.05171C20.627 6.56419 20.1436 6.25 19.6101 6.25H14.75ZM7 13.75C6.30964 13.75 5.75 14.3096 5.75 15C5.75 15.6904 6.30964 16.25 7 16.25C7.69036 16.25 8.25 15.6904 8.25 15C8.25 14.3096 7.69036 13.75 7 13.75ZM21.9789 14.2859C22.5814 14.2292 23.117 14.6707 23.1764 15.273L23.4311 17.8539C23.6461 20.0329 22.0523 21.9664 19.8724 22.1712L19.7378 22.1839C19.1917 22.2352 18.6611 22.1691 18.1712 22.0063C18.0478 22.2908 17.9505 22.5416 17.8781 22.7402C17.823 22.8916 17.7826 23.0119 17.7565 23.0928C17.7434 23.1332 17.734 23.1638 17.728 23.1833L17.7217 23.2043L17.7206 23.208C17.6056 23.6058 17.1899 23.8354 16.792 23.7206C16.394 23.6057 16.1645 23.1899 16.2794 22.792L17 23C16.2794 22.792 16.2794 22.7922 16.2794 22.792L16.28 22.7901L16.2808 22.7871L16.2836 22.7777L16.2932 22.7457C16.3015 22.7187 16.3134 22.6804 16.3291 22.6319C16.3604 22.535 16.4067 22.397 16.4687 22.2267C16.5624 21.9696 16.6925 21.637 16.8612 21.2593C16.1451 20.638 15.656 19.7526 15.5558 18.7366C15.3481 16.6319 16.8876 14.7642 18.9932 14.5664L21.9789 14.2859ZM18.8589 20.6425C19.2861 19.9097 19.8315 19.1583 20.5006 18.5585C20.809 18.282 20.835 17.8078 20.5585 17.4994C20.282 17.191 19.8078 17.165 19.4994 17.4415C18.695 18.1625 18.0619 19.0363 17.5803 19.8574C17.2893 19.5093 17.0963 19.0736 17.0485 18.5893C16.9225 17.3118 17.8555 16.1799 19.1336 16.0598L21.7227 15.8165L21.9383 18.0012C22.0717 19.353 21.0844 20.5507 19.732 20.6778L19.5975 20.6904C19.3436 20.7143 19.0951 20.6964 18.8589 20.6425Z" fill="black"/>
</g>
</g>
</g>
<defs>
<clipPath id="clip0_232_16050">
<rect width="24" height="24" rx="5" fill="white"/>
</clipPath>
</defs>
</svg>
