<svg width="24" height="24" viewBox="0 0 24 24" fill="none" xmlns="http://www.w3.org/2000/svg">
<g id="truck-length">
<g clip-path="url(#clip0_232_15816)">
<g id="Weight=Dynamic">
<path id="Vector (Stroke)" fill-rule="evenodd" clip-rule="evenodd" d="M2.75 3.75V13.25H4.35352C4.67998 12.0957 5.74122 11.25 7 11.25C8.25878 11.25 9.32002 12.0957 9.64648 13.25H13.25V3.75H2.75ZM14.75 5.25V3.6C14.75 2.85442 14.1456 2.25 13.4 2.25H2.6C1.85442 2.25 1.25 2.85442 1.25 3.6V13.4C1.25 14.1456 1.85442 14.75 2.6 14.75H4.35352C4.67998 15.9043 5.74122 16.75 7 16.75C8.25878 16.75 9.32002 15.9043 9.64648 14.75H14.3535C14.68 15.9043 15.7412 16.75 17 16.75C18.2588 16.75 19.32 15.9043 19.6465 14.75H21.4C22.1456 14.75 22.75 14.1456 22.75 13.4V10.6273C22.75 10.4384 22.7104 10.2517 22.6336 10.079L20.8437 6.05171C20.627 5.56419 20.1436 5.25 19.6101 5.25H14.75ZM14.75 6.75V12.4185C15.2477 11.7117 16.0699 11.25 17 11.25C18.2588 11.25 19.32 12.0957 19.6465 13.25H21.25V10.6592L19.5126 6.75H14.75ZM7 12.75C6.30964 12.75 5.75 13.3096 5.75 14C5.75 14.6904 6.30964 15.25 7 15.25C7.69036 15.25 8.25 14.6904 8.25 14C8.25 13.3096 7.69036 12.75 7 12.75ZM17 12.75C16.3096 12.75 15.75 13.3096 15.75 14C15.75 14.6904 16.3096 15.25 17 15.25C17.6904 15.25 18.25 14.6904 18.25 14C18.25 13.3096 17.6904 12.75 17 12.75ZM5.28033 17.7197C5.57322 18.0126 5.57322 18.4874 5.28033 18.7803L4.81066 19.25H18.9393L18.4697 18.7803C18.1768 18.4874 18.1768 18.0126 18.4697 17.7197C18.7626 17.4268 19.2374 17.4268 19.5303 17.7197L21.2803 19.4697C21.5732 19.7626 21.5732 20.2374 21.2803 20.5303L19.5303 22.2803C19.2374 22.5732 18.7626 22.5732 18.4697 22.2803C18.1768 21.9874 18.1768 21.5126 18.4697 21.2197L18.9393 20.75H4.81066L5.28033 21.2197C5.57322 21.5126 5.57322 21.9874 5.28033 22.2803C4.98744 22.5732 4.51256 22.5732 4.21967 22.2803L2.46967 20.5303C2.17678 20.2374 2.17678 19.7626 2.46967 19.4697L4.21967 17.7197C4.51256 17.4268 4.98744 17.4268 5.28033 17.7197Z" fill="black"/>
</g>
</g>
</g>
<defs>
<clipPath id="clip0_232_15816">
<rect width="24" height="24" rx="5" fill="white"/>
</clipPath>
</defs>
</svg>
