<svg width="24" height="24" viewBox="0 0 24 24" fill="none" xmlns="http://www.w3.org/2000/svg">
<g id="tunnel">
<g clip-path="url(#clip0_232_17569)">
<g id="Weight=Dynamic">
<path id="Vector (Stroke)" fill-rule="evenodd" clip-rule="evenodd" d="M5.10567 5.10571C6.93415 3.27723 9.4141 2.25 12 2.25C14.5858 2.25 17.0657 3.27723 18.8943 5.1057L18.8943 5.10571C20.7227 6.9342 21.75 9.41414 21.75 12V19.9825C21.7502 19.9941 21.7502 20.0057 21.75 20.0173V21C21.75 21.4142 21.4142 21.75 21 21.75H2.99996C2.58575 21.75 2.24996 21.4142 2.24996 21V14.0175C2.24969 14.0059 2.24969 13.9943 2.24996 13.9827V12C2.24996 9.41414 3.27719 6.93419 5.10567 5.10571ZM3.74996 15.0406V20.25H19.3783L3.74996 15.0406ZM20.25 18.9594L3.74996 13.4594V12C3.74996 9.81196 4.61915 7.71355 6.16633 6.16637C7.71351 4.61919 9.81192 3.75 12 3.75C14.1879 3.75 16.2864 4.61919 17.8336 6.16638C19.3808 7.71356 20.25 9.81197 20.25 12V18.9594ZM7.99996 7.25C8.41417 7.25 8.74996 7.58579 8.74996 8V9C8.74996 9.41421 8.41417 9.75 7.99996 9.75C7.58575 9.75 7.24996 9.41421 7.24996 9V8C7.24996 7.58579 7.58575 7.25 7.99996 7.25ZM12 8.25C12.4142 8.25 12.75 8.58579 12.75 9V10C12.75 10.4142 12.4142 10.75 12 10.75C11.5857 10.75 11.25 10.4142 11.25 10V9C11.25 8.58579 11.5857 8.25 12 8.25ZM16 9.25C16.4142 9.25 16.75 9.58579 16.75 10V11C16.75 11.4142 16.4142 11.75 16 11.75C15.5857 11.75 15.25 11.4142 15.25 11V10C15.25 9.58579 15.5857 9.25 16 9.25Z" fill="black"/>
</g>
</g>
</g>
<defs>
<clipPath id="clip0_232_17569">
<rect width="24" height="24" rx="5" fill="white"/>
</clipPath>
</defs>
</svg>
