<svg width="24" height="24" viewBox="0 0 24 24" fill="none" xmlns="http://www.w3.org/2000/svg">
<g id="tv-fix">
<g clip-path="url(#clip0_232_5961)">
<g id="Weight=Dynamic">
<path id="Vector (Stroke)" fill-rule="evenodd" clip-rule="evenodd" d="M7.96967 1.96967C8.26256 1.67678 8.73744 1.67678 9.03033 1.96967L12 4.93934L14.9697 1.96967C15.2626 1.67678 15.7374 1.67678 16.0303 1.96967C16.3232 2.26256 16.3232 2.73744 16.0303 3.03033L12.8107 6.25H20C21.5188 6.25 22.75 7.48122 22.75 9V20C22.75 21.5188 21.5188 22.75 20 22.75H4C2.48122 22.75 1.25 21.5188 1.25 20V9C1.25 7.48122 2.48122 6.25 4 6.25H11.1893L7.96967 3.03033C7.67678 2.73744 7.67678 2.26256 7.96967 1.96967ZM4 7.75C3.30964 7.75 2.75 8.30964 2.75 9V20C2.75 20.6904 3.30964 21.25 4 21.25H20C20.6904 21.25 21.25 20.6904 21.25 20V9C21.25 8.30964 20.6904 7.75 20 7.75H4ZM14.1871 9.46967C14.48 9.76256 14.48 10.2374 14.1871 10.5303C13.6989 11.0185 13.6989 11.8099 14.1871 12.298C14.6753 12.7862 15.4667 12.7862 15.9548 12.2981C16.2477 12.0052 16.7226 12.0052 17.0155 12.2981C17.3084 12.591 17.3084 13.0659 17.0155 13.3588C16.1254 14.2489 14.7769 14.4012 13.7299 13.8158L11.8158 15.73C12.4011 16.7771 12.2487 18.1256 11.3586 19.0156C11.0657 19.3085 10.5908 19.3085 10.2979 19.0156C10.0051 18.7228 10.0051 18.2479 10.2979 17.955C10.7861 17.4668 10.7861 16.6753 10.298 16.1871C9.80987 15.699 9.01838 15.699 8.53018 16.1872C8.23729 16.4801 7.76241 16.4801 7.46952 16.1872C7.17663 15.8943 7.17663 15.4195 7.46952 15.1266C8.35958 14.2365 9.70805 14.084 10.7551 14.6693L12.6693 12.7552C12.0839 11.7082 12.2363 10.3598 13.1264 9.46967C13.4193 9.17678 13.8942 9.17678 14.1871 9.46967Z" fill="black"/>
</g>
</g>
</g>
<defs>
<clipPath id="clip0_232_5961">
<rect width="24" height="24" rx="5" fill="white"/>
</clipPath>
</defs>
</svg>
