<svg width="24" height="24" viewBox="0 0 24 24" fill="none" xmlns="http://www.w3.org/2000/svg">
<g id="tv-warning">
<g clip-path="url(#clip0_232_5871)">
<g id="Weight=Dynamic">
<path id="Vector (Stroke)" fill-rule="evenodd" clip-rule="evenodd" d="M7.96967 1.96967C8.26256 1.67678 8.73744 1.67678 9.03033 1.96967L12 4.93934L14.9697 1.96967C15.2626 1.67678 15.7374 1.67678 16.0303 1.96967C16.3232 2.26256 16.3232 2.73744 16.0303 3.03033L12.8107 6.25H20C21.5188 6.25 22.75 7.48122 22.75 9V20C22.75 21.5188 21.5188 22.75 20 22.75H4C2.48122 22.75 1.25 21.5188 1.25 20V9C1.25 7.48122 2.48122 6.25 4 6.25H11.1893L7.96967 3.03033C7.67678 2.73744 7.67678 2.26256 7.96967 1.96967ZM4 7.75C3.30964 7.75 2.75 8.30964 2.75 9V20C2.75 20.6904 3.30964 21.25 4 21.25H20C20.6904 21.25 21.25 20.6904 21.25 20V9C21.25 8.30964 20.6904 7.75 20 7.75H4ZM11.25 14V11C11.25 10.5858 11.5858 10.25 12 10.25C12.4142 10.25 12.75 10.5858 12.75 11V14C12.75 14.4142 12.4142 14.75 12 14.75C11.5858 14.75 11.25 14.4142 11.25 14ZM12.5117 17.4414C12.8196 17.7185 12.8446 18.1927 12.5675 18.5006L12.5575 18.5117C12.2804 18.8196 11.8062 18.8446 11.4983 18.5675C11.1904 18.2904 11.1654 17.8162 11.4425 17.5083L11.4525 17.4972C11.7296 17.1893 12.2038 17.1643 12.5117 17.4414Z" fill="black"/>
</g>
</g>
</g>
<defs>
<clipPath id="clip0_232_5871">
<rect width="24" height="24" rx="5" fill="white"/>
</clipPath>
</defs>
</svg>
