<svg width="24" height="24" viewBox="0 0 24 24" fill="none" xmlns="http://www.w3.org/2000/svg">
<g id="tv">
<g clip-path="url(#clip0_232_5995)">
<g id="Weight=Dynamic">
<path id="Vector (Stroke)" fill-rule="evenodd" clip-rule="evenodd" d="M7.96967 1.96967C8.26256 1.67678 8.73744 1.67678 9.03033 1.96967L12 4.93934L14.9697 1.96967C15.2626 1.67678 15.7374 1.67678 16.0303 1.96967C16.3232 2.26256 16.3232 2.73744 16.0303 3.03033L12.8107 6.25H20C21.5188 6.25 22.75 7.48122 22.75 9V20C22.75 21.5188 21.5188 22.75 20 22.75H4C2.48122 22.75 1.25 21.5188 1.25 20V9C1.25 7.48122 2.48122 6.25 4 6.25H11.1893L7.96967 3.03033C7.67678 2.73744 7.67678 2.26256 7.96967 1.96967ZM4 7.75C3.30964 7.75 2.75 8.30964 2.75 9V20C2.75 20.6904 3.30964 21.25 4 21.25H20C20.6904 21.25 21.25 20.6904 21.25 20V9C21.25 8.30964 20.6904 7.75 20 7.75H4Z" fill="black"/>
</g>
</g>
</g>
<defs>
<clipPath id="clip0_232_5995">
<rect width="24" height="24" rx="5" fill="white"/>
</clipPath>
</defs>
</svg>
