<svg width="24" height="24" viewBox="0 0 24 24" fill="none" xmlns="http://www.w3.org/2000/svg">
<g id="twitter">
<g clip-path="url(#clip0_232_14149)">
<g id="Weight=Dynamic">
<path id="Vector (Stroke)" fill-rule="evenodd" clip-rule="evenodd" d="M14.6147 2.59381C15.6157 2.21177 16.7098 2.14635 17.7492 2.40641C18.6226 2.62495 19.4218 3.06446 20.072 3.67896C20.3177 3.58615 20.5022 3.49252 20.7402 3.362C20.8159 3.32049 20.8972 3.27503 20.9869 3.22489C21.3502 3.02187 21.8505 2.74222 22.6674 2.33789C22.9567 2.19468 23.3052 2.25268 23.5325 2.48187C23.7599 2.71107 23.8151 3.06003 23.6695 3.34818C23.556 3.57302 23.4369 3.8407 23.2978 4.15337L23.2929 4.16439C23.1548 4.47499 23.0003 4.82159 22.8277 5.17099C22.5396 5.75431 22.1816 6.38682 21.7158 6.926C21.738 7.11898 21.7494 7.31313 21.7501 7.50758L21.7501 7.51006C21.7501 13.5225 18.8599 17.9101 14.7275 20.1096C10.6133 22.2994 5.34323 22.2809 0.635845 19.6657C0.332237 19.497 0.184153 19.1419 0.277939 18.8075C0.371725 18.4731 0.682845 18.2468 1.02989 18.2606C2.91412 18.3356 4.77763 17.9198 6.44152 17.0645C4.75912 16.1082 3.58252 14.9466 2.78834 13.6926C1.81296 12.1525 1.44287 10.5185 1.37585 9.04411C1.30898 7.57302 1.54275 6.24548 1.78959 5.29102C1.91346 4.81204 2.04187 4.42229 2.14046 4.14959C2.1898 4.01311 2.2318 3.9056 2.26223 3.8305C2.27744 3.79295 2.28977 3.76346 2.2987 3.74248L2.30946 3.71744L2.3128 3.70979L2.31394 3.70721L2.31438 3.70623C2.31455 3.70582 2.31472 3.70545 3.00008 4.01006L2.31438 3.70623C2.42411 3.45932 2.65851 3.28975 2.92743 3.26358C3.19635 3.23741 3.45856 3.35791 3.61384 3.57902C4.55308 4.91644 5.80849 6.00082 7.26828 6.73558C8.51004 7.36059 9.86688 7.71613 11.2501 7.78231V7.54486C11.2368 6.47539 11.5518 5.42751 12.1525 4.54253C12.7543 3.6561 13.6138 2.97586 14.6147 2.59381ZM3.27268 5.54963C3.26238 5.58789 3.25208 5.62688 3.24181 5.66659C3.01991 6.52463 2.81617 7.69709 2.8743 8.976C2.93229 10.2516 3.2497 11.6176 4.05557 12.89C4.85842 14.1577 6.17461 15.378 8.30468 16.3247C8.55353 16.4353 8.72288 16.6721 8.7471 16.9433C8.77133 17.2146 8.64662 17.4777 8.4213 17.6306C7.07559 18.5441 5.57187 19.1779 3.99882 19.5069C7.51791 20.654 11.1192 20.3309 14.0227 18.7855C17.6399 16.8602 20.2496 12.9982 20.2501 7.51141C20.2492 7.27967 20.2269 7.0485 20.1834 6.82087C20.1364 6.57497 20.2152 6.32184 20.3934 6.14605C20.7654 5.77921 21.0829 5.28251 21.3719 4.72591C20.9808 4.93667 20.6521 5.08482 20.0763 5.2582C19.7939 5.34326 19.4878 5.25483 19.2942 5.03223C18.7927 4.45568 18.1263 4.04702 17.3851 3.86155C16.6438 3.67608 15.8635 3.72273 15.1496 3.99521C14.4357 4.26768 13.8228 4.75282 13.3936 5.38502C12.9644 6.01721 12.7398 6.76596 12.75 7.53L12.7501 7.54006L12.7501 8.54006C12.7501 8.9467 12.426 9.27926 12.0195 9.2898C10.1385 9.33858 8.27463 8.9214 6.59389 8.07543C5.33738 7.44298 4.21238 6.58556 3.27268 5.54963Z" fill="black"/>
</g>
</g>
</g>
<defs>
<clipPath id="clip0_232_14149">
<rect width="24" height="24" rx="5" fill="white"/>
</clipPath>
</defs>
</svg>
