<svg width="24" height="24" viewBox="0 0 24 24" fill="none" xmlns="http://www.w3.org/2000/svg">
<g id="two-points-circle">
<g clip-path="url(#clip0_232_497)">
<g id="Weight=Dynamic">
<g id="Vector">
</g>
<path id="Vector (Stroke)" fill-rule="evenodd" clip-rule="evenodd" d="M4.44583 6.66044C3.37771 8.16881 2.75 10.0111 2.75 12C2.75 17.1086 6.89137 21.25 12 21.25C13.9889 21.25 15.8312 20.6223 17.3396 19.5542C17.2815 19.38 17.25 19.1937 17.25 19C17.25 18.7937 17.2857 18.5957 17.3513 18.4119L16.9697 18.0303C16.6768 17.7374 16.6768 17.2626 16.9697 16.9697C17.2626 16.6768 17.7374 16.6768 18.0303 16.9697L18.4119 17.3513C18.5957 17.2857 18.7937 17.25 19 17.25C19.1937 17.25 19.38 17.2815 19.5542 17.3396C20.6223 15.8312 21.25 13.9889 21.25 12C21.25 6.89137 17.1086 2.75 12 2.75C10.0111 2.75 8.16881 3.37771 6.66044 4.44583C6.71853 4.61998 6.75 4.80632 6.75 5C6.75 5.20631 6.7143 5.40428 6.64874 5.58808L7.03033 5.96967C7.32322 6.26256 7.32322 6.73744 7.03033 7.03033C6.73744 7.32322 6.26256 7.32322 5.96967 7.03033L5.58808 6.64874C5.40428 6.7143 5.20631 6.75 5 6.75C4.80632 6.75 4.61998 6.71853 4.44583 6.66044ZM3.35766 5.6057C2.03328 7.39273 1.25 9.60489 1.25 12C1.25 17.9371 6.06294 22.75 12 22.75C14.3951 22.75 16.6073 21.9667 18.3943 20.6423C18.583 20.712 18.7871 20.75 19 20.75C19.9665 20.75 20.75 19.9665 20.75 19C20.75 18.7871 20.712 18.583 20.6423 18.3943C21.9667 16.6073 22.75 14.3951 22.75 12C22.75 6.06294 17.9371 1.25 12 1.25C9.60489 1.25 7.39273 2.03328 5.6057 3.35766C5.41696 3.28803 5.21292 3.25 5 3.25C4.0335 3.25 3.25 4.0335 3.25 5C3.25 5.21292 3.28803 5.41696 3.35766 5.6057ZM7.96967 7.96967C8.26256 7.67678 8.73744 7.67678 9.03033 7.96967L10.0303 8.96967C10.3232 9.26256 10.3232 9.73744 10.0303 10.0303C9.73744 10.3232 9.26256 10.3232 8.96967 10.0303L7.96967 9.03033C7.67678 8.73744 7.67678 8.26256 7.96967 7.96967ZM10.9697 10.9697C11.2626 10.6768 11.7374 10.6768 12.0303 10.9697L13.0303 11.9697C13.3232 12.2626 13.3232 12.7374 13.0303 13.0303C12.7374 13.3232 12.2626 13.3232 11.9697 13.0303L10.9697 12.0303C10.6768 11.7374 10.6768 11.2626 10.9697 10.9697ZM13.9697 13.9697C14.2626 13.6768 14.7374 13.6768 15.0303 13.9697L16.0303 14.9697C16.3232 15.2626 16.3232 15.7374 16.0303 16.0303C15.7374 16.3232 15.2626 16.3232 14.9697 16.0303L13.9697 15.0303C13.6768 14.7374 13.6768 14.2626 13.9697 13.9697Z" fill="black"/>
</g>
</g>
</g>
<defs>
<clipPath id="clip0_232_497">
<rect width="24" height="24" rx="5" fill="white"/>
</clipPath>
</defs>
</svg>
