<svg width="24" height="24" viewBox="0 0 24 24" fill="none" xmlns="http://www.w3.org/2000/svg">
<g id="type">
<g clip-path="url(#clip0_232_14380)">
<g id="Weight=Dynamic">
<path id="Vector (Stroke)" fill-rule="evenodd" clip-rule="evenodd" d="M2.25 4C2.25 2.48122 3.48122 1.25 5 1.25H19C20.5188 1.25 21.75 2.48122 21.75 4V11.7515C21.75 12.1095 21.6078 12.4529 21.3546 12.7061L17.75 16.3107V20C17.75 21.5188 16.5188 22.75 15 22.75H9C7.48122 22.75 6.25 21.5188 6.25 20V16.3107L2.64541 12.7061C2.39223 12.4529 2.25 12.1095 2.25 11.7515V4ZM5 2.75C4.30964 2.75 3.75 3.30964 3.75 4V11.6893L7.35459 15.2939C7.60777 15.5471 7.75 15.8905 7.75 16.2485V20C7.75 20.6904 8.30964 21.25 9 21.25H15C15.6904 21.25 16.25 20.6904 16.25 20V16.2485C16.25 15.8905 16.3922 15.5471 16.6454 15.2939L20.25 11.6893V4C20.25 3.30964 19.6904 2.75 19 2.75H5ZM12 5.25C12.2941 5.25 12.5611 5.4219 12.6828 5.68965L15.1828 11.1896C15.3542 11.5667 15.1874 12.0114 14.8104 12.1828C14.4333 12.3542 13.9886 12.1874 13.8172 11.8104L13.5171 11.15H10.4829L10.1828 11.8104C10.0114 12.1874 9.56673 12.3542 9.18965 12.1828C8.81256 12.0114 8.64582 11.5667 8.81722 11.1896L11.3172 5.68965C11.4389 5.4219 11.7059 5.25 12 5.25ZM11.1648 9.65H12.8352L12 7.81246L11.1648 9.65Z" fill="black"/>
</g>
</g>
</g>
<defs>
<clipPath id="clip0_232_14380">
<rect width="24" height="24" rx="5" fill="white"/>
</clipPath>
</defs>
</svg>
