<svg width="24" height="24" viewBox="0 0 24 24" fill="none" xmlns="http://www.w3.org/2000/svg">
<g id="u-turn-arrow-right">
<g clip-path="url(#clip0_232_10148)">
<g id="Weight=Dynamic">
<path id="Vector (Stroke)" fill-rule="evenodd" clip-rule="evenodd" d="M11 3.75C8.6528 3.75 6.75 5.65283 6.75 8.00005V21C6.75 21.4142 6.41421 21.75 6 21.75C5.58579 21.75 5.25 21.4142 5.25 21V8.00005C5.25 4.82442 7.82435 2.25 11 2.25C14.1756 2.25 16.75 4.82442 16.75 8.00005V13.1893L19.4697 10.4697C19.7626 10.1768 20.2374 10.1768 20.5303 10.4697C20.8232 10.7626 20.8232 11.2374 20.5303 11.5303L16.5303 15.5303C16.2374 15.8232 15.7626 15.8232 15.4697 15.5303L11.4697 11.5303C11.1768 11.2374 11.1768 10.7626 11.4697 10.4697C11.7626 10.1768 12.2374 10.1768 12.5303 10.4697L15.25 13.1893V8.00005C15.25 5.65283 13.3472 3.75 11 3.75Z" fill="black"/>
</g>
</g>
</g>
<defs>
<clipPath id="clip0_232_10148">
<rect width="24" height="24" rx="5" fill="white"/>
</clipPath>
</defs>
</svg>
