<svg width="24" height="24" viewBox="0 0 24 24" fill="none" xmlns="http://www.w3.org/2000/svg">
<g id="u-turn-arrow-left">
<g clip-path="url(#clip0_232_10140)">
<g id="Weight=Dynamic">
<path id="Vector (Stroke)" fill-rule="evenodd" clip-rule="evenodd" d="M7.25 8.00005C7.25 4.82442 9.82435 2.25 13 2.25C16.1756 2.25 18.75 4.82442 18.75 8.00005V21C18.75 21.4142 18.4142 21.75 18 21.75C17.5858 21.75 17.25 21.4142 17.25 21V8.00005C17.25 5.65283 15.3472 3.75 13 3.75C10.6528 3.75 8.75 5.65283 8.75 8.00005V13.1893L11.4697 10.4697C11.7626 10.1768 12.2374 10.1768 12.5303 10.4697C12.8232 10.7626 12.8232 11.2374 12.5303 11.5303L8.53033 15.5303C8.23744 15.8232 7.76256 15.8232 7.46967 15.5303L3.46967 11.5303C3.17678 11.2374 3.17678 10.7626 3.46967 10.4697C3.76256 10.1768 4.23744 10.1768 4.53033 10.4697L7.25 13.1893V8.00005Z" fill="black"/>
</g>
</g>
</g>
<defs>
<clipPath id="clip0_232_10140">
<rect width="24" height="24" rx="5" fill="white"/>
</clipPath>
</defs>
</svg>
