<svg width="24" height="24" viewBox="0 0 24 24" fill="none" xmlns="http://www.w3.org/2000/svg">
<g id="umbrella">
<g clip-path="url(#clip0_232_2594)">
<g id="Weight=Dynamic" clip-path="url(#clip1_232_2594)">
<path id="Vector (Stroke)" fill-rule="evenodd" clip-rule="evenodd" d="M3.70669 3.49815C5.92783 1.40013 8.87624 0.25 12 0.25C15.1237 0.25 18.0722 1.39995 20.2932 3.49819C22.5159 5.59792 23.75 8.40245 23.75 11.3911C23.75 12.1812 23.085 12.75 22.3556 12.75C21.6262 12.75 20.9611 12.1813 20.9611 11.3911C20.9611 10.8323 20.4654 10.3044 19.7667 10.3044C19.4787 10.3044 19.3436 10.3881 19.251 10.4772C19.1287 10.5947 19.024 10.779 18.8982 11.0725C18.8784 11.1187 18.8567 11.1718 18.833 11.2297C18.7355 11.4676 18.6051 11.786 18.445 12.0297C18.2066 12.3925 17.8084 12.75 17.1778 12.75C16.5473 12.75 16.149 12.3925 15.9106 12.0297C15.7505 11.786 15.6201 11.4676 15.5227 11.2297C15.4989 11.1718 15.4772 11.1187 15.4574 11.0726C15.3316 10.779 15.2269 10.5947 15.1046 10.4772C15.012 10.3881 14.8769 10.3044 14.5889 10.3044C14.009 10.3044 13.5595 10.6712 13.2074 11.1954C13.0375 11.4483 12.9133 11.7066 12.8314 11.9046C12.7953 11.9919 12.7684 12.0651 12.75 12.118L12.75 20C12.75 21.2035 12.2912 22.1613 11.5608 22.8106C10.8441 23.4476 9.90981 23.75 9 23.75C8.0902 23.75 7.15588 23.4476 6.43923 22.8106C5.70878 22.1613 5.25 21.2035 5.25 20C5.25 19.5858 5.58579 19.25 6 19.25C6.41421 19.25 6.75 19.5858 6.75 20C6.75 20.7965 7.04122 21.3387 7.43577 21.6894C7.84413 22.0524 8.40981 22.25 9 22.25C9.5902 22.25 10.1559 22.0524 10.5642 21.6894C10.9588 21.3387 11.25 20.7965 11.25 20L11.25 12.118C11.2316 12.0651 11.2047 11.9919 11.1686 11.9046C11.0867 11.7066 10.9625 11.4483 10.7926 11.1954C10.4405 10.6712 9.99098 10.3044 9.41109 10.3044C9.12463 10.3044 9.01247 10.3863 8.94173 10.4591C8.83552 10.5685 8.74608 10.743 8.62791 11.0481C8.61438 11.083 8.59988 11.1216 8.58429 11.1631C8.49025 11.4135 8.35694 11.7684 8.1623 12.0472C8.03587 12.2283 7.86388 12.4118 7.62534 12.5472C7.38277 12.6849 7.11143 12.75 6.82219 12.75C6.53294 12.75 6.2616 12.6849 6.01903 12.5472C5.78049 12.4118 5.6085 12.2283 5.48208 12.0472C5.28744 11.7684 5.15414 11.4135 5.06011 11.1631C5.04452 11.1216 5.03001 11.083 5.01648 11.0481C4.89832 10.743 4.80889 10.5685 4.70268 10.4592C4.63193 10.3863 4.51977 10.3044 4.23328 10.3044C3.53463 10.3044 3.03891 10.8323 3.03891 11.3911C3.03891 12.1813 2.37379 12.75 1.64437 12.75C0.914998 12.75 0.25 12.1812 0.25 11.3911C0.25 8.40242 1.48426 5.59791 3.70663 3.49821L3.70669 3.49815ZM12 10.3036C12.4762 9.61602 13.3109 8.80439 14.5889 8.80439C15.2471 8.80439 15.7599 9.02636 16.1443 9.39588C16.4989 9.73684 16.7 10.164 16.8362 10.4818C16.8814 10.5873 16.919 10.6784 16.952 10.7583C17.0366 10.963 17.0908 11.0942 17.1643 11.206C17.1691 11.2135 17.1736 11.22 17.1778 11.2259C17.182 11.22 17.1865 11.2135 17.1914 11.206C17.2649 11.0942 17.3191 10.963 17.4036 10.7583C17.4366 10.6784 17.4742 10.5873 17.5194 10.4818C17.6556 10.164 17.8567 9.73684 18.2113 9.39588C18.5957 9.02635 19.1085 8.80439 19.7667 8.80439C20.7973 8.80439 21.7279 9.37377 22.1773 10.2321C21.9085 8.1069 20.9016 6.13634 19.2631 4.58858L19.2631 4.58856C17.3292 2.76152 14.7527 1.75 12 1.75C9.24739 1.75 6.6709 2.76164 4.73677 4.58854M12 10.3036C11.5238 9.61602 10.6891 8.80439 9.41109 8.80439C8.75136 8.80439 8.24066 9.02815 7.86589 9.41389C7.52658 9.76312 7.34784 10.2 7.22918 10.5063C7.20616 10.5657 7.18525 10.6203 7.16597 10.6707C7.06656 10.9302 7.01044 11.0767 6.93237 11.1886C6.91539 11.2129 6.90269 11.2268 6.89493 11.2343C6.89326 11.2359 6.89182 11.2372 6.8906 11.2383C6.88904 11.2396 6.88786 11.2406 6.88704 11.2412L6.88491 11.2427L6.88414 11.243C6.88355 11.2432 6.88167 11.244 6.87807 11.2449C6.87119 11.2466 6.85384 11.25 6.82219 11.25C6.79054 11.25 6.77318 11.2466 6.7663 11.2449C6.7627 11.244 6.76083 11.2432 6.76023 11.243L6.75947 11.2427L6.75734 11.2412C6.75589 11.2401 6.75325 11.238 6.74945 11.2343C6.7417 11.2268 6.72899 11.2129 6.71202 11.1886C6.63396 11.0767 6.57784 10.9302 6.47845 10.6707C6.45916 10.6204 6.43824 10.5657 6.41522 10.5063C6.29657 10.2 6.11782 9.76312 5.77851 9.41389C5.40373 9.02815 4.89302 8.80439 4.23328 8.80439C3.20275 8.80439 2.27212 9.37376 1.82275 10.2321C2.09152 8.10692 3.09853 6.13637 4.7367 4.5886" fill="black"/>
</g>
</g>
</g>
<defs>
<clipPath id="clip0_232_2594">
<rect width="24" height="24" rx="5" fill="white"/>
</clipPath>
<clipPath id="clip1_232_2594">
<rect width="24" height="24" fill="white"/>
</clipPath>
</defs>
</svg>
