<svg width="24" height="24" viewBox="0 0 24 24" fill="none" xmlns="http://www.w3.org/2000/svg">
<g id="underline">
<g clip-path="url(#clip0_232_6593)">
<g id="Weight=Dynamic">
<path id="Vector (Stroke)" fill-rule="evenodd" clip-rule="evenodd" d="M8 4.25C8.41421 4.25 8.75 4.58579 8.75 5V11C8.75 12.7949 10.2051 14.25 12 14.25C13.7949 14.25 15.25 12.7949 15.25 11V5C15.25 4.58579 15.5858 4.25 16 4.25C16.4142 4.25 16.75 4.58579 16.75 5V11C16.75 13.6234 14.6234 15.75 12 15.75C9.37665 15.75 7.25 13.6234 7.25 11V5C7.25 4.58579 7.58579 4.25 8 4.25ZM18.75 19C18.75 19.4142 18.4142 19.75 18 19.75L6 19.75C5.58579 19.75 5.25 19.4142 5.25 19C5.25 18.5858 5.58579 18.25 6 18.25L18 18.25C18.4142 18.25 18.75 18.5858 18.75 19Z" fill="black"/>
</g>
</g>
</g>
<defs>
<clipPath id="clip0_232_6593">
<rect width="24" height="24" rx="5" fill="white"/>
</clipPath>
</defs>
</svg>
