<svg width="24" height="24" viewBox="0 0 24 24" fill="none" xmlns="http://www.w3.org/2000/svg">
<g id="undo-action">
<g clip-path="url(#clip0_232_1120)">
<g id="Weight=Dynamic">
<path id="Vector (Stroke)" fill-rule="evenodd" clip-rule="evenodd" d="M12.0303 3.96967C12.3232 4.26256 12.3232 4.73744 12.0303 5.03033L9.81066 7.25H15.0001C15.003 7.25 15.0058 7.25002 15.0087 7.25005C15.419 7.25471 15.7501 7.58869 15.7501 8C15.7501 8.41421 15.4143 8.75 15.0001 8.75C15.0004 8.75 15.0001 8.75 15.0001 8C15.0001 7.25 14.9997 7.25 15.0001 7.25L15.0017 7.25L15.0037 7.25001L15.0087 7.25005L15.0258 7.25023C15.0392 7.25043 15.0572 7.25081 15.0797 7.25152C15.1247 7.25293 15.1873 7.25565 15.2652 7.26088C15.4207 7.27133 15.6383 7.29192 15.8975 7.33259C16.4123 7.41335 17.111 7.57627 17.8194 7.90962C18.5296 8.24385 19.2693 8.75903 19.8308 9.55178C20.3973 10.3515 20.7501 11.3885 20.7501 12.7059C20.7501 14.1522 20.4069 15.2871 19.8535 16.1662C19.3017 17.0425 18.5681 17.6214 17.851 18.0011C17.1376 18.3787 16.4326 18.5639 15.9116 18.6559C15.6495 18.7021 15.4293 18.7256 15.2715 18.7375C15.1924 18.7435 15.1286 18.7466 15.0827 18.7482C15.0597 18.7491 15.0411 18.7495 15.0272 18.7497L15.01 18.75L15.0041 18.75L15.0018 18.75C15.0014 18.75 15.0001 18.75 15.0001 18V17.25C15.0004 17.25 15.0001 17.25 15.0001 18V18.75H6.28577C5.87155 18.75 5.53577 18.4142 5.53577 18C5.53577 17.5858 5.87155 17.25 6.28577 17.25H14.9979L15.0016 17.2499C15.0066 17.2499 15.0161 17.2497 15.0298 17.2492C15.057 17.2482 15.1007 17.2462 15.1583 17.2418C15.274 17.2331 15.4444 17.2152 15.651 17.1787C16.0675 17.1052 16.6125 16.9595 17.1491 16.6754C17.682 16.3933 18.1984 15.9796 18.5841 15.3669C18.9682 14.757 19.2501 13.9067 19.2501 12.7059C19.2501 11.6703 18.9778 10.9426 18.6068 10.4188C18.2308 9.88803 17.7205 9.52085 17.1807 9.26685C16.6391 9.01197 16.0878 8.88077 15.6651 8.81447C15.4556 8.78161 15.2825 8.76543 15.1646 8.7575C15.1057 8.75355 15.061 8.75167 15.0327 8.75078L15.003 8.75006L15.0001 8.75M9.81066 8.75L12.0303 10.9697C12.3232 11.2626 12.3232 11.7374 12.0303 12.0303C11.7374 12.3232 11.2626 12.3232 10.9697 12.0303L7.46967 8.53033C7.17678 8.23744 7.17678 7.76256 7.46967 7.46967L10.9697 3.96967C11.2626 3.67678 11.7374 3.67678 12.0303 3.96967M5 4.25C5.41421 4.25 5.75 4.58579 5.75 5V11C5.75 11.4142 5.41421 11.75 5 11.75C4.58579 11.75 4.25 11.4142 4.25 11V5C4.25 4.58579 4.58579 4.25 5 4.25Z" fill="black"/>
</g>
</g>
</g>
<defs>
<clipPath id="clip0_232_1120">
<rect width="24" height="24" rx="5" fill="white"/>
</clipPath>
</defs>
</svg>
