<svg width="24" height="24" viewBox="0 0 24 24" fill="none" xmlns="http://www.w3.org/2000/svg">
<g id="undo">
<g clip-path="url(#clip0_232_1102)">
<g id="Weight=Dynamic">
<path id="Vector (Stroke)" fill-rule="evenodd" clip-rule="evenodd" d="M8.03033 3.96967C8.32322 4.26256 8.32322 4.73744 8.03033 5.03033L5.81066 7.25H15C15.0029 7.25 15.0058 7.25002 15.0087 7.25005C15.4189 7.25471 15.75 7.58869 15.75 8C15.75 8.41421 15.4142 8.75 15 8.75C15.0003 8.75 15 8.75 15 8C15 7.25 14.9996 7.25 15 7.25L15.0016 7.25L15.0037 7.25001L15.0087 7.25005L15.0257 7.25023C15.0391 7.25043 15.0572 7.25081 15.0797 7.25152C15.1246 7.25293 15.1873 7.25565 15.2652 7.26088C15.4206 7.27133 15.6382 7.29192 15.8975 7.33259C16.4123 7.41335 17.111 7.57627 17.8193 7.90962C18.5296 8.24385 19.2692 8.75903 19.8308 9.55178C20.3973 10.3515 20.75 11.3885 20.75 12.7059C20.75 14.1522 20.4069 15.2871 19.8534 16.1662C19.3017 17.0425 18.5681 17.6214 17.8509 18.0011C17.1376 18.3787 16.4325 18.5639 15.9116 18.6559C15.6495 18.7021 15.4292 18.7256 15.2714 18.7375C15.1924 18.7435 15.1286 18.7466 15.0826 18.7482C15.0695 18.7487 15.0578 18.749 15.0476 18.7493C15.0399 18.7495 15.0331 18.7496 15.0271 18.7497L15.0099 18.75L15.004 18.75L15.0018 18.75C15.0014 18.75 15 18.75 15 18V17.25C15.0004 17.25 15 17.25 15 18V18.75H6.28571C5.8715 18.75 5.53571 18.4142 5.53571 18C5.53571 17.5858 5.8715 17.25 6.28571 17.25H14.9978L15.0015 17.2499C15.004 17.2499 15.0075 17.2498 15.0121 17.2497C15.0168 17.2496 15.0227 17.2494 15.0297 17.2492C15.057 17.2482 15.1006 17.2462 15.1583 17.2418C15.2739 17.2331 15.4443 17.2152 15.6509 17.1787C16.0675 17.1052 16.6124 16.9595 17.1491 16.6754C17.6819 16.3933 18.1983 15.9796 18.5841 15.3669C18.9681 14.757 19.25 13.9067 19.25 12.7059C19.25 11.6703 18.9777 10.9426 18.6067 10.4188C18.2308 9.88803 17.7204 9.52085 17.1807 9.26685C16.639 9.01197 16.0877 8.88077 15.665 8.81447C15.4555 8.78161 15.2825 8.76543 15.1645 8.7575C15.1057 8.75355 15.0609 8.75167 15.0326 8.75078L15.003 8.75006L15 8.75M5.81066 8.75L8.03033 10.9697C8.32322 11.2626 8.32322 11.7374 8.03033 12.0303C7.73744 12.3232 7.26256 12.3232 6.96967 12.0303L3.46967 8.53033C3.17678 8.23744 3.17678 7.76256 3.46967 7.46967L6.96967 3.96967C7.26256 3.67678 7.73744 3.67678 8.03033 3.96967" fill="black"/>
</g>
</g>
</g>
<defs>
<clipPath id="clip0_232_1102">
<rect width="24" height="24" rx="5" fill="white"/>
</clipPath>
</defs>
</svg>
