<svg width="24" height="24" viewBox="0 0 24 24" fill="none" xmlns="http://www.w3.org/2000/svg">
<g id="union">
<g clip-path="url(#clip0_232_4310)">
<g id="Weight=Dynamic">
<path id="Vector (Stroke)" fill-rule="evenodd" clip-rule="evenodd" d="M2.25 3.6C2.25 2.85442 2.85442 2.25 3.6 2.25H14.4C15.1456 2.25 15.75 2.85442 15.75 3.6V8.25H20.4C21.1456 8.25 21.75 8.85442 21.75 9.6V20.4C21.75 21.1456 21.1456 21.75 20.4 21.75H9.6C8.85442 21.75 8.25 21.1456 8.25 20.4V15.75H3.6C2.85442 15.75 2.25 15.1456 2.25 14.4V3.6ZM3.75 3.75V14.25H8.4C9.14558 14.25 9.75 14.8544 9.75 15.6V20.25H20.25V9.75H15.6C14.8544 9.75 14.25 9.14558 14.25 8.4V3.75H3.75Z" fill="black"/>
</g>
</g>
</g>
<defs>
<clipPath id="clip0_232_4310">
<rect width="24" height="24" rx="5" fill="white"/>
</clipPath>
</defs>
</svg>
