<svg width="24" height="24" viewBox="0 0 24 24" fill="none" xmlns="http://www.w3.org/2000/svg">
<g id="union-horiz-alt">
<g clip-path="url(#clip0_232_4294)">
<g id="Weight=Dynamic">
<path id="Vector (Stroke)" fill-rule="evenodd" clip-rule="evenodd" d="M8 5.75C4.54822 5.75 1.75 8.54822 1.75 12C1.75 15.4518 4.54822 18.25 8 18.25C8.96252 18.25 9.87423 18.0324 10.6886 17.6438C9.18734 16.2304 8.25 14.2246 8.25 12C8.25 9.77535 9.18734 7.76964 10.6886 6.35624C9.87423 5.96758 8.96252 5.75 8 5.75ZM12 5.36069C10.8323 4.65567 9.46352 4.25 8 4.25C3.71979 4.25 0.25 7.71979 0.25 12C0.25 16.2802 3.71979 19.75 8 19.75C9.46352 19.75 10.8323 19.3443 12 18.6393C13.1677 19.3443 14.5365 19.75 16 19.75C20.2802 19.75 23.75 16.2802 23.75 12C23.75 7.71979 20.2802 4.25 16 4.25C14.5365 4.25 13.1677 4.65567 12 5.36069ZM12 7.19745C10.625 8.34392 9.75 10.0698 9.75 12C9.75 13.9302 10.625 15.6561 12 16.8025C13.375 15.6561 14.25 13.9302 14.25 12C14.25 10.0698 13.375 8.34392 12 7.19745ZM13.3114 17.6438C14.8127 16.2304 15.75 14.2246 15.75 12C15.75 9.77535 14.8127 7.76964 13.3114 6.35624C14.1258 5.96758 15.0375 5.75 16 5.75C19.4518 5.75 22.25 8.54822 22.25 12C22.25 15.4518 19.4518 18.25 16 18.25C15.0375 18.25 14.1258 18.0324 13.3114 17.6438Z" fill="black"/>
</g>
</g>
</g>
<defs>
<clipPath id="clip0_232_4294">
<rect width="24" height="24" rx="5" fill="white"/>
</clipPath>
</defs>
</svg>
