<svg width="24" height="24" viewBox="0 0 24 24" fill="none" xmlns="http://www.w3.org/2000/svg">
<g id="union-alt">
<g clip-path="url(#clip0_232_4302)">
<g id="Weight=Dynamic">
<path id="Vector (Stroke)" fill-rule="evenodd" clip-rule="evenodd" d="M8.75472 8.75473C8.75158 8.83609 8.75 8.91786 8.75 9C8.75 12.4518 11.5482 15.25 15 15.25C15.0821 15.25 15.1639 15.2484 15.2453 15.2453C15.2484 15.1639 15.25 15.0821 15.25 15C15.25 11.5482 12.4518 8.75 9 8.75C8.91786 8.75 8.83609 8.75159 8.75472 8.75473ZM8.99831 7.25C8.99887 7.25 8.99944 7.25 9 7.25C13.2802 7.25 16.75 10.7198 16.75 15C16.75 15.0006 16.75 15.0011 16.75 15.0017C19.35 14.2449 21.25 11.8443 21.25 9C21.25 5.54822 18.4518 2.75 15 2.75C12.1557 2.75 9.75515 4.64998 8.99831 7.25ZM16.5873 16.5873C15.8549 20.1062 12.7362 22.75 9 22.75C4.71979 22.75 1.25 19.2802 1.25 15C1.25 11.2638 3.89382 8.14511 7.4127 7.4127C8.14511 3.89383 11.2638 1.25 15 1.25C19.2802 1.25 22.75 4.71979 22.75 9C22.75 12.7362 20.1062 15.8549 16.5873 16.5873ZM15.0017 16.75C15.0011 16.75 15.0006 16.75 15 16.75C10.7198 16.75 7.25 13.2802 7.25 9C7.25 8.99944 7.25 8.99887 7.25 8.99831C4.64998 9.75515 2.75 12.1557 2.75 15C2.75 18.4518 5.54822 21.25 9 21.25C11.8443 21.25 14.2449 19.35 15.0017 16.75Z" fill="black"/>
</g>
</g>
</g>
<defs>
<clipPath id="clip0_232_4302">
<rect width="24" height="24" rx="5" fill="white"/>
</clipPath>
</defs>
</svg>
