<svg width="24" height="24" viewBox="0 0 24 24" fill="none" xmlns="http://www.w3.org/2000/svg">
<g id="unity-5">
<g clip-path="url(#clip0_232_5457)">
<g id="Weight=Dynamic">
<path id="Vector (Stroke)" fill-rule="evenodd" clip-rule="evenodd" d="M4.93865 3.17678C5.12126 2.62363 5.63808 2.25 6.22059 2.25H17.7161C18.296 2.25 18.8112 2.6204 18.9958 3.17017L22.5633 13.7916C22.759 14.3744 22.5363 15.0157 22.0216 15.3518L12.7381 21.4138C12.2896 21.7066 11.7104 21.7066 11.2619 21.4138L1.97634 15.3505C1.4638 15.0158 1.24059 14.3782 1.4325 13.7969L4.93865 3.17678ZM6.32903 3.75L2.89304 14.1576L12 20.1043L21.1044 14.1593L17.6082 3.75H6.32903ZM9.25374 5.92537C9.29208 5.54197 9.61471 5.25 10 5.25H14.5C14.9142 5.25 15.25 5.58579 15.25 6C15.25 6.41421 14.9142 6.75 14.5 6.75H10.6788L10.4402 9.13587C10.9401 8.88893 11.5031 8.75 12.0987 8.75C14.1697 8.75 15.8487 10.4289 15.8487 12.5C15.8487 13.5335 15.4296 14.4706 14.7538 15.1481C14.0758 15.828 13.1358 16.25 12.0987 16.25C10.7097 16.25 9.49808 15.4945 8.85082 14.3755C8.64341 14.017 8.76593 13.5582 9.12448 13.3508C9.48302 13.1434 9.94182 13.2659 10.1492 13.6245C10.5394 14.2989 11.2668 14.75 12.0987 14.75C12.7213 14.75 13.2836 14.4981 13.6918 14.0889C14.0985 13.6811 14.3487 13.1205 14.3487 12.5C14.3487 11.2574 13.3413 10.25 12.0987 10.25C11.2668 10.25 10.5394 10.7011 10.1492 11.3755C9.97232 11.6814 9.60599 11.8222 9.26976 11.7138C8.93353 11.6053 8.71859 11.2769 8.75374 10.9254L9.25374 5.92537Z" fill="black"/>
</g>
</g>
</g>
<defs>
<clipPath id="clip0_232_5457">
<rect width="24" height="24" rx="5" fill="white"/>
</clipPath>
</defs>
</svg>
