<svg width="24" height="24" viewBox="0 0 24 24" fill="none" xmlns="http://www.w3.org/2000/svg">
<g id="unity">
<g clip-path="url(#clip0_232_5451)">
<g id="Weight=Dynamic">
<path id="Vector (Stroke)" fill-rule="evenodd" clip-rule="evenodd" d="M18.3767 3.26023C18.7564 3.19695 19.1223 3.43135 19.2236 3.80269L20.7236 9.30269C20.8326 9.7023 20.597 10.1146 20.1973 10.2236C19.7977 10.3326 19.3854 10.097 19.2764 9.69736L18.2611 5.97442L14.3858 12.9499L18.1921 18.2786L19.2764 14.3027C19.3854 13.9031 19.7977 13.6675 20.1973 13.7765C20.597 13.8854 20.8326 14.2977 20.7236 14.6974L19.2236 20.1974C19.1284 20.5462 18.798 20.7775 18.4377 20.7474L12.4377 20.2474C12.0249 20.213 11.7182 19.8505 11.7526 19.4377C11.787 19.025 12.1495 18.7182 12.5623 18.7526L16.9484 19.1181L13.114 13.75H5.67013L8.56056 17.0018C8.83575 17.3113 8.80786 17.7854 8.49827 18.0606C8.18869 18.3358 7.71463 18.3079 7.43944 17.9983L3.43944 13.4983C3.18685 13.2141 3.18685 12.7859 3.43944 12.5018L7.43944 8.00175C7.71463 7.69216 8.18869 7.66428 8.49827 7.93947C8.80786 8.21466 8.83575 8.68871 8.56056 8.9983L5.67013 12.25H13.0587L17.089 4.99554L12.6233 5.73982C12.2147 5.80792 11.8283 5.5319 11.7602 5.12332C11.6921 4.71475 11.9681 4.32833 12.3767 4.26023L18.3767 3.26023Z" fill="black"/>
</g>
</g>
</g>
<defs>
<clipPath id="clip0_232_5451">
<rect width="24" height="24" rx="5" fill="white"/>
</clipPath>
</defs>
</svg>
