<svg width="24" height="24" viewBox="0 0 24 24" fill="none" xmlns="http://www.w3.org/2000/svg">
<g id="unjoin-3d">
<g clip-path="url(#clip0_232_951)">
<g id="Weight=Dynamic">
<path id="Vector (Stroke)" fill-rule="evenodd" clip-rule="evenodd" d="M2.01758 2.76782C2.01758 2.35361 2.35336 2.01782 2.76758 2.01782H6.30311C6.71732 2.01782 7.05311 2.35361 7.05311 2.76782C7.05311 3.18204 6.71732 3.51782 6.30311 3.51782H4.57815L7.13673 6.07657C7.42961 6.36947 7.42959 6.84434 7.13669 7.13723C6.84379 7.43011 6.36892 7.43009 6.07603 7.13719L3.51758 4.57857V6.30336C3.51758 6.71757 3.18179 7.05336 2.76758 7.05336C2.35336 7.05336 2.01758 6.71757 2.01758 6.30336V2.76782ZM11.8352 6.32912C12.2057 6.51437 12.3559 6.96487 12.1706 7.33535L10.2133 11.2499H14.9998C15.2597 11.2499 15.5011 11.3845 15.6378 11.6056C15.7745 11.8268 15.7869 12.1029 15.6706 12.3354L13.1706 17.3354C12.9854 17.7058 12.5349 17.856 12.1644 17.6708C11.7939 17.4855 11.6437 17.035 11.829 16.6645L13.7863 12.7499H8.99981C8.73988 12.7499 8.49848 12.6154 8.36182 12.3942C8.22517 12.1731 8.21275 11.897 8.32899 11.6645L10.829 6.66453C11.0142 6.29405 11.4647 6.14388 11.8352 6.32912ZM16.4695 16.4696C16.7624 16.1767 17.2373 16.1767 17.5302 16.4696L20.0886 19.0283V17.3035C20.0886 16.8893 20.4244 16.5535 20.8386 16.5535C21.2528 16.5535 21.5886 16.8893 21.5886 17.3035V20.839C21.5886 21.2532 21.2528 21.589 20.8386 21.589H17.3031C16.8889 21.589 16.5531 21.2532 16.5531 20.839C16.5531 20.4248 16.8889 20.089 17.3031 20.089H19.028L16.4695 17.5303C16.1766 17.2374 16.1766 16.7625 16.4695 16.4696Z" fill="black"/>
</g>
</g>
</g>
<defs>
<clipPath id="clip0_232_951">
<rect width="24" height="24" rx="5" fill="white"/>
</clipPath>
</defs>
</svg>
