<svg width="24" height="24" viewBox="0 0 24 24" fill="none" xmlns="http://www.w3.org/2000/svg">
<g id="usb">
<g clip-path="url(#clip0_232_3651)">
<g id="Weight=Dynamic">
<path id="Vector (Stroke)" fill-rule="evenodd" clip-rule="evenodd" d="M11.9697 1.46967C12.2626 1.17678 12.7374 1.17678 13.0303 1.46967L15.0303 3.46967C15.3232 3.76256 15.3232 4.23744 15.0303 4.53033C14.7374 4.82322 14.2626 4.82322 13.9697 4.53033L13.25 3.81066V12.9292L17.25 11.4747V9.25H16.5C16.0858 9.25 15.75 8.91421 15.75 8.5V5.5C15.75 5.08579 16.0858 4.75 16.5 4.75H19.5C19.9142 4.75 20.25 5.08579 20.25 5.5V8.5C20.25 8.91421 19.9142 9.25 19.5 9.25H18.75V12C18.75 12.3154 18.5527 12.5971 18.2563 12.7048L13.25 14.5253V15.9828C13.2502 15.9939 13.2503 16.0051 13.25 16.0163V16.337C14.6834 16.6755 15.75 17.9632 15.75 19.5C15.75 21.2949 14.2949 22.75 12.5 22.75C10.7051 22.75 9.25 21.2949 9.25 19.5C9.25 18.1125 10.1194 16.9281 11.3432 16.4619L6.80266 15.2236C6.47637 15.1346 6.25 14.8382 6.25 14.5V11.6465C5.09575 11.32 4.25 10.2588 4.25 9C4.25 7.48122 5.48122 6.25 7 6.25C8.51878 6.25 9.75 7.48122 9.75 9C9.75 10.2588 8.90425 11.32 7.75 11.6465V13.9272L11.75 15.0181V14.0175C11.7497 14.0058 11.7497 13.9942 11.75 13.9826V3.81066L11.0303 4.53033C10.7374 4.82322 10.2626 4.82322 9.96967 4.53033C9.67678 4.23744 9.67678 3.76256 9.96967 3.46967L11.9697 1.46967ZM18.75 7.75V6.25H17.25V7.75H18.75ZM7 7.75C6.30964 7.75 5.75 8.30964 5.75 9C5.75 9.69036 6.30964 10.25 7 10.25C7.69036 10.25 8.25 9.69036 8.25 9C8.25 8.30964 7.69036 7.75 7 7.75ZM12.5 17.75C11.5335 17.75 10.75 18.5335 10.75 19.5C10.75 20.4665 11.5335 21.25 12.5 21.25C13.4665 21.25 14.25 20.4665 14.25 19.5C14.25 18.5335 13.4665 17.75 12.5 17.75Z" fill="black"/>
</g>
</g>
</g>
<defs>
<clipPath id="clip0_232_3651">
<rect width="24" height="24" rx="5" fill="white"/>
</clipPath>
</defs>
</svg>
