<svg width="24" height="24" viewBox="0 0 24 24" fill="none" xmlns="http://www.w3.org/2000/svg">
<g id="user-cart">
<g clip-path="url(#clip0_232_13378)">
<g id="Weight=Dynamic">
<path id="Vector (Stroke)" fill-rule="evenodd" clip-rule="evenodd" d="M9 3.75C7.20507 3.75 5.75 5.20507 5.75 7C5.75 8.79493 7.20507 10.25 9 10.25C10.7949 10.25 12.25 8.79493 12.25 7C12.25 5.20507 10.7949 3.75 9 3.75ZM11.8581 10.7943C13.0072 9.9273 13.75 8.55039 13.75 7C13.75 4.37665 11.6234 2.25 9 2.25C6.37665 2.25 4.25 4.37665 4.25 7C4.25 8.55031 4.99271 9.92714 6.14172 10.7941C3.27612 11.9317 1.25 14.7293 1.25 18C1.25 18.4142 1.58579 18.75 2 18.75C2.41421 18.75 2.75 18.4142 2.75 18C2.75 14.5482 5.54822 11.75 9 11.75C10.4606 11.75 11.8023 12.2501 12.8662 13.089C13.1915 13.3454 13.6631 13.2896 13.9195 12.9644C14.176 12.6391 14.1202 12.1675 13.795 11.911C13.2114 11.451 12.5599 11.0729 11.8581 10.7943ZM22.2372 11.7885C22.6301 11.9195 22.8425 12.3442 22.7115 12.7372L20.7115 18.7372C20.6094 19.0434 20.3228 19.25 20 19.25H15.5C15.1651 19.25 14.8709 19.028 14.7789 18.706L13.7789 15.206C13.7142 14.9798 13.7595 14.7362 13.9012 14.5484C14.043 14.3605 14.2647 14.25 14.5 14.25H20.6261L21.2885 12.2628C21.4195 11.8699 21.8442 11.6575 22.2372 11.7885ZM20.1261 15.75H15.4943L16.0657 17.75H19.4594L20.1261 15.75ZM17.0117 19.9414C17.3196 20.2185 17.3446 20.6927 17.0675 21.0006L17.0575 21.0117C16.7804 21.3196 16.3062 21.3446 15.9983 21.0675C15.6904 20.7904 15.6654 20.3162 15.9425 20.0083L15.9525 19.9972C16.2296 19.6893 16.7038 19.6643 17.0117 19.9414ZM20.0117 19.9414C20.3196 20.2185 20.3446 20.6927 20.0675 21.0006L20.0575 21.0117C19.7804 21.3196 19.3062 21.3446 18.9983 21.0675C18.6904 20.7904 18.6654 20.3162 18.9425 20.0083L18.9525 19.9972C19.2296 19.6893 19.7038 19.6643 20.0117 19.9414Z" fill="black"/>
</g>
</g>
</g>
<defs>
<clipPath id="clip0_232_13378">
<rect width="24" height="24" rx="5" fill="white"/>
</clipPath>
</defs>
</svg>
