<svg width="24" height="24" viewBox="0 0 24 24" fill="none" xmlns="http://www.w3.org/2000/svg">
<g id="user-bag">
<g clip-path="url(#clip0_232_13366)">
<g id="Weight=Dynamic">
<path id="Vector (Stroke)" fill-rule="evenodd" clip-rule="evenodd" d="M9 3.75C7.20507 3.75 5.75 5.20507 5.75 7C5.75 8.79493 7.20507 10.25 9 10.25C10.7949 10.25 12.25 8.79493 12.25 7C12.25 5.20507 10.7949 3.75 9 3.75ZM11.8581 10.7943C13.0072 9.9273 13.75 8.55039 13.75 7C13.75 4.37665 11.6234 2.25 9 2.25C6.37665 2.25 4.25 4.37665 4.25 7C4.25 8.55031 4.99271 9.92714 6.14172 10.7941C3.27612 11.9317 1.25 14.7293 1.25 18C1.25 18.4142 1.58579 18.75 2 18.75C2.41421 18.75 2.75 18.4142 2.75 18C2.75 14.5482 5.54822 11.75 9 11.75C10.4606 11.75 11.8023 12.2501 12.8662 13.089C13.1915 13.3454 13.6631 13.2896 13.9195 12.9644C14.176 12.6391 14.1202 12.1675 13.795 11.911C13.2114 11.451 12.5599 11.0729 11.8581 10.7943ZM16.25 13C16.25 12.5858 16.5858 12.25 17 12.25H19C19.4142 12.25 19.75 12.5858 19.75 13C19.75 13.4142 19.4142 13.75 19 13.75H17C16.5858 13.75 16.25 13.4142 16.25 13ZM13.8941 16.597C14.0939 15.2486 15.2513 14.25 16.6144 14.25H19.3856C20.7487 14.25 21.9061 15.2486 22.1059 16.597L22.4022 18.597C22.6483 20.2581 21.3611 21.75 19.6819 21.75H16.3181C14.6389 21.75 13.3517 20.2581 13.5978 18.597L13.8941 16.597ZM16.6144 15.75C15.9948 15.75 15.4687 16.2039 15.3779 16.8168L15.0816 18.8168C14.9698 19.5719 15.5548 20.25 16.3181 20.25H19.6819C20.4452 20.25 21.0302 19.5719 20.9184 18.8168L20.6221 16.8168C20.5313 16.2039 20.0052 15.75 19.3856 15.75H16.6144Z" fill="black"/>
</g>
</g>
</g>
<defs>
<clipPath id="clip0_232_13366">
<rect width="24" height="24" rx="5" fill="white"/>
</clipPath>
</defs>
</svg>
