<svg width="24" height="24" viewBox="0 0 24 24" fill="none" xmlns="http://www.w3.org/2000/svg">
<g id="user">
<g clip-path="url(#clip0_232_16406)">
<g id="Weight=Dynamic">
<path id="Vector (Stroke)" fill-rule="evenodd" clip-rule="evenodd" d="M12 4.75C10.2051 4.75 8.75 6.20507 8.75 8C8.75 9.79493 10.2051 11.25 12 11.25C13.7949 11.25 15.25 9.79493 15.25 8C15.25 6.20507 13.7949 4.75 12 4.75ZM14.8583 11.7941C16.0073 10.9271 16.75 9.55031 16.75 8C16.75 5.37665 14.6234 3.25 12 3.25C9.37665 3.25 7.25 5.37665 7.25 8C7.25 9.55031 7.99271 10.9271 9.14172 11.7941C6.27612 12.9317 4.25 15.7293 4.25 19V20C4.25 20.4142 4.58579 20.75 5 20.75C5.41421 20.75 5.75 20.4142 5.75 20V19C5.75 15.5482 8.54822 12.75 12 12.75C15.4518 12.75 18.25 15.5482 18.25 19V20C18.25 20.4142 18.5858 20.75 19 20.75C19.4142 20.75 19.75 20.4142 19.75 20V19C19.75 15.7293 17.7239 12.9317 14.8583 11.7941Z" fill="black"/>
</g>
</g>
</g>
<defs>
<clipPath id="clip0_232_16406">
<rect width="24" height="24" rx="5" fill="white"/>
</clipPath>
</defs>
</svg>
