<svg width="24" height="24" viewBox="0 0 24 24" fill="none" xmlns="http://www.w3.org/2000/svg">
<g id="user-star">
<g clip-path="url(#clip0_232_16538)">
<g id="Weight=Dynamic">
<path id="Vector (Stroke)" fill-rule="evenodd" clip-rule="evenodd" d="M12 4.75C10.2051 4.75 8.75 6.20507 8.75 8C8.75 9.79493 10.2051 11.25 12 11.25C13.7949 11.25 15.25 9.79493 15.25 8C15.25 6.20507 13.7949 4.75 12 4.75ZM14.8581 11.7943C16.0072 10.9273 16.75 9.55039 16.75 8C16.75 5.37665 14.6234 3.25 12 3.25C9.37665 3.25 7.25 5.37665 7.25 8C7.25 9.55031 7.99271 10.9271 9.14172 11.7941C6.27613 12.9317 4.25 15.7293 4.25 19V20C4.25 20.4142 4.58579 20.75 5 20.75C5.41421 20.75 5.75 20.4142 5.75 20V19C5.75 15.5482 8.54822 12.75 12 12.75C12.9599 12.75 13.8674 12.9659 14.6782 13.3511C15.0523 13.5288 15.4997 13.3696 15.6774 12.9955C15.8552 12.6213 15.696 12.1739 15.3218 11.9962C15.1699 11.924 15.0152 11.8566 14.8581 11.7943ZM16.9956 13.8922C17.3994 13.0359 18.6006 13.0359 19.0044 13.8922L19.8731 15.7341L21.802 16.0292C22.7501 16.1743 23.0363 17.3219 22.4251 17.945L21.0103 19.3872L21.3455 21.433C21.4846 22.2816 20.6006 23.0993 19.7162 22.6125L18 21.6679L16.2838 22.6125C15.3994 23.0993 14.5154 22.2816 14.6545 21.433L14.9897 19.3872L13.5749 17.945C12.9637 17.3219 13.2499 16.1743 14.198 16.0292L16.1269 15.7341L16.9956 13.8922ZM18 15.279L17.3133 16.7351C17.2068 16.9608 16.9951 17.1188 16.7484 17.1565L15.1435 17.402L16.3267 18.6082C16.494 18.7787 16.5701 19.0189 16.5314 19.2547L16.2596 20.9136L17.6384 20.1547C17.8635 20.0308 18.1365 20.0308 18.3616 20.1547L19.7404 20.9136L19.4686 19.2547C19.4299 19.0189 19.506 18.7787 19.6733 18.6082L20.8565 17.402L19.2516 17.1565C19.0049 17.1188 18.7932 16.9608 18.6867 16.7351L18 15.279Z" fill="black"/>
</g>
</g>
</g>
<defs>
<clipPath id="clip0_232_16538">
<rect width="24" height="24" rx="5" fill="white"/>
</clipPath>
</defs>
</svg>
