<svg width="24" height="24" viewBox="0 0 24 24" fill="none" xmlns="http://www.w3.org/2000/svg">
<g id="user-love">
<g clip-path="url(#clip0_232_16531)">
<g id="Weight=Dynamic">
<path id="Vector (Stroke)" fill-rule="evenodd" clip-rule="evenodd" d="M12 4.75C10.2051 4.75 8.75 6.20507 8.75 8C8.75 9.79493 10.2051 11.25 12 11.25C13.7949 11.25 15.25 9.79493 15.25 8C15.25 6.20507 13.7949 4.75 12 4.75ZM14.8581 11.7943C16.0072 10.9273 16.75 9.55039 16.75 8C16.75 5.37665 14.6234 3.25 12 3.25C9.37665 3.25 7.25 5.37665 7.25 8C7.25 9.55031 7.99271 10.9271 9.14172 11.7941C6.27613 12.9317 4.25 15.7293 4.25 19V20C4.25 20.4142 4.58579 20.75 5 20.75C5.41421 20.75 5.75 20.4142 5.75 20V19C5.75 15.5482 8.54822 12.75 12 12.75C12.9599 12.75 13.8674 12.9659 14.6782 13.3511C15.0523 13.5288 15.4997 13.3696 15.6774 12.9955C15.8552 12.6213 15.696 12.1739 15.3218 11.9962C15.1699 11.924 15.0152 11.8566 14.8581 11.7943ZM19.7221 15.75C19.3148 15.75 18.9248 15.9128 18.6384 16.2016L18.6383 16.2017L18.5323 16.3085C18.3915 16.4505 18.1998 16.5303 17.9999 16.5303C17.8 16.5303 17.6083 16.4505 17.4675 16.3085L17.3615 16.2017L17.893 15.6742L17.3615 16.2017C16.7642 15.5997 15.7912 15.5997 15.1939 16.2017C14.602 16.7981 14.602 17.7614 15.1939 18.3578L18.0036 21.1894C18.6253 20.6011 19.2148 19.9924 19.8164 19.3712C20.1404 19.0366 20.468 18.6984 20.8059 18.3578L20.8061 18.3577C21.0905 18.0712 21.25 17.6835 21.25 17.2798C21.25 16.876 21.0906 16.4884 20.806 16.2018L20.8058 16.2016C20.5194 15.9128 20.1294 15.75 19.7221 15.75ZM18.0003 14.7876C18.5023 14.4403 19.102 14.25 19.7221 14.25C20.5299 14.25 21.3031 14.5729 21.8708 15.1452C22.4346 15.7133 22.75 16.4808 22.75 17.2798C22.75 18.0787 22.4345 18.8464 21.8707 19.4144C21.5603 19.7272 21.2465 20.0511 20.9288 20.3791C20.2747 21.0542 19.6044 21.7461 18.9147 22.3918L18.9107 22.3956L18.9107 22.3956C18.3827 22.8827 17.5543 22.8662 17.0471 22.3551L14.1291 19.4144C12.957 18.2331 12.957 16.3264 14.1291 15.1451C15.1799 14.0862 16.8175 13.967 18.0003 14.7876Z" fill="black"/>
</g>
</g>
</g>
<defs>
<clipPath id="clip0_232_16531">
<rect width="24" height="24" rx="5" fill="white"/>
</clipPath>
</defs>
</svg>
