<svg width="24" height="24" viewBox="0 0 24 24" fill="none" xmlns="http://www.w3.org/2000/svg">
<g id="user-square">
<g clip-path="url(#clip0_232_16444)">
<g id="Weight=Dynamic">
<path id="Vector (Stroke)" fill-rule="evenodd" clip-rule="evenodd" d="M2.25 3.6C2.25 2.85442 2.85442 2.25 3.6 2.25H20.4C21.1456 2.25 21.75 2.85442 21.75 3.6V20.4C21.75 21.1456 21.1456 21.75 20.4 21.75H3.6C2.85442 21.75 2.25 21.1456 2.25 20.4V3.6ZM3.75 3.75V20.25H20.25V3.75H3.75ZM12 6.75C10.7574 6.75 9.75 7.75736 9.75 9C9.75 10.2426 10.7574 11.25 12 11.25C13.2426 11.25 14.25 10.2426 14.25 9C14.25 7.75736 13.2426 6.75 12 6.75ZM14.4815 11.8116C15.2594 11.1245 15.75 10.1195 15.75 9C15.75 6.92893 14.0711 5.25 12 5.25C9.92893 5.25 8.25 6.92893 8.25 9C8.25 10.1195 8.74057 11.1245 9.51848 11.8116C7.58514 12.7379 6.25 14.713 6.25 17V18C6.25 18.4142 6.58579 18.75 7 18.75C7.41421 18.75 7.75 18.4142 7.75 18V17C7.75 14.6528 9.65279 12.75 12 12.75C14.3472 12.75 16.25 14.6528 16.25 17V18C16.25 18.4142 16.5858 18.75 17 18.75C17.4142 18.75 17.75 18.4142 17.75 18V17C17.75 14.713 16.4149 12.7379 14.4815 11.8116Z" fill="black"/>
</g>
</g>
</g>
<defs>
<clipPath id="clip0_232_16444">
<rect width="24" height="24" rx="5" fill="white"/>
</clipPath>
</defs>
</svg>
