<svg width="24" height="24" viewBox="0 0 24 24" fill="none" xmlns="http://www.w3.org/2000/svg">
<g id="user-crown">
<g clip-path="url(#clip0_232_16473)">
<g id="Weight=Dynamic">
<path id="Vector (Stroke)" fill-rule="evenodd" clip-rule="evenodd" d="M12 4.75C10.2051 4.75 8.75 6.20507 8.75 8C8.75 9.79493 10.2051 11.25 12 11.25C13.7949 11.25 15.25 9.79493 15.25 8C15.25 6.20507 13.7949 4.75 12 4.75ZM14.8581 11.7943C16.0072 10.9273 16.75 9.55039 16.75 8C16.75 5.37665 14.6234 3.25 12 3.25C9.37665 3.25 7.25 5.37665 7.25 8C7.25 9.55031 7.99271 10.9271 9.14172 11.7941C6.27613 12.9317 4.25 15.7293 4.25 19V20C4.25 20.4142 4.58579 20.75 5 20.75C5.41421 20.75 5.75 20.4142 5.75 20V19C5.75 15.5482 8.54822 12.75 12 12.75C12.9599 12.75 13.8674 12.9659 14.6782 13.3511C15.0523 13.5288 15.4997 13.3696 15.6774 12.9955C15.8552 12.6213 15.696 12.1739 15.3218 11.9962C15.1699 11.924 15.0152 11.8566 14.8581 11.7943ZM11.5579 15.3942C11.787 15.227 12.0908 15.2033 12.343 15.333L15.3086 16.8582L16.4238 15.5199C16.5663 15.3489 16.7774 15.25 17 15.25C17.2226 15.25 17.4337 15.3489 17.5762 15.5199L18.6914 16.8582L21.657 15.333C21.9092 15.2033 22.213 15.227 22.4421 15.3942C22.6712 15.5614 22.7864 15.8435 22.7398 16.1233L21.7398 22.1233C21.6795 22.4849 21.3666 22.75 21 22.75H13C12.6334 22.75 12.3205 22.4849 12.2602 22.1233L11.2602 16.1233C11.2136 15.8435 11.3288 15.5614 11.5579 15.3942ZM12.9854 17.3501L13.6353 21.25H20.3647L21.0146 17.3501L18.843 18.467C18.5307 18.6276 18.1487 18.55 17.9238 18.2801L17 17.1715L16.0762 18.2801C15.8513 18.55 15.4693 18.6276 15.157 18.467L12.9854 17.3501Z" fill="black"/>
</g>
</g>
</g>
<defs>
<clipPath id="clip0_232_16473">
<rect width="24" height="24" rx="5" fill="white"/>
</clipPath>
</defs>
</svg>
