<svg width="24" height="24" viewBox="0 0 24 24" fill="none" xmlns="http://www.w3.org/2000/svg">
<g id="user-xmark">
<g clip-path="url(#clip0_232_16424)">
<g id="Weight=Dynamic">
<path id="Vector (Stroke)" fill-rule="evenodd" clip-rule="evenodd" d="M8 4.75C6.20507 4.75 4.75 6.20507 4.75 8C4.75 9.79493 6.20507 11.25 8 11.25C9.79493 11.25 11.25 9.79493 11.25 8C11.25 6.20507 9.79493 4.75 8 4.75ZM10.8583 11.7941C12.0073 10.9271 12.75 9.55031 12.75 8C12.75 5.37665 10.6234 3.25 8 3.25C5.37665 3.25 3.25 5.37665 3.25 8C3.25 9.55031 3.99271 10.9271 5.14172 11.7941C2.27612 12.9317 0.25 15.7293 0.25 19V20C0.25 20.4142 0.585786 20.75 1 20.75C1.41421 20.75 1.75 20.4142 1.75 20V19C1.75 15.5482 4.54822 12.75 8 12.75C11.4518 12.75 14.25 15.5482 14.25 19V20C14.25 20.4142 14.5858 20.75 15 20.75C15.4142 20.75 15.75 20.4142 15.75 20V19C15.75 15.7293 13.7239 12.9317 10.8583 11.7941ZM18.091 7.34835C18.3839 7.05546 18.8588 7.05546 19.1517 7.34835L20.7426 8.93934L22.3336 7.34835C22.6265 7.05546 23.1014 7.05546 23.3943 7.34835C23.6872 7.64124 23.6872 8.11612 23.3943 8.40901L21.8033 10L23.3943 11.591C23.6872 11.8839 23.6872 12.3588 23.3943 12.6517C23.1014 12.9445 22.6265 12.9445 22.3336 12.6517L20.7426 11.0607L19.1517 12.6517C18.8588 12.9445 18.3839 12.9445 18.091 12.6517C17.7981 12.3588 17.7981 11.8839 18.091 11.591L19.682 10L18.091 8.40901C17.7981 8.11612 17.7981 7.64124 18.091 7.34835Z" fill="black"/>
</g>
</g>
</g>
<defs>
<clipPath id="clip0_232_16424">
<rect width="24" height="24" rx="5" fill="white"/>
</clipPath>
</defs>
</svg>
