<svg width="24" height="24" viewBox="0 0 24 24" fill="none" xmlns="http://www.w3.org/2000/svg">
<g id="vegan-circle">
<g clip-path="url(#clip0_232_10532)">
<g id="Weight=Dynamic">
<path id="Vector (Stroke)" fill-rule="evenodd" clip-rule="evenodd" d="M12 2.75C6.89137 2.75 2.75 6.89137 2.75 12C2.75 17.1086 6.89137 21.25 12 21.25C17.1086 21.25 21.25 17.1086 21.25 12C21.25 6.89137 17.1086 2.75 12 2.75ZM1.25 12C1.25 6.06294 6.06294 1.25 12 1.25C17.9371 1.25 22.75 6.06294 22.75 12C22.75 17.9371 17.9371 22.75 12 22.75C6.06294 22.75 1.25 17.9371 1.25 12ZM17.5031 6.62034C18.1373 6.55927 18.701 7.02393 18.762 7.65818L19.0586 10.7382C19.2916 13.1576 17.4814 15.2948 15.0802 15.526C14.3632 15.5951 13.6658 15.4844 13.0357 15.2303C12.9451 15.4134 12.857 15.5959 12.7719 15.7761C12.4503 16.4573 12.1818 17.0818 11.9937 17.536C11.8998 17.7629 11.8262 17.9467 11.7763 18.0732C11.7513 18.1364 11.7323 18.1853 11.7197 18.218L11.7056 18.2547L11.7014 18.2655C11.5912 18.5563 11.3128 18.7492 11.0018 18.75C10.6909 18.7508 10.4117 18.5596 10.3 18.2693C10.3 18.2693 10.3 18.2694 10.3 18.2693L10.2987 18.2659L10.2939 18.2534L10.2736 18.2018C10.2555 18.1559 10.2283 18.0876 10.1926 17.9996C10.1213 17.8235 10.016 17.569 9.88184 17.2584C9.61308 16.6364 9.2299 15.7936 8.77134 14.9071C8.31153 14.0181 7.7831 13.0992 7.22564 12.3187C6.65751 11.5234 6.10494 10.9376 5.61413 10.6431C5.25894 10.43 5.14377 9.96931 5.35688 9.61413C5.56999 9.25894 6.03069 9.14377 6.38587 9.35688C7.14506 9.8124 7.84249 10.6016 8.44624 11.4469C9.06065 12.3071 9.62597 13.2944 10.1037 14.2179C10.4463 14.8803 10.7475 15.5171 10.993 16.0615C11.1203 15.7732 11.262 15.4608 11.4156 15.1356C11.5223 14.9095 11.636 14.6746 11.7557 14.4352C10.9765 13.7405 10.4443 12.7661 10.3365 11.6466C10.108 9.27379 11.8463 7.16502 14.2191 6.93655L17.5031 6.62034ZM13.7432 13.8939C14.1676 13.1508 14.6153 12.4774 15.0493 12.0107C15.3313 11.7073 15.314 11.2327 15.0107 10.9507C14.7073 10.6687 14.2327 10.686 13.9507 10.9893C13.4426 11.5359 12.9472 12.2739 12.4961 13.0534C12.1298 12.6297 11.8867 12.0958 11.8296 11.5028C11.6805 9.95463 12.8147 8.57872 14.3629 8.42964L17.3021 8.14663L17.5655 10.8819C17.7173 12.4585 16.5314 13.8794 14.9364 14.0329C14.5206 14.073 14.1159 14.021 13.7432 13.8939Z" fill="black"/>
</g>
</g>
</g>
<defs>
<clipPath id="clip0_232_10532">
<rect width="24" height="24" rx="5" fill="white"/>
</clipPath>
</defs>
</svg>
