<svg width="24" height="24" viewBox="0 0 24 24" fill="none" xmlns="http://www.w3.org/2000/svg">
<g id="vegan-square">
<g clip-path="url(#clip0_232_10522)">
<g id="Weight=Dynamic">
<path id="Vector (Stroke)" fill-rule="evenodd" clip-rule="evenodd" d="M2.25 3.6C2.25 2.85442 2.85442 2.25 3.6 2.25H20.4C21.1456 2.25 21.75 2.85442 21.75 3.6V20.4C21.75 21.1456 21.1456 21.75 20.4 21.75H3.6C2.85442 21.75 2.25 21.1456 2.25 20.4V3.6ZM3.75 3.75V20.25H20.25V3.75H3.75ZM17.5031 5.62034C18.1373 5.55927 18.701 6.02392 18.762 6.65818L19.0586 9.73815C19.2916 12.1576 17.4814 14.2948 15.0802 14.526C14.3632 14.5951 13.6658 14.4844 13.0357 14.2303C12.9451 14.4134 12.857 14.5959 12.7719 14.7761C12.4503 15.4573 12.1818 16.0818 11.9937 16.536C11.8998 16.7629 11.8262 16.9467 11.7763 17.0732C11.7513 17.1364 11.7323 17.1853 11.7197 17.218L11.7056 17.2547L11.7014 17.2655C11.7014 17.2655 11.7015 17.2655 11.7014 17.2655C11.5912 17.5563 11.3128 17.7492 11.0018 17.75C10.6909 17.7508 10.4117 17.5596 10.3 17.2693C10.3 17.2693 10.3 17.2694 10.3 17.2693L10.2987 17.2659L10.2939 17.2534L10.2736 17.2018C10.2555 17.1559 10.2283 17.0876 10.1926 16.9996C10.1213 16.8235 10.016 16.569 9.88184 16.2584C9.61307 15.6364 9.2299 14.7936 8.77134 13.9071C8.31153 13.0181 7.7831 12.0992 7.22564 11.3187C6.65751 10.5234 6.10494 9.9376 5.61413 9.64312C5.25894 9.43001 5.14377 8.96931 5.35688 8.61413C5.56999 8.25894 6.03069 8.14377 6.38587 8.35688C7.14506 8.8124 7.84249 9.60164 8.44624 10.4469C9.06065 11.3071 9.62597 12.2944 10.1037 13.2179C10.4463 13.8803 10.7475 14.5171 10.993 15.0615C11.1203 14.7732 11.262 14.4608 11.4156 14.1356C11.5223 13.9095 11.636 13.6746 11.7557 13.4352C10.9765 12.7405 10.4443 11.7661 10.3365 10.6466C10.108 8.27379 11.8463 6.16502 14.2191 5.93655L17.5031 5.62034ZM13.7432 12.8939C14.1676 12.1508 14.6153 11.4774 15.0493 11.0107C15.3313 10.7073 15.314 10.2327 15.0107 9.95071C14.7073 9.66868 14.2327 9.68597 13.9507 9.98933C13.4426 10.5359 12.9472 11.2739 12.4961 12.0534C12.1298 11.6297 11.8867 11.0958 11.8296 10.5028C11.6805 8.95463 12.8147 7.57872 14.3629 7.42964L17.3021 7.14663L17.5655 9.88192C17.7173 11.4585 16.5314 12.8794 14.9364 13.0329C14.5206 13.073 14.1159 13.021 13.7432 12.8939Z" fill="black"/>
</g>
</g>
</g>
<defs>
<clipPath id="clip0_232_10522">
<rect width="24" height="24" rx="5" fill="white"/>
</clipPath>
</defs>
</svg>
