<svg width="24" height="24" viewBox="0 0 24 24" fill="none" xmlns="http://www.w3.org/2000/svg">
<g id="vegan">
<g clip-path="url(#clip0_232_10514)">
<g id="Weight=Dynamic">
<g id="Vector">
<path fill-rule="evenodd" clip-rule="evenodd" d="M2.35258 8.6216C2.56157 8.26397 3.0209 8.14347 3.37853 8.35246C4.39505 8.94649 5.35077 9.99169 6.19682 11.1453C7.05329 12.3131 7.84438 13.6581 8.51545 14.9217C9.14008 16.0978 9.66706 17.2156 10.0522 18.0749C10.294 17.5236 10.5908 16.8705 10.9282 16.1746C11.8548 14.2635 13.1331 11.9322 14.4576 10.5446C14.7436 10.245 15.2184 10.234 15.518 10.52C15.8176 10.806 15.8286 11.2807 15.5426 11.5804C14.3965 12.7811 13.2043 14.9185 12.2779 16.829C11.8214 17.7706 11.4405 18.6334 11.1738 19.2609C11.0405 19.5744 10.936 19.8286 10.8651 20.0037C10.8296 20.0913 10.8025 20.1591 10.7844 20.2046L10.7642 20.2559L10.7593 20.2685L10.7581 20.2714C10.6462 20.5589 10.3694 20.7492 10.0608 20.75C9.75228 20.7508 9.47475 20.5625 9.3614 20.2756L9.35937 20.2704L9.3523 20.2527L9.32328 20.1806C9.29743 20.1168 9.25871 20.022 9.20799 19.9002C9.10653 19.6564 8.95716 19.3046 8.76677 18.8754C8.38561 18.0163 7.84188 16.8514 7.19068 15.6252C6.53821 14.3966 5.78519 13.1204 4.98724 12.0324C4.17889 10.9302 3.36989 10.0848 2.62172 9.64754C2.26409 9.43855 2.14359 8.97922 2.35258 8.6216Z" fill="black"/>
<path fill-rule="evenodd" clip-rule="evenodd" d="M15.2186 6.25622C12.815 6.48767 11.054 8.62383 11.2855 11.0275C11.516 13.422 13.6923 15.1883 16.1051 14.956C18.5719 14.7184 20.4115 12.5213 20.1757 10.0729L19.7661 5.81835L15.2186 6.25622ZM9.79238 11.1713C9.48153 7.94299 11.8466 5.07397 15.0748 4.76313L19.7916 4.30895C20.5227 4.23855 21.1725 4.77415 21.2429 5.50525L21.6688 9.92913C21.9858 13.2205 19.5219 16.1339 16.2489 16.449C13.0298 16.759 10.1041 14.4086 9.79238 11.1713Z" fill="black"/>
</g>
</g>
</g>
</g>
<defs>
<clipPath id="clip0_232_10514">
<rect width="24" height="24" rx="5" fill="white"/>
</clipPath>
</defs>
</svg>
