<svg width="24" height="24" viewBox="0 0 24 24" fill="none" xmlns="http://www.w3.org/2000/svg">
<g id="vehicle-green">
<g clip-path="url(#clip0_232_16032)">
<g id="Weight=Dynamic">
<path id="Vector (Stroke)" fill-rule="evenodd" clip-rule="evenodd" d="M6.31879 4.75C5.81876 4.75 5.36683 5.048 5.16986 5.5076L2.85107 10.9181C2.78438 11.0737 2.75 11.2412 2.75 11.4105V17.25H13C13.4142 17.25 13.75 17.5858 13.75 18C13.75 18.4142 13.4142 18.75 13 18.75H6.75V20.4C6.75 21.1456 6.14559 21.75 5.4 21.75H2.6C1.85441 21.75 1.25 21.1456 1.25 20.4V11.4105C1.25 11.0381 1.32565 10.6695 1.47235 10.3272L3.79114 4.91672C4.22449 3.90559 5.21871 3.25 6.31879 3.25H15.6812C16.7813 3.25 17.7755 3.90559 18.2089 4.91672L20.5276 10.3272C20.6744 10.6695 20.75 11.0381 20.75 11.4105V12.5C20.75 12.9142 20.4142 13.25 20 13.25C19.5858 13.25 19.25 12.9142 19.25 12.5V11.4105C19.25 11.2412 19.2156 11.0737 19.1489 10.9181L16.8301 5.5076C16.6332 5.048 16.1812 4.75 15.6812 4.75H6.31879ZM5.25 18.75H2.75V20.25H5.25V18.75ZM15 10.75L7 10.75C6.58579 10.75 6.25 10.4142 6.25 10C6.25 9.58579 6.58579 9.25 7 9.25L15 9.25C15.4142 9.25 15.75 9.58579 15.75 10C15.75 10.4142 15.4142 10.75 15 10.75ZM5.25 14C5.25 13.5858 5.58579 13.25 6 13.25H7C7.41421 13.25 7.75 13.5858 7.75 14C7.75 14.4142 7.41421 14.75 7 14.75H6C5.58579 14.75 5.25 14.4142 5.25 14ZM14.25 14C14.25 13.5858 14.5858 13.25 15 13.25H16C16.4142 13.25 16.75 13.5858 16.75 14C16.75 14.4142 16.4142 14.75 16 14.75H15C14.5858 14.75 14.25 14.4142 14.25 14ZM21.9789 14.2859C22.5814 14.2292 23.117 14.6707 23.1764 15.273L23.4311 17.8539C23.6461 20.0329 22.0523 21.9664 19.8724 22.1712L19.7378 22.1839C19.1917 22.2352 18.6611 22.1691 18.1712 22.0063C18.0478 22.2908 17.9505 22.5416 17.8781 22.7402C17.823 22.8916 17.7826 23.0119 17.7565 23.0928C17.7434 23.1332 17.734 23.1638 17.728 23.1833L17.7217 23.2043L17.7206 23.208C17.6056 23.6058 17.1899 23.8354 16.792 23.7206C16.394 23.6057 16.1645 23.1899 16.2794 22.792L17 23C16.2794 22.792 16.2794 22.7922 16.2794 22.792L16.28 22.7901L16.2808 22.7871L16.2836 22.7777L16.2932 22.7457C16.3015 22.7187 16.3134 22.6804 16.3291 22.6319C16.3604 22.535 16.4067 22.397 16.4687 22.2267C16.5624 21.9696 16.6925 21.637 16.8612 21.2593C16.1451 20.638 15.656 19.7526 15.5558 18.7366C15.3481 16.6319 16.8876 14.7642 18.9932 14.5664L21.9789 14.2859ZM18.8589 20.6425C19.2861 19.9097 19.8315 19.1583 20.5006 18.5585C20.809 18.282 20.835 17.8078 20.5585 17.4994C20.282 17.191 19.8078 17.165 19.4994 17.4415C18.695 18.1625 18.0619 19.0363 17.5803 19.8574C17.2893 19.5093 17.0963 19.0736 17.0485 18.5893C16.9225 17.3118 17.8555 16.1799 19.1336 16.0598L21.7227 15.8165L21.9383 18.0012C22.0717 19.353 21.0844 20.5507 19.732 20.6778L19.5975 20.6904C19.3436 20.7143 19.0951 20.6964 18.8589 20.6425Z" fill="black"/>
</g>
</g>
</g>
<defs>
<clipPath id="clip0_232_16032">
<rect width="24" height="24" rx="5" fill="white"/>
</clipPath>
</defs>
</svg>
