<svg width="24" height="24" viewBox="0 0 24 24" fill="none" xmlns="http://www.w3.org/2000/svg">
<g id="vertical-split">
<g clip-path="url(#clip0_232_11109)">
<g id="Weight=Dynamic">
<path id="Vector (Stroke)" fill-rule="evenodd" clip-rule="evenodd" d="M11.4697 1.46967C11.7626 1.17678 12.2374 1.17678 12.5303 1.46967L16.0303 4.96967C16.3232 5.26256 16.3232 5.73744 16.0303 6.03033C15.7374 6.32322 15.2626 6.32322 14.9697 6.03033L12.75 3.81066V9.25H21C21.4142 9.25 21.75 9.58579 21.75 10C21.75 10.4142 21.4142 10.75 21 10.75H3C2.58579 10.75 2.25 10.4142 2.25 10C2.25 9.58579 2.58579 9.25 3 9.25H11.25V3.81066L9.03033 6.03033C8.73744 6.32322 8.26256 6.32322 7.96967 6.03033C7.67678 5.73744 7.67678 5.26256 7.96967 4.96967L11.4697 1.46967ZM2.25 14C2.25 13.5858 2.58579 13.25 3 13.25H21C21.4142 13.25 21.75 13.5858 21.75 14C21.75 14.4142 21.4142 14.75 21 14.75H12.75V20.1893L14.9697 17.9697C15.2626 17.6768 15.7374 17.6768 16.0303 17.9697C16.3232 18.2626 16.3232 18.7374 16.0303 19.0303L12.5303 22.5303C12.2374 22.8232 11.7626 22.8232 11.4697 22.5303L7.96967 19.0303C7.67678 18.7374 7.67678 18.2626 7.96967 17.9697C8.26256 17.6768 8.73744 17.6768 9.03033 17.9697L11.25 20.1893V14.75H3C2.58579 14.75 2.25 14.4142 2.25 14Z" fill="black"/>
</g>
</g>
</g>
<defs>
<clipPath id="clip0_232_11109">
<rect width="24" height="24" rx="5" fill="white"/>
</clipPath>
</defs>
</svg>
