<svg width="24" height="24" viewBox="0 0 24 24" fill="none" xmlns="http://www.w3.org/2000/svg">
<g id="vertical-merge">
<g clip-path="url(#clip0_232_11073)">
<g id="Weight=Dynamic">
<path id="Vector (Stroke)" fill-rule="evenodd" clip-rule="evenodd" d="M12 1.25C12.4142 1.25 12.75 1.58579 12.75 2V8.18934L14.9697 5.96967C15.2626 5.67678 15.7374 5.67678 16.0303 5.96967C16.3232 6.26256 16.3232 6.73744 16.0303 7.03033L13.8107 9.25H21C21.4142 9.25 21.75 9.58579 21.75 10C21.75 10.4142 21.4142 10.75 21 10.75H3C2.58579 10.75 2.25 10.4142 2.25 10C2.25 9.58579 2.58579 9.25 3 9.25H10.1893L7.96967 7.03033C7.67678 6.73744 7.67678 6.26256 7.96967 5.96967C8.26256 5.67678 8.73744 5.67678 9.03033 5.96967L11.25 8.18934V2C11.25 1.58579 11.5858 1.25 12 1.25ZM2.25 14C2.25 13.5858 2.58579 13.25 3 13.25H21C21.4142 13.25 21.75 13.5858 21.75 14C21.75 14.4142 21.4142 14.75 21 14.75H13.8107L16.0303 16.9697C16.3232 17.2626 16.3232 17.7374 16.0303 18.0303C15.7374 18.3232 15.2626 18.3232 14.9697 18.0303L12.75 15.8107V22C12.75 22.4142 12.4142 22.75 12 22.75C11.5858 22.75 11.25 22.4142 11.25 22V15.8107L9.03033 18.0303C8.73744 18.3232 8.26256 18.3232 7.96967 18.0303C7.67678 17.7374 7.67678 17.2626 7.96967 16.9697L10.1893 14.75H3C2.58579 14.75 2.25 14.4142 2.25 14Z" fill="black"/>
</g>
</g>
</g>
<defs>
<clipPath id="clip0_232_11073">
<rect width="24" height="24" rx="5" fill="white"/>
</clipPath>
</defs>
</svg>
