<svg width="24" height="24" viewBox="0 0 24 24" fill="none" xmlns="http://www.w3.org/2000/svg">
<g id="vials">
<g clip-path="url(#clip0_232_13881)">
<g id="Weight=Dynamic">
<path id="Vector (Stroke)" fill-rule="evenodd" clip-rule="evenodd" d="M4.25 3C4.25 2.58579 4.58579 2.25 5 2.25H9C9.41421 2.25 9.75 2.58579 9.75 3V16C9.75 17.5188 8.51878 18.75 7 18.75C5.48122 18.75 4.25 17.5188 4.25 16V3ZM5.75 12.75V16C5.75 16.6904 6.30964 17.25 7 17.25C7.69036 17.25 8.25 16.6904 8.25 16V12.75H5.75ZM8.25 11.25H5.75V3.75H8.25V11.25ZM14.25 3C14.25 2.58579 14.5858 2.25 15 2.25H19C19.4142 2.25 19.75 2.58579 19.75 3V16C19.75 17.5188 18.5188 18.75 17 18.75C15.4812 18.75 14.25 17.5188 14.25 16V3ZM15.75 12.75V16C15.75 16.6904 16.3096 17.25 17 17.25C17.6904 17.25 18.25 16.6904 18.25 16V12.75H15.75ZM18.25 11.25H15.75V3.75H18.25V11.25ZM2.25 21C2.25 20.5858 2.58579 20.25 3 20.25H21C21.4142 20.25 21.75 20.5858 21.75 21C21.75 21.4142 21.4142 21.75 21 21.75H3C2.58579 21.75 2.25 21.4142 2.25 21Z" fill="black"/>
</g>
</g>
</g>
<defs>
<clipPath id="clip0_232_13881">
<rect width="24" height="24" rx="5" fill="white"/>
</clipPath>
</defs>
</svg>
