<svg width="24" height="24" viewBox="0 0 24 24" fill="none" xmlns="http://www.w3.org/2000/svg">
<g id="video-camera-off">
<g clip-path="url(#clip0_232_12271)">
<g id="Weight=Dynamic">
<path id="Vector (Stroke)" fill-rule="evenodd" clip-rule="evenodd" d="M2.46967 2.46967C2.76256 2.17678 3.23744 2.17678 3.53033 2.46967L21.5303 20.4697C21.8232 20.7626 21.8232 21.2374 21.5303 21.5303C21.2374 21.8232 20.7626 21.8232 20.4697 21.5303L15.701 16.7617C15.5429 17.3316 15.0203 17.75 14.4 17.75H3.6C2.85441 17.75 2.25 17.1456 2.25 16.4V7.6C2.25 6.85442 2.85442 6.25 3.6 6.25H5.18934L2.46967 3.53033C2.17678 3.23744 2.17678 2.76256 2.46967 2.46967ZM6.66999 7.73065C6.61537 7.74331 6.55847 7.75 6.5 7.75H3.75V16.25H14.25V15.3107L6.66999 7.73065ZM10.75 7C10.75 6.58579 11.0858 6.25 11.5 6.25H14.4C15.1456 6.25 15.75 6.85441 15.75 7.6V10.3987L19.5358 7.24393C20.415 6.51118 21.75 7.13645 21.75 8.28102V15.5C21.75 15.9142 21.4142 16.25 21 16.25C20.5858 16.25 20.25 15.9142 20.25 15.5V8.60128L16.4642 11.7561C15.585 12.4888 14.25 11.8636 14.25 10.719V7.75H11.5C11.0858 7.75 10.75 7.41421 10.75 7Z" fill="black"/>
</g>
</g>
</g>
<defs>
<clipPath id="clip0_232_12271">
<rect width="24" height="24" rx="5" fill="white"/>
</clipPath>
</defs>
</svg>
