<svg width="24" height="24" viewBox="0 0 24 24" fill="none" xmlns="http://www.w3.org/2000/svg">
<g id="video-camera">
<g clip-path="url(#clip0_232_12265)">
<g id="Weight=Dynamic">
<path id="Vector (Stroke)" fill-rule="evenodd" clip-rule="evenodd" d="M3.75 7.75V16.25H14.25V7.75H3.75ZM2.25 7.6C2.25 6.85442 2.85442 6.25 3.6 6.25H14.4C15.1456 6.25 15.75 6.85442 15.75 7.6V10.3987L19.5358 7.24393C20.415 6.51118 21.75 7.13645 21.75 8.28103V15.719C21.75 16.8636 20.415 17.4888 19.5358 16.7561L15.75 13.6013V16.4C15.75 17.1456 15.1456 17.75 14.4 17.75H3.6C2.85441 17.75 2.25 17.1456 2.25 16.4V7.6ZM16.1715 12L20.25 15.3987V8.60128L16.1715 12Z" fill="black"/>
</g>
</g>
</g>
<defs>
<clipPath id="clip0_232_12265">
<rect width="24" height="24" rx="5" fill="white"/>
</clipPath>
</defs>
</svg>
