<svg width="24" height="24" viewBox="0 0 24 24" fill="none" xmlns="http://www.w3.org/2000/svg">
<g id="video-projector">
<g clip-path="url(#clip0_232_5937)">
<g id="Weight=Dynamic">
<path id="Vector (Stroke)" fill-rule="evenodd" clip-rule="evenodd" d="M2.75 7.75V16.25H21.25V7.75H2.75ZM1.25 7.6C1.25 6.85441 1.85442 6.25 2.6 6.25H21.4C22.1456 6.25 22.75 6.85442 22.75 7.6V16.4C22.75 17.1456 22.1456 17.75 21.4 17.75H2.6C1.85441 17.75 1.25 17.1456 1.25 16.4V7.6ZM5.51173 9.44142C5.81961 9.71852 5.84456 10.1927 5.56747 10.5006L5.55747 10.5117C5.28037 10.8196 4.80616 10.8446 4.49827 10.5675C4.19039 10.2904 4.16544 9.81616 4.44253 9.50827L4.45253 9.49716C4.72963 9.18928 5.20384 9.16432 5.51173 9.44142ZM8.51173 9.44143C8.81961 9.71853 8.84456 10.1927 8.56746 10.5006L8.55746 10.5117C8.28036 10.8196 7.80615 10.8446 7.49827 10.5675C7.19039 10.2904 7.16544 9.81615 7.44254 9.50827L7.45254 9.49716C7.72964 9.18928 8.20385 9.16433 8.51173 9.44143ZM11.5117 9.44143C11.8196 9.71853 11.8446 10.1927 11.5675 10.5006L11.5575 10.5117C11.2804 10.8196 10.8061 10.8446 10.4983 10.5675C10.1904 10.2904 10.1654 9.81615 10.4425 9.50827L10.4525 9.49716C10.7296 9.18928 11.2039 9.16433 11.5117 9.44143ZM17 10.75C16.3096 10.75 15.75 11.3096 15.75 12C15.75 12.6904 16.3096 13.25 17 13.25C17.6904 13.25 18.25 12.6904 18.25 12C18.25 11.3096 17.6904 10.75 17 10.75ZM14.25 12C14.25 10.4812 15.4812 9.25 17 9.25C18.5188 9.25 19.75 10.4812 19.75 12C19.75 13.5188 18.5188 14.75 17 14.75C15.4812 14.75 14.25 13.5188 14.25 12ZM5.51172 13.4414C5.8196 13.7185 5.84457 14.1927 5.56747 14.5006L5.55747 14.5117C5.28038 14.8196 4.80616 14.8446 4.49828 14.5675C4.1904 14.2904 4.16543 13.8162 4.44253 13.5083L4.45253 13.4972C4.72962 13.1893 5.20384 13.1643 5.51172 13.4414ZM8.51173 13.4414C8.81961 13.7185 8.84456 14.1927 8.56747 14.5006L8.55747 14.5117C8.28037 14.8196 7.80616 14.8446 7.49827 14.5675C7.19039 14.2904 7.16544 13.8162 7.44253 13.5083L7.45253 13.4972C7.72963 13.1893 8.20385 13.1643 8.51173 13.4414ZM11.5117 13.4414C11.8196 13.7185 11.8446 14.1927 11.5675 14.5006L11.5575 14.5117C11.2804 14.8196 10.8062 14.8446 10.4983 14.5675C10.1904 14.2904 10.1654 13.8162 10.4425 13.5083L10.4525 13.4972C10.7296 13.1893 11.2038 13.1643 11.5117 13.4414ZM3.25 19C3.25 18.5858 3.58579 18.25 4 18.25H6C6.41421 18.25 6.75 18.5858 6.75 19C6.75 19.4142 6.41421 19.75 6 19.75H4C3.58579 19.75 3.25 19.4142 3.25 19ZM17.25 19C17.25 18.5858 17.5858 18.25 18 18.25H20C20.4142 18.25 20.75 18.5858 20.75 19C20.75 19.4142 20.4142 19.75 20 19.75H18C17.5858 19.75 17.25 19.4142 17.25 19Z" fill="black"/>
</g>
</g>
</g>
<defs>
<clipPath id="clip0_232_5937">
<rect width="24" height="24" rx="5" fill="white"/>
</clipPath>
</defs>
</svg>
