<svg width="24" height="24" viewBox="0 0 24 24" fill="none" xmlns="http://www.w3.org/2000/svg">
<g id="view360">
<g clip-path="url(#clip0_232_10126)">
<g id="Weight=Dynamic">
<path id="Vector (Stroke)" fill-rule="evenodd" clip-rule="evenodd" d="M2.25 5C2.25 4.58579 2.58579 4.25 3 4.25H5.75C7.13071 4.25 8.25 5.36929 8.25 6.75C8.25 7.43136 7.97742 8.04906 7.53536 8.5C7.97742 8.95094 8.25 9.56864 8.25 10.25C8.25 11.6307 7.13071 12.75 5.75 12.75H3C2.58579 12.75 2.25 12.4142 2.25 12C2.25 11.5858 2.58579 11.25 3 11.25H5.75C6.30228 11.25 6.75 10.8023 6.75 10.25C6.75 9.69772 6.30228 9.25 5.75 9.25H4C3.58579 9.25 3.25 8.91421 3.25 8.5C3.25 8.08579 3.58579 7.75 4 7.75H5.75C6.30228 7.75 6.75 7.30228 6.75 6.75C6.75 6.19772 6.30228 5.75 5.75 5.75H3C2.58579 5.75 2.25 5.41421 2.25 5ZM9.25 8C9.25 5.92893 10.9289 4.25 13 4.25H14C14.4142 4.25 14.75 4.58579 14.75 5C14.75 5.41421 14.4142 5.75 14 5.75H13C12.1448 5.75 11.4011 6.22707 11.0204 6.92958C11.3247 6.81355 11.655 6.75 12 6.75H12.5C14.0188 6.75 15.25 7.98122 15.25 9.5V10C15.25 11.5188 14.0188 12.75 12.5 12.75H12C10.4812 12.75 9.25 11.5188 9.25 10V8ZM10.75 9.5V10C10.75 10.6904 11.3096 11.25 12 11.25H12.5C13.1904 11.25 13.75 10.6904 13.75 10V9.5C13.75 8.80964 13.1904 8.25 12.5 8.25H12C11.3096 8.25 10.75 8.80964 10.75 9.5ZM19 5.75C18.3096 5.75 17.75 6.30964 17.75 7V10C17.75 10.6904 18.3096 11.25 19 11.25H19.5C20.1904 11.25 20.75 10.6904 20.75 10V7C20.75 6.30964 20.1904 5.75 19.5 5.75H19ZM16.25 7C16.25 5.48122 17.4812 4.25 19 4.25H19.5C21.0188 4.25 22.25 5.48122 22.25 7V10C22.25 11.5188 21.0188 12.75 19.5 12.75H19C17.4812 12.75 16.25 11.5188 16.25 10V7ZM3 14.25C3.41421 14.25 3.75 14.5858 3.75 15C3.75 16.3281 4.55747 17.6222 6.05206 18.6186C7.54141 19.6115 9.64214 20.25 12 20.25C14.3579 20.25 16.4586 19.6115 17.9479 18.6186C19.4425 17.6222 20.25 16.3281 20.25 15C20.25 14.5858 20.5858 14.25 21 14.25C21.4142 14.25 21.75 14.5858 21.75 15C21.75 16.9856 20.5428 18.6915 18.78 19.8667C17.012 21.0454 14.6127 21.75 12 21.75C9.3873 21.75 6.98802 21.0454 5.22001 19.8667C3.45725 18.6915 2.25 16.9856 2.25 15C2.25 14.5858 2.58579 14.25 3 14.25Z" fill="black"/>
</g>
</g>
</g>
<defs>
<clipPath id="clip0_232_10126">
<rect width="24" height="24" rx="5" fill="white"/>
</clipPath>
</defs>
</svg>
