<svg width="24" height="24" viewBox="0 0 24 24" fill="none" xmlns="http://www.w3.org/2000/svg">
<g id="voice-lock-circle">
<g clip-path="url(#clip0_232_9452)">
<g id="Weight=Dynamic">
<path id="Vector (Stroke)" fill-rule="evenodd" clip-rule="evenodd" d="M12 2.75C6.89137 2.75 2.75 6.89137 2.75 12C2.75 17.1086 6.89137 21.25 12 21.25C12.6345 21.25 13.2534 21.1862 13.8508 21.065C14.2567 20.9826 14.6526 21.2448 14.735 21.6508C14.8174 22.0567 14.5551 22.4526 14.1492 22.535C13.4541 22.6761 12.7353 22.75 12 22.75C6.06294 22.75 1.25 17.9371 1.25 12C1.25 6.06294 6.06294 1.25 12 1.25C17.9371 1.25 22.75 6.06294 22.75 12C22.75 12.2726 22.7398 12.543 22.7199 12.8107C22.689 13.2238 22.3292 13.5337 21.9161 13.5028C21.503 13.472 21.1932 13.1121 21.224 12.6991C21.2412 12.4684 21.25 12.2353 21.25 12C21.25 6.89137 17.1086 2.75 12 2.75ZM12 5.25C12.4142 5.25 12.75 5.58579 12.75 6V18C12.75 18.4142 12.4142 18.75 12 18.75C11.5858 18.75 11.25 18.4142 11.25 18V6C11.25 5.58579 11.5858 5.25 12 5.25ZM15 6.25C15.4142 6.25 15.75 6.58579 15.75 7V17C15.75 17.4142 15.4142 17.75 15 17.75C14.5858 17.75 14.25 17.4142 14.25 17V7C14.25 6.58579 14.5858 6.25 15 6.25ZM9 8.25C9.41421 8.25 9.75 8.58579 9.75 9V15C9.75 15.4142 9.41421 15.75 9 15.75C8.58579 15.75 8.25 15.4142 8.25 15L8.25 9C8.25 8.58579 8.58579 8.25 9 8.25ZM6 10.25C6.41421 10.25 6.75 10.5858 6.75 11L6.75 13C6.75 13.4142 6.41421 13.75 6 13.75C5.58579 13.75 5.25 13.4142 5.25 13L5.25 11C5.25 10.5858 5.58579 10.25 6 10.25ZM18 10.25C18.4142 10.25 18.75 10.5858 18.75 11V13C18.75 13.4142 18.4142 13.75 18 13.75C17.5858 13.75 17.25 13.4142 17.25 13V11C17.25 10.5858 17.5858 10.25 18 10.25ZM17.5481 15.2321C17.9305 14.6745 18.5731 14.25 19.5 14.25C20.4269 14.25 21.0695 14.6745 21.4519 15.2321C21.807 15.75 21.9167 16.3455 21.9167 16.75V17.8524C22.4059 18.0552 22.75 18.5374 22.75 19.1V21.4C22.75 22.1456 22.1456 22.75 21.4 22.75H17.6C16.8544 22.75 16.25 22.1456 16.25 21.4V19.1C16.25 18.5374 16.5941 18.0552 17.0833 17.8524V16.75C17.0833 16.3455 17.193 15.75 17.5481 15.2321ZM18.5833 17.75H20.4167V16.75C20.4167 16.5712 20.3597 16.2917 20.2148 16.0804C20.0972 15.9089 19.9064 15.75 19.5 15.75C19.0936 15.75 18.9028 15.9089 18.7852 16.0804C18.6403 16.2917 18.5833 16.5712 18.5833 16.75V17.75ZM17.75 19.25V21.25H21.25V19.25H17.75Z" fill="black"/>
</g>
</g>
</g>
<defs>
<clipPath id="clip0_232_9452">
<rect width="24" height="24" rx="5" fill="white"/>
</clipPath>
</defs>
</svg>
