<svg width="24" height="24" viewBox="0 0 24 24" fill="none" xmlns="http://www.w3.org/2000/svg">
<g id="voice-circle">
<g clip-path="url(#clip0_232_9470)">
<g id="Weight=Dynamic">
<path id="Vector (Stroke)" fill-rule="evenodd" clip-rule="evenodd" d="M12 2.75C6.89137 2.75 2.75 6.89137 2.75 12C2.75 17.1086 6.89137 21.25 12 21.25C17.1086 21.25 21.25 17.1086 21.25 12C21.25 6.89137 17.1086 2.75 12 2.75ZM1.25 12C1.25 6.06294 6.06294 1.25 12 1.25C17.9371 1.25 22.75 6.06294 22.75 12C22.75 17.9371 17.9371 22.75 12 22.75C6.06294 22.75 1.25 17.9371 1.25 12ZM12 5.25C12.4142 5.25 12.75 5.58579 12.75 6V18C12.75 18.4142 12.4142 18.75 12 18.75C11.5858 18.75 11.25 18.4142 11.25 18V6C11.25 5.58579 11.5858 5.25 12 5.25ZM15 6.25C15.4142 6.25 15.75 6.58579 15.75 7V17C15.75 17.4142 15.4142 17.75 15 17.75C14.5858 17.75 14.25 17.4142 14.25 17V7C14.25 6.58579 14.5858 6.25 15 6.25ZM9 8.25C9.41421 8.25 9.75 8.58579 9.75 9V15C9.75 15.4142 9.41421 15.75 9 15.75C8.58579 15.75 8.25 15.4142 8.25 15L8.25 9C8.25 8.58579 8.58579 8.25 9 8.25ZM6 10.25C6.41421 10.25 6.75 10.5858 6.75 11L6.75 13C6.75 13.4142 6.41421 13.75 6 13.75C5.58579 13.75 5.25 13.4142 5.25 13L5.25 11C5.25 10.5858 5.58579 10.25 6 10.25ZM18 10.25C18.4142 10.25 18.75 10.5858 18.75 11V13C18.75 13.4142 18.4142 13.75 18 13.75C17.5858 13.75 17.25 13.4142 17.25 13V11C17.25 10.5858 17.5858 10.25 18 10.25Z" fill="black"/>
</g>
</g>
</g>
<defs>
<clipPath id="clip0_232_9470">
<rect width="24" height="24" rx="5" fill="white"/>
</clipPath>
</defs>
</svg>
