<svg width="24" height="24" viewBox="0 0 24 24" fill="none" xmlns="http://www.w3.org/2000/svg">
<g id="voice-check">
<g clip-path="url(#clip0_232_9618)">
<g id="Weight=Dynamic">
<path id="Vector (Stroke)" fill-rule="evenodd" clip-rule="evenodd" d="M12 2.25C12.4142 2.25 12.75 2.58579 12.75 3V19C12.75 19.4142 12.4142 19.75 12 19.75C11.5858 19.75 11.25 19.4142 11.25 19V3C11.25 2.58579 11.5858 2.25 12 2.25ZM16 5.25C16.4142 5.25 16.75 5.58579 16.75 6V15C16.75 15.4142 16.4142 15.75 16 15.75C15.5858 15.75 15.25 15.4142 15.25 15V6C15.25 5.58579 15.5858 5.25 16 5.25ZM8 7.25C8.41421 7.25 8.75 7.58579 8.75 8L8.75 14C8.75 14.4142 8.41421 14.75 8 14.75C7.58579 14.75 7.25 14.4142 7.25 14L7.25 8C7.25 7.58579 7.58579 7.25 8 7.25ZM4 8.25C4.41421 8.25 4.75 8.58579 4.75 9V13C4.75 13.4142 4.41421 13.75 4 13.75C3.58579 13.75 3.25 13.4142 3.25 13V9C3.25 8.58579 3.58579 8.25 4 8.25ZM20 8.25C20.4142 8.25 20.75 8.58579 20.75 9V13C20.75 13.4142 20.4142 13.75 20 13.75C19.5858 13.75 19.25 13.4142 19.25 13V9C19.25 8.58579 19.5858 8.25 20 8.25ZM23.0303 15.9697C23.3232 16.2626 23.3232 16.7374 23.0303 17.0303L18.0303 22.0303C17.7374 22.3232 17.2626 22.3232 16.9697 22.0303L14.9697 20.0303C14.6768 19.7374 14.6768 19.2626 14.9697 18.9697C15.2626 18.6768 15.7374 18.6768 16.0303 18.9697L17.5 20.4393L21.9697 15.9697C22.2626 15.6768 22.7374 15.6768 23.0303 15.9697Z" fill="black"/>
</g>
</g>
</g>
<defs>
<clipPath id="clip0_232_9618">
<rect width="24" height="24" rx="5" fill="white"/>
</clipPath>
</defs>
</svg>
