<svg width="24" height="24" viewBox="0 0 24 24" fill="none" xmlns="http://www.w3.org/2000/svg">
<g id="voice-xmark">
<g clip-path="url(#clip0_232_9634)">
<g id="Weight=Dynamic">
<path id="Vector (Stroke)" fill-rule="evenodd" clip-rule="evenodd" d="M12 2.25C12.4142 2.25 12.75 2.58579 12.75 3V19C12.75 19.4142 12.4142 19.75 12 19.75C11.5858 19.75 11.25 19.4142 11.25 19V3C11.25 2.58579 11.5858 2.25 12 2.25ZM16 5.25C16.4142 5.25 16.75 5.58579 16.75 6V14C16.75 14.4142 16.4142 14.75 16 14.75C15.5858 14.75 15.25 14.4142 15.25 14V6C15.25 5.58579 15.5858 5.25 16 5.25ZM8 7.25C8.41421 7.25 8.75 7.58579 8.75 8L8.75 14C8.75 14.4142 8.41421 14.75 8 14.75C7.58579 14.75 7.25 14.4142 7.25 14L7.25 8C7.25 7.58579 7.58579 7.25 8 7.25ZM4 8.25C4.41421 8.25 4.75 8.58579 4.75 9V13C4.75 13.4142 4.41421 13.75 4 13.75C3.58579 13.75 3.25 13.4142 3.25 13V9C3.25 8.58579 3.58579 8.25 4 8.25ZM20 8.25C20.4142 8.25 20.75 8.58579 20.75 9V13C20.75 13.4142 20.4142 13.75 20 13.75C19.5858 13.75 19.25 13.4142 19.25 13V9C19.25 8.58579 19.5858 8.25 20 8.25ZM15.5908 16.591C15.8837 16.2981 16.3585 16.2981 16.6514 16.591L18.2424 18.182L19.8334 16.591C20.1263 16.2981 20.6012 16.2981 20.8941 16.591C21.187 16.8839 21.187 17.3588 20.8941 17.6517L19.3031 19.2427L20.8941 20.8336C21.187 21.1265 21.187 21.6014 20.8941 21.8943C20.6012 22.1872 20.1263 22.1872 19.8334 21.8943L18.2424 20.3033L16.6514 21.8943C16.3585 22.1872 15.8837 22.1872 15.5908 21.8943C15.2979 21.6014 15.2979 21.1265 15.5908 20.8336L17.1818 19.2427L15.5908 17.6517C15.2979 17.3588 15.2979 16.8839 15.5908 16.591Z" fill="black"/>
</g>
</g>
</g>
<defs>
<clipPath id="clip0_232_9634">
<rect width="24" height="24" rx="5" fill="white"/>
</clipPath>
</defs>
</svg>
