<svg width="24" height="24" viewBox="0 0 24 24" fill="none" xmlns="http://www.w3.org/2000/svg">
<g id="vr-tag">
<g clip-path="url(#clip0_232_6023)">
<g id="Weight=Dynamic">
<path id="Vector (Stroke)" fill-rule="evenodd" clip-rule="evenodd" d="M8 3.75C5.10051 3.75 2.75 6.10051 2.75 9V15C2.75 17.8995 5.10051 20.25 8 20.25H16C18.8995 20.25 21.25 17.8995 21.25 15V9C21.25 6.10051 18.8995 3.75 16 3.75H8ZM1.25 9C1.25 5.27208 4.27208 2.25 8 2.25H16C19.7279 2.25 22.75 5.27208 22.75 9V15C22.75 18.7279 19.7279 21.75 16 21.75H8C4.27208 21.75 1.25 18.7279 1.25 15V9ZM4.70456 7.81064C5.08528 7.64747 5.52619 7.82384 5.68936 8.20456L8 13.5961L10.3106 8.20456C10.4738 7.82384 10.9147 7.64747 11.2954 7.81064C11.6762 7.97381 11.8525 8.41472 11.6894 8.79544L8.68936 15.7954C8.57117 16.0712 8.30002 16.25 8 16.25C7.69998 16.25 7.42883 16.0712 7.31064 15.7954L4.31064 8.79544C4.14747 8.41472 4.32384 7.97381 4.70456 7.81064ZM16.8163 9.40902C16.5717 9.26518 16.2421 9.25 15.8571 9.25H13.75V11.95H15.8571C16.2421 11.95 16.5717 11.9348 16.8163 11.791C16.9745 11.6979 17.25 11.4606 17.25 10.6C17.25 9.73935 16.9745 9.50207 16.8163 9.40902ZM13.75 13.45V15.5C13.75 15.9142 13.4142 16.25 13 16.25C12.5858 16.25 12.25 15.9142 12.25 15.5V8.5C12.25 8.08579 12.5858 7.75 13 7.75H15.8571C15.8688 7.75 15.881 7.74998 15.8936 7.74996C16.2389 7.74942 16.9513 7.74831 17.5766 8.11598C18.3112 8.54793 18.75 9.36065 18.75 10.6C18.75 11.8394 18.3112 12.6521 17.5766 13.084C17.4611 13.1519 17.3427 13.2072 17.2242 13.2523L18.5956 15.0442C18.8473 15.3731 18.7848 15.8439 18.4558 16.0956C18.1269 16.3473 17.6561 16.2848 17.4044 15.9558L15.4867 13.45H13.75Z" fill="black"/>
</g>
</g>
</g>
<defs>
<clipPath id="clip0_232_6023">
<rect width="24" height="24" rx="5" fill="white"/>
</clipPath>
</defs>
</svg>
