<svg width="24" height="24" viewBox="0 0 24 24" fill="none" xmlns="http://www.w3.org/2000/svg">
<g id="vue-js">
<g clip-path="url(#clip0_232_5545)">
<g id="Weight=Dynamic">
<path id="Vector (Stroke)" fill-rule="evenodd" clip-rule="evenodd" d="M0.842546 3.63909C0.97427 3.39913 1.22626 3.25 1.5 3.25H9.5C9.74221 3.25 9.96952 3.36697 10.1103 3.56407L12 6.20965L13.8897 3.56407C14.0305 3.36697 14.2578 3.25 14.5 3.25H22.5C22.7737 3.25 23.0257 3.39913 23.1575 3.63909C23.2892 3.87905 23.2797 4.17172 23.1327 4.40266L12.6327 20.9027C12.4951 21.119 12.2564 21.25 12 21.25C11.7436 21.25 11.5049 21.119 11.3673 20.9027L0.867254 4.40266C0.720292 4.17172 0.710822 3.87905 0.842546 3.63909ZM2.86626 4.75L12 19.103L21.1337 4.75H18.907L12.6288 14.4087C12.4905 14.6216 12.2539 14.75 12 14.75C11.7461 14.75 11.5095 14.6216 11.3712 14.4087L5.09299 4.75H2.86626ZM6.88202 4.75L12 12.6238L17.118 4.75H14.886L12.6103 7.93593C12.4695 8.13303 12.2422 8.25 12 8.25C11.7578 8.25 11.5305 8.13303 11.3897 7.93593L9.11404 4.75H6.88202Z" fill="black"/>
</g>
</g>
</g>
<defs>
<clipPath id="clip0_232_5545">
<rect width="24" height="24" rx="5" fill="white"/>
</clipPath>
</defs>
</svg>
