<svg width="24" height="24" viewBox="0 0 24 24" fill="none" xmlns="http://www.w3.org/2000/svg">
<g id="waist">
<g clip-path="url(#clip0_232_1663)">
<g id="Weight=Dynamic">
<path id="Vector (Stroke)" fill-rule="evenodd" clip-rule="evenodd" d="M18.6943 3.31014C19.0753 3.47265 19.2524 3.91316 19.09 4.29412L19.0894 4.29538L19.0867 4.30184L19.0748 4.33043C19.064 4.35632 19.0478 4.39567 19.027 4.44742C18.9853 4.55095 18.925 4.70393 18.8523 4.89783C18.7068 5.28602 18.5124 5.83611 18.3181 6.48026C17.9255 7.78179 17.55 9.41334 17.55 10.8571C17.55 11.6674 17.8231 12.3678 18.2561 13.1495C18.4014 13.4118 18.5748 13.6972 18.7605 14.0026C19.1741 14.6833 19.6483 15.4637 20.0072 16.3109C20.4406 17.334 20.75 18.525 20.75 20C20.75 20.4142 20.4143 20.75 20 20.75C19.5858 20.75 19.25 20.4142 19.25 20C19.25 19.0206 19.091 18.1993 18.8467 17.4755C18.7644 17.495 18.6752 17.5167 18.5798 17.5405C18.0337 17.6767 17.2914 17.8809 16.5034 18.1534C15.7127 18.4269 14.8929 18.7633 14.1843 19.1596C13.4644 19.5622 12.9201 19.9933 12.6144 20.4301C12.474 20.6306 12.2447 20.75 12 20.75C11.7552 20.75 11.5259 20.6306 11.3855 20.4301C11.0797 19.9933 10.5355 19.5622 9.81565 19.1596C9.10701 18.7633 8.28723 18.4269 7.49654 18.1534C6.70859 17.8809 5.96634 17.6767 5.42018 17.5405C5.32482 17.5167 5.2356 17.495 5.15334 17.4755C4.90905 18.1994 4.75 19.0206 4.75 20C4.75 20.4142 4.41421 20.75 4 20.75C3.58579 20.75 3.25 20.4142 3.25 20C3.25 18.525 3.55942 17.334 3.99282 16.3109C4.35175 15.4637 4.82597 14.6833 5.2396 14.0026C5.42522 13.6972 5.59863 13.4118 5.74395 13.1495C6.17696 12.3678 6.45 11.6674 6.45 10.8571C6.45 9.41334 6.07458 7.78179 5.68196 6.48026C5.48764 5.83611 5.29323 5.28602 5.14772 4.89783C5.07504 4.70393 5.01475 4.55095 4.97306 4.44742C4.95221 4.39567 4.93603 4.35632 4.92528 4.33043L4.91334 4.30184L4.91061 4.29538L4.91015 4.29428C4.74774 3.91332 4.92478 3.47265 5.30572 3.31014C5.68671 3.14761 6.12733 3.32472 6.28985 3.70571L5.6 3.99999C6.28985 3.70571 6.2898 3.70558 6.28985 3.70571L6.29171 3.71007L6.29584 3.71986L6.31065 3.75532C6.32334 3.78589 6.34154 3.83015 6.36444 3.88703C6.41025 4.00075 6.47496 4.16507 6.55228 4.37133C6.70677 4.78348 6.91236 5.36522 7.11804 6.04705C7.52542 7.39748 7.95 9.1945 7.95 10.8571C7.95 11.5597 7.80488 12.1861 7.58489 12.7629H16.4152C16.1952 12.1861 16.05 11.5597 16.05 10.8571C16.05 9.1945 16.4746 7.39748 16.882 6.04705C17.0877 5.36522 17.2933 4.78348 17.4478 4.37133C17.5251 4.16507 17.5898 4.00075 17.6356 3.88703C17.6585 3.83015 17.6767 3.78589 17.6894 3.75532L17.7042 3.71986L17.7083 3.71007L17.7096 3.70721L17.7101 3.70596C17.7101 3.70583 17.7102 3.70571 18.4001 3.99999L17.7101 3.70596C17.8726 3.32496 18.3133 3.14761 18.6943 3.31014ZM17.1646 14.2629H6.83542C6.70493 14.4856 6.57429 14.6997 6.44506 14.9114C6.21033 15.2961 5.98024 15.6731 5.76405 16.0803C5.77036 16.0819 5.7767 16.0834 5.78306 16.085C6.35875 16.2286 7.14564 16.4449 7.98682 16.7358C8.82526 17.0258 9.73462 17.3956 10.5478 17.8505C11.0673 18.141 11.5735 18.4803 12 18.8752C12.4264 18.4803 12.9326 18.141 13.4521 17.8505C14.2653 17.3956 15.1747 17.0258 16.0132 16.7358C16.8544 16.4449 17.6413 16.2286 18.217 16.085C18.2233 16.0834 18.2297 16.0819 18.236 16.0803C18.0198 15.6731 17.7897 15.2961 17.555 14.9114C17.4258 14.6997 17.2951 14.4856 17.1646 14.2629Z" fill="black"/>
</g>
</g>
</g>
<defs>
<clipPath id="clip0_232_1663">
<rect width="24" height="24" rx="5" fill="white"/>
</clipPath>
</defs>
</svg>
