<svg width="24" height="24" viewBox="0 0 24 24" fill="none" xmlns="http://www.w3.org/2000/svg">
<g id="walking">
<g clip-path="url(#clip0_232_2196)">
<g id="Weight=Dynamic">
<path id="Vector (Stroke)" fill-rule="evenodd" clip-rule="evenodd" d="M13 3.75C12.3097 3.75 11.75 4.30964 11.75 5C11.75 5.69036 12.3097 6.25 13 6.25C13.6904 6.25 14.25 5.69036 14.25 5C14.25 4.30964 13.6904 3.75 13 3.75ZM10.25 5C10.25 3.48122 11.4813 2.25 13 2.25C14.5188 2.25 15.75 3.48122 15.75 5C15.75 6.51878 14.5188 7.75 13 7.75C11.4813 7.75 10.25 6.51878 10.25 5ZM12.4409 8.3772C12.4409 8.3772 12.4409 8.3772 12.441 8.3772H13.8495C14.207 8.3772 14.5148 8.62954 14.5849 8.98011C14.6851 9.4809 14.967 10.301 15.4738 11.0481C15.9787 11.7924 16.6628 12.403 17.553 12.6256C17.9549 12.726 18.1992 13.1332 18.0987 13.5351C17.9983 13.9369 17.5911 14.1813 17.1892 14.0808C15.8256 13.7399 14.8663 12.8245 14.2325 11.8901C13.7691 11.2071 13.4563 10.4812 13.2693 9.8772H13.0265L11.8484 14.5896L16.5546 20.6404C16.8089 20.9674 16.75 21.4386 16.4231 21.6929C16.0961 21.9472 15.6249 21.8883 15.3706 21.5613L10.4403 15.2223C10.2988 15.0404 10.2488 14.8035 10.3047 14.58L11.4632 9.94585C11.0304 10.0144 10.589 10.1464 10.204 10.3928C9.57873 10.7929 8.96489 11.5857 8.96489 13.3532C8.96489 13.7674 8.6291 14.1032 8.21489 14.1032C7.80067 14.1032 7.46489 13.7674 7.46489 13.3532C7.46489 11.1765 8.25975 9.85619 9.39539 9.12939C10.4671 8.44352 11.7102 8.37718 12.4409 8.3772ZM10.7779 17.6834C11.1093 17.932 11.1764 18.4021 10.9279 18.7334L8.81489 21.5508C8.56636 21.8821 8.09626 21.9493 7.76489 21.7008C7.43352 21.4522 7.36636 20.9821 7.61489 20.6508L9.72789 17.8334C9.97641 17.5021 10.4465 17.4349 10.7779 17.6834Z" fill="black"/>
</g>
</g>
</g>
<defs>
<clipPath id="clip0_232_2196">
<rect width="24" height="24" rx="5" fill="white"/>
</clipPath>
</defs>
</svg>
