<svg width="24" height="24" viewBox="0 0 24 24" fill="none" xmlns="http://www.w3.org/2000/svg">
<g id="wallet">
<g clip-path="url(#clip0_232_7115)">
<g id="Weight=Dynamic">
<g id="Vector">
</g>
<path id="Vector (Stroke)" fill-rule="evenodd" clip-rule="evenodd" d="M17.25 5.60325C17.25 4.78196 16.4715 4.18384 15.6779 4.39545L8.72328 6.25002H17.25V5.60325ZM18.75 6.25002V5.60325C18.75 3.79641 17.0373 2.48055 15.2914 2.9461L4.29143 5.87943C3.08761 6.20045 2.25 7.29069 2.25 8.53658V18C2.25 19.5188 3.48122 20.75 5 20.75H19C20.5188 20.75 21.75 19.5188 21.75 18V9.00002C21.75 7.48124 20.5188 6.25002 19 6.25002H18.75ZM3.75 9.00002V18C3.75 18.6904 4.30964 19.25 5 19.25H19C19.6904 19.25 20.25 18.6904 20.25 18V9.00002C20.25 8.30967 19.6904 7.75002 19 7.75002H5C4.30964 7.75002 3.75 8.30967 3.75 9.00002ZM15.25 13.5C15.25 12.8097 15.8096 12.25 16.5 12.25C17.1904 12.25 17.75 12.8097 17.75 13.5C17.75 14.1904 17.1904 14.75 16.5 14.75C15.8096 14.75 15.25 14.1904 15.25 13.5ZM16.5 13.75C16.6381 13.75 16.75 13.6381 16.75 13.5C16.75 13.362 16.6381 13.25 16.5 13.25C16.3619 13.25 16.25 13.362 16.25 13.5C16.25 13.6381 16.3619 13.75 16.5 13.75Z" fill="black"/>
</g>
</g>
</g>
<defs>
<clipPath id="clip0_232_7115">
<rect width="24" height="24" rx="5" fill="white"/>
</clipPath>
</defs>
</svg>
