<svg width="24" height="24" viewBox="0 0 24 24" fill="none" xmlns="http://www.w3.org/2000/svg">
<g id="warning-hexagon">
<g clip-path="url(#clip0_232_5819)">
<g id="Weight=Dynamic">
<path id="Vector (Stroke)" fill-rule="evenodd" clip-rule="evenodd" d="M6.93254 3.22372L1.86555 12L6.93254 20.7763H17.0665L22.1335 12L17.0665 3.22372H6.93254ZM5.6768 2.39872C5.91796 1.98103 6.36363 1.72372 6.84594 1.72372H17.1531C17.6354 1.72372 18.0811 1.98103 18.3223 2.39872L23.4758 11.325C23.717 11.7427 23.717 12.2573 23.4758 12.675L18.3223 21.6013C18.0811 22.019 17.6354 22.2763 17.1531 22.2763H6.84594C6.36363 22.2763 5.91796 22.019 5.6768 21.6013L0.523212 12.675C0.282057 12.2573 0.282058 11.7427 0.523212 11.325L5.6768 2.39872ZM12 7.25C12.4142 7.25 12.75 7.58579 12.75 8V12C12.75 12.4142 12.4142 12.75 12 12.75C11.5858 12.75 11.25 12.4142 11.25 12V8C11.25 7.58579 11.5858 7.25 12 7.25ZM12.5117 15.4414C12.8196 15.7185 12.8446 16.1927 12.5675 16.5006L12.5575 16.5117C12.2804 16.8196 11.8062 16.8446 11.4983 16.5675C11.1904 16.2904 11.1655 15.8162 11.4425 15.5083L11.4525 15.4972C11.7296 15.1893 12.2039 15.1643 12.5117 15.4414Z" fill="black"/>
</g>
</g>
</g>
<defs>
<clipPath id="clip0_232_5819">
<rect width="24" height="24" rx="5" fill="white"/>
</clipPath>
</defs>
</svg>
