<svg width="24" height="24" viewBox="0 0 24 24" fill="none" xmlns="http://www.w3.org/2000/svg">
<g id="warning-square">
<g clip-path="url(#clip0_232_1347)">
<g id="Weight=Dynamic">
<path id="Vector (Stroke)" fill-rule="evenodd" clip-rule="evenodd" d="M3.75 3.75V20.25H20.25V3.75H3.75ZM2.25 3.6C2.25 2.85441 2.85442 2.25 3.6 2.25H20.4C21.1456 2.25 21.75 2.85442 21.75 3.6V20.4C21.75 21.1456 21.1456 21.75 20.4 21.75H3.6C2.85442 21.75 2.25 21.1456 2.25 20.4V3.6ZM12 6.25C12.4142 6.25 12.75 6.58579 12.75 7V13C12.75 13.4142 12.4142 13.75 12 13.75C11.5858 13.75 11.25 13.4142 11.25 13V7C11.25 6.58579 11.5858 6.25 12 6.25ZM12.5117 16.4414C12.8196 16.7185 12.8446 17.1927 12.5675 17.5006L12.5575 17.5117C12.2804 17.8196 11.8062 17.8446 11.4983 17.5675C11.1904 17.2904 11.1654 16.8162 11.4425 16.5083L11.4525 16.4972C11.7296 16.1893 12.2038 16.1643 12.5117 16.4414Z" fill="black"/>
</g>
</g>
</g>
<defs>
<clipPath id="clip0_232_1347">
<rect width="24" height="24" rx="5" fill="white"/>
</clipPath>
</defs>
</svg>
