<svg width="24" height="24" viewBox="0 0 24 24" fill="none" xmlns="http://www.w3.org/2000/svg">
<g id="warning-triangle">
<g clip-path="url(#clip0_232_1140)">
<g id="Weight=Dynamic">
<path id="Vector (Stroke)" fill-rule="evenodd" clip-rule="evenodd" d="M9.61617 3.64147C10.6736 1.80254 13.3268 1.80253 14.3842 3.64147L22.4271 17.6292C23.4813 19.4625 22.1579 21.75 20.0431 21.75H3.95721C1.84242 21.75 0.519055 19.4625 1.57322 17.6292L9.61617 3.64147ZM13.0838 4.38918C12.6032 3.5533 11.3972 3.5533 10.9165 4.38918L2.87358 18.3769C2.39441 19.2102 2.99594 20.25 3.95721 20.25H20.0431C21.0044 20.25 21.6059 19.2102 21.1267 18.3769L13.0838 4.38918ZM12.0002 8.25C12.4144 8.25 12.7502 8.58579 12.7502 9V13C12.7502 13.4142 12.4144 13.75 12.0002 13.75C11.5859 13.75 11.2502 13.4142 11.2502 13V9C11.2502 8.58579 11.5859 8.25 12.0002 8.25ZM12.5119 16.4414C12.8198 16.7185 12.8447 17.1927 12.5677 17.5006L12.5577 17.5117C12.2806 17.8196 11.8064 17.8446 11.4985 17.5675C11.1906 17.2904 11.1656 16.8162 11.4427 16.5083L11.4527 16.4972C11.7297 16.1893 12.204 16.1643 12.5119 16.4414Z" fill="black"/>
</g>
</g>
</g>
<defs>
<clipPath id="clip0_232_1140">
<rect width="24" height="24" rx="5" fill="white"/>
</clipPath>
</defs>
</svg>
