<svg width="24" height="24" viewBox="0 0 24 24" fill="none" xmlns="http://www.w3.org/2000/svg">
<g id="washing-machine">
<g clip-path="url(#clip0_232_9208)">
<g id="Weight=Dynamic">
<path id="Vector (Stroke)" fill-rule="evenodd" clip-rule="evenodd" d="M2.25 4C2.25 2.48122 3.48122 1.25 5 1.25H18.9999C20.5187 1.25 21.7499 2.48121 21.7499 3.99999L21.75 20C21.75 21.5188 20.5188 22.75 19 22.75H5C3.48122 22.75 2.25 21.5188 2.25 20V4ZM5 2.75C4.30964 2.75 3.75 3.30964 3.75 4V20C3.75 20.6904 4.30964 21.25 5 21.25H19C19.6904 21.25 20.25 20.6904 20.25 20L20.2499 4C20.2499 3.30964 19.6903 2.75 18.9999 2.75H5ZM18.5117 4.44143C18.8196 4.71853 18.8446 5.19274 18.5675 5.50062L18.5575 5.51173C18.2804 5.81961 17.8061 5.84456 17.4983 5.56746C17.1904 5.29036 17.1654 4.81615 17.4425 4.50827L17.4525 4.49716C17.7296 4.18928 18.2039 4.16433 18.5117 4.44143ZM12 7.75C9.1005 7.75 6.75 10.1005 6.75 13C6.75 15.8995 9.1005 18.25 12 18.25C14.8995 18.25 17.25 15.8995 17.25 13C17.25 10.1005 14.8995 7.75 12 7.75ZM5.25 13C5.25 9.27208 8.27208 6.25 12 6.25C15.7279 6.25 18.75 9.27208 18.75 13C18.75 16.7279 15.7279 19.75 12 19.75C8.27208 19.75 5.25 16.7279 5.25 13ZM9 12.25C9.41421 12.25 9.75 12.5858 9.75 13C9.75 14.2426 10.7574 15.25 12 15.25C12.4142 15.25 12.75 15.5858 12.75 16C12.75 16.4142 12.4142 16.75 12 16.75C9.92893 16.75 8.25 15.0711 8.25 13C8.25 12.5858 8.58579 12.25 9 12.25Z" fill="black"/>
</g>
</g>
</g>
<defs>
<clipPath id="clip0_232_9208">
<rect width="24" height="24" rx="5" fill="white"/>
</clipPath>
</defs>
</svg>
