<svg width="24" height="24" viewBox="0 0 24 24" fill="none" xmlns="http://www.w3.org/2000/svg">
<g id="wash">
<g clip-path="url(#clip0_232_9270)">
<g id="Weight=Dynamic">
<path id="Vector (Stroke)" fill-rule="evenodd" clip-rule="evenodd" d="M1.88253 4.25926C2.29163 4.19433 2.6759 4.47332 2.74084 4.88241L3.57614 10.1448C3.76545 10.0822 3.97008 9.9916 4.18785 9.87282C4.6415 9.62537 5.09752 9.28583 5.51202 8.93055C5.92408 8.57735 6.27975 8.2219 6.53298 7.95377C6.65914 7.82019 6.75875 7.70947 6.82601 7.63312C6.85962 7.59497 6.88508 7.56549 6.90166 7.54611L6.91975 7.52483L6.92362 7.52023C6.92357 7.52029 6.92367 7.52017 6.92362 7.52023C6.92355 7.52032 6.92394 7.51985 7.50011 7.99999C8.07628 8.48013 8.07617 8.48025 8.07606 8.48038L8.07508 8.48156L8.07296 8.48409L8.066 8.49236L8.04143 8.52125C8.02042 8.54582 7.99021 8.58078 7.95155 8.62467C7.87428 8.71238 7.76296 8.83604 7.6235 8.98371C7.57494 9.03512 7.52284 9.08958 7.46744 9.14658C7.20565 9.41596 6.87029 9.74193 6.4882 10.0694C6.0277 10.4641 5.48372 10.8746 4.90612 11.1897C4.56854 11.3738 4.19918 11.5366 3.81325 11.6386L4.69537 17.1959C4.79174 17.8031 5.31521 18.25 5.92992 18.25H18.0704C18.6851 18.25 19.2085 17.8031 19.3049 17.1959L20.187 11.6386C19.8011 11.5366 19.4317 11.3738 19.0941 11.1897C18.5165 10.8746 17.9725 10.4641 17.512 10.0694C17.1299 9.74193 16.7946 9.41596 16.5328 9.14658C16.2954 9.41491 15.9908 9.7351 15.6343 10.0568C14.7746 10.8326 13.469 11.75 12.0001 11.75C10.5312 11.75 9.22558 10.8326 8.36591 10.0568C8.00945 9.7351 7.70479 9.41491 7.46744 9.14658M17.0766 7.52023L17.0805 7.52483L17.0986 7.54611C17.1151 7.56549 17.1406 7.59497 17.1742 7.63312C17.2415 7.70947 17.3411 7.82019 17.4672 7.95377C17.7205 8.2219 18.0761 8.57735 18.4882 8.93055C18.9027 9.28583 19.3587 9.62537 19.8124 9.87282C20.0301 9.9916 20.2348 10.0822 20.4241 10.1448L21.2594 4.88241C21.3243 4.47332 21.7086 4.19433 22.1177 4.25926C22.5268 4.32419 22.8058 4.70847 22.7408 5.11756L20.7864 17.4311C20.5744 18.7667 19.4227 19.75 18.0704 19.75H5.92992C4.57756 19.75 3.42592 18.7667 3.21392 17.4311L1.25938 5.11756C1.19445 4.70847 1.47344 4.3242 1.88253 4.25926M17.0766 7.52023C17.0766 7.52018 17.0766 7.52028 17.0766 7.52023C16.9279 7.34206 16.7046 7.242 16.4727 7.25049C16.2407 7.25898 16.0258 7.37438 15.8906 7.56299L15.8878 7.56683L15.8732 7.58663C15.8596 7.605 15.8382 7.63344 15.8096 7.67049C15.7523 7.74468 15.6663 7.853 15.5553 7.98404C15.3324 8.24722 15.0137 8.59638 14.6294 8.94319C13.8269 9.6674 12.8825 10.25 12.0001 10.25C11.1177 10.25 10.1734 9.6674 9.37085 8.94319C8.98654 8.59638 8.6678 8.24722 8.44493 7.98404C8.33395 7.853 8.24793 7.74468 8.19064 7.67049C8.16202 7.63344 8.14065 7.605 8.12701 7.58663L8.11243 7.56683L8.10985 7.56327C8.10994 7.5634 8.10985 7.56327 7.50011 7.99999" fill="black"/>
</g>
</g>
</g>
<defs>
<clipPath id="clip0_232_9270">
<rect width="24" height="24" rx="5" fill="white"/>
</clipPath>
</defs>
</svg>
