<svg width="24" height="24" viewBox="0 0 24 24" fill="none" xmlns="http://www.w3.org/2000/svg">
<g id="watering-soil">
<g clip-path="url(#clip0_232_10628)">
<g id="Weight=Dynamic">
<path id="Vector (Stroke)" fill-rule="evenodd" clip-rule="evenodd" d="M11.0735 2.86589C11.5852 2.35416 12.4148 2.35416 12.9266 2.86589L16.0303 5.96967C18.2562 8.19556 18.2562 11.8044 16.0303 14.0303C13.8045 16.2562 10.1956 16.2562 7.96968 14.0303C5.74378 11.8044 5.74378 8.19556 7.96968 5.96966L11.0735 2.86589ZM12 4.06065L9.03034 7.03032C7.39023 8.67043 7.39023 11.3296 9.03034 12.9697C10.6704 14.6098 13.3296 14.6098 14.9697 12.9697C16.6098 11.3296 16.6098 8.67043 14.9697 7.03033L12 4.06065ZM1.25 12C1.25 11.5858 1.58579 11.25 2 11.25H4C4.41421 11.25 4.75 11.5858 4.75 12C4.75 12.4142 4.41421 12.75 4 12.75H2C1.58579 12.75 1.25 12.4142 1.25 12ZM19.25 12C19.25 11.5858 19.5858 11.25 20 11.25H22C22.4142 11.25 22.75 11.5858 22.75 12C22.75 12.4142 22.4142 12.75 22 12.75H20C19.5858 12.75 19.25 12.4142 19.25 12ZM6.51173 15.4414C6.81961 15.7185 6.84456 16.1927 6.56747 16.5006L6.55747 16.5117C6.28037 16.8196 5.80616 16.8446 5.49827 16.5675C5.19039 16.2904 5.16544 15.8162 5.44253 15.5083L5.45253 15.4972C5.72963 15.1893 6.20385 15.1643 6.51173 15.4414ZM18.5117 15.4414C18.8196 15.7185 18.8446 16.1927 18.5675 16.5006L18.5575 16.5117C18.2804 16.8196 17.8062 16.8446 17.4983 16.5675C17.1904 16.2904 17.1654 15.8162 17.4425 15.5083L17.4525 15.4972C17.7296 15.1893 18.2038 15.1643 18.5117 15.4414ZM3.5117 19.4414C3.81959 19.7185 3.84457 20.1927 3.5675 20.5006L3.5575 20.5117C3.28042 20.8196 2.8062 20.8446 2.4983 20.5675C2.19041 20.2904 2.16543 19.8162 2.4425 19.5083L2.4525 19.4972C2.72958 19.1893 3.2038 19.1643 3.5117 19.4414ZM9.5117 19.4414C9.8196 19.7185 9.84457 20.1927 9.56749 20.5006L9.55749 20.5117C9.28041 20.8196 8.80619 20.8446 8.4983 20.5675C8.1904 20.2904 8.16543 19.8162 8.44251 19.5083L8.45251 19.4972C8.72959 19.1893 9.20381 19.1643 9.5117 19.4414ZM15.5117 19.4414C15.8196 19.7185 15.8446 20.1927 15.5675 20.5006L15.5575 20.5117C15.2804 20.8196 14.8062 20.8446 14.4983 20.5675C14.1904 20.2904 14.1654 19.8162 14.4425 19.5083L14.4525 19.4972C14.7296 19.1893 15.2038 19.1643 15.5117 19.4414ZM21.5117 19.4414C21.8196 19.7185 21.8446 20.1927 21.5675 20.5006L21.5575 20.5117C21.2804 20.8196 20.8062 20.8446 20.4983 20.5675C20.1904 20.2904 20.1654 19.8162 20.4425 19.5083L20.4525 19.4972C20.7296 19.1893 21.2038 19.1643 21.5117 19.4414Z" fill="black"/>
</g>
</g>
</g>
<defs>
<clipPath id="clip0_232_10628">
<rect width="24" height="24" rx="5" fill="white"/>
</clipPath>
</defs>
</svg>
