<svg width="24" height="24" viewBox="0 0 24 24" fill="none" xmlns="http://www.w3.org/2000/svg">
<g id="web-window-energy-consumption">
<g clip-path="url(#clip0_232_15456)">
<g id="Weight=Dynamic">
<path id="Vector (Stroke)" fill-rule="evenodd" clip-rule="evenodd" d="M4.22222 4.75C3.42891 4.75 2.75 5.41751 2.75 6.28571V17.7143C2.75 18.5825 3.4289 19.25 4.22222 19.25H19.7778C20.5711 19.25 21.25 18.5825 21.25 17.7143V6.28571C21.25 5.4175 20.5711 4.75 19.7778 4.75H4.22222ZM1.25 6.28571C1.25 4.62919 2.56093 3.25 4.22222 3.25H19.7778C21.4391 3.25 22.75 4.6292 22.75 6.28571V17.7143C22.75 19.3708 21.4391 20.75 19.7778 20.75H4.22222C2.56094 20.75 1.25 19.3709 1.25 17.7143V6.28571ZM4.25 7C4.25 6.58579 4.58579 6.25 5 6.25H6C6.41421 6.25 6.75 6.58579 6.75 7C6.75 7.41421 6.41421 7.75 6 7.75H5C4.58579 7.75 4.25 7.41421 4.25 7ZM12.0309 8.34439C12.393 8.54555 12.5235 9.00215 12.3223 9.36424L11.2746 11.25H14C14.2657 11.25 14.5116 11.3906 14.6464 11.6197C14.7812 11.8487 14.7847 12.1319 14.6556 12.3642L12.9889 15.3642C12.7878 15.7263 12.3311 15.8568 11.9691 15.6556C11.607 15.4545 11.4765 14.9978 11.6777 14.6358L12.7254 12.75H10C9.73426 12.75 9.48836 12.6094 9.3536 12.3803C9.21883 12.1513 9.21533 11.8681 9.34439 11.6358L11.0111 8.63576C11.2122 8.27368 11.6689 8.14322 12.0309 8.34439Z" fill="black"/>
</g>
</g>
</g>
<defs>
<clipPath id="clip0_232_15456">
<rect width="24" height="24" rx="5" fill="white"/>
</clipPath>
</defs>
</svg>
