<svg width="24" height="24" viewBox="0 0 24 24" fill="none" xmlns="http://www.w3.org/2000/svg">
<g id="web-window-xmark">
<g clip-path="url(#clip0_232_15470)">
<g id="Weight=Dynamic">
<path id="Vector (Stroke)" fill-rule="evenodd" clip-rule="evenodd" d="M4.22222 4.75C3.42891 4.75 2.75 5.41751 2.75 6.28571V17.7143C2.75 18.5825 3.4289 19.25 4.22222 19.25H19.7778C20.5711 19.25 21.25 18.5825 21.25 17.7143V6.28571C21.25 5.4175 20.5711 4.75 19.7778 4.75H4.22222ZM1.25 6.28571C1.25 4.62919 2.56093 3.25 4.22222 3.25H19.7778C21.4391 3.25 22.75 4.6292 22.75 6.28571V17.7143C22.75 19.3708 21.4391 20.75 19.7778 20.75H4.22222C2.56094 20.75 1.25 19.3709 1.25 17.7143V6.28571ZM4.25 7C4.25 6.58579 4.58579 6.25 5 6.25H6C6.41421 6.25 6.75 6.58579 6.75 7C6.75 7.41421 6.41421 7.75 6 7.75H5C4.58579 7.75 4.25 7.41421 4.25 7ZM9.46967 9.46967C9.76256 9.17678 10.2374 9.17678 10.5303 9.46967L12 10.9393L13.4697 9.46967C13.7626 9.17678 14.2374 9.17678 14.5303 9.46967C14.8232 9.76256 14.8232 10.2374 14.5303 10.5303L13.0607 12L14.5303 13.4697C14.8232 13.7626 14.8232 14.2374 14.5303 14.5303C14.2374 14.8232 13.7626 14.8232 13.4697 14.5303L12 13.0607L10.5303 14.5303C10.2374 14.8232 9.76256 14.8232 9.46967 14.5303C9.17678 14.2374 9.17678 13.7626 9.46967 13.4697L10.9393 12L9.46967 10.5303C9.17678 10.2374 9.17678 9.76256 9.46967 9.46967Z" fill="black"/>
</g>
</g>
</g>
<defs>
<clipPath id="clip0_232_15470">
<rect width="24" height="24" rx="5" fill="white"/>
</clipPath>
</defs>
</svg>
