<svg width="24" height="24" viewBox="0 0 24 24" fill="none" xmlns="http://www.w3.org/2000/svg">
<g id="webp-format">
<g clip-path="url(#clip0_232_12460)">
<g id="Weight=Dynamic">
<path id="Vector (Stroke)" fill-rule="evenodd" clip-rule="evenodd" d="M3.25 3.6C3.25 2.85441 3.85442 2.25 4.6 2.25H19.4C20.1456 2.25 20.75 2.85442 20.75 3.6V6C20.75 6.41421 20.4142 6.75 20 6.75C19.5858 6.75 19.25 6.41421 19.25 6V3.75H4.75V6C4.75 6.41421 4.41421 6.75 4 6.75C3.58579 6.75 3.25 6.41421 3.25 6V3.6ZM1.5 8.25C1.91421 8.25 2.25 8.58579 2.25 9V11.8229L2.32918 11.6646C2.45622 11.4105 2.71592 11.25 3 11.25C3.28408 11.25 3.54378 11.4105 3.67082 11.6646L3.75 11.8229V9C3.75 8.58579 4.08579 8.25 4.5 8.25C4.91421 8.25 5.25 8.58579 5.25 9V15C5.25 15.3478 5.01084 15.65 4.67231 15.7299C4.33379 15.8099 3.98474 15.6465 3.82918 15.3354L3 13.6771L2.17082 15.3354C2.01526 15.6465 1.66621 15.8099 1.32769 15.7299C0.989157 15.65 0.75 15.3478 0.75 15V9C0.75 8.58579 1.08579 8.25 1.5 8.25ZM6.75 9C6.75 8.58579 7.08579 8.25 7.5 8.25H10.5C10.9142 8.25 11.25 8.58579 11.25 9C11.25 9.41421 10.9142 9.75 10.5 9.75H8.25V11.25H9.5C9.91421 11.25 10.25 11.5858 10.25 12C10.25 12.4142 9.91421 12.75 9.5 12.75H8.25V14.25H10.5C10.9142 14.25 11.25 14.5858 11.25 15C11.25 15.4142 10.9142 15.75 10.5 15.75H7.5C7.08579 15.75 6.75 15.4142 6.75 15V9ZM12.75 9C12.75 8.58579 13.0858 8.25 13.5 8.25H15.9C16.6456 8.25 17.25 8.85441 17.25 9.6V10.5C17.25 11.0763 17.0334 11.6019 16.6771 12C17.0334 12.3981 17.25 12.9237 17.25 13.5V14.4C17.25 15.1456 16.6456 15.75 15.9 15.75H13.5C13.0858 15.75 12.75 15.4142 12.75 15V9ZM15 11.25C15.4142 11.25 15.75 10.9142 15.75 10.5V9.75H14.25V11.25H15ZM14.25 12.75H15C15.4142 12.75 15.75 13.0858 15.75 13.5V14.25H14.25V12.75ZM18.75 9C18.75 8.58579 19.0858 8.25 19.5 8.25H22.5C22.9142 8.25 23.25 8.58579 23.25 9V12C23.25 12.4142 22.9142 12.75 22.5 12.75H20.25V15C20.25 15.4142 19.9142 15.75 19.5 15.75C19.0858 15.75 18.75 15.4142 18.75 15V9ZM20.25 11.25H21.75V9.75H20.25V11.25ZM4 17.25C4.41421 17.25 4.75 17.5858 4.75 18V20.25H19.25V18C19.25 17.5858 19.5858 17.25 20 17.25C20.4142 17.25 20.75 17.5858 20.75 18V20.4C20.75 21.1456 20.1456 21.75 19.4 21.75H4.6C3.85442 21.75 3.25 21.1456 3.25 20.4V18C3.25 17.5858 3.58579 17.25 4 17.25Z" fill="black"/>
</g>
</g>
</g>
<defs>
<clipPath id="clip0_232_12460">
<rect width="24" height="24" rx="5" fill="white"/>
</clipPath>
</defs>
</svg>
