<svg width="24" height="24" viewBox="0 0 24 24" fill="none" xmlns="http://www.w3.org/2000/svg">
<g id="weight">
<g clip-path="url(#clip0_232_8852)">
<g id="Weight=Dynamic">
<path id="Vector (Stroke)" fill-rule="evenodd" clip-rule="evenodd" d="M9.69425 2.75C9.0832 2.75 8.56172 3.19177 8.46126 3.7945L8.26034 5L8.46126 6.2055C8.56172 6.80823 9.0832 7.25 9.69425 7.25H10.8922L10.3036 5.77854C10.1498 5.39396 10.3369 4.95748 10.7215 4.80364C11.106 4.64981 11.5425 4.83687 11.6964 5.22146L12.5078 7.25H14.3057C14.9168 7.25 15.4383 6.80823 15.5387 6.2055L15.7397 5L15.5387 3.7945C15.4383 3.19177 14.9168 2.75 14.3057 2.75H9.69425ZM11.983 8.75C11.9945 8.75027 12.006 8.75027 12.0175 8.75H14.3057C15.6501 8.75 16.7973 7.77811 17.0183 6.4521L17.1353 5.75H20.25V20.25H3.75V5.75H6.86465L6.98167 6.4521C7.20267 7.77811 8.34995 8.75 9.69425 8.75H11.983ZM6.86465 4.25L6.98167 3.5479C7.20267 2.22189 8.34995 1.25 9.69425 1.25H14.3057C15.6501 1.25 16.7973 2.22189 17.0183 3.5479L17.1353 4.25H20.4C21.1456 4.25 21.75 4.85442 21.75 5.6V20.4C21.75 21.1456 21.1456 21.75 20.4 21.75H3.6C2.85442 21.75 2.25 21.1456 2.25 20.4V5.6C2.25 4.85442 2.85442 4.25 3.6 4.25H6.86465Z" fill="black"/>
</g>
</g>
</g>
<defs>
<clipPath id="clip0_232_8852">
<rect width="24" height="24" rx="5" fill="white"/>
</clipPath>
</defs>
</svg>
