<svg width="24" height="24" viewBox="0 0 24 24" fill="none" xmlns="http://www.w3.org/2000/svg">
<g id="wifi-warning">
<g clip-path="url(#clip0_232_3594)">
<g id="Weight=Dynamic">
<path id="Vector (Stroke)" fill-rule="evenodd" clip-rule="evenodd" d="M2.8368 8.00211L11.9992 18.8298L21.1617 8.00214C18.2478 5.81898 15.1984 4.75 11.9992 4.75C8.8001 4.75 5.7507 5.81897 2.8368 8.00211ZM11.8449 19.0122C11.8448 19.0123 11.8449 19.0122 11.8449 19.0122V19.0122ZM1.75573 6.93924C4.94812 4.4957 8.36766 3.25 11.9992 3.25C15.6309 3.25 19.0504 4.49571 22.2428 6.93926L22.2568 6.94997L22.2703 6.96133C22.8218 7.42615 22.9226 8.24336 22.4447 8.80815L12.9899 19.9812C12.9434 20.0361 12.8925 20.0871 12.8376 20.1335C12.2904 20.5965 11.4716 20.5283 11.0086 19.9812L1.54245 8.79463L1.53171 8.78065C1.09219 8.20881 1.16821 7.38893 1.75573 6.93924ZM12 7.25C12.4142 7.25 12.75 7.58579 12.75 8V10C12.75 10.4142 12.4142 10.75 12 10.75C11.5858 10.75 11.25 10.4142 11.25 10V8C11.25 7.58579 11.5858 7.25 12 7.25ZM12.5117 13.4414C12.8196 13.7185 12.8446 14.1927 12.5675 14.5006L12.5575 14.5117C12.2804 14.8196 11.8061 14.8446 11.4983 14.5675C11.1904 14.2904 11.1654 13.8162 11.4425 13.5083L11.4525 13.4972C11.7296 13.1893 12.2038 13.1643 12.5117 13.4414Z" fill="black"/>
</g>
</g>
</g>
<defs>
<clipPath id="clip0_232_3594">
<rect width="24" height="24" rx="5" fill="white"/>
</clipPath>
</defs>
</svg>
