<svg width="24" height="24" viewBox="0 0 24 24" fill="none" xmlns="http://www.w3.org/2000/svg">
<g id="wifi-xmark">
<g clip-path="url(#clip0_232_3810)">
<g id="Weight=Dynamic">
<path id="Vector (Stroke)" fill-rule="evenodd" clip-rule="evenodd" d="M21.55 7.6C15.8167 3.3 8.18338 3.3 2.45004 7.6C2.11867 7.84853 1.64857 7.78137 1.40004 7.45C1.15152 7.11863 1.21867 6.64853 1.55004 6.4C7.81671 1.7 16.1834 1.7 22.45 6.4C22.7814 6.64853 22.8486 7.11863 22.6 7.45C22.3515 7.78137 21.8814 7.84853 21.55 7.6ZM18.55 11.6C14.8167 8.8 9.18338 8.8 5.45004 11.6C5.11867 11.8485 4.64857 11.7814 4.40004 11.45C4.15152 11.1186 4.21867 10.6485 4.55004 10.4C8.81671 7.2 15.1834 7.2 19.45 10.4C19.7814 10.6485 19.8486 11.1186 19.6 11.45C19.3515 11.7814 18.8814 11.8485 18.55 11.6ZM15.1039 15.1366C13.0963 13.8873 10.9042 13.8875 8.89622 15.1367C8.54451 15.3555 8.08202 15.2477 7.86322 14.896C7.64442 14.5443 7.75216 14.0818 8.10387 13.863C10.5968 12.3122 13.4034 12.3117 15.8964 13.8631C16.2481 14.0819 16.3558 14.5445 16.1369 14.8961C15.9181 15.2478 15.4555 15.3555 15.1039 15.1366ZM16.591 16.591C16.8839 16.2981 17.3588 16.2981 17.6517 16.591L19.2427 18.182L20.8337 16.591C21.1266 16.2981 21.6014 16.2981 21.8943 16.591C22.1872 16.8839 22.1872 17.3588 21.8943 17.6517L20.3033 19.2427L21.8943 20.8337C22.1872 21.1266 22.1872 21.6014 21.8943 21.8943C21.6014 22.1872 21.1266 22.1872 20.8337 21.8943L19.2427 20.3033L17.6517 21.8943C17.3588 22.1872 16.8839 22.1872 16.591 21.8943C16.2981 21.6014 16.2981 21.1266 16.591 20.8337L18.182 19.2427L16.591 17.6517C16.2981 17.3588 16.2981 16.8839 16.591 16.591ZM12.5118 17.9414C12.8197 18.2185 12.8446 18.6927 12.5675 19.0006L12.5575 19.0117C12.2804 19.3196 11.8062 19.3446 11.4983 19.0675C11.1904 18.7904 11.1655 18.3162 11.4426 18.0083L11.4526 17.9972C11.7297 17.6893 12.2039 17.6643 12.5118 17.9414Z" fill="black"/>
</g>
</g>
</g>
<defs>
<clipPath id="clip0_232_3810">
<rect width="24" height="24" rx="5" fill="white"/>
</clipPath>
</defs>
</svg>
