<svg width="24" height="24" viewBox="0 0 24 24" fill="none" xmlns="http://www.w3.org/2000/svg">
<g id="wifi-signal-none">
<g clip-path="url(#clip0_232_3587)">
<g id="Weight=Dynamic">
<path id="Path (Stroke)" fill-rule="evenodd" clip-rule="evenodd" d="M2.83728 8.00211L11.9997 18.8298L21.1622 8.00214C18.2483 5.81898 15.1989 4.75 11.9997 4.75C8.80059 4.75 5.75119 5.81897 2.83728 8.00211ZM11.8453 19.0122C11.8453 19.0123 11.8454 19.0122 11.8453 19.0122V19.0122ZM1.75622 6.93924C4.94861 4.4957 8.36814 3.25 11.9997 3.25C15.6313 3.25 19.0509 4.49571 22.2433 6.93926L22.2573 6.94997L22.2708 6.96133C22.8223 7.42615 22.9231 8.24336 22.4452 8.80815L12.9904 19.9812C12.9439 20.0361 12.893 20.0871 12.838 20.1335C12.2909 20.5965 11.4721 20.5283 11.0091 19.9812L1.54294 8.79463L1.5322 8.78065C1.09268 8.20881 1.1687 7.38893 1.75622 6.93924Z" fill="black"/>
</g>
</g>
</g>
<defs>
<clipPath id="clip0_232_3587">
<rect width="24" height="24" rx="5" fill="white"/>
</clipPath>
</defs>
</svg>
