<svg width="24" height="24" viewBox="0 0 24 24" fill="none" xmlns="http://www.w3.org/2000/svg">
<g id="wifi">
<g clip-path="url(#clip0_232_3407)">
<g id="Weight=Dynamic">
<path id="Vector (Stroke)" fill-rule="evenodd" clip-rule="evenodd" d="M21.55 8.6C15.8167 4.3 8.18338 4.3 2.45004 8.6C2.11867 8.84853 1.64857 8.78137 1.40004 8.45C1.15152 8.11863 1.21867 7.64853 1.55004 7.4C7.81671 2.7 16.1834 2.7 22.45 7.4C22.7814 7.64853 22.8486 8.11863 22.6 8.45C22.3515 8.78137 21.8814 8.84853 21.55 8.6ZM18.55 12.6C14.8167 9.8 9.18338 9.79999 5.45004 12.6C5.11867 12.8485 4.64857 12.7814 4.40004 12.45C4.15152 12.1186 4.21867 11.6485 4.55004 11.4C8.81671 8.19999 15.1834 8.2 19.45 11.4C19.7814 11.6485 19.8486 12.1186 19.6 12.45C19.3515 12.7814 18.8814 12.8485 18.55 12.6ZM15.1039 16.1368C13.0963 14.8874 10.9042 14.8877 8.89622 16.1368C8.54451 16.3556 8.08202 16.2479 7.86322 15.8962C7.64442 15.5445 7.75216 15.082 8.10387 14.8632C10.5968 13.3123 13.4034 13.3118 15.8964 14.8632C16.2481 15.0821 16.3558 15.5446 16.1369 15.8963C15.9181 16.2479 15.4555 16.3556 15.1039 16.1368ZM12.5118 18.9414C12.8197 19.2185 12.8446 19.6927 12.5675 20.0006L12.5575 20.0117C12.2804 20.3196 11.8062 20.3446 11.4983 20.0675C11.1904 19.7904 11.1655 19.3162 11.4426 19.0083L11.4526 18.9972C11.7297 18.6893 12.2039 18.6643 12.5118 18.9414Z" fill="black"/>
</g>
</g>
</g>
<defs>
<clipPath id="clip0_232_3407">
<rect width="24" height="24" rx="5" fill="white"/>
</clipPath>
</defs>
</svg>
