<svg width="24" height="24" viewBox="0 0 24 24" fill="none" xmlns="http://www.w3.org/2000/svg">
<g id="wifi-off">
<g clip-path="url(#clip0_232_3419)">
<g id="Weight=Dynamic">
<path id="Vector (Stroke)" fill-rule="evenodd" clip-rule="evenodd" d="M2.46971 2.46967C2.76261 2.17678 3.23748 2.17678 3.53037 2.46967L21.5304 20.4697C21.8233 20.7626 21.8233 21.2374 21.5304 21.5303C21.2375 21.8232 20.7626 21.8232 20.4697 21.5303L15.032 16.0926C13.044 14.8876 10.8802 14.9025 8.89622 16.1368C8.54451 16.3556 8.08202 16.2479 7.86322 15.8962C7.64442 15.5444 7.75216 15.082 8.10387 14.8632C9.56131 13.9565 11.126 13.5797 12.6725 13.7331L9.67323 10.7338C9.67174 10.7342 9.67023 10.7345 9.66873 10.7348C8.13863 11.0478 6.68746 11.6719 5.45005 12.6C5.11867 12.8485 4.64857 12.7814 4.40004 12.45C4.15152 12.1186 4.21867 11.6485 4.55004 11.4C5.71937 10.523 7.0431 9.88879 8.43283 9.49344L5.65765 6.71827C4.54376 7.20992 3.46745 7.83694 2.45004 8.6C2.11867 8.84853 1.64857 8.78137 1.40004 8.45C1.15152 8.11863 1.21867 7.64853 1.55004 7.4C2.49852 6.68864 3.49579 6.08449 4.52734 5.58796L2.46971 3.53033C2.17682 3.23744 2.17682 2.76256 2.46971 2.46967ZM21.55 8.6C18.1329 6.03712 14.0456 5.00472 10.0918 5.49224C9.68073 5.54293 9.30637 5.25075 9.25568 4.83965C9.20499 4.42855 9.49716 4.0542 9.90826 4.00351C14.2467 3.46856 18.7224 4.60425 22.45 7.4C22.7814 7.64853 22.8486 8.11863 22.6 8.45C22.3515 8.78137 21.8814 8.84853 21.55 8.6ZM13.9867 9.88595C14.0778 9.48188 14.4793 9.22817 14.8833 9.31927C16.5215 9.68861 18.0902 10.3801 19.45 11.4C19.7814 11.6485 19.8486 12.1186 19.6 12.45C19.3515 12.7814 18.8814 12.8485 18.55 12.6C17.3727 11.717 16.0019 11.1091 14.5534 10.7825C14.1494 10.6914 13.8956 10.29 13.9867 9.88595ZM12.5117 18.9414C12.8196 19.2185 12.8446 19.6927 12.5675 20.0006L12.5575 20.0117C12.2805 20.3196 11.8062 20.3446 11.4983 20.0675C11.1904 19.7904 11.1655 19.3162 11.4426 19.0083L11.4526 18.9972C11.7296 18.6893 12.2039 18.6643 12.5117 18.9414Z" fill="black"/>
</g>
</g>
</g>
<defs>
<clipPath id="clip0_232_3419">
<rect width="24" height="24" rx="5" fill="white"/>
</clipPath>
</defs>
</svg>
