<svg width="24" height="24" viewBox="0 0 24 24" fill="none" xmlns="http://www.w3.org/2000/svg">
<g id="wifi-tag">
<g clip-path="url(#clip0_232_3768)">
<g id="Weight=Dynamic">
<path id="Vector (Stroke)" fill-rule="evenodd" clip-rule="evenodd" d="M8 3.75C5.10051 3.75 2.75 6.10051 2.75 9V15C2.75 17.8995 5.10051 20.25 8 20.25H16C18.8995 20.25 21.25 17.8995 21.25 15V9C21.25 6.10051 18.8995 3.75 16 3.75H8ZM1.25 9C1.25 5.27208 4.27208 2.25 8 2.25H16C19.7279 2.25 22.75 5.27208 22.75 9V15C22.75 18.7279 19.7279 21.75 16 21.75H8C4.27208 21.75 1.25 18.7279 1.25 15V9ZM16.4238 11.7301C14.2237 9.08995 9.77631 9.08996 7.57616 11.7301C7.31098 12.0483 6.83806 12.0913 6.51985 11.8261C6.20165 11.5609 6.15866 11.088 6.42384 10.7698C9.22369 7.41006 14.7763 7.41005 17.5762 10.7699C17.8413 11.0881 17.7983 11.561 17.4801 11.8262C17.1619 12.0914 16.689 12.0484 16.4238 11.7301ZM14.4 13.7C13.2 12.1 10.8 12.1 9.6 13.7C9.35148 14.0314 8.88138 14.0986 8.55 13.85C8.21863 13.6015 8.15147 13.1314 8.4 12.8C10.2 10.4 13.8 10.4 15.6 12.8C15.8485 13.1314 15.7814 13.6015 15.45 13.85C15.1186 14.0986 14.6485 14.0314 14.4 13.7ZM12.5117 14.1914C12.8196 14.4685 12.8446 14.9427 12.5675 15.2506L12.5575 15.2617C12.2804 15.5696 11.8062 15.5946 11.4983 15.3175C11.1904 15.0404 11.1654 14.5662 11.4425 14.2583L11.4525 14.2472C11.7296 13.9393 12.2038 13.9143 12.5117 14.1914Z" fill="black"/>
</g>
</g>
</g>
<defs>
<clipPath id="clip0_232_3768">
<rect width="24" height="24" rx="5" fill="white"/>
</clipPath>
</defs>
</svg>
