<svg width="24" height="24" viewBox="0 0 24 24" fill="none" xmlns="http://www.w3.org/2000/svg">
<g id="window-no-access">
<g clip-path="url(#clip0_232_15215)">
<g id="Weight=Dynamic">
<path id="Vector (Stroke)" fill-rule="evenodd" clip-rule="evenodd" d="M4 3.75C3.30964 3.75 2.75 4.30964 2.75 5V6.25H21.25V5C21.25 4.30964 20.6904 3.75 20 3.75H4ZM22.75 5C22.75 3.48122 21.5188 2.25 20 2.25H4C2.48122 2.25 1.25 3.48122 1.25 5V19C1.25 20.5188 2.48122 21.75 4 21.75H12C12.4142 21.75 12.75 21.4142 12.75 21C12.75 20.5858 12.4142 20.25 12 20.25H4C3.30964 20.25 2.75 19.6904 2.75 19V7.75H21.25V13C21.25 13.4142 21.5858 13.75 22 13.75C22.4142 13.75 22.75 13.4142 22.75 13V5ZM5.51172 4.44142C5.81961 4.71851 5.84457 5.19273 5.56747 5.50061L5.55747 5.51172C5.28038 5.81961 4.80616 5.84457 4.49828 5.56747C4.19039 5.29038 4.16543 4.81616 4.44253 4.50828L4.45253 4.49717C4.72962 4.18928 5.20384 4.16432 5.51172 4.44142ZM8.51173 4.44142C8.81961 4.71852 8.84456 5.19274 8.56747 5.50062L8.55747 5.51173C8.28037 5.81961 7.80615 5.84456 7.49827 5.56747C7.19039 5.29037 7.16544 4.81615 7.44253 4.50827L7.45253 4.49716C7.72963 4.18928 8.20385 4.16433 8.51173 4.44142ZM11.5117 4.44142C11.8196 4.71852 11.8446 5.19274 11.5675 5.50062L11.5575 5.51173C11.2804 5.81961 10.8062 5.84456 10.4983 5.56747C10.1904 5.29037 10.1654 4.81615 10.4425 4.50827L10.4525 4.49716C10.7296 4.18928 11.2038 4.16433 11.5117 4.44142ZM18.5 15.75C16.9812 15.75 15.75 16.9812 15.75 18.5C15.75 18.9774 15.8712 19.4258 16.085 19.8169L19.8649 16.1119C19.4627 15.8814 18.997 15.75 18.5 15.75ZM20.915 17.1831L17.1351 20.8881C17.5373 21.1186 18.003 21.25 18.5 21.25C20.0188 21.25 21.25 20.0188 21.25 18.5C21.25 18.0226 21.1288 17.5742 20.915 17.1831ZM14.25 18.5C14.25 16.1528 16.1528 14.25 18.5 14.25C19.6887 14.25 20.7646 14.739 21.5351 15.525C22.2858 16.2908 22.75 17.3419 22.75 18.5C22.75 20.8472 20.8472 22.75 18.5 22.75C17.3113 22.75 16.2354 22.261 15.4649 21.475C14.7142 20.7092 14.25 19.6581 14.25 18.5Z" fill="black"/>
</g>
</g>
</g>
<defs>
<clipPath id="clip0_232_15215">
<rect width="24" height="24" rx="5" fill="white"/>
</clipPath>
</defs>
</svg>
