<svg width="24" height="24" viewBox="0 0 24 24" fill="none" xmlns="http://www.w3.org/2000/svg">
<g id="window-tabs">
<g clip-path="url(#clip0_232_15484)">
<g id="Weight=Dynamic">
<path id="Vector (Stroke)" fill-rule="evenodd" clip-rule="evenodd" d="M4.22222 4.75C3.42891 4.75 2.75 5.41751 2.75 6.28571V17.7143C2.75 18.5825 3.4289 19.25 4.22222 19.25H19.7778C20.5711 19.25 21.25 18.5825 21.25 17.7143V8.75H9C8.58579 8.75 8.25 8.41421 8.25 8V4.75H4.22222ZM4.22222 3.25C2.56093 3.25 1.25 4.62919 1.25 6.28571V17.7143C1.25 19.3709 2.56094 20.75 4.22222 20.75H19.7778C21.4391 20.75 22.75 19.3708 22.75 17.7143V6.28571C22.75 4.6292 21.4391 3.25 19.7778 3.25H4.22222ZM9.75 4.75V7.25H14.75V4.75H9.75ZM16.25 4.75V7.25H21.25V6.28571C21.25 5.4175 20.5711 4.75 19.7778 4.75H16.25Z" fill="black"/>
</g>
</g>
</g>
<defs>
<clipPath id="clip0_232_15484">
<rect width="24" height="24" rx="5" fill="white"/>
</clipPath>
</defs>
</svg>
