<svg width="24" height="24" viewBox="0 0 24 24" fill="none" xmlns="http://www.w3.org/2000/svg">
<g id="wind">
<g clip-path="url(#clip0_232_16673)">
<g id="Weight=Dynamic">
<path id="Vector (Stroke)" fill-rule="evenodd" clip-rule="evenodd" d="M9.66176 4C9.66176 3.58579 9.99755 3.25 10.4118 3.25C12.2307 3.25 13.75 4.68077 13.75 6.5C13.75 8.31923 12.2307 9.75 10.4118 9.75H3C2.58579 9.75 2.25 9.41421 2.25 9C2.25 8.58579 2.58579 8.25 3 8.25H10.4118C11.4517 8.25 12.25 7.44219 12.25 6.5C12.25 5.55781 11.4517 4.75 10.4118 4.75C9.99755 4.75 9.66176 4.41421 9.66176 4ZM17.5285 7C17.5285 6.58579 17.8643 6.25 18.2785 6.25C20.1346 6.25 21.75 7.64642 21.75 9.5C21.75 11.3536 20.1346 12.75 18.2785 12.75H3C2.58579 12.75 2.25 12.4142 2.25 12C2.25 11.5858 2.58579 11.25 3 11.25H18.2785C19.4285 11.25 20.25 10.4078 20.25 9.5C20.25 8.59216 19.4285 7.75 18.2785 7.75C17.8643 7.75 17.5285 7.41421 17.5285 7ZM2.25 15C2.25 14.5858 2.58579 14.25 3 14.25H17.9375C18.5977 14.25 19.4209 14.392 20.0969 14.9008C20.8101 15.4376 21.25 16.3 21.25 17.5C21.25 18.7 20.8101 19.5624 20.0969 20.0992C19.4209 20.608 18.5977 20.75 17.9375 20.75C17.5233 20.75 17.1875 20.4142 17.1875 20C17.1875 19.5858 17.5233 19.25 17.9375 19.25C18.4164 19.25 18.8744 19.142 19.1949 18.9008C19.4781 18.6876 19.75 18.3 19.75 17.5C19.75 16.7 19.4781 16.3124 19.1949 16.0992C18.8744 15.858 18.4164 15.75 17.9375 15.75H3C2.58579 15.75 2.25 15.4142 2.25 15Z" fill="black"/>
</g>
</g>
</g>
<defs>
<clipPath id="clip0_232_16673">
<rect width="24" height="24" rx="5" fill="white"/>
</clipPath>
</defs>
</svg>
