<svg width="24" height="24" viewBox="0 0 24 24" fill="none" xmlns="http://www.w3.org/2000/svg">
<g id="window-lock">
<g clip-path="url(#clip0_232_15183)">
<g id="Weight=Dynamic">
<path id="Vector (Stroke)" fill-rule="evenodd" clip-rule="evenodd" d="M4 3.75C3.30964 3.75 2.75 4.30964 2.75 5V6.25H21.25V5C21.25 4.30964 20.6904 3.75 20 3.75H4ZM22.75 5C22.75 3.48122 21.5188 2.25 20 2.25H4C2.48122 2.25 1.25 3.48122 1.25 5V19C1.25 20.5188 2.48122 21.75 4 21.75H14C14.4142 21.75 14.75 21.4142 14.75 21C14.75 20.5858 14.4142 20.25 14 20.25H4C3.30964 20.25 2.75 19.6904 2.75 19V7.75H21.25V13C21.25 13.4142 21.5858 13.75 22 13.75C22.4142 13.75 22.75 13.4142 22.75 13V5ZM5.51172 4.44142C5.81961 4.71851 5.84457 5.19273 5.56747 5.50061L5.55747 5.51172C5.28038 5.81961 4.80616 5.84457 4.49828 5.56747C4.19039 5.29038 4.16543 4.81616 4.44253 4.50828L4.45253 4.49717C4.72962 4.18928 5.20384 4.16432 5.51172 4.44142ZM8.51173 4.44142C8.81961 4.71852 8.84456 5.19274 8.56747 5.50062L8.55747 5.51173C8.28037 5.81961 7.80615 5.84456 7.49827 5.56747C7.19039 5.29037 7.16544 4.81615 7.44253 4.50827L7.45253 4.49716C7.72963 4.18928 8.20385 4.16433 8.51173 4.44142ZM11.5117 4.44142C11.8196 4.71852 11.8446 5.19274 11.5675 5.50062L11.5575 5.51173C11.2804 5.81961 10.8062 5.84456 10.4983 5.56747C10.1904 5.29037 10.1654 4.81615 10.4425 4.50827L10.4525 4.49716C10.7296 4.18928 11.2038 4.16433 11.5117 4.44142ZM17.5481 15.2321C17.9305 14.6745 18.5731 14.25 19.5 14.25C20.4269 14.25 21.0695 14.6745 21.4519 15.2321C21.807 15.75 21.9167 16.3455 21.9167 16.75V17.8524C22.4059 18.0552 22.75 18.5374 22.75 19.1V21.4C22.75 22.1456 22.1456 22.75 21.4 22.75H17.6C16.8544 22.75 16.25 22.1456 16.25 21.4V19.1C16.25 18.5374 16.5941 18.0552 17.0833 17.8524V16.75C17.0833 16.3455 17.193 15.75 17.5481 15.2321ZM18.5833 17.75H20.4167V16.75C20.4167 16.5712 20.3597 16.2917 20.2148 16.0804C20.0972 15.9089 19.9064 15.75 19.5 15.75C19.0936 15.75 18.9028 15.9089 18.7852 16.0804C18.6403 16.2917 18.5833 16.5712 18.5833 16.75V17.75ZM17.75 19.25V21.25H21.25V19.25H17.75Z" fill="black"/>
</g>
</g>
</g>
<defs>
<clipPath id="clip0_232_15183">
<rect width="24" height="24" rx="5" fill="white"/>
</clipPath>
</defs>
</svg>
