<svg width="24" height="24" viewBox="0 0 24 24" fill="none" xmlns="http://www.w3.org/2000/svg">
<g id="windows">
<g clip-path="url(#clip0_232_14388)">
<g id="Weight=Dynamic">
<path id="Vector (Stroke)" fill-rule="evenodd" clip-rule="evenodd" d="M19.1916 3.36722C20.0103 3.23929 20.75 3.87236 20.75 4.70104V19.299C20.75 20.1276 20.0103 20.7607 19.1916 20.6328L4.39159 18.3203C3.73445 18.2176 3.25 17.6516 3.25 16.9865V7.01354C3.25 6.34842 3.73444 5.7824 4.39159 5.67972L19.1916 3.36722ZM19.25 4.87629L11.25 6.12629V11.25H19.25V4.87629ZM19.25 12.75H11.25V17.8737L19.25 19.1237V12.75ZM9.75 17.6393V12.75H4.75V16.8581L9.75 17.6393ZM4.75 11.25H9.75V6.36067L4.75 7.14192V11.25Z" fill="black"/>
</g>
</g>
</g>
<defs>
<clipPath id="clip0_232_14388">
<rect width="24" height="24" rx="5" fill="white"/>
</clipPath>
</defs>
</svg>
