<svg width="24" height="24" viewBox="0 0 24 24" fill="none" xmlns="http://www.w3.org/2000/svg">
<g id="window-check">
<g clip-path="url(#clip0_232_15303)">
<g id="Weight=Dynamic">
<path id="Vector (Stroke)" fill-rule="evenodd" clip-rule="evenodd" d="M4 3.75C3.30964 3.75 2.75 4.30964 2.75 5V6.25H21.25V5C21.25 4.30964 20.6904 3.75 20 3.75H4ZM21.25 7.75V15C21.25 15.4142 21.5858 15.75 22 15.75C22.4142 15.75 22.75 15.4142 22.75 15V5C22.75 3.48122 21.5188 2.25 20 2.25H4C2.48122 2.25 1.25 3.48122 1.25 5V19C1.25 20.5188 2.48122 21.75 4 21.75H13C13.4142 21.75 13.75 21.4142 13.75 21C13.75 20.5858 13.4142 20.25 13 20.25H4C3.30964 20.25 2.75 19.6904 2.75 19V7.75H21.25ZM5.51172 4.44142C5.81961 4.71851 5.84457 5.19273 5.56747 5.50061L5.55747 5.51172C5.28038 5.81961 4.80616 5.84457 4.49828 5.56747C4.19039 5.29038 4.16543 4.81616 4.44253 4.50828L4.45253 4.49717C4.72962 4.18928 5.20384 4.16432 5.51172 4.44142ZM8.51173 4.44142C8.81961 4.71852 8.84456 5.19274 8.56747 5.50062L8.55747 5.51173C8.28037 5.81961 7.80615 5.84456 7.49827 5.56747C7.19039 5.29037 7.16544 4.81615 7.44253 4.50827L7.45253 4.49716C7.72963 4.18928 8.20385 4.16433 8.51173 4.44142ZM11.5117 4.44142C11.8196 4.71852 11.8446 5.19274 11.5675 5.50062L11.5575 5.51173C11.2804 5.81961 10.8062 5.84456 10.4983 5.56747C10.1904 5.29037 10.1654 4.81615 10.4425 4.50827L10.4525 4.49716C10.7296 4.18928 11.2038 4.16433 11.5117 4.44142ZM22.5303 17.4697C22.8232 17.7626 22.8232 18.2374 22.5303 18.5303L18.5303 22.5303C18.2374 22.8232 17.7626 22.8232 17.4697 22.5303L15.4697 20.5303C15.1768 20.2374 15.1768 19.7626 15.4697 19.4697C15.7626 19.1768 16.2374 19.1768 16.5303 19.4697L18 20.9393L21.4697 17.4697C21.7626 17.1768 22.2374 17.1768 22.5303 17.4697Z" fill="black"/>
</g>
</g>
</g>
<defs>
<clipPath id="clip0_232_15303">
<rect width="24" height="24" rx="5" fill="white"/>
</clipPath>
</defs>
</svg>
