<svg width="24" height="24" viewBox="0 0 24 24" fill="none" xmlns="http://www.w3.org/2000/svg">
<g id="wolf">
<g clip-path="url(#clip0_232_2428)">
<g id="Weight=Dynamic">
<path id="Vector (Stroke)" fill-rule="evenodd" clip-rule="evenodd" d="M18.9804 1.3275C19.3244 1.15763 19.7411 1.27474 19.9463 1.59893C21.458 3.9879 21.4796 5.89071 21.0121 7.24476C20.7847 7.9036 20.4529 8.39841 20.1759 8.73044C20.1504 8.76099 20.1253 8.79022 20.1008 8.81814C20.8823 10.4251 21.75 12.7787 21.75 15.3333C21.75 15.5322 21.671 15.723 21.5303 15.8636C21.3897 16.0043 21.1989 16.0833 21 16.0833C19.7452 16.0833 18.7419 16.4547 18.051 16.8269C17.7057 17.013 17.4411 17.1978 17.2663 17.333C17.2299 17.3611 17.1975 17.387 17.1692 17.4102C17.169 17.4109 17.1688 17.4117 17.1686 17.4125C17.1279 17.5614 17.0665 17.7709 16.9821 18.0211C16.8141 18.5187 16.5506 19.1899 16.1693 19.8677C15.4294 21.183 14.1097 22.75 12 22.75C9.89029 22.75 8.57056 21.183 7.83069 19.8677C7.44942 19.1899 7.18586 18.5187 7.01789 18.0211C6.93347 17.7709 6.87212 17.5614 6.83144 17.4125C6.83123 17.4117 6.83102 17.4109 6.83081 17.4102C6.80247 17.387 6.77008 17.3611 6.73371 17.333C6.55889 17.1978 6.29433 17.013 5.94898 16.8269C5.25806 16.4547 4.25484 16.0833 3 16.0833C2.80109 16.0833 2.61032 16.0043 2.46967 15.8636C2.32902 15.723 2.25 15.5322 2.25 15.3333C2.25 12.7781 3.11812 10.424 3.89975 8.81702C3.875 8.78868 3.84973 8.75899 3.82405 8.72794C3.54828 8.39448 3.21973 7.89737 3.00078 7.23549C2.55039 5.87402 2.61279 3.97001 4.19003 1.58613C4.40638 1.25913 4.83809 1.15397 5.1806 1.34482C5.73398 1.65319 6.73113 2.38333 7.54606 2.99865C7.9635 3.31384 8.3491 3.61121 8.63019 3.82965C8.6495 3.84465 8.66831 3.85929 8.68662 3.87353C8.87276 3.77288 9.1077 3.6542 9.37824 3.53544C10.0529 3.23929 11.0069 2.91664 12 2.91664C12.9931 2.91664 13.9471 3.23929 14.6218 3.53544C14.8928 3.6544 15.128 3.77328 15.3143 3.87405C15.3336 3.85914 15.3535 3.8438 15.3739 3.82806C15.6577 3.60902 16.0485 3.31076 16.4755 2.99453C17.3056 2.37959 18.346 1.64079 18.9804 1.3275ZM14.9623 5.40397L14.9526 5.39778C14.9431 5.39173 14.9276 5.38196 14.9065 5.36899C14.8643 5.34303 14.7998 5.3044 14.7163 5.2573C14.5489 5.1628 14.3079 5.03582 14.0189 4.90894C13.4279 4.64955 12.6944 4.41664 12 4.41664C11.3056 4.41664 10.5721 4.64955 9.98114 4.90894C9.69211 5.03582 9.4511 5.1628 9.28367 5.2573C9.20021 5.3044 9.13574 5.34303 9.09349 5.36899C9.07238 5.38196 9.05689 5.39173 9.0474 5.39778L9.03774 5.40397C9.03766 5.40403 9.03783 5.40392 9.03774 5.40397C9.03787 5.40389 9.03745 5.40416 8.625 4.77775L8.16003 5.36623C8.41367 5.56663 8.76771 5.58161 9.03774 5.40397M5.05708 3.04252C5.51536 3.35624 6.09307 3.78112 6.64219 4.19574C7.0525 4.50555 7.43234 4.79846 7.70975 5.01405C7.84838 5.12178 7.96125 5.21006 8.03933 5.2713L8.12919 5.34191L8.16003 5.36623L8.625 4.77775M5.05708 3.04252C4.0933 4.7684 4.17005 5.99408 4.42488 6.76439C4.49957 6.99017 4.59299 7.18741 4.69078 7.35596C4.76069 7.23965 4.82547 7.135 4.88378 7.04279C4.97919 6.89193 5.05747 6.77406 5.11285 6.69261C5.14054 6.65187 5.16253 6.62021 5.17809 6.59805L5.19651 6.57198L5.20195 6.56438L5.20369 6.56196L5.20431 6.56109C5.20436 6.56103 5.20477 6.56046 5.81249 6.99997L5.20431 6.56109C5.44705 6.22546 5.91637 6.14951 6.25201 6.39225C6.58748 6.63487 6.66288 7.10339 6.42058 7.43899L6.41802 7.44257L6.40578 7.45989C6.39439 7.47611 6.37667 7.5016 6.35333 7.53594C6.30663 7.60462 6.2375 7.7086 6.15155 7.84451C5.97952 8.11655 5.74088 8.51531 5.48021 9.01405C4.77123 10.3705 3.93028 12.4079 3.77522 14.6219C4.97469 14.7421 5.95156 15.1245 6.66039 15.5064C7.08847 15.737 7.42157 15.9688 7.65104 16.1462C7.76594 16.235 7.85538 16.3105 7.91828 16.366C7.94975 16.3938 7.97462 16.4166 7.99278 16.4336L8.01497 16.4546L8.02227 16.4617L8.02496 16.4643L8.02607 16.4654C8.0263 16.4657 8.02702 16.4664 7.49999 17L8.02702 16.4664C8.12895 16.567 8.19991 16.6948 8.23151 16.8345C8.23149 16.8344 8.23153 16.8346 8.23151 16.8345L8.23329 16.8421L8.24148 16.8759C8.24919 16.9071 8.26142 16.955 8.27841 17.0172C8.31243 17.1417 8.36534 17.3228 8.43913 17.5414C8.58757 17.9812 8.81619 18.5601 9.13805 19.1323C9.80443 20.317 10.7347 21.25 12 21.25C13.2653 21.25 14.1956 20.3169 14.8619 19.1323C15.1838 18.5601 15.4124 17.9812 15.5609 17.5414C15.6346 17.3228 15.6876 17.1417 15.7216 17.0172C15.7386 16.955 15.7508 16.9071 15.7585 16.8759L15.7667 16.8421L15.7683 16.8353C15.7998 16.6955 15.8709 16.5671 15.973 16.4664L16.5 17C15.973 16.4664 15.9727 16.4666 15.973 16.4664L15.9739 16.4654L15.975 16.4643L15.9777 16.4617L15.985 16.4546L16.0072 16.4336C16.0254 16.4166 16.0502 16.3938 16.0817 16.366C16.1446 16.3105 16.234 16.235 16.3489 16.1462C16.5784 15.9688 16.9115 15.737 17.3396 15.5064C18.0484 15.1245 19.0253 14.7421 20.2248 14.6219C20.0697 12.4079 19.2288 10.3705 18.5198 9.01405C18.2591 8.51531 18.0205 8.11655 17.8484 7.84451C17.7625 7.7086 17.6934 7.60462 17.6467 7.53594C17.6233 7.5016 17.6056 7.47612 17.5942 7.45989L17.582 7.44257L17.5798 7.43949C17.3371 7.10386 17.4124 6.63496 17.748 6.39225C18.0836 6.14952 18.5525 6.22482 18.7952 6.56046L18.1875 6.99998C18.7952 6.56046 18.7952 6.56039 18.7952 6.56046L18.7963 6.56196L18.798 6.56438L18.8035 6.57198L18.8219 6.59805C18.8375 6.62021 18.8595 6.65187 18.8871 6.69261C18.9425 6.77406 19.0208 6.89192 19.1162 7.04279C19.1755 7.13648 19.2414 7.24302 19.3126 7.36158C19.4151 7.18956 19.5141 6.9874 19.5942 6.75528C19.8626 5.97785 19.9593 4.74944 19.0424 3.02502C18.5559 3.33722 17.946 3.77195 17.3683 4.19986C16.9515 4.50863 16.5688 4.80065 16.2902 5.01563C16.151 5.12304 16.038 5.21103 15.96 5.27201L15.8704 5.34225L15.8403 5.36595C15.5869 5.56619 15.2334 5.58194 14.9635 5.40478C14.9634 5.40472 14.9623 5.40403 14.9623 5.40397M17.0247 17.5358C17.0243 17.5362 17.0244 17.5362 17.0247 17.5358V17.5358ZM6.97516 17.5357C6.97552 17.5361 6.97558 17.5362 6.97516 17.5357V17.5357ZM7.96967 13.0303C7.67678 12.7374 7.67678 12.2625 7.96967 11.9696C8.26256 11.6767 8.73744 11.6767 9.03033 11.9696L10.5303 13.4696C10.8232 13.7625 10.8232 14.2374 10.5303 14.5303C10.2374 14.8232 9.76256 14.8232 9.46967 14.5303L7.96967 13.0303ZM16.0303 11.9696C16.3232 12.2625 16.3232 12.7374 16.0303 13.0303L14.5303 14.5303C14.2374 14.8232 13.7626 14.8232 13.4697 14.5303C13.1768 14.2374 13.1768 13.7625 13.4697 13.4696L14.9697 11.9696C15.2626 11.6767 15.7374 11.6767 16.0303 11.9696ZM10.25 18C10.25 17.5858 10.5858 17.25 11 17.25H13C13.4142 17.25 13.75 17.5858 13.75 18C13.75 18.4142 13.4142 18.75 13 18.75H12.75V19C12.75 19.4142 12.4142 19.75 12 19.75C11.5858 19.75 11.25 19.4142 11.25 19V18.75H11C10.5858 18.75 10.25 18.4142 10.25 18Z" fill="black"/>
</g>
</g>
</g>
<defs>
<clipPath id="clip0_232_2428">
<rect width="24" height="24" rx="5" fill="white"/>
</clipPath>
</defs>
</svg>
