<svg width="24" height="24" viewBox="0 0 24 24" fill="none" xmlns="http://www.w3.org/2000/svg">
<g id="wrap-text">
<g clip-path="url(#clip0_232_1433)">
<g id="Weight=Dynamic">
<path id="Vector (Stroke)" fill-rule="evenodd" clip-rule="evenodd" d="M3.25 7C3.25 6.58579 3.58579 6.25 4 6.25H20C20.4142 6.25 20.75 6.58579 20.75 7C20.75 7.41421 20.4142 7.75 20 7.75H4C3.58579 7.75 3.25 7.41421 3.25 7ZM3.25 12C3.25 11.5858 3.58579 11.25 4 11.25H17.5C19.2949 11.25 20.75 12.7051 20.75 14.5C20.75 16.2949 19.2949 17.75 17.5 17.75H15.75V18.5C15.75 18.7702 15.6047 19.0195 15.3695 19.1526C15.1344 19.2858 14.8458 19.2821 14.6141 19.1431L12.1141 17.6431C11.8882 17.5076 11.75 17.2634 11.75 17C11.75 16.7366 11.8882 16.4924 12.1141 16.3569L14.6141 14.8569C14.8458 14.7179 15.1344 14.7142 15.3695 14.8474C15.6047 14.9805 15.75 15.2298 15.75 15.5V16.25H17.5C18.4665 16.25 19.25 15.4665 19.25 14.5C19.25 13.5335 18.4665 12.75 17.5 12.75H4C3.58579 12.75 3.25 12.4142 3.25 12ZM3.25 17C3.25 16.5858 3.58579 16.25 4 16.25H9C9.41421 16.25 9.75 16.5858 9.75 17C9.75 17.4142 9.41421 17.75 9 17.75H4C3.58579 17.75 3.25 17.4142 3.25 17Z" fill="black"/>
</g>
</g>
</g>
<defs>
<clipPath id="clip0_232_1433">
<rect width="24" height="24" rx="5" fill="white"/>
</clipPath>
</defs>
</svg>
