<svg width="24" height="24" viewBox="0 0 24 24" fill="none" xmlns="http://www.w3.org/2000/svg">
<g id="wrench">
<g clip-path="url(#clip0_232_15707)">
<g id="Weight=Dynamic">
<path id="Vector (Stroke)" fill-rule="evenodd" clip-rule="evenodd" d="M14.3509 1.56647C15.7071 1.36942 17.1398 1.54076 18.214 2.18529C18.412 2.30412 18.5443 2.50755 18.5725 2.73677C18.6007 2.966 18.5218 3.19543 18.3585 3.35874L15.5098 6.20739L15.3332 8.15179L17.2776 7.97516L20.1262 5.12651C20.2895 4.9632 20.519 4.88424 20.7482 4.91246C20.9774 4.94068 21.1808 5.07293 21.2997 5.27097C21.9442 6.34518 22.1155 7.77786 21.9185 9.13403C21.7203 10.4983 21.134 11.8969 20.1262 12.9047C18.2456 14.7853 15.3531 15.0243 13.0739 14.2997L6.33712 21.0364C5.26318 22.1104 3.52198 22.1104 2.44803 21.0364C1.37409 19.9625 1.37409 18.2213 2.44803 17.1473L9.18462 10.4107C8.46181 8.14224 8.6965 5.24252 10.5803 3.35874C11.588 2.351 12.9866 1.7647 14.3509 1.56647ZM14.5666 3.05088C13.449 3.21327 12.3727 3.68763 11.6409 4.4194C10.258 5.80231 10.0006 8.08481 10.6294 10.0037C10.7842 10.476 10.6872 11.0295 10.3021 11.4146L3.50869 18.208L2.98002 17.6793L3.50869 18.208C3.02054 18.6961 3.02054 19.4876 3.50869 19.9758C3.99685 20.4639 4.78831 20.4639 5.27646 19.9758L12.3475 12.9047C12.5583 12.6939 12.874 12.6279 13.1515 12.7367C15.1191 13.5079 17.5989 13.3107 19.0656 11.844C19.7973 11.1122 20.2717 10.036 20.4341 8.91835C20.5344 8.22821 20.51 7.56417 20.3802 6.99381L18.1462 9.22784C18.0221 9.35192 17.8585 9.42856 17.6837 9.44444L14.5727 9.72705C14.351 9.74718 14.1319 9.66783 13.9745 9.51046C13.8171 9.35308 13.7378 9.13393 13.7579 8.91227L14.0405 5.80123C14.0564 5.62648 14.133 5.46283 14.2571 5.33876L16.4912 3.10472C15.9208 2.97497 15.2568 2.95061 14.5666 3.05088Z" fill="black"/>
</g>
</g>
</g>
<defs>
<clipPath id="clip0_232_15707">
<rect width="24" height="24" rx="5" fill="white"/>
</clipPath>
</defs>
</svg>
