<svg width="24" height="24" viewBox="0 0 24 24" fill="none" xmlns="http://www.w3.org/2000/svg">
<g id="wristwatch">
<g clip-path="url(#clip0_232_5757)">
<g id="Weight=Dynamic">
<path id="Vector (Stroke)" fill-rule="evenodd" clip-rule="evenodd" d="M10 2.75C9.30964 2.75 8.75 3.30964 8.75 4V6.08249C9.71408 5.55187 10.8218 5.25 12 5.25C13.1782 5.25 14.2859 5.55187 15.25 6.08249V4C15.25 3.30964 14.6904 2.75 14 2.75H10ZM16.75 7.20417V4C16.75 2.48122 15.5188 1.25 14 1.25H10C8.48122 1.25 7.25 2.48122 7.25 4V7.20417C6.015 8.42744 5.25 10.1244 5.25 12C5.25 13.8756 6.015 15.5726 7.25 16.7958V20C7.25 21.5187 8.48122 22.75 10 22.75H14C15.5188 22.75 16.75 21.5187 16.75 20V16.7958C17.985 15.5726 18.75 13.8756 18.75 12C18.75 10.1244 17.985 8.42744 16.75 7.20417ZM15.505 15.9087C15.5017 15.9116 15.4983 15.9146 15.495 15.9176C14.5668 16.7463 13.3422 17.25 12 17.25C10.6578 17.25 9.4332 16.7463 8.50497 15.9176C8.50167 15.9146 8.49835 15.9116 8.495 15.9087C7.42384 14.9475 6.75 13.5525 6.75 12C6.75 9.1005 9.1005 6.75 12 6.75C14.8995 6.75 17.25 9.1005 17.25 12C17.25 13.5525 16.5762 14.9475 15.505 15.9087ZM8.75 17.9175C9.71408 18.4481 10.8218 18.75 12 18.75C13.1782 18.75 14.2859 18.4481 15.25 17.9175V20C15.25 20.6903 14.6904 21.25 14 21.25H10C9.30964 21.25 8.75 20.6903 8.75 20V17.9175ZM12 9.25C12.4142 9.25 12.75 9.58579 12.75 10V11.25H14C14.4142 11.25 14.75 11.5858 14.75 12C14.75 12.4142 14.4142 12.75 14 12.75H12C11.5858 12.75 11.25 12.4142 11.25 12V10C11.25 9.58579 11.5858 9.25 12 9.25Z" fill="black"/>
</g>
</g>
</g>
<defs>
<clipPath id="clip0_232_5757">
<rect width="24" height="24" rx="5" fill="white"/>
</clipPath>
</defs>
</svg>
