<svg width="24" height="24" viewBox="0 0 24 24" fill="none" xmlns="http://www.w3.org/2000/svg">
<g id="www">
<g clip-path="url(#clip0_232_3146)">
<g id="Weight=Dynamic">
<path id="Vector (Stroke)" fill-rule="evenodd" clip-rule="evenodd" d="M9.47582 3.09855C7.13939 3.75971 5.17839 5.31607 3.98705 7.37554C3.77964 7.73409 3.32085 7.85661 2.9623 7.6492C2.60375 7.4418 2.48123 6.983 2.68864 6.62446C4.37611 3.70732 7.39734 1.65501 10.9201 1.30357C10.9241 1.30315 10.9281 1.30276 10.932 1.30239C11.2833 1.26774 11.6396 1.25 12 1.25C12.3623 1.25 12.7206 1.26795 13.0741 1.30304C16.6005 1.65315 19.6232 3.70601 21.3114 6.62446C21.5188 6.983 21.3963 7.4418 21.0377 7.6492C20.6792 7.85661 20.2204 7.73409 20.013 7.37554C18.8216 5.31589 16.86 3.75944 14.524 3.09841C14.9997 3.9859 15.5709 5.24067 16.0156 6.79352C16.1297 7.19172 15.8993 7.60698 15.5011 7.72102C15.1029 7.83505 14.6877 7.60469 14.5736 7.20648C13.9227 4.93365 12.9809 3.36414 12.5866 2.76827C12.3927 2.75615 12.1971 2.75 12 2.75C11.803 2.75 11.6073 2.75616 11.4133 2.7683C11.4067 2.77824 11.4 2.78845 11.3931 2.79893C11.2575 3.00553 11.0646 3.31634 10.844 3.72185C10.4023 4.53356 9.85191 5.72025 9.42629 7.20648C9.31226 7.60469 8.897 7.83505 8.49879 7.72102C8.10059 7.60698 7.87022 7.19172 7.98426 6.79352C8.42953 5.23868 9.00133 3.98381 9.47582 3.09855ZM0.784442 9.28163C1.18119 9.16261 1.5993 9.38774 1.71832 9.78449L2.49995 12.3899L3.28158 9.78449C3.37675 9.46725 3.66875 9.25 3.99995 9.25C4.33116 9.25 4.62315 9.46725 4.71832 9.78449L5.49995 12.3899L6.28158 9.78449C6.40061 9.38774 6.81872 9.16261 7.21546 9.28163C7.61221 9.40065 7.83735 9.81877 7.71832 10.2155L6.21832 15.2155C6.12315 15.5327 5.83116 15.75 5.49995 15.75C5.16875 15.75 4.87676 15.5327 4.78158 15.2155L3.99995 12.6101L3.21832 15.2155C3.12315 15.5327 2.83116 15.75 2.49995 15.75C2.16875 15.75 1.87675 15.5327 1.78158 15.2155L0.281584 10.2155C0.16256 9.81877 0.387698 9.40065 0.784442 9.28163ZM8.78444 9.28163C9.18119 9.16261 9.5993 9.38774 9.71832 9.78449L10.5 12.3899L11.2816 9.78449C11.3768 9.46725 11.6687 9.25 12 9.25C12.3312 9.25 12.6232 9.46725 12.7183 9.78449L13.5 12.3899L14.2816 9.78449C14.4006 9.38774 14.8187 9.16261 15.2155 9.28163C15.6122 9.40065 15.8373 9.81877 15.7183 10.2155L14.2183 15.2155C14.1232 15.5327 13.8312 15.75 13.5 15.75C13.1687 15.75 12.8768 15.5327 12.7816 15.2155L12 12.6101L11.2183 15.2155C11.1232 15.5327 10.8312 15.75 10.5 15.75C10.1687 15.75 9.87675 15.5327 9.78158 15.2155L8.28158 10.2155C8.16256 9.81877 8.3877 9.40065 8.78444 9.28163ZM16.7844 9.28163C17.1812 9.16261 17.5993 9.38774 17.7183 9.78449L18.5 12.3899L19.2816 9.78449C19.3768 9.46725 19.6687 9.25 20 9.25C20.3312 9.25 20.6232 9.46725 20.7183 9.78449L21.5 12.3899L22.2816 9.78449C22.4006 9.38774 22.8187 9.16261 23.2155 9.28163C23.6122 9.40065 23.8373 9.81877 23.7183 10.2155L22.2183 15.2155C22.1232 15.5327 21.8312 15.75 21.5 15.75C21.1687 15.75 20.8768 15.5327 20.7816 15.2155L20 12.6101L19.2183 15.2155C19.1232 15.5327 18.8312 15.75 18.5 15.75C18.1687 15.75 17.8768 15.5327 17.7816 15.2155L16.2816 10.2155C16.1626 9.81877 16.3877 9.40065 16.7844 9.28163ZM8.49879 16.279C8.897 16.1649 9.31226 16.3953 9.42629 16.7935C10.0772 19.0663 11.019 20.6358 11.4133 21.2317C11.6072 21.2438 11.8029 21.25 12 21.25C12.1971 21.25 12.3927 21.2438 12.5866 21.2317C12.9809 20.6359 13.9227 19.0664 14.5736 16.7935C14.6877 16.3953 15.1029 16.1649 15.5011 16.279C15.8993 16.393 16.1297 16.8083 16.0156 17.2065C15.5709 18.7593 14.9997 20.0141 14.524 20.9016C16.86 20.2406 18.8215 18.6841 20.013 16.6245C20.2204 16.2659 20.6792 16.1434 21.0377 16.3508C21.3963 16.5582 21.5188 17.017 21.3114 17.3755C19.6232 20.294 16.6005 22.3468 13.0741 22.697C12.7206 22.7321 12.3623 22.75 12 22.75C11.6377 22.75 11.2793 22.732 10.9258 22.6969C7.39949 22.3468 4.37684 20.2939 2.68864 17.3755C2.48123 17.017 2.60375 16.5582 2.9623 16.3508C3.32085 16.1434 3.77964 16.2659 3.98705 16.6245C5.17847 18.6841 7.13996 20.2405 9.47587 20.9015C9.00019 20.0141 8.42895 18.7593 7.98426 17.2065C7.87022 16.8083 8.10059 16.393 8.49879 16.279Z" fill="black"/>
</g>
</g>
</g>
<defs>
<clipPath id="clip0_232_3146">
<rect width="24" height="24" rx="5" fill="white"/>
</clipPath>
</defs>
</svg>
