<svg width="24" height="24" viewBox="0 0 24 24" fill="none" xmlns="http://www.w3.org/2000/svg">
<g id="x-square">
<g clip-path="url(#clip0_232_15641)">
<g id="Weight=Dynamic">
<path id="Vector (Stroke)" fill-rule="evenodd" clip-rule="evenodd" d="M2.25 3.6C2.25 2.85442 2.85442 2.25 3.6 2.25H20.4C21.1456 2.25 21.75 2.85442 21.75 3.6V20.4C21.75 21.1456 21.1456 21.75 20.4 21.75H3.6C2.85442 21.75 2.25 21.1456 2.25 20.4V3.6ZM3.75 3.75V20.25H20.25V3.75H3.75ZM9.66459 7.32918C10.0351 7.14394 10.4856 7.29411 10.6708 7.66459L12 10.3229L13.3292 7.66459C13.5144 7.29411 13.9649 7.14394 14.3354 7.32918C14.7059 7.51442 14.8561 7.96493 14.6708 8.33541L12.8385 12L14.6708 15.6646C14.8561 16.0351 14.7059 16.4856 14.3354 16.6708C13.9649 16.8561 13.5144 16.7059 13.3292 16.3354L12 13.6771L10.6708 16.3354C10.4856 16.7059 10.0351 16.8561 9.66459 16.6708C9.29411 16.4856 9.14394 16.0351 9.32918 15.6646L11.1615 12L9.32918 8.33541C9.14394 7.96493 9.29411 7.51442 9.66459 7.32918Z" fill="black"/>
</g>
</g>
</g>
<defs>
<clipPath id="clip0_232_15641">
<rect width="24" height="24" rx="5" fill="white"/>
</clipPath>
</defs>
</svg>
