<svg width="24" height="24" viewBox="0 0 24 24" fill="none" xmlns="http://www.w3.org/2000/svg">
<g id="x">
<g clip-path="url(#clip0_232_14268)">
<g id="Weight=Dynamic">
<path id="Vector (Stroke)" fill-rule="evenodd" clip-rule="evenodd" d="M20.4985 2.43945C20.8081 2.71464 20.836 3.18869 20.5608 3.49828L14.0419 10.832L20.8391 19.5712C21.5288 20.4579 20.8968 21.75 19.7734 21.75H17.2937C16.8771 21.75 16.4838 21.5577 16.2281 21.2288L10.8951 14.3722L4.56078 21.4983C4.2856 21.8079 3.81154 21.8358 3.50195 21.5606C3.19237 21.2854 3.16448 20.8113 3.43967 20.5017L9.95853 13.168L3.16139 4.42883C2.47168 3.54207 3.10361 2.25001 4.22701 2.25001H6.70678C7.12337 2.25001 7.51664 2.44235 7.7724 2.77119L13.1054 9.62784L19.4397 2.50174C19.7149 2.19215 20.1889 2.16426 20.4985 2.43945ZM12.0919 10.768L6.63341 3.75001H4.53371L10.972 12.0278L12.0919 10.768ZM11.9086 13.232L17.367 20.25H19.4667L13.0284 11.9722L11.9086 13.232ZM19.655 20.4921C19.6549 20.4919 19.6548 20.4918 19.6547 20.4916L19.655 20.4921ZM6.58837 3.6921L6.58851 3.69227L6.58837 3.6921Z" fill="black"/>
</g>
</g>
</g>
<defs>
<clipPath id="clip0_232_14268">
<rect width="24" height="24" rx="5" fill="white"/>
</clipPath>
</defs>
</svg>
