<svg width="24" height="24" viewBox="0 0 24 24" fill="none" xmlns="http://www.w3.org/2000/svg">
<g id="xbox-b">
<g clip-path="url(#clip0_232_8046)">
<g id="Weight=Dynamic">
<path id="Vector (Stroke)" fill-rule="evenodd" clip-rule="evenodd" d="M12 2.75C6.89137 2.75 2.75 6.89137 2.75 12C2.75 17.1086 6.89137 21.25 12 21.25C17.1086 21.25 21.25 17.1086 21.25 12C21.25 6.89137 17.1086 2.75 12 2.75ZM1.25 12C1.25 6.06294 6.06294 1.25 12 1.25C17.9371 1.25 22.75 6.06294 22.75 12C22.75 17.9371 17.9371 22.75 12 22.75C6.06294 22.75 1.25 17.9371 1.25 12ZM8.75 8C8.75 7.58579 9.08579 7.25 9.5 7.25H12.5986C13.4375 7.25 14.121 7.57415 14.5867 8.10125C15.0399 8.61422 15.25 9.27621 15.25 9.91304C15.25 10.5499 15.0399 11.2119 14.5867 11.7248C14.549 11.7676 14.5098 11.809 14.4692 11.849C14.5174 11.8995 14.5635 11.9519 14.6075 12.0062C15.0499 12.5526 15.25 13.2493 15.25 13.913C15.25 14.5768 15.0499 15.2735 14.6075 15.8198C14.15 16.3847 13.4616 16.75 12.5986 16.75H9.5C9.08579 16.75 8.75 16.4142 8.75 16V8ZM12.5986 11.0761C13.0273 11.0761 13.2945 10.922 13.4626 10.7317C13.6432 10.5273 13.75 10.2327 13.75 9.91304C13.75 9.59336 13.6432 9.29883 13.4626 9.0944C13.2945 8.90412 13.0273 8.75 12.5986 8.75H10.25V11.0761H12.5986ZM10.25 12.5761H12.5986C13.0032 12.5761 13.2655 12.7325 13.4418 12.9503C13.6332 13.1866 13.75 13.5333 13.75 13.913C13.75 14.2928 13.6332 14.6395 13.4418 14.8758C13.2655 15.0936 13.0032 15.25 12.5986 15.25H10.25V12.5761Z" fill="black"/>
</g>
</g>
</g>
<defs>
<clipPath id="clip0_232_8046">
<rect width="24" height="24" rx="5" fill="white"/>
</clipPath>
</defs>
</svg>
