<svg width="24" height="24" viewBox="0 0 24 24" fill="none" xmlns="http://www.w3.org/2000/svg">
<g id="xbox-y">
<g clip-path="url(#clip0_232_8074)">
<g id="Weight=Dynamic">
<path id="Vector (Stroke)" fill-rule="evenodd" clip-rule="evenodd" d="M12 2.75C6.89137 2.75 2.75 6.89137 2.75 12C2.75 17.1086 6.89137 21.25 12 21.25C17.1086 21.25 21.25 17.1086 21.25 12C21.25 6.89137 17.1086 2.75 12 2.75ZM1.25 12C1.25 6.06294 6.06294 1.25 12 1.25C17.9371 1.25 22.75 6.06294 22.75 12C22.75 17.9371 17.9371 22.75 12 22.75C6.06294 22.75 1.25 17.9371 1.25 12ZM8.61413 7.35688C8.96931 7.14377 9.43001 7.25894 9.64312 7.61413L12 11.5423L14.3569 7.61413C14.57 7.25894 15.0307 7.14377 15.3859 7.35688C15.7411 7.56999 15.8562 8.03069 15.6431 8.38587L12.75 13.2077V16C12.75 16.4142 12.4142 16.75 12 16.75C11.5858 16.75 11.25 16.4142 11.25 16V13.2077L8.35688 8.38587C8.14377 8.03069 8.25894 7.56999 8.61413 7.35688Z" fill="black"/>
</g>
</g>
</g>
<defs>
<clipPath id="clip0_232_8074">
<rect width="24" height="24" rx="5" fill="white"/>
</clipPath>
</defs>
</svg>
