<svg width="24" height="24" viewBox="0 0 24 24" fill="none" xmlns="http://www.w3.org/2000/svg">
<g id="xbox-x">
<g clip-path="url(#clip0_232_8064)">
<g id="Weight=Dynamic">
<path id="Vector (Stroke)" fill-rule="evenodd" clip-rule="evenodd" d="M12 2.75C6.89137 2.75 2.75 6.89137 2.75 12C2.75 17.1086 6.89137 21.25 12 21.25C17.1086 21.25 21.25 17.1086 21.25 12C21.25 6.89137 17.1086 2.75 12 2.75ZM1.25 12C1.25 6.06294 6.06294 1.25 12 1.25C17.9371 1.25 22.75 6.06294 22.75 12C22.75 17.9371 17.9371 22.75 12 22.75C6.06294 22.75 1.25 17.9371 1.25 12ZM8.55 7.4C8.88137 7.15147 9.35147 7.21863 9.6 7.55L12 10.75L14.4 7.55C14.6485 7.21863 15.1186 7.15147 15.45 7.4C15.7814 7.64853 15.8485 8.11863 15.6 8.45L12.9375 12L15.6 15.55C15.8485 15.8814 15.7814 16.3515 15.45 16.6C15.1186 16.8485 14.6485 16.7814 14.4 16.45L12 13.25L9.6 16.45C9.35147 16.7814 8.88137 16.8485 8.55 16.6C8.21863 16.3515 8.15147 15.8814 8.4 15.55L11.0625 12L8.4 8.45C8.15147 8.11863 8.21863 7.64853 8.55 7.4Z" fill="black"/>
</g>
</g>
</g>
<defs>
<clipPath id="clip0_232_8064">
<rect width="24" height="24" rx="5" fill="white"/>
</clipPath>
</defs>
</svg>
