<svg width="24" height="24" viewBox="0 0 24 24" fill="none" xmlns="http://www.w3.org/2000/svg">
<g id="xbox-a">
<g clip-path="url(#clip0_232_8054)">
<g id="Weight=Dynamic">
<path id="Vector (Stroke)" fill-rule="evenodd" clip-rule="evenodd" d="M12 2.75C6.89137 2.75 2.75 6.89137 2.75 12C2.75 17.1086 6.89137 21.25 12 21.25C17.1086 21.25 21.25 17.1086 21.25 12C21.25 6.89137 17.1086 2.75 12 2.75ZM1.25 12C1.25 6.06294 6.06294 1.25 12 1.25C17.9371 1.25 22.75 6.06294 22.75 12C22.75 17.9371 17.9371 22.75 12 22.75C6.06294 22.75 1.25 17.9371 1.25 12ZM12 7.25C12.3126 7.25 12.5925 7.44393 12.7022 7.73666L15.7022 15.7367C15.8477 16.1245 15.6512 16.5568 15.2633 16.7022C14.8755 16.8477 14.4432 16.6512 14.2978 16.2633L13.7302 14.75H10.2698L9.70225 16.2633C9.55681 16.6512 9.1245 16.8477 8.73666 16.7022C8.34882 16.5568 8.15231 16.1245 8.29775 15.7367L11.2978 7.73666C11.4075 7.44393 11.6874 7.25 12 7.25ZM10.8323 13.25H13.1677L12 10.136L10.8323 13.25Z" fill="black"/>
</g>
</g>
</g>
<defs>
<clipPath id="clip0_232_8054">
<rect width="24" height="24" rx="5" fill="white"/>
</clipPath>
</defs>
</svg>
