<svg width="24" height="24" viewBox="0 0 24 24" fill="none" xmlns="http://www.w3.org/2000/svg">
<g id="xmark-circle">
<g clip-path="url(#clip0_232_1226)">
<g id="Weight=Dynamic">
<path id="Vector (Stroke)" fill-rule="evenodd" clip-rule="evenodd" d="M12 2.75C6.89137 2.75 2.75 6.89137 2.75 12C2.75 17.1086 6.89137 21.25 12 21.25C17.1086 21.25 21.25 17.1086 21.25 12C21.25 6.89137 17.1086 2.75 12 2.75ZM1.25 12C1.25 6.06294 6.06294 1.25 12 1.25C17.9371 1.25 22.75 6.06294 22.75 12C22.75 17.9371 17.9371 22.75 12 22.75C6.06294 22.75 1.25 17.9371 1.25 12ZM8.64087 8.64124C8.93376 8.34835 9.40864 8.34835 9.70153 8.64124L11.9996 10.9393L14.2977 8.64124C14.5906 8.34835 15.0655 8.34835 15.3584 8.64124C15.6513 8.93414 15.6513 9.40901 15.3584 9.7019L13.0603 12L15.3584 14.2981C15.6513 14.591 15.6513 15.0659 15.3584 15.3588C15.0655 15.6517 14.5906 15.6517 14.2977 15.3588L11.9996 13.0607L9.70153 15.3588C9.40864 15.6517 8.93376 15.6517 8.64087 15.3588C8.34798 15.0659 8.34798 14.591 8.64087 14.2981L10.939 12L8.64087 9.7019C8.34798 9.40901 8.34798 8.93414 8.64087 8.64124Z" fill="black"/>
</g>
</g>
</g>
<defs>
<clipPath id="clip0_232_1226">
<rect width="24" height="24" rx="5" fill="white"/>
</clipPath>
</defs>
</svg>
