<svg width="24" height="24" viewBox="0 0 24 24" fill="none" xmlns="http://www.w3.org/2000/svg">
<g id="xmark">
<g clip-path="url(#clip0_232_1295)">
<g id="Weight=Dynamic">
<path id="Vector (Stroke)" fill-rule="evenodd" clip-rule="evenodd" d="M6.22699 6.22699C6.51989 5.9341 6.99476 5.9341 7.28765 6.22699L12 10.9393L16.7123 6.22699C17.0052 5.9341 17.48 5.9341 17.7729 6.22699C18.0658 6.51989 18.0658 6.99476 17.7729 7.28765L13.0606 12L17.7729 16.7123C18.0658 17.0052 18.0658 17.48 17.7729 17.7729C17.48 18.0658 17.0052 18.0658 16.7123 17.7729L12 13.0606L7.28765 17.7729C6.99476 18.0658 6.51989 18.0658 6.22699 17.7729C5.9341 17.48 5.9341 17.0052 6.22699 16.7123L10.9393 12L6.22699 7.28765C5.9341 6.99476 5.9341 6.51989 6.22699 6.22699Z" fill="black"/>
</g>
</g>
</g>
<defs>
<clipPath id="clip0_232_1295">
<rect width="24" height="24" rx="5" fill="white"/>
</clipPath>
</defs>
</svg>
