<svg width="24" height="24" viewBox="0 0 24 24" fill="none" xmlns="http://www.w3.org/2000/svg">
<g id="xmark-square">
<g clip-path="url(#clip0_232_1037)">
<g id="Weight=Dynamic">
<path id="Vector (Stroke)" fill-rule="evenodd" clip-rule="evenodd" d="M2.25 3.6C2.25 2.85442 2.85442 2.25 3.6 2.25H20.4C21.1456 2.25 21.75 2.85442 21.75 3.6V20.4C21.75 21.1456 21.1456 21.75 20.4 21.75H3.6C2.85442 21.75 2.25 21.1456 2.25 20.4V3.6ZM3.75 3.75V20.25H20.25V3.75H3.75ZM9.34831 9.34835C9.64121 9.05546 10.1161 9.05546 10.409 9.34835L12 10.9393L13.591 9.34835C13.8838 9.05546 14.3587 9.05546 14.6516 9.34835C14.9445 9.64124 14.9445 10.1161 14.6516 10.409L13.0606 12L14.6516 13.591C14.9445 13.8839 14.9445 14.3588 14.6516 14.6517C14.3587 14.9445 13.8838 14.9445 13.591 14.6517L12 13.0607L10.409 14.6517C10.1161 14.9445 9.64121 14.9445 9.34831 14.6517C9.05542 14.3588 9.05542 13.8839 9.34831 13.591L10.9393 12L9.34831 10.409C9.05542 10.1161 9.05542 9.64124 9.34831 9.34835Z" fill="black"/>
</g>
</g>
</g>
<defs>
<clipPath id="clip0_232_1037">
<rect width="24" height="24" rx="5" fill="white"/>
</clipPath>
</defs>
</svg>
