<svg width="24" height="24" viewBox="0 0 24 24" fill="none" xmlns="http://www.w3.org/2000/svg">
<g id="xray-view">
<g clip-path="url(#clip0_232_436)">
<g id="Weight=Dynamic">
<path id="Vector (Stroke)" fill-rule="evenodd" clip-rule="evenodd" d="M11.3444 1.50625C11.7521 1.27974 12.2479 1.27974 12.6556 1.50625L12.2914 2.16187L12.2236 2.28389M11.3444 1.50625L11.7086 2.16187L11.3444 1.50625ZM2.94438 6.17292L11.3444 1.50625L11.7086 2.16187M11.25 3.27462L4.54436 6.99998L11.25 10.7253V3.27462ZM10.4557 12L3.75 8.27461L3.75002 15.7254L10.4557 12ZM4.54436 17L11.25 20.7254V13.2746L4.54436 17ZM12.75 13.2746L19.4557 17L12.75 20.7254V13.2746ZM20.25 15.7254L20.25 8.27464L13.5444 12L20.25 15.7254ZM19.4557 6.99999L12.75 10.7254V3.27463L19.4557 6.99999ZM12.6556 1.50625L21.0556 6.17292C21.4842 6.41102 21.75 6.86276 21.75 7.35303L21.75 16.6469C21.75 17.1372 21.4842 17.589 21.0556 17.8271L12.6556 22.4937C12.2479 22.7202 11.7521 22.7202 11.3444 22.4937L2.9444 17.8271C2.51582 17.589 2.25002 17.1372 2.25002 16.6469L2.25 7.35303C2.25 6.86276 2.5158 6.41102 2.94438 6.17292M12.6556 1.50625L12.2914 2.16187L12.6556 1.50625Z" fill="black"/>
</g>
</g>
</g>
<defs>
<clipPath id="clip0_232_436">
<rect width="24" height="24" rx="5" fill="white"/>
</clipPath>
</defs>
</svg>
