<svg width="24" height="24" viewBox="0 0 24 24" fill="none" xmlns="http://www.w3.org/2000/svg">
<g id="y-square">
<g clip-path="url(#clip0_232_15659)">
<g id="Weight=Dynamic">
<path id="Vector (Stroke)" fill-rule="evenodd" clip-rule="evenodd" d="M2.25 3.6C2.25 2.85442 2.85442 2.25 3.6 2.25H20.4C21.1456 2.25 21.75 2.85442 21.75 3.6V20.4C21.75 21.1456 21.1456 21.75 20.4 21.75H3.6C2.85442 21.75 2.25 21.1456 2.25 20.4V3.6ZM3.75 3.75V20.25H20.25V3.75H3.75ZM9.66459 7.32918C10.0351 7.14394 10.4856 7.29411 10.6708 7.66459L12 10.3229L13.3292 7.66459C13.5144 7.29411 13.9649 7.14394 14.3354 7.32918C14.7059 7.51442 14.8561 7.96493 14.6708 8.33541L12.75 12.1771V16C12.75 16.4142 12.4142 16.75 12 16.75C11.5858 16.75 11.25 16.4142 11.25 16V12.1771L9.32918 8.33541C9.14394 7.96493 9.29411 7.51442 9.66459 7.32918Z" fill="black"/>
</g>
</g>
</g>
<defs>
<clipPath id="clip0_232_15659">
<rect width="24" height="24" rx="5" fill="white"/>
</clipPath>
</defs>
</svg>
