<svg width="24" height="24" viewBox="0 0 24 24" fill="none" xmlns="http://www.w3.org/2000/svg">
<g id="yelp">
<g clip-path="url(#clip0_232_14223)">
<g id="Weight=Dynamic">
<path id="Vector (Stroke)" fill-rule="evenodd" clip-rule="evenodd" d="M10.0552 1.50044C10.8917 1.24951 11.7426 1.84671 11.7911 2.71862L12.2488 10.9584C12.2673 11.2899 12.0656 11.5941 11.753 11.7061C11.4405 11.8181 11.0915 11.7113 10.8952 11.4436L5.89776 4.62887C5.34627 3.87683 5.70524 2.80544 6.59849 2.53746L10.0552 1.50044ZM10.3039 2.99187L7.23301 3.91315L10.611 8.51956L10.3039 2.99187ZM15.8938 8.30731C16.4178 7.52123 17.5664 7.50271 18.1156 8.27148L19.5604 10.2943C20.1358 11.0998 19.6773 12.2301 18.7034 12.4072L14.1342 13.2379C13.8381 13.2918 13.5385 13.1634 13.3732 12.9119C13.2079 12.6604 13.209 12.3344 13.376 12.084L15.8938 8.30731ZM17.0213 9.32018L15.604 11.4461L18.2024 10.9737L17.0213 9.32018ZM3.75 12.4709C3.75 11.4673 4.80612 10.8146 5.70374 11.2634L9.83541 13.3292C10.0996 13.4613 10.2616 13.7361 10.2494 14.0312C10.2371 14.3263 10.0528 14.5867 9.77854 14.6964L5.60138 16.3673C4.71461 16.722 3.75 16.0689 3.75 15.1138V12.4709ZM5.25 12.7136V14.8923L7.67078 13.9239L5.25 12.7136ZM13.9 15.55C14.0704 15.3228 14.3547 15.2113 14.6342 15.2621L19.179 16.0885C20.1664 16.268 20.6196 17.4238 20.0175 18.2267L18.1825 20.6734C17.5804 21.4762 16.3438 21.3647 15.895 20.4671L13.8292 16.3354C13.7021 16.0814 13.7296 15.7773 13.9 15.55ZM15.8416 17.0063L17.1281 19.5792L18.6719 17.5209L15.8416 17.0063ZM11.787 15.8071C12.0673 15.9232 12.25 16.1967 12.25 16.5V21.1342C12.25 22.0768 11.3085 22.7292 10.426 22.3983L8.10913 21.5295C7.18981 21.1847 6.93429 20.0051 7.62855 19.3108L10.9697 15.9697C11.1842 15.7552 11.5068 15.691 11.787 15.8071ZM8.85394 20.2068L10.75 20.9178V18.3107L8.85394 20.2068Z" fill="black"/>
</g>
</g>
</g>
<defs>
<clipPath id="clip0_232_14223">
<rect width="24" height="24" rx="5" fill="white"/>
</clipPath>
</defs>
</svg>
