<svg width="24" height="24" viewBox="0 0 24 24" fill="none" xmlns="http://www.w3.org/2000/svg">
<g id="yen-square">
<g clip-path="url(#clip0_232_7581)">
<g id="Weight=Dynamic">
<path id="Vector (Stroke)" fill-rule="evenodd" clip-rule="evenodd" d="M3.75 3.75V20.25H20.25V3.75H3.75ZM2.25 3.6C2.25 2.85441 2.85442 2.25 3.6 2.25H20.4C21.1456 2.25 21.75 2.85442 21.75 3.6V20.4C21.75 21.1456 21.1456 21.75 20.4 21.75H3.6C2.85442 21.75 2.25 21.1456 2.25 20.4V3.6ZM7.55887 6.39345C7.89386 6.14982 8.36292 6.22388 8.60655 6.55887L12 11.2249L15.3934 6.55887C15.6371 6.22388 16.1061 6.14982 16.4411 6.39345C16.7761 6.63708 16.8502 7.10614 16.6066 7.44113L13.1092 12.25H16C16.4142 12.25 16.75 12.5858 16.75 13C16.75 13.4142 16.4142 13.75 16 13.75H12.75V14.25H16C16.4142 14.25 16.75 14.5858 16.75 15C16.75 15.4142 16.4142 15.75 16 15.75H12.75V18C12.75 18.4142 12.4142 18.75 12 18.75C11.5858 18.75 11.25 18.4142 11.25 18V15.75H8C7.58579 15.75 7.25 15.4142 7.25 15C7.25 14.5858 7.58579 14.25 8 14.25H11.25V13.75H8C7.58579 13.75 7.25 13.4142 7.25 13C7.25 12.5858 7.58579 12.25 8 12.25H10.8908L7.39345 7.44113C7.14982 7.10614 7.22388 6.63708 7.55887 6.39345Z" fill="black"/>
</g>
</g>
</g>
<defs>
<clipPath id="clip0_232_7581">
<rect width="24" height="24" rx="5" fill="white"/>
</clipPath>
</defs>
</svg>
