<svg width="24" height="24" viewBox="0 0 24 24" fill="none" xmlns="http://www.w3.org/2000/svg">
<g id="yen">
<g clip-path="url(#clip0_232_7494)">
<g id="Weight=Dynamic">
<path id="Vector (Stroke)" fill-rule="evenodd" clip-rule="evenodd" d="M5.54998 3.40004C5.88135 3.15152 6.35145 3.21867 6.59998 3.55004L12 10.75L17.4 3.55004C17.6485 3.21867 18.1186 3.15152 18.45 3.40004C18.7814 3.64857 18.8485 4.11867 18.6 4.45004L13.5 11.25H18C18.4142 11.25 18.75 11.5858 18.75 12C18.75 12.4143 18.4142 12.75 18 12.75H12.75V15.25H18C18.4142 15.25 18.75 15.5858 18.75 16C18.75 16.4143 18.4142 16.75 18 16.75H12.75V20C12.75 20.4143 12.4142 20.75 12 20.75C11.5858 20.75 11.25 20.4143 11.25 20V16.75H5.99998C5.58577 16.75 5.24998 16.4143 5.24998 16C5.24998 15.5858 5.58577 15.25 5.99998 15.25H11.25V12.75H5.99998C5.58577 12.75 5.24998 12.4143 5.24998 12C5.24998 11.5858 5.58577 11.25 5.99998 11.25H10.5L5.39998 4.45004C5.15145 4.11867 5.21861 3.64857 5.54998 3.40004Z" fill="black"/>
</g>
</g>
</g>
<defs>
<clipPath id="clip0_232_7494">
<rect width="24" height="24" rx="5" fill="white"/>
</clipPath>
</defs>
</svg>
