<svg width="24" height="24" viewBox="0 0 24 24" fill="none" xmlns="http://www.w3.org/2000/svg">
<g id="yoga">
<g clip-path="url(#clip0_232_1870)">
<g id="Weight=Dynamic">
<path id="Vector (Stroke)" fill-rule="evenodd" clip-rule="evenodd" d="M12.0002 3.75C11.3098 3.75 10.7502 4.30964 10.7502 5C10.7502 5.69036 11.3098 6.25 12.0002 6.25C12.6905 6.25 13.2502 5.69036 13.2502 5C13.2502 4.30964 12.6905 3.75 12.0002 3.75ZM9.25016 5C9.25016 3.48122 10.4814 2.25 12.0002 2.25C13.5189 2.25 14.7502 3.48122 14.7502 5C14.7502 6.51878 13.5189 7.75 12.0002 7.75C10.4814 7.75 9.25016 6.51878 9.25016 5ZM12.0001 8.25721C12.0003 8.2572 12.0064 8.25714 12.0248 8.25651L12.0933 8.25405C12.1497 8.2521 12.2232 8.25 12.3099 8.25C12.4835 8.25 12.7076 8.25841 12.9677 8.29234C13.4885 8.36027 14.1515 8.53039 14.8441 8.937C16.1933 9.72903 17.5154 11.3322 18.2163 14.4297C18.7589 14.603 19.3964 14.7728 19.9488 14.91C20.2914 14.995 20.5947 15.066 20.8122 15.1157C20.9208 15.1405 21.0079 15.1599 21.0675 15.1731L21.1356 15.1881L21.1528 15.1918L21.1569 15.1927L21.158 15.1929C21.158 15.1929 21.158 15.1929 21.158 15.1929C21.5629 15.2801 21.8205 15.679 21.7334 16.084C21.6462 16.4889 21.2473 16.7465 20.8423 16.6593L21.0002 15.9261C20.8423 16.6593 20.8424 16.6593 20.8423 16.6593L20.8352 16.6578L20.816 16.6536L20.7436 16.6377C20.681 16.6239 20.5906 16.6037 20.4783 16.578C20.2538 16.5268 19.9411 16.4536 19.5872 16.3657C18.8868 16.1918 17.9989 15.9537 17.3183 15.7095C17.0705 15.6206 16.8874 15.4083 16.836 15.1501C16.2231 12.0714 15.032 10.7867 14.0847 10.2306C13.2136 9.71918 12.4363 9.74409 12.0995 9.75488C12.0602 9.75614 12.0269 9.75721 12.0002 9.75721C11.9734 9.75721 11.9401 9.75614 11.9008 9.75488C11.564 9.74409 10.7867 9.71918 9.91557 10.2306C8.96831 10.7867 7.77725 12.0714 7.16429 15.1501C7.11288 15.4083 6.92982 15.6206 6.68199 15.7095C6.00145 15.9537 5.11349 16.1918 4.41308 16.3657C4.05925 16.4536 3.74647 16.5268 3.522 16.578C3.40969 16.6037 3.31929 16.6239 3.25669 16.6377L3.18433 16.6536L3.16513 16.6578L3.15861 16.6592C3.15856 16.6592 3.15798 16.6593 3.00016 15.9261L3.15861 16.6592C2.75367 16.7464 2.35412 16.4889 2.26695 16.084C2.17978 15.679 2.43739 15.2801 2.84233 15.1929L2.84755 15.1918L2.86474 15.1881L2.93279 15.1731C2.9924 15.1599 3.07946 15.1405 3.18814 15.1157C3.40563 15.066 3.70892 14.995 4.05151 14.91C4.60389 14.7728 5.24145 14.603 5.78399 14.4297C6.4849 11.3322 7.80702 9.72903 9.15617 8.937C9.84879 8.53039 10.5119 8.36027 11.0326 8.29234C11.2927 8.25841 11.5168 8.25 11.6904 8.25C11.7771 8.25 11.8506 8.2521 11.907 8.25405L11.9756 8.25651C11.9926 8.25709 11.9992 8.25719 12.0001 8.25721ZM9.74473 14.3234C10.1204 14.4979 10.2834 14.9439 10.1089 15.3195L9.25178 17.1646C9.15243 17.3784 8.95831 17.5331 8.7277 17.5822L8.72203 17.5834L8.69583 17.5893C8.67173 17.5948 8.63473 17.6035 8.58669 17.6155C8.4905 17.6394 8.35076 17.6761 8.18215 17.7261C7.84247 17.8268 7.39747 17.978 6.95922 18.1818C6.51417 18.3887 6.11607 18.6316 5.83935 18.9C5.56675 19.1645 5.46445 19.3991 5.46445 19.6162C5.46445 19.7931 5.51421 19.8824 5.56058 19.9386C5.61765 20.0077 5.71264 20.0751 5.8523 20.1315C5.99053 20.1873 6.13933 20.2187 6.26088 20.235C6.3197 20.2429 6.36749 20.2467 6.39825 20.2485C6.41351 20.2494 6.42424 20.2497 6.42966 20.2499C6.43085 20.2499 6.43177 20.2499 6.43243 20.2499H8.30584L10.3664 19.1053L13.0975 17.3672C13.4469 17.1448 13.9105 17.2478 14.1329 17.5973C14.3553 17.9467 14.2523 18.4103 13.9028 18.6327L12.2158 19.7063L13.1945 20.2501H17.5679C17.5685 20.25 17.5695 20.25 17.5707 20.25C17.5761 20.2498 17.5868 20.2495 17.6021 20.2486C17.6328 20.2468 17.6806 20.243 17.7394 20.2351C17.861 20.2188 18.0098 20.1874 18.148 20.1316C18.2877 20.0752 18.3827 20.0078 18.4397 19.9387C18.4861 19.8825 18.5359 19.7932 18.5359 19.6163C18.5359 19.3992 18.4336 19.1646 18.161 18.9002C17.8843 18.6317 17.4862 18.3888 17.0411 18.1819C16.6029 17.9782 16.1579 17.8269 15.8182 17.7262C15.6496 17.6762 15.5098 17.6395 15.4136 17.6156C15.3656 17.6036 15.3286 17.595 15.3045 17.5894L15.2783 17.5835L15.2729 17.5823C15.0423 17.5333 14.8479 17.3785 14.7485 17.1647L13.8914 15.3197C13.7169 14.944 13.8799 14.498 14.2556 14.3235C14.6312 14.149 15.0773 14.312 15.2518 14.6877L15.9576 16.207C16.0421 16.2297 16.1386 16.2567 16.2446 16.2881C16.6282 16.4018 17.1475 16.5772 17.6735 16.8217C18.1927 17.0632 18.7589 17.3904 19.2054 17.8235C19.656 18.2607 20.0359 18.8591 20.0359 19.6163C20.0359 20.1312 19.8713 20.5608 19.5963 20.8939C19.3319 21.214 18.9983 21.406 18.7094 21.5226C18.4191 21.6398 18.1393 21.6948 17.9394 21.7217C17.8375 21.7354 17.7514 21.7425 17.6884 21.7461C17.6568 21.7479 17.6307 21.7489 17.611 21.7494L17.5863 21.75L17.5776 21.75L17.5743 21.7501L17.5728 21.7501C17.5725 21.7501 17.5716 21.7501 17.5716 21.0071V21.7501H13.0002C12.8727 21.7501 12.7473 21.7176 12.6359 21.6557L10.7501 20.608L8.86437 21.6556C8.75296 21.7175 8.62761 21.7499 8.50016 21.7499H6.42874V21.0017C6.42874 21.7499 6.42905 21.7499 6.42874 21.7499L6.42747 21.7499L6.42604 21.7499L6.42269 21.7499L6.41405 21.7498L6.38931 21.7493C6.36961 21.7488 6.34351 21.7478 6.3119 21.746C6.24891 21.7424 6.16277 21.7353 6.06088 21.7216C5.861 21.6947 5.58123 21.6396 5.29089 21.5225C5.00197 21.4058 4.66839 21.2138 4.40403 20.8937C4.12897 20.5607 3.96445 20.1311 3.96445 19.6162C3.96445 18.859 4.34429 18.2605 4.79491 17.8234C5.2414 17.3903 5.80759 17.063 6.32682 16.8216C6.85286 16.577 7.37215 16.4017 7.75568 16.288C7.86169 16.2565 7.95823 16.2295 8.04273 16.2069L8.74855 14.6876C8.92307 14.3119 9.36907 14.1488 9.74473 14.3234Z" fill="black"/>
</g>
</g>
</g>
<defs>
<clipPath id="clip0_232_1870">
<rect width="24" height="24" rx="5" fill="white"/>
</clipPath>
</defs>
</svg>
