<svg width="24" height="24" viewBox="0 0 24 24" fill="none" xmlns="http://www.w3.org/2000/svg">
<g id="youtube">
<g clip-path="url(#clip0_232_14020)">
<g id="Weight=Dynamic">
<g id="Vector">
</g>
<path id="Vector (Stroke)" fill-rule="evenodd" clip-rule="evenodd" d="M8.06649 4.21591C9.42076 4.17761 10.8087 4.15002 12 4.15002C13.1913 4.15002 14.5792 4.17761 15.9335 4.21591L15.9885 4.21747C17.3674 4.25645 18.4789 4.28787 19.3554 4.43282C20.268 4.58374 21.0261 4.87174 21.6323 5.49526C22.24 6.12045 22.5055 6.89367 22.6301 7.8187C22.75 8.70907 22.75 9.8366 22.75 11.2378V12.7624C22.75 14.1635 22.75 15.291 22.6301 16.1814C22.5055 17.1064 22.24 17.8796 21.6323 18.5048C21.0262 19.1283 20.2681 19.4163 19.3554 19.5673C18.4789 19.7122 17.3674 19.7437 15.9886 19.7827L15.9336 19.7842C14.5793 19.8225 13.1913 19.8501 12 19.8501C10.8087 19.8501 9.42068 19.8225 8.06639 19.7842L8.01137 19.7827C6.63258 19.7437 5.52106 19.7122 4.64456 19.5673C3.73195 19.4163 2.97384 19.1283 2.36771 18.5048C1.75996 17.8796 1.4945 17.1064 1.3699 16.1814C1.24996 15.291 1.24998 14.1635 1.25 12.7624V11.2378C1.24998 9.83661 1.24996 8.70908 1.3699 7.8187C1.49451 6.89367 1.75996 6.12045 2.36772 5.49526C2.97386 4.87174 3.73199 4.58374 4.64461 4.43282C5.52112 4.28787 6.63265 4.25645 8.01146 4.21747L8.06649 4.21591ZM12 5.65002C10.8289 5.65002 9.45671 5.67719 8.1089 5.71531C6.66206 5.75624 5.65316 5.7864 4.88935 5.91272C4.15003 6.03498 3.74263 6.23288 3.44327 6.54082C3.14553 6.8471 2.95824 7.26345 2.85647 8.01895C2.75159 8.79755 2.75 9.82376 2.75 11.2925V12.7076C2.75 14.1764 2.75159 15.2026 2.85647 15.9812C2.95824 16.7366 3.14553 17.153 3.44326 17.4593C3.74262 17.7672 4.15002 17.9651 4.88932 18.0874C5.65311 18.2137 6.662 18.2439 8.10881 18.2848C9.45665 18.3229 10.8289 18.3501 12 18.3501C13.1711 18.3501 14.5434 18.3229 15.8912 18.2848C17.338 18.2439 18.3469 18.2137 19.1107 18.0874C19.85 17.9651 20.2574 17.7672 20.5567 17.4593C20.8545 17.153 21.0418 16.7366 21.1435 15.9812C21.2484 15.2026 21.25 14.1764 21.25 12.7076V11.2925C21.25 9.82376 21.2484 8.79755 21.1435 8.01895C21.0418 7.26345 20.8545 6.8471 20.5567 6.54082C20.2574 6.23288 19.85 6.03498 19.1107 5.91272C18.3468 5.7864 17.3379 5.75624 15.8911 5.71531C14.5433 5.67719 13.1711 5.65002 12 5.65002ZM10.1236 9.35132C10.3548 9.21713 10.64 9.21617 10.8721 9.34882L14.3721 11.3488C14.6058 11.4823 14.75 11.7309 14.75 12C14.75 12.2691 14.6058 12.5177 14.3721 12.6512L10.8721 14.6512C10.64 14.7838 10.3548 14.7829 10.1236 14.6487C9.89232 14.5145 9.75 14.2674 9.75 14V10C9.75 9.73265 9.89232 9.48551 10.1236 9.35132ZM11.25 11.2924V12.7076L12.4883 12L11.25 11.2924Z" fill="black"/>
</g>
</g>
</g>
<defs>
<clipPath id="clip0_232_14020">
<rect width="24" height="24" rx="5" fill="white"/>
</clipPath>
</defs>
</svg>
