<svg width="24" height="24" viewBox="0 0 24 24" fill="none" xmlns="http://www.w3.org/2000/svg">
<g id="z-square">
<g clip-path="url(#clip0_232_15651)">
<g id="Weight=Dynamic">
<path id="Vector (Stroke)" fill-rule="evenodd" clip-rule="evenodd" d="M2.25 3.6C2.25 2.85442 2.85442 2.25 3.6 2.25H20.4C21.1456 2.25 21.75 2.85442 21.75 3.6V20.4C21.75 21.1456 21.1456 21.75 20.4 21.75H3.6C2.85442 21.75 2.25 21.1456 2.25 20.4V3.6ZM3.75 3.75V20.25H20.25V3.75H3.75ZM9.25 8C9.25 7.58579 9.58579 7.25 10 7.25H14C14.2599 7.25 14.5013 7.38459 14.638 7.6057C14.7746 7.82681 14.7871 8.10292 14.6708 8.33541L11.2135 15.25H14C14.4142 15.25 14.75 15.5858 14.75 16C14.75 16.4142 14.4142 16.75 14 16.75H10C9.74007 16.75 9.49867 16.6154 9.36201 16.3943C9.22536 16.1732 9.21293 15.8971 9.32918 15.6646L12.7865 8.75H10C9.58579 8.75 9.25 8.41421 9.25 8Z" fill="black"/>
</g>
</g>
</g>
<defs>
<clipPath id="clip0_232_15651">
<rect width="24" height="24" rx="5" fill="white"/>
</clipPath>
</defs>
</svg>
